<svg xmlns="http://www.w3.org/2000/svg" viewBox="0 0 576 512"><!-- Font Awesome Pro 5.15.4 by @fontawesome - https://fontawesome.com License - https://fontawesome.com/license (Commercial License) --><path d="M560 0c-8.84 0-16 7.16-16 16v64h-64V64c0-17.67-14.33-32-32-32h-32c-17.67 0-32 14.33-32 32v16h-96V64c0-17.67-14.33-32-32-32h-32c-17.67 0-32 14.33-32 32v16h-32V64c0-17.67-14.33-32-32-32H96c-17.67 0-32 14.33-32 32v16H32V16c0-8.84-7.16-16-16-16S0 7.16 0 16v488c0 4.42 3.58 8 8 8h16c4.42 0 8-3.58 8-8v-72h32v16c0 17.67 14.33 32 32 32h32c17.67 0 32-14.33 32-32v-16h32v16c0 17.67 14.33 32 32 32h32c17.67 0 32-14.33 32-32v-16h96v16c0 17.67 14.33 32 32 32h32c17.67 0 32-14.33 32-32v-16h64v72c0 4.42 3.58 8 8 8h16c4.42 0 8-3.58 8-8V16c0-8.84-7.16-16-16-16zM416 64h32v64h-32V64zm-192 0h32v64h-32V64zM96 64h32v64H96V64zm32 384H96v-64h32v64zm128 0h-32v-64h32v64zm192 0h-32v-64h32v64zm96-48h-64v-16c0-17.67-14.33-32-32-32h-32c-17.67 0-32 14.33-32 32v16h-96v-16c0-17.67-14.33-32-32-32h-32c-17.67 0-32 14.33-32 32v16h-32v-16c0-17.67-14.33-32-32-32H96c-17.67 0-32 14.33-32 32v16H32V272h32v16c0 17.67 14.33 32 32 32h32c17.67 0 32-14.33 32-32v-16h32v16c0 17.67 14.33 32 32 32h32c17.67 0 32-14.33 32-32v-16h32v16c0 17.67 14.33 32 32 32h32c17.67 0 32-14.33 32-32v-16h128v128zM96 288v-64h32v64H96zm128 0v-64h32v64h-32zm128 0v-64h32v64h-32zm192-48H416v-16c0-17.67-14.33-32-32-32h-32c-17.67 0-32 14.33-32 32v16h-32v-16c0-17.67-14.33-32-32-32h-32c-17.67 0-32 14.33-32 32v16h-32v-16c0-17.67-14.33-32-32-32H96c-17.67 0-32 14.33-32 32v16H32V112h32v16c0 17.67 14.33 32 32 32h32c17.67 0 32-14.33 32-32v-16h32v16c0 17.67 14.33 32 32 32h32c17.67 0 32-14.33 32-32v-16h96v16c0 17.67 14.33 32 32 32h32c17.67 0 32-14.33 32-32v-16h64v128z"/></svg>