<svg xmlns="http://www.w3.org/2000/svg" viewBox="0 0 512 512"><!-- Font Awesome Pro 5.15.4 by @fontawesome - https://fontawesome.com License - https://fontawesome.com/license (Commercial License) --><path d="M464 64H48C21.5 64 0 85.5 0 112v288c0 26.5 21.5 48 48 48h416c26.5 0 48-21.5 48-48V112c0-26.5-21.5-48-48-48zm16 336c0 8.82-7.18 16-16 16H48c-8.82 0-16-7.18-16-16V112c0-8.82 7.18-16 16-16h416c8.82 0 16 7.18 16 16v288zm-72-240h-16c-4.42 0-8 3.58-8 8v64.88c-9.45-5.5-20.28-8.88-32-8.88-35.35 0-64 28.65-64 64s28.65 64 64 64c11.72 0 22.55-3.38 32-8.88v.88c0 4.42 3.58 8 8 8h16c4.42 0 8-3.58 8-8V168c0-4.42-3.58-8-8-8zm-56 160c-17.64 0-32-14.36-32-32s14.36-32 32-32 32 14.36 32 32-14.36 32-32 32zM196.97 165.13a8.007 8.007 0 0 0-7.47-5.13h-27.01c-3.31 0-6.28 2.04-7.47 5.13l-67.69 176C85.31 346.37 89.18 352 94.8 352h17.15c3.31 0 6.28-2.04 7.47-5.13L142.07 288h67.86l22.64 58.87a8.007 8.007 0 0 0 7.47 5.13h17.15c5.62 0 9.48-5.63 7.47-10.87l-67.69-176zM154.37 256L176 199.77 197.63 256h-43.26z"/></svg>