<svg xmlns="http://www.w3.org/2000/svg" viewBox="0 0 512 512"><!-- Font Awesome Pro 5.15.4 by @fontawesome - https://fontawesome.com License - https://fontawesome.com/license (Commercial License) --><path d="M256 40c119.945 0 216 97.337 216 216 0 119.945-97.337 216-216 216-119.945 0-216-97.337-216-216 0-119.945 97.337-216 216-216m0-32C119.033 8 8 119.033 8 256s111.033 248 248 248 248-111.033 248-248S392.967 8 256 8zm-32 124.01v247.98c-53.855-13.8-96-63.001-96-123.99 0-60.99 42.145-110.19 96-123.99M256 96c-88.366 0-160 71.634-160 160s71.634 160 160 160V96z"/></svg>