<svg xmlns="http://www.w3.org/2000/svg" viewBox="0 0 512 512"><!-- Font Awesome Pro 5.15.4 by @fontawesome - https://fontawesome.com License - https://fontawesome.com/license (Commercial License) --><path d="M160 240C115.875 240 80 275.875 80 320S115.875 400 160 400S240 364.125 240 320S204.125 240 160 240ZM160 368C133.5 368 112 346.5 112 320S133.5 272 160 272S208 293.5 208 320S186.5 368 160 368ZM224 128V32C224 14.406 209.594 0 192 0H128C110.406 0 96 14.406 96 32V128C43 128 0 171 0 224V448C0 483.203 28.812 512 64 512H256C291.188 512 320 483.203 320 448V224C320 171 277 128 224 128ZM128 32H192V128H128V32ZM288 448C288 465.672 273.688 480 256 480H64C46.312 480 32 465.672 32 448V224C32 188.797 60.812 160 96 160H224C259.188 160 288 188.797 288 224V448ZM496 224H480V208C480 199.156 472.844 192 464 192S448 199.156 448 208V224H432C423.156 224 416 231.156 416 240S423.156 256 432 256H448V272C448 280.844 455.156 288 464 288S480 280.844 480 272V256H496C504.844 256 512 248.844 512 240S504.844 224 496 224ZM432 64H448V80C448 88.844 455.156 96 464 96S480 88.844 480 80V64H496C504.844 64 512 56.844 512 48S504.844 32 496 32H480V16C480 7.156 472.844 0 464 0S448 7.156 448 16V32H432C423.156 32 416 39.156 416 48S423.156 64 432 64ZM416 160H432C440.844 160 448 152.844 448 144S440.844 128 432 128H416V112C416 103.156 408.844 96 400 96S384 103.156 384 112V128H368C359.156 128 352 135.156 352 144S359.156 160 368 160H384V176C384 184.844 391.156 192 400 192S416 184.844 416 176V160ZM352 64H368C376.844 64 384 56.844 384 48S376.844 32 368 32H352V16C352 7.156 344.844 0 336 0S320 7.156 320 16V32H304C295.156 32 288 39.156 288 48S295.156 64 304 64H320V80C320 88.844 327.156 96 336 96S352 88.844 352 80V64Z"/></svg>