<svg xmlns="http://www.w3.org/2000/svg" viewBox="0 0 512 512"><!-- Font Awesome Pro 5.15.4 by @fontawesome - https://fontawesome.com License - https://fontawesome.com/license (Commercial License) --><path d="M496 80a16 16 0 0 0-16-16H32a16 16 0 0 0-16 16v16h480zm-16-64a16 16 0 0 0-16-16H48a16 16 0 0 0-16 16v16h448zm0 112H32C13.19 128-1.57 145.62.13 166.07l26.18 314.18c1.5 18 15.32 31.75 31.87 31.75h395.64c16.55 0 30.37-13.77 31.86-31.75l26.19-314.18C513.57 145.62 498.82 128 480 128zm-26.21 349.6c-.12 1.47-.69 2.31-.2 2.4l-394.32.27a4 4 0 0 1-1.07-2.68L32 163.41c-.18-2.09.67-3.32.12-3.41h447a5 5 0 0 1 .82 3.41zM256 299.15c-14.55 0-26.25 10.16-26.13 22.6S241.69 344 256 344s26-9.9 26.14-22.23-11.58-22.62-26.14-22.62zM256 192c-92.9 0-164.33 61.88-159.79 134.4C100.51 395 172 448 256 448s155.5-53 159.8-121.6C420.33 253.88 348.9 192 256 192zm0 224c-67.34 0-124.7-41.09-127.86-91.6-1.69-27 11.71-47.29 23.25-59.58C175.77 238.88 213.9 224 256 224s80.23 14.88 104.6 40.82c11.54 12.29 24.95 32.6 23.26 59.58C380.7 374.91 323.34 416 256 416z"/></svg>