<svg xmlns="http://www.w3.org/2000/svg" viewBox="0 0 448 512"><!-- Font Awesome Pro 5.15.4 by @fontawesome - https://fontawesome.com License - https://fontawesome.com/license (Commercial License) --><path d="M224 416c88.22 0 160-71.78 160-160S312.22 96 224 96 64 167.78 64 256s71.78 160 160 160zm0-288A128 128 0 1 1 96 256a128.14 128.14 0 0 1 128-128zm0 152a24 24 0 1 0-24-24 24 24 0 0 0 24 24zM416 32H32A32 32 0 0 0 0 64v384a32 32 0 0 0 32 32h384a32 32 0 0 0 32-32V64a32 32 0 0 0-32-32zm0 416H32V64h384z"/></svg>