<svg xmlns="http://www.w3.org/2000/svg" viewBox="0 0 640 512"><!-- Font Awesome Pro 5.15.4 by @fontawesome - https://fontawesome.com License - https://fontawesome.com/license (Commercial License) --><path d="M631.98 64h-96.92l-.24-.3c5.39-9.45 8.38-20.32 8.38-31.7 0-17.67-14.33-32-32-32H400c-69.18 0-125.38 55.26-127.59 123.92-35.69-9.21-63.11-34.71-81.51-76.61-4-9.16-13.06-15.16-23.03-15.31-10.53.2-18.84 5.36-23.13 14.39C133.63 69.94 128 95.08 128 121.09c0 75.38 56.56 143.6 132.87 161.9 4.42 1.06 8.86-1.96 9.7-6.43l2.97-15.7c.8-4.22-1.93-8.17-6.1-9.2C205.69 236.47 160 181.6 160 121.09c0-16.31 2.72-32.19 8.06-47.38C197.38 130.23 244.1 160 303.94 160l.06-32c0-53.02 42.98-96 96-96h111.2c0 13.29-8.1 24.66-19.63 29.5l20.39 24.78.05 93.88a16 16 0 0 1-10.83 15.15l-25.52 8.71c-9.33 3.19-16.14-2.76-18.48-6.27L432 160l-48-16v100.21c0 26.67-12.65 50.17-32 65.6V480h-64V318.69l-104.43-23.21-32.12 89.47L175.53 480H118l-21.13-87.86a31.698 31.698 0 0 1 .37-16.18l27.63-93.41C107.46 270.37 96 250.24 96 227.37c0-15.82 5.68-30.18 14.82-41.68-4.94-10.84-8.98-22.04-11.4-33.73-8.09 6.94-15.19 15.02-20.76 24.18C35.11 176.87 0 212.27 0 256v56c0 4.42 3.58 8 8 8h16c4.42 0 8-3.58 8-8v-56c0-21.5 14.23-39.48 33.72-45.59-.96 5.54-1.71 11.15-1.71 16.96 0 24.2 8.9 47.33 24.53 65.24l-21.97 74.27c-3.12 10.77-3.38 22.03-.8 32.74l21.13 87.86C90.34 501.86 103.21 512 118 512h57.53c20.95 0 36.12-19.75 31.02-39.86l-21.68-85.57 19.29-53.73L256 344.36V480c0 17.67 14.33 32 32 32h64c17.67 0 32-14.33 32-32V323.8c20.5-21.5 32-49.75 32-79.59v-50.52l14.55 21.82c19.11 28.67 49.98 20.67 55.45 18.8l25.52-8.71c19.44-6.63 32.5-24.89 32.49-45.44l-.03-64.83 92.45-36.66c6.58-4.4 3.47-14.67-4.45-14.67zM464.01 96c0-8.84-7.16-16-16-16s-16 7.16-16 16 7.16 16 16 16c8.83 0 16-7.16 16-16z"/></svg>