<svg xmlns="http://www.w3.org/2000/svg" viewBox="0 0 448 512"><!-- Font Awesome Pro 5.15.4 by @fontawesome - https://fontawesome.com License - https://fontawesome.com/license (Commercial License) --><path d="M224,0C100.28125,0,0,88.0293,0,232.45117c0,111.77735,134.21484,224.59766,194.86328,269.875a48.71553,48.71553,0,0,0,58.27344,0C313.78516,457.04883,448,344.22852,448,232.45117,448,88.0293,347.6875,0,224,0Zm9.99219,476.68359a16.71415,16.71415,0,0,1-19.98633,0C171.30859,444.80859,32,332.99609,32,232.45117,32,114.42773,110.95312,32,224,32s192,82.42773,192,200.45117C416,332.99609,276.69141,444.80859,233.99219,476.68359ZM368,212H320a79.999,79.999,0,0,0-80,80v12a16.00079,16.00079,0,0,0,16,16h48a80.00021,80.00021,0,0,0,80-80V228A15.99954,15.99954,0,0,0,368,212Zm-64,76H272.166A48.06494,48.06494,0,0,1,320,244h31.834A48.06645,48.06645,0,0,1,304,288ZM128,212H80a15.99954,15.99954,0,0,0-16,16v12a80.00021,80.00021,0,0,0,80,80h48a16.00079,16.00079,0,0,0,16-16V292A79.999,79.999,0,0,0,128,212Zm16,76a48.06645,48.06645,0,0,1-47.834-44H128a48.06494,48.06494,0,0,1,47.834,44Z"/></svg>