<svg xmlns="http://www.w3.org/2000/svg" viewBox="0 0 448 512"><!-- Font Awesome Pro 5.15.4 by @fontawesome - https://fontawesome.com License - https://fontawesome.com/license (Commercial License) --><path d="M344 48H104a8 8 0 0 0-8 8v16a8 8 0 0 0 8 8h240a8 8 0 0 0 8-8V56a8 8 0 0 0-8-8zm96 384H8a8 8 0 0 0-8 8v16a8 8 0 0 0 8 8h432a8 8 0 0 0 8-8v-16a8 8 0 0 0-8-8zm-96-128H104a8 8 0 0 0-8 8v16a8 8 0 0 0 8 8h240a8 8 0 0 0 8-8v-16a8 8 0 0 0-8-8zm96-128H8a8 8 0 0 0-8 8v16a8 8 0 0 0 8 8h432a8 8 0 0 0 8-8v-16a8 8 0 0 0-8-8z"/></svg>