<svg xmlns="http://www.w3.org/2000/svg" viewBox="0 0 448 512"><!-- Font Awesome Pro 5.15.4 by @fontawesome - https://fontawesome.com License - https://fontawesome.com/license (Commercial License) --><path d="M240 416c-8.8 0-16 7.2-16 16s7.2 16 16 16 16-7.2 16-16-7.2-16-16-16zm96 0c-8.8 0-16 7.2-16 16s7.2 16 16 16 16-7.2 16-16-7.2-16-16-16zm-160-32c-8.8 0-16 7.2-16 16s7.2 16 16 16 16-7.2 16-16-7.2-16-16-16zm192-96c-8.8 0-16 7.2-16 16s7.2 16 16 16 16-7.2 16-16-7.2-16-16-16zm-64 64c-8.8 0-16 7.2-16 16s7.2 16 16 16 16-7.2 16-16-7.2-16-16-16zm-64-32c-8.8 0-16 7.2-16 16s7.2 16 16 16 16-7.2 16-16-7.2-16-16-16zm-64-32c-8.8 0-16 7.2-16 16s7.2 16 16 16 16-7.2 16-16-7.2-16-16-16zm216-176c-8.6 0-16.7 1.9-24 5.4V88c0-30.9-25.1-56-56-56-9.7 0-18.8 2.5-26.7 6.8C278 16.3 256.9 0 232 0s-46 16.3-53.3 38.8c-7.9-4.3-17-6.8-26.7-6.8-30.9 0-56 25.1-56 56v152.8c-11.5-11.8-42.1-27.7-72.1-6.7-25.3 17.7-31.5 52.7-13.8 78l113.7 171.3c11.9 17.9 31.8 28.6 53.3 28.6h180.6c30.4 0 56.8-21.6 62.8-51.4l20.6-103.2c4.5-22.7 6.8-45.9 6.8-69V168c.1-30.9-25-56-55.9-56zm24 176.3c0 21.1-2.1 42.1-6.2 62.8l-20.6 103.2c-3 15-16.1 25.7-31.4 25.7H177.2c-10.7 0-20.7-5.4-26.7-14.3L36.3 293.8c-7.6-10.9-5-25.8 5.9-33.4 15.8-11.1 30 1 33.4 5.9l37.8 54.4c4.5 6.4 14.6 3.3 14.6-4.6V88c0-13.3 10.7-24 24-24s24 10.7 24 24v160c0 4.4 3.6 8 8 8h16c4.4 0 8-3.6 8-8V56c0-13.3 10.7-24 24-24s24 10.7 24 24v192c0 4.4 3.6 8 8 8h16c4.4 0 8-3.6 8-8V88c0-13.3 10.7-24 24-24s24 10.7 24 24v160c0 4.4 3.6 8 8 8h16c4.4 0 8-3.6 8-8v-80c0-13.3 10.7-24 24-24s24 10.7 24 24v120.3z"/></svg>