<svg xmlns="http://www.w3.org/2000/svg" viewBox="0 0 640 512"><!-- Font Awesome Pro 5.15.4 by @fontawesome - https://fontawesome.com License - https://fontawesome.com/license (Commercial License) --><path d="M635.9 213.3c0-.1-41.3-83.1-41.3-83.1-9.6-19.3-33.6-28.5-54.4-18l-55.3 28-79-7.4c-5.1-.5-32.5-.7-59.3 15.8-7.5-14.4-18.5-20.5-32.9-26.1 17-32.5-6.9-77-51.8-70.8C263.5 24.2 241.8 0 213.4 0c-11.3 0-22.3 4-31.1 11.2-45 37.2-74.1 89.9-81.7 147.7L68 218.1l-48.1 27.6c-18.2 10.8-25 33.9-15.8 53.1 0 .1 41.3 83.1 41.3 83.1 9.6 19.3 33.6 28.5 54.4 18l55.3-28c81.1 7.5 81.2 7.5 82.7 7.5 19.9 0 39.1-5.7 55.6-15.9 4.7 9.1 12.2 16.4 21.5 21.1 2.6 1.3 7 3.3 11.3 5-16.9 32.3 6.9 77 51.8 70.8-1.6 27.8 20.7 51.5 48.6 51.5 11.3 0 22.4-4 31.1-11.3 45-37.3 74-89.9 81.7-147.6l32.6-59.2s48-27.6 48.1-27.6c18.2-10.7 25-33.8 15.8-52.9zm-339.6-26.9c-20.4-10.3-44.5-11.7-66.1-4-8.4 3-6.3 15.5 2.7 15.5 33.4 0 58.9 15.1 71.9 42.6 9.2 19.4-19.8 34.9-30 14.3-7-14.4-21.2-23.4-37-23.4-22.6 0-40.9 18.5-40.9 41.1 0 25.4 21.2 41.1 40.9 41.1 15.8 0 30-9 37-23.4 0 0 0-.1.1-.1 9.4-20.2 39.4-5.4 30 14.4-12.3 25.9-38.4 42.7-66.7 42.8-4.7-.4-64-5.9-87-8-1.5-.1-3 .1-4.3.8l-61.4 31.1c-4.1 2.1-9.2.5-11.3-3.6v-.1l-41.1-82.8c-2-4.2-.6-9.3 3.3-11.6l53.7-30.8c1.3-.7 2.3-1.8 3-3.1l38-69.1c.5-.9.8-1.9.9-3 5.7-51.7 30.9-98.3 70.9-131.4 16.6-13.9 38.7 11.3 21 26.1-12.5 10.7-23.1 22.4-31.5 34.8-4.9 7.3 3.9 16.1 11.1 11.1 19.9-13.6 41.8-22 65.2-24.8 8.6-1.1 17.1 4.3 18.5 14.6 1.2 9.3-5.1 17.7-14.4 18.7-15.4 1.9-30.2 7-44 15.3-7.7 4.6-3 16.6 5.8 14.7 24.3-5.4 52.8-1.7 76.2 9.7 20.6 10.4 4.6 39.9-14.5 30.5zM248 272.6c-2 3.3-3.6 9.1-10.2 9.1-2.8 0-8.9-2.3-8.9-9.1 0-5.1 3.9-9.1 8.9-9.1 6.6-.1 8.1 5.6 10.2 9.1zm355.8-33.9l-53.7 30.8c-1.3.7-2.3 1.8-3 3.1l-38 69.1c-.5.9-.8 1.9-.9 3-5.7 51.7-30.9 98.3-71 131.5-16.5 13.8-38.7-11.4-21-26.1 12.5-10.7 23.1-22.3 31.5-34.8 5-7.4-4-16-11.1-11.1-19.9 13.6-41.8 22-65.1 24.8-21.6 2.7-26.2-30.8-4.2-33.3 15.4-1.9 30.2-7 44-15.3 7.7-4.6 3-16.6-5.8-14.7-24.3 5.4-52.8 1.7-76.2-9.7-20.8-10.5-4.5-39.8 14.4-30.5 20.4 10.3 44.5 11.7 66.2 4 8.4-3 6.3-15.5-2.7-15.5-33.4 0-58.9-15.1-71.9-42.6-9.4-19.8 20.5-34.6 30-14.4l.1.1c7 14.4 21.2 23.4 37 23.4 22.6 0 40.9-18.5 40.9-41.1 0-25.4-21.2-41.1-40.9-41.1-15.8 0-30 9-37 23.4l-.1.1c-9.4 20.2-39.4 5.5-30-14.4 12.5-26.3 38.6-42.7 68.2-42.8l85.5 8c1.5.1 3-.1 4.4-.8l61.4-31.1c4.1-2.1 9.2-.5 11.3 3.6v.1l41.1 82.8c1.9 4.2.5 9.2-3.4 11.5zm-211.8.7c1.9-3.3 3.5-9.1 10.2-9.1 2.8 0 8.9 2.3 8.9 9.1 0 5.1-3.9 9.1-8.9 9.1-6.6.1-8.1-5.6-10.2-9.1z"/></svg>