<svg xmlns="http://www.w3.org/2000/svg" viewBox="0 0 512 512"><!-- Font Awesome Pro 5.15.4 by @fontawesome - https://fontawesome.com License - https://fontawesome.com/license (Commercial License) --><path d="M464 64h-77.19C357.9 36.07 310.29 0 256 0S154.1 36.07 125.19 64H48a48 48 0 0 0-48 48v352a48 48 0 0 0 48 48h416a48 48 0 0 0 48-48V112a48 48 0 0 0-48-48zM256 32c30.15 0 58.63 14.85 81.61 32H174.39c22.99-17.15 51.46-32 81.61-32zm224 432a16 16 0 0 1-16 16H48a16 16 0 0 1-16-16V288h448zm0-208H32V112a16 16 0 0 1 16-16h416a16 16 0 0 1 16 16zM112 128a48 48 0 1 0 48 48 48.05 48.05 0 0 0-48-48zm0 64a16 16 0 1 1 16-16 16 16 0 0 1-16 16zm128-64a48 48 0 1 0 48 48 48.05 48.05 0 0 0-48-48zm0 64a16 16 0 1 1 16-16 16 16 0 0 1-16 16zm176 160a16 16 0 1 0-16-16 16 16 0 0 0 16 16zm0 64a16 16 0 1 0 16 16 16 16 0 0 0-16-16zm-32-16a16 16 0 1 0-16-16 16 16 0 0 0 16 16zm-32 16a16 16 0 1 0 16 16 16 16 0 0 0-16-16zm-192 0a16 16 0 1 0 16 16 16 16 0 0 0-16-16zm64 0a16 16 0 1 0 16 16 16 16 0 0 0-16-16zm128-64a16 16 0 1 0-16-16 16 16 0 0 0 16 16zm-64 64a16 16 0 1 0 16 16 16 16 0 0 0-16-16zm-96-16a16 16 0 1 0-16-16 16 16 0 0 0 16 16zm-32-48a16 16 0 1 0-16-16 16 16 0 0 0 16 16zm-32 48a16 16 0 1 0-16-16 16 16 0 0 0 16 16zm-32-48a16 16 0 1 0-16-16 16 16 0 0 0 16 16zm224 48a16 16 0 1 0-16-16 16 16 0 0 0 16 16zM96 448a16 16 0 1 0-16-16 16 16 0 0 0 16 16zm192-96a16 16 0 1 0-16-16 16 16 0 0 0 16 16zm-32 48a16 16 0 1 0-16-16 16 16 0 0 0 16 16zm-32-48a16 16 0 1 0-16-16 16 16 0 0 0 16 16z"/></svg>