<svg xmlns="http://www.w3.org/2000/svg" viewBox="0 0 576 512"><!-- Font Awesome Pro 5.15.4 by @fontawesome - https://fontawesome.com License - https://fontawesome.com/license (Commercial License) --><path d="M504.485 264.485c-4.686-4.686-12.284-4.686-16.971 0l-67.029 67.029c-7.56 7.56-2.206 20.485 8.485 20.485h49.129C461.111 420.749 390.501 473.6 304 479.452V192h52c6.627 0 12-5.373 12-12v-8c0-6.627-5.373-12-12-12h-52v-34.016c28.513-7.339 49.336-33.833 47.933-64.947-1.48-32.811-28.101-59.458-60.911-60.967C254.302-1.619 224 27.652 224 64c0 29.821 20.396 54.879 48 61.984V160h-52c-6.627 0-12 5.373-12 12v8c0 6.627 5.373 12 12 12h52v287.452C185.498 473.6 114.888 420.749 97.901 352h49.129c10.691 0 16.045-12.926 8.485-20.485l-67.029-67.03c-4.686-4.686-12.284-4.686-16.971 0l-67.029 67.03C-3.074 339.074 2.28 352 12.971 352h52.136C83.963 448.392 182.863 512 288 512c110.901 0 204.938-68.213 222.893-160h52.136c10.691 0 16.045-12.926 8.485-20.485l-67.029-67.03zM256 64c0-17.645 14.355-32 32-32s32 14.355 32 32-14.355 32-32 32-32-14.355-32-32zM61.255 320L80 301.255 98.745 320h-37.49zm416 0L496 301.255 514.745 320h-37.49z"/></svg>