<svg xmlns="http://www.w3.org/2000/svg" viewBox="0 0 576 512"><!-- Font Awesome Pro 5.15.4 by @fontawesome - https://fontawesome.com License - https://fontawesome.com/license (Commercial License) --><path d="M176.7 137.3c.7-11.4 2.9-22.4 6.8-32.6-15-8.6-23.5-17.8-23.5-24.7 0-16.9 48.6-48 128-48s128 31.1 128 48c0 6.9-8.5 16.1-23.5 24.7 3.9 10.3 6.1 21.2 6.8 32.6 30-14.5 48.7-34.8 48.7-57.3 0-44.2-71.6-80-160-80S128 35.8 128 80c0 22.5 18.7 42.8 48.7 57.3zm395.8 327.3L534.3 386c-7.6-15.7-7.6-34.4 0-50.1 16.7-34.2 25.6-36.5 25.6-71.8 0-46.9-43.2-88-92.4-88-23 0-44.5 9.2-60.7 25.7l-67.5 68.1C324 261 306.4 256 288 256s-35.9 5-51.3 13.8l-67.5-68.1c-16.1-16.5-37.7-25.7-60.7-25.7-49.2 0-92.4 41.1-92.4 88 0 35.4 9 37.9 25.6 71.8 7.6 15.7 7.6 34.4 0 50.1L3.6 464.6C-8.1 488.5 11 512 32.6 512h510.8c22.2 0 40.5-24.1 29.1-47.4zM32.6 480l37.9-80.1c11.9-24.5 11.9-53.6 0-78.1C52.6 285 48.2 289.9 48.2 264c0-29.3 28.8-56 60.4-56 14.2 0 27.7 5.7 37.8 16.2l65.1 65.7c-6.3 6.9-11.7 14.8-16.1 23.4L112.1 480H32.6zm115.3 0L224 327.6c12.2-24.4 36.7-39.6 64-39.6 27.3 0 51.8 15.2 64 39.6L428.2 480H147.9zm316 0l-83.3-166.8c-4.3-8.6-9.8-16.4-16.1-23.4l65.1-65.7c10.1-10.4 23.6-16.2 37.8-16.2 31.6 0 60.4 26.7 60.4 56 0 26-4.5 21-22.4 57.8-11.9 24.5-11.9 53.6 0 78.1l37.9 80.1h-79.4zM208 144c0 44.2 35.8 80 80 80s80-35.8 80-80-35.8-80-80-80-80 35.8-80 80zm128 0c0 26.5-21.5 48-48 48s-48-21.5-48-48 21.5-48 48-48 48 21.5 48 48z"/></svg>