<svg xmlns="http://www.w3.org/2000/svg" viewBox="0 0 256 512"><!-- Font Awesome Pro 5.15.4 by @fontawesome - https://fontawesome.com License - https://fontawesome.com/license (Commercial License) --><path d="M136.5 249.1l116 117.8c4.7 4.7 4.7 12.3 0 17l-7.1 7.1c-4.7 4.7-12.3 4.7-17 0L128 288.7 27.6 390.9c-4.7 4.7-12.3 4.7-17 0l-7.1-7.1c-4.7-4.7-4.7-12.3 0-17l116-117.8c4.7-4.6 12.3-4.6 17 .1zm-17-128L3.5 238.9c-4.7 4.7-4.7 12.3 0 17l7.1 7.1c4.7 4.7 12.3 4.7 17 0L128 160.7l100.4 102.2c4.7 4.7 12.3 4.7 17 0l7.1-7.1c4.7-4.7 4.7-12.3 0-17L136.5 121c-4.7-4.6-12.3-4.6-17 .1z"/></svg>