<svg xmlns="http://www.w3.org/2000/svg" viewBox="0 0 320 512"><!-- Font Awesome Pro 5.15.4 by @fontawesome - https://fontawesome.com License - https://fontawesome.com/license (Commercial License) --><path d="M153.1 247.5l117.8-116c4.7-4.7 12.3-4.7 17 0l7.1 7.1c4.7 4.7 4.7 12.3 0 17L192.7 256l102.2 100.4c4.7 4.7 4.7 12.3 0 17l-7.1 7.1c-4.7 4.7-12.3 4.7-17 0L153 264.5c-4.6-4.7-4.6-12.3.1-17zm-128 17l117.8 116c4.7 4.7 12.3 4.7 17 0l7.1-7.1c4.7-4.7 4.7-12.3 0-17L64.7 256l102.2-100.4c4.7-4.7 4.7-12.3 0-17l-7.1-7.1c-4.7-4.7-12.3-4.7-17 0L25 247.5c-4.6 4.7-4.6 12.3.1 17z"/></svg>