<svg xmlns="http://www.w3.org/2000/svg" viewBox="0 0 496 512"><!-- Font Awesome Pro 5.15.4 by @fontawesome - https://fontawesome.com License - https://fontawesome.com/license (Commercial License) --><path d="M248 8C111 8 0 119 0 256s111 248 248 248 248-111 248-248S385 8 248 8zm0 464c-119.1 0-216-96.9-216-216S128.9 40 248 40s216 96.9 216 216-96.9 216-216 216zm0-136c-31.2 0-60.6 13.8-80.6 37.8-5.7 6.8-4.8 16.9 2 22.5s16.9 4.8 22.5-2c27.9-33.4 84.2-33.4 112.1 0 5.3 6.4 15.4 8 22.5 2 6.8-5.7 7.7-15.8 2-22.5-19.9-24-49.3-37.8-80.5-37.8zm-48-96c0-2.9-.9-5.6-1.7-8.2.6.1 1.1.2 1.7.2 6.9 0 13.2-4.5 15.3-11.4 2.6-8.5-2.2-17.4-10.7-19.9l-80-24c-8.4-2.5-17.4 2.3-19.9 10.7-2.6 8.5 2.2 17.4 10.7 19.9l31 9.3c-6.3 5.8-10.5 14.1-10.5 23.4 0 17.7 14.3 32 32 32s32.1-14.3 32.1-32zm171.4-63.3l-80 24c-8.5 2.5-13.3 11.5-10.7 19.9 2.1 6.9 8.4 11.4 15.3 11.4.6 0 1.1-.2 1.7-.2-.7 2.7-1.7 5.3-1.7 8.2 0 17.7 14.3 32 32 32s32-14.3 32-32c0-9.3-4.1-17.5-10.5-23.4l31-9.3c8.5-2.5 13.3-11.5 10.7-19.9-2.4-8.5-11.4-13.2-19.8-10.7z"/></svg>