<svg xmlns="http://www.w3.org/2000/svg" viewBox="0 0 320 512"><!-- Font Awesome Pro 5.15.4 by @fontawesome - https://fontawesome.com License - https://fontawesome.com/license (Commercial License) --><path d="M312 288h-96.58c36.8-35.94 72.58-96.37 72.58-150.86C288 52.98 230.69 0 160 0S32 52.98 32 137.14c0 54.49 35.78 114.91 72.58 150.86H8c-4.42 0-8 3.58-8 8v16c0 4.42 3.58 8 8 8h136v184c0 4.42 3.58 8 8 8h16c4.42 0 8-3.58 8-8V320h136c4.42 0 8-3.58 8-8v-16c0-4.42-3.58-8-8-8zM64 137.14C64 75.24 103.48 32 160 32s96 43.24 96 105.14c0 71.78-75.25 149.02-95.79 150.86h-.03C139.25 286.16 64 208.93 64 137.14z"/></svg>