<svg xmlns="http://www.w3.org/2000/svg" viewBox="0 0 448 512"><!-- Font Awesome Pro 5.15.4 by @fontawesome - https://fontawesome.com License - https://fontawesome.com/license (Commercial License) --><path d="M224.48 128c21.33 0 59.54-3.73 83.67-27.86C343.08 65.21 335.26.75 335.26.75S329.08 0 319.52 0c-21.33 0-59.54 3.73-83.66 27.86-34.93 34.93-27.11 99.39-27.11 99.39s6.17.75 15.73.75zm34.01-77.52c11.49-11.5 30.05-15.92 44.67-17.57-1.79 15.7-6.59 33.54-17.64 44.6-11.5 11.49-30.05 15.92-44.66 17.57 1.79-15.78 6.58-33.55 17.63-44.6zm92.69 78.67c-4.46-.79-9.34-1.15-14.53-1.15-36.16 0-87.19 17.57-112.65 31.96C198.54 145.57 147.51 128 111.34 128c-5.19 0-10.07.36-14.53 1.15-81.24 14.3-107.41 124.49-93.09 205.6S65.02 512 160.41 512c12.06 0 24.12-4.61 34.44-10.34 9.04-5.02 19.1-7.52 29.16-7.52 10.06 0 20.12 2.51 29.16 7.52 10.32 5.73 22.38 10.34 34.43 10.34 95.39 0 142.36-96.14 156.68-177.25 14.32-81.11-11.84-191.3-93.1-205.6zm61.58 200.04C408.32 354.37 381.38 480 287.59 480c-4.85 0-11.56-2.24-18.91-6.33-13.61-7.55-29.06-11.54-44.68-11.54s-31.07 3.99-44.69 11.54c-7.34 4.08-14.05 6.32-18.9 6.32C66.62 480 39.69 354.37 35.24 329.18c-6.54-37.03-3.13-78.52 9.13-110.98 8.73-23.13 25.89-51.89 57.99-57.54 14.41-2.54 58.3.26 121.64 36.05 62.92-35.56 107.19-38.6 121.63-36.05 32.12 5.65 49.27 34.41 58 57.54 12.26 32.46 15.67 73.95 9.13 110.99z"/></svg>