<svg xmlns="http://www.w3.org/2000/svg" viewBox="0 0 448 512"><!-- Font Awesome Pro 5.15.4 by @fontawesome - https://fontawesome.com License - https://fontawesome.com/license (Commercial License) --><path d="M32 217.1c0-8.8 7.2-16 16-16h144v-93.9c0-7.1 8.6-10.7 13.6-5.7l143.5 143.1c6.3 6.3 6.3 16.4 0 22.7L205.6 410.4c-5 5-13.6 1.5-13.6-5.7v-93.9H48c-8.8 0-16-7.2-16-16v-77.7m-32 0v77.7c0 26.5 21.5 48 48 48h112v61.9c0 35.5 43 53.5 68.2 28.3l143.6-143c18.8-18.8 18.8-49.2 0-68L228.2 78.9c-25.1-25.1-68.2-7.3-68.2 28.3v61.9H48c-26.5 0-48 21.6-48 48zM436 64h-8c-6.6 0-12 5.4-12 12v360c0 6.6 5.4 12 12 12h8c6.6 0 12-5.4 12-12V76c0-6.6-5.4-12-12-12z"/></svg>