<svg xmlns="http://www.w3.org/2000/svg" viewBox="0 0 192 512"><!-- Font Awesome Pro 5.15.4 by @fontawesome - https://fontawesome.com License - https://fontawesome.com/license (Commercial License) --><path d="M160 384h-47V128h47c28.4 0 42.8-34.5 22.6-54.6l-64-64c-12.5-12.5-32.8-12.5-45.3 0l-64 64C-10.7 93.5 3.5 128 32 128h47v256H32c-28.4 0-42.8 34.5-22.6 54.6l64 64c12.5 12.5 32.8 12.5 45.3 0l64-64c20-20.1 5.8-54.6-22.7-54.6zM32 100c-3.5 0-5.4-4.3-2.8-6.8l64-64c1.6-1.6 4.1-1.6 5.6 0l64 64c2.5 2.5.7 6.8-2.8 6.8zm130.8 318.8l-64 64c-1.6 1.6-4.1 1.6-5.6 0l-64-64c-2.5-2.5-.7-6.8 2.8-6.8h128c3.5 0 5.3 4.3 2.8 6.8z"/></svg>