<svg xmlns="http://www.w3.org/2000/svg" viewBox="0 0 448 512"><!-- Font Awesome Pro 5.15.4 by @fontawesome - https://fontawesome.com License - https://fontawesome.com/license (Commercial License) --><path d="M400 32H48C21.5 32 0 53.5 0 80v352c0 26.5 21.5 48 48 48h352c26.5 0 48-21.5 48-48V80c0-26.5-21.5-48-48-48zm16 400c0 8.8-7.2 16-16 16H48c-8.8 0-16-7.2-16-16V80c0-8.8 7.2-16 16-16h352c8.8 0 16 7.2 16 16v352zm-64-208h-64V120c0-13.2-10.8-24-24-24h-80c-13.2 0-24 10.8-24 24v104H96c-28.4 0-42.8 34.5-22.6 54.6l128 128c12.5 12.5 32.8 12.5 45.3 0l128-128c20-20.1 5.8-54.6-22.7-54.6zM224 384L96 256h96V128h64v128h96L224 384z"/></svg>