<svg xmlns="http://www.w3.org/2000/svg" viewBox="0 0 448 512"><!-- Font Awesome Pro 5.15.4 by @fontawesome - https://fontawesome.com License - https://fontawesome.com/license (Commercial License) --><path d="M448 432V80c0-26.5-21.5-48-48-48H48C21.5 32 0 53.5 0 80v352c0 26.5 21.5 48 48 48h352c26.5 0 48-21.5 48-48zM48 448c-8.8 0-16-7.2-16-16V80c0-8.8 7.2-16 16-16h352c8.8 0 16 7.2 16 16v352c0 8.8-7.2 16-16 16H48zm208-64v-64h104c13.2 0 24-10.8 24-24v-80c0-13.2-10.8-24-24-24H256v-64c0-28.4-34.5-42.8-54.6-22.6l-128 128c-12.5 12.5-12.5 32.8 0 45.3l128 128c20.1 20 54.6 5.8 54.6-22.7zM96 256l128-128v96h128v64H224v96L96 256z"/></svg>