<svg xmlns="http://www.w3.org/2000/svg" viewBox="0 0 448 512"><!-- Font Awesome Pro 5.15.4 by @fontawesome - https://fontawesome.com License - https://fontawesome.com/license (Commercial License) --><path d="M20 64h-8C5.4 64 0 69.4 0 76v360c0 6.6 5.4 12 12 12h8c6.6 0 12-5.4 12-12V76c0-6.6-5.4-12-12-12zm380 105.2H288v-61.9c0-35.5-43-53.5-68.2-28.3L76.2 222c-18.8 18.8-18.8 49.2 0 68l143.5 143.1c25.1 25.1 68.2 7.3 68.2-28.3v-61.9h112c26.6 0 48.1-21.6 48.1-48v-77.7c0-26.5-21.5-48-48-48zm15.9 125.7c0 8.8-7.1 16-15.9 16H256v93.9c0 7.1-8.6 10.7-13.6 5.7L98.8 267.3c-6.3-6.3-6.3-16.4 0-22.7l143.5-143.1c5-5 13.6-1.5 13.6 5.7v93.9h144c8.8 0 16 7.2 16 16z"/></svg>