<svg xmlns="http://www.w3.org/2000/svg" viewBox="0 0 512 512"><!-- Font Awesome Pro 5.15.4 by @fontawesome - https://fontawesome.com License - https://fontawesome.com/license (Commercial License) --><path d="M337.782 434.704l-73.297 73.782c-4.686 4.686-12.284 4.686-16.971 0l-73.296-73.782c-4.686-4.686-4.686-12.284 0-16.97l7.07-7.07c4.686-4.686 12.284-4.686 16.971 0L239 451.887h1V272H60.113v1l41.224 40.741c4.686 4.686 4.686 12.284 0 16.971l-7.071 7.07c-4.686 4.686-12.284 4.686-16.97 0L3.515 264.485c-4.686-4.686-4.686-12.284 0-16.971l73.782-73.297c4.686-4.686 12.284-4.686 16.971 0l7.071 7.071c4.686 4.686 4.686 12.284 0 16.971L60.113 239v1H240V60.113h-1l-40.741 41.224c-4.686 4.686-12.284 4.686-16.971 0l-7.07-7.071c-4.686-4.686-4.687-12.284 0-16.97l73.297-73.782c4.686-4.686 12.284-4.686 16.971 0l73.297 73.782c4.686 4.686 4.686 12.284 0 16.971l-7.071 7.071c-4.686 4.686-12.284 4.686-16.971 0L273 60.113h-1V240h179.887v-1l-41.224-40.741c-4.686-4.686-4.686-12.284 0-16.971l7.071-7.07c4.686-4.686 12.284-4.686 16.97 0l73.782 73.297c4.687 4.686 4.686 12.284 0 16.971l-73.782 73.297c-4.686 4.686-12.284 4.686-16.97 0l-7.071-7.07c-4.686-4.686-4.686-12.284 0-16.971L451.887 273v-1H272v179.887h1l40.741-41.224c4.686-4.686 12.284-4.686 16.971 0l7.07 7.071c4.686 4.685 4.686 12.283 0 16.97z"/></svg>