<svg xmlns="http://www.w3.org/2000/svg" viewBox="0 0 384 512"><!-- Font Awesome Pro 5.15.4 by @fontawesome - https://fontawesome.com License - https://fontawesome.com/license (Commercial License) --><path d="M153.1 448c-8.8 0-16-7.2-16-16V288H43.3c-7.1 0-10.7-8.6-5.7-13.6l143.1-143.5c6.3-6.3 16.4-6.3 22.7 0l143.1 143.5c5 5 1.5 13.6-5.7 13.6h-93.9v144c0 8.8-7.2 16-16 16h-77.8m0 32h77.7c26.5 0 48-21.5 48-48V320h61.9c35.5 0 53.5-43 28.3-68.2L226 108.2c-18.8-18.8-49.2-18.8-68 0L14.9 251.8c-25 25.1-7.3 68.2 28.4 68.2h61.9v112c-.1 26.5 21.5 48 47.9 48zM0 44v8c0 6.6 5.4 12 12 12h360c6.6 0 12-5.4 12-12v-8c0-6.6-5.4-12-12-12H12C5.4 32 0 37.4 0 44z"/></svg>