<svg xmlns="http://www.w3.org/2000/svg" viewBox="0 0 192 512"><!-- Font Awesome Pro 5.15.4 by @fontawesome - https://fontawesome.com License - https://fontawesome.com/license (Commercial License) --><path d="M181.415 399.959c-4.686-4.686-12.284-4.686-16.971 0L113 451.887V60.113l51.444 51.928c4.686 4.686 12.284 4.686 16.971 0l7.07-7.071c4.686-4.686 4.686-12.284 0-16.97l-84-84.485c-4.686-4.686-12.284-4.686-16.971 0L3.515 88c-4.686 4.686-4.686 12.284 0 16.97l7.07 7.071c4.686 4.686 12.284 4.686 16.971 0L79 60.113v391.773l-51.444-51.928c-4.686-4.686-12.284-4.686-16.971 0l-7.07 7.071c-4.686 4.686-4.686 12.284 0 16.97l84 84.485c4.686 4.687 12.284 4.687 16.971 0l84-84.485c4.686-4.686 4.686-12.284 0-16.97l-7.071-7.07z"/></svg>