<svg xmlns="http://www.w3.org/2000/svg" viewBox="0 0 512 512"><!-- Font Awesome Pro 5.15.4 by @fontawesome - https://fontawesome.com License - https://fontawesome.com/license (Commercial License) --><path d="M399.959 170.585c-4.686 4.686-4.686 12.284 0 16.971L451.887 239H60.113l51.928-51.444c4.686-4.686 4.686-12.284 0-16.971l-7.071-7.07c-4.686-4.686-12.284-4.686-16.97 0l-84.485 84c-4.686 4.686-4.686 12.284 0 16.971l84.485 84c4.686 4.686 12.284 4.686 16.97 0l7.071-7.07c4.686-4.686 4.686-12.284 0-16.971L60.113 273h391.773l-51.928 51.444c-4.686 4.686-4.686 12.284 0 16.971l7.071 7.07c4.686 4.686 12.284 4.686 16.97 0l84.485-84c4.687-4.686 4.687-12.284 0-16.971l-84.485-84c-4.686-4.686-12.284-4.686-16.97 0l-7.07 7.071z"/></svg>