<svg xmlns="http://www.w3.org/2000/svg" viewBox="0 0 384 512"><!-- Font Awesome Pro 5.15.4 by @fontawesome - https://fontawesome.com License - https://fontawesome.com/license (Commercial License) --><path d="M348.5 328l-148 148.5c-4.7 4.7-12.3 4.7-17 0L35.5 328c-4.7-4.7-4.7-12.3 0-17l7.1-7.1c4.7-4.7 12.3-4.7 17 0l115.4 116V108c0-6.6 5.4-12 12-12h10c6.6 0 12 5.4 12 12v311.9L324.4 304c4.7-4.7 12.3-4.7 17 0l7.1 7.1c4.7 4.6 4.7 12.2 0 16.9zM0 44v8c0 6.6 5.4 12 12 12h360c6.6 0 12-5.4 12-12v-8c0-6.6-5.4-12-12-12H12C5.4 32 0 37.4 0 44z"/></svg>