<svg xmlns="http://www.w3.org/2000/svg" viewBox="0 0 512 512"><!-- Font Awesome Pro 5.15.4 by @fontawesome - https://fontawesome.com License - https://fontawesome.com/license (Commercial License) --><path d="M502.3 232.7l-66.5-66.5c-20.7-20.7-56.3-6-56.3 23.3V240H272V132.4h50.5c29.3 0 44.1-35.5 23.3-56.3L279.3 9.7c-12.9-12.9-33.8-12.9-46.6 0l-66.5 66.5c-20.7 20.7-6 56.3 23.3 56.3H240V240H132.4v-50.5c0-29.3-35.5-44.1-56.3-23.3L9.7 232.7c-12.9 12.9-12.9 33.8 0 46.6l66.5 66.5c20.7 20.7 56.3 6 56.3-23.3V272H240v107.6h-50.5c-29.3 0-44.1 35.5-23.3 56.3l66.5 66.5c12.9 12.9 33.8 12.9 46.6 0l66.5-66.5c20.7-20.7 6-56.3-23.3-56.3H272V272h107.6v50.5c0 29.3 35.5 44.1 56.3 23.3l66.5-66.5c12.8-12.9 12.8-33.7-.1-46.6zm-398.7 89.8c0 3.7-4.4 5.5-7 2.9l-66.5-66.5c-1.6-1.6-1.6-4.2 0-5.8l66.5-66.5c2.6-2.6 7-.7 7 2.9zm218.9 85.9c3.7 0 5.5 4.4 2.9 7l-66.5 66.5c-1.6 1.6-4.2 1.6-5.8 0l-66.5-66.5c-2.6-2.6-.7-7 2.9-7zm-133-304.8c-3.7 0-5.5-4.4-2.9-7l66.5-66.5c1.6-1.6 4.2-1.6 5.8 0l66.5 66.5c2.6 2.6.7 7-2.9 7zm292.4 155.3l-66.5 66.5c-2.6 2.6-7 .7-7-2.9V189.6c0-3.7 4.4-5.5 7-2.9l66.5 66.5c1.7 1.5 1.7 4.1 0 5.7z"/></svg>