<svg xmlns="http://www.w3.org/2000/svg" viewBox="0 0 448 512"><!-- Font Awesome Pro 5.15.4 by @fontawesome - https://fontawesome.com License - https://fontawesome.com/license (Commercial License) --><path d="M296 99.5l148.5 148c4.7 4.7 4.7 12.3 0 17L296 412.5c-4.7 4.7-12.3 4.7-17 0l-7.1-7.1c-4.7-4.7-4.7-12.3 0-17l116-115.4H76c-6.6 0-12-5.4-12-12v-10c0-6.6 5.4-12 12-12h311.9L272 123.6c-4.7-4.7-4.7-12.3 0-17l7.1-7.1c4.6-4.7 12.2-4.7 16.9 0zM12 448h8c6.6 0 12-5.4 12-12V76c0-6.6-5.4-12-12-12h-8C5.4 64 0 69.4 0 76v360c0 6.6 5.4 12 12 12z"/></svg>