<svg xmlns="http://www.w3.org/2000/svg" viewBox="0 0 448 512"><!-- Font Awesome Pro 5.15.4 by @fontawesome - https://fontawesome.com License - https://fontawesome.com/license (Commercial License) --><path d="M216 412.5l-148.5-148c-4.7-4.7-4.7-12.3 0-17L216 99.5c4.7-4.7 12.3-4.7 17 0l7.1 7.1c4.7 4.7 4.7 12.3 0 17L124.1 239H436c6.6 0 12 5.4 12 12v10c0 6.6-5.4 12-12 12H124.1L240 388.4c4.7 4.7 4.7 12.3 0 17l-7.1 7.1c-4.6 4.7-12.2 4.7-16.9 0zM12 448h8c6.6 0 12-5.4 12-12V76c0-6.6-5.4-12-12-12h-8C5.4 64 0 69.4 0 76v360c0 6.6 5.4 12 12 12z"/></svg>