<svg xmlns="http://www.w3.org/2000/svg" viewBox="0 0 512 512"><!-- Font Awesome Pro 5.15.4 by @fontawesome - https://fontawesome.com License - https://fontawesome.com/license (Commercial License) --><path d="M475.31 364.144L288 256l187.31-108.144c5.74-3.314 7.706-10.653 4.392-16.392l-4-6.928c-3.314-5.74-10.653-7.706-16.392-4.392L272 228.287V12c0-6.627-5.373-12-12-12h-8c-6.627 0-12 5.373-12 12v216.287L52.69 120.144c-5.74-3.314-13.079-1.347-16.392 4.392l-4 6.928c-3.314 5.74-1.347 13.079 4.392 16.392L224 256 36.69 364.144c-5.74 3.314-7.706 10.653-4.392 16.392l4 6.928c3.314 5.74 10.653 7.706 16.392 4.392L240 283.713V500c0 6.627 5.373 12 12 12h8c6.627 0 12-5.373 12-12V283.713l187.31 108.143c5.74 3.314 13.079 1.347 16.392-4.392l4-6.928c3.314-5.74 1.347-13.079-4.392-16.392z"/></svg>