<svg xmlns="http://www.w3.org/2000/svg" viewBox="0 0 448 512"><!-- Font Awesome Pro 5.15.4 by @fontawesome - https://fontawesome.com License - https://fontawesome.com/license (Commercial License) --><path d="M394.06157,256.00111c55.56193,84.484,71.15552,164.23356,32.84342,202.46775C412.49888,472.81254,392.40534,480,367.87434,480c-21.18728,0-45.562-5.34372-72.43676-16.06242-23.18726-9.25-47.312-22.71864-71.43677-38.57793-24.156,15.87492-48.28075,29.328-71.43677,38.57793C125.68932,474.65628,101.25207,480,80.12729,480c-24.56225,0-44.6558-7.18746-59.03065-21.53114C-17.21547,420.23467-1.62188,340.48507,53.9088,256.00111-1.62188,171.51715-17.21547,91.76755,21.09664,53.53336,47.90887,26.81474,94.53339,24.92413,152.564,48.06464c23.156,9.25,47.28077,22.71864,71.43677,38.57793,24.12476-15.87492,48.24951-29.328,71.43677-38.57793C353.562,24.89288,400.18651,26.86162,426.905,53.53336,465.21709,91.76755,449.6235,171.51715,394.06157,256.00111ZM195.7511,405.31287A619.164,619.164,0,0,1,130.56427,349.235a620.957,620.957,0,0,1-56.87442-64.96843C30.87779,353.51625,20.81539,412.95346,43.75266,435.844c16.93733,16.828,52.187,16.24992,96.874-1.60937C158.47023,427.094,177.06379,416.87531,195.7511,405.31287ZM73.7211,227.73562a609.0454,609.0454,0,0,1,122.03-121.04627c-18.68731-11.56244-37.24962-21.78114-55.12443-28.92173C117.5644,68.56454,97.03336,63.95518,80.18979,63.95518c-15.78109,0-28.24972,4.06248-36.40588,12.20307C20.81539,99.06439,30.909,158.486,73.7211,227.73562ZM224.00081,386.73484a585.00847,585.00847,0,0,0,70.74928-60.10908,581.92356,581.92356,0,0,0,60.43688-70.609,579.55986,579.55986,0,0,0-60.43688-70.609,585.9904,585.9904,0,0,0-70.74928-60.10908,583.82754,583.82754,0,0,0-70.78052,60.10908,576.41233,576.41233,0,0,0-60.40563,70.609,578.75052,578.75052,0,0,0,60.40563,70.609A586.65879,586.65879,0,0,0,224.00081,386.73484Zm56.12443-130.73373a56.12456,56.12456,0,1,1-56.12443-55.99972A56.1343,56.1343,0,0,1,280.12524,256.00111Zm-32.09342,0a24.04668,24.04668,0,1,0-24.031,23.99988A24.0027,24.0027,0,0,0,248.03182,256.00111Zm4.18745-149.31176a616.29534,616.29534,0,0,1,65.21809,56.07785,620.54665,620.54665,0,0,1,56.84317,64.96842c42.81206-69.24965,52.9057-128.68686,29.93719-151.57737-16.84358-16.79679-52.12447-16.21867-96.84276,1.60937C289.50014,84.90821,270.93783,95.14253,252.21927,106.68935ZM374.28053,284.26659A624.20736,624.20736,0,0,1,317.43736,349.235a622.60731,622.60731,0,0,1-65.21809,56.07785c18.68731,11.56244,37.28087,21.78114,55.15569,28.92173,44.687,17.85929,79.96793,18.42179,96.84276,1.60937C427.18623,412.95346,417.09259,353.51625,374.28053,284.26659Z"/></svg>