<svg xmlns="http://www.w3.org/2000/svg" viewBox="0 0 448 512"><!-- Font Awesome Pro 5.15.4 by @fontawesome - https://fontawesome.com License - https://fontawesome.com/license (Commercial License) --><path d="M224,200a56,56,0,1,0,56.00149,56A56.06868,56.06868,0,0,0,224,200Zm0,80a24,24,0,1,1,24.00064-24A24.00651,24.00651,0,0,1,224,280Zm188.72376-24c15.56292-20.26562,26.71946-40.625,31.9071-60,6.03141-22.60938,3.9376-43.42188-6.06266-60.1875-18.21924-30.5-60.34535-42.96875-113.503-38.4375C301.81457,37.8125,265.5636,0,224,0S146.18543,37.8125,122.96607,97.375c-53.18892-4.53125-95.315,7.92188-113.503,38.4375C-.56846,152.57812-2.66227,173.39062,3.36914,196c5.18764,19.375,16.34418,39.73438,31.9071,60-15.56292,20.26562-26.71946,40.625-31.9071,60-6.03141,22.60938-3.9376,43.42188,6.06266,60.1875,15.84417,26.5,49.59507,39.51562,93.03372,39.51562,6.37517,0,13.50036-1.14062,20.25054-1.70312C145.96668,473.92188,182.31139,512,224,512s78.03332-38.07812,101.28394-98c6.75018.5625,13.87537,1.70312,20.25054,1.70312,43.4074,0,77.18955-13.01562,93.00247-39.51562,10.03151-16.76562,12.12532-37.57812,6.09391-60.1875C439.44322,296.625,428.28668,276.26562,412.72376,256ZM36.90128,359.78125c-5.5314-9.29687-6.43767-21.25-2.59382-35.5,3.68682-13.71875,11.59406-28.40625,22.3131-43.29687A400.69639,400.69639,0,0,0,99.93421,319.4375a432.51171,432.51171,0,0,0,12.59408,63.9375C74.80854,385.3125,47.1203,376.84375,36.90128,359.78125Zm59.53283-85.04687Q86.16822,265.42969,77.3086,256q8.85962-9.44532,19.12551-18.73438c-.21875,6.21876-.46876,12.39063-.46876,18.73438S96.21536,268.51562,96.43411,274.73438Zm3.5001-82.17188a397.74293,397.74293,0,0,0-43.31365,38.45312c-10.719-14.89062-18.62628-29.57812-22.3131-43.29687-3.84385-14.25-2.93758-26.20313,2.62507-35.5,9.219-15.46875,32.71962-23.98437,65.158-23.98437,3.31259,0,6.90644.28124,10.43778.45312A431.64065,431.64065,0,0,0,99.93421,192.5625Zm211.75562-25.5c-8.37522-5.32812-16.87545-10.57812-25.81319-15.54688-6.43767-3.57812-12.84409-6.90624-19.28176-10.14062a338.66891,338.66891,0,0,1,36.56347-8.8125C306.00139,141.96875,309.81478,157.42188,311.68983,167.0625ZM224,32c24.06314,0,49.53257,26.03125,68.18931,69.96875A407.59456,407.59456,0,0,0,224,122.3125a405.98246,405.98246,0,0,0-68.18931-20.35938C174.46743,58.01562,199.93686,32,224,32ZM144.84165,132.5625a336.43586,336.43586,0,0,1,36.53222,8.8125c-6.40642,3.23438-12.84409,6.5625-19.25051,10.14062-8.93774,4.96876-17.438,10.21876-25.81319,15.54688C138.18522,157.42188,141.997,141.96875,144.84165,132.5625Zm-8.53148,212.375c8.37522,5.32812,16.87545,10.57812,25.81319,15.54688,6.71893,3.75,13.37535,6.48437,20.09428,9.85937a344.234,344.234,0,0,1-37.376,9.125A355.36907,355.36907,0,0,1,136.31017,344.9375ZM224,480c-24.15689,0-49.72007-26.23438-68.40807-70.48438A402.25348,402.25348,0,0,0,224,389.20312a402.25348,402.25348,0,0,0,68.40807,20.3125C273.72007,453.76562,248.15689,480,224,480Zm79.15835-100.54688a341.68756,341.68756,0,0,1-37.34474-9.10937c6.71893-3.375,13.37536-6.10937,20.063-9.85937,8.93774-4.96876,17.46922-10.21876,25.84444-15.53126C309.31477,357.15625,306.40844,368.625,303.15835,379.45312Zm14.71914-77.39062a471.236,471.236,0,0,1-47.56376,30.48438,475.86157,475.86157,0,0,1-46.28248,22.60937,476.691,476.691,0,0,1-46.345-22.60937,471.236,471.236,0,0,1-47.56376-30.48438c-1.375-14.71875-2.15631-30.07812-2.15631-46.0625s.78127-31.34375,2.15631-46.0625a471.236,471.236,0,0,1,47.56376-30.48438A477.44789,477.44789,0,0,1,224,156.76562a477.44789,477.44789,0,0,1,46.31373,22.6875,471.236,471.236,0,0,1,47.56376,30.48438c1.375,14.71875,2.15631,30.07812,2.15631,46.0625S319.25253,287.34375,317.87749,302.0625Zm28.06325-173.82812c32.40711,0,55.90773,8.51562,65.158,23.96874,5.5314,9.3125,6.43767,21.25,2.59382,35.5-3.68839,13.73438-11.59406,28.40626-22.3131,43.3125a396.1044,396.1044,0,0,0-43.31365-38.45312,435.36835,435.36835,0,0,0-12.56283-63.875C339.003,128.5,342.5969,128.23438,345.94074,128.23438Zm5.62515,109.03124Q361.83179,246.57032,370.6914,256q-8.85962,9.44532-19.12551,18.73438c.21875-6.21876.46876-12.39063.46876-18.73438S351.78464,243.48438,351.56589,237.26562Zm59.50158,122.51563c-10.15652,17.0625-37.84476,25.53125-75.59576,23.5625a432.07594,432.07594,0,0,0,12.59408-63.90625,397.74293,397.74293,0,0,0,43.31365-38.45312c10.719,14.89062,18.62471,29.57812,22.3131,43.29687C417.53639,338.53125,416.63012,350.48438,411.06747,359.78125Z"/></svg>