<svg xmlns="http://www.w3.org/2000/svg" viewBox="0 0 512 512"><!-- Font Awesome Pro 5.15.4 by @fontawesome - https://fontawesome.com License - https://fontawesome.com/license (Commercial License) --><path d="M464 64H48C21.49 64 0 85.49 0 112v288c0 26.51 21.49 48 48 48h416c26.51 0 48-21.49 48-48V112c0-26.51-21.49-48-48-48zm16 336c0 8.822-7.178 16-16 16H48c-8.822 0-16-7.178-16-16V112c0-8.822 7.178-16 16-16h416c8.822 0 16 7.178 16 16v288zm-293.411-97.217h-67.335l-13.508 40.974A11.999 11.999 0 0 1 94.35 352H84.01c-8.276 0-14.067-8.18-11.319-15.986l59.155-168a12 12 0 0 1 11.319-8.015h19.514a12 12 0 0 1 11.319 8.015l59.155 168C235.902 343.82 230.11 352 221.834 352h-10.34c-5.18 0-9.775-3.324-11.397-8.243l-13.508-40.974zm-33.802-109.521s-4.327 18.93-8.113 29.746l-17.036 51.38h50.298l-17.037-51.38c-3.515-10.817-7.571-29.746-7.571-29.746h-.541zM263.385 172c0-6.627 5.373-12 12-12h53.443c59.222 0 97.893 35.155 97.893 95.73 0 60.574-38.67 96.27-97.893 96.27h-53.443c-6.627 0-12-5.373-12-12V172zm63.549 149.983c38.941 0 63.819-22.986 63.819-66.253 0-42.727-25.419-65.713-63.819-65.713H298.27v131.966h28.664z"/></svg>