<svg xmlns="http://www.w3.org/2000/svg" viewBox="0 0 512 512"><!-- Font Awesome Pro 5.15.4 by @fontawesome - https://fontawesome.com License - https://fontawesome.com/license (Commercial License) --><path d="M512 160.92C505.23 99.15 476.88 44.29 437.8 4.7c-3.18-3.22-7.03-4.7-10.81-4.7-7.07 0-13.95 5.14-15.99 13.66-13.33 55.54-55.26 97.44-107 104.78V80c0-8.84-7.16-16-16-16h-64c-8.84 0-16 7.16-16 16v38.44c-51.74-7.35-93.67-49.24-107-104.78C98.96 5.14 92.08 0 85.01 0c-3.79 0-7.63 1.48-10.81 4.7C28.67 50.83 0 117.62 0 192c0 74.38 28.67 141.17 74.2 187.3 3.18 3.23 7.03 4.7 10.81 4.7 7.07 0 13.95-5.14 15.99-13.66 13.33-55.54 55.26-97.44 107-104.78V496c0 8.84 7.16 16 16 16h64c8.84 0 16-7.16 16-16V265.56c51.74 7.35 93.67 49.24 107 104.78 2.04 8.52 8.92 13.66 15.99 13.66 3.79 0 7.63-1.48 10.81-4.7 39.08-39.59 67.43-94.45 74.2-156.22L480 192l32-31.08zM78.65 335.56C48.76 295.83 32 244.92 32 192S48.76 88.17 78.65 48.44c6.93 17.01 38.53 89.43 129.35 102.33v82.47c-90.82 12.89-122.41 85.31-129.35 102.32zM272 480h-32V96h32v384zm185.04-265.71l19.29 19.87c-6.38 37.57-21.22 72.49-42.97 101.41-6.94-17.01-38.53-89.43-129.35-102.33v-82.47c90.82-12.9 122.41-85.32 129.35-102.33 21.75 28.92 36.59 63.83 42.97 101.41l-19.29 19.87L435.41 192l21.63 22.29z"/></svg>