<svg xmlns="http://www.w3.org/2000/svg" viewBox="0 0 640 512"><!-- Font Awesome Pro 5.15.4 by @fontawesome - https://fontawesome.com License - https://fontawesome.com/license (Commercial License) --><path d="M525.74 160l-47.27-47.27 24.16-24.16c12.5-12.5 12.5-32.76 0-45.26L468.69 9.37C462.44 3.12 454.25 0 446.06 0s-16.38 3.12-22.63 9.37l-24.16 24.16-24.15-24.16C368.87 3.12 360.68 0 352.49 0s-16.38 3.12-22.63 9.37l-96.49 96.49c-12.5 12.5-12.5 32.76 0 45.25l24.16 24.16L9.37 423.43c-12.5 12.5-12.5 32.76 0 45.26l33.94 33.94c6.25 6.25 14.44 9.37 22.63 9.37s16.38-3.12 22.63-9.37l248.16-248.16L384 301.74V416h32c123.71 0 224-100.29 224-224v-32H525.74zM446.03 32h.03L480 65.94 455.84 90.1l-33.95-33.96L446.03 32zM65.94 480L32 446.06 280.16 197.9l33.94 33.94L65.94 480zM416 384v-95.51l-160-160L352.46 32h.03l160 160H608c0 105.87-86.13 192-192 192z"/></svg>