<svg xmlns="http://www.w3.org/2000/svg" viewBox="0 0 512 512"><!-- Font Awesome Pro 5.15.4 by @fontawesome - https://fontawesome.com License - https://fontawesome.com/license (Commercial License) --><path d="M504 96h-40c-26.5 0-48 21.5-48 48v48H280.8L174.3 24.5c-8-12.6-21.2-21.2-36.3-23.7-14.8-2.5-29.8 1.2-41.2 10.3C35.3 60.3 0 132 0 208v16c0 67.2 40.3 126.2 101.3 160.5-1.8-.1-3.5-.5-5.3-.5-35.3 0-64 28.7-64 64s28.7 64 64 64 64-28.7 64-64c0-18.1-7.6-34.3-19.6-46 25.9 8.9 54 14 83.6 14s57.8-5 83.6-14c-12 11.6-19.6 27.9-19.6 46 0 35.3 28.7 64 64 64s64-28.7 64-64-28.7-64-64-64c-1.8 0-3.5.4-5.3.5C407.7 350.2 448 291.2 448 224v-80c0-8.8 7.2-16 16-16h40c4.4 0 8-3.6 8-8v-16c0-4.4-3.6-8-8-8zM116.8 36.1c5.9-4.7 12.6-4.4 15.9-3.8 6.2 1 11.5 4.4 14.6 9.3L242.9 192H32.6c4.6-60.2 34.7-116.3 84.2-155.9zM96 480c-17.6 0-32-14.4-32-32s14.4-32 32-32 32 14.4 32 32-14.4 32-32 32zm256-64c17.6 0 32 14.4 32 32s-14.4 32-32 32-32-14.4-32-32 14.4-32 32-32zm-128-32c-105.9 0-192-71.8-192-160h384c0 88.2-86.1 160-192 160z"/></svg>