<svg xmlns="http://www.w3.org/2000/svg" viewBox="0 0 384 512"><!-- Font Awesome Pro 5.15.4 by @fontawesome - https://fontawesome.com License - https://fontawesome.com/license (Commercial License) --><path d="M374.2 160.3c-17.4-25.2-52-32.1-77.9-14.5l-36.4 25c-29.4 20.2-86 34.3-135.9 0l-36.4-25C61.9 128.2 27.2 135 9.8 160.3c-17.5 25.5-11 60.4 14.4 77.9l36.4 24.9c10.9 7.5 22.8 14.1 35.4 19.8v22.6l-54.3 56.2c-19.2 17.8-23.5 46.4-10 69.3L70 487.1c10.3 15.4 27.9 24.9 46.6 24.9 10 0 19.8-2.7 28.4-7.8 13-7.7 52.3-40.5 2-96.5l18.4-11.6c15.1 5.3 37.9 5.3 53.1 0l18.4 11.6c-50.3 56-11 88.8 2 96.5 8.6 5.1 18.4 7.8 28.4 7.8 18.7 0 36.2-9.5 46.6-24.9l38.3-56.1c13.5-22.9 9.1-51.5-10-69.3L288 305.5v-22.6c12.6-5.6 24.4-12.3 35.4-19.8l36.4-24.9c25.4-17.5 31.9-52.5 14.4-77.9zm-237 283.5c6.7 11.4 2.9 26.1-8.5 32.9-3.8 2.3-8 3.3-12.2 3.3-8.2 0-16.2-4.2-20.7-11.8l-36.6-53.4c-6-10.2-3.7-23.3 5.5-30.8l38.8-41.2c.7.8 1 1.8 1.7 2.6l35.2 35.2-29.4 27.7 26.2 35.5zm82.9-85.2c-13.2 13.2-43.5 12.8-56.2 0L128 322.7V312h128v10.7l-35.9 35.9zm99.1 25.4c9.2 7.5 11.5 20.6 5.5 30.8l-36.6 53.4c-4.5 7.6-12.5 11.8-20.7 11.8-4.1 0-8.3-1.1-12.2-3.3-11.4-6.7-15.2-21.5-8.5-32.9l26.1-35.6-29.4-27.7 35.2-35.2c.7-.7 1.1-1.8 1.7-2.6l38.9 41.3zm22.4-172.2l-36.3 24.9c-15.4 10.5-32 18.5-49.3 24.4V280H128v-18.9c-17.3-5.9-33.9-13.8-49.3-24.4l-36.3-24.9c-26.4-18.2 1.2-57.3 27.2-39.6l36.3 24.9c47.2 32.4 117.3 37.7 172.1 0l36.3-24.9c26.1-17.7 53.7 21.4 27.3 39.6zM192 160c44.2 0 80-35.8 80-80S236.2 0 192 0s-80 35.8-80 80 35.8 80 80 80zm0-128c26.5 0 48 21.5 48 48s-21.5 48-48 48-48-21.5-48-48 21.5-48 48-48z"/></svg>