<svg xmlns="http://www.w3.org/2000/svg" viewBox="0 0 640 512"><!-- Font Awesome Pro 5.15.4 by @fontawesome - https://fontawesome.com License - https://fontawesome.com/license (Commercial License) --><path d="M634.4 279.09L525.35 103.12C522.18 98.38 517.09 96 512 96s-10.18 2.38-13.35 7.12L389.6 279.09c-3.87 5.78-6.09 12.72-5.51 19.64C389.56 364.4 444.74 416 512 416s122.44-51.6 127.91-117.27c.58-6.92-1.64-13.86-5.51-19.64zM512 384c-41.58 0-77.55-27.13-90.78-64h181.2C589 357.23 553.28 384 512 384zm-90.27-96l90.31-145.76L602.98 288H421.73zM536 480H336V125.74c27.56-7.14 48-31.95 48-61.74h152c4.42 0 8-3.58 8-8V40c0-4.42-3.58-8-8-8H374.89c-.15-.26-4.37-11.11-19.11-21.07C345.57 4.03 333.25 0 320 0s-25.57 4.03-35.78 10.93c-14.74 9.96-18.96 20.81-19.11 21.07H104c-4.42 0-8 3.58-8 8v16c0 4.42 3.58 8 8 8h152c0 29.79 20.44 54.6 48 61.74V480H104c-4.42 0-8 3.58-8 8v16c0 4.42 3.58 8 8 8h432c4.42 0 8-3.58 8-8v-16c0-4.42-3.58-8-8-8zM288 64c0-17.67 14.33-32 32-32s32 14.33 32 32-14.33 32-32 32-32-14.33-32-32zm-32.09 234.73c.58-6.92-1.64-13.86-5.51-19.64L141.35 103.12C138.18 98.38 133.09 96 128 96s-10.18 2.38-13.35 7.12L5.6 279.09c-3.87 5.78-6.09 12.72-5.51 19.64C5.56 364.4 60.74 416 128 416s122.44-51.6 127.91-117.27zM128.04 142.24L218.98 288H37.73l90.31-145.76zM37.22 320h181.2C205 357.23 169.28 384 128 384c-41.58 0-77.55-27.13-90.78-64z"/></svg>