<svg xmlns="http://www.w3.org/2000/svg" viewBox="0 0 640 512"><!-- Font Awesome Pro 5.15.4 by @fontawesome - https://fontawesome.com License - https://fontawesome.com/license (Commercial License) --><path d="M634.4 375.09L525.35 199.12c-3.17-4.75-8.26-7.12-13.35-7.12s-10.18 2.38-13.35 7.12L389.6 375.09c-3.87 5.78-6.09 12.72-5.51 19.64C389.56 460.4 444.74 512 512 512c67.27 0 122.45-51.6 127.91-117.27.57-6.92-1.64-13.86-5.51-19.64zM511.96 238.24L602.27 384H421.02l90.94-145.76zM512 480c-41.28 0-77-26.77-90.42-64h181.2c-13.23 36.87-49.2 64-90.78 64zm17.89-317.21l5.08-15.17c1.4-4.19-.86-8.72-5.05-10.12L379.46 87.15C382.33 79.98 384 72.21 384 64c0-35.35-28.65-64-64-64-29.32 0-53.77 19.83-61.34 46.73L120.24.42c-4.19-1.4-8.72.86-10.12 5.05l-5.08 15.17c-1.4 4.19.86 8.72 5.05 10.12l148.29 49.62c5.91 22.23 23.33 39.58 45.62 45.36V480H104c-4.42 0-8 3.58-8 8v16c0 4.42 3.58 8 8 8h224c4.42 0 8-3.58 8-8V125.74c8.64-2.24 16.5-6.22 23.32-11.58l160.45 53.68c4.18 1.4 8.71-.86 10.12-5.05zM320 96c-17.64 0-32-14.36-32-32s14.36-32 32-32 32 14.36 32 32-14.36 32-32 32zm-64.09 170.73c.58-6.92-1.64-13.86-5.51-19.64L141.35 71.12C138.18 66.38 133.09 64 128 64s-10.18 2.38-13.35 7.12L5.6 247.09c-3.87 5.78-6.09 12.72-5.51 19.64C5.56 332.4 60.74 384 128 384s122.44-51.6 127.91-117.27zM127.96 110.24L218.27 256H37.02l90.94-145.76zM37.58 288h181.2c-13.23 36.87-49.2 64-90.78 64-41.28 0-77-26.77-90.42-64z"/></svg>