<svg xmlns="http://www.w3.org/2000/svg" viewBox="0 0 512 512"><!-- Font Awesome Pro 5.15.4 by @fontawesome - https://fontawesome.com License - https://fontawesome.com/license (Commercial License) --><path d="M121 334.46a8 8 0 0 0-11.32 0l-11.34 11.32a8 8 0 0 0 0 11.31l56.57 56.57a8 8 0 0 0 11.31 0l11.32-11.32a8 8 0 0 0 0-11.31zm380.81-292l-32.3-32.24a34.91 34.91 0 0 0-49.36 0l-50.52 50.52a38.46 38.46 0 0 0-9.29 15.05L339 139.85c-.39.3-1 .18-1.31.54l-94.93 94.93A142.12 142.12 0 0 0 176 209.61V208a16 16 0 0 0-32 0v1.61A142.42 142.42 0 0 0 70.57 240l-1.07-1.07a16 16 0 0 0-22.63 22.57l1.13 1.07A142.42 142.42 0 0 0 17.61 336H16a16 16 0 0 0 0 32h1.61A142.42 142.42 0 0 0 48 441.43l-1.08 1.07a16 16 0 1 0 22.58 22.62l1.07-1.07A142.42 142.42 0 0 0 144 494.39V496a16 16 0 0 0 32 0v-1.61a142.42 142.42 0 0 0 73.43-30.34l1.07 1.07a16 16 0 0 0 22.62-22.62l-1.07-1.07A142.42 142.42 0 0 0 302.39 368H304a16 16 0 0 0 0-32h-1.61a142.12 142.12 0 0 0-25.71-66.74l94.93-94.93c.36-.37.23-.92.54-1.31l64.06-21.36a38.46 38.46 0 0 0 15.05-9.29l50.52-50.52a34.92 34.92 0 0 0 0-49.37zM160 464a112 112 0 1 1 112-112 112.12 112.12 0 0 1-112 112zM479.15 69.22l-50.52 50.52a6.54 6.54 0 0 1-2.53 1.57L373 139l17.7-53.1a6.4 6.4 0 0 1 1.56-2.53l50.52-50.52a2.91 2.91 0 0 1 4.11 0l32.26 32.26a2.92 2.92 0 0 1 0 4.11z"/></svg>