<svg xmlns="http://www.w3.org/2000/svg" viewBox="0 0 640 512"><!-- Font Awesome Pro 5.15.4 by @fontawesome - https://fontawesome.com License - https://fontawesome.com/license (Commercial License) --><path d="M627.2 60.1l-23.6-32.5C581-3.5 538.9-8.2 510 12.8L307.7 159.6c-45.6 33.1-87.3 71.3-124.3 113.8-29 33.3-72.5 78.6-130.3 120.6l-21.6 15.7c-.2-.3-11.3-17.4-25.5-6.2-6.9 5.5-8 15.6-2.5 22.5l64 80c5.2 6.5 15.2 8.3 22.5 2.5.5-.4 12.9-9.5.1-25.5l18.2-13.2c66-47.9 122.3-72.6 155.1-86.5 51.9-22 101.2-49.9 146.8-83l202.3-146.8c29.8-21.7 36.4-63.5 14.7-93.4zM70.1 458l-18.6-23.2c28.9-20.9 71.8-50.7 125-106.3l32.3 44.4C140.6 405.7 99.2 436.8 70.1 458zm523.5-330.4c-247 179.2-243.1 182.5-359.9 233.8L195 308.3c84.9-95.1 86.5-90.2 333.8-269.6 14.8-10.7 36.9-8.7 48.9 7.7l23.6 32.5c11.4 15.6 7.9 37.4-7.7 48.7zM496 352c-44.1 0-80 35.9-80 80s35.9 80 80 80 80-35.9 80-80-35.9-80-80-80zm0 128c-26.5 0-48-21.5-48-48s21.5-48 48-48 48 21.5 48 48-21.5 48-48 48z"/></svg>