<svg xmlns="http://www.w3.org/2000/svg" viewBox="0 0 640 512"><!-- Font Awesome Pro 5.15.4 by @fontawesome - https://fontawesome.com License - https://fontawesome.com/license (Commercial License) --><path d="M640 339.7c0 19.5-10.4 36.9-28.5 44.4l-108.3 44.5 2.5-35.7 93.6-38.4c6-2.5 9.9-8.3 9.9-14.8V216C527.1-8 115.7-8.9 33.2 216v123.7c0 6.5 3.9 12.3 9.9 14.8l93.6 38.4 2.5 35.7L31 384.1c-18.1-7.5-31-24.9-31-44.4l.8-131.4C1.4 206.3 69.3 16 321.2 16s317.3 190.3 317.9 192.3c1.2 7.1.9-9.1.9 131.4zM462.4 512L387 440.4 321.2 512l-65.8-71.6L180 512l-18.2-224h-24.6c-4.4 0-8-3.6-8-8v-16c0-4.4 3.6-8 8-8h368c4.4 0 8 3.6 8 8v16c0 4.4-3.6 8-8 8h-24.6l-18.2 224zM207.9 352.4l46.7 43.6 44-44-42.1-42.1-48.6 42.5zm113.3-23l41.4-41.4h-82.8l41.4 41.4zm22.6 22.6l44 44 46.7-43.6-48.5-42.5-42.2 42.1zm104.7-64h-39l36.5 31.9 2.5-31.9zm-254.6 0l2.6 31.9L233 288h-39.1zM232 418.6l-29.9-27.9 4.3 53.5 25.6-25.6zm132.4-.8l-43.2-43.2-43.2 43.2 43.2 40.3 43.2-40.3zm71.6 26.4l4.3-53.5-29.9 27.9 25.6 25.6zM465.2 224v-89.9h-288V224h32v-57.9h224V224h32z"/></svg>