<svg xmlns="http://www.w3.org/2000/svg" viewBox="0 0 512 512"><!-- Font Awesome Pro 5.15.4 by @fontawesome - https://fontawesome.com License - https://fontawesome.com/license (Commercial License) --><path d="M504,256H64V61.25a29.26,29.26,0,0,1,49.94-20.69L139.18,65.8A71.49,71.49,0,0,0,128,104c0,20.3,8.8,38.21,22.34,51.26L138.58,167a8,8,0,0,0,0,11.31l11.31,11.32a8,8,0,0,0,11.32,0L285.66,65.21a8,8,0,0,0,0-11.32L274.34,42.58a8,8,0,0,0-11.31,0L251.26,54.34C238.21,40.8,220.3,32,200,32a71.44,71.44,0,0,0-38.2,11.18L136.56,18A61.24,61.24,0,0,0,32,61.25V256H8a8,8,0,0,0-8,8v16a8,8,0,0,0,8,8H32v96c0,41.74,26.8,76.9,64,90.12V504a8,8,0,0,0,8,8h16a8,8,0,0,0,8-8V480H384v24a8,8,0,0,0,8,8h16a8,8,0,0,0,8-8V474.12c37.2-13.22,64-48.38,64-90.12V288h24a8,8,0,0,0,8-8V264A8,8,0,0,0,504,256ZM228.71,76.9,172.9,132.71A38.67,38.67,0,0,1,160,104a40,40,0,0,1,40-40A38.67,38.67,0,0,1,228.71,76.9ZM448,384a64.07,64.07,0,0,1-64,64H128a64.07,64.07,0,0,1-64-64V288H448Z"/></svg>