<svg xmlns="http://www.w3.org/2000/svg" viewBox="0 0 640 512"><!-- Font Awesome Pro 5.15.4 by @fontawesome - https://fontawesome.com License - https://fontawesome.com/license (Commercial License) --><path d="M640 184v144c0 13.255-10.745 24-24 24h-8v16c0 26.51-21.49 48-48 48H400.69l18.028-32H560c8.823 0 16-7.177 16-16v-48h32V192h-32v-48c0-8.823-7.177-16-16-16h-90.776c-13.223-9.205-28.229-14.344-43.41-15.66l3.971-15.195c.101-.381.191-.763.287-1.145H560c26.51 0 48 21.49 48 48v16h8c13.255 0 24 10.745 24 24zM32 368V144c0-8.823 7.177-16 16-16h95.388l3.21-32H48c-26.51 0-48 21.49-48 48v224c0 26.51 21.49 48 48 48h149.734c.034-.133.063-.267.097-.4l7.71-31.6H48c-8.823 0-16-7.177-16-16zm422.616-145.511L321.664 458.482C314.042 472.12 299.81 480 284.985 480c-27.295 0-47.645-25.901-40.605-52.684L278.374 288h-56.37c-24.74 0-44.15-21.313-41.812-45.964l17.252-172C199.487 48.472 217.595 32 239.255 32h103.557c27.656 0 47.711 26.272 40.563 52.892L363.745 160h54.208c32.032 0 52.288 34.528 36.663 62.489zM417.952 192h-95.646l30.11-115.2.027-.104.028-.103c1.7-6.331-3.078-12.593-9.658-12.593H239.255a9.96 9.96 0 0 0-9.956 9.056l-.008.087-.009.087-17.24 171.881c-.523 5.829 4.089 10.89 9.96 10.89h97.117l-43.653 178.902-.067.275-.072.274c-1.723 6.555 3.374 12.548 9.656 12.548 2.842 0 6.632-1.347 8.744-5.128l.027-.048.027-.048L426.69 206.86c3.693-6.634-1.12-14.86-8.738-14.86z"/></svg>