<svg xmlns="http://www.w3.org/2000/svg" viewBox="0 0 576 512"><!-- Font Awesome Pro 5.15.4 by @fontawesome - https://fontawesome.com License - https://fontawesome.com/license (Commercial License) --><path d="M464,0H240a16,16,0,0,0-16,16V160H32V8a8,8,0,0,0-8-8H8A8,8,0,0,0,0,8V504a8,8,0,0,0,8,8H24a8,8,0,0,0,8-8V448H544v56a8,8,0,0,0,8,8h16a8,8,0,0,0,8-8V112A112,112,0,0,0,464,0Zm80,376v40H256V288H464a80.09,80.09,0,0,1,80,80Zm0-86.23A111.53,111.53,0,0,0,464,256H240a16,16,0,0,0-16,16V416H32V192H544ZM544,160H256V32H464a80.09,80.09,0,0,1,80,80ZM128,128A64,64,0,1,0,64,64,64,64,0,0,0,128,128Zm0-96A32,32,0,1,1,96,64,32,32,0,0,1,128,32Zm0,352a64,64,0,1,0-64-64A64,64,0,0,0,128,384Zm0-96a32,32,0,1,1-32,32A32,32,0,0,1,128,288Z"/></svg>