<svg xmlns="http://www.w3.org/2000/svg" viewBox="0 0 448 512"><!-- Font Awesome Pro 5.15.4 by @fontawesome - https://fontawesome.com License - https://fontawesome.com/license (Commercial License) --><path d="M384 96h-32V80c0-26.51-21.49-48-48-48H48C21.49 32 0 53.49 0 80v352c0 26.51 21.49 48 48 48h256c26.51 0 48-21.49 48-48v-22.112l60.621-30.311C434.443 368.666 448 346.731 448 322.334V160c0-35.29-28.71-64-64-64zm-64 336c0 8.822-7.178 16-16 16H48c-8.822 0-16-7.178-16-16V80c0-8.822 7.178-16 16-16h256c8.822 0 16 7.178 16 16v352zm96-109.666c0 12.199-6.778 23.166-17.689 28.622L352 374.112V128h32c17.645 0 32 14.355 32 32v162.334zM192 144v224c0 8.837-7.164 16-16 16s-16-7.163-16-16V144c0-8.837 7.164-16 16-16s16 7.163 16 16zm-64 0v224c0 8.837-7.164 16-16 16s-16-7.163-16-16V144c0-8.837 7.164-16 16-16s16 7.163 16 16zm128 0v224c0 8.837-7.163 16-16 16s-16-7.163-16-16V144c0-8.837 7.163-16 16-16s16 7.163 16 16z"/></svg>