<svg xmlns="http://www.w3.org/2000/svg" viewBox="0 0 640 512"><!-- Font Awesome Pro 5.15.4 by @fontawesome - https://fontawesome.com License - https://fontawesome.com/license (Commercial License) --><path d="M320 480c-17.7 0-32-14.4-32-32h-32c0 35.3 28.7 64 64 64s64-28.7 64-64h-32c0 17.6-14.3 32-32 32zm0-416c70.8 0 128 54.5 128 121.9 0 63.2 9.4 101.6 25 129.5l70.7 55.7c.7-13.4-4.2-26.6-14.4-36.3-28-26.6-49.3-54.5-49.3-148.9 0-79.6-63.4-144.5-144-152.3V16c0-8.8-7.2-16-16-16s-16 7.2-16 16v17.6c-43.9 4.2-84.2 26.2-111.5 60.9l24.7 19.4C240.4 83.8 277.7 64 320 64zm317 421.2L23 1.8C19.6-1 14.5-.5 11.8 3l-10 12.5C-1 19-.4 24 3 26.7l614 483.5c3.4 2.8 8.5 2.2 11.2-1.2l10-12.5c2.8-3.5 2.3-8.5-1.2-11.3zM144 384c-14.2 0-21.3-16.5-11.3-26 31.2-29.7 53.9-63 58.3-142.4L159.8 191c-.8 90-21.8 117.7-49.2 143.8-14 13.3-18.4 33.4-11.2 51.2 7.3 18.2 24.8 30 44.6 30h301.6L405 384z"/></svg>