<svg xmlns="http://www.w3.org/2000/svg" viewBox="0 0 640 512"><!-- Font Awesome Pro 5.15.4 by @fontawesome - https://fontawesome.com License - https://fontawesome.com/license (Commercial License) --><path d="M272 32c97 0 176 79 176 176 0 26.6-6.1 51.8-16.8 74.5l25.6 20.2c14.6-28.4 23.1-60.5 23.1-94.7C480 93.1 386.9 0 272 0c-51.8 0-99.1 19.1-135.5 50.4l25.7 20.3C192.4 46.5 230.5 32 272 32zm-29.6 101.8l33.8 26.6c19.3 1.7 35.1 14.7 41.1 32.3l33.6 26.4c.5-3.7 1.1-7.4 1.1-11.2 0-44.1-35.9-80-80-80-10.5.1-20.4 2.3-29.6 5.9zM528 336c8.8 0 16 7.2 16 16 0 5.7-3.2 10.4-7.6 13.3l25.3 19.9c8.6-8.6 14.3-20 14.3-33.2 0-26.5-21.5-48-48-48-17.2 0-32.1 9.1-40.6 22.7l25.7 20.2c2.1-6.3 7.9-10.9 14.9-10.9zm109 149.2L23 1.8C19.6-1 14.5-.5 11.8 3l-10 12.5C-1 19-.4 24 3 26.7l614 483.5c3.4 2.8 8.5 2.2 11.2-1.2l10-12.5c2.8-3.5 2.3-8.5-1.2-11.3zM464 432h-48v-39.3l-47.7-37.6C340.6 373.3 307.5 384 272 384c-97 0-176-79-176-176 0-20.8 3.8-40.6 10.4-59.1L80 128.1c-10.2 24.6-16 51.6-16 79.9 0 58.9 24.6 112 64 149.9V480c0 17.7 14.3 32 32 32h224c17.7 0 32-14.3 32-32v-16h48c11.9 0 22.9-2.9 33-7.5l-31.5-24.8c-.5.1-.9.3-1.5.3zm-80 0v48H160v-96.9c32.4 20.7 70.7 32.9 112 32.9s79.7-12.2 112-32.9zM281.8 287l-88.9-70c4.6 39.8 38.1 71 79.1 71 3.4 0 6.5-.6 9.8-1z"/></svg>