<svg xmlns="http://www.w3.org/2000/svg" viewBox="0 0 640 512"><!-- Font Awesome Pro 5.15.4 by @fontawesome - https://fontawesome.com License - https://fontawesome.com/license (Commercial License) --><path d="M528,64a16.17,16.17,0,0,0,7.16-1.69l64-32A16,16,0,0,0,584.84,1.69l-64,32A16,16,0,0,0,528,64ZM80,160H16a16,16,0,0,0,0,32H80a16,16,0,0,0,0-32ZM40.84,30.31l64,32A16.17,16.17,0,0,0,112,64a16,16,0,0,0,7.16-30.31l-64-32A16,16,0,0,0,40.84,30.31ZM624,160H560a16,16,0,0,0,0,32h64a16,16,0,0,0,0-32ZM320,480a32,32,0,0,1-32-32H256a64,64,0,1,0,128,0H352A32,32,0,0,1,320,480ZM480,185.91c0-79.6-63.37-144.5-144-152.36V16a16,16,0,0,0-32,0V33.56c-80.66,7.85-144,72.75-144,152.35,0,94.4-21.41,122.28-49.35,148.9a46.45,46.45,0,0,0-11.24,51.24A47.67,47.67,0,0,0,144,416H496a47.66,47.66,0,0,0,44.62-30,46.49,46.49,0,0,0-11.24-51.22C501.41,308.19,480,280.33,480,185.91ZM496,384H144c-14.22,0-21.34-16.47-11.31-26C167.53,324.8,192,287.66,192,185.91,192,118.53,249.22,64,320,64s128,54.52,128,121.91c0,101.34,24.22,138.68,59.28,172.07C517.38,367.56,510.16,384,496,384Z"/></svg>