<svg xmlns="http://www.w3.org/2000/svg" viewBox="0 0 512 512"><!-- Font Awesome Pro 5.15.4 by @fontawesome - https://fontawesome.com License - https://fontawesome.com/license (Commercial License) --><path d="M208 128c-44.11 0-80 35.89-80 80s35.89 80 80 80 80-35.89 80-80-35.89-80-80-80zm0 128c-26.51 0-48-21.49-48-48s21.49-48 48-48 48 21.49 48 48-21.49 48-48 48zm256 48c-26.47 0-48 21.53-48 48 0 20.15 12.51 37.37 30.15 44.48C440.62 416.88 422.13 432 400 432h-48v-74.12c39.38-37.85 64-90.94 64-149.88C416 93.12 322.88 0 208 0S0 93.12 0 208c0 58.93 24.62 112.03 64 149.88V480c0 17.67 14.33 32 32 32h224c17.67 0 32-14.33 32-32v-16h48c39.51 0 72.19-28.84 78.64-66.53C497.92 391.24 512 373.33 512 352c0-26.47-21.53-48-48-48zM320 480H96v-96.91C128.35 403.82 166.72 416 208 416s79.65-12.18 112-32.91V480zm-112-96c-97.05 0-176-78.95-176-176S110.95 32 208 32s176 78.95 176 176-78.95 176-176 176zm256-16c-8.81 0-16-7.17-16-16s7.19-16 16-16 16 7.17 16 16-7.19 16-16 16z"/></svg>