<svg xmlns="http://www.w3.org/2000/svg" viewBox="0 0 512 512"><!-- Font Awesome Pro 5.15.4 by @fontawesome - https://fontawesome.com License - https://fontawesome.com/license (Commercial License) --><path d="M320 368h96a32 32 0 0 0 32-32v-96a32 32 0 0 0-32-32h-96a32 32 0 0 0-32 32v96a32 32 0 0 0 32 32zm0-128h96v96h-96zm-160 72a24 24 0 1 0-24-24 24 24 0 0 0 24 24zm0 72a96 96 0 1 0-96-96 96 96 0 0 0 96 96zm0-160a64 64 0 1 1-64 64 64.07 64.07 0 0 1 64-64zM496 64H16A16 16 0 0 0 0 80v320a48 48 0 0 0 48 48h416a48 48 0 0 0 48-48V80a16 16 0 0 0-16-16zm-16 336a16 16 0 0 1-16 16H48a16 16 0 0 1-16-16V160h448zm0-272H32V96h448z"/></svg>