<svg xmlns="http://www.w3.org/2000/svg" viewBox="0 0 640 512"><!-- Font Awesome Pro 5.15.4 by @fontawesome - https://fontawesome.com License - https://fontawesome.com/license (Commercial License) --><path d="M576 176c35.35 0 64-28.65 64-64s-28.65-64-64-64c-29.79 0-54.6 20.44-61.74 48H400V64c0-17.67-14.33-32-32-32h-96c-17.67 0-32 14.33-32 32v32H125.74C118.6 68.44 93.79 48 64 48 28.65 48 0 76.65 0 112s28.65 64 64 64c29.79 0 54.6-20.44 61.74-48h112.81c-80.61 31.51-135.13 105.79-141.27 192H64c-17.67 0-32 14.33-32 32v96c0 17.67 14.33 32 32 32h96c17.67 0 32-14.33 32-32v-96c0-17.67-14.33-32-32-32h-30.73c5.76-69.41 48.06-129.54 111.08-158.25.96 16.81 14.6 30.25 31.65 30.25h96c17.05 0 30.69-13.44 31.65-30.25 63.02 28.72 105.32 88.84 111.08 158.25H480c-17.67 0-32 14.33-32 32v96c0 17.67 14.33 32 32 32h96c17.67 0 32-14.33 32-32v-96c0-17.67-14.33-32-32-32h-33.27c-6.13-86.21-60.66-160.49-141.27-192h112.81c7.13 27.56 31.94 48 61.73 48zM160 448H64v-96h96v96zM64 144c-17.64 0-32-14.36-32-32s14.36-32 32-32 32 14.36 32 32-14.36 32-32 32zm304 16h-96V64h96v96zm208 288h-96v-96h96v96zm0-368c17.64 0 32 14.36 32 32s-14.36 32-32 32-32-14.36-32-32 14.36-32 32-32z"/></svg>