<svg xmlns="http://www.w3.org/2000/svg" viewBox="0 0 448 512"><!-- Font Awesome Pro 5.15.4 by @fontawesome - https://fontawesome.com License - https://fontawesome.com/license (Commercial License) --><path d="M448 392V24c0-13.3-10.7-24-24-24H80C35.8 0 0 35.8 0 80v368c0 35.35 28.65 64 64 64h372c6.6 0 12-5.4 12-12v-8c0-6.6-5.4-12-12-12h-3.3c-4-20.2-3.2-49.7.4-65.8 8.7-3.6 14.9-12.2 14.9-22.2zm-43.7 88H64c-17.67 0-32-14.33-32-32s14.33-32 32-32h340.3c-2.9 18.8-3.1 43.6 0 64zm11.7-96H64c-11.72 0-22.55 3.38-32 8.88V80c0-26.5 21.5-48 48-48h336v352zM152 224h40v104c0 13.23 10.78 24 24 24h48c13.22 0 24-10.77 24-24V224h40c13.22 0 24-10.77 24-24v-48c0-13.23-10.78-24-24-24h-40V88c0-13.23-10.78-24-24-24h-48c-13.22 0-24 10.77-24 24v40h-40c-13.22 0-24 10.77-24 24v48c0 13.23 10.78 24 24 24zm8-64h64V96h32v64h64v32h-64v128h-32V192h-64v-32z"/></svg>