<svg xmlns="http://www.w3.org/2000/svg" viewBox="0 0 640 512"><!-- Font Awesome Pro 5.15.4 by @fontawesome - https://fontawesome.com License - https://fontawesome.com/license (Commercial License) --><path d="M512.303 192c-19.586-.047-38.147 4.313-54.759 12.132L373.508 71.439A16 16 0 0 0 359.991 64h-67.998c-6.627 0-12 5.373-12 12v8c0 6.627 5.372 12 12 12h59.193l40.532 64H255.994v-20c0-6.627-5.372-12-12-12h-83.998c-8.836 0-16 7.163-16 16s7.163 16 16 16h55.999l-31.808 44.969c-17.085-8.362-36.303-13.035-56.622-12.968C56.937 192.234-.001 249.37 0 320c.001 70.692 57.307 128 127.997 128 59.641 0 109.755-40.793 123.964-96h52.031a16.001 16.001 0 0 0 13.107-6.824l100.744-143.924 12.677 20.018c-28.385 23.449-46.487 58.903-46.531 98.587-.077 69.963 56.843 127.499 126.801 128.138 70.559.644 128.101-55.842 129.193-125.995 1.099-70.503-57.17-129.829-127.68-130zM127.997 416c-52.933 0-95.998-43.065-95.998-96s43.064-96 95.998-96c13.307 0 25.989 2.724 37.521 7.639L98.89 326.824C91.47 337.423 99.083 352 111.997 352h106.506c-13.207 37.248-48.788 64-90.506 64zm95.998-96h-81.268l49.744-71.065c19.354 17.575 31.524 42.925 31.524 71.065zm71.668 0h-39.669c0-39.04-17.483-73.992-45.04-97.47L232.325 192H385.26l-89.597 128zm212.533 95.927c-50.058-1.938-90.528-42.677-92.154-92.747-.961-29.57 11.533-56.303 31.81-74.546l52.759 83.306c3.546 5.599 10.959 7.263 16.558 3.717l6.758-4.281c5.599-3.546 7.263-10.96 3.717-16.558l-52.785-83.346c11.427-4.811 23.972-7.473 37.128-7.473 52.933 0 95.998 43.065 95.998 96 .001 54.194-45.136 98.043-99.789 95.928z"/></svg>