<svg xmlns="http://www.w3.org/2000/svg" viewBox="0 0 640 512"><!-- Font Awesome Pro 5.15.4 by @fontawesome - https://fontawesome.com License - https://fontawesome.com/license (Commercial License) --><path d="M153.18 178.45l25.31-19.56-35.62-42.39 53.4-41.66A48.72 48.72 0 0 1 233 64.34a54.55 54.55 0 0 1 36.87 21.33l25.31-19.56a86.22 86.22 0 0 0-58.46-33.55 81 81 0 0 0-60.31 17.23L123 91.43c-12.53 10.13-14.56 29-4.5 42zm221.15 67.34a48.17 48.17 0 0 0 29.88 10.43H464a48 48 0 0 0 0-96h-42.94l-21.32-17.05a70.61 70.61 0 0 0 8.26.83 72.07 72.07 0 1 0-66.4-44.22 46.65 46.65 0 0 0-48.68 8l-99.25 79c-12.35 10.51-18.45 24.81-17.57 39.94a47.64 47.64 0 0 0 21.24 37.14L272 313.69V400a48 48 0 1 0 96 0V288a47.91 47.91 0 0 0-21.33-39.91l-13.33-9 16.5-12.72zM408 32a40 40 0 1 1-40 40 40 40 0 0 1 40-40zm-79.11 242.69A16 16 0 0 1 336 288v112a16 16 0 1 1-32 0V296.56l-88.87-59.25a16 16 0 0 1-1.54-25.45l100.2-79.78a16 16 0 0 1 20.4-.36l75.63 60.5H464a16 16 0 0 1 0 32h-59.8a16 16 0 0 1-10-3.5l-44.09-35-71.41 55.14zM128 328a56 56 0 1 0 56 56 56.06 56.06 0 0 0-56-56zm0 80a24 24 0 1 1 24-24 24 24 0 0 1-24 24zm489-67.17c-.09-.19-.15-.38-.25-.57a30 30 0 0 0-4.37-36.87l-19.81-19.8a30.63 30.63 0 0 0-36.88-4.39l-.56-.23A30 30 0 0 0 526 256h-28a30 30 0 0 0-29.15 23l-.59.25a30.13 30.13 0 0 0-36.87 4.39l-19.79 19.8a30.08 30.08 0 0 0-4.37 36.86 4.83 4.83 0 0 0-.25.58A30.06 30.06 0 0 0 384 370v28a30.08 30.08 0 0 0 23 29.17c.06.19.16.39.22.58a30.09 30.09 0 0 0 4.4 36.86l19.79 19.8a30.13 30.13 0 0 0 36.87 4.39l.59.23A30 30 0 0 0 498 512h28a30 30 0 0 0 29.16-23l.59-.23a30.11 30.11 0 0 0 36.88-4.39l19.78-19.8a30.07 30.07 0 0 0 4.37-36.86 3.63 3.63 0 0 0 .25-.58A30.07 30.07 0 0 0 640 398v-28a30 30 0 0 0-23-29.17zM593.6 396l-3.44 11.39a83.81 83.81 0 0 1-6.34 15.27l-5.72 10.53 8.5 8.43 3.18.36-17 19.8-11.66-11.67-10.5 5.7a79.41 79.41 0 0 1-15.25 6.31L524 465.55v11.9l2 2.55-26 2v-16.45l-11.41-3.43a81.43 81.43 0 0 1-15.28-6.32l-10.47-5.68-8.43 8.44-.41 3.22-19.8-16.95 11.8-11.67-5.78-10.55a81.24 81.24 0 0 1-6.32-15.24L430.42 396h-11.88l-2.54 2-2-26h16.41l3.43-11.39a83.15 83.15 0 0 1 6.35-15.27l5.72-10.53-8.5-8.44-3.19-.36 17-19.79 11.65 11.67 10.5-5.7a78.89 78.89 0 0 1 15.22-6.32l11.44-3.4v-11.92L498 288l26-2v16.45l11.4 3.42a82.63 82.63 0 0 1 15.31 6.35l10.53 5.65 8.41-8.48.31-3.17 19.84 16.95-11.68 11.64 5.69 10.52a81.38 81.38 0 0 1 6.28 15.23L593.5 372h14.66l1.84 24zm-360.55-55.16a5.77 5.77 0 0 1-.25-.59 30.13 30.13 0 0 0-4.4-36.86l-19.79-19.8c-9.62-9.65-25.56-11.31-36.87-4.39l-.59-.23A30 30 0 0 0 142 256h-28a30 30 0 0 0-29.15 23l-.56.23a30.11 30.11 0 0 0-36.88 4.39l-19.81 19.8a30.06 30.06 0 0 0-4.37 36.89c-.06.17-.16.36-.22.55A30 30 0 0 0 0 370v28a30.05 30.05 0 0 0 23 29.17 2.63 2.63 0 0 0 .22.55 30.07 30.07 0 0 0 4.37 36.89l19.81 19.8a30.06 30.06 0 0 0 36.88 4.37 5.51 5.51 0 0 0 .59.25A30 30 0 0 0 114 512h28a30 30 0 0 0 29.16-23l.59-.23c11.25 6.9 27.19 5.26 36.84-4.39l19.82-19.8a30.08 30.08 0 0 0 4.37-36.86 5.64 5.64 0 0 0 .25-.58A30.06 30.06 0 0 0 256 398v-28.06a30.15 30.15 0 0 0-22.95-29.1zM209.52 396l-3.41 11.45a80.14 80.14 0 0 1-6.28 15.21l-5.71 10.53 8.5 8.43 3.18.36-17 19.8-11.65-11.67-10.5 5.7a79.67 79.67 0 0 1-15.25 6.31l-11.4 3.43v11.9l2 2.55-26 2v-16.47l-11.44-3.41a82.19 82.19 0 0 1-15.31-6.34l-10.53-5.66-8.41 8.49-.31 3.17-19.81-16.95 11.68-11.64-5.69-10.52a85.12 85.12 0 0 1-6.31-15.3L46.44 396H34.56L32 398l-2-26h16.44l3.43-11.39a83 83 0 0 1 6.35-15.33l5.62-10.5-8.44-8.41-3.18-.37 16.93-19.84 11.63 11.72 10.53-5.69a80.53 80.53 0 0 1 15.28-6.33l11.4-3.42v-11.9L114 288l26-2v16.47l11.44 3.4a82 82 0 0 1 15.25 6.33l10.47 5.67 8.43-8.43.41-3.22 19.75 17-11.56 11.63 5.65 10.47a84.62 84.62 0 0 1 6.32 15.29l3.42 11.39h14.6l1.82 24zM512 328a56 56 0 1 0 56 56 56.06 56.06 0 0 0-56-56zm0 80a24 24 0 1 1 24-24 24 24 0 0 1-24 24z"/></svg>