<svg xmlns="http://www.w3.org/2000/svg" viewBox="0 0 512 512"><!-- Font Awesome Pro 5.15.4 by @fontawesome - https://fontawesome.com License - https://fontawesome.com/license (Commercial License) --><path d="M511.67 404c-3.46-129.77-61.06-182.16-63.59-275.98-.47-17.64-14.27-32.02-31.92-32.02H416V64c0-17.67-14.33-32-32-32h-64c-17.67 0-32 14.33-32 32v32h-64V64c0-17.67-14.33-32-32-32h-64c-17.67 0-32 14.33-32 32v32h-.16c-17.65 0-31.45 14.38-31.93 32.02C61.39 221.84 3.79 274.23.33 404L0 432c0 26.51 21.49 48 48 48h128c26.51 0 48-21.49 48-48V288h64v144c0 26.51 21.49 48 48 48h128c26.51 0 48-21.49 48-48l-.33-28zM320 64h64v32h-64V64zm-192 0h64v32h-64V64zm64 368c0 8.82-7.18 16-16 16H48c-8.82 0-16-7.18-16-16 0 0 .94-41.26 1.48-48H192v48zm0-80H37.48c6.38-37.88 17.59-68.49 28.66-98.22C80.13 216.18 94.6 177.3 95.84 128H192v224zm32-96V128h64v128h-64zm96-128h96.16l-.06.88c1.3 48.42 15.77 87.3 29.76 124.9 11.06 29.73 22.28 60.33 28.66 98.22H320V128zm160 304c0 8.82-7.18 16-16 16H336c-8.82 0-16-7.18-16-16v-48h158.52c.54 6.74 1.48 48 1.48 48z"/></svg>