<svg xmlns="http://www.w3.org/2000/svg" viewBox="0 0 576 512"><!-- Font Awesome Pro 5.15.4 by @fontawesome - https://fontawesome.com License - https://fontawesome.com/license (Commercial License) --><path d="M486.25 344.03L576 0H192l29.79 342.56C185.72 356.38 160 391.07 160 432v48c0 17.67 14.33 32 32 32h320c17.67 0 32-14.33 32-32v-48c0-39.4-23.79-73.18-57.75-87.97zM534.58 32l-16.7 64H360c-4.42 0-8 3.58-8 8v16c0 4.42 3.58 8 8 8h149.54l-16.7 64H360c-4.42 0-8 3.58-8 8v16c0 4.42 3.58 8 8 8h124.49l-29.22 112H253.34L226.9 32h307.68zM512 480H192v-48c0-35.29 28.71-64 64-64h192c35.29 0 64 28.71 64 64v48zm-160-80c-13.26 0-24 10.74-24 24 0 13.25 10.74 24 24 24s24-10.75 24-24c0-13.26-10.74-24-24-24zm-175.57-82.92l-23.62-57.97c-5.16-12.72-18.06-20.81-32.19-19.33l-28.53 2.8a180.1 180.1 0 0 1-.03-101.06l28.56 2.8c13.72 1.47 27-6.56 32.16-19.28l23.66-58.02c5.72-14.09.44-30.09-12.56-38.05L127.84 6.88c-19.41-11.89-44.91-8.02-60.53 9.44-90.53 101.33-89.62 253.41 2.06 353.72 8.31 9.11 21 13.94 33.81 13.94 8.59 0 17.22-2.17 24.56-6.67l36.09-22.16c13.04-7.98 18.32-23.98 12.6-38.07zm-65.44 32.94c-5.19 3.25-14.34 2.45-18-1.56C12.4 260.3 11.62 126.67 91.18 37.64c3.28-3.69 7.78-5.62 12.25-5.62 2.66 0 5.31.69 7.66 2.14l35.72 20.8-23.06 57.52-53.59-5.25-4.25 11.59c-17.41 47.22-17.41 99.23 0 146.47l4.25 11.59 53-5.72 23.31 57.11-35.48 21.75z"/></svg>