<svg xmlns="http://www.w3.org/2000/svg" viewBox="0 0 512 512"><!-- Font Awesome Pro 5.15.4 by @fontawesome - https://fontawesome.com License - https://fontawesome.com/license (Commercial License) --><path d="M500.48,224h-33l8,32H192v32H496a16,16,0,0,0,15.52-19.88Zm0-96h-33l8,32H192v32H496a16,16,0,0,0,15.52-19.88ZM496,0H16A16,16,0,0,0,0,16V80A16,16,0,0,0,16,96H128v64H36.5l8-32h-33l-11,44.12A16,16,0,0,0,16,192H128v64H36.5l8-32h-33l-11,44.12A16,16,0,0,0,16,288H128V418.94a48,48,0,1,0,32,0V96H496a16,16,0,0,0,16-16V16A16,16,0,0,0,496,0ZM144,480a16,16,0,1,1,16-16A16,16,0,0,1,144,480ZM480,64H32V32H480Z"/></svg>