<svg xmlns="http://www.w3.org/2000/svg" viewBox="0 0 512 512"><!-- Font Awesome Pro 5.15.4 by @fontawesome - https://fontawesome.com License - https://fontawesome.com/license (Commercial License) --><path d="M496,480H16a16,16,0,0,0,0,32H496a16,16,0,0,0,0-32ZM16,352H80.36a79.29,79.29,0,0,1-14.75-32H16a16,16,0,0,0,0,32Zm480-32H222.39a79.29,79.29,0,0,1-14.75,32H496a16,16,0,0,0,0-32ZM496,0H16A16,16,0,0,0,0,16V80A16,16,0,0,0,16,96H128v64H16a16,16,0,0,0,0,32H128v66.94a48,48,0,1,0,32,0V96H496a16,16,0,0,0,16-16V16A16,16,0,0,0,496,0ZM144,320a16,16,0,1,1,16-16A16,16,0,0,1,144,320ZM480,64H32V32H480Zm16,96H192v32H496a16,16,0,0,0,0-32Z"/></svg>