<svg xmlns="http://www.w3.org/2000/svg" viewBox="0 0 512 512"><!-- Font Awesome Pro 5.15.4 by @fontawesome - https://fontawesome.com License - https://fontawesome.com/license (Commercial License) --><path d="M200.3 0c-4.5-.1-8.2 3.6-8.2 8.1V24c0 4.4 3.5 7.8 7.9 7.9C352.8 35.7 476 159.2 480 312c.1 4.4 3.6 7.9 7.9 7.9h16c4.5 0 8.2-3.7 8.1-8.2C507.7 141.8 370.2 4.3 200.3 0zm0 96c-4.5-.2-8.2 3.6-8.2 8.1v16c0 4.3 3.5 7.8 7.8 8 99.8 4 180.5 84.2 184.2 184 .2 4.3 3.6 7.8 8 7.8h15.8c4.5 0 8.2-3.7 8.1-8.2-4.3-117-98.7-211.4-215.7-215.7zM121 256h-9c-8.8 0-16 7.2-16 16v16c0 8.8 7.2 16 16 16h10.9c47 0 88 38.4 84.9 85.3-2.6 39.9-34.6 71.8-74.4 74.5C86.4 467 48 426 48 378.9V144c0-8.8-7.2-16-16-16H16c-8.8 0-16 7.2-16 16v233c0 74.2 60.1 138.5 134.3 134.9 65.6-3.2 118.4-56 121.6-121.6C259.4 316.1 195.2 256 121 256z"/></svg>