<svg xmlns="http://www.w3.org/2000/svg" viewBox="0 0 512 512"><!-- Font Awesome Pro 5.15.4 by @fontawesome - https://fontawesome.com License - https://fontawesome.com/license (Commercial License) --><path d="M420.7 68.7l-56 56-38.1-38.1c-12.5-12.5-32.8-12.5-45.3 0l-17.1 17.1c-17.9-5-36.8-7.7-56.3-7.7C96 96 3.3 185.9.1 297.8-3.3 415.5 91.1 512 208 512c115.1 0 208-94.2 208-208 0-19.5-2.7-38.4-7.7-56.3l17.1-17.1c12.5-12.5 12.5-32.8 0-45.3l-38.1-38.1 56-56-22.6-22.5zm-48.3 169.6c5.8 20.5 11.6 37.8 11.6 65.7 0 96.2-78.5 176-176 176-24.2 0-47.7-4.8-69.7-14.3-65.2-28.2-108.4-93.4-106.2-167C34.8 204.1 113.2 128 208 128c27.9 0 45.1 5.8 65.7 11.6l30.3-30.3 98.7 98.7s-1.8 1.9-30.3 30.3zM512 72c0 6.6-5.4 12-12 12h-24c-6.6 0-12-5.4-12-12s5.4-12 12-12h24c6.6 0 12 5.4 12 12zm-60-60v24c0 6.6-5.4 12-12 12s-12-5.4-12-12V12c0-6.6 5.4-12 12-12s12 5.4 12 12zm5 43c-4.7-4.7-4.7-12.3 0-17l17-17c4.7-4.7 12.3-4.7 17 0 4.7 4.7 4.7 12.3 0 17l-17 17c-4.7 4.7-12.3 4.7-17 0zm-67.9-16.9c-4.7-4.7-4.7-12.3 0-17 4.7-4.7 12.3-4.7 17 0l17 17c4.7 4.7 4.7 12.3 0 17-4.7 4.7-12.3 4.7-17 0l-17-17zm101.8 67.8c4.7 4.7 4.7 12.3 0 17-4.7 4.7-12.3 4.7-17 0l-17-17c-4.7-4.7-4.7-12.3 0-17 4.7-4.7 12.3-4.7 17 0l17 17zM192 192c0 8.8-7.2 16-16 16-35.3 0-64 28.7-64 64 0 8.8-7.2 16-16 16s-16-7.2-16-16c0-52.9 43.1-96 96-96 8.8 0 16 7.2 16 16z"/></svg>