<svg xmlns="http://www.w3.org/2000/svg" viewBox="0 0 640 512"><!-- Font Awesome Pro 5.15.4 by @fontawesome - https://fontawesome.com License - https://fontawesome.com/license (Commercial License) --><path d="M600.44 256c28.89-17.75 39.56-44.34 39.56-77.05C640 133.22 601.97 96 555.19 96c-36.5 0-68.81 22.75-80.41 56.59C467.19 175.22 467.57 176 456 176H184c-11.57 0-11.19-.78-18.78-23.41C153.62 118.75 121.31 96 84.81 96 38.03 96 0 133.22 0 178.95c0 32.71 10.67 59.3 39.56 77.05C10.67 273.75 0 300.34 0 333.05 0 378.78 38.03 416 84.81 416c36.5 0 68.81-22.75 80.41-56.59C172.81 336.78 172.43 336 184 336h272c11.57 0 11.19.78 18.78 23.41 11.59 33.84 43.91 56.59 80.41 56.59 46.78 0 84.81-37.22 84.81-82.95 0-32.71-10.67-59.3-39.56-77.05zm-45.25 128c-22.81 0-42.97-14.05-50.16-34.97C496.13 322.4 488.47 304 456 304H184c-32.47 0-40.13 18.4-49.03 45.03-7.19 20.92-27.35 34.97-50.16 34.97C55.69 384 32 361.14 32 333.05c0-23.44 6.88-41.59 29.03-52.36v-.02c9.59-4.66 15.53-14.12 15.53-24.67s-5.94-20.02-15.53-24.67v-.02C38.88 220.54 32 202.39 32 178.95 32 150.86 55.69 128 84.81 128c22.81 0 42.97 14.05 50.16 34.97C143.87 189.6 151.53 208 184 208h272c32.47 0 40.13-18.4 49.03-45.03 7.19-20.92 27.34-34.97 50.16-34.97 29.12 0 52.81 22.86 52.81 50.95 0 23.44-6.88 41.59-29.03 52.36v.02c-9.59 4.66-15.53 14.12-15.53 24.67s5.94 20.02 15.53 24.67v.02c22.15 10.77 29.03 28.92 29.03 52.36 0 28.09-23.69 50.95-52.81 50.95z"/></svg>