<svg xmlns="http://www.w3.org/2000/svg" viewBox="0 0 640 512"><!-- Font Awesome Pro 5.15.4 by @fontawesome - https://fontawesome.com License - https://fontawesome.com/license (Commercial License) --><path d="M639.33 456.43L463 8a12 12 0 0 0-11.35-8c-3 0-5 1-11.49 3.31s-9.82 8.24-6.27 18.38c-16.46 9.69-59.15 24.09-75.5 26.42-1.33-3.78-2-6.62-6.4-9.23V32A32 32 0 0 0 320 0h-96c-6 0-11.22 2.07-16 4.9-4.78-2.83-10-4.9-16-4.9H96a32 32 0 0 0-32 32v77.56a158.67 158.67 0 0 1 32-10.33V32h96v77.56a159.52 159.52 0 0 1 32 19.25V128h96v256h-96v-.81a159.52 159.52 0 0 1-32 19.25V480H96v-67.23a158.67 158.67 0 0 1-32-10.33V480a32 32 0 0 0 32 32h96c6 0 11.22-2.07 16-4.9 4.78 2.84 10 4.9 16 4.9h96a32 32 0 0 0 32-32V118.88L503.43 504a12.06 12.06 0 0 0 11.35 8c3 0 5-1 11.49-3.31s9.83-8.23 6.27-18.38c16.46-9.69 59.15-24.09 75.5-26.42 3.65 10.4 10.13 12.65 16.38 10.46l7.55-2.64a12 12 0 0 0 7.36-15.28zM320 480h-96v-64h96zm0-384h-96V32h96zm203.15 367.54L367.79 74.88c25.22-4.74 64-20.33 75.5-26.42l155.36 388.65c-25.23 4.75-64.01 20.33-75.5 26.43zM256 256a128 128 0 1 0-128 128 128 128 0 0 0 128-128zm-224 0a96 96 0 1 1 96 96 96 96 0 0 1-96-96zm117.33 58.67v-37.34h37.34A5.33 5.33 0 0 0 192 272v-32a5.33 5.33 0 0 0-5.33-5.33h-37.34v-37.34A5.33 5.33 0 0 0 144 192h-32a5.33 5.33 0 0 0-5.33 5.33v37.34H69.33A5.33 5.33 0 0 0 64 240v32a5.33 5.33 0 0 0 5.33 5.33h37.34v37.34A5.33 5.33 0 0 0 112 320h32a5.33 5.33 0 0 0 5.33-5.33z"/></svg>