<svg xmlns="http://www.w3.org/2000/svg" viewBox="0 0 448 512"><!-- Font Awesome Pro 5.15.4 by @fontawesome - https://fontawesome.com License - https://fontawesome.com/license (Commercial License) --><path d="M216 160c8.8 0 16-7.2 16-16s-7.2-16-16-16-16 7.2-16 16 7.2 16 16 16zm48 0c8.8 0 16-7.2 16-16s-7.2-16-16-16-16 7.2-16 16 7.2 16 16 16zm-88 43.4V216c0 13.2 10.8 24 24 24h80c13.2 0 24-10.8 24-24v-12.6c20.4-15.1 32-36.4 32-59.4 0-44.1-43.1-80-96-80s-96 35.9-96 80c0 23 11.6 44.3 32 59.4zM240 96c35.3 0 64 21.5 64 48 0 14.3-8.8 27.9-24.3 37.2l-7.7 4.7V208h-64v-22.1l-7.7-4.7c-15.4-9.3-24.3-22.9-24.3-37.2 0-26.5 28.7-48 64-48zm208 296V24c0-13.3-10.7-24-24-24H80C35.8 0 0 35.8 0 80v368c0 35.3 28.7 64 64 64h372c6.6 0 12-5.4 12-12v-8c0-6.6-5.4-12-12-12h-3.3c-4-20.2-3.2-49.7.4-65.8 8.7-3.6 14.9-12.2 14.9-22.2zm-43.7 88H64c-17.7 0-32-14.3-32-32s14.3-32 32-32h340.3c-2.9 18.8-3.1 43.6 0 64zm11.7-96H64c-11.7 0-22.5 3.4-32 8.9V80c0-26.5 21.5-48 48-48h336zm-291.2-51.6l6.3 14.7c1.7 4.1 6.4 5.9 10.5 4.2l98.3-42.2 98.4 42.1c4.1 1.7 8.8-.1 10.5-4.2l6.3-14.7c1.7-4.1-.1-8.8-4.2-10.5l-70.3-30.1 70.3-30.2c4.1-1.7 5.9-6.4 4.2-10.5l-6.3-14.7c-1.7-4.1-6.4-5.9-10.5-4.2L240 274.4l-98.3-42.1c-4.1-1.7-8.8.1-10.5 4.2l-6.3 14.7c-1.7 4.1.1 8.8 4.2 10.5l70.3 30.2-70.4 30c-4 1.8-5.9 6.5-4.2 10.5z"/></svg>