<svg xmlns="http://www.w3.org/2000/svg" viewBox="0 0 448 512"><!-- Font Awesome Pro 5.15.4 by @fontawesome - https://fontawesome.com License - https://fontawesome.com/license (Commercial License) --><path d="M240 224a80 80 0 1 0-80-80 80.09 80.09 0 0 0 80 80zm0-128a48 48 0 1 1-48 48 48.05 48.05 0 0 1 48-48zm208 296V24a23.94 23.94 0 0 0-24-24H80A80 80 0 0 0 0 80v368a64 64 0 0 0 64 64h372a12 12 0 0 0 12-12v-8a12 12 0 0 0-12-12h-3.3c-4-20.2-3.2-49.7.4-65.8A24.1 24.1 0 0 0 448 392zm-43.7 88H64a32 32 0 0 1 0-64h340.3a228.6 228.6 0 0 0 0 64zm11.7-96H64a63.33 63.33 0 0 0-32 8.88V80a48 48 0 0 1 48-48h336zm-265.59-32h179.18C349 352 368 339 368 313.59 368 273 330.69 240 284.81 240c-21.5 2.38-22.6 8-44.81 8s-23.31-5.58-44.81-8c-45.88 0-83.19 33-83.19 73.59C112 339 131 352 150.41 352zm44.78-80c4.66 0 18.43 8 44.81 8s40.15-8 44.81-8C313 272 336 290.66 336 313.59c0 3.22.41 6.41-6.41 6.41H150.41c-6.82 0-6.41-3.19-6.41-6.41 0-22.93 23-41.59 51.19-41.59z"/></svg>