<svg xmlns="http://www.w3.org/2000/svg" viewBox="0 0 448 512"><!-- Font Awesome Pro 5.15.4 by @fontawesome - https://fontawesome.com License - https://fontawesome.com/license (Commercial License) --><path d="M64 144c0 6.06 3.44 11.59 8.84 14.31l37.88 18.94 18.97 37.91c2.72 5.42 8.25 8.84 14.31 8.84s11.59-3.42 14.31-8.84l18.94-37.91 37.91-18.94c5.41-2.7 8.84-8.25 8.84-14.31s-3.44-11.61-8.84-14.31l-37.91-18.94-18.94-37.91C155.59 67.42 150.06 64 144 64s-11.59 3.42-14.31 8.84l-18.97 37.91-37.88 18.94C67.44 132.41 64 137.94 64 144zm65.81-7.02a16.15 16.15 0 0 0 7.16-7.16l7.03-14.05 7 14.05c1.56 3.09 4.06 5.61 7.16 7.16l14.03 7.02-14.03 7.02a16.15 16.15 0 0 0-7.16 7.16l-7 14.05-7.03-14.05a16.101 16.101 0 0 0-7.16-7.16L115.78 144l14.03-7.02zM192 256c0 6.06 3.44 11.59 8.84 14.31l48.56 24.28 24.28 48.56c2.72 5.42 8.25 8.84 14.31 8.84s11.59-3.42 14.31-8.84l24.28-48.56 48.56-24.28c5.41-2.72 8.84-8.25 8.84-14.31s-3.44-11.59-8.84-14.31l-48.56-24.28-24.28-48.56c-5.44-10.84-23.19-10.84-28.62 0l-24.28 48.56-48.56 24.28c-5.4 2.72-8.84 8.25-8.84 14.31zm76.5-12.36a16.15 16.15 0 0 0 7.16-7.16l12.34-24.7 12.34 24.7c1.56 3.09 4.06 5.61 7.16 7.16L332.22 256l-24.72 12.36a16.15 16.15 0 0 0-7.16 7.16L288 300.22l-12.34-24.7a16.101 16.101 0 0 0-7.16-7.16L243.78 256l24.72-12.36zM448 392V24c0-13.3-10.7-24-24-24H80C35.8 0 0 35.8 0 80v368c0 35.35 28.65 64 64 64h372c6.6 0 12-5.4 12-12v-8c0-6.6-5.4-12-12-12h-3.3c-4-20.2-3.2-49.7.4-65.8 8.7-3.6 14.9-12.2 14.9-22.2zm-43.7 88H64c-17.67 0-32-14.33-32-32s14.33-32 32-32h340.3c-2.9 18.8-3.1 43.6 0 64zm11.7-96H64c-11.72 0-22.55 3.38-32 8.88V80c0-26.5 21.5-48 48-48h336v352z"/></svg>