<svg xmlns="http://www.w3.org/2000/svg" viewBox="0 0 448 512"><!-- Font Awesome Pro 5.15.4 by @fontawesome - https://fontawesome.com License - https://fontawesome.com/license (Commercial License) --><path d="M230.1 307.9c5.5 5.5 14.3 5.5 19.8 0l84.7-85.6c24.6-24.9 23.2-66.1-4.3-89.1-13.9-11.6-47.7-28.5-90.2 14.5-42.6-43-76.4-26.1-90.2-14.5-27.5 23-28.9 64.2-4.3 89.1l84.5 85.6zm-59.8-150.1c13.7-11.5 31.2-3.4 38.4 3.7l31.4 31.7 31.4-31.7c7.1-7.2 24.6-15.2 38.4-3.7 14.4 12 12.3 31.6 2.1 42l-72 72.6-71.8-72.6c-10.3-10.4-12.3-30 2.1-42zM448 392V24c0-13.3-10.7-24-24-24H80C35.8 0 0 35.8 0 80v368c0 35.3 28.7 64 64 64h372c6.6 0 12-5.4 12-12v-8c0-6.6-5.4-12-12-12h-3.3c-4-20.2-3.2-49.7.4-65.8 8.7-3.6 14.9-12.2 14.9-22.2zm-43.7 88H64c-17.7 0-32-14.3-32-32s14.3-32 32-32h340.3c-2.9 18.8-3.1 43.6 0 64zm11.7-96H64c-11.7 0-22.5 3.4-32 8.9V80c0-26.5 21.5-48 48-48h336v352z"/></svg>