<svg xmlns="http://www.w3.org/2000/svg" viewBox="0 0 640 512"><!-- Font Awesome Pro 5.15.4 by @fontawesome - https://fontawesome.com License - https://fontawesome.com/license (Commercial License) --><path d="M176 224a112 112 0 1 0 112 112 112 112 0 0 0-112-112zm0 192a80 80 0 1 1 80-80 80.09 80.09 0 0 1-80 80zm288-192a112 112 0 1 0 112 112 112 112 0 0 0-112-112zm0 192a80 80 0 1 1 80-80 80.09 80.09 0 0 1-80 80zm128-256h-16V56a56.07 56.07 0 0 0-56-56H120a56.06 56.06 0 0 0-56 56v104H48a48 48 0 0 0-48 48v256a48 48 0 0 0 48 48h544a48 48 0 0 0 48-48V208a48 48 0 0 0-48-48zM96 56a24 24 0 0 1 24-24h400a24 24 0 0 1 24 24v104h-96v-16a16 16 0 0 0-16-16h-32a16 16 0 0 0-16 16v16h-32v-16a16 16 0 0 0-16-16h-32a16 16 0 0 0-16 16v16h-32v-16a16 16 0 0 0-16-16h-32a16 16 0 0 0-16 16v16H96zm512 408a16 16 0 0 1-16 16H48a16 16 0 0 1-16-16V208a16 16 0 0 1 16-16h544a16 16 0 0 1 16 16zM464 304a32 32 0 1 0 32 32 32 32 0 0 0-32-32zm-288 0a32 32 0 1 0 32 32 32 32 0 0 0-32-32z"/></svg>