<svg xmlns="http://www.w3.org/2000/svg" viewBox="0 0 512 512"><!-- Font Awesome Pro 5.15.4 by @fontawesome - https://fontawesome.com License - https://fontawesome.com/license (Commercial License) --><path d="M415 247.8L352 232V128c17.7 0 32-14.3 32-32V32c0-17.7-14.3-32-32-32H32C14.3 0 0 14.3 0 32v434.7c0 8.5 3.4 16.6 9.4 22.6l13.3 13.3c6 6 14.1 9.4 22.6 9.4h37.5c8.5 0 16.6-3.4 22.6-9.4L128 480l22.6 22.6c6 6 14.1 9.4 22.6 9.4h37.5c8.5 0 16.6-3.4 22.6-9.4L256 480l22.6 22.6c6 6 14.1 9.4 22.6 9.4h37.5c8.5 0 16.6-3.4 22.6-9.4L384 480l22.6 22.6c6 6 14.1 9.4 22.6 9.4h37.5c8.5 0 16.6-3.4 22.6-9.4l13.3-13.3c6-6 9.4-14.1 9.4-22.6v-94.8c0-58.7-40-109.9-97-124.1zM32 32h320v64H32V32zm448 434.7L466.7 480h-37.5l-22.6-22.6c-6-6-14.1-9.4-22.6-9.4s-16.6 3.4-22.6 9.4L338.7 480h-37.5l-22.6-22.6c-6-6-14.1-9.4-22.6-9.4s-16.6 3.4-22.6 9.4L210.7 480h-37.5l-22.6-22.6c-6-6-14.1-9.4-22.6-9.4s-16.6 3.4-22.6 9.4L82.7 480H45.3L32 466.7V416h448v50.7zm0-82.7H32V128h288v32h-88c-4.4 0-8 3.6-8 8v16c0 4.4 3.6 8 8 8h88v32h-88c-4.4 0-8 3.6-8 8v16c0 4.4 3.6 8 8 8h88l87.3 22.8c42.8 10.7 72.7 49 72.7 93.1V384z"/></svg>