<svg xmlns="http://www.w3.org/2000/svg" viewBox="0 0 448 512"><!-- Font Awesome Pro 5.15.4 by @fontawesome - https://fontawesome.com License - https://fontawesome.com/license (Commercial License) --><path d="M439 32h-16a8 8 0 0 0-8 8v408H7a8 8 0 0 0-8 8v16a8 8 0 0 0 8 8h424a16 16 0 0 0 16-16V40a8 8 0 0 0-8-8zM15 80h16a16 16 0 0 0 16-16V48a16 16 0 0 0-16-16H15A16 16 0 0 0-1 48v16a16 16 0 0 0 16 16zm200 0h16a16 16 0 0 0 16-16V48a16 16 0 0 0-16-16h-16a16 16 0 0 0-16 16v16a16 16 0 0 0 16 16zm96 0h16a16 16 0 0 0 16-16V48a16 16 0 0 0-16-16h-16a16 16 0 0 0-16 16v16a16 16 0 0 0 16 16zm-192 0h16a16 16 0 0 0 16-16V48a16 16 0 0 0-16-16h-16a16 16 0 0 0-16 16v16a16 16 0 0 0 16 16zM15 376h16a16 16 0 0 0 16-16v-16a16 16 0 0 0-16-16H15a16 16 0 0 0-16 16v16a16 16 0 0 0 16 16zm0-96h16a16 16 0 0 0 16-16v-16a16 16 0 0 0-16-16H15a16 16 0 0 0-16 16v16a16 16 0 0 0 16 16zm0-96h16a16 16 0 0 0 16-16v-16a16 16 0 0 0-16-16H15a16 16 0 0 0-16 16v16a16 16 0 0 0 16 16z"/></svg>