<svg xmlns="http://www.w3.org/2000/svg" viewBox="0 0 448 512"><!-- Font Awesome Pro 5.15.4 by @fontawesome - https://fontawesome.com License - https://fontawesome.com/license (Commercial License) --><path d="M208 40v432a8 8 0 0 0 8 8h16a8 8 0 0 0 8-8V40a8 8 0 0 0-8-8h-16a8 8 0 0 0-8 8zm136 224v-16a16 16 0 0 0-16-16h-16a16 16 0 0 0-16 16v16a16 16 0 0 0 16 16h16a16 16 0 0 0 16-16zM48 360v-16a16 16 0 0 0-16-16H16a16 16 0 0 0-16 16v16a16 16 0 0 0 16 16h16a16 16 0 0 0 16-16zm0-192v-16a16 16 0 0 0-16-16H16a16 16 0 0 0-16 16v16a16 16 0 0 0 16 16h16a16 16 0 0 0 16-16zm104 96v-16a16 16 0 0 0-16-16h-16a16 16 0 0 0-16 16v16a16 16 0 0 0 16 16h16a16 16 0 0 0 16-16zm-104 0v-16a16 16 0 0 0-16-16H16a16 16 0 0 0-16 16v16a16 16 0 0 0 16 16h16a16 16 0 0 0 16-16zm0 200v-16a16 16 0 0 0-16-16H16a16 16 0 0 0-16 16v16a16 16 0 0 0 16 16h16a16 16 0 0 0 16-16zm56-416v16a16 16 0 0 0 16 16h16a16 16 0 0 0 16-16V48a16 16 0 0 0-16-16h-16a16 16 0 0 0-16 16zM0 48v16a16 16 0 0 0 16 16h16a16 16 0 0 0 16-16V48a16 16 0 0 0-16-16H16A16 16 0 0 0 0 48zm448 312v-16a16 16 0 0 0-16-16h-16a16 16 0 0 0-16 16v16a16 16 0 0 0 16 16h16a16 16 0 0 0 16-16zm0-192v-16a16 16 0 0 0-16-16h-16a16 16 0 0 0-16 16v16a16 16 0 0 0 16 16h16a16 16 0 0 0 16-16zm0 96v-16a16 16 0 0 0-16-16h-16a16 16 0 0 0-16 16v16a16 16 0 0 0 16 16h16a16 16 0 0 0 16-16zm0 200v-16a16 16 0 0 0-16-16h-16a16 16 0 0 0-16 16v16a16 16 0 0 0 16 16h16a16 16 0 0 0 16-16zM400 48v16a16 16 0 0 0 16 16h16a16 16 0 0 0 16-16V48a16 16 0 0 0-16-16h-16a16 16 0 0 0-16 16zm-104 0v16a16 16 0 0 0 16 16h16a16 16 0 0 0 16-16V48a16 16 0 0 0-16-16h-16a16 16 0 0 0-16 16zM152 464v-16a16 16 0 0 0-16-16h-16a16 16 0 0 0-16 16v16a16 16 0 0 0 16 16h16a16 16 0 0 0 16-16zm192 0v-16a16 16 0 0 0-16-16h-16a16 16 0 0 0-16 16v16a16 16 0 0 0 16 16h16a16 16 0 0 0 16-16z"/></svg>