<svg xmlns="http://www.w3.org/2000/svg" viewBox="0 0 448 512"><!-- Font Awesome Pro 5.15.4 by @fontawesome - https://fontawesome.com License - https://fontawesome.com/license (Commercial License) --><path d="M440 32h-16a8 8 0 0 0-8 8v432a8 8 0 0 0 8 8h16a8 8 0 0 0 8-8V40a8 8 0 0 0-8-8zM136 432h-16a16 16 0 0 0-16 16v16a16 16 0 0 0 16 16h16a16 16 0 0 0 16-16v-16a16 16 0 0 0-16-16zM32 32H16A16 16 0 0 0 0 48v16a16 16 0 0 0 16 16h16a16 16 0 0 0 16-16V48a16 16 0 0 0-16-16zm104 0h-16a16 16 0 0 0-16 16v16a16 16 0 0 0 16 16h16a16 16 0 0 0 16-16V48a16 16 0 0 0-16-16zm0 200h-16a16 16 0 0 0-16 16v16a16 16 0 0 0 16 16h16a16 16 0 0 0 16-16v-16a16 16 0 0 0-16-16zM32 328H16a16 16 0 0 0-16 16v16a16 16 0 0 0 16 16h16a16 16 0 0 0 16-16v-16a16 16 0 0 0-16-16zm0 104H16a16 16 0 0 0-16 16v16a16 16 0 0 0 16 16h16a16 16 0 0 0 16-16v-16a16 16 0 0 0-16-16zm0-200H16a16 16 0 0 0-16 16v16a16 16 0 0 0 16 16h16a16 16 0 0 0 16-16v-16a16 16 0 0 0-16-16zm0-96H16a16 16 0 0 0-16 16v16a16 16 0 0 0 16 16h16a16 16 0 0 0 16-16v-16a16 16 0 0 0-16-16zm200 0h-16a16 16 0 0 0-16 16v16a16 16 0 0 0 16 16h16a16 16 0 0 0 16-16v-16a16 16 0 0 0-16-16zm96 96h-16a16 16 0 0 0-16 16v16a16 16 0 0 0 16 16h16a16 16 0 0 0 16-16v-16a16 16 0 0 0-16-16zm0-200h-16a16 16 0 0 0-16 16v16a16 16 0 0 0 16 16h16a16 16 0 0 0 16-16V48a16 16 0 0 0-16-16zm0 400h-16a16 16 0 0 0-16 16v16a16 16 0 0 0 16 16h16a16 16 0 0 0 16-16v-16a16 16 0 0 0-16-16zM232 32h-16a16 16 0 0 0-16 16v16a16 16 0 0 0 16 16h16a16 16 0 0 0 16-16V48a16 16 0 0 0-16-16zm0 400h-16a16 16 0 0 0-16 16v16a16 16 0 0 0 16 16h16a16 16 0 0 0 16-16v-16a16 16 0 0 0-16-16zm0-104h-16a16 16 0 0 0-16 16v16a16 16 0 0 0 16 16h16a16 16 0 0 0 16-16v-16a16 16 0 0 0-16-16zm0-96h-16a16 16 0 0 0-16 16v16a16 16 0 0 0 16 16h16a16 16 0 0 0 16-16v-16a16 16 0 0 0-16-16z"/></svg>