<svg xmlns="http://www.w3.org/2000/svg" viewBox="0 0 448 512"><!-- Font Awesome Pro 5.15.4 by @fontawesome - https://fontawesome.com License - https://fontawesome.com/license (Commercial License) --><path d="M440 32H8a8 8 0 0 0-8 8v16a8 8 0 0 0 8 8h432a8 8 0 0 0 8-8V40a8 8 0 0 0-8-8zM32 136H16a16 16 0 0 0-16 16v16a16 16 0 0 0 16 16h16a16 16 0 0 0 16-16v-16a16 16 0 0 0-16-16zm200 192h-16a16 16 0 0 0-16 16v16a16 16 0 0 0 16 16h16a16 16 0 0 0 16-16v-16a16 16 0 0 0-16-16zm0 104h-16a16 16 0 0 0-16 16v16a16 16 0 0 0 16 16h16a16 16 0 0 0 16-16v-16a16 16 0 0 0-16-16zm-96-200h-16a16 16 0 0 0-16 16v16a16 16 0 0 0 16 16h16a16 16 0 0 0 16-16v-16a16 16 0 0 0-16-16zm-104 0H16a16 16 0 0 0-16 16v16a16 16 0 0 0 16 16h16a16 16 0 0 0 16-16v-16a16 16 0 0 0-16-16zm0 200H16a16 16 0 0 0-16 16v16a16 16 0 0 0 16 16h16a16 16 0 0 0 16-16v-16a16 16 0 0 0-16-16zm0-104H16a16 16 0 0 0-16 16v16a16 16 0 0 0 16 16h16a16 16 0 0 0 16-16v-16a16 16 0 0 0-16-16zm104 104h-16a16 16 0 0 0-16 16v16a16 16 0 0 0 16 16h16a16 16 0 0 0 16-16v-16a16 16 0 0 0-16-16zm296 0h-16a16 16 0 0 0-16 16v16a16 16 0 0 0 16 16h16a16 16 0 0 0 16-16v-16a16 16 0 0 0-16-16zm0-200h-16a16 16 0 0 0-16 16v16a16 16 0 0 0 16 16h16a16 16 0 0 0 16-16v-16a16 16 0 0 0-16-16zm0 96h-16a16 16 0 0 0-16 16v16a16 16 0 0 0 16 16h16a16 16 0 0 0 16-16v-16a16 16 0 0 0-16-16zm0-192h-16a16 16 0 0 0-16 16v16a16 16 0 0 0 16 16h16a16 16 0 0 0 16-16v-16a16 16 0 0 0-16-16zm-104 96h-16a16 16 0 0 0-16 16v16a16 16 0 0 0 16 16h16a16 16 0 0 0 16-16v-16a16 16 0 0 0-16-16zm-96 0h-16a16 16 0 0 0-16 16v16a16 16 0 0 0 16 16h16a16 16 0 0 0 16-16v-16a16 16 0 0 0-16-16zm0-96h-16a16 16 0 0 0-16 16v16a16 16 0 0 0 16 16h16a16 16 0 0 0 16-16v-16a16 16 0 0 0-16-16zm96 296h-16a16 16 0 0 0-16 16v16a16 16 0 0 0 16 16h16a16 16 0 0 0 16-16v-16a16 16 0 0 0-16-16z"/></svg>