<svg xmlns="http://www.w3.org/2000/svg" viewBox="0 0 448 512"><!-- Font Awesome Pro 5.15.4 by @fontawesome - https://fontawesome.com License - https://fontawesome.com/license (Commercial License) --><path d="M24 32H8a8 8 0 0 0-8 8v432a8 8 0 0 0 8 8h16a8 8 0 0 0 8-8V40a8 8 0 0 0-8-8zm208 0h-16a16 16 0 0 0-16 16v16a16 16 0 0 0 16 16h16a16 16 0 0 0 16-16V48a16 16 0 0 0-16-16zm0 296h-16a16 16 0 0 0-16 16v16a16 16 0 0 0 16 16h16a16 16 0 0 0 16-16v-16a16 16 0 0 0-16-16zm0-192h-16a16 16 0 0 0-16 16v16a16 16 0 0 0 16 16h16a16 16 0 0 0 16-16v-16a16 16 0 0 0-16-16zm0 96h-16a16 16 0 0 0-16 16v16a16 16 0 0 0 16 16h16a16 16 0 0 0 16-16v-16a16 16 0 0 0-16-16zM136 32h-16a16 16 0 0 0-16 16v16a16 16 0 0 0 16 16h16a16 16 0 0 0 16-16V48a16 16 0 0 0-16-16zm0 400h-16a16 16 0 0 0-16 16v16a16 16 0 0 0 16 16h16a16 16 0 0 0 16-16v-16a16 16 0 0 0-16-16zm0-200h-16a16 16 0 0 0-16 16v16a16 16 0 0 0 16 16h16a16 16 0 0 0 16-16v-16a16 16 0 0 0-16-16zm96 200h-16a16 16 0 0 0-16 16v16a16 16 0 0 0 16 16h16a16 16 0 0 0 16-16v-16a16 16 0 0 0-16-16zm200-200h-16a16 16 0 0 0-16 16v16a16 16 0 0 0 16 16h16a16 16 0 0 0 16-16v-16a16 16 0 0 0-16-16zm0-96h-16a16 16 0 0 0-16 16v16a16 16 0 0 0 16 16h16a16 16 0 0 0 16-16v-16a16 16 0 0 0-16-16zm0-104h-16a16 16 0 0 0-16 16v16a16 16 0 0 0 16 16h16a16 16 0 0 0 16-16V48a16 16 0 0 0-16-16zM328 432h-16a16 16 0 0 0-16 16v16a16 16 0 0 0 16 16h16a16 16 0 0 0 16-16v-16a16 16 0 0 0-16-16zm104-104h-16a16 16 0 0 0-16 16v16a16 16 0 0 0 16 16h16a16 16 0 0 0 16-16v-16a16 16 0 0 0-16-16zm0 104h-16a16 16 0 0 0-16 16v16a16 16 0 0 0 16 16h16a16 16 0 0 0 16-16v-16a16 16 0 0 0-16-16zM328 232h-16a16 16 0 0 0-16 16v16a16 16 0 0 0 16 16h16a16 16 0 0 0 16-16v-16a16 16 0 0 0-16-16zm0-200h-16a16 16 0 0 0-16 16v16a16 16 0 0 0 16 16h16a16 16 0 0 0 16-16V48a16 16 0 0 0-16-16z"/></svg>