<svg xmlns="http://www.w3.org/2000/svg" viewBox="0 0 640 512"><!-- Font Awesome Pro 5.15.4 by @fontawesome - https://fontawesome.com License - https://fontawesome.com/license (Commercial License) --><path d="M638.3 239.8L586.8 137c-2.8-5.6-8.5-9-14.6-9-1 0 4.3-.7-56.3 7l26.2-71.8c6-16.6-2.5-35-19.1-41L467.3 1.9c-16.5-6-34.9 2.5-41 19.1l-42.8 117.7C380.7 61.7 317.7 0 240 0 164.7 0 103.7 58 97.3 131.6 67.8 127.8 69 128 67.8 128c-6.1 0-11.8 3.5-14.6 9L1.7 239.8c-4.6 9.2.3 20.2 10.1 23L64 277.7V425c0 14.7 10 27.5 24.2 31l216.2 54.1c13.6 3.4 25 1.5 31 0L551.8 456c14.2-3.6 24.2-16.4 24.2-31V277.7l52.1-14.9c9.9-2.8 14.7-13.8 10.2-23zM456.4 32L512 52.2l-31.8 87.3-66 8.4L456.4 32zM38.8 237.3l38-76 190.4 24.3-60.1 99.8-168.3-48.1zM304 477L96 425V286.9C219.3 322.1 211 320 214.3 320c5.6 0 11-2.9 14-7.9L304 186.5V477zm16-317c-95.7-12.2-154.6-19.7-191.1-24.4C133.2 77.8 181.1 32 240 32c61.8 0 112 50.2 112 112 0 4.1-.6 8.1-1.1 12.1L320 160zm224 265l-208 52V186.5L411.7 312c3 5 8.4 7.9 14 7.9 3.3 0-5.2 2.1 118.3-33.1V425zM432.9 285.3l-60.1-99.8 190.4-24.3 38 76-168.3 48.1z"/></svg>