<svg xmlns="http://www.w3.org/2000/svg" viewBox="0 0 640 512"><!-- Font Awesome Pro 5.15.4 by @fontawesome - https://fontawesome.com License - https://fontawesome.com/license (Commercial License) --><path d="M492.5 133.4L458.9 32.8C452.4 13.2 434.1 0 413.4 0H98.6c-20.7 0-39 13.2-45.5 32.8L2.5 184.6c-1.6 4.9-2.5 10-2.5 15.2V464c0 26.5 21.5 48 48 48h400c106 0 192-86 192-192 0-90.7-63-166.5-147.5-186.6zM272 32h141.4c6.9 0 13 4.4 15.2 10.9l28.5 85.5c-3-.1-6-.5-9.1-.5-56.8 0-107.7 24.8-142.8 64H272V32zM83.4 42.9C85.6 36.4 91.7 32 98.6 32H240v160H33.7L83.4 42.9zM48 480c-8.8 0-16-7.2-16-16V224h249.9c-16.4 28.3-25.9 61-25.9 96 0 66.8 34.2 125.6 86 160H48zm400 0c-88.2 0-160-71.8-160-160s71.8-160 160-160 160 71.8 160 160-71.8 160-160 160zm64.6-221.7c-3.1-3.1-8.1-3.1-11.2 0l-69.9 69.3-30.3-30.6c-3.1-3.1-8.1-3.1-11.2 0l-18.7 18.6c-3.1 3.1-3.1 8.1 0 11.2l54.4 54.9c3.1 3.1 8.1 3.1 11.2 0l94.2-93.5c3.1-3.1 3.1-8.1 0-11.2l-18.5-18.7z"/></svg>