<svg xmlns="http://www.w3.org/2000/svg" viewBox="0 0 576 512"><!-- Font Awesome Pro 5.15.4 by @fontawesome - https://fontawesome.com License - https://fontawesome.com/license (Commercial License) --><path d="M571.4 276.6l-51.3-128.2c-4.8-12.3-16.6-20.3-29.8-20.3h-42.2V32c0-17.7-14.3-32-32-32h-256c-17.7 0-32 14.3-32 32v96H86c-13.2 0-25 8.1-29.8 20.3L4.6 276.4C1.5 284 0 292.2 0 300.4l.3 179.4c-.1 17.7 14.3 32.2 32 32.2H544c17.7 0 32.1-14.4 32-32.2V300.3c0-8.1-1.6-16.2-4.6-23.7zM160.2 32h256v192h-256V32zM86 160h42.2v64H104c-4.4 0-8 3.6-8 8v16c0 4.4 3.6 8 8 8h368c4.4 0 8-3.6 8-8v-16c0-4.4-3.6-8-8-8h-23.8v-64h42.2l.1.2 51 127.8h-507L86 160zm458 320l-511.7-.2-.1-159.8H544v160z"/></svg>