<svg xmlns="http://www.w3.org/2000/svg" viewBox="0 0 448 512"><!-- Font Awesome Pro 5.15.4 by @fontawesome - https://fontawesome.com License - https://fontawesome.com/license (Commercial License) --><path d="M447.9 176c0-10.6-2.6-21-7.6-30.3l-49.1-91.9c-4.3-13-16.5-21.8-30.3-21.8H87.1c-13.8 0-26 8.8-30.4 21.9L7.6 145.8c-5 9.3-7.6 19.7-7.6 30.3C.1 236.6 0 448 0 448c0 17.7 14.3 32 32 32h384c17.7 0 32-14.3 32-32 0 0-.1-211.4-.1-272zm-87-112l50.8 96H286.1l-12-96h86.8zM192 192h64v64h-64v-64zm49.9-128l12 96h-59.8l12-96h35.8zM87.1 64h86.8l-12 96H36.3l50.8-96zM32 448s.1-181.1.1-256H160v64c0 17.7 14.3 32 32 32h64c17.7 0 32-14.3 32-32v-64h127.9c0 74.9.1 256 .1 256H32z"/></svg>