<svg xmlns="http://www.w3.org/2000/svg" viewBox="0 0 448 512"><!-- Font Awesome Pro 5.15.4 by @fontawesome - https://fontawesome.com License - https://fontawesome.com/license (Commercial License) --><path d="M392 32H56C25.1 32 0 57.1 0 88v336c0 30.9 25.1 56 56 56h336c30.9 0 56-25.1 56-56V88c0-30.9-25.1-56-56-56zm24 392c0 13.2-10.8 24-24 24H56c-13.2 0-24-10.8-24-24V88c0-13.2 10.8-24 24-24h336c13.2 0 24 10.8 24 24v336zM304 96H144c-17.7 0-32 14.3-32 32v80c0 56.4 41.8 102.6 96 110.4V384h-40c-4.4 0-8 3.6-8 8v16c0 4.4 3.6 8 8 8h112c4.4 0 8-3.6 8-8v-16c0-4.4-3.6-8-8-8h-40v-65.6c54.2-7.8 96-54 96-110.4v-80c0-17.7-14.3-32-32-32zm0 112c0 44.1-35.9 80-80 80s-80-35.9-80-80v-80h68.8c2.3 6.7 4.8 13.3 7.3 19.9-7.9 8.1-36.3 38.4-36.3 38.4s47.6 34.8 67.2 43.8c2.6 1.2 5.7 1 8.2-.7 3.7-2.6 4.6-7.7 2-11.4-8.9-12.5-29.8-33.7-29.8-33.7L260 156s-9.1-22.1-11.6-28H304v80z"/></svg>