<svg xmlns="http://www.w3.org/2000/svg" viewBox="0 0 448 512"><!-- Font Awesome Pro 5.15.4 by @fontawesome - https://fontawesome.com License - https://fontawesome.com/license (Commercial License) --><path d="M249.4 310.9l-41.6-12.5c-4.2-1.3-7.2-5.6-7.2-10.6 0-6 4.3-10.9 9.7-10.9h25.9c3.9 0 7.7 1.1 11 3.1 3.2 1.9 7.3 1.2 10-1.4l11.4-10.9c3.5-3.4 3.4-9.2-.5-12.1-8.2-6-18-9.6-28.1-10.3V232c0-4.4-3.6-8-8-8h-16c-4.4 0-8 3.6-8 8v13.4c-21.9 1.3-39.4 19.6-39.4 42.5 0 19 12.3 35.9 30 41.2l41.6 12.5c4.2 1.3 7.2 5.6 7.2 10.6 0 6-4.3 10.9-9.7 10.9h-25.9c-3.9 0-7.7-1.1-11-3.1-3.2-1.9-7.3-1.2-10 1.4l-11.4 10.9c-3.5 3.4-3.4 9.2.5 12.1 8.2 6 18 9.6 28.1 10.3V408c0 4.4 3.6 8 8 8h16c4.4 0 8-3.6 8-8v-13.4c21.9-1.3 39.4-19.6 39.4-42.5 0-18.9-12.4-35.9-30-41.2zM447.9 176c0-10.6-2.6-21-7.6-30.3l-49.1-91.9c-4.3-13-16.5-21.8-30.3-21.8H87.1c-13.8 0-26 8.8-30.4 21.9L7.6 145.8c-5 9.3-7.6 19.7-7.6 30.3C.1 236.6 0 448 0 448c0 17.7 14.3 32 32 32h384c17.7 0 32-14.3 32-32 0 0-.1-211.4-.1-272zM240 64h120.9l50.8 96H240V64zM87.1 64H208v96H36.3l50.8-96zM32 448s.1-181.1.1-256H416c0 74.9.1 256 .1 256H32z"/></svg>