<svg xmlns="http://www.w3.org/2000/svg" viewBox="0 0 512 512"><!-- Font Awesome Pro 5.15.4 by @fontawesome - https://fontawesome.com License - https://fontawesome.com/license (Commercial License) --><path d="M408 384H104c-4.4 0-8 3.6-8 8v16c0 4.4 3.6 8 8 8h304c4.4 0 8-3.6 8-8v-16c0-4.4-3.6-8-8-8zM448 0H64C28.7 0 0 28.7 0 64v384c0 35.3 28.7 64 64 64h384c35.3 0 64-28.7 64-64V64c0-35.3-28.7-64-64-64zm32 448c0 17.6-14.4 32-32 32H64c-17.6 0-32-14.4-32-32V64c0-17.6 14.4-32 32-32h384c17.6 0 32 14.4 32 32v384zM108.5 202l35.5-44.4V312c0 4.4 3.6 8 8 8h16c4.4 0 8-3.6 8-8V157.6l35.5 44.4c4.6 5.8 14.5 8.8 22.5 2.5 6.9-5.5 8-15.6 2.5-22.5l-64-80c-6.1-7.6-18.9-7.6-25 0l-64 80c-5.5 6.9-4.4 17 2.5 22.5s17 4.4 22.5-2.5zm256-100c-6.1-7.6-18.9-7.6-25 0l-64 80c-5.5 6.9-4.4 17 2.5 22.5s17 4.4 22.5-2.5l35.5-44.4V312c0 4.4 3.6 8 8 8h16c4.4 0 8-3.6 8-8V157.6l35.5 44.4c4.6 5.8 14.5 8.8 22.5 2.5 6.9-5.5 8-15.6 2.5-22.5l-64-80z"/></svg>