<svg xmlns="http://www.w3.org/2000/svg" viewBox="0 0 448 512"><!-- Font Awesome Pro 5.15.4 by @fontawesome - https://fontawesome.com License - https://fontawesome.com/license (Commercial License) --><path d="M252.4 360.8l7.2 14.3c2 4 .4 8.8-3.6 10.7L227.8 400l28.2 14.1c4 2 5.6 6.8 3.6 10.7l-7.2 14.3c-2 4-6.8 5.6-10.7 3.6L192 417.9l-49.7 24.8c-4 2-8.8.4-10.7-3.6l-7.2-14.3c-2-4-.4-8.8 3.6-10.7l28.2-14.1-28.2-14.1c-4-2-5.6-6.8-3.6-10.7l7.2-14.3c2-4 6.8-5.6 10.7-3.6l49.7 24.8 49.7-24.8c3.9-2 8.7-.4 10.7 3.5zm134 13.9L352 406.9V480c0 17.7-14.3 32-32 32H64c-17.7 0-32-14.3-32-32v-96l-17.1-96.5C5 227.6 0 166.6 0 106 0 47.6 47.2 0 105.2 0H280c57.3 0 104 47.6 104 106v43.6c37.2 12.6 64 45.9 64 85.4 0 52.8-21.9 102.4-61.6 139.7zm-21.9-23.4C397.7 320.2 416 278.9 416 235c0-32.5-28.7-59-64-59h-31.2c-26.3 0-48.3 20.8-48.8 47.1-.5 24.6 17.6 45.1 41.1 48.4 4 .6 6.9 4.1 6.9 8.1v16c0 4.7-4.1 8.5-8.8 8-40-4.4-71.2-38.4-71.2-79.5 0-11.4 2.5-22.2 6.8-32h-89.5c-30.6 0-59.5-10.9-82.3-30.8-3.5-3.1-3.7-8.4-.4-11.7l11.3-11.3c3-3 7.7-3.1 10.9-.4 16.9 14.4 38.1 22.3 60.5 22.3H272v.4c13.4-10.1 29.9-16.4 48-16.4h32v-38c0-41.5-31.6-74-72-74H105.2C64.8 32 32 65.2 32 106c0 149.6 31.7 252.5 31.8 278H88c4.4 0 8 3.6 8 8v16c0 4.4-3.6 8-8 8H63.8l.2 64h256v-64h-24c-4.4 0-8-3.6-8-8v-16c0-4.4 3.6-8 8-8h33.7l34.8-32.7z"/></svg>