<svg xmlns="http://www.w3.org/2000/svg" viewBox="0 0 576 512"><!-- Font Awesome Pro 5.15.4 by @fontawesome - https://fontawesome.com License - https://fontawesome.com/license (Commercial License) --><path d="M571.31 244.69l-45.25-45.25A48 48 0 0 1 512 165.49V80a48 48 0 0 0-48-48h-72a8 8 0 0 0-8 8v16a8 8 0 0 0 8 8h72a16 16 0 0 1 16 16v85.48a80 80 0 0 0 23.44 56.58L537.38 256l-33.94 33.94A80 80 0 0 0 480 346.52V432a16 16 0 0 1-16 16h-72a8 8 0 0 0-8 8v16a8 8 0 0 0 8 8h72a48 48 0 0 0 48-48v-85.49a48 48 0 0 1 14.06-33.95l45.25-45.25a16 16 0 0 0 0-22.62zM184 32h-72a48 48 0 0 0-48 48v85.49a48 48 0 0 1-14.06 33.95L4.69 244.69a16 16 0 0 0 0 22.62l45.25 45.25A48 48 0 0 1 64 346.51V432a48 48 0 0 0 48 48h72a8 8 0 0 0 8-8v-16a8 8 0 0 0-8-8h-72a16 16 0 0 1-16-16v-85.48a80 80 0 0 0-23.44-56.58L38.62 256l33.94-33.94A80 80 0 0 0 96 165.48V80a16 16 0 0 1 16-16h72a8 8 0 0 0 8-8V40a8 8 0 0 0-8-8z"/></svg>