<svg xmlns="http://www.w3.org/2000/svg" viewBox="0 0 576 512"><!-- Font Awesome Pro 5.15.4 by @fontawesome - https://fontawesome.com License - https://fontawesome.com/license (Commercial License) --><path d="M288 0C115.72 0 0 90.88 0 175.75c0 34 26.59 60.63 64 66.58v223.45C64 491.27 86.44 512 114 512h348c27.56 0 50-20.73 50-46.22V242.33c37.41-6 64-32.6 64-66.58C576 90.88 460.28 0 288 0zm208 211.56h-16v254.22c0 7.7-8.25 14.22-18 14.22H114c-9.75 0-18-6.52-18-14.22V211.56H80c-27.38 0-48-15.39-48-35.81C32 117 123.16 32 288 32s256 85 256 143.75c0 20.42-20.62 35.81-48 35.81z"/></svg>