<svg xmlns="http://www.w3.org/2000/svg" viewBox="0 0 640 512"><!-- Font Awesome Pro 5.15.4 by @fontawesome - https://fontawesome.com License - https://fontawesome.com/license (Commercial License) --><path d="M32 208V48a16 16 0 0 1 16-16h160a16 16 0 0 1 16 16v16h32V48a48 48 0 0 0-48-48H48A48 48 0 0 0 0 48v160a48 48 0 0 0 48 48h80v-32H48a16 16 0 0 1-16-16zm448 160V144a48 48 0 0 0-48-48H208a48 48 0 0 0-48 48v224a48 48 0 0 0 48 48h224a48 48 0 0 0 48-48zm-288 0V144a16 16 0 0 1 16-16h224a16 16 0 0 1 16 16v224a16 16 0 0 1-16 16H208a16 16 0 0 1-16-16zm400-112h-80v32h80a16 16 0 0 1 16 16v160a16 16 0 0 1-16 16H432a16 16 0 0 1-16-16v-16h-32v16a48 48 0 0 0 48 48h160a48 48 0 0 0 48-48V304a48 48 0 0 0-48-48zM464 448h96a16 16 0 0 0 16-16v-96a16 16 0 0 0-16-16h-48v32h32v64h-48.41a79.76 79.76 0 0 1-41.25 28.43A15.66 15.66 0 0 0 464 448zM176 64H80a16 16 0 0 0-16 16v96a16 16 0 0 0 16 16h48v-32H96V96h48.41a79.76 79.76 0 0 1 41.25-28.43A15.66 15.66 0 0 0 176 64z"/></svg>