<svg xmlns="http://www.w3.org/2000/svg" viewBox="0 0 640 512"><!-- Font Awesome Pro 5.15.4 by @fontawesome - https://fontawesome.com License - https://fontawesome.com/license (Commercial License) --><path d="M638.26 15.53L628.3 3.02c-2.75-3.45-7.78-4.03-11.24-1.28L372.91 194.67l-45.44-57.08c-4.98-6.25-14.56-5.98-19.18.53l-48.62 68.59c-28.53.32-107.2 4.97-158.01 45.37C38.78 302.06 0 511.39 0 511.39c15.38.67 215.11 6.82 275.65-41.3 50.93-40.48 73.32-116.22 79.99-143.78l77.47-31.27c7.44-3 9.89-12.32 4.9-18.6l-45.17-56.75L636.98 26.76a7.985 7.985 0 0 0 1.28-11.23zM255.73 445.62c-26.7 21.22-109.44 34.4-215.93 34.4h-.6c4.06-17.75 8.96-36.82 14.4-55.92l68.79-54.68c4.96-3.94 1.22-11.88-4.97-10.57l-45.98 9.71c15.01-41.64 32.34-77.31 50.15-91.46 33.6-26.71 89.69-37.24 133.9-38.38l67.77 85.13c-7.19 27.54-27.17 89.69-67.53 121.77zm87.1-148.87l-56.94-71.53 28.4-40.47c2.3-3.28 7.11-3.43 9.61-.29l67.61 84.93c2.52 3.16 1.25 7.85-2.51 9.33l-46.17 18.03z"/></svg>