<svg xmlns="http://www.w3.org/2000/svg" viewBox="0 0 576 512"><!-- Font Awesome Pro 5.15.4 by @fontawesome - https://fontawesome.com License - https://fontawesome.com/license (Commercial License) --><path d="M544 184.88V32c0-8.74-6.98-32-31.99-32H512c-7.12 0-14.19 2.38-19.98 7.02l-85.03 68.03C364.28 109.19 310.66 128 256 128H64c-35.35 0-64 28.65-64 64v96c0 35.35 28.65 64 64 64l-.48 32c0 39.77 9.26 77.35 25.56 110.94 5.19 10.69 16.52 17.06 28.4 17.06h106.28c26.05 0 41.69-29.84 25.9-50.56-16.4-21.52-26.15-48.36-26.15-77.44 0-11.11 1.62-21.79 4.41-32H256c54.66 0 108.28 18.81 150.98 52.95l85.03 68.03a32.023 32.023 0 0 0 19.98 7.02c24.92 0 32-22.78 32-32V295.12c19.05-11.09 32-31.49 32-55.12.01-23.63-12.94-44.03-31.99-55.12zM223.76 480l-105.89-.03c-14.83-30.56-22.35-62.19-22.36-95.49l.48-32L96 352h99.33c-2.31 10.7-3.81 21.43-3.81 32 0 35.29 11.3 68.78 32.24 96zM64 320c-17.64 0-32-14.36-32-32v-96c0-17.64 14.36-32 32-32h192v160H64zm448.05 126.93c-.04.25-.13.58-.25.9l-84.83-67.87C386.99 348 338.54 328.14 288 322.13V157.87c50.54-6.01 98.99-25.87 138.98-57.84l84.87-67.9c.03.03.06.05.08.05.04 0 .06-.05.07-.17l.05 414.92z"/></svg>