<svg xmlns="http://www.w3.org/2000/svg" viewBox="0 0 496 512"><!-- Font Awesome Pro 5.15.4 by @fontawesome - https://fontawesome.com License - https://fontawesome.com/license (Commercial License) --><path d="M305.05 98.74l23.96 53.62-92.33 92.33c-6.25 6.25-6.25 16.38 0 22.62 3.12 3.12 7.22 4.69 11.31 4.69s8.19-1.56 11.31-4.69l92.33-92.33 53.62 23.96a20.547 20.547 0 0 0 21.04-4.96l63.67-63.67c10.8-10.8 6.46-29.2-8.04-34.04l-55.66-18.55-18.55-55.65C404.73 13.08 396.54 8 388.16 8c-5.14 0-10.36 1.92-14.47 6.03L310.02 77.7a20.582 20.582 0 0 0-4.97 21.04zm78.18-48.99l12.7 38.09 5.06 15.18 15.18 5.06 38.09 12.7-44.93 44.93-49.09-21.93-21.93-49.09 44.92-44.94zm101.2 131.35l-26.18 26.18c3.63 15.69 5.75 31.95 5.75 48.72 0 119.1-96.9 216-216 216S32 375.1 32 256 128.9 40 248 40c16.78 0 33.04 2.11 48.72 5.75l26.18-26.18A247.848 247.848 0 0 0 248 8C111.03 8 0 119.03 0 256s111.03 248 248 248 248-111.03 248-248c0-26.11-4.09-51.26-11.57-74.9zM274.7 108.85a53.056 53.056 0 0 1-2.68-14.44C264.12 93.25 256.23 92 248 92c-90.65 0-164 73.36-164 164 0 90.65 73.36 164 164 164 90.65 0 164-73.36 164-164 0-8.35-1.25-16.35-2.45-24.36-4.89-.21-9.76-.79-14.41-2.34-2.12-.71 1.02.62-20.69-9.07C377.7 231.68 380 243.52 380 256c0 72.79-59.21 132-132 132s-132-59.21-132-132 59.21-132 132-132c12.48 0 24.32 2.3 35.77 5.55-9.69-21.7-8.36-18.56-9.07-20.7zM248 176c-44.11 0-80 35.89-80 80s35.89 80 80 80 80-35.89 80-80c0-3.77-.61-7.38-1.11-11.01l-44.95 44.95-.01-.01c-8.7 8.69-20.7 14.07-33.93 14.07-26.47 0-48-21.53-48-48 0-13.23 5.38-25.23 14.07-33.93l-.01-.01 44.95-44.95c-3.63-.5-7.24-1.11-11.01-1.11z"/></svg>