<svg xmlns="http://www.w3.org/2000/svg" viewBox="0 0 640 512"><!-- Font Awesome Pro 5.15.4 by @fontawesome - https://fontawesome.com License - https://fontawesome.com/license (Commercial License) --><path d="M640 376a55.65 55.65 0 0 0-18.46-41.26 58.81 58.81 0 0 0 7.37-77.49C594 208 523 176.06 448 176c-75 .06-146 32-180.88 81.25a58.8 58.8 0 0 0 7.36 77.49 55.14 55.14 0 0 0-4.78 77.52A43.79 43.79 0 0 0 256 444a68.08 68.08 0 0 0 68 68h248a68.08 68.08 0 0 0 68-68 43.79 43.79 0 0 0-13.68-31.74A55.49 55.49 0 0 0 640 376zM293.22 275.73C320 237.87 379 208.06 448 208s128 29.87 154.79 67.73C616 294.39 602.62 320 579.57 320H316.43c-23.04 0-36.43-25.62-23.21-44.27zM572 480H324a36 36 0 0 1-36-36 12 12 0 0 1 12-12h296a12 12 0 0 1 12 12 36 36 0 0 1-36 36zm12-80H312a24 24 0 0 1 0-48h272a24 24 0 0 1 0 48zM448 272a16 16 0 1 0-16-16 16 16 0 0 0 16 16zm80 16a16 16 0 1 0-16-16 16 16 0 0 0 16 16zm-160 0a16 16 0 1 0-16-16 16 16 0 0 0 16 16zM95.89 479.11L63.89 160H344a8 8 0 0 0 8-8v-16a8 8 0 0 0-8-8H212.5l24-96H280a8 8 0 0 0 8-8V8a8 8 0 0 0-8-8h-43.5a32 32 0 0 0-31.06 24.25L179.5 128H8a8 8 0 0 0-8 8v16a8 8 0 0 0 8 8h24v1.68l32 320.61A31.88 31.88 0 0 0 96 512h155.11a99.79 99.79 0 0 1-20.18-32.14z"/></svg>