<svg xmlns="http://www.w3.org/2000/svg" viewBox="0 0 512 512"><!-- Font Awesome Pro 5.15.4 by @fontawesome - https://fontawesome.com License - https://fontawesome.com/license (Commercial License) --><path d="M512 123a74.13 74.13 0 0 0-52.26-70.74A74.05 74.05 0 0 0 358.12 6.73a80.49 80.49 0 0 0-106 41.57L34 266.45a116 116 0 0 0 0 164.05L81.5 478a116 116 0 0 0 164.05 0L463.7 259.87a80.49 80.49 0 0 0 41.57-106A73.46 73.46 0 0 0 512 123zM267.55 78.13A174.58 174.58 0 0 1 288 160c0 97.05-79 176-176 176a175.92 175.92 0 0 1-74.51-16.9 83.35 83.35 0 0 1 19.11-30zm-44.63 377.26a84 84 0 0 1-118.79 0L56.6 407.87a83.4 83.4 0 0 1-24.25-55.77A208.34 208.34 0 0 0 112 368c90.14 0 166.86-57.75 195.66-138.11A178.68 178.68 0 0 1 434 244.35zM480 186c0 15.34-7.34 28.66-18.4 37.58-43.1-26.72-95.33-36.5-144.84-28.19A207.56 207.56 0 0 0 320 160c0-39.14-11.29-76.52-31.77-109.4A48.16 48.16 0 0 1 326 32a48.65 48.65 0 0 1 32.84 12.86A41.94 41.94 0 0 1 431 74a42.4 42.4 0 0 1-.78 7.78A41.74 41.74 0 0 1 480 123a41.82 41.82 0 0 1-12.86 30.16A48.65 48.65 0 0 1 480 186z"/></svg>