<svg xmlns="http://www.w3.org/2000/svg" viewBox="0 0 512 512"><!-- Font Awesome Pro 5.15.4 by @fontawesome - https://fontawesome.com License - https://fontawesome.com/license (Commercial License) --><path d="M128 320c-17.67 0-32 14.33-32 32s14.33 32 32 32 32-14.33 32-32-14.33-32-32-32zm256 0c-17.67 0-32 14.33-32 32s14.33 32 32 32 32-14.33 32-32-14.33-32-32-32zm96-192h-32V73.85C448 32.49 362.97 0 256 0S64 32.49 64 73.85V128H32c-17.67 0-32 14.33-32 32v96c0 17.67 14.33 32 32 32h16.7C38.43 301.37 32 317.82 32 336v80c0 17.67 14.33 32 32 32v32c0 17.67 14.33 32 32 32h48c17.67 0 32-14.33 32-32v-32h160v32c0 17.67 14.33 32 32 32h48c17.67 0 32-14.33 32-32v-32c17.67 0 32-14.33 32-32v-80c0-18.18-6.43-34.63-16.7-48H480c17.67 0 32-14.33 32-32v-96c0-17.67-14.33-32-32-32zM256 32c102.96 0 156.91 30.59 160 41.85V96h-96v-8c0-13.26-10.75-24-24-24h-80c-13.25 0-24 10.74-24 24v8H95.96V74.21C99.09 62.59 153.04 32 256 32zm160 96v129.61a80.321 80.321 0 0 0-16-1.61H272V128h144zm-176 0v128H112c-5.48 0-10.83.57-16 1.61V128h144zM32 256v-96h32v96H32zm112 224H96v-32h48v32zm272 0h-48v-32h48v32zm32-64H64v-80c0-26.47 21.53-48 48-48h288c26.47 0 48 21.53 48 48v80zm32-160h-32v-96h32v96z"/></svg>