<svg xmlns="http://www.w3.org/2000/svg" viewBox="0 0 640 512"><!-- Font Awesome Pro 5.15.4 by @fontawesome - https://fontawesome.com License - https://fontawesome.com/license (Commercial License) --><path d="M48 416c-8.82 0-16-7.18-16-16V256h160v40c0 13.25 10.75 24 24 24h80c13.25 0 24-10.75 24-24v-40h40.23c10.06-12.19 21.81-22.9 34.77-32H32v-80c0-8.82 7.18-16 16-16h416c8.82 0 16 7.18 16 16v48.81c5.28-.48 10.6-.81 16-.81s10.72.33 16 .81V144c0-26.51-21.49-48-48-48H352V24c0-13.26-10.74-24-24-24H184c-13.26 0-24 10.74-24 24v72H48c-26.51 0-48 21.49-48 48v256c0 26.51 21.49 48 48 48h291.37a174.574 174.574 0 0 1-12.57-32H48zm176-160h64v32h-64v-32zM192 32h128v64H192V32zm358.29 320H512v-54.29c0-5.34-4.37-9.71-9.71-9.71h-12.57c-5.34 0-9.71 4.37-9.71 9.71v76.57c0 5.34 4.37 9.71 9.71 9.71h60.57c5.34 0 9.71-4.37 9.71-9.71v-12.57c0-5.34-4.37-9.71-9.71-9.71zM496 224c-79.59 0-144 64.41-144 144s64.41 144 144 144 144-64.41 144-144-64.41-144-144-144zm0 256c-61.76 0-112-50.24-112-112s50.24-112 112-112 112 50.24 112 112-50.24 112-112 112z"/></svg>