<svg xmlns="http://www.w3.org/2000/svg" viewBox="0 0 448 512"><!-- Font Awesome Pro 5.15.4 by @fontawesome - https://fontawesome.com License - https://fontawesome.com/license (Commercial License) --><path d="M80 448h288c8.84 0 16-7.16 16-16V240c0-8.84-7.16-16-16-16H80c-8.84 0-16 7.16-16 16v192c0 8.84 7.16 16 16 16zm208-96v-96h64v160h-64v-64zm-96-96h64v64h-64v-64zm0 96h64v64h-64v-64zm-96-96h64v64H96v-64zm0 96h64v64H96v-64zM400 0H48C22.4 0 0 22.4 0 48v416c0 25.6 22.4 48 48 48h352c25.6 0 48-22.4 48-48V48c0-25.6-22.4-48-48-48zm16 464c0 7.93-8.07 16-16 16H48c-7.93 0-16-8.07-16-16V192h384v272zm0-304H32V48c0-7.93 8.07-16 16-16h352c7.93 0 16 8.07 16 16v112z"/></svg>