<svg xmlns="http://www.w3.org/2000/svg" viewBox="0 0 448 512"><!-- Font Awesome Pro 5.15.4 by @fontawesome - https://fontawesome.com License - https://fontawesome.com/license (Commercial License) --><path d="M400 64h-48V12c0-6.6-5.4-12-12-12h-8c-6.6 0-12 5.4-12 12v52H128V12c0-6.6-5.4-12-12-12h-8c-6.6 0-12 5.4-12 12v52H48C21.5 64 0 85.5 0 112v352c0 26.5 21.5 48 48 48h352c26.5 0 48-21.5 48-48V112c0-26.5-21.5-48-48-48zM48 96h352c8.8 0 16 7.2 16 16v48H32v-48c0-8.8 7.2-16 16-16zm352 384H48c-8.8 0-16-7.2-16-16V192h384v272c0 8.8-7.2 16-16 16zM255.7 269.7l34.6 34.6c2.1 2.1 2.1 5.4 0 7.4L159.1 442.9l-35.1 5c-6.9 1-12.9-4.9-11.9-11.9l5-35.1 131.2-131.2c2-2 5.4-2 7.4 0zm75.2 1.4l-19.2 19.2c-2.1 2.1-5.4 2.1-7.4 0l-34.6-34.6c-2.1-2.1-2.1-5.4 0-7.4l19.2-19.2c6.8-6.8 17.9-6.8 24.7 0l17.3 17.3c6.8 6.8 6.8 17.9 0 24.7z"/></svg>