<svg xmlns="http://www.w3.org/2000/svg" viewBox="0 0 448 512"><!-- Font Awesome Pro 5.15.4 by @fontawesome - https://fontawesome.com License - https://fontawesome.com/license (Commercial License) --><path d="M400 64h-48V12c0-6.6-5.4-12-12-12h-8c-6.6 0-12 5.4-12 12v52H128V12c0-6.6-5.4-12-12-12h-8c-6.6 0-12 5.4-12 12v52H48C21.5 64 0 85.5 0 112v352c0 26.5 21.5 48 48 48h352c26.5 0 48-21.5 48-48V112c0-26.5-21.5-48-48-48zM48 96h352c8.8 0 16 7.2 16 16v48H32v-48c0-8.8 7.2-16 16-16zm352 384H48c-8.8 0-16-7.2-16-16V192h384v272c0 8.8-7.2 16-16 16zm-105.3-95.9c4.7 4.7 4.7 12.3 0 17l-5.7 5.7c-4.7 4.7-12.3 4.7-17 0l-48-48.2-48.1 48.1c-4.7 4.7-12.3 4.7-17 0l-5.7-5.7c-4.7-4.7-4.7-12.3 0-17l48.1-48.1-48.1-48.1c-4.7-4.7-4.7-12.3 0-17l5.7-5.7c4.7-4.7 12.3-4.7 17 0l48.1 48.1 48.1-48.1c4.7-4.7 12.3-4.7 17 0l5.7 5.7c4.7 4.7 4.7 12.3 0 17L246.6 336l48.1 48.1z"/></svg>