<svg xmlns="http://www.w3.org/2000/svg" viewBox="0 0 448 512"><!-- Font Awesome Pro 5.15.4 by @fontawesome - https://fontawesome.com License - https://fontawesome.com/license (Commercial License) --><path d="M400 64h-48V12c0-6.6-5.4-12-12-12h-8c-6.6 0-12 5.4-12 12v52H128V12c0-6.6-5.4-12-12-12h-8c-6.6 0-12 5.4-12 12v52H48C21.5 64 0 85.5 0 112v352c0 26.5 21.5 48 48 48h352c26.5 0 48-21.5 48-48V112c0-26.5-21.5-48-48-48zM48 96h352c8.8 0 16 7.2 16 16v48H32v-48c0-8.8 7.2-16 16-16zm352 384H48c-8.8 0-16-7.2-16-16V192h384v272c0 8.8-7.2 16-16 16zM212.7 224h22.6c6.9 0 12.4 5.8 12 12.7l-6.7 120c-.4 6.4-5.6 11.3-12 11.3h-9.3c-6.4 0-11.6-5-12-11.3l-6.7-120c-.3-6.9 5.2-12.7 12.1-12.7zM252 416c0 15.5-12.5 28-28 28s-28-12.5-28-28 12.5-28 28-28 28 12.5 28 28z"/></svg>