<svg xmlns="http://www.w3.org/2000/svg" viewBox="0 0 576 512"><!-- Font Awesome Pro 5.15.4 by @fontawesome - https://fontawesome.com License - https://fontawesome.com/license (Commercial License) --><path d="M511.88 160l.12 31.5-.22 256.37L416 381.72V258.23L511.93 192h-.07v-32a32.13 32.13 0 0 0-18.27 5.73L416 219.32V208a48 48 0 0 0-48-48H128v-48a48 48 0 0 1 48-48h168a8 8 0 0 0 8-8V40a8 8 0 0 0-8-8H176a80 80 0 0 0-80 80v48H80a48 48 0 0 0-48 48v224a48 48 0 0 0 48 48h288a48 48 0 0 0 48-48v-11.39l77.59 53.59a32 32 0 0 0 18.26 5.8c16.63 0 32.15-13 32.15-31.59V191.5c0-18.5-15.48-31.5-32.12-31.5zM384 432a16 16 0 0 1-16 16H80a16 16 0 0 1-16-16V208a16 16 0 0 1 16-16h288a16 16 0 0 1 16 16zm-38.4-208H102.4a6.41 6.41 0 0 0-6.4 6.4v19.2a6.41 6.41 0 0 0 6.4 6.4h243.2a6.41 6.41 0 0 0 6.4-6.4v-19.2a6.41 6.41 0 0 0-6.4-6.4z"/></svg>