<svg xmlns="http://www.w3.org/2000/svg" viewBox="0 0 576 512"><!-- Font Awesome Pro 5.15.4 by @fontawesome - https://fontawesome.com License - https://fontawesome.com/license (Commercial License) --><path d="M368 80a64 64 0 1 0 64 64 64 64 0 0 0-64-64zm0 96a32 32 0 1 1 32-32 32 32 0 0 1-32 32zM176 80a64 64 0 1 0 64 64 64.07 64.07 0 0 0-64-64zm0 96a32 32 0 1 1 32-32 32 32 0 0 1-32 32zm374.29 80a25.67 25.67 0 0 0-14.61 4.59l-87.68 61V304a47.74 47.74 0 0 0-13.34-33.07C480.44 246.81 512 199.34 512 144A144 144 0 0 0 368 0c-37 0-70.48 14.38-96 37.37C246.48 14.38 213.05 0 176 0A144 144 0 0 0 32 144c0 45.52 21.54 85.61 54.51 112H32a32 32 0 0 0-32 32v32a32 32 0 0 0 32 32h64v112a48 48 0 0 0 48 48h256a48 48 0 0 0 48-48v-17.54l87.68 60.94a25.53 25.53 0 0 0 14.6 4.6c13.3 0 25.72-10.36 25.72-25.24V281.23c0-14.83-12.39-25.23-25.71-25.23zM416 464a16 16 0 0 1-16 16H144a16 16 0 0 1-16-16V320H32v-32h368a16 16 0 0 1 16 16zm-48-208H176a112 112 0 1 1 74.58-194.85L272 80.44l21.42-19.29A111.78 111.78 0 1 1 368 256zm176 218.22l-96-66.74v-47l96-66.74z"/></svg>