<svg xmlns="http://www.w3.org/2000/svg" viewBox="0 0 576 512"><!-- Font Awesome Pro 5.15.4 by @fontawesome - https://fontawesome.com License - https://fontawesome.com/license (Commercial License) --><path d="M288 128a80 80 0 1 0 80 80 80.12 80.12 0 0 0-80-80zm0 128a48 48 0 1 1 48-48 48.05 48.05 0 0 1-48 48zM104 416h368a8 8 0 0 0 8-8v-16a8 8 0 0 0-8-8H104a8 8 0 0 0-8 8v16a8 8 0 0 0 8 8zm470.43-87.94a32.12 32.12 0 0 0-3.8-8.06L512 256V80a48 48 0 0 0-48-48H112a48 48 0 0 0-48 48v176L5.38 320A33.45 33.45 0 0 0 0 337.75V448a32 32 0 0 0 32 32h512a32 32 0 0 0 32-32V337.75a31.81 31.81 0 0 0-1.57-9.69zM96 268.44V80a16 16 0 0 1 16-16h352a16 16 0 0 1 16 16v188.44L527.23 320H48.77zM544 448H32v-96h512zM432 104h-32a8 8 0 0 0-8 8v32a8 8 0 0 0 8 8h32a8 8 0 0 0 8-8v-32a8 8 0 0 0-8-8z"/></svg>