<svg xmlns="http://www.w3.org/2000/svg" viewBox="0 0 512 512"><!-- Font Awesome Pro 5.15.4 by @fontawesome - https://fontawesome.com License - https://fontawesome.com/license (Commercial License) --><path d="M256 320c79.53 0 144-64.47 144-144 0-33.29-33.42-101.96-80-144-13.37 12.06-25.45 24.75-36.14 37.48C266.34 46.01 244.61 22.21 220 0c-63.17 56.98-108 131.22-108 176 0 79.53 64.47 144 144 144zM220.1 44.42c14.11 14.38 27.04 29.37 38.12 44.21L282.39 121l25.98-30.95c3.56-4.24 7.23-8.41 10.99-12.47C349.96 114.53 368 159.21 368 176c0 61.76-50.24 112-112 112s-112-50.24-112-112c0-27.75 28.05-81.63 76.1-131.58zM295.91 400l211.3-82.02a7.99 7.99 0 0 0 4.12-10.53l-6.4-14.65a8.006 8.006 0 0 0-10.54-4.13L256 382.54 17.61 288.67a8.006 8.006 0 0 0-10.54 4.13l-6.4 14.65a7.999 7.999 0 0 0 4.12 10.53L216.09 400 4.8 482.02a7.994 7.994 0 0 0-4.12 10.53l6.4 14.65c1.77 4.05 6.49 5.9 10.54 4.12L256 417.46l238.39 93.87c4.05 1.77 8.77-.07 10.54-4.12l6.4-14.65a7.999 7.999 0 0 0-4.12-10.53L295.91 400z"/></svg>