<svg xmlns="http://www.w3.org/2000/svg" viewBox="0 0 640 512"><!-- Font Awesome Pro 5.15.4 by @fontawesome - https://fontawesome.com License - https://fontawesome.com/license (Commercial License) --><path d="M480 0C314.19 1.62 315.52 39.54 322.11 72.47 352.45 224.02 416.18 416 479.91 416h.09c63.77-.18 127.53-191.9 157.89-343.53C644.48 39.54 645.81 1.62 480 0zm-.09 383.99c-12.75-.03-39.26-37.06-67.43-108.71 43.78-3.73 91.2-3.73 134.98-.01-28.2 71.64-54.77 108.68-67.55 108.72zm79.07-139.8c-50.83-4.96-107.17-4.96-158 0-9.47-27.05-18.92-57.92-27.95-92.61 66.6-9.76 147.33-9.77 213.93 0-9.04 34.68-18.49 65.56-27.98 92.61zm47.65-178.03c-3.8 19-7.83 36.88-11.94 54.22-71.31-10.82-158.08-10.82-229.39 0-4.11-17.34-8.13-35.23-11.93-54.23-1.98-9.89-1.55-12.44-1.27-13.08.1-.2 12.85-19.9 127.9-21.06 115.06 1.16 127.81 20.87 127.9 21.06.28.65.71 3.2-1.27 13.09zM84.94 205.81c-116.1 118.4-88.35 144.26-60.4 162.89 128.62 85.71 309.43 176.4 354.49 131.34l.06-.06c44.96-45.22-45.52-225.87-131.27-354.56-18.62-27.96-44.48-55.71-162.88 60.39zM356.4 477.4c-9.03 9-53.97 1.56-124.54-29.19 28.32-33.6 61.85-67.12 95.44-95.45 30.71 70.59 38.11 115.57 29.1 124.64zm-42.94-154.77c-39.45 32.44-79.29 72.28-111.72 111.73-25.83-12.43-54.34-27.58-85.25-45.72 40.19-53.99 97.27-111.08 151.27-151.27 18.13 30.91 33.28 59.42 45.7 85.26zm-224.5 49.41c-15.17-9.36-30.66-19.16-46.78-29.91-8.39-5.59-9.89-7.7-10.15-8.35-.07-.21-4.99-23.16 75.55-105.34 82.18-80.54 105.13-75.62 105.34-75.55.64.25 2.75 1.76 8.35 10.15 10.74 16.12 20.54 31.62 29.9 46.78-58.08 42.79-119.43 104.15-162.21 162.22z"/></svg>