<svg xmlns="http://www.w3.org/2000/svg" viewBox="0 0 512 512"><!-- Font Awesome Pro 5.15.4 by @fontawesome - https://fontawesome.com License - https://fontawesome.com/license (Commercial License) --><path d="M497.5 92C469.6 33.1 411.8 0 352.4 0c-27.9 0-56.2 7.3-81.8 22.6L243.1 39c-15.2 9.1-20.1 28.7-11 43.9l32.8 54.9c9.4 15.7 29.3 19.8 43.9 11l27.5-16.4c35.9-21.5 69.6 33 32.8 54.9L15.6 397.6c-15.2 9.1-20.1 28.7-11 43.9l32.8 54.9c6 10 16.6 15.6 27.5 15.6 5.6 0 11.2-1.5 16.4-4.5L428.6 301c71.7-42.9 104.6-133.5 68.9-209zm-205.2 29.4l-32.8-54.9C291.8 47.2 312.6 32.1 352 32v64c-23.6.3-37.3 12.1-59.7 25.4zm91-17.4h.7V36.1c36.7 9.2 67.8 34 84.6 69.5 3.4 7.2 6 14.7 7.9 22.3H408v.1c-.2-.3-.3-.6-.4-.9-5.9-9.9-14.4-17.7-24.3-23.1zM256.8 291.4l82.3-49 64.3 36.2-82.3 49-64.3-36.2zm32.6 55.1l-87.5 52-64.3-36.2 87.5-52 64.3 36.2zM64.8 480l-32.9-54.9 73.9-43.9 64.3 36.2L64.8 480zm368-221.5l-62-34.9 14.6-8.7c20-11.9 30.9-33.2 30.9-54.9h63c-.9 36.5-17.2 72.8-46.5 98.5z"/></svg>