<svg xmlns="http://www.w3.org/2000/svg" viewBox="0 0 512 512"><!-- Font Awesome Pro 5.15.4 by @fontawesome - https://fontawesome.com License - https://fontawesome.com/license (Commercial License) --><path d="M494.42 323.43c-1.2-.6-19.6-9.78-47.96-17.83 48.3-64.24 63.94-129.7 64.72-133.04a31.977 31.977 0 0 0-8.31-29.62 31.997 31.997 0 0 0-22.86-9.61c-2.19 0-4.4.23-6.59.69-3.34.7-66.31 14.35-130.68 55.97-8.59-97.8-57.86-172.39-60.14-175.8C276.64 5.32 266.67 0 256 0s-20.64 5.32-26.58 14.19c-2.29 3.41-51.56 78.01-60.14 175.8-64.37-41.62-127.34-55.27-130.68-55.97-2.19-.46-4.4-.69-6.59-.69-8.51 0-16.78 3.4-22.86 9.61a31.991 31.991 0 0 0-8.31 29.62c.77 3.34 16.42 68.79 64.72 133.04-28.37 8.05-46.77 17.23-47.96 17.83A32 32 0 0 0 0 351.98a32.005 32.005 0 0 0 17.54 28.57c2.3 1.17 54.42 27.19 120.97 29.89-2.84 6.84-4.26 11.06-4.41 11.51A31.999 31.999 0 0 0 164.48 464c3.04 0 6.11-.43 9.12-1.33 1.66-.49 31.46-9.55 66.39-30.71V504c0 4.42 3.58 8 8 8h16c4.42 0 8-3.58 8-8v-72.03c34.94 21.16 64.74 30.21 66.39 30.71 3.01.89 6.08 1.33 9.12 1.33 8.53 0 16.86-3.41 22.97-9.72a31.982 31.982 0 0 0 7.41-32.33c-.15-.45-1.56-4.67-4.41-11.51 66.55-2.71 118.66-28.73 120.97-29.89 10.77-5.45 17.55-16.5 17.54-28.57s-6.79-23.12-17.56-28.56zM362.4 378.66c-17.33 0-31.19-.9-42.49-2.42-.22.12-.4.16-.62.28 19.8 30.01 28.23 55.48 28.23 55.48s-48.08-14.3-91.52-50.5c-43.44 36.2-91.52 50.5-91.52 50.5s8.43-25.47 28.23-55.48c-.22-.12-.4-.16-.62-.28-11.3 1.53-25.16 2.42-42.49 2.42C84.65 378.66 32 352 32 352s40.95-20.67 95.13-25.58c-.85-.8-1.57-1.36-2.43-2.18C53.02 255.98 32 165.33 32 165.33s95.18 20.02 166.85 88.28c.93.89 1.57 1.63 2.48 2.51-.85-11.28-1.33-23.67-1.33-37.46C200 115.57 256 32 256 32s56 83.57 56 186.67c0 13.79-.48 26.18-1.33 37.46.91-.88 1.55-1.62 2.48-2.51C384.82 185.35 480 165.33 480 165.33s-21.02 90.64-92.7 158.9c-.86.82-1.58 1.38-2.43 2.18C439.05 331.33 480 352 480 352s-52.65 26.66-117.6 26.66z"/></svg>