<svg xmlns="http://www.w3.org/2000/svg" viewBox="0 0 544 512"><!-- Font Awesome Pro 5.15.4 by @fontawesome - https://fontawesome.com License - https://fontawesome.com/license (Commercial License) --><path d="M529 296.8L417.5 103.7c-30.8-53.2-99-71.5-152.3-40.8-21.2 12.2-36.5 30.5-45.8 51.3C206.3 67 163.4 32 112 32 50.2 32 0 82.2 0 144v224c0 61.8 50.2 112 112 112s112-50.2 112-112V214.2c.2.3.2.6.4.9l111.5 193.1c20.6 35.7 58.2 55.7 96.8 55.7 18.9 0 38-4.8 55.5-14.9 25.8-14.9 44.2-38.9 51.9-67.7 7.8-28.7 3.8-58.7-11.1-84.5zM112 64c44.1 0 80 35.9 80 80v112H32V144c0-44.1 35.9-80 80-80zm0 384c-44.1 0-80-35.9-80-80v-80h160v80c0 44.1-35.9 80-80 80zM281.2 90.5c40.4-23.3 88.2-6.5 108.8 29.1l47.6 82.4-137.9 79.6-47.7-82.3c-21.9-38.1-8.9-86.9 29.2-108.8zm228.2 282.7c-5.5 20.5-18.7 37.7-37.1 48.4-38 21.9-86.8 8.8-108.8-29.1l-47.9-83 137.9-79.6 47.9 83c10.7 18.2 13.5 39.7 8 60.3z"/></svg>