<svg xmlns="http://www.w3.org/2000/svg" viewBox="0 0 640 512"><!-- Font Awesome Pro 5.15.4 by @fontawesome - https://fontawesome.com License - https://fontawesome.com/license (Commercial License) --><path d="M64 300a20 20 0 1 0 20-20 20 20 0 0 0-20 20zm-32 49.09L31.93 256h209.92l7.39-32H208v-96h144v16h32V70.23C384 30.91 299 0 192 0S0 30.91 0 70.23v278.86A34.91 34.91 0 0 0 34.91 384H32v48a16 16 0 0 0 16 16h16a16 16 0 0 0 16-16v-48h112v-21.33c0-3.66.93-7.09 1.29-10.67H34.91a2.91 2.91 0 0 1-2.91-2.91zM176 224H32v-96h144zM31.8 71.55C36.41 60.29 90.84 32 192 32s155.59 28.29 160 38.23V96H31.82zm563.6 222.89l-15.88-68.83A63.71 63.71 0 0 0 517.16 176H344.07a63.7 63.7 0 0 0-62.36 49.61l-16.28 70.55C241 308.44 224 333.49 224 362.67v55.11a46.14 46.14 0 0 0 32 43.75V496a16 16 0 0 0 16 16h16a16 16 0 0 0 16-16v-32h256v32a16 16 0 0 0 16 16h16a16 16 0 0 0 16-16v-34.47a46.14 46.14 0 0 0 32-43.75v-55.11a74.7 74.7 0 0 0-44.6-68.23zm-282.51-61.63A32 32 0 0 1 344.07 208h173.09a32 32 0 0 1 31.18 24.81L561.07 288H300.15zM608 417.78A14.24 14.24 0 0 1 593.78 432H270.22A14.24 14.24 0 0 1 256 417.78v-55.11A42.72 42.72 0 0 1 298.67 320h266.66A42.72 42.72 0 0 1 608 362.67zM308 352a20 20 0 1 0 20 20 20 20 0 0 0-20-20zm248 0a20 20 0 1 0 20 20 20 20 0 0 0-20-20z"/></svg>