<svg xmlns="http://www.w3.org/2000/svg" viewBox="0 0 448 512"><!-- Font Awesome Pro 5.15.4 by @fontawesome - https://fontawesome.com License - https://fontawesome.com/license (Commercial License) --><path d="M80 128c26.47 0 48-21.6 48-48.16 0-20.52-24.38-58.12-34.84-73.32-5.94-8.69-20.38-8.69-26.31 0C56.38 21.72 32 59.32 32 79.84 32 106.4 53.53 128 80 128zm0-82.61c9.22 15.57 15.88 29.55 16 34.44 0 8.86-7.19 16.05-16 16.05s-16-7.2-16-16.04c.12-4.89 6.78-18.88 16-34.45zM224 128c26.47 0 48-21.6 48-48.16 0-20.52-24.38-58.12-34.84-73.32-5.94-8.69-20.38-8.69-26.31 0C200.38 21.72 176 59.32 176 79.84c0 26.56 21.53 48.16 48 48.16zm0-82.61c9.22 15.57 15.88 29.55 16 34.44 0 8.86-7.19 16.05-16 16.05s-16-7.2-16-16.04c.12-4.89 6.78-18.88 16-34.45zM368 128c26.47 0 48-21.6 48-48.16 0-20.52-24.38-58.12-34.84-73.32-5.94-8.69-20.38-8.69-26.31 0C344.38 21.72 320 59.32 320 79.84c0 26.56 21.53 48.16 48 48.16zm0-82.61c9.22 15.57 15.88 29.55 16 34.44 0 8.86-7.19 16.05-16 16.05s-16-7.2-16-16.04c.12-4.89 6.78-18.88 16-34.45zm29.38 216.35l-15.15-46.5c-10.73-32.93-41.43-55.22-76.07-55.22H141.83c-34.64 0-65.34 22.29-76.07 55.22l-15.15 46.5C21.01 273.47 0 302.22 0 336v128c0 26.47 21.53 48 48 48h16c26.47 0 48-21.53 48-48v-16h224v16c0 26.47 21.53 48 48 48h16c26.47 0 48-21.53 48-48V336c0-33.78-21.01-62.53-50.62-74.26zM96.19 225.15a47.888 47.888 0 0 1 45.64-33.13h164.34c20.84 0 39.18 13.32 45.64 33.13L361.86 256H86.14l10.05-30.85zM80 464c0 8.83-7.19 16-16 16H48c-8.81 0-16-7.17-16-16v-16h48v16zm336 0c0 8.83-7.19 16-16 16h-16c-8.81 0-16-7.17-16-16v-16h48v16zm0-80v32H32v-80c0-26.47 21.53-48 48-48h288c26.47 0 48 21.53 48 48v48zm-72.8-71.99c-24.1 0-55.2 23.24-55.2 47.93 0 11.98 5.85 32.07 45.06 32.07l10.14-.1c25.96 0 44.8-16.8 44.8-39.95 0-23.15-18.84-39.95-44.8-39.95zm0 55.9c-3.12 0-6.63.1-10.14.1-10.53 0-21.06-.9-21.06-8.07 0-9.57 18.72-23.93 31.2-23.93s20.8 6.38 20.8 15.95-8.32 15.95-20.8 15.95zm-238.4-55.9c-25.96 0-44.8 16.8-44.8 39.95 0 23.15 18.84 39.95 44.8 39.95l10.14.1c39.21 0 45.06-20.1 45.06-32.07 0-24.69-31.1-47.93-55.2-47.93zm10.14 56c-3.51 0-7.02-.1-10.14-.1-12.48 0-20.8-6.38-20.8-15.95s8.32-15.95 20.8-15.95 31.2 14.36 31.2 23.93c0 7.17-10.53 8.07-21.06 8.07z"/></svg>