<svg xmlns="http://www.w3.org/2000/svg" viewBox="0 0 640 512"><!-- Font Awesome Pro 5.15.4 by @fontawesome - https://fontawesome.com License - https://fontawesome.com/license (Commercial License) --><path d="M595.4 294.44l-15.88-68.83A63.71 63.71 0 0 0 517.16 176H344.07a63.7 63.7 0 0 0-62.36 49.61l-16.28 70.55C241 308.44 224 333.49 224 362.67v55.11a46.14 46.14 0 0 0 32 43.75V496a16 16 0 0 0 16 16h16a16 16 0 0 0 16-16v-32h256v32a16 16 0 0 0 16 16h16a16 16 0 0 0 16-16v-34.47a46.14 46.14 0 0 0 32-43.75v-55.11a74.7 74.7 0 0 0-44.6-68.23zM312.89 232.8a32 32 0 0 1 31.18-24.8h173.09a32 32 0 0 1 31.18 24.8l12.73 55.2H300.15zM608 417.78A14.24 14.24 0 0 1 593.78 432H270.22A14.24 14.24 0 0 1 256 417.78v-55.11A42.72 42.72 0 0 1 298.67 320h266.66A42.72 42.72 0 0 1 608 362.67zM320 48v96h32V48a48 48 0 0 0-48-48H48A48 48 0 0 0 0 48v392a8 8 0 0 0 8 8h16a8 8 0 0 0 8-8V48a16 16 0 0 1 16-16h256a16 16 0 0 1 16 16zM204 96a12 12 0 0 0-12 12v40a12 12 0 0 0 12 12h40a12 12 0 0 0 12-12v-40a12 12 0 0 0-12-12zm-56 96h-40a12 12 0 0 0-12 12v40a12 12 0 0 0 12 12h40a12 12 0 0 0 12-12v-40a12 12 0 0 0-12-12zm0 96h-40a12 12 0 0 0-12 12v40a12 12 0 0 0 12 12h40a12 12 0 0 0 12-12v-40a12 12 0 0 0-12-12zm160 64a20 20 0 1 0 20 20 20 20 0 0 0-20-20zm248 0a20 20 0 1 0 20 20 20 20 0 0 0-20-20zM148 96h-40a12 12 0 0 0-12 12v40a12 12 0 0 0 12 12h40a12 12 0 0 0 12-12v-40a12 12 0 0 0-12-12zm102.53 122.42a96.81 96.81 0 0 1 5.16-15.95A11.86 11.86 0 0 0 244 192h-40a12 12 0 0 0-12 12v40a12 12 0 0 0 12 12h37.85z"/></svg>