<svg xmlns="http://www.w3.org/2000/svg" viewBox="0 0 480 512"><!-- Font Awesome Pro 5.15.4 by @fontawesome - https://fontawesome.com License - https://fontawesome.com/license (Commercial License) --><path d="M423.18 195.81l-24.94-76.58C387.51 86.29 356.81 64 322.17 64H157.83c-34.64 0-65.34 22.29-76.07 55.22L56.82 195.8C24.02 205.79 0 235.92 0 271.99V400c0 26.47 21.53 48 48 48h16c26.47 0 48-21.53 48-48v-16h256v16c0 26.47 21.53 48 48 48h16c26.47 0 48-21.53 48-48V271.99c0-36.07-24.02-66.2-56.82-76.18zm-310.99-66.67c6.46-19.82 24.8-33.14 45.64-33.14h164.34c20.84 0 39.18 13.32 45.64 33.13l20.47 62.85H91.72l20.47-62.84zM80 400c0 8.83-7.19 16-16 16H48c-8.81 0-16-7.17-16-16v-16h48v16zm368 0c0 8.83-7.19 16-16 16h-16c-8.81 0-16-7.17-16-16v-16h48v16zm0-80.01v32H32v-80c0-26.47 21.53-48 48-48h320c26.47 0 48 21.53 48 48v48zM104.8 248C78.84 248 60 264.8 60 287.95c0 23.15 18.84 39.95 44.8 39.95l10.14.1c39.21 0 45.06-20.1 45.06-32.08 0-24.68-31.1-47.92-55.2-47.92zm10.14 56c-3.51 0-7.02-.1-10.14-.1-12.48 0-20.8-6.38-20.8-15.95S92.32 272 104.8 272s31.2 14.36 31.2 23.93c0 7.17-10.53 8.07-21.06 8.07zm260.26-56c-24.1 0-55.2 23.24-55.2 47.93 0 11.98 5.85 32.08 45.06 32.08l10.14-.1c25.96 0 44.8-16.8 44.8-39.95 0-23.16-18.84-39.96-44.8-39.96zm0 55.9c-3.12 0-6.63.1-10.14.1-10.53 0-21.06-.9-21.06-8.07 0-9.57 18.72-23.93 31.2-23.93s20.8 6.38 20.8 15.95-8.32 15.95-20.8 15.95z"/></svg>