<svg xmlns="http://www.w3.org/2000/svg" viewBox="0 0 640 512"><!-- Font Awesome Pro 5.15.4 by @fontawesome - https://fontawesome.com License - https://fontawesome.com/license (Commercial License) --><path d="M162.55 84.62c3.72 5.59 9.66 9.39 16.31 10.39 6.44.97 13.41-.86 18.66-5.16l52.16-42.94c6.84-5.63 7.81-15.7 2.19-22.53-5.63-6.86-15.75-7.81-22.5-2.19L184.2 59.37l-32.38-48.69c-5.66-8.52-15.63-12.45-25.66-9.92-9.91 2.48-16.94 10.66-17.91 20.78l-5.66 58.22-57.32-11.55c-10.09-2.11-19.88 2.34-25.13 11.11S15.7 98.84 22.2 106.7l37.16 45.16-48.72 32.39c-8.5 5.66-12.38 15.7-9.91 25.59 2.47 9.91 10.63 16.94 20.81 17.94l58.22 5.64-11.56 57.34c-1.75 8.66 3.88 17.09 12.53 18.84 1.06.22 2.13.31 3.19.31 7.44 0 14.13-5.25 15.66-12.84l13.34-66.25c1.31-6.58-.22-13.45-4.22-18.84-4-5.41-10.13-8.88-16.84-9.53l-44.34-4.3 37.06-24.64c5.63-3.7 9.41-9.66 10.41-16.3a23.68 23.68 0 0 0-5.16-18.7l-28.28-34.38 43.69 8.8c6.44 1.27 13.47-.23 18.88-4.25 5.41-4 8.84-10.14 9.5-16.8l4.28-44.34 24.65 37.08zm118.53 132.42c-25.07-6.72-47.62 4.63-53.61 26.99-5.99 22.36 7.86 43.47 32.93 50.19l9.77 2.72c37.87 10.15 48.73-7.75 51.83-19.32 6.38-23.84-17.64-54.34-40.92-60.58zm-4.71 56.72c-3.39-.91-6.75-1.91-9.77-2.72-12.05-3.23-18.44-11.55-15.96-20.79 2.48-9.24 12.16-13.25 24.22-10.02 12.05 3.23 26.42 21.94 23.94 31.19-1.85 6.92-12.26 5.06-22.43 2.34zm325.74-24.73l-4.27-80.42c-1.84-34.59-25.73-64.06-59.18-73.03L379.92 53.04c-33.46-8.96-68.88 4.62-87.77 33.65l-43.91 67.51c-34.27 1.16-65.27 24.04-74.6 58.88l-37.27 139.09c-6.85 25.57 8.37 51.94 33.94 58.79l15.45 4.14c25.57 6.85 51.94-8.38 58.79-33.94l8.28-30.91 247.28 66.26-8.28 30.91c-6.85 25.57 8.37 51.94 33.94 58.79l15.46 4.14c25.57 6.85 51.94-8.37 58.79-33.94l37.27-139.09c9.32-34.83-6.08-70.16-35.18-88.29zM318.97 104.14c11.37-17.47 32.53-25.59 52.66-20.19l158.74 42.53c20.13 5.39 34.4 23 35.51 43.82l3.51 66.01-286.46-76.76 36.04-55.41zM213.64 372.89c-2.29 8.53-11.08 13.6-19.6 11.31l-15.46-4.14c-8.51-2.28-13.6-11.07-11.31-19.6l8.28-30.91 46.37 12.42-8.28 30.92zm355.46 95.25c-2.29 8.53-11.08 13.59-19.6 11.31l-15.46-4.14c-8.51-2.28-13.6-11.07-11.31-19.6l8.28-30.91 46.36 12.42-8.27 30.92zm37.27-139.1l-12.42 46.37-8.28 30.91-46.37-12.42-30.91-8.28-324.55-86.96 20.71-77.27c6.85-25.56 33.22-40.79 58.79-33.94l309.1 82.82c25.55 6.83 40.78 33.21 33.93 58.77zm-64.11-42.02c-23.28-6.24-59.33 8.16-65.72 32.01-3.1 11.57-2.65 32.5 35.22 42.64l9.82 2.53c25.07 6.72 47.62-4.63 53.61-26.99 5.99-22.36-7.86-43.47-32.93-50.19zm9.75 43.98c-2.48 9.24-12.17 13.25-24.22 10.02-3.01-.81-6.43-1.62-9.82-2.53-10.17-2.72-20.11-6.32-18.25-13.25 2.48-9.24 24.27-18.27 36.33-15.04 12.05 3.24 18.43 11.55 15.96 20.8z"/></svg>