<svg xmlns="http://www.w3.org/2000/svg" viewBox="0 0 512 512"><!-- Font Awesome Pro 5.15.4 by @fontawesome - https://fontawesome.com License - https://fontawesome.com/license (Commercial License) --><path d="M510.15 53.28C498.82 21.41 468.6 0 434.94 0c-26.03 0-48.97 12.69-63.59 32h-230.7C126.04 12.69 103.09 0 77.06 0 43.4 0 13.18 21.41 1.85 53.28A31.966 31.966 0 0 0 4.29 80a32.036 32.036 0 0 0-2.44 26.72C13.18 138.59 43.4 160 77.06 160c26.02 0 48.95-12.68 63.57-31.97h230.74c14.62 19.29 37.55 31.97 63.57 31.97 33.66 0 63.89-21.41 75.21-53.28A32.04 32.04 0 0 0 507.71 80c4.67-8.08 5.6-17.84 2.44-26.72zM434.94 96H480c-6.61 18.6-24.19 32-45.06 32s-38.45-13.4-45.06-32H122.13c-6.61 18.6-24.19 32-45.06 32S38.61 114.6 32 96h45.06l16-16-16-16H32c6.61-18.6 24.19-32 45.06-32 20.88 0 38.47 13.41 45.07 32.03h267.73C396.47 45.41 414.06 32 434.94 32c20.87 0 38.45 13.4 45.06 32h-45.06l-16 16 16 16zm-5.56 165.74l-15.15-46.5c-10.73-32.93-41.43-55.22-76.07-55.22H173.83c-34.64 0-65.34 22.29-76.07 55.22l-15.15 46.5C53.01 273.47 32 302.22 32 336v128c0 26.47 21.53 48 48 48h16c26.47 0 48-21.53 48-48v-16h224v16c0 26.47 21.53 48 48 48h16c26.47 0 48-21.53 48-48V336c0-33.78-21.01-62.53-50.62-74.26zm-301.19-36.59a47.888 47.888 0 0 1 45.64-33.13h164.34c20.84 0 39.18 13.32 45.64 33.13L393.86 256H118.14l10.05-30.85zM112 464c0 8.83-7.19 16-16 16H80c-8.81 0-16-7.17-16-16v-16h48v16zm336 0c0 8.83-7.19 16-16 16h-16c-8.81 0-16-7.17-16-16v-16h48v16zm0-80v32H64v-80c0-26.47 21.53-48 48-48h288c26.47 0 48 21.53 48 48v48zm-72.8-71.99c-24.1 0-55.2 23.24-55.2 47.93 0 11.98 5.85 32.07 45.06 32.07l10.14-.1c25.96 0 44.8-16.8 44.8-39.95 0-23.15-18.84-39.95-44.8-39.95zm0 55.9c-3.12 0-6.63.1-10.14.1-10.53 0-21.06-.9-21.06-8.07 0-9.57 18.72-23.93 31.2-23.93s20.8 6.38 20.8 15.95-8.32 15.95-20.8 15.95zm-238.4-55.9c-25.96 0-44.8 16.8-44.8 39.95 0 23.15 18.84 39.95 44.8 39.95l10.14.1c39.21 0 45.06-20.1 45.06-32.07 0-24.69-31.1-47.93-55.2-47.93zm10.14 56c-3.51 0-7.02-.1-10.14-.1-12.48 0-20.8-6.38-20.8-15.95s8.32-15.95 20.8-15.95 31.2 14.36 31.2 23.93c0 7.17-10.53 8.07-21.06 8.07z"/></svg>