<svg xmlns="http://www.w3.org/2000/svg" viewBox="0 0 512 512"><!-- Font Awesome Pro 5.15.4 by @fontawesome - https://fontawesome.com License - https://fontawesome.com/license (Commercial License) --><path d="M120.81 248c-25.96 0-44.8 16.8-44.8 39.95 0 23.15 18.84 39.95 44.8 39.95l10.14.1c39.21 0 45.06-20.1 45.06-32.08-.01-24.68-31.1-47.92-55.2-47.92zm10.14 56c-3.51 0-7.02-.1-10.14-.1-12.48 0-20.8-6.38-20.8-15.95s8.32-15.95 20.8-15.95 31.2 14.36 31.2 23.93c0 7.17-10.54 8.07-21.06 8.07zm260.24-56c-24.1 0-55.19 23.24-55.19 47.93 0 11.98 5.85 32.08 45.06 32.08l10.14-.1c25.96 0 44.8-16.8 44.8-39.95-.01-23.16-18.85-39.96-44.81-39.96zm0 55.9c-3.12 0-6.63.1-10.14.1-10.53 0-21.06-.9-21.06-8.07 0-9.57 18.72-23.93 31.2-23.93s20.8 6.38 20.8 15.95-8.32 15.95-20.8 15.95zm114.8-140.94c-7.34-11.88-20.06-18.97-34.03-18.97H422.3l-8.07-24.76C403.5 86.29 372.8 64 338.17 64H173.83c-34.64 0-65.33 22.29-76.06 55.22l-8.07 24.76H40.04c-13.97 0-26.69 7.09-34.03 18.97s-8 26.42-1.75 38.91l5.78 11.61c3.96 7.88 9.92 14.09 17 18.55-6.91 11.74-11.03 25.32-11.03 39.97V400c0 26.47 21.53 48 48 48h16c26.47 0 48-21.53 48-48v-16H384v16c0 26.47 21.53 48 48 48h16c26.47 0 48-21.53 48-48V271.99c0-14.66-4.12-28.23-11.03-39.98 7.09-4.46 13.04-10.68 17-18.57l5.78-11.56c6.24-12.5 5.58-27.05-1.76-38.92zM128.2 129.14C134.66 109.32 153 96 173.84 96h164.33c20.84 0 39.18 13.32 45.64 33.13l20.47 62.85H107.73l20.47-62.84zm-89.53 70.02l-5.78-11.59c-1.81-3.59-.34-6.64.34-7.78.87-1.42 2.94-3.8 6.81-3.8h39.24l-6.45 19.82a80.69 80.69 0 0 0-23.01 11.29c-4.71-1-8.94-3.52-11.15-7.94zM96.01 400c0 8.83-7.19 16-16 16h-16c-8.81 0-16-7.17-16-16v-16h48v16zm367.98 0c0 8.83-7.19 16-16 16h-16c-8.81 0-16-7.17-16-16v-16h48v16zm0-80.01v32H48.01v-80c0-26.47 21.53-48 48-48h319.98c26.47 0 48 21.53 48 48v48zm15.12-132.41l-5.78 11.55c-2.21 4.44-6.44 6.97-11.15 7.97-6.94-4.9-14.69-8.76-23.01-11.29l-6.45-19.82h39.24c3.87 0 5.94 2.38 6.81 3.8.69 1.14 2.16 4.18.34 7.79z"/></svg>