<svg xmlns="http://www.w3.org/2000/svg" viewBox="0 0 640 512"><!-- Font Awesome Pro 5.15.4 by @fontawesome - https://fontawesome.com License - https://fontawesome.com/license (Commercial License) --><path d="M416,240a16,16,0,1,0-16-16A16,16,0,0,0,416,240ZM632,352H576V160A160,160,0,0,0,416,0H96A96,96,0,0,0,0,96V288a96,96,0,0,0,96,96,96,96,0,0,0,192,0H632a8,8,0,0,0,8-8V360A8,8,0,0,0,632,352ZM192,448a64,64,0,1,1,64-64A64.07,64.07,0,0,1,192,448Zm256-96H352V128h96Zm96,0H480V128a32,32,0,0,0-32-32H352a32,32,0,0,0-32,32V352H282.12c-13.22-37.2-48.38-64-90.12-64s-76.9,26.8-90.12,64H96a64.07,64.07,0,0,1-64-64V96A64.07,64.07,0,0,1,96,32H416A128.14,128.14,0,0,1,544,160ZM240,96H112a32,32,0,0,0-32,32v64a32,32,0,0,0,32,32H240a32,32,0,0,0,32-32V128A32,32,0,0,0,240,96Zm0,96H112V128H240Z"/></svg>