<svg xmlns="http://www.w3.org/2000/svg" viewBox="0 0 512 512"><!-- Font Awesome Pro 5.15.4 by @fontawesome - https://fontawesome.com License - https://fontawesome.com/license (Commercial License) --><path d="M232 248c0-8.8-7.2-16-16-16h-16c-8.8 0-16 7.2-16 16v16c0 8.8 7.2 16 16 16h16c8.8 0 16-7.2 16-16v-16zm-96 0c0-8.8-7.2-16-16-16h-16c-8.8 0-16 7.2-16 16v16c0 8.8 7.2 16 16 16h16c8.8 0 16-7.2 16-16v-16zm32 48h-16c-8.8 0-16 7.2-16 16v16c0 8.8 7.2 16 16 16h16c8.8 0 16-7.2 16-16v-16c0-8.8-7.2-16-16-16zm96 0h-16c-8.8 0-16 7.2-16 16v16c0 8.8 7.2 16 16 16h16c8.8 0 16-7.2 16-16v-16c0-8.8-7.2-16-16-16zm64-48c0-8.8-7.2-16-16-16h-16c-8.8 0-16 7.2-16 16v16c0 8.8 7.2 16 16 16h16c8.8 0 16-7.2 16-16v-16zm183.4 131.5l-25.5-178.3c-3.4-23.6-23.6-41.2-47.5-41.2H192V96h80c8.8 0 16-7.2 16-16V16c0-8.8-7.2-16-16-16H80c-8.8 0-16 7.2-16 16v64c0 8.8 7.2 16 16 16h80v64H73.6c-23.9 0-44.1 17.6-47.5 41.2L.6 379.5c-.4 3-.6 6-.6 9.1V464c0 26.5 21.5 48 48 48h416c26.5 0 48-21.5 48-48v-75.5c0-3-.2-6-.6-9zM96 64V32h160v32H96zM57.8 205.7c1.1-7.8 7.9-13.7 15.8-13.7h364.7c7.9 0 14.7 5.9 15.8 13.7L479.7 384H32.3l25.5-178.3zM480 464c0 8.8-7.2 16-16 16H48c-8.8 0-16-7.2-16-16v-48h448v48zm-72-232h-16c-8.8 0-16 7.2-16 16v16c0 8.8 7.2 16 16 16h16c8.8 0 16-7.2 16-16v-16c0-8.8-7.2-16-16-16zm-48 64h-16c-8.8 0-16 7.2-16 16v16c0 8.8 7.2 16 16 16h16c8.8 0 16-7.2 16-16v-16c0-8.8-7.2-16-16-16z"/></svg>