<svg xmlns="http://www.w3.org/2000/svg" viewBox="0 0 512 512"><!-- Font Awesome Pro 5.15.4 by @fontawesome - https://fontawesome.com License - https://fontawesome.com/license (Commercial License) --><path d="M464 64H48a48 48 0 0 0-48 48v288a48 48 0 0 0 48 48h416a48 48 0 0 0 48-48V112a48 48 0 0 0-48-48zM123.78 416l24-48h216.44l24 48zM480 400a16 16 0 0 1-16 16h-40l-40-80H128l-40 80H48a16 16 0 0 1-16-16V112a16 16 0 0 1 16-16h416a16 16 0 0 1 16 16zM368 160H144a64 64 0 0 0 0 128h224a64 64 0 0 0 0-128zm-224 96a32 32 0 1 1 32-32 32 32 0 0 1-32 32zm168.88 0H199.12a62.1 62.1 0 0 0 0-64h113.76a62.1 62.1 0 0 0 0 64zm55.12 0a32 32 0 1 1 32-32 32 32 0 0 1-32 32z"/></svg>