<svg xmlns="http://www.w3.org/2000/svg" viewBox="0 0 576 512"><!-- Font Awesome Pro 5.15.4 by @fontawesome - https://fontawesome.com License - https://fontawesome.com/license (Commercial License) --><path d="M556.34 243.12l-40.43-17.79a44.91 44.91 0 0 0-18.47-69.25L149.8 3.22a45.59 45.59 0 0 0-56.28 19.61L6 176a45.43 45.43 0 0 0 23.53 65l160.15 66.31L148.93 416H32v-56a8 8 0 0 0-8-8H8a8 8 0 0 0-8 8v144a8 8 0 0 0 8 8h16a8 8 0 0 0 8-8v-56h128a16 16 0 0 0 15-10.37l44.25-118 71.59 29.64a45.33 45.33 0 0 0 39.55-4.16l17.84-11.15 141 62c18.6 8.2 37-2.33 43.34-16.85l40.68-92.63a32.83 32.83 0 0 0-16.91-43.36zm-242.86 74.8a13 13 0 0 1-11.06 1.5L41.5 211.35l-.66-.25c-10-3.65-9.9-14.21-7-19.22L121.3 38.71c1.74-3 8-9.16 16.1-6l347.66 152.87a13.39 13.39 0 0 1 2.13 23.77zm188.61 48.69l-121-53.21 105.41-65.89 57.43 26z"/></svg>