<svg xmlns="http://www.w3.org/2000/svg" viewBox="0 0 512 512"><!-- Font Awesome Pro 5.15.4 by @fontawesome - https://fontawesome.com License - https://fontawesome.com/license (Commercial License) --><path d="M504 416H32V72c0-4.42-3.58-8-8-8H8c-4.42 0-8 3.58-8 8v360c0 8.84 7.16 16 16 16h488c4.42 0 8-3.58 8-8v-16c0-4.42-3.58-8-8-8zM98.34 263.03c-3.12 3.12-3.12 8.19 0 11.31l11.31 11.31c3.12 3.12 8.19 3.12 11.31 0l72.69-72.01 84.69 84.69c6.25 6.25 16.38 6.25 22.63 0l93.53-93.53 44.04 44.04c4.95 4.95 11.03 7.16 17 7.16 12.48 0 24.46-9.7 24.46-24.34V112.19c0-8.94-7.25-16.19-16.19-16.19H344.34c-21.64 0-32.47 26.16-17.17 41.46l44.71 44.71-82.22 82.22-84.63-84.63c-6.23-6.23-16.32-6.25-22.57-.05l-84.12 83.32zM362.96 128H448v85.04L362.96 128z"/></svg>