<svg xmlns="http://www.w3.org/2000/svg" viewBox="0 0 544 512"><!-- Font Awesome Pro 5.15.4 by @fontawesome - https://fontawesome.com License - https://fontawesome.com/license (Commercial License) --><path d="M527.79 288H290.5l158.03 158.03a16.51 16.51 0 0 0 11.62 4.81c3.82 0 7.62-1.35 10.57-4.13 38.7-36.46 65.32-85.61 73.13-140.86 1.34-9.46-6.51-17.85-16.06-17.85zm-67.91 124.12L367.76 320h140.88c-8.12 34.16-24.96 66-48.76 92.12zM224 288V50.71c0-8.83-7.18-16.21-15.74-16.21-.69 0-1.4.05-2.11.15C86.99 51.49-4.1 155.6.14 280.37 4.47 407.53 113.18 512 240.13 512c.98 0 1.93-.01 2.91-.02 50.4-.63 96.97-16.87 135.26-44.03 7.9-5.6 8.42-17.23 1.57-24.08L224 288zm18.63 191.98l-2.51.02c-109.04 0-204.3-91.92-208-200.72C28.72 179.15 96.33 92.25 192 69.83v231.42l9.37 9.37 141.84 141.84c-30.56 17.62-64.96 27.08-100.58 27.52zM511.96 223.2C503.72 103.74 408.26 8.28 288.8.04c-.35-.03-.7-.04-1.04-.04C279.1 0 272 7.45 272 16.23V240h223.77c9.14 0 16.82-7.68 16.19-16.8zM304 208V33.9c89.25 13.81 160.28 84.85 174.1 174.1H304z"/></svg>