<svg xmlns="http://www.w3.org/2000/svg" viewBox="0 0 448 512"><!-- Font Awesome Pro 5.15.4 by @fontawesome - https://fontawesome.com License - https://fontawesome.com/license (Commercial License) --><path d="M444.96 159l-12.16-11c-2.03-2.67-4.72-4-8.11-4s-6.08 1.33-8.11 4L131.77 428 31.42 329c-2.03-2.67-4.72-4-8.11-4s-6.08 1.33-8.11 4L3.04 340C1.01 342.67 0 345.67 0 349s1.01 6 3.04 8l120.62 119c2.69 2.67 5.57 4 8.62 4s5.92-1.33 8.62-4l304.07-300c2.03-2 3.04-4.67 3.04-8s-1.02-6.33-3.05-9zM127.17 284.03c2.65 2.65 5.48 3.97 8.47 3.97s5.82-1.32 8.47-3.97L365.01 63.8c1.99-2 2.99-4.65 2.99-7.96s-1-6.29-2.99-8.94l-11.96-10.93c-1.99-2.65-4.64-3.97-7.97-3.97s-5.98 1.32-7.97 3.97L135.14 236.34l-72.25-72.03c-1.99-2.65-4.64-3.97-7.97-3.97s-5.98 1.32-7.97 3.97l-11.96 10.93C33 177.89 32 180.87 32 184.18s1 5.96 2.99 7.95l92.18 91.9z"/></svg>