<svg xmlns="http://www.w3.org/2000/svg" viewBox="0 0 512 512"><!-- Font Awesome Pro 5.15.4 by @fontawesome - https://fontawesome.com License - https://fontawesome.com/license (Commercial License) --><path d="M304 144a16 16 0 1 0-16-16 16 16 0 0 0 16 16zm208 176a63.81 63.81 0 0 0-30.2-54.1c13.5-20.9 18.5-52.9 6.3-79.1C448 100.3 359.5 32.1 256 32c-103.5.1-192 68.3-232.2 154.8-12.5 26.8-9.1 59.9 3.7 80.8a63.46 63.46 0 0 0-16.3 88.3 65.07 65.07 0 0 0 10.1 11.5c-3.1 4.9-5.3 10.4-5.3 16.6v32a64.06 64.06 0 0 0 64 64h352a64.06 64.06 0 0 0 64-64v-32c0-6.2-2.2-11.7-5.3-16.6A64.06 64.06 0 0 0 512 320zM52.81 200.3C90.71 118.9 172.31 64.1 256 64c83.69.1 165.39 54.9 203.19 136.3 5.8 12.5 5.2 29.5-1.4 43.5a5.94 5.94 0 0 1-.4.8A21 21 0 0 1 438.5 256H70.11c-6.1 0-12.2-2.4-16-7.2a14.75 14.75 0 0 1-2.5-4.4c-5.2-13.9-4.8-31.2 1.2-44.1zM464 416a32 32 0 0 1-32 32H80a32 32 0 0 1-32-32v-32h416zm-16-64H64a32 32 0 1 1 0-64h160l96 48 96-48h32a32 32 0 0 1 0 64zm-64-144a16 16 0 1 0-16-16 16 16 0 0 0 16 16zm-256 0a16 16 0 1 0-16-16 16 16 0 0 0 16 16zm80-64a16 16 0 1 0-16-16 16 16 0 0 0 16 16z"/></svg>