<svg xmlns="http://www.w3.org/2000/svg" viewBox="0 0 512 512"><!-- Font Awesome Pro 5.15.4 by @fontawesome - https://fontawesome.com License - https://fontawesome.com/license (Commercial License) --><path d="M176 319.9a48 48 0 1 0 48 48 48 48 0 0 0-48-48zm0 64a16 16 0 1 1 16-16 16 16 0 0 1-16 16.04zM299.83 32h-1.49a32.27 32.27 0 0 0-19.64 7L0 255.87V448a32 32 0 0 0 32 32h448a32 32 0 0 0 32-32V255.87C512 136.05 418 38.2 299.83 32zM240 127.79a16 16 0 1 1-16 16 16 16 0 0 1 16-16zM480 448H32V287.89h290.94a47.72 47.72 0 0 0 90.12 0H480zM352 271.88a16 16 0 1 1 16 16 16 16 0 0 1-16-16zm61.06-16a47.72 47.72 0 0 0-90.12 0H52.13l140.17-109a47.89 47.89 0 1 0 62.38-48.58l44-34.26C400.42 69.62 480 153.78 480 255.87z"/></svg>