<svg xmlns="http://www.w3.org/2000/svg" viewBox="0 0 320 512"><!-- Font Awesome Pro 5.15.4 by @fontawesome - https://fontawesome.com License - https://fontawesome.com/license (Commercial License) --><path d="M64 400v48h32v-71.41l-22.31-7.09C53.54 363.1 32 342.52 32 304c0-58.29 54.72-162.67 99.6-208h56.8c19.29 19.48 40.19 50 58 83l-84 84a8 8 0 0 0 0 11.32l11.31 11.31a8 8 0 0 0 11.32 0l76.43-76.44C277.09 243.77 288 278.35 288 304c0 38.52-21.54 59.1-41.69 65.5L224 376.59V448h32v-48c33.86-10.76 64-44.36 64-96 0-72.64-66.43-194.57-119-240h-82C66.43 109.43 0 231.36 0 304c0 51.64 30.14 85.24 64 96zm248 80H8a8 8 0 0 0-8 8v16a8 8 0 0 0 8 8h304a8 8 0 0 0 8-8v-16a8 8 0 0 0-8-8zM112 32h96a16 16 0 0 0 0-32h-96a16 16 0 0 0 0 32z"/></svg>