<svg xmlns="http://www.w3.org/2000/svg" viewBox="0 0 256 512"><!-- Font Awesome Pro 5.15.4 by @fontawesome - https://fontawesome.com License - https://fontawesome.com/license (Commercial License) --><path d="M128 48a24 24 0 1 0-24-24 24 24 0 0 0 24 24zm119.16 387.58L224 424v-16a23.72 23.72 0 0 0-20.95-23.38A469.21 469.21 0 0 1 192 284.53V256h24a8 8 0 0 0 8-8v-16a8 8 0 0 0-8-8h-22.39l50.93-124.23a7.46 7.46 0 0 0-2.54-9.55l-11.16-7.44a7.06 7.06 0 0 0-3.94-1.21 8.18 8.18 0 0 0-6.45 3.4 22.19 22.19 0 0 1-17.78 8.9 23.34 23.34 0 0 1-4.27-.4c-10.8-2-18.13-12.23-18.13-23.21A6.26 6.26 0 0 0 174 64h-18.07a6 6 0 0 0-6 4.62 22.41 22.41 0 0 1-43.86 0 6 6 0 0 0-6-4.62H82a6.26 6.26 0 0 0-6.26 6.26c0 12-8.89 22.75-20.85 23.56-.52 0-1 .05-1.55.05a22.17 22.17 0 0 1-17.84-9 8 8 0 0 0-6.35-3.33 7.13 7.13 0 0 0-4 1.21L14 90.22a7.46 7.46 0 0 0-2.53 9.55L62.39 224H40a8 8 0 0 0-8 8v16a8 8 0 0 0 8 8h24v28.53a469.21 469.21 0 0 1-11 100.09A23.72 23.72 0 0 0 32 408v16L8.85 435.58A16 16 0 0 0 0 449.89V496a16 16 0 0 0 16 16h224a16 16 0 0 0 16-16v-46.11a16 16 0 0 0-8.84-14.31zM56.7 125.77h.33a53.69 53.69 0 0 0 37.35-19 54.14 54.14 0 0 0 67.14.07 53.35 53.35 0 0 0 31.08 18.17 55.71 55.71 0 0 0 6.7.83L159 224H97zM170.1 384H85.9A500.84 500.84 0 0 0 96 284.53V256h64v28.53A500.84 500.84 0 0 0 170.1 384zm53.9 96H32v-20.22l32-16V416h128v27.78l32 16z"/></svg>