<svg xmlns="http://www.w3.org/2000/svg" viewBox="0 0 384 512"><!-- Font Awesome Pro 5.15.4 by @fontawesome - https://fontawesome.com License - https://fontawesome.com/license (Commercial License) --><path d="M35.48 301.64c38 16.9 36.79 16.47 40.39 17.68A100.72 100.72 0 0 0 32 402.82V448h32v-45.18a69.35 69.35 0 0 1 38.31-62L144.62 316a41.62 41.62 0 0 0 23-37.21v-62.25l-16.16 9.59a20.8 20.8 0 0 0-10.87 13.56l-8 26.57A27.75 27.75 0 0 1 116.32 284l-11.08 4.43a27.68 27.68 0 0 1-21.56-.41l-35.2-15.62A27.74 27.74 0 0 1 32 247.05v-119c0-10.4 6.44-15.06 13.86-22.49L33.55 81c-4.67-9.33 1.63-17 8.85-17H128c106 0 192 86 192 192v192h32V256c0-123.51-100.49-224-224-224H42.4A42.45 42.45 0 0 0 0 74.4a46.92 46.92 0 0 0 4.94 20.9l2.69 5.39A52.56 52.56 0 0 0 0 128.09v119a59.8 59.8 0 0 0 35.48 54.55zM64 164a20 20 0 1 0 20-20 20 20 0 0 0-20 20zm312 316H8a8 8 0 0 0-8 8v16a8 8 0 0 0 8 8h368a8 8 0 0 0 8-8v-16a8 8 0 0 0-8-8z"/></svg>