<svg xmlns="http://www.w3.org/2000/svg" viewBox="0 0 256 512"><!-- Font Awesome Pro 5.15.4 by @fontawesome - https://fontawesome.com License - https://fontawesome.com/license (Commercial License) --><path d="M247.16 435.58L224 424v-16a24 24 0 0 0-24-24h1.41a519 519 0 0 1-9.31-96H216a8 8 0 0 0 8-8v-16a8 8 0 0 0-8-8h-16.91A95.86 95.86 0 1 0 32 192a95.3 95.3 0 0 0 24.91 64H40a8 8 0 0 0-8 8v16a8 8 0 0 0 8 8h23.9a519 519 0 0 1-9.31 96H56a24 24 0 0 0-24 24v16L8.85 435.58A16 16 0 0 0 0 449.89V496a16 16 0 0 0 16 16h224a16 16 0 0 0 16-16v-46.11a16 16 0 0 0-8.84-14.31zM160.09 288a552.7 552.7 0 0 0 8.75 96H87.16a552.7 552.7 0 0 0 8.75-96zM128 128a64 64 0 1 1-64 64 64.07 64.07 0 0 1 64-64zm96 352H32v-20.22l32-16V416h128v27.78l32 16z"/></svg>