<svg xmlns="http://www.w3.org/2000/svg" viewBox="0 0 320 512"><!-- Font Awesome Pro 5.15.4 by @fontawesome - https://fontawesome.com License - https://fontawesome.com/license (Commercial License) --><path d="M91.73 170.67a14.87 14.87 0 1 0-14.87 14.93 14.91 14.91 0 0 0 14.87-14.93zm219.43 264.91L288 424v-16c0-11.71-8.54-21-19.63-23.12l.88-.88A63.58 63.58 0 0 0 288 338.74V225.88C288 136.62 215.38 64 126.12 64H40a40 40 0 0 0-40 40 43.55 43.55 0 0 0 4.54 19.3l.36.74A47.92 47.92 0 0 0 0 145.22v83.37a53.41 53.41 0 0 0 31.61 48.72l26.68 11.91c-20.56 22.1-35.67 54.56-18.69 101.42A23.81 23.81 0 0 0 32 408v16L8.85 435.58A16 16 0 0 0 0 449.89V496a16 16 0 0 0 16 16h288a16 16 0 0 0 16-16v-46.11a16 16 0 0 0-8.84-14.31zM44.65 248.09A21.36 21.36 0 0 1 32 228.59v-83.37a16 16 0 0 1 4.66-11.29l6-6L33.19 109a11.29 11.29 0 0 1-1.19-5 8 8 0 0 1 8-8h86.16C197.55 96 256 154.45 256 225.88v112.86a32 32 0 0 1-9.37 22.63L224 384H71.05c-35.32-86.63 73.62-95.47 73.62-133.8v-42.73l-21.26 5.06a15.93 15.93 0 0 0-8.32 10.47L109 243.35A21.26 21.26 0 0 1 96.53 257l-8.48 3.4a21.09 21.09 0 0 1-16.5-.31zM288 480H32v-20.22l14.31-7.16L64 443.78V416h192v27.78l17.69 8.84 14.31 7.16z"/></svg>