<svg xmlns="http://www.w3.org/2000/svg" viewBox="0 0 320 512"><!-- Font Awesome Pro 5.15.4 by @fontawesome - https://fontawesome.com License - https://fontawesome.com/license (Commercial License) --><path d="M311.16 427.58L288 416v-16a16 16 0 0 0-16-16h-.39l-7.27-145.31 30.42-30.78a32 32 0 0 0 9.24-22.49V88a24.07 24.07 0 0 0-24-24H40a24.07 24.07 0 0 0-24 24v97.52A32 32 0 0 0 25.27 208l30.39 30.68L48.39 384H48a16 16 0 0 0-16 16v16L8.85 427.58A16 16 0 0 0 0 441.89V496a16 16 0 0 0 16 16h288a16 16 0 0 0 16-16v-54.11a16 16 0 0 0-8.84-14.31zM48 185.5V96h48v48h32V96h64v48h32V96h48v89.44l-40.34 40.75L239.59 384H80.41l7.93-157.78zM288 480H32v-28.22l14.31-7.16L64 435.78V416h192v19.78l17.69 8.84 14.31 7.16zM183.59 231.59a23.59 23.59 0 0 0-47.18 0v47.18h47.18z"/></svg>