<svg xmlns="http://www.w3.org/2000/svg" viewBox="0 0 512 512"><!-- Font Awesome Pro 5.15.4 by @fontawesome - https://fontawesome.com License - https://fontawesome.com/license (Commercial License) --><path d="M256 112a56 56 0 1 0-56-56 56 56 0 0 0 56 56zm0-80a24 24 0 1 1-24 24 24 24 0 0 1 24-24zm184 448H72a8 8 0 0 0-8 8v16a8 8 0 0 0 8 8h368a8 8 0 0 0 8-8v-16a8 8 0 0 0-8-8zm64.87-295.84l-28.51-15.92a15.09 15.09 0 0 0-8.45-2.59 17.59 17.59 0 0 0-13.84 7.27A47.48 47.48 0 0 1 416 192a50.79 50.79 0 0 1-9.16-.85C383.7 186.86 368 164.93 368 141.4a13.4 13.4 0 0 0-13.4-13.4h-38.77c-6 0-11.61 4-12.86 9.91a48 48 0 0 1-93.94 0c-1.25-5.92-6.82-9.91-12.86-9.91H157.4a13.4 13.4 0 0 0-13.4 13.4c0 25.69-19 48.75-44.67 50.49-1.12.07-2.23.11-3.33.11a47.47 47.47 0 0 1-38.21-19.26 17.17 17.17 0 0 0-13.61-7.13 15.16 15.16 0 0 0-8.48 2.59l-28.57 16a16 16 0 0 0-5.44 20.47L117.45 448h35.43l-116-243.82 4.12-2.27A78.8 78.8 0 0 0 96 224c1.81 0 3.65-.06 5.49-.19 35.63-2.41 64.68-29.1 72.46-63.81h8.73a80 80 0 0 0 146.64 0H338c6.95 31.66 31.32 56.74 63 62.61a82.66 82.66 0 0 0 15 1.39 78.81 78.81 0 0 0 55-22.09l4.07 2.27L359.11 448h35.44l115.76-243.37a16 16 0 0 0-5.44-20.47z"/></svg>