<svg xmlns="http://www.w3.org/2000/svg" viewBox="0 0 448 512"><!-- Font Awesome Pro 5.15.4 by @fontawesome - https://fontawesome.com License - https://fontawesome.com/license (Commercial License) --><path d="M443.5 98.5l-211 211.1c-4.7 4.7-12.3 4.7-17 0L4.5 98.5c-4.7-4.7-4.7-12.3 0-17l7.1-7.1c4.7-4.7 12.3-4.7 17 0L224 269.9 419.5 74.5c4.7-4.7 12.3-4.7 17 0l7.1 7.1c4.6 4.6 4.6 12.2-.1 16.9zm0 111l-7.1-7.1c-4.7-4.7-12.3-4.7-17 0L224 397.9 28.5 202.5c-4.7-4.7-12.3-4.7-17 0l-7.1 7.1c-4.7 4.7-4.7 12.3 0 17l211 211.1c4.7 4.7 12.3 4.7 17 0l211-211.1c4.8-4.8 4.8-12.4.1-17.1z"/></svg>