<svg xmlns="http://www.w3.org/2000/svg" viewBox="0 0 448 512"><!-- Font Awesome Pro 5.15.4 by @fontawesome - https://fontawesome.com License - https://fontawesome.com/license (Commercial License) --><path d="M413.287 90.746c-23.71-23.707-63.332-27.212-93.318 2.776C318.651 41.725 276.107 0 224 0c-52.104 0-94.647 41.729-95.969 93.521-30.087-30.087-69.711-26.379-93.316-2.778-24.954 24.956-24.954 65.558-.002 90.511L112 258.511V456c0 30.879 25.122 56 56 56h16c15.654 0 29.828-6.456 40-16.846C234.172 505.544 248.346 512 264 512h16c30.878 0 56-25.121 56-56V258.511l77.286-77.256c24.952-24.954 24.952-65.556.001-90.509zM224 32c35.346 0 64 28.654 64 64s-28.654 64-64 64-64-28.654-64-64 28.654-64 64-64zm166.628 126.628L304 245.256V456c0 13.255-10.745 24-24 24h-16c-13.255 0-24-10.745-24-24V344h-32v112c0 13.255-10.745 24-24 24h-16c-13.255 0-24-10.745-24-24V245.256l-86.628-86.628c-12.496-12.497-12.496-32.759 0-45.256 12.498-12.496 32.757-12.497 45.256 0L181.256 192h85.488l78.628-78.628c12.498-12.496 32.757-12.497 45.256 0 12.496 12.497 12.496 32.759 0 45.256z"/></svg>