<svg xmlns="http://www.w3.org/2000/svg" viewBox="0 0 576 512"><!-- Font Awesome Pro 5.15.4 by @fontawesome - https://fontawesome.com License - https://fontawesome.com/license (Commercial License) --><path d="M281.71 320.3c-33.28 3.17-57.71 33.02-57.71 66.45V504c0 4.42 3.58 8 8 8h16c4.42 0 8-3.58 8-8V385.8c0-15.95 10.86-30.76 26.59-33.36C302.61 349.15 320 364.58 320 384v120c0 4.42 3.58 8 8 8h16c4.42 0 8-3.58 8-8V384c0-37.42-32.12-67.34-70.29-63.7zm276.86 35.69L448 303.26v-29.14c0-11.24-5.9-21.66-15.54-27.44L304 169.6V96h72c4.42 0 8-3.58 8-8V72c0-4.42-3.58-8-8-8h-72V8c0-4.42-3.58-8-8-8h-16c-4.42 0-8 3.58-8 8v56h-72c-4.42 0-8 3.58-8 8v16c0 4.42 3.58 8 8 8h72v73.6l-128.46 77.08A31.997 31.997 0 0 0 128 274.12v29.15L17.43 355.99C6.96 360.99 0 373.89 0 388.32V504c0 4.42 3.58 8 8 8h16c4.42 0 8-3.58 8-8V388.32c0-1.98.45-3.42.8-4.21l95.2-45.4V504c0 4.42 3.58 8 8 8h16c4.42 0 8-3.58 8-8V274.12l128-76.8 128 76.8V504c0 4.42 3.58 8 8 8h16c4.42 0 8-3.58 8-8V338.71l95.2 45.4c.35.78.8 2.22.8 4.21V504c0 4.42 3.58 8 8 8h16c4.42 0 8-3.58 8-8V388.32c0-14.43-6.96-27.33-17.43-32.33z"/></svg>