<svg xmlns="http://www.w3.org/2000/svg" viewBox="0 0 384 512"><!-- Font Awesome Pro 5.15.4 by @fontawesome - https://fontawesome.com License - https://fontawesome.com/license (Commercial License) --><path d="M336 64h-88.6c.4-2.6.6-5.3.6-8 0-30.9-25.1-56-56-56s-56 25.1-56 56c0 2.7.2 5.4.6 8H48C21.5 64 0 85.5 0 112v352c0 26.5 21.5 48 48 48h288c26.5 0 48-21.5 48-48V112c0-26.5-21.5-48-48-48zM192 32c13.3 0 24 10.7 24 24 0 13.2-10.7 24-24 24s-24-10.8-24-24c0-13.3 10.7-24 24-24zm160 432c0 8.8-7.2 16-16 16H48c-8.8 0-16-7.2-16-16V112c0-8.8 7.2-16 16-16h48v20c0 6.6 5.4 12 12 12h168c6.6 0 12-5.4 12-12V96h48c8.8 0 16 7.2 16 16zm-66.3-162.3l-11.3-11.3c-3.1-3.1-8.2-3.1-11.3 0l-39 39-31.4-31.4c18.5-9.1 31.3-28 31.3-50 0-30.9-25.1-56-56-56h-64c-4.4 0-8 3.6-8 8v144c0 4.4 3.6 8 8 8h16c4.4 0 8-3.6 8-8v-40h25.4l48 48-39 39c-3.1 3.1-3.1 8.2 0 11.3l11.3 11.3c3.1 3.1 8.2 3.1 11.3 0l39-39 39 39c3.1 3.1 8.2 3.1 11.3 0l11.3-11.3c3.1-3.1 3.1-8.2 0-11.3l-39-39 39-39c3.2-3.2 3.2-8.2.1-11.3zM168 272h-40v-48h40c13.2 0 24 10.8 24 24s-10.8 24-24 24z"/></svg>