<svg xmlns="http://www.w3.org/2000/svg" viewBox="0 0 384 512"><!-- Font Awesome Pro 5.15.4 by @fontawesome - https://fontawesome.com License - https://fontawesome.com/license (Commercial License) --><path d="M336 64h-88.58a57.06 57.06 0 0 0 .58-8 56 56 0 0 0-112 0 57.06 57.06 0 0 0 .58 8H48a48 48 0 0 0-48 48v352a48 48 0 0 0 48 48h288a48 48 0 0 0 48-48V112a48 48 0 0 0-48-48zM192 32a24 24 0 1 1-24 24 24 24 0 0 1 24-24zm160 432a16 16 0 0 1-16 16H48a16 16 0 0 1-16-16V112a16 16 0 0 1 16-16h48v20a12 12 0 0 0 12 12h168a12 12 0 0 0 12-12V96h48a16 16 0 0 1 16 16zM236.81 336c-21.5 2.38-22.6 8-44.81 8s-23.31-5.58-44.81-8C101.31 336 64 369 64 409.59 64 435 83 448 102.41 448h179.18C301 448 320 435 320 409.59 320 369 282.69 336 236.81 336zm44.78 80H102.41c-6.82 0-6.41-3.19-6.41-6.41 0-22.93 23-41.59 51.19-41.59 4.66 0 18.43 8 44.81 8s40.15-8 44.81-8C265 368 288 386.66 288 409.59c0 3.22.41 6.41-6.41 6.41zM192 320a80 80 0 1 0-80-80 80.09 80.09 0 0 0 80 80zm0-128a48 48 0 1 1-48 48 48.05 48.05 0 0 1 48-48z"/></svg>