<svg xmlns="http://www.w3.org/2000/svg" viewBox="0 0 512 512"><!-- Font Awesome Pro 5.15.4 by @fontawesome - https://fontawesome.com License - https://fontawesome.com/license (Commercial License) --><path d="M464 0H144c-26.51 0-48 21.49-48 48v48H48c-26.51 0-48 21.49-48 48v320c0 26.51 21.49 48 48 48h320c26.51 0 48-21.49 48-48v-48h48c26.51 0 48-21.49 48-48V48c0-26.51-21.49-48-48-48zm-80 464c0 8.82-7.18 16-16 16H48c-8.82 0-16-7.18-16-16V144c0-8.82 7.18-16 16-16h48v240c0 26.51 21.49 48 48 48h240v48zm96-96c0 8.82-7.18 16-16 16H144c-8.82 0-16-7.18-16-16V48c0-8.82 7.18-16 16-16h320c8.82 0 16 7.18 16 16v320z"/></svg>