<svg xmlns="http://www.w3.org/2000/svg" viewBox="0 0 640 512"><!-- Font Awesome Pro 5.15.4 by @fontawesome - https://fontawesome.com License - https://fontawesome.com/license (Commercial License) --><path d="M351.5 313.6c-4.5-41.3-39.6-73.6-82.1-73.6-13.9 0-27.3 3.5-39.5 10.3-18.3-16.8-41.9-26.3-66.8-26.3-53.7 0-97.5 42.8-99.2 96.2-38.3 14.3-64 50.7-64 92.7C0 467.5 44.5 512 99.2 512h249.6c54.7 0 99.2-44.5 99.2-99.2 0-53.8-43-97.7-96.5-99.2zM348.8 480H99.2C62.1 480 32 449.9 32 412.8c0-31.6 21.5-58.5 52.4-65.4l14-5.9-2-14.6c-.2-1.2-.4-2.5-.4-3.8 0-37.1 30.1-67.2 67.2-67.2 20.1 0 39 9.2 52 25.2l10.1 12.5 12.4-10.1C247 276 258 272 269.4 272c27.9 0 50.6 22.7 50.6 50.6 0 1.5-.2 2.8-.7 6.4l-2.6 21.3 21.2-3.6c3.6-.6 7.2-1.2 11-1.2 37.1 0 67.2 30.2 67.2 67.2S385.9 480 348.8 480zm288.8-192.8c-4.1-8.6-12.4-13.9-21.8-13.9-1.5 0-3 .1-4.6.4-7.7 1.5-15.5 2.2-23.2 2.2-67 0-121.5-54.7-121.5-121.9 0-43.7 23.6-84.3 61.6-106 8.9-5.1 13.6-15 11.9-25.1-1.7-10.2-9.4-17.9-19.5-19.8-11.5-2-23.2-3.1-35-3.1-105.7 0-191.8 86.1-191.8 192 0 6.5.4 12.8 1.1 19.2 12.7 2.9 24.6 7.8 35.4 14.6-2.6-10.9-4.5-22-4.5-33.7 0-88.2 71.7-160 159.8-160 3 0 5.9.1 8.9.2-37.4 28.9-59.9 73.9-59.9 121.9C434.5 239 503.4 308 588 308c2.6 0 5.2-.1 7.8-.2C566.2 336.1 527 352 485.5 352c-7.5 0-14.8-.7-21.9-1.9 5.7 10.3 9.7 21.5 12.5 33.1 3.1.2 6.2.7 9.4.7 58.1 0 112.4-25.9 149-71.1 6-7.2 7.2-17.1 3.1-25.6z"/></svg>