<svg xmlns="http://www.w3.org/2000/svg" viewBox="0 0 576 512"><!-- Font Awesome Pro 5.15.4 by @fontawesome - https://fontawesome.com License - https://fontawesome.com/license (Commercial License) --><path d="M573.9 237.5c-3.6-7.7-11.5-12.6-19.9-12.6h-1.4l-2.8.4c-6.3 1.2-12.6 1.8-18.9 1.8-54.4 0-98.7-44-98.7-98.2 0-35.2 19.2-67.9 50.1-85.3 8.2-4.6 12.4-13.6 10.9-22.8-1.6-9.3-8.5-16.3-17.8-18C465.7.9 455.8 0 446 0c-67.1 0-123.6 41.4-147.7 99.5 10.2 2.5 20 6.3 29 11.4 19.1-45.6 63.9-78 116.5-78.9-27.3 24.4-43.5 59.6-43.5 96.8 0 70.7 57 128.5 127.6 130.1-22.3 18.2-50.3 28.4-79.8 28.8v.2c0 11-1.5 21.7-4.1 31.9.7 0 1.4.1 2.1.1 48.7 0 94.3-21.6 125-59.2 5.3-6.5 6.4-15.5 2.8-23.2zm-222.6-40.2C346 158.2 312.5 128 272 128c-8.6 0-17 1.4-25.2 4.3-19.7-23-48.2-36.3-78.8-36.3-56.5 0-102.7 45.3-104 101.6C26.2 210.9 0 246.9 0 288c0 52.9 43.1 96 96 96h224c52.9 0 96-43.1 96-96 0-1.3-.3-2.6-.3-4-1.7-39.6-27.5-74-64.4-86.7zM320 352H96c-35.3 0-64-28.7-64-64 0-30.6 21.8-57 52-62.8l14.5-2.8-2-18c-.2-1.5-.4-2.9-.4-4.4 0-39.7 32.3-72 72-72 24.3 0 46.8 12.2 60.2 32.8l8.1 12.4 13-7.1c32.7-17.8 70.7 8.2 70.8 40.4l-.2 16.2 12.8 2.6c29.8 6 51.3 32.3 51.3 62.7-.1 35.3-28.8 64-64.1 64zm-149.8 66.1c-7.6-4.3-17.4-1.8-21.8 6l-36.6 64c-4.4 7.7-1.7 17.4 6 21.8 2.5 1.4 5.2 2.1 7.9 2.1 5.5 0 10.9-2.9 13.9-8.1l36.6-64c4.4-7.7 1.7-17.4-6-21.8zm-96 0c-7.6-4.3-17.4-1.8-21.8 6l-36.6 64c-4.4 7.7-1.7 17.4 6 21.8 2.5 1.4 5.2 2.1 7.9 2.1 5.5 0 10.9-2.9 13.9-8.1l36.6-64c4.4-7.7 1.7-17.4-6-21.8zm192 0c-7.6-4.3-17.4-1.8-21.8 6l-36.6 64c-4.4 7.7-1.7 17.4 6 21.8 2.5 1.4 5.2 2.1 7.9 2.1 5.5 0 10.9-2.9 13.9-8.1l36.6-64c4.4-7.7 1.7-17.4-6-21.8zm96 0c-7.6-4.3-17.4-1.8-21.8 6l-36.6 64c-4.4 7.7-1.7 17.4 6 21.8 2.5 1.4 5.2 2.1 7.9 2.1 5.5 0 10.9-2.9 13.9-8.1l36.6-64c4.4-7.7 1.7-17.4-6-21.8z"/></svg>