<svg xmlns="http://www.w3.org/2000/svg" viewBox="0 0 512 512"><!-- Font Awesome Pro 5.15.4 by @fontawesome - https://fontawesome.com License - https://fontawesome.com/license (Commercial License) --><path d="M48 352c-26.5 0-48 21.5-48 48s21.5 48 48 48 48-21.5 48-48-21.5-48-48-48zm0 64c-8.8 0-16-7.2-16-16s7.2-16 16-16 16 7.2 16 16-7.2 16-16 16zm416-64c-26.5 0-48 21.5-48 48s21.5 48 48 48 48-21.5 48-48-21.5-48-48-48zm0 64c-8.8 0-16-7.2-16-16s7.2-16 16-16 16 7.2 16 16-7.2 16-16 16zM346.5 293.5c-12.2-12.2-29.3-17.9-46.3-16.3-21.8-26.6-66.7-26.6-88.4 0-16.9-1.6-34 4.1-46.3 16.3-12.2 12.2-18 29.2-16.3 46.3-13.3 10.9-21.2 27-21.2 44.2s7.9 33.3 21.2 44.2c-1.7 17.1 4.1 34.1 16.3 46.3 12.3 12.3 30.5 19 46.5 16.6 10.9 13.1 26.8 20.9 44 20.9s33.1-7.8 44-20.9c16.2 2.4 34.2-4.3 46.5-16.6 12.2-12.2 18-29.2 16.3-46.3 13.3-10.9 21.2-27 21.2-44.2s-7.9-33.3-21.2-44.2c1.7-17.1-4.1-34.1-16.3-46.3zm-8.8 113.2l-11.9 6.2 4.1 12.8c3 9.5.8 19.5-5.9 26.2-4.9 4.9-11.4 7.6-18.4 7.6-2 0-4.5-.7-7.8-1.7l-12.8-4.1-6.2 12c-9.2 17.7-36.2 17.7-45.4 0l-6.2-12-12.8 4.1c-3.2 1-5.8 1.7-7.8 1.7-6.9 0-13.5-2.7-18.4-7.6-6.7-6.7-8.9-16.7-5.9-26.2l4.1-12.8-11.9-6.2c-8.8-4.6-14.3-13.3-14.3-22.7s5.5-18.1 14.3-22.7l11.9-6.2-4.1-12.8c-3-9.5-.8-19.5 5.9-26.2 6.7-6.7 16.7-8.9 26.2-5.9l12.8 4.1 6.2-11.9c9.2-17.7 36.2-17.7 45.4 0l6.2 11.9 12.8-4.1c9.4-3 19.5-.8 26.2 5.9 6.7 6.7 8.9 16.7 5.9 26.2l-4.1 12.8 11.9 6.2c8.8 4.6 14.3 13.3 14.3 22.7s-5.5 18.1-14.3 22.7zM512 216c0-54.8-42.6-99.8-96.3-103.7C411.8 67.4 373.9 32 328 32c-17.8 0-34.8 5.3-49.2 15.2C256.3 17.7 221.5 0 184 0 117.8 0 64 53.8 64 120v.4c-38.3 16-64 53.5-64 95.6 0 57.3 46.7 104 104 104h14.3c1.8-11.4 5.7-22.2 11.6-32H104c-39.7 0-72-32.3-72-72 0-32.3 21.9-60.7 53.3-69.2l13.3-3.6-2-17.2c-.3-2-.6-4-.6-6 0-48.5 39.5-88 88-88 32.2 0 61.8 17.9 77.2 46.8l10.6 19.8L287 82.1C297.9 70.4 312.4 64 328 64c30.9 0 56 25.1 56 56 0 1.6-.3 3.1-.8 6.9l-2.5 20 23.5-2.4c1.2-.2 2.5-.4 3.8-.4 39.7 0 72 32.3 72 72s-32.3 72-72 72h-25.9c5.9 9.8 9.8 20.6 11.6 32H408c57.3-.1 104-46.8 104-104.1z"/></svg>