<svg xmlns="http://www.w3.org/2000/svg" viewBox="0 0 640 512"><!-- Font Awesome Pro 5.15.4 by @fontawesome - https://fontawesome.com License - https://fontawesome.com/license (Commercial License) --><path d="M462.6 321.1c-7-37-39.6-65.1-78.6-65.1 0-52.9-43.1-96-96-96h-5.5C269.2 122.2 233 96 192 96s-77.2 26.2-90.5 64H96c-52.9 0-96 43.1-96 96s43.1 96 96 96h40.8c-15.4 17.1-24.8 39.5-24.8 64 0 52.9 43.1 96 96 96h240c52.9 0 96-43.1 96-96 0-48-35.4-87.8-81.4-94.9zM96 320c-35.3 0-64-28.7-64-64s28.7-64 64-64h30.7l2.6-12.8c6-29.7 32.4-51.2 62.7-51.2s56.7 21.5 62.7 51.2l2.6 12.8H288c35.3 0 64 28.7 64 64 0 2.6-.7 5-1 7.4-.4.2-.9.3-1.4.5-17.8-24.7-46.7-39.9-77.6-39.9-52.9 0-96 43.1-96 96H96zm352 160H208c-35.3 0-64-28.7-64-64 0-31 22.2-57.4 52.8-62.8l16.5-2.9-3.6-16.3c-1.1-5-1.7-9.6-1.7-13.9 0-35.3 28.7-64 64-64 24.6 0 47.2 14.5 57.7 37l8.6 18.4 15.8-12.7c8.8-7 19.1-10.7 29.8-10.7 26.5 0 48 21.5 48 48v16h16c35.3 0 64 28.7 64 64S483.3 480 448 480zm189.8-230.6c-3.8-8.1-12-13.3-20.9-13.3h-1.5l-2.9.4c-6.6 1.2-13.2 1.9-19.8 1.9-57.2 0-103.7-46.2-103.7-103.1 0-37 20.1-71.3 52.6-89.6 8.6-4.8 13.1-14.2 11.4-23.9-1.6-9.7-9-17.1-18.7-18.9C524.2.9 513.8 0 503.5 0c-83 0-151.8 59.8-166 138.2 10.9 4.6 21 10.7 30.2 18.1C373.7 86.8 431.9 32 503.5 32h1.9C475 57.4 457 95.2 457 135.3c0 74.5 60.9 135.1 135.7 135.1h1c-23.5 20.5-53.5 32-85.1 33.2 13.1 7.2 24.7 16.6 34.5 27.7 35.7-8.5 67.9-28.4 91.6-57.4 5.8-7 6.9-16.4 3.1-24.5z"/></svg>