<svg xmlns="http://www.w3.org/2000/svg" viewBox="0 0 512 512"><!-- Font Awesome Pro 5.15.4 by @fontawesome - https://fontawesome.com License - https://fontawesome.com/license (Commercial License) --><path d="M183.9 370.1c-7.6-4.4-17.4-1.8-21.8 6l-64 112c-4.4 7.7-1.7 17.5 6 21.8 2.5 1.4 5.2 2.1 7.9 2.1 5.5 0 10.9-2.9 13.9-8.1l64-112c4.4-7.6 1.7-17.4-6-21.8zm96 0c-7.6-4.4-17.4-1.8-21.8 6l-64 112c-4.4 7.7-1.7 17.5 6 21.8 2.5 1.4 5.2 2.1 7.9 2.1 5.5 0 10.9-2.9 13.9-8.1l64-112c4.4-7.6 1.7-17.4-6-21.8zm-192 0c-7.6-4.4-17.4-1.8-21.8 6l-64 112c-4.4 7.7-1.7 17.5 6 21.8 2.5 1.4 5.2 2.1 7.9 2.1 5.5 0 10.9-2.9 13.9-8.1l64-112c4.4-7.6 1.7-17.4-6-21.8zm384 0c-7.6-4.4-17.4-1.8-21.8 6l-64 112c-4.4 7.7-1.7 17.5 6 21.8 2.5 1.4 5.2 2.1 7.9 2.1 5.5 0 10.9-2.9 13.9-8.1l64-112c4.4-7.6 1.7-17.4-6-21.8zm-96 0c-7.6-4.4-17.4-1.8-21.8 6l-64 112c-4.4 7.7-1.7 17.5 6 21.8 2.5 1.4 5.2 2.1 7.9 2.1 5.5 0 10.9-2.9 13.9-8.1l64-112c4.4-7.6 1.7-17.4-6-21.8zm39.8-257.8C411.8 67.4 373.9 32 328 32c-17.8 0-34.8 5.3-49.2 15.2C256.3 17.7 221.5 0 184 0 117.9 0 64 53.8 64 120v.4c-38.3 16-64 53.5-64 95.6 0 57.3 46.7 104 104 104h304c57.3 0 104-46.7 104-104 0-54.8-42.6-99.8-96.3-103.7zM408 288H104c-39.7 0-72-32.3-72-72 0-32.3 21.9-60.7 53.3-69.2l13.3-3.6-2-17.2c-.3-2-.6-4-.6-6 0-48.5 39.5-88 88-88 32.2 0 61.8 17.9 77.2 46.8l10.6 19.8L287 82.1C297.9 70.4 312.4 64 328 64c30.9 0 56 25.1 56 56 0 1.6-.3 3.1-.8 6.9l-2.5 20 23.5-2.4c1.2-.2 2.5-.4 3.8-.4 39.7 0 72 32.3 72 72S447.7 288 408 288z"/></svg>