<svg xmlns="http://www.w3.org/2000/svg" viewBox="0 0 640 512"><!-- Font Awesome Pro 5.15.4 by @fontawesome - https://fontawesome.com License - https://fontawesome.com/license (Commercial License) --><path d="M405.4 232.2l-80-72c-12.2-11-30.6-11-42.8 0l-80 72c-21.7 19.6-7.9 55.8 21.4 55.8h64v84c0 6.6 5.4 12 12 12h8c6.6 0 12-5.4 12-12v-84h64c29.2 0 43.1-36.2 21.4-55.8zM224 256l80-72 80 72H224zm347.7-17.2c2.8-9.9 4.3-20.2 4.3-30.8 0-61.9-50.1-112-112-112-16.7 0-32.9 3.6-48 10.8-31.6-45-84.3-74.8-144-74.8-94.4 0-171.7 74.5-175.8 168.2C39.2 220.2 0 274.3 0 336c0 79.6 64.4 144 144 144h368c70.7 0 128-57.2 128-128 0-47-25.8-90.8-68.3-113.2zM512 448H144c-61.9 0-112-50.1-112-112 0-56.8 42.2-103.7 97-111-.7-5.6-1-11.3-1-17 0-79.5 64.5-144 144-144 60.3 0 111.9 37 133.4 89.6C420 137.9 440.8 128 464 128c44.2 0 80 35.8 80 80 0 18.5-6.3 35.6-16.9 49.2C573 264.4 608 304.1 608 352c0 53-43 96-96 96z"/></svg>