<svg xmlns="http://www.w3.org/2000/svg" viewBox="0 0 640 512"><!-- Font Awesome Pro 5.15.4 by @fontawesome - https://fontawesome.com License - https://fontawesome.com/license (Commercial License) --><path d="M543.7 304.3C539.8 259.4 502 224 456 224c-17.8 0-34.8 5.3-49.2 15.2-22.5-29.5-57.3-47.2-94.8-47.2-66.2 0-120 53.8-120 120v.4c-38.3 16-64 53.5-64 95.6 0 57.3 46.7 104 104 104h304c57.3 0 104-46.7 104-104 0-54.8-42.6-99.8-96.3-103.7zM536 480H232c-39.7 0-72-32.3-72-72 0-32.3 21.9-60.7 53.3-69.2l13.3-3.6-2-17.2c-.3-2-.6-4-.6-6 0-48.5 39.5-88 88-88 32.2 0 61.8 17.9 77.2 46.8l10.6 19.8 15.2-16.5c10.8-11.7 25.4-18.1 41-18.1 30.9 0 56 25.1 56 56 0 1.6-.3 3.1-.8 6.9l-2.5 20 23.5-2.4c1.2-.2 2.5-.4 3.8-.4 39.7 0 72 32.3 72 72S575.7 480 536 480zM92.6 323l12.5-63.2c1.2-6.3-1.4-12.8-6.8-16.4l-53.5-35.8 53.5-35.8c5.4-3.6 8-10.1 6.8-16.4L92.6 92.1l63.2 12.5c6.4 1.3 12.8-1.5 16.4-6.8L208 44.3l35.8 53.5c3.6 5.3 9.9 8.1 16.4 6.8l63.2-12.5-12.5 63.2c-.3 1.6-.1 3.2 0 4.8.4 0 .7-.1 1.1-.1 10.1 0 20 1.1 29.6 3 .2-.5.5-.9.6-1.5l17.2-86.7c1-5.2-.6-10.6-4.4-14.4s-9.2-5.5-14.4-4.4l-76.2 15.1-43.1-64.4c-6-8.9-20.6-8.9-26.6 0l-43.2 64.5-76.1-15.1c-5.3-1.1-10.7.6-14.4 4.4-3.8 3.8-5.4 9.2-4.4 14.4l15.1 76.2-64.6 43.1c-4.4 3-7.1 8-7.1 13.3s2.7 10.3 7.1 13.3L71.6 264l-15.1 76.2c-1 5.2.6 10.6 4.4 14.4 3 3 7.1 4.7 11.3 4.7 1 0 2.1-.1 3.1-.3l32.8-6.5c6.2-13.8 14.6-26.5 25.1-37.6L92.6 323zM208 149.7c18.5 0 34.8 8.9 45.4 22.4 10.2-4.3 20.8-7.6 31.9-9.6-15.6-26.6-44.2-44.8-77.3-44.8-49.5 0-89.8 40.3-89.8 89.8 0 33 18.1 61.7 44.8 77.3 2-11.1 5.3-21.7 9.6-31.9-13.6-10.6-22.4-26.9-22.4-45.4 0-31.8 25.9-57.8 57.8-57.8z"/></svg>