<svg xmlns="http://www.w3.org/2000/svg" viewBox="0 0 512 512"><!-- Font Awesome Pro 5.15.4 by @fontawesome - https://fontawesome.com License - https://fontawesome.com/license (Commercial License) --><path d="M118.5 369.2c-2.8-10.2-11.8-17.1-22.3-17.2-11.6.7-19.7 6.8-22.7 17.1-4.7 16.3-11.8 26.9-18.8 37.1-8.6 12.7-17.4 25.8-17.4 45.3 0 33.4 26.3 60.5 58.7 60.5s58.7-27.1 58.7-60.5c0-19.6-8.8-32.6-17.4-45.2-7-10.3-14.1-20.8-18.8-37.1zM96 480c-14.7 0-26.7-12.8-26.7-28.5 0-9.3 4.1-15.8 11.9-27.3 4.6-6.8 9.9-14.7 14.7-24.6 4.8 9.9 10.2 17.8 14.8 24.6 7.8 11.5 11.9 18 11.9 27.3.1 15.7-11.9 28.5-26.6 28.5zm182.5-110.8c-2.8-10.2-11.8-17.1-22.3-17.2h-.2c-10.5 0-19.5 6.8-22.5 17.1-4.7 16.3-11.8 26.9-18.8 37.1-8.6 12.7-17.4 25.8-17.4 45.3 0 33.4 26.3 60.5 58.7 60.5s58.7-27.1 58.7-60.5c0-19.6-8.8-32.6-17.4-45.2-7-10.3-14.1-20.8-18.8-37.1zM256 480c-14.7 0-26.7-12.8-26.7-28.5 0-9.3 4.1-15.8 11.9-27.3 4.6-6.8 9.9-14.7 14.7-24.6 4.8 9.9 10.2 17.8 14.8 24.6 7.8 11.5 11.9 18 11.9 27.3.1 15.7-11.9 28.5-26.6 28.5zm182.5-110.8c-2.8-10.2-11.8-17.1-22.3-17.2-10.4.7-19.7 6.8-22.7 17.1-4.7 16.3-11.8 26.9-18.8 37.1-8.6 12.7-17.4 25.8-17.4 45.3 0 33.4 26.3 60.5 58.7 60.5s58.7-27.1 58.7-60.5c0-19.6-8.8-32.6-17.4-45.2-7-10.3-14.1-20.8-18.8-37.1zM416 480c-14.7 0-26.7-12.8-26.7-28.5 0-9.3 4.1-15.8 11.9-27.3 4.6-6.8 9.9-14.7 14.7-24.6 4.8 9.9 10.2 17.8 14.8 24.6 7.8 11.5 11.9 18 11.9 27.3.1 15.7-11.9 28.5-26.6 28.5zm-.3-367.7C411.8 67.4 373.9 32 328 32c-17.8 0-34.8 5.3-49.2 15.2C256.3 17.7 221.5 0 184 0 117.8 0 64 53.8 64 120v.4c-38.3 16-64 53.5-64 95.6 0 57.3 46.7 104 104 104h304c57.3 0 104-46.7 104-104 0-54.8-42.6-99.8-96.3-103.7zM408 288H104c-39.7 0-72-32.3-72-72 0-32.3 21.9-60.7 53.3-69.2l13.3-3.6-2-17.2c-.3-2-.6-4-.6-6 0-48.5 39.5-88 88-88 32.2 0 61.8 17.9 77.2 46.8l10.6 19.8L287 82.1C297.9 70.4 312.4 64 328 64c30.9 0 56 25.1 56 56 0 1.6-.3 3.1-.8 6.9l-2.5 20 23.5-2.4c1.2-.2 2.5-.4 3.8-.4 39.7 0 72 32.3 72 72S447.7 288 408 288z"/></svg>