<svg xmlns="http://www.w3.org/2000/svg" viewBox="0 0 384 512"><!-- Font Awesome Pro 5.15.4 by @fontawesome - https://fontawesome.com License - https://fontawesome.com/license (Commercial License) --><path d="M304 192c-41.7 0-76 32-79.7 72.8-25.2-1.3-61.6-7.9-88.8-31.7-20.3-17.8-32.8-43-37.5-75.1 35.5-8.2 62-40 62-77.9 0-44.2-35.8-80-80-80S0 35.8 0 80c0 38.7 27.5 71 64 78.4v195.2C27.5 361 0 393.3 0 432c0 44.2 35.8 80 80 80s80-35.8 80-80c0-38.7-27.5-71-64-78.4V237.4c5.5 7.2 11.7 13.9 18.6 19.9C151 289 197.9 296.1 228 297c10.5 31.9 40.5 55 76 55 44.2 0 80-35.8 80-80s-35.8-80-80-80zM32 80c0-26.5 21.5-48 48-48s48 21.5 48 48-21.5 48-48 48-48-21.5-48-48zm96 352c0 26.5-21.5 48-48 48s-48-21.5-48-48 21.5-48 48-48 48 21.5 48 48zm176-112c-26.5 0-48-21.5-48-48s21.5-48 48-48 48 21.5 48 48-21.5 48-48 48z"/></svg>