<svg xmlns="http://www.w3.org/2000/svg" viewBox="0 0 640 512"><!-- Font Awesome Pro 5.15.4 by @fontawesome - https://fontawesome.com License - https://fontawesome.com/license (Commercial License) --><path d="M320 128c34.19 0 66.33 13.31 90.51 37.49S448 221.81 448 256s-13.31 66.33-37.49 90.51S354.19 384 320 384s-66.33-13.31-90.51-37.49S192 290.19 192 256s13.31-66.33 37.49-90.51S285.81 128 320 128m0-32c-88.37 0-160 71.63-160 160s71.63 160 160 160 160-71.63 160-160S408.37 96 320 96zm308 144H511.33c.44 5.3.67 10.63.67 16s-.23 10.7-.67 16H628c6.63 0 12-5.37 12-12v-8c0-6.63-5.37-12-12-12zm-500 16c0-5.37.23-10.7.67-16H12c-6.63 0-12 5.37-12 12v8c0 6.63 5.37 12 12 12h116.67c-.44-5.3-.67-10.63-.67-16z"/></svg>