<svg xmlns="http://www.w3.org/2000/svg" viewBox="0 0 384 512"><!-- Font Awesome Pro 5.15.4 by @fontawesome - https://fontawesome.com License - https://fontawesome.com/license (Commercial License) --><path d="M370.62,112.7,271.83,13.47A45.65,45.65,0,0,0,239.38,0H144.62a45.63,45.63,0,0,0-32.47,13.5L13.39,112.7a46.34,46.34,0,0,0-12,43.64L81.2,477.14A45.83,45.83,0,0,0,125.71,512H258.29a45.83,45.83,0,0,0,44.51-34.86l79.85-320.77a46.39,46.39,0,0,0-12-43.67ZM271.73,469.42A13.83,13.83,0,0,1,258.29,480H125.71a13.82,13.82,0,0,1-13.44-10.58L32.42,148.59a14.16,14.16,0,0,1,3.66-13.33l98.73-99.17A13.84,13.84,0,0,1,144.62,32h94.76a13.78,13.78,0,0,1,9.78,4.06l98.76,99.2a14.22,14.22,0,0,1,3.66,13.36l-79.85,320.8Z"/></svg>