<svg xmlns="http://www.w3.org/2000/svg" viewBox="0 0 576 512"><!-- Font Awesome Pro 5.15.4 by @fontawesome - https://fontawesome.com License - https://fontawesome.com/license (Commercial License) --><path d="M517.9 448H26.1c-24.5 0-33.1-32-20-32h531.8c13.1 0 4.5 32-20 32zM576 159.1c.5 53.4-42.7 96.9-96 96.9h-32v32c0 53-43 96-96 96H160c-53 0-96-43-96-96V76c0-6.6 5.4-12 12-12h402.8c52.8 0 96.7 42.2 97.2 95.1zM416 96H96v192c0 35.3 28.7 64 64 64h192c35.3 0 64-28.7 64-64V96zm128 64c0-35.3-28.7-64-64-64h-32v128h32c35.3 0 64-28.7 64-64z"/></svg>