<svg xmlns="http://www.w3.org/2000/svg" viewBox="0 0 512 512"><!-- Font Awesome Pro 5.15.4 by @fontawesome - https://fontawesome.com License - https://fontawesome.com/license (Commercial License) --><path d="M431.45,177.65,437.33,160h0L480,32H80A80,80,0,0,0,0,112V216a8,8,0,0,0,8,8H24a8,8,0,0,0,8-8V112A48,48,0,0,1,80,64h26.67l32,96h0l6.05,18.16C95.41,217.9,64,277.69,64,344.62c0,51.47,18.62,84.77,49.64,117.71A57.18,57.18,0,0,0,155.17,480H420.84a57.08,57.08,0,0,0,41.45-17.6c31-32.95,49.69-66.24,49.71-117.72C512,278.37,481.37,217.83,431.45,177.65ZM140.4,64H435.6l-32,96H172.4Zm38.15,128h219.7c21,16.92,54.68,42.08,72.5,96H105.39C123.5,234,158.21,208.39,178.55,192ZM439,440.45A24.92,24.92,0,0,1,420.84,448H155.17a25,25,0,0,1-18.23-7.62C107.1,408.71,96,382.75,96,344.62A178.3,178.3,0,0,1,97.9,320H478.13A180.47,180.47,0,0,1,480,344.67C480,382.79,468.88,408.75,439,440.45Z"/></svg>