<svg xmlns="http://www.w3.org/2000/svg" viewBox="0 0 512 512"><!-- Font Awesome Pro 5.15.4 by @fontawesome - https://fontawesome.com License - https://fontawesome.com/license (Commercial License) --><path d="M256 64C114.67 64 0 128.44 0 208v112c0 70.72 114.67 128 256 128s256-57.28 256-128V208c0-79.56-114.67-144-256-144zM64 366.61C43.69 352 32 335.68 32 320v-42.34A183.65 183.65 0 0 0 64 303zm80 35.32A306.25 306.25 0 0 1 96 385v-64.69a327.39 327.39 0 0 0 48 17zm96 13.68a450 450 0 0 1-64-6.61v-64.27a442.1 442.1 0 0 0 64 6.53zm96-6.61a450 450 0 0 1-64 6.64v-64.38a442.1 442.1 0 0 0 64-6.53zm80-24a306.25 306.25 0 0 1-48 16.9v-64.6a327.39 327.39 0 0 0 48-17zm64-65c0 15.68-11.69 32-32 46.61V303a183.65 183.65 0 0 0 32-25.37zm-224 0c-132 0-224-59-224-112S124 96 256 96s224 59 224 112-92 112-224 112z"/></svg>