<svg xmlns="http://www.w3.org/2000/svg" viewBox="0 0 512 512"><!-- Font Awesome Pro 5.15.4 by @fontawesome - https://fontawesome.com License - https://fontawesome.com/license (Commercial License) --><path d="M236.90992,256.02578,205.6384,192.55713a15.29617,15.29617,0,0,0-27.45706,0l-31.27152,63.46865L77.04451,266.223a15.3143,15.3143,0,0,0-8.46875,26.13668l50.60356,49.33391-12,69.72841a15.3707,15.3707,0,0,0,15.08595,17.9531,14.985,14.985,0,0,0,7.11329-1.81641L191.90987,394.631l62.53131,32.92768A15.26524,15.26524,0,0,0,276.64043,411.422l-11.92775-69.72841,50.5938-49.33391a15.347,15.347,0,0,0-8.53126-26.13668Zm5.46289,62.75772-12.03712,11.73435,2.83594,16.57029,6.22266,36.38081L206.82,366.31663l-14.91017-7.85155-14.91017,7.85155-32.53715,17.13278,6.25392-36.32806L153.57,330.53153l-12.05274-11.75194L115.08362,293.0101l36.4473-5.32031,16.64846-2.42968,7.43555-15.09177,16.29494-33.07222,16.29494,33.07222,7.43555,15.09177,16.64846,2.42968,36.50589,5.32812ZM504.754,7.23124a24.64079,24.64079,0,0,0-24.5-6.20116C447.97068,10.825,371.3749,34.616,312.87484,59.92256c-.8125-2.90624-1.71875-5.5-2.40625-7.90428a31.09684,31.09684,0,0,0-17.72073-19.58981,30.52225,30.52225,0,0,0-26.375,1.18749C223.154,56.11007,116.36877,114.79943,58.05621,173.08255c-77.40828,77.3866-77.40828,203.45086,0,280.83746a198.87425,198.87425,0,0,0,280.91241,0c58.28326-58.28311,116.90832-165.05444,139.50405-208.24578a31.37146,31.37146,0,0,0,1.1875-26.40035,31.034,31.034,0,0,0-19.59572-17.69919c-2.40626-.6875-5-1.5-7.90626-2.39062,25.002-58.18741,49.002-134.96659,58.81451-167.365A24.76358,24.76358,0,0,0,504.754,7.23124Zm-89.2833,195.2497-7.90626,16.90232,18,5.18554c9.68751,2.81249,18.40627,5.40624,24.40628,6.20311-21.81253,41.89447-78.59579,145.37088-133.72085,200.45087-64.877,64.89053-170.69158,64.98428-235.59985,0s-64.90827-170.66185,0-235.53675C135.74575,140.59041,239.24781,83.80729,279.87285,61.51631c2,6.59179,4.59376,15.29295,7.375,24.99215l5.21875,17.99607,16.90823-7.90429c51.375-24.08785,126.28333-48.28508,166.69158-60.67178C463.752,76.30926,439.37692,151.49274,415.47065,202.48094Z"/></svg>