<svg xmlns="http://www.w3.org/2000/svg" viewBox="0 0 512 512"><!-- Font Awesome Pro 5.15.4 by @fontawesome - https://fontawesome.com License - https://fontawesome.com/license (Commercial License) --><path d="M448 0H64C28.7 0 0 28.7 0 64v288c0 35.3 28.7 64 64 64h96v84c0 7.1 5.8 12 12 12 2.4 0 4.9-.7 7.1-2.4L304 416h144c35.3 0 64-28.7 64-64V64c0-35.3-28.7-64-64-64zm32 352c0 17.6-14.4 32-32 32H293.3l-8.5 6.4L192 460v-76H64c-17.6 0-32-14.4-32-32V64c0-17.6 14.4-32 32-32h384c17.6 0 32 14.4 32 32v288zM336 105.4c-12.5-12.5-32.8-12.5-45.2 0l-126.1 126c-2 2-3.4 4.5-4.2 7.3l-16 61.2c-1.4 5.5.1 11.3 4.2 15.4 3 3 7.1 4.7 11.3 4.7 1.3 0 2.7-.2 4-.5l61.2-16c2.8-.7 5.3-2.2 7.3-4.2l126.1-126.1c12.5-12.5 12.5-32.8 0-45.2L336 105.4zM213 273.6l-30.6 8 8-30.6 75-75 22.6 22.6-75 75zm97.6-97.6L288 153.4l25.4-25.4 22.6 22.6-25.4 25.4z"/></svg>