<svg xmlns="http://www.w3.org/2000/svg" viewBox="0 0 512 512"><!-- Font Awesome Pro 5.15.4 by @fontawesome - https://fontawesome.com License - https://fontawesome.com/license (Commercial License) --><path d="M448 0H64C28.7 0 0 28.7 0 64v288c0 35.3 28.7 64 64 64h96v84c0 7.1 5.8 12 12 12 2.4 0 4.9-.7 7.1-2.4L304 416h144c35.3 0 64-28.7 64-64V64c0-35.3-28.7-64-64-64zm32 352c0 17.6-14.4 32-32 32H293.3l-8.5 6.4L192 460v-76H64c-17.6 0-32-14.4-32-32V64c0-17.6 14.4-32 32-32h384c17.6 0 32 14.4 32 32v288zM345.3 134.5c-1.6-1.6-3.6-2.3-5.7-2.3-2 0-4.1.8-5.7 2.3L226.5 241.9 178 193.4c-1.6-1.6-3.6-2.3-5.7-2.3-2 0-4.1.8-5.7 2.3l-11.3 11.3c-3.1 3.1-3.1 8.2 0 11.3l65.5 65.5c1.6 1.6 3.6 2.3 5.7 2.3s4.1-.8 5.7-2.3L356.7 157c3.1-3.1 3.1-8.2 0-11.3l-11.4-11.2z"/></svg>