<svg xmlns="http://www.w3.org/2000/svg" viewBox="0 0 640 512"><!-- Font Awesome Pro 5.15.4 by @fontawesome - https://fontawesome.com License - https://fontawesome.com/license (Commercial License) --><path d="M637 485.2l-96.7-76.1-22.5-17.7-443.2-349-5.2-4.1L23 1.8C19.6-1 14.5-.4 11.8 3l-10 12.5C-1 19-.4 24 3 26.8l61 48L96 100l360.7 284 15.9 12.5L617 510.2c3.4 2.8 8.5 2.2 11.2-1.2l10-12.5c2.8-3.5 2.2-8.5-1.2-11.3zM368 384h-10.7l-8.5 6.4L256 460v-76H128c-17.6 0-32-14.4-32-32V161.1l-32-25.2V352c0 35.3 28.7 64 64 64h96v84c0 7.1 5.8 12 12 12 2.4 0 4.9-.7 7.1-2.4L368 416h51.7l-40.6-32H368zM512 32c17.6 0 32 14.4 32 32v286.9l28.2 22.2c2.3-6.6 3.8-13.7 3.8-21.1V64c0-35.3-28.7-64-64-64H128c-8.4 0-16.4 1.7-23.7 4.7L139 32h373z"/></svg>