<svg xmlns="http://www.w3.org/2000/svg" viewBox="0 0 512 512"><!-- Font Awesome Pro 5.15.4 by @fontawesome - https://fontawesome.com License - https://fontawesome.com/license (Commercial License) --><path d="M256 32C114.64 32 .07 125.09.07 240 .07 287.59 20 331.2 53 366.3c-14.91 39.4-45.9 72.79-46.4 73.2A24 24 0 0 0 24 480c61.49 0 110-25.7 139.07-46.3A309.89 309.89 0 0 0 256 448c141.39 0 256-93.09 256-208S397.42 32 256 32zm0 384a275.44 275.44 0 0 1-83.17-12.8l-15.22-4.79-13 9.18c-23 16.32-58.49 35.32-102.58 39.61 12-15.11 29.81-40.4 40.81-69.61L90 358.91 76.24 344.3C47.37 313.7 32.06 277.59 32.06 240c0-97 100.49-176 224-176s224 79 224 176S379.52 416 256 416zm75.18-287.25L203.23 176A16 16 0 0 0 192 191.25V290a69.82 69.82 0 0 0-16-2c-26.49 0-48 14.33-48 32s21.5 32 48 32 48-14.33 48-32V211.16l96-37.52V258a69.8 69.8 0 0 0-16-2c-26.5 0-48 14.33-48 32s21.5 32 48 32 48-14.33 48-32V144a16 16 0 0 0-20.79-15.25z"/></svg>