<svg xmlns="http://www.w3.org/2000/svg" viewBox="0 0 512 512"><!-- Font Awesome Pro 5.15.4 by @fontawesome - https://fontawesome.com License - https://fontawesome.com/license (Commercial License) --><path d="M336 137.4c-12.5-12.5-32.8-12.5-45.2 0l-126.1 126c-2 2-3.4 4.5-4.2 7.3l-16 61.2c-1.4 5.5.1 11.3 4.2 15.4 3 3 7.1 4.7 11.3 4.7 1.3 0 2.7-.2 4-.5l61.2-16c2.8-.7 5.3-2.2 7.3-4.2l126.1-126.1c12.5-12.5 12.5-32.8 0-45.2L336 137.4zM213 305.6l-30.6 8 8-30.6 75-75 22.6 22.6-75 75zm97.6-97.6L288 185.4l25.4-25.4 22.6 22.6-25.4 25.4zM256 32C114.6 32 0 125.1 0 240c0 47.6 19.9 91.2 52.9 126.3C38 405.7 7 439.1 6.5 439.5c-6.6 7-8.4 17.2-4.6 26S14.4 480 24 480c61.5 0 110-25.7 139.1-46.3C192 442.8 223.2 448 256 448c141.4 0 256-93.1 256-208S397.4 32 256 32zm0 384c-28.3 0-56.3-4.3-83.2-12.8l-15.2-4.8-13 9.2c-23 16.3-58.5 35.3-102.6 39.6 12-15.1 29.8-40.4 40.8-69.6l7.1-18.7-13.7-14.6C47.3 313.7 32 277.6 32 240c0-97 100.5-176 224-176s224 79 224 176-100.5 176-224 176z"/></svg>