<svg xmlns="http://www.w3.org/2000/svg" viewBox="0 0 512 512"><!-- Font Awesome Pro 5.15.4 by @fontawesome - https://fontawesome.com License - https://fontawesome.com/license (Commercial License) --><path d="M448 0H64A64.05 64.05 0 0 0 0 64v288a64.05 64.05 0 0 0 64 64h96v84a12 12 0 0 0 12 12 11.35 11.35 0 0 0 7.09-2.41L304 416h144a64.05 64.05 0 0 0 64-64V64a64.05 64.05 0 0 0-64-64zm32 352a32.11 32.11 0 0 1-32 32H293.31l-8.5 6.41L192 460v-76H64a32.11 32.11 0 0 1-32-32V64a32.11 32.11 0 0 1 32-32h384a32.11 32.11 0 0 1 32 32zM331.19 96.75l-128 47.25A16 16 0 0 0 192 159.25V258a69.89 69.89 0 0 0-16-2c-26.5 0-48 14.33-48 32s21.5 32 48 32 48-14.33 48-32V179.16l96-37.52V226a69.89 69.89 0 0 0-16-2c-26.5 0-48 14.33-48 32s21.5 32 48 32 48-14.33 48-32V112a16 16 0 0 0-20.81-15.25z"/></svg>