<svg xmlns="http://www.w3.org/2000/svg" viewBox="0 0 576 512"><!-- Font Awesome Pro 5.15.4 by @fontawesome - https://fontawesome.com License - https://fontawesome.com/license (Commercial License) --><path d="M224 234.6c21.85-1.29 39.38-19.62 39.38-42.46 0-18.98-12.34-35.94-30-41.23l-41.56-12.47c-4.22-1.27-7.19-5.62-7.19-10.58 0-6.03 4.34-10.94 9.66-10.94h25.94c3.9 0 7.65 1.08 10.96 3.1 3.17 1.93 7.31 1.15 10-1.4l11.44-10.87c3.53-3.36 3.38-9.22-.54-12.11-8.18-6.03-17.97-9.58-28.08-10.32V72c0-4.42-3.58-8-8-8h-16c-4.42 0-8 3.58-8 8v13.4c-21.85 1.29-39.38 19.62-39.38 42.46 0 18.98 12.34 35.94 30 41.23l41.56 12.47c4.22 1.27 7.19 5.62 7.19 10.58 0 6.03-4.34 10.94-9.66 10.94h-25.94c-3.9 0-7.65-1.08-10.96-3.1-3.17-1.94-7.31-1.15-10 1.4l-11.44 10.87c-3.53 3.36-3.38 9.22.54 12.11 8.18 6.03 17.97 9.58 28.08 10.32V248c0 4.42 3.58 8 8 8h16c4.42 0 8-3.58 8-8v-13.4zM512 160h-96V64c0-35.35-28.65-64-64-64H64C28.65 0 0 28.65 0 64v192c0 35.35 28.65 64 64 64h32v51.98c0 7.1 5.83 12.02 12.05 12.02 2.41 0 4.87-.74 7.08-2.37L192 338.12V384c0 35.35 28.65 64 64 64h96l108.87 61.63c2.21 1.63 4.68 2.37 7.08 2.37 6.22 0 12.05-4.92 12.05-12.02V448h32c35.35 0 64-28.65 64-64V224c0-35.35-28.65-64-64-64zM128 337.57V288H64c-17.64 0-32-14.36-32-32V64c0-17.64 14.36-32 32-32h288c17.64 0 32 14.36 32 32v192c0 17.64-14.36 32-32 32H215.57L128 337.57zM544 384c0 17.64-14.36 32-32 32h-64v49.57L360.43 416H256c-17.64 0-32-14.36-32-32v-64h128c35.35 0 64-28.65 64-64v-64h96c17.64 0 32 14.36 32 32v160z"/></svg>