<svg xmlns="http://www.w3.org/2000/svg" viewBox="0 0 640 512"><!-- Font Awesome Pro 5.15.4 by @fontawesome - https://fontawesome.com License - https://fontawesome.com/license (Commercial License) --><path d="M320 64c123.5 0 224 79 224 176 0 31.8-11 61.6-29.9 87.4l25 19.7C562.4 315.8 576 279.2 576 240c0-114.9-114.6-208-256-208-51.2 0-98.7 12.3-138.7 33.3l27.8 21.9C241.9 72.5 279.7 64 320 64zm317 421.2L164.8 113.4 138.9 93 23 1.8C19.6-1 14.5-.4 11.8 3l-10 12.5C-1 19-.4 24 3 26.8l112.5 88.6 25.1 19.8 476.4 375c3.4 2.8 8.5 2.2 11.2-1.2l10-12.5c2.8-3.5 2.2-8.5-1.2-11.3zM320 416c-28.3 0-56.3-4.3-83.2-12.8l-15.2-4.8-13 9.2c-23 16.3-58.5 35.3-102.6 39.6 12-15.1 29.8-40.4 40.8-69.6l7.1-18.7-13.7-14.6C111.3 313.7 96 277.6 96 240c0-23.3 5.9-45.6 16.5-66l-25.4-20C72.4 180.3 64 209.3 64 240c0 47.6 19.9 91.2 52.9 126.3-14.9 39.4-45.9 72.8-46.4 73.2-6.6 7-8.4 17.2-4.6 26S78.4 480 88 480c61.5 0 110-25.7 139.1-46.3C256 442.8 287.2 448 320 448c40.6 0 78.9-7.9 113-21.6l-29.5-23.2c-25.9 8.2-54 12.8-83.5 12.8z"/></svg>