<svg xmlns="http://www.w3.org/2000/svg" viewBox="0 0 512 512"><!-- Font Awesome Pro 5.15.4 by @fontawesome - https://fontawesome.com License - https://fontawesome.com/license (Commercial License) --><path d="M344 208h-56v-56a8 8 0 0 0-8-8h-48a8 8 0 0 0-8 8v56h-56a8 8 0 0 0-8 8v48a8 8 0 0 0 8 8h56v56a8 8 0 0 0 8 8h48a8 8 0 0 0 8-8v-56h56a8 8 0 0 0 8-8v-48a8 8 0 0 0-8-8zM256 32C114.62 32 0 125.12 0 240c0 47.55 19.86 91.23 52.9 126.27C38 405.72 7 439.06 6.54 439.5A24 24 0 0 0 24 480c61.51 0 110-25.72 139.15-46.33A307.33 307.33 0 0 0 256 448c141.38 0 256-93.12 256-208S397.38 32 256 32zm0 384a275.11 275.11 0 0 1-83.21-12.84l-15.16-4.8-13 9.18c-23 16.29-58.53 35.34-102.63 39.59 12-15.13 29.84-40.44 40.84-69.55l7.06-18.71-13.72-14.56C47.28 313.67 32 277.6 32 240c0-97 100.49-176 224-176s224 79 224 176-100.49 176-224 176z"/></svg>