<svg xmlns="http://www.w3.org/2000/svg" viewBox="0 0 448 512"><!-- Font Awesome Pro 5.15.4 by @fontawesome - https://fontawesome.com License - https://fontawesome.com/license (Commercial License) --><path d="M376 320H232a8 8 0 0 0-8 8v16a8 8 0 0 0 8 8h144a8 8 0 0 0 8-8v-16a8 8 0 0 0-8-8zM416 0H32A32 32 0 0 0 0 32v400a16 16 0 0 0 16 16h16v48a16 16 0 0 0 16 16h352a16 16 0 0 0 16-16v-48h16a16 16 0 0 0 16-16V32a32 32 0 0 0-32-32zm-32 480H64v-32h320zm32-64H32V32h384zM96 256h256a32 32 0 0 0 32-32V96a32 32 0 0 0-32-32H96a32 32 0 0 0-32 32v128a32 32 0 0 0 32 32zm0-160h256v128H96zM80 356a20 20 0 1 0-20-20 20 20 0 0 0 20 20z"/></svg>