<svg xmlns="http://www.w3.org/2000/svg" viewBox="0 0 640 512"><!-- Font Awesome Pro 5.15.4 by @fontawesome - https://fontawesome.com License - https://fontawesome.com/license (Commercial License) --><path d="M322 474.1c-58 0-114.6-23.3-155.2-63.9C126.5 370 104.3 315.6 104 257c-.1-33.2 7.1-65 20.5-93.9l-25.8-20.3c-47.4 94.3-31.2 213.4 45.4 290 48.4 48.4 113.1 73.3 177.9 73.3 57.6 0 115.1-20 161.2-60.5l-25.5-20C420 457 372.5 474.1 322 474.1zm89.1-207.4l38.7-107.4c5.6-15.7-10.3-34.3-26.4-34.3-2.3 0-4.5.4-6.7 1.2l-126.2 45.5 29.6 23.3 95.2-34.3-30.7 85.1zM317.3 40c58.2 0 113.2 23 154.9 64.7 66 66 80.4 164.1 43.7 244.4l25.8 20.3C587.9 276 572.4 159.6 494.8 82 445.6 32.9 381.4 8 317.3 8 260.5 8 203.9 27.8 158 67.3l25.5 20.1C221.4 56.7 268 40 317.3 40zm-88.4 205.3l-38.7 107.4c-5.7 15.7 10.3 34.3 26.4 34.3 2.3 0 4.5-.4 6.7-1.2l126.2-45.5-29.6-23.3-95.2 34.3 30.7-85.1zM637 485.2L23 1.8C19.6-1 14.5-.5 11.8 3l-10 12.5C-1 19-.4 24 3 26.7l614 483.5c3.4 2.8 8.5 2.2 11.2-1.2l10-12.5c2.8-3.5 2.3-8.5-1.2-11.3z"/></svg>