<svg xmlns="http://www.w3.org/2000/svg" viewBox="0 0 448 512"><!-- Font Awesome Pro 5.15.4 by @fontawesome - https://fontawesome.com License - https://fontawesome.com/license (Commercial License) --><path d="M9.171 476.485l-5.656-5.656c-4.686-4.686-4.686-12.284 0-16.971L169.373 288H108c-6.627 0-12-5.373-12-12v-8c0-6.627 5.373-12 12-12h100c8.837 0 16 7.163 16 16v100c0 6.627-5.373 12-12 12h-8c-6.627 0-12-5.373-12-12v-61.373L26.142 476.485c-4.687 4.687-12.285 4.687-16.971 0zM240 256h100c6.627 0 12-5.373 12-12v-8c0-6.627-5.373-12-12-12h-61.373L444.485 58.142c4.686-4.686 4.686-12.284 0-16.971l-5.656-5.656c-4.686-4.686-12.284-4.686-16.971 0L256 201.373V140c0-6.627-5.373-12-12-12h-8c-6.627 0-12 5.373-12 12v100c0 8.837 7.163 16 16 16z"/></svg>