<svg xmlns="http://www.w3.org/2000/svg" viewBox="0 0 640 512"><!-- Font Awesome Pro 5.15.4 by @fontawesome - https://fontawesome.com License - https://fontawesome.com/license (Commercial License) --><path d="M289.38 372l-83-53.81-29.75 109.4a16 16 0 0 0 11.23 19.69 15.75 15.75 0 0 0 4.22.56A16 16 0 0 0 207.45 436l18.25-67.06 46.31 30v32.85a16 16 0 1 0 32 0v-32.85A32 32 0 0 0 289.38 372zM308 215.22a28.08 28.08 0 1 0-28-28.07 28 28 0 0 0 28 28.07zm168.87 117.17a10.92 10.92 0 0 0-8.4-6.13 16.3 16.3 0 0 0-5-1.23h-.07a1400.59 1400.59 0 0 0-7.31 1.76 15.78 15.78 0 0 0-6 5.35l-28.34 42.44-79.45-49-10.55-52.87c-3.72-18.66-18.11-33.4-35.56-37.24l-24.57-7.3a47.44 47.44 0 0 0-10.45-1.17 48 48 0 0 0-38.35 19.27l-11.6 15.53a16.07 16.07 0 0 0 4.4 23.28l103.94 64.14a.6.6 0 0 0 .11.06l70.65 43.6H369a19.14 19.14 0 0 0-18.21 12.54L336 447.83h185.49A16 16 0 0 0 535 423.12zm-229.53-65.46l1.09-1.47a16 16 0 0 1 12.74-6.46 14.86 14.86 0 0 1 2.66.23l23.3 6.92 1.11.33 1.13.25c5.21 1.15 9.86 6.27 11 12.19l4.72 23.62zm185.45 148.82l3.38-5.07 27-40.37 29.08 45.44zm199.51 22.74L361.43 20.91C343.37-7 296.63-7 278.57 20.91L7.7 438.49a46.38 46.38 0 0 0-1.94 48A49.12 49.12 0 0 0 49.13 512h541.74a49.12 49.12 0 0 0 43.37-25.54 46.38 46.38 0 0 0-1.94-47.97zm-26.18 32.67a17 17 0 0 1-15.25 8.76H49.13a17 17 0 0 1-15.25-8.76 14.59 14.59 0 0 1 .63-15.16L305.38 38.4a17.78 17.78 0 0 1 29.24 0L605.49 456a14.59 14.59 0 0 1 .63 15.16z"/></svg>