<svg xmlns="http://www.w3.org/2000/svg" viewBox="0 0 640 512"><!-- Font Awesome Pro 5.15.4 by @fontawesome - https://fontawesome.com License - https://fontawesome.com/license (Commercial License) --><path d="M632 64c4.4 0 8-3.6 8-8V40c0-4.4-3.6-8-8-8H8c-4.4 0-8 3.6-8 8v16c0 4.4 3.6 8 8 8h8v384H8c-4.4 0-8 3.6-8 8v16c0 4.4 3.6 8 8 8h624c4.4 0 8-3.6 8-8v-16c0-4.4-3.6-8-8-8h-8V64h8zm-40 384H48V64h544v384zm-472-64h16c4.4 0 8-3.6 8-8V136c0-4.4-3.6-8-8-8h-16c-4.4 0-8 3.6-8 8v240c0 4.4 3.6 8 8 8zm96 0h16c4.4 0 8-3.6 8-8V136c0-4.4-3.6-8-8-8h-16c-4.4 0-8 3.6-8 8v240c0 4.4 3.6 8 8 8zm96 0h16c4.4 0 8-3.6 8-8V136c0-4.4-3.6-8-8-8h-16c-4.4 0-8 3.6-8 8v240c0 4.4 3.6 8 8 8zm96 0h16c4.4 0 8-3.6 8-8V136c0-4.4-3.6-8-8-8h-16c-4.4 0-8 3.6-8 8v240c0 4.4 3.6 8 8 8zm96 0h16c4.4 0 8-3.6 8-8V136c0-4.4-3.6-8-8-8h-16c-4.4 0-8 3.6-8 8v240c0 4.4 3.6 8 8 8z"/></svg>