<svg xmlns="http://www.w3.org/2000/svg" viewBox="0 0 640 512"><!-- Font Awesome Pro 5.15.4 by @fontawesome - https://fontawesome.com License - https://fontawesome.com/license (Commercial License) --><path d="M544 320H96c-53 0-96 43-96 96s43 96 96 96h448c53 0 96-43 96-96s-43-96-96-96zm0 160H96c-35.3 0-64-28.7-64-64s28.7-64 64-64h448c35.3 0 64 28.7 64 64s-28.7 64-64 64zM144 368c-26.5 0-48 21.5-48 48s21.5 48 48 48 48-21.5 48-48-21.5-48-48-48zm0 64c-8.8 0-16-7.2-16-16s7.2-16 16-16 16 7.2 16 16-7.2 16-16 16zm352-64c-26.5 0-48 21.5-48 48s21.5 48 48 48 48-21.5 48-48-21.5-48-48-48zm0 64c-8.8 0-16-7.2-16-16s7.2-16 16-16 16 7.2 16 16-7.2 16-16 16zm-176-64c-26.5 0-48 21.5-48 48s21.5 48 48 48 48-21.5 48-48-21.5-48-48-48zm0 64c-8.8 0-16-7.2-16-16s7.2-16 16-16 16 7.2 16 16-7.2 16-16 16zM144 288h352c8.8 0 16-7.2 16-16V16c0-8.8-7.2-16-16-16H144c-8.8 0-16 7.2-16 16v256c0 8.8 7.2 16 16 16zM288 32h64v76.2l-32-16-32 16V32zm-128 0h96v128l64-32 64 32V32h96v224H160V32z"/></svg>