<svg xmlns="http://www.w3.org/2000/svg" viewBox="0 0 512 512"><!-- Font Awesome Pro 5.15.4 by @fontawesome - https://fontawesome.com License - https://fontawesome.com/license (Commercial License) --><path d="M352 328c-13.25 0-24 10.74-24 24 0 13.25 10.75 24 24 24s24-10.75 24-24c0-13.26-10.75-24-24-24zM184 192c0-13.26-10.75-24-24-24s-24 10.74-24 24c0 13.25 10.75 24 24 24s24-10.75 24-24zm8 136c-13.25 0-24 10.74-24 24 0 13.25 10.75 24 24 24s24-10.75 24-24c0-13.26-10.75-24-24-24zm96-96c-13.25 0-24 10.74-24 24 0 13.25 10.75 24 24 24s24-10.75 24-24c0-13.26-10.75-24-24-24zm222.52 23.82c-69.97-.85-126.47-57.69-126.47-127.86-70.17 0-127-56.49-127.86-126.45C249.57.5 242.9 0 236.26 0c-20.68 0-41.18 4.85-59.79 14.33l-69.13 35.22a132.221 132.221 0 0 0-57.79 57.81l-35.1 68.88a132.645 132.645 0 0 0-12.82 80.95l12.08 76.28a132.555 132.555 0 0 0 37.16 72.96l54.77 54.76a132.036 132.036 0 0 0 72.71 37.06l76.71 12.14c6.86 1.09 13.76 1.62 20.64 1.62 20.72 0 41.25-4.88 59.89-14.38l69.13-35.22a132.221 132.221 0 0 0 57.79-57.81l35.1-68.88c12.56-24.63 17.01-52.57 12.91-79.9zm-41.42 65.36L434 390.07c-9.68 19-24.83 34.15-43.81 43.82l-69.13 35.22C307.08 476.23 291.39 480 275.7 480c-5.21 0-10.47-.41-15.63-1.23l-76.7-12.14c-21-3.33-40.05-13.04-55.09-28.08l-54.77-54.76c-15.1-15.09-24.84-34.23-28.18-55.33l-12.08-76.27c-3.35-21.12.02-42.36 9.72-61.41l35.1-68.88c9.68-19 24.83-34.15 43.81-43.82L191 42.85c11.33-5.77 23.8-9.33 36.51-10.46 13.15 63.15 63.84 112.95 127.25 124.86 11.91 63.42 61.71 114.11 124.87 127.25-1.1 12.73-4.64 25.14-10.53 36.68z"/></svg>