<svg xmlns="http://www.w3.org/2000/svg" viewBox="0 0 512 512"><!-- Font Awesome Pro 5.15.4 by @fontawesome - https://fontawesome.com License - https://fontawesome.com/license (Commercial License) --><path d="M352 328c-13.25 0-24 10.74-24 24 0 13.25 10.75 24 24 24s24-10.75 24-24c0-13.26-10.75-24-24-24zm-8-200c0-13.26-10.75-24-24-24s-24 10.74-24 24c0 13.25 10.75 24 24 24s24-10.75 24-24zm-160 64c0-13.26-10.75-24-24-24s-24 10.74-24 24c0 13.25 10.75 24 24 24s24-10.75 24-24zm8 136c-13.25 0-24 10.74-24 24 0 13.25 10.75 24 24 24s24-10.75 24-24c0-13.26-10.75-24-24-24zm96-96c-13.25 0-24 10.74-24 24 0 13.25 10.75 24 24 24s24-10.75 24-24c0-13.26-10.75-24-24-24zm222.37 22.79l-12.08-76.26a132.493 132.493 0 0 0-37.16-72.95l-54.76-54.75c-19.73-19.72-45.18-32.7-72.71-37.05l-76.7-12.15C250.11.54 243.22 0 236.34 0c-20.72 0-41.25 4.88-59.89 14.38l-69.12 35.21a132.25 132.25 0 0 0-57.79 57.8l-35.1 68.87A132.602 132.602 0 0 0 1.62 257.2l12.08 76.27a132.493 132.493 0 0 0 37.16 72.95l54.76 54.75a132.087 132.087 0 0 0 72.71 37.05l76.7 12.14c6.86 1.09 13.75 1.62 20.63 1.62 20.72 0 41.25-4.88 59.88-14.38l69.12-35.21a132.302 132.302 0 0 0 57.79-57.8l35.1-68.87a132.56 132.56 0 0 0 12.82-80.93zm-41.33 66.41l-35.1 68.88c-9.68 19-24.83 34.15-43.8 43.82l-69.12 35.21c-13.98 7.13-29.67 10.89-45.36 10.89-5.21 0-10.47-.41-15.63-1.23l-76.69-12.14c-20.99-3.33-40.04-13.04-55.09-28.08L73.5 383.79c-15.09-15.09-24.84-34.22-28.18-55.33L33.24 252.2c-3.35-21.12.02-42.36 9.72-61.4l35.1-68.88c9.68-19 24.83-34.15 43.8-43.82l69.12-35.21C204.97 35.77 220.65 32 236.34 32c5.21 0 10.47.41 15.62 1.23l76.7 12.15c20.99 3.32 40.04 13.03 55.08 28.08l54.76 54.75c15.09 15.09 24.84 34.22 28.18 55.33l12.08 76.26c3.35 21.12-.02 42.36-9.72 61.4z"/></svg>