<svg xmlns="http://www.w3.org/2000/svg" viewBox="0 0 512 512"><!-- Font Awesome Pro 5.15.4 by @fontawesome - https://fontawesome.com License - https://fontawesome.com/license (Commercial License) --><path d="M446.02 0c-12.95 0-25.27 3.8-35.67 10.62-15.35-4.08-28.15-1.5-34.89.49a65.477 65.477 0 0 0-27.61 15.95c-6.24-.44-17.55-.39-30.47 5.1-10.02 4.51-18.52 11.13-25.04 19.2a64.994 64.994 0 0 0-29.68 8.99c-8.75 4.96-16.12 11.98-21.61 20.32-10.18 1.49-19.83 5.37-28.32 11.43-.09.06-.15.16-.24.23-6.96-9.54-14.48-18.74-22.99-27.24l-21.13-21.14c-9.04-9.04-24.5-4.36-27 8.17l-23.76 118.81-80.55 80.56C16.98 271.58 2.98 297.65.47 325.94c-3.1 34.91 9.09 68.28 33.5 92.69l62.21 62.23.28-.28c27.38 25.57 64.77 36.9 103.31 28.88 22.86-4.75 43.42-17.25 59.93-33.76l81.32-81.34 118.8-23.76c12.53-2.51 17.21-17.97 8.18-27l-21.14-21.14c-8.66-8.66-18.02-16.31-27.74-23.36 4.96-7.75 8.43-16.21 9.79-25.06a64.739 64.739 0 0 0 20.94-22.24c5.29-8.9 8.26-18.84 8.84-28.94 8.11-6.41 14.68-14.7 19.02-24.35 4.47-9.93 6.33-20.58 5.63-31.05a66.545 66.545 0 0 0 16.12-26.97 66.217 66.217 0 0 0 .79-34.51C528.26 65.2 504.65 0 446.02 0zM56.6 277.21l90.49-90.51 19.79-98.99c48.33 48.33 65.35 115.45 52.51 177.72-35.47 10.72-67.98 30.09-94.92 57.04L54.06 392.9c-29.96-32.98-29.3-83.86 2.54-115.69zm367.63 67.88l-98.98 19.8-90.5 90.51c-16.4 16.4-37.89 24.6-59.39 24.6-21.49 0-42.99-8.2-59.39-24.6l-39.59-39.6 70.7-70.71c38.27-38.27 88.42-57.41 138.57-57.41 50.16 0 100.31 19.14 138.58 57.41zm37.16-246.25c7.5 8.31 10.98 20.36 7.5 32.15-3.49 11.25-12.33 19.55-22.77 22.76 5.88 9.11 7.23 20.9 2.41 31.61-4.83 10.71-14.46 17.41-25.17 19.29 4.83 9.64 4.55 21.42-1.33 31.33-5.63 9.91-15.81 15.8-26.52 16.61 3.58 9.45 2.61 20.32-3.29 29.45-32.44-17.2-68.79-26.36-106.55-26.36-10.82 0-21.46 1.01-31.98 2.48 1.53-10.48 2.6-21.08 2.6-31.87 0-37.79-9.16-74.16-26.38-106.63 13.48-11.22 27.58-7.41 32.49-5.56.81-10.44 6.7-20.63 16.61-26.25 15.82-9.39 30.92-1.53 31.33-1.33 1.88-10.45 8.84-20.09 19.55-24.91 13.46-5.71 25.43-1.32 31.61 2.68 3.22-10.71 11.78-19.28 23.03-22.5 3-.89 18.64-5.03 32.14 8.03C422.33 38.99 433.44 32 446.02 32c.52 0 33.85-.95 33.85 37.92-.54 12.85-8.03 23.56-18.48 28.92z"/></svg>