<svg xmlns="http://www.w3.org/2000/svg" viewBox="0 0 640 512"><!-- Font Awesome Pro 5.15.4 by @fontawesome - https://fontawesome.com License - https://fontawesome.com/license (Commercial License) --><path d="M634.06 279.67L624 265.54v-54.96c0-19.35-15.74-35.09-35.08-35.09-9.08 0-14.25 2.94-23.61 7.65l-56.6-79.46A96.029 96.029 0 0 0 430.95 64H112c-44.12 0-80 35.89-80 80v88.88C12.95 243.96 0 264.37 0 288v32c35.35 0 64-28.65 64-64V144c0-23.89 17.59-43.59 40.46-47.24C99.23 106.04 96 116.59 96 128v288c0 17.67 14.33 32 32 32h48c17.67 0 32-14.33 32-32v-51.58c7.31 2.92 15.62 4.97 24.04 6.85V392c0 8.84 7.16 16 16 16s16-7.16 16-16v-16.71c2.73.12 5.18.71 7.96.71 2.81 0 5.29-.61 8.04-.72V392c0 8.84 7.16 16 16 16s16-7.16 16-16v-20.75c8.39-1.88 16.68-3.92 23.96-6.83V416c0 17.67 14.33 32 32 32h47.96c17.67 0 32-14.32 32-31.99l.04-143.97L479.96 288v41.98c0 12.32 3.55 24.38 10.24 34.72l35.46 54.9a62.073 62.073 0 0 0 52.15 28.4h.11c34.29 0 62.08-27.79 62.08-62.08v-87.69c0-6.65-2.08-13.14-5.94-18.56zM212.73 96h118.54c17.54 0 27.12 19.78 15.89 32.8-40.1 46.51-57.96 47.2-75.11 47.2h-1.09c-17.2 0-33.82-.43-74.13-47.2-11.22-13.02-1.64-32.8 15.9-32.8zm-4.14 234.19C211.57 297.65 238.71 272 272 272s60.43 25.65 63.41 58.19c-14.2 5.68-57.45 27.73-126.82 0zM608 385.92c0 16.59-13.49 30.08-30.19 30.08-10.26 0-19.7-5.14-25.27-13.76l-35.46-54.9a31.939 31.939 0 0 1-5.12-17.36v-61.77l-95.95-47.92-.01 51.74-.04 143.97H368v-80c0-30.87-25.45-96-96-96-70.86 0-96 64.55-96 96v80h-48V128c0-17.64 14.36-32 32-32h4.29c-7.71 18.18-4.71 38.6 8.3 53.7 42.25 49.01 67.17 58.3 98.37 58.3 32.93 0 58.19-9.29 100.44-58.3 13.01-15.1 16.02-35.52 8.3-53.7h51.25c20.46 0 39.83 9.89 51.69 26.26l78.66 110.42c4.49-17.23 18.92-24.62 22.69-24.62 4.2 0 8 3.37 8 8.01v59.7l16 22.46v87.69zM568 304c-8.84 0-16 7.16-16 16s7.16 16 16 16 16-7.16 16-16-7.16-16-16-16z"/></svg>