<svg xmlns="http://www.w3.org/2000/svg" viewBox="0 0 512 512"><!-- Font Awesome Pro 5.15.4 by @fontawesome - https://fontawesome.com License - https://fontawesome.com/license (Commercial License) --><path d="M508.1 175.66c-11.51-30.34-29.86-56.51-52.36-78.17a59.19 59.19 0 0 0-.27-12.12 60.35 60.35 0 0 0-23.13-40.11A222.19 222.19 0 0 0 298.37 0a217.65 217.65 0 0 0-58.26 8.4C229.86 2.58 215.22-3 196.19 1.8A266.7 266.7 0 0 0 1.78 196.18a59.74 59.74 0 0 0 6.63 45c-17.76 65.52-5.22 136 36.84 191.13a60.4 60.4 0 0 0 40.11 23.13c9.18 1.16 9.09 0 11.4-.16 21.78 22.72 48.24 41.2 78.88 52.81 42.54 16.12 87-19.95 79.5-65.18l-14.54-87.23a58.85 58.85 0 0 0 17.47-31.43 59.4 59.4 0 0 0 26.33-15.11l24.77-24.77A59.82 59.82 0 0 0 324.35 258a58.82 58.82 0 0 0 31.32-17.41l87.24 14.54c45.43 7.6 81.25-37.13 65.19-79.47zM298.37 32a190.06 190.06 0 0 1 114.57 38.7c13.92 10.62 13.47 28.81 5 39.54l-84 107c-1.55 2-9.2 9.34-9.91 7.06l-56-182c-.77-2.48-2.3-4.47-3.35-6.79A181.18 181.18 0 0 1 298.36 32zM35.26 265.11a60.1 60.1 0 0 0 7.09 3l182 56c2.26.69-5.09 8.35-7.07 9.9l-107 84c-14.08 11.05-31.58 5.4-39.55-5a188.09 188.09 0 0 1-35.47-147.9zM187 478.17a181.28 181.28 0 0 1-57-35.09l82-64.32 11.57 69.42c3.48 20.82-17.01 37.4-36.57 29.99zm99.56-216.42l-24.77 24.76c-4 4-14.4 11.15-28 7l-182-56a28 28 0 0 1-18.93-33.55A234.75 234.75 0 0 1 204 32.84a28 28 0 0 1 33.5 18.93l56 182a28 28 0 0 1-6.96 27.98zm161.63-38.14L378.76 212l64.34-82a182.08 182.08 0 0 1 35.08 57c7.49 19.76-9.36 40.05-30.01 36.61z"/></svg>