<svg xmlns="http://www.w3.org/2000/svg" viewBox="0 0 640 512"><!-- Font Awesome Pro 5.15.4 by @fontawesome - https://fontawesome.com License - https://fontawesome.com/license (Commercial License) --><path d="M635.31 185.71l-181-181a16 16 0 0 0-22.62 0l-42.2 42.15a16 16 0 0 0 0 22.63l22.63 22.63-112.74 112.72A80 80 0 0 0 278 243.45l-28.8 124.73L130.34 487a8 8 0 0 0 0 11.31l11.32 11.32a8 8 0 0 0 11.31 0l118.87-118.84L396.56 362a79.85 79.85 0 0 0 38.56-21.4l112.75-112.72 22.64 22.63a16 16 0 0 0 22.63 0l42.17-42.18a16 16 0 0 0 0-22.62zM412.5 318a47.77 47.77 0 0 1-23.13 12.81l-104.28 24.08 24.1-104.27A47.86 47.86 0 0 1 322 227.48l21.43-21.42 90.51 90.51zm44.07-44.08l-90.51-90.51 68.69-68.68 90.5 90.5zm125.25-57.37L423.43 58.18 443 38.63 601.37 197zM220 352.07l7.79-33.74c-.11-.11-.26-.17-.37-.28l-112.67-112.8 90.5-90.5 69.63 69.62c.66-.69 1.19-1.48 1.87-2.16l20.62-20.61-69.49-69.48 22.63-22.63a16 16 0 0 0 0-22.63L208.33 4.69a16 16 0 0 0-22.62 0l-181 181a16 16 0 0 0 0 22.62l42.17 42.18a16 16 0 0 0 22.63 0l22.64-22.63 112.73 112.76A78.72 78.72 0 0 0 220 352.07zM58.18 216.57L38.63 197 197 38.63l19.55 19.55zM413 390.37c-3.07 1-6.09 2.1-9.24 2.83l-27 6.22L487 509.66a8 8 0 0 0 11.31 0l11.32-11.32a8 8 0 0 0 0-11.31z"/></svg>