<svg xmlns="http://www.w3.org/2000/svg" viewBox="0 0 512 512"><!-- Font Awesome Pro 5.15.4 by @fontawesome - https://fontawesome.com License - https://fontawesome.com/license (Commercial License) --><path d="M507.31 185.71l-181-181a16 16 0 0 0-22.62 0l-42.2 42.15a16 16 0 0 0 0 22.63l22.63 22.63-112.74 112.72A80 80 0 0 0 150 243.45l-28.8 124.73L2.34 487a8 8 0 0 0 0 11.31l11.32 11.32a8 8 0 0 0 11.31 0l118.87-118.84L268.56 362a79.85 79.85 0 0 0 38.56-21.4l112.76-112.72 22.63 22.63a16 16 0 0 0 22.63 0l42.17-42.18a16 16 0 0 0 0-22.62zM284.5 318a47.79 47.79 0 0 1-23.12 12.81l-104.29 24.08 24.1-104.27A47.78 47.78 0 0 1 194 227.48l21.43-21.42 90.51 90.51zm44.07-44.08l-90.51-90.51 68.69-68.68 90.5 90.5zm125.25-57.37L295.43 58.18 315 38.63 473.37 197z"/></svg>