<svg xmlns="http://www.w3.org/2000/svg" viewBox="0 0 640 512"><!-- Font Awesome Pro 5.15.4 by @fontawesome - https://fontawesome.com License - https://fontawesome.com/license (Commercial License) --><path d="M517.9 194.2c-18-39.9-57.6-66.2-101.9-66.2H304c0-17.7 14.3-32 32-32h128c17.7 0 32-14.3 32-32V32c0-17.7-14.3-32-32-32H336c-70.6 0-128 57.4-128 128v1.2c-37.7 5.4-70.2 30.1-86 65.1C53 204.9 0 264 0 336v32c0 79.5 64.5 144 144 144h352c79.5 0 144-64.5 144-144v-32c0-72-53.1-131.2-122.1-141.8zM240 160v-32c0-52.9 43.1-96 96-96h128v32H336c-35.3 0-64 28.7-64 64v32h144c25.6 0 49.1 12.3 64 32H160c26.8-35.6 64.3-32 80-32zm256 320H144c-61.8 0-112-50.2-112-112h576c0 61.8-50.2 112-112 112zM32 336c0-61.8 50.2-112 112-112h352c61.8 0 112 50.2 112 112H32z"/></svg>