<svg xmlns="http://www.w3.org/2000/svg" viewBox="0 0 448 512"><!-- Font Awesome Pro 5.15.4 by @fontawesome - https://fontawesome.com License - https://fontawesome.com/license (Commercial License) --><path d="M249.52 256L446.83 58.83a3.996 3.996 0 0 0 0-5.65c-12.5-12.5-32.76-12.5-45.25 0L224.06 230.56l-48.64-48.61C185.88 166.57 192 148 192 128c0-53.02-42.98-96-96-96S0 74.98 0 128s42.98 96 96 96c20.01 0 38.58-6.12 53.96-16.6l48.63 48.6-48.63 48.6C134.58 294.12 116.01 288 96 288c-53.02 0-96 42.98-96 96s42.98 96 96 96 96-42.98 96-96c0-20-6.12-38.57-16.58-53.95l48.64-48.61 177.52 177.38c12.5 12.5 32.76 12.5 45.25 0a3.996 3.996 0 0 0 0-5.65L249.52 256zM96 192c-35.29 0-64-28.71-64-64s28.71-64 64-64 64 28.71 64 64-28.71 64-64 64zm0 256c-35.29 0-64-28.71-64-64s28.71-64 64-64 64 28.71 64 64-28.71 64-64 64z"/></svg>