<svg xmlns="http://www.w3.org/2000/svg" viewBox="0 0 512 512"><!-- Font Awesome Pro 5.15.4 by @fontawesome - https://fontawesome.com License - https://fontawesome.com/license (Commercial License) --><path d="M130.25 311.84l45.88-6.55a79.17 79.17 0 0 0 3.1 20l-44.11 29.4a16 16 0 0 0-4.43 22.19c3.41 5.09 12.87 10.64 22.19 4.43L194 353.93c14.62 18.19 36.81 30.07 62 30.07a79.26 79.26 0 0 0 45.63-14.49l-23.29-23.29A47.3 47.3 0 0 1 256 352a48.05 48.05 0 0 1-48-48v-28.12l-32-32V273l-50.25 7.18a16 16 0 0 0-13.59 18.11c1.97 13.58 15.36 13.95 18.09 13.55zM256 8C119 8 8 119 8 256s111 248 248 248 248-111 248-248S393 8 256 8zm0 464c-119.1 0-216-96.9-216-216a214.87 214.87 0 0 1 52.56-140.81l304.25 304.25A214.87 214.87 0 0 1 256 472zm-44.16-282.78A48 48 0 0 1 304 208v73.38zm207.6 207.59l-84.37-84.36a67.57 67.57 0 0 0 .8-7.16l45.88 6.55c2.73.4 16.12 0 18.09-13.57a16 16 0 0 0-13.59-18.11L336 273v-26l50.25-7.18a16 16 0 1 0-4.5-31.68L336 214.69c0-17.31-1.41-21.43-3.23-28l44.11-29.4a16 16 0 0 0-17.76-26.62l-41.07 27.38C303.38 139.88 281.19 128 256 128c-28.64 0-53.4 15.26-67.46 37.92l-73.35-73.36A214.87 214.87 0 0 1 256 40c119.1 0 216 96.9 216 216a214.87 214.87 0 0 1-52.56 140.81z"/></svg>