<svg xmlns="http://www.w3.org/2000/svg" viewBox="0 0 512 512"><!-- Font Awesome Pro 5.15.4 by @fontawesome - https://fontawesome.com License - https://fontawesome.com/license (Commercial License) --><path d="M400 160c-8.8 0-16 7.2-16 16s7.2 16 16 16 16-7.2 16-16-7.2-16-16-16zm88.7-26.7l-91.9-25.8 11.1-5.6c12.4-6.2 23-15.6 30.7-27.1l18.1-27.2c2.5-3.7 1.5-8.6-2.2-11.1l-13.3-8.9c-3.7-2.5-8.6-1.5-11.1 2.2l-18 27.2c-4.6 7-11 12.6-18.5 16.3L351 94.6l-33.8-9.5 8.3-10.3c6.8-8.5 10.5-19.1 10.5-30V8c0-4.4-3.6-8-8-8h-16c-4.4 0-8 3.6-8 8v36.8c0 3.6-1.2 7.1-3.5 10l-16.8 20.9-16.1-4.5c-6.9-1.9-11.7-8.2-11.7-15.4V8c0-4.4-3.6-8-8-8h-16c-4.4 0-8 3.6-8 8v47.8c0 21.5 14.3 40.4 35 46.2l78.9 22.2L304 192H96c-53 0-96 43-96 96v32h32v27.5l-11.9 31.8c-4.6 12.2-5.3 25.4-2.2 38l23 72.4C45.1 503 57.5 512 71.4 512h47.7c20.8 0 36.1-19.5 31.1-39.7l-17-68.6 19.4-51.7H256v128c0 17.7 14.3 32 32 32h64c17.7 0 32-14.3 32-32V320l32-64h48c26.5 0 48-21.5 48-48v-43.9c0-14.3-9.6-26.9-23.3-30.8zM480 208c0 8.8-7.2 16-16 16h-67.8L352 312.4V480h-64V320H130.4l-30.7 81.8 19.4 78.2H71.4l-22.6-71.2c-1.4-6.1-.9-12.3 1.3-18.2l14-37.2V288H32c0-35.3 28.7-64 64-64h227.8l33.7-67.4c6.9-13.7 22.5-20.6 37.3-16.5l73.6 20.7c6.9 1.9 11.7 8.2 11.7 15.4V208z"/></svg>