<svg xmlns="http://www.w3.org/2000/svg" viewBox="0 0 640 512"><!-- Font Awesome Pro 5.15.4 by @fontawesome - https://fontawesome.com License - https://fontawesome.com/license (Commercial License) --><path d="M283.7 226.8l-8.2-16.5c-1.5-3-5.7-3-7.2 0l-8.2 16.5-18.2 2.7c-3.3.5-4.6 4.5-2.2 6.8l13.2 12.9-3.1 18.2c-.6 3.3 2.9 5.7 5.8 4.2l16.3-8.6 16.3 8.6c2.9 1.5 6.4-.9 5.8-4.2l-3.1-18.2 13.2-12.9c2.4-2.3 1.1-6.3-2.2-6.8l-18.2-2.7zm96 0l-8.2-16.5c-1.5-3-5.7-3-7.2 0l-8.2 16.5-18.2 2.7c-3.3.5-4.6 4.5-2.2 6.8l13.2 12.9-3.1 18.2c-.6 3.3 2.9 5.7 5.8 4.2l16.3-8.6 16.3 8.6c2.9 1.5 6.4-.9 5.8-4.2l-3.1-18.2 13.2-12.9c2.4-2.3 1.1-6.3-2.2-6.8l-18.2-2.7zm259-.6l-15.2-22.8C579.6 137.7 516.3 144 485.2 144H271.8L247 111.6c17.3-28 17.5-64.4-1.2-92.7C238.2 7.4 225.4.6 211.6.5c-11 0-21.3 4.3-29.1 12l-14.9 14.9-15.8-15.8C144.3 4.1 134.4 0 123.8 0 110.6 0 98.3 6.6 91 17.6 76.2 40 74.7 68.1 85.5 91.5l-75.2 91.9c-11.7 14.3-13.6 33.9-4.8 50l15.9 29.1C30 278.3 46.9 288 65.6 288H100c12.8 0 24.8-4.5 34.1-12.7l14.6-12.2 27.2 63.5v138.7c0 25.7 20.9 46.7 46.7 46.7h50.6c25.7 0 46.7-20.9 46.7-46.7V416h113.3v49.3c0 25.7 20.9 46.7 46.7 46.7h49.3c25.7 0 46.7-20.9 46.7-46.7V234.8c0-16.4-4.7-31.6-12.4-44.9 13 7.8 24.5 18.2 33.2 31.3L612 244c2.4 3.7 7.4 4.7 11.1 2.2l13.3-8.9c3.7-2.4 4.7-7.4 2.3-11.1zM544 465.3c0 8.1-6.6 14.7-14.7 14.7H480c-8.1 0-14.7-6.6-14.7-14.7V384H288v81.3c0 8.1-6.6 14.7-14.7 14.7h-50.6c-8.1 0-14.7-6.6-14.7-14.7V336h336v129.3zm0-161.3H201.1l-39.8-93-48.1 40.1c-3.4 3.1-8.2 4.9-13.1 4.9H65.6c-6.9 0-13.3-3.4-16.2-8.7l-15.9-29.1c-2.6-4.7-2-10.1 1.5-14.4l82.9-101.2c3.1-3.8 8.2-6 13.7-6.3-2.8-1.7-5.8-3.1-8.3-5.5-15.1-15.1-16.9-38.3-5.6-55.4 1.4-2.2 3.8-3.3 6.2-3.3 1.9 0 3.8.7 5.3 2.2l38.5 38.5 37.5-37.5c1.8-1.8 4.1-2.7 6.4-2.7 2.9 0 5.8 1.4 7.5 4 13.8 20.9 11.5 49.4-6.9 67.8-2.1 2.1-4.4 3.9-6.8 5.5L256 176h229.3c32.5 0 58.8 26.3 58.8 58.8V304zm-68.3-77.2l-8.2-16.5c-1.5-3-5.7-3-7.2 0l-8.2 16.5-18.2 2.7c-3.3.5-4.6 4.5-2.2 6.8l13.2 12.9-3.1 18.2c-.6 3.3 2.9 5.7 5.8 4.2l16.3-8.6 16.3 8.6c2.9 1.5 6.4-.9 5.8-4.2l-3.1-18.2 13.2-12.9c2.4-2.3 1.1-6.3-2.2-6.8l-18.2-2.7z"/></svg>