<svg xmlns="http://www.w3.org/2000/svg" viewBox="0 0 512 512"><!-- Font Awesome Pro 5.15.4 by @fontawesome - https://fontawesome.com License - https://fontawesome.com/license (Commercial License) --><path d="M503.67 232.35l-24.81 1.03c-4.5-44.89-22.28-85.84-49.31-118.94l18.31-16.84c3.35-3.08 3.46-8.33.24-11.54l-22.15-22.15c-3.21-3.21-8.46-3.11-11.54.24l-16.84 18.31c-33.1-27.03-74.05-44.81-118.94-49.31l1.03-24.81a7.997 7.997 0 0 0-7.99-8.33h-31.32c-4.55 0-8.18 3.79-7.99 8.33l1.03 24.81c-44.88 4.5-85.84 22.28-118.94 49.31L97.6 64.15c-3.08-3.35-8.33-3.46-11.54-.24L63.91 86.05a7.99 7.99 0 0 0 .24 11.54l18.31 16.84c-27.04 33.1-44.81 74.05-49.31 118.94l-24.81-1.03c-4.55-.18-8.34 3.45-8.34 8v31.32c0 4.55 3.79 8.18 8.33 7.99l24.81-1.03c4.5 44.89 22.28 85.84 49.31 118.94l-18.3 16.84c-3.35 3.08-3.46 8.33-.24 11.54l22.15 22.15c3.21 3.22 8.46 3.11 11.54-.24l16.84-18.31c33.1 27.04 74.05 44.81 118.94 49.31l-1.03 24.81a7.997 7.997 0 0 0 7.99 8.33h31.32c4.55 0 8.18-3.79 7.99-8.33l-1.03-24.81c44.89-4.5 85.84-22.28 118.94-49.31l16.84 18.31c3.08 3.35 8.33 3.46 11.54.24l22.15-22.15a7.99 7.99 0 0 0-.24-11.54l-18.31-16.84c27.04-33.1 44.81-74.05 49.31-118.94l24.81 1.03c4.55.19 8.33-3.44 8.33-7.99v-31.32c.01-4.55-3.78-8.18-8.32-7.99zm-56.92 2.37l-96.49 4.02c-2.48-13.64-7.74-26.27-15.34-37.24l70.91-65.24c22.13 27.64 36.82 61.45 40.92 98.46zM256 320c-35.29 0-64-28.71-64-64s28.71-64 64-64 64 28.71 64 64-28.71 64-64 64zm119.74-213.83l-65.24 70.91c-10.97-7.6-23.6-12.86-37.24-15.34l4.02-96.49c37.01 4.1 70.82 18.79 98.46 40.92zM234.72 65.25l4.02 96.49c-13.64 2.48-26.27 7.74-37.24 15.34l-65.24-70.91c27.64-22.13 61.45-36.82 98.46-40.92zm-128.55 71.01l70.91 65.24c-7.6 10.97-12.86 23.6-15.34 37.24l-96.49-4.02c4.1-37.01 18.79-70.82 40.92-98.46zM65.25 277.28l96.49-4.02c2.48 13.64 7.74 26.27 15.34 37.24l-70.91 65.24c-22.13-27.64-36.82-61.45-40.92-98.46zm71.01 128.55l65.24-70.91c10.97 7.6 23.6 12.86 37.24 15.34l-4.02 96.49c-37.01-4.1-70.82-18.79-98.46-40.92zm141.02 40.92l-4.02-96.49c13.64-2.48 26.27-7.74 37.24-15.34l65.24 70.91c-27.64 22.13-61.45 36.82-98.46 40.92zm128.55-71.01l-70.91-65.24c7.6-10.97 12.86-23.6 15.34-37.24l96.49 4.02c-4.1 37.01-18.79 70.82-40.92 98.46z"/></svg>