<svg xmlns="http://www.w3.org/2000/svg" viewBox="0 0 448 512"><!-- Font Awesome Pro 5.15.4 by @fontawesome - https://fontawesome.com License - https://fontawesome.com/license (Commercial License) --><path d="M253 13.4c-15.3-17.9-42.8-17.9-58.1 0L9.3 230.9c-12.4 14.5-12.4 35.6 0 50.2L195 498.6c15.3 17.9 42.8 17.9 58.1 0l185.6-217.5c12.4-14.5 12.4-35.6 0-50.2L253 13.4zm161.4 246.9L228.7 477.8c-2.5 2.9-6.9 2.9-9.4 0L33.6 260.3c-2.1-2.5-2.1-6.2 0-8.6L219.3 34.2c2.5-2.9 6.9-2.9 9.4 0l185.7 217.5c2.1 2.5 2.1 6.1 0 8.6z"/></svg>