<svg xmlns="http://www.w3.org/2000/svg" viewBox="0 0 512 512"><!-- Font Awesome Pro 5.15.4 by @fontawesome - https://fontawesome.com License - https://fontawesome.com/license (Commercial License) --><path d="M502.1 232.1L279.9 9.9C273.3 3.3 264.6 0 256 0s-17.3 3.3-23.9 9.9L9.9 232.1c-13.2 13.2-13.2 34.5 0 47.7L232.1 502c6.6 6.6 15.2 9.9 23.9 9.9s17.3-3.3 23.9-9.9l222.2-222.2c13.2-13.1 13.2-34.5 0-47.7zM240 464.7L61.2 285.9 240 362.5zm0-137L43.7 243.6 240 47.3zm32 137V362.5l178.8-76.6zm0-137V47.3l196.3 196.3z"/></svg>