<svg xmlns="http://www.w3.org/2000/svg" viewBox="0 0 512 512"><!-- Font Awesome Pro 5.15.4 by @fontawesome - https://fontawesome.com License - https://fontawesome.com/license (Commercial License) --><path d="M502.61 233.32L278.68 9.39C272.42 3.13 264.21 0 256 0s-16.42 3.13-22.68 9.39L9.39 233.32c-12.52 12.53-12.52 32.83 0 45.36l223.93 223.93c6.26 6.26 14.47 9.39 22.68 9.39s16.42-3.13 22.68-9.39l223.93-223.93c12.52-12.53 12.52-32.83 0-45.36zM255.95 479.98L32.02 255.95 255.95 32.01c.01 0 .02-.01.05-.01l.05.02 223.93 224.03-224.03 223.93zM330.89 224H208c-26.51 0-48 21.49-48 48v40c0 4.42 3.58 8 8 8h16c4.42 0 8-3.58 8-8v-40c0-8.84 7.16-16 16-16h122.89l-54.63 50.43c-3.25 3-3.45 8.06-.45 11.3l10.84 11.74c3 3.25 8.06 3.45 11.3.45l78.4-72.36c4.87-4.52 7.66-10.94 7.66-17.58s-2.78-13.06-7.72-17.62l-78.34-72.31c-3.25-3-8.31-2.79-11.3.45l-10.84 11.74c-3 3.25-2.79 8.31.45 11.3L330.89 224z"/></svg>