<svg xmlns="http://www.w3.org/2000/svg" viewBox="0 0 512 512"><!-- Font Awesome Pro 5.15.4 by @fontawesome - https://fontawesome.com License - https://fontawesome.com/license (Commercial License) --><path d="M256 224a32 32 0 1 0 32 32 32 32 0 0 0-32-32zm248 224h-24V96a64 64 0 0 0-64-64H96a64 64 0 0 0-64 64v352H8a8 8 0 0 0-8 8v16a8 8 0 0 0 8 8h496a8 8 0 0 0 8-8v-16a8 8 0 0 0-8-8zm-56 0H64V96a32 32 0 0 1 32-32h320a32 32 0 0 1 32 32zM256 96a160 160 0 1 0 160 160A160 160 0 0 0 256 96zm0 288a128 128 0 1 1 128-128 128.14 128.14 0 0 1-128 128z"/></svg>