<svg xmlns="http://www.w3.org/2000/svg" viewBox="0 0 496 512"><!-- Font Awesome Pro 5.15.4 by @fontawesome - https://fontawesome.com License - https://fontawesome.com/license (Commercial License) --><path d="M394.67 192H101.33C93.97 192 88 199.16 88 208v96c0 8.84 5.97 16 13.33 16h293.33c7.36 0 13.33-7.16 13.33-16v-96c.01-8.84-5.96-16-13.32-16zM376 288H120v-64h256v64zM248 8C111.03 8 0 119.03 0 256s111.03 248 248 248 248-111.03 248-248S384.97 8 248 8zm0 464c-119.1 0-216-96.9-216-216S128.9 40 248 40s216 96.9 216 216-96.9 216-216 216z"/></svg>