<svg xmlns="http://www.w3.org/2000/svg" viewBox="0 0 576 512"><!-- Font Awesome Pro 5.15.4 by @fontawesome - https://fontawesome.com License - https://fontawesome.com/license (Commercial License) --><path d="M544,112v64a64,64,0,0,1-64,64H448V480a32,32,0,0,1-32,32H352a32,32,0,0,1-32-32V384H224v96a32,32,0,0,1-32,32H128a32,32,0,0,1-32-32V320a95,95,0,0,1,13.46-48.26A80,80,0,0,1,32,192a16,16,0,0,1,32,0,48.05,48.05,0,0,0,48,48h27.05A95.48,95.48,0,0,1,192,224h79.94L34.88,26.45a8,8,0,0,1-1-11.27L44.11,2.88a8,8,0,0,1,11.27-1L304,209V48a16,16,0,0,1,16.12-16,15.67,15.67,0,0,1,11.2,4.72L358.6,64h69.62c10.92,0,23.74,7.93,28.62,17.69L464,96h64A16,16,0,0,1,544,112ZM288,256H192a64.07,64.07,0,0,0-64,64V480h64V352h96Zm128,26.48-96-24V352h32V480h64ZM512,128H444.22l-16-32H345.34L336,86.66V229.52l80,20V208h64a32,32,0,0,0,32-32Zm-96,0a16,16,0,1,1-16-16A16,16,0,0,1,416,128Z"/></svg>