<svg xmlns="http://www.w3.org/2000/svg" viewBox="0 0 576 512"><!-- Font Awesome Pro 5.15.4 by @fontawesome - https://fontawesome.com License - https://fontawesome.com/license (Commercial License) --><path d="M528,96H464l-7.16-14.31C452,71.92,439.13,64,428.22,64H358.59L331.31,36.72A15.57,15.57,0,0,0,320.13,32,16,16,0,0,0,304,48V224H192a95.53,95.53,0,0,0-52.94,16H112a48.05,48.05,0,0,1-48-48,16,16,0,0,0-32,0,79.94,79.94,0,0,0,77.47,79.73A95.08,95.08,0,0,0,96,320V480a32,32,0,0,0,32,32h64a32,32,0,0,0,32-32V384h96v96a32,32,0,0,0,32,32h64a32,32,0,0,0,32-32V240h32a64,64,0,0,0,64-64V112A16,16,0,0,0,528,96ZM416,480H352V352H192V480H128V320a64.07,64.07,0,0,1,64-64H310.06L416,282.48Zm96-304a32,32,0,0,1-32,32H416v41.52l-80-20V86.66L345.34,96h82.88l16,32H512Zm-96-48a16,16,0,1,1-16-16A16,16,0,0,1,416,128Z"/></svg>