<svg xmlns="http://www.w3.org/2000/svg" viewBox="0 0 576 512"><!-- Font Awesome Pro 5.15.4 by @fontawesome - https://fontawesome.com License - https://fontawesome.com/license (Commercial License) --><path d="M575.6 309.8l-5.1-15.2c-1.4-4.2-5.9-6.5-10.1-5.1L526 301.1 451.5 77.9c-2.7-8.1-8.4-14.7-16-18.5-7.7-3.8-16.3-4.4-24.4-1.7L176.3 136l-18-50.7C146.9 53.3 116.7 32 82.8 32H8c-4.4 0-8 3.6-8 8v16c0 4.4 3.6 8 8 8h74.8c20.3 0 38.4 12.8 45.2 31.9l96.7 271.9c-23.3 17.2-37.2 46.5-31.4 78.9 5.6 31.3 30.4 57 61.5 63.5 51.7 10.7 97.2-28.4 97.2-78.2 0-13.1-3.4-25.2-9-36.1l227.5-76c4.2-1.4 6.5-5.9 5.1-10.1zM187 166.1l106.4-35.5 25 74.9c1.4 4.2 5.9 6.5 10.1 5.1l15.2-5.1c4.2-1.4 6.5-5.9 5.1-10.1l-25-74.9L421.2 88l74.5 223.3-174.4 58.1C307.6 358.7 290.7 352 272 352c-6.3 0-12.3.9-18.1 2.3L187 166.1zM272 480c-26.5 0-48-21.5-48-48s21.5-48 48-48 48 21.5 48 48-21.5 48-48 48z"/></svg>