<svg xmlns="http://www.w3.org/2000/svg" viewBox="0 0 576 512"><!-- Font Awesome Pro 5.15.4 by @fontawesome - https://fontawesome.com License - https://fontawesome.com/license (Commercial License) --><path d="M570.5 294.6c-1.4-4.2-5.9-6.5-10.1-5.1l-239.1 79.8C307.6 358.7 290.7 352 272 352c-6.3 0-12.3.9-18.1 2.3l-95.7-269C146.9 53.3 116.7 32 82.8 32H8c-4.4 0-8 3.6-8 8v16c0 4.4 3.6 8 8 8h74.8c20.3 0 38.4 12.8 45.2 31.9l96.7 271.9c-23.3 17.2-37.2 46.5-31.4 78.9 5.6 31.3 30.4 57.1 61.5 63.5C306.5 521 352 481.8 352 432c0-13.1-3.4-25.2-9-36.1l227.5-76c4.2-1.4 6.5-5.9 5.1-10.1l-5.1-15.2zM272 480c-26.5 0-48-21.5-48-48s21.5-48 48-48 48 21.5 48 48-21.5 48-48 48z"/></svg>