<svg xmlns="http://www.w3.org/2000/svg" viewBox="0 0 512 512"><!-- Font Awesome Pro 5.15.4 by @fontawesome - https://fontawesome.com License - https://fontawesome.com/license (Commercial License) --><path d="M368 160.1c0 8.8 7.2 16 16 16s16-7.2 16-16-7.2-16-16-16-16 7.1-16 16zM384 64c-46.5 0-85.3 33.1-94.1 77.1-29.2-36.6-48.9-80.3-56-127.3C231.8.6 215-5.1 206 5.5c-35.3 41.7-53 88.5-58.7 122.3-25.3-24.4-46-53.3-60.4-86-5.5-12.6-23.3-13.1-29.1-.7-16 34-25.3 71.9-25.8 112-.6 42.9 9.8 130.2 110.6 211.8L13.8 397.1C1.5 400.2-3.9 414.3 3 425c19.9 30.7 68.9 82.6 174.8 87 13.4.6 22.7-6.8 25.2-9l63.9-54.8H320c88.4 0 160-71.7 160-160.1V160l32-96H384zm-174.1-9.7c14.1 50.3 41.2 96 78.1 133V200c-41.1-7.4-78.8-24.3-111.3-47.8 3.2-41.8 19.4-75.8 33.2-97.9zM448 154.7v133.5c0 70.6-57.4 128.1-128 128.1h-64.9s-75.2 63.8-76 63.8c-74.6-3.1-115.8-32.4-137.4-56.9l170.8-42.7C164.9 341.8 62.4 276.4 64 153.5c.3-22.7 3.7-44.9 10.3-66.4C156.4 226.2 300 235.9 320 238.2v-78.1c0-35.4 28.7-64.1 64-64.1h83.6L448 154.7z"/></svg>