<svg xmlns="http://www.w3.org/2000/svg" viewBox="0 0 512 512"><!-- Font Awesome Pro 5.15.4 by @fontawesome - https://fontawesome.com License - https://fontawesome.com/license (Commercial License) --><path d="M433.86 304.31c21.47-18.17 40.59-39.34 55.75-63.8 2.38-3.83 1.01-8.95-2.89-11.21l-13.86-8.03c-3.73-2.16-8.41-.89-10.69 2.77-12.29 19.75-27.49 37.08-44.51 52.2l-77.71-134.59C347.39 128.03 352 112.63 352 96c0-53.02-42.98-96-96-96s-96 42.98-96 96c0 16.63 4.61 32.03 12.05 45.66L96.11 273.19c-15.81-14.44-30.21-30.57-41.77-49.14-2.28-3.66-6.96-4.94-10.69-2.77l-13.86 8.03c-3.9 2.26-5.27 7.37-2.89 11.21 14.43 23.29 32.76 43.22 53 60.76L0 439.66l7.02 58.25c1.01 8.35 8.11 14.1 15.88 14.1 2.08 0 4.21-.41 6.29-1.3l53.95-23.04 78.85-136.57c30.37 11.71 62.83 18.33 96.26 18.33 32.07 0 63.27-6.12 92.63-16.82l77.98 135.06 53.95 23.04c2.07.88 4.2 1.3 6.29 1.3 7.77 0 14.88-5.75 15.88-14.1l7.02-58.25-78.14-135.35zm-41.75-8.32c-8.87 5.97-18.11 11.3-27.69 16.04l-73.26-126.89c10.11-3.99 19.19-9.78 27.28-16.76l73.67 127.61zM256 32c35.35 0 64 28.65 64 64s-28.65 64-64 64-64-28.65-64-64 28.65-64 64-64zM60.76 462.42l-24.52 10.47-3.19-26.47 160.52-278.04c8.09 6.98 17.17 12.77 27.28 16.76L60.76 462.42zm197.49-125.01c-27.73 0-54.72-5.11-80.11-14.3l75.81-131.31c.7.02 1.34.21 2.04.21s1.35-.19 2.04-.21l76.54 132.57c-24.33 8.22-49.96 13.04-76.32 13.04zm217.51 135.48l-24.52-10.47-70.82-122.66c9.54-4.82 18.74-10.2 27.66-16.1l70.87 122.76-3.19 26.47z"/></svg>