<svg xmlns="http://www.w3.org/2000/svg" viewBox="0 0 640 512"><!-- Font Awesome Pro 5.15.4 by @fontawesome - https://fontawesome.com License - https://fontawesome.com/license (Commercial License) --><path d="M481.01 119.95c14.92.86 27.35-9.89 30.88-24.58L453.47 80c-6.49 27.12 15.51 39.26 27.54 39.95zm54.5 131.8c-29.84-16.98-55.61-31.64-55.61-51.38V192h16.96l28.62 22.03c8.34 6.42 18.74 9.97 29.27 9.97h29.18c21.15 0 40.09-14.17 46.02-34.45l7.4-25.16c5.84-19.8 1.88-41.44-10.62-57.91L569.8 31.59C554.78 11.81 530.98 0 506.14 0H297.16c-19.47 0-33.09 24.04-15.4 41.25l37.49 30.25-32.55 13.42c-16.19 7.94-19.14 32.81 1.13 42.64l48.11 19.25v50.89l-190.3-47.88c-19.18-4.86-39.68 2.83-50.99 19.08L3.76 299.12c-5.03 7.91-5 17.72.03 25.59 1.69 2.62 9.54 13.11 24.99 10.91l115.02-21.8-12.07 17.3c-5.03 7.91-5 17.72.03 25.59 6.7 10.45 17.87 11.86 24.15 11.05l202.87-27.39c8.33 16.71 18.17 32.35 31.17 45.73-130.55 8.75-252.39 36.8-364.13 61.33C10.86 450.7.01 464.1.01 479.31c0 18 14.75 32.64 32.87 32.64l474.01.05c42.65 0 83.14-19.77 108.29-52.89 23.4-30.8 30.49-68.73 19.9-106.8-14.5-52.15-61.68-79-99.57-100.56zM41.72 300.62l79.17-113.41c3.75-5.39 10.59-7.86 17-6.36l84.07 21.02L170 276.3 41.72 300.62zm127.18 33.1l86.23-123.48 80.79 20.5c0 47.9 8.68 72.63 10.6 79L168.9 333.72zM506.89 480H32c230.53-56.77 352.62-62.36 400.47-64.02 15.54-.53 21.22-20.83 8.22-29.34-48.96-32.23-72.76-80.92-72.76-148.83V135.98c0-6.55-3.97-12.42-10.06-14.86l-38.15-15.23 36.71-15.09c5.22-2.16 8.94-6.91 9.75-12.5s-1.41-11.2-5.81-14.75L321.15 32h184.99c14.9 0 29.18 7.08 38.18 18.95l56.92 74.91c6.38 8.38 8.4 19.39 5.44 29.48l-7.4 25.19c-2 6.75-8.31 11.47-15.34 11.47h-29.18c-3.56 0-6.9-1.14-9.75-3.33l-32.96-25.36a16.01 16.01 0 0 0-9.75-3.31h-38.4c-8.84 0-16 7.16-16 16v24.38c0 38.34 34.87 58.19 71.8 79.19 36.18 20.59 73.58 41.89 84.57 81.33 19.36 69.86-41.14 119.1-97.38 119.1z"/></svg>