<svg xmlns="http://www.w3.org/2000/svg" viewBox="0 0 448 512"><!-- Font Awesome Pro 5.15.4 by @fontawesome - https://fontawesome.com License - https://fontawesome.com/license (Commercial License) --><path d="M400 354.26V157.74c27.56-7.14 48-31.95 48-61.74 0-35.35-28.65-64-64-64-29.79 0-54.6 20.45-61.74 48H125.74C118.6 52.45 93.79 32 64 32 28.65 32 0 60.65 0 96c0 29.79 20.44 54.6 48 61.74v196.53C20.44 361.4 0 386.21 0 416c0 35.35 28.65 64 64 64 29.79 0 54.6-20.44 61.74-48h196.53c7.14 27.56 31.95 48 61.74 48 35.35 0 64-28.65 64-64-.01-29.79-20.45-54.6-48.01-61.74zM322.26 400H125.74c-5.8-22.41-23.32-39.93-45.74-45.74V157.74c22.41-5.8 39.93-23.32 45.74-45.74h196.53c5.8 22.41 23.32 39.93 45.74 45.74v196.53c-22.42 5.8-39.94 23.32-45.75 45.73zM384 64c17.64 0 32 14.36 32 32s-14.36 32-32 32-32-14.36-32-32 14.36-32 32-32zM32 96c0-17.64 14.36-32 32-32s32 14.36 32 32-14.36 32-32 32-32-14.36-32-32zm32 352c-17.64 0-32-14.36-32-32s14.36-32 32-32 32 14.36 32 32-14.36 32-32 32zm320 0c-17.64 0-32-14.36-32-32s14.36-32 32-32 32 14.36 32 32-14.36 32-32 32z"/></svg>