<svg xmlns="http://www.w3.org/2000/svg" viewBox="0 0 448 512"><!-- Font Awesome Pro 5.15.4 by @fontawesome - https://fontawesome.com License - https://fontawesome.com/license (Commercial License) --><path d="M384 352c-6.3 0-12.26 1.19-18.01 2.89l-32.42-54.02C344.95 289.31 352 273.49 352 256s-7.05-33.31-18.42-44.87L366 157.11c5.75 1.7 11.71 2.89 18.01 2.89 35.35 0 64-28.65 64-64s-28.65-64-64-64c-29.79 0-54.6 20.45-61.74 48H125.74C118.6 52.45 93.79 32 64 32 28.65 32 0 60.65 0 96c0 29.79 20.44 54.6 48 61.74v196.53C20.44 361.4 0 386.21 0 416c0 35.35 28.65 64 64 64 29.79 0 54.6-20.44 61.74-48h196.53c7.14 27.56 31.95 48 61.74 48 35.35 0 64-28.65 64-64-.01-35.35-28.66-64-64.01-64zm-304 2.26V157.74c22.41-5.8 39.93-23.32 45.74-45.74h196.53c2.86 11.04 8.4 20.99 16.16 28.87l-32.42 54.02c-5.75-1.7-11.71-2.89-18.01-2.89-35.35 0-64 28.65-64 64s28.65 64 64 64c6.3 0 12.26-1.19 18.01-2.89l32.42 54.02c-7.76 7.88-13.3 17.83-16.16 28.87H125.74A63.814 63.814 0 0 0 80 354.26zM288 288c-17.64 0-32-14.36-32-32s14.36-32 32-32 32 14.36 32 32-14.36 32-32 32zm96-224c17.64 0 32 14.36 32 32s-14.36 32-32 32-32-14.36-32-32 14.36-32 32-32zM32 96c0-17.64 14.36-32 32-32s32 14.36 32 32-14.36 32-32 32-32-14.36-32-32zm32 352c-17.64 0-32-14.36-32-32s14.36-32 32-32 32 14.36 32 32-14.36 32-32 32zm320 0c-17.64 0-32-14.36-32-32s14.36-32 32-32 32 14.36 32 32-14.36 32-32 32z"/></svg>