<svg xmlns="http://www.w3.org/2000/svg" viewBox="0 0 640 512"><!-- Font Awesome Pro 5.15.4 by @fontawesome - https://fontawesome.com License - https://fontawesome.com/license (Commercial License) --><path d="M624.21 127.93l-112.21.22V112a16 16 0 0 0-32 0v16.21l-112.3.23a15.75 15.75 0 1 0 .09 31.49L480 159.7v67.39l-95.09-25.93a247.11 247.11 0 0 0-129.82 0L160 227.09v-67.45l112.44-.23a15.74 15.74 0 1 0-.1-31.48l-112.34.22V112a16 16 0 0 0-32 0v16.21l-112.3.23a15.75 15.75 0 1 0 .1 31.49l112.2-.23V288a16 16 0 0 0 16 16h54.51a193.92 193.92 0 0 0-52.22 102.71 8.08 8.08 0 0 0 8 9.29h16.38a7.89 7.89 0 0 0 7.73-6.56 162 162 0 0 1 57.47-96.29l27.84 25.3A52.75 52.75 0 0 0 299.38 352h41.24a52.7 52.7 0 0 0 35.63-13.53l28.29-25.7a162 162 0 0 1 58 96.67 7.9 7.9 0 0 0 7.74 6.56h16.38a8.07 8.07 0 0 0 8-9.29A193.91 193.91 0 0 0 442.42 304H496a16 16 0 0 0 16-16V159.64l112.31-.23a15.74 15.74 0 1 0-.1-31.48zM480 272h-72a16 16 0 0 0-10.75 4.16l-42.53 38.64a21.18 21.18 0 0 1-14.1 5.2h-41.24a21.23 21.23 0 0 1-14.13-5.22l-42.5-38.62A16 16 0 0 0 232 272h-72v-11.73L263.53 232a215.1 215.1 0 0 1 112.94 0L480 260.27z"/></svg>