<svg xmlns="http://www.w3.org/2000/svg" viewBox="0 0 512 512"><!-- Font Awesome Pro 5.15.4 by @fontawesome - https://fontawesome.com License - https://fontawesome.com/license (Commercial License) --><path d="M302.87,128c6.68,0,12.75-2.57,18.11-6.35a78.8574,78.8574,0,0,1-1-9.65,80,80,0,1,1,80,80,78.64886,78.64886,0,0,1-9.65-1c-3.79,5.36-6.35,11.43-6.35,18.11v13.26a112.703,112.703,0,0,0,15.9099,1.13245c59.63853,0,111.624-48.159,111.624-111.90443,0-59.6385-48.15906-111.62393-111.90445-111.62393-58.38959,0-111.60974,46.99339-111.60974,111.764L288,112a110.99719,110.99719,0,0,0,1.61,16ZM400,431.99994a32,32,0,0,0,0-64c-2.77,0-5.24.91-7.8,1.57l-21.45-21.45A64,64,0,0,1,352,302.87V209.13a63.99991,63.99991,0,0,1,18.75-45.25l21.45-21.45c2.56.66,5,1.57,7.8,1.57a32,32,0,1,0-32-32c0,2.77.91,5.24,1.57,7.8l-21.45,21.45A63.99991,63.99991,0,0,1,302.87,160H209.13a63.99991,63.99991,0,0,1-45.25-18.75L142.43,119.8c.66-2.56,1.57-5.03,1.57-7.8a32,32,0,1,0-32,32c2.8,0,5.24-.91,7.8-1.57l21.45,21.45A63.99991,63.99991,0,0,1,160,209.13v93.74a64,64,0,0,1-18.75,45.24993L119.8,369.57c-2.56-.66-5.03-1.57-7.8-1.57a32,32,0,1,0,32,32c0-2.8-.91-5.24-1.57-7.8l21.45-21.46A63.99973,63.99973,0,0,1,209.13,352h93.74a63.99973,63.99973,0,0,1,45.25,18.74l21.45,21.46c-.66,2.56-1.57,5-1.57,7.8A32,32,0,0,0,400,431.99994ZM320,320H192V192H320Zm192.00593,79.60957c0-58.38963-46.9934-111.60983-111.764-111.60983L400,288a110.99719,110.99719,0,0,0-16,1.61v13.26c0,6.68,2.57,12.75,6.35,18.11a78.84341,78.84341,0,0,1,9.65-1,80,80,0,1,1-80,80,78.66278,78.66278,0,0,1,1-9.65c-5.36-3.78-11.43-6.35-18.11-6.35h-13.28a112.70134,112.70134,0,0,0-1.13248,15.91c0,59.6385,48.159,111.624,111.90439,111.624C460.03838,511.51394,512.00593,463.34218,512.00593,399.60957ZM209.11,383.98c-6.68,0-12.75,2.57-18.11,6.35a78.66278,78.66278,0,0,1,1,9.65,80,80,0,1,1-80-80,78.84341,78.84341,0,0,1,9.65,1c3.78-5.36,6.35-11.43,6.35-18.11V289.61A110.99719,110.99719,0,0,0,112,288l-.24189-.00026c-65.16452,0-111.764,53.56054-111.764,111.60983,0,64.98207,53.23282,111.90437,111.624,111.90437,64.98206,0,111.90439-53.23282,111.90439-111.624A112.70134,112.70134,0,0,0,222.39,383.98ZM112.11012,223.50245A112.703,112.703,0,0,0,128.02,222.37V209.11c0-6.68-2.56-12.75-6.35-18.11a78.64886,78.64886,0,0,1-9.65,1,80,80,0,1,1,80-80,78.8574,78.8574,0,0,1-1,9.65c5.36,3.78,11.43,6.35,18.11,6.35h13.26A110.99719,110.99719,0,0,0,224,112l.00031-.26192c0-65.16448-53.56048-111.764-111.60974-111.764C47.4085-.02591.48612,53.20687.48612,111.598.48612,176.58012,53.71894,223.50245,112.11012,223.50245Z"/></svg>