<svg xmlns="http://www.w3.org/2000/svg" viewBox="0 0 512 512"><!-- Font Awesome Pro 5.15.4 by @fontawesome - https://fontawesome.com License - https://fontawesome.com/license (Commercial License) --><path d="M471.25 57.59A169.77 169.77 0 0 0 348.47.06c-46.9-1.28-92.87 16.63-126 49.65C195.63 76.34 160 119.94 160 190.56v69.3l-43.34 43.35c-3.13 3.14-9.11 5.32-17.22 2.06A72.53 72.53 0 0 0 0 372.66c0 21.53 15.58 69.06 67.71 71.67 2 39.37 34.35 67.67 71.68 67.67 51.85 0 86.26-52.22 67.39-99.41-1-2.53-3.88-11.28 2.06-17.21l43.3-43.38h70.12c38.87 0 73-10.19 104.34-31.16 46.44-31 77-79.68 84-133.5 6.14-48.13-7.82-94.23-39.35-129.75zm-285 315.14c-13.1 13.08-16.62 32.86-9.16 51.74 23.47 58.7-74.37 78.88-77.4 18.26l-1.45-28.91-28.91-1.45c-50.62-2.54-49-80.3 3.21-80.3a40 40 0 0 1 15 2.89c17.72 7.13 38 4.7 51.81-9.12l26-26a80.2 80.2 0 0 0 46.93 46.87zm292.59-189.44c-5.66 44-31.81 85.46-70 111C382.93 311.6 354.62 320 322.28 320h-81.9A48.24 48.24 0 0 1 192 272v-81.45c0-45.29 16.35-81.73 53-118.15A137.74 137.74 0 0 1 343 32q2.21 0 4.5.06a137.92 137.92 0 0 1 99.81 46.79c25.31 28.49 36.53 65.59 31.53 104.44z"/></svg>