<svg xmlns="http://www.w3.org/2000/svg" viewBox="0 0 576 512"><!-- Font Awesome Pro 5.15.4 by @fontawesome - https://fontawesome.com License - https://fontawesome.com/license (Commercial License) --><path d="M288 32C128.94 32 0 89.31 0 160v192c0 70.69 128.94 128 288 128s288-57.31 288-128V160c0-70.69-128.94-128-288-128zm0 32c25.68 0 50.43 1.46 73.82 4.09l-15.45 60.08C341.86 145.72 315.67 160 288 160s-53.86-14.27-58.37-31.82l-15.45-60.09C237.57 65.46 262.32 64 288 64zm94.84 185.12c-29.35 4.4-61.3 6.88-94.84 6.88-33.79 0-65.96-2.52-95.49-6.97 20.07-19.65 33.38-45.44 37.12-73.47C245.95 185.92 266.66 192 288 192c21.02 0 41.47-5.87 57.68-15.95 3.64 28.08 17.05 53.74 37.16 73.07zM178.26 73.37l16.97 60.04c12.05 42.66-7.64 86.71-44.73 107.47C79.32 223.84 32 194.02 32 160c0-38.27 59.87-71.21 146.26-86.63zM544 352c0 39.14-99.73 96-256 96S32 391.14 32 352V218.47C79.81 259.73 176.38 288 288 288s208.19-28.27 256-69.54V352zM425.61 240.87c-36.04-18.69-56.55-59.84-46.96-101.16l15.56-66.98C482.52 87.87 544 121.21 544 160c0 34-47.28 63.81-118.39 80.87z"/></svg>