<svg xmlns="http://www.w3.org/2000/svg" viewBox="0 0 512 512"><!-- Font Awesome Pro 5.15.4 by @fontawesome - https://fontawesome.com License - https://fontawesome.com/license (Commercial License) --><path d="M471.39 57.58A169.89 169.89 0 0 0 348.54.06C301-1.15 255.67 16.72 222.51 49.7c-26.82 26.63-62.46 70.23-62.46 140.85v69.29l-43.39 43.37c-3.13 3.14-9.11 5.32-17.22 2.06A72.53 72.53 0 0 0 0 372.66c0 21.53 15.58 69.06 67.71 71.67 2 39.37 34.35 67.67 71.68 67.67 51.85 0 86.26-52.22 67.39-99.41-1-2.53-3.88-11.28 2.06-17.21L252.23 352h70.15a189.76 189.76 0 0 0 50.39-6.83 16 16 0 0 0 9.5-23.74A94.12 94.12 0 0 1 368.11 272a96.13 96.13 0 0 1 96-96c8.35 0 17 1.42 27.29 4.49a16 16 0 0 0 20.6-15.36c0-40.48-14.07-77.67-40.61-107.55zM186.23 372.73c-13.1 13.08-16.62 32.86-9.16 51.74 23.47 58.7-74.37 78.88-77.4 18.26l-1.45-28.91-28.91-1.45c-50.62-2.54-49-80.3 3.21-80.3a40 40 0 0 1 15 2.89c17.72 7.13 38 4.7 51.81-9.12l26-26a80.24 80.24 0 0 0 47 46.88zM464.14 144a128.16 128.16 0 0 0-128 128 125.53 125.53 0 0 0 9 46.35 155.14 155.14 0 0 1-22.76 1.65h-81.93a48.24 48.24 0 0 1-48.39-48v-81.44c0-45.29 16.35-81.73 53-118.16a137.79 137.79 0 0 1 98-40.41q2.25 0 4.5.06a138 138 0 0 1 99.87 46.79 127.18 127.18 0 0 1 31 66.13 109 109 0 0 0-14.29-.97z"/></svg>