<svg xmlns="http://www.w3.org/2000/svg" viewBox="0 0 512 512"><!-- Font Awesome Pro 5.15.4 by @fontawesome - https://fontawesome.com License - https://fontawesome.com/license (Commercial License) --><path d="M414.51 117.78l90-56.22a16 16 0 0 0-16.94-27.13l-115.89 72.41C335.19 99.56 295.14 96 256 96 132.7 96 0 131 0 208v160c0 61.85 114.62 112 256 112s256-50.15 256-112V208c0-42.48-40.52-72.13-97.49-90.22zM96 421.46C55.12 405.34 32 384.74 32 368V265.91c16.53 13 38.55 23.58 64 31.8zm144 26.19c-43.14-1.19-80.93-7-112-15.6V306.43c34.85 8 73.52 12.34 112 13.28zm144-15.6c-31.07 8.55-68.86 14.41-112 15.6V319.71c38.48-.94 77.15-5.3 112-13.28zM480 368c0 16.74-23.12 37.34-64 53.46V297.71c25.45-8.22 47.47-18.79 64-31.8zm-224-80c-123.71 0-224-35.82-224-80s100.29-80 224-80a598.54 598.54 0 0 1 74.44 4.61l-98.91 61.82a16 16 0 0 0 16.94 27.13l129.11-80.7C439.16 155.12 480 179.83 480 208c0 44.18-100.29 80-224 80z"/></svg>