<svg xmlns="http://www.w3.org/2000/svg" viewBox="0 0 640 512"><!-- Font Awesome Pro 5.15.4 by @fontawesome - https://fontawesome.com License - https://fontawesome.com/license (Commercial License) --><path d="M632 240h-24v-96c0-26.5-21.5-48-48-48h-32c-5.6 0-11 1.2-16 2.9V80c0-26.5-21.5-48-48-48h-32c-26.5 0-48 21.5-48 48v160H256V80c0-26.5-21.5-48-48-48h-32c-26.5 0-48 21.5-48 48v18.9c-5-1.8-10.4-2.9-16-2.9H80c-26.5 0-48 21.5-48 48v96H8c-4.4 0-8 3.6-8 8v16c0 4.4 3.6 8 8 8h24v96c0 26.5 21.5 48 48 48h32c5.6 0 11-1.2 16-2.9V432c0 26.5 21.5 48 48 48h32c26.5 0 48-21.5 48-48V272h128v160c0 26.5 21.5 48 48 48h32c26.5 0 48-21.5 48-48v-18.9c5 1.8 10.4 2.9 16 2.9h32c26.5 0 48-21.5 48-48v-96h24c4.4 0 8-3.6 8-8v-16c0-4.4-3.6-8-8-8zM112 384H80c-8.8 0-16-7.2-16-16V144c0-8.8 7.2-16 16-16h32c8.8 0 16 7.2 16 16v224c0 8.8-7.2 16-16 16zm112 48c0 8.8-7.2 16-16 16h-32c-8.8 0-16-7.2-16-16V80c0-8.8 7.2-16 16-16h32c8.8 0 16 7.2 16 16v352zm256 0c0 8.8-7.2 16-16 16h-32c-8.8 0-16-7.2-16-16V80c0-8.8 7.2-16 16-16h32c8.8 0 16 7.2 16 16v352zm96-64c0 8.8-7.2 16-16 16h-32c-8.8 0-16-7.2-16-16V144c0-8.8 7.2-16 16-16h32c8.8 0 16 7.2 16 16v224z"/></svg>