<svg xmlns="http://www.w3.org/2000/svg" viewBox="0 0 576 512"><!-- Font Awesome Pro 5.15.4 by @fontawesome - https://fontawesome.com License - https://fontawesome.com/license (Commercial License) --><path d="M568 256h-34.7l7.1-64H560c10.4 0 18-12.2 15.5-24.9l-24-120C549.7 38.2 543.3 32 536 32H40c-7.3 0-13.7 6.2-15.5 15.1l-24 120C-2 179.8 5.6 192 16 192h19.5l7.1 64H8c-4.4 0-8 3.6-8 8v16c0 4.4 3.6 8 8 8h38.2L64 448v16c0 8.8 7.2 16 16 16h64c8.8 0 16-7.2 16-16v-16h256v16c0 8.8 7.2 16 16 16h64c8.8 0 16-7.2 16-16v-16l17.8-160H568c4.4 0 8-3.6 8-8v-16c0-4.4-3.6-8-8-8zm-26.6-96h-78.7l-19.2-96h78.7l19.2 96zm-395.5 0l19.2-96H272v96H145.9zM304 64h106.9l19.2 96H304V64zM53.8 64h78.7l-19.2 96H34.6l19.2-96zM480 448h-32v-32H128v32H96L67.8 192h440.5L480 448z"/></svg>