<svg xmlns="http://www.w3.org/2000/svg" viewBox="0 0 640 512"><!-- Font Awesome Pro 5.15.4 by @fontawesome - https://fontawesome.com License - https://fontawesome.com/license (Commercial License) --><path d="M551.1 163.2c-14.9 13.3-28.3 27.2-40.2 41.2-19.5-25.8-43.6-52-71-76.4-70.2 62.7-120 144.3-120 193.6 0 87.5 71.6 158.4 160 158.4s160-70.9 160-158.4c.1-36.6-37-112.2-88.8-158.4zm-57 283.4c-4.7.5-9.2 1.4-14.1 1.4s-9.4-.9-14.1-1.4c-31.8-6.4-55.8-34.2-55.8-67.4 0-14 15.4-46.1 44.5-78.3 7.1 7.6 13.6 15.3 19.4 23l24.1 31.9 25.9-30.5c.1-.1.1-.2.2-.2 16.2 22.2 25.5 46.1 25.5 54.1.1 33.2-23.9 61-55.6 67.4zm85.5-46.6c1.4-6.7 2.2-13.7 2.2-20.8 0-23.3-23.6-71.4-56.6-100.8-9.5 8.4-18 17.3-25.6 26.2-12.4-16.4-27.8-33.1-45.2-48.6-44.7 39.9-76.4 91.9-76.4 123.2 0 7.1.8 14.1 2.2 20.8-17.5-21.6-28.4-48.7-28.4-78.4 0-31.6 32.5-93.2 88.1-149.5 16.8 16.7 32.2 34.3 45.3 51.6l24.1 31.9 25.9-30.5c4.9-5.8 9.9-11.4 15.1-16.8 34.3 39.9 57.5 91.4 57.5 113.3.2 29.8-10.7 56.8-28.2 78.4zM128 416v32H96L67.8 192h272.8c7.5-10.7 15.5-21.4 24.3-32H304V64h106.9l8 40c6-5.3 13.6-8 21.1-8 3.5 0 7 .7 10.3 1.9L443.5 64h78.7l14.3 71.3c4.6-2.4 9.5-4.1 14.6-4.1 6.6 0 12.9 2.4 18.5 6.4l-18.1-90.5C549.7 38.2 543.3 32 536 32H40c-7.3 0-13.7 6.2-15.5 15.1l-24 120C-2 179.8 5.6 192 16 192h19.5l7.1 64H8c-4.4 0-8 3.6-8 8v16c0 4.4 3.6 8 8 8h38.2L64 448v16c0 8.8 7.2 16 16 16h64c8.8 0 16-7.2 16-16v-16h176.8c-8.8-9.8-16.7-20.5-23.3-32H128zm37.1-352H272v96H145.9l19.2-96zM34.6 160l19.2-96h78.7l-19.2 96H34.6z"/></svg>