<svg xmlns="http://www.w3.org/2000/svg" viewBox="0 0 640 512"><!-- Font Awesome Pro 5.15.4 by @fontawesome - https://fontawesome.com License - https://fontawesome.com/license (Commercial License) --><path d="M640 352c0-15.1-6.1-28.9-16-39 .4-24.1-14.4-45-35.8-53.3-7.2-18.5-24.1-31.6-44.2-34.5V224C544 100.5 443.5 0 320 0S96 100.5 96 224v1.2c-20.2 3-37 16.1-44.2 34.5-21.3 8.4-36.2 29.2-35.8 53.3-9.9 10.1-16 23.9-16 39 0 5.5.8 10.8 2.4 16C.8 373.2 0 378.5 0 384c0 15.1 6.1 28.9 16 39-.4 24.1 14.4 45 35.8 53.3C59.9 497.1 80.2 512 104 512c5.5 0 10.8-.8 16-2.4 5.2 1.6 10.5 2.4 16 2.4 30.9 0 56-25.1 56-56 0-7.7-1.6-15.2-4.5-22 2.2-5.2 8.9-23.1 0-44 2.2-5.2 8.9-23.1 0-44 2.2-5.2 8.9-23.1 0-44 2.9-6.8 4.5-14.3 4.5-22 0-30.9-25.1-56-56-56-2.7 0-5.3.8-8 1.2V224c0-105.9 86.1-192 192-192s192 86.1 192 192v1.2c-2.7-.4-5.3-1.2-8-1.2-30.9 0-56 25.1-56 56 0 7.7 1.6 15.2 4.5 22-2.2 5.2-8.9 23.1 0 44-2.2 5.2-8.9 23.1 0 44-2.2 5.2-8.9 23.1 0 44-2.9 6.8-4.5 14.3-4.5 22 0 30.9 25.1 56 56 56 5.5 0 10.8-.8 16-2.4 5.2 1.6 10.5 2.4 16 2.4 23.7 0 44.1-14.9 52.2-35.8 21.3-8.3 36.2-29.1 35.8-53.3 9.9-10.1 16-23.9 16-39 0-5.5-.8-10.8-2.4-16 1.6-5.1 2.4-10.4 2.4-15.9zm-504-96c13.3 0 24 10.7 24 24 0 9.9-6 18.3-14.5 22 8.5 3.7 14.5 12.1 14.5 22s-6 18.3-14.5 22c8.5 3.7 14.5 12.1 14.5 22s-6 18.3-14.5 22c8.5 3.7 14.5 12.1 14.5 22s-6 18.3-14.5 22c8.5 3.7 14.5 12.1 14.5 22 0 13.3-10.7 24-24 24-6.2 0-11.7-2.5-16-6.4-4.3 3.9-9.8 6.4-16 6.4-13.3 0-24-10.7-24-24 0-4 1.2-7.7 3-11-3.3 1.8-7 3-11 3-13.3 0-24-10.7-24-24 0-6.3 2.6-12 6.6-16.3C42 406.9 32 396.7 32 384c0-6.2 2.5-11.7 6.4-16-3.9-4.3-6.4-9.8-6.4-16 0-12.7 10-22.9 22.6-23.7-4-4.3-6.6-10-6.6-16.3 0-13.3 10.7-24 24-24 4 0 7.7 1.2 11 3-1.8-3.3-3-7-3-11 0-13.3 10.7-24 24-24 6.2 0 11.7 2.5 16 6.4 4.3-3.9 9.8-6.4 16-6.4zm472 128c0 12.7-10 22.9-22.6 23.7 4 4.3 6.6 10 6.6 16.3 0 13.3-10.7 24-24 24-4 0-7.7-1.2-11-3 1.8 3.3 3 7 3 11 0 13.3-10.7 24-24 24-6.2 0-11.7-2.5-16-6.4-4.3 3.9-9.8 6.4-16 6.4-13.3 0-24-10.7-24-24 0-9.9 6-18.3 14.5-22-8.5-3.7-14.5-12.1-14.5-22s6-18.3 14.5-22c-8.5-3.7-14.5-12.1-14.5-22s6-18.3 14.5-22c-8.5-3.7-14.5-12.1-14.5-22s6-18.3 14.5-22c-8.5-3.7-14.5-12.1-14.5-22 0-13.3 10.7-24 24-24 6.2 0 11.7 2.5 16 6.4 4.3-3.9 9.8-6.4 16-6.4 13.3 0 24 10.7 24 24 0 4-1.2 7.7-3 11 3.3-1.8 7-3 11-3 13.3 0 24 10.7 24 24 0 6.3-2.6 12-6.6 16.3 12.6.8 22.6 11 22.6 23.7 0 6.2-2.5 11.7-6.4 16 3.9 4.3 6.4 9.8 6.4 16z"/></svg>