<svg xmlns="http://www.w3.org/2000/svg" viewBox="0 0 384 512"><!-- Font Awesome Pro 5.15.4 by @fontawesome - https://fontawesome.com License - https://fontawesome.com/license (Commercial License) --><path d="M192 96c-52.94 0-96 43.06-96 96 0 35.3 28.72 64 64 64 17.66 0 32 14.36 32 32s-14.34 32-32 32h-24c-4.42 0-8 3.58-8 8v16c0 4.42 3.58 8 8 8h24c35.28 0 64-28.7 64-64s-28.72-64-64-64c-17.66 0-32-14.36-32-32 0-35.3 28.72-64 64-64s64 28.7 64 64v24c0 4.42 3.58 8 8 8h16c4.42 0 8-3.58 8-8v-24c0-52.94-43.06-96-96-96zm0-96C85.96 0 0 85.96 0 192v176c0 79.53 64.47 144 144 144s144-64.47 144-144v-9.9c57.33-33.21 96-95.08 96-166.1C384 85.96 298.04 0 192 0zm79.96 330.41L256 339.66V368c0 61.76-50.24 112-112 112S32 429.76 32 368V192c0-88.22 71.78-160 160-160s160 71.78 160 160c0 56.78-30.67 109.81-80.04 138.41z"/></svg>