<svg xmlns="http://www.w3.org/2000/svg" viewBox="0 0 640 512"><!-- Font Awesome Pro 5.15.4 by @fontawesome - https://fontawesome.com License - https://fontawesome.com/license (Commercial License) --><path d="M256 467.4l-48.4-71.6c-3-4.4-8-7-13.2-7-1 0-2 .1-3 .3l-84.8 16.4 16.4-84.8c1.2-6.3-1.4-12.7-6.8-16.3L44.6 256l71.6-48.4c5.3-3.6 8-10 6.8-16.3l-16.4-84.8 84.8 16.4c6.2 1.1 12.7-1.5 16.3-6.8L256 44.6l35.1 51.9c7.6-7.5 15.9-14.4 24.6-20.7L269.2 7c-3-4.4-7.9-7-13.2-7s-10.3 2.6-13.2 7L187 89.4 89.3 70.6c-5.2-1-10.6.7-14.3 4.4s-5.4 9.1-4.4 14.3L89.4 187 7 242.8c-4.4 3-7 7.9-7 13.2s2.6 10.3 7 13.2L89.4 325l-18.9 97.7c-1 5.2.7 10.6 4.4 14.3s9.2 5.4 14.3 4.4l97.7-18.9 55.8 82.4c3 4.4 7.9 7 13.2 7s10.3-2.6 13.2-7l46.4-68.6c-8.7-6.4-17-13.2-24.6-20.7L256 467.4zm-17.8-289.2c4.4-11.8 9.7-23.1 15.9-33.9-28.5.4-55.9 11.1-77.3 32.5-37.8 37.8-43.5 94-14.5 143.2 7.2 12.2 17.5 22.4 29.7 29.7 20.1 11.9 41.5 17.8 62.3 18.2-6.3-10.8-11.6-22.1-16-34-9.6-2-19.7-5.7-30-11.8-7.5-4.4-14-10.9-18.4-18.4-25.9-43.9-11.1-83.6 9.6-104.3 9.4-9.3 22.8-17.5 38.7-21.2zM448 64c-106 0-192 86-192 192s86 192 192 192 192-86 192-192S554 64 448 64zm0 352c-88.2 0-160-71.8-160-160S359.8 96 448 96s160 71.8 160 160-71.8 160-160 160z"/></svg>