<svg xmlns="http://www.w3.org/2000/svg" viewBox="0 0 512 512"><!-- Font Awesome Pro 5.15.4 by @fontawesome - https://fontawesome.com License - https://fontawesome.com/license (Commercial License) --><path d="M512 256c0-5.3-2.6-10.3-7-13.2L422.5 187l18.9-97.7c1-5.2-.7-10.6-4.4-14.3s-9.1-5.3-14.3-4.4L325 89.4 269.2 7c-3-4.4-7.9-7-13.2-7s-10.3 2.6-13.2 7L187 89.4 89.3 70.6c-5.2-1-10.6.7-14.3 4.4s-5.4 9.1-4.4 14.3L89.4 187 7 242.8c-4.4 3-7 7.9-7 13.2s2.6 10.3 7 13.2L89.4 325l-18.9 97.7c-1 5.2.7 10.6 4.4 14.3s9.1 5.4 14.3 4.4l97.7-18.9 55.8 82.4c3 4.4 7.9 7 13.2 7s10.3-2.6 13.2-7l55.8-82.4 97.7 18.9c5.2 1 10.6-.7 14.3-4.4s5.4-9.1 4.4-14.3L422.6 325l82.4-55.8c4.4-2.9 7-7.9 7-13.2zm-116.1 48.4c-5.3 3.6-8 10-6.8 16.3l16.4 84.8-84.8-16.4c-6.3-1.2-12.7 1.5-16.3 6.8L256 467.4l-48.4-71.6c-3-4.4-8-7-13.2-7-1 0-2 .1-3 .3l-84.8 16.4 16.4-84.8c1.2-6.3-1.4-12.7-6.8-16.3L44.6 256l71.6-48.4c5.3-3.6 8-10 6.8-16.3l-16.4-84.8 84.8 16.4c6.2 1.1 12.7-1.5 16.3-6.8L256 44.6l48.4 71.6c3.6 5.3 10.1 7.9 16.3 6.8l84.8-16.4-16.4 84.8c-1.2 6.3 1.4 12.7 6.8 16.3l71.6 48.4-71.6 48.3zM327 293.1c-1 0-2.9.2-3.9.4-3.7.7-7.5 1.1-11.3 1.1-32.5 0-59-26.6-59-59.2 0-21.2 11.5-41 29.9-51.5 7.6-4.3 11.5-12.6 10.1-21.2-1.4-8.6-7.9-15.2-16.5-16.7-6.7-1.2-13.6-1.9-20.4-1.9C194.2 144 144 194.2 144 256c0 61.8 50.2 112 111.9 112 33.9 0 65.6-15.1 86.9-41.5 5-6.2 6-14.5 2.6-21.7-3.4-7.1-10.6-11.7-18.4-11.7zM255.9 336c-44.1 0-79.9-35.9-79.9-80 0-39.3 28.4-72 65.7-78.7a91.288 91.288 0 0 0-20.9 58.1c0 44.9 32.6 82.4 75.3 89.9-12.1 6.9-25.9 10.7-40.2 10.7z"/></svg>