<svg xmlns="http://www.w3.org/2000/svg" viewBox="0 0 512 512"><!-- Font Awesome Pro 5.15.4 by @fontawesome - https://fontawesome.com License - https://fontawesome.com/license (Commercial License) --><path d="M224 112.12c-70.56 0-128 57.48-128 128.15s57.41 128.12 128 128.12 128-57.47 128-128.12-57.41-128.15-128-128.15zm0 224.24a96.15 96.15 0 0 1-96-96.09c0-53 43.07-96.12 96-96.12s96 43.13 96 96.12a96.15 96.15 0 0 1-96 96.09zm0-168.18a72.13 72.13 0 0 0-72 72.09 16 16 0 1 0 32 0 40.08 40.08 0 0 1 40-40.06 16 16 0 0 0 0-32zm254.32-17.73c-39.5-40.71-100.73-46.29-144.39-82.24S255.63 0 200.55 0a157.76 157.76 0 0 0-25.16 2.1c-86.78 14-111.71 80-125 157.13-11.1 64.34-54.41 127-50 192.91s52.83 128.45 114.97 150.75c17.64 6.32 33.83 9.11 48.92 9.11 64.66 0 108.94-51.18 155.72-95.56 43.68-41.44 93.4-37.72 140.93-73.89 56.28-42.82 71.71-140.55 17.39-192.1zm1.52 89.31c-1.69 31-16.35 60.6-38.27 77.28-18.12 13.79-37.53 20.88-58.09 28.4-26.8 9.79-57.19 20.9-85.49 47.75-5.47 5.19-10.91 10.47-16.35 15.76-37.59 36.52-73.1 71-117.36 71-12.09 0-24.56-2.37-38.12-7.24C75.24 454.46 35.74 402.85 32.24 350c-2.16-32.48 10.67-66.45 24.25-102.41 10-26.58 20.41-54.06 25.4-82.92C97 77.3 122.78 43 180.48 33.73A126.07 126.07 0 0 1 200.55 32c39.59 0 66.48 22.31 103.7 53.19L313.6 93c23.67 19.49 50 30.66 75.45 41.47s49.5 21 67.25 39.27c22.45 21.26 24.39 50.49 23.54 66.02z"/></svg>