<svg xmlns="http://www.w3.org/2000/svg" viewBox="0 0 448 512"><!-- Font Awesome Pro 5.15.4 by @fontawesome - https://fontawesome.com License - https://fontawesome.com/license (Commercial License) --><path d="M435.322 239.565L259.383 47.558c-19.014-20.743-51.751-20.745-70.767 0L12.67 239.565C-15.475 270.268 6.324 320 48.053 320h351.886c41.651 0 63.581-49.674 35.383-80.435zM399.939 288H48.053c-13.866 0-21.169-16.585-11.791-26.816L212.205 69.181c6.323-6.897 17.248-6.918 23.585-.005l175.943 192.012c9.371 10.223 2.076 26.812-11.794 26.812zM448 400v32c0 26.51-21.49 48-48 48H48c-26.51 0-48-21.49-48-48v-32c0-26.51 21.49-48 48-48h352c26.51 0 48 21.49 48 48zm-48-16H48c-8.822 0-16 7.178-16 16v32c0 8.823 7.178 16 16 16h352c8.822 0 16-7.177 16-16v-32c0-8.822-7.178-16-16-16z"/></svg>