<svg xmlns="http://www.w3.org/2000/svg" viewBox="0 0 448 512"><!-- Font Awesome Pro 5.15.4 by @fontawesome - https://fontawesome.com License - https://fontawesome.com/license (Commercial License) --><path d="M445.66 45.65l-11.31-11.31c-3.12-3.12-8.19-3.12-11.31 0l-75.12 75.12C314.46 81.15 271.26 64 224 64 117.96 64 32 149.96 32 256c0 47.26 17.15 90.46 45.46 123.91L2.34 455.03c-3.12 3.12-3.12 8.19 0 11.31l11.31 11.31c3.12 3.12 8.19 3.12 11.31 0l75.12-75.12C133.54 430.85 176.74 448 224 448c106.04 0 192-85.96 192-192 0-47.26-17.15-90.46-45.46-123.91l75.12-75.12a8.015 8.015 0 0 0 0-11.32zM64 256c0-88.22 71.78-160 160-160 38.34 0 73.1 14.12 100.69 36.69l-224 224C78.11 329.1 64 294.34 64 256zm320 0c0 88.22-71.78 160-160 160-38.34 0-73.1-14.12-100.69-36.69l224-224C369.89 182.9 384 217.66 384 256z"/></svg>