<svg xmlns="http://www.w3.org/2000/svg" viewBox="0 0 640 512"><!-- Font Awesome Pro 5.15.4 by @fontawesome - https://fontawesome.com License - https://fontawesome.com/license (Commercial License) --><path d="M320 32C196.3 32 96 132.3 96 256c0 123.76 100.3 224 224 224s224-100.24 224-224c0-123.7-100.3-224-224-224zm0 416c-105.87 0-192-86.13-192-192S214.13 64 320 64s192 86.13 192 192-86.13 192-192 192zm18.64-320.02h-37.28c-7.9 0-14.08 6.82-13.29 14.69l10.69 149.29c.68 6.83 6.43 12.03 13.29 12.03h15.9c6.87 0 12.61-5.2 13.29-12.03l10.69-149.29c.79-7.86-5.39-14.69-13.29-14.69zM320 328c-13.26 0-24 10.74-24 24 0 13.25 10.74 24 24 24s24-10.75 24-24c0-13.26-10.74-24-24-24zM90.69 69.17l-12.4-10.11c-3.49-2.85-8.75-2.31-11.51 1.25C23.65 116.12 0 185.28 0 256c0 70.74 23.65 139.88 66.75 195.65 2.76 3.57 8.01 4.1 11.51 1.25l12.4-10.11c3.36-2.73 3.84-7.58 1.19-11.01C53.2 381.66 32 319.54 32 256c0-63.53 21.2-125.65 59.88-175.82 2.65-3.43 2.17-8.28-1.19-11.01zm482.53-8.86c-2.76-3.57-8.01-4.1-11.51-1.25l-12.4 10.11c-3.36 2.73-3.83 7.58-1.19 11.01C586.8 130.35 608 192.47 608 256c0 63.54-21.2 125.66-59.85 175.79-2.64 3.43-2.17 8.27 1.19 11.01l12.4 10.11c3.49 2.85 8.75 2.31 11.51-1.25C616.35 395.88 640 326.74 640 256c0-70.72-23.65-139.88-66.78-195.69z"/></svg>