<svg xmlns="http://www.w3.org/2000/svg" viewBox="0 0 512 512"><!-- Font Awesome Pro 5.15.4 by @fontawesome - https://fontawesome.com License - https://fontawesome.com/license (Commercial License) --><path d="M349.32 52.26C328.278 35.495 292.938 0 256 0c-36.665 0-71.446 34.769-93.31 52.26-34.586 27.455-109.525 87.898-145.097 117.015A47.99 47.99 0 0 0 0 206.416V464c0 26.51 21.49 48 48 48h416c26.51 0 48-21.49 48-48V206.413a47.989 47.989 0 0 0-17.597-37.144C458.832 140.157 383.906 79.715 349.32 52.26zM464 480H48c-8.837 0-16-7.163-16-16V206.161c0-4.806 2.155-9.353 5.878-12.392C64.16 172.315 159.658 95.526 182.59 77.32 200.211 63.27 232.317 32 256 32c23.686 0 55.789 31.27 73.41 45.32 22.932 18.207 118.436 95.008 144.714 116.468a15.99 15.99 0 0 1 5.876 12.39V464c0 8.837-7.163 16-16 16zm-8.753-216.312c4.189 5.156 3.393 12.732-1.776 16.905-22.827 18.426-55.135 44.236-104.156 83.148-21.045 16.8-56.871 52.518-93.318 52.258-36.58.264-72.826-35.908-93.318-52.263-49.015-38.908-81.321-64.716-104.149-83.143-5.169-4.173-5.966-11.749-1.776-16.905l5.047-6.212c4.169-5.131 11.704-5.925 16.848-1.772 22.763 18.376 55.014 44.143 103.938 82.978 16.85 13.437 50.201 45.69 73.413 45.315 23.219.371 56.562-31.877 73.413-45.315 48.929-38.839 81.178-64.605 103.938-82.978 5.145-4.153 12.679-3.359 16.848 1.772l5.048 6.212z"/></svg>