<svg xmlns="http://www.w3.org/2000/svg" viewBox="0 0 512 512"><!-- Font Awesome Pro 5.15.4 by @fontawesome - https://fontawesome.com License - https://fontawesome.com/license (Commercial License) --><path d="M496 192h-48v-48c0-8.8-7.2-16-16-16h-48V80c0-8.8-7.2-16-16-16H144c-8.8 0-16 7.2-16 16v48H80c-8.8 0-16 7.2-16 16v48H16c-8.8 0-16 7.2-16 16v224c0 8.8 7.2 16 16 16h480c8.8 0 16-7.2 16-16V208c0-8.8-7.2-16-16-16zm-16 224h-64V288h-32v128h-64V288h-32v128h-64V288h-32v128h-64V288H96v128H32V224h64v-64h64V96h192v64h64v64h64v192z"/></svg>