<svg xmlns="http://www.w3.org/2000/svg" viewBox="0 0 320 512"><!-- Font Awesome Pro 5.15.4 by @fontawesome - https://fontawesome.com License - https://fontawesome.com/license (Commercial License) --><path d="M303.625 444.131c-1.543-6.481-8.063-10.445-14.538-8.874-10.014 2.43-25.689 5.304-43.827 5.304-80.726 0-141.733-46.614-160.837-120.561h155.241a12 12 0 0 0 11.784-9.731l1.541-8c1.425-7.402-4.246-14.269-11.784-14.269H77.646c-1.849-20.951-1.849-43.664.616-64h178.657a12 12 0 0 0 11.784-9.731l1.541-8c1.425-7.402-4.246-14.269-11.784-14.269H85.04c20.951-70.25 80.111-120.561 159.604-120.561 14.725 0 28.452 2.194 37.551 4.086 6.282 1.306 12.47-2.581 14.05-8.799l3.93-15.475c1.689-6.652-2.529-13.383-9.262-14.718C280.423 34.452 264.068 32 245.26 32 143.582 32 63.472 100.181 39.439 192H12c-6.627 0-12 5.373-12 12v8c0 6.627 5.373 12 12 12h21.893c-2.466 17.87-1.849 49.827-.617 64H12c-6.627 0-12 5.373-12 12v8c0 6.627 5.373 12 12 12h26.207c21.568 96.749 101.678 160 207.053 160 22.511 0 41.595-3.426 53.081-6.106 6.47-1.51 10.465-7.999 8.926-14.462l-3.642-15.301z"/></svg>