<svg xmlns="http://www.w3.org/2000/svg" viewBox="0 0 448 512"><!-- Font Awesome Pro 5.15.4 by @fontawesome - https://fontawesome.com License - https://fontawesome.com/license (Commercial License) --><path d="M447.7 364l.3 104c0 6.6-5.4 12-12 12l-104-.3c-6.6 0-12-5.4-12-12v-10c0-6.6 5.4-12 12-12l58 .3.7-.7L224 278.6 57.3 445.3l.7.7 58-.3c6.6 0 12 5.4 12 12v10c0 6.6-5.4 12-12 12L12 480c-6.6 0-12-5.4-12-12l.3-104c0-6.6 5.4-12 12-12h10c6.6 0 12 5.4 12 12l-.3 58 .7.7L201.4 256 34.7 89.3l-.7.7.3 58c0 6.6-5.4 12-12 12h-10c-6.6 0-12-5.4-12-12L0 44c0-6.6 5.4-12 12-12l104 .3c6.6 0 12 5.4 12 12v10c0 6.6-5.4 12-12 12L58 66l-.7.7L224 233.4 390.7 66.7l-.7-.7-58 .3c-6.6 0-12-5.4-12-12v-10c0-6.6 5.4-12 12-12l104-.3c6.6 0 12 5.4 12 12l-.3 104c0 6.6-5.4 12-12 12h-10c-6.6 0-12-5.4-12-12l.3-58-.7-.7L246.6 256l166.7 166.7.7-.7-.3-58c0-6.6 5.4-12 12-12h10c6.6 0 12 5.4 12 12z"/></svg>