<svg xmlns="http://www.w3.org/2000/svg" viewBox="0 0 448 512"><!-- Font Awesome Pro 5.15.4 by @fontawesome - https://fontawesome.com License - https://fontawesome.com/license (Commercial License) --><path d="M391.7 329.7L356 365.4 246.6 256 356 146.6l35.7 35.7c20.7 20.7 56.3 6 56.3-23.3V65c0-18.2-14.8-33-33-33h-94c-29.3 0-44.1 35.5-23.3 56.3l35.7 35.7L224 233.4 114.6 124l35.7-35.7C171 67.6 156.3 32 127 32H33C14.8 32 0 46.8 0 65v94c0 29.3 35.5 44.1 56.3 23.3L92 146.6 201.4 256 92 365.4l-35.7-35.7C35.6 309 0 323.7 0 353v94c0 18.2 14.8 33 33 33h94c29.3 0 44.1-35.5 23.3-56.3L114.6 388 224 278.6 333.4 388l-35.7 35.7c-20.7 20.7-6 56.3 23.3 56.3h94c18.2 0 33-14.8 33-33v-94c0-29.3-35.6-44.1-56.3-23.3zM321 60.9h94c2.3 0 4.1 1.9 4.1 4.1v94c0 3.7-4.4 5.5-7 2.9l-94-94c-2.6-2.6-.8-7 2.9-7zm-285.1 101c-2.6 2.6-7 .8-7-2.9V65c0-2.3 1.9-4.1 4.1-4.1h94c3.7 0 5.5 4.4 2.9 7l-94 94zM127 451.1H33c-2.3 0-4.1-1.9-4.1-4.1v-94c0-3.7 4.4-5.5 7-2.9l94 94c2.6 2.6.8 7-2.9 7zm288 0h-94c-3.7 0-5.5-4.4-2.9-7l94-94c2.6-2.6 7-.8 7 2.9v94c.1 2.3-1.8 4.1-4.1 4.1z"/></svg>