<svg xmlns="http://www.w3.org/2000/svg" viewBox="0 0 448 512"><!-- Font Awesome Pro 5.15.4 by @fontawesome - https://fontawesome.com License - https://fontawesome.com/license (Commercial License) --><path d="M400 32H48C21.49 32 0 53.49 0 80v352c0 26.51 21.49 48 48 48h352c26.51 0 48-21.49 48-48V80c0-26.51-21.49-48-48-48zm16 400c0 8.822-7.178 16-16 16H48c-8.822 0-16-7.178-16-16V80c0-8.822 7.178-16 16-16h352c8.822 0 16 7.178 16 16v352zm-96-304h-.056l-96.167.167c-28.442.049-42.66 34.539-22.572 54.627l35.272 35.272L98.545 356c-4.686 4.686-4.686 12.284 0 16.97l8.484 8.485c4.687 4.686 12.285 4.686 16.971 0l137.934-137.934 35.272 35.272c20.023 20.023 54.578 5.98 54.627-22.572l.167-96.166c.03-17.702-14.325-32.055-32-32.055zm-.167 128.167l-96-96L320 160l-.167 96.167z"/></svg>