<svg xmlns="http://www.w3.org/2000/svg" viewBox="0 0 512 512"><!-- Font Awesome Pro 5.15.4 by @fontawesome - https://fontawesome.com License - https://fontawesome.com/license (Commercial License) --><path d="M440,256H424a8,8,0,0,0-8,8V464a16,16,0,0,1-16,16H48a16,16,0,0,1-16-16V112A16,16,0,0,1,48,96H248a8,8,0,0,0,8-8V72a8,8,0,0,0-8-8H48A48,48,0,0,0,0,112V464a48,48,0,0,0,48,48H400a48,48,0,0,0,48-48V264A8,8,0,0,0,440,256ZM480,0h-.06L383.78.17c-28.45,0-42.66,34.54-22.58,54.62l35.28,35.28-265,265a12,12,0,0,0,0,17l8.49,8.49a12,12,0,0,0,17,0l265-265,35.28,35.27c20,20,54.57,6,54.62-22.57L512,32.05A32,32,0,0,0,480,0Zm-.17,128.17-96-96L480,32Z"/></svg>