<svg xmlns="http://www.w3.org/2000/svg" viewBox="0 0 512 512"><!-- Font Awesome Pro 5.15.4 by @fontawesome - https://fontawesome.com License - https://fontawesome.com/license (Commercial License) --><path d="M440,256H424a8,8,0,0,0-8,8V464a16,16,0,0,1-16,16H48a16,16,0,0,1-16-16V112A16,16,0,0,1,48,96H248a8,8,0,0,0,8-8V72a8,8,0,0,0-8-8H48A48,48,0,0,0,0,112V464a48,48,0,0,0,48,48H400a48,48,0,0,0,48-48V264A8,8,0,0,0,440,256ZM500,0,364,.34a12,12,0,0,0-12,12v10a12,12,0,0,0,12,12L454,34l.7.71L131.51,357.86a12,12,0,0,0,0,17l5.66,5.66a12,12,0,0,0,17,0L477.29,57.34l.71.7-.34,90a12,12,0,0,0,12,12h10a12,12,0,0,0,12-12L512,12A12,12,0,0,0,500,0Z"/></svg>