<svg xmlns="http://www.w3.org/2000/svg" viewBox="0 0 640 512"><!-- Font Awesome Pro 5.15.4 by @fontawesome - https://fontawesome.com License - https://fontawesome.com/license (Commercial License) --><path d="M637 485.25L23 1.75A8 8 0 0 0 11.76 3l-10 12.51A8 8 0 0 0 3 26.75l614 483.5a8 8 0 0 0 11.25-1.25l10-12.51a8 8 0 0 0-1.25-11.24zM320 96a128.14 128.14 0 0 1 128 128c0 21.62-5.9 41.69-15.4 59.57l25.45 20C471.65 280.09 480 253.14 480 224c0-36.83-12.91-70.31-33.78-97.33A294.88 294.88 0 0 1 576.05 256a299.73 299.73 0 0 1-67.77 87.16l25.32 19.94c28.47-26.28 52.87-57.26 70.93-92.51a32.35 32.35 0 0 0 0-29.19C550.3 135.59 442.94 64 320 64a311.23 311.23 0 0 0-130.12 28.43l45.77 36C258.24 108.52 287.56 96 320 96zm60.86 146.83A63.15 63.15 0 0 0 320 160c-1 0-1.89.24-2.85.29a45.11 45.11 0 0 1-.24 32.19zm-217.62-49.16A154.29 154.29 0 0 0 160 224a159.39 159.39 0 0 0 226.27 145.29L356.69 346c-11.7 3.53-23.85 6-36.68 6A128.15 128.15 0 0 1 192 224c0-2.44.59-4.72.72-7.12zM320 416c-107.36 0-205.47-61.31-256-160 17.43-34 41.09-62.72 68.31-86.72l-25.86-20.37c-28.48 26.28-52.87 57.25-70.93 92.5a32.35 32.35 0 0 0 0 29.19C89.71 376.41 197.07 448 320 448a311.25 311.25 0 0 0 130.12-28.43l-29.25-23C389.06 408.84 355.15 416 320 416z"/></svg>