<svg xmlns="http://www.w3.org/2000/svg" viewBox="0 0 512 512"><!-- Font Awesome Pro 5.15.4 by @fontawesome - https://fontawesome.com License - https://fontawesome.com/license (Commercial License) --><path d="M483.61 26.62c-35.51-35.65-92.84-35.33-128.04 0l-82.63 82.94-17-17.06c-9.37-9.41-24.57-9.41-33.95 0l-40.98 41.14c-9.37 9.41-9.38 24.67 0 34.08l16.98 17.05-147.3 149.84a64.38 64.38 0 0 0-18.76 45.44v33.74l-27 39.79c-7.98 12.7-6.13 29.25 4.44 39.86l9.11 9.14c10.57 10.61 27.06 12.46 39.71 4.46l39.65-27.1h33.62a63.91 63.91 0 0 0 45.27-18.82l149.31-147.85L343 330.31c9.38 9.41 24.58 9.41 33.95 0l40.98-41.14c9.38-9.41 9.37-24.67 0-34.08l-16.95-17.02 82.63-82.94c29.67-29.77 45.24-83.1 0-128.51zM154.09 440.41c-6.05 6.07-14.08 7.41-22.63 7.41H88.59l-47.47 32.05-9.11-9.14 31.94-47.65v-43.03c0-8.58 3.33-16.65 9.38-22.72l147.3-149.85 82.77 83.08-149.31 149.85zm306.89-307.99L355.71 238.07l33.93 34.06-29.67 29.78L209.3 150.67l29.67-29.77 33.97 34.1L378.21 49.34c22.82-22.91 59.95-22.91 82.77 0 39.39 39.53 6.91 76.14 0 83.08z"/></svg>