<svg xmlns="http://www.w3.org/2000/svg" viewBox="0 0 448 512"><!-- Font Awesome Pro 5.15.4 by @fontawesome - https://fontawesome.com License - https://fontawesome.com/license (Commercial License) --><path d="M224,209.42A14.58,14.58,0,1,0,238.58,224,14.58,14.58,0,0,0,224,209.42ZM448,224C448,100.29,347.71,0,224,0S0,100.29,0,224C0,342.31,91.79,439,208,447.19V480H88a24,24,0,0,0-24,24,8,8,0,0,0,8,8H376a8,8,0,0,0,8-8,24,24,0,0,0-24-24H240V447.19C356.21,439,448,342.31,448,224ZM224,413.54c-104.51,0-189.54-85-189.54-189.54S119.49,34.46,224,34.46s189.54,85,189.54,189.54S328.51,413.54,224,413.54ZM383.21,243.33a101.68,101.68,0,0,0-140.28-94.15L222,93.23c-8-21.36-34.11-32.76-56-20.11a101.76,101.76,0,0,0-37.24,139,99.86,99.86,0,0,0,25.93,29.45l-38.1,46.28a39,39,0,0,0,10.69,58.59,101.54,101.54,0,0,0,50.64,13.61h0c28.88,0,66.61-13.37,88.27-50.9A99.43,99.43,0,0,0,278.68,272c12.35,2,31.56,5.23,59.13,9.83C358.83,285.33,383.21,269.94,383.21,243.33Zm-39.65,6.94c-1.62,0-76.85-12.91-78.95-12.91-.12,0-.05,0-.19,0-10,0-17.43,8.59-17,18.47a68.27,68.27,0,0,1-9,37.3c-19.49,33.76-54.1,34.9-59.81,34.9a69.57,69.57,0,0,1-35.48-9.38,7,7,0,0,1-1.91-10.49l49-59.48c7.82-9.5,2.77-21.62-5.83-26.06a68.35,68.35,0,0,1-28-26.54,69.75,69.75,0,0,1,25.53-95.27A7,7,0,0,1,192,104.45l27,72a16.94,16.94,0,0,0,25.2,8,69.67,69.67,0,0,1,107,58.9C351.21,247,348.63,250.27,343.56,250.27Z"/></svg>