<svg xmlns="http://www.w3.org/2000/svg" viewBox="0 0 512 512"><!-- Font Awesome Pro 5.15.4 by @fontawesome - https://fontawesome.com License - https://fontawesome.com/license (Commercial License) --><path d="M346.54 120a238.17 238.17 0 0 0-53.94 6l9.24-91.74A30.93 30.93 0 0 0 294 10.41 31.73 31.73 0 0 0 270.51 0a31.94 31.94 0 0 0-4 .25C183 10.72 120 81.75 120 165.47a238.24 238.24 0 0 0 6 53.94l-91.74-9.25-.8-.08-2.35-.08a31 31 0 0 0-23.19 10.52 31.76 31.76 0 0 0-7.67 25C10.72 329 81.75 392 165.46 392a238.11 238.11 0 0 0 53.94-6l-9.24 91.74a30.92 30.92 0 0 0 7.84 23.85 31.78 31.78 0 0 0 27.5 10.16C329 501.28 392 430.25 392 346.53a238.15 238.15 0 0 0-6-53.93l91.74 9.24.8.08 2.33.08a31 31 0 0 0 23.19-10.51 31.79 31.79 0 0 0 7.67-25C501.28 183 430.25 120 346.54 120zm19 138.37l-25.33-2.55 8.69 23.93c7.37 20.25 11.1 42.76 11.1 66.78 0 67.62-50.94 125-118 134.43l11.63-115.41 2.55-25.33-23.93 8.69C212 356.27 189.49 360 165.46 360 97.85 360 40.47 309.06 31 242l115.42 11.63 25.33 2.55-8.69-23.93C155.73 212 152 189.49 152 165.47c0-67.42 50.64-124.66 117.9-133.39l-11.53 114.37-2.55 25.33 23.93-8.68c20.25-7.37 42.76-11.1 66.79-11.1 67.61 0 125 50.94 134.43 118zM256 224a32 32 0 1 0 32 32 32 32 0 0 0-32-32z"/></svg>