<svg xmlns="http://www.w3.org/2000/svg" viewBox="0 0 512 512"><!-- Font Awesome Pro 5.15.4 by @fontawesome - https://fontawesome.com License - https://fontawesome.com/license (Commercial License) --><path d="M12 447h8c6.6 0 12-5.4 12-12V277.3c.9 1 1.9 2 3 2.9l200.5 159.4c20.6 17.2 52.5 2.8 52.5-24.6V297.2l171.5 142.4c20.6 17.2 52.5 2.8 52.5-24.6V95c0-27.4-31.9-41.8-52.5-24.6L288 213.9V95.1c0-27.4-31.9-41.8-52.5-24.6L35 231c-1.1.9-2.1 1.9-3 2.9V75c0-6.6-5.4-12-12-12h-8C5.4 63 0 68.4 0 75v360c0 6.6 5.4 12 12 12zm280.5-191.4l.2-.1.2-.1L480 95v320L292.7 255.8l-.1-.1-.1-.1zM61 255.2l194.8-160 .1-.1.1-.1v320l-.1-.1-.1-.1L61 256v-.8z"/></svg>