<svg xmlns="http://www.w3.org/2000/svg" viewBox="0 0 512 512"><!-- Font Awesome Pro 5.15.4 by @fontawesome - https://fontawesome.com License - https://fontawesome.com/license (Commercial License) --><path d="M65.59,95.91,208,80.88l142.41,15c9.42,1,17.59-6.81,17.59-16.8V48.89c0-10-8.17-17.8-17.59-16.8L224,45.43V8a8,8,0,0,0-8-8H200a8,8,0,0,0-8,8V45.43L65.59,32.09C56.17,31.09,48,38.9,48,48.89V79.11C48,89.1,56.17,96.91,65.59,95.91ZM368,176H307.71A127.34,127.34,0,0,0,224,129.23V114.75l-16-1.69-16,1.69v14.48A127.34,127.34,0,0,0,108.29,176H8a8,8,0,0,0-8,8v16a8,8,0,0,0,8,8H125.31C142,179.43,172.56,160,208,160s66.05,19.43,82.69,48H368A112.14,112.14,0,0,1,480,320v32H384V320a16,16,0,0,0-16-16H290.69c-16.64,28.57-47.25,48-82.69,48S142,332.57,125.31,304H8a8,8,0,0,0-8,8v16a8,8,0,0,0,8,8H108.29a127.56,127.56,0,0,0,199.42,0H352v16a32,32,0,0,0,32,32h96a32,32,0,0,0,32-32V320C512,240.6,447.4,176,368,176Zm32,304a32,32,0,0,0,64,0c0-17.67-32-64-32-64S400,462.33,400,480Z"/></svg>