<svg xmlns="http://www.w3.org/2000/svg" viewBox="0 0 512 512"><!-- Font Awesome Pro 5.15.4 by @fontawesome - https://fontawesome.com License - https://fontawesome.com/license (Commercial License) --><path d="M368,240H307.71A127.34,127.34,0,0,0,224,193.23V178.75l-16-1.69-16,1.69v14.48A127.34,127.34,0,0,0,108.29,240H8a8,8,0,0,0-8,8v16a8,8,0,0,0,8,8H125.31C142,243.43,172.56,224,208,224s66.05,19.43,82.69,48H368A112.14,112.14,0,0,1,480,384v32H384V384a16,16,0,0,0-16-16H290.69c-16.64,28.57-47.25,48-82.69,48S142,396.57,125.31,368H8a8,8,0,0,0-8,8v16a8,8,0,0,0,8,8H108.29a127.56,127.56,0,0,0,199.42,0H352v16a32,32,0,0,0,32,32h96a32,32,0,0,0,32-32V384C512,304.6,447.4,240,368,240ZM65.59,159.91l142.41-15,142.41,15c9.42,1,17.59-6.81,17.59-16.8V112.89c0-10-8.17-17.8-17.59-16.8L224,109.43V72a8,8,0,0,0-8-8H200a8,8,0,0,0-8,8v37.43L65.59,96.09c-9.42-1-17.59,6.81-17.59,16.8v30.22C48,153.1,56.17,160.91,65.59,159.91Z"/></svg>