<svg xmlns="http://www.w3.org/2000/svg" viewBox="0 0 512 512"><!-- Font Awesome Pro 5.15.4 by @fontawesome - https://fontawesome.com License - https://fontawesome.com/license (Commercial License) --><path d="M392 304h16a8 8 0 0 0 8-8v-16a8 8 0 0 0-8-8h-16a8 8 0 0 0-8 8v16a8 8 0 0 0 8 8zm0 128h16a8 8 0 0 0 8-8v-16a8 8 0 0 0-8-8h-16a8 8 0 0 0-8 8v16a8 8 0 0 0 8 8zM80 128H48a48 48 0 0 0-48 48v288a48 48 0 0 0 48 48h32a48 48 0 0 0 48-48V176a48 48 0 0 0-48-48zm16 336a16 16 0 0 1-16 16H48a16 16 0 0 1-16-16V176a16 16 0 0 1 16-16h32a16 16 0 0 1 16 16zm296-96h16a8 8 0 0 0 8-8v-16a8 8 0 0 0-8-8h-16a8 8 0 0 0-8 8v16a8 8 0 0 0 8 8zm-128 64h16a8 8 0 0 0 8-8v-16a8 8 0 0 0-8-8h-16a8 8 0 0 0-8 8v16a8 8 0 0 0 8 8zm0-64h16a8 8 0 0 0 8-8v-16a8 8 0 0 0-8-8h-16a8 8 0 0 0-8 8v16a8 8 0 0 0 8 8zm216-205.06v-53.69a32 32 0 0 0-9.38-22.63L393.38 9.38A32 32 0 0 0 370.75 0H208a48 48 0 0 0-48 48v416a48 48 0 0 0 48 48h256a48 48 0 0 0 48-48V208a47.87 47.87 0 0 0-32-45.06zM384 45.25L434.75 96H384zM192 48a16 16 0 0 1 16-16h144v64a32 32 0 0 0 32 32h64v64H192zm288 416a16 16 0 0 1-16 16H208a16 16 0 0 1-16-16V224h288zm-152-32h16a8 8 0 0 0 8-8v-16a8 8 0 0 0-8-8h-16a8 8 0 0 0-8 8v16a8 8 0 0 0 8 8zm0-64h16a8 8 0 0 0 8-8v-16a8 8 0 0 0-8-8h-16a8 8 0 0 0-8 8v16a8 8 0 0 0 8 8zm0-64h16a8 8 0 0 0 8-8v-16a8 8 0 0 0-8-8h-16a8 8 0 0 0-8 8v16a8 8 0 0 0 8 8zm-64 0h16a8 8 0 0 0 8-8v-16a8 8 0 0 0-8-8h-16a8 8 0 0 0-8 8v16a8 8 0 0 0 8 8z"/></svg>