<svg xmlns="http://www.w3.org/2000/svg" viewBox="0 0 512 512"><!-- Font Awesome Pro 5.15.4 by @fontawesome - https://fontawesome.com License - https://fontawesome.com/license (Commercial License) --><path d="M71.46 287.61c-4.86 42.01-7.27 84.27-7.38 126.56l-.03 11.16-59.36 59.36A15.922 15.922 0 0 0 0 496c0 9.14 7.47 16 16 16 4.09 0 8.19-1.56 11.31-4.69l59.36-59.36 11.16-.03c42.29-.12 84.55-2.53 126.56-7.38C473.8 415.13 508.44 51.72 512 0 460.28 3.56 96.87 38.2 71.46 287.61zm31.83 3.24C122.75 99.86 374.98 48.66 476.23 35.77 470.56 80.23 457.47 153.8 428.4 224H310.62l36.69-36.69c6.25-6.25 6.25-16.38 0-22.62s-16.38-6.25-22.62 0L96.74 392.64c.75-34.17 2.68-68.26 6.55-101.79zM214.62 320l64-64h135.11c-11.37 22.73-24.86 44.31-40.38 64H214.62zm6.1 88.75c-33.16 3.83-67.2 5.76-101.36 6.51L182.62 352h161.44c-32.76 30.25-73.12 51.63-123.34 56.75z"/></svg>