<svg xmlns="http://www.w3.org/2000/svg" viewBox="0 0 512 512"><!-- Font Awesome Pro 5.15.4 by @fontawesome - https://fontawesome.com License - https://fontawesome.com/license (Commercial License) --><path d="M467.11 44.89C438.25 16.03 401.61 0 361.61 0c-46.7 0-97.96 21.85-146.76 70.65l-85.74 85.74c-79.32 79.32-71.83 210.7-53.54 257.4L4.69 484.66A15.962 15.962 0 0 0 0 495.98C0 504.52 6.87 512 16.02 512c4.1 0 8.2-1.56 11.32-4.69l70.93-70.93c17.2 6.76 45.79 12.08 79.23 12.08 57.18 0 128.03-15.48 178.11-65.56l85.74-85.74c90.6-90.61 88.31-189.72 25.76-252.27zM151.76 179.04L237.5 93.3c40.08-40.08 83-61.27 124.11-61.27 30.97 0 59.62 12.28 82.85 35.51 42.32 42.32 45.75 100.1 13.13 156.69H310.42l37.24-37.24c6.26-6.26 6.26-16.39 0-22.65s-16.39-6.26-22.65 0L101.19 388.16c-9.9-43.33-13.3-145.26 50.57-209.12zm25.74 237.38c-23.3 0-40.97-2.79-53.49-5.79l58.75-58.75 158.19.37-7.99 7.99c-48.88 48.88-118.38 56.18-155.46 56.18zm195.38-96.09H214.32l64.07-64.07h156.34c-5.11 6.12-61.85 64.07-61.85 64.07z"/></svg>