<svg xmlns="http://www.w3.org/2000/svg" viewBox="0 0 256 512"><!-- Font Awesome Pro 5.15.4 by @fontawesome - https://fontawesome.com License - https://fontawesome.com/license (Commercial License) --><path d="M254.648 340.891l-39.909-164.276a48.18 48.18 0 0 0-16.794-26.583 47.458 47.458 0 0 0-4.554-3.208C207.438 131.225 216 110.594 216 88c0-48.523-39.477-88-88-88S40 39.477 40 88c0 22.594 8.562 43.225 22.609 58.824a47.405 47.405 0 0 0-4.554 3.208 48.184 48.184 0 0 0-16.794 26.583L1.352 340.891C-5.868 370.559 16.716 400 48.047 400H61v59c0 29.224 23.776 53 53 53h28c29.224 0 53-23.776 53-53v-59h12.952c31.329 0 53.917-29.436 46.696-59.109zM128 32c30.928 0 56 25.072 56 56s-25.072 56-56 56-56-25.072-56-56 25.072-56 56-56zm80 336h-45v91c0 11.598-9.402 21-21 21h-28c-11.598 0-21-9.402-21-21v-91H48c-10.259 0-17.877-9.539-15.602-19.546l40-164.454A16 16 0 0 1 88 171.546h12.351a88.015 88.015 0 0 0 55.299 0H168A16 16 0 0 1 183.602 184l40 164.454C225.876 358.458 218.262 368 208 368z"/></svg>