<svg xmlns="http://www.w3.org/2000/svg" viewBox="0 0 640 512"><!-- Font Awesome Pro 5.15.4 by @fontawesome - https://fontawesome.com License - https://fontawesome.com/license (Commercial License) --><path d="M619.5 117.2L563.8 173 496 105.2l84.6-84.7c7.6-7.6 2.2-20.5-8.5-20.5h-11.3c-3.2 0-6.2 1.3-8.5 3.5L214.4 341.8c-29.4 29.5-75.5-14.8-45.2-45.2 31.2-31.2 31.2-81.9 0-113.1-31.2-31.2-81.7-31.3-113 0C19.9 219.7 0 267.9 0 319.2c0 106.5 86.1 191.9 191.8 191.9 89.4 0 134-54.5 164.1-84.7 12.3 50.4 58.4 87.7 113 85.5 57.9-2.3 104.8-49.3 107.2-107.3 2.2-54.6-35-100.8-85.4-113.1l145.9-146c2.2-2.3 3.5-5.3 3.5-8.5v-11.3c-.1-10.7-13-16.1-20.6-8.5zM191.8 479.1C103 479.1 32 407.3 32 319.2c0-42.8 16.6-82.9 46.8-113.2 18.7-18.8 49-18.8 67.8 0 18.7 18.7 18.7 49.2 0 67.9-24.9 24.9-24.9 65.5.1 90.6 25 24.9 65.5 24.9 90.3-.1l236.4-236.7 67.8 67.9-93.9 94.1c-48 7.4-85.7 45.2-93.1 93.2-50.1 50.2-84.5 96.2-162.4 96.2zM544.1 400c0 44.1-35.8 80-79.9 80s-79.9-35.9-79.9-80 35.8-80 79.9-80 79.9 35.9 79.9 80z"/></svg>