<svg xmlns="http://www.w3.org/2000/svg" viewBox="0 0 640 512"><!-- Font Awesome Pro 5.15.4 by @fontawesome - https://fontawesome.com License - https://fontawesome.com/license (Commercial License) --><path d="M526.785 195.932l-102.96-11.267L382.163 168H367.31L283.183 63.609C304.102 62.027 320 55.759 320 48c0-9-21.383-16-47.189-16H144v32h16v120h-1.63l-64-72H36.462L8 140.11v67.647l-8 .988v94.511l8 .988v67.647L36.462 400H94.37l64-72H160v120h-16v32h128.811c25.806 0 47.189-7 47.189-16 0-7.759-15.898-14.027-36.817-15.609L367.31 344h14.853l41.663-16.665 102.96-11.267C598.984 300.222 640 293.159 640 256c0-37.458-41.863-44.407-113.215-60.068zm-5.185 88.512L416 296l-40 16h-24L242.4 448H192V296h-48l-64 72H49.6l-9.6-9.481V304h8v-16h41.6v-5.926L32 274.963v-37.926l57.6-7.111V224H48v-16h-8v-54.519L49.6 144H80l64 72h48V64h50.4L352 200h24l40 16 105.6 11.556C608 246.519 608 251.185 608 256s0 9.481-86.4 28.444z"/></svg>