<svg xmlns="http://www.w3.org/2000/svg" viewBox="0 0 384 512"><!-- Font Awesome Pro 5.15.4 by @fontawesome - https://fontawesome.com License - https://fontawesome.com/license (Commercial License) --><path d="M369.9 97.9L286 14C277 5 264.8-.1 252.1-.1H48C21.5 0 0 21.5 0 48v416c0 26.5 21.5 48 48 48h288c26.5 0 48-21.5 48-48V131.9c0-12.7-5.1-25-14.1-34zm-22.6 22.7c2.1 2.1 3.5 4.6 4.2 7.4H256V32.5c2.8.7 5.3 2.1 7.4 4.2l83.9 83.9zM336 480H48c-8.8 0-16-7.2-16-16V48c0-8.8 7.2-16 16-16h176v104c0 13.3 10.7 24 24 24h104v304c0 8.8-7.2 16-16 16zM180.7 192h22.6c6.9 0 12.4 5.8 12 12.7l-6.7 120c-.4 6.4-5.6 11.3-12 11.3h-9.3c-6.4 0-11.6-5-12-11.3l-6.7-120c-.3-6.9 5.2-12.7 12.1-12.7zM220 384c0 15.5-12.5 28-28 28s-28-12.5-28-28 12.5-28 28-28 28 12.5 28 28z"/></svg>