<svg xmlns="http://www.w3.org/2000/svg" viewBox="0 0 384 512"><!-- Font Awesome Pro 5.15.4 by @fontawesome - https://fontawesome.com License - https://fontawesome.com/license (Commercial License) --><path d="M224 280.593C224 267.01 212.989 256 199.407 256H88.593C75.011 256 64 267.01 64 280.593v110.815C64 404.99 75.011 416 88.593 416h110.814C212.989 416 224 404.99 224 391.407V381l27.971 27.971a23.998 23.998 0 0 0 16.97 7.029H296c13.255 0 24-10.745 24-24V280c0-13.255-10.745-24-24-24h-27.059a24.003 24.003 0 0 0-16.97 7.029L224 291v-10.407zM192 384H96v-96h96v96zm80.255-96H288v96h-15.745L224 342.826v-13.652L272.255 288zm97.686-190.059l-83.883-83.882A47.996 47.996 0 0 0 252.118 0H48C21.49 0 0 21.49 0 48v416c0 26.51 21.49 48 48 48h288c26.51 0 48-21.49 48-48V131.882a48 48 0 0 0-14.059-33.941zM256 32.491a15.888 15.888 0 0 1 7.432 4.195l83.882 83.882a15.882 15.882 0 0 1 4.195 7.431H256V32.491zM352 464c0 8.837-7.164 16-16 16H48c-8.836 0-16-7.163-16-16V48c0-8.837 7.164-16 16-16h176v104c0 13.255 10.745 24 24 24h104v304z"/></svg>