<svg xmlns="http://www.w3.org/2000/svg" viewBox="0 0 384 512"><!-- Font Awesome Pro 5.15.4 by @fontawesome - https://fontawesome.com License - https://fontawesome.com/license (Commercial License) --><path d="M224 232c0-4.4-3.6-8-8-8h-48c-4.4 0-8 3.6-8 8v56h-56c-4.4 0-8 3.6-8 8v48c0 4.4 3.6 8 8 8h56v56c0 4.4 3.6 8 8 8h48c4.4 0 8-3.6 8-8v-56h56c4.4 0 8-3.6 8-8v-48c0-4.4-3.6-8-8-8h-56v-56zM369.9 98L286 14.1C277 5.1 264.8 0 252.1 0H48C21.5.1 0 21.6 0 48.1V464c0 26.5 21.5 48 48 48h288c26.5 0 48-21.5 48-48V132c0-12.7-5.1-25-14.1-34zM256 32.6c2.8.7 5.3 2.1 7.4 4.2l83.9 83.9c2.1 2.1 3.5 4.6 4.2 7.4H256V32.6zM352 464c0 8.8-7.2 16-16 16H48c-8.8 0-16-7.2-16-16V48.1C32 39.3 39.2 32 48 32h176v104.1c0 13.3 10.7 23.9 24 23.9h104v304z"/></svg>