<svg xmlns="http://www.w3.org/2000/svg" viewBox="0 0 384 512"><!-- Font Awesome Pro 5.15.4 by @fontawesome - https://fontawesome.com License - https://fontawesome.com/license (Commercial License) --><path d="M369.91 98L286 14.09A48 48 0 0 0 252.09 0H48A48.15 48.15 0 0 0 0 48.08V464a48 48 0 0 0 48 48h288a48 48 0 0 0 48-48V132a48.22 48.22 0 0 0-14.09-34zM256 32.59a15.63 15.63 0 0 1 7.41 4.2l83.9 83.88a15.63 15.63 0 0 1 4.19 7.4H256zM352 464a16 16 0 0 1-16 16H48a16 16 0 0 1-16-16V48.08a16 16 0 0 1 16-16h176v104a23.93 23.93 0 0 0 24 24h104zM128 271.2v98.69a69.34 69.34 0 0 0-16-2c-26.5 0-48 14.33-48 32s21.5 32 48 32 48-14.32 48-32V291.11l96-37.51v84.29a69.34 69.34 0 0 0-16-1.95c-26.5 0-48 14.32-48 32s21.5 32 48 32 48-14.33 48-32V224a16 16 0 0 0-20.81-15.24l-128 47.24A16 16 0 0 0 128 271.2z"/></svg>