<svg xmlns="http://www.w3.org/2000/svg" viewBox="0 0 384 512"><!-- Font Awesome Pro 5.15.4 by @fontawesome - https://fontawesome.com License - https://fontawesome.com/license (Commercial License) --><path d="M369.9 97.9L286 14C277 5 264.8-.1 252.1-.1H48C21.5 0 0 21.5 0 48v416c0 26.5 21.5 48 48 48h288c26.5 0 48-21.5 48-48V131.9c0-12.7-5.1-25-14.1-34zm-22.6 22.7c2.1 2.1 3.5 4.6 4.2 7.4H256V32.5c2.8.7 5.3 2.1 7.4 4.2l83.9 83.9zM336 480H48c-8.8 0-16-7.2-16-16V48c0-8.8 7.2-16 16-16h176v104c0 13.3 10.7 24 24 24h104v304c0 8.8-7.2 16-16 16zm-53.6-246.5c-6.8 32.8-32.5 139.7-33.4 150.3-5.8-29.1-.7 1.6-41.8-150.9-1.4-5.2-6.2-8.9-11.6-8.9h-6.4c-5.4 0-10.2 3.6-11.6 8.9-38.3 142.3-37.4 140.6-39.4 154.7-4.1-23.9 2.1-2.9-34.4-154.4-1.3-5.4-6.1-9.2-11.7-9.2h-7.2c-7.8 0-13.5 7.3-11.6 14.9 9.5 38 34.5 137.4 42.2 168 1.3 5.3 6.1 9.1 11.6 9.1h17c5.4 0 10.2-3.7 11.6-8.9 34.2-127.7 33.5-123.4 36.7-142.9 6.5 31.1.2 7 36.7 142.9 1.4 5.2 6.2 8.9 11.6 8.9h14c5.5 0 13.7-3.7 15.1-9l42.8-168c1.9-7.6-3.8-15-11.6-15h-6.8c-5.7 0-10.6 4-11.8 9.5z"/></svg>