<svg xmlns="http://www.w3.org/2000/svg" viewBox="0 0 384 512"><!-- Font Awesome Pro 5.15.4 by @fontawesome - https://fontawesome.com License - https://fontawesome.com/license (Commercial License) --><path d="M196.66 363.33l-13.88-41.62c-3.28-9.81-12.44-16.41-22.78-16.41s-19.5 6.59-22.78 16.41L119 376.36c-1.5 4.58-5.78 7.64-10.59 7.64H96c-8.84 0-16 7.16-16 16s7.16 16 16 16h12.41c18.62 0 35.09-11.88 40.97-29.53L160 354.58l16.81 50.48a15.994 15.994 0 0 0 14.06 10.89c.38.03.75.05 1.12.05 6.03 0 11.59-3.41 14.31-8.86l7.66-15.33c2.78-5.59 7.94-6.19 10.03-6.19s7.25.59 10.19 6.53c7.38 14.7 22.19 23.84 38.62 23.84H288c8.84 0 16-7.16 16-16s-7.16-16-16-16h-15.19c-4.28 0-8.12-2.38-10.16-6.5-11.96-23.85-46.24-30.33-65.99-14.16zM72 96h112c4.42 0 8-3.58 8-8V72c0-4.42-3.58-8-8-8H72c-4.42 0-8 3.58-8 8v16c0 4.42 3.58 8 8 8zm120 56v-16c0-4.42-3.58-8-8-8H72c-4.42 0-8 3.58-8 8v16c0 4.42 3.58 8 8 8h112c4.42 0 8-3.58 8-8zm177.9-54.02L286.02 14.1c-9-9-21.2-14.1-33.89-14.1H47.99C21.5.1 0 21.6 0 48.09v415.92C0 490.5 21.5 512 47.99 512h288.02c26.49 0 47.99-21.5 47.99-47.99V131.97c0-12.69-5.1-24.99-14.1-33.99zM256.03 32.59c2.8.7 5.3 2.1 7.4 4.2l83.88 83.88c2.1 2.1 3.5 4.6 4.2 7.4h-95.48V32.59zm95.98 431.42c0 8.8-7.2 16-16 16H47.99c-8.8 0-16-7.2-16-16V48.09c0-8.8 7.2-16.09 16-16.09h176.04v104.07c0 13.3 10.7 23.93 24 23.93h103.98v304.01z"/></svg>