<svg xmlns="http://www.w3.org/2000/svg" viewBox="0 0 384 512"><!-- Font Awesome Pro 5.15.4 by @fontawesome - https://fontawesome.com License - https://fontawesome.com/license (Commercial License) --><path d="M369.9 97.9L286 14C277 5 264.8-.1 252.1-.1H48C21.5 0 0 21.5 0 48v416c0 26.5 21.5 48 48 48h288c26.5 0 48-21.5 48-48V131.9c0-12.7-5.1-25-14.1-34zm-22.6 22.7c2.1 2.1 3.5 4.6 4.2 7.4H256V32.5c2.8.7 5.3 2.1 7.4 4.2l83.9 83.9zM336 480H48c-8.8 0-16-7.2-16-16V48c0-8.8 7.2-16 16-16h176v104c0 13.3 10.7 24 24 24h104v304c0 8.8-7.2 16-16 16zm-77.6-66.6c38.5-26 61.6-69.3 61.6-115.7 0-24.7-6.5-48.9-18.9-70.1-12-20.6-29.1-37.8-49.6-50-7.1-4.2-16.3-1.9-20.6 5.2-4.2 7.1-1.9 16.3 5.2 20.6 33.1 19.7 53.7 55.8 53.7 94.3 0 36.5-18.1 70.4-48.3 90.9-6.9 4.6-8.7 14-4 20.8 2.9 4.3 7.6 6.6 12.4 6.6 3.1 0 6-.8 8.5-2.6zm-26.6-38.3c26-17.3 41.5-46.2 41.5-77.4 0-32.9-17.7-63.7-46.2-80.3-7.2-4.2-16.3-1.7-20.5 5.4-4.2 7.2-1.7 16.3 5.4 20.5 19.3 11.2 31.3 32 31.3 54.3 0 21.1-10.5 40.7-28.1 52.4-6.9 4.6-8.8 13.9-4.2 20.8 2.9 4.4 7.7 6.7 12.5 6.7 2.8.1 5.7-.7 8.3-2.4zm-27-38.2c13.7-8.5 21.8-23.1 21.8-39.2 0-17-9.3-32.5-24.2-40.6-7.3-3.9-16.4-1.2-20.3 6.1-3.9 7.3-1.2 16.4 6.1 20.3 5.2 2.8 8.5 8.3 8.5 14.2 0 5.6-2.9 10.8-7.6 13.7-7 4.4-9.2 13.6-4.8 20.7 2.8 4.6 7.7 7.1 12.8 7.1 2.5 0 5.2-.7 7.7-2.3zM138 266.7v74.7L112 322H94v-36h18l26-19.3m17.9-50.7c-2.9 0-6 1.1-8.4 3.5L104 256H76c-6.6 0-12 5.4-12 12v72c0 6.6 5.4 12 12 12h28l43.5 36.5c2.4 2.4 5.4 3.5 8.4 3.5 6.2 0 12.1-4.8 12.1-12V228c0-7.2-5.9-12-12.1-12z"/></svg>