<svg xmlns="http://www.w3.org/2000/svg" viewBox="0 0 448 512"><!-- Font Awesome Pro 5.15.4 by @fontawesome - https://fontawesome.com License - https://fontawesome.com/license (Commercial License) --><path d="M433.94 65.94l-51.88-51.88A48 48 0 0 0 348.12 0H176a48 48 0 0 0-48 48v48H48a48 48 0 0 0-48 48v320a48 48 0 0 0 48 48h224a48 48 0 0 0 48-48v-48h80a48 48 0 0 0 48-48V99.88a48 48 0 0 0-14.06-33.94zM352 32.49a15.88 15.88 0 0 1 7.43 4.2l51.88 51.88a16 16 0 0 1 4.2 7.43H352zM288 464a16 16 0 0 1-16 16H48a16 16 0 0 1-16-16V144a16 16 0 0 1 16-16h80v240a48 48 0 0 0 48 48h112zm128-96a16 16 0 0 1-16 16H176a16 16 0 0 1-16-16V48a16 16 0 0 1 16-16h144v72a24.07 24.07 0 0 0 24 24h72zM314.67 182.67A6.67 6.67 0 0 0 308 176h-40a6.67 6.67 0 0 0-6.67 6.67v46.66h-46.66A6.67 6.67 0 0 0 208 236v40a6.67 6.67 0 0 0 6.67 6.67h46.66v46.66A6.67 6.67 0 0 0 268 336h40a6.67 6.67 0 0 0 6.67-6.67v-46.66h46.66A6.67 6.67 0 0 0 368 276v-40a6.67 6.67 0 0 0-6.67-6.67h-46.66z"/></svg>