<svg xmlns="http://www.w3.org/2000/svg" viewBox="0 0 640 512"><!-- Font Awesome Pro 5.15.4 by @fontawesome - https://fontawesome.com License - https://fontawesome.com/license (Commercial License) --><path d="M605.65 487.05l-88.89-88.88c16.86-21.68 27.31-48.58 27.31-78.17a128 128 0 1 0-128 128c29.55 0 56.43-10.42 78.1-27.24l88.9 88.89a8 8 0 0 0 11.32 0l11.31-11.31a8 8 0 0 0-.05-11.29zM416.05 416a96 96 0 1 1 96-96 96.12 96.12 0 0 1-96 96zM368 480H80a16 16 0 0 1-16-16V48.09a16 16 0 0 1 16-16h176v104a23.93 23.93 0 0 0 24 24l136-.09v-28a48.23 48.23 0 0 0-14.1-34L318 14.1A48 48 0 0 0 284.08 0H80a48.16 48.16 0 0 0-48 48.09V464a48 48 0 0 0 48 48h288a47.87 47.87 0 0 0 45.15-32.29 159.9 159.9 0 0 1-33.92-4.36A15.91 15.91 0 0 1 368 480zM288 32.59a15.73 15.73 0 0 1 7.4 4.2l83.9 83.89a15.75 15.75 0 0 1 4.2 7.39H288z"/></svg>