<svg xmlns="http://www.w3.org/2000/svg" viewBox="0 0 384 512"><!-- Font Awesome Pro 5.15.4 by @fontawesome - https://fontawesome.com License - https://fontawesome.com/license (Commercial License) --><path d="M369.9 98L286 14.1C277 5.1 264.8 0 252.1 0H48C21.5.1 0 21.6 0 48.1V464c0 26.5 21.5 48 48 48h288c26.5 0 48-21.5 48-48V132c0-12.7-5.1-25-14.1-34zM256 32.6c2.8.7 5.3 2.1 7.4 4.2l83.9 83.9c2.1 2.1 3.5 4.6 4.2 7.4H256zM352 464c0 8.8-7.2 16-16 16H48c-8.8 0-16-7.2-16-16V48.1C32 39.3 39.2 32 48 32h176v104.1c0 13.3 10.7 23.9 24 23.9h104zM192.7 298c18.5-9.1 31.3-28 31.3-50 0-30.9-25.1-56-56-56h-64c-4.4 0-8 3.6-8 8v144c0 4.4 3.6 8 8 8h16c4.4 0 8-3.6 8-8v-40h25.4l48 48-39 39c-3.1 3.1-3.1 8.2 0 11.3l11.3 11.3c3.1 3.1 8.2 3.1 11.3 0l39-39 39 39c3.1 3.1 8.2 3.1 11.3 0l11.3-11.3c3.1-3.1 3.1-8.2 0-11.3l-39-39 39-39c3.1-3.1 3.1-8.2 0-11.3l-11.3-11.3c-3.1-3.1-8.2-3.1-11.3 0l-39 39zM168 272h-40v-48h40c13.2 0 24 10.8 24 24s-10.8 24-24 24z"/></svg>