<svg xmlns="http://www.w3.org/2000/svg" viewBox="0 0 384 512"><!-- Font Awesome Pro 5.15.4 by @fontawesome - https://fontawesome.com License - https://fontawesome.com/license (Commercial License) --><path d="M369.9 97.98L286.02 14.1c-9-9-21.2-14.1-33.89-14.1H47.99C21.5.1 0 21.6 0 48.09v415.92C0 490.5 21.5 512 47.99 512h288.02c26.49 0 47.99-21.5 47.99-47.99V131.97c0-12.69-5.1-24.99-14.1-33.99zM256.03 32.59c2.8.7 5.3 2.1 7.4 4.2l83.88 83.88c2.1 2.1 3.5 4.6 4.2 7.4h-95.48V32.59zM272 480.01H112v-31.15c0-18.38 13.05-32.86 33.25-32.86 12.45 0 20.8 6.99 46.75 6.99 25.5 0 34.56-6.99 46.75-6.99 20.16 0 33.25 14.43 33.25 32.86v31.15zm80.01-16c0 8.8-7.2 16-16 16H304v-31.15c0-13.88-4.21-26.77-11.41-37.48-12.08-17.94-32.67-27.38-53.84-27.38-19.46 0-24.36 6.99-46.75 6.99-22.41 0-27.26-6.99-46.75-6.99-21.17 0-41.76 9.44-53.83 27.38-7.21 10.7-11.42 23.6-11.42 37.48v31.15H47.99c-8.8 0-16-7.2-16-16V48.09c0-8.8 7.2-16.09 16-16.09h176.04v104.07c0 13.3 10.7 23.93 24 23.93h103.98v304.01zM112 288c0 44.18 35.82 80 80 80s80-35.82 80-80c0-44.19-35.82-80-80-80s-80 35.81-80 80zm128 0c0 26.47-21.53 48-48 48s-48-21.53-48-48 21.53-48 48-48 48 21.53 48 48z"/></svg>