<svg xmlns="http://www.w3.org/2000/svg" viewBox="0 0 448 512"><!-- Font Awesome Pro 5.15.4 by @fontawesome - https://fontawesome.com License - https://fontawesome.com/license (Commercial License) --><path d="M433.9 98L350 14.1C341 5.1 328.8 0 316.1 0h-204c-26.5.1-48 21.6-48 48.1V288H8c-4.4 0-8 3.6-8 8v16c0 4.4 3.6 8 8 8h126.1l34.7 69.5c2.9 5.9 11.4 5.9 14.3 0L240 275.8l22.1 44.2H352c8.8 0 16-7.2 16-16s-7.2-16-16-16h-70.1l-34.7-69.5c-2.9-5.9-11.4-5.9-14.3 0L176 332.2l-19.9-39.8c-1.4-2.7-4.1-4.4-7.2-4.4H96V48.1c0-8.8 7.3-16.1 16.1-16.1h176v104.1c0 13.3 10.7 23.9 24 23.9h104v304c0 8.8-7.2 16-16 16h-288c-8.8 0-16.1-7.2-16.1-16V352H64.1v112c0 26.5 21.5 48 48 48H400c26.5 0 48-21.5 48-48V132c0-12.7-5.1-25-14.1-34zM320 128.1V32.6c2.8.7 5.3 2.1 7.4 4.2l83.9 83.9c2.1 2.1 3.5 4.6 4.2 7.4H320z"/></svg>