<svg xmlns="http://www.w3.org/2000/svg" viewBox="0 0 384 512"><!-- Font Awesome Pro 5.15.4 by @fontawesome - https://fontawesome.com License - https://fontawesome.com/license (Commercial License) --><path d="M159 336l-39.5-39.5c-4.7-4.7-12.3-4.7-17 0l-39 39L63 448h256V304l-55.5-55.5c-4.7-4.7-12.3-4.7-17 0L159 336zm96-50.7l32 32V416H95.1l.3-67.2 15.6-15.6 48 48c20.3-20.3 77.7-77.6 96-95.9zM127 256c35.3 0 64-28.7 64-64s-28.7-64-64-64-64 28.7-64 64 28.7 64 64 64zm0-96c17.6 0 32 14.4 32 32s-14.4 32-32 32-32-14.4-32-32 14.4-32 32-32zm242.9-62.1L286 14C277 5 264.8-.1 252.1-.1H48C21.5 0 0 21.5 0 48v416c0 26.5 21.5 48 48 48h288c26.5 0 48-21.5 48-48V131.9c0-12.7-5.1-25-14.1-34zM256 32.5c2.8.7 5.3 2.1 7.4 4.2l83.9 83.9c2.1 2.1 3.5 4.6 4.2 7.4H256V32.5zM352 464c0 8.8-7.2 16-16 16H48c-8.8 0-16-7.2-16-16V48c0-8.8 7.2-16 16-16h176v104c0 13.3 10.7 24 24 24h104v304z"/></svg>