<svg xmlns="http://www.w3.org/2000/svg" viewBox="0 0 384 512"><!-- Font Awesome Pro 5.15.4 by @fontawesome - https://fontawesome.com License - https://fontawesome.com/license (Commercial License) --><path d="M369.9 97.98L286.02 14.1c-9-9-21.2-14.1-33.89-14.1H47.99C21.5.1 0 21.6 0 48.09v415.92C0 490.5 21.5 512 47.99 512h288.02c26.49 0 47.99-21.5 47.99-47.99V131.97c0-12.69-5.1-24.99-14.1-33.99zM256.03 32.59c2.8.7 5.3 2.1 7.4 4.2l83.88 83.88c2.1 2.1 3.5 4.6 4.2 7.4h-95.48V32.59zm95.98 431.42c0 8.8-7.2 16-16 16H47.99c-8.8 0-16-7.2-16-16V48.09c0-8.8 7.2-16.09 16-16.09h176.04v104.07c0 13.3 10.7 23.93 24 23.93h103.98v304.01zM192 192v128h127.99c.01 0 0-.01 0-.02-.01-70.68-57.29-127.97-127.97-127.98H192zm32 37.49c27.22 9.66 48.85 31.28 58.5 58.51H224v-58.51zM176 416c-44.12 0-80-35.89-80-80 0-38.63 27.52-70.95 64-78.38v-32c-54.13 7.85-96 54.11-96 110.38 0 61.75 50.25 112 112 112 56.27 0 102.54-41.87 110.38-96h-32c-7.43 36.47-39.74 64-78.38 64z"/></svg>