<svg xmlns="http://www.w3.org/2000/svg" viewBox="0 0 448 512"><!-- Font Awesome Pro 5.15.4 by @fontawesome - https://fontawesome.com License - https://fontawesome.com/license (Commercial License) --><path d="M429.627 32.177l-160 24C254.178 58.494 256 74.414 256 80h-61.396C212.106 43.162 185.315 0 144 0c-43.131 0-69.629 46.603-48.775 83.504-42.891 9.634-75.08 39.064-94.077 86.554-3.282 8.205.708 17.517 8.913 20.798 8.21 3.282 17.518-.713 20.798-8.913C62.582 102.637 120.434 112 176 112v33.353c-45.574 7.763-80 48.123-80 95.853V488c0 13.255 10.745 24 24 24h144c13.255 0 24-10.745 24-24V240c0-47.566-34.599-87.046-80-94.665V112h48c0 4.893-2.181 21.452 13.627 23.823l160 24C439.275 161.264 448 153.803 448 144V48c0-9.775-8.695-17.269-18.373-15.823zM256 240v240H128V241.205c0-35.694 28.49-64.944 63.501-65.203L192 176c35.29 0 64 28.71 64 64zM144 32c13.234 0 24 10.766 24 24s-10.766 24-24 24-24-10.766-24-24 10.766-24 24-24zm272 93.421l-128-19.2V85.779l128-19.2v58.842z"/></svg>