<svg xmlns="http://www.w3.org/2000/svg" viewBox="0 0 576 512"><!-- Font Awesome Pro 5.15.4 by @fontawesome - https://fontawesome.com License - https://fontawesome.com/license (Commercial License) --><path d="M464 288c-25.5 0-50 8.9-69.8 24.8C370.8 277.7 331.1 256 288 256s-82.8 21.7-106.2 56.8C162 296.9 137.5 288 112 288 50.2 288 0 338.2 0 400s50.2 112 112 112h352c61.8 0 112-50.2 112-112s-50.2-112-112-112zm0 192H112c-44.1 0-80-35.9-80-80s35.9-80 80-80c23.5 0 45.8 10.7 61.2 29.2l16.5 19.9 10.4-23.7C215.6 310.6 250 288 288 288s72.4 22.6 87.8 57.4l10.4 23.7 16.5-19.9c15.4-18.6 37.8-29.2 61.2-29.2 44.1 0 80 35.9 80 80s-35.8 80-79.9 80zm-63.1-209.2c1.7-.8 3.4-1.4 5.1-2.2 7.3-28.9 4.4-60.7-9.7-88.4-3.2-6.3-6.8-13-10.8-19.7L320 192s-78.1-81.4-84.7-89.3c-46.3 57.4-69.5 91-69.5 129.1 0 13.5 2.3 25.8 5.6 37.4 1.2.6 2.5 1 3.7 1.6 7.5-7.4 15.8-13.8 24.6-19.6-1.1-6.1-1.8-12.4-1.8-19.4 0-21.7 12.4-44.3 39.6-80 21 22.1 48.2 50.5 59.5 62.3l16.1 16.7 20.9-10.1 37.6-18.1c6.4 16 7.9 32.8 5.6 48.7 8.4 5.8 16.4 12.2 23.7 19.5zM112 256c6.3 0 12.4.5 18.6 1.3-1.3-8.2-2.6-16.4-2.6-25 0-39.9 41.2-117.9 111.4-187.8 15.3 16.9 28.8 35.2 42 53.1 4.4 6 8.7 11.9 13.1 17.6l24.1 31.9 25.9-30.5c7.3-8.6 17.4-19.3 28.3-30 46 50.8 75.3 117.6 75.3 145.6 0 8.6-1.2 16.8-2.6 25 6.1-.8 12.3-1.3 18.6-1.3 4.8 0 9.4 1 14.1 1.4 1.1-8.2 1.9-16.6 1.9-25.1 0-43.9-44.6-134.6-106.7-190.1C355.5 58.2 334.2 79.2 320 96c-23.4-31-47.2-66.7-80-96C155.8 75.2 96 173.2 96 232.3c0 8.5.8 16.9 1.9 25.1 4.7-.4 9.3-1.4 14.1-1.4z"/></svg>