<svg xmlns="http://www.w3.org/2000/svg" viewBox="0 0 448 512"><!-- Font Awesome Pro 5.15.4 by @fontawesome - https://fontawesome.com License - https://fontawesome.com/license (Commercial License) --><path d="M448 281.6c0-53.27-51.98-163.13-124.44-230.4-20.8 19.3-39.58 39.59-56.22 59.97C240.08 73.62 206.28 35.53 168 0 69.74 91.17 0 209.96 0 281.6 0 408.85 100.29 512 224 512c.53 0 1.04-.08 1.58-.08.32 0 .6.08.92.08 1.88 0 3.71-.35 5.58-.42C352.02 507.17 448 406.04 448 281.6zm-416 0c0-50.22 47.51-147.44 136.05-237.09 27.38 27.45 52.44 56.6 73.39 85.47l24.41 33.62 26.27-32.19a573.83 573.83 0 0 1 30.99-34.95C379.72 159.83 416 245.74 416 281.6c0 54.69-21.53 104.28-56.28 140.21 12.51-35.29 10.88-75.92-8.03-112.02a357.34 357.34 0 0 0-10.83-19.19l-22.63-37.4-28.82 32.87-25.86 29.5c-24.93-31.78-59.31-75.5-63.7-80.54l-24.65-28.39-24.08 28.87C108.16 287 80 324.21 80 370.41c0 19.02 3.62 36.66 9.77 52.79C54.17 387.17 32 337.03 32 281.6zm193.54 198.32C162.86 479.49 112 437.87 112 370.41c0-33.78 21.27-63.55 63.69-114.41 6.06 6.98 86.48 109.68 86.48 109.68l51.3-58.52a334.43 334.43 0 0 1 9.87 17.48c23.92 45.66 13.83 104.1-29.26 134.24-17.62 12.33-39.14 19.71-62.37 20.73-2.06.07-4.09.29-6.17.31z"/></svg>