<svg xmlns="http://www.w3.org/2000/svg" viewBox="0 0 640 512"><!-- Font Awesome Pro 5.15.4 by @fontawesome - https://fontawesome.com License - https://fontawesome.com/license (Commercial License) --><path d="M363.44 64c-100 0-187.26 65.72-235.85 122l-97-85.67C17.08 89.28-3 101 .4 117.89L27.27 256 .39 394.12C-3 411 17.06 422.72 30.54 411.71l97-85.65C176.17 382.28 263.48 448 363.44 448 516.18 448 640 294.4 640 256S516.18 64 363.44 64zm0 352c-85.4 0-165.33-57.27-211.65-110.87l-20.35-23.55c-31.19 25.48-12.24 8.88-92.08 81.61C61.12 249.3 58.13 264.82 59.93 256c-1.8-8.81 1.2 6.73-20.56-107.19 80 72.85 61 56.21 92.08 81.62l20.35-23.55C198.12 153.28 278 96 363.44 96c128.19 0 236.08 126.49 244.35 160-8.27 33.51-116.16 160-244.35 160zm-21.78-250.35l-11.31-11.31a8 8 0 0 0-11.32 0L234.35 239a8 8 0 0 0 0 11.31l11.31 11.31a8 8 0 0 0 11.31 0L341.66 177a8 8 0 0 0 0-11.35zm112 16l-11.31-11.31a8 8 0 0 0-11.32 0L282.35 319a8 8 0 0 0 0 11.31l11.31 11.31a8 8 0 0 0 11.31 0L453.66 193a8 8 0 0 0 0-11.35zm36.69 68.69a8 8 0 0 0-11.32 0L394.35 335a8 8 0 0 0 0 11.31l11.31 11.31a8 8 0 0 0 11.31 0L501.66 273a8 8 0 0 0 0-11.32z"/></svg>