<svg xmlns="http://www.w3.org/2000/svg" viewBox="0 0 640 512"><!-- Font Awesome Pro 5.15.4 by @fontawesome - https://fontawesome.com License - https://fontawesome.com/license (Commercial License) --><path d="M363.44 80c-99.96 0-187.27 60.25-235.86 111.79l-97.04-72.66c-3.65-2.73-7.78-3.94-11.8-3.94-10.85 0-20.87 8.78-18.36 20.06L27.27 256 .39 376.74c-2.51 11.28 7.52 20.06 18.36 20.06 4.02 0 8.15-1.21 11.8-3.94l97.04-72.66C176.17 371.75 263.48 432 363.44 432 516.18 432 640 291.2 640 256c0-35.2-123.82-176-276.56-176zm0 320c-86.02 0-166.21-52.56-212.57-101.74l-19.6-20.79-22.87 17.12-68.33 51.17 18.43-82.8 1.55-6.95-1.55-6.95-18.43-82.8 68.33 51.17 22.87 17.12 19.6-20.79C197.23 164.56 277.42 112 363.44 112 489 112 595.86 223.33 607.5 256 595.86 288.67 489 400 363.44 400zM448 232c-13.25 0-24 10.74-24 24 0 13.25 10.75 24 24 24s24-10.75 24-24c0-13.26-10.75-24-24-24z"/></svg>