<svg xmlns="http://www.w3.org/2000/svg" viewBox="0 0 384 512"><!-- Font Awesome Pro 5.15.4 by @fontawesome - https://fontawesome.com License - https://fontawesome.com/license (Commercial License) --><path d="M350.82 167.94c.46-2.63 1.18-5.18 1.18-7.94V80c0-26.51-21.49-48-48-48h-16c-6.32 0-12.32 1.29-17.85 3.52C264.62 15.12 246.12 0 224 0h-16c-22.12 0-40.62 15.12-46.15 35.52C156.32 33.29 150.32 32 144 32h-16c-22.12 0-40.62 15.12-46.15 35.52C76.32 65.29 70.32 64 64 64H48C21.49 64 0 85.49 0 112v186.98c0 38.17 15.16 74.78 42.15 101.77L64 422.62V504c0 4.42 3.58 8 8 8h16c4.42 0 8-3.58 8-8v-94.63l-31.22-31.23A111.97 111.97 0 0 1 32 298.98v-45.93c5.03 1.79 10.36 2.95 16 2.95h16c12.34 0 23.49-4.81 32-12.48 8.51 7.68 19.66 12.48 32 12.48h16c13.16 0 25.09-5.34 33.77-13.95.24.3 9.34 14.63 30.62 23.65-19.67 15.79-33.92 35.74-57.27 70.77a7.992 7.992 0 0 0 2.22 11.09l13.31 8.88a7.992 7.992 0 0 0 11.09-2.22l6.31-9.47c31.91-47.87 51.56-70.29 96.12-72.56 4.25-.22 7.82-3.67 7.82-7.93V248c0-4.42-3.58-8-8-8h-40.67c-26.16 0-47.36-21.21-47.36-47.36v-.74c0-8.78 7.12-15.9 15.9-15.9H288c35.35 0 64 28.65 64 64v88.32c0 25.41-10.09 49.77-28.06 67.74L288 432v72c0 4.42 3.58 8 8 8h16c4.42 0 8-3.58 8-8v-58.75l26.51-26.51c24-24 37.49-56.56 37.49-90.51V240c0-28.87-13.01-54.46-33.18-72.06zM80 208c0 8.84-7.16 16-16 16H48c-8.84 0-16-7.16-16-16v-96c0-8.84 7.16-16 16-16h16c8.84 0 16 7.16 16 16v96zm80 0c0 8.84-7.16 16-16 16h-16c-8.84 0-16-7.16-16-16V80c0-8.84 7.16-16 16-16h16c8.84 0 16 7.16 16 16v128zm80-64h-32.03c-5.58 0-10.92 1.1-15.97 2.85V48c0-8.84 7.16-16 16-16h16c8.84 0 16 7.16 16 16v96zm80 5.88c-10.05-3.57-20.72-5.88-32-5.88h-16V80c0-8.84 7.16-16 16-16h16c8.84 0 16 7.16 16 16v69.88z"/></svg>