<svg xmlns="http://www.w3.org/2000/svg" viewBox="0 0 512 512"><!-- Font Awesome Pro 5.15.4 by @fontawesome - https://fontawesome.com License - https://fontawesome.com/license (Commercial License) --><path d="M472.5 0c-7 0-14.3 1.5-21.2 4.6-50.5 22.7-87.8 30.3-119.1 30.3C266.1 34.9 227.7.4 151.4.4 119.8.4 81.2 6.9 32 23.6V16c0-8.8-7.2-16-16-16S0 7.2 0 16v488c0 4.4 3.6 8 8 8h16c4.4 0 8-3.6 8-8V403.6c44.2-15.8 81.6-22 114.5-22 81.2 0 137.8 34.4 219.1 34.4 35.3 0 75.1-6.5 123.7-25 14-5.4 22.8-17.9 22.8-31.2V33.4C512 13 493.4 0 472.5 0zM256 54.3c58.3 17.5 113.9 21.8 208.3-20.5 9.4-4.2 15.7-.5 15.7 5.6v52.4c-98.8 41.7-153.2 28.3-224 16.1V54.3zm0 86c34.5 6.1 64.2 12 98.8 12 35.2 0 75.8-7 125.2-26.3v61.6c-103.5 33.4-162.8 18.4-224 4v-51.3zM32 57.2c46-16.7 85.3-24.8 119.4-24.8 27.7 0 50.5 5.5 72.6 12.1v140c-51.1-10.4-108.6-14.8-192 10.4V57.2zm0 171.1c100.6-32.4 159.1-19.2 220.4-4.7 57.5 13.6 120.2 30 227.7-2.4v54.5c-100.5 32.4-159 19.2-220.4 4.7-61-14.4-124.5-28.6-227.7 2.5v-54.6zM365.5 384c-75.6 0-133-34.4-219.1-34.4-36.7 0-74.4 6.5-114.5 19.8v-53.1c100.6-32.4 159-19.2 220.3-4.7 58.8 13.8 120.5 29.9 227.7-2.4v50.3c-.8 2.5-58.8 24.5-114.4 24.5zM96 64c-8.8 0-16 7.2-16 16s7.2 16 16 16 16-7.2 16-16-7.2-16-16-16zm72 32c8.8 0 16-7.2 16-16s-7.2-16-16-16-16 7.2-16 16 7.2 16 16 16zm-72 24c-8.8 0-16 7.2-16 16s7.2 16 16 16 16-7.2 16-16-7.2-16-16-16zm72 32c8.8 0 16-7.2 16-16s-7.2-16-16-16-16 7.2-16 16 7.2 16 16 16z"/></svg>