<svg xmlns="http://www.w3.org/2000/svg" viewBox="0 0 384 512"><!-- Font Awesome Pro 5.15.4 by @fontawesome - https://fontawesome.com License - https://fontawesome.com/license (Commercial License) --><path d="M192 0C79.7 101.33 0 220.92 0 300.55 0 425.05 78.95 512 192 512s192-86.95 192-211.45C384 220.6 303.78 100.86 192 0zm0 480c-95.7 0-160-72.12-160-179.45 0-63.08 63.42-164.08 160-256.83 96.58 92.76 160 193.76 160 256.83C352 407.88 287.7 480 192 480zm60.1-267.1c-26.52-22.66-51.57-44.08-51.57-77.63 0-4.54-3.77-6.25-5.38-6.78-.96-.3-2.05-.49-3.2-.49-2.57 0-5.39.95-7.38 3.67C111.36 231.23 224 224 224 296c0 30.93-25.07 56-56 56s-56-25.07-56-56v-40c0-2.05-.78-4.1-2.34-5.66S106.05 248 104 248s-4.09.78-5.66 2.34C89.84 258.6 64 285.98 64 330.11c0 65 57.42 117.89 128 117.89s128-52.89 128-117.89c0-59.17-34.52-88.67-67.9-117.21zM192 416c-45.26 0-83.29-28.16-93.38-65.93C114.74 370.71 139.85 384 168 384c48.52 0 88-39.48 88-88 0-20.66-6.08-36.85-14.51-50.01 26.69 23.29 46.51 44.58 46.51 84.12 0 47.36-43.06 85.89-96 85.89z"/></svg>