<svg xmlns="http://www.w3.org/2000/svg" viewBox="0 0 448 512"><!-- Font Awesome Pro 5.15.4 by @fontawesome - https://fontawesome.com License - https://fontawesome.com/license (Commercial License) --><path d="M434.9 410.7L288 218.6V32h26c3.3 0 6-2.7 6-6V6c0-3.3-2.7-6-6-6H134c-3.3 0-6 2.7-6 6v20c0 3.3 2.7 6 6 6h26v186.6L13.1 410.7C-18.6 452.2 11 512 63.1 512h321.8c52.2 0 81.7-59.8 50-101.3zm-50 69.3H63.1c-25.7 0-40.3-29.4-24.6-49.8l150.2-196.5c2.1-2.8 3.3-6.2 3.3-9.7V32h64v192c0 3.5 1.2 6.9 3.3 9.7l150.2 196.5c15.6 20.4 1.2 49.8-24.6 49.8z"/></svg>