<svg xmlns="http://www.w3.org/2000/svg" viewBox="0 0 512 512"><!-- Font Awesome Pro 5.15.4 by @fontawesome - https://fontawesome.com License - https://fontawesome.com/license (Commercial License) --><path d="M288 144a32 32 0 1 0-32 32 32 32 0 0 0 32-32zm207.87 144H448.6A224 224 0 0 0 272 374v-96.54A85.76 85.76 0 0 0 312.87 288 87.22 87.22 0 0 0 400 200.89 85.82 85.82 0 0 0 378.62 144 85.82 85.82 0 0 0 400 87.11 87.22 87.22 0 0 0 312.87 0 85.8 85.8 0 0 0 256 21.36 85.8 85.8 0 0 0 199.13 0 87.22 87.22 0 0 0 112 87.11 85.82 85.82 0 0 0 133.38 144 85.82 85.82 0 0 0 112 200.89 87.22 87.22 0 0 0 199.13 288 85.64 85.64 0 0 0 240 277.46V374a224 224 0 0 0-176.6-86H16.13c-9.19 0-17 9-16.06 19.65C10.06 422.15 106.43 512 223.83 512h64.34c117.4 0 213.77-89.85 223.76-204.35.92-10.65-6.87-19.65-16.06-19.65zM240 480h-16.17c-93.89 0-174.52-69.14-189.94-160H63.4a192.45 192.45 0 0 1 165 93.35C242 436.09 240 454.05 240 480zm16-263.61l-12.84 17.22a54.58 54.58 0 0 1-44 22.39A55.17 55.17 0 0 1 144 200.89a54.59 54.59 0 0 1 22.41-44.06L183.63 144l-17.22-12.83A54.59 54.59 0 0 1 144 87.11 55.17 55.17 0 0 1 199.13 32a54.58 54.58 0 0 1 44 22.39L256 71.61l12.84-17.22a54.58 54.58 0 0 1 44-22.39A55.17 55.17 0 0 1 368 87.11a54.59 54.59 0 0 1-22.41 44.06L328.37 144l17.22 12.83A54.59 54.59 0 0 1 368 200.89 55.17 55.17 0 0 1 312.87 256a54.58 54.58 0 0 1-44-22.39zM288 480h-16c0-26-2-43.9 11.63-66.65A192.45 192.45 0 0 1 448.6 320h29.51C462.69 410.86 382.05 480 288 480z"/></svg>