<svg xmlns="http://www.w3.org/2000/svg" viewBox="0 0 448 512"><!-- Font Awesome Pro 5.15.4 by @fontawesome - https://fontawesome.com License - https://fontawesome.com/license (Commercial License) --><path d="M448,112V400a80.15451,80.15451,0,0,1-80,80H80A80.15451,80.15451,0,0,1,0,400V112A80.15451,80.15451,0,0,1,80,32H368A80.15451,80.15451,0,0,1,448,112Zm-32,0a48.0927,48.0927,0,0,0-48-48H80a48.0927,48.0927,0,0,0-48,48V400a48.0927,48.0927,0,0,0,48,48H368a48.0927,48.0927,0,0,0,48-48Zm-32,64a80.034,80.034,0,0,1-80,80,92.12951,92.12951,0,0,1-11.18751-1l45.125-45.0625c7.625-7.73438,13.78126-22.8125,13.78126-33.65625a48.01238,48.01238,0,0,0-48-48c-10.84375,0-25.90626,6.17187-33.65626,13.78125L224,188.125l-46.06251-46.10938c-7.75-7.60937-22.81249-13.78124-33.65624-13.78124a48.01238,48.01238,0,0,0-48,48c0,10.84374,6.15625,25.9375,13.78125,33.67187L155.1875,255A92.12916,92.12916,0,0,1,144,256a80,80,0,1,1,80-80,80,80,0,0,1,160,0ZM208,336V262.625l-75.3125-75.3125a18.38329,18.38329,0,0,1-4.375-11.01562,15.97086,15.97086,0,0,1,16-16,18.49292,18.49292,0,0,1,11,4.39062L224,233.375l68.68749-68.6875a18.49294,18.49294,0,0,1,11-4.39062,15.97086,15.97086,0,0,1,16,16,18.38323,18.38323,0,0,1-4.375,11.01562L240,262.625V336a16,16,0,0,1-32,0Zm96,0a80.00157,80.00157,0,1,1-129.93751-62L176,275.875V336a48,48,0,0,0,96,0V275.875L273.93749,274A79.34533,79.34533,0,0,1,304,336Z"/></svg>