<svg xmlns="http://www.w3.org/2000/svg" viewBox="0 0 512 512"><!-- Font Awesome Pro 5.15.4 by @fontawesome - https://fontawesome.com License - https://fontawesome.com/license (Commercial License) --><path d="M329.54 225.77l-11.31-11.31c-3.12-3.12-8.19-3.12-11.31 0L256 265.37l-50.91-50.91c-3.12-3.12-8.19-3.12-11.31 0l-11.31 11.31c-3.12 3.12-3.12 8.19 0 11.31l50.9 50.92-50.91 50.91c-3.12 3.12-3.12 8.19 0 11.31l11.31 11.31c3.12 3.12 8.19 3.12 11.31 0l50.92-50.9 50.91 50.91c3.12 3.12 8.19 3.12 11.31 0l11.31-11.31c3.12-3.12 3.12-8.19 0-11.31L278.63 288l50.91-50.91a8.015 8.015 0 0 0 0-11.32zM194.74 96l54.63 54.63c6 6 14.14 9.37 22.63 9.37h192c8.84 0 16 7.16 16 16v224c0 8.84-7.16 16-16 16H48c-8.84 0-16-7.16-16-16V112c0-8.84 7.16-16 16-16h146.74M48 64C21.49 64 0 85.49 0 112v288c0 26.51 21.49 48 48 48h416c26.51 0 48-21.49 48-48V176c0-26.51-21.49-48-48-48H272l-54.63-54.63c-6-6-14.14-9.37-22.63-9.37H48z"/></svg>