<svg xmlns="http://www.w3.org/2000/svg" viewBox="0 0 512 512"><!-- Font Awesome Pro 5.15.4 by @fontawesome - https://fontawesome.com License - https://fontawesome.com/license (Commercial License) --><path d="M464,128H272L217.37,73.37A32,32,0,0,0,194.74,64H48A48,48,0,0,0,0,112V400a48,48,0,0,0,48,48H464a48,48,0,0,0,48-48V176A48,48,0,0,0,464,128Zm16,272a16,16,0,0,1-16,16H272V319.7h52.66a26.94,26.94,0,0,0,25-16.72,28.38,28.38,0,0,0-5.44-30.81l-68.12-71.78c-10.69-11.19-29.51-11.2-40.19,0l-68.12,71.75A28.43,28.43,0,0,0,162.34,303a26.94,26.94,0,0,0,25,16.72H240V416H48a16,16,0,0,1-16-16V112A16,16,0,0,1,48,96H194.74l54.63,54.63A32,32,0,0,0,272,160H464a16,16,0,0,1,16,16ZM197.15,287.7l58.84-62,58.84,62Z"/></svg>