<svg xmlns="http://www.w3.org/2000/svg" viewBox="0 0 496 512"><!-- Font Awesome Pro 5.15.4 by @fontawesome - https://fontawesome.com License - https://fontawesome.com/license (Commercial License) --><path d="M344.2 182.5l-28.3 28.3 28.3 28.3c3.1 3.1 3.1 8.2 0 11.3l-11.3 11.3c-3.1 3.1-8.2 3.1-11.3 0l-28.3-28.3-22.7 22.6 28.3 28.3c3.1 3.1 3.1 8.2 0 11.3l-11.3 11.3c-3.1 3.1-8.2 3.1-11.3 0L248 278.6l-22.6 22.6 28.3 28.3c3.1 3.1 3.1 8.2 0 11.3l-11.3 11.3c-3.1 3.1-8.2 3.1-11.3 0l-28.3-28.3-28.3 28.3c-3.1 3.1-8.2 3.1-11.3 0l-11.3-11.3c-3.1-3.1-3.1-8.2 0-11.3l28.3-28.3-28.4-28.2c-3.1-3.1-3.1-8.2 0-11.3l11.3-11.3c3.1-3.1 8.2-3.1 11.3 0l28.3 28.3 22.6-22.6-28.3-28.3c-3.1-3.1-3.1-8.2 0-11.3l11.3-11.3c3.1-3.1 8.2-3.1 11.3 0l28.3 28.3 22.6-22.6-28.3-28.3c-3.1-3.1-3.1-8.2 0-11.3l11.3-11.3c3.1-3.1 8.2-3.1 11.3 0l28.3 28.3 28.3-28.3c3.1-3.1 8.2-3.1 11.3 0l11.3 11.3c3.3 3 3.3 8 .2 11.2zm57.3 227.2C263.6 547.9 75.7 495.3 51.9 488.9c-18.2-4.9-32.4-19.1-37.2-37.3-17.1-64.7-42.9-226.4 79.8-349.3C232.4-35.9 420.3 16.7 444.1 23.1c18.2 4.9 32.4 19.1 37.2 37.3 17.1 64.7 42.9 226.4-79.8 349.3zM435.9 54c-20.3-5.4-50.8-11.4-86.3-13.2l113.9 113.9c-1.6-35.7-7.7-66.1-13-86.1-1.9-7.1-7.5-12.7-14.6-14.6zM60.1 458c20.3 5.4 50.8 11.4 86.3 13.2L32.6 357.3c1.6 35.7 7.7 66.1 13 86.1 1.8 7.1 7.4 12.7 14.5 14.6zm402.7-258.8L304.6 41.1c-74.2 5.3-137.2 33.3-187.5 83.7-58.4 58.5-79.3 127.3-83.9 187.9l158.1 158.1c74.2-5.3 137.2-33.3 187.5-83.7 58.5-58.4 79.4-127.2 84-187.9z"/></svg>