<svg xmlns="http://www.w3.org/2000/svg" viewBox="0 0 512 512"><!-- Font Awesome Pro 5.15.4 by @fontawesome - https://fontawesome.com License - https://fontawesome.com/license (Commercial License) --><path d="M480 320H355.5l-15.2-76 136.8-17.8c9-1.2 15.6-9.8 13.9-18.7C468.4 93.8 368.3 8 248 8 114.9 8 18.2 109.5 2.6 219.9-7.6 292 13.3 361.2 53.7 412.1c3.1 3.9 7.8 6.1 12.8 6.1H120l85.7 42.9c9.3 4.7 19.4 6.9 29.3 6.9 46.5 0 78.1-49.2 60.9-92.1l-9.5-23.9h42.9l9.5 49.4c9.5 47.4 48 83.2 95.9 89.2 44 5.5 42.5 5.4 45.3 5.4 22.5 0 32-19.7 32-32V352c0-17.7-14.3-32-32-32zm-206.4 0l-10.3-25.7c-17.9-44.9 45.1-46.2 45.2-46.2l14.4 71.9h-49.3zm11.2-101.1c-41.4 5.4-66.7 48.4-51.2 87.2l32.6 83.7c5 12.5 2.1 26.7-7.4 36.2-12.8 12.8-29.3 11-38.8 6.3-88.6-44.3-82.9-43.6-92.5-48.4H74.1c-33.9-45.8-48-102.2-39.9-159.6C47.5 130.6 131.2 40 248 40c96.8 0 181.4 64.9 207.5 156.7l-170.7 22.2zM480 464l-41.3-5.2c-25.9-3.2-48-18.7-60.1-40.7H480V464zm0-80H368.3l-6.4-32H480v32zm-304-72c-13.3 0-24 10.7-24 24s10.7 24 24 24 24-10.7 24-24-10.7-24-24-24z"/></svg>