<svg xmlns="http://www.w3.org/2000/svg" viewBox="0 0 512 512"><!-- Font Awesome Pro 5.15.4 by @fontawesome - https://fontawesome.com License - https://fontawesome.com/license (Commercial License) --><path d="M437.29 88.14a31.71 31.71 0 0 0-30.47-6.76l-9.9 3 2.58-14.77a32 32 0 0 0-40.69-36.19l-34.25 10.21A31.61 31.61 0 0 0 304 63.17V48a31.86 31.86 0 0 0-17.69-28.63l-32-16A32 32 0 0 0 208 32v15.72l-4-21.56a32 32 0 0 0-50.81-19.62l-28.47 21.59a31.65 31.65 0 0 0-12.16 31.39L117.32 85l-12.14-3.63a32 32 0 0 0-40.68 36.16L84 228.87a31.5 31.5 0 0 0-9 7.13 32 32 0 0 0-6.28 27l49.78 224a32 32 0 0 0 31.23 25h212.54a32 32 0 0 0 31.24-25.06l49.78-224A30 30 0 0 0 428 228.87l19.5-111.31a31.75 31.75 0 0 0-10.21-29.42zm-46.53 31.44L416 112l-20.19 115.52A31.68 31.68 0 0 0 380 243.81c-3.19 7.73-8.38 14.83-14.73 21.39zm-57-45.3L368 64l-39.44 225.6a163.15 163.15 0 0 1-24.56 8.32v-53.67zM272 48v255.17c-5.28.41-10.57.84-16 .84s-10.72-.43-16-.84V32zm-99.47-16L208 221.71v76.21a169.52 169.52 0 0 1-19.49-6.24L144 53.64zm-71.94 64.71L96 112l27.94 8.36 28 149.89c-9-7.85-16-16.7-20-26.47a31.68 31.68 0 0 0-15.82-16.31L95.93 112zM362.27 480H149.73L100 256c19.44 47.11 83.53 80 156.05 80s136.62-32.88 156.05-80z"/></svg>