<svg xmlns="http://www.w3.org/2000/svg" viewBox="0 0 384 512"><!-- Font Awesome Pro 5.15.4 by @fontawesome - https://fontawesome.com License - https://fontawesome.com/license (Commercial License) --><path d="M376 224h-56V32c0-17.7-14.3-32-32-32H96C78.3 0 64 14.3 64 32v192H8c-4.4 0-8 3.6-8 8v16c0 4.4 3.6 8 8 8h37.5C27 284 16 317.5 16 353.7c0 62.8 32.8 117.5 82 148.8 10.7 6.8 23.6 9.5 36.2 9.5h21.6c-4.4-6.3-11.8-17-20.8-32h-.7c-5.5 0-13.2-.8-19-4.5C73.1 448.7 48 403.2 48 353.7c0-37.9 14.9-72 38.8-97.7h211.7c17.6 19.5 30.2 43.7 35.1 70.4 10.3 57.1-12.6 112.9-59.7 145.7-7.4 5.1-15.9 7.8-24.8 7.8-9 15-16.5 25.7-20.8 32h20.8c15.4 0 30.5-4.8 43.1-13.6 53.9-37.6 86.1-104.1 72.8-177.7-4.3-23.6-13.9-45.3-26.9-64.7H376c4.4 0 8-3.6 8-8v-16c0-4.3-3.6-7.9-8-7.9zm-88 0H96v-64h192v64zm0-96H96V32h192v96zm-42.7 277.3c0-29.4-23.9-53.3-53.3-53.3s-53.3 23.9-53.3 53.3c0 27.6 39.2 82.3 53.3 102.8 14.2-20.5 53.3-75.2 53.3-102.8zM192 384c11.8 0 21.3 9.6 21.3 21.3 0 6.7-9.7 26-21.3 45.2-11.6-19.1-21.3-38.5-21.3-45.2 0-11.7 9.5-21.3 21.3-21.3zm64-32c11.8 0 21.3-9.6 21.3-21.3 0-11.8-9.6-21.3-21.3-21.3-11.8 0-21.3 9.6-21.3 21.3 0 11.7 9.5 21.3 21.3 21.3zm-106.7-21.3c0-11.8-9.6-21.3-21.3-21.3-11.8 0-21.3 9.6-21.3 21.3 0 11.8 9.6 21.3 21.3 21.3 11.8 0 21.3-9.6 21.3-21.3z"/></svg>