<svg xmlns="http://www.w3.org/2000/svg" viewBox="0 0 640 512"><!-- Font Awesome Pro 5.15.4 by @fontawesome - https://fontawesome.com License - https://fontawesome.com/license (Commercial License) --><path d="M308.8 106.6l-12.7-9.1c-3.6-2.6-8.6-1.8-11.2 1.8-39.9 56.9-61 122-61 188.7s21.1 131.8 61 188.7c2.5 3.6 7.6 4.4 11.2 1.8l12.7-9.1c3.4-2.5 4.2-7.2 1.7-10.6-36.2-51.6-55.2-110.5-55.2-170.8s19.1-119.1 55.2-170.8c2.5-3.4 1.8-8.1-1.7-10.6zM224 40c0-4.4-3.6-8-8-8h-56c-44.2 0-80 35.8-80 80v80H8c-4.4 0-8 3.6-8 8v16c0 4.4 3.6 8 8 8h72v144c0 26.5-21.5 48-48 48H8c-4.4 0-8 3.6-8 8v16c0 4.4 3.6 8 8 8h24c44.2 0 80-35.8 80-80V224h72c4.4 0 8-3.6 8-8v-16c0-4.4-3.6-8-8-8h-72v-80c0-26.5 21.5-48 48-48h56c4.4 0 8-3.6 8-8zm355 59.3c-2.5-3.6-7.6-4.4-11.2-1.8l-12.7 9.1c-3.4 2.5-4.2 7.2-1.7 10.6 36.2 51.6 55.2 110.5 55.2 170.8s-19.1 119.1-55.2 170.8c-2.4 3.5-1.7 8.2 1.7 10.6l12.7 9.1c3.6 2.6 8.7 1.8 11.2-1.8 39.9-56.9 61-122 61-188.7s-21.1-131.8-61-188.7zm-69.3 122.3l-11.3-11.3c-3.1-3.1-8.2-3.1-11.3 0l-55 55-55-55c-3.1-3.1-8.2-3.1-11.3 0l-11.3 11.3c-3.1 3.1-3.1 8.2 0 11.3l55 55-55 55c-3.1 3.1-3.1 8.2 0 11.3l11.3 11.3c3.1 3.1 8.2 3.1 11.3 0l55-55 55 55c3.1 3.1 8.2 3.1 11.3 0l11.3-11.3c3.1-3.1 3.1-8.2 0-11.3l-55-55 55-55c3.1-3.1 3.1-8.1 0-11.3z"/></svg>