<svg xmlns="http://www.w3.org/2000/svg" viewBox="0 0 640 512"><!-- Font Awesome Pro 5.15.4 by @fontawesome - https://fontawesome.com License - https://fontawesome.com/license (Commercial License) --><path d="M464.02 160c-4.7 0-9.32.34-13.93.7L568.06 46.09C585.02 29.13 573.01 0 548.97 0H27.03C3.05 0-9.05 29.1 7.94 46.09L224 256v182c0 8.81 4.3 17.07 11.52 22.12l74 46.98c4.82 3.37 10.15 4.9 15.36 4.9 13.99 0 27.12-11.03 27.12-27.02v-13.22c30.43 25.12 69.46 40.21 112.02 40.21 97.34 0 175.98-78.78 175.98-175.98C640 238.64 561.22 160 464.02 160zM320 474l-63.74-38.25-.26-.22V242.47L39.35 32h497.29l-150.7 146.41c-58.01 28.78-97.9 88.42-97.9 157.56 0 37.65 11.88 72.42 31.96 101.01V474zm144.02 5.96c-79.39 0-143.98-64.59-143.98-143.98S384.63 192 464.02 192 608 256.59 608 335.98s-64.59 143.98-143.98 143.98zm27.11-152.54l-45-13.5c-5.16-1.55-8.77-6.78-8.77-12.73 0-7.27 5.3-13.19 11.8-13.19h28.11c4.56 0 8.96 1.29 12.82 3.72 3.24 2.03 7.36 1.91 10.13-.73l11.75-11.21c3.53-3.37 3.33-9.21-.57-12.14-9.1-6.83-20.08-10.77-31.37-11.35V240c0-4.42-3.58-8-8-8h-16c-4.42 0-8 3.58-8 8v16.12c-23.62.63-42.67 20.55-42.67 45.07 0 19.97 12.98 37.81 31.58 43.39l45 13.5c5.16 1.55 8.77 6.78 8.77 12.73 0 7.27-5.3 13.19-11.8 13.19H450.8c-4.56 0-8.96-1.29-12.82-3.72-3.24-2.03-7.36-1.91-10.13.73l-11.75 11.21c-3.53 3.37-3.33 9.21.57 12.14 9.1 6.83 20.08 10.77 31.37 11.35V432c0 4.42 3.58 8 8 8h16c4.42 0 8-3.58 8-8v-16.12c23.62-.63 42.67-20.54 42.67-45.07 0-19.97-12.98-37.81-31.58-43.39z"/></svg>