<svg xmlns="http://www.w3.org/2000/svg" viewBox="0 0 512 512"><!-- Font Awesome Pro 5.15.4 by @fontawesome - https://fontawesome.com License - https://fontawesome.com/license (Commercial License) --><path d="M255.99959,192.00854a63.9983,63.9983,0,1,0,63.99865,63.9983A64.07181,64.07181,0,0,0,255.99959,192.00854Zm0,95.99744a31.99915,31.99915,0,1,1,31.99932-31.99914A31.99832,31.99832,0,0,1,255.99959,288.006Zm250.46349-21.09319-.03125-.01562C489.18219,193.74287,428.121,134.74445,354.59127,120.073a206.301,206.301,0,0,0-40.28627-4.02919,196.07944,196.07944,0,0,0-20.55621,1.07614A106.75469,106.75469,0,0,1,344.56023,71.293C374.41507,58.54141,383.58285.01953,313.95735,0a204.93571,204.93571,0,0,0-47.083,5.5604c-73.12347,17.29641-132.12223,78.326-146.80942,151.87094a202.428,202.428,0,0,0-2.84369,60.87338A106.56506,106.56506,0,0,1,71.28471,167.478C56.4569,132.69372,4.77439,140.39274,1.00494,178.19641a201.27566,201.27566,0,0,0,4.5624,66.92009C22.817,318.2708,83.8782,377.26922,157.4079,391.94071a204.38064,204.38064,0,0,0,40.18276,4.035,197.5223,197.5223,0,0,0,20.65972-1.082,106.75465,106.75465,0,0,1-50.81144,45.8269C137.61535,453.45859,128.43781,512,198.0008,512a205.81012,205.81012,0,0,0,47.124-5.54673c73.12347-17.29641,132.12223-78.326,146.80942-151.87094a202.428,202.428,0,0,0,2.84369-60.87338,106.56506,106.56506,0,0,1,45.93654,50.82677c14.904,34.96391,66.524,26.93483,70.27978-10.71846A201.96274,201.96274,0,0,0,506.46308,266.91279Zm-27.31,63.72877c-.4414,4.40418-6.95689,6.13656-9.01739,1.31247a138.94319,138.94319,0,0,0-59.73312-66.17011c-22.59719-12.64224-50.163,5.48618-47.44823,31.27651a170.17135,170.17135,0,0,1-2.40034,51.25449c-12.279,61.4925-61.62761,112.5302-122.75133,126.98879a169.93235,169.93235,0,0,1-56.40506,3.85732,4.69412,4.69412,0,0,1-1.36912-9.02124,139.25291,139.25291,0,0,0,66.11385-59.56091c11.97436-21.29631-3.44524-47.68427-27.88613-47.68427-4.89443,0-24.96237,3.59951-54.58675-2.33588C102.15516,348.28562,51.1367,298.94124,36.70341,237.73584a169.4596,169.4596,0,0,1-3.85735-56.36568c.4375-4.37293,6.95884-6.13851,9.01739-1.31051a138.952,138.952,0,0,0,59.73313,66.1701C124.1,258.81731,151.7713,240.849,149.0448,214.95129a170.17168,170.17168,0,0,1,2.40034-51.25449C167.1245,85.17937,242.46667,23.808,330.60349,32.85069a4.69617,4.69617,0,0,1,1.36716,9.02319,139.24308,139.24308,0,0,0-66.11385,59.56091c-11.97436,21.29631,3.44524,47.68427,27.88614,47.68427,4.7831,0,24.79635-3.58584,54.58674,2.33393C428.58386,167.46428,487.97128,243.86849,479.15311,330.64156Z"/></svg>