<svg xmlns="http://www.w3.org/2000/svg" viewBox="0 0 384 512"><!-- Font Awesome Pro 5.15.4 by @fontawesome - https://fontawesome.com License - https://fontawesome.com/license (Commercial License) --><path d="M232 336a24 24 0 1 0 24 24 24 24 0 0 0-24-24zm40-24a24 24 0 1 0 24-24 24 24 0 0 0-24 24zM352 0H32A32 32 0 0 0 0 32v448a32 32 0 0 0 32 32h256a96 96 0 0 0 96-96V32a32 32 0 0 0-32-32zm0 416a64.07 64.07 0 0 1-64 64H32V32h320zM112 224h144a32 32 0 0 0 32-32V80a16 16 0 0 0-16-16H112a16 16 0 0 0-16 16v128a16 16 0 0 0 16 16zm16-128h128v96H128zM72 352h24v24a8 8 0 0 0 8 8h16a8 8 0 0 0 8-8v-24h24a8 8 0 0 0 8-8v-16a8 8 0 0 0-8-8h-24v-24a8 8 0 0 0-8-8h-16a8 8 0 0 0-8 8v24H72a8 8 0 0 0-8 8v16a8 8 0 0 0 8 8z"/></svg>