<svg xmlns="http://www.w3.org/2000/svg" viewBox="0 0 640 512"><!-- Font Awesome Pro 5.15.4 by @fontawesome - https://fontawesome.com License - https://fontawesome.com/license (Commercial License) --><path d="M480.07 96H160a160 160 0 1 0 114.24 272h91.52A160 160 0 1 0 480.07 96zM480 384a127 127 0 0 1-91.37-38.4l-9.43-9.6H260.8l-9.41 9.6A127 127 0 0 1 160 384c-70.57 0-128-57.42-128-128s57.43-128 128-128h320c70.61 0 128 57.42 128 128s-57.43 128-128 128zM222.18 236.36h-42.54v-42.54a9.86 9.86 0 0 0-9.82-9.82h-19.64a9.86 9.86 0 0 0-9.82 9.82v42.54H97.82a9.86 9.86 0 0 0-9.82 9.82v19.64a9.86 9.86 0 0 0 9.82 9.82h42.54v42.54a9.86 9.86 0 0 0 9.82 9.82h19.64a9.86 9.86 0 0 0 9.82-9.82v-42.54h42.54a9.86 9.86 0 0 0 9.82-9.82v-19.64a9.86 9.86 0 0 0-9.82-9.82zM448 256a32 32 0 1 0 32 32 32 32 0 0 0-32-32zm64-64a32 32 0 1 0 32 32 32 32 0 0 0-32-32z"/></svg>