<svg xmlns="http://www.w3.org/2000/svg" viewBox="0 0 640 512"><!-- Font Awesome Pro 5.15.4 by @fontawesome - https://fontawesome.com License - https://fontawesome.com/license (Commercial License) --><path d="M240,384a16,16,0,1,0,16,16A16,16,0,0,0,240,384Zm160,0a16,16,0,1,0,16,16A16,16,0,0,0,400,384ZM610.59,118.33,338.59,3.75a48,48,0,0,0-37.18,0l-272,114.58A47.84,47.84,0,0,0,0,162.53V504a8,8,0,0,0,8,8H24a8,8,0,0,0,8-8V162.53a16,16,0,0,1,9.81-14.79l272-114.6a15.75,15.75,0,0,1,12.38,0l272,114.6A15.91,15.91,0,0,1,608,162.53V504a8,8,0,0,0,8,8h16a8,8,0,0,0,8-8V162.53A47.84,47.84,0,0,0,610.59,118.33ZM512,192H128a32,32,0,0,0-32,32V504a8,8,0,0,0,8,8h16a8,8,0,0,0,8-8V224H512V504a8,8,0,0,0,8,8h16a8,8,0,0,0,8-8V224A32,32,0,0,0,512,192ZM443.92,337.69l-9.42-37.75A58,58,0,0,0,378.22,256H261.78A58,58,0,0,0,205.5,300l-9.42,37.73A47.88,47.88,0,0,0,160,384v48a32,32,0,0,0,32,32v32a16,16,0,0,0,16,16h16a16,16,0,0,0,16-16V464H400v32a16,16,0,0,0,16,16h16a16,16,0,0,0,16-16V464a32,32,0,0,0,32-32V384A47.88,47.88,0,0,0,443.92,337.69Zm-207.36-30A26,26,0,0,1,261.78,288H378.22a26,26,0,0,1,25.22,19.69L410.51,336h-181ZM448,432H192V384a16,16,0,0,1,16-16H432a16,16,0,0,1,16,16Z"/></svg>