<svg xmlns="http://www.w3.org/2000/svg" viewBox="0 0 640 512"><!-- Font Awesome Pro 5.15.4 by @fontawesome - https://fontawesome.com License - https://fontawesome.com/license (Commercial License) --><path d="M480 78.6V160c0 26.5 21.5 48 48 48h16v163.3l30.7 24.2c.7-3.8 1.3-7.5 1.3-11.5V142.6c0-8.5-3.4-16.6-9.4-22.6L473 26.3c-3.1-3.1-8.2-3.1-11.3 0l-11.3 11.3c-3.1 3.1-3.1 8.2 0 11.3zm32 32l32 32V176h-16c-8.8 0-16-7.2-16-16zm125 374.6L23 1.8C19.6-1 14.5-.5 11.8 3l-10 12.5C-1 19-.4 24 3 26.7l614 483.5c3.4 2.8 8.5 2.2 11.2-1.2l10-12.5c2.8-3.5 2.3-8.5-1.2-11.3zM408 480h-24V367.5l-32-25.2V480H128V165.9l-32-25.2V480H72c-4.4 0-8 3.6-8 8v16c0 4.4 3.6 8 8 8h336c4.4 0 8-3.6 8-8v-16c0-4.4-3.6-8-8-8zM160 32h160c17.6 0 32 14.4 32 32v156.1l32 25.2V64c0-35.3-28.6-64-64-64H160c-21.8 0-41 10.9-52.5 27.5l25.6 20.2C138.7 38.5 148.4 32 160 32z"/></svg>