<svg xmlns="http://www.w3.org/2000/svg" viewBox="0 0 384 512"><!-- Font Awesome Pro 5.15.4 by @fontawesome - https://fontawesome.com License - https://fontawesome.com/license (Commercial License) --><path d="M192 0c-1.96 0-3.93.03-5.91.09C81.01 3.24 0 94.92 0 200.05v263.92C0 473.61 7.89 480 16.12 480c3.93 0 7.94-1.46 11.2-4.72l24.92-18.53c2.86-2.12 6.21-3.16 9.54-3.16 4.43 0 8.82 1.83 11.97 5.38l42.95 48.35c3.12 3.12 7.22 4.69 11.31 4.69s8.19-1.56 11.31-4.69l40.72-45.85c3.18-3.58 7.57-5.38 11.96-5.38s8.78 1.79 11.96 5.38l40.72 45.85c3.12 3.12 7.22 4.69 11.31 4.69s8.19-1.56 11.31-4.69l42.95-48.35a15.994 15.994 0 0 1 21.51-2.22l24.92 18.53c3.26 3.26 7.27 4.72 11.2 4.72 8.22 0 16.12-6.39 16.12-16.03V192C384 85.96 298.04 0 192 0zm160 431.92l-1.13-.84c-8.34-6.21-18.24-9.48-28.64-9.48-13.71 0-26.79 5.88-35.89 16.12L256 471.87l-28.11-31.65c-9.1-10.25-22.18-16.12-35.89-16.12s-26.79 5.88-35.89 16.12L128 471.87l-30.34-34.15a48.017 48.017 0 0 0-35.89-16.12c-10.39 0-20.29 3.28-28.63 9.48l-1.14.84V200.05C32 110 101.56 34.64 187.05 32.08L192 32c88.22 0 160 71.78 160 160v239.92zM128 160c-17.67 0-32 14.33-32 32s14.33 32 32 32 32-14.33 32-32-14.33-32-32-32zm128 0c-17.67 0-32 14.33-32 32s14.33 32 32 32 32-14.33 32-32-14.33-32-32-32z"/></svg>