<svg xmlns="http://www.w3.org/2000/svg" viewBox="0 0 640 512"><!-- Font Awesome Pro 5.15.4 by @fontawesome - https://fontawesome.com License - https://fontawesome.com/license (Commercial License) --><path d="M608 224h-27.3c7.1-10 11.3-21.5 11.3-33.9 0-30.5-25.3-62.1-67.8-62.1-42.9 0-74.6 34.8-92.2 62.2-17.7-27.4-49.3-62.2-92.2-62.2-7.2 0-13.6 1.2-19.8 2.8V128c0-17.7-14.3-32-32-32h-70.4l43.1-30.8c3.6-2.6 4.4-7.6 1.9-11.2l-9.3-13c-2.6-3.6-7.6-4.4-11.2-1.9l-53.1 38 22.8-60.7c1.6-4.1-.5-8.7-4.7-10.3l-15-5.6c-4.1-1.6-8.8.5-10.3 4.7L160 63.3 138.2 5.2C136.6 1.1 132-1 127.9.5l-15 5.6c-4.1 1.6-6.2 6.2-4.7 10.3L131 77.1 78 39.2c-3.6-2.6-8.6-1.7-11.2 1.9l-9.3 13c-2.6 3.6-1.7 8.6 1.9 11.2l43 30.7H32c-17.7 0-32 14.3-32 32v352c0 17.7 14.3 32 32 32h576c17.7 0 32-14.3 32-32V256c0-17.7-14.3-32-32-32zm-268.2-64c37.6 0 66 45.9 74.7 64H357c-21.9 0-34.4-6.2-41.1-11.4-7.8-6-11.9-13.8-11.9-22.5 0-14.8 13.4-30.1 35.8-30.1zM224 256v224H32V128h256v22c-10.3 11.4-16 25.8-16 40.1 0 12.4 4.1 23.9 11.3 33.9H256c-17.7 0-32 14.3-32 32zm192 224H256v-96h160v96zm0-128H256v-96h160v96zm108.2-192c22.4 0 35.8 15.3 35.8 30.1 0 8.7-4.1 16.5-11.9 22.5-6.7 5.2-19.2 11.4-41.1 11.4h-57.5c8.7-18.1 37.1-64 74.7-64zM608 480H448v-96h160v96zm0-128H448v-96h160v96z"/></svg>