<svg xmlns="http://www.w3.org/2000/svg" viewBox="0 0 448 512"><!-- Font Awesome Pro 5.15.4 by @fontawesome - https://fontawesome.com License - https://fontawesome.com/license (Commercial License) --><path d="M224 336c-8.8 0-16 7.2-16 16s7.2 16 16 16 16-7.2 16-16-7.2-16-16-16zM192 88c-8.8 0-16 7.2-16 16s7.2 16 16 16 16-7.2 16-16-7.2-16-16-16zm32 184c-8.8 0-16 7.2-16 16s7.2 16 16 16 16-7.2 16-16-7.2-16-16-16zm0-64c-8.8 0-16 7.2-16 16s7.2 16 16 16 16-7.2 16-16-7.2-16-16-16zm32-120c-8.8 0-16 7.2-16 16s7.2 16 16 16 16-7.2 16-16-7.2-16-16-16zm192 152c0-44.1-35.9-80-80-80h-39.6c10.3-23.1 12.6-49.4 5.8-75.6-9.9-38.8-41.4-70.4-80-80.5C244.2 1.3 234.1 0 224 0c-30.5 0-59.1 11.9-80.6 33.4C121.9 54.9 110 83.5 110 114c0 16 3.4 31.7 9.8 46H80c-44.1 0-80 35.9-80 80s35.9 80 80 80h27.9l-58 61.6c-27.8 34.2-22.6 84.7 11.6 112.5C75.8 505.6 93.7 512 112 512c24.2 0 46.9-10.8 62.1-29.6l49.9-51.6 49.9 51.6c15.2 18.8 37.9 29.6 62.1 29.6 18.3 0 36.2-6.4 50.4-17.9 34.2-27.8 39.4-78.3 11.6-112.5L340 320h28c44.1 0 80-35.9 80-80zm-143.4 87.1l68.6 74.6c16.7 20.6 13.6 50.8-7 67.5-8.9 7.2-19.6 10.8-30.2 10.8-14 0-27.8-6.1-37.3-17.7l-49.9-51.6c-6.4-7.9-15.6-11.8-24.8-11.8s-18.4 3.9-24.8 11.8l-49.9 51.6C139.8 474 126 480 112 480c-10.6 0-21.3-3.5-30.2-10.8-20.6-16.7-23.7-46.9-7-67.5l68.6-74.6c12.7-15.7 1.6-39.1-18.6-39.1H80c-26.5 0-48-21.5-48-48s21.5-48 48-48h81.6c9.3 0 14.2-11.5 7.3-17.7C152.4 159.4 142 138 142 114c0-45.3 36.7-82 82-82 7.2 0 14.6.9 22.1 2.9 27.6 7.2 50.1 29.8 57.1 57.5 8.3 32.5-2.7 62.7-24 81.9-6.9 6.3-2.2 17.8 7.2 17.8H368c26.5 0 48 21.5 48 48s-21.5 48-48 48h-44.7c-20.2-.1-31.4 23.3-18.7 39z"/></svg>