<svg xmlns="http://www.w3.org/2000/svg" viewBox="0 0 512 512"><!-- Font Awesome Pro 5.15.4 by @fontawesome - https://fontawesome.com License - https://fontawesome.com/license (Commercial License) --><path d="M502.05 57.6C523.3 36.34 508.25 0 478.2 0H33.8C3.75 0-11.3 36.34 9.95 57.6L240 287.64V480h-53.33c-14.73 0-26.67 11.94-26.67 26.67 0 2.95 2.39 5.33 5.33 5.33h181.33c2.95 0 5.33-2.39 5.33-5.33 0-14.73-11.94-26.67-26.67-26.67H272V287.64L502.05 57.6zM256.06 258.33L32.58 34.97c-.51-.51-.82-.82-.38-1.89.44-1.08.88-1.08 1.6-1.08h444.4c.72 0 1.16 0 1.6 1.07.45 1.07.14 1.38-.38 1.89L418.39 96 256.06 258.33z"/></svg>