<svg xmlns="http://www.w3.org/2000/svg" viewBox="0 0 512 512"><!-- Font Awesome Pro 5.15.4 by @fontawesome - https://fontawesome.com License - https://fontawesome.com/license (Commercial License) --><path d="M480 32H32C12.5 32-2.4 49.2.3 68.5l56 356.5c4.5 31.5 31.5 54.9 63.4 54.9h273c31.8 0 58.9-23.4 63.4-54.9l55.6-356.5C514.4 49.2 499.5 32 480 32zm-55.6 388.5c-2.2 15.7-15.9 27.5-31.7 27.5h-273c-15.8 0-29.4-11.8-31.7-27.9L67.2 288H96v48c0 26.5 21.5 48 48 48h96c14 0 26.5-6.2 35.3-15.9l10.8 10.8c9.1 9.1 21.1 14.1 33.9 14.1 12.8 0 24.9-5 33.9-14.1l57-57c9.4-9.4 14-21.7 14-33.9H445l-20.6 132.5zM251.7 299.3c-6.2-6.2-6.2-16.4 0-22.6l57-57c3.1-3.1 7.2-4.7 11.3-4.7 4.1 0 8.2 1.6 11.3 4.7l57 57c6.2 6.2 6.2 16.4 0 22.6l-57 57c-3.1 3.1-7.2 4.7-11.3 4.7-4.1 0-8.2-1.6-11.3-4.7l-57-57zm-22.6-45.2c-18.7 18.7-18.7 49.2 0 67.9l23.5 23.5c-2.9 3.9-7.3 6.6-12.6 6.6h-96c-8.8 0-16-7.2-16-16v-96c0-8.8 7.2-16 16-16h96c5.2 0 9.7 2.7 12.6 6.6l-23.5 23.4zM450 256h-37.8c-.5-.6-.7-1.4-1.3-1.9l-57-57c-9-9.1-21.1-14.1-33.9-14.1-12.8 0-24.9 5-33.9 14.1l-10.8 10.8C266.5 198.2 254 192 240 192h-96c-26.5 0-48 21.5-48 48v16H62.2L32 64h448l-30 192z"/></svg>