<svg xmlns="http://www.w3.org/2000/svg" viewBox="0 0 448 512"><!-- Font Awesome Pro 5.15.4 by @fontawesome - https://fontawesome.com License - https://fontawesome.com/license (Commercial License) --><path d="M360.21 480H240.14v-50.41c50.37-6.61 99.04-29.15 137.79-67.89 87.21-87.16 92.85-224.41 17.84-318.61l18.14-18.12a7.985 7.985 0 0 0 0-11.31L402.58 2.34a8.015 8.015 0 0 0-11.32 0l-39.45 39.43c1.14 1.09 2.36 2.04 3.48 3.15 39.31 39.29 60.96 91.52 60.96 147.08s-21.65 107.79-60.96 147.08C315.98 378.36 263.71 400 208.12 400s-107.86-21.64-147.17-60.92c-1.11-1.11-2.07-2.34-3.15-3.47L2.35 391.03a7.985 7.985 0 0 0 0 11.31l11.32 11.31a8.015 8.015 0 0 0 11.32 0l34.14-34.12c43.54 34.62 96.26 51.83 149 51.97V480H88.04c-13.26 0-24.01 10.74-24.01 24 0 4.42 3.58 8 8 8h304.19c4.42 0 8-3.58 8-8 .01-13.26-10.74-24-24.01-24zM208.12 368c45.07 0 90.14-17.18 124.53-51.55 68.77-68.73 68.77-180.17 0-248.9C298.26 33.18 253.19 16 208.12 16S117.98 33.18 83.59 67.55c-68.77 68.73-68.77 180.17 0 248.9C117.98 350.82 163.05 368 208.12 368zM106.23 90.18C133.45 62.98 169.63 48 208.12 48s74.67 14.98 101.89 42.18c27.21 27.2 42.2 63.36 42.2 101.82 0 38.46-14.99 74.62-42.2 101.82-27.22 27.2-63.4 42.18-101.89 42.18s-74.67-14.98-101.89-42.18c-27.21-27.2-42.2-63.36-42.2-101.82 0-38.46 14.99-74.62 42.2-101.82z"/></svg>