<svg xmlns="http://www.w3.org/2000/svg" viewBox="0 0 496 512"><!-- Font Awesome Pro 5.15.4 by @fontawesome - https://fontawesome.com License - https://fontawesome.com/license (Commercial License) --><path d="M184 119.2c0-7-5.7-12.7-12.7-12.7h-.1c-3.4 0-6.6 1.3-8.9 3.7l-28.5 28.5c-2.4 2.4-3.7 5.6-3.7 8.9v.1c0 7 5.7 12.7 12.7 12.7h18c3.4 0 6.6-1.3 8.9-3.7l10.5-10.5c2.4-2.4 3.7-5.6 3.7-8.9v-18.1zM248 8C111 8 0 119 0 256s111 248 248 248 248-111 248-248S385 8 248 8zm48 458.4V432c0-26.5-21.5-48-48-48h-20.2c-3.9 0-13.1-3.1-16.2-5.4l-22.2-16.7c-3.4-2.5-5.4-6.6-5.4-10.8v-23.9c0-4.7 2.5-9.1 6.5-11.6l42.9-25.7c2.1-1.3 4.5-1.9 6.9-1.9h31.2c3.2 0 6.3 1.2 8.8 3.2l52.2 44.8h30.2l17.3 17.3c9.5 9.5 22.1 14.7 35.5 14.7h16.8c-29.9 49.1-78.7 85.3-136.3 98.4zM448.5 336h-32.9c-4.8 0-9.5-1.9-12.9-5.3l-17.3-17.3c-6-6-14.1-9.4-22.6-9.4h-18.3l-43.2-37.1c-8.2-7.1-18.7-10.9-29.6-10.9h-31.2c-8.2 0-16.3 2.2-23.4 6.5l-42.9 25.7c-13.7 8.2-22.1 23-22.1 39v23.9c0 14.3 6.7 27.8 18.2 36.4l22.2 16.7c8.6 6.5 24.6 11.8 35.4 11.8h20.2c8.8 0 16 7.2 16 16v39.2c-5.3.4-10.6.8-16 .8-119.1 0-216-96.9-216-216 0-118.9 96.5-215.6 215.3-216L232 51.1c-10.2 7.7-16 19.2-16 31.4v23.2c0 6.4 3.1 17 5.9 22.3-.8 2.1-21.1 15-24.6 18.5-8.6 8.6-13.3 20-13.3 32.1V195c0 25 20.4 45.4 45.4 45.4h25.3c11 0 21.2-3.9 29.2-10.6 3.9 1.4 8.2 2.1 12.6 2.1h13.4c25.6 0 32.2-20.2 36.1-21.5 5.1 9.1 13.5 16.2 23.5 19.5-4.3 14.2-.9 30.3 10.1 41.6l18.2 19.1c8.7 8.9 20.6 13.9 32.7 13.9h27.7c-2.4 10.8-5.7 21.3-9.7 31.5zm-17.8-63.6c-3.6 0-7.1-1.5-9.6-4L402.6 249a9.93 9.93 0 0 1 .1-14c12.6-12.6 10.5-8.6 10.5-17.8 0-2.5-1-4.9-2.8-6.7l-7.9-7.9c-1.8-1.8-4.2-2.8-6.7-2.8h-13.4c-8.5 0-12.6-10.3-6.7-16.2l7.9-7.3c1.8-1.8 4.2-2.8 6.7-2.8h8.3c5.2 0 9.5-4.2 9.5-9.5v-10.2c0-5.2-4.2-9.5-9.5-9.5h-28.2c-7.4 0-13.4 6-13.4 13.4v5.6c0 5.8-3.7 10.9-9.2 12.7l-26.5 8.8c-4.3 1.4-4.6 5-4.6 8.2 0 3.7-3 6.7-6.7 6.7h-13.4c-3.7 0-6.7-3-6.7-6.7 0-8.4-12.5-8.6-15.3-3-9 12.4-11.5 18.2-19.9 18.2h-25.3c-7.4 0-13.4-6-13.4-13.4v-16.4c0-3.6 1.4-7 3.9-9.5 19.5-14 29.6-17.6 29.6-31.5 0-2.9 1.8-5.5 4.6-6.4l33.6-11.2c1.4-.5 2.7-1.2 3.7-2.3L313.9 95c5-5 3.5-14.9-6.7-14.9h-17.4L276.4 99v6.7c0 3.7-3 6.7-6.7 6.7h-15c-3.7 0-6.7-3-6.7-6.7V82.5c0-2.1 1-4.1 2.7-5.4l44-31.9C391.4 66.7 464 153 464 256c0 5.5-.4 11-.8 16.4h-32.5z"/></svg>