<svg xmlns="http://www.w3.org/2000/svg" viewBox="0 0 448 512"><!-- Font Awesome Pro 5.15.4 by @fontawesome - https://fontawesome.com License - https://fontawesome.com/license (Commercial License) --><path d="M224 96c8.8 0 16-7.2 16-16s-7.2-16-16-16-16 7.2-16 16 7.2 16 16 16zm-112 80c0-8.8-7.2-16-16-16s-16 7.2-16 16 7.2 16 16 16 16-7.2 16-16zm208-16c8.8 0 16-7.2 16-16s-7.2-16-16-16-16 7.2-16 16 7.2 16 16 16zm43.3 239c51.5-41 84.7-104 84.7-175C448 100.3 347.7 0 224 0S0 100.3 0 224c0 71 33.2 134 84.7 175l-46.3 61.8C22.6 481.9 37.6 512 64 512h320c26.4 0 41.4-30.1 25.6-51.2L363.3 399zM32 224c0-105.9 86.1-192 192-192s192 86.1 192 192c0 66.7-34.3 125.6-86.1 160H240v-32h80c12.3 0 23.5-7 28.8-18.1 5.3-11.1 3.8-24.2-3.8-33.8l-19.7-24.6c1.3-1.7 2.4-3.5 3.3-5.4 5.3-11 3.9-24.2-3.7-33.8L249.1 140c-6.1-7.7-15.3-12.2-25.1-12.2s-19.1 4.5-25.1 12.2l-76 96.3c-7.6 9.6-9 22.8-3.6 33.8.9 1.9 2.1 3.7 3.3 5.4L103 300c-7.7 9.6-9.2 22.8-3.8 33.8C104.5 345 115.7 352 128 352h80v32h-89.9C66.3 349.6 32 290.7 32 224zm116 32.1l76-96.3 75.9 96.2h-31l51.1 64h-80v-88c0-4.4-3.6-8-8-8h-16c-4.4 0-8 3.6-8 8v88h-80l51.1-64-31.1.1zM64 480l48-64h224l48 64H64z"/></svg>