<svg xmlns="http://www.w3.org/2000/svg" viewBox="0 0 496 512"><!-- Font Awesome Pro 5.15.4 by @fontawesome - https://fontawesome.com License - https://fontawesome.com/license (Commercial License) --><path d="M248 8C111.03 8 0 119.03 0 256s111.03 248 248 248 248-111.03 248-248S384.97 8 248 8zm215.72 253.45l-42.82-10.71c-1.97-.5-3.66-1.67-4.75-3.33l-17.97-26.97a8.05 8.05 0 0 1 0-8.88l19.59-29.39c.78-1.16 1.81-2.09 3.06-2.7l23.97-11.99C457.03 194.53 464 224.44 464 256c0 1.84-.23 3.62-.28 5.45zM32 256c0-11.92 1.22-23.53 3.09-34.93 7.16 10.6 14.52 21.46 19.91 29.36 5.88 8.67 12.81 16.61 21.38 24.34 10.72 9.69 22.56 17.83 35.16 24.16 13.81 6.97 34.06 17.95 48.28 25.83 5.03 2.8 8.19 8.16 8.19 13.97v32.02c0 12.81 5 24.88 14.06 33.94 12.66 12.66 18.91 31.67 17.94 39.94v21.81C103.95 444.53 32 358.59 32 256zm199.92 215.19l-.08-24.44c2.5-18.58-9.44-46.98-27.16-64.69-2.97-2.98-4.69-7.11-4.69-11.31v-32.02c0-17.47-9.47-33.55-24.72-41.97-14.5-8.03-35.19-19.27-49.34-26.41-10.06-5.05-19.53-11.56-28.94-20.05a100.36 100.36 0 0 1-15.56-17.89c-9.66-14.19-25.54-37.72-35.4-52.35 25.98-68.87 85.98-121.14 159.56-135.85L257.38 96l-15.03 15.03c-9.03 9.03-9.34 23.53-.94 32.94l-5.72.03c-6.25 0-12.19 2.41-16.72 6.8l-9.91 9.64c-7.56 7.3-9.47 18.53-4.75 27.95l4 7.98c-6.94-2.75-14.78-3.12-22.03-.66l-31.19 10.39A27.893 27.893 0 0 0 136 232.6c0 10.66 5.91 20.23 15.44 25l11.09 5.55c10.72 5.36 22.62 8.38 34.62 8.8 2.38 2.3 6.25 7.56 8.69 10.89 5.91 8.08 11.5 15.72 19 19.47l3.38 1.69h70.53c4.22 0 8.34 1.7 11.31 4.69l13.69 13.69a14.66 14.66 0 0 1 4.25 10.27c0 8.05-3.28 15.92-9.06 21.66l-11.34 11.33a39.93 39.93 0 0 0-10.25 17.88l-1.12 4.41c-.94 3.69-1.84 7.38-3.19 11l-26.78 72.17c-6.03.51-12.09.92-18.25.92-5.44-.02-10.76-.44-16.09-.83zm70.82-6.49L323 410.09c1.78-4.7 3.03-9.53 4.25-14.36l1.03-4.05c.34-1.31 1.06-2.55 4.09-5.58l9.19-9.16c11.72-11.64 18.44-27.8 18.44-44.31 0-12.25-4.97-24.23-13.62-32.89l-13.69-13.69c-8.94-8.94-21.31-14.06-33.94-14.06h-60.94c-1.91-2.23-4.34-5.59-6.16-8.06C223.44 252.72 214.12 240 200 240c-8 0-16-1.89-23.16-5.47l-2.34-1.17 21.91-7.3 9.28 8.06c4.38 3.78 9.94 5.88 15.72 5.88h5.66c8.38 0 16-4.25 20.41-11.39 4.41-7.12 4.81-15.86 1.06-23.34l-12.97-25.95 3.38-3.31h5.75c6.41 0 12.44-2.5 16.97-7.03l8-8c9.03-9.03 9.34-23.53.94-32.94l9.41-9.41c6.03-6.05 9.38-14.08 9.38-22.62s-3.34-16.58-9.38-22.62l-33.31-33.31c.44 0 .87-.07 1.31-.07 76.13 0 143.04 39.68 181.52 99.35l-22.98 11.49a39.974 39.974 0 0 0-15.38 13.58l-19.59 29.39c-9 13.48-9 30.89 0 44.38l17.97 26.97c5.53 8.28 13.88 14.17 23.59 16.61l47.38 11.84c-14.72 83.15-77.04 149.87-157.79 171.08z"/></svg>