<svg xmlns="http://www.w3.org/2000/svg" viewBox="0 0 640 512"><!-- Font Awesome Pro 5.15.4 by @fontawesome - https://fontawesome.com License - https://fontawesome.com/license (Commercial License) --><path d="M633.2 6.4l-10.8-5.2c-6-2.9-13.1-.4-16 5.6L473 280.7C44 200.2 72.8 205.1 63.9 205.1c-34.5 0-63.9 28-63.9 64V448c0 35.3 28.7 64 64 64h299.1c24.6 0 47-14.1 57.7-36.3l218-453.3c2.9-5.9.4-13.1-5.6-16zm-183.9 323L393.5 444c-10.7 22-33.1 36-57.5 36H64c-17.7 0-32-14.3-32-32v-16h88c4.4 0 8-3.6 8-8v-16c0-4.4-3.6-8-8-8H32v-64h88c4.4 0 8-3.6 8-8v-16c0-4.4-3.6-8-8-8H32v-34.9c0-17.7 14.3-32 31.9-32 4.5 0-19.7-4.3 374 69.6 10.4 1.9 16.1 13.2 11.4 22.7z"/></svg>