<svg xmlns="http://www.w3.org/2000/svg" viewBox="0 0 640 512"><!-- Font Awesome Pro 5.15.4 by @fontawesome - https://fontawesome.com License - https://fontawesome.com/license (Commercial License) --><path d="M612.16 153.99l-265-85.68c-17.81-5.75-36.5-5.75-54.31 0l-265 85.68C10.94 159.46 0 174.38 0 192s10.94 32.54 27.84 38.01l29.71 9.6c-3.3 6.18-5.74 12.83-7.33 19.8C39.53 264.59 32 275.32 32 288c0 12.73 7.57 23.52 18.33 28.67L32.28 428.53C30.67 438.52 36.19 448 43.62 448h40.75c7.43 0 12.96-9.48 11.34-19.47L77.67 316.67C88.43 311.52 96 300.73 96 288c0-10.6-5.49-19.54-13.43-25.37 1.49-4.66 3.8-8.86 6.57-12.81l53.47 17.29L128 384c0 35.35 85.96 64 192 64s192-28.65 192-64l-14.61-116.89L612.16 230c16.9-5.46 27.84-20.38 27.84-38s-10.94-32.54-27.84-38.01zM479.48 381.86C468.72 393.19 414.04 416 320 416c-94.04 0-148.72-22.81-159.48-34.14l13.09-104.73 119.24 38.55c2.6.84 25.72 9.23 54.31 0l119.24-38.55 13.08 104.73zm122.8-182.28l-265 85.68c-11.31 3.66-23.25 3.66-34.56 0l-175.67-56.8 195.89-36.74c8.69-1.62 14.41-9.98 12.78-18.67-1.62-8.7-10.16-14.39-18.66-12.77l-203.78 38.2c-12.4 2.32-23.51 7.65-33.08 14.83l-42.49-13.74c-7.85-2.55-7.46-12.74 0-15.15l265-85.68c15.1-4.88 27.84-2.17 34.56 0l265 85.68c7.39 2.39 7.91 12.6.01 15.16z"/></svg>