<svg xmlns="http://www.w3.org/2000/svg" viewBox="0 0 496 512"><!-- Font Awesome Pro 5.15.4 by @fontawesome - https://fontawesome.com License - https://fontawesome.com/license (Commercial License) --><path d="M248 8C111 8 0 119 0 256s111 248 248 248 248-111 248-248S385 8 248 8zm0 464c-119.1 0-216-96.9-216-216S128.9 40 248 40s216 96.9 216 216-96.9 216-216 216zm123.1-151.2C340.9 330.5 296 336 248 336s-92.9-5.5-123.1-15.2c-11.6-3.7-22.6 6.3-20.7 17.9 9.2 55 83.2 93.3 143.8 93.3s134.5-38.3 143.8-93.3c1.9-11.6-9-21.6-20.7-17.9zM248 400c-35 0-77-16.3-98.5-40.3 57.5 10.8 139.6 10.8 197.1 0C325 383.7 283 400 248 400zm-61.8-128.8c14.3 3.7 27.2-5.5 30.5-17.6l20.5-73.9c4.1-14.7 1.7-30.4-6.5-43.2-8.2-12.8-21.6-21.5-36.8-23.9-25.2-4.1-49.4 10.7-59.3 34-25.2-3-50.2 11-59.1 34.3-5.5 14.4-4.7 30.3 2.3 43.8 6.9 13.5 19.4 23.4 34.2 27.2l74.2 19.3zm-80.7-78.8c5.2-13.8 20.4-15.5 28.5-13.4l22.8 5.9 6.2-22.7c3.3-11.9 14.7-19.7 25.9-18 13.1 2.1 20.9 14.6 17.5 27l-18.7 67.3-67.6-17.5c-12.1-3.1-19.4-15.9-14.6-28.6zM420.4 181c-8.9-23.3-34.1-37.3-59-34.3-9.9-23.3-34.7-38.2-59.3-34-15.2 2.4-28.6 11.1-36.8 23.9-8.2 12.8-10.6 28.5-6.5 43.2l20.4 73.8c3.4 12.3 16.5 21.3 30.5 17.6l74.2-19.2a53.47 53.47 0 0 0 34.2-27.2c6.9-13.5 7.8-29.5 2.3-43.8zm-44.5 40l-67.7 17.5-18.7-67.3c-3.4-12.3 4.4-24.9 17.5-27 13.7-2.2 23.4 9 25.8 17.9l6.2 22.7 23-5.8c12-3.1 24.5 2.8 28.5 13.4 4.8 12.7-2.5 25.5-14.6 28.6z"/></svg>