<svg xmlns="http://www.w3.org/2000/svg" viewBox="0 0 496 512"><!-- Font Awesome Pro 5.15.4 by @fontawesome - https://fontawesome.com License - https://fontawesome.com/license (Commercial License) --><path d="M248 8C111 8 0 119 0 256s111 248 248 248 248-111 248-248S385 8 248 8zm0 464c-119.1 0-216-96.9-216-216S128.9 40 248 40s216 96.9 216 216-96.9 216-216 216zm123.1-151.2C340.9 330.5 296 336 248 336s-92.9-5.5-123.1-15.2c-11.6-3.7-22.6 6.3-20.7 17.9 9.2 55 83.2 93.3 143.8 93.3s134.5-38.3 143.8-93.3c1.9-11.6-9-21.6-20.7-17.9zM248 400c-35 0-77-16.3-98.5-40.3 57.5 10.8 139.6 10.8 197.1 0C325 383.7 283 400 248 400zm162.1-252l-35.3-5.1-15.8-32.1c-9.5-18.8-36.3-18.9-45.9 0l-15.8 32.1-35.5 5.1c-5.4.8-10 3.6-13.8 7.4-3.8-3.8-8.4-6.6-13.9-7.4l-35.3-5.1-15.8-32.1c-9.5-18.8-36.3-18.9-45.9 0l-15.8 32.1-35.5 5.1c-20.2 3-29.6 28.2-14.1 43.7l25.7 24.9-6.1 35.6c-3.4 21.4 19.2 36.3 36.9 26.5l31.8-16.5 31.5 16.3c18.5 10.2 40.6-5.2 37.2-26.6l-6.1-35.4L248 192l25.4 24.6-6.1 35.6c-3.4 21.4 19.2 36.3 36.9 26.5l31.8-16.5 31.5 16.3c18.5 10.2 40.6-5.2 37.2-26.6l-6.1-35.4 25.9-25.1c14.9-14.9 6.3-40.3-14.4-43.4zm-221.9 57.5l6.7 38.9-34.9-18.2-34.9 18.1 6.7-38.9-28.5-27.7 39.2-5.6 17.5-35.5 17.5 35.5 39.2 5.6-28.5 27.8zm176 0l6.7 38.9-34.9-18.2-34.9 18.1 6.7-38.9-28.5-27.7 39.2-5.6 17.5-35.5 17.5 35.5 39.2 5.6-28.5 27.8z"/></svg>