<svg xmlns="http://www.w3.org/2000/svg" viewBox="0 0 640 512"><!-- Font Awesome Pro 5.15.4 by @fontawesome - https://fontawesome.com License - https://fontawesome.com/license (Commercial License) --><path d="M349.7 247.7c3.4 1.1 7.4-.5 9.3-3.7l9.5-17c7.7-13.7 19.2-21.6 31.5-21.6s23.8 7.9 31.5 21.6l9.5 17c2.1 3.7 6.2 4.7 9.3 3.7 3.6-1.1 6-4.5 5.7-8.3-3.3-42.1-32.2-71.4-56-71.4s-52.7 29.3-56 71.4c-.3 3.7 2.1 7.2 5.7 8.3zm93.4 73.1C412.9 330.5 368 336 320 336s-92.9-5.5-123.1-15.2c-5.3-1.7-11.1-.5-15.3 3.1-4.2 3.7-6.3 9.2-5.3 14.8 9.3 55 83.2 93.3 143.8 93.3s134.5-38.3 143.8-93.3c.9-5.5-1.1-11.1-5.3-14.8-4.3-3.7-10.1-4.9-15.5-3.1zM320 400c-35 0-77-16.3-98.5-40.3 57.5 10.8 139.6 10.8 197.1 0C397 383.7 355 400 320 400zM189.7 247.7c3.4 1.1 7.4-.5 9.3-3.7l9.5-17c7.7-13.7 19.2-21.6 31.5-21.6s23.8 7.9 31.5 21.6l9.5 17c2.1 3.7 6.2 4.7 9.3 3.7 3.6-1.1 6-4.5 5.7-8.3-3.3-42.1-32.2-71.4-56-71.4s-52.7 29.3-56 71.4c-.3 3.7 2.1 7.2 5.7 8.3zm429.5 11.7c-9.2-9.2-26.8-17.2-52.4-23.9C556.3 108.1 450 8 320 8S83.7 108.1 73.2 235.4c-25.6 6.7-43.2 14.7-52.4 23.9-28.1 28.2-27.7 74.3.9 102.9 11.8 11.8 44.2 32.9 82.7 14.7 42.5 75.5 122.7 127 215.5 127s173.1-51.5 215.5-127c38.4 18.1 70.8-2.8 82.7-14.7 28.8-28.5 29.2-74.7 1.1-102.8zM102 340.5c-15.5 15.5-41.4 15.5-57.7-.9-16.1-16.1-16.5-42-.9-57.6 6.6-6.6 32.3-16.8 83.3-24.8-7.9 51-18.1 76.7-24.7 83.3zM320 472c-82.6 0-154.1-46.9-190.4-115.2 15.6-22.2 25-67.5 30.1-103.6 1.2-8-1.5-15.9-7.2-21.7-5.8-5.8-13.7-8.4-21.7-7.3-8.7 1.3-16.8 2.6-24.6 4C119.9 122.3 210.3 40 320 40s200.1 82.3 213.8 188.3c-7.8-1.4-15.9-2.8-24.6-4-7.9-1.1-15.9 1.5-21.7 7.3-5.8 5.8-8.4 13.6-7.2 21.7 5.2 36.1 14.5 81.4 30.1 103.6C474.1 425.1 402.6 472 320 472zm275.7-132.4c-16.4 16.5-42.3 16.2-57.6.8-6.6-6.6-16.8-32.3-24.8-83.3 51 8 76.7 18.2 83.3 24.8 15.6 15.8 15.2 41.6-.9 57.7z"/></svg>