<svg xmlns="http://www.w3.org/2000/svg" viewBox="0 0 496 512"><!-- Font Awesome Pro 5.15.4 by @fontawesome - https://fontawesome.com License - https://fontawesome.com/license (Commercial License) --><path d="M248 8C111 8 0 119 0 256c0 121.1 86.8 221.8 201.6 243.5 13.8 7.7 29.5 12.5 46.4 12.5s32.6-4.8 46.4-12.5C409.2 477.8 496 377.1 496 256 496 119 385 8 248 8zm64 408c0 35.6-29.1 64.5-64.9 64-35.1-.5-63.1-29.8-63.1-65v-31c18.9-9.5 22.7-12.2 32-12.2h.3c9.8.1 18.2 7 20.4 16.6l2.7 11.6c2.1 9.2 15.2 9.2 17.3 0l2.7-11.6c2.2-9.6 10.6-16.5 20.4-16.6h.3c9.2 0 12.9 2.7 32 12.2v32zm24.6 36.8c4.7-11.3 7.4-23.7 7.4-36.8v-13.6c24.7-16.1 43.4-38 47.8-63.8 2-11.6-9-21.6-20.7-17.9C340.9 330.5 296 336 248 336s-92.9-5.5-123.1-15.2c-11.6-3.7-22.6 6.3-20.7 17.9 4.3 25.8 23 47.6 47.8 63.8V416c0 13 2.7 25.4 7.4 36.8C84.4 418.9 32 343.5 32 256c0-119.1 96.9-216 216-216s216 96.9 216 216c0 87.5-52.4 162.9-127.4 196.8zm40.5-300.6c-3.8-4.4-10.2-5.5-15.3-2.5l-80 48c-3.6 2.2-5.8 6.1-5.8 10.3s2.2 8.1 5.8 10.3l80 48c5.4 3.2 11.7 1.7 15.3-2.5 3.8-4.5 3.8-11 .1-15.5L343.6 208l33.6-40.3c3.8-4.5 3.7-11.1-.1-15.5zm-162.9 45.5l-80-48c-5-3-11.4-2-15.3 2.5-3.8 4.5-3.8 11-.1 15.5l33.6 40.3-33.6 40.3c-3.8 4.5-3.7 11 .1 15.5 3.6 4.2 9.9 5.7 15.3 2.5l80-48c3.6-2.2 5.8-6.1 5.8-10.3s-2.2-8.1-5.8-10.3z"/></svg>