<svg xmlns="http://www.w3.org/2000/svg" viewBox="0 0 512 512"><!-- Font Awesome Pro 5.15.4 by @fontawesome - https://fontawesome.com License - https://fontawesome.com/license (Commercial License) --><path d="M160 288a64 64 0 1 0 64 64 64 64 0 0 0-64-64zm0 96a32 32 0 1 1 32-32 32 32 0 0 1-32 32zM501.78 42.49l-32.27-32.27a34.91 34.91 0 0 0-49.36 0l-50.52 50.53a38.46 38.46 0 0 0-9.29 15L339 139.87c-.39.31-1 .18-1.31.54L291.09 187c-13.79-11.17-29.47-19.89-46.72-23.91a115.75 115.75 0 0 0-26.1-3.07c-24.17 0-46.86 8.19-63.76 25.1a82.52 82.52 0 0 0-20.24 33.47c-6 18.56-23.2 32.69-42.15 34.46-23.69 2.27-45.72 11.45-62.59 28.44C-16.1 327-7.9 409 47.57 464.45 78.9 495.77 118.66 512 155.53 512c28.45 0 55.17-9.65 75-29.48 17-16.88 26.17-38.9 28.45-62.7 1.76-18.86 15.89-36.14 34.43-42.15a82.72 82.72 0 0 0 33.47-20.24c22.87-22.89 29.73-56.36 22-89.76-4-17.26-12.67-33-23.83-46.75l46.56-46.57c.36-.36.24-.91.54-1.3l64.06-21.36a38.6 38.6 0 0 0 15.05-9.3l50.52-50.53a34.92 34.92 0 0 0 0-49.37zM304.25 334.8a50.44 50.44 0 0 1-20.73 12.42c-30.79 10-53.46 38-56.4 69.54-1.17 12.11-5.43 29.41-19.23 43.13-16.61 16.62-37.64 20.11-52.36 20.11-30 0-61.07-13.92-85.32-38.18S32 386.37 32 356.39c0-14.69 3.51-35.67 20.22-52.34 13.64-13.72 30.88-18 42.89-19.13 31.64-3 59.61-25.65 69.61-56.52a50.32 50.32 0 0 1 12.42-20.65c13-13 29.53-15.72 41.13-15.72a83.63 83.63 0 0 1 18.85 2.23c10.31 2.4 20.86 7.82 31.11 15.6l-52.71 52.72a12 12 0 0 0 0 17l17 17a12 12 0 0 0 17 0l52.71-52.72c7.76 10.23 13.16 20.76 15.55 31.06 5.47 23.93.56 45.77-13.53 59.88zm174.9-265.57l-50.52 50.52a6.45 6.45 0 0 1-2.53 1.58L373 139l17.7-53.12a6.61 6.61 0 0 1 1.57-2.53l50.52-50.53a2.81 2.81 0 0 1 2.05-.85 2.85 2.85 0 0 1 2.06.85l32.26 32.27a2.92 2.92 0 0 1-.01 4.14z"/></svg>