<svg xmlns="http://www.w3.org/2000/svg" viewBox="0 0 512 512"><!-- Font Awesome Pro 5.15.4 by @fontawesome - https://fontawesome.com License - https://fontawesome.com/license (Commercial License) --><path d="M80 320a48 48 0 1 0 48-48 48 48 0 0 0-48 48zm64 0a16 16 0 1 1-16-16 16 16 0 0 1 16 16zm264 16h-80a8 8 0 0 0-8 8v16a8 8 0 0 0 8 8h80a8 8 0 0 0 8-8v-16a8 8 0 0 0-8-8zm96.67 50.93l-30.3-50.64c-7.5-20.46-11.6-29.58-2.24-49.27a81.26 81.26 0 0 0 7.87-34.81v-31.87a20.76 20.76 0 0 0-20.77-20.77 20.77 20.77 0 0 0-18.47 11.25l-11.95 23.12c-6 11.67-12.13 19.87-24.81 22.06h-12V89.38a47.32 47.32 0 0 0 9.94-7.38 48 48 0 0 0-60.59-73.95 58.88 58.88 0 0 0-8.59 6.74c-10.46 10.47-11.68 26.69-28.91 106.61a32.1 32.1 0 0 0 8.63 29.48L344 182.41V256h-12c-12.72-3.5-18.48-14-23.15-26.85l-14.67-40.22A19.64 19.64 0 0 0 275.72 176 19.69 19.69 0 0 0 256 195.68v56.62a81.19 81.19 0 0 0 7.83 34.81c9.35 19.68 5.42 28.81-2.1 49.26L231.36 387c-25.38 59.16 18 125 82.33 125h108.47c64.41-.07 107.84-65.91 82.51-125.07zM335.13 128.14c3.58-16.61 18.07-86.13 20.57-91a35.47 35.47 0 0 1 3.66-2.62 16 16 0 0 1 20 24.82 17.79 17.79 0 0 1-3.38 2.38L360 71v82.17zM470.37 454a56.87 56.87 0 0 1-48.18 26h-108.5A57.62 57.62 0 0 1 260 401.44l29.14-48.62 1.55-2.58 1-2.83.72-2c7.75-21 15.07-40.88.26-72.06a49.46 49.46 0 0 1-4-12.42c6.81 10.4 17.56 21.15 34.74 25.88l4.17 1.15h79.07l2.7-.47a59.52 59.52 0 0 0 36.41-21.07 50.41 50.41 0 0 1-2.63 6.83c-14.75 31-7.49 50.7.18 71.53l.92 2.49 1 2.82 1.54 2.59L476 401.31a56.74 56.74 0 0 1-5.63 52.69zM408 400.12h-80a8 8 0 0 0-8 8v16a8 8 0 0 0 8 8h80a8 8 0 0 0 8-8v-16a8 8 0 0 0-8-8zM128 480c-26.82 0-51.76-8.35-70.24-23.5C41.13 442.87 32 425.29 32 406.89c-.05-16.47 7.82-29.49 14.4-37.45 19.06-23 22.58-56.66 8.73-83.8a42.07 42.07 0 0 1-4.9-19.64c0-15.45 8.29-27 15.24-33.95A72.47 72.47 0 0 1 78.33 222c6.67-4.15 15.33-6.79 25.67-8.43V224a16 16 0 0 0 16 16h16a16 16 0 0 0 16-16v-10.47c10.34 1.64 19 4.28 25.67 8.43a72.47 72.47 0 0 1 12.86 10.12c6.95 7 15.25 18.5 15.24 33.95a42.07 42.07 0 0 1-4.9 19.61c-13.08 25.65-10.16 56.83 6.23 79.62l19.39-32.35c-2.89-10.73-2.31-22.54 2.87-32.67a79.15 79.15 0 0 0 2.8-7.43c-5-12.95-8.16-26.66-8.16-40.52v-29.61a91.15 91.15 0 0 0-10.86-13.22 103.66 103.66 0 0 0-18.58-14.67c-12.84-8-27.55-12-42.58-13.83v-54.22l16.62-33.23a29.12 29.12 0 0 0 3.07-13v-54.1A26.41 26.41 0 0 0 145.28 0h-34.56A26.41 26.41 0 0 0 84.3 26.41v54.08a29.12 29.12 0 0 0 3.07 13L104 126.74V181c-15 1.84-29.74 5.84-42.58 13.83a103.66 103.66 0 0 0-18.58 14.67c-15.39 15.39-24.62 35-24.61 56.58a74.36 74.36 0 0 0 8.41 34.2c8 15.65 6 35.59-4.88 48.78C8.11 365.55-.07 385.43 0 407c-.07 58 57.34 105 128 105 31.64 0 60.25-9.78 82.61-25.39a121.63 121.63 0 0 1-13.27-29.5C179 471.82 154.42 480 128 480zm11.7-448v48.49l-11.64 22.79-.05-.11v.11l-11.7-22.79V32z"/></svg>