<svg xmlns="http://www.w3.org/2000/svg" viewBox="0 0 512 512"><!-- Font Awesome Pro 5.15.4 by @fontawesome - https://fontawesome.com License - https://fontawesome.com/license (Commercial License) --><path d="M129 330.35a8 8 0 0 0-11.31 0l-11.31 11.31a8 8 0 0 0 0 11.31L159 405.66a8 8 0 0 0 11.32 0l11.31-11.31a8 8 0 0 0 0-11.32zm64-64a8 8 0 0 0-11.31 0l-11.31 11.32a8 8 0 0 0 0 11.31L223 341.66a8 8 0 0 0 11.32 0l11.31-11.31a8 8 0 0 0 0-11.32zM511.21 39.57a48.14 48.14 0 0 0-37.8-38.26A58.42 58.42 0 0 0 462.57 0c-14.8 0-27.14 10.61-95.83 54.94a32.15 32.15 0 0 0-14.74 27v44.59l-83.23 83.17a12.46 12.46 0 0 1-1.77-12.78l15.9-34.17a41.31 41.31 0 0 0-66.67-46.65L181 151.34a95.94 95.94 0 0 0-22.42 35.47 47.67 47.67 0 0 1-24.74 27.11l-70.29 32.57c-31 12.38-54.45 40.37-61.43 74.36a102.65 102.65 0 0 0 28 93.48l67.51 67.5A102.9 102.9 0 0 0 266 447.28l32.05-69.15a47.69 47.69 0 0 1 27.12-24.74A96 96 0 0 0 360.65 331l19.84-19.83a42.28 42.28 0 0 0 0-59.82A40.82 40.82 0 0 0 350.94 239a44.65 44.65 0 0 0-13.21 2l-21.8 6.95a13.07 13.07 0 0 1-4 .65c-4.75 0-7.94-2.89-9.58-4.54L451.72 94.63A47.44 47.44 0 0 0 464 96.42a48.05 48.05 0 0 0 47.21-56.85zm-199.28 241a45.34 45.34 0 0 0 13.72-2.16l21.8-6.95a12.94 12.94 0 0 1 3.49-.46 8.85 8.85 0 0 1 6.92 3 10.12 10.12 0 0 1 3 7.28 10.27 10.27 0 0 1-3 7.28L338 308.34a64 64 0 0 1-23.57 14.9A79.89 79.89 0 0 0 269 364.67l-32 69.15-.36.78-.32.79a70.89 70.89 0 0 1-116 23.81l-67.53-67.5a70.73 70.73 0 0 1-19.32-64.41c4.73-23.08 20.8-42.65 41.93-51.08l.81-.32.78-.37L147.31 243a79.84 79.84 0 0 0 41.44-45.42 63.85 63.85 0 0 1 14.9-23.58l35.25-35.24a9.28 9.28 0 0 1 13.17 0 9.47 9.47 0 0 1 1.86 10.52L238 183.42a44.48 44.48 0 0 0 5.16 45.51l36.53 37.7c11.53 11.5 23.89 13.91 32.24 13.91zm164.35-221.9A16 16 0 0 1 464 64.42a17.52 17.52 0 0 1-4.07-.71L442.12 59 384 117.08l.07-35.25C398.37 72.61 457.78 33.71 463 32a35.26 35.26 0 0 1 4.45.73 16.14 16.14 0 0 1 12.27 12.44 15.92 15.92 0 0 1-3.44 13.5z"/></svg>