<svg xmlns="http://www.w3.org/2000/svg" viewBox="0 0 576 512"><!-- Font Awesome Pro 5.15.4 by @fontawesome - https://fontawesome.com License - https://fontawesome.com/license (Commercial License) --><path d="M312 96H200a8 8 0 0 0-8 8v16a8 8 0 0 0 8 8h40v112H80V128h40a8 8 0 0 0 8-8v-16a8 8 0 0 0-8-8H8a8 8 0 0 0-8 8v16a8 8 0 0 0 8 8h40v256H8a8 8 0 0 0-8 8v16a8 8 0 0 0 8 8h112a8 8 0 0 0 8-8v-16a8 8 0 0 0-8-8H80V272h160v112h-40a8 8 0 0 0-8 8v16a8 8 0 0 0 8 8h112a8 8 0 0 0 8-8v-16a8 8 0 0 0-8-8h-40V128h40a8 8 0 0 0 8-8v-16a8 8 0 0 0-8-8zm240 288H406.07c3.84-78.76 159.24-94.63 159.24-198.94 0-50-36.93-89.06-97.75-89.06-38.5 0-73 20.77-91.81 48.46A11.83 11.83 0 0 0 379 161l7.15 4.75a12.1 12.1 0 0 0 16.35-2.84c14.5-19 37.72-33.76 63.28-33.76 37.31 0 63.37 23.72 63.37 57.7 0 82.34-161.12 97-161.12 207.31 0 4.22.19 7.81.5 11.18a12 12 0 0 0 12 10.69H552a8 8 0 0 0 8-8V392a8 8 0 0 0-8-8z"/></svg>