<svg xmlns="http://www.w3.org/2000/svg" viewBox="0 0 576 512"><!-- Font Awesome Pro 5.15.4 by @fontawesome - https://fontawesome.com License - https://fontawesome.com/license (Commercial License) --><path d="M476.8 223.64l90.74-101.26a11.69 11.69 0 0 0 3-7.81v-6.71A12.1 12.1 0 0 0 558.26 96H391a8 8 0 0 0-8 8v16a8 8 0 0 0 8 8h130.37c-3.27 3.13-7.65 7.56-12.42 12.95l-76.32 86.44a11.68 11.68 0 0 0-2 12.26l2.75 6.42a12.24 12.24 0 0 0 11.32 7.31h15.11c42.44 0 78.76 22.91 78.78 64.29a62.89 62.89 0 0 1-20.54 46c-36.94 33.66-92 18.39-124.16-9.63a12.52 12.52 0 0 0-17.76 1.49l-6.44 7.9a11.56 11.56 0 0 0 1.34 16.1c22.64 20 59 36.46 96.44 36.46C527.74 416 575 372.42 575 316.71c.1-57.3-44.9-88.62-98.2-93.07zM311 96H199a8 8 0 0 0-8 8v16a8 8 0 0 0 8 8h40v112H79V128h40a8 8 0 0 0 8-8v-16a8 8 0 0 0-8-8H7a8 8 0 0 0-8 8v16a8 8 0 0 0 8 8h40v256H7a8 8 0 0 0-8 8v16a8 8 0 0 0 8 8h112a8 8 0 0 0 8-8v-16a8 8 0 0 0-8-8H79V272h160v112h-40a8 8 0 0 0-8 8v16a8 8 0 0 0 8 8h112a8 8 0 0 0 8-8v-16a8 8 0 0 0-8-8h-40V128h40a8 8 0 0 0 8-8v-16a8 8 0 0 0-8-8z"/></svg>