<svg xmlns="http://www.w3.org/2000/svg" viewBox="0 0 512 512"><!-- Font Awesome Pro 5.15.4 by @fontawesome - https://fontawesome.com License - https://fontawesome.com/license (Commercial License) --><path d="M384 208a16 16 0 1 0-16-16 16 16 0 0 0 16 16zm-176-64a16 16 0 1 0-16-16 16 16 0 0 0 16 16zm96 0a16 16 0 1 0-16-16 16 16 0 0 0 16 16zm-176 64a16 16 0 1 0-16-16 16 16 0 0 0 16 16zm384 112a63.84 63.84 0 0 0-30.17-54.1c13.54-20.94 18.48-52.94 6.35-79.07C448 100.27 359.55 32.13 256 32c-103.54.13-192 68.26-232.18 154.82-12.45 26.81-9.11 59.87 3.66 80.75a63.51 63.51 0 0 0-6.14 99.79C18.25 372.28 16 377.76 16 384v32a64 64 0 0 0 64 64h352a64 64 0 0 0 64-64v-32c0-6.24-2.25-11.72-5.34-16.64A63.64 63.64 0 0 0 512 320zM52.85 200.3C90.66 118.9 172.3 64.13 256 64c83.72.13 165.37 54.9 203.16 136.31 5.79 12.47 5.24 29.54-1.41 43.48-.14.28-.27.56-.41.83a21.07 21.07 0 0 1-18.9 11.38H70.1c-6.12 0-12.24-2.39-16-7.22a16.5 16.5 0 0 1-2.49-4.4c-5.25-13.87-4.76-31.18 1.24-44.08zM464 416a32 32 0 0 1-32 32H80a32 32 0 0 1-32-32v-32h416zm-16-64H64a32 32 0 0 1 0-64h384a32 32 0 0 1 0 64z"/></svg>