<svg xmlns="http://www.w3.org/2000/svg" viewBox="0 0 576 512"><!-- Font Awesome Pro 5.15.4 by @fontawesome - https://fontawesome.com License - https://fontawesome.com/license (Commercial License) --><path d="M573.65 200.92l-11.34-11.31c-3.13-3.12-8.21-3.12-11.34 0l-17.01 16.97-52.98-52.86c5.64-21.31.36-44.9-16.39-61.61l-45.36-45.25C387.92 15.62 346.88 0 305.84 0c-41.04 0-82.09 15.62-113.4 46.86l68.66 68.5c-4.42 16.71-1.88 34.7 7.4 49.8L21.47 395.26c-27.95 26.04-28.71 70.01-1.67 96.99C33.02 505.44 50.32 512 67.59 512c18.05 0 36.09-7.17 49.42-21.42l233.13-249.14c12.84 5.06 26.84 6.3 40.12 2.8l52.98 52.86-17.01 16.97a7.985 7.985 0 0 0 0 11.31l11.34 11.31c3.13 3.12 8.21 3.12 11.34 0l124.74-124.45a7.997 7.997 0 0 0 0-11.32zM93.57 468.74C86.78 476 77.55 480 67.59 480c-9.48 0-18.4-3.69-25.11-10.38-6.87-6.86-10.57-15.97-10.4-25.67.17-9.7 4.17-18.68 11.28-25.3l246.37-229.47 33.85 33.77L93.57 468.74zm372.35-194.28l-52.98-52.85-13.04-13.01-17.83 4.7c-11.3 2.98-22.84-.03-30.87-8.04l-51.03-50.91c-8.03-8.01-11.04-19.53-8.06-30.8l4.71-17.79-13.04-13.01-43.14-43.05c19.54-11.54 41.9-17.7 65.2-17.7 34.27 0 66.48 13.32 90.72 37.49l45.36 45.26c8.03 8.01 11.04 19.53 8.06 30.8l-4.71 17.79 13.04 13.01 52.98 52.86-45.37 45.25z"/></svg>