<svg xmlns="http://www.w3.org/2000/svg" viewBox="0 0 640 512"><!-- Font Awesome Pro 5.15.4 by @fontawesome - https://fontawesome.com License - https://fontawesome.com/license (Commercial License) --><path d="M385.5,162.59a16.07,16.07,0,0,0-22.59-1l-27.47,25.17,25.5,20.08L384.5,185.2A16,16,0,0,0,385.5,162.59ZM368.91,408.2a21.14,21.14,0,0,1-29.41,3.39L308.91,385.5,298.5,398.3c-16.7,20.5-47,23.7-66.59,7.9L142,320.09H8a8,8,0,0,0-8,8v16a8,8,0,0,0,8,8H129.2l81.5,78a80.23,80.23,0,0,0,101-.18l7.21,6.18a53.33,53.33,0,0,0,74.89-7.68l16.29-20-25.2-19.84ZM632,320.09H504.76l40.63,32H632a8,8,0,0,0,8-8v-16A8,8,0,0,0,632,320.09ZM8,160H94.65L54,128H8a8,8,0,0,0-8,8v16A8,8,0,0,0,8,160Zm624-31.91H518.5L467.3,78.2a47.55,47.55,0,0,0-33.89-14.11h-101c-10.41,0-20.11,3.91-28.32,10A48.06,48.06,0,0,0,274.8,63.8H205.3a47.57,47.57,0,0,0-20.13,4.63l35,27.57H274.7c.89,2.2.3.7,1.1,2.91l-24,22L277.27,141l44.23-40.55a16,16,0,0,1,10.8-4.21h101a16,16,0,0,1,11.4,4.8l60.71,59.09H632a8,8,0,0,0,8-8v-16A8,8,0,0,0,632,128.09ZM23,1.8A7.88,7.88,0,0,0,11.77,3l-10,12.5A7.94,7.94,0,0,0,3,26.71L617,510.23A8,8,0,0,0,628.2,509l10-12.5a7.86,7.86,0,0,0-1.21-11.2Z"/></svg>