<svg xmlns="http://www.w3.org/2000/svg" viewBox="0 0 448 512"><!-- Font Awesome Pro 5.15.4 by @fontawesome - https://fontawesome.com License - https://fontawesome.com/license (Commercial License) --><path d="M115.2 70.4v121.792c-12.189-5.437-27.01-9.791-44.8-9.791C29.922 182.4 0 214.687 0 256c0 48.546 53.853 57.8 76.315 71.683 17.761 11.062 57.069 42.869 67.144 60.919C134.194 394.208 128 404.38 128 416v64c0 17.673 14.327 32 32 32h224c17.673 0 32-14.327 32-32v-64c0-9.167-3.861-17.428-10.038-23.262C413.719 358.089 448 321.746 448 267.636V244.4c0-59.606-36.084-90.256-85.87-88.631-17.108-14.3-42.155-21.279-65.494-16.635-11.856-7.229-25.395-11.348-39.582-11.885a92.713 92.713 0 0 0-1.054-.033V70.4C256 32.063 224.084 0 185.6 0c-38.161 0-70.4 32.77-70.4 70.4zM160 480v-64h224v64H160zm64-409.6v99.301c16.003-14.004 46.718-15.726 66.6 5.4 21.431-12.247 49.771-1.841 58.5 14.1 42.685-7.116 66.9 10.993 66.9 55.201v23.236c0 44.337-31.267 76.684-40.861 116.364H176.462c-10.706-29.835-59.818-68.904-83.262-83.5C67.686 284.704 32 280 32 256s16-41.6 38.4-41.6c38.4 0 57.9 28.8 76.8 28.8V70.4c0-20.1 18-38.4 38.4-38.4 20.7 0 38.4 17.7 38.4 38.4zM352 428c11.046 0 20 8.954 20 20s-8.954 20-20 20-20-8.954-20-20 8.954-20 20-20z"/></svg>