<svg xmlns="http://www.w3.org/2000/svg" viewBox="0 0 512 512"><!-- Font Awesome Pro 5.15.4 by @fontawesome - https://fontawesome.com License - https://fontawesome.com/license (Commercial License) --><path d="M503.03886,115.67818a59.82954,59.82954,0,0,0-37.35993-27.03135,60.44007,60.44007,0,0,0-33.70576,1.64649c.08593-26.49815-16.33728-50.40449-41.75234-58.467C344.205,17.23249,317.34857,55.80686,312.964,77.139L291.47649,181.89913,256.33524,45.22479A60.245,60.245,0,1,0,139.64431,75.24248l3.74205,14.55279a60.14487,60.14487,0,0,0-75.66708,74.55888C108.98335,303.634,106.626,295.65543,107.02249,297.05192l-5.49394-5.1719a60.24146,60.24146,0,1,0-82.5633,87.74643l98.14084,92.36363A146.6781,146.6781,0,0,0,217.99879,512H333.41632a117.845,117.845,0,0,0,115.02693-90.85386L510.33546,161.2096A59.83169,59.83169,0,0,0,503.03886,115.67818Zm-23.83309,38.11928L417.31356,413.73205a85.95272,85.95272,0,0,1-83.89724,66.26783H217.99879A114.79622,114.79622,0,0,1,139.035,448.68726l-98.1428-92.36754c-27.206-25.59385,11.5191-66.8108,38.70753-41.13688l54.91005,51.67989c5.43534,5.12111,13.48191.70313,13.48191-5.8262a264.52145,264.52145,0,0,0-10.90584-75.19559L98.40367,155.274c-10.67929-36.08607,43.56086-51.87129,54.18156-16.045L186.25584,252.8662c5.78884,19.57234,34.942,11.08012,29.96762-8.28909L170.63728,67.27956c-9.36683-36.45913,45.39283-50.30683,54.70693-14.086l50.834,197.70778c4.60725,17.91218,30.28988,17.14264,33.98115-.83985L344.30654,83.58235c7.46066-36.2931,63.11286-26.49619,54.994,13.0899L368.63375,246.17282c-3.83775,18.7364,24.45807,25.40634,28.98133,6.4219l26.63963-111.88129C433.07469,103.768,487.79334,117.813,479.20577,153.79746Z"/></svg>