<svg xmlns="http://www.w3.org/2000/svg" viewBox="0 0 512 512"><!-- Font Awesome Pro 5.15.4 by @fontawesome - https://fontawesome.com License - https://fontawesome.com/license (Commercial License) --><path d="M412.055 83.099C394.09 42.33 342.756 30.157 308.44 57.07c-28.257-34.829-80.888-32.701-106.878 2.23C157.639 26.987 94.25 58.222 94.25 113.143v10.078C50.599 104.318 0 135.857 0 184.571v59.326c0 31.379 13.628 61.31 37.389 82.119l101.2 88.626C147.059 422.06 145 429.788 145 456c0 13.255 10.745 24 24 24h261c13.255 0 24-10.745 24-24 0-24.785-1.14-33.765 4.887-47.867l44.364-103.808c5.805-13.583 8.749-27.948 8.749-42.694V142.42c0-51.69-55.549-83.525-99.945-59.321zM159.67 390.568l-101.2-88.626C41.648 287.21 32 266.054 32 243.897v-59.326c0-19.525 16.327-35.242 36.112-34.852 19.237.316 34.888 16.267 34.888 35.557v42.946c0 2.306.995 4.5 2.729 6.019l7.25 6.349a8 8 0 0 0 13.271-6.018V113.143c0-45.246 71-47.412 71 .706v27.865a8 8 0 0 0 8 8h7.25a8 8 0 0 0 8-8V98.857c0-45.23 71-47.429 71 .705v42.151a8 8 0 0 0 8 8h7.25a8 8 0 0 0 8-8V109.57c0-46.004 71-46.504 71 .705v31.438a8 8 0 0 0 8 8H401a8 8 0 0 0 8-8c0-45.242 71-47.428 71 .706V261.63a76.236 76.236 0 0 1-6.174 30.119l-44.365 103.808C420.883 415.63 422 429.933 422 448H177c0-19.081 2.866-39.746-17.33-57.432z"/></svg>