<svg xmlns="http://www.w3.org/2000/svg" viewBox="0 0 448 512"><!-- Font Awesome Pro 5.15.4 by @fontawesome - https://fontawesome.com License - https://fontawesome.com/license (Commercial License) --><path d="M363.642 201.124c-13.07-27.616-44.381-40.855-72.775-31.297V67.5c0-37.22-29.991-67.5-66.855-67.5s-66.855 30.28-66.855 67.5L160 176l-30.852-89.568C115.645 51.546 76.664 34.523 42.319 48.22 8.02 61.896-8.796 100.93 4.609 135.568L65.068 291.78c-29.161 23.68-49.333 51.547-28.683 88.228l57.139 101.5C104.112 500.316 124.007 512 145.445 512h214.273c13.464 0 26.679-4.662 37.21-13.128 10.455-8.405 17.889-20.266 20.933-33.4l28.57-123.25A60.856 60.856 0 0 0 448 328.5V256c0-43.874-45.136-72.88-84.358-54.876zM71.039 328.153l27.757-22.54a8.002 8.002 0 0 0 2.418-9.098L34.453 124.019C17.447 80.08 82.438 54.403 99.305 97.981l62.274 160.906a8 8 0 0 0 7.461 5.112h12.117a8 8 0 0 0 8-8V67.5c0-46.929 69.709-47.021 69.709 0V256a8 8 0 0 0 8 8h7.143a8 8 0 0 0 8-8v-29c0-37.351 55.425-37.41 55.425 0v29a8 8 0 0 0 8 8h7.143a8 8 0 0 0 8-8c0-37.35 55.424-37.41 55.424 0v72.5c0 2.186-.25 4.371-.742 6.496l-28.57 123.25C383.72 471.055 372.629 480 359.719 480H145.445c-9.898 0-19.108-5.437-24.035-14.189l-57.14-101.5c-6.863-12.192-4.016-27.398 6.769-36.158z"/></svg>