<svg xmlns="http://www.w3.org/2000/svg" viewBox="0 0 576 512"><!-- Font Awesome Pro 5.15.4 by @fontawesome - https://fontawesome.com License - https://fontawesome.com/license (Commercial License) --><path d="M416,160a64,64,0,1,0,64-64A64.06,64.06,0,0,0,416,160Zm96,0a32,32,0,1,1-32-32A32,32,0,0,1,512,160ZM432,96a48,48,0,1,0-48-48A48.05,48.05,0,0,0,432,96Zm0-64a16,16,0,1,1-16,16A16,16,0,0,1,432,32Zm83.22,268a53.5,53.5,0,0,0-.2-19.25C510.26,256,488,238,462.21,238H375.94a53.21,53.21,0,0,0-8.3-31.58l2.45-7.75,13.44-42.54a53,53,0,0,0-43.24-68.47,53.12,53.12,0,0,0-45-43.57A53.08,53.08,0,0,0,249,.35,52.23,52.23,0,0,0,243,0h0a53.09,53.09,0,0,0-37.38,15.82,53.62,53.62,0,0,0-18.49-5.64,52.05,52.05,0,0,0-6-.35c-22.85,0-43.71,15.55-50.75,37.82l-26,82.26A53.15,53.15,0,0,0,86,126.48c-29.54,0-53.64,23.53-54,52.46V278c.53,33.33,13.29,64.23,34,88.73A79.87,79.87,0,0,0,112,512c24.09,0,45.47-10.93,60.15-27.84C194.78,501.28,222.42,512,253,512H435a53,53,0,0,0,52.26-61.86,53.09,53.09,0,0,0,28-56,52.84,52.84,0,0,0,0-94.1ZM333,119.14a19.44,19.44,0,0,1,2.27.13A21,21,0,0,1,353,146.49l-12.24,38.74a51.92,51.92,0,0,0-33.22-.94l-11.67,3.6,16.84-53.3C315.56,125.64,323.76,119.14,333,119.14ZM64,278V179.36c.15-11.63,10.17-20.88,21.71-20.88h.08a21,21,0,0,1,20.88,21.13l1.82,43.79L161,57.29c2.83-9,11-15.46,20.23-15.46a21.4,21.4,0,0,1,2.26.13,21,21,0,0,1,17.8,27.22L167.52,176a7,7,0,0,0,13.35,4.22L222.8,47.46c2.83-9,11-15.46,20.23-15.46a19.32,19.32,0,0,1,2.27.13,21,21,0,0,1,17.79,27.22L225.14,179.92a7,7,0,0,0,13.35,4.22L267.77,91c2.82-9,11-15.45,20.23-15.45a19.15,19.15,0,0,1,2.26.13,21,21,0,0,1,17.79,27.22l-28.43,90L213.1,213.45C154.75,232.9,116,286.47,116,347v5.43c-1.35-.06-2.63-.4-4-.4a79.54,79.54,0,0,0-15.3,1.55A107.58,107.58,0,0,1,64,278Zm48,202a48,48,0,1,1,48-48A48,48,0,0,1,112,480ZM491,368H351a7,7,0,0,0,0,14H462.21c10.16,0,19.47,6.86,21.39,16.84A21,21,0,0,1,463,424H351a7,7,0,0,0,0,14h83.21c10.16,0,19.47,6.86,21.39,16.84A21,21,0,0,1,435,480H253a103.56,103.56,0,0,1-65.27-23.41A79,79,0,0,0,192,432c0-31.1-18-57.81-44-71V347a108.4,108.4,0,0,1,74.54-103l94.25-29.09A21.43,21.43,0,0,1,323,214a21,21,0,0,1,6.24,41.06L288,270H462.21c10.16,0,19.47,6.86,21.39,16.84A21,21,0,0,1,463,312H351a7,7,0,0,0,0,14H490.21c10.16,0,19.47,6.86,21.39,16.84A21,21,0,0,1,491,368Z"/></svg>