<svg xmlns="http://www.w3.org/2000/svg" viewBox="0 0 640 512"><!-- Font Awesome Pro 5.15.4 by @fontawesome - https://fontawesome.com License - https://fontawesome.com/license (Commercial License) --><path d="M307.58,288a4,4,0,0,0-7.15,0L288,317.79l-29.79,12.42a4,4,0,0,0,0,7.15L288,349.78l12.42,29.78a4,4,0,0,0,7.15,0L320,349.78l29.79-12.42a4,4,0,0,0,0-7.15L320,317.79ZM106.66,168.46l.09-.05,49.55-20.66a7.32,7.32,0,0,0,3.68-6h0a7.29,7.29,0,0,0-3.68-6l-49.57-20.67-.07,0L86,65.48a6.65,6.65,0,0,0-11.92,0l-20.7,49.63-.05,0L3.7,135.82a7.29,7.29,0,0,0-3.68,6H0a7.32,7.32,0,0,0,3.68,6l49.57,20.67.07,0L74,218.08a6.65,6.65,0,0,0,11.92,0l20.69-49.62ZM640,429.78a7.29,7.29,0,0,0-3.68-6l-49.57-20.67-.07,0L566,353.48a6.65,6.65,0,0,0-11.92,0l-20.7,49.63-.05,0L483.7,423.82a7.29,7.29,0,0,0-3.68,6h0a7.32,7.32,0,0,0,3.68,6l49.57,20.67.07,0L554,506.08a6.65,6.65,0,0,0,11.92,0l20.69-49.62h0l.09,0,49.55-20.66a7.32,7.32,0,0,0,3.68-6h0ZM453.89,480H273.3a32.3,32.3,0,0,1-26.71-14.3L132.39,293.8a23.92,23.92,0,0,1,5.91-33.39c15.79-11.11,30,1,33.39,5.89l37.81,54.4a8,8,0,0,0,14.59-4.61V88a24,24,0,1,1,48,0V248a8,8,0,0,0,8,8H292.3a35.81,35.81,0,0,1,7.78-1.66c2.26-1.41,4-3.49,4-6.34V56a24,24,0,0,1,48,0V248a8,8,0,0,0,8,8h16a8,8,0,0,0,8-8V88a24,24,0,0,1,48,0V248a8,8,0,0,0,8,8h16a8,8,0,0,0,8-8V168a24,24,0,0,1,48,0V288.3a321.9,321.9,0,0,1-6.2,62.79l-6.27,31.42,9.25-3.86,15.63-37.49.41-1,.47-.95a38.75,38.75,0,0,1,16.93-16.7c1.1-11.35,1.69-22.75,1.69-34.12V168a55.89,55.89,0,0,0-55.91-56,55.24,55.24,0,0,0-24,5.41V88a56,56,0,0,0-82.7-49.2,56,56,0,0,0-106.59,0A56,56,0,0,0,192.09,88V240.8C180.59,229,150,213.09,120,234.09a56.09,56.09,0,0,0-13.81,78l113.7,171.32A63.88,63.88,0,0,0,273.19,512H453.8a64.21,64.21,0,0,0,54.9-31.16l-30.47-12.7A31.57,31.57,0,0,1,453.89,480Z"/></svg>