<svg xmlns="http://www.w3.org/2000/svg" viewBox="0 0 512 512"><!-- Font Awesome Pro 5.15.4 by @fontawesome - https://fontawesome.com License - https://fontawesome.com/license (Commercial License) --><path d="M0 217.6C0 256.084 32.063 288 70.4 288h56.817c.009.351.02.703.033 1.054.536 14.187 4.655 27.727 11.885 39.582-4.644 23.339 2.335 48.386 16.635 65.494-1.625 49.786 29.026 85.87 88.631 85.87h23.236c54.11 0 90.452-34.281 125.102-42.038C398.572 444.139 406.833 448 416 448h64c17.673 0 32-14.327 32-32V192c0-17.673-14.327-32-32-32h-64c-11.62 0-21.792 6.194-27.397 15.459-18.051-10.075-49.858-49.384-60.919-67.144C313.8 85.853 304.546 32 256 32c-41.313 0-73.6 29.922-73.6 70.4 0 17.79 4.354 32.611 9.791 44.8H70.4C32.77 147.2 0 179.439 0 217.6zM480 416h-64V192h64v224zM32 217.6c0-20.4 18.3-38.4 38.4-38.4h172.8c0-18.9-28.8-38.4-28.8-76.8C214.4 80 232 64 256 64s28.704 35.686 44.5 61.2c14.595 23.443 53.665 72.556 83.5 83.262v198.677C344.32 416.733 311.974 448 267.636 448H244.4c-44.208 0-62.317-24.215-55.201-66.9-15.94-8.728-26.347-37.068-14.1-58.5-21.125-19.882-19.404-50.597-5.4-66.6H70.4C49.7 256 32 238.3 32 217.6zM448 364c11.046 0 20 8.954 20 20s-8.954 20-20 20-20-8.954-20-20 8.954-20 20-20z"/></svg>