<svg xmlns="http://www.w3.org/2000/svg" viewBox="0 0 512 512"><!-- Font Awesome Pro 5.15.4 by @fontawesome - https://fontawesome.com License - https://fontawesome.com/license (Commercial License) --><path d="M256 480h72.5c4.615 0 9.232-.528 13.722-1.569l123.25-28.57c13.133-3.044 24.995-10.478 33.4-20.933 8.466-10.531 13.128-23.746 13.128-37.21V177.445c0-21.438-11.684-41.333-30.492-51.92l-101.5-57.139c-36.681-20.651-64.548-.478-88.228 28.683l-156.211-60.46c-34.639-13.405-73.672 3.411-87.35 37.709-13.696 34.345 3.326 73.326 38.212 86.829L176 192l-108.5-2.843c-37.22 0-67.5 29.991-67.5 66.855s30.28 66.854 67.5 66.854h102.327c-9.558 28.393 3.681 59.705 31.297 72.775C183.12 434.864 212.126 480 256 480zM364.311 96.271l101.5 57.14c8.753 4.927 14.189 14.137 14.189 24.035v214.272c0 12.91-8.945 24.001-21.754 26.97l-123.25 28.57a28.843 28.843 0 0 1-6.496.742H256c-37.41 0-37.35-55.424 0-55.424a8 8 0 0 0 8-8v-7.143a8 8 0 0 0-8-8h-29c-37.41 0-37.351-55.425 0-55.425h29a8 8 0 0 0 8-8v-7.143a8 8 0 0 0-8-8H67.5c-47.021 0-46.929-69.709 0-69.709H256a8 8 0 0 0 8-8V201.04a8 8 0 0 0-5.112-7.461L97.981 131.305c-43.579-16.867-17.902-81.857 26.037-64.852l172.497 66.761a8.002 8.002 0 0 0 9.098-2.418l22.54-27.757c8.76-10.785 23.966-13.632 36.158-6.768z"/></svg>