<svg xmlns="http://www.w3.org/2000/svg" viewBox="0 0 576 512"><!-- Font Awesome Pro 5.15.4 by @fontawesome - https://fontawesome.com License - https://fontawesome.com/license (Commercial License) --><path d="M558.232 297.931L406.298 61.41C394.468 42.994 374.338 32 352.45 32H48C21.532 32 0 53.532 0 80v8c0 39.701 32.299 72 72 72h216.103l-23.189 58.93a7.954 7.954 0 0 1-7.444 5.07H144c-44.112 0-80 35.888-80 80 0 26.468 21.532 48 48 48h125.848a31.98 31.98 0 0 1 16.822 4.778l93.536 57.799a7.948 7.948 0 0 1 3.794 6.805V480h224V358.463c0-21.506-6.144-42.439-17.768-60.532zM544 448H384v-26.618c0-13.966-7.093-26.687-18.973-34.027l-93.537-57.799A63.96 63.96 0 0 0 237.847 320H112c-8.822 0-16-7.178-16-16 0-26.468 21.532-48 48-48h113.469c16.551 0 31.161-9.952 37.222-25.353l25.34-64.394c7.227-18.362-6.334-38.254-26.055-38.254H72c-22.056 0-40-17.944-40-40v-8c0-8.822 7.178-16 16-16h304.45c10.943 0 21.009 5.497 26.924 14.705l151.935 236.521A79.854 79.854 0 0 1 544 358.463V448z"/></svg>