<svg xmlns="http://www.w3.org/2000/svg" viewBox="0 0 512 512"><!-- Font Awesome Pro 5.15.4 by @fontawesome - https://fontawesome.com License - https://fontawesome.com/license (Commercial License) --><path d="M479.94 312.94a63.91 63.91 0 0 0-48.47-62L415.94 247c0-26.64-17.73-44.92-39.23-48.91-30.84-5.73-31.43-6.11-37.6-6.11a50.84 50.84 0 0 0-19.11 3.74V64a64 64 0 0 0-127.94-.57c0 .21-.09.36-.09.57v131.72a50.84 50.84 0 0 0-19.15-3.72c-6.39 0-8.41.67-30.53 5.09A57.76 57.76 0 0 0 96 253.57v14.65l-28.63 14.31A63.66 63.66 0 0 0 32 339.78v63A63.58 63.58 0 0 0 50.75 448l26.5 26.51a127.15 127.15 0 0 0 90.5 37.49H352a128 128 0 0 0 128-128.08zM352 480H167.76a96 96 0 0 1-67.88-28.12l-26.51-26.51A32 32 0 0 1 64 402.74v-63a32 32 0 0 1 17.69-28.63L96 304v32a16 16 0 0 0 32 0v-82.43a25.64 25.64 0 0 1 20.62-25.11c19.45-3.89 21.11-4.46 24.21-4.46A19.21 19.21 0 0 1 192 243.21 12.79 12.79 0 0 0 204.77 256h6.41A12.79 12.79 0 0 0 224 243.21V65.37c0-16.71 12.22-31.64 28.86-33.22A32 32 0 0 1 288 64v179.21A12.79 12.79 0 0 0 300.75 256h6.41A12.79 12.79 0 0 0 320 243.21 19.21 19.21 0 0 1 339.11 224c2.88 0 3.31.29 31.69 5.56a16.06 16.06 0 0 1 13.14 15.74V272l39.76 9.94a32 32 0 0 1 24.24 31l.06 71A96 96 0 0 1 352 480z"/></svg>