<svg xmlns="http://www.w3.org/2000/svg" viewBox="0 0 640 512"><!-- Font Awesome Pro 5.15.4 by @fontawesome - https://fontawesome.com License - https://fontawesome.com/license (Commercial License) --><path d="M16,319.89a16,16,0,1,0-16-16A16.05,16.05,0,0,0,16,319.89Zm369.44-157.2a16.07,16.07,0,0,0-22.59-1l-27.36,25.07L361,206.85l23.45-21.55A16,16,0,0,0,385.44,162.69ZM368.85,408.3a21.15,21.15,0,0,1-29.4,3.39l-30.59-26.1-10.4,12.8c-16.7,20.5-47,23.7-66.59,7.91L142,320.19H96V161L54.22,128.09H8a8,8,0,0,0-8,8v16a8,8,0,0,0,8,8H64V352H8a8,8,0,0,0-8,8v16a8,8,0,0,0,8,8H64a31.89,31.89,0,0,0,31.9-31.7h33.18l81.49,78a80.23,80.23,0,0,0,101-.21l7.2,6.21a53.36,53.36,0,0,0,74.9-7.71l16.45-20.22-25.18-19.82ZM623.91,288a16,16,0,1,0,16,16A16,16,0,0,0,623.91,288ZM640,136.09a8.09,8.09,0,0,0-8.09-8l-113.49.21L467.23,78.39A47.58,47.58,0,0,0,433.34,64.3h-101c-10.41,0-20.11,3.89-28.31,10A48.09,48.09,0,0,0,274.76,64H205.27a47.62,47.62,0,0,0-19.92,4.52L220.24,96h54.42c.89,2.19.3.69,1.1,2.89l-23.93,22,25.39,20,44.14-40.48a16.06,16.06,0,0,1,10.79-4.2h101A15.9,15.9,0,0,1,444.53,101l60.69,59.09h38.7v160.1h-39l81,63.81H632a8,8,0,0,0,8-8V360a8,8,0,0,0-8-8H576V160.3l56-.21a8,8,0,0,0,8-8ZM23.07,1.8A7.87,7.87,0,0,0,11.87,3l-10,12.5a7.93,7.93,0,0,0,1.2,11.2L617,510.23A7.94,7.94,0,0,0,628.2,509l10-12.5a7.86,7.86,0,0,0-1.21-11.2Z"/></svg>