<svg xmlns="http://www.w3.org/2000/svg" viewBox="0 0 448 512"><!-- Font Awesome Pro 5.15.4 by @fontawesome - https://fontawesome.com License - https://fontawesome.com/license (Commercial License) --><path d="M185.6 512c38.484 0 70.4-32.063 70.4-70.4v-56.817c.351-.009.703-.02 1.054-.033 14.187-.536 27.727-4.655 39.582-11.885 23.339 4.644 48.386-2.335 65.494-16.635 49.786 1.625 85.87-29.026 85.87-88.631v-23.236c0-54.11-34.281-90.452-42.038-125.102C412.139 113.428 416 105.167 416 96V32c0-17.673-14.327-32-32-32H160c-17.673 0-32 14.327-32 32v64c0 11.62 6.194 21.792 15.459 27.397-10.075 18.05-49.384 49.858-67.144 60.919C53.853 198.2 0 207.454 0 256c0 41.313 29.922 73.6 70.4 73.6 17.79 0 32.611-4.354 44.8-9.791V441.6c0 37.63 32.239 70.4 70.4 70.4zM384 32v64H160V32h224zM185.6 480c-20.4 0-38.4-18.3-38.4-38.4V268.8c-18.9 0-38.4 28.8-76.8 28.8C48 297.6 32 280 32 256s35.686-28.704 61.2-44.5c23.443-14.595 72.556-53.665 83.262-83.5h198.677C384.733 167.68 416 200.026 416 244.364V267.6c0 44.208-24.215 62.317-66.9 55.201-8.728 15.94-37.068 26.347-58.5 14.1-19.882 21.125-50.597 19.404-66.6 5.4V441.6c0 20.7-17.7 38.4-38.4 38.4zM332 64c0-11.046 8.954-20 20-20s20 8.954 20 20-8.954 20-20 20-20-8.954-20-20z"/></svg>