<svg xmlns="http://www.w3.org/2000/svg" viewBox="0 0 576 512"><!-- Font Awesome Pro 5.15.4 by @fontawesome - https://fontawesome.com License - https://fontawesome.com/license (Commercial License) --><path d="M160,192h48v48a16,16,0,0,0,16,16h96a16,16,0,0,0,16-16V192h48a16,16,0,0,0,16-16V80a16,16,0,0,0-16-16H336V16A16,16,0,0,0,320,0H224a16,16,0,0,0-16,16V64H160a16,16,0,0,0-16,16v96A16,16,0,0,0,160,192Zm16-96h64V32h64V96h64v64H304v64H240V160H176ZM558.27,333.5a52.68,52.68,0,0,0-35.2-13.39,55.26,55.26,0,0,0-34.59,12.2l-61.59,49.3a10.72,10.72,0,0,1-6.71,2.3h-41.6a55.68,55.68,0,0,0,4.81-32.3c-4-27.91-29.61-47.7-57.81-47.7H181.29a95.61,95.61,0,0,0-57.59,19.2l-38.41,28.8H8a8,8,0,0,0-8,8v16a8,8,0,0,0,8,8H96l46.9-35.21a64.21,64.21,0,0,1,38.39-12.79H328a24,24,0,0,1,0,48H240a16,16,0,0,0,0,32H420.18a43.14,43.14,0,0,0,26.71-9.3l61.59-49.2a23.44,23.44,0,0,1,14.59-5.21,20.51,20.51,0,0,1,13.81,5.21A21.25,21.25,0,0,1,536,390L435.18,470.7a42.47,42.47,0,0,1-26.7,9.3H8a8,8,0,0,0-8,8v16a8,8,0,0,0,8,8H408.48a74.34,74.34,0,0,0,46.59-16.39L556,414.91a53.39,53.39,0,0,0,2.3-81.41Z"/></svg>