<svg xmlns="http://www.w3.org/2000/svg" viewBox="0 0 640 512"><!-- Font Awesome Pro 5.15.4 by @fontawesome - https://fontawesome.com License - https://fontawesome.com/license (Commercial License) --><path d="M638.9 209.7l-8-13.9c-2.2-3.8-7.1-5.1-10.9-2.9l-108 63V240c0-26.5-21.5-48-48-48H320v62.2c0 16-10.9 30.8-26.6 33.3-20 3.3-37.4-12.2-37.4-31.6v-94.3c0-13.8 7.1-26.6 18.8-33.9l33.4-20.9c11.4-7.1 24.6-10.9 38.1-10.9h103.2l118.5-67c3.8-2.2 5.2-7.1 3-10.9l-8-14c-2.2-3.8-7.1-5.2-10.9-3l-111 63h-94.7c-19.5 0-38.6 5.5-55.1 15.8l-33.5 20.9c-17.5 11-28.7 28.6-32.2 48.5l-62.5 37c-21.6 13-35.1 36.7-35.1 61.9v38.6L4 357.1c-3.8 2.2-5.2 7.1-3 10.9l8 13.9c2.2 3.8 7.1 5.2 10.9 3L160 305.3v-57.2c0-14 7.5-27.2 19.4-34.4l44.6-26.4v65.9c0 33.4 24.3 63.3 57.6 66.5 38.1 3.7 70.4-26.3 70.4-63.7v-32h112c8.8 0 16 7.2 16 16v32c0 8.8-7.2 16-16 16h-24v36c0 19.8-16 35.8-35.8 35.8h-16.1v16c0 22.2-18 40.2-40.2 40.2H238.5l-115.6 67.3c-3.8 2.2-5.1 7.1-2.9 10.9l8 13.8c2.2 3.8 7.1 5.1 10.9 2.9L247.1 448h100.8c34.8 0 64-24.8 70.8-57.7 30.4-6.7 53.3-33.9 53.3-66.3v-4.7c13.6-2.3 24.6-10.6 31.8-21.7l132.2-77c3.8-2.2 5.1-7.1 2.9-10.9z"/></svg>