<svg xmlns="http://www.w3.org/2000/svg" viewBox="0 0 576 512"><!-- Font Awesome Pro 5.15.4 by @fontawesome - https://fontawesome.com License - https://fontawesome.com/license (Commercial License) --><path d="M248.9 192H272v56c0 4.4 3.6 8 8 8h16c4.4 0 8-3.6 8-8v-56h23.1C411.4 192 480 113 480 16V0h-55.1C364.9 0 313 40.1 288 98.1 263 40.1 211.1 0 151.1 0H96v16c0 97 68.6 176 152.9 176zm176-160h22.4c-6.7 71.9-58 128-120.1 128h-22.4c6.6-71.9 58-128 120.1-128zm-273.8 0c62.1 0 113.4 56.1 120.1 128h-22.4c-62.1 0-113.4-56.1-120.1-128h22.4zm407.2 301.6c-9.6-8.6-22.1-13.4-35.2-13.4-12.5 0-24.8 4.3-34.6 12.2l-61.6 49.3c-1.9 1.5-4.2 2.3-6.7 2.3h-41.6c4.6-9.6 6.5-20.7 4.8-32.3-4-27.9-29.6-47.7-57.8-47.7H181.3c-20.8 0-41 6.7-57.6 19.2L85.3 352H8c-4.4 0-8 3.6-8 8v16c0 4.4 3.6 8 8 8h88l46.9-35.2c11.1-8.3 24.6-12.8 38.4-12.8H328c13.3 0 24 10.7 24 24s-10.7 24-24 24h-88c-8.8 0-16 7.2-16 16s7.2 16 16 16h180.2c9.7 0 19.1-3.3 26.7-9.3l61.6-49.2c4.2-3.4 9.5-5.2 14.6-5.2 5 0 9.9 1.7 13.8 5.2 10.1 9.1 9.3 24.5-.9 32.6l-100.8 80.7c-7.6 6.1-17 9.3-26.7 9.3H8c-4.4 0-8 3.6-8 8v16c0 4.4 3.6 8 8 8h400.5c17 0 33.4-5.8 46.6-16.4L556 415c12.2-9.8 19.5-24.4 20-40s-6-30.8-17.7-41.4z"/></svg>