<svg xmlns="http://www.w3.org/2000/svg" viewBox="0 0 448 512"><!-- Font Awesome Pro 5.15.4 by @fontawesome - https://fontawesome.com License - https://fontawesome.com/license (Commercial License) --><path d="M369.4 119.1V96.3c0-42.8-42.8-72.8-82.3-56.5-19.8-54.2-94.4-52.2-112.5.8-38.4-15.8-81.8 12.8-81.8 55.9v145.7c-20.3-13.7-47.6-13.9-68.4 1.5-26.6 19.6-32.4 57.1-13.1 83.9l125 174.4c4.5 6.3 11.8 10 19.5 10H388c11.2 0 20.9-7.7 23.4-18.6l31.4-135.6c3.4-14.8 5.2-30 5.2-45.3V176.2c0-41.5-40.6-70.1-78.6-57.1zM416 312.5c0 12.8-1.5 25.6-4.4 38l-30 129.4H159.9l-122.6-171c-9-12.6-6.3-30.4 6.1-39.5 12.3-9.1 29.6-6.4 38.6 6.2l28.3 39.4c4.5 6.3 14.5 3.1 14.5-4.7V96.5c0-38 55.4-36.9 55.4.7V256c0 4.4 3.6 8 8 8h7.1c4.4 0 8-3.6 8-8V60.2c0-38 55.4-36.9 55.4.7v195c0 4.4 3.6 8 8 8h7.1c4.4 0 8-3.6 8-8V95.6c0-38 55.4-36.9 55.4.7V256c0 4.4 3.6 8 8 8h7.1c4.4 0 8-3.6 8-8v-79c0-37.6 55.4-38.8 55.4-.7v136.2z"/></svg>