<svg xmlns="http://www.w3.org/2000/svg" viewBox="0 0 640 512"><!-- Font Awesome Pro 5.15.4 by @fontawesome - https://fontawesome.com License - https://fontawesome.com/license (Commercial License) --><path d="M640 144c0-26.8-21.9-48.4-48.8-48-26 .4-47.2 23.7-47.2 49.7v137.1l-62 73.3c-7.1 8.4-20.1-1.7-13.6-10.7l28.6-39.3c13.4-18.5 13.1-44.6-2.5-61.3-25.5-27.4-60.6-15.3-74.5 3.9l-42.4 58.4C361 329.3 352 356.3 352 384v120c0 4.4 3.6 8 8 8h16c4.4 0 8-3.6 8-8V384c0-20.6 6.8-41.1 19.5-58l42.4-58.4c5.3-7.3 15.3-8.7 22.4-3.5 7.8 5.6 8.3 15.8 3.5 22.3l-30.6 42.2c-.2.3-.4.5-.5.8-26.1 39.7 33.9 86.7 70.8 42.4l64.6-77.5V144.6c0-22.3 32-21.7 32-.7v170.4c0 3.6-1.2 7.2-3.5 10L497.6 458c-9.5 11.9-15.5 29.2-17.1 45.2-.5 4.8 3.2 8.7 8 8.7h16c4 0 7.5-2.9 8-6.9 1.2-9.6 4.6-20.2 10.1-27l107-133.7c6.8-8.5 10.5-19.1 10.5-30L640 144zM220 248.8c-14-19.2-49.1-31.4-74.5-3.9-15.6 16.8-15.9 42.8-2.5 61.3l28.6 39.3c6.5 8.9-6.5 19.1-13.6 10.7l-62-73.3V145.8c0-26-21.2-49.3-47.2-49.7C21.9 95.6 0 117.2 0 144v170.4c0 10.9 3.7 21.5 10.5 30l107 133.7c5.4 6.8 8.9 17.5 10.1 27 .5 4 4 6.9 8 6.9h16c4.8 0 8.5-3.9 8-8.7-1.6-16-7.5-33.3-17.1-45.2l-107-133.7c-2.3-2.8-3.5-6.4-3.5-10V144c0-21 32-21.6 32 .7v149.7l64.6 77.5c36.9 44.2 96.8-2.7 70.8-42.4-.2-.3-.4-.5-.5-.8l-30.6-42.2c-4.7-6.5-4.2-16.7 3.5-22.3 7-5.1 17.1-3.8 22.4 3.5l42.4 58.4c12.7 16.9 19.5 37.4 19.5 58v120c0 4.4 3.6 8 8 8h16c4.4 0 8-3.6 8-8v-120c0-27.7-9-54.6-25.6-76.8L220 248.8zm169.1-60c10.1-29.6-7.3-59.8-35.1-67.8l-59.1-16.9c-8.8-2.5-14.9-10.6-14.9-19.7 0-11.3 9.2-20.5 20.5-20.5h36.9c8.2 0 16.1 2.6 22.6 7.3 3 2.2 7.2 1.5 9.8-1.2l11.4-11.4c3.5-3.5 2.9-9.2-1-12.2C368 37.1 353.1 32 337.4 32H336V8c0-4.4-3.6-8-8-8h-16c-4.4 0-8 3.6-8 8v24h-3.5c-30.6 0-55.1 26.3-52.2 57.5 2.1 22.2 19.1 40.1 40.5 46.2l56.4 16.1c8.8 2.5 14.9 10.6 14.9 19.7 0 11.3-9.2 20.5-20.5 20.5h-36.9c-8.2 0-16.1-2.6-22.6-7.3-3-2.2-7.2-1.5-9.8 1.2l-11.4 11.4c-3.5 3.5-2.9 9.2 1 12.2 12.3 9.4 27.2 14.5 42.9 14.5h1.4v24c0 4.4 3.6 8 8 8h16c4.4 0 8-3.6 8-8v-24h1.4c22.6 0 44.1-13.6 51.5-35.2z"/></svg>