<svg xmlns="http://www.w3.org/2000/svg" viewBox="0 0 624 512"><!-- Font Awesome Pro 5.15.4 by @fontawesome - https://fontawesome.com License - https://fontawesome.com/license (Commercial License) --><path d="M232 128c13.25 0 24-11.94 24-26.67S232 48 232 48s-24 38.61-24 53.33S218.75 128 232 128zm160 0c13.25 0 24-11.94 24-26.67S392 48 392 48s-24 38.61-24 53.33S378.75 128 392 128zm-8 32c-4.42 0-8 3.58-8 8v136h32V168c0-4.42-3.58-8-8-8h-16zm64 0c-4.42 0-8 3.58-8 8v136h32V168c0-4.42-3.58-8-8-8h-16zm8-32c13.25 0 24-11.94 24-26.67S456 48 456 48s-24 38.61-24 53.33S442.75 128 456 128zm64 0c13.25 0 24-11.94 24-26.67S520 48 520 48s-24 38.61-24 53.33S506.75 128 520 128zm-8 32c-4.42 0-8 3.58-8 8v136h32V168c0-4.42-3.58-8-8-8h-16zM312 80c13.25 0 24-11.94 24-26.67S312 0 312 0s-24 38.61-24 53.33S298.75 80 312 80zm-88 80c-4.42 0-8 3.58-8 8v136h32V168c0-4.42-3.58-8-8-8h-16zm384 0h-16c-4.42 0-8 3.58-8 8v136c0 26.51-21.49 48-48 48H328V120c0-4.42-3.58-8-8-8h-16c-4.42 0-8 3.58-8 8v232H88c-26.51 0-48-21.49-48-48V168c0-4.42-3.58-8-8-8H16c-4.42 0-8 3.58-8 8v136c0 44.18 35.82 80 80 80h208v96H96c-4.42 0-8 3.58-8 8v16c0 4.42 3.58 8 8 8h432c4.42 0 8-3.58 8-8v-16c0-4.42-3.58-8-8-8H328v-96h208c44.18 0 80-35.82 80-80V168c0-4.42-3.58-8-8-8zM48 101.33C48 86.61 24 48 24 48S0 86.61 0 101.33 10.75 128 24 128s24-11.94 24-26.67zM600 48s-24 38.61-24 53.33S586.75 128 600 128s24-11.94 24-26.67S600 48 600 48zM96 160c-4.42 0-8 3.58-8 8v136h32V168c0-4.42-3.58-8-8-8H96zm8-32c13.25 0 24-11.94 24-26.67S104 48 104 48s-24 38.61-24 53.33S90.75 128 104 128zm64 0c13.25 0 24-11.94 24-26.67S168 48 168 48s-24 38.61-24 53.33S154.75 128 168 128zm-8 32c-4.42 0-8 3.58-8 8v136h32V168c0-4.42-3.58-8-8-8h-16z"/></svg>