<svg xmlns="http://www.w3.org/2000/svg" viewBox="0 0 576 512"><!-- Font Awesome Pro 5.15.4 by @fontawesome - https://fontawesome.com License - https://fontawesome.com/license (Commercial License) --><path d="M573.99 439.89l-10.49-12.03c-2.83-3.25-7.65-3.55-10.97-.8-15.37 12.7-32.56 22.48-50.42 30.75L393.59 214.36a64.009 64.009 0 0 1-1.89-45.45l6.35-19.04C402.4 136.81 414.62 128 428.4 128h39.2c13.77 0 26 8.81 30.36 21.88L512 192l30.36-77.24c3.83-11.5.84-24.18-7.73-32.75L465.28 9.37A31.974 31.974 0 0 0 442.64 0c-5.43 0-10.9 1.38-15.87 4.22L260.43 107.18a128.004 128.004 0 0 0-53.47 59.15L74.07 457.89c-17.93-8.28-35.18-18.09-50.61-30.84-3.32-2.74-8.14-2.45-10.97.8L2.01 439.89c-2.96 3.39-2.62 8.68.84 11.55C50.01 490.55 109.39 512 170.92 512h234.16c61.53 0 120.9-21.45 168.07-60.56 3.46-2.87 3.8-8.15.84-11.55zM236.21 179.33c8.36-18.81 22.23-34.15 41.07-44.94L442.65 32.01l69.32 72.6-2.68 6.81A63.876 63.876 0 0 0 467.6 96h-39.2a63.913 63.913 0 0 0-60.71 43.76l-6.35 19.04c-7.44 22.33-6.44 46.54 3.02 68.6l82.35 184.73c-13.42 2.34-27.01 3.88-40.83 3.88H352v-4c0-15.44-12.56-28-28-28h-72c-15.44 0-28 12.56-28 28v4h-53.87c-13.56 0-26.91-1.45-40.1-3.71l106.18-232.97zM103.99 469.41l12.52-27.47c17.58 3.59 35.42 6.06 53.61 6.06H224v32h-53.08c-22.96 0-45.34-4.07-66.93-10.59zM256 480v-64h64v64h-64zm96 0v-32h53.87c18.35 0 36.34-2.52 54.07-6.17l12.27 27.52C450.57 475.91 428.1 480 405.07 480H352z"/></svg>