<svg xmlns="http://www.w3.org/2000/svg" viewBox="0 0 640 512"><!-- Font Awesome Pro 5.15.4 by @fontawesome - https://fontawesome.com License - https://fontawesome.com/license (Commercial License) --><path d="M627.2 189.5c-.9-12.3-6.1-24.2-15.3-33.4-9-9-20.7-14.4-33.3-15.3-9.3-8.1-21.5-12.8-34.5-12.8s-25.2 4.7-34.5 12.8c-4.3.3-8.3 1.8-12.3 3.2C419.7 65.6 379.9 32 305.2 32c-68.6 0-130.4 41.2-156.8 104.5L58.7 352H48c-26.5 0-48 21.5-48 48v32c0 26.5 21.5 48 48 48h416c26.5 0 48-21.5 48-48v-32c0-26.5-21.5-48-48-48h-11.4l-61-142.2c-2.4-5.5 1.9-11.2 7.3-11.2 1 0 2 .2 3 .6l47.1 18.9c-.2 2-1.1 3.9-1.1 6 0 13.1 4.7 25.1 12.8 34.5.9 12.3 6.1 24.2 15.3 33.4 9.1 9.1 20.9 14.5 33.6 15.5 9.3 8 21.3 12.7 34.3 12.7s25-4.7 34.3-12.7c12.7-1 24.5-6.4 33.6-15.5 9.2-9.2 14.4-21.1 15.3-33.4 8.1-9.3 12.8-21.4 12.8-34.5s-4.6-25.2-12.7-34.6zM480 400v32c0 8.8-7.2 16-16 16H48c-8.8 0-16-7.2-16-16v-32c0-8.8 7.2-16 16-16h416c8.8 0 16 7.2 16 16zm-81.1-233.4c-13.5 0-25.9 6.7-33.4 18-7.4 11.2-8.7 25.3-3.3 37.7L417.8 352H93.3L178 148.8C199.5 97.3 249.4 64 305.2 64c61.3 0 93.9 26.6 165.9 99.3-5.4 7.6-9.2 16-10.1 25.1l-47.3-18.9c-4.7-2-9.7-2.9-14.8-2.9zm193.7 77.5c4.4 8.1 3.5 18.3-3.4 25.1-4.2 4.2-9.6 6.2-15.1 6.2-3.5 0-6.9-1.2-10-2.9-2.6 8.8-10.5 15.4-20.1 15.4s-17.5-6.6-20.1-15.4c-3.2 1.7-6.5 2.9-10 2.9-5.5 0-10.9-2.1-15.1-6.2-6.8-6.8-7.7-17-3.4-25.1-8.8-2.6-15.4-10.5-15.4-20.1s6.6-17.5 15.4-20.1c-4.4-8.1-3.5-18.3 3.4-25.1 4.1-4.1 9.3-6 14.6-6 3.6 0 7.2.9 10.5 2.7 2.6-8.8 10.5-15.4 20.1-15.4s17.5 6.6 20.1 15.4c3.3-1.8 6.9-2.7 10.5-2.7 5.3 0 10.6 2 14.6 6 6.8 6.8 7.8 17 3.4 25.1 8.8 2.6 15.4 10.5 15.4 20.1s-6.6 17.5-15.4 20.1z"/></svg>