<svg xmlns="http://www.w3.org/2000/svg" viewBox="0 0 512 512"><!-- Font Awesome Pro 5.15.4 by @fontawesome - https://fontawesome.com License - https://fontawesome.com/license (Commercial License) --><path d="M288 192l-16-32-16 32-32 16 32 16 16 32 16-32 32-16-32-16zm216 288h-24L379.18 247.34a73.068 73.068 0 0 1-2.21-52.44L442.67 0 223.83 123.68c-27.61 15.6-49.46 39.51-62.37 68.25L32 480H8c-4.42 0-8 3.58-8 8v16c0 4.42 3.58 8 8 8h496c4.42 0 8-3.58 8-8v-16c0-4.42-3.58-8-8-8zm-436.92 0l31.72-70.6 55.86 27.93L176 480H67.08zM192 440.45l-13.48-26.97L151.55 400l26.96-13.48L192 359.55l13.48 26.96L232.45 400l-26.96 13.48L192 440.45zM208 480l21.33-42.67L304 400l-74.67-37.33L192 288l-37.33 74.67-44.96 22.48 80.94-180.11c10.19-22.67 27.11-41.18 48.93-53.51l146.08-82.55-39 115.7c-8.32 24.69-7.2 51.47 3.17 75.38l23.7 54.7L352 304l-16-32-16 32-32 16 32 16 16 32 16-32 25.26-12.63L445.12 480H208z"/></svg>