<svg xmlns="http://www.w3.org/2000/svg" viewBox="0 0 640 512"><!-- Font Awesome Pro 5.15.4 by @fontawesome - https://fontawesome.com License - https://fontawesome.com/license (Commercial License) --><path d="M626.38 258.52a26.15 26.15 0 0 0-10.93-2.36 25.84 25.84 0 0 0-20.38 9.61c-.37.48-23.28 30.85-85.94 55.42C498.86 250.73 465.52 64 400.33 64c-15.56 0-29.44 7.41-41.11 17.45a59.08 59.08 0 0 1-78.43 0C269.12 71.41 255.24 64 239.68 64c-65.31 0-98.58 187-108.78 257.18-62.08-24.34-85.16-54.38-86-55.38a25.39 25.39 0 0 0-20.3-9.8 26.35 26.35 0 0 0-10.78 2.29C2.73 263.22-2.62 274.85 1.26 285.5 2 287.44 75.36 480 320 480s318-192.56 318.75-194.5c3.85-10.56-1.47-21.98-12.37-26.98zM239.68 96c5.95 0 12.76 3.27 20.25 9.71a91.05 91.05 0 0 0 120.15 0c7.49-6.44 14.3-9.71 20.25-9.71 13.92 0 43.34 53.8 65.29 160.79-38 10-85.38 17.15-145.61 17.15s-107.58-7.19-145.62-17.17C196.34 149.79 225.76 96 239.68 96zm-71.24 192.45c40.25 10.29 89.68 17.49 151.57 17.49 61.62 0 111.26-7.15 151.57-17.43 2.39 13.77 4.7 28 6.78 43.28C438.49 343.47 386.64 352 320 352s-118.48-8.55-158.36-20.24c2.1-15.25 4.36-29.54 6.8-43.31zM320 448c-150.92 0-229.54-78.79-264.78-130.23C96.68 347 177.31 384 320 384s223.72-37.53 264.91-66.48C549.66 369.09 471 448 320 448z"/></svg>