<svg xmlns="http://www.w3.org/2000/svg" viewBox="0 0 640 512"><!-- Font Awesome Pro 5.15.4 by @fontawesome - https://fontawesome.com License - https://fontawesome.com/license (Commercial License) --><path d="M638.22 392.71c-19.22-89.6-78.13-152.45-150.7-165.52l-19.12-110a64 64 0 0 0-63-53.2c-9.36 0 3.23-2.11-204.55 42a64 64 0 0 0-50.35 55.78l-7.19 67.15C75 245.51 20.17 306.91 1.76 392.74c-4.41 20.76-.44 42.45 10.9 59.49C24.44 469.88 42.38 480 61.88 480h516.25c19.47 0 37.41-10.12 49.19-27.75 11.37-17.04 15.34-38.75 10.9-59.54zM182.31 165.17a31.92 31.92 0 0 1 25.17-27.89l191.19-40.55c19.37-4.1 35.36 9.43 38.2 26L465.62 288H316.29l-29.5-25.42c-49-39.23-95.31-38.59-110.83-38.14zM61.88 448c-20.64 0-33.66-25.81-28.88-48.55C51.45 313.65 110.66 256 180.38 256c30.76 0 60.63 10.91 85.52 30.82C445.63 441.68 429.43 431.65 453.76 448zm323.38-100.57L353.43 320h117.75l19.53 112.31c-32.94-15.81-57.71-43.76-105.45-84.88zM578.13 448c-5.41 0-29.46.33-53-4.38l-31.7-182.3c54.43 15.26 98.13 66.69 113.45 138.1 5.69 26.35-11 48.58-28.75 48.58z"/></svg>