<svg xmlns="http://www.w3.org/2000/svg" viewBox="0 0 512 512"><!-- Font Awesome Pro 5.15.4 by @fontawesome - https://fontawesome.com License - https://fontawesome.com/license (Commercial License) --><path d="M192 224c0-17.67-14.33-32-32-32h-32c-35.35 0-64 28.65-64 64v63.64c0 35.35 28.65 64 64 64h32c17.67 0 32-14.33 32-32V224zm-32 127.64h-32c-17.64 0-32-14.36-32-32V256c0-17.64 14.36-32 32-32h32v127.64zm224 32c35.35 0 64-28.65 64-64V256c0-35.35-28.65-64-64-64h-32c-17.67 0-32 14.33-32 32v127.64c0 17.67 14.33 32 32 32h32zM352 224h32c17.64 0 32 14.36 32 32v63.64c0 17.64-14.36 32-32 32h-32V224zM256 0C113.97 0 3.92 117.82.1 256L0 280c0 4.42 3.58 8 8 8h16c4.42 0 8-3.58 8-8l.09-24C35.43 135.19 131.63 32 256 32c123.5 0 224 100.48 224 224v176c0 26.47-21.53 48-48 48h-82.94c1.79-5.03 2.94-10.36 2.94-16 0-26.51-21.49-48-48-48h-64c-26.51 0-48 21.49-48 48s21.49 48 48 48h192c44.12 0 80-35.89 80-80V256C512 114.85 397.16 0 256 0zm48 480h-64c-8.82 0-16-7.18-16-16s7.18-16 16-16h64c8.82 0 16 7.18 16 16s-7.18 16-16 16z"/></svg>