<svg xmlns="http://www.w3.org/2000/svg" viewBox="0 0 640 512"><!-- Font Awesome Pro 5.15.4 by @fontawesome - https://fontawesome.com License - https://fontawesome.com/license (Commercial License) --><path d="M488,360a24,24,0,1,0,24,24A24,24,0,0,0,488,360Zm-10.8-85c-20.93-47.12-48.43-151.73-73.07-186.75A207.9,207.9,0,0,0,234.1,0H196.74C92.49,0,3.67,81.11.11,185.29A191.32,191.32,0,0,0,64,334.81V504a8,8,0,0,0,8,8H88a8,8,0,0,0,8-8V320.55l-5.69-5.11C70.46,297.63,54.08,276,44,251.31-1.34,139.68,88.37,32,200,32H234.1A176.07,176.07,0,0,1,378,106.66c12.52,17.79,29.11,66.75,42.46,106.07,9.72,28.71,18.92,55.83,27.56,75.27H384v48H338c-26.28,0-49.2,20.25-50,46.52A48,48,0,0,0,336,432h48v16a32,32,0,0,1-32,32H296a8,8,0,0,0-8,8v16a8,8,0,0,0,8,8h56a64,64,0,0,0,64-64V416a16,16,0,0,0-16-16H336.85c-8,0-15.35-5.45-16.63-13.32A16,16,0,0,1,336,368h64a16,16,0,0,0,16-16V320H448A32,32,0,0,0,477.2,275ZM320,192a32,32,0,1,0-32,32A32,32,0,0,0,320,192ZM616,304a24,24,0,1,0-24-24A24,24,0,0,0,616,304Zm0,56a24,24,0,1,0,24,24A24,24,0,0,0,616,360Zm0,104a24,24,0,1,0,24,24A24,24,0,0,0,616,464ZM552,320a24,24,0,1,0,24,24A24,24,0,0,0,552,320Zm0,96a24,24,0,1,0,24,24A24,24,0,0,0,552,416Z"/></svg>