<svg xmlns="http://www.w3.org/2000/svg" viewBox="0 0 512 512"><!-- Font Awesome Pro 5.15.4 by @fontawesome - https://fontawesome.com License - https://fontawesome.com/license (Commercial License) --><path d="M509.21 275c-20.94-47.12-48.44-151.73-73.09-186.75A207.88 207.88 0 0 0 266.09 0H200C95.48 0 4.14 80.08.14 184.55A191.34 191.34 0 0 0 64 334.81V504a8 8 0 0 0 8 8h16a8 8 0 0 0 8-8V320.55L85.38 311a159.63 159.63 0 0 1-53.24-125.23C34.65 119.6 81.29 63.56 144 41.92v74.35a112 112 0 1 0 128 0V32.36a175.82 175.82 0 0 1 137.92 74.3c12.53 17.79 29.12 66.75 42.47 106.07 9.72 28.71 18.93 55.83 27.56 75.27H416v96a32 32 0 0 1-32 32h-96v88a8 8 0 0 0 8 8h16a8 8 0 0 0 8-8v-56h64a64 64 0 0 0 64-64v-64h32a32 32 0 0 0 29.21-45zM176 34.29c7.9-1.11 15.8-2.29 24-2.29h40v69.2c-10.2-3.06-20.8-5.2-32-5.2s-21.8 2.14-32 5.2zM288 208a80 80 0 1 1-80-80 80.08 80.08 0 0 1 80 80zm-80-48a48 48 0 1 0 48 48 48.05 48.05 0 0 0-48-48zm0 64a16 16 0 1 1 16-16 16 16 0 0 1-16 16z"/></svg>