<svg xmlns="http://www.w3.org/2000/svg" viewBox="0 0 512 512"><!-- Font Awesome Pro 5.15.4 by @fontawesome - https://fontawesome.com License - https://fontawesome.com/license (Commercial License) --><path d="M336 216v-48a8 8 0 0 0-8-8h-56v-56a8 8 0 0 0-8-8h-48a8 8 0 0 0-8 8v56h-56a8 8 0 0 0-8 8v48a8 8 0 0 0 8 8h56v56a8 8 0 0 0 8 8h48a8 8 0 0 0 8-8v-56h56a8 8 0 0 0 8-8zm173.21 59c-20.94-47.12-48.44-151.73-73.08-186.75A207.94 207.94 0 0 0 266.09 0H200C95.47 0 4.12 80.08.14 184.55A191.3 191.3 0 0 0 64 334.82V504a8 8 0 0 0 8 8h16a8 8 0 0 0 8-8V320.54L85.36 311a159.67 159.67 0 0 1-53.25-125.23C35.35 101 110.66 32 200 32h66.08A176.08 176.08 0 0 1 410 106.66c12.52 17.8 29.11 66.74 42.45 106.07 9.73 28.71 18.93 55.83 27.57 75.27H416v96a32 32 0 0 1-32 32h-96v88a8 8 0 0 0 8 8h16a8 8 0 0 0 8-8v-56h64a64 64 0 0 0 64-64v-64h32a32 32 0 0 0 29.21-45z"/></svg>