<svg xmlns="http://www.w3.org/2000/svg" viewBox="0 0 512 512"><!-- Font Awesome Pro 5.15.4 by @fontawesome - https://fontawesome.com License - https://fontawesome.com/license (Commercial License) --><path d="M512,288a31.66,31.66,0,0,0-2.77-13c-21-47.12-48.5-151.75-73.12-186.75A208.11,208.11,0,0,0,266.11,0H197.68C93.48,0,4,80.61.13,184.74-2.08,244.4,23.08,298.13,64,334.88V504a8,8,0,0,0,8,8H88a8,8,0,0,0,8-8l0-183.4-10.61-9.53a159.87,159.87,0,0,1-52.79-133l.68-.31L224,316.51V504a8,8,0,0,0,8,8H401.88a64,64,0,0,0,60.71-43.76l47.77-143.31A32,32,0,0,0,512,314.81Zm-44.38,64H336a16,16,0,0,0,0,32H456.94l-10.67,32H336a16,16,0,0,0,0,32h99.6l-3.38,10.12A32,32,0,0,1,401.88,480H256V320H478.27Zm12.16-64H239.21L40.69,143.61C62.58,79.4,126.15,32,200,32h66.15a176.21,176.21,0,0,1,143.82,74.66c12.48,17.75,29,66.57,42.35,105.8,9.78,28.83,19,56.06,27.49,75.48ZM320,160a32,32,0,1,0,32,32A32.07,32.07,0,0,0,320,160Z"/></svg>