<svg xmlns="http://www.w3.org/2000/svg" viewBox="0 0 512 512"><!-- Font Awesome Pro 5.15.4 by @fontawesome - https://fontawesome.com License - https://fontawesome.com/license (Commercial License) --><path d="M480 64h-96.49C345.04 23.98 291.6 0 234.09 0h-34.08C127.59 0 61.92 38.7 26.82 97.04 11.71 99.61 0 112.16 0 128v64c0 17.67 14.33 32 32 32h184c.72 0 1.18-.59 1.85-.77 18.99 20.1 46.27 32.77 75.58 32.77H480c17.67 0 32-14.33 32-32V96c0-17.67-14.33-32-32-32zM32 192v-64h165.66c-4.1 11.56-6.21 24.05-5.53 37.16.5 9.5 2.89 18.37 6.1 26.84H32zm184.57-95.76c-.22-.02-.35-.24-.57-.24H67.08c30.83-38.58 79.05-64 132.94-64h34.08c36.29 0 70.79 11.79 99.82 32H288c-28.47 0-53.85 12.56-71.43 32.24zM384 224h-96c-35.29 0-64-28.71-64-64s28.71-64 64-64h96v128zm96 0h-64V96h64v128zM46.19 256H11.26c10.86 30.54 29.07 57.59 52.74 78.82V504c0 4.42 3.58 8 8 8h16c4.42 0 8-3.58 8-8V320.54L85.37 311c-17.27-15.49-30.15-34.41-39.18-55zM384 288v96c0 17.64-14.36 32-32 32h-64v88c0 4.42 3.58 8 8 8h16c4.42 0 8-3.58 8-8v-56h32c35.35 0 64-28.65 64-64v-64h31.96c18.45 0 31.79-15.15 31.8-32H384z"/></svg>