<svg xmlns="http://www.w3.org/2000/svg" viewBox="0 0 512 512"><!-- Font Awesome Pro 5.15.4 by @fontawesome - https://fontawesome.com License - https://fontawesome.com/license (Commercial License) --><path d="M509.21 275c-20.94-47.12-48.44-151.73-73.08-186.75C397.68 33.6 334.56 0 266.09 0h-66.08C95.47 0 4.12 80.08.14 184.55-2.13 244.33 23.1 298.14 64 334.82V504c0 4.42 3.58 8 8 8h16c4.42 0 8-3.58 8-8V320.54L85.36 311c-35.65-31.97-55.06-77.62-53.25-125.23C35.35 100.98 110.66 32 200.01 32h66.08c57.19 0 110.97 27.91 143.86 74.66 12.52 17.8 29.11 66.74 42.45 106.07 9.73 28.71 18.93 55.83 27.57 75.27H416v96c0 17.64-14.36 32-32 32h-96v88c0 4.42 3.58 8 8 8h16c4.42 0 8-3.58 8-8v-56h64c35.35 0 64-28.65 64-64v-64h31.96c23.16 0 38.65-23.84 29.25-45zM352 192c0-17.67-14.33-32-32-32s-32 14.33-32 32 14.33 32 32 32 32-14.33 32-32z"/></svg>