<svg xmlns="http://www.w3.org/2000/svg" viewBox="0 0 640 512"><!-- Font Awesome Pro 5.15.4 by @fontawesome - https://fontawesome.com License - https://fontawesome.com/license (Commercial License) --><path d="M427,320H448a32,32,0,0,0,29.25-45c-20.93-47.12-48.43-151.73-73.07-186.75A207.9,207.9,0,0,0,234.1,0H196.74A198.73,198.73,0,0,0,74.44,42.34L23,1.82A7.87,7.87,0,0,0,11.77,3l-10,12.5A8,8,0,0,0,3,26.73l614,483.5a7.66,7.66,0,0,0,2.84,1l.35-.07c3,.73,6.05.35,8-2.14l10-12.5a7.86,7.86,0,0,0-1.21-11.2ZM301.25,221A31.89,31.89,0,0,0,288,160c-15.63,0-28,11.42-30.83,26.23L101.6,63.73C129.48,44.12,163.34,32,200,32H234.1A176.07,176.07,0,0,1,378,106.66c12.52,17.79,29.11,66.75,42.46,106.07,9.72,28.71,18.92,55.83,27.56,75.27H386.4ZM616,304a24,24,0,1,0-24-24A24,24,0,0,0,616,304Zm-64,64a24,24,0,1,0-24-24A24,24,0,0,0,552,368Zm64-8a24,24,0,1,0,24,24A24,24,0,0,0,616,360ZM44,251.31c-20.94-51.5-12.9-102,12.55-141.63L30.79,89.36A186,186,0,0,0,.11,185.29,191.32,191.32,0,0,0,64,334.81V504a8,8,0,0,0,8,8H88a8,8,0,0,0,8-8V320.55l-5.69-5.11C70.46,297.63,54.08,276,44,251.31ZM400,400H336.85c-8,0-15.35-5.45-16.63-13.32A16,16,0,0,1,336,368h48.64L344,336h-6c-26.28,0-49.2,20.25-50,46.52A48,48,0,0,0,336,432h48v16a32,32,0,0,1-32,32H296a8,8,0,0,0-8,8v16a8,8,0,0,0,8,8h56a64,64,0,0,0,64-64V416A16,16,0,0,0,400,400Z"/></svg>