<svg xmlns="http://www.w3.org/2000/svg" viewBox="0 0 512 512"><!-- Font Awesome Pro 5.15.4 by @fontawesome - https://fontawesome.com License - https://fontawesome.com/license (Commercial License) --><path d="M473.7 73.9c-39.6-41.2-83.8-41.7-95.5-41.7-28.7 0-57.5 9.4-81.3 28.2-5.2 4.1-7 11.4-4.9 17.6l25 75.4-85.8 57.2c-6.2 4.1-8.7 12-6.1 18.9l22.1 58.8-78-78 79.7-53.2c6-4 8.6-11.5 6.3-18.3l-17.4-52.5c-1.7-5-4.6-9.8-8.4-13.4-43.9-41.6-80.9-41.1-95-41.1-12 0-54.1 0-96.1 41.9C-10.4 123.7-12.5 203 31 256l212.1 218.5c3.5 3.6 8.2 5.5 12.8 5.5 4.7 0 9.3-1.8 12.8-5.5L481 256c43.5-53 41.4-132.3-7.3-182.1zM457 234.8l-201 207-201-207C22.3 194 25 133.4 61 96.6 81.1 76.4 103.8 64 134.4 64c27.3 0 51.6 10.3 72.8 32l13.7 41.5-85.8 57.2c-8.4 5.6-9.6 17.5-2.4 24.6l130.9 130.9c15.2 15.2 40.4-1 32.9-21.2l-37-98.8 85.4-57c6-4 8.6-11.5 6.3-18.4L326 79c15.6-9.7 33.6-14.8 52.2-14.8 26.7 0 51.3 9.9 72.6 32.1 36.3 37.1 38.9 97.7 6.2 138.5z"/></svg>