<svg xmlns="http://www.w3.org/2000/svg" viewBox="0 0 512 512"><!-- Font Awesome Pro 5.15.4 by @fontawesome - https://fontawesome.com License - https://fontawesome.com/license (Commercial License) --><path d="M468.7 76.5C423.6 32.2 375 32 362.3 32c-12.7 0-61.5.2-106.3 44.4C211.3 32.3 162.5 32 149.7 32c-12.7 0-61.4.2-106.4 44.5C15.4 104 0 140.7 0 179.9 0 214.1 12.3 246 33.8 272h120.8l29.9-71.8 56.9 126.4c5.5 12.3 22.9 12.7 28.9.6l49.7-99.4 22.1 44.2h136c21.5-26 33.8-57.9 33.8-92.1.1-39.2-15.3-75.9-43.2-103.4zM462.5 240H361.9l-27.6-55.2c-5.9-11.8-22.7-11.8-28.6 0l-48.9 97.9-58.2-129.3c-5.8-12.8-24-12.5-29.4.4L133.3 240H49.5c-9.2-14.6-42.6-82.7 18.3-142.7C90.4 75.1 120 64 149.7 64c33.9 0 54.5 6.3 106.3 57.3C311 67.1 330.5 64 362.3 64c29.7 0 59.3 11.1 81.8 33.3 61 60.1 27.5 128.2 18.4 142.7zM268.7 443.4c-6.2 6.1-16.2 6.1-22.4 0L108.9 304H64l159.9 162.2c18.7 18.5 48.6 18.4 67.3 0L448 304h-44.5L268.7 443.4z"/></svg>