<svg xmlns="http://www.w3.org/2000/svg" viewBox="0 0 448 512"><!-- Font Awesome Pro 5.15.4 by @fontawesome - https://fontawesome.com License - https://fontawesome.com/license (Commercial License) --><path d="M340 145.6c-14.4-12.5-30.6-17.6-46.4-17.6-22.8 0-44.6 10.7-58.6 25.3l-11 11.6-11.1-11.6C199.2 139 177.3 128 154.2 128c-15.7 0-31.8 5.1-46.3 17.6-35.3 30.6-37.2 85.6-5.6 118.7l108.9 114.1c7 7.4 18.4 7.4 25.5 0l108.9-114.1c31.6-33.2 29.8-88.1-5.6-118.7zm-17 96.5l-99 103.8-99-103.8c-16.7-17.5-20.4-51.6 3.4-72.1 8.2-7.1 17.3-9.9 26.3-9.9 13.9 0 27.3 6.9 35.6 15.6L224 211l33.7-35.3c8.2-8.6 21.7-15.5 35.6-15.5 8.9 0 18.1 2.8 26.2 9.9 23.9 20.4 20.2 54.4 3.5 72zM400 32H48C21.5 32 0 53.5 0 80v352c0 26.5 21.5 48 48 48h352c26.5 0 48-21.5 48-48V80c0-26.5-21.5-48-48-48zm16 400c0 8.8-7.2 16-16 16H48c-8.8 0-16-7.2-16-16V80c0-8.8 7.2-16 16-16h352c8.8 0 16 7.2 16 16v352z"/></svg>