<svg xmlns="http://www.w3.org/2000/svg" viewBox="0 0 448 512"><!-- Font Awesome Pro 5.15.4 by @fontawesome - https://fontawesome.com License - https://fontawesome.com/license (Commercial License) --><path d="M192,153.59V48a16,16,0,0,0-32,0V152.25A202.63,202.63,0,0,0,210.26,286C238.49,318.19,256,358.38,256,401.23V464a16,16,0,0,0,32,0V402.41a202.44,202.44,0,0,0-50.27-133.7C209.51,236.53,192,196.39,192,153.59ZM64,132.4V112a16,16,0,0,0-32,0v16A257.68,257.68,0,0,0,82.29,280.39C110.65,318.68,128,364,128,411.6V464a16,16,0,0,0,32,0V416a257.68,257.68,0,0,0-50.29-152.39C81.35,225.32,64,180,64,132.4ZM365.71,263.61C337.35,225.32,320,180,320,132.4V112a16,16,0,0,0-32,0v16a257.68,257.68,0,0,0,50.29,152.39C366.65,318.68,384,364,384,411.6V464a16,16,0,0,0,32,0V416A257.68,257.68,0,0,0,365.71,263.61Z"/></svg>