<svg xmlns="http://www.w3.org/2000/svg" viewBox="0 0 384 512"><!-- Font Awesome Pro 5.15.4 by @fontawesome - https://fontawesome.com License - https://fontawesome.com/license (Commercial License) --><path d="M376 160h-16c-4.42 0-8 3.58-8 8v26.95c-5.03-1.79-10.36-2.95-16-2.95h-30.16l-43.08-55.18-1.22-1.56-1.4-1.4c5.11-3.04 10-6.52 14.39-10.9C288.3 109.2 295.57 91.57 295.57 72s-7.28-37.2-21.04-50.96C260.77 7.28 243.15 0 223.58 0c-19.58 0-37.2 7.28-50.96 21.04S151.58 52.42 151.58 72c0 18.07 6.46 34.33 18.24 47.57l-45.84-13.16c-44.78-10.62-90.62 15.75-102 59.09L.92 247.08c-1.94 7.5-.78 15.28 3.22 21.94 4.09 6.83 10.66 11.61 17.81 13.31l80.26 22.95-36.78 147.08c-6.38 25.73 9.31 51.81 34.97 58.2 3.8.95 7.71 1.43 11.61 1.43 22.09 0 41.25-14.97 46.58-36.4l27.13-108.52 38.28 25.9V464c0 26.47 21.53 48 48 48s48-21.53 48-48v-79.53c0-25.75-12.51-50.08-33.47-65.08L238 287.59l5.02-20.06 1.52 1.95c9.17 11.77 22.97 18.52 37.88 18.52H336c5.64 0 10.97-1.15 16-2.95V504c0 4.42 3.58 8 8 8h16c4.42 0 8-3.58 8-8V168c0-4.42-3.58-8-8-8zM195.24 43.67C203.02 35.89 212.47 32 223.58 32s20.56 3.89 28.33 11.67c7.77 7.77 11.67 17.23 11.67 28.33s-3.89 20.56-11.67 28.33c-7.77 7.77-17.23 11.67-28.33 11.67-11.11 0-20.56-3.89-28.33-11.67-7.77-7.77-11.67-17.23-11.67-28.33s3.89-20.56 11.66-28.33zM31.92 255.09l.12-.45.22.53-.34-.08zm.75-2.98l20.28-78.56c6.94-26.61 35.44-42.78 62.9-36.2l28.98 8.32a74.842 74.842 0 0 0-10.06 23.01l-26.28 105.1-75.82-21.67zm94.87 215.77c-1.81 7.28-8.34 12.12-15.53 12.12-1.28 0-2.56-.16-3.87-.48-8.59-2.14-13.78-10.83-11.66-19.39l32.8-131.2 28.23 19.08-29.97 119.87zM336 256h-53.59c-4.94 0-9.59-2.28-12.62-6.17l-41.88-53.81-25.96 103.86c-.17.68-.83 1.01-1.08 1.65l67.04 43.88c12.59 9.02 20.09 23.61 20.09 39.06V464c0 8.84-7.16 16-16 16s-16-7.16-16-16v-79.53c0-5.16-2.5-10.03-6.72-13.03L145.1 301.02a16.002 16.002 0 0 1-6.22-16.89l26.94-107.72a42.682 42.682 0 0 1 41.5-32.41c11.41 0 22.12 4.44 30.22 12.52L290.23 224H336c8.84 0 16 7.16 16 16s-7.16 16-16 16z"/></svg>