<svg xmlns="http://www.w3.org/2000/svg" viewBox="0 0 640 512"><!-- Font Awesome Pro 5.15.4 by @fontawesome - https://fontawesome.com License - https://fontawesome.com/license (Commercial License) --><path d="M584.11 96.29c-28.85-1.51-54.65 17.18-79.6 26.54C489.98 88.27 455.83 64 416 64c0-17.67-14.33-32-32-32h-32c-17.67 0-32 14.33-32 32v40.98C286.01 79.58 241.24 64 192 64 85.96 64 0 135.63 0 224v224c0 17.67 14.33 32 32 32h64c17.67 0 32-14.33 32-32v-59.42c24.66 7.19 51.56 11.42 80 11.42s55.34-4.24 80-11.42V448c0 17.67 14.33 32 32 32h64c17.67 0 32-14.33 32-32V288h96v48c0 8.84 7.16 16 16 16h64c8.84 0 16-7.16 16-16v-48c17.67 0 32-14.33 32-32v-96.42c0-32.17-23.76-61.6-55.89-63.29zM384 448h-64V345.92c-120.03 34.98-142.84 23.65-224 0V448H32V224c0-70.58 71.78-128 160-128 40.32 0 78.98 12.29 108.84 34.62L320 144.93V208c0 38.63 27.52 70.95 64 78.38V448zm192-128h-32v-32h32v32zm32-64H400c-26.47 0-48-21.53-48-48V64h32v32h32c25.83 0 49 15.4 59.02 39.23l11.93 28.36c72.91-27.35 75.75-35.88 95.48-35.35 13.86.73 25.57 15.08 25.57 31.34V256zm-176.19-96c-8.84 0-16 7.16-16 16s7.16 16 16 16 16-7.16 16-16-7.16-16-16-16z"/></svg>