<svg xmlns="http://www.w3.org/2000/svg" viewBox="0 0 640 512"><!-- Font Awesome Pro 5.15.4 by @fontawesome - https://fontawesome.com License - https://fontawesome.com/license (Commercial License) --><path d="M624 352H410.6c-3 0-5.8-1.7-7.2-4.4L373.6 288l118-236.2c3.9-7.9.7-17.5-7.2-21.5L427.3 1.7c-7.9-4-17.5-.8-21.5 7.2L320 180.6 234.2 8.8c-3.9-7.9-13.6-11.1-21.5-7.2l-57.3 28.6c-7.9 4-11.1 13.6-7.2 21.5l118 236.2-29.8 59.6c-1.4 2.7-4.1 4.4-7.2 4.4H16c-8.8 0-16 7.2-16 16v128c0 8.8 7.2 16 16 16h186.3c36.4 0 69.6-20.6 85.9-53.1l31.8-63.6 31.8 63.6c16.3 32.5 49.5 53.1 85.9 53.1H624c8.8 0 16-7.2 16-16V368c0-8.8-7.2-16-16-16zM184.1 51.8l28.6-14.3 89.4 178.9-17.9 35.8L184.1 51.8zM32 480v-96h32v96H32zm227.6-35.4c-10.9 21.8-32.8 35.4-57.2 35.4H96v-96h133.4c15.3 0 29-8.5 35.8-22.1L427.3 37.5l28.6 14.3-196.3 392.8zM437.7 480c-24.4 0-46.3-13.6-57.2-35.4L338 359.5l17.9-35.8 19.1 38.1c6.8 13.6 20.5 22.1 35.8 22.1H544v96H437.7zm170.3 0h-32v-96h32v96z"/></svg>