<svg xmlns="http://www.w3.org/2000/svg" viewBox="0 0 448 512"><!-- Font Awesome Pro 5.15.4 by @fontawesome - https://fontawesome.com License - https://fontawesome.com/license (Commercial License) --><path d="M443.9 343.6c-5-8.7-13.8-14.4-23.7-15.4-14.3-1.5-29-4.5-43.8-8.9-7.4-2.2-11.8-9.8-10-17.4 3.6-15.1 8.4-29.4 14.3-42.6 4.1-9.1 3.5-19.7-1.6-28.3-5-8.6-13.8-14.2-23.5-15.1-14.6-1.4-29.2-4.6-43.7-8.8 19.1-11 32.1-31.5 32.1-55.1 0-34.3-27-62-60.8-63.7 3.1-7.5 4.8-15.7 4.8-24.3 0-35.3-28.7-64-64-64s-64 28.6-64 64c0 8.6 1.8 16.8 4.8 24.3C131 90 104 117.7 104 152c0 23.7 13 44.1 32.1 55.2-14.5 4.2-29.1 7.4-43.7 8.8-9.7.9-18.6 6.6-23.5 15.1-5.1 8.7-5.6 19.2-1.6 28.3 5.9 13.2 10.7 27.5 14.3 42.6 1.8 7.5-2.6 15.2-10 17.4-14.8 4.4-29.6 7.4-43.8 8.9-9.8 1-18.7 6.8-23.7 15.4-4.9 8.6-5.5 19.1-1.4 28 14.5 31.7 22.2 68.1 22.4 105.2.1 12.8 6.6 24.2 17.5 30.4C48.1 510.4 54 512 60 512c6 0 12.1-1.6 17.7-4.8 32.2-18.4 67.4-29.9 101.9-33.1 9.7-.9 18.5-6.6 23.5-15.2 5-8.7 5.6-19.2 1.5-28.3-5.9-13.2-10.7-27.5-14.2-42.6-1.8-7.5 2.6-15.2 10-17.4 7.9-2.4 15.8-4.3 23.6-5.8 7.8 1.5 15.7 3.4 23.6 5.8 7.4 2.2 11.7 9.8 10 17.4-3.6 15.1-8.4 29.4-14.2 42.6-4.1 9.1-3.5 19.6 1.5 28.3 5 8.6 13.8 14.2 23.6 15.2 34.5 3.2 69.8 14.7 101.9 33.1 5.5 3.2 11.6 4.8 17.6 4.8 6 0 12-1.6 17.4-4.7 10.9-6.3 17.4-17.7 17.5-30.4.2-37.1 7.9-73.5 22.4-105.2 4.1-9 3.5-19.5-1.4-28.1zM280 120c17.6 0 32 14.4 32 32s-14.4 32-32 32-32-14.4-32-32 14.4-32 32-32zm-144 32c0-17.6 14.4-32 32-32s32 14.4 32 32-14.4 32-32 32-32-14.4-32-32zm55.2 188.1c-23.6 7.1-37.6 31.4-31.9 55.4 4 17 9.5 33.3 17.3 46.8-39.6 3.7-78.3 16.3-118 37.4-1-.6-1.5-1.5-1.5-2.9C57 434.5 48.5 394.7 31 360c16.3-1.7 33-5.1 49.8-10.1 23.6-7.1 37.6-31.4 31.9-55.4-4-17-9.5-33.3-17.3-46.8 40.6-3.8 81.8-17.5 119.5-39.3-.5 42.9 8 85 24.6 121.8-15.9 1.7-32.1 5-48.3 9.9zM224 96c-17.6 0-32-14.4-32-32s14.4-32 32-32 32 14.4 32 32-14.4 32-32 32zm166.9 380.7c0 1.3-.5 2.3-4.6 2.8-36.6-21-75.3-33.5-113.8-35.8 6.7-15 12.2-31.2 16.2-48.3 4.7-19.8-4.1-39.6-20.5-50 4.5-8.4 5-18.5 1.1-27.1-14.2-31.1-21.6-66.6-22.1-103.2 33.6 17.7 69.6 29 104.4 31.1-6.7 15-12.2 31.2-16.2 48.3-5.7 24 8.3 48.3 31.9 55.4 16.8 5 33.5 8.4 48.9 8.4-16.7 36.4-25.2 76.2-25.3 118.4z"/></svg>