<svg xmlns="http://www.w3.org/2000/svg" viewBox="0 0 576 512"><!-- Font Awesome Pro 5.15.4 by @fontawesome - https://fontawesome.com License - https://fontawesome.com/license (Commercial License) --><path d="M569.65 460.85C511.98 383.87 511.98 320 511.98 320v-64c0-84.03-46.36-123.05-101.17-182.7l39.75-39.75C462.94 21.17 454.17 0 436.66 0H287.57C191.98 0 64.02 109.45 64.02 256v64s0 63.87-57.67 140.85C-9.42 481.9 6.02 512 32.32 512h511.35c26.31 0 41.75-30.1 25.98-51.15zM191.98 480V320c0-52.94 43.06-96 95.99-96s95.99 43.06 95.99 96v160H191.98zm223.98.01V320c0-70.69-57.3-128-127.99-128s-127.99 57.31-127.99 128v160.02l-128.02.01C95.29 395.5 96.02 323.04 96.02 320v-64c0-129.94 114.42-224 191.55-224h119.28L366.5 72.36s32.84 35.6 38.68 41.82c45.05 47.98 74.81 79.68 74.81 141.81v64c0 3.04.73 75.5 63.69 160l-127.72.02z"/></svg>