<svg xmlns="http://www.w3.org/2000/svg" viewBox="0 0 512 512"><!-- Font Awesome Pro 5.15.4 by @fontawesome - https://fontawesome.com License - https://fontawesome.com/license (Commercial License) --><path d="M296 176c-13.3 0-24 10.7-24 24s10.7 24 24 24 24-10.7 24-24-10.7-24-24-24zm211.9 123.2C435 142 432.3 124.5 390.4 97.8c10.2-19.9 12.5-43.4 6.1-68.1C391.8 12.2 375.9 0 357.6 0c-13 0-11.9 2.1-81.2 32.3C118.8 101.2 0 139.1 0 380.9V464c0 26.5 21.5 48 48 48h224c30.5 0 54.3-28.6 46.6-59.6l-18.3-73.3c6.5-2.4 12.6-5.4 18.5-8.8l14.7 20.6c11.4 15.8 29.6 25.2 48.9 25.2h30.1c15.6 0 30.3-5.9 41.6-16.7l40.5-35.7c16.7-17 22-42.2 13.3-64.5zM471.8 341l-39.6 34.8c-5.2 5.2-12.4 8.2-19.8 8.2h-30.1c-9 0-17.5-4.3-22.7-11.6L323.7 327c-17.3 17.1-40.6 28.2-66.9 28.2-39.2 0-72.6-23.7-87.4-57.4-2.2-5.1-8.9-6.3-12.9-2.4l-12.1 12.1c-2.4 2.4-3.1 6.2-1.6 9.3 21.1 41.6 64.2 70.3 114 70.3 4.2 0 8.1-.8 12.2-1.2l18.5 74.1c2.6 10.4-5.4 19.9-15.5 19.9H48c-8.8 0-16-7.2-16-16v-83.1c0-249.6 119.5-255.3 323-348.5 17.5-6.3 25.2 51.3-19.4 77.4 37.3 7.2 68.3 33.2 81.3 69.3l61.2 131.8c4 10.5 1.6 22.3-6.3 30.2z"/></svg>