<svg xmlns="http://www.w3.org/2000/svg" viewBox="0 0 576 512"><!-- Font Awesome Pro 5.15.4 by @fontawesome - https://fontawesome.com License - https://fontawesome.com/license (Commercial License) --><path d="M575.94 86.27c0-9.61-3.66-15.93-9.13-22.57a63.91 63.91 0 0 0 8.38-31.7 32 32 0 0 0-32-32H432a128.14 128.14 0 0 0-128 128H163.37c-36 0-67.28 19.42-84.71 48.12A80 80 0 0 0 0 256v56a8 8 0 0 0 8 8h16a8 8 0 0 0 8-8v-56a47.82 47.82 0 0 1 33.72-45.59 97.81 97.81 0 0 0-1.72 17 99.36 99.36 0 0 0 24.53 65.23l-22 74.28a64 64 0 0 0-.81 32.73l21.12 87.86A32 32 0 0 0 118 512h57.53a32 32 0 0 0 31-39.86l-21.69-85.58 19.29-53.72L288 351.47V480a32 32 0 0 0 32 32h64a32 32 0 0 0 32-32V323.81a115 115 0 0 0 32-79.61v-50.51l14.56 21.83c19.1 28.67 50 20.67 55.44 18.79l25.53-8.72A47.91 47.91 0 0 0 576 180.16zM224 304.47l-40.44-9L151.44 385l24.09 95H118l-21.13-87.86a33 33 0 0 1 .38-16.14l27.62-93.4A67 67 0 0 1 144 163.17V176a95.83 95.83 0 0 0 80 94.39zM176 176v-16h128v16a64 64 0 0 1-128 0zm368 4.17c0 6.31-4.84 13.1-10.84 15.14l-25.5 8.69c-9.35 3.18-16.16-2.75-18.5-6.27L464 160l-48-16v100.2c0 26.68-12.63 50.18-32 65.61V480h-64V325.8l-64-14.22v-41.19A95.83 95.83 0 0 0 336 176v-48a96 96 0 0 1 96-96h111.19a32 32 0 0 1-19.63 29.5l20.38 24.78.06 93.88zM480 80a16 16 0 1 0 16 16 16 16 0 0 0-16-16z"/></svg>