<svg xmlns="http://www.w3.org/2000/svg" viewBox="0 0 576 512"><!-- Font Awesome Pro 5.15.4 by @fontawesome - https://fontawesome.com License - https://fontawesome.com/license (Commercial License) --><path d="M468 384h-40c-6.6 0-12 5.4-12 12v40c0 6.6 5.4 12 12 12h40c6.6 0 12-5.4 12-12v-40c0-6.6-5.4-12-12-12zm0-128h-40c-6.6 0-12 5.4-12 12v40c0 6.6 5.4 12 12 12h40c6.6 0 12-5.4 12-12v-40c0-6.6-5.4-12-12-12zM308 384h-40c-6.6 0-12 5.4-12 12v40c0 6.6 5.4 12 12 12h40c6.6 0 12-5.4 12-12v-40c0-6.6-5.4-12-12-12zm0-128h-40c-6.6 0-12 5.4-12 12v40c0 6.6 5.4 12 12 12h40c6.6 0 12-5.4 12-12v-40c0-6.6-5.4-12-12-12zM148 384h-40c-6.6 0-12 5.4-12 12v40c0 6.6 5.4 12 12 12h40c6.6 0 12-5.4 12-12v-40c0-6.6-5.4-12-12-12zm0-128h-40c-6.6 0-12 5.4-12 12v40c0 6.6 5.4 12 12 12h40c6.6 0 12-5.4 12-12v-40c0-6.6-5.4-12-12-12zm182-144h-26V86c0-3.3-2.7-6-6-6h-20c-3.3 0-6 2.7-6 6v26h-26c-3.3 0-6 2.7-6 6v20c0 3.3 2.7 6 6 6h26v26c0 3.3 2.7 6 6 6h20c3.3 0 6-2.7 6-6v-26h26c3.3 0 6-2.7 6-6v-20c0-3.3-2.7-6-6-6zm198 16H416V48c0-26.5-21.5-48-48-48H208c-26.5 0-48 21.5-48 48v80H48c-26.5 0-48 21.5-48 48v328c0 4.4 3.6 8 8 8h16c4.4 0 8-3.6 8-8V176c0-8.8 7.2-16 16-16h144V48c0-8.8 7.2-16 16-16h160c8.8 0 16 7.2 16 16v112h144c8.8 0 16 7.2 16 16v328c0 4.4 3.6 8 8 8h16c4.4 0 8-3.6 8-8V176c0-26.5-21.5-48-48-48z"/></svg>