<svg xmlns="http://www.w3.org/2000/svg" viewBox="0 0 512 512"><!-- Font Awesome Pro 5.15.4 by @fontawesome - https://fontawesome.com License - https://fontawesome.com/license (Commercial License) --><path d="M344 144h-16c-4.4 0-8 3.6-8 8v88H192v-88c0-4.4-3.6-8-8-8h-16c-4.4 0-8 3.6-8 8v208c0 4.4 3.6 8 8 8h16c4.4 0 8-3.6 8-8v-88h128v88c0 4.4 3.6 8 8 8h16c4.4 0 8-3.6 8-8V152c0-4.4-3.6-8-8-8zM256 0C114.6 0 0 114.6 0 256s114.6 256 256 256 256-114.6 256-256S397.4 0 256 0zm0 480C132.5 480 32 379.5 32 256S132.5 32 256 32s224 100.5 224 224-100.5 224-224 224z"/></svg>