<svg xmlns="http://www.w3.org/2000/svg" viewBox="0 0 384 512"><!-- Font Awesome Pro 5.15.4 by @fontawesome - https://fontawesome.com License - https://fontawesome.com/license (Commercial License) --><path d="M368 32h4c6.627 0 12-5.373 12-12v-8c0-6.627-5.373-12-12-12H12C5.373 0 0 5.373 0 12v8c0 6.627 5.373 12 12 12h4c0 91.821 44.108 193.657 129.646 224C59.832 286.441 16 388.477 16 480h-4c-6.627 0-12 5.373-12 12v8c0 6.627 5.373 12 12 12h360c6.627 0 12-5.373 12-12v-8c0-6.627-5.373-12-12-12h-4c0-91.821-44.108-193.657-129.646-224C324.168 225.559 368 123.523 368 32zM48 32h288c0 110.457-64.471 200-144 200S48 142.457 48 32zm288 448H48c0-110.457 64.471-200 144-200s144 89.543 144 200zM98.379 416h187.243a12.01 12.01 0 0 1 11.602 8.903 199.464 199.464 0 0 1 2.059 8.43c1.664 7.522-4 14.667-11.704 14.667H96.422c-7.704 0-13.368-7.145-11.704-14.667.62-2.804 1.307-5.616 2.059-8.43A12.01 12.01 0 0 1 98.379 416zm15.962-50.912a141.625 141.625 0 0 1 6.774-8.739c2.301-2.738 5.671-4.348 9.248-4.348h123.276c3.576 0 6.947 1.61 9.248 4.348a142.319 142.319 0 0 1 6.774 8.739c5.657 7.91-.088 18.912-9.813 18.912H124.153c-9.724 0-15.469-11.003-9.812-18.912z"/></svg>