<svg xmlns="http://www.w3.org/2000/svg" viewBox="0 0 576 512"><!-- Font Awesome Pro 5.15.4 by @fontawesome - https://fontawesome.com License - https://fontawesome.com/license (Commercial License) --><path d="M570.53,242,512,190.75V48a16,16,0,0,0-16-16H400a16,16,0,0,0-16,16V78.75L298.53,4a16,16,0,0,0-21.06,0L5.47,242a16,16,0,0,0,21.07,24.09L64,233.27V464a48.05,48.05,0,0,0,48,48H464a48.05,48.05,0,0,0,48-48V233.27l37.46,32.79A16,16,0,0,0,570.53,242ZM480,464a16,16,0,0,1-16,16H112a16,16,0,0,1-16-16V205.27l192-168,192,168Zm0-301.25-64-56V64h64ZM208,218.67V325.34A26.75,26.75,0,0,0,234.66,352H341.3A26.76,26.76,0,0,0,368,325.34V218.67A26.75,26.75,0,0,0,341.3,192H234.66A26.74,26.74,0,0,0,208,218.67ZM240,224h96v96H240Z"/></svg>