<svg xmlns="http://www.w3.org/2000/svg" viewBox="0 0 640 512"><!-- Font Awesome Pro 5.15.4 by @fontawesome - https://fontawesome.com License - https://fontawesome.com/license (Commercial License) --><path d="M112,384a16,16,0,0,1-16-16V168a15.35,15.35,0,0,0-.81-4L240,37.27l108.4,94.85a135.51,135.51,0,0,1,27-18.88L250.53,4a16,16,0,0,0-21.06,0L5.47,200a16,16,0,0,0,21.07,24.1L64,191.28V368a48.05,48.05,0,0,0,48,48H299.31a82.32,82.32,0,0,1,10.91-15.37l15-16.63Zm69.33-224A21.39,21.39,0,0,0,160,181.34v85.33A21.39,21.39,0,0,0,181.33,288h85.3A21.39,21.39,0,0,0,288,266.67V181.34A21.39,21.39,0,0,0,266.63,160ZM256,256H192V192h64Zm369.54-8.7-19.6-21.09-8.71-28.5c-7.88-26.11-23.28-47.8-43.19-62.8A74,74,0,1,0,451.32,116.3c-14.72,3.8-28.4,9.8-45.31,17.41l-8.59,3.8c-24,10.5-43.4,30.09-54.9,55.2l-11.81,28c-7.28,17.2-5.69,35.7,4.22,50.7A52.78,52.78,0,0,0,378.42,295a48.24,48.24,0,0,0,32.91-12.9c.18,1.4.37,2.7.59,4.11L397.7,325.1l-16.28,44.61L334,422.1c-18.69,20.4-18.69,52.4,0,72.9a50,50,0,0,0,74.4,0l46.68-51.2a111.23,111.23,0,0,0,22-36.5l8.72-23.89,10.59,10.69a4,4,0,0,1,.91,1.9l15.59,74.2C518,494.5,539,512,562.82,512a50.1,50.1,0,0,0,12.09-1.5c27.4-6.91,44-34.59,38-62.91L597.31,373.5a114.57,114.57,0,0,0-14.72-36.7,49.59,49.59,0,0,0,5.5.3c20.31,0,38.91-12.6,47.41-32.19S640.18,263.3,625.5,247.3ZM512,32a42,42,0,1,1-42,42A42,42,0,0,1,512,32ZM447,396.3a78,78,0,0,1-15.59,25.9L384.7,473.41a18.19,18.19,0,0,1-13.59,6.18,18.54,18.54,0,0,1-13.59-6.18,22.43,22.43,0,0,1,0-29.71l46.68-51.2a35.57,35.57,0,0,0,7.13-11.79l16.28-44.61.09.11,1,1.2,29,29.3Zm141.08-91.09c-4.4,0-9-1.8-13-6.21L551.6,273.71a50.14,50.14,0,0,1-11-19.41c-11.41-37.5-11.5-39.89-17.5-48.5l-20.91,91.7,43,43.41A78.39,78.39,0,0,1,566,380.21l15.59,74.09c2.41,11.29-4,22.61-14.4,25.2a16.49,16.49,0,0,1-4.37.5c-9.41,0-16.72-7.59-18.63-16.3L528.6,389.5a34.7,34.7,0,0,0-9.5-17.79L456,307.8c-11.59-13.8-15.69-31.2-11.91-47.7l15.82-69.3c-9,3.2-18.1,7.3-35.41,15a36.13,36.13,0,0,0-18.31,18.41L395,250.8c-3.69,8.7-10.1,12.3-16.6,12.3-12.5,0-25.21-13.39-18.21-29.89L371.7,206c8.32-18.2,21.91-31.9,38.63-39.2C444.51,151.71,459,144,486.91,144c36.28,0,68.28,25.29,79.78,63L577,240.91a6.9,6.9,0,0,0,1.59,2.8L602,269C616.09,284.3,602.91,305.21,588.09,305.21Z"/></svg>