<svg xmlns="http://www.w3.org/2000/svg" viewBox="0 0 640 512"><!-- Font Awesome Pro 5.15.4 by @fontawesome - https://fontawesome.com License - https://fontawesome.com/license (Commercial License) --><path d="M96,368V168a15.35,15.35,0,0,0-.81-4L240,37.27,357.21,139.84c1.34-1.8,2.3-3.87,3.72-5.6a105.83,105.83,0,0,1-18-49.42L250.53,4a16,16,0,0,0-21.06,0L5.47,200a16,16,0,0,0,21.07,24.1L64,191.28V368a48.05,48.05,0,0,0,48,48H321.14l6.74-32H112A16,16,0,0,1,96,368Zm85.33-208A21.39,21.39,0,0,0,160,181.34v85.33A21.39,21.39,0,0,0,181.33,288h85.3A21.39,21.39,0,0,0,288,266.67V181.34A21.39,21.39,0,0,0,266.63,160ZM256,256H192V192h64ZM626,422.1l-47.4-52.39L562.3,325.1l-14.21-38.89c.21-1.41.4-2.71.59-4.11a48.21,48.21,0,0,0,32.9,12.9,52.8,52.8,0,0,0,43.5-23.59c9.9-15,11.5-33.5,4.22-50.7l-11.81-28c-11.5-25.11-30.91-44.7-54.91-55.2l-8.59-3.8c-16.9-7.61-30.59-13.61-45.31-17.41A74,74,0,1,0,406,134.91c-19.9,15-35.31,36.69-43.18,62.8l-8.72,28.5L334.51,247.3c-14.69,16-18.6,38.11-10,57.61s27.09,32.19,47.4,32.19a49.33,49.33,0,0,0,5.5-.3,114.57,114.57,0,0,0-14.72,36.7L347.1,447.59c-6,28.32,10.59,56,38,62.91a50,50,0,0,0,12.09,1.5c23.81,0,44.81-17.5,49.9-41.8L462.68,396a4,4,0,0,1,.91-1.9l10.59-10.69,8.72,23.89a111.4,111.4,0,0,0,22,36.5L551.59,495A50,50,0,0,0,626,495C644.67,474.5,644.67,442.5,626,422.1ZM448,32a42,42,0,1,1-42,42A42,42,0,0,1,448,32Zm-7.1,339.7a34.61,34.61,0,0,0-9.49,17.79l-15.6,74.2c-1.9,8.71-9.22,16.3-18.62,16.3a16.44,16.44,0,0,1-4.37-.5c-10.41-2.59-16.82-13.91-14.41-25.2L394,380.21a78.55,78.55,0,0,1,20.81-39.3l43-43.41-20.9-91.7c-6,8.61-6.1,11-17.5,48.5a50.14,50.14,0,0,1-11,19.41L384.91,299c-4,4.41-8.59,6.21-13,6.21-14.81,0-28-20.91-13.9-36.21l23.4-25.29a6.9,6.9,0,0,0,1.59-2.8L393.32,207c11.49-37.7,43.49-63,79.77-63,27.9,0,42.4,7.7,76.59,22.79,16.72,7.3,30.31,21,38.62,39.2l11.5,27.21c7,16.5-5.72,29.89-18.22,29.89-6.5,0-12.9-3.6-16.59-12.3L553.8,224.21a36.13,36.13,0,0,0-18.31-18.41c-17.31-7.7-26.4-11.8-35.4-15l15.81,69.3c3.78,16.5-.31,33.9-11.91,47.7Zm161.59,101.7a18.58,18.58,0,0,1-13.59,6.18,18.23,18.23,0,0,1-13.6-6.18L528.59,422.2A78,78,0,0,1,513,396.3l-10.68-29.59,29-29.3,1-1.2.1-.11,16.28,44.61a35.55,35.55,0,0,0,7.12,11.79l46.69,51.2A22.43,22.43,0,0,1,602.49,473.41Z"/></svg>