<svg xmlns="http://www.w3.org/2000/svg" viewBox="0 0 640 512"><!-- Font Awesome Pro 5.15.4 by @fontawesome - https://fontawesome.com License - https://fontawesome.com/license (Commercial License) --><path d="M120,176a56,56,0,1,0,56-56A56.09,56.09,0,0,0,120,176Zm80,0a24,24,0,1,1-24-24A24,24,0,0,1,200,176ZM634.53,296,576,244.75V144a16,16,0,0,0-32,0v72.75L410.53,100a16,16,0,0,0-21.06,0l-224,196a16,16,0,0,0,21.06,24.09L224,287.28V464a48.05,48.05,0,0,0,48,48H528a48.06,48.06,0,0,0,48-48V287.28l37.46,32.78A16,16,0,0,0,634.53,296ZM544,464a16,16,0,0,1-16,16H272a16,16,0,0,1-16-16V264a15.43,15.43,0,0,0-.81-4L400,133.27l144,126ZM78.72,272.19l22-66.16L38.41,174.89l62.34-31.22-22-66.08,66.15,22L176,37.3l31.22,62.42,66.06-22.06-22,66.09,25,12.51,26.06-22.75-12-6,16.57-49.61a26.74,26.74,0,0,0-6.6-27.54A26.4,26.4,0,0,0,273,44L223.4,60.56,200,13.73c-9.19-18.31-38.81-18.31-48,0L128.62,60.52,79,44A26.82,26.82,0,0,0,45.06,77.89l16.56,49.59L14.84,150.89a26.83,26.83,0,0,0,0,48l46.78,23.36L45.06,271.92a26.67,26.67,0,0,0,6.6,27.53A26.31,26.31,0,0,0,79,305.81l41.94-14,31.11-27.15-7.27-14.56ZM336,277.33v85.34A21.39,21.39,0,0,0,357.37,384h85.3A21.39,21.39,0,0,0,464,362.67V277.33A21.39,21.39,0,0,0,442.67,256h-85.3A21.39,21.39,0,0,0,336,277.33ZM368,288H432v64H368Z"/></svg>