<svg xmlns="http://www.w3.org/2000/svg" viewBox="0 0 384 512"><!-- Font Awesome Pro 5.15.4 by @fontawesome - https://fontawesome.com License - https://fontawesome.com/license (Commercial License) --><path d="M176 96l24.5-74.8C204 10.6 195.9 0 185.1 0c-.7 0-1.3 0-2 .1C80 12.4 0 101.6 0 208c0 114.9 93.1 208 208 208l-24.5 74.8c-3.5 10.6 4.6 21.2 15.4 21.2.7 0 1.3 0 2-.1C304 499.6 384 410.4 384 304c0-114.9-93.1-208-208-208zm46.3 379.2l16.1-49.3 13.7-42H208c-97 0-176-79-176-176 0-81.1 54.2-150.7 129.7-171.2L145.6 86l-13.7 42H176c97 0 176 79 176 176 0 81.1-54.2 150.7-129.7 171.2zM192 184c-39.8 0-72 32.2-72 72s32.2 72 72 72 72-32.2 72-72-32.2-72-72-72zm0 112c-22.1 0-40-17.9-40-40s17.9-40 40-40 40 17.9 40 40-17.9 40-40 40z"/></svg>