<svg xmlns="http://www.w3.org/2000/svg" viewBox="0 0 576 512"><!-- Font Awesome Pro 5.15.4 by @fontawesome - https://fontawesome.com License - https://fontawesome.com/license (Commercial License) --><path d="M568 416h-16c-4.4 0-8 3.6-8 8v8c0 26.5-21.5 48-48 48h-80v-64h32c35.3 0 64-28.7 64-64v-37c0-44.1-30-82.5-72.7-93.1L320 192V8c0-4.4-3.6-8-8-8h-16c-4.4 0-8 3.6-8 8v24h-83.7c-8.1 0-16.2 1.6-23.8 4.6L52.1 88C40 92.8 32 104.6 32 117.7V352c0 35.3 28.7 64 64 64v64H8c-4.4 0-8 3.6-8 8v16c0 4.4 3.6 8 8 8h488c44.2 0 80-35.8 80-80v-8c0-4.4-3.6-8-8-8zM64 352V117.7l128.4-51.4c3.8-1.5 7.8-2.3 11.9-2.3H288v64h-56c-4.4 0-8 3.6-8 8v16c0 4.4 3.6 8 8 8h56v32h-56c-4.4 0-8 3.6-8 8v16c0 4.4 3.6 8 8 8h84.1l115.5 28.9C460.1 260 480 285.5 480 315v37c0 17.6-14.4 32-32 32H96c-17.6 0-32-14.4-32-32zm320 128H128v-64h256v64z"/></svg>