<svg xmlns="http://www.w3.org/2000/svg" viewBox="0 0 512 512"><!-- Font Awesome Pro 5.15.4 by @fontawesome - https://fontawesome.com License - https://fontawesome.com/license (Commercial License) --><path d="M466 0H46C16.3 0-7.3 28.5 2.1 59.8l88.7 249.4c2.3 6.7 7.9 11.3 15.7 10.8 7-.2 13.1-5.1 14.9-11.9l23.5-77 35.3 172.1c1.5 7.5 8.1 12.9 15.7 12.9 7.7 0 14.2-5.4 15.7-13L248 221.6l22.3 86c1.6 7.2 8 12.4 15.5 12.5h.1c7.4 0 13.8-5 15.5-12.2l32.3-119.3 56.5 310.3c1.4 7.6 7.9 13.1 15.6 13.1h.2c7.6 0 14.2-5.4 15.7-12.8l89.5-444.5v-.2C516.6 25.8 494.4 0 466 0zm-59.2 411l-54.9-301.8c-3.1-17-27.2-17.6-31.3-1l-34 138.3-24.1-106c-3.7-16.3-27.9-16.8-31.3.5l-35.3 182L163 157c-3.5-17.6-27.2-15.8-31.2-1l-27.7 104.7L32.6 50C30 41.2 36.4 32 46 32h420c11.1 0 14.9 10.5 13.8 16.5l-73 362.5z"/></svg>