<svg xmlns="http://www.w3.org/2000/svg" viewBox="0 0 512 512"><!-- Font Awesome Pro 5.15.4 by @fontawesome - https://fontawesome.com License - https://fontawesome.com/license (Commercial License) --><path d="M480.84 0a23.6 23.6 0 0 0-3.9.33L340.87 23.18c-13.41 2.26-23.37 15.76-23.37 31.68V166.8a80.15 80.15 0 0 0-31.75-6.47c-35.59 0-63.5 21.08-63.5 48s27.91 48 63.5 48 63.5-21.08 63.5-48V54.86a4.45 4.45 0 0 1 0-.65l127-21.33V135a78.79 78.79 0 0 0-31.75-6.65c-35.07 0-63.5 21.49-63.5 48s28.43 48 63.5 48 63.5-21.49 63.5-48V32c0-17.91-12.41-32-27.16-32zM285.75 224.33c-19.1 0-31.75-9.63-31.75-16s12.65-16 31.75-16 31.75 9.62 31.75 16-12.65 16-31.75 16zm158.75-32c-19.7 0-31.75-10.36-31.75-16s12.05-16 31.75-16 31.75 10.36 31.75 16-12.05 16-31.75 16zM7.94 96h87.31v120a8 8 0 0 0 7.94 8h15.87a8 8 0 0 0 7.94-8V96h87.31a8 8 0 0 0 7.94-8V72a8 8 0 0 0-7.94-8H7.94A8 8 0 0 0 0 72v16a8 8 0 0 0 7.94 8zm325.44 288a48 48 0 1 0-47.63-48 47.81 47.81 0 0 0 47.63 48zm0-64a16 16 0 1 1-15.88 16 16 16 0 0 1 15.88-16zM7.94 32h206.37a8 8 0 0 0 7.94-8V8.33a8 8 0 0 0-7.94-8H7.94a8 8 0 0 0-7.94 8V24a8 8 0 0 0 7.94 8zm452.44 384A48 48 0 1 0 508 464a47.81 47.81 0 0 0-47.62-48zm0 64a16 16 0 1 1 15.87-16 16 16 0 0 1-15.87 16zm34.07-189.66a7.89 7.89 0 0 0-11.22 0L288.08 487a8.05 8.05 0 0 0 0 11.32l11.22 11.31a7.89 7.89 0 0 0 11.22 0L505.67 313a8 8 0 0 0 0-11.32zM181.32 448.13l37.2-24.13a8.05 8.05 0 0 0 2.53-11l-8.41-13.58a7.9 7.9 0 0 0-10.94-2.55L158.35 425l-43.93-44.28A63.79 63.79 0 0 0 158.75 320c0-35.3-28.49-64-63.5-64s-63.5 28.7-63.5 64a63.91 63.91 0 0 0 30.57 54.45l-30.1 18.25C1.28 411.45-9.2 451.31 8.81 481.55 20.57 501.19 41.49 512 63.26 512a66.67 66.67 0 0 0 34.63-9.75l56.11-36.4 43.47 43.81a7.89 7.89 0 0 0 11.22 0l11.22-11.31a8 8 0 0 0 0-11.32zM95.25 288a32 32 0 1 1-31.75 32 31.87 31.87 0 0 1 31.75-32zM81.31 475c-15.91 9.66-36.22 5.22-45.27-9.9s-3.38-35.27 12.55-44.94l37.48-22.73 45 45.31z"/></svg>