<svg xmlns="http://www.w3.org/2000/svg" viewBox="0 0 576 512"><!-- Font Awesome Pro 5.15.4 by @fontawesome - https://fontawesome.com License - https://fontawesome.com/license (Commercial License) --><path d="M288 208c-44.2 0-80 35.8-80 80s35.8 80 80 80 80-35.8 80-80-35.8-80-80-80zm0 128c-26.5 0-48-21.5-48-48s21.5-48 48-48 48 21.5 48 48-21.5 48-48 48zM512 64H352V32c0-17.7-14.3-32-32-32h-64c-17.7 0-32 14.3-32 32v32H64C28.7 64 0 92.7 0 128v320c0 35.3 28.7 64 64 64h448c35.3 0 64-28.7 64-64V128c0-35.3-28.7-64-64-64zM256 32h64v96h-64V32zm128 448H192v-21.9c0-9 2.6-17.6 7.6-25 7.2-10.7 20.3-17.2 35-17.2 15.9 0 23.5 8 53.4 8s37.6-8 53.4-8c14.7 0 27.7 6.4 35 17.2 5 7.4 7.6 16 7.6 25V480zm160-32c0 17.6-14.4 32-32 32h-96v-21.9c0-15.9-4.8-30.6-13-42.8-13.8-20.5-37.3-31.3-61.5-31.3-22.2 0-27.8 8-53.4 8-25.6 0-31.2-8-53.4-8-24.2 0-47.7 10.8-61.5 31.3-8.2 12.2-13 27-13 42.8V480H64c-17.6 0-32-14.4-32-32V128c0-17.6 14.4-32 32-32h160v64h128V96h160c17.6 0 32 14.4 32 32v320z"/></svg>