<svg xmlns="http://www.w3.org/2000/svg" viewBox="0 0 576 512"><!-- Font Awesome Pro 5.15.4 by @fontawesome - https://fontawesome.com License - https://fontawesome.com/license (Commercial License) --><path d="M288 32C128.9 32 0 160.9 0 320v128c0 17.7 14.3 32 32 32h512c17.7 0 32-14.3 32-32V320c0-159.1-128.9-288-288-288zm199.5 128H352V72.4c54.2 14 101.5 45.2 135.5 87.6zM448 320h-49.8c-22.2-38.1-63-64-110.2-64s-88 25.9-110.2 64H128V192h320v128zM288 64c10.9 0 21.5.9 32 2.2V160H88.5c46.9-58.4 118.9-96 199.5-96zM66.6 192H96v128H32c0-46.7 12.7-90.3 34.6-128zM32 448v-96h132.5c-2.7 10.3-4.5 20.9-4.5 32v64H32zm160 0v-64c0-53 43-96 96-96s96 43 96 96v64H192zm352 0H416v-64c0-11.1-1.9-21.7-4.5-32H544v96zm-64-128V192h29.4c21.9 37.7 34.6 81.3 34.6 128h-64z"/></svg>