<svg xmlns="http://www.w3.org/2000/svg" viewBox="0 0 448 512"><!-- Font Awesome Pro 5.15.4 by @fontawesome - https://fontawesome.com License - https://fontawesome.com/license (Commercial License) --><path d="M112 192a48 48 0 1 0-48-48 48 48 0 0 0 48 48zm0-64a16 16 0 1 1-16 16 16 16 0 0 1 16-16zm304-96H32A32 32 0 0 0 0 64v384a32 32 0 0 0 32 32h384a32 32 0 0 0 32-32V64a32 32 0 0 0-32-32zm0 416H32v-80h384zM85.2 336l52-69.33 40 53.33-12 16zm120 0l76-101.33 76 101.33zm210.8 0h-18.8L294 198.41c-6.06-8.07-19.56-8.07-25.62 0l-71.19 94.91L150 230.41c-6.06-8.07-19.56-8.07-25.62 0L45.18 336H32V64h384z"/></svg>