<svg xmlns="http://www.w3.org/2000/svg" viewBox="0 0 576 512"><!-- Font Awesome Pro 5.15.4 by @fontawesome - https://fontawesome.com License - https://fontawesome.com/license (Commercial License) --><path d="M560.8 329.8l-94.6-88.7c-2.4-2.3-6.2-2.1-8.5.3L444.1 256c-2.3 2.4-2.1 6.2.3 8.5l59.3 55.6H388.2l-32 64H219.8l-32-64H72.4l59.3-55.6c2.4-2.3 2.5-6.1.3-8.5l-13.7-14.6c-2.3-2.4-6.1-2.5-8.5-.3l-94.6 88.7c-9.7 9-15.2 21.7-15.2 35V464c0 26.5 21.5 48 48 48h480c26.5 0 48-21.5 48-48v-99.2c0-13.3-5.5-26-15.2-35zM544 464c0 8.8-7.2 16-16 16H48c-8.8 0-16-7.2-16-16v-96c0-8.8 7.2-16 16-16h120l32 64h176l32-64h120c8.8 0 16 7.2 16 16v96zM416 128h-64V24c0-13.2-10.8-24-24-24h-80c-13.2 0-24 10.8-24 24v104h-64c-28.4 0-42.8 34.5-22.6 54.6l128 128c12.5 12.5 32.8 12.5 45.3 0l128-128c20-20.1 5.8-54.6-22.7-54.6zM288 288L160 160h96V32h64v128h96L288 288z"/></svg>