<svg xmlns="http://www.w3.org/2000/svg" viewBox="0 0 256 512"><!-- Font Awesome Pro 5.15.4 by @fontawesome - https://fontawesome.com License - https://fontawesome.com/license (Commercial License) --><path d="M208 368.667V208c0-15.495-7.38-29.299-18.811-38.081C210.442 152.296 224 125.701 224 96c0-52.935-43.065-96-96-96S32 43.065 32 96c0 24.564 9.274 47.004 24.504 64H56c-26.467 0-48 21.533-48 48v48c0 23.742 17.327 43.514 40 47.333v65.333C25.327 372.486 8 392.258 8 416v48c0 26.467 21.533 48 48 48h144c26.467 0 48-21.533 48-48v-48c0-23.742-17.327-43.514-40-47.333zM128 32c35.346 0 64 28.654 64 64s-28.654 64-64 64-64-28.654-64-64 28.654-64 64-64zm88 432c0 8.837-7.163 16-16 16H56c-8.837 0-16-7.163-16-16v-48c0-8.837 7.163-16 16-16h24V272H56c-8.837 0-16-7.163-16-16v-48c0-8.837 7.163-16 16-16h104c8.837 0 16 7.163 16 16v192h24c8.837 0 16 7.163 16 16v48z"/></svg>