<svg xmlns="http://www.w3.org/2000/svg" viewBox="0 0 640 512"><!-- Font Awesome Pro 5.15.4 by @fontawesome - https://fontawesome.com License - https://fontawesome.com/license (Commercial License) --><path d="M24 264c-13.25 0-24 10.75-24 24s10.75 24 24 24 24-10.75 24-24-10.75-24-24-24zm0 96c-13.25 0-24 10.75-24 24s10.75 24 24 24 24-10.75 24-24-10.75-24-24-24zm0 96c-13.25 0-24 10.75-24 24s10.75 24 24 24 24-10.75 24-24-10.75-24-24-24zM616.27 38.02L478.47 1.1c-2.77-.74-5.56-1.1-8.3-1.1-14.13 0-27.06 9.43-30.89 23.72l-24.97 93.21-5.11-5.11c-3.21-3.21-7.26-4.7-11.25-4.7-6.87 0-13.56 4.39-15.54 11.95L346.49 256H224c-17.67 0-32 14.33-32 32v192c0 17.67 14.33 32 32 32h270.62c29.09 0 54.53-19.62 61.91-47.76l37.96-144.71c2.88-11-.28-22.71-8.32-30.75l-3.11-3.11L638.9 77.21c4.58-17.07-5.55-34.61-22.63-39.19zm-90.7 418.1c-3.69 14.06-16.42 23.88-30.95 23.88H224V288h147.18l6.26-23.88 28.84-109.96 157.25 157.25-37.96 144.71zm31.35-196.58L440.45 143.07l29.77-111.06L608 68.93l-51.08 190.61zM120 312c-13.25 0-24 10.75-24 24s10.75 24 24 24 24-10.75 24-24-10.75-24-24-24zm0 96c-13.25 0-24 10.75-24 24s10.75 24 24 24 24-10.75 24-24-10.75-24-24-24z"/></svg>