<svg xmlns="http://www.w3.org/2000/svg" viewBox="0 0 366 512"><!-- Font Awesome Pro 5.15.4 by @fontawesome - https://fontawesome.com License - https://fontawesome.com/license (Commercial License) --><path d="M88.46 479.84c-19.3-1.3-36.8-11.91-48.88-27.02L1.75 405.54A8.007 8.007 0 0 1 3 394.29l12.5-10a7.983 7.983 0 0 1 11.23 1.25l39.72 49.65c7.69 9.64 19.93 14.41 32.42 12.33 14.06-2.34 24.72-14.1 27.93-27.99l76.85-333.31c6.43-27.9 28.9-50.51 57.32-53.77 23.05-2.64 45.12 6.59 59.38 24.38l43.9 54.92a7.995 7.995 0 0 1-1.25 11.24l-12.5 10c-3.45 2.76-8.48 2.2-11.23-1.25l-43.9-54.92c-7.7-9.62-19.83-14.39-32.29-12.37-14.09 2.29-24.83 14.02-28.04 27.95l-77.55 336.31c-7.31 31.69-36.1 53.35-69.03 51.13z"/></svg>