<svg xmlns="http://www.w3.org/2000/svg" viewBox="0 0 576 512"><!-- Font Awesome Pro 5.15.4 by @fontawesome - https://fontawesome.com License - https://fontawesome.com/license (Commercial License) --><path d="M494.75 110.52C460.24 77.96 409.33 71.33 368 90.9V51.8c0-12.2-6.78-23.17-17.69-28.62L310.69 3.36c-7.97-3.97-17.38-4.45-25.66-1.27-8.31 3.16-15 9.72-18.34 18.03l-28.7 71.75c-4.78 2.44-9.4 5.19-13.74 8.38-43.41-30.29-103.78-26.76-143 10.26C28.84 159.92 0 225.78 0 295.95c0 70.16 28.84 136 81.25 185.4 39.19 36.98 99.53 40.6 143 10.28 36.56 26.9 90.94 26.9 127.5 0 19.5 13.59 42.38 20.36 65.22 20.36 28.12 0 56.16-10.23 77.78-30.63C547.16 431.96 576 366.11 576 295.94s-28.84-136.02-81.25-185.42zM296.41 31.99L336 51.8v39.11c-18.21-8.78-38.95-11.99-59.17-10.01l19.58-48.91zm176.4 426.09c-30.16 28.42-79.78 28.87-110.62 1.06l-11-9.9-10.75 10.2c-14.5 13.76-31.66 20.46-52.44 20.46s-37.94-6.7-52.44-20.46l-10.75-10.2-11 9.9c-30.84 27.81-80.47 27.35-110.62-1.06C57.28 414.79 32 357.21 32 295.94s25.28-118.85 71.19-162.16c30.12-28.4 79.75-28.9 110.62-1.05l11 9.9 10.75-10.2c14.5-13.76 31.66-20.46 52.44-20.46s37.94 6.7 52.44 20.46l10.75 10.2 11-9.9c30.81-27.82 80.44-27.4 110.62 1.06C518.72 177.09 544 234.67 544 295.94s-25.28 118.85-71.19 162.14zm1.66-179.15c-10.62-8.39-24.81-9.28-36.28-2.27-53.41 32.73-116.03 46.65-180.53 39.9L240 314.7v29.23h-32v-36.79l-10.97-3.64c-22.56-7.48-41.91-16.26-59.16-26.81-11.47-7.05-25.75-6.08-36.28 2.31-10.81 8.62-14.91 22.68-10.47 35.84 5.5 16.18 12.38 30.18 21.09 42.9 33.84 48.52 94.66 74.17 175.78 74.17 11.69 0 22.78-.7 33.56-1.75l14.44-1.41v-36.84h32v31.15l21.97-8.81c31.72-12.72 56.69-31.93 74.31-57.18 8.47-12.31 15.22-26.14 20.69-42.34 4.45-13.14.32-27.2-10.49-35.8zm-19.81 25.6c-4.5 13.33-9.97 24.59-16.69 34.32-10.56 15.14-24.69 27.62-42.12 37.31-5.53-9.69-15.94-16.23-27.84-16.23h-32c-17.66 0-32 14.36-32 31.99v7.53c-5.22.3-10.53.47-16 .47-70.22 0-121.94-20.92-149.47-60.39-6.97-10.15-12.56-21.59-17.34-35.56 16.44 10.08 34.47 18.65 54.81 26.09v13.87c0 17.64 14.34 31.99 32 31.99h32c15.56 0 28.56-11.17 31.44-25.92 63.41 4.78 128.84-12.58 183.5-46.07l-.29.6zm-205.51-48.58c2.85 0 4.86-1.11 6-3.33s1.14-4.44 0-6.66L214 179.29c-1.71-2.23-3.86-3.33-6.43-3.33s-4.43 1.11-5.57 3.33l-41.15 66.65c-1.14 2.23-1.14 4.44 0 6.66s3.15 3.33 6 3.33h82.3zm160 0c2.85 0 4.86-1.11 6-3.33s1.14-4.44 0-6.66L374 179.29c-1.71-2.23-3.86-3.33-6.43-3.33s-4.43 1.11-5.57 3.33l-41.15 66.65c-1.14 2.23-1.14 4.44 0 6.66s3.15 3.33 6 3.33h82.3z"/></svg>