<svg xmlns="http://www.w3.org/2000/svg" viewBox="0 0 576 512"><!-- Font Awesome Pro 5.15.4 by @fontawesome - https://fontawesome.com License - https://fontawesome.com/license (Commercial License) --><path d="M560,241.23438C560,390.53125,437.97065,512,288.00423,512,141.569,512,22.78961,394.76562,16.28971,253.95312c-4.24993-92.54687,38.46815-179.84374,114.31072-233.5a23.72023,23.72023,0,0,1,13.74979-4.40624,24.075,24.075,0,0,1,22.31215,32.9375,126.06511,126.06511,0,0,0-8.96861,46.65624c0,41.10938,19.1872,78.90626,52.62418,103.67188a24.08535,24.08535,0,0,1,1.81248,37.375,111.64354,111.64354,0,0,0-37.21818,83.29688c0,56.5625,42.3431,102.42187,97.09224,110.21874V358.625l-20.68717,20.6875a15.99817,15.99817,0,1,1-22.62465-22.625L249.37984,336H224.00523a16,16,0,0,1,0-32h25.37461l-20.68718-20.6875a15.99817,15.99817,0,1,1,22.62465-22.625l20.68717,20.6875V16a15.99975,15.99975,0,1,1,31.9995,0V281.375l20.68718-20.6875a15.99817,15.99817,0,0,1,22.62465,22.625L326.62863,304h25.37461a16,16,0,0,1,0,32H326.62863l20.68718,20.70312a15.99265,15.99265,0,0,1-22.62465,22.60938L303.97274,358.625v71.67188C387.47144,418.98438,400.94,342.15625,401.00248,320A111.45108,111.45108,0,0,0,363.878,236.70312a24.04818,24.04818,0,0,1,1.81247-37.39062c33.40573-24.76562,52.59294-62.54688,52.59294-103.65625A125.851,125.851,0,0,0,409.2836,48.9375,24.075,24.075,0,0,1,431.59575,16a23.66572,23.66572,0,0,1,13.71854,4.40625A271.02474,271.02474,0,0,1,560,241.23438Zm-33.74947,27.5625L490.50108,300.0625a16.00686,16.00686,0,0,1-21.06217-24.10938l57.6866-50.46874a237.50982,237.50982,0,0,0-5.18742-36.82813L491.28232,219.3125a15.99265,15.99265,0,0,1-22.62465-22.60938l42.40559-42.40624a239.45023,239.45023,0,0,0-64.374-92.07813,157.73669,157.73669,0,0,1,3.56245,33.4375,159.43294,159.43294,0,0,1-58.28034,123.6875A142.8669,142.8669,0,0,1,433.002,320.01562c-.1875,87.89063-72.84262,143.82813-145.029,143.82813-79.99875,0-145.06024-64.8125-145.06024-144.46875a143.69178,143.69178,0,0,1,41.09311-100.03125,159.36344,159.36344,0,0,1-58.31159-123.6875V95.5625a189.99126,189.99126,0,0,1,3.59369-33.375,237.7374,237.7374,0,0,0-64.53024,91.96875L107.2883,196.6875a15.99817,15.99817,0,0,1-22.62465,22.625l-30.49953-30.5a235.49408,235.49408,0,0,0-5.62491,36.39062l57.96785,50.75a16.001,16.001,0,0,1-21.06217,24.09376L49.82044,268.84375C60.789,362.34375,142.78774,480,288.00423,480,410.93982,480,512.46949,387.48438,526.25053,268.79688Z"/></svg>