<svg xmlns="http://www.w3.org/2000/svg" viewBox="0 0 640 512"><!-- Font Awesome Pro 5.15.4 by @fontawesome - https://fontawesome.com License - https://fontawesome.com/license (Commercial License) --><path d="M556.44 93.48C548.9 88.45 544 80.33 544 71.26V8c0-4.42-3.58-8-8-8h-16c-4.42 0-8 3.58-8 8v62.31c0 20.16 10.28 38.78 27.02 50.01 43.2 28.98 68.98 77.3 68.98 129.36V280c0 4.42 3.58 8 8 8h16c4.42 0 8-3.58 8-8v-30.31c0-62.93-31.24-121.31-83.56-156.21zm-52.87 80.13C528.9 190.71 544 219.1 544 249.69V280c0 4.42 3.58 8 8 8h16c4.42 0 8-3.58 8-8v-30.31c0-41.96-21.08-80.88-56.31-103.78C494.07 129.25 480 99.53 480 68.97V8c0-4.42-3.58-8-8-8h-16c-4.42 0-8 3.58-8 8v67.03c0 40.32 22.15 76.02 55.57 98.58zM616 352H278.94C180.3 352 83.65 379.72 0 432c83.65 52.28 180.3 80 278.94 80H616c13.25 0 24-10.75 24-24V376c0-13.26-10.75-24-24-24zM278.94 480c-73.85 0-146.33-16.47-212.51-48 60.11-28.64 125.5-44.14 192.32-46.88l81.3 94.88h-61.11zm103.27 0l-82.27-96h117.85l82.27 96H382.21zM608 480h-65.79l-82.27-96H608v96z"/></svg>