<svg xmlns="http://www.w3.org/2000/svg" viewBox="0 0 448 512"><!-- Font Awesome Pro 5.15.4 by @fontawesome - https://fontawesome.com License - https://fontawesome.com/license (Commercial License) --><path d="M433.09375,414.20312C429.5,430.29688,428.68749,459.79688,432.68749,480H436a12.04337,12.04337,0,0,1,12,12v8a12.04337,12.04337,0,0,1-12,12H64A64.00317,64.00317,0,0,1,0,448V80A79.964,79.964,0,0,1,80,0H424a23.95631,23.95631,0,0,1,24,24V392A24.14194,24.14194,0,0,1,433.09375,414.20312ZM416,32H80A48.01238,48.01238,0,0,0,32,80V392.875A63.29355,63.29355,0,0,1,64,384H416ZM404.28125,416H64a32,32,0,0,0,0,64H404.28125A229.78513,229.78513,0,0,1,404.28125,416ZM100,206.95312c0-50.1875,27.5625-96.8125,71.93749-121.6875a11.95085,11.95085,0,0,1,14.5,2.14063,13.58423,13.58423,0,0,1,3.375,8.29687A13.90947,13.90947,0,0,1,188,101.98438,60.027,60.027,0,0,0,201.46875,180.875a11.82582,11.82582,0,0,1,4.40625,8.5625,11.95519,11.95519,0,0,1-3.31251,9.03125A51.74024,51.74024,0,0,0,228,284.84375V259.3125l-6.34375,6.34375a7.99915,7.99915,0,0,1-11.3125-11.3125L220.68749,244H208a8,8,0,0,1,0-16h12.68749l-10.34374-10.34375a7.99915,7.99915,0,0,1,11.3125-11.3125L228,212.6875V84a12,12,0,0,1,24,0V212.6875l6.34375-6.34375a7.99915,7.99915,0,0,1,11.3125,11.3125L259.31249,228H272a8,8,0,0,1,0,16H259.31249L269.625,254.32812a7.99915,7.99915,0,1,1-11.31251,11.3125l-6.34374-6.34374v25.53124a51.76724,51.76724,0,0,0,25.46874-86.375,11.92036,11.92036,0,0,1-3.31249-9.01562,13.5281,13.5281,0,0,1,4.375-8.5625,60.027,60.027,0,0,0,13.46875-78.89062A11.99016,11.99016,0,0,1,308.06249,85.25C352.43749,110.14062,380,156.76562,380,206.95312c0,77.20313-62.81251,140-140,140S100,284.15625,100,206.95312Zm50,46.3125a8.03978,8.03978,0,0,1-11.3125.75l-6.84375-6c16.65625,43.6875,58.65625,74.9375,108.125,74.9375s91.46874-31.25,108.125-74.9375l-6.84375,6a8.005,8.005,0,1,1-10.56251-12.03124l23.84376-20.875c.59375-4.6875,1.4375-9.3125,1.4375-14.15626a115.1298,115.1298,0,0,0-2.0625-21.5625L341.625,197.65625a7.99915,7.99915,0,0,1-11.31251-11.3125L348.75,167.90625a115.65937,115.65937,0,0,0-23.78125-39.20313c.125,1.70313.1875,3.39063.1875,5.09376a84.38526,84.38526,0,0,1-22.71876,57.42187,76.01587,76.01587,0,1,1-124.90624,0,84.21054,84.21054,0,0,1-22.71875-57.42187c0-1.70313.09375-3.39063.15625-5.09376a116.81117,116.81117,0,0,0-23.78125,39.20313l18.46875,18.4375a7.99915,7.99915,0,0,1-11.3125,11.3125L126.0625,185.39062A112.56957,112.56957,0,0,0,124,206.95312c0,4.84376.84375,9.46876,1.4375,14.15626l23.84375,20.875A7.97419,7.97419,0,0,1,150,253.26562Z"/></svg>