<svg xmlns="http://www.w3.org/2000/svg" viewBox="0 0 448 512"><!-- Font Awesome Pro 5.15.4 by @fontawesome - https://fontawesome.com License - https://fontawesome.com/license (Commercial License) --><path d="M200 64a24 24 0 1 0 24 24 24 24 0 0 0-24-24zm216 288H240V222.39c54.21-7.83 96-54 96-110.39a112 112 0 0 0-224 0c0 56.38 41.79 102.56 96 110.39V352h-80v-16a16 16 0 0 0-16-16H80a16 16 0 0 0-16 16v16H32a32 32 0 0 0-32 32v96a32 32 0 0 0 32 32h384a32 32 0 0 0 32-32v-96a32 32 0 0 0-32-32zM144 112a80 80 0 1 1 80 80 80.09 80.09 0 0 1-80-80zm272 368H32v-96h384z"/></svg>