<svg xmlns="http://www.w3.org/2000/svg" viewBox="0 0 448 512"><!-- Font Awesome Pro 5.15.4 by @fontawesome - https://fontawesome.com License - https://fontawesome.com/license (Commercial License) --><path d="M304 272H144a48.05 48.05 0 0 0-48 48v64a48.05 48.05 0 0 0 48 48h160a48 48 0 0 0 48-48v-64a48 48 0 0 0-48-48zm16 112a16 16 0 0 1-16 16H144a16 16 0 0 1-16-16v-64a16 16 0 0 1 16-16h160a16 16 0 0 1 16 16zm128-248a71.75 71.75 0 0 0-137.71-28.48A32 32 0 0 1 304 88.78V32h8a8 8 0 0 0 8-8V8a8 8 0 0 0-8-8H136a8 8 0 0 0-8 8v16a8 8 0 0 0 8 8h8v56.78a32 32 0 0 1-7 20l-76.95 96.16a128 128 0 0 0-28 80V448a64 64 0 0 0 64 64H352a64 64 0 0 0 64-64V284.9a128 128 0 0 0-26.88-78.22A71.93 71.93 0 0 0 448 136zm-64 312a32 32 0 0 1-32 32H96a32 32 0 0 1-32-32V284.9a96.39 96.39 0 0 1 21-60l77-96.14a64.22 64.22 0 0 0 14-40V32h96v56.78a64.23 64.23 0 0 0 14 40l76.93 96.18a96.34 96.34 0 0 1 21 60zm-8-272a39.41 39.41 0 0 1-13.41-2.71l-25.49-31.87c-.27-1.85-1.1-3.5-1.1-5.42a40 40 0 1 1 40 40z"/></svg>