<svg xmlns="http://www.w3.org/2000/svg" viewBox="0 0 640 512"><!-- Font Awesome Pro 5.15.4 by @fontawesome - https://fontawesome.com License - https://fontawesome.com/license (Commercial License) --><path d="M467.91 216.4l-11.31-11.31a8 8 0 0 0-11.32 0L417 233.37l-28.29-28.28a8 8 0 0 0-11.31 0l-11.31 11.31a8 8 0 0 0 0 11.31L394.37 256l-28.28 28.28a8 8 0 0 0 0 11.32l11.31 11.31a8 8 0 0 0 11.31 0L417 278.63l28.28 28.28a8 8 0 0 0 11.32 0l11.31-11.31a8 8 0 0 0 0-11.32L439.62 256l28.29-28.29a8 8 0 0 0 0-11.31zM609 128H481.68c-19.53-9.89-41.29-16-64.68-16s-45.15 6.11-64.68 16H242.93a128.18 128.18 0 0 0-35.16 4.92L24.21 185.37A32 32 0 0 0 1 216.14v79.72a32 32 0 0 0 23.21 30.77l183.56 52.44a127.81 127.81 0 0 0 35.16 4.93h109.39c19.53 9.89 41.29 16 64.68 16s45.15-6.11 64.68-16H609a32 32 0 0 0 32-32V160a32 32 0 0 0-32-32zM242.93 352a95.64 95.64 0 0 1-26.37-3.7L33 295.86v-79.72l183.56-52.45a95.9 95.9 0 0 1 26.37-3.69h66.83a143.73 143.73 0 0 0 0 192zM417 368a112 112 0 1 1 112-112 112.12 112.12 0 0 1-112 112zm192-16h-84.76a143.73 143.73 0 0 0 0-192H609z"/></svg>