<svg xmlns="http://www.w3.org/2000/svg" viewBox="0 0 512 512"><!-- Font Awesome Pro 5.15.4 by @fontawesome - https://fontawesome.com License - https://fontawesome.com/license (Commercial License) --><path d="M415.81 66a16.095 16.095 0 0 0-7.76-1.99c-4.28 0-8.51 1.71-11.6 5.01a15.974 15.974 0 0 0-1.91 19.52c16.49 26.16 25.2 56.39 25.2 87.41-.19 53.25-26.77 102.69-71.27 132.41l-76.63 53.35v-20.1l44.05-36.09c3.92-4.2 5-10.09 2.81-15.28L310.85 273c33.84-19.26 56.94-55.25 56.94-96.99 0-40.79-22.02-76.13-54.59-95.71l5.22-11.44c2.17-5.14 1.24-11.54-3.57-16.04L255.86 0l-58.99 52.81c-4.75 4.44-5.77 10.81-3.57 16.04l5.22 11.44c-32.57 19.58-54.59 54.93-54.59 95.72 0 41.75 23.09 77.73 56.94 96.99l-7.85 17.24c-2.19 5.18-1.1 11.07 2.81 15.28l44.05 36.09v19.9l-76.59-53.33C119.02 278.62 92.44 229.19 92.26 176c0-31.08 8.71-61.31 25.2-87.47 3.87-6.16 2.4-13.77-2.59-19.08-3-3.21-7.34-4.8-11.69-4.8-2.89 0-5.8.7-8.33 2.1C16.32 109.6-22.3 205.3 13.36 295.99c7.07 17.99 17.89 34.38 30.46 49.06l55.97 65.36c3.12 3.65 7.6 5.59 12.15 5.59 2.55 0 5.13-.61 7.5-1.88l79.35-42.23L228 392.23l-47.08 32.78c-1.67-.37-3.23-1.01-5.01-1.01-13.25 0-23.99 10.74-23.99 24 0 13.25 10.74 24 23.99 24 12.1 0 21.69-9.11 23.33-20.76l40.63-28.28v29.95c-9.39 5.57-15.99 15.38-15.99 27.1 0 17.67 14.32 32 31.98 32s31.98-14.33 31.98-32c0-11.71-6.61-21.52-15.99-27.1v-30.15l40.91 28.48C314.41 462.89 324 472 336.09 472c13.25 0 23.99-10.75 23.99-24 0-13.26-10.74-24-23.99-24-1.78 0-3.34.64-5.01 1.01L284 392.23l29.21-20.34 79.35 42.23c2.38 1.26 4.95 1.88 7.5 1.88 4.55 0 9.03-1.94 12.15-5.59l52.51-61.31c18.87-22.02 34-47.5 41.25-75.59 21.62-83.66-16.45-167.27-90.16-207.51zM115.73 379.85L68.1 324.23c-11.38-13.29-19.78-26.73-24.98-39.96-21.09-53.63-11.41-110.92 22.11-152.16a197.139 197.139 0 0 0-4.95 44c.22 63.87 32.09 123.19 84.73 158.32l24.28 16.91-53.56 28.51zm184.21-270.48c21.58 14.34 35.86 38.83 35.86 66.63 0 28.76-15.38 53.81-38.21 67.91l-12.27-26.93c-8.75-24.52-8.75-51.04 0-75.56l14.62-32.05zm-44.08-66.43l27.85 24.93-27.48 60.28-.38.83-.38-.83-27.49-60.26 27.88-24.95zm-41.75 200.97c-22.83-14.1-38.21-39.15-38.21-67.91 0-27.81 14.29-52.29 35.86-66.63l14.61 32.06c8.75 24.52 8.75 51.03 0 75.56l-12.26 26.92zm41.75 69.43l-27.84-22.81 27.46-60.28.37-.82.37.82 27.47 60.28-27.83 22.81zm219.16-47.84c-5.5 21.29-17.13 42.41-34.57 62.77l-44.17 51.57-53.57-28.51 23.52-16.38c53.31-35.6 85.27-95.01 85.5-159.02 0-14.7-1.64-29.26-4.85-43.43 29.44 36.32 40.6 84.75 28.14 133z"/></svg>