<svg xmlns="http://www.w3.org/2000/svg" viewBox="0 0 608 512"><!-- Font Awesome Pro 5.15.4 by @fontawesome - https://fontawesome.com License - https://fontawesome.com/license (Commercial License) --><path d="M248.4 224.84l-56.12-29.54c4.75-9.17 10.65-18.07 18.84-26.14 36.75-36.24 41.81-100.27 7.33-138.91C200.55 10.21 176.29 0 151.92 0c-21.63 0-43.33 8.04-60.74 24.39-77.1 72.43-108.5 179.1-81.85 278.4C30.18 380.45 84.84 384 100.09 384c77.87 0 99.25-79.77 87.85-122.11-4.33-16.25-5.97-22.32-5.01-35.72l51.87 27.3c5.15 2.71 8.4 8.25 8.4 14.31V504c0 4.42 3.4 8 7.6 8H266c4.2 0 7.6-3.58 7.6-8V267.77c0-18.18-9.76-34.8-25.2-42.93zm-92.72 34.45l3.02 11.32c21.86 81.24-95.2 116.37-117.08 34.76l-3.03-11.27c-23.45-87.4 4.46-181.6 72.83-245.83C122.59 37.78 136.97 32 151.92 32c34.53 0 62.78 30.46 60.78 67.63-.92 17.06-8.1 32.73-20.22 44.11-33.91 31.83-47.67 75.05-36.8 115.55zm361.14-234.9C499.41 8.04 477.71 0 456.08 0c-24.36 0-48.63 10.21-66.51 30.25-34.48 38.64-29.42 102.67 7.33 138.91 8.19 8.08 14.09 16.98 18.83 26.14l-56.12 29.54c-15.45 8.13-25.2 24.75-25.2 42.93V504c0 4.42 3.4 8 7.6 8h15.2c4.2 0 7.6-3.58 7.6-8V267.78c0-6.06 3.25-11.6 8.41-14.31l51.86-27.3c.96 13.4-.68 19.47-5.01 35.72C408.66 304.23 430.04 384 507.91 384c15.25 0 69.91-3.55 90.76-81.21 26.65-99.3-4.75-205.98-81.85-278.4zm52.6 269.7l-3.03 11.27c-21.89 81.61-138.95 46.49-117.08-34.76l3.02-11.32c10.86-40.5-2.89-83.71-36.81-115.55-12.12-11.38-19.3-27.05-20.22-44.11-2-37.17 26.25-67.63 60.78-67.63 14.95 0 29.33 5.78 40.5 16.27 68.38 64.24 96.29 158.43 72.84 245.83z"/></svg>