<svg xmlns="http://www.w3.org/2000/svg" viewBox="0 0 504 512"><!-- Font Awesome Pro 5.15.4 by @fontawesome - https://fontawesome.com License - https://fontawesome.com/license (Commercial License) --><path d="M499.6 392.3c-5.2-13.6-15.2-24.3-27.4-31.8 15-31.8 23.8-67 23.8-104.5C496 119 385 8 248 8S0 119 0 256s111 248 248 248c36.1 0 70.2-8.1 101.2-22.1 9.5 11.6 24.7 17.8 40.7 13.7l65.4-16.9c37.5-9.8 58.3-49.8 44.3-86.4zm-176.4 10.1l13.8 49.9c-27.2 12.5-57.2 19.7-89 19.7-119.1 0-216-96.9-216-216S128.9 40 248 40s216 96.9 216 216c0 33.9-8 65.9-22 94.4-1-.1-18.6-30.4-56.1-30.4-41.9 0-74.5 39.8-62.7 82.4zm124 45.3l-65.4 16.9c-4 1.1-8.5-1.3-9.8-5.6l-18-65.1c-5.2-18.9 6.9-38.3 26.8-41.4 17.7-2.8 34 9.5 38.6 26l1.8 6.6 6.7-1.7c14.3-3.7 34.7 1.7 41.8 20.4 7.2 18.8-3.5 38.9-22.5 43.9zM304 308c0-19.2-28.7-41.5-71.5-44-3.8-.4-7.4 2.4-8.2 6.2-.9 3.8 1.1 7.7 4.7 9.2l16.9 7.2c13 5.5 20.7 13.5 20.7 21.5s-7.7 16-20.7 21.5l-17 7.2c-5.7 2.4-6 12.2 0 14.8l16.9 7.2c13 5.5 20.7 13.5 20.7 21.5s-7.7 16-20.7 21.5l-17 7.2c-3.6 1.5-5.6 5.4-4.7 9.2.8 3.6 4.1 6.2 7.8 6.2h.5c42.8-2.5 71.5-24.8 71.5-44 0-13-13.4-27.3-35.2-36C290.6 335.3 304 321 304 308zM168 176c-17.7 0-32 14.3-32 32s14.3 32 32 32 32-14.3 32-32-14.3-32-32-32zm235.8 46.1c-4-25.2-34.2-42.1-59.8-42.1s-55.9 16.9-59.8 42.1c-1.8 10.9 11.3 18.4 19.8 10.8l9.5-8.5c14.8-13.2 46.2-13.2 61 0l9.5 8.5c8.6 7.5 21.6.2 19.8-10.8z"/></svg>