<svg xmlns="http://www.w3.org/2000/svg" viewBox="0 0 640 512"><!-- Font Awesome Pro 5.15.4 by @fontawesome - https://fontawesome.com License - https://fontawesome.com/license (Commercial License) --><path d="M608 0H345.5c-14.9 0-27.8 10.3-31.2 24.8l-83.5 361.8-88.2 88.2c-10.5 10.4-30.6 2-30.6-12.7V356.6l12 9.2c7.4 5.7 16.2 8.7 25.3 8.7 23.5 0 42.7-19.9 42.7-44.3V278c0-24.4-19.2-44.3-42.7-44.3-9.2 0-17.9 3-25.3 8.7l-12 9.2V224c0-44.2-35.8-80-80-80H8c-4.4 0-8 3.6-8 8v16c0 4.4 3.6 8 8 8h24c26.5 0 48 21.5 48 48v27.4l-12-9.2c-7.4-5.7-16.2-8.7-25.3-8.7-23.5.1-42.7 20-42.7 44.4v52.2c0 24.4 19.2 44.3 42.7 44.3 9.2 0 17.9-3 25.3-8.7l12-9.2v103.1c0 25.7 18.3 48.9 43.8 52 15.5 1.8 30.5-3.4 41.4-14.3l88.2-88.2 361.8-83.5c14.5-3.4 24.8-16.3 24.8-31.2V32c0-17.7-14.3-32-32-32zM48.6 340.3c-7.1 5.4-16.6-.4-16.6-10.2v-52.2c0-9.8 9.5-15.6 16.6-10.2L96 304l47.4-36.3c7.1-5.4 16.6.4 16.6 10.2v52.2c0 9.8-9.5 15.6-16.6 10.2L96 304zM585.4 32L476 141.4 366.6 32zM340.9 51.6L453.4 164 273.5 343.9zm-44.8 314.9L476 186.6 588.4 299zM608 273.4L498.6 164 608 54.6z"/></svg>