<svg xmlns="http://www.w3.org/2000/svg" viewBox="0 0 576 512"><!-- Font Awesome Pro 5.15.4 by @fontawesome - https://fontawesome.com License - https://fontawesome.com/license (Commercial License) --><path d="M566.64 65.94L511 9.37C504.76 3.12 496.59 0 488.41 0s-16.35 3.12-22.58 9.37L4.58 464.14C-3.36 472.1-.6 486.3 9.9 489.83 51.69 503.86 98.5 512 144.82 512c72.96 0 144.73-20.19 193.87-69.35l100.45-100.04c11.72-11.67 12.18-30.39 2.11-43.16l11.59-68.83 113.8-119.42c12.48-12.5 12.48-32.76 0-45.26zM317.34 419.6C278.4 458.55 217.13 480 144.82 480c-32.83 0-66.58-4.38-98.97-12.77l261.67-262.38 110.33 114.66L317.34 419.6zm104.7-202.14l-10.5 50.25-81.36-84.55C378.55 136.89 488.22 32 488.41 32l56.36 56.68-122.73 128.78zM432 128c-8.84 0-16 7.16-16 16s7.16 16 16 16 16-7.16 16-16-7.16-16-16-16zm32-32c0 8.84 7.16 16 16 16s16-7.16 16-16-7.16-16-16-16-16 7.16-16 16z"/></svg>