<svg xmlns="http://www.w3.org/2000/svg" viewBox="0 0 416 512"><!-- Font Awesome Pro 5.15.4 by @fontawesome - https://fontawesome.com License - https://fontawesome.com/license (Commercial License) --><path d="M413.7 237.8l-71.9-216C337.3 8.6 327.2 0 316 0H112c-10.6 0-20.3 7.7-25 19.9l-84 216C-6.3 259.8 7.2 288 28 288h92.7C86.3 327.8 64 383.9 64 423.6c0 26.1 9.7 50.3 26.2 70.1 9.9 11.9 26.1 18.3 42.7 18.3h150.3c16.6 0 32.8-6.4 42.7-18.3 16.5-19.8 26.2-43.9 26.2-70.1 0-39.7-22.3-95.8-56.7-135.6H388c20.1 0 33.6-26.4 25.7-50.2zM320 423.6c0 17.6-6.5 34.8-18.8 49.6-3.4 4.1-10.5 6.8-18 6.8H132.9c-7.5 0-14.6-2.7-18-6.8-12.3-14.8-18.8-32-18.8-49.6 0-41.7 31-106 70.4-135.6h83.1C289 317.6 320 381.9 320 423.6zM377.4 256H38.6c-4.3 0-7.3-4.2-5.9-8.2 0-.1.1-.2.1-.3L116.7 32h194.7l71.9 215.9v.1c1.4 4-1.7 8-5.9 8z"/></svg>