<svg xmlns="http://www.w3.org/2000/svg" viewBox="0 0 384 512"><!-- Font Awesome Pro 5.15.4 by @fontawesome - https://fontawesome.com License - https://fontawesome.com/license (Commercial License) --><path d="M381.38,179.39l-68.57-160A32,32,0,0,0,283.39,0H100.61A32,32,0,0,0,71.19,19.39l-68.57,160A32,32,0,0,0,32,224H176V416H144c-35.09,0-68.12,23.22-78.53,55.2a30.16,30.16,0,0,0,4.47,27.35A32.63,32.63,0,0,0,96.25,512h191.5a32.63,32.63,0,0,0,26.31-13.45,30.18,30.18,0,0,0,4.47-27.36C308.06,439.2,275.06,416,240,416H208V224H352A32,32,0,0,0,381.38,179.39ZM240,448c21.59,0,41.84,13.94,47.75,32L95.91,480c6.25-19.19,26.47-32,48.09-32ZM32,192,100.61,32H283.39L352,192Z"/></svg>