<svg xmlns="http://www.w3.org/2000/svg" viewBox="0 0 512 512"><!-- Font Awesome Pro 5.15.4 by @fontawesome - https://fontawesome.com License - https://fontawesome.com/license (Commercial License) --><path d="M504 480h-24v-80c0-8.8-7.2-16-16-16h-16V256h24c4.4 0 8-3.6 8-8v-16c0-4.4-3.6-8-8-8h-24c0-100.5-77.6-183-176-191.2V8c0-4.4-3.6-8-8-8h-16c-4.4 0-8 3.6-8 8v24.8C141.6 41 64 123.5 64 224H40c-4.4 0-8 3.6-8 8v16c0 4.4 3.6 8 8 8h24v128H48c-8.8 0-16 7.2-16 16v80H8c-4.4 0-8 3.6-8 8v16c0 4.4 3.6 8 8 8h496c4.4 0 8-3.6 8-8v-16c0-4.4-3.6-8-8-8zM256 64c88.2 0 160 71.8 160 160H96c0-88.2 71.8-160 160-160zm160 192v128h-80V256h80zm-112 0v128h-96V256h96zm-208 0h80v128H96V256zm352 224H64v-64h384v64z"/></svg>