<svg xmlns="http://www.w3.org/2000/svg" viewBox="0 0 576 512"><!-- Font Awesome Pro 5.15.4 by @fontawesome - https://fontawesome.com License - https://fontawesome.com/license (Commercial License) --><path d="M288 0C126.5 0 0 77.31 0 176c0 46.78 29.06 90.62 81.81 123.45 4.54 2.82 9.51 5.58 14.7 8.34C93.28 333.29 117.4 352 144 352a55.73 55.73 0 0 0 19.65-3.58c17.26 15.75 29.07 36.41 28.32 67.77C191.11 451.85 161 480 125.38 480H40a8 8 0 0 0-8 8v16a8 8 0 0 0 8 8h84.61c54.33 0 99.47-44.5 99.39-98.83 0-29.05-8.41-51.28-21.06-68.84A464.82 464.82 0 0 0 288 352c161.5 0 288-77.31 288-176S449.5 0 288 0zm0 320a422.74 422.74 0 0 1-96.36-11c-1.86-20.67-22.35-37-47.64-37a53.72 53.72 0 0 0-29.64 8.76c-5.36-2.8-11-5.6-15.64-8.46C55.69 245.52 32 211.33 32 176 32 97.94 149.22 32 288 32s256 65.94 256 144-117.22 144-256 144z"/></svg>