<svg xmlns="http://www.w3.org/2000/svg" viewBox="0 0 496 512"><!-- Font Awesome Pro 5.15.4 by @fontawesome - https://fontawesome.com License - https://fontawesome.com/license (Commercial License) --><path d="M248 8C111 8 0 119 0 256s111 248 248 248 248-111 248-248S385 8 248 8zm152.7 400.7c-19.8 19.8-43 35.4-68.7 46.3-26.6 11.3-54.9 17-84.1 17s-57.5-5.7-84.1-17c-25.7-10.9-48.8-26.5-68.7-46.3-19.8-19.8-35.4-43-46.3-68.7-11.3-26.6-17-54.9-17-84.1s5.7-57.5 17-84.1c10.9-25.7 26.5-48.8 46.3-68.7 19.8-19.8 43-35.4 68.7-46.3 26.6-11.3 54.9-17 84.1-17s57.5 5.7 84.1 17c25.7 10.9 48.8 26.5 68.7 46.3 19.8 19.8 35.4 43 46.3 68.7 11.3 26.6 17 54.9 17 84.1s-5.7 57.5-17 84.1c-10.8 25.8-26.4 48.9-46.3 68.7zM287 227.9l9.5-17c7.7-13.7 19.2-21.6 31.5-21.6s23.8 7.9 31.5 21.6l9.5 17c4.1 7.4 15.6 4 14.9-4.5-3.3-42.1-32.2-71.4-56-71.4s-52.7 29.3-56 71.4c-.6 8.6 11 11.9 15.1 4.5zm-160 0l9.5-17c7.7-13.7 19.2-21.6 31.5-21.6s23.8 7.9 31.5 21.6l9.5 17c4.1 7.4 15.6 4 14.9-4.5-3.3-42.1-32.2-71.4-56-71.4s-52.7 29.3-56 71.4c-.6 8.5 10.9 11.9 15.1 4.5zM383 288H113c-9.6 0-17.1 8.4-15.9 18 8.8 71 69.4 126 142.9 126h16c73.4 0 134-55 142.9-126 1.2-9.6-6.3-18-15.9-18zM256 400h-16c-50.2 0-93.5-33.3-107.4-80h230.8c-13.9 46.7-57.2 80-107.4 80z"/></svg>