<svg xmlns="http://www.w3.org/2000/svg" viewBox="0 0 576 512"><!-- Font Awesome Pro 5.15.4 by @fontawesome - https://fontawesome.com License - https://fontawesome.com/license (Commercial License) --><path d="M426.2 205.2c-13.9-11.6-47.7-28.5-90.2 14.5-42.6-43-76.4-26.1-90.2-14.5-27.5 23-28.9 64.2-4.3 89.1l84.7 85.6c5.4 5.5 14.3 5.6 19.8 0l84.7-85.6c24.5-24.9 23-66.1-4.5-89.1zm-18.4 66.6L336 344.4l-71.8-72.6c-10.2-10.3-12.3-30 2.1-42 13.7-11.5 31.2-3.4 38.4 3.7l31.4 31.7 31.4-31.7c7.1-7.2 24.6-15.2 38.4-3.7 14.2 12 12.2 31.6 1.9 42zM546.2 9.7c-2.9-6.5-8.6-9.7-14.3-9.7-5.3 0-10.7 2.8-14 8.5C486.9 62.4 431.4 96 368 96h-80C182 96 96 182 96 288c0 20.7 3.4 40.6 9.4 59.2C29.3 412.2 2 487.5.9 490.7c-2.9 8.3 1.5 17.4 9.8 20.4 7.6 2.7 17.3-.8 20.4-9.8.2-.7 24.2-65.4 87.5-122.9 15.5 29 75.2 112.6 189.8 100.5C465.5 467.6 576 326.8 576 154.3c0-50.2-10.8-102.2-29.8-144.6zM305 447.1c-97 10.2-177-66.4-177-159.1 0-88.2 71.8-160 160-160h80c63.3 0 121-28.4 159.7-77.2 10.5 32.3 16.3 68.7 16.3 103.5 0 159.6-100.1 282.7-239 292.8z"/></svg>