<svg xmlns="http://www.w3.org/2000/svg" viewBox="0 0 576 512"><!-- Font Awesome Pro 5.15.4 by @fontawesome - https://fontawesome.com License - https://fontawesome.com/license (Commercial License) --><path d="M546.2 9.7c-2.9-6.5-8.6-9.7-14.3-9.7-5.3 0-10.7 2.8-14 8.5C486.9 62.4 431.4 96 368 96h-80C182 96 96 182 96 288c0 20.9 3.4 40.9 9.6 59.7C29.3 413 1.4 489.4.9 490.7c-2.9 8.3 1.5 17.5 9.8 20.4 7.9 2.8 17.4-1.1 20.4-9.8.4-1.2 23.9-65.1 87.6-122.7C151.1 438.9 214.7 480 288 480c6.9 0 13.7-.4 20.4-1.1C465.5 467.5 576 326.8 576 154.3c0-50.2-10.8-102.2-29.8-144.6zM305 447.1c-5.9.6-11.6.9-17 .9-63.3 0-117.6-37.2-143.5-90.6C196.3 319 268.6 288 368 288c8.8 0 16-7.2 16-16s-7.2-16-16-16c-102.8 0-179 31-234.8 70.4-3.1-12.4-5.2-25.1-5.2-38.4 0-88.2 71.8-160 160-160h80c63.3 0 121-28.4 159.7-77.2 10.5 32.3 16.3 68.7 16.3 103.5 0 159.6-100.1 282.7-239 292.8z"/></svg>