<svg xmlns="http://www.w3.org/2000/svg" viewBox="0 0 512 512"><!-- Font Awesome Pro 5.15.4 by @fontawesome - https://fontawesome.com License - https://fontawesome.com/license (Commercial License) --><path d="M511.52 207.17c-4.14-37.69-37.21-54.28-44.63-58.83 14.26-48.71-4.46-75.76-16.31-86.93-11.18-11.85-38.21-30.57-86.93-16.31-4.55-7.41-21.14-40.48-58.83-44.63-46.25-5.04-64.93 30.95-85.61 67.47-27.94-22.58-51.06-18.94-58.25-17.53-73.71 14.56-55.51 117.73-54.29 129.09-34.93-9.76-74.01 11.67-74.01 65.41 0 38.62 28.68 72.88 21.39 92.19-13.25 36.77-11.6 70.13 3.85 94.38L4.69 484.69c-6.25 6.25-6.25 16.38 0 22.62C7.81 510.44 11.91 512 16 512s8.19-1.56 11.31-4.69l53.21-53.21c24.24 15.45 57.61 17.09 94.38 3.85 19.31-7.29 53.57 21.39 92.19 21.39 53.74 0 75.17-39.08 65.41-74.01 11.37 1.23 114.53 19.42 129.09-54.28 1.42-7.19 5.05-30.31-17.53-58.26 36.51-20.69 72.51-39.37 67.46-85.62zm-41.18 30.61c-5.96 6.43-12.2 10.09-75.13 45.99 23.41 28.45 22.54 27.29 25.54 31.12 21.12 27.08 4.55 45.26-10.47 53.84-24 13.73-40.15 8.24-139.22-1.97 0 0 26.31 37.53 27.06 38.86 16.36 28.49-10.66 48.05-44.53 40.27-15.59-3.58-31.98-12.57-50-17.59-37.01-10.42-70.39 16.78-99.94 2.68l227.66-227.66c6.25-6.25 6.25-16.38 0-22.62-6.25-6.25-16.38-6.25-22.63 0L81.02 408.35c-14.09-29.55 13.1-62.93 2.68-99.94-5.02-18.02-14-34.41-17.59-50-7.79-33.87 11.77-60.89 40.26-44.53 1.33.75 38.86 27.06 38.86 27.06-10.21-99.07-15.7-115.21-1.96-139.22 8.58-15.03 26.76-31.59 53.84-10.47 3.84 2.99 2.68 2.12 31.13 25.53 35.9-62.92 39.56-69.16 45.99-75.12 19.92-18.42 48.37-9 59.66 17.06 6.3 14.35 22.94 21.65 38.73 17.1 24.38-7.15 43.5-4.29 55.35 8.22 12.51 11.85 15.37 30.97 8.22 55.34-4.56 15.8 2.75 32.44 17.09 38.73 26.06 11.3 35.48 39.75 17.06 59.67z"/></svg>