<svg xmlns="http://www.w3.org/2000/svg" viewBox="0 0 512 512"><!-- Font Awesome Pro 5.15.4 by @fontawesome - https://fontawesome.com License - https://fontawesome.com/license (Commercial License) --><path d="M489.038 22.963C473.784 7.709 454.948 0 437.954 0c-8.734 0-16.98 2.035-24.007 6.129-58.912 34.315-181.245-53.083-321.073 86.745C-46.948 232.697 40.441 355.041 6.129 413.945c-12.059 20.702-6.26 51.999 16.833 75.093 23.08 23.08 54.378 28.899 75.095 16.832 58.902-34.31 181.245 53.081 321.068-86.743C558.949 279.304 471.56 156.96 505.871 98.056c12.059-20.702 6.261-51.999-16.833-75.093zM478.22 81.95c-44.546 76.475 49.666 183.163-81.721 314.55-131.434 131.434-238.029 37.148-314.547 81.72-20.528 11.956-60.128-27.64-48.171-48.167 44.547-76.475-49.667-183.163 81.721-314.55C246.942-15.939 353.523 78.359 430.053 33.78c19.978-11.637 60.439 27.102 48.167 48.17zm-218.749 29.669c-31.89 7.086-64.973 26.511-93.157 54.694-28.184 28.185-47.608 61.268-54.694 93.157-1.657 7.457-8.271 12.533-15.604 12.533-1.149 0-2.316-.125-3.485-.385-8.626-1.917-14.065-10.464-12.148-19.09 8.391-37.756 30.872-76.41 63.306-108.843 32.433-32.434 71.087-54.915 108.843-63.306 8.628-1.919 17.173 3.522 19.09 12.148s-3.525 17.175-12.151 19.092z"/></svg>