<svg xmlns="http://www.w3.org/2000/svg" viewBox="0 0 512 512"><!-- Font Awesome Pro 5.15.4 by @fontawesome - https://fontawesome.com License - https://fontawesome.com/license (Commercial License) --><path d="M256 8C119.033 8 8 119.033 8 256s111.033 248 248 248 248-111.033 248-248S392.967 8 256 8zm168.766 113.176l-62.885 62.885a128.711 128.711 0 0 0-33.941-33.941l62.885-62.885a217.323 217.323 0 0 1 33.941 33.941zM256 352c-52.935 0-96-43.065-96-96s43.065-96 96-96 96 43.065 96 96-43.065 96-96 96zM363.952 68.853l-66.14 66.14c-26.99-9.325-56.618-9.33-83.624 0l-66.139-66.14c66.716-38.524 149.23-38.499 215.903 0zM121.176 87.234l62.885 62.885a128.711 128.711 0 0 0-33.941 33.941l-62.885-62.885a217.323 217.323 0 0 1 33.941-33.941zm-52.323 60.814l66.139 66.14c-9.325 26.99-9.33 56.618 0 83.624l-66.139 66.14c-38.523-66.715-38.5-149.229 0-215.904zm18.381 242.776l62.885-62.885a128.711 128.711 0 0 0 33.941 33.941l-62.885 62.885a217.366 217.366 0 0 1-33.941-33.941zm60.814 52.323l66.139-66.14c26.99 9.325 56.618 9.33 83.624 0l66.14 66.14c-66.716 38.524-149.23 38.499-215.903 0zm242.776-18.381l-62.885-62.885a128.711 128.711 0 0 0 33.941-33.941l62.885 62.885a217.323 217.323 0 0 1-33.941 33.941zm52.323-60.814l-66.14-66.14c9.325-26.99 9.33-56.618 0-83.624l66.14-66.14c38.523 66.715 38.5 149.229 0 215.904z"/></svg>