<svg xmlns="http://www.w3.org/2000/svg" viewBox="0 0 512 512"><!-- Font Awesome Pro 5.15.4 by @fontawesome - https://fontawesome.com License - https://fontawesome.com/license (Commercial License) --><path d="M272,192.74V0H240V192.74C117.11,200.21,17.4,292.62.32,411.64-2.43,430.83,13,448,32.56,448H177.62a80,80,0,0,0,156.76,0H479.44c19.56,0,35-17.18,32.24-36.37C494.6,292.62,394.89,200.21,272,192.74ZM256,480a48,48,0,0,1-45.24-32h90.48A48,48,0,0,1,256,480ZM32,416.18C47.72,306.62,144,224,256,224s208.28,82.61,223.44,192Z"/></svg>