<svg xmlns="http://www.w3.org/2000/svg" viewBox="0 0 640 512"><!-- Font Awesome Pro 5.15.4 by @fontawesome - https://fontawesome.com License - https://fontawesome.com/license (Commercial License) --><path d="M224 119.3l25.4 20C262.7 113.7 289.2 96 320 96c8.8 0 16-7.2 16-16s-7.2-16-16-16c-41 0-76.5 22.4-96 55.3zM320 32c79.4 0 144 64.6 144 144 0 59.1-35.3 94.4-40.3 100.5l25 19.7c2.9-3.5 47.3-47.1 47.3-120.3C496 78.8 417.2 0 320 0c-75.1 0-123.2 43.4-146.9 79.2L198.3 99c19.2-30.3 58.8-67 121.7-67zm317 453.2L23 1.8C19.6-1 14.5-.5 11.8 3l-10 12.5C-1 19-.4 24 3 26.7l614 483.5c3.4 2.8 8.5 2.2 11.2-1.2l10-12.5c2.8-3.5 2.3-8.5-1.2-11.3zM262.2 352c-14.3-33.2-36.6-65.4-50.6-81.3-16.2-18.5-27-40.6-32.1-64.2l-35.3-27.8c.7 43.3 16.8 82.8 43.3 113.1 25.7 29.3 50.3 76.9 52.4 92.2l.1 75.2c0 3.1.9 6.2 2.7 8.8l24.5 36.8c3 4.5 8 7.1 13.3 7.1h78.9c5.4 0 10.4-2.7 13.3-7.1l24.5-36.8c1.7-2.6 2.7-5.7 2.7-8.8l.1-75.2c.1-.4.9-2.6 1-3.1L364.3 352zm105.7 102.3l-17 25.7h-61.7l-17.1-25.7V448H368v6.3zm.1-38.3h-96l-.1-32H368z"/></svg>