<svg xmlns="http://www.w3.org/2000/svg" viewBox="0 0 352 512"><!-- Font Awesome Pro 5.15.4 by @fontawesome - https://fontawesome.com License - https://fontawesome.com/license (Commercial License) --><path d="M176 248c-13.25 0-24 10.74-24 24 0 13.25 10.75 24 24 24s24-10.75 24-24c0-13.26-10.75-24-24-24zm-16.47-31.5c.26 4.22 3.76 7.5 7.98 7.5h16.97a8 8 0 0 0 7.98-7.5l7-112c.29-4.61-3.37-8.5-7.98-8.5h-30.97c-4.61 0-8.27 3.89-7.98 8.5l7 112zM176 0C73.05 0-.12 83.54 0 176.24c.06 44.28 16.5 84.67 43.56 115.54C69.21 321.03 93.85 368.68 96 384l.06 75.18c0 3.15.94 6.22 2.68 8.84l24.51 36.84c2.97 4.46 7.97 7.14 13.32 7.14h78.85c5.36 0 10.36-2.68 13.32-7.14l24.51-36.84c1.74-2.62 2.67-5.7 2.68-8.84L256 384c2.26-15.72 26.99-63.19 52.44-92.22C335.55 260.85 352 220.37 352 176 352 78.8 273.2 0 176 0zm47.94 454.31L206.85 480h-61.71l-17.09-25.69-.01-6.31h95.9v6.31zm.04-38.31h-95.97l-.07-32h96.08l-.04 32zm60.4-145.32c-13.99 15.96-36.33 48.1-50.58 81.31H118.21c-14.26-33.22-36.59-65.35-50.58-81.31C44.5 244.3 32.13 210.85 32.05 176 31.87 99.01 92.43 32 176 32c79.4 0 144 64.6 144 144 0 34.85-12.65 68.48-35.62 94.68z"/></svg>