<svg xmlns="http://www.w3.org/2000/svg" viewBox="0 0 352 512"><!-- Font Awesome Pro 5.15.4 by @fontawesome - https://fontawesome.com License - https://fontawesome.com/license (Commercial License) --><path d="M203.09 183.42l-45-13.5c-5.16-1.55-8.77-6.78-8.77-12.73 0-7.27 5.3-13.19 11.8-13.19h28.11c4.56 0 8.96 1.29 12.82 3.72 3.24 2.03 7.36 1.91 10.13-.73l11.75-11.21c3.53-3.37 3.33-9.21-.57-12.14-9.1-6.83-20.08-10.77-31.37-11.35V96c0-4.42-3.58-8-8-8h-16c-4.42 0-8 3.58-8 8v16.12c-23.62.63-42.67 20.55-42.67 45.07 0 19.97 12.98 37.81 31.58 43.39l45 13.5c5.16 1.55 8.77 6.78 8.77 12.73 0 7.27-5.3 13.19-11.8 13.19h-28.11c-4.56 0-8.96-1.29-12.82-3.72-3.24-2.03-7.36-1.91-10.13.73l-11.75 11.21c-3.53 3.37-3.33 9.21.57 12.14 9.1 6.83 20.08 10.77 31.37 11.35V288c0 4.42 3.58 8 8 8h16c4.42 0 8-3.58 8-8v-16.12c23.62-.63 42.67-20.54 42.67-45.07 0-19.97-12.98-37.81-31.58-43.39zM176 0C73.05 0-.12 83.54 0 176.24c.06 44.28 16.5 84.67 43.56 115.54C69.21 321.03 93.85 368.68 96 384l.06 75.18c0 3.15.94 6.22 2.68 8.84l24.51 36.84c2.97 4.46 7.97 7.14 13.32 7.14h78.85c5.36 0 10.36-2.68 13.32-7.14l24.51-36.84c1.74-2.62 2.67-5.7 2.68-8.84L256 384c2.26-15.72 26.99-63.19 52.44-92.22C335.55 260.85 352 220.37 352 176 352 78.8 273.2 0 176 0zm47.94 454.31L206.85 480h-61.71l-17.09-25.69-.01-6.31h95.9v6.31zm.04-38.31h-95.97l-.07-32h96.08l-.04 32zm60.4-145.32c-13.99 15.96-36.33 48.1-50.58 81.31H118.21c-14.26-33.22-36.59-65.35-50.58-81.31C44.5 244.3 32.13 210.85 32.05 176 31.87 99.01 92.43 32 176 32c79.4 0 144 64.6 144 144 0 34.85-12.65 68.48-35.62 94.68z"/></svg>