<svg xmlns="http://www.w3.org/2000/svg" viewBox="0 0 384 512"><!-- Font Awesome Pro 5.15.4 by @fontawesome - https://fontawesome.com License - https://fontawesome.com/license (Commercial License) --><path d="M256,96H128a32,32,0,0,0-32,32V384a32,32,0,0,0,32,32H256a32,32,0,0,0,32-32V128A32,32,0,0,0,256,96Zm0,288H128V272H256Zm0-144H128V128H256ZM320,0H64A64,64,0,0,0,0,64V448a64,64,0,0,0,64,64H320a64,64,0,0,0,64-64V64A64,64,0,0,0,320,0Zm32,448a32,32,0,0,1-32,32H214.38a23.7,23.7,0,0,0,1.61-8,24,24,0,0,0-48,0,23.47,23.47,0,0,0,1.62,8H64a32,32,0,0,1-32-32V64A32,32,0,0,1,64,32H169.61A23.47,23.47,0,0,0,168,40a24,24,0,0,0,48,0,23.7,23.7,0,0,0-1.61-8H320a32,32,0,0,1,32,32Z"/></svg>