<svg xmlns="http://www.w3.org/2000/svg" viewBox="0 0 640 512"><!-- Font Awesome Pro 5.15.4 by @fontawesome - https://fontawesome.com License - https://fontawesome.com/license (Commercial License) --><path d="M638.3 77l-4.1-7c-3.4-5.7-10.6-7.6-16.5-4.4-83.2 46-188.4 71.3-297.8 71.3S105.4 111.6 22.2 65.6C16.4 62.3 9.1 64.2 5.8 70l-4.1 7C-1.7 82.9.2 90.5 6.2 93.8c44.5 24.7 94.9 43.6 148.6 56.4l-9.7 23.1-7.4-3.1c-12.2-5.1-26.3.6-31.4 12.8l-21.6 51.4c-18.2 5.5-34.4 19.8-45.4 45.9-20.6 48.9 7.9 129.6 21.2 135.2 13.3 5.6 90.9-30.4 111.5-79.3 11-26.1 9.9-47.6 1.1-64.5l21.6-51.4c5.1-12.2-.6-26.3-12.8-31.4l-7.4-3.1 12.2-28.9c38 7.1 77.3 11.1 117.3 12V192h-8c-13.2 0-24 10.8-24 24v55.8c-14.6 12.2-24 31.6-24 59.9 0 53 57.6 116.4 72 116.4s72-63.3 72-116.4c0-28.3-9.4-47.7-24-59.9V216c0-13.2-10.8-24-24-24h-8v-23.2c40-.9 79.3-4.8 117.3-12l12.2 28.9-7.4 3.1c-12.2 5.1-17.9 19.2-12.8 31.4l21.6 51.4c-8.8 16.9-9.9 38.4 1.1 64.5 20.6 48.9 98.2 84.9 111.5 79.3 13.3-5.6 41.8-86.3 21.2-135.2-11-26.1-27.2-40.3-45.4-45.9L533.8 183c-5.1-12.2-19.2-17.9-31.4-12.8l-7.4 3.1-9.7-23.1c53.8-12.8 104.1-31.8 148.6-56.4 5.9-3.4 7.8-11 4.4-16.8zM142.5 323.7c-10.5 25-46.3 47.6-67.2 56.4-8.3-21.2-17.1-62.5-6.6-87.5 11.6-27.4 28.6-35.3 53.8-24.7s31.5 28.4 20 55.8zm6.6-77.7c-4.4-2.8-9.1-5.4-14.2-7.5-5.1-2.1-10.2-3.7-15.3-4.9l13-30.8 29.5 12.4-13 30.8zm422.2 46.7c10.5 25 1.7 66.3-6.6 87.5-20.9-8.9-56.6-31.4-67.2-56.4-11.6-27.4-5.2-45.1 19.9-55.7 25.2-10.7 42.3-2.9 53.9 24.6zm-63.9-89.9l13 30.8c-5.1 1.2-10.2 2.7-15.3 4.9-5.1 2.1-9.8 4.7-14.2 7.5l-13-30.8 29.5-12.4zM304 224h32v33.4c-5.2-.9-10.5-1.4-16-1.4s-10.8.5-16 1.4V224zm56 107.6c0 27.1-24.2 61.8-40 78.1-15.8-16.3-40-51-40-78.1 0-29.8 12.7-43.6 40-43.6s40 13.9 40 43.6z"/></svg>