<svg xmlns="http://www.w3.org/2000/svg" viewBox="0 0 640 512"><!-- Font Awesome Pro 5.15.4 by @fontawesome - https://fontawesome.com License - https://fontawesome.com/license (Commercial License) --><path d="M545.25 219c-17.56-7.56-65.56-25.33-131.97-26.89-29.09-.26-43.57 13.79-93.28 13.79-49.64 0-64.6-14.04-93.28-13.79-66.41 1.56-114.41 19.33-131.97 26.89-6.13 2.62-10.53 8.09-11.72 14.62-1.22 6.53.94 13.22 5.78 17.89 115.97 113.38 347.91 111.91 462.38 0 4.84-4.67 7-11.36 5.78-17.89-1.19-6.53-5.59-12-11.72-14.62zM320 304c-100.16 0-164.34-38.81-194.19-62.55 91.6-30.58 135.94-10.52 137.28-10.19 17.59 4.41 37.25 6.61 56.91 6.61s39.31-2.21 56.91-6.61c1.34-.33 45.68-20.39 137.28 10.19C484.34 265.19 420.16 304 320 304zm311.14-108.32C579.47 109.99 466.31 32 417.72 32c0 0-32.57 0-97.72 50-65.15-50-97.72-50-97.72-50-48.59 0-161.75 77.99-213.42 163.68-10.32 17.11-11.63 37.99-3.89 56.38C32.95 318.51 117.59 480 279.28 480h81.43c161.69 0 246.33-161.49 274.32-227.95 7.74-18.38 6.43-39.26-3.89-56.37zm-25.6 43.95C579.16 302.28 502.49 448 360.72 448h-81.43C137.51 448 60.84 302.28 34.46 239.63c-3.85-9.15-3.19-19.14 1.8-27.43 48.4-80.28 151.23-146.83 184.99-148.18 27.32 4.25 64.82 32.28 98.74 58.31 33.92-26.04 71.42-54.07 98.74-58.31 33.77 1.35 136.59 67.9 184.99 148.18 5.01 8.29 5.67 18.29 1.82 27.43z"/></svg>