<svg xmlns="http://www.w3.org/2000/svg" viewBox="0 0 384 512"><!-- Font Awesome Pro 5.15.4 by @fontawesome - https://fontawesome.com License - https://fontawesome.com/license (Commercial License) --><path d="M371.994 255.681h-16.255c-6.398 0-11.706 5.02-11.983 11.412-4.877 112.517-82.255 173.397-188.949 173.397h-46.834V240.396l170.631-37.918a12 12 0 0 0 9.397-11.714v-8.195c0-7.677-7.109-13.38-14.603-11.714l-165.425 36.761v-47.219l170.631-37.918a12 12 0 0 0 9.397-11.714v-8.195c0-7.677-7.109-13.38-14.603-11.714l-165.425 36.761V44c0-6.627-5.373-12-12-12H76c-6.627 0-12 5.373-12 12v93.387L9.397 149.521A12 12 0 0 0 0 161.235v8.196c0 7.677 7.109 13.379 14.603 11.714L64 170.168v47.219L9.397 229.521A12 12 0 0 0 0 241.235v8.195c0 7.677 7.109 13.38 14.603 11.714L64 250.168V468c0 6.627 5.373 12 12 12h83.268c130.519 0 219.608-76.854 224.724-211.914.256-6.78-5.213-12.405-11.998-12.405z"/></svg>