<svg xmlns="http://www.w3.org/2000/svg" viewBox="0 0 512 512"><!-- Font Awesome Pro 5.15.4 by @fontawesome - https://fontawesome.com License - https://fontawesome.com/license (Commercial License) --><path d="M88 56H40a16 16 0 0 0-16 16v48a16 16 0 0 0 16 16h48a16 16 0 0 0 16-16V72a16 16 0 0 0-16-16zm0 160H40a16 16 0 0 0-16 16v48a16 16 0 0 0 16 16h48a16 16 0 0 0 16-16v-48a16 16 0 0 0-16-16zm0 160H40a16 16 0 0 0-16 16v48a16 16 0 0 0 16 16h48a16 16 0 0 0 16-16v-48a16 16 0 0 0-16-16zm416 24H168a8 8 0 0 0-8 8v16a8 8 0 0 0 8 8h336a8 8 0 0 0 8-8v-16a8 8 0 0 0-8-8zm0-320H168a8 8 0 0 0-8 8v16a8 8 0 0 0 8 8h336a8 8 0 0 0 8-8V88a8 8 0 0 0-8-8zm0 160H168a8 8 0 0 0-8 8v16a8 8 0 0 0 8 8h336a8 8 0 0 0 8-8v-16a8 8 0 0 0-8-8z"/></svg>