<svg xmlns="http://www.w3.org/2000/svg" viewBox="0 0 640 512"><!-- Font Awesome Pro 5.15.4 by @fontawesome - https://fontawesome.com License - https://fontawesome.com/license (Commercial License) --><path d="M284.5 167l32.2 25.4c1.1-.1 2.1-.3 3.3-.3 31.3 0 57.3 22.6 62.8 52.4l31.8 25.1c.6-4.4 1.4-8.8 1.4-13.4 0-53-43-96-96-96-12.6-.2-24.5 2.4-35.5 6.8zM320 96c88.2 0 160 71.8 160 160 0 19.9-4.1 38.8-10.8 56.4l26.2 20.6c8.3-19 14-39.4 15.8-61H568c4.4 0 8-3.6 8-8v-16c0-4.4-3.6-8-8-8h-56.8c-7.7-93.2-82-167.5-175.2-175.2V8c0-4.4-3.6-8-8-8h-16c-4.4 0-8 3.6-8 8v56.8c-37.5 3.1-71.6 17.3-99.9 38.8l25.8 20.3C255.6 106.4 286.6 96 320 96zm0 320c-88.2 0-160-71.8-160-160 0-19.9 4.1-38.8 10.8-56.4L144.6 179c-8.3 19-14 39.4-15.8 61H72c-4.4 0-8 3.6-8 8v16c0 4.4 3.6 8 8 8h56.8c7.7 93.2 82 167.5 175.2 175.2V504c0 4.4 3.6 8 8 8h16c4.4 0 8-3.6 8-8v-56.8c37.5-3.1 71.6-17.3 99.9-38.9L410.1 388c-25.7 17.6-56.7 28-90.1 28zm317 69.2L23 1.8C19.6-1 14.5-.5 11.8 3l-10 12.5C-1 19-.4 24 3 26.7l614 483.5c3.4 2.8 8.5 2.2 11.2-1.2l10-12.5c2.8-3.5 2.3-8.5-1.2-11.3zM355.5 345l-32.2-25.4c-1.1.1-2.1.3-3.3.3-31.3 0-57.3-22.6-62.8-52.4l-31.8-25.1c-.6 4.4-1.4 8.8-1.4 13.4 0 53 43 96 96 96 12.6.2 24.5-2.4 35.5-6.8z"/></svg>