<svg xmlns="http://www.w3.org/2000/svg" viewBox="0 0 640 512"><!-- Font Awesome Pro 5.15.4 by @fontawesome - https://fontawesome.com License - https://fontawesome.com/license (Commercial License) --><path d="M227 417c-11 0-20-9-20-20v-64c0-11 9-20 20-20s20 9 20 20v64c0 11-9 20-20 20zM480.5 0C392-.3 320 71.6 320 160v64H48c-26.5 0-48 21.5-48 48v192c0 26.5 21.5 48 48 48h352c26.5 0 48-21.5 48-48V272c0-26.5-21.5-48-48-48h-48v-62.6c0-70.7 56.7-129 127.3-129.4C550.2 31.6 608 89.2 608 160v84c0 6.6 5.4 12 12 12h8c6.6 0 12-5.4 12-12v-82.5C640 73.1 568.9.3 480.5 0zM400 256c8.8 0 16 7.2 16 16v192c0 8.8-7.2 16-16 16H48c-8.8 0-16-7.2-16-16V272c0-8.8 7.2-16 16-16h352z"/></svg>