<svg xmlns="http://www.w3.org/2000/svg" viewBox="0 0 576 512"><!-- Font Awesome Pro 5.15.4 by @fontawesome - https://fontawesome.com License - https://fontawesome.com/license (Commercial License) --><path d="M569.348 231.63C512.998 135.99 407.86 72 288 72c-36.303 0-71.26 5.877-103.93 16.722L121.889 4.913c-4-5.391-11.612-6.519-17.003-2.519l-6.507 4.828c-5.391 4-6.519 11.613-2.519 17.004l56.926 76.726C91.489 128.594 40.334 174.447 6.637 231.631c-8.979 15.238-8.719 33.949.004 48.739 30.605 51.943 75.611 94.537 129.537 122.627C29.589 259.268 39.873 273.724 34.215 264.124a16.006 16.006 0 0 1 0-16.247 287.008 287.008 0 0 1 16.929-25.491L204.72 429.39c15 3.91 30.42 6.78 46.18 8.54L72.243 197.124a293.367 293.367 0 0 1 33.449-30.602L308.14 439.39c12.42-.74 24.66-2.18 36.68-4.27L131.942 148.202a293.06 293.06 0 0 1 7.594-4.553 292.057 292.057 0 0 1 32.824-16.313l281.751 379.751c4 5.391 11.612 6.519 17.003 2.519l6.507-4.828c5.391-4 6.519-11.613 2.519-17.004l-56.917-76.714c61.284-27.629 112.419-73.491 146.124-130.69a47.961 47.961 0 0 0 .001-48.74zM362.31 328.959l-38.511-51.906c27.52-18.592 35.914-54.676 20.671-83.193v.02c0 14.56-11.8 26.36-26.35 26.36-14.56 0-26.36-11.8-26.36-26.36 0-14.55 11.8-26.35 26.36-26.35h.02c-22.278-11.908-50.192-9.748-70.538 6.823l-34.7-46.77C233.992 112.746 259.945 104 288 104c70.69 0 128 55.52 128 124 0 41.637-21.187 78.478-53.69 100.959zm179.47-64.839c-31.903 54.148-80.569 96.241-138.133 120.555l-22.24-29.975c74.24-52.148 88.248-153.521 32.713-222.709 54.32 25.45 98.59 66.55 127.66 115.89a15.958 15.958 0 0 1 0 16.239z"/></svg>