<svg xmlns="http://www.w3.org/2000/svg" viewBox="0 0 640 512"><!-- Font Awesome Pro 5.15.4 by @fontawesome - https://fontawesome.com License - https://fontawesome.com/license (Commercial License) --><path d="M224 352h320c17.67 0 32-14.33 32-32V128c0-17.67-14.33-32-32-32h-64V48c0-26.51-21.49-48-48-48h-96c-26.51 0-48 21.49-48 48v48h-64c-17.67 0-32 14.33-32 32v192c0 17.67 14.33 32 32 32zm256-224h64v192h-64V128zM320 48c0-8.84 7.16-16 16-16h96c8.84 0 16 7.16 16 16v48H320V48zm0 80h128v192H320V128zm-96 0h64v192h-64V128zm408 288H128V8c0-4.42-3.58-8-8-8H8C3.58 0 0 3.58 0 8v16c0 4.42 3.58 8 8 8h88v408c0 4.42 3.58 8 8 8h58.94c-1.79 5.03-2.94 10.36-2.94 16 0 26.51 21.49 48 48 48s48-21.49 48-48c0-5.64-1.15-10.97-2.94-16h197.88c-1.79 5.03-2.94 10.36-2.94 16 0 26.51 21.49 48 48 48s48-21.49 48-48c0-5.64-1.15-10.97-2.94-16H632c4.42 0 8-3.58 8-8v-16c0-4.42-3.58-8-8-8zm-424 64c-8.82 0-16-7.18-16-16s7.18-16 16-16 16 7.18 16 16-7.18 16-16 16zm288 0c-8.82 0-16-7.18-16-16s7.18-16 16-16 16 7.18 16 16-7.18 16-16 16z"/></svg>