<svg xmlns="http://www.w3.org/2000/svg" viewBox="0 0 640 512"><!-- Font Awesome Pro 5.15.4 by @fontawesome - https://fontawesome.com License - https://fontawesome.com/license (Commercial License) --><path d="M636.11 390.15c-21.68-81.3-56.08-159.15-102.08-231.02C511.89 124.56 497.93 96 453.92 96c-38.72 0-70.1 29.42-70.1 65.71v75.36l-47.81-31.85V8c0-4.42-3.59-8-8.01-8h-16.01c-4.42 0-8.01 3.58-8.01 8v197.22l-47.81 31.85v-75.36c0-36.29-31.38-65.71-70.1-65.71-44.01 0-57.97 28.56-80.1 63.13-46 71.87-80.4 149.72-102.08 231.02C1.3 399.84 0 409.79 0 419.79 0 472.11 45.66 512 98.13 512c18.1 0 24.47-2.87 86.74-19.55 42.21-11.3 71.31-47.47 71.31-88.61v-89.87l-32.02 21.33v68.54c0 26.47-19.56 50.2-47.57 57.7C112.18 478.79 110.55 480 98.13 480c-36.45 0-66.11-27.01-66.11-60.21 0-7.2.95-14.4 2.81-21.39 20.85-78.18 53.86-152.87 98.12-222.01 27.82-43.94 32.14-48.38 53.13-48.38 21 0 38.08 15.12 38.08 33.71v96.69l-98.51 65.63c-3.68 2.45-4.67 7.42-2.22 11.1l8.88 13.31c2.45 3.68 7.42 4.67 11.1 2.22L320 233.01l176.59 117.65c3.68 2.45 8.65 1.46 11.1-2.22l8.88-13.31a8.006 8.006 0 0 0-2.22-11.1l-98.51-65.63v-96.69c0-18.59 17.08-33.71 38.08-33.71 20.99 0 25.31 4.44 53.13 48.38 44.25 69.14 77.27 143.84 98.12 222.01a83.248 83.248 0 0 1 2.81 21.39c0 33.2-29.66 60.21-66.11 60.21-12.42 0-14.05-1.21-78.45-18.46-28.01-7.5-47.57-31.23-47.57-57.7V335.3l-32.02-21.33v89.87c0 41.15 29.1 77.31 71.31 88.61 62.27 16.68 68.64 19.55 86.74 19.55 52.47 0 98.13-39.89 98.13-92.21-.01-10-1.31-19.95-3.9-29.64z"/></svg>