<svg xmlns="http://www.w3.org/2000/svg" viewBox="0 0 512 512"><!-- Font Awesome Pro 5.15.4 by @fontawesome - https://fontawesome.com License - https://fontawesome.com/license (Commercial License) --><path d="M501.02 198.92l-71.37-14.29c-9.77-52.76-51.8-93.84-104.93-102.54l-15.77-71.25c-3.21-14.52-11.27-14.44-14.18.14l-14.29 71.39c-52.64 9.81-93.62 51.75-102.36 104.75l-71.26 15.77c-14.52 3.21-14.44 11.27.14 14.18l71.37 14.29c1.7 9.17 4.68 17.81 8.22 26.17L4.69 439.43c-6.25 6.25-6.25 16.38 0 22.63l45.26 45.26c6.25 6.25 16.38 6.25 22.63 0l182-182.02c9.04 3.8 18.43 6.92 28.38 8.58l15.78 71.28c3.21 14.52 11.27 14.44 14.18-.14l14.29-71.36c52.79-9.7 93.92-51.68 102.68-104.79l71.26-15.77c14.53-3.21 14.44-11.26-.13-14.18zM61.25 473.37l-22.63-22.63 164.53-164.53c6.58 8.45 14.27 15.96 22.74 22.51L61.25 473.37zM304 304c-53.02 0-96-42.98-96-96s42.98-96 96-96 96 42.98 96 96-42.98 96-96 96zm0-144c-26.47 0-48 21.53-48 48s21.53 48 48 48 48-21.53 48-48-21.53-48-48-48zm0 64c-8.81 0-16-7.17-16-16s7.19-16 16-16 16 7.17 16 16-7.19 16-16 16z"/></svg>