<svg xmlns="http://www.w3.org/2000/svg" viewBox="0 0 256 512"><!-- Font Awesome Pro 5.15.4 by @fontawesome - https://fontawesome.com License - https://fontawesome.com/license (Commercial License) --><path d="M198.746 140.274C209.582 125.647 216 107.56 216 88c0-48.523-39.477-88-88-88S40 39.477 40 88c0 19.56 6.418 37.647 17.254 52.274C28.585 150.478 8 177.873 8 210v105c0 24.74 17.041 45.576 40 51.387V459c0 29.224 23.776 53 53 53h54c29.224 0 53-23.776 53-53v-92.613c22.959-5.812 40-26.647 40-51.387V210c0-32.127-20.585-59.522-49.254-69.726zM128 32c30.928 0 56 25.072 56 56s-25.072 56-56 56-56-25.072-56-56 25.072-56 56-56zm88 283c0 11.598-9.402 21-21 21h-19v123c0 11.598-9.402 21-21 21h-54c-11.598 0-21-9.402-21-21V336H61c-11.598 0-21-9.402-21-21V210c0-23.196 18.804-42 42-42h9.36c22.711 10.443 49.59 10.894 73.28 0H174c23.196 0 42 18.804 42 42v105z"/></svg>