<svg xmlns="http://www.w3.org/2000/svg" viewBox="0 0 384 512"><!-- Font Awesome Pro 5.15.4 by @fontawesome - https://fontawesome.com License - https://fontawesome.com/license (Commercial License) --><path d="M192 0C86.4 0 0 86.4 0 192c0 76.8 25.6 99.2 172.8 310.4 4.8 6.4 12 9.6 19.2 9.6s14.4-3.2 19.2-9.6C358.4 291.2 384 268.8 384 192 384 86.4 297.6 0 192 0zm.01 474c-19.67-28.17-37.09-52.85-52.49-74.69C42.64 261.97 32 245.11 32 192c0-88.22 71.78-160 160-160s160 71.78 160 160c0 53.11-10.64 69.97-107.52 207.31-15.52 22.01-33.09 46.91-52.47 74.69zM256 184c13.25 0 24-10.75 24-24 0-13.26-10.75-24-24-24s-24 10.74-24 24c0 13.25 10.75 24 24 24zm11.84 53.34C249.03 259.38 221.41 272 192 272s-57.03-12.62-75.84-34.64c-5.72-6.73-15.84-7.44-22.53-1.78-6.75 5.75-7.53 15.84-1.78 22.56C116.72 287.28 153.22 304 192 304s75.28-16.72 100.16-45.88c5.75-6.72 4.94-16.83-1.78-22.56-6.66-5.72-16.79-4.94-22.54 1.78zM128 184c13.25 0 24-10.75 24-24 0-13.26-10.75-24-24-24s-24 10.74-24 24c0 13.25 10.75 24 24 24z"/></svg>