<svg xmlns="http://www.w3.org/2000/svg" viewBox="0 0 384 512"><!-- Font Awesome Pro 5.15.4 by @fontawesome - https://fontawesome.com License - https://fontawesome.com/license (Commercial License) --><path d="M192 0C86.4 0 0 86.4 0 192c0 76.8 25.6 99.2 172.8 310.4 4.8 6.4 12 9.6 19.2 9.6s14.4-3.2 19.2-9.6C358.4 291.2 384 268.8 384 192 384 86.4 297.6 0 192 0zm.01 474c-19.67-28.17-37.09-52.85-52.49-74.69C42.64 261.97 32 245.11 32 192c0-88.22 71.78-160 160-160s160 71.78 160 160c0 53.11-10.64 69.97-107.52 207.31-15.52 22.01-33.09 46.92-52.47 74.69zm73.53-344.23l-11.31-11.31c-1.56-1.56-3.61-2.34-5.66-2.34s-4.1.78-5.66 2.34L192 169.37l-50.91-50.91c-1.56-1.56-3.61-2.34-5.66-2.34s-4.09.78-5.66 2.34l-11.31 11.31c-3.12 3.12-3.12 8.19 0 11.31L169.37 192l-50.91 50.91c-3.12 3.12-3.12 8.19 0 11.31l11.31 11.31c1.56 1.56 3.61 2.34 5.66 2.34s4.1-.78 5.66-2.34l50.91-50.9 50.91 50.91c1.56 1.56 3.61 2.34 5.66 2.34s4.09-.78 5.66-2.34l11.31-11.31c3.12-3.12 3.12-8.19 0-11.31L214.63 192l50.91-50.91a8.015 8.015 0 0 0 0-11.32z"/></svg>