<svg xmlns="http://www.w3.org/2000/svg" viewBox="0 0 640 512"><!-- Font Awesome Pro 5.15.4 by @fontawesome - https://fontawesome.com License - https://fontawesome.com/license (Commercial License) --><path d="M320 32c88.2 0 160 71.8 160 160 0 34.7-4.7 54.1-34.8 101.5l25.3 19.9C503.9 261.2 512 235.2 512 192 512 86.4 425.6 0 320 0c-61.7 0-116.7 29.7-151.9 75.3l25.4 20C222.7 57.1 268.3 32 320 32zm74 221.1c13.6-16.5 22-37.6 22-61.1 0-53.8-42.2-96-96-96-31.9 0-59.5 15.1-76.8 38.4l25.1 19.8c11.5-15.9 30.1-26.2 51.7-26.2 35.9 0 64 28.1 64 64 0 16-5.8 30.2-15.2 41.3zm-21.5 146.2c-15.5 22-33.1 46.9-52.5 74.7-19.7-28.2-37.1-52.9-52.5-74.7C170.6 262 160 245.1 160 192c0-.3.1-.5.1-.8l-30.3-23.9c-1.1 8.1-1.8 16.3-1.8 24.7 0 76.8 25.6 99.2 172.8 310.4 4.8 6.4 12 9.6 19.2 9.6s14.4-3.2 19.2-9.6c30.8-44.1 56-79.7 77-109.6L391 373c-5.8 8.3-11.9 17-18.5 26.3zM637 485.2L23 1.8C19.6-1 14.5-.5 11.8 3l-10 12.5C-1 19-.4 24 3 26.7l614 483.5c3.4 2.8 8.5 2.2 11.2-1.2l10-12.5c2.8-3.5 2.3-8.5-1.2-11.3z"/></svg>