<svg xmlns="http://www.w3.org/2000/svg" viewBox="0 0 576 512"><!-- Font Awesome Pro 5.15.4 by @fontawesome - https://fontawesome.com License - https://fontawesome.com/license (Commercial License) --><path d="M560 160c-2 0-4 .4-6 1.2L384 224l-10.3-3.6C397 185.5 416 149.2 416 123 416 55 358.7 0 288 0S160 55.1 160 123c0 11.8 4 25.8 10.4 40.6L20.1 216C8 220.8 0 232.6 0 245.7V496c0 9.2 7.5 16 16 16 2 0 4-.4 6-1.2L192 448l172 60.7c13 4.3 27 4.4 40 .2L555.9 456c12.2-4.9 20.1-16.6 20.1-29.7V176c0-9.2-7.5-16-16-16zM176 419.8L31.9 473l-1.3-226.9L176 195.6zM288 32c52.9 0 96 40.8 96 91 0 27-38.1 88.9-96 156.8-57.9-67.9-96-129.8-96-156.8 0-50.2 43.1-91 96-91zm80 444.2l-160-56.5V228.8c24.4 35.3 52.1 68 67.7 85.7 3.2 3.7 7.8 5.5 12.3 5.5s9-1.8 12.3-5.5c12.8-14.5 33.7-39.1 54.3-66.9l13.4 4.7zm32 .2V252.2L544.1 199l1.3 226.9zM312 128c0-13.3-10.8-24-24-24s-24 10.7-24 24c0 13.2 10.8 24 24 24s24-10.7 24-24z"/></svg>