<svg xmlns="http://www.w3.org/2000/svg" viewBox="0 0 512 512"><!-- Font Awesome Pro 5.15.4 by @fontawesome - https://fontawesome.com License - https://fontawesome.com/license (Commercial License) --><path d="M421.4 0c-23.17 0-46.33 8.84-64 26.52l-6.28 6.28-23.43-23.43c-12.5-12.5-32.75-12.5-45.25 0L152.36 139.48c-3.12 3.12-3.12 8.19 0 11.31l11.31 11.31c3.12 3.12 8.19 3.12 11.31 0L305.07 32l23.42 23.43-234.55 234.6A327.069 327.069 0 0 0 .18 485.12l-.03.23C-1.45 499.72 9.88 512 23.94 512c.89 0 1.78-.05 2.69-.15a326.972 326.972 0 0 0 195.3-93.8L485.4 154.54C542.54 97.38 501.35 0 421.4 0zM199.31 395.42c-44.99 45-103.91 74.41-166.07 83.39 9.13-62.64 38.49-121.32 83.32-166.16l78.71-78.72 82.75 82.77-78.71 78.72zm263.46-263.51L300.64 294.07l-82.75-82.77L380.02 49.14C391.07 38.09 405.77 32 421.4 32c32.32 0 58.52 26.16 58.52 58.53-.01 15.63-6.09 30.33-17.15 41.38z"/></svg>