<svg xmlns="http://www.w3.org/2000/svg" viewBox="0 0 480 512"><!-- Font Awesome Pro 5.15.4 by @fontawesome - https://fontawesome.com License - https://fontawesome.com/license (Commercial License) --><path d="M474.9 247.5l-62.2-62.2c-4.7-4.7-12.3-4.7-17 0L390 191c-4.7 4.7-4.7 12.3 0 17l32.1 32.1H352v-44c0-6.6-5.4-12-12-12h-8c-6.6 0-12 5.4-12 12v44h-32.9c-3.5-31.4-17.2-61.8-41.3-85.8-56.2-56.2-147.4-56.2-203.6 0-56.2 56.2-56.2 147.4 0 203.6 56.2 56.2 147.4 56.2 203.6 0 24-24 37.8-54.5 41.3-85.8H320v44c0 6.6 5.4 12 12 12h8c6.6 0 12-5.4 12-12v-44h70.2l-32.1 32.1c-4.7 4.7-4.7 12.3 0 17l5.7 5.7c4.7 4.7 12.3 4.7 17 0l62.2-62.2c4.6-4.9 4.6-12.5-.1-17.2zM144 368c-61.9 0-112-50-112-112 0-61.9 50-112 112-112 61.9 0 112 50 112 112 0 61.9-50 112-112 112z"/></svg>