<svg xmlns="http://www.w3.org/2000/svg" viewBox="0 0 512 512"><!-- Font Awesome Pro 5.15.4 by @fontawesome - https://fontawesome.com License - https://fontawesome.com/license (Commercial License) --><path d="M288 208c0-34-11.8-65.2-31.5-89.9L320 54.6V100c0 6.6 5.4 12 12 12h8c6.6 0 12-5.4 12-12V12c0-6.6-5.4-12-12-12h-88c-6.6 0-12 5.4-12 12v8c0 6.6 5.4 12 12 12h45.4l-63.5 63.5C209.2 75.8 178 64 144 64 64.5 64 0 128.5 0 208s64.5 144 144 144 144-64.5 144-144zM144 320c-61.9 0-112-50-112-112 0-61.9 50-112 112-112 61.9 0 112 50 112 112 0 61.9-50 112-112 112zm368-148v88c0 6.6-5.4 12-12 12h-8c-6.6 0-12-5.4-12-12v-45.4l-63.5 63.5C436.2 302.8 448 334 448 368c0 79.5-64.5 144-144 144-74.4 0-135.6-56.4-143.2-128.8 10.7-1 21.2-3 31.6-6C197 434.7 245.1 480 304 480c62 0 112-50.1 112-112 0-59-45.4-107-102.8-111.6 3-10.4 4.9-20.9 6-31.6 28.1 2.9 53.8 14 74.7 30.7l63.5-63.5H412c-6.6 0-12-5.4-12-12v-8c0-6.6 5.4-12 12-12h88c6.6 0 12 5.4 12 12z"/></svg>