<svg xmlns="http://www.w3.org/2000/svg" viewBox="0 0 640 512"><!-- Font Awesome Pro 5.15.4 by @fontawesome - https://fontawesome.com License - https://fontawesome.com/license (Commercial License) --><path d="M320.67 64c-442.6 0-357.57 384-158.46 384 39.9 0 77.47-20.69 101.42-55.86l25.73-37.79c7.83-11.5 19.57-17.25 31.31-17.25 11.74 0 23.49 5.75 31.31 17.25l25.73 37.79C401.66 427.31 439.23 448 479.13 448c189.86 0 290.63-384-158.46-384zm158.46 349.09c-29.61 0-57.92-15.61-75.72-41.76l-25.73-37.79c-13.56-19.92-34.34-31.34-57-31.34-22.67 0-43.44 11.42-57 31.34l-25.73 37.79c-17.8 26.15-46.11 41.76-75.73 41.76C84.32 413.09 32 340.54 32 272.77c0-31.04 10.25-75.99 59.07-113.92 50.48-39.22 129.87-59.94 229.6-59.94 100.06 0 179.35 20.29 229.31 58.66C597.93 194.41 608 238.62 608 269.21c0 68.05-52.92 143.88-128.87 143.88zM192 186.18c-46.93 0-77.44 29.93-91.52 47.89-5.97 7.62-5.97 18.78 0 26.39 14.08 17.96 44.59 47.89 91.52 47.89s77.44-29.93 91.52-47.89c5.97-7.62 5.97-18.78 0-26.39-14.08-17.96-44.59-47.89-91.52-47.89zm0 87.27c-26.83 0-46.54-13.8-58.82-26.18 12.28-12.38 32-26.18 58.82-26.18s46.54 13.8 58.82 26.18c-12.28 12.38-31.99 26.18-58.82 26.18zm256-87.27c-46.93 0-77.44 29.93-91.52 47.89-5.97 7.62-5.97 18.78 0 26.39 14.08 17.96 44.59 47.89 91.52 47.89s77.44-29.93 91.52-47.89c5.97-7.62 5.97-18.78 0-26.39-14.08-17.96-44.59-47.89-91.52-47.89zm0 87.27c-26.83 0-46.54-13.8-58.82-26.18 12.28-12.38 32-26.18 58.82-26.18 26.83 0 46.54 13.8 58.82 26.18-12.28 12.38-31.99 26.18-58.82 26.18z"/></svg>