<svg xmlns="http://www.w3.org/2000/svg" viewBox="0 0 512 512"><!-- Font Awesome Pro 5.15.4 by @fontawesome - https://fontawesome.com License - https://fontawesome.com/license (Commercial License) --><path d="M343 115.9c-9.81 9.8-5.83 29.67 8.88 44.37s34.57 18.68 44.38 8.87 5.83-29.67-8.88-44.37-34.63-18.67-44.38-8.87zm100.67-47.32l-.05-.06C388.15 13.07 330.39 0 298.94 0 260.32 0 237 19.06 230.22 25.85 191.52 64.53 128 139.63 128 209.45v82.28l-11.47 11.48c-3.14 3.14-9.11 5.32-17.21 2.06A72.48 72.48 0 0 0 0 372.66c0 21.53 15.57 69.06 67.66 71.67C69.63 483.7 102 512 139.28 512c51.81 0 86.19-52.22 67.34-99.41-1-2.53-3.88-11.28 2-17.21L220.05 384h82.59c69.84 0 145-63.46 183.65-102.15 55.27-55.27 12.22-158.4-42.62-213.27zM302.64 352H206.8l-20.72 20.73c-13.08 13.08-16.61 32.86-9.15 51.74 23.45 58.7-74.31 78.88-77.34 18.26l-1.45-28.91-28.88-1.45c-50.58-2.54-49-80.3 3.2-80.3a40 40 0 0 1 15 2.89c17.7 7.13 38 4.7 51.76-9.12L160 305v-95.55c0-37.67 27-88.94 73.31-140.37a118.4 118.4 0 0 0 1.08 40.14c7.35 36.69 29.64 75.82 61.17 107.33 40 40 89.81 63.82 133.32 63.82a102.3 102.3 0 0 0 13.57-1.08C391.22 325.19 340.19 352 302.64 352zm161-115.42C440.24 260 374 249.7 318.17 193.91 264.46 140.22 250.94 73 275.49 48.46 298.92 25 365.19 35.35 421 91.13c53.84 53.87 66.93 121.19 42.67 145.45z"/></svg>