<svg xmlns="http://www.w3.org/2000/svg" viewBox="0 0 640 512"><!-- Font Awesome Pro 5.15.4 by @fontawesome - https://fontawesome.com License - https://fontawesome.com/license (Commercial License) --><path d="M608 0s-32 46.33-32 64 14.33 32 32 32 32-14.33 32-32-32-64-32-64zm-96 96c17.67 0 32-14.33 32-32S512 0 512 0s-32 46.33-32 64 14.33 32 32 32zm-96 0c17.67 0 32-14.33 32-32S416 0 416 0s-32 46.33-32 64 14.33 32 32 32zm-96 0c17.67 0 32-14.33 32-32S320 0 320 0s-32 46.33-32 64 14.33 32 32 32zm-96 0c17.67 0 32-14.33 32-32S224 0 224 0s-32 46.33-32 64 14.33 32 32 32zm-96 0c17.67 0 32-14.33 32-32S128 0 128 0 96 46.33 96 64s14.33 32 32 32zM64 64C64 46.33 32 0 32 0S0 46.33 0 64s14.33 32 32 32 32-14.33 32-32zm552 64h-16c-4.42 0-8 3.58-8 8v168c0 26.51-21.49 48-48 48H336V136c0-4.42-3.58-8-8-8h-16c-4.42 0-8 3.58-8 8v216H96c-26.51 0-48-21.49-48-48V136c0-4.42-3.58-8-8-8H24c-4.42 0-8 3.58-8 8v168c0 44.18 35.82 80 80 80h208v96H104c-4.42 0-8 3.58-8 8v16c0 4.42 3.58 8 8 8h432c4.42 0 8-3.58 8-8v-16c0-4.42-3.58-8-8-8H336v-96h208c44.18 0 80-35.82 80-80V136c0-4.42-3.58-8-8-8zm-112 0c-4.42 0-8 3.58-8 8v184h32V136c0-4.42-3.58-8-8-8h-16zm-384 0c-4.42 0-8 3.58-8 8v184h32V136c0-4.42-3.58-8-8-8h-16zm288 0c-4.42 0-8 3.58-8 8v184h32V136c0-4.42-3.58-8-8-8h-16zm-192 0c-4.42 0-8 3.58-8 8v184h32V136c0-4.42-3.58-8-8-8h-16z"/></svg>