<svg xmlns="http://www.w3.org/2000/svg" viewBox="0 0 288 512"><!-- Font Awesome Pro 5.15.4 by @fontawesome - https://fontawesome.com License - https://fontawesome.com/license (Commercial License) --><path d="M288 208c0-57-33.1-106.2-81.1-129.6 24-14.9 40.9-37.9 45.3-64.5C253.4 6.6 247.7 0 240.3 0h-8.1c-5.7 0-10.7 4.1-11.8 9.7C214.8 40.4 182.7 64 144 64S73.2 40.4 67.6 9.7C66.6 4 61.6 0 55.8 0h-8.1c-7.4 0-13.1 6.6-11.9 13.9 4.4 26.6 21.3 49.7 45.3 64.5C33.1 101.8 0 151 0 208c0 74.2 56.2 135.3 128.3 143.1-.2.9-.3 1.8-.3 2.7V416H76c-6.6 0-12 5.4-12 12v8c0 6.6 5.4 12 12 12h52v52c0 6.6 5.4 12 12 12h8c6.6 0 12-5.4 12-12v-52h52c6.6 0 12-5.4 12-12v-8c0-6.6-5.4-12-12-12h-52v-62.2c0-.9-.1-1.8-.3-2.7C231.8 343.3 288 282.2 288 208zM144 320c-61.9 0-112-50-112-112 0-61.9 50-112 112-112 61.9 0 112 50 112 112 0 61.9-50 112-112 112z"/></svg>