<svg xmlns="http://www.w3.org/2000/svg" viewBox="0 0 512 512"><!-- Font Awesome Pro 5.15.4 by @fontawesome - https://fontawesome.com License - https://fontawesome.com/license (Commercial License) --><path d="M510.97268,31.81922C501.16,64.21764,477.1594,140.996,452.15883,199.185c2.90631.89041,5.50012,1.70271,7.90643,2.39a31.03387,31.03387,0,0,1,19.5942,17.69885,31.36973,31.36973,0,0,1-1.18753,26.39987c-22.59427,43.19268-81.22061,149.96374-139.5032,208.24652a198.87529,198.87529,0,0,1-280.91271,0c-77.408-77.38754-77.408-203.45081,0-280.83835C116.36986,114.79916,223.15357,56.11022,266.37331,33.61566a30.5167,30.5167,0,0,1,26.3756-1.18721,31.09638,31.09638,0,0,1,17.71916,19.589c.68752,2.40567,1.59379,4.99879,2.40631,7.90434,58.50134-25.30638,135.09685-49.0975,167.37884-58.892a24.72164,24.72164,0,0,1,30.71946,30.78943ZM476.06563,35.9276C435.65845,48.31523,360.75048,72.51251,309.3743,96.60043l-16.90664,7.90434-5.21887-17.99565c-2.78132-9.70078-5.37513-18.4018-7.37517-24.99395C239.24769,83.80665,135.74531,140.5898,80.65029,195.68585c-64.90774,64.87494-64.90774,170.55252,0,235.53681s170.72267,64.89056,235.59916,0c55.12627-55.08044,111.90883-158.55542,133.72183-200.45154-6.00014-.79668-14.71909-3.38981-24.40681-6.20163l-18.00042-5.18624,7.90643-16.90217C439.37728,151.49341,463.75284,76.30847,476.06563,35.9276Zm-148.19091,276.027c0,70.57668-57.40757,127.96906-128.00294,127.96906a127.96906,127.96906,0,1,1,0-255.93812C270.46715,183.98556,327.96847,241.47166,327.87472,311.95462Zm-32.00073.09372a96.00221,96.00221,0,1,0-96.00221,95.9768C252.873,408.02514,295.96774,364.94181,295.874,312.04834Zm-88.002-32.086a24.00055,24.00055,0,1,1-24.00055-23.9942A23.95369,23.95369,0,0,1,207.872,279.96235Zm32.00074,72.07633a16.00037,16.00037,0,1,1-16.00037-15.99614A16.04933,16.04933,0,0,1,239.8727,352.03868Z"/></svg>