<svg xmlns="http://www.w3.org/2000/svg" viewBox="0 0 512 512"><!-- Font Awesome Pro 5.15.4 by @fontawesome - https://fontawesome.com License - https://fontawesome.com/license (Commercial License) --><path d="M475.78 33.5a122.38 122.38 0 0 0-170.45 2.13l-28.77 28.68a121 121 0 0 0-35.66 85.08L12.06 406.85a47.88 47.88 0 0 0 2 65.71l25.46 25.38a48.27 48.27 0 0 0 65.93 2l150.42-133.6V504a8 8 0 0 0 8 8H280a8 8 0 0 0 8-8V338l75.85-66.08a121.82 121.82 0 0 0 85.37-35.54l25.09-25C523 162.86 525.64 80.79 475.78 33.5zM84.25 476a16.08 16.08 0 0 1-22-.68l-25.44-25.39a16 16 0 0 1-.72-21.86l219.39-246.83 76.4 76.13zM426.5 213.74a89.56 89.56 0 0 1-62.92 26.17h-3.8L273 153.42v-3.78a88.92 88.92 0 0 1 26.27-62.7l11.06-11 127.24 126.77zm33.28-34.14L333.52 53.77A89.34 89.34 0 0 1 459.78 179.6z"/></svg>