<svg xmlns="http://www.w3.org/2000/svg" viewBox="0 0 512 512"><!-- Font Awesome Pro 5.15.4 by @fontawesome - https://fontawesome.com License - https://fontawesome.com/license (Commercial License) --><path d="M480,64H32A32,32,0,0,0,0,96V416a32,32,0,0,0,32,32H48l24,32h48l24-32H368l24,32h48l24-32h16a32,32,0,0,0,32-32V96A32,32,0,0,0,480,64Zm0,352H32V96H480ZM432,256a16,16,0,1,0-16-16A16,16,0,0,0,432,256Zm0-64a16,16,0,1,0-16-16A16,16,0,0,0,432,192ZM96,384H352a32,32,0,0,0,32-32V160a32,32,0,0,0-32-32H96a32,32,0,0,0-32,32V352A32,32,0,0,0,96,384Zm0-224H352V352H96Z"/></svg>