<svg xmlns="http://www.w3.org/2000/svg" viewBox="0 0 512 512"><!-- Font Awesome Pro 5.15.4 by @fontawesome - https://fontawesome.com License - https://fontawesome.com/license (Commercial License) --><path d="M456 416h-40.99C454.22 386.81 480 340.52 480 288c0-88.22-71.78-160-160-160V64c0-17.67-14.33-32-32-32V16c0-8.84-7.16-16-16-16h-96c-8.84 0-16 7.16-16 16v16c-17.67 0-32 14.33-32 32v224c0 17.67 14.33 32 32 32v48c0 8.84 7.16 16 16 16h96c8.84 0 16-7.16 16-16v-48c17.67 0 32-14.33 32-32V160c70.59 0 128 57.42 128 128s-57.41 128-128 128H56c-30.88 0-56 25.12-56 56 0 22.06 17.94 40 40 40h432c22.06 0 40-17.94 40-40 0-30.88-25.12-56-56-56zm-200-64h-64v-32h64v32zm32-64H160V64h32V32h64v32h32v224zm184 192H40c-4.42 0-8-3.58-8-8 0-13.26 10.75-24 24-24h400c13.25 0 24 10.74 24 24 0 4.42-3.58 8-8 8z"/></svg>