<svg xmlns="http://www.w3.org/2000/svg" viewBox="0 0 640 512"><!-- Font Awesome Pro 5.15.4 by @fontawesome - https://fontawesome.com License - https://fontawesome.com/license (Commercial License) --><path d="M288.1 272.6V76c0-24.3 19.8-44 44.2-44 30.7 0 39.9 22.5 45.8 45.5l12.7-.3h.4c25.9 0 45.5 19.7 45.5 43.8 0 6.2-1.7 11.9-4.2 22.8 22.4 9.1 40.8 20.7 47 42.9 2.8-1.7 5.2-3.7 8.3-5 3.6-1.5 7.3-2.6 11.1-3.4 3.7-.8 7.5-1.2 11.3-1.3-8.5-26.1-28.2-44.4-41.5-52 2.7-37.7-25.9-74.3-66.7-79.4C390 18.2 362.8 0 332.2 0 307.6 0 286 11.9 272 29.9 258 11.9 236.4 0 211.8 0c-30.6 0-57.7 18.2-69.7 45.6-40.8 5.1-69.3 41.7-66.7 79.4-21 12.2-58.6 50.9-41.1 105.3C12.9 247.4 0 273.4 0 301c0 32.7 17.4 62.4 45.3 78.5-2.3 48.2 36.7 88.7 84.9 87.4 14.2 27.4 42.6 45 74.1 45 19.1 0 36.5-6.8 50.6-17.7-6.3-8.7-11.8-17.9-16.2-27.6-9.1 8.2-21.1 13.3-34.3 13.3-31.9 0-44.2-21.8-53.1-48.2-16.3 2.7-18.3 3.2-22.2 3.2-28.5 0-51.7-23.1-51.7-51.5 0-6.2.9-9.1 3.7-23-25.6-10.4-49-24.1-49-59.4 0-33.9 23-46.9 42.9-58.3-12.6-25.7-12.8-29.2-12.8-39.2 0-33.9 21.9-48.5 49.4-59.7-2.5-10.9-4.2-16.6-4.2-22.8 0-24.1 19.6-43.8 45.5-43.8h.4l12.7.3c5.9-22.9 15-45.5 45.8-45.5 24.3 0 44.2 19.7 44.2 44v228.4c9-12.1 20-22.7 32.1-31.8zm342.2 40.6l-96-95.2c-9.2-9.2-22.4-11.7-34.3-6.8-12.1 5.1-19.9 17-19.9 30.4v31.2h-97.2c-6.1-.1-12 0-18.1 1-53.8 7.9-97.5 50.6-106.7 103.9 0 .2-.1.5-.2.7-8.4 50.3 13.2 100.9 55.2 128.8 4.8 3.2 10.2 4.8 15.6 4.8 18.7 0 32.6-18.9 26.3-37.6-4.3-12.8-4.9-39.6 7.4-56.9 8.1-11.2 20.4-16.7 37.7-16.7h80V432c0 13.4 7.8 25.3 19.9 30.4 11.9 5 25.1 2.4 34.3-6.8l96-95.2c6.2-6.2 9.7-14.6 9.7-23.5s-3.4-17.4-9.7-23.7zM512 432v-63.2H400c-34.8 0-53.8 16.3-63.7 30-17 23.7-18.3 54.4-14.5 75-25.5-21.8-38.1-56-32.4-90.1 6.7-40.2 39.6-72.3 80-78.2 4.4-.7 8.7-.6 14.7-.6h128l-.3-64.1 96 95.2-95.8 96z"/></svg>