<svg xmlns="http://www.w3.org/2000/svg" viewBox="0 0 512 512"><!-- Font Awesome Pro 5.15.4 by @fontawesome - https://fontawesome.com License - https://fontawesome.com/license (Commercial License) --><path d="M361.5 14.1c-9-9-21.2-14.1-33.9-14.1H184.5c-12.7 0-24.9 5.1-33.9 14.1L14.1 150.5c-9 9-14.1 21.2-14.1 33.9v143.1c0 12.7 5.1 24.9 14.1 33.9l136.5 136.5c9 9 21.2 14.1 33.9 14.1h143.1c12.7 0 24.9-5.1 33.9-14.1L498 361.4c9-9 14.1-21.2 14.1-33.9v-143c0-12.7-5.1-24.9-14.1-33.9L361.5 14.1zM480 327.5c0 4.3-1.7 8.3-4.7 11.3L338.9 475.3c-3 3-7 4.7-11.3 4.7H184.5c-4.3 0-8.3-1.7-11.3-4.7L36.7 338.9c-3-3-4.7-7-4.7-11.3V184.5c0-4.3 1.7-8.3 4.7-11.3L173.1 36.7c3-3 7-4.7 11.3-4.7h143.1c4.3 0 8.3 1.7 11.3 4.7l136.5 136.5c3 3 4.7 7 4.7 11.3v143zM140 274c-6.6 0-12-5.4-12-12v-12c0-6.6 5.4-12 12-12h232c6.6 0 12 5.4 12 12v12c0 6.6-5.4 12-12 12H140z"/></svg>