<svg xmlns="http://www.w3.org/2000/svg" viewBox="0 0 576 512"><!-- Font Awesome Pro 5.15.4 by @fontawesome - https://fontawesome.com License - https://fontawesome.com/license (Commercial License) --><path d="M542.1 197.4c-29-29-104.4-41.3-143.9-45.8L304 57.4V8c0-4.4-3.6-8-8-8h-16c-4.4 0-8 3.6-8 8v49.4l-94.2 94.2c-39.5 4.6-114.9 16.9-143.9 45.8-40 40-45.4 99.4-12.1 132.7C36.5 344.8 56.3 352 77.2 352c26.6 0 55-11.5 77.4-33.9 14.9-14.9 25.3-42 32.6-70.2 5.6 4.9 12.7 8.1 20.8 8.1 17.7 0 32-14.3 32-32s-14.3-32-32-32c-3.6 0-6.9 1-10.2 2.1 1.1-7.3 1.9-13.9 2.6-19.9l71.6-71.6v170.5c-27.3 30.4-80 94.5-80 136.4 0 56.6 43 102.4 96 102.4s96-45.8 96-102.4c0-41.9-52.7-106-80-136.4V102.6l71.6 71.6c4.6 39.5 16.9 114.9 45.8 143.9 22.4 22.4 50.8 33.9 77.4 33.9 20.9 0 40.7-7.2 55.4-21.8 33.3-33.4 27.9-92.8-12.1-132.8zM132 295.5C116.4 311.1 96.4 320 77.2 320c-9.2 0-22.4-2.2-32.7-12.5C24 287.1 29.6 247 56.5 220c16.5-16.5 66.2-28.7 110.4-35-6.1 44.2-18.3 93.9-34.9 110.5zm220 114.1c0 38.8-28.7 70.4-64 70.4s-64-31.6-64-70.4c0-23.5 32.9-70.4 64-106.4 31.1 36 64 82.8 64 106.4zm179.5-102.1C521.2 317.8 508 320 498.8 320c-19.2 0-39.2-8.9-54.8-24.5-16.5-16.5-28.7-66.2-35-110.4 44.2 6.2 93.8 18.4 110.4 35 27 26.9 32.6 67 12.1 87.4zM384 64c17.7 0 32-14.3 32-32S401.7 0 384 0s-32 14.3-32 32 14.3 32 32 32z"/></svg>