<svg xmlns="http://www.w3.org/2000/svg" viewBox="0 0 320 512"><!-- Font Awesome Pro 5.15.4 by @fontawesome - https://fontawesome.com License - https://fontawesome.com/license (Commercial License) --><path d="M192 416c0 17.7-14.3 32-32 32s-32-14.3-32-32 14.3-32 32-32 32 14.3 32 32zm32-320H96v240h128V96m20-32c6.6 0 12 5.4 12 12v280c0 6.6-5.4 12-12 12H76c-6.6 0-12-5.4-12-12V76c0-6.6 5.4-12 12-12h168zm76-16v416c0 26.5-21.5 48-48 48H48c-26.5 0-48-21.5-48-48V48C0 21.5 21.5 0 48 0h224c26.5 0 48 21.5 48 48zm-32 0c0-8.8-7.2-16-16-16H48c-8.8 0-16 7.2-16 16v416c0 8.8 7.2 16 16 16h224c8.8 0 16-7.2 16-16V48z"/></svg>