<svg xmlns="http://www.w3.org/2000/svg" viewBox="0 0 640 512"><!-- Font Awesome Pro 5.15.4 by @fontawesome - https://fontawesome.com License - https://fontawesome.com/license (Commercial License) --><path d="M320 144c-53 0-96 50.1-96 112 0 61.8 43 112 96 112s96-50.1 96-112-43-112-96-112zm0 192c-35.3 0-64-35.9-64-80s28.7-80 64-80 64 35.9 64 80-28.7 80-64 80zM608 64H32C14.3 64 0 78.3 0 96v320c0 17.7 14.3 32 32 32h576c17.7 0 32-14.3 32-32V96c0-17.7-14.3-32-32-32zM32 96h64c0 35.3-28.7 64-64 64V96zm0 320v-64c35.3 0 64 28.7 64 64H32zm576 0h-64c0-35.3 28.7-64 64-64v64zm0-96c-52.9 0-96 43.1-96 96H128c0-52.9-43.1-96-96-96V192c52.9 0 96-43.1 96-96h384c0 52.9 43.1 96 96 96v128zm0-160c-35.3 0-64-28.7-64-64h64v64z"/></svg>