<svg xmlns="http://www.w3.org/2000/svg" viewBox="0 0 640 512"><!-- Font Awesome Pro 5.15.4 by @fontawesome - https://fontawesome.com License - https://fontawesome.com/license (Commercial License) --><path d="M425.23 406.49A32.06 32.06 0 0 0 448 416h64a32 32 0 0 0 32-32v-64a32 32 0 0 0-9.5-22.76L246.68 12.07a41.15 41.15 0 0 0-58.24 0l-48.38 48.4A41.48 41.48 0 0 0 128 89.89 40.68 40.68 0 0 0 140.34 119zM289.46 100L512 320v64h-64L228.1 161.4l61.36-61.4zM162.69 83.09l48.39-48.4A9.21 9.21 0 0 1 217.6 32a9 9 0 0 1 6.45 2.69l44.53 44.54-61.36 61.38-44.53-44.54a9.18 9.18 0 0 1 0-12.98zM224 408a8 8 0 0 0 8 8h157.61l-31.71-32H232a8 8 0 0 0-8 8zm8-88h62.49l-31.71-32H232a8 8 0 0 0-8 8v16a8 8 0 0 0 8 8zm376-192H409.15l32.3 32H608v320H32V160h104l-18-18.12A73.25 73.25 0 0 1 107.13 128H32a32 32 0 0 0-32 32v320a32 32 0 0 0 32 32h576a32 32 0 0 0 32-32V160a32 32 0 0 0-32-32zM136 424h16a8 8 0 0 0 8-8v-16.12c23.62-.63 42.67-20.54 42.67-45.07 0-20-13-37.81-31.58-43.39l-45-13.5c-5.16-1.54-8.77-6.78-8.77-12.73 0-7.27 5.29-13.19 11.79-13.19h28.11a24 24 0 0 1 12.82 3.72 8.21 8.21 0 0 0 10.13-.73l11.75-11.21a8 8 0 0 0-.57-12.14A57.15 57.15 0 0 0 160 240.29V224a8 8 0 0 0-8-8h-16a8 8 0 0 0-8 8v16.12c-23.62.63-42.67 20.55-42.67 45.07 0 20 13 37.81 31.58 43.39l45 13.5c5.16 1.54 8.77 6.78 8.77 12.73 0 7.27-5.29 13.19-11.79 13.19h-28.12a24.08 24.08 0 0 1-12.77-3.72 8.21 8.21 0 0 0-10.13.73l-11.8 11.21a8 8 0 0 0 .57 12.14A57.23 57.23 0 0 0 128 399.71V416a8 8 0 0 0 8 8z"/></svg>