<svg xmlns="http://www.w3.org/2000/svg" viewBox="0 0 640 512"><!-- Font Awesome Pro 5.15.4 by @fontawesome - https://fontawesome.com License - https://fontawesome.com/license (Commercial License) --><path d="M320 144c-53.02 0-96 50.14-96 112 0 61.85 42.98 112 96 112 53 0 96-50.13 96-112 0-61.86-42.98-112-96-112zm0 192c-35.29 0-64-35.89-64-80s28.71-80 64-80 64 35.89 64 80-28.71 80-64 80zM621.16 54.46C582.37 38.19 543.55 32 504.75 32c-123.17-.01-246.33 62.34-369.5 62.34C70.34 94.34 46.9 79 32.25 79 15.04 79 0 92.32 0 110.81v317.26c0 12.63 7.23 24.6 18.84 29.46C57.63 473.81 96.45 480 135.25 480c123.17 0 246.33-62.35 369.5-62.35 64.91 0 88.34 15.35 103 15.35 17.21 0 32.25-13.32 32.25-31.81V83.93c0-12.64-7.23-24.6-18.84-29.47zm-22.69 344c-16.94-4.79-45.28-12.8-93.72-12.8-65.57 0-130.15 16.34-192.6 32.15-61.35 15.53-119.3 30.2-176.9 30.2-37.96 0-71.99-6.53-103.25-19.93l-.49-317.1c1.55.18 6.25 1.51 10.02 2.57 16.93 4.79 45.28 12.8 93.71 12.8 65.57 0 130.14-16.35 192.59-32.15C389.2 78.66 447.15 64 504.75 64c37.97 0 72 6.54 103.25 19.93l.49 317.1c-1.55-.18-6.25-1.51-10.02-2.57z"/></svg>