<svg xmlns="http://www.w3.org/2000/svg" viewBox="0 0 640 512"><!-- Font Awesome Pro 5.15.4 by @fontawesome - https://fontawesome.com License - https://fontawesome.com/license (Commercial License) --><path d="M608 64H32C14.3 64 0 78.3 0 96v320c0 17.7 14.3 32 32 32h576c17.7 0 32-14.3 32-32V96c0-17.7-14.3-32-32-32zM32 96h64c0 35.3-28.7 64-64 64zm0 320v-64c35.3 0 64 28.7 64 64zm576 0h-64c0-35.3 28.7-64 64-64zm0-96c-52.9 0-96 43.1-96 96H128c0-52.9-43.1-96-96-96V192c52.9 0 96-43.1 96-96h384c0 52.9 43.1 96 96 96zm0-160c-35.3 0-64-28.7-64-64h64zm-288-32c-61.9 0-112 57.3-112 128s50.1 128 112 128c61.8 0 112-57.3 112-128s-50.1-128-112-128zm0 224c-44.1 0-80-43.1-80-96s35.9-96 80-96 80 43.1 80 96-35.9 96-80 96zm32-63.9h-16v-88c0-4.4-3.6-8-8-8h-13.7c-4.7 0-9.4 1.4-13.3 4l-15.3 10.2c-3.7 2.5-4.6 7.4-2.2 11.1l8.9 13.3c2.5 3.7 7.4 4.6 11.1 2.2l.5-.3V288h-16c-4.4 0-8 3.6-8 8v16c0 4.4 3.6 8 8 8h64c4.4 0 8-3.6 8-8v-16c0-4.4-3.6-8-8-7.9z"/></svg>