<svg xmlns="http://www.w3.org/2000/svg" viewBox="0 0 640 512"><!-- Font Awesome Pro 5.15.4 by @fontawesome - https://fontawesome.com License - https://fontawesome.com/license (Commercial License) --><path d="M624 32H16C7.16 32 0 39.16 0 48v400c0 17.67 14.33 32 32 32h576c17.67 0 32-14.33 32-32V48c0-8.84-7.16-16-16-16zm-16 416H32V160h576v288zm0-320H32V64h576v64zM104 384h144c4.42 0 8-3.58 8-8v-16c0-4.42-3.58-8-8-8H104c-4.42 0-8 3.58-8 8v16c0 4.42 3.58 8 8 8zm288 0h144c4.42 0 8-3.58 8-8v-16c0-4.42-3.58-8-8-8H392c-4.42 0-8 3.58-8 8v16c0 4.42 3.58 8 8 8zm-288-96h208c4.42 0 8-3.58 8-8v-16c0-4.42-3.58-8-8-8H104c-4.42 0-8 3.58-8 8v16c0 4.42 3.58 8 8 8zm296 0h128c8.84 0 16-7.16 16-16v-64c0-8.84-7.16-16-16-16H400c-8.84 0-16 7.16-16 16v64c0 8.84 7.16 16 16 16zm16-64h96v32h-96v-32z"/></svg>