<svg xmlns="http://www.w3.org/2000/svg" viewBox="0 0 576 512"><!-- Font Awesome Pro 5.15.4 by @fontawesome - https://fontawesome.com License - https://fontawesome.com/license (Commercial License) --><path d="M544 0H32C14.33 0 0 14.33 0 32v448c0 17.67 14.33 32 32 32h512c17.67 0 32-14.33 32-32V32c0-17.67-14.33-32-32-32zm0 480H32V272h134.12l43.56 87.16c2.72 5.45 8.28 8.84 14.31 8.84.38 0 .75-.02 1.12-.05 6.47-.45 12-4.75 14.06-10.89L288 210.59l16.81 50.45c2.18 6.54 8.3 10.95 15.19 10.95h152c4.42 0 8-3.58 8-8v-16c0-4.42-3.58-8-8-8H331.53l-28.34-85.06c-4.38-13.06-26-13.06-30.38 0L221.03 310.3l-30.72-61.45a15.996 15.996 0 0 0-14.31-8.84H32V32h512v448z"/></svg>