<svg xmlns="http://www.w3.org/2000/svg" viewBox="0 0 512 512"><!-- Font Awesome Pro 5.15.4 by @fontawesome - https://fontawesome.com License - https://fontawesome.com/license (Commercial License) --><path d="M448.964 365.617C348.188 384.809 255.14 307.765 255.14 205.419c0-58.893 31.561-112.832 82.574-141.862 25.83-14.7 19.333-53.859-10.015-59.28A258.114 258.114 0 0 0 280.947 0c-141.334 0-256 114.546-256 256 0 141.334 114.547 256 256 256 78.931 0 151.079-35.924 198.85-94.783 18.846-23.22-1.706-57.149-30.833-51.6zM280.947 480c-123.712 0-224-100.288-224-224s100.288-224 224-224c13.984 0 27.665 1.294 40.94 3.745-58.972 33.56-98.747 96.969-98.747 169.674 0 122.606 111.613 214.523 231.81 191.632C413.881 447.653 351.196 480 280.947 480z"/></svg>