<svg xmlns="http://www.w3.org/2000/svg" viewBox="0 0 576 512"><!-- Font Awesome Pro 5.15.4 by @fontawesome - https://fontawesome.com License - https://fontawesome.com/license (Commercial License) --><path d="M320 300.8c0-45.4-36.6-82.4-81.8-83.2-16.1-34.1-50.8-57.6-90.2-57.6-41.7 0-77.6 25.2-92.5 62.5C23 233.9 0 264.6 0 300.8 0 346.7 37.3 384 83.2 384h153.6c45.9 0 83.2-37.3 83.2-83.2zM236.8 352H83.2C54.9 352 32 329.1 32 300.8c0-27.5 21.8-49.8 49-51 4.9-32.7 32.9-57.8 67-57.8 35.8 0 64.8 27.8 67.5 62.9 6.5-3.1 13.6-5.3 21.3-5.3 28.3 0 51.2 22.9 51.2 51.2S265.1 352 236.8 352zm336.8-.8c-4.1-8.6-12.4-13.9-21.8-13.9-1.5 0-3 .1-4.6.4-7.7 1.5-15.5 2.2-23.2 2.2-67 0-121.5-54.7-121.5-121.9 0-43.7 23.6-84.3 61.6-106 8.9-5.1 13.6-15 11.9-25.1-1.7-10.2-9.4-17.9-19.5-19.8-11.5-2.1-23.3-3.2-35-3.2-76.6 0-142.7 45.3-173.4 110.5 3.5 4.1 6.8 8.5 9.8 13 5.9 1.1 11.6 2.8 17.1 4.8C299.7 135.8 356 96 421.5 96c3 0 5.9.1 8.9.2-37.4 28.9-59.9 73.9-59.9 121.9C370.5 303 439.4 372 524 372c2.6 0 5.2-.1 7.8-.2C502.2 400.1 463 416 421.5 416c-38.4 0-73.2-14.2-100.8-36.9-7.6 8.1-16.3 14.9-25.9 20.6 33.8 29.9 78.1 48.2 126.7 48.2 58.1 0 112.4-25.9 149-71.1 6-7.2 7.2-17.1 3.1-25.6z"/></svg>