<svg xmlns="http://www.w3.org/2000/svg" viewBox="0 0 512 512"><!-- Font Awesome Pro 5.15.4 by @fontawesome - https://fontawesome.com License - https://fontawesome.com/license (Commercial License) --><path d="M504 192H390.63L497.36 85.27c24.11-24.11 17.51-64.75-12.98-80A49.957 49.957 0 0 0 462.05 0c-10.62 0-21.16 3.38-29.98 9.99L189.39 192H8c-4.42 0-8 3.58-8 8v16c0 4.42 3.58 8 8 8h24v32c0 81.42 50.76 150.83 122.29 178.75-12.76 16.78-21.7 36.63-24.92 58.44-1.45 9.83 5.98 18.81 15.92 18.81h221.42c9.94 0 17.37-8.97 15.92-18.81-3.21-21.81-12.15-41.67-24.92-58.44C429.24 406.83 480 337.42 480 256v-32h24c4.42 0 8-3.58 8-8v-16c0-4.42-3.58-8-8-8zM451.26 35.59c17.58-13.18 39.21 11.31 23.47 27.05L345.38 192H242.72L451.26 35.59zM448 256c0 66.31-40.01 124.77-101.92 148.94l-39.51 15.42 25.68 33.76c6.08 8 10.87 16.75 14.19 25.88H165.57c3.32-9.13 8.1-17.88 14.19-25.88l25.68-33.76-39.51-15.42C104.01 380.77 64 322.31 64 256v-32h384v32z"/></svg>