<svg xmlns="http://www.w3.org/2000/svg" viewBox="0 0 640 512"><!-- Font Awesome Pro 5.15.4 by @fontawesome - https://fontawesome.com License - https://fontawesome.com/license (Commercial License) --><path d="M240 384c-29.53 0-48 25.06-48 49.89V504c0 4.42 3.58 8 8 8h16c4.42 0 8-3.58 8-8v-72c0-8.83 7.19-16 16-16s16 7.17 16 16v72c0 4.42 3.58 8 8 8h16c4.42 0 8-3.58 8-8v-72c0-26.47-21.53-48-48-48zm352-128h-6.17c3.77-8.64 6.17-17.59 6.17-26.91 0-53.93-43.52-95.46-90.74-124.66C459.48 78.59 426.39 52.01 384 0c-42.25 51.85-74.61 78.05-117.26 104.43-47.22 29.2-90.74 70.73-90.74 124.66 0 9.32 2.4 18.27 6.17 26.91H176c-5.64 0-10.97 1.15-16 2.95V120C160 40 80 0 80 0S0 40 0 120v392h32V192h96v312c0 4.42 3.58 8 8 8h16c4.42 0 8-3.58 8-8V304c0-8.84 7.16-16 16-16h416c8.84 0 16 7.16 16 16v200c0 4.42 3.58 8 8 8h16c4.42 0 8-3.58 8-8V304c0-26.51-21.49-48-48-48zm-464-96H32v-40c0-40.6 29.55-68.62 48-82.15C98.45 51.38 128 79.4 128 120v40zm421.07 96H218.93c-7.26-9.22-10.93-18.24-10.93-26.91 0-33.03 24.56-65.27 73-95.84 40.99-25.86 74.89-53.45 103-83.86 28.11 30.41 62.02 58 103 83.86 48.44 30.56 73 62.81 73 95.84 0 8.67-3.67 17.69-10.93 26.91zM384 320c-61.02 30.51-64 76.2-64 89.89V504c0 4.42 3.58 8 8 8h16c4.42 0 8-3.58 8-8v-94.11c0-27.19 20.69-45.33 32-53.22 11.31 7.89 32 26.03 32 53.22V504c0 4.42 3.58 8 8 8h16c4.42 0 8-3.58 8-8v-94.11c0-13.71-2.98-59.38-64-89.89zm144 64c-29.53 0-48 25.06-48 49.89V504c0 4.42 3.58 8 8 8h16c4.42 0 8-3.58 8-8v-72c0-8.83 7.19-16 16-16s16 7.17 16 16v72c0 4.42 3.58 8 8 8h16c4.42 0 8-3.58 8-8v-72c0-26.47-21.53-48-48-48z"/></svg>