<svg xmlns="http://www.w3.org/2000/svg" viewBox="0 0 320 512"><!-- Font Awesome Pro 5.15.4 by @fontawesome - https://fontawesome.com License - https://fontawesome.com/license (Commercial License) --><path d="M154.149 488.438l-41.915-101.865-46.788 52.8C42.432 465.345 0 448.788 0 413.5V38.561c0-34.714 41.401-51.675 64.794-26.59L309.547 274.41c22.697 24.335 6.074 65.09-27.195 65.09h-65.71l42.809 104.037c8.149 19.807-1.035 42.511-20.474 50.61l-36 15.001c-19.036 7.928-40.808-1.217-48.828-20.71zm-31.84-161.482l61.435 149.307c1.182 2.877 4.117 4.518 6.926 3.347l35.999-15c3.114-1.298 4.604-5.455 3.188-8.896L168.872 307.5h113.479c5.009 0 7.62-7.16 3.793-11.266L41.392 33.795C37.785 29.932 32 32.879 32 38.561V413.5c0 5.775 5.935 8.67 9.497 4.65l80.812-91.194z"/></svg>