<svg xmlns="http://www.w3.org/2000/svg" viewBox="0 0 512 512"><!-- Font Awesome Pro 5.15.4 by @fontawesome - https://fontawesome.com License - https://fontawesome.com/license (Commercial License) --><path d="M416 160h-64c12.5-12.5 12.5-32.8 0-45.3l-73.4-73.4c-6.2-6.2-14.4-9.4-22.6-9.4s-16.4 3.1-22.6 9.4L206.7 68c-4.5-2.4-9.3-4-14.7-4H64c-17.7 0-32 14.3-32 32v64c-17.7 0-32 14.3-32 32v192c0 53 43 96 96 96h192c53 0 96-43 96-96v-32h32c52.9 0 96-43.1 96-96s-43.1-96-96-96zM256 64l73.4 73.4-22.7 22.6H205.3l-22.6-22.6L256 64zM64 96h114.7L160 114.7c-12.5 12.5-12.5 32.8 0 45.3H64V96zm288 288c0 35.3-28.7 64-64 64H96c-35.3 0-64-28.7-64-64V192h64v80c0 8.8 7.2 16 16 16s16-7.2 16-16v-80h224v192zm64-64h-32V192h32c35.3 0 64 28.7 64 64s-28.7 64-64 64z"/></svg>