<svg xmlns="http://www.w3.org/2000/svg" viewBox="0 0 640 512"><!-- Font Awesome Pro 5.15.4 by @fontawesome - https://fontawesome.com License - https://fontawesome.com/license (Commercial License) --><path d="M601.9 448H6.1c-13.1 0-4.5 32 20 32h555.8c24.5 0 33.1-32 20-32zM544 32H128a32 32 0 0 0-32 32v224a96 96 0 0 0 96 96h192a96 96 0 0 0 96-96v-64h64a96 96 0 0 0 0-192zm-96 256a64.07 64.07 0 0 1-64 64H192a64.07 64.07 0 0 1-64-64V64h96v32l-38.63 38.63a32 32 0 0 0-9.37 22.62V224a32 32 0 0 0 32 32h64a32 32 0 0 0 32-32v-66.75a32 32 0 0 0-9.37-22.62L256 96V64h192zM240 125.25l32 32V224h-64v-66.75zM544 192h-64V64h64a64 64 0 0 1 0 128z"/></svg>