<svg xmlns="http://www.w3.org/2000/svg" viewBox="0 0 512 512"><!-- Font Awesome Pro 5.15.4 by @fontawesome - https://fontawesome.com License - https://fontawesome.com/license (Commercial License) --><path d="M481.44 0a29.38 29.38 0 0 0-9.25 1.5l-290.78 96C168.72 101.72 160 114 160 128v244.75C143 360 120.69 352 96 352c-53 0-96 35.81-96 80s43 80 96 80 96-35.81 96-80V256l288-96v148.75C463 296 440.69 288 416 288c-53 0-96 35.81-96 80s43 80 96 80 96-35.81 96-80V32c0-18.25-14.31-32-30.56-32zM96 480c-34.69 0-64-22-64-48s29.31-48 64-48 64 22 64 48-29.31 48-64 48zm320-64c-34.69 0-64-22-64-48s29.31-48 64-48 64 22 64 48-29.31 48-64 48zm64-289.72l-288 96V128h-.56v-.12L480 32.62z"/></svg>