<svg xmlns="http://www.w3.org/2000/svg" viewBox="0 0 640 512"><!-- Font Awesome Pro 5.15.4 by @fontawesome - https://fontawesome.com License - https://fontawesome.com/license (Commercial License) --><path d="M637 485.34L23 1.82A7.85 7.85 0 0 0 11.79 3l-10 12.5A7.92 7.92 0 0 0 3 26.73l614 483.48a7.89 7.89 0 0 0 11.18-1.21l10-12.5a7.82 7.82 0 0 0-1.18-11.16zM256 128h-.56v-.12L544 32.62v93.66l-218.7 72.9 30.08 23.69L544 160v148.75C527 296 504.71 288 480 288a112.39 112.39 0 0 0-34.78 5.61l33.63 26.48c.39 0 .76-.09 1.15-.09 34.69 0 64 22 64 48 0 1-.34 2-.43 3.06l27.33 21.52A67.33 67.33 0 0 0 576 368V32c0-18.25-14.31-32-30.56-32a29.38 29.38 0 0 0-9.25 1.5l-290.79 96c-10.28 3.42-17.68 12.21-20.22 22.83L256 144.6zm-32 244.75C207 360 184.7 352 160 352c-53 0-96 35.81-96 80s43 80 96 80 96-35.81 96-80V266.7l-32-25.2zM160 480c-34.69 0-64-22-64-48s29.32-48 64-48 64 22 64 48-29.3 48-64 48z"/></svg>