<svg xmlns="http://www.w3.org/2000/svg" viewBox="0 0 640 512"><!-- Font Awesome Pro 5.15.4 by @fontawesome - https://fontawesome.com License - https://fontawesome.com/license (Commercial License) --><path d="M637 485.34L23 1.82A7.85 7.85 0 0 0 11.79 3l-10 12.5A7.92 7.92 0 0 0 3 26.73l614 483.48a7.89 7.89 0 0 0 11.18-1.21l10-12.5a7.82 7.82 0 0 0-1.18-11.16zM320 376.13C299.65 361.28 271.37 352 240 352c-61.86 0-112 35.82-112 80s50.15 80 112 80 112-35.82 112-80v-89.72l-32-25.2zM240 480c-47.15 0-80-25.3-80-48s32.86-48 80-48 80 25.3 80 48-32.87 48-80 48zm112-288l138.12-35.37A32 32 0 0 0 512 126.27V32a32 32 0 0 0-42-30.36L341.4 33.52C328.71 37.74 320 50 320 64v131l32 25.2zm-.56-128.11L480 32v94.26l-128 32V64h-.56z"/></svg>