<svg xmlns="http://www.w3.org/2000/svg" viewBox="0 0 640 512"><!-- Font Awesome Pro 5.15.4 by @fontawesome - https://fontawesome.com License - https://fontawesome.com/license (Commercial License) --><path d="M632 240H336v-80h80c17.67 0 32-14.33 32-32V32c0-17.67-14.33-32-32-32H224c-17.67 0-32 14.33-32 32v96c0 17.67 14.33 32 32 32h80v80H8c-4.42 0-8 3.58-8 8v16c0 4.42 3.58 8 8 8h120v80H64c-17.67 0-32 14.33-32 32v96c0 17.67 14.33 32 32 32h160c17.67 0 32-14.33 32-32v-96c0-17.67-14.33-32-32-32h-64v-80h320v80h-64c-17.67 0-32 14.33-32 32v96c0 17.67 14.33 32 32 32h160c17.67 0 32-14.33 32-32v-96c0-17.67-14.33-32-32-32h-64v-80h120c4.42 0 8-3.58 8-8v-16c0-4.42-3.58-8-8-8zM224 384v96H64v-96h160zm0-256V32h192v96H224zm352 256v96H416v-96h160z"/></svg>