<svg xmlns="http://www.w3.org/2000/svg" viewBox="0 0 512 512"><!-- Font Awesome Pro 5.15.4 by @fontawesome - https://fontawesome.com License - https://fontawesome.com/license (Commercial License) --><path d="M404 192h-84v-52c0-6.6-5.4-12-12-12H108c-6.6 0-12 5.4-12 12v168c0 6.6 5.4 12 12 12h84v52c0 6.6 5.4 12 12 12h200c6.6 0 12-5.4 12-12V204c0-6.6-5.4-12-12-12zm-276 96V160h160v128zm256 64H224v-32h84c6.6 0 12-5.4 12-12v-84h64zm116-224c6.6 0 12-5.4 12-12V44c0-6.6-5.4-12-12-12h-72c-6.6 0-12 5.4-12 12v20H96V44c0-6.6-5.4-12-12-12H12C5.4 32 0 37.4 0 44v72c0 6.6 5.4 12 12 12h20v256H12c-6.6 0-12 5.4-12 12v72c0 6.6 5.4 12 12 12h72c6.6 0 12-5.4 12-12v-20h320v20c0 6.6 5.4 12 12 12h72c6.6 0 12-5.4 12-12v-72c0-6.6-5.4-12-12-12h-20V128zM32 64h32v32H32zm32 384H32v-32h32zm352-52v20H96v-20c0-6.6-5.4-12-12-12H64V128h20c6.6 0 12-5.4 12-12V96h320v20c0 6.6 5.4 12 12 12h20v256h-20c-6.6 0-12 5.4-12 12zm64 52h-32v-32h32zM448 96V64h32v32z"/></svg>