<svg xmlns="http://www.w3.org/2000/svg" viewBox="0 0 576 512"><!-- Font Awesome Pro 5.15.4 by @fontawesome - https://fontawesome.com License - https://fontawesome.com/license (Commercial License) --><path d="M564 224c6.627 0 12-5.373 12-12v-72c0-6.627-5.373-12-12-12h-72c-6.627 0-12 5.373-12 12v20h-96v-32h20c6.627 0 12-5.373 12-12V44c0-6.627-5.373-12-12-12h-72c-6.627 0-12 5.373-12 12v20H96V44c0-6.627-5.373-12-12-12H12C5.373 32 0 37.373 0 44v72c0 6.627 5.373 12 12 12h20v160H12c-6.627 0-12 5.373-12 12v72c0 6.627 5.373 12 12 12h72c6.627 0 12-5.373 12-12v-20h96v32h-20c-6.627 0-12 5.373-12 12v72c0 6.627 5.373 12 12 12h72c6.627 0 12-5.373 12-12v-20h224v20c0 6.627 5.373 12 12 12h72c6.627 0 12-5.373 12-12v-72c0-6.627-5.373-12-12-12h-20V224h20zm-180 96v32h-32v-32h32zM352 64h32v32h-32V64zM32 64h32v32H32V64zm32 288H32v-32h32v32zm20-64H64V128h20c6.627 0 12-5.373 12-12V96h224v20c0 6.627 5.373 12 12 12h20v160h-20c-6.627 0-12 5.373-12 12v20H96v-20c0-6.627-5.373-12-12-12zm140 160h-32v-32h32v32zm256-52v20H256v-20c0-6.627-5.373-12-12-12h-20v-32h96v20c0 6.627 5.373 12 12 12h72c6.627 0 12-5.373 12-12v-72c0-6.627-5.373-12-12-12h-20v-96h96v20c0 6.627 5.373 12 12 12h20v160h-20c-6.627 0-12 5.373-12 12zm64 52h-32v-32h32v32zm-32-256v-32h32v32h-32z"/></svg>