<svg xmlns="http://www.w3.org/2000/svg" viewBox="0 0 640 512"><!-- Font Awesome Pro 5.15.4 by @fontawesome - https://fontawesome.com License - https://fontawesome.com/license (Commercial License) --><path d="M629.8 160.31L416 224l-50.49-25.24a64.07 64.07 0 0 0-28.62-6.76H272v-64h72c4.42 0 8-3.58 8-8v-16c0-4.42-3.58-8-8-8H168c-4.42 0-8 3.58-8 8v16c0 4.42 3.58 8 8 8h72v64h-64v-.02L37.72 166.84C16.54 162.98 0 179.92 0 198.33v94.95c0 15.46 11.06 28.72 26.28 31.48L96 337.44V384c0 17.67 14.33 32 32 32h274.63c8.55 0 16.75-3.42 22.76-9.51l212.26-214.75c1.5-1.5 2.34-3.54 2.34-5.66V168c.01-5.74-5.48-9.03-10.19-7.69zM96 304.91l-64-11.64.04-94.94L96 209.96v94.95zM402.63 384H128V224h208.89c4.97 0 9.87 1.16 14.31 3.38l56.15 28.07c3.64 1.82 7.83 2.18 11.72 1.02l155.35-46.28L402.63 384zm176.21-89.09C568.38 310.06 544 347.53 544 367.98c0 26.47 21.53 48 48 48s48-21.53 48-48c0-20.45-24.38-57.92-34.84-73.08-5.94-8.65-20.38-8.65-26.32.01zM592 383.98c-8.81 0-16-7.17-16-15.98.12-4.89 6.78-18.83 16-34.34 9.22 15.52 15.88 29.45 16 34.33 0 8.82-7.19 15.99-16 15.99z"/></svg>