<svg xmlns="http://www.w3.org/2000/svg" viewBox="0 0 640 512"><!-- Font Awesome Pro 5.15.4 by @fontawesome - https://fontawesome.com License - https://fontawesome.com/license (Commercial License) --><path d="M512 56c-8.84 0-16 7.16-16 16s7.17 16 16 16c8.84 0 16-7.16 16-16s-7.16-16-16-16zm80-24h-17.14L561.6 18.74C549.52 6.66 533.44 0 516.35 0h-20.49c-11.12 0-22.1 2.91-31.75 8.43L310.86 96H288C182.13 96 96 182.13 96 288v1.14C41.79 296.93 0 343.67 0 400c0 61.76 50.24 112 112 112h144c26.47 0 48-21.53 48-48s-21.53-48-48-48H112c-8.82 0-16-7.18-16-16s7.18-16 16-16h208c17.67 0 32-14.33 32-32 0-23-12.19-43.2-30.45-54.48l48.61-25.85 47.32 94.64A32 32 0 0 0 446.1 384H544c17.67 0 32-14.33 32-32 0-35.29-28.71-64-64-64h-26.33l-30.71-61.42 44.82-23.84C512.99 195.71 529.04 192 544 192c52.93 0 96-43.06 96-96V80c0-26.47-21.53-48-48-48zm-48 128c-20.26 0-41.36 4.97-59.25 14.49l-4.19 2.23 16.9-21.96C506.5 143 520.72 136 535.5 136h58.09c-11.73 14.52-29.47 24-49.59 24zm63.19-56H535.5c-24.66 0-48.34 11.67-63.41 31.23l-59.71 77.74L465.89 320H512c17.66 0 32 14.36 32 32h-97.89l-62-123.99L211.13 320H288c17.66 0 32 14.36 32 32H112c-26.47 0-48 21.53-48 48s21.53 48 48 48h144c8.84 0 16 7.16 16 16s-7.16 16-16 16H112c-44.12 0-80-35.89-80-80s35.88-80 80-80h16v-32c0-88.37 71.63-160 160-160h31.36l160.62-91.79A32.048 32.048 0 0 1 495.86 32h20.49c8.55 0 16.58 3.33 22.62 9.37L561.6 64H592c8.84 0 16 7.16 16 16 0 0-.47 21.35-.81 24z"/></svg>