<svg xmlns="http://www.w3.org/2000/svg" viewBox="0 0 512 512"><!-- Font Awesome Pro 5.15.4 by @fontawesome - https://fontawesome.com License - https://fontawesome.com/license (Commercial License) --><path d="M448,0H64A64,64,0,0,0,0,64V448a64,64,0,0,0,64,64H448a64,64,0,0,0,64-64V64A64,64,0,0,0,448,0Zm32,448a32,32,0,0,1-32,32H64a32,32,0,0,1-32-32V64A32,32,0,0,1,64,32H448a32,32,0,0,1,32,32ZM369.85,96H142.15a22.86,22.86,0,0,0-16.41,6.7C87.71,141.71,64,195.9,64,256s23.71,114.28,61.74,153.29A22.87,22.87,0,0,0,142.15,416h227.7a22.87,22.87,0,0,0,16.41-6.71c38-39,61.74-93.19,61.74-153.29s-23.71-114.29-61.74-153.3A22.86,22.86,0,0,0,369.85,96Zm-3.68,288H145.83C113.66,349.51,96,304.22,96,256s17.67-93.51,49.83-128H366.17C398.33,162.48,416,207.77,416,256S398.34,349.51,366.17,384ZM192,176a16,16,0,0,0-16,16v80a16,16,0,0,0,32,0V192A16,16,0,0,0,192,176Zm64,128a32,32,0,0,0-32,32v16h64V336A32,32,0,0,0,256,304Zm64-128a16,16,0,0,0-16,16v80a16,16,0,0,0,32,0V192A16,16,0,0,0,320,176Z"/></svg>