<svg xmlns="http://www.w3.org/2000/svg" viewBox="0 0 512 512"><!-- Font Awesome Pro 5.15.4 by @fontawesome - https://fontawesome.com License - https://fontawesome.com/license (Commercial License) --><path d="M489.17 144.05C547.44 80.02 483.28 0 418.52 0c-23.39 0-46.87 10.44-64.68 35.85L187.9 284.01c-45.13 2.9-86.1 20.09-109.34 81.34-2.65 6.99-9 11.22-16.41 11.22-12.49 0-51.14-31.13-62.15-38.65C0 430.58 42.67 512 144 512c141.21 0 145.89-117.04 142.91-145.49l.02-.02 202.24-222.44zM230.96 449.18C212.54 469.63 183.28 480 144 480c-62.08 0-90.15-37.47-102.57-76.29 7.55 3.32 14.15 4.86 20.72 4.86 20.81 0 39-12.52 46.33-31.87 6.86-18.09 17.63-56.66 89.31-61.26L254.68 366c2.96 28.21-4.08 61.37-23.72 83.18zm39.4-112.03l-49.86-44.32L380.05 54.22C390.38 39.47 403.33 32 418.52 32c22.9 0 47.56 16.71 57.36 38.88 7.94 17.96 4.45 35.34-10.39 51.64L270.36 337.15z"/></svg>