<svg xmlns="http://www.w3.org/2000/svg" viewBox="0 0 512 512"><!-- Font Awesome Pro 5.15.4 by @fontawesome - https://fontawesome.com License - https://fontawesome.com/license (Commercial License) --><path d="M511.9 204.2C499.2 80.9 368.8 0 256 0S12.8 80.9.1 204.2C-1 214.9 6.9 224 16.1 224h32.5L160 345.4V480c0 17.7 14.3 32 32 32h128c17.7 0 32-14.3 32-32V345.4L463.3 224h32.5c9.3 0 17.2-9.1 16.1-19.8zM256 32c51.8 0 112 64 112 160H144c0-96 60.2-160 112-160zM34.3 192C47.7 126.9 101 76.8 163.4 51.1c-30.1 32.7-51.4 81-51.4 140.1v.8H34.3zm145.8 128L92 224h148v96h-59.9zM320 472c0 4.4-3.6 8-8 8H200c-4.4 0-8-3.6-8-8V360c0-4.4 3.6-8 8-8h112c4.4 0 8 3.6 8 8v112zm11.9-152H272v-96h147.9l-88 96zM400 192v-.8c0-59.1-21.3-107.3-51.4-140.1 62.3 25.7 115.7 75.8 129.1 140.9H400z"/></svg>