<svg xmlns="http://www.w3.org/2000/svg" viewBox="0 0 496 512"><!-- Font Awesome Pro 5.15.4 by @fontawesome - https://fontawesome.com License - https://fontawesome.com/license (Commercial License) --><path d="M248 8C111.03 8 0 119.03 0 256s111.03 248 248 248 248-111.03 248-248S384.97 8 248 8zm0 464c-119.1 0-216-96.9-216-216 0-44.65 13.62-86.17 36.92-120.65l338.14 266.27C367.54 444.75 310.96 472 248 472zm-48-274.17v-37.91h72c30.88 0 56 25.12 56 56 0 24.55-15.99 45.23-38.02 52.77L200 197.83zm117.54 92.55c27.62-16.75 45.47-47.9 42.03-83.25-4.45-45.72-45.54-79.22-91.48-79.22H176c-4.42 0-8 3.58-8 8v36.72l-79.06-62.26C128.46 67.25 185.04 40 248 40c119.1 0 216 96.9 216 216 0 44.65-13.62 86.17-36.92 120.64l-109.54-86.26zM168 375.91c0 4.42 3.58 8 8 8h16c4.42 0 8-3.58 8-8v-72h31.25L168 254.11v121.8z"/></svg>