<svg xmlns="http://www.w3.org/2000/svg" viewBox="0 0 448 512"><!-- Font Awesome Pro 5.15.4 by @fontawesome - https://fontawesome.com License - https://fontawesome.com/license (Commercial License) --><path d="M416 0H64C28.65 0 0 28.65 0 64v384c0 35.35 28.65 64 64 64h352c17.67 0 32-14.33 32-32V32c0-17.67-14.33-32-32-32zm0 480H64c-17.64 0-32-14.36-32-32V64c0-17.64 14.36-32 32-32h352v448zm-304-64h224c8.8 0 16-7.2 16-16s-7.2-16-16-16H112c-8.8 0-16 7.2-16 16s7.2 16 16 16zm112-96c70.69 0 128-57.31 128-128S294.69 64 224 64 96 121.31 96 192s57.31 128 128 128zm94.38-144h-39.09c-1.49-27.03-6.54-51.35-14.21-70.41 27.71 13.24 48.02 39.19 53.3 70.41zm-39.09 32h39.09c-5.29 31.22-25.59 57.17-53.3 70.41 7.68-19.06 12.72-43.38 14.21-70.41zM224 97.31c7.69 7.45 20.77 34.42 23.43 78.69h-46.87c2.67-44.26 15.75-71.24 23.44-78.69zM247.43 208c-2.66 44.26-15.74 71.24-23.43 78.69-7.69-7.45-20.77-34.42-23.43-78.69h46.86zm-64.51-102.41c-7.68 19.06-12.72 43.38-14.21 70.41h-39.09c5.28-31.22 25.59-57.17 53.3-70.41zM168.71 208c1.49 27.03 6.54 51.35 14.21 70.41-27.71-13.24-48.02-39.19-53.3-70.41h39.09z"/></svg>