<svg xmlns="http://www.w3.org/2000/svg" viewBox="0 0 448 512"><!-- Font Awesome Pro 5.15.4 by @fontawesome - https://fontawesome.com License - https://fontawesome.com/license (Commercial License) --><path d="M433.941 193.941l-51.882-51.882A48 48 0 0 0 348.118 128H320V80c0-26.51-21.49-48-48-48h-66.752C198.643 13.377 180.858 0 160 0s-38.643 13.377-45.248 32H48C21.49 32 0 53.49 0 80v288c0 26.51 21.49 48 48 48h80v48c0 26.51 21.49 48 48 48h224c26.51 0 48-21.49 48-48V227.882a48 48 0 0 0-14.059-33.941zm-22.627 22.627a15.888 15.888 0 0 1 4.195 7.432H352v-63.509a15.88 15.88 0 0 1 7.431 4.195l51.883 51.882zM160 30c9.941 0 18 8.059 18 18s-8.059 18-18 18-18-8.059-18-18 8.059-18 18-18zM48 384c-8.822 0-16-7.178-16-16V80c0-8.822 7.178-16 16-16h66.752c6.605 18.623 24.389 32 45.248 32s38.643-13.377 45.248-32H272c8.822 0 16 7.178 16 16v48H176c-26.51 0-48 21.49-48 48v208H48zm352 96H176c-8.822 0-16-7.178-16-16V176c0-8.822 7.178-16 16-16h144v72c0 13.2 10.8 24 24 24h72v208c0 8.822-7.178 16-16 16z"/></svg>