<svg xmlns="http://www.w3.org/2000/svg" viewBox="0 0 640 512"><!-- Font Awesome Pro 5.15.4 by @fontawesome - https://fontawesome.com License - https://fontawesome.com/license (Commercial License) --><path d="M629.28 355.14c-29.93-10.97-52.59 3.78-70.75 15.61-16.97 11-27.2 16.95-40.3 12.2-13.1-4.8-16.61-15.83-21.61-34.89-3.35-12.71-7.23-27.35-16.85-39.25 7.51-9.17 13.47-17.9 18.21-25.65 9.74 11.26 22.76 20.84 42.18 20.84 30.03 0 44.88-22.84 55.71-39.52 11.08-17.03 17-24.48 27.49-24.48 9.2 0 16.64-7.16 16.64-16s-7.44-16-16.64-16c-30.03 0-44.88 22.84-55.71 39.52-11.08 17.03-17 24.48-27.49 24.48-46.08 0-20.68-62.88-119.11-118.33l21.13-42.26c1.94.2 3.82.59 5.82.59 30.93 0 56-25.07 56-56S478.93 0 448 0s-56 25.07-56 56c0 17.42 8.12 32.78 20.58 43.05l-20.56 41.11C371.26 132.66 347.38 128 320 128s-51.26 4.66-72.03 12.16l-20.56-41.11C239.88 88.78 248 73.42 248 56c0-30.93-25.07-56-56-56s-56 25.07-56 56 25.07 56 56 56c1.99 0 3.88-.38 5.82-.59l21.13 42.26C120.52 209.12 145.92 272 99.84 272c-10.5 0-16.41-7.45-27.49-24.48C61.52 230.84 46.67 208 16.64 208 7.44 208 0 215.16 0 224s7.44 16 16.64 16c10.5 0 16.41 7.45 27.49 24.48C54.96 281.16 69.81 304 99.84 304c19.42 0 32.44-9.58 42.18-20.84 4.74 7.75 10.7 16.48 18.21 25.65-9.62 11.9-13.5 26.54-16.85 39.25-5.01 19.06-8.52 30.09-21.61 34.89-13.1 4.75-23.33-1.2-40.3-12.2-18.17-11.83-40.82-26.58-70.75-15.61-8.61 3.14-12.9 12.39-9.62 20.66 3.25 8.27 12.87 12.41 21.45 9.25 13.1-4.83 23.34 1.17 40.3 12.2 13.68 8.91 29.9 19.45 49.86 19.45 6.53 0 13.52-1.14 20.9-3.84 29.93-10.97 36.66-36.45 42.05-56.92 2.51-9.57 4.65-17.11 7.82-22.85 19.39 17.36 44.71 33.15 76.63 42.41-12.45 50.02-36.41 102.84-68.11 102.84-8.84 0-16 7.53-16 16.83 0 9.3 7.16 16.83 16 16.83 60.44 0 89.31-88.06 99.63-129.86 9.04 1.14 18.43 1.86 28.37 1.86s19.33-.73 28.37-1.86C358.69 423.94 387.56 512 448 512c8.84 0 16-7.53 16-16.83 0-9.3-7.16-16.83-16-16.83-31.7 0-55.66-52.82-68.11-102.85 31.92-9.26 57.24-25.04 76.63-42.41 3.16 5.75 5.3 13.28 7.82 22.85 5.39 20.47 12.12 45.95 42.05 56.92 7.38 2.7 14.37 3.84 20.9 3.84 19.96 0 36.17-10.55 49.86-19.45 16.96-11.03 27.2-17.03 40.3-12.2 8.58 3.16 18.2-.98 21.45-9.25 3.28-8.26-1.01-17.51-9.62-20.65zM448 32c13.23 0 24 10.77 24 24s-10.77 24-24 24-24-10.77-24-24 10.77-24 24-24zM192 80c-13.23 0-24-10.77-24-24s10.77-24 24-24 24 10.77 24 24-10.77 24-24 24zm128 272c-97.04 0-142.39-68.26-156.81-96.01C177.55 228.36 222.88 160 320 160s142.45 68.36 156.81 95.99C462.39 283.74 417.04 352 320 352z"/></svg>