<svg xmlns="http://www.w3.org/2000/svg" viewBox="0 0 512 512"><!-- Font Awesome Pro 5.15.4 by @fontawesome - https://fontawesome.com License - https://fontawesome.com/license (Commercial License) --><path d="M318.55 222.61c40.16 10.56 69.55-34.86 77.46-63.87 8.44-30.94 3.01-61.05-12.01-78.75L320 0v74.96c-15.94 11.26-29.49 30.37-36.02 54.29-11.84 43.42 3.64 85.22 34.57 93.36zm-3.7-84.93c18.22-66.79 66.59-47.08 50.29 12.65-18.19 66.71-66.59 47.12-50.29-12.65zm178.65 52.69L448 128v66.94c-19.83 6.55-37.51 24.43-44.72 48.46-10.4 34.65 4.77 68.38 33.89 75.34 30.46 7.29 61.64-17.11 71.55-50.13 8.85-29.51-1.55-59.5-15.22-78.24zm-15.43 69.03c-12.72 42.35-56.89 35.65-44.15-6.81 12.69-42.26 56.91-35.72 44.15 6.81zM256 256c-79.41 0-191.99 122.76-191.99 200.25 0 34.91 26.81 55.75 71.74 55.75 48.84 0 81.09-25.08 120.26-25.08 39.51 0 71.84 25.08 120.26 25.08 44.93 0 71.74-20.85 71.74-55.75C447.99 378.76 335.41 256 256 256zm120.26 224c-20.3 0-37.81-5.77-56.34-11.88-19.68-6.49-40.02-13.19-63.91-13.19-23.65 0-43.85 6.67-63.39 13.12-18.64 6.15-36.25 11.96-56.87 11.96-39.74 0-39.74-17.88-39.74-23.75C96.01 393.35 196.19 288 256 288s159.99 105.35 159.99 168.25c0 5.87 0 23.75-39.73 23.75zM108.73 243.39c-7.21-24.03-24.89-41.91-44.72-48.46V128L18.5 190.37C4.81 209.13-5.57 239.11 3.29 268.61c10 33.3 41.36 57.35 71.55 50.13 29.11-6.97 44.29-40.7 33.89-75.35zM33.94 259.4c-12.84-42.77 31.51-48.87 44.15-6.81 12.8 42.69-31.5 48.95-44.15 6.81zm159.51-36.79c30.94-8.14 46.42-49.94 34.58-93.36-6.53-23.92-20.07-43.04-36.02-54.29V0L128 79.99c-15.02 17.7-20.45 47.82-12.01 78.75 7.65 28.05 37.08 74.5 77.46 63.87zm3.7-84.93c16.2 59.39-32 79.74-50.3 12.65-16.19-59.39 32-79.75 50.3-12.65z"/></svg>