<svg xmlns="http://www.w3.org/2000/svg" viewBox="0 0 448 512"><!-- Font Awesome Pro 5.15.4 by @fontawesome - https://fontawesome.com License - https://fontawesome.com/license (Commercial License) --><path d="M400 32H48C21.5 32 0 53.5 0 80v352c0 26.5 21.5 48 48 48h352c26.5 0 48-21.5 48-48V80c0-26.5-21.5-48-48-48zm16 400c0 8.8-7.2 16-16 16H48c-8.8 0-16-7.2-16-16V80c0-8.8 7.2-16 16-16h352c8.8 0 16 7.2 16 16v352zm-67.1-324.3c-15.6-15.6-40.9-15.6-56.6 0L72 328l-7.9 71.4C63 409 71.1 417 80.7 416l71.3-8 220.3-220.3c15.6-15.6 15.6-40.9 0-56.6l-23.4-23.4zM137.3 377.4l-39.1 4.3 4.3-39.1 162.7-162.7 34.7 34.7-162.6 162.8zm212.4-212.3l-27 27-34.7-34.7 27-27c3.1-3.1 8.2-3.1 11.3 0l23.4 23.4c3.1 3.1 3.1 8.2 0 11.3z"/></svg>