<svg xmlns="http://www.w3.org/2000/svg" viewBox="0 0 512 512"><!-- Font Awesome Pro 5.15.4 by @fontawesome - https://fontawesome.com License - https://fontawesome.com/license (Commercial License) --><path d="M493.87 95.6L416.4 18.13C404.32 6.04 388.48 0 372.64 0c-15.84 0-31.68 6.04-43.76 18.13l-92.45 92.45-99.83 28.21a64.003 64.003 0 0 0-43.31 41.35L0 460l52 52 279.86-93.29a64.003 64.003 0 0 0 41.35-43.31l28.21-99.83 92.45-92.45c24.17-24.17 24.17-63.35 0-87.52zM342.42 366.7a31.985 31.985 0 0 1-20.68 21.66l-261.1 87.03-.7-.7L175.7 358.93c9.52 5.62 20.47 9.07 32.3 9.07 35.28 0 64-28.7 64-64s-28.72-64-64-64-64 28.7-64 64c0 11.83 3.45 22.79 9.07 32.31L37.32 452.06l-.71-.7 87.03-261.1a31.986 31.986 0 0 1 21.66-20.68l99.83-28.21 1.25-.36 124.6 124.6-.35 1.25-28.21 99.84zM176 304c0-17.64 14.34-32 32-32s32 14.36 32 32-14.34 32-32 32-32-14.36-32-32zm295.25-143.51l-80.06 80.06-119.75-119.73 80.07-80.06c11.67-11.67 30.58-11.69 42.27 0l77.47 77.47c11.65 11.65 11.65 30.61 0 42.26z"/></svg>