<svg xmlns="http://www.w3.org/2000/svg" viewBox="0 0 512 512"><!-- Font Awesome Pro 5.15.4 by @fontawesome - https://fontawesome.com License - https://fontawesome.com/license (Commercial License) --><path d="M502.71 368.14L379.88 245.31l49.4-49.4 68.65-68.66c18.76-18.76 18.75-49.17 0-67.93l-45.25-45.25C443.3 4.69 431 0 418.71 0s-24.59 4.69-33.97 14.07l-68.65 68.64-49.4 49.4L143.87 9.29C137.68 3.1 129.56 0 121.44 0s-16.23 3.1-22.43 9.29L9.31 99c-12.38 12.39-12.39 32.47 0 44.86l122.8 122.8-113.01 113L.34 487.11c-2.72 15.63 11.22 26.9 24.59 24.56l107.44-18.84 112.94-112.96L368.14 502.7a31.621 31.621 0 0 0 22.42 9.29c8.12 0 16.24-3.1 22.43-9.29l89.72-89.7c12.39-12.39 12.39-32.47 0-44.86zM407.36 36.7c4.09-4.09 18.6-4.09 22.69 0l45.25 45.24c6.25 6.25 6.25 16.42 0 22.67l-46.03 46.03-67.94-67.94 46.03-46zM31.93 121.63l89.51-89.52L177.39 88l-39.03 39.03c-3.12 3.12-3.12 8.19 0 11.31l11.31 11.31c3.12 3.12 8.19 3.12 11.31 0l39.04-39.04 44.1 44.05-89.5 89.49L31.93 121.63zm84.96 341.43L34.5 477.51l14.37-82.37 289.83-289.8 67.94 67.94-289.75 289.78zm273.88 17.02l-122.86-122.8 89.47-89.48 44.12 44.07-39.15 39.16c-3.12 3.12-3.12 8.19 0 11.31l11.31 11.31c3.12 3.12 8.19 3.12 11.31 0l39.17-39.17 55.94 55.88-89.31 89.72z"/></svg>