<svg xmlns="http://www.w3.org/2000/svg" viewBox="0 0 512 512"><!-- Font Awesome Pro 5.15.4 by @fontawesome - https://fontawesome.com License - https://fontawesome.com/license (Commercial License) --><path d="M433.43 365.35c-20.56-54.19-55.01-73.83-93.93-79.66l158.43-158.45c18.76-18.76 18.75-49.17 0-67.93l-45.25-45.25C443.3 4.69 431 0 418.71 0s-24.59 4.69-33.97 14.07l-144.52 144.5-82.07-122.72C140.34 10.44 116.87 0 93.48 0 28.72 0-35.44 80.02 22.83 144.05l110.43 121.46L19.09 379.66.35 487.11c-2.72 15.63 11.22 26.9 24.59 24.56l107.44-18.84 93.71-93.72C232.1 444.02 260.26 512 368 512c101.33 0 144-81.42 144-174.07-11.01 7.52-49.66 38.65-62.15 38.65-7.42 0-13.77-4.24-16.42-11.23zM407.36 36.7c4.09-4.09 18.61-4.09 22.7 0l45.25 45.24c6.25 6.25 6.25 16.42 0 22.67l-46.03 46.03-67.94-67.94 46.02-46zM46.51 122.52c-14.84-16.31-18.33-33.68-10.39-51.64C45.92 48.71 70.58 32 93.48 32c15.2 0 28.14 7.47 38.47 22.22l85.2 127.42-61.23 61.22L46.51 122.52zm70.38 340.54L34.5 477.5l14.38-82.37 289.83-289.8 67.94 67.94-289.76 289.79zM368 480c-39.28 0-68.54-10.37-86.96-30.82-19.21-21.33-26.21-53.48-23.74-81.28l16.87-16.87 40.03-35.59c71.69 4.61 82.45 43.17 89.31 61.26 7.33 19.35 25.52 31.87 46.33 31.87 6.57 0 13.17-1.55 20.72-4.86C458.15 442.53 430.08 480 368 480z"/></svg>