<svg xmlns="http://www.w3.org/2000/svg" viewBox="0 0 576 512"><!-- Font Awesome Pro 5.15.4 by @fontawesome - https://fontawesome.com License - https://fontawesome.com/license (Commercial License) --><path d="M552 191.3c-30 6.2-115.6 12.5-260.7-63.6-87-45.7-158.1-51.8-210-45.2 9-8.8 14.7-21 14.7-34.5C96 21.5 74.5 0 48 0S0 21.5 0 48c0 20.8 13.4 38.4 32 45.1V504c0 4.4 3.6 8 8 8h16c4.4 0 8-3.6 8-8v-79.6c40.2-27.2 102-56.4 179.5-60.2 28.7-1.4 76-5.8 137.9-18.8 4.4-.9 109.4-23.8 190-121.7 11.8-14.3-.7-36.2-19.4-32.4zM48 32c8.8 0 16 7.2 16 16s-7.2 16-16 16-16-7.2-16-16 7.2-16 16-16zm326.9 282.1c-59.9 12.5-105.4 16.8-133 18.2-84.8 4.2-145.3 35.1-177.9 54.2V117.7c47.2-10.6 119.5-10.5 212.4 38.3 118.9 62.4 202.3 72.4 249.5 70.4-69.5 69.7-150.1 87.5-151 87.7z"/></svg>