<svg xmlns="http://www.w3.org/2000/svg" viewBox="0 0 384 512"><!-- Font Awesome Pro 5.15.4 by @fontawesome - https://fontawesome.com License - https://fontawesome.com/license (Commercial License) --><path d="M96 224c53 0 96-43 96-96s-43-96-96-96S0 75 0 128s43 96 96 96zm0-156c33.1 0 60 26.9 60 60s-26.9 60-60 60-60-26.9-60-60 26.9-60 60-60zm192 220c-53 0-96 43-96 96s43 96 96 96 96-43 96-96-43-96-96-96zm0 156c-33.1 0-60-26.9-60-60s26.9-60 60-60 60 26.9 60 60-26.9 60-60 60zm59.8-412H378c5 0 7.8 5.7 4.8 9.6L41 477.6c-1.1 1.5-2.9 2.4-4.8 2.4H6c-5 0-7.8-5.7-4.8-9.6L343 34.4c1.1-1.5 2.9-2.4 4.8-2.4z"/></svg>