<svg xmlns="http://www.w3.org/2000/svg" viewBox="0 0 320 512"><!-- Font Awesome Pro 5.15.4 by @fontawesome - https://fontawesome.com License - https://fontawesome.com/license (Commercial License) --><path d="M317.66 132.28c3.12-3.12 3.12-8.19 0-11.31l-22.63-22.63c-3.12-3.12-8.19-3.12-11.31 0L2.34 379.71c-3.12 3.12-3.12 8.19 0 11.31l22.63 22.63c3.12 3.12 8.19 3.12 11.31 0L296.5 153.44l21.16-21.16zM64 224c16.38 0 32.76-6.25 45.25-18.74 24.99-24.99 24.99-65.52 0-90.51C96.76 102.25 80.38 96 64 96s-32.76 6.25-45.26 18.75c-24.99 24.99-24.99 65.52 0 90.51C31.24 217.75 47.62 224 64 224zm-22.62-86.63C47.42 131.33 55.45 128 64 128s16.58 3.33 22.63 9.37c12.48 12.48 12.47 32.78 0 45.25C80.59 188.67 72.55 192 64 192c-8.55 0-16.58-3.33-22.62-9.37-12.48-12.48-12.48-32.78 0-45.26zM256 288c-16.38 0-32.76 6.25-45.26 18.75-24.99 24.99-24.99 65.52 0 90.51C223.24 409.75 239.62 416 256 416s32.76-6.25 45.25-18.74c24.99-24.99 24.99-65.52 0-90.51C288.76 294.25 272.38 288 256 288zm22.63 86.63c-6.04 6.04-14.08 9.37-22.63 9.37-8.55 0-16.58-3.33-22.62-9.37-12.48-12.48-12.48-32.78 0-45.26 6.04-6.04 14.08-9.37 22.62-9.37 8.55 0 16.58 3.33 22.63 9.37 12.48 12.48 12.47 32.78 0 45.26z"/></svg>