<svg xmlns="http://www.w3.org/2000/svg" viewBox="0 0 512 512"><!-- Font Awesome Pro 5.15.4 by @fontawesome - https://fontawesome.com License - https://fontawesome.com/license (Commercial License) --><path d="M501.5 66.6l-71.7-26.1 9.5-23.2c1.7-4.1-.2-8.8-4.3-10.5L420.2.6c-4.1-1.7-8.8.2-10.5 4.3l-10 24.7L321.1 1c-8.9-3.2-18 2.7-20.5 9.6L264.1 111c-3 8.3 1.2 17.5 9.6 20.5l73.6 26.8-22.5 55.4c-3.7-1.8-7.3-3.9-11.5-4.8L253.6 197l-10.1-16.1c-11.9-19-28.8-33.5-48.4-42.5 12.8-13 20.7-30.8 20.7-50.4 0-39.7-32.3-72-72-72S72 48.3 72 88c0 20.8 9 39.4 23.1 52.6-22.8 11.3-41.9 29.7-53.8 53.5L5 266.5c-11.8 23.7-2.2 52.6 21.5 64.4.7.3 26.5 14.1 51-5L49.1 453.6c-5.7 25.8 10.6 51.5 36.4 57.3 3.6.8 7 1.1 10.4 1.1 22.3 0 42-15.8 46.8-37.6l17.2-77.5 15.9 19.9V464c0 26.5 21.5 48 48 48s48-21.5 48-48v-52.8c0-18.1-6.2-35.8-17.5-50l-46.5-58.1v-20.3c6.3 3.2 13.1 5.5 20.1 6.9l60.8 12.2-.3.8c-1.7 4.1.2 8.8 4.3 10.5l14.8 6.2c4.1 1.7 8.8-.2 10.5-4.3l6.7-16.6c13-6.4 23.1-18.1 26.2-33.1 1.8-8.8.9-17.8-2.1-26l28.6-70.2 76.6 27.9c8.9 3.3 18-2.8 20.5-9.6L511 87.1c3.1-8.3-1.2-17.4-9.5-20.5zM143.9 48c22.1 0 40 17.9 40 40s-17.9 40-40 40-40-17.9-40-40 17.9-40 40-40zm157.2 223.7h-.4l-66.4-13.3c-12.9-2.6-24.3-10.5-31.3-21.6-14.6-23.3-16.3-28-27.1-35.6v113.2l53.5 66.9c6.8 8.5 10.5 19.1 10.5 30V464c0 8.8-7.2 16-16 16s-16-7.2-16-16v-52.8c0-3.6-1.2-7.2-3.5-10L152.2 336h-11.5l-29.2 131.5c-1.7 7.7-9.6 14.2-19.1 12.2-8.6-1.9-14.1-10.5-12.2-19.1l31.6-142.3V206c-5.3 4.7-10.1 10-13.4 16.7l-36.2 72.5c-3.1 6.2-12.1 11.9-21.5 7.2-7.9-4-11.1-13.6-7.2-21.5l36.2-72.5c14.9-29.8 44.9-48.4 78.2-48.4 28 0 53.5 14.2 68.3 37.9l13.7 21.9c2.3 3.7 6.1 6.3 10.4 7.2l66.4 13.3c2.2.4 4.2 1.3 5.9 2.5l-11.5 28.9zm148.8-110.1l-150.3-54.7 25.6-70.4 150.3 54.7-25.6 70.4z"/></svg>