<svg xmlns="http://www.w3.org/2000/svg" viewBox="0 0 576 512"><!-- Font Awesome Pro 5.15.4 by @fontawesome - https://fontawesome.com License - https://fontawesome.com/license (Commercial License) --><path d="M352 320h-32c-17.66 0-32 14.36-32 32v32c0 17.64 14.34 32 32 32h32c17.66 0 32-14.36 32-32v-32c0-17.64-14.34-32-32-32zm0 64h-32v-32h32v32zm0-192h-32c-17.66 0-32 14.36-32 32v32c0 17.64 14.34 32 32 32h32c17.66 0 32-14.36 32-32v-32c0-17.64-14.34-32-32-32zm0 64h-32v-32h32v32zm128 64h-32c-17.66 0-32 14.36-32 32v32c0 17.64 14.34 32 32 32h32c17.66 0 32-14.36 32-32v-32c0-17.64-14.34-32-32-32zm0 64h-32v-32h32v32zm0-192h-32c-17.66 0-32 14.36-32 32v32c0 17.64 14.34 32 32 32h32c17.66 0 32-14.36 32-32v-32c0-17.64-14.34-32-32-32zm0 64h-32v-32h32v32zm32-224H237.06C230.45 13.4 212.87 0 192 0h-64c-20.87 0-38.45 13.4-45.06 32H64C28.65 32 0 60.65 0 96v352c0 35.35 28.65 64 64 64h448c35.35 0 64-28.65 64-64V96c0-35.35-28.65-64-64-64zM320 64h160v64H320V64zM112 48c0-8.82 7.18-16 16-16h64c8.82 0 16 7.18 16 16v336c0 8.82-7.18 16-16 16h-64c-8.82 0-16-7.18-16-16V48zm432 400c0 17.64-14.36 32-32 32H64c-17.64 0-32-14.36-32-32V96c0-17.64 14.36-32 32-32h16v320c0 26.51 21.49 48 48 48h64c26.51 0 48-21.49 48-48V64h48v64c0 17.64 14.34 32 32 32h160c17.66 0 32-14.36 32-32V64c17.64 0 32 14.36 32 32v352z"/></svg>