<svg xmlns="http://www.w3.org/2000/svg" viewBox="0 0 448 512"><!-- Font Awesome Pro 5.15.4 by @fontawesome - https://fontawesome.com License - https://fontawesome.com/license (Commercial License) --><path d="M400 32H48A48 48 0 0 0 0 80v352a48 48 0 0 0 48 48h352a48 48 0 0 0 48-48V80a48 48 0 0 0-48-48zm16 400a16 16 0 0 1-16 16H48a16 16 0 0 1-16-16V80a16 16 0 0 1 16-16h352a16 16 0 0 1 16 16zm-49.89-131.12l-63-27a29.63 29.63 0 0 0-34.45 8.43l-19.74 24.13c-26.82-14.79-60.59-48.56-75.38-75.38l24.13-19.74a29.65 29.65 0 0 0 8.44-34.45l-27-63C174.89 104 162.75 96 152 96a35.39 35.39 0 0 0-6.65.76l-58.5 13.49A29.37 29.37 0 0 0 64 139c0 153.18 124 277 277 277a29.35 29.35 0 0 0 28.74-22.87l13.5-58.5a29.49 29.49 0 0 0-17.13-33.75zM339 384C205.06 382.93 97.06 274.69 96 141l54.51-12.58L176 187.75l-42.29 34.61c29.79 63.48 62.08 94.93 124 124L292.24 304l59.35 25.43z"/></svg>