<svg xmlns="http://www.w3.org/2000/svg" viewBox="0 0 512 512"><!-- Font Awesome Pro 5.15.4 by @fontawesome - https://fontawesome.com License - https://fontawesome.com/license (Commercial License) --><path d="M256 240a80 80 0 1 0 80 80 80 80 0 0 0-80-80zm0 128a48 48 0 1 1 48-48 48.05 48.05 0 0 1-48 48zm114.43-175.75A64 64 0 0 0 314.86 160H197.14a64 64 0 0 0-55.57 32.25L36.21 376.62A32 32 0 0 0 32 392.5V448a32 32 0 0 0 32 32h384a32 32 0 0 0 32-32v-55.5a32 32 0 0 0-4.21-15.88zM448 448H64v-55.5l105.36-184.38A32.07 32.07 0 0 1 197.14 192h117.72a32.07 32.07 0 0 1 27.78 16.12L448 392.5zm52.27-329.8C431.72 63.21 344.81 32 256 32S80.28 63.21 11.73 118.2A32.17 32.17 0 0 0 0 143.29V208a16 16 0 0 0 16 16h70.11a16 16 0 0 0 14.31-8.85L128 152c39.9-17.28 83.23-24 128-24 44.77 0 88.08 6.72 128 24l27.58 63.15a16 16 0 0 0 14.31 8.85H496a16 16 0 0 0 16-16v-64.71a32.17 32.17 0 0 0-11.73-25.09zM480 192h-43.61l-23.07-52.81-5-11.55-11.57-5C355.33 104.71 309.3 96 256 96s-99.32 8.71-140.71 26.63l-11.57 5-5 11.55L75.61 192H31.94l-.18-48.84A359.7 359.7 0 0 1 256 64a357.89 357.89 0 0 1 224 79.29z"/></svg>