<svg xmlns="http://www.w3.org/2000/svg" viewBox="0 0 448 512"><!-- Font Awesome Pro 5.15.4 by @fontawesome - https://fontawesome.com License - https://fontawesome.com/license (Commercial License) --><path d="M400 32H48C21.49 32 0 53.49 0 80v352c0 26.51 21.49 48 48 48h352c26.51 0 48-21.49 48-48V80c0-26.51-21.49-48-48-48zm16 400c0 8.822-7.178 16-16 16H48c-8.822 0-16-7.178-16-16V80c0-8.822 7.178-16 16-16h352c8.822 0 16 7.178 16 16v352zm-54.867-321.745l-58.499-13.493a29.473 29.473 0 0 0-33.748 17.123l-27.001 62.995c-5.146 12.012-1.678 26.179 8.435 34.451l24.129 19.742a192.006 192.006 0 0 1-75.376 75.375l-19.74-24.127c-8.273-10.115-22.44-13.582-34.453-8.435l-62.992 26.998c-13.138 5.63-20.34 19.824-17.125 33.748l13.494 58.501C81.363 406.597 93.184 416 107 416c153.033 0 277-123.819 277-277 0-13.818-9.403-25.639-22.867-28.745zM108.987 383.992l-12.579-54.518 59.348-25.435 34.601 42.288c61.893-29.035 94.185-60.484 123.973-123.971l-42.29-34.602 25.436-59.348 54.518 12.579c-1.057 133.704-109.058 241.949-243.007 243.007z"/></svg>