<svg xmlns="http://www.w3.org/2000/svg" viewBox="0 0 640 512"><!-- Font Awesome Pro 5.15.4 by @fontawesome - https://fontawesome.com License - https://fontawesome.com/license (Commercial License) --><path d="M637 485.2L462.6 347.9l-21.2-16.7-35.4-27.8-17.4-13.7L23 1.8C19.6-1 14.5-.4 11.8 3l-10 12.5C-1 19-.4 24 3 26.8l355.7 280.1 10.9 8.6 69 54.3 6.4 5 172 135.5c3.4 2.8 8.5 2.2 11.2-1.2l10-12.5c2.8-3.6 2.2-8.6-1.2-11.4zM431.6 208c-8.8 17.8-19 34.7-30.6 50.7l24.6 19.4c16.4-23.1 31.4-48.9 45.6-79l-72.8-59.5 46-107.4 99.6 23c-.1 94-31.1 180.6-82.8 251l25.1 19.8C542.4 249.9 576 156.4 576 54.5c0-14.6-10-27.2-24.2-30.4L451 .8c-14.7-3.4-29.8 4.2-35.8 18.1l-46.5 108.5c-5.5 12.7-1.8 27.7 8.9 36.5l54 44.1zM119.1 480l-23-99.6 107.4-46 59.5 72.8c38.1-17.9 69.6-36.8 96.8-58.7L334 328.1c-19.2 15.1-39.9 28.5-62 39.4l-44.1-53.9c-8.8-10.7-23.8-14.4-36.5-8.9L82.9 351.3c-13.9 6-21.5 21-18.1 35.7L88 487.7c3.3 14.3 15.8 24.2 30.4 24.2 116.1 0 222-43.7 302.8-115.1l-25.5-20C321.5 440.9 224.9 479.9 119.1 480z"/></svg>