<svg xmlns="http://www.w3.org/2000/svg" viewBox="0 0 512 512"><!-- Font Awesome Pro 5.15.4 by @fontawesome - https://fontawesome.com License - https://fontawesome.com/license (Commercial License) --><path d="M8 128h88v88c0 4.4 3.6 8 8 8h16c4.4 0 8-3.6 8-8v-88h88c4.4 0 8-3.6 8-8v-16c0-4.4-3.6-8-8-8h-88V8c0-4.4-3.6-8-8-8h-16c-4.4 0-8 3.6-8 8v88H8c-4.4 0-8 3.6-8 8v16c0 4.4 3.6 8 8 8zM487.8 24.1L387 .8c-14.7-3.4-29.8 4.2-35.8 18.1l-46.5 108.5c-5.5 12.7-1.8 27.7 8.9 36.5l53.9 44.1c-34 69.2-90.3 125.6-159.6 159.6l-44.1-53.9c-8.8-10.7-23.8-14.4-36.5-8.9L18.9 351.3c-13.9 6-21.5 21-18.1 35.8L24 487.9C27.3 502 39.9 512 54.5 512 306.7 512 512 307.8 512 54.5c0-14.6-10-27.2-24.2-30.4zM55.1 480l-23-99.6 107.4-46 59.5 72.8c103.6-48.6 159.7-104.9 208.1-208.1l-72.8-59.5 46-107.4 99.6 23C479.7 289.7 289.6 479.7 55.1 480z"/></svg>