<svg xmlns="http://www.w3.org/2000/svg" viewBox="0 0 576 512"><!-- Font Awesome Pro 5.15.4 by @fontawesome - https://fontawesome.com License - https://fontawesome.com/license (Commercial License) --><path d="M544 64H32A32 32 0 0 0 0 96v320a32 32 0 0 0 32 32h512a32 32 0 0 0 32-32V96a32 32 0 0 0-32-32zM128 416H32V224h64v96a16 16 0 0 0 16 16h16zm144 0H160v-80h16a16 16 0 0 0 16-16v-96h48v96a16 16 0 0 0 16 16h16zM128 304v-80h32v80zm288 112H304v-80h16a16 16 0 0 0 16-16v-96h48v96a16 16 0 0 0 16 16h16zM272 304v-80h32v80zm272 112h-96v-80h16a16 16 0 0 0 16-16v-96h64zM416 304v-80h32v80zm128-112H32V96h512z"/></svg>