<svg xmlns="http://www.w3.org/2000/svg" viewBox="0 0 576 512"><!-- Font Awesome Pro 5.15.4 by @fontawesome - https://fontawesome.com License - https://fontawesome.com/license (Commercial License) --><path d="M528.49 228.23C490.58 129.67 394.93 64 288 64S85.41 129.67 47.53 228.23C5 229.87 0 265.64 0 274.14A46.09 46.09 0 0 0 46.22 320c2.72 0 4.77-.6 7.32-.76L86 416.56A46 46 0 0 0 129.63 448h316.74A46 46 0 0 0 490 416.55l32.43-97.31c2.54.17 4.6.76 7.32.76A46.09 46.09 0 0 0 576 274.14c0-8.77-5.15-44.14-47.51-45.91zm-68.84 178.18a14 14 0 0 1-13.28 9.59H129.62a14 14 0 0 1-13.28-9.58l-31.26-93.79a127.07 127.07 0 0 0 29.2-16.69c9.09-6.74 12.6-9.43 25.41.06 12.12 9 32.47 24 67.94 24s55.84-15.06 68-24.08c9.07-6.71 12.51-9.4 25.21.05 12.15 9 32.46 24 67.93 24s55.81-15.06 67.94-24.06c10.88-8.07 14.12-8.2 25.12 0a126.91 126.91 0 0 0 29.08 16.69l-31.26 93.8zM529.77 288c-24.94 0-38.19-9.84-48.91-17.81-29.71-22-50.06-9.69-63.22.06C407 278.16 393.74 288 368.77 288s-38.22-9.84-48.94-17.77c-31.82-23.68-53.5-7.25-63.3 0-10.66 7.93-23.91 17.77-48.91 17.77s-38.25-9.84-49-17.77c-6.78-5-29.71-25-63.47 0-10.68 7.9-24 17.74-49 17.74a13.87 13.87 0 1 1 0-27.74c5.39 0 11.08.48 26.75-8.17C126.23 98.14 271.72 96 288 96c16 0 161.72 2 215 156 15.75 8.91 20.57 8.31 26.78 8.31a13.87 13.87 0 1 1 0 27.74zM199.16 145.69a16.07 16.07 0 0 0-21.47 7.16l-16 32a16 16 0 0 0 7.16 21.47c9.54 4.7 18.36-1 21.47-7.16l16-32a16 16 0 0 0-7.16-21.47zm199.14 7.15a16 16 0 1 0-28.63 14.31l16 32c3.1 6.17 11.93 11.86 21.47 7.16a16 16 0 0 0 7.16-21.47zM288 144a16 16 0 0 0-16 16v32a16 16 0 1 0 32 0v-32a16 16 0 0 0-16-16z"/></svg>