<svg xmlns="http://www.w3.org/2000/svg" viewBox="0 0 576 512"><!-- Font Awesome Pro 5.15.4 by @fontawesome - https://fontawesome.com License - https://fontawesome.com/license (Commercial License) --><path d="M560 192h-29.5c-11.1-25.3-28.7-46.9-50.5-63.4V64h-16c-46.68 0-83.15 27.22-89.39 32H223.99c-41.32 0-82.57 17.33-111.74 45.92-22.43 21.87-38.56 50.15-45.07 82.08h-11.2c-14.8 0-26.5-13.5-23.5-28.8 2.2-11.4 12.9-19.2 24.5-19.2h1c3.3 0 6-2.7 6-6v-20c0-3.3-2.7-6-6-6-28.5 0-53.9 20.4-57.5 48.6-4.4 34.2 22.2 63.4 55.5 63.4h8c0 52.2 25.4 98.1 64 127.3V464c0 8.8 7.2 16 16 16h112c8.8 0 16-7.2 16-16v-48h64v48c0 8.8 7.2 16 16 16h112c8.8 0 16-7.2 16-16v-80.9c11.7-9 22.4-19.3 31.3-31.1H560c8.8 0 16-7.2 16-16V208c0-8.8-7.2-16-16-16zm-16 128h-48.7c-17 22.4-17 24.1-47.3 47.3V448h-80v-64H239.99v64h-80v-80.7c-64.9-49-64-93.5-64-111.3 0-70.6 57.4-128 128.01-128h161.71c16.9-13.5 33.2-26.5 62.3-30.8v47.3c39.7 30.1 44 39.3 61.6 79.5H544v96zm-112.01-96c-8.8 0-16 7.2-16 16s7.2 16 16 16 16-7.2 16-16-7.19-16-16-16z"/></svg>