<svg xmlns="http://www.w3.org/2000/svg" viewBox="0 0 512 512"><!-- Font Awesome Pro 5.15.4 by @fontawesome - https://fontawesome.com License - https://fontawesome.com/license (Commercial License) --><path d="M158.87.15c-1.09-.1-2.18-.15-3.26-.15a32.85 32.85 0 0 0-32.07 24.27L.55 491.63A16.24 16.24 0 0 0 16.15 512a16.54 16.54 0 0 0 4.4-.61l467.6-129.66c15.72-4.35 25.49-19.67 23.62-35.89C490.89 165.08 340.78 17.32 158.87.15zM38.49 473.21L133 113.91c148.3 14 248.38 112.63 264.45 259.75zM428.65 365C409.38 206.37 301.13 99.81 141.26 82.67l13.24-50.31a1.54 1.54 0 0 1 1.11-.36h.25c165.67 15.63 305 152.13 323.74 318.89zM192 176a48 48 0 1 0 48 48 48.05 48.05 0 0 0-48-48zm0 64a16 16 0 1 1 16-16 16 16 0 0 1-16 16zm-48 80a48 48 0 1 0 48 48 48.05 48.05 0 0 0-48-48zm0 64a16 16 0 1 1 16-16 16 16 0 0 1-16 16zm96-64a48 48 0 1 0 48-48 48.05 48.05 0 0 0-48 48zm64 0a16 16 0 1 1-16-16 16 16 0 0 1 16 16z"/></svg>