<svg xmlns="http://www.w3.org/2000/svg" viewBox="0 0 576 512"><!-- Font Awesome Pro 5.15.4 by @fontawesome - https://fontawesome.com License - https://fontawesome.com/license (Commercial License) --><path d="M523.2 100.13a15.43 15.43 0 0 0-12.36-6 16.42 16.42 0 0 0-11.61 4.78L342.17 256l157.06 157.06a16.42 16.42 0 0 0 11.61 4.78 15.4 15.4 0 0 0 12.36-6 256.47 256.47 0 0 0 0-311.71zm-62 229.69L387.42 256l73.87-73.87A157.51 157.51 0 0 1 480 256a155.93 155.93 0 0 1-18.76 73.82zm47.31 47.3l-23.61-23.6A190.2 190.2 0 0 0 512 256c0-35.68-10.2-68.79-27.17-97.41l23.72-23.71a224.58 224.58 0 0 1 0 242.24zM256.45 256L425.6 86.85c6.46-6.46 6.45-17.36-.42-23.39A255.13 255.13 0 0 0 256.46 0C175.37 0 94.29 38.28 42.65 114.84c-56.87 84.3-56.87 198 0 282.34C94.3 473.72 175.38 512 256.45 512a255.14 255.14 0 0 0 168.73-63.46c6.87-6 6.88-16.93.42-23.39zm7.55-64a16 16 0 1 1 16-16 16 16 0 0 1-16 16zm44.61-33.41a47.93 47.93 0 1 0-62 62L211.2 256l132.42 132.42c-25.23 17-55 27.58-87.62 27.58-18.23 0-35.46-3.71-51.8-9.35a47.87 47.87 0 1 0-73.84-52.77C109.16 326.73 96 293 96 256c0-88.22 71.78-160 160-160 32.64 0 62.5 10.49 87.73 27.47zM192 368a16 16 0 1 1-16-16 16 16 0 0 1 16 16zm64.45 112c-75.82 0-144.08-36.71-187.27-100.72-49.74-73.73-49.75-172.8 0-246.54C112.36 68.72 180.62 32 256.46 32a223.62 223.62 0 0 1 134.15 44.59l-23.74 23.74C335.48 77.87 297.55 64 256 64 150 64 64 150 64 256s86 192 192 192c41.55 0 79.58-13.77 111-36.21l23.62 23.62A223.65 223.65 0 0 1 256.45 480z"/></svg>