<svg xmlns="http://www.w3.org/2000/svg" viewBox="0 0 576 512"><!-- Font Awesome Pro 5.15.4 by @fontawesome - https://fontawesome.com License - https://fontawesome.com/license (Commercial License) --><path d="M558.57 355.99L448 303.26v-29.14c0-11.24-5.9-21.65-15.53-27.44L384 217.6V102.63c0-8.49-3.37-16.63-9.38-22.63L299.31 4.69C296.19 1.56 292.09 0 288 0s-8.19 1.56-11.31 4.69L201.37 80c-6 6-9.37 14.14-9.37 22.62V217.6l-48.47 29.08A31.988 31.988 0 0 0 128 274.12v29.15L17.43 355.99C6.96 360.99 0 373.89 0 388.32V504c0 4.42 3.58 8 8 8h16c4.42 0 8-3.58 8-8 0 0-.35-119.22 0-120l96-45.29V504c0 4.42 3.58 8 8 8h16c4.42 0 8-3.58 8-8V274.12l64-38.4V102.63l64-64 64 64v133.09l64 38.4V504c0 4.42 3.58 8 8 8h16c4.42 0 8-3.58 8-8V338.71L544 384c.35.78 0 120 0 120 0 4.42 3.58 8 8 8h16c4.42 0 8-3.58 8-8V388.32c0-14.43-6.96-27.33-17.43-32.33zM281.71 320.3c-33.28 3.17-57.71 33.02-57.71 66.45V504c0 4.42 3.58 8 8 8h16c4.42 0 8-3.58 8-8V385.8c0-15.95 10.86-30.76 26.59-33.36C302.61 349.15 320 364.58 320 384v120c0 4.42 3.58 8 8 8h16c4.42 0 8-3.58 8-8V384c0-37.42-32.12-67.34-70.29-63.7z"/></svg>