<svg xmlns="http://www.w3.org/2000/svg" viewBox="0 0 576 512"><!-- Font Awesome Pro 5.15.4 by @fontawesome - https://fontawesome.com License - https://fontawesome.com/license (Commercial License) --><path d="M224,64C100.28711,64,0,164.28516,0,288,0,411.71289,100.28711,512,224,512S448,411.71289,448,288C448,164.28516,347.71289,64,224,64ZM55.03906,202.86133A168.37236,168.37236,0,0,1,208,104c16.42969.23242,24,9.5918,24,20.62109a55.68,55.68,0,0,1-8.79492,30.26368l-47.916,55.26562c-14.0332,16.18555-14.373,43.09961,1.29492,57.707A44.99741,44.99741,0,0,0,207.45312,280H272a24.02624,24.02624,0,0,1,24,24v16.89062a56.29763,56.29763,0,0,1-5.91406,25.04883l-40.32227,64.64844a20.736,20.736,0,0,1-15.0625,11.14063c-3.28515.55273-6.60156,1.01171-10.7832,1.41406a8.10651,8.10651,0,0,1-7.91992-8.07422c-.00586-70.99024-.01172-44.60742.04492-55.06836H208a24.0275,24.0275,0,0,1-24-24V300.68555L127.0332,243.7168A40.0085,40.0085,0,0,0,98.74609,232l-25.02539-.00195C58.207,231.99805,49.11133,215.93945,55.03906,202.86133ZM224,480C118.13086,480,32,393.86914,32,288a191.85276,191.85276,0,0,1,4.28516-40.10742A51.99721,51.99721,0,0,0,73.7207,263.99805L98.74609,264a7.94986,7.94986,0,0,1,5.65821,2.34375L152,313.94141V336a56.07819,56.07819,0,0,0,31.99805,50.5918c-.002,1.70312-.002.41992,0,28.47851A40.04816,40.04816,0,0,0,223.918,455.14258c4.89062,0,14.47656-1.58594,16.082-1.85547a52.83521,52.83521,0,0,0,38.38281-28.38672L318.709,360.252A88.49462,88.49462,0,0,0,328,320.89062V304a56.0629,56.0629,0,0,0-56-56H207.45312a13.22277,13.22277,0,0,1-9.4121-3.90039,8.02588,8.02588,0,0,1-.38477-10.89649l49.72656-57.35546.99414-1.14649.8418-1.26172A87.73535,87.73535,0,0,0,264,124.62109,52.59039,52.59039,0,0,0,257.25781,99.082C347.30273,114.90039,416,193.49219,416,288,416,393.86914,329.86914,480,224,480ZM512,0a64,64,0,1,0,64,64A64.00067,64.00067,0,0,0,512,0Zm0,96a32,32,0,1,1,32-32A32.03667,32.03667,0,0,1,512,96Z"/></svg>