<svg xmlns="http://www.w3.org/2000/svg" viewBox="0 0 640 512"><!-- Font Awesome Pro 5.15.4 by @fontawesome - https://fontawesome.com License - https://fontawesome.com/license (Commercial License) --><path d="M269.44,480H211.56l53.18-186.06L257.2,288H144L96,352H69.34l28-96-28-96H94.66L54,128H48a16,16,0,0,0-15.54,19.88L64,256,32.48,364.13A16,16,0,0,0,48,384h56a16,16,0,0,0,12.8-6.41L160,320h64L175,491.59A16,16,0,0,0,190.34,512H278.7a16,16,0,0,0,13.89-8.06l74.12-129.71-25.41-20ZM189.72,72l42.94,33.81L211.56,32h57.88L376.23,218.89l6.5,5.11H512c26.23,0,62.61,21.75,64,31.91C574.61,266.25,538.23,288,512,288H464l40.64,32H512c35.34,0,96-28.66,96-64s-60.66-64-96-64H397.7L292.61,8.06C290.06,3.61,283.84,0,278.72,0H190.34A16,16,0,0,0,175,20.39ZM637,485.32,23,1.8A7.88,7.88,0,0,0,11.77,3l-10,12.5A7.94,7.94,0,0,0,3,26.71L617,510.23A8,8,0,0,0,628.2,509l10-12.5A7.86,7.86,0,0,0,637,485.32Z"/></svg>