<svg xmlns="http://www.w3.org/2000/svg" viewBox="0 0 640 512"><!-- Font Awesome Pro 5.15.4 by @fontawesome - https://fontawesome.com License - https://fontawesome.com/license (Commercial License) --><path d="M632 480H8c-4.42 0-8 3.58-8 8v16c0 4.42 3.58 8 8 8h624c4.42 0 8-3.58 8-8v-16c0-4.42-3.58-8-8-8zm-51.56-177.46c-19.46-20.21-45.93-35.35-76.55-43.77l-96.94-26.68L310.5 46.83c-2.19-4.23-4.15-8.58-6.18-12.89-3.14-6.64-8.97-11.67-16.05-13.62C269.1 15.05 216.78 0 216.78 0c-.28 0-10.77-.48-18.69 8.65-5.41 6.25-7.37 16.41-5.09 24.35l42.32 151.85-87.29-24.02-26.88-67.79c-2.92-7.47-9.18-13.18-16.75-15.26C59.87 65.53 61.43 65.64 57 65.64c-13.55 0-24.77 11.34-25 25.29l.29 107.22c.25 11.54 5.21 22.55 13.62 30.21l93.32 83.17c8.42 7.67 18.62 13.31 29.49 16.3l295.95 81.45c16.21 4.46 32.32 6.73 47.88 6.73 13.79 0 27.15-1.79 39.71-5.33 30.87-8.69 49.14-23.15 54.31-43 5.17-19.85-3.61-41.76-26.13-65.14zm-4.86 57.07c-2.01 7.72-13.67 15.1-32.01 20.26-30.85 8.68-60.03 1.41-70.42-1.45L177.2 296.97c-6.03-1.66-11.72-4.81-16.43-9.1L67.45 204.7c-1.93-1.76-3.11-4.46-3.17-7.23l-.1-97.57 28.35 7.8 31.54 79.72 157.85 43.44-54.51-194.65 48.8 13.98 108.76 209.03 110.44 30.4c25.08 6.9 46.51 19.04 61.99 35.11 13.64 14.18 20.28 26.88 18.18 34.88z"/></svg>