<svg xmlns="http://www.w3.org/2000/svg" viewBox="0 0 512 512"><!-- Font Awesome Pro 5.15.4 by @fontawesome - https://fontawesome.com License - https://fontawesome.com/license (Commercial License) --><path d="M500.46078,11.36064c-28.37693-28.41319-93.93158-.6778-167.29286,51.54847A207.12926,207.12926,0,0,0,256,47.95048c-114.87493,0-207.99987,93.13494-207.99987,208.0222a207.22913,207.22913,0,0,0,15.09765,77.563c-9.41992,13.29049-18.27733,26.34657-25.84373,38.79711C-1.36507,435.89032-9.99788,479.04336,11.53922,500.59449,19.35757,508.41759,29.97085,512,42.81264,512c33.78513,0,82.90424-25.01634,136.12882-62.92273A207.12538,207.12538,0,0,0,256,463.99488c114.87493,0,207.99987-93.13494,207.99987-208.0222a207.20185,207.20185,0,0,0-15.043-77.41256c9.459-13.35689,18.18163-26.41883,25.789-38.93579C513.36507,76.06676,521.99788,32.91372,500.46078,11.36064ZM256,79.9539c67.666,0,126.43937,38.43965,155.88271,94.58431-30.19529,40.71528-67.73042,84.216-110.41985,126.93347-46.56442,46.60458-89.31635,83.001-126.4921,110.59188-56.34958-29.37814-94.97065-88.26138-94.97065-156.09088C80.00011,158.91545,158.95319,79.9539,256,79.9539ZM34.27163,477.84792c-4.082-4.06684-6.53125-27.94439,30.45506-88.80049,4.57031-7.51838,9.60546-15.2653,14.92577-23.14114a208.7054,208.7054,0,0,0,66.53706,66.50123C84.69347,473.74006,43.38686,486.888,34.27163,477.84792ZM431.99989,255.97268c0,97.05723-78.95308,176.01878-175.99989,176.01878a175.07568,175.07568,0,0,1-45.74606-6.24285c38.29294-29.91921,77.56635-65.12218,113.94133-101.53232,38.1074-38.131,72.5898-77.1,101.48235-114.30712A175.20682,175.20682,0,0,1,431.99989,255.97268ZM366.01165,79.6609c49-32.92734,85.38276-48.302,102.48626-48.302,4.30078,0,7.41015.94151,9.23046,2.74834,4.082,4.06879,6.53125,27.94634-30.45506,88.80244-4.42968,7.28789-10.04491,15.13638-15.15428,22.75243A208.73991,208.73991,0,0,0,366.01165,79.6609Z"/></svg>