<svg xmlns="http://www.w3.org/2000/svg" viewBox="0 0 384 512"><!-- Font Awesome Pro 5.15.4 by @fontawesome - https://fontawesome.com License - https://fontawesome.com/license (Commercial License) --><path d="M352,128H304V16a16,16,0,0,0-32,0V128H112V16a16,16,0,0,0-32,0V128H32A32,32,0,0,0,0,160v32a32,32,0,0,0,32,32v32c0,82.75,63.37,150.22,144,158.38V512h32V414.38c80.63-8.16,144-75.63,144-158.38V224a32,32,0,0,0,32-32V160A32,32,0,0,0,352,128ZM320,256a128,128,0,0,1-256,0V224H320Zm32-64H32V160H352Z"/></svg>