<svg xmlns="http://www.w3.org/2000/svg" viewBox="0 0 576 512"><!-- Font Awesome Pro 5.15.4 by @fontawesome - https://fontawesome.com License - https://fontawesome.com/license (Commercial License) --><path d="M441.5 39.8C432.9 25.1 417.1 16 400 16H176c-17.1 0-32.9 9.1-41.5 23.8l-112 192c-8.7 14.9-8.7 33.4 0 48.4l112 192c8.6 14.7 24.4 23.8 41.5 23.8h224c17.1 0 32.9-9.1 41.5-23.8l112-192c8.7-14.9 8.7-33.4 0-48.4l-112-192zm84.3 224.3l-112 192c-2.9 4.9-8.2 7.9-13.8 7.9H176c-5.7 0-11-3-13.8-7.9l-112-192c-2.9-5-2.9-11.2 0-16.1l112-192c2.8-5 8.1-8 13.8-8h224c5.7 0 11 3 13.8 7.9l112 192c2.9 5 2.9 11.2 0 16.2zM416 250v12c0 6.6-5.4 12-12 12h-98v98c0 6.6-5.4 12-12 12h-12c-6.6 0-12-5.4-12-12v-98h-98c-6.6 0-12-5.4-12-12v-12c0-6.6 5.4-12 12-12h98v-98c0-6.6 5.4-12 12-12h12c6.6 0 12 5.4 12 12v98h98c6.6 0 12 5.4 12 12z"/></svg>