<svg xmlns="http://www.w3.org/2000/svg" viewBox="0 0 384 512"><!-- Font Awesome Pro 5.15.4 by @fontawesome - https://fontawesome.com License - https://fontawesome.com/license (Commercial License) --><path d="M97.59961,336h76.80078A9.60081,9.60081,0,0,0,184,326.40039V249.59961A9.60081,9.60081,0,0,0,174.40039,240H97.59961A9.60081,9.60081,0,0,0,88,249.59961v76.80078A9.60081,9.60081,0,0,0,97.59961,336ZM112,264h48v48H112ZM97.59961,448h76.80078A9.60081,9.60081,0,0,0,184,438.40039V361.59961A9.60081,9.60081,0,0,0,174.40039,352H97.59961A9.60081,9.60081,0,0,0,88,361.59961v76.80078A9.60081,9.60081,0,0,0,97.59961,448ZM112,376h48v48H112Zm97.59961,72h76.80078A9.60081,9.60081,0,0,0,296,438.40039V361.59961A9.60081,9.60081,0,0,0,286.40039,352H209.59961A9.60081,9.60081,0,0,0,200,361.59961v76.80078A9.60081,9.60081,0,0,0,209.59961,448ZM224,376h48v48H224ZM97.59961,224h76.80078A9.60081,9.60081,0,0,0,184,214.40039V137.59961A9.60081,9.60081,0,0,0,174.40039,128H97.59961A9.60081,9.60081,0,0,0,88,137.59961v76.80078A9.60081,9.60081,0,0,0,97.59961,224ZM140,152h20v20H140Zm0,28h20v20H140Zm-28-28h20v20H112Zm0,28h20v20H112Zm97.59961,44h76.80078A9.60081,9.60081,0,0,0,296,214.40039V137.59961A9.60081,9.60081,0,0,0,286.40039,128H209.59961A9.60081,9.60081,0,0,0,200,137.59961v76.80078A9.60081,9.60081,0,0,0,209.59961,224ZM252,152h20v20H252Zm0,28h20v20H252Zm-28-28h20v20H224Zm0,28h20v20H224ZM209.59961,336h76.80078A9.60081,9.60081,0,0,0,296,326.40039V249.59961A9.60081,9.60081,0,0,0,286.40039,240H209.59961A9.60081,9.60081,0,0,0,200,249.59961v76.80078A9.60081,9.60081,0,0,0,209.59961,336ZM224,264h48v48H224ZM376,480H352V88a23.99993,23.99993,0,0,0-24-24h-8.02148V48a15.99829,15.99829,0,0,0-16-16H208V16a16,16,0,0,0-32,0V32H80A15.99954,15.99954,0,0,0,64,48V64H56A23.99993,23.99993,0,0,0,32,88V480H8a8.00039,8.00039,0,0,0-8,8v16a8.00039,8.00039,0,0,0,8,8H376a8.00039,8.00039,0,0,0,8-8V488A8.00039,8.00039,0,0,0,376,480Zm-56,0H64V96H320Z"/></svg>