<svg xmlns="http://www.w3.org/2000/svg" viewBox="0 0 640 512"><!-- Font Awesome Pro 5.15.4 by @fontawesome - https://fontawesome.com License - https://fontawesome.com/license (Commercial License) --><path d="M145.8 391.7c8.8-11 14.2-24.7 14.2-39.7 0-35.3-28.7-64-64-64s-64 28.7-64 64c0 15.1 5.5 28.8 14.2 39.7C19 404.5 0 432 0 464v17.6C0 498.4 13.6 512 30.4 512h131.2c16.8 0 30.4-13.6 30.4-30.4V464c0-32-19-59.5-46.2-72.3zM96 320c17.7 0 32 14.4 32 32s-14.3 32-32 32-32-14.4-32-32 14.3-32 32-32zM32 481.6V464c0-26.5 21.5-48 48-48h32c26.5 0 48 21.5 48 48l1.6 16L32 481.6zm113.8-377.9C154.6 92.7 160 79 160 64c0-35.3-28.7-64-64-64S32 28.7 32 64c0 15.1 5.5 28.8 14.2 39.7C19 116.5 0 144 0 176v17.6C0 210.4 13.6 224 30.4 224h131.2c16.8 0 30.4-13.6 30.4-30.4V176c0-32-19-59.5-46.2-72.3zM96 32c17.7 0 32 14.4 32 32s-14.3 32-32 32-32-14.4-32-32 14.3-32 32-32zM32 193.6V176c0-26.5 21.5-48 48-48h32c26.5 0 48 21.5 48 48l1.6 16L32 193.6zM616 32H248c-13.3 0-24 10.7-24 24v112c0 13.3 10.7 24 24 24h368c13.3 0 24-10.7 24-24V56c0-13.3-10.7-24-24-24zM480 160H256V64h224v96zm128 0h-96V64h96v96zm8 160H248c-13.3 0-24 10.7-24 24v112c0 13.3 10.7 24 24 24h368c13.3 0 24-10.7 24-24V344c0-13.3-10.7-24-24-24zM320 448h-64v-96h64v96zm288 0H352v-96h256v96z"/></svg>