<svg xmlns="http://www.w3.org/2000/svg" viewBox="0 0 448 512"><!-- Font Awesome Pro 5.15.4 by @fontawesome - https://fontawesome.com License - https://fontawesome.com/license (Commercial License) --><path d="M351.9 208.8zM320 304h-59.5l11-44.1c1.2-4.8.1-9.8-2.9-13.7s-7.7-6.2-12.6-6.2h-80c-7.3 0-13.8 5-15.5 12.1l-32 128C126 390.3 133.7 400 144 400h61.6l-13.4 93.7c-1.6 11.1 7.7 18.2 15.8 18.2 8.5 0 12.7-6.2 13.6-7.6 3.4-5.3 111.9-175.8 111.9-175.8 6.8-10.7-1-24.5-13.5-24.5zm-85.7 121.2l5.6-38.9c.7-4.6-.7-9.2-3.8-12.7-3-3.5-7.5-5.5-12.1-5.5h-59.5l24-96h47l-11 44.1c-2.5 10.2 5.2 19.9 15.5 19.9h50.8c-24.1 37.9-42.6 66.9-56.5 89.1zm158.6-227.4c.1-1.9.2-3.8.2-5.8 0-36-22.8-66.8-54.9-79.3v-.7C338.3 50.2 287 0 224 0c-6.5 0-12.4.8-17.8 1.6-11.1 1.7-20.5 9.1-24.7 19.4s-2.8 22.2 3.8 31.2c3.1 4.1 6.7 10.9 6.7 19.7 0 19.1-16.4 34.7-36.6 34.7h-13.7c-47.9 0-86.9 38.3-86.9 85.3 0 1.9.1 3.8.2 5.8-32.6 16.5-55 49.9-55 87.6 0 52.9 42.7 95.8 96 98.2 0-3.7.5-7.5 1.4-11.2l5.1-20.4h-1.9C62.9 352 32 322 32 285.3c0-34.8 27.9-63.3 63-66.1-5-8-8.2-17.2-8.2-27.2 0-29.5 24.6-53.3 54.9-53.3h13.7c37.9 0 68.6-29.8 68.6-66.7 0-14.5-4.9-27.8-12.9-38.7 4.2-.6 8.5-1.3 12.9-1.3 45.4 0 82.3 35.8 82.3 80 0 9.4-2 18.3-5 26.7h5c30.3 0 54.9 23.9 54.9 53.3 0 10.1-3.2 19.2-8.2 27.2 35.1 2.8 63 31.3 63 66.1 0 33.4-25.7 61-58.9 65.7-4 6.3-11.5 18.1-21 33h11.3c55.5 0 100.6-44.3 100.6-98.7 0-37.7-22.4-71.1-55.1-87.5z"/></svg>