<svg xmlns="http://www.w3.org/2000/svg" viewBox="0 0 512 512"><!-- Font Awesome Pro 5.15.4 by @fontawesome - https://fontawesome.com License - https://fontawesome.com/license (Commercial License) --><path d="M343.7 368H168.3c-5.8 0-9.8 5.7-7.8 11 10.5 27.9 58.4 53 95.5 53s85-25.1 95.5-53c2-5.3-2-11-7.8-11zM192 320c17.7 0 32-14.3 32-32s-14.3-32-32-32-32 14.3-32 32 14.3 32 32 32zm128-64c-17.7 0-32 14.3-32 32s14.3 32 32 32 32-14.3 32-32-14.3-32-32-32zm156.2 86.7c5.1-11.7 7.8-24.5 7.8-37.7 0-39.2-23.9-72.9-57.8-87.4 1.2-5.7 1.8-11.6 1.8-17.6 0-37.2-23.3-69.2-56-82v-2C372 52 320 0 256 0c-6.8 0-12.7.9-18.2 1.7-11 1.7-20.2 9-24.5 19.3-4.3 10.2-2.9 22 3.5 31 3.3 4.6 7.2 12.1 7.2 22 0 21-17 38-38 38h-14c-48.5 0-88 39.5-88 88 0 5.9.6 11.8 1.8 17.6C51.9 232.1 28 265.8 28 305c0 13.2 2.7 26 7.8 37.7C13.8 360.1 0 387 0 417c0 52.4 42.6 95 95 95h322c52.4 0 95-42.6 95-95 0-30-13.8-56.9-35.8-74.3zM417 480H95c-34.8 0-63-28.2-63-63 0-31.4 23-57.2 53.1-62C69.9 343.5 60 325.5 60 305c0-34.8 28.2-63 63-63h12.3c-11.7-10.3-19.3-25.2-19.3-42 0-30.9 25.1-56 56-56h14c38.7 0 70-31.3 70-70 0-15.2-5-29.2-13.2-40.7 4.3-.7 8.7-1.3 13.2-1.3 46.4 0 84 37.6 84 84 0 9.9-2 19.2-5.1 28h5.1c30.9 0 56 25.1 56 56 0 16.8-7.6 31.7-19.3 42H389c34.8 0 63 28.2 63 63 0 20.5-9.9 38.5-25.1 50 30 4.8 53.1 30.6 53.1 62 0 34.8-28.2 63-63 63z"/></svg>