<svg xmlns="http://www.w3.org/2000/svg" viewBox="0 0 512 512"><!-- Font Awesome Pro 5.15.4 by @fontawesome - https://fontawesome.com License - https://fontawesome.com/license (Commercial License) --><path d="M476.17 342.71C481.28 331 484 318.22 484 305c0-39.19-23.86-72.92-57.81-87.42A86.68 86.68 0 0 0 428 200c0-37.25-23.26-69.16-56.02-81.99.01-.67.02-1.34.02-2.01C372 52.04 319.96 0 256 0c-6.79 0-12.73.85-18.24 1.73a31.995 31.995 0 0 0-24.51 19.28 32.005 32.005 0 0 0 3.53 30.98C220.08 56.58 224 64.12 224 74c0 20.95-17.05 38-38 38h-14c-48.52 0-88 39.48-88 88 0 5.95.62 11.84 1.81 17.58C51.86 232.08 28 265.81 28 305c0 13.22 2.71 25.99 7.83 37.71C13.77 360.14 0 387.04 0 417c0 52.38 42.62 95 95 95h322c52.38 0 95-42.62 95-95 0-29.96-13.77-56.86-35.83-74.29zM417 480H95c-34.79 0-63-28.21-63-63 0-31.39 23.02-57.21 53.06-62C69.93 343.49 60 325.48 60 305c0-34.79 28.21-63 63-63h12.31C123.57 231.74 116 216.82 116 200c0-30.93 25.07-56 56-56h14c38.66 0 70-31.34 70-70 0-15.21-4.98-29.19-13.22-40.67 4.34-.69 8.69-1.33 13.22-1.33 46.39 0 84 37.61 84 84 0 9.87-2.02 19.2-5.14 28H340c30.93 0 56 25.07 56 56 0 16.82-7.57 31.74-19.31 42H389c34.79 0 63 28.21 63 63 0 20.48-9.93 38.49-25.06 50 30.04 4.79 53.06 30.61 53.06 62 0 34.79-28.21 63-63 63z"/></svg>