<svg xmlns="http://www.w3.org/2000/svg" viewBox="0 0 512 512"><!-- Font Awesome Pro 5.15.4 by @fontawesome - https://fontawesome.com License - https://fontawesome.com/license (Commercial License) --><path d="M440.17 138.22a68 68 0 0 0-19.8-22.31 66.9 66.9 0 0 0-49.47-61.38 67.33 67.33 0 0 0-68-35.65A67.69 67.69 0 0 0 255.94 0a65.92 65.92 0 0 0-46.47 18.89 67.18 67.18 0 0 0-68 35.64C110.7 62.78 93 90 91.74 116a65.84 65.84 0 0 0-19.83 22.78 64.67 64.67 0 0 0-3.37 54.86l39.76 290.68A32 32 0 0 0 140 512h232.35a32 32 0 0 0 31.73-27.68l40.08-293c5.92-17.13 5.3-36.23-3.99-53.1zM140 480l-39.28-288H176l16.22 288zm148.06 0h-63.78l-16.21-288h96.24zm84.26 0h-52.16l16.21-288h75.28zM98 160c4.42-15.78 17.82-23.38 29.78-24.57-13.9-26.22 9.64-56.43 38.11-50.43.55-29.22 34.33-44.9 56.37-27.17 11.74-41.86 67.59-25.63 67.59 0C312.6 40 345.94 56 346.49 85c28.57-6 51.45 23.81 38.15 50.45 12 1.2 25.44 9.11 29.74 24.57z"/></svg>