<svg xmlns="http://www.w3.org/2000/svg" viewBox="0 0 512 512"><!-- Font Awesome Pro 5.15.4 by @fontawesome - https://fontawesome.com License - https://fontawesome.com/license (Commercial License) --><path d="M460,216H445.46875l-9.03125-27.125c-8.125-24.3125-24.1875-44-44.5-58.03125C411,117.90625,424,96.73438,424,72a72,72,0,0,0-144,0,71.00848,71.00848,0,0,0,4.1875,23.71875A112.98758,112.98758,0,0,0,199.4375,108.5L153.25,132.5625a51.63613,51.63613,0,0,0-15.418,14.24414C129.09766,71.17773,109.79688,0,72,0,15.15625,0,0,160.92188,0,256S15.15625,512,72,512c22.94727,0,38.99023-26.44922,50.082-64h56.82422A83.90044,83.90044,0,0,0,256.125,397.07812l19.3125-39.73437,43.6875,19.625L299.5,445.70312A52.05212,52.05212,0,0,0,335.1875,510,52.892,52.892,0,0,0,349.5,512a52.24717,52.24717,0,0,0,50-37.6875l24.375-85.40625a84.15978,84.15978,0,0,0-12-71.10937A85.07673,85.07673,0,0,0,431.09375,320H460a52,52,0,0,0,0-104ZM352,32a40,40,0,1,1-40,40A39.997,39.997,0,0,1,352,32ZM72.65625,480.09375C58.46875,474.60938,32,392.79688,32,256,32,121.32812,57.65625,39.95312,72,32.21875,86.34375,39.95312,112,121.32812,112,256c0,16.86133-.418,32.84961-1.14648,48h31.9082C143.582,287.01562,144,270.67969,144,256c0-13.10352-.32422-27.51758-.96875-42.5293a51.69161,51.69161,0,0,0,62.65625,8.91992l18.9375-9.84374L165.75,344H116a51.81787,51.81787,0,0,0-24.86914,97.377C84.47656,464.63086,77.57812,477.99805,72.65625,480.09375ZM226.6875,384.48438C219.25,401.875,197.875,416,178.9375,416H116a20,20,0,0,1,0-40h62.90625a11.9977,11.9977,0,0,0,11.03125-7.28125l26.71875-56.875A83.10126,83.10126,0,0,0,246.625,343.26562ZM460,288H431.03125c-20.6875,0-42.78125-15.92188-49.3125-35.54688L368.125,211.65625a43.28905,43.28905,0,0,0-15-20.67187l-41.46875,103.6875,52.78125,23.71874A52.3082,52.3082,0,0,1,393.125,380.125L368.71875,465.5A19.97861,19.97861,0,0,1,349.5,480a20.38928,20.38928,0,0,1-5.5-.76562A20.014,20.014,0,0,1,330.25,454.5l24.40625-85.375a12.07948,12.07948,0,0,0-6.625-14.25s-85.8125-39.04688-88.71875-41.17188a52.12113,52.12113,0,0,1-18.5-57.875l37.75-87.5625s-16.90625-3.78124-20.5-3.78124a43.34675,43.34675,0,0,0-22.5,6.3125l-45.25,23.51562a23.5854,23.5854,0,0,1-10.28125,2.84375,19.9989,19.9989,0,0,1-10.3125-37.14063l45.25-23.53124A83.78091,83.78091,0,0,1,258.09375,124.5a85.03559,85.03559,0,0,1,20.5,2.53125l68.1875,17.04687A83.59571,83.59571,0,0,1,406.09375,199l13.59375,40.79688A11.979,11.979,0,0,0,431.0625,248H460a20,20,0,0,1,0,40Z"/></svg>