<svg xmlns="http://www.w3.org/2000/svg" viewBox="0 0 512 512"><!-- Font Awesome Pro 5.15.4 by @fontawesome - https://fontawesome.com License - https://fontawesome.com/license (Commercial License) --><path d="M448,0c-49.10352,0-60.52539,142.78711-63.17578,216h-3.35547l-9.03126-27.125c-8.125-24.3125-24.18749-44-44.5-58.03125C347,117.90625,360,96.73438,360,72a72,72,0,0,0-144,0,71.00847,71.00847,0,0,0,4.18749,23.71875A112.98756,112.98756,0,0,0,135.4375,108.5L89.25,132.5625a52.01084,52.01084,0,0,0,52.4375,89.82812l18.9375-9.84374L101.75,344H52a52,52,0,0,0,0,104h62.90625A83.90044,83.90044,0,0,0,192.125,397.07812l19.31249-39.73437,43.68751,19.625L235.5,445.70312A52.05212,52.05212,0,0,0,271.18749,510,52.89215,52.89215,0,0,0,285.5,512a52.24717,52.24717,0,0,0,50-37.6875l24.375-85.40625a84.15978,84.15978,0,0,0-12-71.10937A85.07673,85.07673,0,0,0,367.09375,320H396a51.95957,51.95957,0,0,0,20.75977-99.60938C419.97852,111.33594,437.041,48.01172,448,33.875,460.125,49.51562,480,124.45312,480,256s-19.875,206.48438-32,222.125c-8.75586-11.29492-21.46094-53.98438-27.89648-126.125H388.168c6.18359,73.043,21.54687,160,59.832,160,62.21875,0,64-229.79688,64-256S510.21875,0,448,0ZM288,32a40,40,0,1,1-40,40A39.997,39.997,0,0,1,288,32ZM162.6875,384.48438C155.25,401.875,133.875,416,114.9375,416H52a20,20,0,0,1,0-40h62.90625a11.9977,11.9977,0,0,0,11.03125-7.28125l26.71875-56.875A83.10126,83.10126,0,0,0,182.625,343.26562ZM396,288H367.03125c-20.6875,0-42.78125-15.92188-49.3125-35.54688L304.125,211.65625a43.28918,43.28918,0,0,0-15-20.67187l-41.46875,103.6875,52.78124,23.71874A52.30819,52.30819,0,0,1,329.125,380.125L304.71875,465.5c-7.22492,25.37752-45.81231,14.7403-38.46875-11l24.40625-85.375a12.07949,12.07949,0,0,0-6.625-14.25s-85.8125-39.04688-88.71875-41.17188a52.12113,52.12113,0,0,1-18.5-57.875l37.75-87.5625s-16.90624-3.78124-20.5-3.78124a43.34675,43.34675,0,0,0-22.5,6.3125l-45.25,23.51562a23.5854,23.5854,0,0,1-10.28125,2.84375,19.9989,19.9989,0,0,1-10.3125-37.14063l45.25-23.53124A83.78091,83.78091,0,0,1,194.09375,124.5a85.03565,85.03565,0,0,1,20.5,2.53125l68.1875,17.04687A83.59572,83.59572,0,0,1,342.09375,199l13.59374,40.79688A11.979,11.979,0,0,0,367.06249,248H396a20,20,0,0,1,0,40Z"/></svg>