<svg xmlns="http://www.w3.org/2000/svg" viewBox="0 0 384 512"><!-- Font Awesome Pro 5.15.4 by @fontawesome - https://fontawesome.com License - https://fontawesome.com/license (Commercial License) --><path d="M240 144c39.7 0 72-32.3 72-72S279.7 0 240 0s-72 32.3-72 72 32.3 72 72 72zm0-112c22.05 0 40 17.95 40 40s-17.95 40-40 40-40-17.95-40-40 17.95-40 40-40zm-20.75 294.89c20.49 24.41 55.05 20.13 70.56 3.05l80.13-88c18.74-18.75 18.74-49.14 0-67.88-18.75-18.75-49.14-18.75-67.88 0l-42.31 49.69-31.31-35.16C213.2 170.43 190.46 160 166.06 160c-38.53 0-61.85 24.24-71.17 41.53l-49.38 92.04C22.5 336.5 31.8 385.77 66.94 416H48c-26.47 0-48 21.53-48 48s21.53 48 48 48h202.03c20.84 0 39.37-13.29 46.1-33.07 6.47-19.02.51-39.11-15.18-51.19L178.2 352.79l24.49-45.62 16.56 19.72zm-82.44 35.33l124.61 90.88c11.1 8.54 3.3 26.9-11.4 26.9H48c-8.81 0-16-7.17-16-16s7.19-16 16-16h138.25l-90.03-50.02c-32-20.44-39.72-57.17-22.5-89.28l49.34-91.98c13.71-25.43 56.55-36.54 80.88-7.55l54.34 64.67 66.4-77.16c6.25-6.25 16.38-6.25 22.63 0s6.25 16.38 0 22.63l-81.19 89.11c-7.66 6.34-17.61 3.55-22.38-2.12l-46.94-55.84-59.99 111.76z"/></svg>