<svg xmlns="http://www.w3.org/2000/svg" viewBox="0 0 384 512"><!-- Font Awesome Pro 5.15.4 by @fontawesome - https://fontawesome.com License - https://fontawesome.com/license (Commercial License) --><path d="M278.63 352l103.03-103.03c3.12-3.12 3.12-8.19 0-11.31l-11.31-11.31c-3.12-3.12-8.19-3.12-11.31 0L256 329.37 150.63 224H160c53.02 0 96-42.98 96-96s-42.98-96-96-96H8c-4.42 0-8 3.58-8 8v272c0 4.42 3.58 8 8 8h16c4.42 0 8-3.58 8-8v-88h73.37l128 128-103.03 103.03c-3.12 3.12-3.12 8.19 0 11.31l11.31 11.31c3.12 3.12 8.19 3.12 11.31 0L256 374.63l103.03 103.03c3.12 3.12 8.19 3.12 11.31 0l11.31-11.31c3.12-3.12 3.12-8.19 0-11.31L278.63 352zM32 192V64h128c35.29 0 64 28.71 64 64s-28.71 64-64 64H32z"/></svg>