<svg xmlns="http://www.w3.org/2000/svg" viewBox="0 0 640 512"><!-- Font Awesome Pro 5.15.4 by @fontawesome - https://fontawesome.com License - https://fontawesome.com/license (Commercial License) --><path d="M337.54 136.17a8 8 0 0 0 11.31 0l11.31-11.32a8 8 0 0 0 0-11.31L281 34.34a8 8 0 0 0-11.31 0l-11.35 11.32a8 8 0 0 0 0 11.31zm177.61 0a8 8 0 0 0 11.31 0L605.66 57a8 8 0 0 0 0-11.31l-11.32-11.35a8 8 0 0 0-11.31 0l-79.19 79.2a8 8 0 0 0 0 11.31zM424 128h16a8 8 0 0 0 8-8V8a8 8 0 0 0-8-8h-16a8 8 0 0 0-8 8v112a8 8 0 0 0 8 8zm168 64H480.68c-19.52-9.89-41.29-16-64.68-16s-45.16 6.11-64.68 16H48a48 48 0 0 0-48 48v160a48 48 0 0 0 48 48h48v56a8 8 0 0 0 8 8h16a8 8 0 0 0 8-8v-56h223.32c19.52 9.89 41.29 16 64.68 16s45.16-6.11 64.68-16H512v56a8 8 0 0 0 8 8h16a8 8 0 0 0 8-8v-56h48a48 48 0 0 0 48-48V240a48 48 0 0 0-48-48zM48 416a16 16 0 0 1-16-16V240a16 16 0 0 1 16-16h261.37C286.38 249.52 272 283 272 320s14.38 70.48 37.37 96zm368 16a112 112 0 1 1 112-112 112.16 112.16 0 0 1-112 112zm192-32a16 16 0 0 1-16 16h-69.37c23-25.52 37.37-58.95 37.37-96s-14.38-70.48-37.37-96H592a16 16 0 0 1 16 16zM104 296a24 24 0 1 0 24 24 24 24 0 0 0-24-24zm80 0a24 24 0 1 0 24 24 24 24 0 0 0-24-24z"/></svg>