<svg xmlns="http://www.w3.org/2000/svg" viewBox="0 0 384 512"><!-- Font Awesome Pro 5.15.4 by @fontawesome - https://fontawesome.com License - https://fontawesome.com/license (Commercial License) --><path d="M379.31,100.69l-48-48A16,16,0,0,0,320,48H240V32A32,32,0,0,0,208,0H112A32,32,0,0,0,80,32v96.41a63.83,63.83,0,0,0-59.37,57.8L.27,442.21A64,64,0,0,0,64,512H256a64,64,0,0,0,63.74-69.79l-20.36-256A63.83,63.83,0,0,0,240,128.41V80h73.38l43.31,43.31a16,16,0,0,0,22.62-22.62ZM112,32h96v96H112ZM267.47,188.74,287.86,445.1A32,32,0,0,1,256,480H64a32,32,0,0,1-31.84-35.26L52.5,189.1A32,32,0,0,1,82.19,160H237.81A32,32,0,0,1,267.47,188.74ZM139.22,234.39C102.58,283.31,84,319.27,84,341.25,84,382.47,118.09,416,160,416s76-33.53,76-74.75c0-22-18.58-57.94-55.23-106.86C170.86,221.17,149.16,221.17,139.22,234.39ZM160,384c-24.27,0-44-19.17-44-42.75,0-9.89,11.64-36.91,44-81.14,32.36,44.23,44,71.25,44,81.14C204,364.83,184.27,384,160,384Z"/></svg>