<svg xmlns="http://www.w3.org/2000/svg" viewBox="0 0 384 512"><!-- Font Awesome Pro 5.15.4 by @fontawesome - https://fontawesome.com License - https://fontawesome.com/license (Commercial License) --><path d="M226.67,277.33h-40v-40A13.33,13.33,0,0,0,173.33,224H146.67a13.33,13.33,0,0,0-13.34,13.33v40h-40A13.33,13.33,0,0,0,80,290.67v26.66a13.33,13.33,0,0,0,13.33,13.34h40v40A13.33,13.33,0,0,0,146.67,384h26.66a13.33,13.33,0,0,0,13.34-13.33v-40h40A13.33,13.33,0,0,0,240,317.33V290.67A13.33,13.33,0,0,0,226.67,277.33ZM379.31,100.69l-48-48A16,16,0,0,0,320,48H240V32A32,32,0,0,0,208,0H112A32,32,0,0,0,80,32v96.41a63.83,63.83,0,0,0-59.37,57.8L.27,442.21A64,64,0,0,0,64,512H256a64,64,0,0,0,63.74-69.79l-20.36-256A63.83,63.83,0,0,0,240,128.41V80h73.38l43.31,43.31a16,16,0,0,0,22.62-22.62ZM112,32h96v96H112ZM267.47,188.74,287.86,445.1A32,32,0,0,1,256,480H64a32,32,0,0,1-31.84-35.26L52.5,189.1A32,32,0,0,1,82.19,160H237.81A32,32,0,0,1,267.47,188.74Z"/></svg>