<svg xmlns="http://www.w3.org/2000/svg" viewBox="0 0 448 512"><!-- Font Awesome Pro 5.15.4 by @fontawesome - https://fontawesome.com License - https://fontawesome.com/license (Commercial License) --><path d="M400 32H48C21.49 32 0 53.49 0 80v352c0 26.51 21.49 48 48 48h352c26.51 0 48-21.49 48-48V80c0-26.51-21.49-48-48-48zm16 400c0 8.822-7.178 16-16 16H48c-8.822 0-16-7.178-16-16V80c0-8.822 7.178-16 16-16h352c8.822 0 16 7.178 16 16v352zm-192-92c-15.464 0-28 12.536-28 28s12.536 28 28 28 28-12.536 28-28-12.536-28-28-28zm7.67-24h-16c-6.627 0-12-5.373-12-12v-.381c0-70.343 77.44-63.619 77.44-107.408 0-20.016-17.761-40.211-57.44-40.211-29.144 0-44.265 9.649-59.211 28.692-3.908 4.98-11.054 5.995-16.248 2.376l-13.134-9.15c-5.625-3.919-6.86-11.771-2.645-17.177C153.658 133.514 178.842 116 223.67 116c52.32 0 97.44 29.751 97.44 80.211 0 67.414-77.44 63.849-77.44 107.408V304c0 6.627-5.373 12-12 12z"/></svg>