<svg xmlns="http://www.w3.org/2000/svg" viewBox="0 0 640 512"><!-- Font Awesome Pro 5.15.4 by @fontawesome - https://fontawesome.com License - https://fontawesome.com/license (Commercial License) --><path d="M638.3 15.5L628.3 3c-2.8-3.5-7.8-4-11.2-1.3l-244.2 193-45.4-57.1c-5-6.3-14.6-6-19.2.5l-48.6 68.6c-28.5.3-107.2 5-158 45.4C38.8 302.1 0 511.4 0 511.4c15.4.7 215.1 6.8 275.6-41.3 50.9-40.5 73.3-116.2 80-143.8l77.5-31.3c7.4-3 9.9-12.3 4.9-18.6l-45.2-56.7L637 26.8c3.4-2.8 4-7.8 1.3-11.3zM255.7 445.6C229 466.8 146.3 480 39.8 480h-.6c4.1-17.8 9-36.8 14.4-55.9l68.8-54.7c5-3.9 1.2-11.9-5-10.6l-46 9.7c15-41.6 32.3-77.3 50.1-91.5 33.6-26.7 89.7-37.2 133.9-38.4l67.8 85.1c-7.1 27.7-27.1 89.8-67.5 121.9zm87.1-148.8l-56.9-71.5 28.4-40.5c2.3-3.3 7.1-3.4 9.6-.3l67.6 84.9c2.5 3.2 1.3 7.9-2.5 9.3l-46.2 18.1zM496 351.5c-44.1 0-80 35.8-80 79.9s35.9 80.6 80 80.6 80-36.5 80-80.6-35.8-79.9-80-79.9zm0 127.9c-26.5 0-48-21.5-48-48s21.5-48 48-48 48 21.5 48 48-21.5 48-48 48z"/></svg>