<svg xmlns="http://www.w3.org/2000/svg" viewBox="0 0 512 512"><!-- Font Awesome Pro 5.15.4 by @fontawesome - https://fontawesome.com License - https://fontawesome.com/license (Commercial License) --><path d="M176 32H64C28.7 32 0 60.7 0 96v128c0 35.3 28.7 64 64 64h64v24c0 30.9-25.1 56-56 56H56c-22.1 0-40 17.9-40 40v32c0 22.1 17.9 40 40 40h16c92.6 0 168-75.4 168-168V96c0-35.3-28.7-64-64-64zm32 280c0 75.1-60.9 136-136 136H56c-4.4 0-8-3.6-8-8v-32c0-4.4 3.6-8 8-8h16c48.6 0 88-39.4 88-88v-56H64c-17.7 0-32-14.3-32-32V96c0-17.7 14.3-32 32-32h112c17.7 0 32 14.3 32 32v216zM448 32H336c-35.3 0-64 28.7-64 64v128c0 35.3 28.7 64 64 64h64v24c0 30.9-25.1 56-56 56h-16c-22.1 0-40 17.9-40 40v32c0 22.1 17.9 40 40 40h16c92.6 0 168-75.4 168-168V96c0-35.3-28.7-64-64-64zm32 280c0 75.1-60.9 136-136 136h-16c-4.4 0-8-3.6-8-8v-32c0-4.4 3.6-8 8-8h16c48.6 0 88-39.4 88-88v-56h-96c-17.7 0-32-14.3-32-32V96c0-17.7 14.3-32 32-32h112c17.7 0 32 14.3 32 32v216z"/></svg>