<svg xmlns="http://www.w3.org/2000/svg" viewBox="0 0 448 512"><!-- Font Awesome Pro 5.15.4 by @fontawesome - https://fontawesome.com License - https://fontawesome.com/license (Commercial License) --><path d="M246.25 338.38c15.03 0 29.97-2.72 44.03-7.97a18.75 18.75 0 0 0 12.78-17.8c0-10.34-8.44-18.77-18.81-18.77l-4.12.2c-45.69 0-82.88-37.17-82.88-82.86s37.19-82.86 82.84-82.86l4.16.2c8.94 0 16.66-6.34 18.38-15.06 1.84-9.12-3.12-18.08-11.78-21.28-14.5-5.44-29.5-8.19-44.59-8.19-70.12 0-127.19 57.06-127.19 127.19s57.05 127.2 127.18 127.2zm0-230.38c1.84 0 3.66.05 5.5.16-45.19 12.45-78.5 53.94-78.5 103.03 0 49.11 33.28 90.58 78.5 103.03-58.72 3.66-108.69-44.3-108.69-103.03 0-56.89 46.28-103.19 103.19-103.19zM448 392V24c0-13.3-10.7-24-24-24H80C35.8 0 0 35.8 0 80v368c0 35.35 28.65 64 64 64h372c6.6 0 12-5.4 12-12v-8c0-6.6-5.4-12-12-12h-3.3c-4-20.2-3.2-49.7.4-65.8 8.7-3.6 14.9-12.2 14.9-22.2zm-43.7 88H64c-17.67 0-32-14.33-32-32s14.33-32 32-32h340.3c-2.9 18.8-3.1 43.6 0 64zm11.7-96H64c-11.72 0-22.55 3.38-32 8.88V80c0-26.5 21.5-48 48-48h336v352zM292.72 155.27l-10.16 20.58-22.72 3.3c-6.03.86-11.06 5.09-12.94 10.89s-.31 12.16 4.06 16.41l16.47 16.03-3.91 22.62c-1.03 6 1.44 12.06 6.38 15.66 4.94 3.58 11.5 4.05 16.88 1.2l20.28-10.69 20.28 10.69a16.055 16.055 0 0 0 16.88-1.21c4.94-3.59 7.41-9.66 6.38-15.66l-3.91-22.62 16.47-16.03c4.38-4.25 5.94-10.61 4.06-16.41s-6.91-10.03-12.94-10.89l-22.72-3.3-10.16-20.58c-5.37-10.93-23.31-10.93-28.68.01zm24.22 39.41l22.12 3.2-16.03 15.6 3.78 22.02-19.75-10.41-19.75 10.41 3.78-22.02-16.03-15.6 22.12-3.2 9.88-20.03 9.88 20.03z"/></svg>