<svg xmlns="http://www.w3.org/2000/svg" viewBox="0 0 640 512"><!-- Font Awesome Pro 5.15.4 by @fontawesome - https://fontawesome.com License - https://fontawesome.com/license (Commercial License) --><path d="M511.99 223.99c-8.84 0-16 7.16-16 16s7.16 16 16 16 16-7.16 16-16c0-8.83-7.16-16-16-16zm90.89-32.78c-.61-.43-58.52-35.99-58.52-35.99-2.54-1.57-9.73-5.07-18.35-7.52a261.57 261.57 0 0 0-4.89-22.02c-5.89-21.97-28.67-93.67-74.52-93.68h-.01c-37.96 0-44.2 41.84-44.49 43.33-32.09-17.15-55.46-13.15-69.7 1.09-8.71 8.71-20.55 28.35-4.36 63.28-31.09-16.38-61.55-27.7-88.06-27.7-45.73 0-86.28 18.33-117.89 52.43C108.58 151.29 90.85 144 71.97 144c-19.23 0-37.32 7.49-50.91 21.09-28.07 28.07-28.07 73.75 0 101.82C34.66 280.51 52.74 288 71.98 288c12.73 0 24.8-3.57 35.51-9.8 3.59 6.33 7.69 12.45 12.83 18.02l54.04 58.54-25.01 13.52a47.925 47.925 0 0 0-21.38 39.94v23.73c0 17.3 8.94 32.83 23.91 41.51 7.53 4.36 15.81 6.55 24.1 6.55 8.16 0 16.34-2.12 23.81-6.39l55.19-31.53 25.49 27.61a32.008 32.008 0 0 0 23.52 10.29H464c17.68 0 32-14.33 32-32 0-35.29-28.71-64-64-64h-48l70.4-32h96.96c48.88 0 88.65-39.77 88.65-88.65-.01-28.56-13.89-55.53-37.13-72.13zM96.26 246.93c-24.53 19.16-46.88 3.04-52.58-2.65-15.62-15.62-15.62-40.95 0-56.57 15.61-15.61 40.95-15.63 56.57 0 1.31 1.31 2.21 2.83 3.25 4.27-7.81 17.43-10.34 36.49-7.24 54.95zm87.65 198.9c-10.53 6.09-23.94-1.52-23.94-13.89v-23.73c0-5.36 2.66-10.34 5.84-12.55L196.74 379l35.96 38.96-48.79 27.87zm367.44-125.84H447.99l-64 26.67v-2.26c0-49.75-33.41-94.03-81.22-107.68l-42.38-12.11c-20.46-5.8-29.09 24.97-8.81 30.78l42.38 12.11c34.19 9.75 58.04 41.37 58.04 76.9v71.59h80c17.66 0 32 14.36 32 32H303.98L143.83 274.51c-22.36-24.22-22.66-61.37-.81-86.06 20.15-22.76 51.33-44.45 96.96-44.45 57.33 0 152.74 75.22 208.01 111.99 0-31.16-.53-30.77 3.54-43.01-15.31-3.53-37.75-17.86-59.17-39.28-30.93-30.92-47.64-64.35-37.33-74.65 10.74-10.74 45.14 7.8 74.66 37.33 3.25 3.25 6.25 6.54 9.18 9.81-11.63-44.51-8.08-82.19 7.72-82.19 13.94 0 32.92 30.05 43.61 69.97 4.1 15.28 6.36 29.86 6.98 42.49 14.17-1.01 24.77 3.23 30.44 6.03l56.65 34.75a56.632 56.632 0 0 1 23.72 46.1c.01 31.29-25.36 56.65-56.64 56.65z"/></svg>