<svg xmlns="http://www.w3.org/2000/svg" viewBox="0 0 512 512"><!-- Font Awesome Pro 5.15.4 by @fontawesome - https://fontawesome.com License - https://fontawesome.com/license (Commercial License) --><path d="M505.92 450.8a33.63 33.63 0 0 0-2.09-2.96L389.44 304h1.92c48.89 0 88.66-39.77 88.66-88.65 0-28.56-13.88-55.53-37.12-72.14-.61-.43-1.23-.85-1.87-1.24l-24.69-15.15c.27-.97.54-1.94.8-2.91C431.04 71.99 431.09 12.54 389.5 1.4 386.03.47 382.45 0 378.84 0 361.27 0 347.12 10.35 336 24.48 324.88 10.35 310.74.01 293.17 0h-.02c-3.6 0-7.19.47-10.65 1.4-41.6 11.14-41.55 70.59-27.64 122.52 2.3 8.58 5.03 16.98 8.17 25.11-2.69 6.53-4.63 13.43-5.81 20.63-.82 5.04-1.24 10.2-1.24 15.34v41.67c-67.32 11.34-122.72 57.92-146.87 119.97C98.03 339.8 85.33 336 71.97 336c-19.23 0-37.32 7.49-50.92 21.09-28.07 28.07-28.07 73.75 0 101.82C34.65 472.51 52.74 480 71.97 480c10.32 0 19.99-2.86 29.12-6.96 9.77 22.88 32.48 38.96 58.89 38.96H320c17.68 0 32-14.33 32-32 0-23.25-12.46-43.64-31.06-54.85l15.81-9.88 65.11 80.17c7.51 10.42 19.44 16.56 32.42 16.56H472c14.54 0 27.94-7.9 34.99-20.61 7.05-12.71 6.63-28.27-1.07-40.59zM95.97 416v23.03c-7.13 5.55-15.41 8.97-24 8.97-10.24 0-20.48-3.91-28.29-11.72-15.62-15.62-15.62-40.95 0-56.57C51.5 371.9 61.73 368 71.97 368c10 0 19.95 3.86 27.69 11.32-2.32 11.89-3.69 24.12-3.69 36.68zM472 480h-37.72c-2.76 0-5.32-1.42-6.79-3.76l-83.73-103.09L223.99 448H288c17.66 0 32 14.36 32 32H159.98c-17.68 0-32-14.33-32-32v-32c0-88.37 71.64-160 160.02-160v-71.01c0-3.47.28-6.87.82-10.19 1.53-9.35 4.93-17.49 9.61-24.3-4.77-10.19-9.16-21.9-12.64-34.87-11.32-42.25-9.08-79.55 5-83.32.77-.21 1.56-.31 2.37-.31 13.62 0 32.03 28.8 42.84 67.4C346.82 60.8 365.22 32 378.84 32c.81 0 1.6.1 2.37.31 14.08 3.77 16.32 41.08 5 83.32-2.41 9-5.3 17.34-8.41 25.11l46.48 28.51a56.632 56.632 0 0 1 23.72 46.1c0 31.29-25.37 56.65-56.66 56.65H352v36.34l126.78 159.42c3.33 5.33-.5 12.24-6.78 12.24zM368 192c0-8.84-7.16-16-16-16s-16 7.16-16 16 7.16 16 16 16 16-7.16 16-16z"/></svg>