<svg xmlns="http://www.w3.org/2000/svg" viewBox="0 0 640 512"><!-- Font Awesome Pro 5.15.4 by @fontawesome - https://fontawesome.com License - https://fontawesome.com/license (Commercial License) --><path d="M615.5 59.6C560.6-17.9 433.3-19.2 332.7 52c-57.2 40.5-94.4 96-106.5 150.6-10.7 48.2-34.6 91.7-66.1 129.2-17.9-10-32.2.2-33.9 1.4L13.6 412c-14.4 10.1-18 30-7.8 44.5l29.4 41.9c9.9 14.1 29.7 18.2 44.5 7.8l112.6-78.8c9.5-6.7 13.7-17.6 13-28.4 36-13.7 73.8-21.7 112.3-21.7 31.6 0 112.3 21.8 211.5-48.4 101.8-72.2 140.6-192.8 86.4-269.3zM61.3 480l-29.4-41.8 112.6-78.8 29.4 41.9L61.3 480zm130-109.6l-9.7-13.9c18.7-21.7 34.8-44.9 47.4-69.6 11 33.1 29.1 49.8 44.4 61.5-27.6 3.9-55.2 11.5-82.1 22zm319.2-67.6c-85.6 60.6-194 62.4-238.3-.1-43.9-62-8.5-162.7 79-224.7 84.7-60 193.6-63.1 238.3 0 42 59.4 11.1 161.1-79 224.8z"/></svg>