<svg xmlns="http://www.w3.org/2000/svg" viewBox="0 0 496 512"><!-- Font Awesome Pro 5.15.4 by @fontawesome - https://fontawesome.com License - https://fontawesome.com/license (Commercial License) --><path d="M247.9 320c35.3 0 64-28.7 64-64s-28.7-64-64-64-64 28.7-64 64 28.7 64 64 64zm0-96c17.6 0 32 14.4 32 32s-14.4 32-32 32-32-14.4-32-32 14.4-32 32-32zm51.2 113.2c-14.9 9.2-32.4 14.8-51.2 14.8s-36.3-5.6-51.2-14.8L133.8 437c-10.2 16.2-4.2 38.2 13.5 45.9C178 496.4 212 504 247.9 504s69.9-7.6 100.7-21.1c17.6-7.7 23.7-29.7 13.5-45.9l-63-99.8zM247.9 472c-30.4 0-59.8-6.2-86.8-18.1l47.9-76c12.6 4 25.7 6.1 38.8 6.1 13.3 0 26.4-2.1 39-6.1l48.6 75.8c-27.7 12.1-57.1 18.3-87.5 18.3zM32.5 256H151c0-34.3 18.3-64.2 45.7-81.2l-62.8-99.6c-6.2-9.8-17-15.3-27.8-15.3-7.1 0-14.2 2.3-20.1 7.3-45.2 38-76.7 91.7-85.7 152.5-2.9 19.2 12.6 36.3 32.2 36.3zm73.9-163.8l47.9 75.8c-15.2 15.7-26 35-31.5 56H32.5l-.3.4c7.6-51.6 34.2-98.7 74.2-132.2zM344.8 256h118.5c19.6 0 35.1-17.1 32.3-36.3-9-60.9-40.5-114.5-85.7-152.5-5.9-4.9-13-7.3-20.1-7.3-10.8 0-21.6 5.4-27.8 15.3l-62.8 99.6c27.3 17 45.6 46.9 45.6 81.2zm44.1-164.4c40.5 34.1 67 81.2 74.4 132.4H373c-5.5-21.1-16.4-40.3-31.6-56.1l47.5-76.3z"/></svg>