<svg xmlns="http://www.w3.org/2000/svg" viewBox="0 0 512 512"><!-- Font Awesome Pro 5.15.4 by @fontawesome - https://fontawesome.com License - https://fontawesome.com/license (Commercial License) --><path d="M216 304H72a8 8 0 0 0-8 8v16a8 8 0 0 0 8 8h144a8 8 0 0 0 8-8v-16a8 8 0 0 0-8-8zm-16 64H88a8 8 0 0 0-8 8v16a8 8 0 0 0 8 8h112a8 8 0 0 0 8-8v-16a8 8 0 0 0-8-8zM88 272h112a8 8 0 0 0 8-8v-16a8 8 0 0 0-8-8H88a8 8 0 0 0-8 8v16a8 8 0 0 0 8 8zm360-144H184.51L506.3 31a8 8 0 0 0 5.36-10L507 5.69a8 8 0 0 0-10-5.35L73.56 128H64a64 64 0 0 0-64 64v256a64 64 0 0 0 64 64h384a64 64 0 0 0 64-64V192a64 64 0 0 0-64-64zm32 320a32 32 0 0 1-32 32H64a32 32 0 0 1-32-32V192a32 32 0 0 1 32-32h384a32 32 0 0 1 32 32zM352 224a96 96 0 1 0 96 96 96 96 0 0 0-96-96zm0 160a64 64 0 1 1 64-64 64.07 64.07 0 0 1-64 64z"/></svg>