<svg xmlns="http://www.w3.org/2000/svg" viewBox="0 0 576 512"><!-- Font Awesome Pro 5.15.4 by @fontawesome - https://fontawesome.com License - https://fontawesome.com/license (Commercial License) --><path d="M112,159.99684A16.00015,16.00015,0,1,0,128,175.997,16.00087,16.00087,0,0,0,112,159.99684ZM552.84375,97.69941l-96,47.99457A16.03507,16.03507,0,0,0,448,160.00661v-.00977H416V79.99613a16,16,0,1,0-32,0v80.00071H352V47.99584a16,16,0,1,0-32,0v49.7856A111.56316,111.56316,0,0,0,239.98047,63.996H195.40625L54.5,1.37042A15.99873,15.99873,0,0,0,32,15.99555l-.02734,81.8191A111.51592,111.51592,0,0,0,0,175.997c0,60.4771,48.03125,109.42481,107.99219,111.59475L38.4668,407.962a47.9323,47.9323,0,0,0,17.59375,65.57871l55.40625,31.99248a47.91657,47.91657,0,0,0,65.59375-17.59L304.377,267.41187A112.314,112.314,0,0,0,320,254.21253v49.78561a16,16,0,1,0,32,0v-112.001h32v80.00072a16,16,0,1,0,32,0V191.99713h32v-.041a15.97529,15.97529,0,0,0,8.84375,14.31067l96,48.0434A16.01141,16.01141,0,0,0,576,239.99951V112.01009A16.01117,16.01117,0,0,0,552.84375,97.69941ZM64,40.60515,116.61328,63.996h-4.59375A110.97556,110.97556,0,0,0,63.98438,75.20116Zm85.35742,431.32613a15.91027,15.91027,0,0,1-21.88672,5.89849L72.07617,445.84316a15.93689,15.93689,0,0,1-5.89844-21.883L144.71094,287.998h95.26953c.02734,0,.05078-.00781.07812-.00781h15.49024Zm90.62305-215.93357H112.01953a80.00072,80.00072,0,1,1,0-160.00144H239.98047a80.00072,80.00072,0,1,1,0,160.00144ZM544,214.095l-64-32.02764v-12.172L544,137.899ZM176,159.99684A16.00015,16.00015,0,1,0,192,175.997,16.00087,16.00087,0,0,0,176,159.99684Zm64,0A16.00015,16.00015,0,1,0,256,175.997,16.00087,16.00087,0,0,0,240,159.99684Z"/></svg>