<svg xmlns="http://www.w3.org/2000/svg" viewBox="0 0 448 512"><!-- Font Awesome Pro 5.15.4 by @fontawesome - https://fontawesome.com License - https://fontawesome.com/license (Commercial License) --><path d="M344 240H104c-4.4 0-8 3.6-8 8v16c0 4.4 3.6 8 8 8h240c4.4 0 8-3.6 8-8v-16c0-4.4-3.6-8-8-8zm0 96H104c-4.4 0-8 3.6-8 8v16c0 4.4 3.6 8 8 8h240c4.4 0 8-3.6 8-8v-16c0-4.4-3.6-8-8-8zM418.1 0c-5.8 0-11.8 1.8-17.3 5.7L357.3 37 318.7 9.2c-8.4-6-18.2-9.1-28.1-9.1-9.8 0-19.6 3-28 9.1L224 37 185.4 9.2C177 3.2 167.1.1 157.3.1s-19.6 3-28 9.1L90.7 37 47.2 5.7C41.8 1.8 35.8 0 29.9 0 14.4.1 0 12.3 0 29.9v452.3C0 499.5 14.3 512 29.9 512c5.8 0 11.8-1.8 17.3-5.7L90.7 475l38.6 27.8c8.4 6 18.2 9.1 28.1 9.1 9.8 0 19.6-3 28-9.1L224 475l38.6 27.8c8.4 6 18.3 9.1 28.1 9.1s19.6-3 28-9.1l38.6-27.8 43.5 31.3c5.4 3.9 11.4 5.7 17.3 5.7 15.5 0 29.8-12.2 29.8-29.8V29.9C448 12.5 433.7 0 418.1 0zM416 477.8L376 449l-18.7-13.5-18.7 13.5-38.6 27.8c-2.8 2-6 3-9.3 3-3.4 0-6.6-1.1-9.4-3.1L242.7 449 224 435.5 205.3 449l-38.6 27.8c-2.8 2-6 3-9.4 3-3.4 0-6.6-1.1-9.4-3.1L109.3 449l-18.7-13.5L72 449l-40 29.4V34.2L72 63l18.7 13.5L109.4 63 148 35.2c2.8-2 6-3 9.3-3 3.4 0 6.6 1.1 9.4 3.1L205.3 63 224 76.5 242.7 63l38.6-27.8c2.8-2 6-3 9.4-3 3.4 0 6.6 1.1 9.4 3.1L338.7 63l18.7 13.5L376 63l40-28.8v443.6zM344 144H104c-4.4 0-8 3.6-8 8v16c0 4.4 3.6 8 8 8h240c4.4 0 8-3.6 8-8v-16c0-4.4-3.6-8-8-8z"/></svg>