<svg xmlns="http://www.w3.org/2000/svg" viewBox="0 0 512 512"><!-- Font Awesome Pro 5.15.4 by @fontawesome - https://fontawesome.com License - https://fontawesome.com/license (Commercial License) --><path d="M256 8C119.033 8 8 119.033 8 256s111.033 248 248 248 248-111.033 248-248S392.967 8 256 8zm216 248c0 118.663-96.055 216-216 216-118.663 0-216-96.055-216-216 0-118.663 96.055-216 216-216 118.663 0 216 96.055 216 216zM359.387 374.293c-56.637-104.76-51.795-95.919-53.681-99.047 27.113-11.899 44.118-39.432 44.118-72.825 0-57.934-36.794-80.198-93.917-80.198h-71.086c-6.617 0-12 5.383-12 12V380c0 6.617 5.383 12 12 12h16.908c6.617 0 12-5.383 12-12v-94.854h51.111l54.004 100.532a11.983 11.983 0 0 0 10.57 6.321h19.416c9.1.001 14.878-9.717 10.557-17.706zm-93.371-127.528H213.73v-86.161h43.261c20.716 0 51.203 1.092 51.203 42.539-.001 27.314-15.768 43.622-42.178 43.622z"/></svg>