<svg xmlns="http://www.w3.org/2000/svg" viewBox="0 0 512 512"><!-- Font Awesome Pro 5.15.4 by @fontawesome - https://fontawesome.com License - https://fontawesome.com/license (Commercial License) --><path d="M54.027 327.713C40.129 307.242 32 282.553 32 256c0-70.579 57.421-128 128-128h160v63.969c0 29.239 36.192 43.177 55.785 21.407l72-79.968c10.952-12.169 10.953-30.644 0-42.814l-72-79.974C356.226-11.114 320 2.738 320 32.026V96H160C71.775 96 0 167.775 0 256c0 33.913 10.612 65.391 28.683 91.299 4.427 6.348 13.606 6.936 18.785 1.185l5.488-6.096c3.667-4.073 4.149-10.14 1.071-14.675zM352 32l72 80-72 80V32zm131.317 132.701c-4.427-6.348-13.606-6.936-18.785-1.185l-5.488 6.096c-3.667 4.073-4.149 10.14-1.071 14.675C471.871 204.758 480 229.447 480 256c0 70.579-57.421 128-128 128H192v-63.969c0-29.239-36.192-43.177-55.785-21.407l-72 79.969c-10.952 12.169-10.953 30.644 0 42.814l72 79.974C155.774 523.113 192 509.264 192 479.974V416h160c88.225 0 160-71.775 160-160 0-33.913-10.612-65.391-28.683-91.299zM160 480l-72-80 72-80v160z"/></svg>