<svg xmlns="http://www.w3.org/2000/svg" viewBox="0 0 512 512"><!-- Font Awesome Pro 5.15.4 by @fontawesome - https://fontawesome.com License - https://fontawesome.com/license (Commercial License) --><path d="M512 256c0 88.225-71.775 160-160 160H110.628l68.201 68.201c4.686 4.686 4.686 12.284 0 16.971l-5.656 5.656c-4.686 4.686-12.284 4.686-16.971 0l-98.343-98.343c-4.686-4.686-4.686-12.284 0-16.971l98.343-98.343c4.686-4.686 12.284-4.686 16.971 0l5.656 5.656c4.686 4.686 4.686 12.284 0 16.971L110.628 384H352c70.579 0 128-57.421 128-128 0-28.555-9.403-54.952-25.271-76.268-3.567-4.792-3.118-11.462 1.106-15.686l5.705-5.705c5.16-5.16 13.678-4.547 18.083 1.271C499.935 186.438 512 219.835 512 256zM57.271 332.268C41.403 310.952 32 284.555 32 256c0-70.579 57.421-128 128-128h241.372l-68.201 68.201c-4.686 4.686-4.686 12.284 0 16.971l5.656 5.656c4.686 4.686 12.284 4.686 16.971 0l98.343-98.343c4.686-4.686 4.686-12.284 0-16.971L355.799 5.172c-4.686-4.686-12.284-4.686-16.971 0l-5.656 5.656c-4.686 4.686-4.686 12.284 0 16.971L401.372 96H160C71.775 96 0 167.775 0 256c0 36.165 12.065 69.562 32.376 96.387 4.405 5.818 12.923 6.432 18.083 1.271l5.705-5.705c4.225-4.224 4.674-10.893 1.107-15.685zm172.224-29.275c0-6.444 3.401-9.847 9.847-9.847h17.365v-53.348c0-4.834.179-9.847.179-9.847h-.359s-1.79 3.939-3.938 5.729l-1.611 1.432c-4.655 4.298-9.489 4.117-13.786-.537l-4.654-5.013c-4.475-4.654-4.297-9.487.358-13.963l22.2-20.767c3.759-3.401 7.161-4.833 12.173-4.833h10.205c6.444 0 9.846 3.4 9.846 9.846v91.301h17.544c6.444 0 9.847 3.402 9.847 9.847v7.162c0 6.444-3.402 9.846-9.847 9.846h-65.522c-6.445 0-9.847-3.402-9.847-9.846v-7.162z"/></svg>