<svg xmlns="http://www.w3.org/2000/svg" viewBox="0 0 640 512"><!-- Font Awesome Pro 5.15.4 by @fontawesome - https://fontawesome.com License - https://fontawesome.com/license (Commercial License) --><path d="M173 160.2l-27.4-4-12.2-24.8c-2.2-4.4-8.5-4.5-10.7 0l-12.2 24.8-27.4 4c-4.9.7-6.9 6.8-3.3 10.2l19.8 19.3-4.8 27.3c-.8 4.9 4.3 8.6 8.7 6.3l24.5-12.9 24.5 12.9c4.3 2.3 9.5-1.4 8.7-6.3l-4.7-27.3 19.8-19.3c3.5-3.5 1.6-9.5-3.3-10.2zm128 0l-27.4-4-12.2-24.8c-2.2-4.4-8.5-4.5-10.7 0l-12.2 24.8-27.4 4c-4.9.7-6.9 6.8-3.3 10.2l19.8 19.3-4.7 27.3c-.8 4.9 4.3 8.6 8.7 6.3l24.5-12.9 24.5 12.9c4.3 2.3 9.5-1.4 8.7-6.3l-4.7-27.3 19.8-19.3c3.4-3.5 1.5-9.5-3.4-10.2zM608 256h-32c-17.7 0-32 14.3-32 32v80c0 8.8-7.2 16-16 16s-16-7.2-16-16V192c0-88.4-71.6-160-160-160H160C71.6 32 0 103.6 0 192v240c0 26.5 21.5 48 48 48h64c26.5 0 48-21.5 48-48v-48h128v48c0 26.5 21.5 48 48 48h64c22.3 0 40.9-15.3 46.3-35.9 24.4 26.2 60.9 41.1 100.9 34.3 54.6-9.2 92.9-59.6 92.9-115V288c-.1-17.7-14.4-32-32.1-32zM32 192c0-70.6 57.4-128 128-128h192c70.6 0 128 57.4 128 128v64H32v-64zm576 176c0 44.1-35.9 80-80 80s-80-35.9-80-80v-16h-32v80c0 8.8-7.2 16-16 16h-64c-8.8 0-16-7.2-16-16v-80H128v80c0 8.8-7.2 16-16 16H48c-8.8 0-16-7.2-16-16V288h448v80c0 26.5 21.5 48 48 48s48-21.5 48-48v-80h32v80zM429 160.2l-27.4-4-12.2-24.8c-2.2-4.4-8.5-4.5-10.7 0l-12.2 24.8-27.4 4c-4.9.7-6.9 6.8-3.3 10.2l19.8 19.3-4.7 27.3c-.8 4.9 4.3 8.6 8.7 6.3l24.5-12.9 24.5 12.9c4.3 2.3 9.5-1.4 8.7-6.3l-4.7-27.3 19.8-19.3c3.4-3.5 1.5-9.5-3.4-10.2z"/></svg>