<svg xmlns="http://www.w3.org/2000/svg" viewBox="0 0 640 512"><!-- Font Awesome Pro 5.15.4 by @fontawesome - https://fontawesome.com License - https://fontawesome.com/license (Commercial License) --><path d="M328 0h-16c-4.4 0-8 3.6-8 8v496c0 4.4 3.6 8 8 8h16c4.4 0 8-3.6 8-8V8c0-4.4-3.6-8-8-8zM128 160c44.2 0 80-35.8 80-80S172.2 0 128 0 48 35.8 48 80s35.8 80 80 80zm0-128c26.5 0 48 21.5 48 48s-21.5 48-48 48-48-21.5-48-48 21.5-48 48-48zm32 144H96c-44.2 0-80 35.8-80 80v101.3C16 372 27.9 384 42.7 384H56v96c0 17.7 14.3 32 32 32h80c17.7 0 32-14.3 32-32v-96h13.3c14.7 0 26.7-11.9 26.7-26.7V256c0-44.2-35.8-80-80-80zm48 176h-40v128H88V352H48v-96c0-26.5 21.5-48 48-48h64c26.5 0 48 21.5 48 48v96zm304-192c44.2 0 80-35.8 80-80S556.2 0 512 0s-80 35.8-80 80 35.8 80 80 80zm0-128c26.5 0 48 21.5 48 48s-21.5 48-48 48-48-21.5-48-48 21.5-48 48-48zm126.1 327l-44.9-121.4C583.1 201.3 549.7 176 512 176s-71.1 25.3-81.2 61.6L385.9 359c-3.5 9.4-2.2 20 3.6 28.3 5.8 8.3 15.2 13.2 25.3 13.2H440v79.6c0 17.6 14.3 31.9 31.9 31.9H552c17.6 0 31.9-14.3 31.9-31.9v-79.6h25.2c10.1 0 19.5-4.9 25.3-13.2 5.8-8.3 7.2-18.9 3.7-28.3zm-86.1 9.5l.1 111.5h-80.2l.1-111.5h-56l45.3-121c6.7-23.8 27.4-39.5 50.8-39.5s44.1 15.7 50.8 39.5l45.3 121H552z"/></svg>