<svg xmlns="http://www.w3.org/2000/svg" viewBox="0 0 640 512"><!-- Font Awesome Pro 5.15.4 by @fontawesome - https://fontawesome.com License - https://fontawesome.com/license (Commercial License) --><path d="M634.828 363.799l-98.343 98.343c-4.686 4.686-12.284 4.686-16.971 0l-98.343-98.343c-4.686-4.686-4.686-12.284 0-16.971l5.656-5.656c4.686-4.686 12.284-4.686 16.971 0l68.202 68.2V128H260.024a11.996 11.996 0 0 1-8.485-3.515l-8-8c-7.56-7.56-2.206-20.485 8.485-20.485H520c13.255 0 24 10.745 24 24v289.372l68.201-68.201c4.686-4.686 12.284-4.686 16.971 0l5.656 5.656c4.686 4.687 4.686 12.285 0 16.972zm-246.367 23.716a12.002 12.002 0 0 0-8.485-3.515H128V102.628l68.201 68.2c4.686 4.686 12.284 4.686 16.97 0l5.657-5.657c4.686-4.686 4.687-12.284 0-16.971l-98.343-98.343c-4.686-4.686-12.284-4.686-16.971 0L5.172 148.201c-4.686 4.686-4.686 12.285 0 16.971l5.657 5.657c4.686 4.686 12.284 4.686 16.97 0L96 102.628V392c0 13.255 10.745 24 24 24h267.976c10.691 0 16.045-12.926 8.485-20.485l-8-8z"/></svg>