<svg xmlns="http://www.w3.org/2000/svg" viewBox="0 0 512 512"><!-- Font Awesome Pro 5.15.4 by @fontawesome - https://fontawesome.com License - https://fontawesome.com/license (Commercial License) --><path d="M351.64 160.79a206.88 206.88 0 0 1 18 35.6C432.81 211.65 480 268.25 480 336c0 79.4-64.6 144-144 144s-144-64.6-144-144c0-66.45 45.53-121.62 106.86-138C312 219.67 320 244.83 320 272c0 55-31.37 102.36-76.83 126.59a112.52 112.52 0 0 0 23.06 24.32C317.54 392.16 352 336.17 352 272c0-76.38-48.75-141.22-116.76-165.56L278 44.22 217.19 0h-82.38L74 44.22l42.76 62.22C48.75 130.78 0 195.62 0 272a176 176 0 0 0 176 176 169.3 169.3 0 0 0 23-1.64A175.93 175.93 0 0 0 512 336c0-91.92-70.5-167.28-160.36-175.21zM118 51.78L145.22 32h61.56L234 51.78l-31.89 46.37A175.63 175.63 0 0 0 176 96a175.63 175.63 0 0 0-26.11 2.15zM176 416c-79.4 0-144-64.6-144-144s64.6-144 144-144a143.52 143.52 0 0 1 101.89 42.37C209.35 194.42 160 259.24 160 336a175.09 175.09 0 0 0 19.21 79.68c-1.09.03-2.11.32-3.21.32z"/></svg>