<svg xmlns="http://www.w3.org/2000/svg" viewBox="0 0 640 512"><!-- Font Awesome Pro 5.15.4 by @fontawesome - https://fontawesome.com License - https://fontawesome.com/license (Commercial License) --><path d="M192,416h64V384H192ZM576,224H544V192a95.99975,95.99975,0,0,0-96-96H336V16a16,16,0,0,0-32,0V96H192a95.99975,95.99975,0,0,0-96,96v32H64a31.99908,31.99908,0,0,0-32,32V384a32.00033,32.00033,0,0,0,32,32H96a95.99975,95.99975,0,0,0,96,96H448a95.99975,95.99975,0,0,0,96-96h32a32.00033,32.00033,0,0,0,32-32V256A31.99908,31.99908,0,0,0,576,224ZM96,384H64V256H96Zm416,32a64.18916,64.18916,0,0,1-64,64H192a64.18916,64.18916,0,0,1-64-64V192a63.99942,63.99942,0,0,1,64-64H448a63.99942,63.99942,0,0,1,64,64Zm64-32H544V256h32ZM416,192a64,64,0,1,0,64,64A64.07333,64.07333,0,0,0,416,192Zm0,96a32,32,0,1,1,32-32A31.97162,31.97162,0,0,1,416,288ZM384,416h64V384H384Zm-96,0h64V384H288ZM224,192a64,64,0,1,0,64,64A64.07333,64.07333,0,0,0,224,192Zm0,96a32,32,0,1,1,32-32A31.97162,31.97162,0,0,1,224,288Z"/></svg>