<svg xmlns="http://www.w3.org/2000/svg" viewBox="0 0 512 512"><!-- Font Awesome Pro 5.15.4 by @fontawesome - https://fontawesome.com License - https://fontawesome.com/license (Commercial License) --><path d="M368.05829,88.0293a55.99512,55.99512,0,1,0,55.99215,55.99414A56.01694,56.01694,0,0,0,368.05829,88.0293Zm0,79.99218a23.998,23.998,0,1,1,23.99608-23.998A24.02247,24.02247,0,0,1,368.05829,168.02148ZM505.1656,19.29492C503.98982,13.832,498.18123,8.0293,492.71835,6.86133,460.63244,0,435.48793,0,410.45084,0,307.26342,0,245.38261,55.19727,199.18734,127.98828H95.01555c-16.293,0-35.58786,11.92188-42.87692,26.4961L2.73242,253.27344A28.4,28.4,0,0,0,.2168,263.97656a24.00493,24.00493,0,0,0,23.99607,23.998H128.13466a95.98845,95.98845,0,0,1,95.98625,95.99023V487.95508a24.00243,24.00243,0,0,0,23.99608,23.998,28.53884,28.53884,0,0,0,10.70116-2.51562l98.71671-49.40039c14.55663-7.28516,26.46678-26.5625,26.46678-42.83984V312.76758C456.568,266.46094,511.982,204.37109,511.982,101.69336,512.0738,76.54492,512.0738,51.39648,505.1656,19.29492ZM37.15427,255.97656l43.60152-87.18164c1.85156-3.70508,10.11523-8.81054,14.25976-8.81054h85.08c-13.93554,28.06054-31.71287,63.99609-47.55465,95.99218l.0664.45313C131.08778,256.377,61.01753,255.97656,37.15427,255.97656Zm314.8513,161.22071c0,4.13085-5.09179,12.375-8.789,14.22461L256.115,475.01172c0-23.90234-.4043-94.06055-.46094-95.60938l.36719.04688c31.99606-15.82617,67.80267-33.58984,95.85929-47.541l.125.002Zm-102.078-70.51368a127.62739,127.62739,0,0,0-84.6347-84.55468c52.02731-103.98633,99.76945-230.13282,245.158-230.13282,21.164,0,41.29684,0,65.41987,4.1875,4.26562,24.377,4.1914,44.38477,4.11523,65.50977C479.98594,246.66406,353.00752,295.1543,249.92753,346.68359Zm-147.494-26.71289C54.35347,319.9707,2.03125,359.31836.168,480H0v32H32v-.23242C203.617,508.42969,216.8885,396.74414,165.80065,345.40039,150.85925,330.38477,127.22255,319.9707,102.43351,319.9707Zm52.914,109.39844c-12.83593,31.14844-57.63667,49.42969-123.36709,50.55078.06446-3.55469-1.11914-127.88867,70.45307-127.88867,15.09569,0,31.11521,6.29492,40.81051,16.03906C156.05456,380.94336,164.6483,406.80273,155.34753,429.36914Z"/></svg>