<svg xmlns="http://www.w3.org/2000/svg" viewBox="0 0 512 512"><!-- Font Awesome Pro 5.15.4 by @fontawesome - https://fontawesome.com License - https://fontawesome.com/license (Commercial License) --><path d="M505.07337,19.34375C503.85462,13.73438,498.32338,8.20312,492.72964,7c-32.62885-7-58.162-7-83.57017-7C305.39988,0,242.95858,55.09375,196.236,128H94.82015c-16.34567.01562-35.53314,11.875-42.87883,26.48438L2.53125,253.29688A28.125,28.125,0,0,0,0,264a24.00659,24.00659,0,0,0,24.00191,24h92.63266l-10.59373,21.42188c-9.33592,18.91015,4.27733,34.77539,6.15624,36.625l53.75381,53.71874c1.85352,1.86329,17.789,15.47852,36.62885,6.14063l21.37692-10.57813V488a24.14815,24.14815,0,0,0,24.00191,24,28.02956,28.02956,0,0,0,10.625-2.53125l98.72835-49.39063c14.625-7.3125,26.50191-26.5,26.50191-42.85937V315.70312C456.6008,268.9375,511.98156,206.25,511.98156,103,512.07531,77.46875,512.07531,52,505.07337,19.34375ZM36.94134,256l43.59759-87.20312c2.46874-4.82813,8.84373-8.78126,14.28122-8.79688h85.19517c-13.93943,28.0625-31.72065,64-47.56632,96ZM351.84316,417.1875c-.03125,5.4375-4.002,11.84375-8.87694,14.26562L255.95855,475V379.48438c32.00386-15.82813,67.81825-33.59376,95.88461-47.54688Zm14.625-128.28125c-39.50383,19.78125-135.88649,67.4375-177.92157,88.23437l-53.81632-53.54687c20.87692-42.23437,68.537-138.59375,88.22642-178.1875C273.17923,67,330.65374,32,409.15947,32c21.53317,0,42.00384,0,66.63075,4.29688,4.34374,24.85937,4.25,45.20312,4.18749,66.6875C479.97771,181.0625,444.97582,238.45312,366.46813,288.90625ZM367.98962,88.0293a55.99512,55.99512,0,1,0,55.99209,55.99414A56.01691,56.01691,0,0,0,367.98962,88.0293Zm0,79.99218a23.998,23.998,0,1,1,23.99605-23.998A24.02247,24.02247,0,0,1,367.98962,168.02148Z"/></svg>