<svg xmlns="http://www.w3.org/2000/svg" viewBox="0 0 448 512"><!-- Font Awesome Pro 5.15.4 by @fontawesome - https://fontawesome.com License - https://fontawesome.com/license (Commercial License) --><path d="M428.4 269.21c-30.48-45.42-11.8-104.47 13-155.4 3.96-8.13 3.34-17.75-1.87-25.13l-41.17-58.36c-4.56-6.47-11.8-10.14-19.28-10.14-2.74 0-5.52.49-8.21 1.52-15.37 5.88-32.67 8.89-50.26 8.89-29.51 0-59.81-8.47-83.16-26.11C233.48 1.5 228.74 0 224 0s-9.48 1.5-13.44 4.49C187.21 22.13 156.9 30.6 127.39 30.6c-17.59 0-34.89-3.01-50.25-8.89a22.929 22.929 0 0 0-8.21-1.52c-7.48 0-14.72 3.67-19.28 10.13L8.47 88.69c-5.21 7.38-5.83 16.99-1.87 25.13 24.8 50.92 43.47 109.97 13 155.4-37.94 56.52-18.55 139.43 38.81 166.03L223.97 512l165.62-76.76c57.37-26.6 76.75-109.51 38.81-166.03zM72.17 53.91c17.17 5.7 36.12 8.69 55.22 8.69 35.63 0 69.64-10.04 96.61-28.38 26.97 18.35 60.97 28.38 96.61 28.38 19.11 0 38.06-2.99 55.23-8.69l35 49.62c-8.03 16.78-16.01 36.09-21.86 56.48H59.03c-5.86-20.38-13.83-39.7-21.86-56.48l35-49.62zm340.44 306.03c-6 21.44-19.29 38.3-36.47 46.27l-152.16 70.52-152.1-70.52c-17.19-7.97-30.48-24.83-36.48-46.27-7.03-25.12-3-52.37 10.78-72.89 20.25-30.18 24.07-63.23 19.87-95.04h315.92c-4.21 31.81-.38 64.86 19.87 95.05 13.77 20.51 17.79 47.76 10.77 72.88z"/></svg>