<svg xmlns="http://www.w3.org/2000/svg" viewBox="0 0 576 512"><!-- Font Awesome Pro 5.15.4 by @fontawesome - https://fontawesome.com License - https://fontawesome.com/license (Commercial License) --><path d="M173.93 96.81a8.12 8.12 0 0 0 11.23.07C230.55 55 289.48 32 352 32s121.45 23 166.83 64.88a8.12 8.12 0 0 0 11.23-.07l11.53-11.34a8 8 0 0 0-.11-11.56C490 26.18 423 0 352 0S214 26.18 162.52 73.91a8 8 0 0 0-.11 11.56zM352 112a179.26 179.26 0 0 0-120.38 45.8 8 8 0 0 0-.15 11.64l11.53 11.3a8.21 8.21 0 0 0 11.22.14 148.17 148.17 0 0 1 195.64 0 8.21 8.21 0 0 0 11.22-.14l11.49-11.3a8 8 0 0 0-.15-11.64A179.26 179.26 0 0 0 352 112zm176 208H368v-88a8 8 0 0 0-8-8h-16a8 8 0 0 0-8 8v88H48a48 48 0 0 0-48 48v96a48 48 0 0 0 48 48h480a48 48 0 0 0 48-48v-96a48 48 0 0 0-48-48zm16 144a16 16 0 0 1-16 16H48a16 16 0 0 1-16-16v-96a16 16 0 0 1 16-16h480a16 16 0 0 1 16 16zm-360-72a24 24 0 1 0 24 24 24 24 0 0 0-24-24zm-80 0a24 24 0 1 0 24 24 24 24 0 0 0-24-24z"/></svg>