<svg xmlns="http://www.w3.org/2000/svg" viewBox="0 0 480 512"><!-- Font Awesome Pro 5.15.4 by @fontawesome - https://fontawesome.com License - https://fontawesome.com/license (Commercial License) --><path d="M464.83 55.14c-3.07-9.95-11.66-16.67-20.94-16.67-1.73 0-3.49.23-5.24.72-18.23 5.12-37.74 7.96-58.1 7.96-49.12 0-93.61-16.07-126.17-42.11C250.18 1.68 245.09 0 240 0s-10.18 1.68-14.38 5.03c-32.56 26.04-77.05 42.11-126.17 42.11-20.36 0-39.87-2.84-58.1-7.96-1.75-.49-3.51-.72-5.24-.72-9.28 0-17.87 6.73-20.94 16.67C-21.83 175.11-6.68 410.34 240 512 486.68 410.34 501.83 175.11 464.83 55.14zM43.37 72.73c18.29 4.25 37.11 6.41 56.08 6.41 52.1 0 101.71-15.86 140.55-44.79 38.83 28.93 88.45 44.79 140.55 44.79 18.96 0 37.77-2.15 56.05-6.4 4.63 17.18 10.92 48.28 11.28 87.26H32.07c.16-31.56 4.17-61.38 11.3-87.27zm196.64 404.45C97.11 413.26 42.04 296.52 33.32 192h413.33c-2.14 27.18-7.29 56.82-18.08 87.95-30.84 88.91-94.24 155.21-188.56 197.23z"/></svg>