<svg xmlns="http://www.w3.org/2000/svg" viewBox="0 0 448 512"><!-- Font Awesome Pro 5.15.4 by @fontawesome - https://fontawesome.com License - https://fontawesome.com/license (Commercial License) --><path d="M80 352c26.467 0 48 21.533 48 48s-21.533 48-48 48-48-21.533-48-48 21.533-48 48-48m0-32c-44.183 0-80 35.817-80 80s35.817 80 80 80 80-35.817 80-80-35.817-80-80-80zm367.996 147.615c-6.448-237.848-198.06-429.164-435.61-435.61C5.609 31.821 0 37.229 0 44.007v8.006c0 6.482 5.146 11.816 11.626 11.994 220.81 6.05 398.319 183.913 404.367 404.367.178 6.48 5.512 11.626 11.994 11.626h8.007c6.778 0 12.185-5.609 12.002-12.385zm-144.245-.05c-6.347-158.132-133.207-284.97-291.316-291.316C5.643 175.976 0 181.45 0 188.247v8.005c0 6.459 5.114 11.72 11.567 11.989 141.134 5.891 254.301 119.079 260.192 260.192.269 6.453 5.531 11.567 11.989 11.567h8.005c6.798 0 12.271-5.643 11.998-12.435z"/></svg>