<svg xmlns="http://www.w3.org/2000/svg" viewBox="0 0 512 512"><!-- Font Awesome Pro 5.15.4 by @fontawesome - https://fontawesome.com License - https://fontawesome.com/license (Commercial License) --><path d="M480 320H192V32c0-17.67-14.33-32-32-32H32C14.33 0 0 14.33 0 32v448c0 17.67 14.33 32 32 32h448c17.67 0 32-14.33 32-32V352c0-17.67-14.33-32-32-32zM32 32h128v64h-56c-4.42 0-8 3.58-8 8v16c0 4.42 3.58 8 8 8h56v48h-56c-4.42 0-8 3.58-8 8v16c0 4.42 3.58 8 8 8h56v48h-56c-4.42 0-8 3.58-8 8v16c0 4.42 3.58 8 8 8h56v41.38l-128 128V32zm448 448H54.62l128-128H224v56c0 4.42 3.58 8 8 8h16c4.42 0 8-3.58 8-8v-56h48v56c0 4.42 3.58 8 8 8h16c4.42 0 8-3.58 8-8v-56h48v56c0 4.42 3.58 8 8 8h16c4.42 0 8-3.58 8-8v-56h64v128z"/></svg>