<svg xmlns="http://www.w3.org/2000/svg" viewBox="0 0 448 512"><!-- Font Awesome Pro 5.15.4 by @fontawesome - https://fontawesome.com License - https://fontawesome.com/license (Commercial License) --><path d="M396 216h-14.53l-9.04-27.12c-8.11-24.31-24.18-44-44.5-58.04C347 117.91 360 96.73 360 72c0-39.7-32.3-72-72-72s-72 32.3-72 72c0 8.34 1.56 16.28 4.2 23.72-8.62-1.98-17.37-3.22-26.13-3.22-20.55 0-40.8 5.53-58.64 16l-46.19 24.07C64.7 147.31 56.7 179.3 71.4 203.88c9.39 15.62 26.48 25.27 44.63 25.27 8.98 0 17.82-2.33 25.65-6.76l18.95-9.85L101.75 344H52c-28.67 0-52 23.33-52 52s23.33 52 52 52h62.91c33.65 0 63.95-19.99 77.2-50.92l19.32-39.74 43.7 19.63-19.64 68.74c-7.87 27.58 8.15 56.42 35.71 64.29 4.8 1.34 9.55 2 14.31 2 23.07 0 43.62-15.5 49.98-37.69l24.4-85.4c7.11-24.86 2.02-50.92-12.01-71.12 6.2 1.45 12.63 2.21 19.2 2.21H396c28.67 0 52-23.33 52-52s-23.33-52-52-52zM288 32c22.09 0 40 17.91 40 40s-17.91 40-40 40-40-17.91-40-40 17.91-40 40-40zM162.69 384.48A51.915 51.915 0 0 1 114.91 416H52c-11.05 0-20-8.95-20-20s8.95-20 20-20h62.91c4.8 0 9.12-2.86 11.03-7.28l26.72-56.88c6.9 12.72 17.07 23.57 29.98 31.43l-19.95 41.21zM396 288h-28.94a51.94 51.94 0 0 1-49.33-35.55l-13.59-40.8c-2.83-8.46-8.21-15.43-15-20.67l-41.47 103.69 52.78 23.72c23.41 10.55 35.72 37.09 28.67 61.73l-24.39 85.38c-2.52 8.78-10.52 14.5-19.22 14.5-1.83 0-3.67-.25-5.52-.77-10.61-3.03-16.77-14.11-13.73-24.73l24.39-85.38c1.64-5.69-1.22-11.81-6.62-14.25 0 0-85.82-39.04-88.71-41.16-17.8-13.09-25.42-36.48-18.51-57.88l37.75-87.57s-16.9-3.77-20.5-3.77c-7.88 0-15.59 2.14-22.5 6.31l-45.25 23.52a20.137 20.137 0 0 1-10.29 2.84c-6.8 0-13.41-3.46-17.16-9.7-5.67-9.48-2.61-21.77 6.86-27.45l45.26-23.52c13.24-7.93 28.06-11.99 43.1-11.99 6.83 0 13.72.84 20.51 2.53l68.19 17.05c28 6.98 50.17 27.52 59.31 54.92l13.59 40.8c1.64 4.91 6.22 8.2 11.39 8.2H396c11.05 0 20 8.95 20 20s-8.95 20-20 20z"/></svg>