<svg xmlns="http://www.w3.org/2000/svg" viewBox="0 0 320 512"><!-- Font Awesome Pro 5.15.4 by @fontawesome - https://fontawesome.com License - https://fontawesome.com/license (Commercial License) --><path d="M320 60V44c0-6.627-5.373-12-12-12H12C5.373 32 0 37.373 0 44v16c0 6.627 5.373 12 12 12h72.614c47.093 0 81.306 20.121 93.376 56H12c-6.627 0-12 5.373-12 12v16c0 6.627 5.373 12 12 12h170.387c-4.043 50.107-41.849 79.554-98.41 79.554H12c-6.627 0-12 5.373-12 12v15.807c0 2.985 1.113 5.863 3.121 8.072l175.132 192.639a11.998 11.998 0 0 0 8.879 3.928h21.584c10.399 0 15.876-12.326 8.905-20.043L62.306 288h23.407c77.219 0 133.799-46.579 138.024-120H308c6.627 0 12-5.373 12-12v-16c0-6.627-5.373-12-12-12h-87.338c-4.96-22.088-15.287-40.969-29.818-56H308c6.627 0 12-5.373 12-12z"/></svg>