<svg xmlns="http://www.w3.org/2000/svg" viewBox="0 0 640 512"><!-- Font Awesome Pro 5.15.4 by @fontawesome - https://fontawesome.com License - https://fontawesome.com/license (Commercial License) --><path d="M304 128H112c-8.8 0-16 7.2-16 16v96c0 8.8 7.2 16 16 16h192c8.8 0 16-7.2 16-16v-96c0-8.8-7.2-16-16-16zm-16 96H128v-64h160v64zm288.1-32H600c22.1 0 40-17.9 40-40 0-66.3-53.7-120-120-120H384V16c0-8.8-7.2-16-16-16H240c-8.8 0-16 7.2-16 16v16H64C28.7 32 0 60.7 0 96v197.5c0 17 6.7 33.2 18.7 45.2l69.7 69.7c2.8 2.8 6.1 4.6 9.7 5.9C96.8 420 96 425.9 96 432c0 44.2 35.8 80 80 80s80-35.8 80-80c0-5.5-.6-10.8-1.6-16h163.2c-1.1 5.2-1.6 10.5-1.6 16 0 44.2 35.8 80 80 80s80-35.8 80-80c0-5.5-.6-10.8-1.6-16H608c17.6 0 32-14.4 32-32V282.4c0-17-6.7-33.2-18.7-45.2L576.1 192zm18.7 64H416v-64h101.5c8.6 0 16.7 3.4 22.8 9.4l54.5 54.6zM176 480c-26.5 0-48-21.5-48-48s21.5-48 48-48 48 21.5 48 48-21.5 48-48 48zm208-96H239.6C225 364.7 202 352 176 352s-49 12.7-63.6 32h-3.1l-67.9-67.9c-6-6-9.4-14.1-9.4-22.6V96c0-17.7 14.3-32 32-32h456c48.5 0 88 39.5 88 88 0 4.4-3.6 8-8 8H384v224zm112 96c-26.5 0-48-21.5-48-48s21.5-48 48-48 48 21.5 48 48-21.5 48-48 48zm112-96h-48.4C545 364.7 522 352 496 352s-49 12.7-63.6 32H416v-96h192v96z"/></svg>