<svg xmlns="http://www.w3.org/2000/svg" viewBox="0 0 512 512"><!-- Font Awesome Pro 5.15.4 by @fontawesome - https://fontawesome.com License - https://fontawesome.com/license (Commercial License) --><path d="M334.89 121.63l43.72-71.89C392.77 28.47 377.53 0 352 0H160.15c-25.56 0-40.8 28.5-26.61 49.76l43.57 71.88C-9.27 240.59.08 392.36.08 412c0 55.23 49.11 100 109.68 100h292.5c60.58 0 109.68-44.77 109.68-100 0-19.28 8.28-172-177.05-290.37zM160.15 32H352l-49.13 80h-93.73zM480 412c0 37.49-34.85 68-77.69 68H109.76c-42.84 0-77.69-30.51-77.69-68v-3.36c-.93-59.86 20-173 168.91-264.64h110.1C459.64 235.46 480.76 348.94 480 409z"/></svg>