<svg xmlns="http://www.w3.org/2000/svg" viewBox="0 0 496 512"><!-- Font Awesome Pro 5.15.4 by @fontawesome - https://fontawesome.com License - https://fontawesome.com/license (Commercial License) --><path d="M248 8C111 8 0 119 0 256s111 248 248 248 248-111 248-248S385 8 248 8zm128 421.6V272c0-8.8-7.2-16-16-16s-16 7.2-16 16v177.2c-29 14.5-61.5 22.8-96 22.8s-67-8.3-96-22.8V272c0-8.8-7.2-16-16-16s-16 7.2-16 16v157.6C66.7 390.2 32 327.2 32 256c0-119.1 96.9-216 216-216s216 96.9 216 216c0 71.2-34.7 134.2-88 173.6zM205.8 234.5c4.4-2.4 6.9-7.4 6.1-12.4-4-25.2-34.2-42.1-59.8-42.1s-55.9 16.9-59.8 42.1c-.8 5 1.7 10 6.1 12.4 4.4 2.4 9.9 1.8 13.7-1.6l9.5-8.5c14.8-13.2 46.2-13.2 61 0l9.5 8.5c2.5 2.3 7.9 4.8 13.7 1.6zM344 180c-25.7 0-55.9 16.9-59.8 42.1-.8 5 1.7 10 6.1 12.4 4.4 2.4 9.9 1.8 13.7-1.6l9.5-8.5c14.8-13.2 46.2-13.2 61 0l9.5 8.5c2.5 2.2 8 4.7 13.7 1.6 4.4-2.4 6.9-7.4 6.1-12.4-3.9-25.2-34.1-42.1-59.8-42.1zm-96 108c-30.9 0-56 28.7-56 64s25.1 64 56 64 56-28.7 56-64-25.1-64-56-64zm0 96c-13 0-24-14.7-24-32s11-32 24-32 24 14.7 24 32-11 32-24 32z"/></svg>