<svg xmlns="http://www.w3.org/2000/svg" viewBox="0 0 496 512"><!-- Font Awesome Pro 5.15.4 by @fontawesome - https://fontawesome.com License - https://fontawesome.com/license (Commercial License) --><path d="M168 240c17.7 0 32-14.3 32-32s-14.3-32-32-32-32 14.3-32 32 14.3 32 32 32zm160 0c17.7 0 32-14.3 32-32s-14.3-32-32-32-32 14.3-32 32 14.3 32 32 32zM248 8C111 8 0 119 0 256s111 248 248 248 248-111 248-248S385 8 248 8zm0 464c-119.1 0-216-96.9-216-216S128.9 40 248 40s216 96.9 216 216-96.9 216-216 216zm0-152c-11.2 0-22 1.7-32.7 4.1-7.2-12.6-16.1-26.5-28.1-42.4-9-12.1-29.4-12-38.4 0-29.7 39.6-44.8 69-44.8 87.3 0 34.7 28.7 63 64 63s64-28.3 64-63c0-4.4-1-9.5-2.7-15.1 6.1-1.2 12.3-1.9 18.7-1.9 34.9 0 67.8 15.4 90.2 42.2 5.3 6.4 15.4 8 22.5 2 6.8-5.7 7.7-15.8 2-22.5C334.2 339.6 292.4 320 248 320zm-80 80c-17.7 0-32-13.9-32-31 0-7.7 10-28.8 32-59.5 22 30.7 32 51.8 32 59.5 0 17.1-14.3 31-32 31z"/></svg>