<svg xmlns="http://www.w3.org/2000/svg" viewBox="0 0 512 512"><!-- Font Awesome Pro 5.15.4 by @fontawesome - https://fontawesome.com License - https://fontawesome.com/license (Commercial License) --><path d="M495.82 288h5A110.13 110.13 0 0 0 512 240c0-33.16-14.77-62.69-37.75-83.21C459 103.33 410.38 64 352 64c-3.63 0-7.05.77-10.61 1.07C323.6 26.74 285 0 240 0s-83.6 26.74-101.39 65.07c-3.56-.3-7-1.07-10.61-1.07A128 128 0 0 0 0 192c0 38.58 17.43 72.66 44.52 96H16.18C7 288-.74 295.72.06 304.84 6.7 381.21 58.18 444.23 128 468.69V480a32.16 32.16 0 0 0 32.21 32h192.25c17.7 0 31.54-14.33 31.54-32v-11.51c69.49-24.62 121.32-87.49 127.94-163.65.8-9.12-6.94-16.84-16.12-16.84zM480 240a78.45 78.45 0 0 1-16.71 48H336.71A78.51 78.51 0 0 1 320 240a80 80 0 0 1 160 0zM32 192c0-35.13 23-104.78 128-96 27.87-63.73 65.28-64 80-64 14.18 0 52 0 80 64 35.07-2.93 76.19-1.1 106 35.35a110.79 110.79 0 0 0-26-3.35 112.12 112.12 0 0 0-112 112 110.27 110.27 0 0 0 11.09 48H256V104a8 8 0 0 0-8-8h-16a8 8 0 0 0-8 8v161.37l-111-111a8 8 0 0 0-11.31 0l-11.35 11.29a8 8 0 0 0 0 11.31l111 111H128A96.11 96.11 0 0 1 32 192zm341.79 246.34L352 445.89V480H160v-34l-21.23-7.51C85.11 419.7 45.74 374.27 34.59 320h442.82c-11.12 54.07-50.27 99.43-103.62 118.34z"/></svg>