<svg xmlns="http://www.w3.org/2000/svg" viewBox="0 0 512 512"><!-- Font Awesome Pro 5.15.4 by @fontawesome - https://fontawesome.com License - https://fontawesome.com/license (Commercial License) --><path d="M480 32H32A32 32 0 0 0 0 64v96a32 32 0 0 0 32 32h448a32 32 0 0 0 32-32V64a32 32 0 0 0-32-32zm0 128H32V64h448zm0 160H32a32 32 0 0 0-32 32v96a32 32 0 0 0 32 32h448a32 32 0 0 0 32-32v-96a32 32 0 0 0-32-32zm-84.85 32L352 380.77 308.85 352zM480 448H32v-96h219.16l92 61.32a16 16 0 0 0 17.76 0l92-61.32H480zm24.16-192.19c-23-1.11-35.09-7.19-48.94-14.12-12.09-6.05-68.1-37.12-142.19 0-64.15 32.14-112.55.58-113.72 0-12.1-6.06-68.18-37.12-142.4 0-13.88 6.92-26 13-49.07 14.13a8.08 8.08 0 0 0-7.84 8v16a8 8 0 0 0 8.29 8c30.52-1.32 47.67-9.88 62.93-17.51 1.17-.58 49.49-32.14 113.78 0 74.14 37.07 130.06 6.15 142.34 0 64.15-32.14 112.4-.58 113.57 0 15.23 7.62 32.34 16.19 62.8 17.51a8 8 0 0 0 8.29-8v-16a8.1 8.1 0 0 0-7.84-8.01z"/></svg>