<svg xmlns="http://www.w3.org/2000/svg" viewBox="0 0 512 512"><!-- Font Awesome Pro 5.15.4 by @fontawesome - https://fontawesome.com License - https://fontawesome.com/license (Commercial License) --><path d="M346.58818,455.90644c8.31269,8.3906,6.90641,22.7968-3.50008,28.39053A233.00967,233.00967,0,0,1,68.17549,443.79711c-74.408-74.39037-87.90828-186.70249-40.50093-274.88969a16.87606,16.87606,0,0,1,15.2191-8.90622,18.51882,18.51882,0,0,1,13.09405,5.40623L189.99081,299.407l35.59457-35.60926c-.68752-2.59374-1.59379-5-1.59379-7.79685a32.00074,32.00074,0,1,1,32.00074,31.9999c-2.81256,0-5.21887-.90625-7.81268-1.59375l-35.59457,35.59363Zm-36.5946,8.68747L47.39376,202.00106c-30.71946,74.0935-14.12533,161.70257,43.376,219.20238a199.69239,199.69239,0,0,0,142.00329,58.79667C254.92981,480.00011,289.52436,473.09388,309.99358,464.59391Zm202.00467-152.8901a8.08961,8.08961,0,0,1-8.09394,8.2031H487.90394a7.97613,7.97613,0,0,1-7.90643-7.90623C475.90367,159.20433,352.68207,35.70475,199.89729,31.90789a7.9254,7.9254,0,0,1-7.90644-7.90622V8.09547A8.07635,8.07635,0,0,1,200.17854.00175C370.18247,4.29861,507.68565,141.79814,511.99825,311.70381Zm-96.096,0a8.11591,8.11591,0,0,1-8.12519,8.2031H391.99548a8.03981,8.03981,0,0,1-8.00019-7.81248c-3.59383-99.79653-84.31445-179.99938-184.223-183.99937a8.098,8.098,0,0,1-7.78143-8V104.09514a8.00862,8.00862,0,0,1,8.18769-8.09372C317.18125,100.29828,411.68343,194.70421,415.90228,311.70381Z"/></svg>