<svg xmlns="http://www.w3.org/2000/svg" viewBox="0 0 512 512"><!-- Font Awesome Pro 5.15.4 by @fontawesome - https://fontawesome.com License - https://fontawesome.com/license (Commercial License) --><path d="M455.72 72.83l14.92-44.75A21.34 21.34 0 0 0 450.4 0h-68.8a21.34 21.34 0 0 0-20.24 28.08l14.92 44.75A95.83 95.83 0 0 0 320 160c0 88.22-71.78 160-160 160a95.83 95.83 0 0 0-87.17 56.28l-44.75-14.92C10.49 355.5 0 371.25 0 381.6v68.8c0 9.64 10.48 26.1 28.08 20.24l44.75-14.92A95.83 95.83 0 0 0 160 512c194.09 0 352-157.91 352-352a95.83 95.83 0 0 0-56.28-87.17zM64 424.94L32 435.6v-39.2l32 10.66zM435.6 32l-10.66 32h-17.88L396.4 32zM160 480a64 64 0 0 1 0-128c105.87 0 192-86.13 192-192a64 64 0 0 1 128 0c0 176.45-143.55 320-320 320zm240-320a16 16 0 0 0-16 16c0 114.69-93.31 208-208 208a16 16 0 0 0 0 32c132.34 0 240-107.66 240-240a16 16 0 0 0-16-16z"/></svg>