<svg xmlns="http://www.w3.org/2000/svg" viewBox="0 0 640 512"><!-- Font Awesome Pro 5.15.4 by @fontawesome - https://fontawesome.com License - https://fontawesome.com/license (Commercial License) --><path d="M635.28 100.73L592 41.37A32 32 0 0 0 569.33 32H522.5a64 64 0 0 0-45.25 18.74l-29.77 27.62-23.09-23.1a8 8 0 0 0-11.31 0l-11.31 11.32a8 8 0 0 0 0 11.31L424 100.13l-23.48 21.78-21.39-21.39a8 8 0 0 0-11.31 0l-11.32 11.31a8 8 0 0 0 0 11.32l20.54 20.54-23.47 21.78-19.7-19.7a8 8 0 0 0-11.31 0l-11.31 11.32a8 8 0 0 0 0 11.31l18.85 18.85L256 256a25.41 25.41 0 0 1-39.76-31L256 160h8a8 8 0 0 0 8-8v-16a8 8 0 0 0-8-8H8a8 8 0 0 0-8 8v16a8 8 0 0 0 8 8h19.46C18.64 191.92 0 280.13 0 320c0 70.24 57.33 160 160 160 94.44 0 103.69-35.78 376-352h88c14.22 0 21.36-17.19 11.28-27.27zM536 96h-14.68l-9.58 11.13c-49.65 57.66-90.57 106-124.86 146.53C234 434.3 221 448 160 448c-83.52 0-128-74.34-128-128 0-34.34 17.27-118.78 26.3-151.48l2.36-8.52h157.81l-29.67 48.49a57.41 57.41 0 0 0 49.2 86.95c15.33 0 29.75-6 39.73-16L499.87 73.37A31.83 31.83 0 0 1 522.5 64h46.36l23.37 32zM104 288a24 24 0 1 0 24 24 24 24 0 0 0-24-24zm16-80a24 24 0 1 0 24 24 24 24 0 0 0-24-24z"/></svg>