<svg xmlns="http://www.w3.org/2000/svg" viewBox="0 0 640 512"><!-- Font Awesome Pro 5.15.4 by @fontawesome - https://fontawesome.com License - https://fontawesome.com/license (Commercial License) --><path d="M80 408h32a8 8 0 0 0 8-8v-32a8 8 0 0 0-8-8H80a8 8 0 0 0-8 8v32a8 8 0 0 0 8 8zm96 0h32a8 8 0 0 0 8-8v-32a8 8 0 0 0-8-8h-32a8 8 0 0 0-8 8v32a8 8 0 0 0 8 8zm444.69-138.88L17.52 32.66A8 8 0 0 0 7 36.83L.66 51.52A8 8 0 0 0 4.83 62l576.39 226H32a32 32 0 0 0-32 32v128a32 32 0 0 0 32 32h576a32 32 0 0 0 32-32V298.5a32.08 32.08 0 0 0-19.31-29.38zM608 384v64H32V320h576z"/></svg>