<svg xmlns="http://www.w3.org/2000/svg" viewBox="0 0 640 512"><!-- Font Awesome Pro 5.15.4 by @fontawesome - https://fontawesome.com License - https://fontawesome.com/license (Commercial License) --><path d="M352 192h-16v-32c0-4.42-3.58-8-8-8h-16c-4.42 0-8 3.58-8 8v56c0 4.42 3.58 8 8 8h40c4.42 0 8-3.58 8-8v-16c0-4.42-3.58-8-8-8zm16 128h-96c-26.51 0-48 21.49-48 48v136c0 4.42 3.58 8 8 8h16c4.42 0 8-3.58 8-8V368c0-8.84 7.16-16 16-16h96c8.84 0 16 7.16 16 16v136c0 4.42 3.58 8 8 8h16c4.42 0 8-3.58 8-8V368c0-26.51-21.49-48-48-48zm240-128h-96v-53.34c0-10.7-5.35-20.69-14.25-26.62l-160-106.67C332.38 1.79 326.19 0 320 0s-12.38 1.79-17.75 5.37l-160 106.67A32.02 32.02 0 0 0 128 138.67V192H32c-17.67 0-32 14.33-32 32v280c0 4.42 3.58 8 8 8h16c4.42 0 8-3.58 8-8V224h96v280c0 4.42 3.58 8 8 8h16c4.42 0 8-3.58 8-8V138.67L320 32l160 106.67V504c0 4.42 3.58 8 8 8h16c4.42 0 8-3.58 8-8V224h96v280c0 4.42 3.58 8 8 8h16c4.42 0 8-3.58 8-8V224c0-17.67-14.33-32-32-32zM320 96c-52.94 0-96 43.06-96 96s43.06 96 96 96 96-43.06 96-96-43.06-96-96-96zm0 160c-35.28 0-64-28.7-64-64s28.72-64 64-64 64 28.7 64 64-28.72 64-64 64z"/></svg>