<svg xmlns="http://www.w3.org/2000/svg" viewBox="0 0 512 512"><!-- Font Awesome Pro 5.15.4 by @fontawesome - https://fontawesome.com License - https://fontawesome.com/license (Commercial License) --><path d="M416 192l96-128-64-64-128 96v73.38l-98.49 98.49c-12.24-7.85-26.24-11.86-40.27-11.86-19.13 0-38.26 7.3-52.86 21.89L10.95 395.33c-14.6 14.6-14.6 38.27 0 52.87l52.86 52.86c7.3 7.3 16.87 10.95 26.43 10.95 9.57 0 19.13-3.65 26.43-10.95L234.1 383.63c25.3-25.3 28.59-64.2 10.03-93.13l98.5-98.5H416zm-64-80l93-69.75L469.75 67 400 160h-48v-48zM211.41 360.92L93.98 478.36a5.192 5.192 0 0 1-3.74 1.55c-1 0-2.46-.27-3.74-1.55L33.65 425.5a5.3 5.3 0 0 1 0-7.48l117.43-117.43c8.06-8.06 18.77-12.5 30.17-12.5 11.4 0 22.11 4.44 30.17 12.5 16.62 16.63 16.62 43.7-.01 60.33z"/></svg>