<svg xmlns="http://www.w3.org/2000/svg" viewBox="0 0 640 512"><!-- Font Awesome Pro 5.15.4 by @fontawesome - https://fontawesome.com License - https://fontawesome.com/license (Commercial License) --><path d="M608 352h-64V112C544 50.25 493.75 0 432 0H80C35.88 0 0 35.89 0 80v80c0 17.64 14.34 32 32 32h96v224c0 51.11 40.25 92.62 90.66 95.46v.54h312C590.94 512 640 462.95 640 402.67V384c0-17.64-14.34-32-32-32zM128 160H32V80c0-26.47 21.53-48 48-48s48 21.53 48 48v80zm160 256c0 35.3-28.72 64-64 64s-64-28.7-64-64V80c0-18-5.97-34.62-16.03-48H432c44.12 0 80 35.89 80 80v240H320c-17.66 0-32 14.36-32 32v32zm320-13.33c0 42.64-34.69 77.33-77.34 77.33H295.03c15.35-17.02 24.97-39.32 24.97-64v-32h288v18.67z"/></svg>