<svg xmlns="http://www.w3.org/2000/svg" viewBox="0 0 512 512"><!-- Font Awesome Pro 5.15.4 by @fontawesome - https://fontawesome.com License - https://fontawesome.com/license (Commercial License) --><path d="M208 96c-49.53 0-89.81 40.3-89.81 89.83 0 34.66 38.34 87.2 70.53 125.2 4.81 5.7 11.84 8.97 19.28 8.97s14.47-3.27 19.31-8.97c32.16-38 70.5-90.55 70.5-125.2C297.81 136.3 257.53 96 208 96zm0 188.23c-35.31-42.7-57.81-80.89-57.81-98.41 0-31.89 25.94-57.83 57.81-57.83s57.81 25.94 57.81 57.83c0 17.52-22.5 55.71-57.81 98.41zM208 160c-13.25 0-24 10.74-24 24 0 13.25 10.75 24 24 24s24-10.75 24-24c0-13.26-10.75-24-24-24zm300.47 321.58l-128.99-129c-2.3-2.3-5.3-3.5-8.5-3.5h-10.3c34.3-37.1 55.3-86.6 55.3-141.09C415.98 93.1 322.88 0 207.99 0S0 93.1 0 207.99c0 114.89 93.1 207.99 207.99 207.99 54.5 0 103.99-21 141.09-55.2v10.2c0 3.2 1.3 6.2 3.5 8.5l128.99 128.99c4.7 4.7 12.3 4.7 17 0l9.9-9.9c4.71-4.69 4.71-12.29 0-16.99zm-300.48-97.6C110.7 383.98 32 305.29 32 207.99 32 110.69 110.7 32 207.99 32s175.99 78.7 175.99 175.99c0 97.3-78.69 175.99-175.99 175.99z"/></svg>