<svg xmlns="http://www.w3.org/2000/svg" viewBox="0 0 512 512"><!-- Font Awesome Pro 5.15.4 by @fontawesome - https://fontawesome.com License - https://fontawesome.com/license (Commercial License) --><path d="M464,160H208a48,48,0,0,0-48,48V464a48,48,0,0,0,48,48H464a48,48,0,0,0,48-48V208A48,48,0,0,0,464,160Zm16,304a16,16,0,0,1-16,16H208a16,16,0,0,1-16-16V208a16,16,0,0,1,16-16H464a16,16,0,0,1,16,16ZM32,304V48A16,16,0,0,1,48,32H304a16,16,0,0,1,16,16v80h32V48A48,48,0,0,0,304,0H48A48,48,0,0,0,0,48V304a48,48,0,0,0,48,48h80V320H48A16,16,0,0,1,32,304Zm400-80H240a16,16,0,0,0-16,16V432a16,16,0,0,0,16,16H432a16,16,0,0,0,16-16V240A16,16,0,0,0,432,224ZM416,416H256V256H416Z"/></svg>