<svg xmlns="http://www.w3.org/2000/svg" viewBox="0 0 640 512"><!-- Font Awesome Pro 5.15.4 by @fontawesome - https://fontawesome.com License - https://fontawesome.com/license (Commercial License) --><path d="M544,154.44C531.25,166,522.08,174,508.59,188.5c-26.35-32.29-51-53.82-64.59-66.06C325.57,229.47,320,304.05,320,320c0,88.22,71.78,160,160,160s160-71.78,160-160C640,243.09,551.71,161.41,544,154.44ZM480,448A128.13,128.13,0,0,1,352,320c0-38.25,38.88-102.72,92-154.12a461.15,461.15,0,0,1,51,57.18l12.09,16.22,13-15.5c7.53-9,15.5-17.56,23.75-25.66C583.34,239.06,608,295.72,608,320A128.13,128.13,0,0,1,480,448ZM160,144V272a16,16,0,0,0,32,0V144a16,16,0,0,0-32,0ZM64,448a32,32,0,0,1-32-32V96A32,32,0,0,1,64,64H384a32,32,0,0,1,32,32v8.61c8.47-7.65,2.43-2.86,30.11-23.4A63.9,63.9,0,0,0,384,32H64A64,64,0,0,0,0,96V416a64,64,0,0,0,64,64H374.1a193.09,193.09,0,0,1-36.8-32ZM224,144V272a16,16,0,0,0,32,0V144a16,16,0,0,0-32,0ZM96,144V272a16,16,0,0,0,32,0V144a16,16,0,0,0-32,0ZM524.11,257l-25.94,28.75c-17.21-21.26-11.36-14.29-39.89-46.36C417.4,287,398.63,305.84,398.63,337c0,45,35.45,79,82.47,79a84.65,84.65,0,0,0,47.77-14.58c31.94-21.73,41.85-64.36,23.08-99.19C548.74,296.24,548.68,296.33,524.11,257Zm-43,127c-27.83,0-50.47-17.9-50.47-47,0-14.48,9.37-27.25,28.08-49,2.67,3,38.11,47,38.11,47l22.62-25.07C546.3,353,514.05,384,481.1,384Z"/></svg>