<svg xmlns="http://www.w3.org/2000/svg" viewBox="0 0 640 512"><!-- Font Awesome Pro 5.15.4 by @fontawesome - https://fontawesome.com License - https://fontawesome.com/license (Commercial License) --><path d="M586.25,293.61a72.1,72.1,0,0,0-71.58-64.28,71.34,71.34,0,0,0-22.29,3.55,98.67,98.67,0,0,0-168.77,54.79A98.67,98.67,0,0,0,354.67,480H541.33a98.59,98.59,0,0,0,44.92-186.39ZM541.33,448H354.67a66.67,66.67,0,1,1,0-133.33c.46,0,.9.12,1.36.13a66.6,66.6,0,0,1,127.19-37.92,39.83,39.83,0,0,1,68.67,38.85A66.55,66.55,0,0,1,541.33,448ZM224,144V272a16,16,0,0,0,32,0V144a16,16,0,0,0-32,0ZM64,448a32,32,0,0,1-32-32V96A32,32,0,0,1,64,64H384a32,32,0,0,1,32,32v75.11c1.8-.07,3.52-.44,5.33-.44a131.76,131.76,0,0,1,26.67,3V96a64,64,0,0,0-64-64H64A64,64,0,0,0,0,96V416a64,64,0,0,0,64,64H270a130.94,130.94,0,0,1-27.06-32Zm96-304V272a16,16,0,0,0,32,0V144a16,16,0,0,0-32,0Zm-64,0V272a16,16,0,0,0,32,0V144a16,16,0,0,0-32,0Z"/></svg>