<svg xmlns="http://www.w3.org/2000/svg" viewBox="0 0 448 512"><!-- Font Awesome Pro 5.15.4 by @fontawesome - https://fontawesome.com License - https://fontawesome.com/license (Commercial License) --><path d="M384,32H64A64,64,0,0,0,0,96V416a64,64,0,0,0,64,64H384a64,64,0,0,0,64-64V96A64,64,0,0,0,384,32Zm32,384a32,32,0,0,1-32,32H64a32,32,0,0,1-32-32V96A32,32,0,0,1,64,64H384a32,32,0,0,1,32,32ZM112,128a16,16,0,0,0-16,16V272a16,16,0,0,0,32,0V144A16,16,0,0,0,112,128Zm64,0a16,16,0,0,0-16,16V272a16,16,0,0,0,32,0V144A16,16,0,0,0,176,128Zm64,0a16,16,0,0,0-16,16V272a16,16,0,0,0,32,0V144A16,16,0,0,0,240,128Z"/></svg>