<svg xmlns="http://www.w3.org/2000/svg" viewBox="0 0 512 512"><!-- Font Awesome Pro 5.15.4 by @fontawesome - https://fontawesome.com License - https://fontawesome.com/license (Commercial License) --><path d="M480 288H320c-17.67 0-32 14.33-32 32v160c0 17.67 14.33 32 32 32h160c17.67 0 32-14.33 32-32V320c0-17.67-14.33-32-32-32zm0 192H320V320h160v160zM128 256C57.31 256 0 313.31 0 384s57.31 128 128 128 128-57.31 128-128-57.31-128-128-128zm0 224c-52.93 0-96-43.07-96-96 0-52.94 43.07-96 96-96 52.94 0 96 43.06 96 96 0 52.93-43.06 96-96 96zm378.98-278.86L400.07 18.29C392.95 6.1 380.47 0 368 0s-24.95 6.1-32.07 18.29L229.02 201.14c-14.26 24.38 3.56 54.86 32.07 54.86h213.82c28.51 0 46.33-30.48 32.07-54.86zm-27.6 20.39c-.94 1.64-2.45 2.47-4.47 2.47H261.09c-2.02 0-3.53-.83-4.47-2.47-1.21-2.12-.35-3.6.02-4.23L363.55 34.44c.95-1.62 2.44-2.44 4.45-2.44s3.5.82 4.45 2.44L479.36 217.3c.37.63 1.24 2.11.02 4.23z"/></svg>