<svg xmlns="http://www.w3.org/2000/svg" viewBox="0 0 448 512"><!-- Font Awesome Pro 5.15.4 by @fontawesome - https://fontawesome.com License - https://fontawesome.com/license (Commercial License) --><path d="M288 232c30.9 0 56-25.1 56-56s-25.1-56-56-56-56 25.1-56 56c0 3.2.3 6.5.9 9.7l-53.6 26.8c-9.6-7.8-21.9-12.5-35.2-12.5-30.9 0-56 25.1-56 56s25.1 56 56 56c13.4 0 25.6-4.7 35.2-12.5l53.6 26.8c-.5 3.1-.9 6.4-.9 9.7 0 30.9 25.1 56 56 56s56-25.1 56-56-25.1-56-56-56c-16.1 0-30.6 6.8-40.8 17.7l-49.7-24.9c3.4-11 3.4-22.7 0-33.6l49.7-24.9c10.2 10.9 24.7 17.7 40.8 17.7zm0-80c13.2 0 24 10.8 24 24s-10.8 24-24 24-24-10.8-24-24 10.8-24 24-24zM144 280c-13.2 0-24-10.8-24-24s10.8-24 24-24 24 10.8 24 24-10.8 24-24 24zm144 32c13.2 0 24 10.8 24 24s-10.8 24-24 24-24-10.8-24-24 10.8-24 24-24zM400 32H48C21.5 32 0 53.5 0 80v352c0 26.5 21.5 48 48 48h352c26.5 0 48-21.5 48-48V80c0-26.5-21.5-48-48-48zm16 400c0 8.8-7.2 16-16 16H48c-8.8 0-16-7.2-16-16V80c0-8.8 7.2-16 16-16h352c8.8 0 16 7.2 16 16z"/></svg>