<svg xmlns="http://www.w3.org/2000/svg" viewBox="0 0 576 512"><!-- Font Awesome Pro 5.15.4 by @fontawesome - https://fontawesome.com License - https://fontawesome.com/license (Commercial License) --><path d="M470.632 201.371L310.63 41.4C290.59 21.36 256 35.44 256 64.03v72.69C140.5 140.56 0 164.89 0 317.79c0 64.98 33.54 118.26 85.11 155.97 24.19 17.7 58.04-4.92 49.69-34.51-27.7-98.19-.38-122.06 121.2-126.42v71.15c0 28.61 34.61 42.64 54.63 22.63l160.002-159.98c12.491-12.499 12.491-32.759 0-45.259zM288 384.001v-103.9c-145.671 1.326-224.979 22.633-184 167.9-31.51-23.05-72-65.11-72-130.21 0-131.425 125.835-148.345 256-149.69v-104.1l160 160-160 160zm278.628-137.373l-160 159.978c-13.454 13.454-33.492 11.509-45.191.106L544 224.001 361.438 41.294c11.695-11.401 31.723-13.362 45.189.105l160 159.974c12.497 12.497 12.497 32.758.001 45.255z"/></svg>