<svg xmlns="http://www.w3.org/2000/svg" viewBox="0 0 640 512"><!-- Font Awesome Pro 5.15.4 by @fontawesome - https://fontawesome.com License - https://fontawesome.com/license (Commercial License) --><path d="M496 96c-8.84 0-16 7.16-16 16s7.16 16 16 16 16-7.16 16-16-7.16-16-16-16zm117.31 11.61L576 89.27V80c0-26.47-21.53-48-48-48h-50.75C470.66 13.38 452.88 0 432 0c-26.47 0-48 21.53-48 48v53.01c-1.24-.36-2.38-.97-3.66-1.25-14.03-3.38-28.38-1.34-40.94 5.41-9.03-5.7-19.72-8.89-31.53-9.17-10.78 0-20.94 2.78-29.91 8.12-18-10.59-41.62-10.58-59.56-.05-18.31-10.89-43.09-10.45-61.16 1-12.28-6.66-26.56-8.7-40.88-5.67-17.03 3.84-31.41 14.97-39.62 30.16-16.94.88-33.06 9.11-44.12 23.12-10.81 13.95-15.06 31.86-12.12 48.95C7.62 213.09 0 229.81 0 247.69c0 17.91 7.5 34.59 20.19 46-3.06 17.3 1.25 35.27 12.12 48.98 10.78 14.02 26.78 22.3 43.78 23.16 4.83 9.1 11.99 16.48 20.41 21.98.14 3.96.33 7.93 1.26 11.81l21.12 87.86C122.34 501.86 135.21 512 150 512h57.53c20.95 0 36.12-19.76 31.02-39.86l-20.29-80.07a57.854 57.854 0 0 0 29.3 7.93c10.62 0 20.88-2.84 29.91-8.17 9.16 5.31 20.62 8.56 31.84 8.02 3.67-.12 7.17-1 10.69-1.77V480c0 17.67 14.33 32 32 32h64c17.67 0 32-14.33 32-32V356.83c5.69-3.63 11.01-7.98 15.38-13.51 10.81-13.95 15.06-31.86 12.12-48.95 12.88-11.45 20.5-28.17 20.5-46.05 0-8.54-1.81-16.77-4.97-24.31h92.63c14.91 0 28.81-8.03 36.28-21.02 17.97-31.55 20.06-45.08 20.06-52.52 0-18.35-10.22-34.77-26.69-42.86zM150 480l-19.82-82.44c9.14-.19 18.15-2.34 26.38-6.72 9.03 5.79 19.79 8.77 30.64 8.92L207.53 480H150zm266 0h-64v-84.09c8.85 2.29 18.22 2.72 27.62.68 15.13-3.41 27.89-12.78 36.38-25.42V480zm33.34-206.05l-12.22 6.84 5.16 13.02c8.51 21.38-9.05 44.04-30.59 40.3l-14.16-2.52-4.03 13.78c-5.48 18.83-28.59 28.04-44.84 13.67l-11.44-10.14-10.66 10.95c-8.68 8.94-25.64 12.3-38.12.45l-11.06-10.53-11.03 10.58c-10.31 9.92-27.25 9.91-37.16.16l-11.06-10.92-11.22 10.77c-10.59 10.09-28.12 9.72-38-.47l-10.44-10.83-11.44 9.77c-17.43 14.83-39.91 4.28-45.06-13.95L98 330.92l-14.25 2.56c-21.2 3.8-38.89-18.69-30.34-40.3l5.16-13.02-12.22-6.84c-18.61-10.44-19.64-40.06.31-51.28l12.22-6.84-5.16-13.02c-8.56-21.51 9.19-44.04 30.59-40.3l14.16 2.52 4.03-13.78c5.54-19.02 28.75-27.9 44.84-13.67l11.44 10.14 10.66-10.95c9.91-10.23 27.62-10.58 37.56-.69l11.09 10.97 11.25-10.77c10.28-9.88 27.25-9.89 37.66.02l11.06 10.56 11.06-10.59c10.49-10.05 27.6-10.21 37.97.48l10.44 10.8 11.44-9.75c17.4-14.87 39.91-4.26 45.06 13.95l3.97 13.95 14.25-2.56c21.24-3.85 38.87 18.75 30.34 40.3l-5.16 13.02 12.22 6.84c18.62 10.44 19.64 40.07-.31 51.28zm142.82-86.87c-1.75 3.08-4.94 4.92-8.5 4.92H476.55c.14-13.93-4.14-27.67-12.86-38.67-10.78-14.02-26.78-22.3-43.78-23.16-1.1-2.08-2.59-3.87-3.91-5.79V48c0-8.83 7.19-16 16-16s16 7.17 16 16v16h80c8.81 0 16 7.17 16 16v29.17l55.19 27.16c5.44 2.67 8.81 8.09 8.81 14.14 0 3.28-3.34 14.7-15.84 36.61z"/></svg>