<svg xmlns="http://www.w3.org/2000/svg" viewBox="0 0 448 512"><!-- Font Awesome Pro 5.15.4 by @fontawesome - https://fontawesome.com License - https://fontawesome.com/license (Commercial License) --><path d="M420.43 83.69l-179.2-80C235.72 1.23 229.86 0 224 0s-11.72 1.23-17.23 3.69l-179.2 80C10.88 91.14 0 108.62 0 128c0 198.49 106.86 335.71 206.77 380.31 5.51 2.46 11.37 3.69 17.23 3.69s11.72-1.23 17.23-3.69C321.13 472.64 448 349.28 448 128c0-19.38-10.88-36.86-27.57-44.31zM32 128c0-6.72 3.46-12.79 8.62-15.09L176 52.47V144H32.53c-.17-5.34-.53-10.56-.53-16zm144 324.7C120.23 410.83 68.46 337.57 45.13 240H176v212.7zm96-.56V240h131.28C378.36 345.18 321.12 414.46 272 452.14zM409.58 208H240v265.19c-4.09 2.22-8.07 4.23-11.81 5.9-1.57.7-4.69 1.64-8.37 0-3.92-1.75-7.87-3.88-11.81-5.96V208H38.69a478.05 478.05 0 0 1-4.15-32H208V38.19l11.81-5.27c3.68-1.64 6.79-.71 8.37 0L240 38.19V176h173.54c-1.02 10.95-2.29 21.67-3.96 32zm5.84-64H272V52.47l135.39 60.44c5.15 2.3 8.61 8.36 8.61 15.09 0 5.5-.42 10.64-.58 16z"/></svg>