<svg xmlns="http://www.w3.org/2000/svg" viewBox="0 0 512 512"><!-- Font Awesome Pro 5.15.4 by @fontawesome - https://fontawesome.com License - https://fontawesome.com/license (Commercial License) --><path d="M501.55 86.12l-75.67-75.67C418.91 3.48 409.76 0 400.6 0s-18.3 3.48-25.27 10.45l-29.2 29.19C329.21 56.57 320 79.24 320 102.68c0 24.51 9.79 41.81 15.96 50.74L208.67 280.7l-56.57-56.57c-6.25-6.25-14.44-9.37-22.63-9.37s-16.38 3.12-22.63 9.37l-67.88 67.88C-11.02 342-6.29 473.03 16.34 495.66c9.87 9.87 40.39 16.34 75.8 16.34 45.75 0 99.67-10.79 127.85-38.97l67.88-67.88c12.5-12.5 12.5-32.76 0-45.25l-56.57-56.57 127.28-127.28c8.92 6.16 26.26 15.96 50.76 15.96 23.41 0 46.09-9.22 63.01-26.13l29.19-29.2c13.94-13.95 13.94-36.62.01-50.56zM197.36 450.41C160.69 487.07 63 483.13 39.2 472.67c-10.64-22.12-13.59-122.04 22.4-158.03l67.85-67.88h.03l135.76 135.77-67.88 67.88zm281.56-336.37l-29.19 29.19c-52.79 52.79-134.1-27.84-80.96-80.96l29.2-29.2c1.45-1.45 3.84-1.45 5.29 0l75.67 75.68c1.44 1.45 1.44 3.84-.01 5.29z"/></svg>