<svg xmlns="http://www.w3.org/2000/svg" viewBox="0 0 512 512"><!-- Font Awesome Pro 5.15.4 by @fontawesome - https://fontawesome.com License - https://fontawesome.com/license (Commercial License) --><path d="M180.7 244.7l-80 80c-6.2 6.2-6.2 16.4 0 22.6 3.1 3.1 7.2 4.7 11.3 4.7 4.1 0 8.2-1.6 11.3-4.7l80-80c6.2-6.2 6.2-16.4 0-22.6-6.2-6.3-16.4-6.3-22.6 0zm-16 166.6c3.1 3.1 7.2 4.7 11.3 4.7s8.2-1.6 11.3-4.7l80-80c6.2-6.2 6.2-16.4 0-22.6-6.2-6.3-16.4-6.3-22.6 0l-80 80c-6.3 6.2-6.3 16.4 0 22.6zM502.6 65.9L446.1 9.4C439.8 3.1 431.6 0 423.4 0S407 3.1 400.8 9.4l-17 17c-24.2 24.2-27.4 61.3-10 89.1L267.6 221.8l-47.2-47.2c-9.7-9.7-22.5-14.6-35.3-14.6-10.7 0-21.5 3.4-30.5 10.4L19.4 274.9c-23.8 18.4-26.1 53.5-4.8 74.8l147.7 147.7c9.8 9.8 22.6 14.6 35.3 14.6 14.8 0 29.6-6.6 39.5-19.4l104.5-135.2c15.4-19.9 13.6-48.1-4.2-65.8l-47.2-47.2 106.3-106.3c11.7 7.3 24.9 11.1 38.2 11.1 18.4 0 36.9-7 50.9-21.1l17-17c12.5-12.4 12.5-32.7 0-45.2zM314.7 314.2c6.4 6.4 7 16.5 1.5 23.6L211.8 473c-3.4 4.4-8.6 7-14.2 7-2.8 0-8.1-.7-12.7-5.3L37.3 327.1c-5-5-5.4-10.8-5.2-13.8.2-3 1.3-8.7 6.9-13l135.2-104.5c4-3.1 8.2-3.7 10.9-3.7 4.8 0 9.3 1.9 12.7 5.3l116.9 116.8zM463 105.5c-7.6 7.6-17.6 11.7-28.3 11.7s-20.7-4.2-28.3-11.7c-7.6-7.6-11.7-17.6-11.7-28.3s4.2-20.7 11.7-28.3l16.9-17L480 88.6l-17 16.9z"/></svg>