<svg xmlns="http://www.w3.org/2000/svg" viewBox="0 0 512 512"><!-- Font Awesome Pro 5.15.4 by @fontawesome - https://fontawesome.com License - https://fontawesome.com/license (Commercial License) --><path d="M336,320a16,16,0,1,0-16-16A16,16,0,0,0,336,320Zm32-128a16,16,0,1,0,16,16A16,16,0,0,0,368,192Zm0,96a16,16,0,1,0-16-16A16,16,0,0,0,368,288Zm-32-64a16,16,0,1,0,16,16A16,16,0,0,0,336,224Zm64,32a16,16,0,1,0-16-16A16,16,0,0,0,400,256Zm32-32a16,16,0,1,0-16-16A16,16,0,0,0,432,224ZM304,256a16,16,0,1,0,16,16A16,16,0,0,0,304,256Zm0,64a16,16,0,1,0,16,16A16,16,0,0,0,304,320Zm0,64a16,16,0,1,0,16,16A16,16,0,0,0,304,384ZM432,256a16,16,0,1,0,16,16A16,16,0,0,0,432,256ZM381.66,104.64,370.34,93.32a8,8,0,0,0-11.31,0l-5.91,5.91A110.48,110.48,0,0,0,205.25,86.62L181.81,63.2A106.5,106.5,0,0,0,0,138.52V472a8,8,0,0,0,8,8H24a8,8,0,0,0,8-8V138.52A74.5,74.5,0,0,1,159.19,85.83l23.43,23.42a110.48,110.48,0,0,0,12.61,147.87L189.32,263a8,8,0,0,0,0,11.31l11.32,11.32a8,8,0,0,0,11.31,0L381.66,116A8,8,0,0,0,381.66,104.64ZM218,234.34A78.84,78.84,0,0,1,192,176a80.09,80.09,0,0,1,80-80,78.84,78.84,0,0,1,58.34,26ZM496,192a16,16,0,1,0,16,16A16,16,0,0,0,496,192Zm-32,32a16,16,0,1,0,16,16A16,16,0,0,0,464,224ZM336,352a16,16,0,1,0,16,16A16,16,0,0,0,336,352Zm32-32a16,16,0,1,0,16,16A16,16,0,0,0,368,320Zm32-32a16,16,0,1,0,16,16A16,16,0,0,0,400,288Z"/></svg>