<svg xmlns="http://www.w3.org/2000/svg" viewBox="0 0 320 512"><!-- Font Awesome Pro 5.15.4 by @fontawesome - https://fontawesome.com License - https://fontawesome.com/license (Commercial License) --><path d="M296 160h16c4.42 0 8-3.58 8-8V96c0-17.67-14.32-32-31.99-32H33.39C22.2 64 11.2 69.12 5.19 78.56c-7.69 12.08-6.76 26.87 2.8 38.5L138.09 256 7.3 395.73c-8.81 10.77-9.82 25.69-2.07 37.78C11.3 442.96 22.38 448 33.61 448h254.4c17.67 0 31.99-14.33 31.99-32v-56c0-4.42-3.58-8-8-8h-16c-4.42 0-8 3.58-8 8v56l-256.65.81 130.07-138.92c11.53-12.28 11.53-31.5.03-43.77L32.05 96h255.96v56c0 4.42 3.58 8 7.99 8z"/></svg>