<svg xmlns="http://www.w3.org/2000/svg" viewBox="0 0 640 512"><!-- Font Awesome Pro 5.15.4 by @fontawesome - https://fontawesome.com License - https://fontawesome.com/license (Commercial License) --><path d="M630.1 206.8c-32.7 8.4-77.1 30.8-108.7 49.6-14.7 8.8-29.9 17.9-41.5 23.4-31.3 15.2-58.3 28.2-84.1 28.2-12.9 0-23-4.3-29.9-12.7-11.3-13.8-11.3-35.3-7.9-63.3 3.3-26.9.6-47.8-7.6-57.3-4.4-5-10-6.9-18.7-6.3C307 170 257 210.8 169.6 300.9l-54.4 56 70-187.6c11.8-31.6 3.6-66.1-20.9-87.8C145 64.3 112 54.3 77.3 78L3.5 127.8c-3.5 2.3-4.5 7-2.5 10.6l9.2 16.2c2.3 4.1 7.6 5.3 11.5 2.7L97.5 106c6.6-4.5 14-6.8 21.4-6.8 9.1 0 17.6 3.4 24.8 9.8 13.2 11.7 17.6 30.2 11.3 47.1L55.2 423.7c-1.9 5.2-1 12.6 2.2 17.7 2.4 3.7 6.6 6.1 11.3 6.6 4.9.3 9.7-1.4 13-4.9C125 396.8 239.5 278.4 298 228.4l20.4-17.4c3.4-2.9 8.5-.3 8.2 4.1l-2.1 27.9c-2 27.3-2.4 55.9 16.8 78.6 12.4 14.5 30.7 21.9 54.6 21.9 32.7 0 64.1-15.1 97.3-31.1 10.2-4.9 24.9-14.1 39.2-23 30.9-19.3 72.3-40.5 101.8-47.7 3.5-.9 5.9-4 5.9-7.6v-17.3c-.1-7.4-5-11.2-10-10z"/></svg>