<svg xmlns="http://www.w3.org/2000/svg" viewBox="0 0 640 512"><!-- Font Awesome Pro 5.15.4 by @fontawesome - https://fontawesome.com License - https://fontawesome.com/license (Commercial License) --><path d="M80 384H48c-4.4 0-8 3.6-8 8v112c0 4.4 3.6 8 8 8h32c4.4 0 8-3.6 8-8V392c0-4.4-3.6-8-8-8zm392-280c0-4.4-3.6-8-8-8h-32c-4.4 0-8 3.6-8 8v172.8l48 37.8zM600 8c0-4.4-3.6-8-8-8h-32c-4.4 0-8 3.6-8 8v369.6l48 37.8zM424 504c0 4.4 3.6 8 8 8h32c4.4 0 8-3.6 8-8v-67.2L424 399zM208 288h-32c-4.4 0-8 3.6-8 8v208c0 4.4 3.6 8 8 8h32c4.4 0 8-3.6 8-8V296c0-4.4-3.6-8-8-8zm429 197.2L23 1.8C19.6-1 14.5-.5 11.8 3l-10 12.5C-1 19-.4 24 3 26.7l614 483.5c3.4 2.8 8.5 2.2 11.2-1.2l10-12.5c2.8-3.5 2.3-8.5-1.2-11.3zM296 504c0 4.4 3.6 8 8 8h32c4.4 0 8-3.6 8-8V336l-48-37.8z"/></svg>