<svg xmlns="http://www.w3.org/2000/svg" viewBox="0 0 640 512"><!-- Font Awesome Pro 5.15.4 by @fontawesome - https://fontawesome.com License - https://fontawesome.com/license (Commercial License) --><path d="M384 160h32v110.5l32 25.2V160c0-17.7-14.3-32-32-32h-32c-17.7 0-32 14.3-32 32v60.1l32 25.2zM544 32h32v364.5l32 25.2V32c0-17.7-14.3-32-32-32h-32c-17.7 0-32 14.3-32 32v314.1l32 25.2zm93 453.2L23 1.8C19.6-1 14.5-.5 11.8 3l-10 12.5C-1 19-.4 24 3 26.7l614 483.5c3.4 2.8 8.5 2.2 11.2-1.2l10-12.5c2.8-3.5 2.3-8.5-1.2-11.3zM224 256c-17.7 0-32 14.3-32 32v192c0 17.7 14.3 32 32 32h32c17.7 0 32-14.3 32-32V291.9L242.4 256zm32 224h-32V288h32zm160 0h-32V367.5l-32-25.2V480c0 17.7 14.3 32 32 32h32c17.7 0 32-14.3 32-32v-62.1l-32-25.2zM96 384H64c-17.7 0-32 14.3-32 32v64c0 17.7 14.3 32 32 32h32c17.7 0 32-14.3 32-32v-64c0-17.7-14.3-32-32-32zm0 96H64v-64h32z"/></svg>