<svg xmlns="http://www.w3.org/2000/svg" viewBox="0 0 448 512"><!-- Font Awesome Pro 5.15.4 by @fontawesome - https://fontawesome.com License - https://fontawesome.com/license (Commercial License) --><path d="M447.971 255.391l-4.467-138.16c-1.57-48.503-65.102-66.816-91.36-24.961l-55.919-72.891C286.778 7.064 272.495.001 257.039 0c-15.93-.001-30.091 7.625-39.007 19.206-35.993-16.888-76.766 13.785-69.427 54.289-30.125 13.048-39.039 51.157-19.364 76.804l4.816 6.277c-25.733 14.752-33.109 49.561-14.534 73.773l8.418 10.973h-52.92c-32.727 0-55.982 31.248-47.933 62.349C11.542 311.644.374 327.898.01 347.221c-.371 19.654 10.668 36.491 26.55 44.946-8.624 32.448 16.301 62.869 48.328 62.869h7.246C77.853 485.01 100.941 512 131.143 512h95.892c11.305 0 22.617-1.333 33.62-3.96l71.85-17.159c24.568-5.867 42.026-28.037 42.026-53.589V342.06l52.546-41.529c13.648-10.787 21.459-27.662 20.894-45.14zm-334.334 207.07c-.091-4.771 1.736-9.31 5.145-12.782 3.457-3.524 8.026-5.465 12.865-5.465h55.619a8 8 0 0 0 8-8v-5.178a8 8 0 0 0-8-8H74.887c-23.423 0-24.037-35.786-.504-35.786h112.883a8 8 0 0 0 8-8v-5.179a8 8 0 0 0-8-8H50.014c-23.426 0-24.034-35.785-.504-35.785h137.756a8 8 0 0 0 8-8v-5.179a8 8 0 0 0-8-8H75.525c-23.429 0-24.033-35.786-.504-35.786h150.505c7.685 0 10.959-9.854 4.751-14.437l-27.755-20.486c-19.135-14.124 2.039-42.644 20.507-29.008l110.145 81.305c5.859 4.325 9.357 11.312 9.357 18.691V437.29c0 10.771-7.18 20.01-17.459 22.465l-71.85 17.159a112.86 112.86 0 0 1-26.187 3.085h-95.893c-9.47.001-17.323-7.866-17.505-17.538zm59.145-273.264l7.578 9.878c-11.571 15.417-10.662 36.638 1.045 50.996h-6.421l-30.072-39.2c-14.556-18.97 13.442-40.482 27.87-21.674zm174.094 82.761l-110.144-81.304c-11.634-8.586-26.841-10.128-39.76-4.64l-42.344-55.195c-14.408-18.782 12.669-41.491 27.252-22.479l69.353 90.401a7.995 7.995 0 0 0 5.36 3.069 7.983 7.983 0 0 0 5.948-1.662l4.025-3.182a8.001 8.001 0 0 0 1.387-11.146L183.63 75.904c-14.411-18.788 12.672-41.488 27.251-22.481l84.634 110.321a7.995 7.995 0 0 0 5.36 3.069 7.983 7.983 0 0 0 5.948-1.662l4.025-3.182a8.001 8.001 0 0 0 1.387-11.146l-68.651-89.487c-14.396-18.768 12.642-41.525 27.251-22.481l92.467 120.532a8.001 8.001 0 0 0 14.344-5.128l-1.126-34.813c-.784-24.211 34.249-24.39 35-1.182l4.468 138.16c.239 7.377-3.033 14.479-8.753 19l-41.574 32.858c-.341-14.339-7.308-27.851-18.785-36.324z"/></svg>