<svg xmlns="http://www.w3.org/2000/svg" viewBox="0 0 384 512"><!-- Font Awesome Pro 5.15.4 by @fontawesome - https://fontawesome.com License - https://fontawesome.com/license (Commercial License) --><path d="M64 240v160c0 26.5 21.5 48 48 48h160c26.5 0 48-21.5 48-48V240c0-26.5-21.5-48-48-48H112c-26.5 0-48 21.5-48 48zm152 24h-48v-40h48v40zm72 0h-40v-40h24c8.8 0 16 7.2 16 16v24zm-40 112h40v24c0 8.8-7.2 16-16 16h-24v-40zm-80 0h48v40h-48v-40zm-72 0h40v40h-24c-8.8 0-16-7.2-16-16v-24zm0-80h192v48H96v-48zm0-56c0-8.8 7.2-16 16-16h24v40H96v-24zM0 64v384c0 35.3 28.7 64 64 64h256c35.3 0 64-28.7 64-64V128L256 0H64C28.7 0 0 28.7 0 64zm32 0c0-17.6 14.4-32 32-32h178.7L352 141.3V448c0 17.6-14.4 32-32 32H64c-17.6 0-32-14.4-32-32V64z"/></svg>