<svg xmlns="http://www.w3.org/2000/svg" viewBox="0 0 512 512"><!-- Font Awesome Pro 5.15.4 by @fontawesome - https://fontawesome.com License - https://fontawesome.com/license (Commercial License) --><path d="M504,288H416V256h56a8,8,0,0,0,8-8V232a8,8,0,0,0-8-8H400a16,16,0,0,0-16,16v48H304V112a16,16,0,0,1,32,0v16a32,32,0,0,0,32,32h32a32,32,0,0,0,32-32V114.26c0-20.8-4.79-41.61-15.56-59.4A112.58,112.58,0,0,0,297.81,2.12C245.77,12.23,208,60,208,115.77V288H128V240a16,16,0,0,0-16-16H40a8,8,0,0,0-8,8v16a8,8,0,0,0,8,8H96v32H8a8,8,0,0,0-8,8v16a8,8,0,0,0,8,8H32v96a96,96,0,0,0,96,96H384a96,96,0,0,0,96-96V320h24a8,8,0,0,0,8-8V296A8,8,0,0,0,504,288ZM240,115.77c0-40.45,26.88-75,63.91-82.24A80.17,80.17,0,0,1,400,112v16H368V112a48,48,0,0,0-96,0V288H240ZM448,416a64.07,64.07,0,0,1-64,64H128a64.07,64.07,0,0,1-64-64V320H448Z"/></svg>