<svg xmlns="http://www.w3.org/2000/svg" viewBox="0 0 448 512"><!-- Font Awesome Pro 5.15.4 by @fontawesome - https://fontawesome.com License - https://fontawesome.com/license (Commercial License) --><path d="M384 0c-35.3 0-64 28.7-64 64 0 12.7 3.8 24.5 10.3 34.5-5.4-1.5-11.1-2.5-16.9-2.5H144c-26.5 0-48 21.5-48 48s21.5 48 48 48h48.5a80.063 80.063 0 0 0-17.4 46.7c-.2 4.5.2 9.1.8 13.5l-91 91c-9.1 9.1-14.1 21.1-14.1 33.9s5 24.9 14.1 33.9c18.7 18.8 49.1 18.8 67.9 0l79.2-79.2 40 40V416c0 26.5 21.5 48 48 48s48-21.5 48-48v-57.4c0-16.9-6.8-33.4-18.8-45.3L299.9 264l58.7-58.7c18.4-18.4 23.8-45.7 13.9-69.7-1.6-3.8-4-7-6.2-10.3 5.7 1.6 11.5 2.8 17.7 2.8 35.3 0 64-28.7 64-64S419.3 0 384 0zM130.2 388.5c-6.2 6.2-16.4 6.3-22.6 0-6.2-6.2-6.2-16.4 0-22.6l80.8-80.8c6.7 10.3 5.3 8.4 21.1 24.2l-79.3 79.2zM336 182.6L254.6 264l72 72c6 6 9.4 14.2 9.4 22.6V416c0 8.8-7.2 16-16 16s-16-7.2-16-16v-57.4l-82.9-82.9-.3-.3c-.1-.1-.1-.1-.2-.1-.2-.2-.2-.4-.4-.6-21.4-22.6-14.6-53.9 3.5-69.4l53.8-45.4H144c-8.8 0-16-7.2-16-16s7.2-16 16-16h169.4c28.5.1 42.7 34.6 22.6 54.7zM384 96c-17.7 0-32-14.4-32-32s14.3-32 32-32 32 14.4 32 32-14.3 32-32 32zM117.8 456.6c-6.2 6.2-16.4 6.2-22.6 0l-67.9-67.9c-6.2-6.2-16.4-6.2-22.6 0s-6.2 16.4 0 22.6l67.9 67.9c9.3 9.4 21.7 14 33.9 14s24.6-4.7 33.9-14c6.2-6.2 6.2-16.4 0-22.6s-16.3-6.3-22.6 0zM400 448c-8.8 0-16 7.2-16 16s-7.2 16-16 16h-96c-8.8 0-16 7.2-16 16s7.2 16 16 16h96c26.5 0 48-21.5 48-48 0-8.8-7.2-16-16-16z"/></svg>