<svg xmlns="http://www.w3.org/2000/svg" viewBox="0 0 576 512"><!-- Font Awesome Pro 5.15.4 by @fontawesome - https://fontawesome.com License - https://fontawesome.com/license (Commercial License) --><path d="M560 432c-8.8 0-16 7.2-16 16 0 17.6-14.3 32-32 32h-70.7L467 300c17-7.4 29-24.3 29-44 0-26.5-21.5-48-48-48h-34.1l-21.7-44.3c-7.8-15.9-19.2-29.6-32.9-40.2C383.2 114.2 400 91 400 64c0-35.3-28.7-64-64-64s-64 28.7-64 64c0 10 2.3 19.5 6.4 27.9l-29.6-8.8c-33-7.9-67.4-.7-94.4 20l-39.6 30.4c-10.2 7.8-16.7 19.1-18.4 31.8-1.7 12.7 1.7 25.3 9.5 35.5 3.6 4.8 8.1 8.5 12.9 11.5L65.3 480H16c-8.8 0-16 7.2-16 16s7.2 16 16 16h496c35.3 0 64-28.7 64-64 0-8.8-7.2-16-16-16zm-322.4-77.6l-55.1 116.4c-9 18.9-38.1 5.7-28.9-13.7l57.2-120.7c8.3 7.8 13.4 10.1 26.8 18zm27.7 16.4l31.9 18.8-23 60c-3.1 10.1-2.7 20.6.8 30.4h-61.4l51.7-109.2zm103.4-50.5l-49.4-29.2 12.8-32.1 4.4 9.1c10.7 21.8 33.2 35.9 57.5 35.9h40.1L409 480h-43.9c.1-.3.3-.6.4-.9l32.1-86.3c7.8-27.7-4-57.5-28.9-72.5zM336 32c17.7 0 32 14.4 32 32s-14.3 32-32 32-32-14.4-32-32 14.3-32 32-32zM134.3 158.9l39.6-30.4c19.3-14.7 43.9-19.9 66.6-14.5l71.7 21.3c21.9 5.6 41.1 21.5 51.3 42.5L394 240h54c21.2 0 21.2 32 0 32h-54c-12.1 0-23.4-7-28.8-17.9l-36.1-73.8-49.8 124.5 73 43c12.5 7.5 18.4 22.5 14.9 35.1l-31.9 85.9c-6.4 20.7-36.4 9.9-30.8-8.6l32.3-84.4-96.7-57c-20.7-12.2-29.2-38.1-19.7-60.2l44.5-103.9c-34.7-10.3-34.7-10.8-42.2-10.8-10.2 0-20.8 3.6-29.3 10.1l-39.7 30.4c-17 12.9-36-12.8-19.4-25.5zm15.8 60.1c8.1-1 16.1-4 23.1-9.3l39.7-30.4c2.7-2.1 5.8-3.1 8.1-3.5l-30.1 70.1c-8.4 19.6-8.1 40.9-1 59.7l-65.3 137.9c-5.5 11.6-6.1 24.5-1.8 36.6H97.9L150.1 219z"/></svg>