<svg xmlns="http://www.w3.org/2000/svg" viewBox="0 0 512 512"><!-- Font Awesome Pro 5.15.4 by @fontawesome - https://fontawesome.com License - https://fontawesome.com/license (Commercial License) --><path d="M352 184c-39.8 0-72 32.2-72 72s32.2 72 72 72 72-32.2 72-72-32.2-72-72-72zm0 112c-22.1 0-40-17.9-40-40s17.9-40 40-40 40 17.9 40 40-17.9 40-40 40zM160 184c-39.8 0-72 32.2-72 72s32.2 72 72 72 72-32.2 72-72-32.2-72-72-72zm0 112c-22.1 0-40-17.9-40-40s17.9-40 40-40 40 17.9 40 40-17.9 40-40 40zM256 0C114.6 0 0 100.3 0 224c0 70.1 36.9 132.6 94.5 173.7 9.7 6.9 15.2 18.1 13.5 29.9l-7.1 21.3C90.6 480 113.8 512 146.5 512h219c32.7 0 55.9-32 45.6-63.1l-7.1-21.3c-1.7-11.7 3.8-23 13.5-29.9C475.1 356.6 512 294.1 512 224 512 100.3 397.4 0 256 0zm142.9 371.6c-19.7 14-29.9 37.2-26.6 60.4l.4 2.8.9 2.8 7.1 21.3c2.2 6.8-.4 11.9-2.2 14.4-1.8 2.5-5.8 6.6-13 6.6H320v-56c0-4.4-3.6-8-8-8h-16c-4.4 0-8 3.6-8 8v56h-64v-56c0-4.4-3.6-8-8-8h-16c-4.4 0-8 3.6-8 8v56h-45.5c-7.1 0-11.2-4.2-13-6.6-1.8-2.5-4.5-7.7-2.2-14.4l7.1-21.3.9-2.8.4-2.8c3.3-23.2-6.9-46.4-26.6-60.4C61.5 334.9 32 281.1 32 224 32 118.1 132.5 32 256 32s224 86.1 224 192c0 57.1-29.5 110.9-81.1 147.6z"/></svg>