<svg xmlns="http://www.w3.org/2000/svg" viewBox="0 0 512 512"><!-- Font Awesome Pro 5.15.4 by @fontawesome - https://fontawesome.com License - https://fontawesome.com/license (Commercial License) --><path d="M507.3 433.1c-6.2-6.3-16.4-6.3-22.6 0-15.1 15.1-38.2 19.2-57 10.6l-60.6-31.3c10.3-8.8 16.9-21.7 16.9-36.3v-88c0-26.5-21.5-48-48-48h-12.1l18.7-18.7c17.8-17.8 23.1-44 14.5-67.4 8.2 3.8 17.3 6.1 26.9 6.1 35.3 0 64-28.7 64-64s-28.7-64-64-64-64 28.7-64 64c0 8 1.7 15.6 4.3 22.7-8.4-3.9-17.3-6.7-27-6.7H160c-26.5 0-48 21.5-48 48s21.5 48 48 48h28.1l-18.7 18.7c-18.4 18.4-23.8 45.8-13.9 69.8 1.4 3.4 3.7 6.2 5.6 9.3L23.4 234.6c-7.7-4-17.5-1-21.6 6.9-4.1 7.8-1 17.5 6.9 21.6l405 209.3c11.1 5.1 23 7.6 34.7 7.6 21.7 0 43.1-8.4 58.9-24.3 6.3-6.3 6.3-16.4 0-22.6zM384 64c17.7 0 32 14.4 32 32s-14.3 32-32 32-32-14.4-32-32 14.3-32 32-32zM192 249.4l73.4-73.4H160c-8.8 0-16-7.2-16-16s7.2-16 16-16h137.4c13 0 24.6 7.8 29.6 19.8s2.2 25.7-6.9 34.9L246.6 272H336c8.8 0 16 7.2 16 16v88c0 8.8-7.2 16-16 16s-16-7.2-16-16v-72H214.6c-28.5 0-42.8-34.4-22.6-54.6zm96 86.6v35.4L219.5 336H288z"/></svg>