<svg xmlns="http://www.w3.org/2000/svg" viewBox="0 0 448 512"><!-- Font Awesome Pro 5.15.4 by @fontawesome - https://fontawesome.com License - https://fontawesome.com/license (Commercial License) --><path d="M160 168v-48c0-13.3-10.7-24-24-24H96V8c0-4.4-3.6-8-8-8H72c-4.4 0-8 3.6-8 8v88H24c-13.3 0-24 10.7-24 24v48c0 13.3 10.7 24 24 24h40v312c0 4.4 3.6 8 8 8h16c4.4 0 8-3.6 8-8V192h40c13.3 0 24-10.7 24-24zm-32-8H32v-32h96v32zm152 160h-40V8c0-4.4-3.6-8-8-8h-16c-4.4 0-8 3.6-8 8v312h-40c-13.3 0-24 10.7-24 24v48c0 13.3 10.7 24 24 24h40v88c0 4.4 3.6 8 8 8h16c4.4 0 8-3.6 8-8v-88h40c13.3 0 24-10.7 24-24v-48c0-13.3-10.7-24-24-24zm-8 64h-96v-32h96v32zm152-224h-40V8c0-4.4-3.6-8-8-8h-16c-4.4 0-8 3.6-8 8v152h-40c-13.3 0-24 10.7-24 24v48c0 13.3 10.7 24 24 24h40v248c0 4.4 3.6 8 8 8h16c4.4 0 8-3.6 8-8V256h40c13.3 0 24-10.7 24-24v-48c0-13.3-10.7-24-24-24zm-8 64h-96v-32h96v32z"/></svg>