<svg xmlns="http://www.w3.org/2000/svg" viewBox="0 0 448 512"><!-- Font Awesome Pro 5.15.4 by @fontawesome - https://fontawesome.com License - https://fontawesome.com/license (Commercial License) --><path d="M400 32H48C21.5 32 0 53.5 0 80v352c0 26.5 21.5 48 48 48h352c26.5 0 48-21.5 48-48V80c0-26.5-21.5-48-48-48zm16 400c0 8.8-7.2 16-16 16H48c-8.8 0-16-7.2-16-16V80c0-8.8 7.2-16 16-16h352c8.8 0 16 7.2 16 16v352zm-92-272H224v-40c0-13.2-10.8-24-24-24h-48c-13.2 0-24 10.8-24 24v40H92c-6.6 0-12 5.4-12 12v8c0 6.6 5.4 12 12 12h36v40c0 13.2 10.8 24 24 24h48c13.2 0 24-10.8 24-24v-40h100c6.6 0 12-5.4 12-12v-8c0-6.6-5.4-12-12-12zm-132 64h-32v-96h32v96zm148 96h-20v-40c0-13.2-10.8-24-24-24h-48c-13.2 0-24 10.8-24 24v40H108c-6.6 0-12 5.4-12 12v8c0 6.6 5.4 12 12 12h116v40c0 13.2 10.8 24 24 24h48c13.2 0 24-10.8 24-24v-40h20c6.6 0 12-5.4 12-12v-8c0-6.6-5.4-12-12-12zm-52 64h-32v-96h32v96z"/></svg>