<svg xmlns="http://www.w3.org/2000/svg" viewBox="0 0 496 512"><!-- Font Awesome Pro 5.15.4 by @fontawesome - https://fontawesome.com License - https://fontawesome.com/license (Commercial License) --><path d="M248 8C111 8 0 119 0 256s111 248 248 248 248-111 248-248S385 8 248 8zm152.7 400.7c-19.8 19.8-43 35.4-68.7 46.3-26.6 11.3-54.9 17-84.1 17s-57.5-5.7-84.1-17c-25.7-10.9-48.8-26.5-68.7-46.3-19.8-19.8-35.4-43-46.3-68.7-11.3-26.6-17-54.9-17-84.1s5.7-57.5 17-84.1c10.9-25.7 26.5-48.8 46.3-68.7 19.8-19.8 43-35.4 68.7-46.3 26.6-11.3 54.9-17 84.1-17s57.5 5.7 84.1 17c25.7 10.9 48.8 26.5 68.7 46.3 19.8 19.8 35.4 43 46.3 68.7 11.3 26.6 17 54.9 17 84.1s-5.7 57.5-17 84.1c-10.8 25.8-26.4 48.9-46.3 68.7zM168 240c17.7 0 32-14.3 32-32s-14.3-32-32-32-32 14.3-32 32 14.3 32 32 32zm160-60c-25.7 0-55.9 16.9-59.9 42.1-1.7 11.2 11.5 18.2 19.8 10.8l9.5-8.5c14.8-13.2 46.2-13.2 61 0l9.5 8.5c8.5 7.4 21.6.3 19.8-10.8-3.8-25.2-34-42.1-59.7-42.1zm10.2 145.8C315.8 352.6 282.9 368 248 368s-67.8-15.4-90.2-42.2c-13.5-16.2-38.2 4.2-24.6 20.5C161.7 380.4 203.5 400 248 400s86.3-19.6 114.8-53.8c13.5-16.2-11.1-36.7-24.6-20.4z"/></svg>