<svg xmlns="http://www.w3.org/2000/svg" viewBox="0 0 640 512"><!-- Font Awesome Pro 5.15.4 by @fontawesome - https://fontawesome.com License - https://fontawesome.com/license (Commercial License) --><path d="M179.2 288h105.2c24.3 20.7 54.6 32 86.8 32 32.2 0 62.5-11.3 86.8-32h28.4c67.1 0 121.6-53.4 121.6-119.1S553.4 49.8 486.4 49.8c-9.2 0-18.4 1.1-27.4 3.2-27.6-33.2-69.1-53-113.4-53-30.2 0-58.9 8.9-83.2 25.4C238.1 8.9 209.4 0 179.2 0 98 0 32 64.6 32 144s66 144 147.2 144zm0-256c32.8 0 62.2 13.5 83.2 34.9 21-21.4 50.4-34.9 83.2-34.9 43.9 0 81.6 24.1 101 59.2 12-5.8 25.4-9.4 39.8-9.4 49.5 0 89.6 39 89.6 87.1S535.9 256 486.4 256h-41.1c-18.7 19.6-44.9 32-74.1 32s-55.4-12.4-74.1-32H179.2C115.6 256 64 205.9 64 144S115.6 32 179.2 32zM632 384H72c-4.4 0-8 3.6-8 8v16c0 4.4 3.6 8 8 8h560c4.4 0 8-3.6 8-8v-16c0-4.4-3.6-8-8-8zm-64 96H232c-4.4 0-8 3.6-8 8v16c0 4.4 3.6 8 8 8h336c4.4 0 8-3.6 8-8v-16c0-4.4-3.6-8-8-8zm-416 0H8c-4.4 0-8 3.6-8 8v16c0 4.4 3.6 8 8 8h144c4.4 0 8-3.6 8-8v-16c0-4.4-3.6-8-8-8z"/></svg>