<svg xmlns="http://www.w3.org/2000/svg" viewBox="0 0 512 512"><!-- Font Awesome Pro 5.15.4 by @fontawesome - https://fontawesome.com License - https://fontawesome.com/license (Commercial License) --><path d="M256 0C114.6 0 0 114.6 0 256s114.6 256 256 256 256-114.6 256-256S397.4 0 256 0zm0 480C132.5 480 32 379.5 32 256c0-56 20.8-107.2 54.9-146.5l315.6 315.6C363.2 459.2 312 480 256 480zm22.6-224H384v32h-73.4l-32-32zm146.5 146.5L342.6 320H400c8.8 0 16-7.2 16-16v-64c0-8.8-7.2-16-16-16H246.6L109.5 86.9C148.8 52.8 200 32 256 32c123.5 0 224 100.5 224 224 0 56-20.8 107.2-54.9 146.5zM112 320h140.1l-32-32H128v-32h60.1l-32-32H112c-8.8 0-16 7.2-16 16v64c0 8.8 7.2 16 16 16zm240-192c-15.6 0-28.6-11.2-31.4-25.9-.7-3.6-4-6.1-7.7-6.1h-16.2c-5 0-8.7 4.5-8 9.4 4.6 30.9 31.2 54.6 63.3 54.6 15.6 0 28.6 11.2 31.4 25.9.7 3.6 4 6.1 7.7 6.1h16.2c5 0 8.7-4.5 8-9.4-4.5-30.9-31.2-54.6-63.3-54.6z"/></svg>