<svg xmlns="http://www.w3.org/2000/svg" viewBox="0 0 640 512"><!-- Font Awesome Pro 5.15.4 by @fontawesome - https://fontawesome.com License - https://fontawesome.com/license (Commercial License) --><path d="M632 352h-16c-4.4 0-8 3.6-8 8v144c0 4.4 3.6 8 8 8h16c4.4 0 8-3.6 8-8V360c0-4.4-3.6-8-8-8zm-64 0h-16c-4.4 0-8 3.6-8 8v144c0 4.4 3.6 8 8 8h16c4.4 0 8-3.6 8-8V360c0-4.4-3.6-8-8-8zm-80 0H48c-26.5 0-48 21.5-48 48v64c0 26.5 21.5 48 48 48h440c13.2 0 24-10.8 24-24V376c0-13.2-10.8-24-24-24zM192 480H48c-8.8 0-16-7.2-16-16v-64c0-8.8 7.2-16 16-16h144v96zm288 0H224v-96h256v96zm76.4-386.5c-7.5-5-12.4-13.2-12.4-22.2V8c0-4.4-3.6-8-8-8h-16c-4.4 0-8 3.6-8 8v62.3c0 20.2 10.3 38.8 27 50 43.2 29 69 77.3 69 129.4V280c0 4.4 3.6 8 8 8h16c4.4 0 8-3.6 8-8v-30.3c0-62.9-31.2-121.3-83.6-156.2zm-36.7 52.4C494.1 129.3 480 99.5 480 69V8c0-4.4-3.6-8-8-8h-16c-4.4 0-8 3.6-8 8v67c0 40.3 22.2 76 55.6 98.6 25.3 17.1 40.4 45.5 40.4 76.1V280c0 4.4 3.6 8 8 8h16c4.4 0 8-3.6 8-8v-30.3c0-42-21.1-80.9-56.3-103.8z"/></svg>