<svg xmlns="http://www.w3.org/2000/svg" viewBox="0 0 512 512"><!-- Font Awesome Pro 5.15.4 by @fontawesome - https://fontawesome.com License - https://fontawesome.com/license (Commercial License) --><path d="M492.8 177.6L425.4 127c30.8-4.6 54.6-31 54.6-63 0-35.3-28.7-64-64-64s-64 28.7-64 64c0 6.6 1.3 12.9 3.2 19-1.8-.7-3.5-1.6-5.3-2.2l-47.6-15.4L283 26.5C274.8 10.2 258.3 0 240 0c-7.3 0-14.7 1.7-21.3 5-23.8 11.9-33.4 40.8-21.6 64.4l25.4 50.8c2.6 5.2 5.8 9.9 9.6 14.1l-11.8 5.9C193 153.8 176 181.3 176 211.8v41.6l-63.2 21.1c-25.1 8.3-38.7 35.5-30.4 60.7 4.3 12.9 13.9 22.5 25.7 28l-51.3-18.7c-11.7-4.3-21-12.8-26.3-24.1-3.8-8-13.3-11.4-21.3-7.7S-2.3 326 1.5 334c8.9 19 24.6 33.4 44.3 40.6l364.8 132.8c8.8 3.2 17.9 4.8 26.9 4.8 11.3 0 22.6-2.5 33.2-7.4 8-3.7 11.5-13.2 7.8-21.2s-13.3-11.4-21.3-7.7c-11.3 5.2-23.9 5.8-35.7 1.5l-84.6-30.8c18.4-3.7 33.8-17.4 37.9-36.3l21.9-102c5.2-24.4-4.4-49.8-24.5-64.9L341.1 221l30.7-14.2 63.4 47.6c8.4 6.3 18.3 9.6 28.8 9.6 15 0 29.4-7.2 38.4-19.2 15.9-21.2 11.6-51.4-9.6-67.2zM416 32c17.7 0 32 14.4 32 32s-14.3 32-32 32-32-14.4-32-32 14.4-32 32-32zM291.3 429.7l-174.7-63.6c2.6.6 12.5 4 26.6-.7l85.1-28.3c22.2-7.4 38.2-26 42.6-48.3l27.7 19.7-17.4 81.4c-5.2 23.7 7.5 36.6 10.1 39.8zm185.5-204.1c-5.3 7.1-15.3 8.5-22.4 3.2l-78.7-59-98.1 45.2 75.6 53.8c10.3 7.7 15 20.4 12.4 32.5l-21.8 102c-2 9.3-11.1 14-19 12.3-8.7-1.8-14.2-10.3-12.3-19l21.8-102-94.2-67v48.8c0 13.8-8.8 26-21.9 30.4-92 30.7-86.5 29.2-90.1 29.2-6.7 0-12.9-4.2-15.2-10.9-2.8-8.4 1.8-17.5 10.1-20.2l85.1-28.4v-64.7c0-18.3 10.2-34.7 26.5-42.9l71-35.5-37.1-12.4c-7.6-2.5-13.8-7.9-17.3-15.1l-25.4-50.8c-3.9-7.9-.8-17.5 7.2-21.5 9.4-4.7 18.3.8 21.5 7.2l25.4 50.8L340 111c13.1 4.3 25.3 10.7 36.3 19l97.5 73.1c6.9 5.4 8.3 15.4 3 22.5z"/></svg>