<svg xmlns="http://www.w3.org/2000/svg" viewBox="0 0 448 512"><!-- Font Awesome Pro 5.15.4 by @fontawesome - https://fontawesome.com License - https://fontawesome.com/license (Commercial License) --><path d="M388.1 333.5l52.7-14.3c4.2-1.1 6.7-5.5 5.6-9.8l-4.1-15.5c-1.1-4.3-5.5-6.8-9.7-5.7l-83.2 22.6-93.8-54.8 93.8-54.8 83.2 22.6c4.2 1.1 8.6-1.4 9.7-5.7l4.1-15.5c1.1-4.3-1.4-8.7-5.6-9.8l-52.7-14.3 55.9-32.7c3.8-2.2 5.1-7.1 2.9-10.9L439 121c-2.2-3.8-7-5.1-10.8-2.9l-55.9 32.7 14.1-53.3c1.1-4.3-1.4-8.7-5.6-9.8l-15.3-4.1c-4.2-1.1-8.6 1.4-9.7 5.7l-22.3 84.2-93.8 54.8V118.6l61-61.6c3.1-3.1 3.1-8.2 0-11.3l-11.2-11.3c-3.1-3.1-8.1-3.1-11.2 0l-38.6 39V8c0-4.4-3.5-8-7.9-8H216c-4.4 0-7.9 3.6-7.9 8v65.4l-38.6-39c-3.1-3.1-8.1-3.1-11.2 0l-11.2 11.3c-3.1 3.1-3.1 8.2 0 11.3l60.9 61.7v109.7l-93.8-54.8-22.1-84.4c-1.1-4.3-5.5-6.8-9.7-5.7l-15.3 4.1c-4.2 1.1-6.7 5.5-5.6 9.8l14.1 53.3L19.7 118c-3.8-2.2-8.6-.9-10.8 2.9L1 134.8c-2.2 3.8-.9 8.7 2.9 10.9l55.9 32.7-52.6 14.4c-4.2 1.1-6.7 5.5-5.6 9.8l4.1 15.5c1.1 4.3 5.5 6.8 9.7 5.7l83.2-22.6 93.8 54.8-93.8 54.8-83.2-22.6c-4.2-1.1-8.6 1.4-9.7 5.7l-4.1 15.5c-1.1 4.3 1.4 8.7 5.6 9.8l52.7 14.3L4 366.1c-3.8 2.2-5.1 7.1-2.9 10.9L9 390.9c2.2 3.8 7 5.1 10.8 2.9l55.9-32.7-14.1 53.3c-1.1 4.3 1.4 8.7 5.6 9.8l15.3 4.1c4.2 1.1 8.6-1.4 9.7-5.7l22.3-84.2 93.8-54.8v109.7l-61 61.7c-3.1 3.1-3.1 8.2 0 11.3l11.2 11.3c3.1 3.1 8.1 3.1 11.2 0l38.6-39V504c0 4.4 3.5 8 7.9 8H232c4.4 0 7.9-3.6 7.9-8v-65.4l38.6 39c3.1 3.1 8.1 3.1 11.2 0l11.2-11.3c3.1-3.1 3.1-8.2 0-11.3L240 393.3V283.7l93.8 54.8 22.3 84.2c1.1 4.3 5.5 6.8 9.7 5.7l15.3-4.1c4.2-1.1 6.7-5.5 5.6-9.8l-14.1-53.3 55.9 32.7c3.8 2.2 8.6.9 10.8-2.9l7.9-13.9c2.2-3.8.9-8.7-2.9-10.9l-56.2-32.7z"/></svg>