<svg xmlns="http://www.w3.org/2000/svg" viewBox="0 0 640 512"><!-- Font Awesome Pro 5.15.4 by @fontawesome - https://fontawesome.com License - https://fontawesome.com/license (Commercial License) --><path d="M351 115.8l-7.6-13.2c-2.1-3.6-6.7-4.9-10.4-2.8l-40.6 23.5 8-29.9c1.1-4.1-1.3-8.2-5.4-9.3l-14.7-3.9c-4.1-1.1-8.2 1.3-9.3 5.4l-15.9 59.3-63.1 36.3v-78.6L237.7 57c3.1-3.1 3.1-8.2 0-11.3l-11.3-11.3c-3.1-3.1-8.2-3.1-11.3 0l-23 23V8c0-4.4-3.6-8-8-8h-16c-4.4 0-8 3.6-8 8v49.4l-23-23c-3.1-3.1-8.2-3.1-11.3 0l-11.3 11.3c-3.1 3.1-3.1 8.2 0 11.3l45.7 45.7v78.6l-63.1-36.4L81 85.5c-1.1-4.1-5.3-6.5-9.3-5.4l-14.7 4c-4.1 1.1-6.5 5.3-5.4 9.3l8 29.9L19 99.8c-3.6-2.1-8.3-.9-10.4 2.8L1 115.8c-2.1 3.6-.9 8.3 2.8 10.4l40.6 23.5-29.9 8c-4.1 1.1-6.5 5.3-5.4 9.3l3.9 14.7c1.1 4.1 5.3 6.5 9.3 5.4l59.3-15.9 63.9 36.9L81.6 245l-59.2-16c-4.1-1.1-8.2 1.3-9.3 5.4l-3.9 14.7c-1.1 4.1 1.3 8.2 5.4 9.3l29.9 8-40.7 23.5C.2 292-1.1 296.6 1 300.3l7.6 13.2c2.1 3.6 6.7 4.9 10.4 2.8l40.6-23.5-8 29.9c-1.1 4.1 1.3 8.2 5.4 9.3l14.7 3.9c4.1 1.1 8.2-1.3 9.3-5.4l15.9-59.3 63.1-36.4v78.6L114.3 359c-3.1 3.1-3.1 8.2 0 11.3l11.3 11.3c3.1 3.1 8.2 3.1 11.3 0l23-23V408c0 4.4 3.6 8 8 8h16c4.4 0 8-3.6 8-8v-49.4l23 23c3.1 3.1 8.2 3.1 11.3 0l11.3-11.3c3.1-3.1 3.1-8.2 0-11.3L192 313.4v-78.6l63.1 36.4 15.9 59.3c1.1 4.1 5.3 6.5 9.3 5.4L295 332c4.1-1.1 6.5-5.3 5.4-9.3l-8-29.9 40.6 23.5c3.6 2.1 8.3.9 10.4-2.8l7.6-13.2c2.1-3.6.9-8.3-2.8-10.4l-40.6-23.5 29.9-8c4.1-1.1 6.5-5.3 5.4-9.3l-3.9-14.7c-1.1-4.1-5.3-6.5-9.3-5.4l-59.3 15.9-64-36.9 63.9-36.9 59.3 15.9c4.1 1.1 8.2-1.3 9.3-5.4l3.9-14.7c1.1-4.1-1.3-8.2-5.4-9.3l-29.9-8 40.6-23.5c3.7-2.1 5-6.7 2.9-10.3zM392 288h152c59.8 0 106.8-54.6 93.8-116.7-7.6-36.3-36.9-65.6-73.2-73.2-59.1-12.3-111.5 29.8-116.3 85.4-.4 4.6 3.5 8.4 8 8.4h16.2c4.2 0 7.4-3.3 7.9-7.4 4.2-36.6 39.5-63.8 78.7-54.8 23.1 5.3 41.8 24.1 47.2 47.2 9.6 41.8-22.1 79.1-62.3 79.1H392c-4.4 0-8 3.6-8 8v16c0 4.4 3.6 8 8 8zm147.7 32H376c-4.4 0-8 3.6-8 8v16c0 4.4 3.6 8 8 8h164.8c33.4 0 63.3 24.4 66.5 57.6C611 447.7 581 480 543.6 480c-32.8 0-59.9-24.8-63.6-56.5-.5-4.2-3.7-7.4-7.9-7.4H456c-4.6 0-8.4 3.9-8 8.4 4.3 49.1 45.5 87.6 95.6 87.6 54 0 97.6-44.6 96-98.9-1.5-52.7-47.4-93.2-99.9-93.2z"/></svg>