<svg xmlns="http://www.w3.org/2000/svg" viewBox="0 0 512 512"><!-- Font Awesome Pro 5.15.4 by @fontawesome - https://fontawesome.com License - https://fontawesome.com/license (Commercial License) --><path d="M400,96a48,48,0,1,0-48-48A48.05,48.05,0,0,0,400,96Zm0-64a16,16,0,1,1-16,16A16,16,0,0,1,400,32ZM224,128a64,64,0,1,0-64-64A64,64,0,0,0,224,128Zm0-96a32,32,0,1,1-32,32A32,32,0,0,1,224,32ZM352,272H160a80,80,0,0,0,0,160H352a80,80,0,0,0,0-160Zm0,128H160a48,48,0,0,1,0-96H352a48,48,0,0,1,0,96Zm64-208H384a64,64,0,0,0-128,0H96A96,96,0,0,0,0,288V416a96,96,0,0,0,96,96H416a96,96,0,0,0,96-96V288A96,96,0,0,0,416,192Zm-96-32a32,32,0,1,1-32,32A32,32,0,0,1,320,160ZM480,416a64.07,64.07,0,0,1-64,64H96a64.07,64.07,0,0,1-64-64V288a64.07,64.07,0,0,1,64-64H264.88a63.47,63.47,0,0,0,110.24,0H416a64.07,64.07,0,0,1,64,64Z"/></svg>