<svg xmlns="http://www.w3.org/2000/svg" viewBox="0 0 512 512"><!-- Font Awesome Pro 5.15.4 by @fontawesome - https://fontawesome.com License - https://fontawesome.com/license (Commercial License) --><path d="M380.38574,123.71484c-12.63061-12.62695-31.37817-14.52343-46.441-6.73632C310.32861,103.71484,283.90894,96,256.06494,96A159.97282,159.97282,0,1,0,389.146,167.08984,39.99385,39.99385,0,0,0,380.38574,123.71484ZM346.59082,346.51562c-48.32629,48.34376-132.72546,48.34376-181.05176,0A128,128,0,0,1,256.06494,128c20.54492,0,40.09741,5.33594,57.88184,14.41406-3.27832,13.16992-.44544,27.57227,9.85241,37.86914a39.76141,39.76141,0,0,0,41.24817,9.19532,127.01793,127.01793,0,0,1-18.45654,157.0371ZM437.234,74.98047A255.4604,255.4604,0,0,0,147.06494,24.59766c.4397.42187.95935.70312,1.39111,1.13476A87.01815,87.01815,0,0,1,165.7832,51.05273,223.59876,223.59876,0,0,1,446.85205,372.9082a56.40228,56.40228,0,1,0,24.45227,21.15039C535.08618,294.95312,524.0166,161.69922,437.234,74.98047ZM424.113,448a24,24,0,1,1,24.00683-24A24.00468,24.00468,0,0,1,424.113,448Zm-79.18677,13.63477A224.11,224.11,0,0,1,31.92065,256c0-41.99609,12.22229-81.83008,33.74805-116.69531a56.61059,56.61059,0,1,0-24.98376-21.6211c-63.88941,99.11524-52.57556,232.57618,34.24621,319.33594a255.43887,255.43887,0,0,0,289.01441,50.91992c-.65259-.61328-1.41455-1.03711-2.05152-1.67383A86.959,86.959,0,0,1,344.92627,461.63477ZM88.01685,64A24,24,0,1,1,64.01,88,24.00335,24.00335,0,0,1,88.01685,64ZM256.06494,176a80,80,0,1,0,80.023,80A80.10313,80.10313,0,0,0,256.06494,176Zm0,128a48,48,0,1,1,48.0138-48A48.0067,48.0067,0,0,1,256.06494,304Z"/></svg>