<svg xmlns="http://www.w3.org/2000/svg" viewBox="0 0 512 512"><!-- Font Awesome Pro 5.15.4 by @fontawesome - https://fontawesome.com License - https://fontawesome.com/license (Commercial License) --><path d="M164.75,224H347.11c16.4,0,24.59-19.85,13-31.41L269,101.41a18.36,18.36,0,0,0-13-5.41,18.15,18.15,0,0,0-13,5.41l-91.25,91.18C140.16,204.15,148.35,224,164.75,224ZM256,133.67,314.3,192H197.59ZM347.11,288H164.75c-16.4,0-24.59,19.85-13,31.41L243,410.59a18.15,18.15,0,0,0,13,5.41,18.34,18.34,0,0,0,13-5.41l91.18-91.18C371.7,307.85,363.52,288,347.11,288ZM256,378.33,197.59,320H314.3ZM350.88,26.94A247.21,247.21,0,0,0,256.1,8C158.8,8,66.49,65.64,26.94,161.12c-52.4,126.51,7.67,271.54,134.18,323.94A247.21,247.21,0,0,0,255.9,504c97.3,0,189.61-57.64,229.16-153.12C537.46,224.37,477.39,79.34,350.88,26.94ZM455.5,338.64A215.73,215.73,0,0,1,173.37,455.5C63.36,409.93,10.94,283.37,56.5,173.36A215.73,215.73,0,0,1,338.63,56.5C448.64,102.07,501.06,228.63,455.5,338.64Z"/></svg>