<svg xmlns="http://www.w3.org/2000/svg" viewBox="0 0 448 512"><!-- Font Awesome Pro 5.15.4 by @fontawesome - https://fontawesome.com License - https://fontawesome.com/license (Commercial License) --><path d="M424 448h-40V304a16 16 0 0 0-16-16h-12a16 16 0 0 0-13.57 7.52l-20 32A16 16 0 0 0 336 352h16v96h-40a8 8 0 0 0-8 8v16a8 8 0 0 0 8 8h112a8 8 0 0 0 8-8v-16a8 8 0 0 0-8-8zM344.49 33.92A72 72 0 0 0 360 176.29a71.13 71.13 0 0 0 36.65-10.37c-8.84 31.22-35.92 54.86-69.08 58a8.08 8.08 0 0 0-7.57 7.92v16.07a8 8 0 0 0 8.38 8.06A112.16 112.16 0 0 0 432 144.29v-40a72.13 72.13 0 0 0-87.51-70.37zM360 144.29a40 40 0 1 1 40-40 40 40 0 0 1-40 40zM198.93 371.56a11.93 11.93 0 0 0-16.91-.09l-54 52.67V40a8 8 0 0 0-8-8H104a8 8 0 0 0-8 8v383.92l-53.94-52.35a12 12 0 0 0-16.92 0l-5.64 5.66a12 12 0 0 0 0 17l84.06 82.3a11.94 11.94 0 0 0 16.87 0l84-82.32a12 12 0 0 0 .09-17z"/></svg>