<svg xmlns="http://www.w3.org/2000/svg" viewBox="0 0 448 512"><!-- Font Awesome Pro 5.15.4 by @fontawesome - https://fontawesome.com License - https://fontawesome.com/license (Commercial License) --><path d="M444.1 182.86L361 45.71a29.56 29.56 0 0 0-49.9 0l-83.2 137.15c-11.08 18.28 2.77 41.14 24.95 41.14h166.3c22.18 0 36.03-22.86 24.95-41.14zM259.77 192L336 66.28 412.23 192zM264 480h144a24 24 0 0 0 24-24V312a24 24 0 0 0-24-24H264a24 24 0 0 0-24 24v144a24 24 0 0 0 24 24zm8-160h128v128H272zm-73.07 51.56a11.93 11.93 0 0 0-16.91-.09l-54 52.67V40a8 8 0 0 0-8-8H104a8 8 0 0 0-8 8v383.92l-53.94-52.35a12 12 0 0 0-16.92 0l-5.64 5.66a12 12 0 0 0 0 17l84.06 82.3a11.94 11.94 0 0 0 16.87 0l84-82.32a12 12 0 0 0 .09-17z"/></svg>