<svg xmlns="http://www.w3.org/2000/svg" viewBox="0 0 448 512"><!-- Font Awesome Pro 5.15.4 by @fontawesome - https://fontawesome.com License - https://fontawesome.com/license (Commercial License) --><path d="M304 224h128a8 8 0 0 0 8-8v-16a8 8 0 0 0-8-8h-87.81l92.89-131.86a16 16 0 0 0 2.92-9.21V40a8 8 0 0 0-8-8H304a8 8 0 0 0-8 8v16a8 8 0 0 0 8 8l87.68.07-92.76 131.79a16 16 0 0 0-2.92 9.21V216a8 8 0 0 0 8 8zm143.29 239.94l-59.76-168a11.87 11.87 0 0 0-11.16-7.94h-16.74a11.87 11.87 0 0 0-11.16 7.94l-59.76 168A12 12 0 0 0 299.88 480H311a11.86 11.86 0 0 0 11.21-8.09l15.1-44.27h60.85L413.5 472a11.88 11.88 0 0 0 11.2 8h11.42a12 12 0 0 0 11.17-16.06zm-99.9-67.36s19.62-56.87 20.5-60c.87 3.14 20.24 60 20.24 60zm-148.46-25a11.93 11.93 0 0 0-16.91-.09l-54 52.67V40a8 8 0 0 0-8-8H104a8 8 0 0 0-8 8v383.92l-53.94-52.35a12 12 0 0 0-16.92 0l-5.64 5.66a12 12 0 0 0 0 17l84.06 82.3a11.94 11.94 0 0 0 16.87 0l84-82.32a12 12 0 0 0 .09-17z"/></svg>