<svg xmlns="http://www.w3.org/2000/svg" viewBox="0 0 512 512"><!-- Font Awesome Pro 5.15.4 by @fontawesome - https://fontawesome.com License - https://fontawesome.com/license (Commercial License) --><path d="M264 320h176a8 8 0 0 0 8-8v-16a8 8 0 0 0-8-8H264a8 8 0 0 0-8 8v16a8 8 0 0 0 8 8zm0-192h48a8 8 0 0 0 8-8v-16a8 8 0 0 0-8-8h-48a8 8 0 0 0-8 8v16a8 8 0 0 0 8 8zm0 96h112a8 8 0 0 0 8-8v-16a8 8 0 0 0-8-8H264a8 8 0 0 0-8 8v16a8 8 0 0 0 8 8zm240 160H264a8 8 0 0 0-8 8v16a8 8 0 0 0 8 8h240a8 8 0 0 0 8-8v-16a8 8 0 0 0-8-8zm-305.07-12.44a11.93 11.93 0 0 0-16.91-.09l-54 52.67V40a8 8 0 0 0-8-8H104a8 8 0 0 0-8 8v383.92l-53.94-52.35a12 12 0 0 0-16.92 0l-5.64 5.66a12 12 0 0 0 0 17l84.06 82.3a11.94 11.94 0 0 0 16.87 0l84-82.32a12 12 0 0 0 .09-17z"/></svg>