<svg xmlns="http://www.w3.org/2000/svg" viewBox="0 0 512 512"><!-- Font Awesome Pro 5.15.4 by @fontawesome - https://fontawesome.com License - https://fontawesome.com/license (Commercial License) --><path d="M319.5 151.9a8.12 8.12 0 0 0 8 7.8h16a7.94 7.94 0 0 0 8-8.2c-2.1-42.1-19.3-73.3-41.6-95.5-18.4-18.7-21.1-38.2-21.9-48.9a7.87 7.87 0 0 0-8-7.1l-16 .1a8 8 0 0 0-7.9 8.7 105.46 105.46 0 0 0 31.2 69.7c17.3 17.2 30.4 40.7 32.2 73.4zm-111.5 0a8.12 8.12 0 0 0 8 7.8h16a7.94 7.94 0 0 0 8-8.2c-2.1-42.1-19.3-73.3-41.6-95.5-18.3-18.7-21-38.2-21.8-48.9a7.9 7.9 0 0 0-8.1-7.1l-16 .1a8 8 0 0 0-7.9 8.7c1 14.9 5.2 43.6 31.2 69.7 17.29 17.2 30.39 40.7 32.2 73.4zM480 192H32a32 32 0 0 0-32 32c0 94.7 51.56 177.16 128 221.45V480a32 32 0 0 0 32 32h192a32 32 0 0 0 32-32v-34.55C460.44 401.16 512 318.7 512 224a32 32 0 0 0-32-32zM352 427v53H160v-53C27.66 350.33 32 241.22 32 224h448c0 17.46 3.37 126.89-128 203z"/></svg>