<svg xmlns="http://www.w3.org/2000/svg" viewBox="0 0 512 512"><!-- Font Awesome Pro 5.15.4 by @fontawesome - https://fontawesome.com License - https://fontawesome.com/license (Commercial License) --><path d="M224.03985,168.00007a24.00456,24.00456,0,1,1-24.00456-24A24.00346,24.00346,0,0,1,224.03985,168.00007ZM496.85531,314.44538a8.20823,8.20823,0,0,1-5.64755,5.91992,810.55026,810.55026,0,0,1-107.13753,22.53125v41.10352h56.01063a7.99991,7.99991,0,0,1,8.00152,8v17.91211a8.25737,8.25737,0,0,1-1.91247,5.30273,247.48223,247.48223,0,0,1-190.124,88.78516c-140.99161,0-254.5073-117.61133-247.75993-260.05859C14.2891,117.20905,118.82261,13.43366,245.61426,8.21491A246.96216,246.96216,0,0,1,413.10309,64.19734a8.22137,8.22137,0,0,1,2.97322,6.34765v49.45508a8.00116,8.00116,0,0,1-8.00152,8H384.07023v32h56.01063a7.99991,7.99991,0,0,1,8.00152,8v56l46.671-.00195a7.91467,7.91467,0,0,1,7.94487,6.99609A243.9077,243.9077,0,0,1,496.85531,314.44538ZM368.06719,416.00007a16.00152,16.00152,0,0,1-16.003-16v-53.541a909.15658,909.15658,0,0,1-96.01822,5.541A882.06521,882.06521,0,0,1,52.8511,328.66023c29.93928,83.4082,109.595,143.33984,203.19483,143.33984a215.14345,215.14345,0,0,0,145.09785-56Zm104.01975-160H392.07175a8.00115,8.00115,0,0,1-8.00152-8v-16a7.99991,7.99991,0,0,1,8.00152-8h24.00456v-32H360.06567a8.00116,8.00116,0,0,1-8.00152-8v-56H328.0596a8.00115,8.00115,0,0,1-8.00152-8v-16a7.99991,7.99991,0,0,1,8.00152-8h56.01063V82.15046a216.05674,216.05674,0,0,0-128.0243-42.15039c-119.12613,0-216.041,96.89648-216.041,216A215.721,215.721,0,0,0,43.45674,293.295c65.4343,17.24024,137.39132,26.70508,212.58919,26.70508a826.14433,826.14433,0,0,0,212.7103-27.52148A209.22142,209.22142,0,0,0,472.08694,256.00007Zm-184.03494-88a88.01671,88.01671,0,1,1-88.01671-88A88.009,88.009,0,0,1,288.052,168.00007Zm-32.00607,0a56.01064,56.01064,0,1,0-56.01064,56A56.06823,56.06823,0,0,0,256.04593,168.00007Z"/></svg>