<svg xmlns="http://www.w3.org/2000/svg" viewBox="0 0 640 512"><!-- Font Awesome Pro 5.15.4 by @fontawesome - https://fontawesome.com License - https://fontawesome.com/license (Commercial License) --><path d="M448 168C208 168 240 32 96.003 32H80c-26.51 0-48 28.654-48 64v64c-23.197 0-32 10.032-32 24v144c0 13.983 8.819 24 32 24v64c0 35.346 21.49 64 48 64h16.003C240 480 208 344 448 344c106.039 0 192-39.399 192-88s-85.961-88-192-88zm-152 0H166.495c-11.973-5.241-25.014-8-38.495-8V67.183C187.971 80.409 219.668 148.917 296 168zM127.046 320H64v-48h48c17.673 0 32-7.163 32-16s-14.327-16-32-16H64v-48h64c35.629 0 64.458 29.114 63.994 64.85-.456 35.171-29.775 63.15-64.948 63.15zM64 96c0-19.851 10.359-32 16-32h16v96H64V96zm0 320v-64h32v96H80c-5.641 0-16-12.149-16-32zm64 28.817v-92.829c13.196-.126 26.009-2.869 37.816-7.989H296c-76.327 19.083-108.024 87.591-168 100.818zM448 312H205.781c24.716-33.856 23.823-79.277.215-112H448c41.469 0 88 0 128 24v64c-40 24-86.45 24-128 24zm40.014-16c-4.426 0-8.014-3.582-8.014-8v-64c0-4.418 3.588-8 8.014-8 31.998 0 31.965 80 0 80z"/></svg>