<svg xmlns="http://www.w3.org/2000/svg" viewBox="0 0 512 512"><!-- Font Awesome Pro 5.15.4 by @fontawesome - https://fontawesome.com License - https://fontawesome.com/license (Commercial License) --><path d="M256,8C119.0332,8,8,119.0332,8,256S119.0332,504,256,504,504,392.9668,504,256,392.9668,8,256,8Zm0,464c-93.57227,0-173.207-59.918-203.14648-143.31445A892.19066,892.19066,0,0,0,256,352a892.19066,892.19066,0,0,0,203.14648-23.31445C429.207,412.082,349.57227,472,256,472ZM43.50391,293.64062A215.62336,215.62336,0,0,1,40,256C40,136.89648,136.89648,40,256,40s216,96.89648,216,216a215.62336,215.62336,0,0,1-3.50391,37.64062C337.67578,327.79883,174.32422,327.79883,43.50391,293.64062ZM200,80a88,88,0,1,0,88,88A87.99936,87.99936,0,0,0,200,80Zm0,144a56,56,0,1,1,56-56A56.06416,56.06416,0,0,1,200,224Zm0-80a24,24,0,1,0,24,24A23.99993,23.99993,0,0,0,200,144Z"/></svg>