<svg xmlns="http://www.w3.org/2000/svg" viewBox="0 0 384 512"><!-- Font Awesome Pro 5.15.4 by @fontawesome - https://fontawesome.com License - https://fontawesome.com/license (Commercial License) --><path d="M192 192a64 64 0 1 0-64-64 64 64 0 0 0 64 64zm0-96a32 32 0 1 1-32 32 32 32 0 0 1 32-32zm0 128a112 112 0 1 0 112 112 112 112 0 0 0-112-112zm0 192a80 80 0 1 1 80-80 80.09 80.09 0 0 1-80 80zm0-112a32 32 0 1 0 32 32 32 32 0 0 0-32-32zM336 0H48A48 48 0 0 0 0 48v416a48 48 0 0 0 48 48h288a48 48 0 0 0 48-48V48a48 48 0 0 0-48-48zm16 464a16 16 0 0 1-16 16H48a16 16 0 0 1-16-16V48a16 16 0 0 1 16-16h288a16 16 0 0 1 16 16z"/></svg>