<svg xmlns="http://www.w3.org/2000/svg" viewBox="0 0 576 512"><!-- Font Awesome Pro 5.15.4 by @fontawesome - https://fontawesome.com License - https://fontawesome.com/license (Commercial License) --><path d="M320 272h-64c-6.6 0-10.4 7.5-6.4 12.8L276 320l-26.4 35.2c-4 5.3-.2 12.8 6.4 12.8h64c6.6 0 10.4-7.5 6.4-12.8L300 320l26.4-35.2c4-5.3.2-12.8-6.4-12.8zm254.7 80.5l-54.8-82.2c-5.9-8.9-15.9-14.2-26.6-14.2H379.5l90.1-30c6.8-2.3 12.6-6.7 16.5-12.6l56.5-84.8c2.5-3.7 1.5-8.6-2.2-11.1l-13.3-8.9c-3.7-2.5-8.6-1.5-11.1 2.2l-55 82.5c-1 1.5-2.4 2.6-4.1 3.1l-83.1 27.7L426.9 118c5.8-11.4 6.7-24.5 2.6-36.7L404.2 5.5c-1.4-4.2-5.9-6.5-10.1-5.1l-15.2 5.1c-4.2 1.4-6.5 5.9-5.1 10.1l25.3 75.8c1.4 4 1.1 8.4-.9 12.2l-36.5 73.1-4.1-20.5c-2.2-11-17.4-60.1-69.6-60.1s-67.4 49.2-69.6 60.1l-4.1 20.5-36.5-73.1c-1.9-3.8-2.3-8.2-.9-12.2l25.3-75.8c1.4-4.2-.9-8.7-5.1-10.1L181.9.4c-4.2-1.4-8.7.9-10.1 5.1l-25.3 75.8c-4.1 12.2-3.1 25.2 2.6 36.7l53.1 106.2-83.1-27.7c-1.7-.6-3.1-1.7-4.1-3.1l-55-82.5c-2.4-3.7-7.4-4.7-11.1-2.2l-13.3 8.9c-3.7 2.4-4.7 7.4-2.2 11.1l56.5 84.8c3.9 5.9 9.8 10.4 16.5 12.6l90.1 30H82.8c-10.7 0-20.7 5.3-26.6 14.2L1.3 352.5c-2.5 3.7-1.5 8.6 2.2 11.1l13.3 8.9c3.7 2.5 8.6 1.5 11.1-2.2l52.4-78.7c1.5-2.2 4-3.6 6.7-3.6h102.1l-69.8 111.7c-4.8 7.6-7.3 16.4-7.3 25.5V504c0 4.4 3.6 8 8 8h16c4.4 0 8-3.6 8-8v-81.1c0-1.5.4-3 1.2-4.2l46.9-75.1c0 1-.2 2-.2 3 0 53.1 40.8 101.4 96 101.4s96-48.4 96-101.4c0-1-.1-2-.1-3l46.9 75.1c.8 1.3 1.2 2.7 1.2 4.2V504c0 4.4 3.6 8 8 8h16c4.4 0 8-3.6 8-8v-78.8c0-9-2.5-17.8-7.3-25.5L386.9 288H489c2.7 0 5.2 1.3 6.7 3.6l52.4 78.7c2.4 3.7 7.4 4.7 11.1 2.2l13.3-8.9c3.6-2.5 4.6-7.5 2.2-11.1zM288 416c-39.5 0-64-36-64-69.4 0-36.8 3.7-73.7 10.9-109.7l14.9-74.4c.7-3.5 7.8-34.4 38.2-34.4s37.5 30.9 38.2 34.4l14.9 74.4c7.2 36.1 10.9 72.9 10.9 109.7 0 33.4-24.5 69.4-64 69.4z"/></svg>