<svg xmlns="http://www.w3.org/2000/svg" viewBox="0 0 576 512"><!-- Font Awesome Pro 5.15.4 by @fontawesome - https://fontawesome.com License - https://fontawesome.com/license (Commercial License) --><path d="M571.62 245.02C509.87 179.63 464.12 98.93 439.4 11.65c-2.37-8.33-10.84-13.3-19.31-11.16-86.44 21.78-177.75 21.78-264.18 0-8.5-2.11-16.94 2.83-19.31 11.16C111.88 98.93 66.13 179.63 4.38 245.02c-5.84 6.16-5.84 15.81 0 21.97 61.75 65.39 107.5 146.09 132.22 233.37 2.37 8.31 10.81 13.23 19.31 11.16 86.44-21.78 177.75-21.78 264.18 0 1.31.33 2.62.48 3.91.48 7 0 13.41-4.61 15.41-11.64 24.72-87.28 70.47-167.98 132.22-233.37 5.83-6.16 5.83-15.81-.01-21.97zm-46.23-5.01h-69.84c-31.47-35.4-55.14-77.87-69.23-123.78l34.42-60.24c23.74 67.2 59.24 129.67 104.65 184.02zm-264.97 0h-98.7a366.476 366.476 0 0 0 48.97-87.02l49.73 87.02zm-23.85-106.28c34.09 5.26 68.77 5.26 102.86 0l-51.43 90-51.43-90zm23.85 138.28l-49.73 87.02a366.476 366.476 0 0 0-48.97-87.02h98.7zM288 288.28l51.43 90.01c-17.04-2.63-34.2-4.38-51.43-4.38s-34.39 1.75-51.43 4.38L288 288.28zm27.58-16.27h98.69a366.824 366.824 0 0 0-48.97 87.02l-49.72-87.02zm0-32l49.73-87.02c12.33 31.22 28.83 60.51 48.97 87.02h-98.7zm78.43-201.79L360.3 97.21c-47.38 11.59-97.21 11.59-144.59 0L182 38.22a573.332 573.332 0 0 0 212.01 0zM155.26 55.99l34.42 60.24c-14.1 45.92-37.77 88.38-69.23 123.78H50.61c45.41-54.35 80.91-116.82 104.65-184.02zM50.61 272.01h69.84c31.47 35.4 55.14 77.87 69.23 123.78l-34.42 60.24c-23.74-67.2-59.24-129.68-104.65-184.02zM182 473.79l33.71-58.99c47.38-11.59 97.21-11.59 144.59 0l33.7 58.99c-35-6.59-70.44-10.61-106-10.61s-71.01 4.02-106 10.61zm238.74-17.77l-34.42-60.24c14.1-45.92 37.77-88.38 69.23-123.78h69.84c-45.41 54.35-80.91 116.83-104.65 184.02z"/></svg>