<svg xmlns="http://www.w3.org/2000/svg" viewBox="0 0 512 512"><!-- Font Awesome Pro 5.15.4 by @fontawesome - https://fontawesome.com License - https://fontawesome.com/license (Commercial License) --><path d="M16,0A16,16,0,1,0,32,16,16,16,0,0,0,16,0Zm0,224a16,16,0,1,0,16,16A16,16,0,0,0,16,224Zm0-112a16,16,0,1,0,16,16A16,16,0,0,0,16,112Zm128,32a16,16,0,1,0-16-16A16,16,0,0,0,144,144ZM496,32a16,16,0,1,0-16-16A16,16,0,0,0,496,32ZM368,144a16,16,0,1,0-16-16A16,16,0,0,0,368,144Zm64,16a16,16,0,1,0,16,16A16,16,0,0,0,432,160Zm0-96a16,16,0,1,0,16,16A16,16,0,0,0,432,64Zm64,160a16,16,0,1,0,16,16A16,16,0,0,0,496,224ZM80,160a16,16,0,1,0,16,16A16,16,0,0,0,80,160Zm416-48a16,16,0,1,0,16,16A16,16,0,0,0,496,112ZM398.19,256H272V72a8,8,0,0,0-8-8H248a8,8,0,0,0-8,8V256H113.81a17.77,17.77,0,0,0-14.22,28.44L192,387.56V504a8,8,0,0,0,8,8h16a8,8,0,0,0,8-8V374.3L144.93,288H367.07L288,374.3V504a8,8,0,0,0,8,8h16a8,8,0,0,0,8-8V387.56l92.41-103.12A17.77,17.77,0,0,0,398.19,256ZM80,64A16,16,0,1,0,96,80,16,16,0,0,0,80,64Z"/></svg>