<svg xmlns="http://www.w3.org/2000/svg" viewBox="0 0 512 512"><!-- Font Awesome Pro 5.15.4 by @fontawesome - https://fontawesome.com License - https://fontawesome.com/license (Commercial License) --><path d="M509.16 248.97L454.12 304l55.03 55.03c3.12 3.12 3.12 8.19 0 11.31l-11.31 11.31c-3.12 3.12-8.19 3.12-11.31 0l-55.03-55.03-55.03 55.03c-3.12 3.12-8.19 3.12-11.31 0l-11.31-11.31c-3.12-3.12-3.12-8.19 0-11.31L408.88 304l-55.03-55.03c-3.12-3.12-3.12-8.19 0-11.31l11.31-11.31c3.12-3.12 8.19-3.12 11.31 0l55.03 55.03 55.03-55.03c3.12-3.12 8.19-3.12 11.31 0l11.31 11.31c3.13 3.12 3.13 8.18.01 11.31zM211.97 451.31L313.09 75.83c1.84-6.97 8.22-11.83 15.44-11.83H504c4.42 0 8-3.58 8-8V40c0-4.42-3.58-8-8-8H328.53c-21.69 0-40.75 14.61-46.34 35.53l-101.1 375.45c-1.53 5.48-10.34 6.25-12.66 1.09l-81.31-176.2C79.28 250.94 62.16 240 43.53 240H8c-4.42 0-8 3.58-8 8v16c0 4.42 3.58 8 8 8h35.53c6.24 0 11.92 3.63 14.53 9.3l80.92 175.33c4.26 9.24 11.64 17.04 21.15 20.66 22.81 8.7 46.04-4.51 51.84-25.98z"/></svg>