<svg xmlns="http://www.w3.org/2000/svg" viewBox="0 0 512 512"><!-- Font Awesome Pro 5.15.4 by @fontawesome - https://fontawesome.com License - https://fontawesome.com/license (Commercial License) --><path d="M160.13 477.29c-9.51-3.62-16.88-11.43-21.15-20.66L58.06 281.3c-2.62-5.67-8.29-9.3-14.53-9.3H8c-4.42 0-8-3.58-8-8v-16c0-4.42 3.58-8 8-8h35.53c18.62 0 35.75 10.94 43.59 27.88l81.31 176.2c2.31 5.16 11.12 4.39 12.66-1.09l101.1-375.46C287.78 46.61 306.84 32 328.53 32H504c4.42 0 8 3.58 8 8v16c0 4.42-3.58 8-8 8H328.53c-7.22 0-13.59 4.86-15.44 11.83L211.97 451.31c-5.8 21.47-29.03 34.68-51.84 25.98z"/></svg>