<svg xmlns="http://www.w3.org/2000/svg" viewBox="0 0 512 512"><!-- Font Awesome Pro 5.15.4 by @fontawesome - https://fontawesome.com License - https://fontawesome.com/license (Commercial License) --><path d="M400 160c8.84 0 16-7.16 16-16s-7.16-16-16-16-16 7.16-16 16 7.16 16 16 16zm63.74 258.19C473.95 401.69 480 384.36 480 368c0-34.12-28.88-70.66-76.78-78.47l9.91-49.53h50.72c28.81 0 48.16-22.05 48.16-54.86 0-59.81-42.62-111.17-96.16-119.84V32h-16c-50.13 0-84.09 41.08-105.37 80.06C270.98 51.21 207.09 0 144 0 64.59 0 0 64.59 0 144c0 71.06 51.75 130.27 119.53 141.92l-13.72 28.41c-6.5 17.19-9.81 34.58-9.81 51.69C96 446.52 161.47 512 241.97 512H480c17.68 0 32-14.33 32-32 0-29.83-20.6-54.74-48.26-61.81zM241.97 480C179.12 480 128 428.86 128 366.02c0-13.22 2.59-26.8 7.19-39.05L169.5 256h-21.58C91 256 40.21 215.21 32.95 158.76 24.17 90.46 77.4 32 144 32c62.22 0 128 65.8 128 128l-59.7 146.46c-1.7 4.08.23 8.76 4.31 10.46l14.79 6.16c4.08 1.7 8.76-.23 10.46-4.31l76.46-183.61c11.44-22.88 33.97-59.09 65.53-68.73V96h16c42.69 0 80.16 41.66 80.16 89.14 0 8.53-2.09 22.86-16.16 22.86h-76.97l-22.41 112H384c39.53 0 64 24.92 64 48 0 14.86-8.43 32.39-22.26 48H392c-4.42 0-8 3.58-8 8v16c0 4.42 3.58 8 8 8h56c17.66 0 32 14.36 32 32H241.97z"/></svg>