<svg xmlns="http://www.w3.org/2000/svg" viewBox="0 0 480 512"><!-- Font Awesome Pro 5.15.4 by @fontawesome - https://fontawesome.com License - https://fontawesome.com/license (Commercial License) --><path d="M271.74 32v168.58l47.6-27.71 97.18-56.57 31.74 55.43-97.18 56.57-47.61 27.7 47.6 27.71 97.18 56.57-31.74 55.43-97.18-56.57-47.6-27.71V480h-63.47V311.42l-47.6 27.71-97.18 56.57-31.74-55.43 97.18-56.57 47.6-27.71-47.6-27.71-97.18-56.57 31.74-55.43 97.18 56.57 47.6 27.71V32h63.48m0-32h-63.47c-17.53 0-31.74 14.33-31.74 32v113.15L79.35 88.57c-5-2.91-10.46-4.29-15.84-4.29-10.97 0-21.63 5.74-27.51 16.01L4.26 155.71c-8.76 15.3-3.56 34.88 11.62 43.71L113.06 256l-97.18 56.57C.7 321.41-4.5 340.98 4.26 356.28L36 411.71a31.68 31.68 0 0 0 27.52 16.01c5.38 0 10.84-1.38 15.84-4.29l97.18-56.57V480c0 17.67 14.21 32 31.74 32h63.47c17.53 0 31.74-14.33 31.74-32V366.85l97.18 56.57c5 2.91 10.45 4.29 15.84 4.29a31.68 31.68 0 0 0 27.52-16.01l31.74-55.43c8.76-15.31 3.56-34.88-11.62-43.71L366.94 256l97.18-56.57c15.18-8.84 20.38-28.41 11.62-43.71L444 100.29a31.677 31.677 0 0 0-27.51-16.01c-5.38 0-10.84 1.38-15.84 4.29l-97.18 56.57V32c0-17.67-14.21-32-31.73-32z"/></svg>