<svg xmlns="http://www.w3.org/2000/svg" viewBox="0 0 512 512"><!-- Font Awesome Pro 5.15.4 by @fontawesome - https://fontawesome.com License - https://fontawesome.com/license (Commercial License) --><path d="M364.294,267.28691,259.4951,251.99064l-46.90716-95.19941a22.9468,22.9468,0,0,0-41.18829,0l-46.90716,95.19941L19.69358,267.28691C.89634,269.98993-6.71318,293.19215,6.99021,306.4885l75.90772,73.99711L64.89758,485.07527A23.05232,23.05232,0,0,0,87.525,512a22.46219,22.46219,0,0,0,10.67013-2.72255l93.7987-49.38869,93.79869,49.38869A22.89785,22.89785,0,0,0,319.09,485.07527L301.199,380.48561l75.89209-73.99711C390.70077,293.19215,383.09125,269.98993,364.294,267.28691ZM278.85876,357.5744l-12.03734,11.73587,2.836,16.56966,14.80107,86.53177-77.55424-40.83629-14.91044-7.85126-14.91045,7.85126L99.5506,472.4l14.885-86.48686,2.85357-16.58919-12.053-11.7515-62.843-61.26127,86.72238-12.65771,16.64681-2.42959,7.43569-15.09121L191.9938,187.3955l38.79567,78.73716,7.43569,15.09121,16.64876,2.42959,86.80442,12.66943ZM498.34544,194.33469a8.00345,8.00345,0,0,0-11.31467,0l-68.68884,68.68676a7.99644,7.99644,0,0,0,0,11.31206l11.31077,11.31206a8.00347,8.00347,0,0,0,11.31467,0L509.6562,216.9588a7.99643,7.99643,0,0,0,0-11.31206ZM314.34187,186.337l11.31077,11.31011a7.99994,7.99994,0,0,0,11.31467,0L509.6562,24.96631a7.99643,7.99643,0,0,0,0-11.31206L498.34544,2.34219a8.00347,8.00347,0,0,0-11.31467,0L314.34187,175.02294A7.9988,7.9988,0,0,0,314.34187,186.337ZM237.649,93.65308a8.00347,8.00347,0,0,0,11.31467,0l68.68883-68.68677a7.99644,7.99644,0,0,0,0-11.31206L306.34172,2.34219a8.00348,8.00348,0,0,0-11.31468,0L226.33821,71.029a7.99644,7.99644,0,0,0,0,11.31206Z"/></svg>