<svg xmlns="http://www.w3.org/2000/svg" viewBox="0 0 512 512"><!-- Font Awesome Pro 5.15.4 by @fontawesome - https://fontawesome.com License - https://fontawesome.com/license (Commercial License) --><path d="M509.05273,219.03853l-39.71289-16.56934-16.55859-39.73866a5.32506,5.32506,0,0,0-9.541,0l-16.56054,39.73866-39.71094,16.56934a5.33947,5.33947,0,0,0,0,9.54721L426.67969,245.157l16.56054,39.73671a5.3235,5.3235,0,0,0,9.541,0L469.33984,245.157l39.71289-16.57129a5.33947,5.33947,0,0,0,0-9.54721ZM364.30049,267.08,259.38106,251.77833,212.46892,156.549a22.735,22.735,0,0,0-20.59634-12.7878A22.40581,22.40581,0,0,0,171.37,156.549l-46.91214,95.22933L19.6322,267.08C.84859,269.76557-6.65235,293.06155,6.94311,306.349l75.91578,74.05684L64.85663,485.01914A23.00313,23.00313,0,0,0,87.45322,512a22.60025,22.60025,0,0,0,10.68884-2.6856l93.82428-49.37123,93.82429,49.37123A23.38328,23.38328,0,0,0,296.38571,512a23.09547,23.09547,0,0,0,22.69035-26.88718l-17.9085-104.61329,75.91578-74.05685C390.6788,293.06155,383.0841,269.87487,364.30049,267.08ZM266.78824,369.28873l17.596,103.14558-92.51162-48.7779L99.361,472.43431l17.596-103.14558L42.26,296.1531l103.388-15.08305,46.31831-93.83969,46.19331,93.83969L341.57888,296.1531ZM423.1875,81.33009,374.59375,57.01744,350.3125,8.17327c-5.40625-10.89769-23.21875-10.89769-28.625,0L297.40625,56.81419,248.8125,81.12683A16.04689,16.04689,0,0,0,240,95.433a16.46336,16.46336,0,0,0,8.8125,14.50941L297.40625,134.255,321.6875,182.896A16.07056,16.07056,0,0,0,336,191.79235a15.87374,15.87374,0,0,0,14.3125-8.8964L374.59375,134.255l48.59375-24.31264a16.0185,16.0185,0,0,0,0-28.6123ZM355.5,107.94109a16.19316,16.19316,0,0,0-7.1875,7.2078L336,139.86805l-12.3125-24.71916a16.75685,16.75685,0,0,0-7.1875-7.2078L291.8125,95.54243,316.5,83.12813a16.11584,16.11584,0,0,0,7.1875-7.2078L336,51.20117l12.3125,24.71916a16.59161,16.59161,0,0,0,7.1875,7.2078l24.6875,12.4143Z"/></svg>