<svg xmlns="http://www.w3.org/2000/svg" viewBox="0 0 512 512"><!-- Font Awesome Pro 5.15.4 by @fontawesome - https://fontawesome.com License - https://fontawesome.com/license (Commercial License) --><path d="M493.7 232.4l-140.2-35 66.9-83.3c5.2-6.5 4.7-15.5-1.1-21.3-5.9-5.8-14.8-6.3-21.3-1.1l-83.4 66.7-35-140c-6.1-24.4-41-24.4-47.2 0l-35 140.2-83.3-67c-6.5-5.2-15.5-4.8-21.3 1.1-5.8 5.8-6.3 14.8-1.1 21.4l66.7 83.4-140 35C7.5 235.2 0 244.7 0 256c0 10.2 6.5 20.7 18.4 23.6l140.2 35-66.9 83.3c-5.2 6.5-4.7 15.5 1.1 21.3 5.6 5.5 14.5 6.5 21.3 1.1l83.4-66.7 35 140c3 11.9 13.3 18.4 23.6 18.4 4.5 0 19.4-2.1 23.6-18.4l35-140.2 83.3 67c6.9 5.5 15.8 4.4 21.3-1.1 5.8-5.8 6.3-14.8 1.1-21.3l-66.7-83.4 139.9-35c11.7-2.9 18.5-13.1 18.5-23.6-.1-10.3-6.6-20.6-18.4-23.6zM296 296l-40 160-40-160-160-40 160-40 40-160 40 160 160 40-160 40z"/></svg>