<svg xmlns="http://www.w3.org/2000/svg" viewBox="0 0 464 512"><!-- Font Awesome Pro 5.15.4 by @fontawesome - https://fontawesome.com License - https://fontawesome.com/license (Commercial License) --><path d="M405.68 256l53.21-89.39C473.3 142.4 455.48 112 426.88 112H319.96l-55.95-93.98C256.86 6.01 244.43 0 232 0s-24.86 6.01-32.01 18.02L144.04 112H37.11c-28.6 0-46.42 30.4-32.01 54.61L58.32 256 5.1 345.39C-9.31 369.6 8.51 400 37.11 400h106.93l55.95 93.98C207.14 505.99 219.57 512 232 512s24.86-6.01 32.01-18.02L319.96 400h106.93c28.6 0 46.42-30.4 32.01-54.61L405.68 256zm21.21-112c2.1 0 3.63.83 4.56 2.46 1.08 1.89.32 3.16-.04 3.78l-44.34 74.48L339.01 144h87.88zm-58.45 112l-66.67 112H162.23L95.56 256l66.67-112h139.54l66.67 112zM227.49 34.38c.94-1.58 2.46-2.38 4.51-2.38s3.57.8 4.51 2.38L282.72 112H181.28l46.21-77.62zM32.6 150.24c-.37-.61-1.12-1.88-.05-3.78.93-1.64 2.46-2.46 4.56-2.46h87.88l-48.05 80.72-44.34-74.48zM37.11 368c-2.1 0-3.63-.83-4.56-2.46-1.08-1.89-.32-3.17.04-3.78l44.34-74.48L124.99 368H37.11zm199.4 109.61c-.94 1.58-2.46 2.39-4.51 2.39s-3.57-.8-4.51-2.38L181.28 400h101.44l-46.21 77.61zm194.94-112.07c-.93 1.63-2.46 2.46-4.56 2.46h-87.88l48.05-80.72 44.34 74.48c.36.61 1.12 1.88.05 3.78z"/></svg>