<svg xmlns="http://www.w3.org/2000/svg" viewBox="0 0 640 512"><!-- Font Awesome Pro 5.15.4 by @fontawesome - https://fontawesome.com License - https://fontawesome.com/license (Commercial License) --><path d="M448,64c-83.91992,0-155.07812,53.92969-181.18945,128.95312L214.916,197.76367,158.959,160h47.44727a48,48,0,0,0,0-96H32A32.03165,32.03165,0,0,0,0,96v32a32.03165,32.03165,0,0,0,32,32h69.76953l62.86328,42.42383-22.22656,2.06055C115.9375,206.9375,96,229.07812,96,256s19.9375,49.0625,46.40625,51.51562l22.22656,2.06055L101.76953,352H32A32.03165,32.03165,0,0,0,0,384v32a32.03165,32.03165,0,0,0,32,32H206.40625a48,48,0,0,0,0-96H158.959l55.957-37.76367,51.89453,4.81055C292.92188,394.07031,364.08008,448,448,448c106.03906,0,192-85.96094,192-192S554.03906,64,448,64ZM32,128V96H206.40625a16,16,0,0,1,0,32ZM206.40625,384a16,16,0,0,1,0,32H32V384Zm52.18945-97.86133-113.252-10.498C135.46875,274.73438,128,266.28125,128,256s7.46875-18.73438,17.34375-19.64062l113.252-10.498A192.3155,192.3155,0,0,0,256,256,192.3155,192.3155,0,0,0,258.5957,286.13867ZM448,416A160,160,0,1,1,608,256,160.00042,160.00042,0,0,1,448,416Zm0-224a64,64,0,1,0,64,64A63.99942,63.99942,0,0,0,448,192Zm0,96a32,32,0,1,1,32-32A32.00033,32.00033,0,0,1,448,288Z"/></svg>