<svg xmlns="http://www.w3.org/2000/svg" viewBox="0 0 576 512"><!-- Font Awesome Pro 5.15.4 by @fontawesome - https://fontawesome.com License - https://fontawesome.com/license (Commercial License) --><path d="M568,32H552a8.00039,8.00039,0,0,0-8,8V191.01367l-84.65234-21.16211C427.70312,107.17773,362.87305,64,288,64S148.29688,107.17773,116.65234,169.85156L32,191.01367V40a8.00039,8.00039,0,0,0-8-8H8a8.00039,8.00039,0,0,0-8,8V472a8.00039,8.00039,0,0,0,8,8H24a8.00039,8.00039,0,0,0,8-8V320.98438l84.65234,21.16406C148.29688,404.82227,213.127,448,288,448s139.70312-43.17773,171.34766-105.85156L544,320.98438V472a8.00039,8.00039,0,0,0,8,8h16a8.00039,8.00039,0,0,0,8-8V40A8.00039,8.00039,0,0,0,568,32ZM102.75391,305.6875,32,288V224l70.75391-17.6875a186.14869,186.14869,0,0,0,0,99.375ZM288,416A160,160,0,1,1,448,256,160.00042,160.00042,0,0,1,288,416ZM544,288l-70.75391,17.6875a186.14869,186.14869,0,0,0,0-99.375L544,224ZM288,128A128,128,0,1,0,416,256,127.99883,127.99883,0,0,0,288,128Zm12,33.21094a94.89277,94.89277,0,0,1,46.57617,19.22851l-22.62695,22.627A63.59685,63.59685,0,0,0,300,193.21094Zm-24,0v32a63.59685,63.59685,0,0,0-23.94922,9.85547l-22.62695-22.627A94.89277,94.89277,0,0,1,276,161.21094Zm-63.56055,36.21289,22.627,22.62695A63.59685,63.59685,0,0,0,225.21094,244h-32A94.89277,94.89277,0,0,1,212.43945,197.42383ZM193.21094,268h32a63.59685,63.59685,0,0,0,9.85547,23.94922l-22.627,22.62695A94.89277,94.89277,0,0,1,193.21094,268ZM276,350.78906a94.89277,94.89277,0,0,1-46.57617-19.22851l22.62695-22.627A63.59685,63.59685,0,0,0,276,318.78906ZM256,256a32,32,0,1,1,32,32A31.99908,31.99908,0,0,1,256,256Zm44,94.78906v-32a63.59685,63.59685,0,0,0,23.94922-9.85547l22.62695,22.627A94.89277,94.89277,0,0,1,300,350.78906Zm63.56055-36.21289-22.627-22.62695A63.59685,63.59685,0,0,0,350.78906,268h32A94.89277,94.89277,0,0,1,363.56055,314.57617ZM350.78906,244a63.59685,63.59685,0,0,0-9.85547-23.94922l22.627-22.62695A94.89277,94.89277,0,0,1,382.78906,244Z"/></svg>