<svg xmlns="http://www.w3.org/2000/svg" viewBox="0 0 512 512"><!-- Font Awesome Pro 5.15.4 by @fontawesome - https://fontawesome.com License - https://fontawesome.com/license (Commercial License) --><path d="M340.47 466.36c-1.45 0-6.89.46-9.18.46-116.25 0-210.82-94.57-210.82-210.82S215.04 45.18 331.29 45.18c2.32 0 7.7.46 9.18.46 7.13 0 13.33-5.03 14.75-12.07 1.46-7.25-2.55-14.49-9.47-17.09C316.58 5.54 286.39 0 256 0 114.84 0 0 114.84 0 256s114.84 256 256 256c30.23 0 60.28-5.49 89.32-16.32 5.96-2.02 10.28-7.64 10.28-14.26 0-8.09-6.39-15.06-15.13-15.06zM32 256c0-116.55 89.46-212.59 203.33-223.05C149.02 70.22 88.47 156.17 88.47 256c0 99.83 60.55 185.78 146.87 223.05C121.47 468.59 32 372.55 32 256zm471.46-42.14l-76.38-11.1-34.16-69.21c-1.83-3.7-5.38-5.55-8.93-5.55s-7.1 1.85-8.93 5.55l-34.16 69.21-76.38 11.1c-8.17 1.18-11.43 11.22-5.52 16.99l55.27 53.87-13.05 76.07c-1.11 6.44 4.01 11.66 9.81 11.66 1.53 0 3.11-.36 4.64-1.17L384 335.37l68.31 35.91c1.53.8 3.11 1.17 4.64 1.17 5.8 0 10.92-5.23 9.81-11.66l-13.05-76.07 55.27-53.87c5.91-5.77 2.65-15.81-5.52-16.99zm-72.08 47.94l-12.05 11.74 2.84 16.58 5.5 32.05-28.78-15.13-14.89-7.83-14.89 7.83-28.78 15.13 5.5-32.05 2.84-16.58-12.05-11.74-23.28-22.7 32.18-4.68 16.65-2.42 7.45-15.09L384 187.76l14.39 29.16 7.45 15.09 16.65 2.42 32.18 4.68-23.29 22.69z"/></svg>