<svg xmlns="http://www.w3.org/2000/svg" viewBox="0 0 536 512"><!-- Font Awesome Pro 5.15.4 by @fontawesome - https://fontawesome.com License - https://fontawesome.com/license (Commercial License) --><path d="M417.28 158.22l-55.12-8.03-24.64-49.84-28.74 14.16 32.1 64.94 71.78 10.44 4.62-31.67zm-12.87 267.09l9.44 54.62-49-25.7-14.9 28.31 49.02 25.72c4.7 2.45 9.68 3.7 14.79 3.7 9.35 0 18.6-4.33 24.71-11.56 4.87-5.72 7.44-12.72 7.44-20.22l-9.89-60.28-31.61 5.41zM275.3 407.58c-4.5-2.35-9.91-2.79-14.77-.25l-138.38 72.62 27.9-162.03L32.07 203.14l163.04-23.7L267.91 32c.03 0 .05-.02.08-.02V32l20.46 41.39 28.74-14.16-20.46-41.41C291.28 6.83 280.24 0 267.91 0c-12.45 0-23.15 6.66-28.68 17.81l-65.41 132.38L27.4 171.48c-12.1 1.78-22 10.12-25.82 21.81-3.79 11.67-.67 24.25 8.12 32.78l105.9 103-25.06 145.5c-1.6 9.45.88 18.64 6.97 25.84 6.12 7.25 15.34 11.58 24.67 11.58 5.1 0 10.08-1.25 14.86-3.75l130.95-68.7 49.32 25.87 14.9-28.31-56.77-29.78-.14.26zM534.37 193.3c-3.77-11.67-13.68-20.03-25.85-21.81l-54.95-8-4.63 31.66 54.95 8.02-39.67 38.59 22.39 22.91 39.61-38.53c6.31-6.08 9.79-14.17 9.79-22.8-.01-3.42-.57-6.82-1.64-10.04zM385.92 317.92l12.29 71.36 31.59-5.41-9.44-54.8 39.89-38.8-22.39-22.91-51.94 50.56z"/></svg>