<svg xmlns="http://www.w3.org/2000/svg" viewBox="0 0 576 512"><!-- Font Awesome Pro 5.15.4 by @fontawesome - https://fontawesome.com License - https://fontawesome.com/license (Commercial License) --><path d="M466.81 118.83C435.3 82.94 401.42 64 368.85 64c-41.87 0-78.51 32.73-93.33 83.38l-.63 2.19c-17.44 60.74-69.45 110.34-154.6 147.41-57.29 24.9-56.54 60.8-53.57 75.07 10.7 51.39 91.56 74.8 162.16 74.8 97.65 0 188.59-39.8 249.5-109.2 48.92-55.73 43.62-155.94-11.57-218.82zm-12.48 197.71c-64.24 73.19-152.69 98.31-225.45 98.31-105.46 0-177.94-52.81-95.81-88.57 146.41-63.75 166.92-148.6 173.16-170C317 119.66 341.54 96 368.85 96c22.76 0 49 15.62 73.91 44 44.37 50.49 49.78 133 11.57 176.54zM384 191.92a32 32 0 1 0 32 32 32 32 0 0 0-32-32zM514.92 76.65C467.92 23.11 416.28 0 368.85 0 298.27 0 237 51.17 214.1 129.39 165 269.32 1.37 212.32 0 351.63-1.13 467.49 126.32 512 239.31 512q8.41 0 16.69-.32c87.78-3.41 187.32-37.1 270.49-131.85C596.78 299.75 591.6 164 514.92 76.65zm-12.47 282.07C418.8 454 321.59 477.11 254.75 479.7q-7.65.3-15.44.3c-77 0-143.78-21.08-178.76-56.4C41.06 403.92 31.73 380.48 32 352c.48-49.57 23.49-61.67 75.5-84.31 48.37-21.11 108.57-47.32 136.79-127.69l.28-.8.24-.82C263.72 73.75 312.41 32 368.85 32c42.06 0 84.26 22.74 122 65.76 66.36 75.58 71.55 192.65 11.6 260.96z"/></svg>