<svg xmlns="http://www.w3.org/2000/svg" viewBox="0 0 512 512"><!-- Font Awesome Pro 5.15.4 by @fontawesome - https://fontawesome.com License - https://fontawesome.com/license (Commercial License) --><path d="M430.1 96.5c-43.6 1-78.7 37.5-78.1 81.1.5 38.2 27.8 69.9 64 77.2v105.6c0 65.9-57.4 119.5-128 119.5s-128-53.6-128-119.5v-8.9c71.9-8 128-69.1 128-143.1V25.8c0-5.5-3.7-10.3-9.1-11.6L223.5.4c-6.4-1.6-12.9 2.3-14.6 8.7l-1.9 7.8c-1.6 6.4 2.3 12.9 8.7 14.6l40.3 10v165.8c0 61.8-49.5 112.9-111.3 113.2-62.1.4-112.7-50-112.7-112v-167l40.2-10.1c6.4-1.6 10.3-8.1 8.7-14.6L79 9.1C77.4 2.7 70.9-1.2 64.4.4L9.1 14.2C3.7 15.5 0 20.3 0 25.8v182.6c0 74 56.1 135.1 128 143.1v8.9C128 444 199.8 512 288 512s160-68 160-151.5V254.9c36.5-7.4 64-39.7 64-78.4 0-44.9-36.9-81.1-81.9-80zm1.9 128c-26.5 0-48-21.5-48-48s21.5-48 48-48 48 21.5 48 48-21.5 48-48 48zm23.5-48c0 13-10.5 23.5-23.5 23.5s-23.5-10.5-23.5-23.5S419 153 432 153s23.5 10.5 23.5 23.5z"/></svg>