<svg xmlns="http://www.w3.org/2000/svg" viewBox="0 0 512 512"><!-- Font Awesome Pro 5.15.4 by @fontawesome - https://fontawesome.com License - https://fontawesome.com/license (Commercial License) --><path d="M401.07 98.27C342.35 87.67 289.25 115.23 261.1 160H240c-44.18 0-80-35.82-80-80V8c0-4.42-3.58-8-8-8h-16c-4.42 0-8 3.58-8 8v72c0 61.86 50.14 112 112 112h6.7c-3.95 12.73-6.7 25.99-6.7 40v56c0 44.18-35.82 80-80 80h-48C50.14 368 0 418.14 0 480v24c0 4.42 3.58 8 8 8h16c4.42 0 8-3.58 8-8v-24c0-32.35 19.31-60.29 47.01-72.88 11.13-5.06 24.36-2.05 33.4 6.19l62.31 56.78C208 497.11 249.94 512 292.78 512 413.66 512 512 413.66 512 292.78v-55.83c0-66.45-45.53-126.88-110.93-138.68zM376 128c57.34 0 104 46.66 104 104v60.78c0 12.07-1.25 23.85-3.45 35.29-31.33 15.03-68.19 7.84-92.77-18.9-29.66-32.24-72.22-43.89-111.78-32.91V232c0-57.34 46.66-104 104-104zm-83.22 352c-35.53 0-70.28-12.34-97.19-34.16L145.31 400H160c53.87 0 98.94-38.26 109.58-89.01 30.84-13.68 66.61-6.31 90.64 19.84 22.47 24.44 52.38 37.25 82.75 37.25 7.49 0 14.97-1.24 22.41-2.81C436.99 432.61 370.32 480 292.78 480z"/></svg>