<svg xmlns="http://www.w3.org/2000/svg" viewBox="0 0 448 512"><!-- Font Awesome Pro 5.15.4 by @fontawesome - https://fontawesome.com License - https://fontawesome.com/license (Commercial License) --><path d="M393.3,141.3l17.5-17.5a12,12,0,0,0,0-17l-5.71-5.71a12,12,0,0,0-17,0l-17.5,17.5A223.09,223.09,0,0,0,238.91,64.41V32h25a12,12,0,0,0,12-12V12a12,12,0,0,0-12-12h-80a12,12,0,0,0-12,12v8a12,12,0,0,0,12,12h23V64.59C91.2,73.3,0,170,0,288,0,411.7,100.3,512,224,512S448,411.7,448,288A223,223,0,0,0,393.3,141.3ZM224,480A192,192,0,1,1,416,288,191.93,191.93,0,0,1,224,480ZM178.48,307.91l2.41-3.32C201,277.09,212,262,212,229.05c0-39.46-15.91-57.05-51.58-57.05C125.14,172,108,190.41,108,228.25v4.06a4.21,4.21,0,0,0,4.33,4.07h24.9a4.21,4.21,0,0,0,4.33-4.07v-5.23c0-8,0-26.67,16.69-26.67,16.2,0,16.2,15.67,16.2,28.26,0,25-6.73,34.58-24.75,60.27l-3.06,4.37c-23.44,33.46-35.06,55.36-37.75,89.39a12.06,12.06,0,0,0,3.22,9.22,12.64,12.64,0,0,0,9.41,4.08h82.84a4.21,4.21,0,0,0,4.33-4.06V369.62a4.21,4.21,0,0,0-4.33-4.07H150.75l.52-4.46C153.34,342.91,169.22,320,178.48,307.91ZM288.19,172C254.05,172,236,192.48,236,231.22V336.56c0,40.55,16.12,59.44,50.77,59.44,36.31,0,53.23-19,53.23-59.69v-107C340,203.16,331,172,288.19,172Zm16.7,169c0,16.78-5.72,25.28-17,25.28s-17.24-8.28-17.24-24.61V225.73c0-19.84,9.38-24,17.24-24s17,4.05,17,23.34Z"/></svg>