<svg xmlns="http://www.w3.org/2000/svg" viewBox="0 0 640 512"><!-- Font Awesome Pro 5.15.4 by @fontawesome - https://fontawesome.com License - https://fontawesome.com/license (Commercial License) --><path d="M97.2,480.3a4.53,4.53,0,0,1-1.2-3.5V352H338.48l-40.64-32H96V256h2.5a98.65,98.65,0,0,0,73.24-32.59C165.67,218.43,148,202,148,202A66.31,66.31,0,0,1,98.5,224.09a71.51,71.51,0,0,1-9.41-.59c-17.18-2.3-31.5-13.2-39.29-29.8-8.71-18.61-7.5-40.79,3.29-57.9l3.58-5.72-25.36-20L26,118.59C-3.59,165.8,16,229.2,64,249.41V476.8C64,496.2,78.3,512,96,512H541.66l-40.6-32ZM522,32l64.91,103.59a61,61,0,0,1,3.29,57.91c-7.79,16.59-22.11,27.5-39.29,29.8a73.26,73.26,0,0,1-9.41.61,66.35,66.35,0,0,1-50-22.5L467.7,175l-23.79,26.59a66.37,66.37,0,0,1-50,22.5,67.35,67.35,0,0,1-12.76-1.33l37.68,29.67a99.3,99.3,0,0,0,48.67-29.52A99.14,99.14,0,0,0,541.41,256h2.5v64H504.64L576,376.2V249.41c48-20.21,67.59-83.61,38-130.82L549.09,15A32,32,0,0,0,522,0H118a31.92,31.92,0,0,0-14.92,3.78L138.91,32ZM637,485.32,23,1.8A7.88,7.88,0,0,0,11.77,3l-10,12.5A7.94,7.94,0,0,0,3,26.71L617,510.23A8,8,0,0,0,628.2,509l10-12.5A7.86,7.86,0,0,0,637,485.32Z"/></svg>