<svg xmlns="http://www.w3.org/2000/svg" viewBox="0 0 512 512"><!-- Font Awesome Pro 5.15.4 by @fontawesome - https://fontawesome.com License - https://fontawesome.com/license (Commercial License) --><path d="M368 360.15v30.87c62.27 8.42 104 23.6 104 40.99 0 26.51-96.71 48-216 48S40 458.51 40 432c0-17.38 41.73-32.56 104-40.99v-30.87C58.82 373.14 0 400.39 0 432c0 44.18 114.62 80 256 80s256-35.82 256-80c0-31.61-58.82-58.86-144-71.85zM176 320v80c0 26.47 21.53 48 48 48h64c26.47 0 48-21.53 48-48v-80c26.47 0 48-21.53 48-48v-64c0-34.53-22.11-63.75-52.82-74.93C339.14 119.84 344 104.54 344 88c0-48.52-39.48-88-88-88s-88 39.48-88 88c0 16.54 4.86 31.84 12.82 45.07C150.11 144.25 128 173.47 128 208v64c0 26.47 21.53 48 48 48zm80-288c30.93 0 56 25.07 56 56s-25.07 56-56 56-56-25.07-56-56 25.07-56 56-56zm-96 176c0-25.76 20.44-46.68 45.93-47.79C220.17 170.11 237.38 176 256 176s35.83-5.89 50.07-15.79C331.56 161.32 352 182.24 352 208v64c0 8.83-7.19 16-16 16h-32v112c0 8.83-7.19 16-16 16h-64c-8.81 0-16-7.17-16-16V288h-32c-8.81 0-16-7.17-16-16v-64z"/></svg>