<svg xmlns="http://www.w3.org/2000/svg" viewBox="0 0 512 512"><!-- Font Awesome Pro 5.15.4 by @fontawesome - https://fontawesome.com License - https://fontawesome.com/license (Commercial License) --><path d="M361.36 320a72.48 72.48 0 0 1 21 68.24c-4.86 23-21.55 42.13-43.07 51.52a98.75 98.75 0 0 1-39.35 8.24H234a78.37 78.37 0 0 1-74.58-53.5 8.07 8.07 0 0 0-9.43-5.56l-15.65 3.65a8 8 0 0 0-6 10A110.28 110.28 0 0 0 234 480h66a130.93 130.93 0 0 0 52.12-10.91c33.54-14.6 58.16-46.18 63-82.44A104.52 104.52 0 0 0 401.79 320zm-192.11-96h68.28l-39.37-19.61c-24.78-12.33-40-37.46-39.29-66.71a72.2 72.2 0 0 1 40.23-63.34A98.53 98.53 0 0 1 242.91 64h47.86a108.83 108.83 0 0 1 95.51 56.91 8 8 0 0 0 10.33 3.69l14.6-6.62a8.06 8.06 0 0 0 3.92-11A140.86 140.86 0 0 0 290.77 32h-47.86a130.84 130.84 0 0 0-58.16 13.73c-35.72 17.86-57.9 53.82-57.9 95.21a102.1 102.1 0 0 0 42.4 83.06zM504 256H8a8 8 0 0 0-8 8v16a8 8 0 0 0 8 8h496a8 8 0 0 0 8-8v-16a8 8 0 0 0-8-8z"/></svg>