<svg xmlns="http://www.w3.org/2000/svg" viewBox="0 0 448 512"><!-- Font Awesome Pro 5.15.4 by @fontawesome - https://fontawesome.com License - https://fontawesome.com/license (Commercial License) --><path d="M112 384c26.51 0 48-21.49 48-48s-21.49-48-48-48-48 21.49-48 48 21.49 48 48 48zm0-64c8.823 0 16 7.177 16 16s-7.177 16-16 16-16-7.177-16-16 7.177-16 16-16zm224 64c26.51 0 48-21.49 48-48s-21.49-48-48-48-48 21.49-48 48 21.49 48 48 48zm0-64c8.823 0 16 7.177 16 16s-7.177 16-16 16-16-7.177-16-16 7.177-16 16-16zM320 0H128C64 0 0 42.981 0 96v256c0 47.169 50.656 86.391 106.9 94.473l-55.285 55.285c-3.78 3.78-1.103 10.243 4.243 10.243h25.798c3.182 0 6.235-1.264 8.485-3.515L150.627 448h146.745l60.486 60.485a12.002 12.002 0 0 0 8.485 3.515h25.798c5.345 0 8.022-6.463 4.243-10.243L341.1 446.472C397.344 438.391 448 399.169 448 352V96c0-53.019-63-96-128-96zM32 128h176v96H32v-96zm384 224c0 32.299-47.552 64-96 64H128c-48.448 0-96-31.701-96-64v-96h384v96zm0-128H240v-96h176v96zM32 96c0-32.299 47.552-64 96-64h192c58.237 0 96 37.881 96 64H32z"/></svg>