<svg xmlns="http://www.w3.org/2000/svg" viewBox="0 0 512 512"><!-- Font Awesome Pro 5.15.4 by @fontawesome - https://fontawesome.com License - https://fontawesome.com/license (Commercial License) --><path d="M464 128H352V80c0-26.47-21.53-48-48-48h-96c-26.47 0-48 21.53-48 48v48H48c-26.5 0-48 21.5-48 48v256c0 26.5 21.5 48 48 48h416c26.5 0 48-21.5 48-48V176c0-26.5-21.5-48-48-48zM192 80c0-8.83 7.19-16 16-16h96c8.81 0 16 7.17 16 16v48H192V80zM96 448H48c-8.8 0-16-7.2-16-16V176c0-8.8 7.2-16 16-16h48v288zm288 0H128V160h256v288zm96-16c0 8.8-7.2 16-16 16h-48V160h48c8.8 0 16 7.2 16 16v256z"/></svg>