<svg xmlns="http://www.w3.org/2000/svg" viewBox="0 0 640 512"><!-- Font Awesome Pro 5.15.4 by @fontawesome - https://fontawesome.com License - https://fontawesome.com/license (Commercial License) --><path d="M558.2 185.6C542.1 151.5 507.4 128 468 128c-41.7 0-77.6 25.2-92.5 62.5-32.5 11.4-55.5 42.1-55.5 78.3 0 45.9 37.3 83.2 83.2 83.2h153.6c45.9 0 83.2-37.3 83.2-83.2 0-45.4-36.6-82.4-81.8-83.2zM556.8 320H403.2c-28.3 0-51.2-22.9-51.2-51.2 0-27.5 21.8-49.8 49-51 4.9-32.7 32.9-57.8 67-57.8 35.8 0 64.8 27.8 67.5 62.9 6.5-3.1 13.6-5.3 21.3-5.3 28.3 0 51.2 22.9 51.2 51.2S585.1 320 556.8 320zm-153.6 64c-.7 0-1.4-.2-2.1-.2l4.3 21.6-84.8-16.8c-6.6-1.3-12.8 1.4-16.4 6.8L256 467.2l-48.1-71.9c-3.6-5.3-9.9-8.1-16.4-6.8l-84.8 16.8 16.8-84.8c1.2-6.3-1.4-12.8-6.8-16.4L44.8 256l71.9-48.1c5.4-3.6 8-10.1 6.8-16.4l-16.8-84.8 84.8 16.8c6.5 1.3 12.8-1.5 16.4-6.8L256 44.8l48.1 71.9c3.6 5.3 9.9 8.1 16.4 6.8L428.8 102c8.7-1.7 14.3-10.1 12.6-18.8-1.7-8.7-10.1-14.4-18.8-12.6L324.8 90 269.3 7.1c-3-4.4-8-7.1-13.3-7.1s-10.3 2.7-13.3 7.1L187.2 90 89.4 70.6c-5.3-1.1-10.6.6-14.4 4.4s-5.4 9.2-4.4 14.4L90 187.2 7.1 242.7c-4.4 3-7.1 7.9-7.1 13.3s2.7 10.3 7.1 13.3L90 324.8l-19.4 97.8c-1 5.2.6 10.7 4.4 14.4 3.8 3.8 9.1 5.4 14.4 4.4l97.8-19.4 55.5 82.9c3 4.4 8 7.1 13.3 7.1s10.3-2.7 13.3-7.1l55.4-82.9 97.8 19.4c5.4 1.1 10.7-.6 14.4-4.4 3.8-3.8 5.4-9.2 4.4-14.4l-7.6-38.6h-30.5zM256 179.7c21 0 40 8.5 53.8 22.3 6.2-8.7 13.6-16.4 22-23.1-19.5-19.2-46.3-31.1-75.8-31.1-59.7 0-108.3 48.6-108.3 108.3S196.3 364.3 256 364.3c22.8 0 44-7.2 61.5-19.3-7.1-8-13.1-16.9-17.8-26.6-12.4 8.7-27.4 13.9-43.7 13.9-42.1 0-76.3-34.2-76.3-76.3s34.2-76.3 76.3-76.3z"/></svg>