<svg xmlns="http://www.w3.org/2000/svg" viewBox="0 0 640 512"><!-- Font Awesome Pro 5.15.4 by @fontawesome - https://fontawesome.com License - https://fontawesome.com/license (Commercial License) --><path d="M216 480H72c-4.4 0-8 3.6-8 8v16c0 4.4 3.6 8 8 8h144c4.4 0 8-3.6 8-8v-16c0-4.4-3.6-8-8-8zm416 0H296c-4.4 0-8 3.6-8 8v16c0 4.4 3.6 8 8 8h336c4.4 0 8-3.6 8-8v-16c0-4.4-3.6-8-8-8zm-56-56v-16c0-4.4-3.6-8-8-8H8c-4.4 0-8 3.6-8 8v16c0 4.4 3.6 8 8 8h560c4.4 0 8-3.6 8-8zm56-104.1H488c-4.4 0-8 3.6-8 8v16c0 4.4 3.6 8 8 8h144c4.4 0 8-3.6 8-8v-16c0-4.4-3.6-8-8-8zM72 352h336c4.4 0 8-3.6 8-8v-16c0-4.4-3.6-8-8-8H72c-4.4 0-8 3.6-8 8v16c0 4.4 3.6 8 8 8zm136.3-104.5c-.3 4.5 3.5 8.4 8.1 8.4h16c4.3 0 7.6-3.4 8-7.6 3.8-40.6 38.1-72.4 79.6-72.4s75.8 31.8 79.6 72.4c.4 4.2 3.7 7.6 8 7.6h16c4.6 0 8.4-3.8 8.1-8.4-4.3-57.9-52.8-103.6-111.7-103.6s-107.4 45.8-111.7 103.6zM96 255.9c2.8 0 5.7-.7 8.2-2.3l75.8-45.4c5.8-3.5 8.8-10.2 7.5-16.8l-16.8-84.9 84.8 16.8c6.5 1.3 12.8-1.4 16.4-6.8L320 44.7l48.1 71.9c3.6 5.4 9.9 8.1 16.4 6.8l84.8-16.8-16.8 84.9c-1.3 6.6 1.7 13.4 7.5 16.8l75.8 45.4c2.6 1.5 5.4 2.3 8.2 2.3 5.4 0 10.7-2.8 13.7-7.8 4.6-7.6 2.1-17.4-5.5-21.9l-66.1-39.6 19.3-97.3c1-5.2-.6-10.6-4.4-14.4s-9.1-5.5-14.4-4.4L388.8 90 333.4 7.1l-.1-.1c-.6-.9-1.4-1.4-2.1-2.1-.8-.8-1.3-1.7-2.3-2.3-1.8-1.2-3.8-2-5.8-2.4-.6-.1-1.2 0-1.8 0-1.4-.1-2.9-.3-4.3 0-2 .4-4 1.2-5.8 2.4-.9.6-1.5 1.5-2.2 2.2-.7.7-1.6 1.3-2.2 2.2l-.1.1-55.4 82.8-97.8-19.4c-5.3-1.1-10.6.6-14.4 4.4-3.8 3.8-5.4 9.2-4.4 14.4l19.3 97.3-66.1 39.6c-7.6 4.5-10.1 14.4-5.5 21.9 2.9 5.1 8.2 7.8 13.6 7.8z"/></svg>