<svg xmlns="http://www.w3.org/2000/svg" viewBox="0 0 512 512"><!-- Font Awesome Pro 5.15.4 by @fontawesome - https://fontawesome.com License - https://fontawesome.com/license (Commercial License) --><path d="M256 143.7c-61.8 0-112 50.3-112 112.1s50.2 112.1 112 112.1 112-50.3 112-112.1-50.2-112.1-112-112.1zm0 192.2c-44.1 0-80-35.9-80-80.1s35.9-80.1 80-80.1 80 35.9 80 80.1-35.9 80.1-80 80.1zm256-80.1c0-5.3-2.7-10.3-7.1-13.3L422 187l19.4-97.9c1-5.2-.6-10.7-4.4-14.4-3.8-3.8-9.1-5.5-14.4-4.4l-97.8 19.4-55.5-83c-6-8.9-20.6-8.9-26.6 0l-55.5 83-97.8-19.5c-5.3-1.1-10.6.6-14.4 4.4-3.8 3.8-5.4 9.2-4.4 14.4L90 187 7.1 242.5c-4.4 3-7.1 8-7.1 13.3 0 5.3 2.7 10.3 7.1 13.3L90 324.6l-19.4 97.9c-1 5.2.6 10.7 4.4 14.4 3.8 3.8 9.1 5.5 14.4 4.4l97.8-19.4 55.5 83c3 4.5 8 7.1 13.3 7.1s10.3-2.7 13.3-7.1l55.5-83 97.8 19.4c5.4 1.2 10.7-.6 14.4-4.4 3.8-3.8 5.4-9.2 4.4-14.4L422 324.6l82.9-55.5c4.4-3 7.1-8 7.1-13.3zm-116.7 48.1c-5.4 3.6-8 10.1-6.8 16.4l16.8 84.9-84.8-16.8c-6.6-1.4-12.8 1.4-16.4 6.8l-48.1 72-48.1-71.9c-3-4.5-8-7.1-13.3-7.1-1 0-2.1.1-3.1.3l-84.8 16.8 16.8-84.9c1.2-6.3-1.4-12.8-6.8-16.4l-71.9-48.1 71.9-48.2c5.4-3.6 8-10.1 6.8-16.4l-16.8-84.9 84.8 16.8c6.5 1.3 12.8-1.4 16.4-6.8l48.1-72 48.1 72c3.6 5.4 9.9 8.1 16.4 6.8l84.8-16.8-16.8 84.9c-1.2 6.3 1.4 12.8 6.8 16.4l71.9 48.2-71.9 48z"/></svg>