<svg xmlns="http://www.w3.org/2000/svg" viewBox="0 0 576 512"><!-- Font Awesome Pro 5.15.4 by @fontawesome - https://fontawesome.com License - https://fontawesome.com/license (Commercial License) --><path d="M107.16 305.63L48 355.73v13.55C48 403.87 76.71 432 112 432h36.09c33.3 0 61.34-25.51 63.83-58.08l3.83-50.48a216.87 216.87 0 0 0-88.37-18.92c-7.03 0-13.69.48-20.22 1.11zm467.06-25.05l-45.5-188a80 80 0 0 0-102.91-56.5L403 43.71a8 8 0 0 0-5.06 10.1L403 69a8 8 0 0 0 10.12 5.06l21.79-7.26c10.09-3.38 21.15-3.95 31.24-.49 16.13 5.57 27.57 18.13 31.5 33.85l40.6 171.43a277.85 277.85 0 0 0-89.56-15.06c-37.35 0-80.25 8-125 31.49h-71.35c-44.72-23.49-87.65-31.5-125-31.49a278.55 278.55 0 0 0-89.56 15.06l40.56-171.23a47.54 47.54 0 0 1 24.28-30.9c12.26-6.43 26.88-6.5 40-2.15l20.29 6.79A8 8 0 0 0 173 69l5.06-15.18A8 8 0 0 0 173 43.74l-22.87-7.61A79.93 79.93 0 0 0 47.25 92.78L1.81 280.58A62.68 62.68 0 0 0 0 295.64v73.64C0 430.44 50.12 480 112 480h36.09c58.6 0 107.29-44.67 111.69-102.44l4.34-57.56h47.76l4.34 57.56C320.62 435.34 369.31 480 427.91 480H464c61.88 0 112-49.56 112-110.72v-73.65a64.18 64.18 0 0 0-1.78-15.05zm-346.34 94.56C224.75 416 189.72 448 148.09 448H112c-44.12 0-80-35.31-80-78.72V308a248.65 248.65 0 0 1 95.38-19.47c36.34 0 71.62 8.43 105.15 25.14zM544 369.28c0 43.41-35.88 78.72-80 78.72h-36.09c-41.63 0-76.66-32-79.79-72.86l-4.65-61.48C377 297 412.31 288.52 448.66 288.52A248.46 248.46 0 0 1 544 308zm-115.12-63.72l-65.69 56.6.89 11.77c2.49 32.56 30.53 58.07 63.83 58.07H464c35.29 0 64-28.13 64-62.72v-50.41a233.52 233.52 0 0 0-79.34-14.35c-6.66 0-13.22.48-19.78 1.04z"/></svg>