<svg xmlns="http://www.w3.org/2000/svg" viewBox="0 0 640 512"><!-- Font Awesome Pro 5.15.4 by @fontawesome - https://fontawesome.com License - https://fontawesome.com/license (Commercial License) --><path d="M632 448h-24c-26.04 0-45.8-8.42-56.09-17.9-8.9-8.21-19.66-14.1-31.77-14.1h-16.3c-12.11 0-22.87 5.89-31.77 14.1C461.8 439.58 442.04 448 416 448s-45.8-8.42-56.09-17.9c-8.9-8.21-19.66-14.1-31.77-14.1h-16.3c-12.11 0-22.87 5.89-31.77 14.1C269.8 439.58 250.04 448 224 448s-45.8-8.42-56.09-17.9c-8.9-8.21-19.66-14.1-31.77-14.1h-16.3c-12.11 0-22.87 5.89-31.77 14.1C77.8 439.58 58.04 448 32 448H8c-4.42 0-8 3.58-8 8v16c0 4.42 3.58 8 8 8h24c38.62 0 72.72-12.19 96-31.84 23.28 19.66 57.38 31.84 96 31.84s72.72-12.19 96-31.84c23.28 19.66 57.38 31.84 96 31.84s72.72-12.19 96-31.84c23.28 19.66 57.38 31.84 96 31.84h24c4.42 0 8-3.58 8-8v-16c0-4.42-3.58-8-8-8zm-440-39.79V256h224v160c16.38 0 26.97-4.45 32-7.79V112c0-26.47 21.53-48 48-48s48 21.53 48 48v8c0 4.42 3.58 8 8 8h16c4.42 0 8-3.58 8-8v-8c0-44.11-35.88-80-80-80s-80 35.89-80 80v112H192V112c0-26.47 21.53-48 48-48s48 21.53 48 48v8c0 4.42 3.58 8 8 8h16c4.42 0 8-3.58 8-8v-8c0-44.11-35.88-80-80-80s-80 35.89-80 80v276.5c10.41 3.73 20.44 9.62 29.61 18.07.5.47 1.55 1.08 2.39 1.64z"/></svg>