<svg xmlns="http://www.w3.org/2000/svg" viewBox="0 0 512 512"><!-- Font Awesome Pro 5.15.4 by @fontawesome - https://fontawesome.com License - https://fontawesome.com/license (Commercial License) --><path d="M507.3 443.32l-55.88-55.88L486 329.91a16.007 16.007 0 0 0-2-20.19l-34.8-34.8c-6.21-6.21-16.35-6.28-22.63 0l-27.83 27.84L112 16.01 18.27.18C7.06-1.45-1.25 8.38.17 18.28L16 112.01l286.75 286.75-27.84 27.83c-6.25 6.25-6.25 16.38 0 22.63l34.8 34.79c5.4 5.4 13.86 6.22 20.19 2l57.52-34.58 55.88 55.88c6.25 6.25 16.38 6.25 22.63 0l41.37-41.37c6.25-6.24 6.25-16.38 0-22.62zM45.85 96.61L35.54 35.54 96.6 45.87 376.13 325.4l-50.74 50.74L45.85 96.61zm408.77 376.76l-63.11-63.12-68.44 41.86-14.21-14.21L437.9 308.87l14.21 14.21-41.85 68.44 63.11 63.11-18.75 18.74zM415.39 45.85l61.07-10.31-10.33 61.06-114.14 114.14 22.63 22.63L495.99 112l15.83-93.73c1.63-11.21-8.2-19.52-18.1-18.1L399.99 16 278.62 137.37 301.24 160 415.39 45.85zM237.07 426.58l-27.84-27.83 24.12-24.12L210.73 352l-24.12 24.12-50.74-50.74L160 301.25l-22.63-22.63-24.13 24.13-27.83-27.84c-6.25-6.25-16.38-6.25-22.63 0l-34.79 34.8c-5.4 5.4-6.22 13.86-2 20.19l34.58 57.52-55.89 55.89c-6.25 6.25-6.25 16.38 0 22.63l41.37 41.37c6.25 6.25 16.38 6.25 22.63 0l55.88-55.88 57.53 34.58a16.007 16.007 0 0 0 20.19-2l34.8-34.8c.87-.87 1.34-1.96 1.97-2.97-.48-2.73-.81-5.5-.81-8.33s.34-5.61.81-8.35c-.63-1.01-1.1-2.1-1.98-2.98zm-48.15 25.52l-68.44-41.85-63.11 63.11-18.75-18.75 63.12-63.11-41.86-68.44 14.21-14.21L203.13 437.9l-14.21 14.2z"/></svg>