<svg xmlns="http://www.w3.org/2000/svg" viewBox="0 0 512 512"><!-- Font Awesome Pro 5.15.4 by @fontawesome - https://fontawesome.com License - https://fontawesome.com/license (Commercial License) --><path d="M502.4353,11.9454A36.44741,36.44741,0,0,0,477.06225.0079a38.76627,38.76627,0,0,0-26.37109,9.51563L181.19507,255.39462l.541.59375H159.60913a15.99221,15.99221,0,0,0-11.31055,4.68555L15.99585,392.99814a54.63336,54.63336,0,0,0,0,77.252l25.748,25.75a54.60508,54.60508,0,0,0,77.23633,0L331.64038,283.30087c9.54492-9.54492,3.39062-25.05078-9.36914-26.71094L502.46655,61.213A36.54769,36.54769,0,0,0,502.4353,11.9454ZM38.62671,447.62509a22.648,22.648,0,0,1-.002-31.99414l65.19141-65.18945L125.58764,372.213l-81.1875,81.1875Zm57.74218,25.748a22.62382,22.62382,0,0,1-31.99414.002l-5.77539-5.77539,81.1875-81.1875,21.77149,21.77148Zm87.81446-87.81446L126.44116,327.8165l39.81641-39.81641H281.74194ZM478.8435,39.63486,279.32788,255.98837H228.033l244.1875-222.791a5.12736,5.12736,0,0,1,6.56054.29687A4.71587,4.71587,0,0,1,478.8435,39.63486Z"/></svg>