<svg xmlns="http://www.w3.org/2000/svg" viewBox="0 0 512 512"><!-- Font Awesome Pro 5.15.4 by @fontawesome - https://fontawesome.com License - https://fontawesome.com/license (Commercial License) --><path d="M502.43507,11.94728A36.44142,36.44142,0,0,0,477.06206.00781C476.80229.002,476.54253,0,476.28081,0A38.64416,38.64416,0,0,0,450.6285,9.586L196.34371,243.305,182.192,229.15328a8.00293,8.00293,0,0,0-11.31443,0L159.56312,240.4697a7.9971,7.9971,0,0,0,.00195,11.31251l5.65564,5.65566-56.56828,56.56844-1.17578-1.17579a7.99588,7.99588,0,0,0-11.30858,0l-80.1698,80.1759a54.62117,54.62117,0,0,0,0,77.2462l25.75,25.75a54.61844,54.61844,0,0,0,77.244-.00195l80.16981-80.1759a7.99594,7.99594,0,0,0,0-11.30861l56.56828-56.56844,5.65759,5.65761a7.99882,7.99882,0,0,0,11.31248.002l11.31444-11.31642a7.99713,7.99713,0,0,0,0-11.31252l-15.34508-15.34512L502.46632,61.21884A36.55287,36.55287,0,0,0,502.43507,11.94728ZM96.36534,473.37372a22.64678,22.64678,0,0,1-31.99019.00391l-25.75-25.75394a22.62156,22.62156,0,0,1,.00195-31.99224l63.19718-63.19931,6.82811,6.83009,45.2558,45.254,5.65428,5.65626Zm80.16981-91.4845-45.25384-45.254,11.31248-11.31447,45.25579,45.25592Zm22.62692-22.627-45.25384-45.25592,11.31248-11.31252,45.25579,45.254Zm22.62692-22.627-45.25384-45.25593,11.31443-11.31251,45.25384,45.254ZM478.90385,39.56646,246.02333,292.98675l-27.03317-27.0352L472.09136,33.32036a6.83032,6.83032,0,0,1,3.86523-1.31445,4.39513,4.39513,0,0,1,2.82812,1.498A4.47664,4.47664,0,0,1,478.90385,39.56646Z"/></svg>