<svg xmlns="http://www.w3.org/2000/svg" viewBox="0 0 512 512"><!-- Font Awesome Pro 5.15.4 by @fontawesome - https://fontawesome.com License - https://fontawesome.com/license (Commercial License) --><path d="M496.04 0c-.76 0-1.53.05-2.31.17L400 16 165.26 250.74l-39.15-39.15a15.887 15.887 0 0 0-11.31-4.68c-4.09 0-8.19 1.56-11.31 4.68l-34.79 34.8a16.005 16.005 0 0 0-2 20.19l45.9 68.84-39.79 39.79-16.76-8.38a13.82 13.82 0 0 0-6.21-1.47c-3.61 0-7.16 1.4-9.83 4.07L4.07 405.36c-5.42 5.43-5.42 14.22 0 19.64L87 507.93c2.71 2.71 6.27 4.07 9.82 4.07 3.55 0 7.11-1.36 9.82-4.07L142.57 472a13.889 13.889 0 0 0 2.6-16.03l-8.38-16.76 39.78-39.78 68.84 45.9c2.71 1.8 5.8 2.68 8.87 2.68 4.13 0 8.23-1.59 11.32-4.69l34.8-34.79c6.25-6.25 6.25-16.38 0-22.63l-39.15-39.15L496 112l15.83-93.73C513.23 8.49 505.57 0 496.04 0zM266.47 397.2l-14.21 14.21-57.92-38.62-21.83-14.55-18.55 18.55-39.78 39.78-16.31 16.31 10.31 20.63 2.54 5.09-13.9 13.9-57.32-57.32 13.9-13.9 5.08 2.54 20.63 10.32 16.31-16.31 39.79-39.79 18.55-18.55-14.55-21.83-38.62-57.92 14.21-14.21L266.47 397.2zM466.15 96.6L238.63 324.11l-50.74-50.74L415.4 45.85l61.06-10.32-10.31 61.07z"/></svg>