<svg xmlns="http://www.w3.org/2000/svg" viewBox="0 0 448 512"><!-- Font Awesome Pro 5.15.4 by @fontawesome - https://fontawesome.com License - https://fontawesome.com/license (Commercial License) --><path d="M400 0H48C21.5 0 0 21.5 0 48v416c0 26.5 21.5 48 48 48h352c26.5 0 48-21.5 48-48V48c0-26.5-21.5-48-48-48zm16 464c0 8.8-7.2 16-16 16H48c-8.8 0-16-7.2-16-16V48c0-8.8 7.2-16 16-16h352c8.8 0 16 7.2 16 16v416zm-140-16H172c-6.6 0-12-5.4-12-12v-8c0-6.6 5.4-12 12-12h104c6.6 0 12 5.4 12 12v8c0 6.6-5.4 12-12 12z"/></svg>