<svg xmlns="http://www.w3.org/2000/svg" viewBox="0 0 512 512"><!-- Font Awesome Pro 5.15.4 by @fontawesome - https://fontawesome.com License - https://fontawesome.com/license (Commercial License) --><path d="M482.8 325.2c47.1-83.1 36.2-190.6-34.5-261.4C407.2 22.7 352.6 0 294.5 0c-105.8 0-153 63.1-219.3 129.5-49.2 49.3-49.2 129.6 0 179l20.2 20.3-83.6 72.6c-15.1 13.2-15.7 36.3-1.8 50.3l50.1 50.1c17.5 17.6 40.7 9.4 50.3-1.8l72.4-83.6c15.9 15.9 58.9 70.6 132.5 56.1 20.6 24 50.7 39.5 84.7 39.5 61.8 0 112-50.2 112-112 0-28.8-11.3-54.9-29.2-74.8zM163.4 86.5c72.5-72.7 189.8-72.7 262.3 0 58.9 59 69 147.8 32 218-56.7-34.4-124.3-12.3-154.5 40.1l-199-199 59.2-59.1zm17.8 282.9L82.8 479.3l-50.1-50.2 109.6-98.6-44.5-44.6c-31.2-31.3-35.6-79-13.9-115.4L290.4 377c-2 9.6-6.3 34.1 5.7 64.2-51.7 1.5-70.5-27.3-114.9-71.8zM400 480c-44.1 0-80-35.9-80-80s35.9-80 80-80 80 35.9 80 80-35.9 80-80 80z"/></svg>