<svg xmlns="http://www.w3.org/2000/svg" viewBox="0 0 576 512"><!-- Font Awesome Pro 5.15.4 by @fontawesome - https://fontawesome.com License - https://fontawesome.com/license (Commercial License) --><path d="M120 320c0 13.26-10.74 24-24 24s-24-10.74-24-24 10.74-24 24-24 24 10.74 24 24zm168-168c13.26 0 24-10.74 24-24s-10.74-24-24-24-24 10.74-24 24 10.74 24 24 24zm136 56c13.26 0 24-10.74 24-24s-10.74-24-24-24-24 10.74-24 24 10.74 24 24 24zm71.78 109.38c1.47 8.72-4.44 16.95-13.16 18.41l-131.2 21.87C348.53 390.3 321.41 416 288 416c-35.35 0-64-28.65-64-64s28.65-64 64-64c26.09 0 48.44 15.66 58.41 38.05l130.97-21.83c8.53-1.49 16.93 4.44 18.4 13.16zM320 352c0-17.67-14.33-32-32-32s-32 14.33-32 32 14.33 32 32 32 32-14.33 32-32zM152 160c-13.26 0-24 10.74-24 24s10.74 24 24 24 24-10.74 24-24-10.74-24-24-24zm424 160c0 52.8-14.25 102.26-39.06 144.8-5.61 9.62-16.3 15.2-27.44 15.2h-443c-11.14 0-21.83-5.58-27.44-15.2C14.25 422.26 0 372.8 0 320 0 160.94 128.94 32 288 32s288 128.94 288 288zm-32 0c0-141.16-114.84-256-256-256S32 178.84 32 320c0 45.26 12 89.75 34.7 128.68l442.8-.68C532 409.75 544 365.26 544 320z"/></svg>