<svg xmlns="http://www.w3.org/2000/svg" viewBox="0 0 576 512"><!-- Font Awesome Pro 5.15.4 by @fontawesome - https://fontawesome.com License - https://fontawesome.com/license (Commercial License) --><path d="M120 320c0 13.26-10.74 24-24 24s-24-10.74-24-24 10.74-24 24-24 24 10.74 24 24zm168-168c13.26 0 24-10.74 24-24s-10.74-24-24-24-24 10.74-24 24 10.74 24 24 24zm64 200c0 35.35-28.65 64-64 64s-64-28.65-64-64c0-14.26 4.82-27.3 12.71-37.94l-97.14-120c-5.56-6.86-4.5-16.94 2.38-22.5 6.88-5.55 16.97-4.5 22.5 2.38l97.09 119.94c8.09-3.69 17-5.88 26.47-5.88 35.34 0 63.99 28.65 63.99 64zm-32 0c0-17.67-14.33-32-32-32s-32 14.33-32 32 14.33 32 32 32 32-14.33 32-32zm256-32c0 52.8-14.25 102.26-39.06 144.8-5.61 9.62-16.3 15.2-27.44 15.2h-443c-11.14 0-21.83-5.58-27.44-15.2C14.25 422.26 0 372.8 0 320 0 160.94 128.94 32 288 32s288 128.94 288 288zm-32 0c0-141.16-114.84-256-256-256S32 178.84 32 320c0 45.26 12 89.75 34.7 128.68l442.8-.68C532 409.75 544 365.26 544 320zM424 160c-13.26 0-24 10.74-24 24s10.74 24 24 24 24-10.74 24-24-10.74-24-24-24zm56 136c-13.26 0-24 10.74-24 24s10.74 24 24 24 24-10.74 24-24-10.74-24-24-24z"/></svg>