<svg xmlns="http://www.w3.org/2000/svg" viewBox="0 0 576 512"><!-- Font Awesome Pro 5.15.4 by @fontawesome - https://fontawesome.com License - https://fontawesome.com/license (Commercial License) --><path d="M411.56 173.94l-97.09 119.94c-8.09-3.69-17-5.88-26.47-5.88-35.35 0-64 28.65-64 64s28.65 64 64 64 64-28.65 64-64c0-14.26-4.82-27.3-12.71-37.94l97.14-120c5.56-6.86 4.5-16.94-2.38-22.5-6.89-5.54-16.93-4.5-22.49 2.38zM288 384c-17.67 0-32-14.33-32-32s14.33-32 32-32 32 14.33 32 32-14.33 32-32 32zm0-352C128.94 32 0 160.94 0 320c0 52.8 14.25 102.26 39.06 144.8 5.61 9.62 16.3 15.2 27.44 15.2h443c11.14 0 21.83-5.58 27.44-15.2C561.75 422.26 576 372.8 576 320c0-159.06-128.94-288-288-288zm221.5 416l-442.8.68C44 409.75 32 365.26 32 320 32 178.84 146.84 64 288 64s256 114.84 256 256c0 45.26-12 89.75-34.5 128z"/></svg>