<svg xmlns="http://www.w3.org/2000/svg" viewBox="0 0 576 512"><!-- Font Awesome Pro 5.15.4 by @fontawesome - https://fontawesome.com License - https://fontawesome.com/license (Commercial License) --><path d="M128 184c0-13.26 10.74-24 24-24s24 10.74 24 24-10.74 24-24 24-24-10.74-24-24zm160-32c13.26 0 24-10.74 24-24s-10.74-24-24-24-24 10.74-24 24 10.74 24 24 24zm288 168c0 52.8-14.25 102.26-39.06 144.8-5.61 9.62-16.3 15.2-27.44 15.2h-443c-11.14 0-21.83-5.58-27.44-15.2C14.25 422.26 0 372.8 0 320 0 160.94 128.94 32 288 32s288 128.94 288 288zm-32 0c0-141.16-114.84-256-256-256S32 178.84 32 320c0 45.26 12 89.75 34.7 128.68l442.8-.68C532 409.75 544 365.26 544 320zm-192 32c0 35.35-28.65 64-64 64-33.41 0-60.53-25.7-63.43-58.35l-131.2-21.87c-8.72-1.45-14.62-9.69-13.16-18.41s9.88-14.64 18.41-13.16l130.97 21.83C239.56 303.66 261.91 288 288 288c35.35 0 64 28.65 64 64zm-32 0c0-17.67-14.33-32-32-32s-32 14.33-32 32 14.33 32 32 32 32-14.33 32-32zm160-56c-13.26 0-24 10.74-24 24s10.74 24 24 24 24-10.74 24-24-10.74-24-24-24zm-56-136c-13.26 0-24 10.74-24 24s10.74 24 24 24 24-10.74 24-24-10.74-24-24-24z"/></svg>