<svg xmlns="http://www.w3.org/2000/svg" viewBox="0 0 576 512"><!-- Font Awesome Pro 5.15.4 by @fontawesome - https://fontawesome.com License - https://fontawesome.com/license (Commercial License) --><path d="M304 290.26V128c0-8.84-7.16-16-16-16s-16 7.16-16 16v162.26c-27.56 7.14-48 31.95-48 61.74 0 35.35 28.65 64 64 64s64-28.65 64-64c0-29.79-20.44-54.6-48-61.74zM288 384c-17.67 0-32-14.33-32-32s14.33-32 32-32 32 14.33 32 32-14.33 32-32 32zm-168-64c0 13.26-10.74 24-24 24s-24-10.74-24-24 10.74-24 24-24 24 10.74 24 24zm56-136c0 13.26-10.74 24-24 24s-24-10.74-24-24 10.74-24 24-24 24 10.74 24 24zm272 0c0 13.26-10.74 24-24 24s-24-10.74-24-24 10.74-24 24-24 24 10.74 24 24zM288 32C128.94 32 0 160.94 0 320c0 52.8 14.25 102.26 39.06 144.8 5.61 9.62 16.3 15.2 27.44 15.2h443c11.14 0 21.83-5.58 27.44-15.2C561.75 422.26 576 372.8 576 320c0-159.06-128.94-288-288-288zm221.5 416l-442.8.68C44 409.75 32 365.26 32 320 32 178.84 146.84 64 288 64s256 114.84 256 256c0 45.26-12 89.75-34.5 128zM504 320c0 13.26-10.74 24-24 24s-24-10.74-24-24 10.74-24 24-24 24 10.74 24 24z"/></svg>