<svg xmlns="http://www.w3.org/2000/svg" viewBox="0 0 576 512"><!-- Font Awesome Pro 5.15.4 by @fontawesome - https://fontawesome.com License - https://fontawesome.com/license (Commercial License) --><path d="M477.38 304.22l-130.97 21.83C336.44 303.66 314.09 288 288 288c-35.35 0-64 28.65-64 64s28.65 64 64 64c33.41 0 60.53-25.7 63.43-58.35l131.2-21.87c8.72-1.45 14.62-9.69 13.16-18.41s-9.88-14.64-18.41-13.15zM288 384c-17.67 0-32-14.33-32-32s14.33-32 32-32 32 14.33 32 32-14.33 32-32 32zm0-352C128.94 32 0 160.94 0 320c0 52.8 14.25 102.26 39.06 144.8 5.61 9.62 16.3 15.2 27.44 15.2h443c11.14 0 21.83-5.58 27.44-15.2C561.75 422.26 576 372.8 576 320c0-159.06-128.94-288-288-288zm221.5 416l-442.8.68C44 409.75 32 365.26 32 320 32 178.84 146.84 64 288 64s256 114.84 256 256c0 45.26-12 89.75-34.5 128z"/></svg>