<svg xmlns="http://www.w3.org/2000/svg" viewBox="0 0 512 512"><!-- Font Awesome Pro 5.15.4 by @fontawesome - https://fontawesome.com License - https://fontawesome.com/license (Commercial License) --><path d="M511.47 407.64a309.9 309.9 0 0 0-14.63-62.14c7.7-19.83 1.06-27.47 7.5-49.89 5.32-18.45 12.55-43.48 3-69.58-10.11-27.73-33.39-41.74-48.79-51-3.35-2-8.64-5.19-11.12-7.13-.87-2.68-2.43-10.2-3.43-14.9-4.11-19.32-9.73-45.75-31.76-63.74-20.51-16.74-44.58-16.74-52.49-16.74-11.43 0-21.5 1.41-29.26 1.34C316.54 62.7 293.75 32 257.42 32c-37.66 0-64.67 32.84-75.88 41.86-8.22.07-17.45-1.35-29.26-1.35h-.11c-8 0-32 .08-52.38 16.75-22 18-27.66 44.41-31.76 63.71-1 4.47-2.44 11.52-3.66 15-2.57 2-7.64 5-10.86 6.94-15.45 9.33-38.73 23.34-48.85 51.09-9.54 26.06-2.32 51.08 3 69.35 6.47 22.56-.11 30.37 7.55 50.09a310.2 310.2 0 0 0-14.68 62.2C-3.86 442.58 21 480 60.49 480h391c39.51 0 64.38-37.34 59.98-72.36zm-60 40.36h-391c-17.11 0-30.62-17.19-28.21-36.38C47.87 287.47 142.09 192 256 192s208.13 95.47 223.72 219.62c2.41 19.19-11.1 36.38-28.21 36.38zm21-156c-46.43-79.73-127-132-216.52-132S85.92 212.27 39.49 292c-3.65-15.68-11.61-36.31-4.77-55C41 219.83 56.38 210.56 70 202.38c22.08-13.26 23.44-14.83 29.35-42.75 3.46-16.27 7.39-34.73 20.69-45.58 9.49-7.75 20.91-9.54 32.26-9.54 39.31 0 35.55 8 60.68-16C231.39 70.81 245.37 64 257.42 64c15.25 0 27.42 10.9 41.62 24.51 25.13 24.08 21.36 16 60.69 16 11.34 0 22.77 1.79 32.26 9.53 13.3 10.86 17.23 29.31 20.69 45.58 5.91 27.91 7.25 29.48 29.34 42.75 13.6 8.19 29 17.46 35.26 34.61 5.72 15.58 1.56 28.02-4.76 55.02zM112 352a16 16 0 1 0 16 16 16 16 0 0 0-16-16zm64-64a16 16 0 1 0 16 16 16 16 0 0 0-16-16z"/></svg>