<svg xmlns="http://www.w3.org/2000/svg" viewBox="0 0 448 512"><!-- Font Awesome Pro 5.15.4 by @fontawesome - https://fontawesome.com License - https://fontawesome.com/license (Commercial License) --><path d="M368 0H24A23.94 23.94 0 0 0 0 24v368a24.1 24.1 0 0 0 14.9 22.2c3.6 16.1 4.4 45.6.4 65.8H12a12 12 0 0 0-12 12v8a12 12 0 0 0 12 12h372a64 64 0 0 0 64-64V80a80 80 0 0 0-80-80zm16 480H43.7a228.6 228.6 0 0 0 0-64H384a32 32 0 0 1 0 64zm32-87.12a63.33 63.33 0 0 0-32-8.88H32V32h336a48 48 0 0 1 48 48zM314.58 208l27.7-46.32a20 20 0 0 0-17.19-30.26h-56.35L241 85.16c-3.59-6.07-9.87-10.38-17-9.68a20 20 0 0 0-17.22 9.8l-27.6 46.16h-56.3a20.14 20.14 0 0 0-17.5 10.15 19.68 19.68 0 0 0 .21 20L133.42 208l-27.7 46.32a20 20 0 0 0 17.19 30.26h56.35L207 330.84a19.64 19.64 0 0 0 16.94 9.68h.06a20 20 0 0 0 17.22-9.8l27.6-46.16h56.3a20.14 20.14 0 0 0 17.5-10.15 19.68 19.68 0 0 0-.21-20zm3.48-52.58l-17.47 29.21-17.49-29.19zM224 103.38l16.8 28.06h-33.62zm-94 52.06h34.91l-17.51 29.17zm0 105.12l17.47-29.21 17.49 29.21zm94 52.06l-16.8-28.06h33.59zm31.15-52.06h-62.28L161.39 208l31.43-52.54h62.31L286.61 208zm28 0l17.45-29.17 17.46 29.17z"/></svg>