<svg xmlns="http://www.w3.org/2000/svg" viewBox="0 0 640 512"><!-- Font Awesome Pro 5.15.4 by @fontawesome - https://fontawesome.com License - https://fontawesome.com/license (Commercial License) --><path d="M576 304H64c-35.34 0-64 28.65-64 64v48c0 53.02 42.98 96 96 96h448c53.02 0 96-42.98 96-96v-48c0-35.35-28.66-64-64-64zm-112 64v-18.67c0-7.36 5.97-13.33 13.33-13.33h53.33c7.36 0 13.33 5.97 13.33 13.33v21.33c0 22.09-17.91 40-40 40s-40-17.91-40-40V368zm-128-18.29c0-7.57 6.14-13.71 13.71-13.71h68.57c7.57 0 13.71 6.14 13.71 13.71V368c0 26.51-21.49 48-48 48s-48-21.49-48-48v-18.29zm-128 0c0-7.57 6.14-13.71 13.71-13.71h68.57c7.57 0 13.71 6.14 13.71 13.71V368c0 26.51-21.49 48-48 48s-48-21.49-48-48v-18.29zm-112-.38c0-7.36 5.97-13.33 13.33-13.33h53.33c7.36 0 13.33 5.97 13.33 13.33v21.34c0 22.09-17.91 40-40 40s-40-17.91-40-40v-21.34zM608 416c0 35.29-28.71 64-64 64H96c-35.29 0-64-28.71-64-64v-48c0-17.64 14.36-32 32-32h2.23c-1.32 4.24-2.23 8.66-2.23 13.33v21.33c0 39.7 32.3 72 72 72 22.7 0 42.73-10.77 55.94-27.23C206.53 435.08 229.71 448 256 448c26.26 0 49.4-12.89 64-32.49 14.6 19.6 37.74 32.49 64 32.49 26.29 0 49.47-12.92 64.06-32.57 13.21 16.46 33.24 27.23 55.94 27.23 39.7 0 72-32.3 72-72v-21.33c0-4.67-.91-9.09-2.23-13.33H576c17.64 0 32 14.36 32 32v48zM544 0H96C42.98 0 0 42.98 0 96v80c0 35.35 28.66 64 64 64h512c35.34 0 64-28.65 64-64V96c0-53.02-42.98-96-96-96zM176 194.67c0 7.36-5.97 13.33-13.33 13.33h-53.33c-7.36 0-13.33-5.97-13.33-13.33v-21.33c0-22.09 17.91-40 40-40s40 17.91 40 40v21.33zm128-.38c0 7.57-6.14 13.71-13.71 13.71h-68.57c-7.57 0-13.71-6.14-13.71-13.71v-43.43c0-26.51 21.49-48 48-48s48 21.49 48 48v43.43zm128 0c0 7.57-6.14 13.71-13.71 13.71h-68.57c-7.57 0-13.71-6.14-13.71-13.71v-43.43c0-26.51 21.49-48 48-48s48 21.49 48 48v43.43zm112 .38c0 7.36-5.97 13.33-13.33 13.33h-53.33c-7.36 0-13.33-5.97-13.33-13.33v-21.33c0-22.09 17.91-40 40-40s40 17.91 40 40v21.33zM608 176c0 17.64-14.36 32-32 32h-2.23c1.32-4.24 2.23-8.66 2.23-13.33v-21.33c0-39.7-32.3-72-72-72-17.84 0-34.19 6.52-46.78 17.31C444.8 90.53 416.66 70.86 384 70.86c-26.14 0-49.39 12.6-64 32.05-14.61-19.45-37.86-32.05-64-32.05-32.66 0-60.8 19.67-73.22 47.78-12.59-10.79-28.94-17.31-46.78-17.31-39.7 0-72 32.3-72 72v21.33c0 4.67.91 9.09 2.23 13.33H64c-17.64 0-32-14.36-32-32V96c0-35.29 28.71-64 64-64h448c35.29 0 64 28.71 64 64v80z"/></svg>