<svg xmlns="http://www.w3.org/2000/svg" viewBox="0 0 512 512"><!-- Font Awesome Pro 5.15.4 by @fontawesome - https://fontawesome.com License - https://fontawesome.com/license (Commercial License) --><path d="M224,80A80,80,0,1,0,64,80V321.91a112,112,0,1,0,160,0ZM144,480A79.87,79.87,0,0,1,96,336.2V80a48,48,0,1,1,96,0V336.2A79.87,79.87,0,0,1,144,480Zm16-125.09V80a16,16,0,1,0-32,0V354.91a48,48,0,1,0,32,0ZM492.47,117.75,408.41,35.5a11.91,11.91,0,0,0-16.87,0l-84,82.31a13.88,13.88,0,0,0-3.56,8.55,13.82,13.82,0,0,0,3.47,8.45l5.62,5.69a11.94,11.94,0,0,0,16.91.08l54-52.74V472a8,8,0,0,0,8,8h16a8,8,0,0,0,8-8V88.06l53.94,52.36a12,12,0,0,0,16.93,0l5.63-5.67a13.83,13.83,0,0,0,3.53-8.5A13.85,13.85,0,0,0,492.47,117.75Z"/></svg>