<svg xmlns="http://www.w3.org/2000/svg" viewBox="0 0 512 512"><!-- Font Awesome Pro 5.15.4 by @fontawesome - https://fontawesome.com License - https://fontawesome.com/license (Commercial License) --><path d="M416 354.9V336c0-8.8-7.2-16-16-16s-16 7.2-16 16v18.9c-18.6 6.6-32 24.2-32 45.1 0 26.5 21.5 48 48 48s48-21.5 48-48c0-20.9-13.4-38.5-32-45.1zm64-33V80c0-44.1-35.9-80-80-80s-80 35.9-80 80v241.9c-20.3 20.8-32 48.9-32 78.1 0 61.8 50.2 112 112 112s112-50.2 112-112c0-29.2-11.7-57.4-32-78.1zM400 480c-44.1 0-80-35.9-80-80 0-25.5 12.2-48.9 32-63.8V80c0-26.5 21.5-48 48-48s48 21.5 48 48v256.2c19.8 14.8 32 38.3 32 63.8 0 44.1-35.9 80-80 80zM277.1 326c3.4-5.6 6.8-11.1 10.9-16.2v-14.2L222.9 256l65.1-39.5v-37.1L208 228v-93.3L253.7 89c3.1-3.1 3.1-8.2 0-11.3l-11.3-11.3c-3.1-3.1-8.2-3.1-11.3 0l-23 23V40c0-4.4-3.6-8-8-8h-16c-4.4 0-8 3.6-8 8v49.4l-23-23c-3.1-3.1-8.2-3.1-11.3 0l-11.3 11.3c-3.1 3.1-3.1 8.2 0 11.3l45.7 45.7V228l-77.7-46.5-16.1-62.4c-1.1-4.3-5.3-6.8-9.4-5.7l-14.9 4.1c-4.1 1.1-6.6 5.5-5.5 9.8l8.1 31.5-41.2-24.7c-3.7-2.2-8.4-.9-10.5 2.9l-8 13.9c-2.1 3.8-.9 8.7 2.8 10.9L45 186.5 14.8 195c-4.1 1.1-6.6 5.5-5.5 9.8l4 15.5c1.1 4.3 5.3 6.8 9.4 5.7l60.2-16.7 78.2 46.8-78.2 46.8-60.2-16.7c-4.1-1.1-8.3 1.4-9.4 5.7l-4 15.5c-1.1 4.3 1.3 8.7 5.5 9.8l30.3 8.4-41.2 24.5c-3.7 2.2-5 7.1-2.8 10.9l7.7 13.9c2.1 3.8 6.9 5.1 10.5 2.9l41.2-24.7-8.1 31.5c-1.1 4.3 1.3 8.7 5.5 9.8l14.9 4.1c4.1 1.1 8.3-1.4 9.4-5.7l16.1-62.4 77.7-46.5v93.3L130.3 423c-3.1 3.1-3.1 8.2 0 11.3l11.3 11.3c3.1 3.1 8.2 3.1 11.3 0l23-23V472c0 4.4 3.6 8 8 8h16c4.4 0 8-3.6 8-8v-49.4l23 23c3.1 3.1 8.2 3.1 11.3 0l11.3-11.3c3.1-3.1 3.1-8.2 0-11.3L208 377.4v-93.3l69.1 41.9z"/></svg>