<svg xmlns="http://www.w3.org/2000/svg" viewBox="0 0 496 512"><!-- Font Awesome Pro 5.15.4 by @fontawesome - https://fontawesome.com License - https://fontawesome.com/license (Commercial License) --><path d="M248 8C111.2 8 0 119.2 0 256s111.2 248 248 248 248-111.2 248-248S384.8 8 248 8zm-12.5 32.6c-5.5 9.7-9.3 20.5-9.3 32.4 0 41.3-18.5 87.6-46 115.1s-73.8 46-115 46c-12 0-22.8 3.8-32.5 9.4 6.2-109.1 93.7-196.6 202.8-202.9zm-201 246.6c4.9-12.6 16.6-21.1 30.6-21.1 50 0 104-21.8 137.6-55.4 33.6-33.6 55.4-87.7 55.4-137.7 0-14 8.4-25.7 21-30.5 94.1 13.7 168.6 88.2 182.3 182.3-4.9 12.5-16.6 20.9-30.6 21-50 0-104 21.8-137.6 55.4-33.6 33.6-55.4 87.7-55.4 137.7 0 14-8.5 25.8-21.1 30.6-94-13.7-168.5-88.2-182.2-182.3zm226 184.2c5.6-9.7 9.3-20.5 9.4-32.5 0-41.3 18.5-87.6 46-115.1s73.8-46 115-46c11.9 0 22.8-3.8 32.4-9.3-6.2 109.1-93.7 196.6-202.8 202.9z"/></svg>