<svg xmlns="http://www.w3.org/2000/svg" viewBox="0 0 576 512"><!-- Font Awesome Pro 5.15.4 by @fontawesome - https://fontawesome.com License - https://fontawesome.com/license (Commercial License) --><path d="M560 368h-64V144h64c14.31 0 21.33-17.31 11.31-27.31l-80-80a16 16 0 0 0-22.63 0l-80 80C379.36 126 384.36 144 400 144h64v224h-64c-14.31 0-21.33 17.32-11.31 27.32l80 80a16 16 0 0 0 22.63 0l80-80C580.64 386 575.64 368 560 368zM438.63 112L480 70.62 521.36 112h-82.73zM480 441.36L438.64 400h82.74zM304 32H16A16 16 0 0 0 0 48v72a8 8 0 0 0 8 8h16a8 8 0 0 0 8-8V64h112v384H72a8 8 0 0 0-8 8v16a8 8 0 0 0 8 8h176a8 8 0 0 0 8-8v-16a8 8 0 0 0-8-8h-72V64h112v56a8 8 0 0 0 8 8h16a8 8 0 0 0 8-8V48a16 16 0 0 0-16-16z"/></svg>