<svg xmlns="http://www.w3.org/2000/svg" viewBox="0 0 512 512"><!-- Font Awesome Pro 5.15.4 by @fontawesome - https://fontawesome.com License - https://fontawesome.com/license (Commercial License) --><path d="M0 80v352c0 26.51 21.49 48 48 48h416c26.51 0 48-21.49 48-48V80c0-26.51-21.49-48-48-48H48C21.49 32 0 53.49 0 80zm320-16v106.667H192V64h128zm160 245.333H352V202.667h128v106.666zm-160 0H192V202.667h128v106.666zM32 202.667h128v106.667H32V202.667zM160 64v106.667H32V80c0-8.837 7.163-16 16-16h112zM32 432v-90.667h128V448H48c-8.837 0-16-7.163-16-16zm160 16V341.333h128V448H192zm160 0V341.333h128V432c0 8.837-7.163 16-16 16H352zm128-277.333H352V64h112c8.837 0 16 7.163 16 16v90.667z"/></svg>