<svg xmlns="http://www.w3.org/2000/svg" viewBox="0 0 640 512"><!-- Font Awesome Pro 5.15.4 by @fontawesome - https://fontawesome.com License - https://fontawesome.com/license (Commercial License) --><path d="M151.06 206.02c19.34-3.41 35.78-17.86 45.16-39.67 3.47-8.12-.28-17.53-8.41-21.02-8.12-3.5-17.53.25-21.03 8.39-2.94 6.89-9.62 18.73-21.28 20.78-11.69 2.16-22.03-6.81-27.16-12.25-6.09-6.44-16.22-6.72-22.62-.69-6.44 6.06-6.75 16.19-.69 22.62 5.17 5.5 26.31 27.14 56.03 21.84zm362.78 2.12c-19.41-3.48-39.47 4.25-56.03 21.81-6.06 6.44-5.75 16.56.69 22.62 6.41 6.03 16.53 5.75 22.62-.69 5.12-5.47 15.38-14.34 27.16-12.25 11.66 2.06 18.34 13.91 21.28 20.78 3.54 8.19 13.02 11.85 21.03 8.39 8.12-3.48 11.88-12.89 8.41-21.02-9.37-21.78-25.81-36.23-45.16-39.64zm5.69 110.61c-26.31 15.94-63.06 21.23-100.88 14.58-37.81-6.67-70.53-24.23-89.81-48.2-9.15-11.34-27.25-5.52-28.41 8.7-5.25 63.08 38.69 119.08 102.19 130.27 21.1 3.72 115.04 6.5 140.62-87.45 3.77-13.83-11.24-25.35-23.71-17.9zm-111.34 73.84c-33.19-5.86-59.19-28.08-70.28-56.95 21.34 14.09 47.22 24.27 75.19 29.19 28.03 4.98 55.75 4.25 80.66-1.72-20.35 23.33-52.38 35.3-85.57 29.48zm-68.88-165.7c5.12-5.44 15.5-14.55 27.16-12.25 11.66 2.05 18.34 13.89 21.28 20.78 3.54 8.19 13.02 11.85 21.03 8.39 8.12-3.48 11.88-12.89 8.41-21.02-9.5-22.14-25.53-36.23-45.16-39.69-19.59-3.36-39.5 4.31-56.03 21.84-6.06 6.44-5.75 16.56.69 22.62 6.44 6.05 16.53 5.77 22.62-.67zM606.8 119.91c-41.73-23.22-120-58.55-227.1-56.93-5.87-33.25-28.59-53.11-54.53-57.26C301.27 1.89 277.24 0 253.32 0 176.66 0 101.02 19.47 33.2 57.21 9.03 70.65-3.92 98.72 1.05 126.9l31.73 179.96C47.01 387.58 169.11 449.3 237.23 449.3c13.85 0 23.86-1.88 43.61-11.66 2.58 2.98 62.79 74.36 121.93 74.36 68.12 0 190.22-61.71 204.45-142.44l31.73-179.96c4.97-28.17-7.98-56.24-32.15-69.69zM237.23 417.29c-57.45 0-162.04-54.21-172.94-115.99L32.57 121.34c-2.61-14.79 3.9-29.33 16.19-36.17C74.2 71.02 178.25 14.61 320.12 37.32c13.48 2.16 24.17 13.06 27.18 27.22-10.83.94-21.66 2.15-32.47 3.88-27.31 4.37-49.08 26.32-54.04 54.49L237.12 257.1c-67.24 3.06-100.25 46.03-101.65 47.78-5.53 6.89-4.44 16.97 2.44 22.5 7.9 6.32 17.79 3.41 22.5-2.44 1.02-1.27 22.34-29.55 70.95-35.12l-2.3 13.07c-6.25 35.42 8.43 74.42 32.1 109.1-10.52 4.48-16.13 5.3-23.93 5.3zm370.21-233.25L575.7 364.01C564.81 425.79 460.21 480 402.77 480c-39.05 0-86.86-50.33-99.56-65.31-31.81-37.54-47.76-77.26-42.64-106.25l31.73-179.96c2.61-14.79 13.7-26.23 27.59-28.45 142.14-22.74 246.27 33.89 271.36 47.85 12.29 6.83 18.79 21.37 16.19 36.16z"/></svg>