<svg xmlns="http://www.w3.org/2000/svg" viewBox="0 0 256 512"><!-- Font Awesome Pro 5.15.4 by @fontawesome - https://fontawesome.com License - https://fontawesome.com/license (Commercial License) --><path d="M224 96c0-53.019-42.981-96-96-96S32 42.981 32 96v203.347C12.225 321.756.166 351.136.002 383.333c-.359 70.303 56.787 128.176 127.089 128.664.299.002.61.003.909.003 70.698 0 128-57.304 128-128 0-32.459-12.088-62.09-32-84.653V96zm-96 384l-.687-.002c-52.693-.366-95.581-43.795-95.312-96.501.202-39.467 22.532-61.321 31.999-72.05V96c0-35.29 28.71-64 64-64s64 28.71 64 64v215.447c9.186 10.409 32 32.659 32 72.553 0 52.935-43.065 96-96 96zm48-96c0 26.51-21.49 48-48 48s-48-21.49-48-48c0-20.898 13.359-38.667 32-45.258V96c0-8.837 7.164-16 16-16 8.837 0 16 7.163 16 16v242.742c18.641 6.591 32 24.36 32 45.258z"/></svg>