<svg xmlns="http://www.w3.org/2000/svg" viewBox="0 0 384 512"><!-- Font Awesome Pro 5.15.4 by @fontawesome - https://fontawesome.com License - https://fontawesome.com/license (Commercial License) --><path d="M300.8 203.9L290.7 128H328c13.2 0 24-10.8 24-24V24c0-13.2-10.8-24-24-24H56C42.8 0 32 10.8 32 24v80c0 13.2 10.8 24 24 24h37.3l-10.1 75.9C34.9 231.5 0 278.4 0 335.2c0 8.8 7.2 16 16 16h160V472c0 .7.1 1.3.2 1.9l8 32c2 8 13.5 8.1 15.5 0l8-32c.2-.6.2-1.3.2-1.9V351.2h160c8.8 0 16-7.2 16-16 .1-56.8-34.8-103.7-83.1-131.3zM33.3 319.2c6.8-42.9 39.6-76.4 79.5-94.5L128 96H64V32h256v64h-64l15.3 128.8c40 18.2 72.7 51.8 79.5 94.5H33.3z"/></svg>