<svg xmlns="http://www.w3.org/2000/svg" viewBox="0 0 640 512"><!-- Font Awesome Pro 5.15.4 by @fontawesome - https://fontawesome.com License - https://fontawesome.com/license (Commercial License) --><path d="M160.3 291.7c-3.6-5.3-9.9-8.1-16.4-6.8l-56 11.1L99 240c1.2-6.4-1.4-12.8-6.8-16.4l-47.4-31.8L92.2 160c5.4-3.6 8-10.1 6.8-16.4l-11.1-56 56 11.1c6.5 1.3 12.8-1.4 16.4-6.8L192 44.4l31.8 47.5c3.6 5.3 10 8.1 16.4 6.8L319.6 83c8.7-1.7 14.3-10.1 12.6-18.8-1.7-8.7-10.3-14.5-18.8-12.6l-68.9 13.6-39.2-58.5c-5.9-8.9-20.6-8.9-26.6 0l-39.1 58.5-69-13.7c-5.3-1.1-10.7.6-14.4 4.4-3.8 3.8-5.4 9.2-4.4 14.5l13.7 69-58.4 39.1c-4.4 3-7.1 7.9-7.1 13.3 0 5.3 2.7 10.3 7.1 13.3l58.4 39.1-13.7 69c-1 5.3.6 10.7 4.4 14.5 3.8 3.8 9 5.5 14.4 4.4l68.9-13.7 39.1 58.5c3.1 4.6 8.2 7.1 13.3 7.1 3.1 0 6.2-.9 8.9-2.7 7.3-4.9 9.3-14.9 4.4-22.2l-44.9-67.4zM192 140c26.4 0 48 20 51.1 45.6 4.8-3.6 9.8-6.9 15.1-9.9 1.5-8.4 3.9-16.5 6.8-24.3-14.3-25.7-41.5-43.4-73-43.4-46.2 0-83.7 37.6-83.7 83.8s37.5 83.8 83.7 83.8c.3 0 .6-.1.9-.1 1.1-11.4 3.7-22.4 7.7-32.8-2.8.5-5.6.9-8.5.9-28.5 0-51.7-23.2-51.7-51.7-.1-28.6 23.1-51.9 51.6-51.9zm336 164h-59.5l11-44.1c1.2-4.8.1-9.8-2.9-13.7-3-3.9-7.7-6.2-12.6-6.2h-80c-7.3 0-13.8 5-15.5 12.1l-32 128C334 390.3 341.7 400 352 400h61.6l-13.4 93.7c-1.6 11.1 7.7 18.2 15.8 18.2 8.5 0 12.7-6.2 13.6-7.6 3.4-5.3 111.9-175.8 111.9-175.8 6.8-10.7-1-24.5-13.5-24.5zm-85.7 121.2l5.6-38.9c.7-4.6-.7-9.2-3.8-12.7-3-3.5-7.5-5.5-12.1-5.5h-59.5l24-96h47l-11 44.1c-2.5 10.2 5.2 19.9 15.5 19.9h50.8c-24.1 37.9-42.6 66.9-56.5 89.1zm133-227.9C570 158.2 536.5 128 496 128c-8.6 0-17 1.4-25.2 4.3-19.7-23-48.2-36.3-78.8-36.3-56.5 0-102.7 45.3-104 101.6-37.8 13.3-64 49.3-64 90.4 0 47.5 34.8 86.8 80.1 94.4.1-3.4.5-6.7 1.3-10.1l5.3-21.3c-30.9-4.5-54.8-30.9-54.8-63.1 0-30.6 21.8-57 52-62.8l14.5-2.8-2-18c-.2-1.5-.4-2.9-.4-4.4 0-39.7 32.3-72 72-72 24.3 0 46.8 12.2 60.2 32.7l8.1 12.4 13-7.1c32.7-17.8 70.7 8.2 70.8 40.4l-.2 16.2 12.8 2.6c29.8 6 51.3 32.3 51.3 62.7 0 27-16.9 50-40.5 59.4-2.8 4.3-11.6 18.2-23.3 36.6 52.9-.1 95.8-43.1 95.8-96 0-41.1-26.6-77.4-64.7-90.5zM560 208.8z"/></svg>