<svg xmlns="http://www.w3.org/2000/svg" viewBox="0 0 576 512"><!-- Font Awesome Pro 5.15.4 by @fontawesome - https://fontawesome.com License - https://fontawesome.com/license (Commercial License) --><path d="M573.9 237.5c-3.6-7.7-11.5-12.6-19.9-12.6h-1.4l-2.7.4c-6.3 1.2-12.6 1.8-18.9 1.8-54.4 0-98.7-44-98.7-98.2 0-35.2 19.2-67.9 50.1-85.3 8.2-4.6 12.4-13.6 10.9-22.8-1.6-9.3-8.5-16.3-17.8-18C465.7.9 455.8 0 446 0c-67.1 0-124.7 41.1-148.8 99.2 10.5 2.5 20.5 6.3 29.7 11.5 19.2-45.5 64.2-77.8 116.8-78.7-27.3 24.4-43.5 59.6-43.5 96.8 0 70.7 57 128.5 127.6 130.1-22.3 18.2-50.3 28.4-79.8 28.8v.2c0 11-1.8 21.5-4.5 31.8.8 0 1.6.2 2.4.2 48.7 0 94.3-21.6 125-59.2 5.5-6.5 6.6-15.5 3-23.2zM304 304h-59.5l11-44.1c1.2-4.8.1-9.8-2.9-13.7s-7.7-6.2-12.6-6.2h-80c-7.3 0-13.8 5-15.5 12.1l-32 128C110 390.3 117.7 400 128 400h61.6l-13.4 93.7c-1.6 11.1 7.7 18.2 15.8 18.2 8.5 0 12.7-6.2 13.6-7.6 3.4-5.3 111.9-175.8 111.9-175.8 6.8-10.7-1-24.5-13.5-24.5zm-85.7 121.2l5.6-38.9c.7-4.6-.7-9.2-3.8-12.7-3-3.5-7.5-5.5-12.1-5.5h-59.5l24-96h47l-11 44.1c-2.5 10.2 5.2 19.9 15.5 19.9h50.8c-24.1 37.9-42.6 66.9-56.5 89.1zm133-227.9C346 158.2 312.5 128 272 128c-8.6 0-17 1.4-25.2 4.3-19.7-23-48.2-36.3-78.8-36.3-56.5 0-102.7 45.3-104 101.6C26.2 210.9 0 246.9 0 288c0 47.5 34.7 86.8 80.1 94.4.1-3.4.5-6.7 1.3-10.1l5.3-21.3C55.9 346.5 32 320.1 32 288c0-30.6 21.8-57 52-62.8l14.5-2.8-2-18c-.2-1.5-.4-2.9-.4-4.4 0-39.7 32.3-72 72-72 24.3 0 46.8 12.2 60.2 32.8l8.1 12.4 13-7.1c32.7-17.8 70.7 8.2 70.8 40.4l-.2 16.2 12.8 2.6c29.8 6 51.3 32.3 51.3 62.7 0 27-16.9 50-40.5 59.4-2.8 4.3-11.6 18.2-23.3 36.6 52.9-.1 95.8-43.1 95.8-96-.1-41.3-26.7-77.6-64.8-90.7z"/></svg>