<svg xmlns="http://www.w3.org/2000/svg" viewBox="0 0 576 512"><!-- Font Awesome Pro 5.15.4 by @fontawesome - https://fontawesome.com License - https://fontawesome.com/license (Commercial License) --><path d="M544 224h32V112c0-26.51-21.49-48-48-48H48C21.49 64 0 85.49 0 112v112h32c17.673 0 32 14.327 32 32s-14.327 32-32 32H0v112c0 26.51 21.49 48 48 48h480c26.51 0 48-21.49 48-48V288h-32c-17.673 0-32-14.327-32-32s14.327-32 32-32zm0 96v80c0 8.823-7.177 16-16 16H48c-8.823 0-16-7.177-16-16v-80c35.29 0 64-28.71 64-64s-28.71-64-64-64v-80c0-8.823 7.177-16 16-16h480c8.823 0 16 7.177 16 16v80c-35.29 0-64 28.71-64 64s28.71 64 64 64z"/></svg>