<svg xmlns="http://www.w3.org/2000/svg" viewBox="0 0 448 512"><!-- Font Awesome Pro 5.15.4 by @fontawesome - https://fontawesome.com License - https://fontawesome.com/license (Commercial License) --><path d="M400 32H48C21.5 32 0 53.5 0 80v352c0 26.5 21.5 48 48 48h352c26.5 0 48-21.5 48-48V80c0-26.5-21.5-48-48-48zm16 400c0 8.8-7.2 16-16 16H48c-8.8 0-16-7.2-16-16V80c0-8.8 7.2-16 16-16h352c8.8 0 16 7.2 16 16v352zm-97.2-245.3L249.5 256l69.3 69.3c4.7 4.7 4.7 12.3 0 17l-8.5 8.5c-4.7 4.7-12.3 4.7-17 0L224 281.5l-69.3 69.3c-4.7 4.7-12.3 4.7-17 0l-8.5-8.5c-4.7-4.7-4.7-12.3 0-17l69.3-69.3-69.3-69.3c-4.7-4.7-4.7-12.3 0-17l8.5-8.5c4.7-4.7 12.3-4.7 17 0l69.3 69.3 69.3-69.3c4.7-4.7 12.3-4.7 17 0l8.5 8.5c4.6 4.7 4.6 12.3 0 17z"/></svg>