<svg xmlns="http://www.w3.org/2000/svg" viewBox="0 0 576 512"><!-- Font Awesome Pro 5.15.4 by @fontawesome - https://fontawesome.com License - https://fontawesome.com/license (Commercial License) --><path d="M441.5 39.8C432.9 25.1 417.1 16 400 16H176c-17.1 0-32.9 9.1-41.5 23.8l-112 192c-8.7 14.9-8.7 33.4 0 48.4l112 192c8.6 14.7 24.4 23.8 41.5 23.8h224c17.1 0 32.9-9.1 41.5-23.8l112-192c8.7-14.9 8.7-33.4 0-48.4l-112-192zm84.3 224.3l-112 192c-2.9 4.9-8.2 7.9-13.8 7.9H176c-5.7 0-11-3-13.8-7.9l-112-192c-2.9-5-2.9-11.2 0-16.1l112-192c2.8-5 8.1-8 13.8-8h224c5.7 0 11 3 13.8 7.9l112 192c2.9 5 2.9 11.2 0 16.2zm-143 78.2l-8.5 8.5c-4.7 4.7-12.3 4.7-17 0L288 281.5l-69.3 69.3c-4.7 4.7-12.3 4.7-17 0l-8.5-8.5c-4.7-4.7-4.7-12.3 0-17l69.3-69.3-69.3-69.3c-4.7-4.7-4.7-12.3 0-17l8.5-8.5c4.7-4.7 12.3-4.7 17 0l69.3 69.3 69.3-69.3c4.7-4.7 12.3-4.7 17 0l8.5 8.5c4.7 4.7 4.7 12.3 0 17L313.5 256l69.3 69.3c4.6 4.7 4.6 12.3 0 17z"/></svg>