<svg xmlns="http://www.w3.org/2000/svg" viewBox="0 0 512 512"><!-- Font Awesome Pro 5.15.4 by @fontawesome - https://fontawesome.com License - https://fontawesome.com/license (Commercial License) --><path d="M361.5 14.1c-9-9-21.2-14.1-33.9-14.1H184.5c-12.7 0-24.9 5.1-33.9 14.1L14.1 150.5c-9 9-14.1 21.2-14.1 33.9v143.1c0 12.7 5.1 24.9 14.1 33.9l136.5 136.5c9 9 21.2 14.1 33.9 14.1h143.1c12.7 0 24.9-5.1 33.9-14.1L498 361.4c9-9 14.1-21.2 14.1-33.9v-143c0-12.7-5.1-24.9-14.1-33.9L361.5 14.1zM480 327.5c0 4.3-1.7 8.3-4.7 11.3L338.9 475.3c-3 3-7 4.7-11.3 4.7H184.5c-4.3 0-8.3-1.7-11.3-4.7L36.7 338.9c-3-3-4.7-7-4.7-11.3V184.5c0-4.3 1.7-8.3 4.7-11.3L173.1 36.7c3-3 7-4.7 11.3-4.7h143.1c4.3 0 8.3 1.7 11.3 4.7l136.5 136.5c3 3 4.7 7 4.7 11.3v143zm-129.2 14.8l-8.5 8.5c-4.7 4.7-12.3 4.7-17 0L256 281.5l-69.3 69.3c-4.7 4.7-12.3 4.7-17 0l-8.5-8.5c-4.7-4.7-4.7-12.3 0-17l69.3-69.3-69.3-69.3c-4.7-4.7-4.7-12.3 0-17l8.5-8.5c4.7-4.7 12.3-4.7 17 0l69.3 69.3 69.3-69.3c4.7-4.7 12.3-4.7 17 0l8.5 8.5c4.7 4.7 4.7 12.3 0 17L281.5 256l69.3 69.3c4.6 4.7 4.6 12.3 0 17z"/></svg>