<svg xmlns="http://www.w3.org/2000/svg" viewBox="0 0 512 512"><!-- Font Awesome Pro 5.15.4 by @fontawesome - https://fontawesome.com License - https://fontawesome.com/license (Commercial License) --><path d="M256 296.02c-13.26 0-24 10.74-24 24 0 13.25 10.74 24 24 24s24-10.75 24-24c0-13.26-10.74-24-24-24zm-7.95-24h15.9c6.87 0 12.61-5.2 13.29-12.03l10.69-149.29c.79-7.87-5.39-14.69-13.29-14.69h-37.28c-7.9 0-14.08 6.82-13.29 14.69l10.69 149.29c.68 6.82 6.43 12.03 13.29 12.03zm223.46-139.11c-11.05-18.29-16.88-37.79-16.88-56.43V40c0-22.06-17.94-40-40-40h-16c-22.06 0-40 17.94-40 40v36.48c0 36.08 10.59 72.72 30.62 105.97 17.5 29.05 26.75 62.42 26.75 96.48 0 38.15-12.41 68.63-41.48 101.94-1.73 1.99-4.34 3.12-7.14 3.12H144.62c-2.81 0-5.41-1.14-7.14-3.12C108.41 347.57 96 317.08 96 278.94c0-34.07 9.25-67.43 26.75-96.47 20.04-33.27 30.62-69.92 30.62-105.99V40c0-22.06-17.94-40-40-40h-16c-22.06 0-40 17.94-40 40v36.48c0 18.63-5.83 38.14-16.87 56.42C14 176.89 0 227.38 0 278.94c0 61.68 20.7 114.12 65.14 165.05 4.48 5.14 9.55 9.62 14.86 13.73V504c0 4.42 3.58 8 8 8h16c4.42 0 8-3.58 8-8v-29.75c10.28 3.34 20.94 5.62 32 5.69V504c0 4.42 3.58 8 8 8h16c4.42 0 8-3.58 8-8v-24h32v24c0 4.42 3.58 8 8 8h16c4.42 0 8-3.58 8-8v-24h32v24c0 4.42 3.58 8 8 8h16c4.42 0 8-3.58 8-8v-24h32v24c0 4.42 3.58 8 8 8h16c4.42 0 8-3.58 8-8v-24.07c11.06-.07 21.72-2.34 32-5.69V504c0 4.42 3.58 8 8 8h16c4.42 0 8-3.58 8-8v-46.28c5.31-4.12 10.39-8.6 14.88-13.75C491.3 393.06 512 340.62 512 278.94c0-51.55-14-102.05-40.49-146.03zm-48.76 290.04C408.88 438.88 388.69 448 367.38 448H144.62c-21.31 0-41.5-9.12-55.38-25.05C50.19 378.19 32 332.42 32 278.94c0-45.72 12.41-90.5 35.91-129.5 14.06-23.3 21.47-48.53 21.47-72.95V40c0-4.42 3.58-8 8-8h16c4.42 0 8 3.58 8 8v36.48c0 30.25-9 61.19-26.03 89.47C74.84 199.97 64 239.05 64 278.94c0 45.92 15.22 83.86 49.38 122.98 7.81 8.95 19.19 14.08 31.25 14.08h222.75c12.06 0 23.44-5.12 31.25-14.08C432.78 362.8 448 324.86 448 278.94c0-39.89-10.84-78.97-31.34-113-17.03-28.27-26.03-59.2-26.03-89.45V40c0-4.42 3.58-8 8-8h16c4.42 0 8 3.58 8 8v36.48c0 24.42 7.41 49.66 21.47 72.94 23.5 39.02 35.91 83.8 35.91 129.52-.01 53.48-18.2 99.25-57.26 144.01z"/></svg>