<svg xmlns="http://www.w3.org/2000/svg" viewBox="0 0 512 512"><!-- Font Awesome Pro 5.15.4 by @fontawesome - https://fontawesome.com License - https://fontawesome.com/license (Commercial License) --><path d="M467.12 169.93c-.32-.79-.64-1.57-.97-2.36 13.48-22.99 10.37-53.09-9.33-72.79l-39.6-39.6c-11.33-11.33-26.4-17.57-42.43-17.57-10.86 0-21.27 2.86-30.39 8.23-.78-.32-1.55-.64-2.33-.96C335.35 19.09 311.87 0 284 0h-56c-27.87 0-51.35 19.09-58.07 44.88-.78.32-1.56.64-2.33.96-9.11-5.37-19.53-8.23-30.39-8.23-16.03 0-31.1 6.24-42.43 17.58l-39.6 39.59c-19.7 19.7-22.81 49.81-9.33 72.79-.33.78-.65 1.57-.97 2.36C19.09 176.65 0 200.13 0 228v56c0 27.86 19.09 51.35 44.88 58.07.32.79.64 1.57.97 2.36-13.48 22.99-10.37 53.09 9.33 72.79l39.6 39.6c11.33 11.33 26.4 17.57 42.43 17.57 10.86 0 21.27-2.86 30.39-8.23.78.32 1.55.64 2.33.96C176.65 492.91 200.13 512 228 512h56c27.87 0 51.35-19.09 58.07-44.88l2.34-.96c9.11 5.37 19.53 8.23 30.38 8.23 16.03 0 31.09-6.24 42.43-17.57l39.6-39.6c19.7-19.7 22.81-49.8 9.33-72.79.33-.78.65-1.57.97-2.36C492.91 335.35 512 311.86 512 284v-56c0-27.87-19.09-51.35-44.88-58.07zM480 284c0 15.46-12.54 28-28 28h-8.22c-3.88 13.02-8.98 25.51-15.34 37.24l5.76 5.76c10.93 10.93 10.93 28.66 0 39.6l-39.6 39.6c-5.47 5.47-12.63 8.2-19.8 8.2s-14.33-2.73-19.8-8.2l-5.76-5.76c-11.73 6.36-24.22 11.46-37.24 15.34V452c0 15.46-12.54 28-28 28h-56c-15.46 0-28-12.54-28-28v-8.22c-13.02-3.88-25.51-8.98-37.24-15.34L157 434.2c-5.47 5.47-12.63 8.2-19.8 8.2s-14.33-2.73-19.8-8.2l-39.6-39.6c-10.93-10.93-10.93-28.66 0-39.6l5.76-5.76C77.21 337.51 72.1 325.02 68.22 312H60c-15.46 0-28-12.54-28-28v-56c0-15.46 12.54-28 28-28h8.22c3.88-13.02 8.98-25.51 15.34-37.24L77.8 157c-10.93-10.94-10.93-28.67 0-39.6l39.6-39.6c5.47-5.47 12.63-8.2 19.8-8.2s14.33 2.73 19.8 8.2l5.76 5.76C174.49 77.2 186.98 72.1 200 68.22V60c0-15.46 12.54-28 28-28h56c15.46 0 28 12.54 28 28v8.22c13.02 3.88 25.51 8.98 37.24 15.34L355 77.8c5.47-5.47 12.63-8.2 19.8-8.2s14.33 2.73 19.8 8.2l39.6 39.6c10.93 10.93 10.93 28.66 0 39.6l-5.76 5.76c6.36 11.73 11.46 24.22 15.34 37.24H452c15.46 0 28 12.54 28 28v56zM256 95.98c-88.37 0-160 71.63-160 160s71.63 160 160 160 160-71.63 160-160-71.63-160-160-160zm0 288c-70.58 0-128-57.42-128-128s57.42-128 128-128 128 57.42 128 128-57.42 128-128 128zM256 160c-13.25 0-24 10.74-24 24 0 13.25 10.75 24 24 24s24-10.75 24-24c0-13.26-10.75-24-24-24zm0 143.98c-13.25 0-24 10.74-24 24 0 13.25 10.75 24 24 24s24-10.75 24-24-10.75-24-24-24zM328 232c-13.25 0-24 10.74-24 24 0 13.25 10.75 24 24 24s24-10.75 24-24c0-13.26-10.75-24-24-24zm-144 0c-13.25 0-24 10.74-24 24 0 13.25 10.75 24 24 24s24-10.75 24-24c0-13.26-10.75-24-24-24z"/></svg>