<svg xmlns="http://www.w3.org/2000/svg" viewBox="0 0 512 512"><!-- Font Awesome Pro 5.15.4 by @fontawesome - https://fontawesome.com License - https://fontawesome.com/license (Commercial License) --><path d="M256 0C114.62 0 0 114.62 0 256s114.62 256 256 256 256-114.62 256-256S397.38 0 256 0zm0 480C132.49 480 32 379.51 32 256S132.49 32 256 32s224 100.49 224 224-100.49 224-224 224zm0-384c-88.37 0-160 71.63-160 160s71.63 160 160 160 160-71.63 160-160S344.37 96 256 96zm0 32c22.34 0 43.04 6.26 61.34 16.36l-37.57 51.71c-7.37-2.93-15.35-4.65-23.77-4.65s-16.39 1.72-23.77 4.65l-37.57-51.71c18.3-10.1 39-16.36 61.34-16.36zM128 256c0-36.74 15.77-69.67 40.64-93.03l37.82 52.06c-9.25 11.18-15.04 25.33-15.04 40.97 0 1.38.32 2.67.41 4.03l-61.4 19.95c-1.49-7.79-2.43-15.77-2.43-23.98zm112 126.38a127.631 127.631 0 0 1-99.45-72.05l61.03-19.83c8.68 13.66 22.32 23.71 38.42 27.84v64.04zm-16-126.4c0-17.67 14.33-32 32-32s32 14.33 32 32-14.33 32-32 32-32-14.32-32-32zm48 126.4v-64.04c16.1-4.13 29.74-14.17 38.42-27.84l61.03 19.83A127.631 127.631 0 0 1 272 382.38zm48.17-122.35c.09-1.36.41-2.65.41-4.03 0-15.64-5.79-29.79-15.04-40.97l37.82-52.06C368.23 186.33 384 219.26 384 256c0 8.21-.94 16.19-2.42 23.97l-61.41-19.94z"/></svg>