<svg xmlns="http://www.w3.org/2000/svg" viewBox="0 0 640 512"><!-- Font Awesome Pro 5.15.4 by @fontawesome - https://fontawesome.com License - https://fontawesome.com/license (Commercial License) --><path d="M210.64 255l-33.39 55.86a24.16 24.16 0 0 0 20.69 36.58H266l33.44 55.87A23.72 23.72 0 0 0 320 415a24.13 24.13 0 0 0 20.76-11.86l33.31-55.68h68a24.31 24.31 0 0 0 21.13-12.25 23.67 23.67 0 0 0-.28-24.15L429.35 255l33.42-55.86a24.16 24.16 0 0 0-20.7-36.58H374l-33.45-55.87A23.71 23.71 0 0 0 320.06 95a24.11 24.11 0 0 0-20.83 11.86l-33.31 55.68h-68a24.3 24.3 0 0 0-21.13 12.26 23.67 23.67 0 0 0 .28 24.12zm-4.14 63.46l21-35.24 21.1 35.24zm113.56 62.87l-20.29-33.89h40.55zm113.49-62.87H391.4l21.06-35.22zm-.06-126.92l-21 35.24-21.11-35.24zM320 128.69l20.22 33.87h-40.54zm-37.65 62.83h75.22l38 63.48-37.92 63.46h-75.23l-38-63.46zm-33.76 0l-21 35.22-21.1-35.22zM576-1c-28.32 0-51.57 13.22-60.2 32H124.2C115.57 12.22 92.32-1 64-1 28.12-1 0 20.08 0 47v416c0 26.92 28.12 48 64 48 28.32 0 51.57-13.22 60.2-32h391.6c8.63 18.78 31.88 32 60.2 32 35.88 0 64-21.08 64-48V47c0-26.92-28.12-48-64-48zM96 63v400c0 6.38-12.75 16-32 16s-32-9.62-32-16V47c0-6.37 12.75-16 32-16s32 9.63 32 16zm416 384H128V63h384zm96 16c0 6.38-12.75 16-32 16s-32-9.62-32-16V47c0-6.37 12.75-16 32-16s32 9.63 32 16z"/></svg>