<svg xmlns="http://www.w3.org/2000/svg" viewBox="0 0 512 512"><!-- Font Awesome Pro 5.15.4 by @fontawesome - https://fontawesome.com License - https://fontawesome.com/license (Commercial License) --><path d="M429.1 25.2c7.4-10.6 0-25.2-12.9-25.2h-400C7.1 0-.3 7.6 0 16.5c13.3 352.7 452 219.8 331.7 472.6-5 10.6 2.6 22.9 14.3 22.9h27.4c7.9 0 15.8-3 21.7-8.3 320.6-286.7-138.9-229.8 34-478.5zM386.7 32c-13.7 23.5-22 44.6-26.4 64H45.5C39.4 77.1 35 56 33 32h353.7zM58.4 128h298c-.1 24.5 6.8 45.5 17.2 64h-265c-19.9-17.3-37.1-38.1-50.2-64zm95.3 96h242.6c11.1 12.9 23.2 24.5 34.4 35.2 11.2 10.7 20.2 19.9 27.9 28.8H287.7c-15.9-8-32.7-15.5-49.8-23-28.6-12.6-57.5-25.3-84.2-41zm185.2 96h138.8c1.2 4.4 2.4 8.7 2.4 13.3-.2 14.4-6.8 31.4-19.1 50.7h-80.5c-1-4-1.6-8.1-3-11.9-7.9-21.2-21.5-37.9-38.6-52.1zm34.5 160h-2.9c8.9-23.3 13.2-44.4 13.6-64h53.1c-16.6 19.5-37.8 40.8-63.8 64z"/></svg>