<svg xmlns="http://www.w3.org/2000/svg" viewBox="0 0 640 512"><!-- Font Awesome Pro 5.15.4 by @fontawesome - https://fontawesome.com License - https://fontawesome.com/license (Commercial License) --><path d="M264.1 96H23.9c-6.6 0-12 5.4-12 12v15c0 6.6 5.4 12 12 12h97.7v269c0 6.6 5.4 12 12 12h20.9c6.6 0 12-5.4 12-12V135h97.7c6.6 0 12-5.4 12-12v-15c-.1-6.6-5.4-12-12.1-12zM640 403l-23.9-296c-.5-6.2-5.7-11-12-11H576c-4.8 0-9.2 2.9-11 7.3l-70.3 165.8c-7.3 17.7-15.9 43.1-15.9 43.1h-.9s-8.6-25.4-15.9-43.1l-70.3-165.8c-1.9-4.4-6.2-7.3-11-7.3h-28.1c-6.3 0-11.5 4.8-12 11l-23.9 296c-.6 7 5 13 12 13h20.7c6.3 0 11.5-4.8 12-11.1L376 214.3c1.4-19.5.9-48 .9-48h.9s10 30.8 17.2 48l60.3 137c1.9 4.4 6.2 7.2 11 7.2h24.3c4.7 0 9-2.8 11-7.1l60.7-137c7.7-17.7 17.2-47.1 17.2-47.1h.9s-.9 27.6.5 47.1l15 190.6c.5 6.2 5.7 11.1 12 11.1H628c7-.1 12.5-6.1 12-13.1z"/></svg>