<svg xmlns="http://www.w3.org/2000/svg" viewBox="0 0 416 512"><!-- Font Awesome Pro 5.15.4 by @fontawesome - https://fontawesome.com License - https://fontawesome.com/license (Commercial License) --><path d="M416 64V48h-80V28.44C336 12.73 323.27 0 307.55 0h-199.1C92.73 0 80 12.73 80 28.44V48H0v16c0 50.55 33.89 92.77 80 106.57V176H0v16c0 50.55 33.89 92.77 80 106.57V304H0v16c0 53.54 38.07 97.51 88.38 108.43C106.49 477.13 153 512 208 512s101.51-34.87 119.62-83.57C377.93 417.51 416 373.54 416 320v-16h-80v-5.43c46.11-13.8 80-56.02 80-106.57v-16h-80v-5.43c46.11-13.8 80-56.02 80-106.57zm-80 16h46.41c-5.24 25.62-23.05 46.21-46.41 56.56V80zM33.59 80H80v56.56C56.64 126.21 38.84 105.62 33.59 80zm0 128H80v56.56C56.64 254.21 38.84 233.62 33.59 208zm0 128H80v48c0 3.04.69 5.9.9 8.89-23.79-10.2-42-30.95-47.31-56.89zM304 384c0 52.93-43.06 96-96 96s-96-43.07-96-96V32h192v352zm78.41-48c-5.31 25.94-23.51 46.69-47.3 56.89.21-2.99.9-5.84.9-8.89v-48h46.4zm0-128c-5.24 25.62-23.05 46.21-46.41 56.56V208h46.41zM208 184c30.93 0 56-25.07 56-56s-25.07-56-56-56-56 25.07-56 56 25.07 56 56 56zm0-88c17.64 0 32 14.36 32 32s-14.36 32-32 32-32-14.36-32-32 14.36-32 32-32zm0 216c30.93 0 56-25.07 56-56s-25.07-56-56-56-56 25.07-56 56 25.07 56 56 56zm0-88c17.64 0 32 14.36 32 32s-14.36 32-32 32-32-14.36-32-32 14.36-32 32-32zm0 216c30.93 0 56-25.07 56-56s-25.07-56-56-56-56 25.07-56 56 25.07 56 56 56z"/></svg>