<svg xmlns="http://www.w3.org/2000/svg" viewBox="0 0 640 512"><!-- Font Awesome Pro 5.15.4 by @fontawesome - https://fontawesome.com License - https://fontawesome.com/license (Commercial License) --><path d="M632,352H544V96a32,32,0,0,0-32-32H32A32,32,0,0,0,0,96V352a32,32,0,0,0,32,32H68.58c7.59,0,13.69-5.44,15.64-12.78C96.91,323.36,140.14,288,192,288s95.09,35.36,107.78,83.22c2,7.34,8.05,12.78,15.64,12.78H632a8,8,0,0,0,8-8V360A8,8,0,0,0,632,352Zm-120,0H326.61c-19.72-55.77-72.06-96-134.61-96S77.11,296.23,57.39,352H32V96H512ZM192,320a80,80,0,1,0,80,80A80,80,0,0,0,192,320Zm0,128a48,48,0,1,1,48-48A48.05,48.05,0,0,1,192,448ZM360,320h16a8,8,0,0,0,8-8V136a8,8,0,0,0-8-8H360a8,8,0,0,0-8,8V312A8,8,0,0,0,360,320Zm96,0h16a8,8,0,0,0,8-8V136a8,8,0,0,0-8-8H456a8,8,0,0,0-8,8V312A8,8,0,0,0,456,320ZM96,136a8,8,0,0,0-8-8H72a8,8,0,0,0-8,8V279.45A177.09,177.09,0,0,1,96,252.6Zm96,0a8,8,0,0,0-8-8H168a8,8,0,0,0-8,8v91.05A175.77,175.77,0,0,1,192,224Zm96,0a8,8,0,0,0-8-8H264a8,8,0,0,0-8,8V236.18a175,175,0,0,1,32,16.42Z"/></svg>