<svg xmlns="http://www.w3.org/2000/svg" viewBox="0 0 512 512"><!-- Font Awesome Pro 5.15.4 by @fontawesome - https://fontawesome.com License - https://fontawesome.com/license (Commercial License) --><path d="M511.6 76.4c-2-8.6-10.5-13.9-19.2-11.9l-480 112c-8.6 2-14 10.6-12 19.2C2.2 203 8.7 208 16 208c1.2 0 2.4-.1 3.6-.4L240 156.2V224H64c-17.7 0-32 14.3-32 32v224c0 17.7 14.3 32 32 32h384c17.7 0 32-14.3 32-32V256c0-17.7-14.3-32-32-32H272v-75.3l227.6-53.1c8.6-2 14-10.6 12-19.2zM64 256h96v96H64v-96zm288 0h96v96h-96v-96zm96 128v96H64v-96h384zM320 256v96H192v-96h128zM176 128c26.5 0 48-21.5 48-48s-21.5-48-48-48-48 21.5-48 48 21.5 48 48 48zm0-64c8.8 0 16 7.2 16 16s-7.2 16-16 16-16-7.2-16-16 7.2-16 16-16zm128 32c26.5 0 48-21.5 48-48S330.5 0 304 0s-48 21.5-48 48 21.5 48 48 48zm0-64c8.8 0 16 7.2 16 16s-7.2 16-16 16-16-7.2-16-16 7.2-16 16-16z"/></svg>