<svg xmlns="http://www.w3.org/2000/svg" viewBox="0 0 512 512"><!-- Font Awesome Pro 5.15.4 by @fontawesome - https://fontawesome.com License - https://fontawesome.com/license (Commercial License) --><path d="M509.791,268.419l-29.78607-12.42-12.4203-29.78527a3.99315,3.99315,0,0,0-7.15451,0L448.00977,255.999l-29.78607,12.42a3.99924,3.99924,0,0,0,0,7.15433l29.78607,12.42,12.4203,29.78527a3.99471,3.99471,0,0,0,7.15451,0l12.4203-29.78527,29.78607-12.42a4.00082,4.00082,0,0,0,0-7.15433ZM93.7763,44.422l-29.78607-12.42L51.56993,2.21876a3.99314,3.99314,0,0,0-7.15451,0L31.99512,32.00208,2.20905,44.422a4.0024,4.0024,0,0,0,0,7.15628l29.78607,12.42,12.4203,29.78332a3.99314,3.99314,0,0,0,7.15451,0l12.4203-29.78332,29.78607-12.42a4.00082,4.00082,0,0,0,0-7.15628ZM352.001,416.00159v-.002H159.98535a63.99927,63.99927,0,0,0-64.002,64.00025v16.00006A15.99982,15.99982,0,0,0,111.98389,512H399.99268a16.00106,16.00106,0,0,0,16.00048-16.00006V479.99988A64.0005,64.0005,0,0,0,352.001,416.00159ZM127.98437,479.99988a32.03721,32.03721,0,0,1,32.001-32.00012H351.99121a32.03721,32.03721,0,0,1,32.001,32.00012Z"/></svg>