<svg xmlns="http://www.w3.org/2000/svg" viewBox="0 0 512 512"><!-- Font Awesome Pro 5.15.4 by @fontawesome - https://fontawesome.com License - https://fontawesome.com/license (Commercial License) --><path d="M191.99609,256V224.70117L165.90545,256Zm79.99268,128V352h-32.001v32ZM352.001,352H320v32h32.001ZM319.97851,224.66016V256h26.118ZM177.57183,167.02734A64.00122,64.00122,0,0,1,226.73934,144h58.51351a64.00476,64.00476,0,0,1,49.16556,23.02539L355.2335,192H396.891l-37.88983-45.46289a95.38141,95.38141,0,0,0-46.73971-30.17773A71.2745,71.2745,0,0,0,327.98657,72a72.08234,72.08234,0,0,0-72.0022-72h-.0332A72.08235,72.08235,0,0,0,183.949,72a71.28375,71.28375,0,0,0,15.73486,44.375A95.36539,95.36539,0,0,0,152.989,146.53906L115.10312,192h41.65752ZM255.95117,32l.01758.002.01562-.002a40,40,0,1,1,0,80l-.01562-.00195L255.95117,112a40,40,0,1,1,0-80ZM130.09186,224H88.43629c-13.88714,16.6582-14.895,26.08984-15.74071,32h32.874C107.681,250.08984,107.30406,251.3418,130.09186,224ZM320,320h32.001V309.96875A55.675,55.675,0,0,0,434.45271,288H320Zm32.001,96.002V416H159.98535a63.99914,63.99914,0,0,0-64.002,64v16a15.99979,15.99979,0,0,0,16.00049,16H399.99268a16.001,16.001,0,0,0,16.00048-16V480A64.00039,64.00039,0,0,0,352.001,416.002ZM127.98437,480a32.03716,32.03716,0,0,1,32.001-32H351.99121a32.03716,32.03716,0,0,1,32.001,32ZM381.90423,224c22.75656,27.30469,22.4128,26.0957,24.52419,32h32.87014c-.85745-5.99219-1.91607-15.41211-15.73681-32ZM159.99512,309.95508V320h32.001V288H77.54143a55.62546,55.62546,0,0,0,14.5981,19.02734,56.12409,56.12409,0,0,0,67.85559,2.92774Zm0,74.04492h32.001V352h-32.001ZM509.791,140.416l-29.78607-12.41993-12.4203-29.7832a3.99315,3.99315,0,0,0-7.15451,0l-12.4203,29.7832L418.2237,140.416a4.00079,4.00079,0,0,0,0,7.15625l29.78607,12.41992,12.4203,29.7832a3.99315,3.99315,0,0,0,7.15451,0l12.4203-29.7832L509.791,147.57227a4.00237,4.00237,0,0,0,0-7.15625ZM95.9873,48a4.37811,4.37811,0,0,0-2.211-3.57812L63.99023,32.002,51.56993,2.21875a3.99315,3.99315,0,0,0-7.15451,0L31.99512,32.002,2.20905,44.42188a4.00078,4.00078,0,0,0,0,7.15429L31.99512,63.99609l12.4203,29.78516a3.99315,3.99315,0,0,0,7.15451,0l12.4203-29.78516L93.7763,51.57617A4.38313,4.38313,0,0,0,95.9873,48Z"/></svg>