<svg xmlns="http://www.w3.org/2000/svg" viewBox="0 0 384 512"><!-- Font Awesome Pro 5.15.4 by @fontawesome - https://fontawesome.com License - https://fontawesome.com/license (Commercial License) --><path d="M160 383.1c72-8 128-69 128-143.1 0-34-11.8-65.2-31.5-89.9L352 54.6V100c0 6.6 5.4 12 12 12h8c6.6 0 12-5.4 12-12V12c0-6.6-5.4-12-12-12h-88c-6.6 0-12 5.4-12 12v8c0 6.6 5.4 12 12 12h45.4l-95.5 95.5C209.2 107.8 178 96 144 96 64.5 96 0 160.5 0 240c0 74.1 56 135.2 128 143.1V424H76c-6.6 0-12 5.4-12 12v8c0 6.6 5.4 12 12 12h52v44c0 6.6 5.4 12 12 12h8c6.6 0 12-5.4 12-12v-44h52c6.6 0 12-5.4 12-12v-8c0-6.6-5.4-12-12-12h-52v-40.9zM144 352c-61.9 0-112-50-112-112 0-61.9 50-112 112-112 61.9 0 112 50 112 112 0 61.9-50 112-112 112z"/></svg>