<svg xmlns="http://www.w3.org/2000/svg" viewBox="0 0 512 512"><!-- Font Awesome Pro 5.15.4 by @fontawesome - https://fontawesome.com License - https://fontawesome.com/license (Commercial License) --><path d="M191.99609,287.99658H77.54143a55.62634,55.62634,0,0,0,14.5981,19.02764,56.12343,56.12343,0,0,0,67.85559,2.92778v10.04507h32.001Zm63.98828-256.0039h-.0332l.01758.002Zm56.27711,84.36066a73.90664,73.90664,0,0,0,11.44566-20.35969H287.15329c-7.31663,9.48648-18.26813,16.00025-31.16892,16.00025l-.01562-.002-.01758.002c-12.90078,0-23.85229-6.51377-31.16892-16.00025H188.2284A73.92186,73.92186,0,0,0,199.68383,116.369a99.67188,99.67188,0,0,0-25.58867,11.62518H337.88922A99.67424,99.67424,0,0,0,312.26148,116.35334ZM271.98877,383.99805V351.99756h-32.001v32.00049ZM255.95117,31.99268H196.13684a71.52385,71.52385,0,0,0-11.37925,32.00048h32.81546C221.40324,45.87765,236.77285,31.99268,255.95117,31.99268Zm64.02734,192.66309v31.34032h26.118ZM352.001,351.99756H320v32.00049h32.001ZM294.3625,63.99316H327.178A71.52373,71.52373,0,0,0,315.7987,31.99268H255.98437C275.16269,31.99268,290.5323,45.87765,294.3625,63.99316Zm40.05591,103.027,20.81509,24.975H396.891l-26.66878-32.00049H327.1135A63.421,63.421,0,0,1,334.41841,167.02013ZM320,319.99707h32.001v-10.0314a55.67477,55.67477,0,0,0,82.45173-21.96909H320Zm61.90423-96.00146,20.53579,24.641a23.60865,23.60865,0,0,1,3.9884,7.35948h32.87014c-.85745-5.99228-1.91607-15.41234-15.73681-32.00048ZM159.99512,383.99805h32.001V351.99756h-32.001ZM352.001,416.00049v-.002H159.98535a63.99963,63.99963,0,0,0-64.002,64.001v16.00025A15.99991,15.99991,0,0,0,111.98389,512H399.99268a16.00115,16.00115,0,0,0,16.00048-16.00024V479.99951A64.00087,64.00087,0,0,0,352.001,416.00049Zm-224.01661,63.999a32.0374,32.0374,0,0,1,32.001-32.00049H351.99121a32.0374,32.0374,0,0,1,32.001,32.00049Zm49.58746-312.97743a63.29146,63.29146,0,0,1,7.30686-7.02745H141.7719l-26.66878,32.00049h41.65752Zm14.42426,57.67471-26.09064,31.2993h26.09064Zm-82.44,23.93982,20.53578-24.641H88.43629c-13.88714,16.65845-14.895,26.09024-15.74071,32.00048h32.874A23.60261,23.60261,0,0,1,109.55608,248.63661ZM509.791,44.42451,480.00488,32.00439,467.58458,2.21878a3.99313,3.99313,0,0,0-7.15451,0l-12.4203,29.78561L418.2237,44.42451a3.99929,3.99929,0,0,0,0,7.1544L448.00977,63.999l12.4203,29.78561a3.99469,3.99469,0,0,0,7.15451,0L480.00488,63.999,509.791,51.57891a4.00087,4.00087,0,0,0,0-7.1544ZM93.7763,364.42158,63.99023,352.00146l-12.4203-29.78365a3.99312,3.99312,0,0,0-7.15451,0l-12.4203,29.78365L2.20905,364.42158a4.00246,4.00246,0,0,0,0,7.15636l29.78607,12.42011,12.4203,29.78365a3.99312,3.99312,0,0,0,7.15451,0l12.4203-29.78365L93.7763,371.57794a4.00088,4.00088,0,0,0,0-7.15636Z"/></svg>