<svg xmlns="http://www.w3.org/2000/svg" viewBox="0 0 512 512"><!-- Font Awesome Pro 5.15.4 by @fontawesome - https://fontawesome.com License - https://fontawesome.com/license (Commercial License) --><path d="M159.99451,309.95508V320h32.00085V224.70117l-45.56372,54.65821c-5.174,6.20117-20.22514,14.34374-33.8134,3.07812a23.976,23.976,0,0,1-3.06258-33.79688l68.01549-81.61328A64.0009,64.0009,0,0,1,226.73848,144h58.51328a64.0044,64.0044,0,0,1,49.16537,23.02539l68.02135,81.61523a23.976,23.976,0,0,1-3.06258,33.79688c-13.58044,11.26953-28.47928,3.32617-33.8134-3.07812l-45.58521-54.69922V256h.02149v64h32.00085V309.96875a56.00117,56.00117,0,0,0,74.99419-81.84766l-67.994-81.584a95.381,95.381,0,0,0-46.73953-30.17773A71.27468,71.27468,0,0,0,327.98532,72,72.0822,72.0822,0,0,0,255.9834,0h-.03321a72.0822,72.0822,0,0,0-72.00192,72,71.28394,71.28394,0,0,0,15.7348,44.375,95.365,95.365,0,0,0-46.69461,30.16406L84.973,228.1543a55.97448,55.97448,0,0,0,7.16621,78.873,56.12371,56.12371,0,0,0,67.85533,2.92774ZM255.95019,32l.01758.002L255.9834,32a40,40,0,1,1,0,80l-.01563-.00195L255.95019,112a40,40,0,1,1,0-80Zm64.04859,352h32.00085V352H319.99878ZM95.98694,144a4.38058,4.38058,0,0,0-2.20905-3.57812L63.99194,128.002,51.57169,98.21875a3.99313,3.99313,0,0,0-7.15449,0L31.997,128.002,2.211,140.42188a4.00078,4.00078,0,0,0,0,7.15624l29.786,12.41993,12.42025,29.7832a3.99313,3.99313,0,0,0,7.15449,0l12.42025-29.7832,29.786-12.41993A4.39161,4.39161,0,0,0,95.98694,144ZM351.99963,416.002V416H159.98474A63.999,63.999,0,0,0,95.983,480v16a15.99975,15.99975,0,0,0,16.00043,16H399.99115a16.001,16.001,0,0,0,16.00043-16V480A64.00028,64.00028,0,0,0,351.99963,416.002ZM127.98389,480a32.03709,32.03709,0,0,1,32.00085-32H351.98987a32.03709,32.03709,0,0,1,32.00085,32ZM509.789,364.41992,480.005,352l-12.42026-29.78516a3.99471,3.99471,0,0,0-7.15644,0L448.00806,352l-29.784,12.41992a3.99921,3.99921,0,0,0,0,7.1543l29.784,12.41992,12.42025,29.78516a3.99628,3.99628,0,0,0,7.15644,0L480.005,383.99414l29.784-12.41992a3.99921,3.99921,0,0,0,0-7.1543ZM159.99451,384h32.00085V352H159.99451Zm111.99322,0V352H239.98688v32Z"/></svg>