<svg xmlns="http://www.w3.org/2000/svg" viewBox="0 0 512 512"><!-- Font Awesome Pro 5.15.4 by @fontawesome - https://fontawesome.com License - https://fontawesome.com/license (Commercial License) --><path d="M509.789,44.43164l-29.786-12.41992L467.5828,2.22656a3.99313,3.99313,0,0,0-7.15449,0L448.00806,32.01172l-29.786,12.41992a4.00079,4.00079,0,0,0,0,7.1543l29.786,12.41992L460.42831,93.791a3.9947,3.9947,0,0,0,7.15449,0l12.42025-29.78516,29.786-12.41992a3.99921,3.99921,0,0,0,0-7.1543ZM95.98694,111.99609a4.37766,4.37766,0,0,0-2.211-3.57617L63.99194,96,51.57169,66.21484a3.99471,3.99471,0,0,0-7.15644,0L31.995,96,2.211,108.41992a3.99921,3.99921,0,0,0,0,7.1543l29.784,12.41992L44.41525,157.7793a3.99628,3.99628,0,0,0,7.15644,0l12.42025-29.78516,29.784-12.41992A4.38918,4.38918,0,0,0,95.98694,111.99609Zm263.02265,34.541a95.381,95.381,0,0,0-46.73953-30.17773A71.27468,71.27468,0,0,0,327.99509,72,72.0822,72.0822,0,0,0,255.99316,0H255.96A72.0822,72.0822,0,0,0,183.958,72a71.28393,71.28393,0,0,0,15.73479,44.375,95.36491,95.36491,0,0,0-46.6946,30.16406L84.98274,228.1543a55.97446,55.97446,0,0,0,7.16621,78.873,56.12369,56.12369,0,0,0,67.85532,2.92774V416h-.00976A63.999,63.999,0,0,0,95.9928,480v16a15.99975,15.99975,0,0,0,16.00042,16h288.0077a16.001,16.001,0,0,0,16.00042-16V480a64.00028,64.00028,0,0,0-63.99194-63.998V309.96875a56.00117,56.00117,0,0,0,74.99419-81.84766ZM255.96,32l.01758.002.01562-.002a40,40,0,1,1,0,80l-.01562-.00195L255.96,112a40,40,0,1,1,0-80ZM384.00049,480H127.99365a32.03709,32.03709,0,0,1,32.00086-32H351.99963A32.03709,32.03709,0,0,1,384.00049,480Zm15.38517-197.5625a24.00925,24.00925,0,0,1-33.8134-3.07812l-45.5852-54.69922V256h.02149V416H271.9975V320H239.99664v96H192.00513V224.70117l-45.56372,54.65821a23.99729,23.99729,0,1,1-36.876-30.71876l68.01548-81.61328A64.0009,64.0009,0,0,1,226.74824,144h58.51328a64.00441,64.00441,0,0,1,49.16538,23.02539l68.02135,81.61523A23.976,23.976,0,0,1,399.38566,282.4375Z"/></svg>