<svg xmlns="http://www.w3.org/2000/svg" viewBox="0 0 448 512"><!-- Font Awesome Pro 5.15.4 by @fontawesome - https://fontawesome.com License - https://fontawesome.com/license (Commercial License) --><path d="M440 64H336l-33.6-44.8A48 48 0 0 0 264 0h-80a48 48 0 0 0-38.4 19.2L112 64H8a8 8 0 0 0-8 8v16a8 8 0 0 0 8 8h18.9l33.2 372.3a48 48 0 0 0 47.8 43.7h232.2a48 48 0 0 0 47.8-43.7L421.1 96H440a8 8 0 0 0 8-8V72a8 8 0 0 0-8-8zM171.2 38.4A16.1 16.1 0 0 1 184 32h80a16.1 16.1 0 0 1 12.8 6.4L296 64H152zm184.8 427a15.91 15.91 0 0 1-15.9 14.6H107.9A15.91 15.91 0 0 1 92 465.4L59 96h330zM155.33 288H208v120a8 8 0 0 0 8 8h16a8 8 0 0 0 8-8V288h52.66a26.94 26.94 0 0 0 25-16.72 28.38 28.38 0 0 0-5.44-30.81l-68.12-71.78c-10.69-11.19-29.51-11.2-40.19 0l-68.12 71.75a28.43 28.43 0 0 0-5.44 30.83A26.94 26.94 0 0 0 155.33 288zM224 194l58.84 62h-117.7z"/></svg>