<svg xmlns="http://www.w3.org/2000/svg" viewBox="0 0 448 512"><!-- Font Awesome Pro 5.15.4 by @fontawesome - https://fontawesome.com License - https://fontawesome.com/license (Commercial License) --><path d="M440 64H336l-33.6-44.8A48 48 0 0 0 264 0h-80a48 48 0 0 0-38.4 19.2L112 64H8a8 8 0 0 0-8 8v16a8 8 0 0 0 8 8h24v368a48 48 0 0 0 48 48h288a48 48 0 0 0 48-48V96h24a8 8 0 0 0 8-8V72a8 8 0 0 0-8-8zM171.2 38.4A16.1 16.1 0 0 1 184 32h80a16.1 16.1 0 0 1 12.8 6.4L296 64H152zM384 464a16 16 0 0 1-16 16H80a16 16 0 0 1-16-16V96h320zM155.35 288H208v120a8 8 0 0 0 8 8h16a8 8 0 0 0 8-8V288h52.66a26.94 26.94 0 0 0 25-16.72 28.38 28.38 0 0 0-5.44-30.81l-68.12-71.8c-10.69-11.19-29.51-11.2-40.19 0l-68.12 71.75a28.43 28.43 0 0 0-5.44 30.83 26.94 26.94 0 0 0 25 16.75zM224 194l58.84 62H165.16z"/></svg>