<svg xmlns="http://www.w3.org/2000/svg" viewBox="0 0 640 512"><!-- Font Awesome Pro 5.15.4 by @fontawesome - https://fontawesome.com License - https://fontawesome.com/license (Commercial License) --><path d="M464.75 64c-44.62 0-87.12 14.79-119.87 39.86C323.48 44 255.61 0 175.25 0 87.35 0 13.85 51.27.54 121.89-3.14 141.44 12.45 160 34 160h59.63L128 132.48l13.29 10.65c-.57.56-1.22 1-1.79 1.54-62.19 62.19-77.88 150.39-37.35 209.72 11 16.08 34.89 19.05 51.1 2.77l120.63-132.22c3 101.71-20.34 201.93-32.72 246.59A31.84 31.84 0 0 0 271.63 512h90.43a31.66 31.66 0 0 0 31.38-26.77c15-93 1.68-192.71-12.49-261.23h89.67L496 198.62 521.37 224H606c21.46 0 37.14-18.44 33.46-38.11C626.15 115.27 552.65 64 464.75 64zM128 91.52L82.41 128 32 127.83C42.29 73.2 103.88 32 175.25 32c53.68 0 100.35 22.88 125.34 56.57-43.22-8.29-92.35 3.48-134.31 33.55zm.59 244.82c-31.37-45.89-16.94-118.56 33.53-169 32.5-32.49 73.47-49.8 110.84-49.8a104.67 104.67 0 0 1 46.22 10.23zM362.06 480l-90.06.05c14.13-50.91 42.32-171.45 32.29-288.46l28.14-30.84C344.55 202.9 382.73 351 362.06 480zm172.56-288L496 153.38 457.37 192h-83.53c-8.77-36.44-15.86-57.13-16.15-58 27.79-24 66.41-38 107.06-38 71.37 0 133 41.2 141.25 96z"/></svg>