<svg xmlns="http://www.w3.org/2000/svg" viewBox="0 0 512 512"><!-- Font Awesome Pro 5.15.4 by @fontawesome - https://fontawesome.com License - https://fontawesome.com/license (Commercial License) --><path d="M459.94 202.98c2.69-8.86 4.06-17.89 4.06-26.98 0-52.94-43.06-96-96-96-5.75 0-11.44.53-17.09 1.56C343.94 35.45 304.03 0 256 0s-87.94 35.45-94.91 81.56A95.058 95.058 0 0 0 144 80c-52.94 0-96 43.06-96 96 0 9.09 1.38 18.12 4.06 26.98C20.34 219.17 0 251.53 0 288c0 52.94 43.06 96 96 96h112v56.45l-24.2 48.4c-5.32 10.64 2.42 23.16 14.31 23.16h115.78c11.89 0 19.63-12.52 14.31-23.16l-24.2-48.4V384h112c52.94 0 96-43.06 96-96 0-36.47-20.34-68.83-52.06-85.02zM224 480l16-32v-64h32v64l16 32h-64zm192-128H96c-35.28 0-64-28.7-64-64 0-28.12 18.28-52.59 45.47-60.88l18.16-5.53-8.53-16.97C82.41 195.25 80 185.61 80 176c0-35.3 28.72-64 64-64 14.34 0 19.95 2.94 51.16 16.98-2.9-31.7-2.28-25.42-3.16-32.98 0-35.3 28.72-64 64-64s64 28.7 63.75 66.42l-2.91 30.56C345.08 116.28 352.1 112 368 112c35.28 0 64 28.7 64 64 0 9.61-2.41 19.25-7.09 28.62l-8.53 16.97 18.16 5.53C461.72 235.41 480 259.88 480 288c0 35.3-28.72 64-64 64z"/></svg>