<svg xmlns="http://www.w3.org/2000/svg" viewBox="0 0 640 512"><!-- Font Awesome Pro 5.15.4 by @fontawesome - https://fontawesome.com License - https://fontawesome.com/license (Commercial License) --><path d="M572.4 391.4c-9-9-14.1-21.2-14.1-34v-139c0-12.7 5.1-25 14.1-34l65.2-63.6c3.1-3.1 3.1-8.2 0-11.3l-11.3-11.3c-3.1-3.1-8.2-3.1-11.3 0l-65.3 63.6c-15 15-23.4 35.4-23.4 56.6V272H480v-32c0-26.5-21.5-48-48-48h-38.9L306.4 47.6C300.7 38 290.1 32 278.9 32H152c-13.2 0-24 10.8-24 24v136H48c-26.5 0-48 21.5-48 48v96c0 21 13.5 38.6 32.3 45.2 0 1-.3 1.9-.3 2.8 0 53 43 96 96 96s96-43 96-96h64c0 53 43 96 96 96s96-43 96-96v-80h46.3v53.5c0 21.2 8.4 41.6 23.4 56.6l65.2 63.6c3.1 3.1 8.2 3.1 11.3 0l11.3-11.3c3.1-3.1 3.1-8.2 0-11.3l-65.1-63.7zM160 64h118.9l76.8 128H160V64zm-32 384c-35.3 0-64-28.7-64-64s28.7-64 64-64 64 28.7 64 64-28.7 64-64 64zm165.9-96h-75.8c-13.2-37.2-48.4-64-90.1-64-40.6 0-75.1 25.2-89.1 60.8-4.1-2.9-6.9-7.4-6.9-12.8v-96c0-8.8 7.2-16 16-16h384c8.8 0 16 7.2 16 16v72.9c-17-15.3-39.3-24.9-64-24.9-41.7 0-76.9 26.8-90.1 64zm90.1 96c-35.3 0-64-28.7-64-64s28.7-64 64-64 64 28.7 64 64-28.7 64-64 64z"/></svg>