<svg xmlns="http://www.w3.org/2000/svg" viewBox="0 0 640 512"><!-- Font Awesome Pro 5.15.4 by @fontawesome - https://fontawesome.com License - https://fontawesome.com/license (Commercial License) --><path d="M416 32h224V0H416c-35.3 0-64 28.7-64 64v307.9L5.9 480.8c-4.3 1.2-6.8 5.6-5.6 9.8L4.5 506c1.2 4.3 5.6 6.8 9.8 5.6L367.2 400H416c0 61.9 50.1 112 112 112s112-50.1 112-112-50.1-112-112-112c-50.6 0-92.8 33.9-106.7 80H384V64c0-17.6 14.4-32 32-32zm112 288c44.1 0 80 35.9 80 80s-35.9 80-80 80-80-35.9-80-80 35.9-80 80-80zM3 325.7l21.4 68.8c5.3 16.8 23.2 26.2 40 21h.1L320 336.1v-33.5L55 385l-21.4-68.8c-4-12.8 3.2-26.1 15.8-30 12.6-3.9 26.1 3.2 30 15.8l11.9 38.2 213.9-66.5-11.9-38.2c-3.9-12.6 3.1-26.1 15.8-30.1 3.7-1.1 7.3-1.3 10.8-.7v-45.3l-2.2-7c-13.1-42.1-58-65.7-100-52.7h-.1L64.9 147.3C22.7 160.4-.9 205.2 12.3 247.4l6.4 20.6C1.6 283.8-3.1 306.1 3 325.7zm71.4-147.8l152.8-47.5h.1c25.2-7.8 52.1 6.4 60 31.6l5 16.1c-24.7 11.8-37.8 40.1-29.5 67l2.4 7.6-152.8 47.5-2.4-7.6c-8.3-26.9-35.2-42.7-62.2-38.5l-5-16.1c-7.9-25.4 6.3-52.2 31.6-60.1z"/></svg>