<svg xmlns="http://www.w3.org/2000/svg" viewBox="0 0 640 512"><!-- Font Awesome Pro 5.15.4 by @fontawesome - https://fontawesome.com License - https://fontawesome.com/license (Commercial License) --><path d="M32 320h336c17.7 0 32-14.3 32-32V64c0-17.7-14.3-32-32-32H32C14.3 32 0 46.3 0 64v224c0 17.7 14.3 32 32 32zm0-256h336v224H32V64zm589.3 141.3l-58.5-58.5c-12-12-28.3-18.7-45.3-18.7H448c-8.8 0-16 7.2-16 16v208H228.7c-12.3-9.9-27.7-16-44.7-16-22.8 0-42.8 10.8-56 27.3-13.2-16.6-33.2-27.4-56-27.4-39.8 0-72 32.2-72 72s32.2 72 72 72c22.8 0 42.8-10.8 56-27.3 13.2 16.5 33.2 27.3 56 27.3 39.8 0 72-32.2 72-72 0-8.5-1.7-16.5-4.4-24h198c-2.7 13.2-2.2 27.6 2.8 42.4 8.4 25.1 29.9 44.9 55.6 51.1 52.8 12.8 100-26.9 100-77.6 0-5.5-.6-10.8-1.6-16H624c8.8 0 16-7.2 16-16V250.5c0-17-6.7-33.2-18.7-45.2zM72 448c-22.1 0-40-17.9-40-40s17.9-40 40-40 40 17.9 40 40-17.9 40-40 40zm112 0c-22.1 0-40-17.9-40-40s17.9-40 40-40 40 17.9 40 40-17.9 40-40 40zm280-288h53.5c8.5 0 16.6 3.3 22.6 9.4l54.6 54.6H464v-64zm64 288c-26.5 0-48-21.5-48-48s21.5-48 48-48 48 21.5 48 48-21.5 48-48 48zm80-96h-16.4c-14.6-19.3-37.5-32-63.6-32s-49 12.7-63.6 32h-.4v-96h144v96zm-504-96h16c4.4 0 8-3.6 8-8V104c0-4.4-3.6-8-8-8h-16c-4.4 0-8 3.6-8 8v144c0 4.4 3.6 8 8 8zm96 0h16c4.4 0 8-3.6 8-8V104c0-4.4-3.6-8-8-8h-16c-4.4 0-8 3.6-8 8v144c0 4.4 3.6 8 8 8zm96 0h16c4.4 0 8-3.6 8-8V104c0-4.4-3.6-8-8-8h-16c-4.4 0-8 3.6-8 8v144c0 4.4 3.6 8 8 8z"/></svg>