<svg xmlns="http://www.w3.org/2000/svg" viewBox="0 0 640 512"><!-- Font Awesome Pro 5.15.4 by @fontawesome - https://fontawesome.com License - https://fontawesome.com/license (Commercial License) --><path d="M100.4 414.6l213.4-68.2c16.8-5.4 26.1-23.4 20.7-40.2L276 123.3c-5.4-16.9-23.5-26.2-40.2-20.8L22.5 170.7C5.7 176-3.7 194 1.7 210.9l58.4 182.9c5.3 16.6 23.2 26.2 40.3 20.8zm53.7-252.4l19.5 61-30.4 9.8-19.5-61 30.4-9.8zm-61 19.5l29.3 91.4 91.4-29.2-29.2-91.4 60.9-19.5L304 315.9 90.6 384.1 32.2 201.2l60.9-19.5zM416 32h224V0H416c-35.3 0-64 28.7-64 64v307.9L5.9 480.8c-4.3 1.2-6.8 5.6-5.6 9.8L4.5 506c1.2 4.3 5.6 6.8 9.8 5.6L367.2 400H416c0 61.9 50.1 112 112 112s112-50.1 112-112-50.1-112-112-112c-50.6 0-92.8 33.9-106.7 80H384V64c0-17.6 14.4-32 32-32zm112 288c44.1 0 80 35.9 80 80s-35.9 80-80 80-80-35.9-80-80 35.9-80 80-80z"/></svg>