<svg xmlns="http://www.w3.org/2000/svg" viewBox="0 0 640 512"><!-- Font Awesome Pro 5.15.4 by @fontawesome - https://fontawesome.com License - https://fontawesome.com/license (Commercial License) --><path d="M617.38 65.36l-.09-.07a32.32 32.32 0 0 0-35.85 12.94c-.44.66-44.93 66.33-112.36 102-14.57 7.67-31.95 11.77-50.3 11.77h-50.36v-24a8 8 0 0 0-8-8h-16a8 8 0 0 0-8 8v24h-32v-24a8 8 0 0 0-8-8h-16a8 8 0 0 0-8 8v24h-31.8v-24a8 8 0 0 0-8-8h-16a8 8 0 0 0-8 8v24H33v-8a8 8 0 0 0-8-8H9a8 8 0 0 0-8 8v112a8 8 0 0 0 8 8h16a8 8 0 0 0 8-8v-8h48.49a103.74 103.74 0 0 0 87.25 160h239.62A103.93 103.93 0 0 0 512.2 344a100.34 100.34 0 0 0-1.83-16.84c43.6 34.41 70.73 74.07 71.1 74.63A32 32 0 0 0 608.05 416a32.85 32.85 0 0 0 9.33-1.41A31.83 31.83 0 0 0 640 384V96a31.82 31.82 0 0 0-22.62-30.64zM168.74 416a71.74 71.74 0 0 1-44.63-128h84.56v128zm71.88 0V288h31.95v128zm63.9 0V288h32v128zm103.84 0h-39.94V288h50.36a108.77 108.77 0 0 1 44 9.43A71.65 71.65 0 0 1 408.36 416zM484 271.45C464.87 261.32 442.31 256 418.78 256H33v-32h385.78c23.53 0 46.09-5.34 65.21-15.47C559.38 168.62 607.77 96.42 608 96l.16 288.25c-.39-.73-48.78-72.92-124.16-112.8z"/></svg>