<svg xmlns="http://www.w3.org/2000/svg" viewBox="0 0 512 512"><!-- Font Awesome Pro 5.15.4 by @fontawesome - https://fontawesome.com License - https://fontawesome.com/license (Commercial License) --><path d="M364 464H148c-6.6 0-12 5.4-12 12v8c0 6.6 5.4 12 12 12h216c6.6 0 12-5.4 12-12v-8c0-6.6-5.4-12-12-12zm-180-68c0 6.6 5.4 12 12 12h24c6.6 0 12-5.4 12-12v-24c0-6.6-5.4-12-12-12h-24c-6.6 0-12 5.4-12 12v24zm-48-24c0-6.6-5.4-12-12-12h-24c-6.6 0-12 5.4-12 12v24c0 6.6 5.4 12 12 12h24c6.6 0 12-5.4 12-12v-24zm-60 84H52c-6.6 0-12 5.4-12 12v24c0 6.6 5.4 12 12 12h24c6.6 0 12-5.4 12-12v-24c0-6.6-5.4-12-12-12zM52 312h24c6.6 0 12-5.4 12-12v-24c0-6.6-5.4-12-12-12H52c-6.6 0-12 5.4-12 12v24c0 6.6 5.4 12 12 12zm216-48h-24c-6.6 0-12 5.4-12 12v24c0 6.6 5.4 12 12 12h24c6.6 0 12-5.4 12-12v-24c0-6.6-5.4-12-12-12zm-96 0h-24c-6.6 0-12 5.4-12 12v24c0 6.6 5.4 12 12 12h24c6.6 0 12-5.4 12-12v-24c0-6.6-5.4-12-12-12zm288 0h-24c-6.6 0-12 5.4-12 12v24c0 6.6 5.4 12 12 12h24c6.6 0 12-5.4 12-12v-24c0-6.6-5.4-12-12-12zm42.2-161.7C366.1-34.2 145.6-33.9 9.8 102.3c-11 11-12.9 27.9-4.7 41.1l40.5 65c8.5 13.7 25.5 19.2 40.5 13.3l81-32.5c13.6-5.5 22.1-19.5 20.7-34.2l-4.3-43.2c47.2-14.5 97.9-14.5 145.1 0l-4.3 43.2c-1.5 14.7 7 28.7 20.7 34.2l81 32.5c14.9 6 31.9.4 40.5-13.3l40.5-65c8.2-13.2 6.2-30.1-4.8-41.1zm-22.4 24.1l-40.5 65c-.3.5-.9.7-1.4.5l-81-32.5c-.5-.2-.8-.7-.7-1.2l6.8-68.4c-79-28.6-137.8-27.5-213.8 0l6.8 68.4c.1.5-.2 1-.7 1.2l-81 32.5c-.5.2-1.1 0-1.4-.5l-40.5-65c-.3-.5-.2-1.1.2-1.5C156 1 356.1 1.1 479.6 124.9c.4.4.5 1.1.2 1.5zM460 456h-24c-6.6 0-12 5.4-12 12v24c0 6.6 5.4 12 12 12h24c6.6 0 12-5.4 12-12v-24c0-6.6-5.4-12-12-12zm-180-60c0 6.6 5.4 12 12 12h24c6.6 0 12-5.4 12-12v-24c0-6.6-5.4-12-12-12h-24c-6.6 0-12 5.4-12 12v24zm144-24c0-6.6-5.4-12-12-12h-24c-6.6 0-12 5.4-12 12v24c0 6.6 5.4 12 12 12h24c6.6 0 12-5.4 12-12v-24zm-60-60c6.6 0 12-5.4 12-12v-24c0-6.6-5.4-12-12-12h-24c-6.6 0-12 5.4-12 12v24c0 6.6 5.4 12 12 12h24z"/></svg>