<svg xmlns="http://www.w3.org/2000/svg" viewBox="0 0 640 512"><!-- Font Awesome Pro 5.15.4 by @fontawesome - https://fontawesome.com License - https://fontawesome.com/license (Commercial License) --><path d="M579.77 75.55c5.52-33.13-19.71-70.89-58.88-75.13-46.18-5.18-83.29 38.92-71.17 83.83 2.9 11.06.5 21.06-6.46 26.76-11.92 9.79-15 12.73-29.5 21.66C375.87 110.18 333.51 96 288.56 96 129.74 96 0 269.14 0 384s129.74 128 288.56 128 287.55-13.12 287.55-128c0-52.74-27.36-117.63-72.09-172.54 4-3.64 1.55-2.23 10-9.17 10.76-8.89 24.4-2.62 28.3-.5a64.79 64.79 0 0 0 24.27 7.62c36 4.05 69.16-22.41 73-59.79 3.73-35.33-20.59-69.71-59.82-74.07zM544.17 384c0 70.88-66.89 96-255.6 96S32 454.89 32 384c0-98.75 118-256 256.61-256 31.18 0 61.14 8.26 89 21.71-23.1 7.91-38.83 9.48-58.87 10.15-56.86 1.94-106.69 40-121.2 92.7-12 43.54-1.31 89.2 28.58 122.13A125.85 125.85 0 0 0 319.73 416c77.87 0 113.27-63.53 122.68-102 7.09-29 20.95-55.83 39.38-78.88 38.61 48.37 62.38 104.5 62.38 148.88zm13.51-210.27C480.61 131.64 419.44 273.48 411 307.89c-9.58 39.08-38.63 68.34-74 74.54-33.2 5.91-65.09-4.78-87.28-29.23-22.5-24.78-30.48-59.2-21.4-92.12 4-14.51 23.43-67 98.92-69.48C374.53 190 500.46 151.48 480.58 76a35.38 35.38 0 0 1 11.95-36.43c23.12-18.73 58.91-.63 55.6 31.46a35.05 35.05 0 0 1-5.34 15 16 16 0 0 0 19.13 23.45 33.57 33.57 0 0 1 15.29-2.08c18.94 2 32.67 19.48 30.67 38.86-2.67 25.41-29.58 38.76-50.2 27.43z"/></svg>