<svg xmlns="http://www.w3.org/2000/svg" viewBox="0 0 576 512"><!-- Font Awesome Pro 5.15.4 by @fontawesome - https://fontawesome.com License - https://fontawesome.com/license (Commercial License) --><path d="M484.59 304.5l-4.74-2.37c0-.48.15-.93.15-1.41V136a8 8 0 0 0-8-8h-16a8 8 0 0 0-8 8v152a31.57 31.57 0 0 0-34 15l.53.31c-4.59 7.27-12 21.85-27.18 52.08a32 32 0 0 0 14.31 42.92l28.62 14.31a31.78 31.78 0 0 0 14.28 3.4 32.31 32.31 0 0 0 10.19-1.66 31.78 31.78 0 0 0 18.44-16l25.66-50.91a32 32 0 0 0-14.29-42.95zm-40 79.5L416 369.73s23.59-46.79 25.78-50.78l-.13-.07v-.07l28.62 14.31zM224 232a24 24 0 1 0 24 24 24 24 0 0 0-24-24zM512 32H64A64 64 0 0 0 0 96v320a64 64 0 0 0 64 64h448a64 64 0 0 0 64-64V96a64 64 0 0 0-64-64zm32 384a32 32 0 0 1-32 32H64a32 32 0 0 1-32-32V96a32 32 0 0 1 32-32h448a32 32 0 0 1 32 32zM224 96a160 160 0 1 0 160 160A160 160 0 0 0 224 96zm0 288a128 128 0 1 1 128-128 128.14 128.14 0 0 1-128 128z"/></svg>