<svg xmlns="http://www.w3.org/2000/svg" viewBox="0 0 640 512"><!-- Font Awesome Pro 5.15.4 by @fontawesome - https://fontawesome.com License - https://fontawesome.com/license (Commercial License) --><path d="M608 0H32A32 32 0 0 0 0 32v352a32 32 0 0 0 32 32h576a32 32 0 0 0 32-32V32a32 32 0 0 0-32-32zm0 384H32V32h576zm-72 96H104a8 8 0 0 0-8 8v16a8 8 0 0 0 8 8h432a8 8 0 0 0 8-8v-16a8 8 0 0 0-8-8zM240 320c26.5 0 48-14.33 48-32V179.16l96-37.52V226a69.89 69.89 0 0 0-16-2c-26.5 0-48 14.33-48 32s21.5 32 48 32 48-14.33 48-32V112a16 16 0 0 0-20.81-15.25l-128 47.25A16 16 0 0 0 256 159.25V258a69.89 69.89 0 0 0-16-2c-26.5 0-48 14.33-48 32s21.5 32 48 32z"/></svg>