<svg xmlns="http://www.w3.org/2000/svg" viewBox="0 0 512 512"><!-- Font Awesome Pro 5.15.4 by @fontawesome - https://fontawesome.com License - https://fontawesome.com/license (Commercial License) --><path d="M312 384h16a8 8 0 0 0 8-8v-16a8 8 0 0 0-8-8h-16a8 8 0 0 0-8 8v16a8 8 0 0 0 8 8zm64 0h16a8 8 0 0 0 8-8v-16a8 8 0 0 0-8-8h-16a8 8 0 0 0-8 8v16a8 8 0 0 0 8 8zm-256 0h16a8 8 0 0 0 8-8v-16a8 8 0 0 0-8-8h-16a8 8 0 0 0-8 8v16a8 8 0 0 0 8 8zm360-192h-32v-82.73a32.07 32.07 0 0 0-9.38-22.65L361.38 9.38A32 32 0 0 0 338.75 0H112a48 48 0 0 0-48 48v144H32a32 32 0 0 0-32 32v64a32 32 0 0 0 32 32v128a64 64 0 0 0 64 64h320a64 64 0 0 0 64-64V320a32 32 0 0 0 32-32v-64a32 32 0 0 0-32-32zM352 45.25L402.75 96H352zM96 48a16 16 0 0 1 16-16h208v64a32 32 0 0 0 32 32h64v64h-50.75a32 32 0 0 0-22.62 9.37l-13.26 13.26a32 32 0 0 1-22.62 9.37h-101.5a32 32 0 0 1-22.62-9.37l-13.26-13.26a32 32 0 0 0-22.62-9.37H96zm352 400a32 32 0 0 1-32 32H96a32 32 0 0 1-32-32V320h384zm32-160H32v-64h114.75L160 237.25A63.58 63.58 0 0 0 205.25 256h101.5A63.58 63.58 0 0 0 352 237.25L365.25 224H480zM144 440a8 8 0 0 0 8 8h208a8 8 0 0 0 8-8v-16a8 8 0 0 0-8-8H152a8 8 0 0 0-8 8zm40-56h16a8 8 0 0 0 8-8v-16a8 8 0 0 0-8-8h-16a8 8 0 0 0-8 8v16a8 8 0 0 0 8 8zm64 0h16a8 8 0 0 0 8-8v-16a8 8 0 0 0-8-8h-16a8 8 0 0 0-8 8v16a8 8 0 0 0 8 8z"/></svg>