<svg xmlns="http://www.w3.org/2000/svg" viewBox="0 0 640 512"><!-- Font Awesome Pro 5.15.4 by @fontawesome - https://fontawesome.com License - https://fontawesome.com/license (Commercial License) --><path d="M320,216.00007a24,24,0,1,0,24,24A23.99993,23.99993,0,0,0,320,216.00007Zm-168-32a24,24,0,1,0,24,24A23.99993,23.99993,0,0,0,152,184.00007Zm336,0a24,24,0,1,0,24,24A23.99993,23.99993,0,0,0,488,184.00007Zm120,24c0-40.92969-56.92578-76.45312-141.21875-95.98633C449.06445,47.33015,389.36523.00007,320,.00007S190.93555,47.33015,173.21875,112.01374C88.92578,131.547,32,167.07038,32,208.00007c0,61.85547,128.94141,112,288,112S608,269.85554,608,208.00007Zm-288-176a119.89847,119.89847,0,0,1,119.79883,110.957c-35.75586,10.84571-76.4961,17.043-119.79883,17.043s-84.043-6.19726-119.79883-17.043A119.89847,119.89847,0,0,1,320,32.00007Zm0,256c-165.64062,0-256-52.84765-256-80,0-17.13672,36.58008-44.332,104.79492-62.1875,1.17774,12.77539,9.51172,23.94336,22.11719,27.76758C231.209,185.80281,274.64062,192.00007,320,192.00007s88.791-6.19726,129.08789-18.41992c12.60547-3.82422,20.93945-14.99219,22.11719-27.76758C539.41992,163.668,576,190.86335,576,208.00007,576,235.15242,485.64062,288.00007,320,288.00007Zm200.9082,34.252c-9.98828,3.41016-20.30664,6.59571-31.08984,9.42579L578.5293,507.57624a8.00084,8.00084,0,0,0,10.73242,3.57813l14.31445-7.1582a8.00142,8.00142,0,0,0,3.57813-10.73243ZM32.8457,493.26374a8.00142,8.00142,0,0,0,3.57813,10.73243l14.31445,7.1582a8.00084,8.00084,0,0,0,10.73242-3.57813l88.71094-175.89843c-10.7832-2.83008-21.10156-6.01563-31.08984-9.42579Z"/></svg>