<svg xmlns="http://www.w3.org/2000/svg" viewBox="0 0 640 512"><!-- Font Awesome Pro 5.15.4 by @fontawesome - https://fontawesome.com License - https://fontawesome.com/license (Commercial License) --><path d="M320,344a24,24,0,1,0,24,24A23.99993,23.99993,0,0,0,320,344ZM128,296a24,24,0,1,0,24,24A23.99993,23.99993,0,0,0,128,296Zm384,0a24,24,0,1,0,24,24A23.99993,23.99993,0,0,0,512,296Zm-21.00391-83.79883C479.42969,128.63672,407.25977,64,320,64S160.57031,128.63672,149.00391,212.20117C59.7207,234.9043,0,274.54688,0,320c0,70.69141,143.26953,128,320,128s320-57.30859,320-128C640,274.54688,580.2793,234.9043,490.99609,212.20117ZM320,96c77.76172,0,140.80078,62.51562,140.80078,139.63672,0,6.26953-1.05273,12.25586-1.86133,18.30664A299.64457,299.64457,0,0,1,320,288a299.64457,299.64457,0,0,1-138.93945-34.05664c-.8086-6.05078-1.86133-12.03711-1.86133-18.30664C179.19922,158.51562,242.23828,96,320,96Zm0,320c-175.80664,0-288-56.85742-288-96,0-24.00977,42.82031-54.46875,116.05859-74.58984.543,5.31.12628,4.44162,1.28321,12.77148a31.99835,31.99835,0,0,0,16.92578,24.13672A333.93177,333.93177,0,0,0,320,320a333.93177,333.93177,0,0,0,153.73242-37.68164,31.99835,31.99835,0,0,0,16.92578-24.13672c1.15479-8.31444.74077-7.466,1.28321-12.77344C565.17969,265.5293,608,295.99023,608,320,608,359.14258,495.80664,416,320,416Z"/></svg>