<svg xmlns="http://www.w3.org/2000/svg" viewBox="0 0 640 512"><!-- Font Awesome Pro 5.15.4 by @fontawesome - https://fontawesome.com License - https://fontawesome.com/license (Commercial License) --><path d="M443.48 18.08C409.77 5.81 375.31 0 341.41 0c-90.47 0-176.84 41.45-233.44 112.33-6.7 8.39-2.67 21.04 7.42 24.71l236.15 85.95L257.99 480H8c-4.42 0-8 3.58-8 8v16c0 4.42 3.58 8 8 8h560c4.42 0 8-3.58 8-8v-16c0-4.42-3.58-8-8-8H292.03l89.56-246.07 236.75 86.17c1.83.67 3.7.98 5.53.98 8.27 0 15.82-6.35 16.04-15.14 3.03-124.66-72.77-242.85-196.43-287.86zm-295.31 96.84C198.11 62.64 268.77 32 341.42 32c7.81 0 15.6.35 23.36 1.04-36.87 23.16-73.76 66.62-103.06 123.21l-113.55-41.33zm315.21 114.73l-171.12-62.28C332.69 90.93 384.89 46.1 420.4 46.09c4.35 0 8.32.68 12.13 2.06 19.56 7.12 33.97 35.16 38.56 75 3.66 31.83.53 68.45-7.71 106.5zm30.8 11.21c13.83-61.57 13.67-118.28.7-159.64 65.33 46.08 107.58 119.45 112.61 200.89l-113.31-41.25z"/></svg>