<svg xmlns="http://www.w3.org/2000/svg" viewBox="0 0 576 512"><!-- Font Awesome Pro 5.15.4 by @fontawesome - https://fontawesome.com License - https://fontawesome.com/license (Commercial License) --><path d="M575.2 253.8C545.9 130.8 430.5 54.5 304 48.4V16c0-8.8-7.2-16-16-16s-16 7.2-16 16v32.4C146 54.4 30.9 129.9.8 253.7c-6 23.9 22.8 44.1 44.1 25.1 49.5-46.1 89.9-27.7 125.4 27.7 11.4 17.8 34.8 16.9 45.6 0 15.2-23.5 31.2-45 56.2-51.5v193.1c0 17.7-14.3 32-32 32-13.6 0-25.7-8.6-30.2-21.3-3-8.3-12.1-12.7-20.4-9.8-8.3 2.9-12.7 12.1-9.7 20.4 9 25.5 33.3 42.7 60.4 42.7 35.3 0 64-28.7 64-64V255.2c30.1 8.3 44.6 33.3 56.2 51.2 10.8 17 34.3 17.7 45.6 0 36.2-55.9 76.6-73 125.4-27.7 20.9 18.9 49.7-1 43.8-24.9zm-191.9 28.7C359 242.8 325.4 221 288 221c-44.5 0-71.6 27-94.7 61.5-41.6-67.8-107.5-77.5-156.1-39.3C72.1 138.7 178.8 80 288 80c109.3 0 217 59.3 251.2 163.7-58.3-43.9-114.1-21.9-155.9 38.8z"/></svg>