<svg xmlns="http://www.w3.org/2000/svg" viewBox="0 0 512 512"><!-- Font Awesome Pro 5.15.4 by @fontawesome - https://fontawesome.com License - https://fontawesome.com/license (Commercial License) --><path d="M256 8C119.033 8 8 119.033 8 256s111.033 248 248 248 248-111.033 248-248S392.967 8 256 8zm0 464c-118.663 0-216-96.055-216-216 0-118.663 96.055-216 216-216 118.663 0 216 96.055 216 216 0 118.663-96.055 216-216 216zm139.701-299.677c2.03 8.601-3.296 17.218-11.896 19.249-31.006 7.321-59.956 13.775-88.689 17.114.535 114.852 13.167 139.988 27.255 176.036 4.02 10.289-1.063 21.888-11.352 25.906-10.296 4.022-21.89-1.069-25.906-11.352-9.319-23.841-18.551-44.565-24.271-87.277h-9.685c-5.728 42.773-14.986 63.515-24.27 87.276-4.023 10.299-15.633 15.369-25.906 11.353-10.289-4.019-15.371-15.617-11.353-25.906 14.103-36.083 26.72-61.235 27.255-176.036-28.734-3.339-57.683-9.793-88.689-17.114-8.6-2.031-13.926-10.648-11.895-19.249 2.03-8.6 10.647-13.926 19.249-11.896 105.222 24.845 135.48 24.893 240.904 0 8.599-2.022 17.218 3.297 19.249 11.896zm-177.895-42.517c0-21.094 17.1-38.193 38.194-38.193s38.194 17.1 38.194 38.193S277.094 168 256 168s-38.194-17.1-38.194-38.194z"/></svg>