<svg xmlns="http://www.w3.org/2000/svg" viewBox="0 0 512 512"><!-- Font Awesome Pro 5.15.4 by @fontawesome - https://fontawesome.com License - https://fontawesome.com/license (Commercial License) --><path d="M207.889 137.235c-4.686-4.686-4.686-12.284 0-16.971l82.159-82.159c50.81-50.813 133.046-50.803 183.848 0 50.812 50.81 50.802 133.048-.001 183.847l-82.159 82.159c-4.686 4.686-12.284 4.686-16.971 0l-8.485-8.485c-4.686-4.686-4.686-12.284 0-16.971l82.159-82.159c36.739-36.741 36.735-96.2 0-132.936-36.741-36.741-96.199-36.736-132.937-.001l-82.159 82.159c-4.686 4.686-12.284 4.686-16.971 0l-8.483-8.483zm-11.391 311.294c-36.65 36.65-96.286 36.651-132.937-.001-36.736-36.736-36.739-96.194 0-132.936l82.19-82.19c4.686-4.686 4.686-12.284 0-16.971l-8.485-8.485c-4.686-4.686-12.284-4.686-16.971 0l-82.19 82.189c-50.802 50.8-50.813 133.038 0 183.848 50.686 50.688 133.162 50.687 183.847 0l82.19-82.19c4.686-4.686 4.686-12.284 0-16.971l-8.484-8.484c-4.686-4.686-12.284-4.686-16.971 0l-82.189 82.191zM11.999 3.515L3.514 12c-4.686 4.686-4.686 12.284 0 16.971L483.03 508.485c4.686 4.686 12.284 4.686 16.971 0l8.485-8.485c4.686-4.686 4.686-12.284 0-16.971L28.97 3.515c-4.686-4.687-12.284-4.687-16.971 0z"/></svg>