<svg xmlns="http://www.w3.org/2000/svg" viewBox="0 0 640 512"><!-- Font Awesome Pro 5.15.4 by @fontawesome - https://fontawesome.com License - https://fontawesome.com/license (Commercial License) --><path d="M536 240h16a16 16 0 0 0 16-16v-16a16 16 0 0 0-16-16h-16a16 16 0 0 0-16 16v16a16 16 0 0 0 16 16zm0 80h16a16 16 0 0 0 16-16v-16a16 16 0 0 0-16-16h-16a16 16 0 0 0-16 16v16a16 16 0 0 0 16 16zm88-192H480v-16a16 16 0 0 0-16-16H64a64 64 0 0 0-64 64v192a64 64 0 0 0 64 64h400a16 16 0 0 0 16-16v-16h144a16 16 0 0 0 16-16V144a16 16 0 0 0-16-16zM448 384H64a32 32 0 0 1-32-32V160a32 32 0 0 1 32-32h384zm160-32H480V160h128z"/></svg>