<svg xmlns="http://www.w3.org/2000/svg" viewBox="0 0 448 512"><!-- Font Awesome Pro 5.15.4 by @fontawesome - https://fontawesome.com License - https://fontawesome.com/license (Commercial License) --><path d="M264.3 250.7l-72-20.2c-12.1-3.4-20.6-14.4-20.6-26.7 0-15.3 12.8-27.8 28.5-27.8h45c11.2 0 21.9 3.6 30.6 10.1 3.2 2.4 7.6 2 10.4-.8l11.3-11.5c3.4-3.4 3-9-.8-12-14.6-11.6-32.6-17.9-51.6-17.9H240v-40c0-4.4-3.6-8-8-8h-16c-4.4 0-8 3.6-8 8v40h-7.8c-33.3 0-60.5 26.8-60.5 59.8 0 26.6 18.1 50.2 43.9 57.5l72 20.2c12.1 3.4 20.6 14.4 20.6 26.7 0 15.3-12.8 27.8-28.5 27.8h-45c-11.2 0-21.9-3.6-30.6-10.1-3.2-2.4-7.6-2-10.4.8l-11.3 11.5c-3.4 3.4-3 9 .8 12 14.6 11.6 32.6 17.9 51.6 17.9h5.2v40c0 4.4 3.6 8 8 8h16c4.4 0 8-3.6 8-8v-40h7.8c33.3 0 60.5-26.8 60.5-59.8-.1-26.6-18.1-50.2-44-57.5zM400 32H48C21.5 32 0 53.5 0 80v352c0 26.5 21.5 48 48 48h352c26.5 0 48-21.5 48-48V80c0-26.5-21.5-48-48-48zm16 400c0 8.8-7.2 16-16 16H48c-8.8 0-16-7.2-16-16V80c0-8.8 7.2-16 16-16h352c8.8 0 16 7.2 16 16v352z"/></svg>