<svg xmlns="http://www.w3.org/2000/svg" viewBox="0 0 640 512"><!-- Font Awesome Pro 5.15.4 by @fontawesome - https://fontawesome.com License - https://fontawesome.com/license (Commercial License) --><path d="M592,288H448V208.79c0-26.32,20.86-48.34,47.18-48.78A48,48,0,0,1,544,208v8a8,8,0,0,0,8,8h16a8,8,0,0,0,8-8v-7c0-43.28-34-79.51-77.26-80.95A80,80,0,0,0,416,208v80H400a48,48,0,0,0-48,48V464a48,48,0,0,0,48,48H592a48,48,0,0,0,48-48V336A48,48,0,0,0,592,288Zm16,176a16,16,0,0,1-16,16H400a16,16,0,0,1-16-16V336a16,16,0,0,1,16-16H592a16,16,0,0,1,16,16ZM224,256A128,128,0,1,0,96,128,128,128,0,0,0,224,256Zm0-224a96,96,0,1,1-96,96A96,96,0,0,1,224,32ZM496,368a32,32,0,1,0,32,32A32,32,0,0,0,496,368ZM48,480a16,16,0,0,1-16-16V422.4A102.47,102.47,0,0,1,134.4,320c19.6,0,39.1,16,89.6,16s70-16,89.6-16c2.7,0,5.3.6,7.9.8a79.38,79.38,0,0,1,13.1-30.7,132.22,132.22,0,0,0-21.1-2.1c-28.7,0-42.5,16-89.6,16s-60.8-16-89.6-16C60.2,288,0,348.2,0,422.4V464a48,48,0,0,0,48,48H336.4a78.37,78.37,0,0,1-14.8-32Z"/></svg>