<svg xmlns="http://www.w3.org/2000/svg" viewBox="0 0 448 512"><!-- Font Awesome Pro 5.15.4 by @fontawesome - https://fontawesome.com License - https://fontawesome.com/license (Commercial License) --><path d="M319.4 320.6L224 400l-95.4-79.4C110.2 321.4 0 336.1 0 464c0 26.5 21.5 48 48 48h352c26.5 0 48-21.5 48-48 0-127.9-110.1-142.6-128.6-143.4zM208 480H48c-8.8 0-16-7.2-16-16 0-99.6 84.1-109.9 86.4-110.3l89.6 74.6V480zm208-16c0 8.8-7.2 16-16 16H240v-51.7l89.6-74.6c2.3.4 86.4 10.7 86.4 110.3zM13.2 100l6.8 2v37.6c-7 4.2-12 11.5-12 20.3 0 8.4 4.6 15.4 11.1 19.7L3.5 242c-1.7 6.9 2.1 14 7.6 14h41.8c5.5 0 9.3-7.1 7.6-14l-15.6-62.3C51.4 175.4 56 168.4 56 160c0-8.8-5-16.1-12-20.3v-30.5L90.7 123C84 139.4 80 157.2 80 176c0 79.5 64.5 144 144 144s144-64.5 144-144c0-18.8-4-36.6-10.7-53l77.5-23c17.6-5.2 17.6-34.8 0-40L240.9 2.5C235.3.8 229.7 0 224 0s-11.3.8-16.9 2.5L13.2 60c-17.6 5.2-17.6 34.8 0 40zM224 288c-61.8 0-112-50.2-112-112 0-15.7 3.7-30.3 9.6-43.8l85.5 25.4c14.8 4.4 27.2 2 33.8 0l85.5-25.4c5.9 13.5 9.6 28.2 9.6 43.8 0 61.8-50.2 112-112 112zm-7.8-254.9c.8-.2 7.3-2.4 15.6 0l158 46.9-158 46.9c-.8.2-7.3 2.4-15.6 0L58.2 80l158-46.9z"/></svg>