<svg xmlns="http://www.w3.org/2000/svg" viewBox="0 0 448 512"><!-- Font Awesome Pro 5.15.4 by @fontawesome - https://fontawesome.com License - https://fontawesome.com/license (Commercial License) --><path d="M313.6 320c-28.71 0-42.6 16-89.6 16-47.09 0-60.82-16-89.6-16C60.17 320 0 380.17 0 454.4v9.6c0 26.51 21.49 48 48 48h352c26.51 0 48-21.49 48-48v-9.6c0-74.23-60.17-134.4-134.4-134.4zM416 464c0 8.82-7.18 16-16 16H48c-8.82 0-16-7.18-16-16v-9.6C32 397.94 77.94 352 134.4 352c19.38 0 39.33 16 89.6 16 49.4 0 70.66-16 89.6-16 56.46 0 102.4 45.94 102.4 102.4v9.6zM224 288c70.7 0 128-57.31 128-128V0l-64 32-64-32-64 32L96 0v160c0 70.69 57.31 128 128 128zM128 51.78l32 16 64-32 64 32 32-16V112H128V51.78zm0 92.22h192v16c0 52.93-43.06 96-96 96s-96-43.07-96-96v-16z"/></svg>