<svg xmlns="http://www.w3.org/2000/svg" viewBox="0 0 448 512"><!-- Font Awesome Pro 5.15.4 by @fontawesome - https://fontawesome.com License - https://fontawesome.com/license (Commercial License) --><path d="M319.41,318,224,413.39,128.59,318C57.09,321.09,0,379.59,0,451.8A58.23,58.23,0,0,0,58.2,510H389.8A58.23,58.23,0,0,0,448,451.8C448,379.59,390.91,321.09,319.41,318ZM208,478H58.2A26.28,26.28,0,0,1,32,451.8c0-47.46,38-92.44,84.73-100.41L208,442.66Zm181.8,0H240V442.64l91.25-91.25C378,359.36,416,404.34,416,451.8A26.28,26.28,0,0,1,389.8,478ZM224,302A128,128,0,0,0,352,174V63.82a32,32,0,0,0-20.76-30L246.47,2.07a64.06,64.06,0,0,0-44.94,0L116.76,33.86A32,32,0,0,0,96,63.82V174A128,128,0,0,0,224,302ZM128,63.82,212.77,32a32,32,0,0,1,22.47,0L320,63.82V142H128ZM320,174a96,96,0,0,1-192,0ZM259,72.67H237.33V51a5,5,0,0,0-5-5H215.67a5,5,0,0,0-5,5V72.67H189a5,5,0,0,0-5,5V94.33a5,5,0,0,0,5,5h21.67V121a5,5,0,0,0,5,5h16.66a5,5,0,0,0,5-5V99.33H259a5,5,0,0,0,5-5V77.67A5,5,0,0,0,259,72.67Z"/></svg>