<svg xmlns="http://www.w3.org/2000/svg" viewBox="0 0 448 512"><!-- Font Awesome Pro 5.15.4 by @fontawesome - https://fontawesome.com License - https://fontawesome.com/license (Commercial License) --><path d="M313.6 352c-28.72 0-42.45 16-89.6 16s-60.88-16-89.56-16A134.4 134.4 0 0 0 0 486.4 25.6 25.6 0 0 0 25.6 512h396.8a25.6 25.6 0 0 0 25.6-25.6A134.4 134.4 0 0 0 313.6 352zM32.2 480a102.54 102.54 0 0 1 102.24-96c19.82 0 38.92 16 89.56 16 51 0 69.6-16 89.6-16a102.53 102.53 0 0 1 102.2 96zM88 160h12.66A124.32 124.32 0 0 0 96 192a128 128 0 0 0 256 0 124.32 124.32 0 0 0-4.66-32H360a8 8 0 0 0 8-8v-16a8 8 0 0 0-8-8h-8c0-51.52-35-94.46-82.33-107.52A31.89 31.89 0 0 0 240 0h-32a31.89 31.89 0 0 0-29.67 20.48C131 33.54 96 76.48 96 128h-8a8 8 0 0 0-8 8v16a8 8 0 0 0 8 8zM272 54.91A79.94 79.94 0 0 1 320 128h-48zM208 32h32v96h-32zm-80 96a79.94 79.94 0 0 1 48-73.09V128zm6 32h180a92 92 0 0 1 6 32 96 96 0 0 1-192 0 92 92 0 0 1 6-32z"/></svg>