<svg xmlns="http://www.w3.org/2000/svg" viewBox="0 0 640 512"><!-- Font Awesome Pro 5.15.4 by @fontawesome - https://fontawesome.com License - https://fontawesome.com/license (Commercial License) --><path d="M564 288h-40c-15.18 0-29.27 4.83-41.15 12.93 9.38 6.37 17.93 13.87 25.45 22.37 4.89-2.05 10.15-3.3 15.7-3.3h40c24.25 0 44 21.53 44 48 0 8.84 7.16 16 16 16s16-7.16 16-16c0-44.11-34.09-80-76-80zm-20-32c44.18 0 80-35.82 80-80s-35.82-80-80-80-80 35.82-80 80 35.82 80 80 80zm0-128c26.47 0 48 21.53 48 48s-21.53 48-48 48-48-21.53-48-48 21.53-48 48-48zM400.15 308.02c-11.88 0-23.87 1.73-35.49 5.26-14.16 4.3-29.1 6.72-44.66 6.72s-30.5-2.42-44.66-6.71a122.209 122.209 0 0 0-35.49-5.26c-36.29 0-71.58 16.18-92.28 46.93C135.21 373.3 128 395.41 128 419.2V432c0 26.51 21.49 48 48 48h288c26.51 0 48-21.49 48-48v-12.8c0-23.79-7.21-45.9-19.57-64.25-20.7-30.75-56-46.93-92.28-46.93zM480 432c0 8.82-7.18 16-16 16H176c-8.82 0-16-7.18-16-16v-12.8c0-16.63 4.88-32.67 14.11-46.38 13.83-20.54 38.4-32.8 65.74-32.8 8.9 0 17.71 1.31 26.19 3.88 17.69 5.37 35.84 8.1 53.96 8.1s36.27-2.72 53.96-8.1a89.887 89.887 0 0 1 26.19-3.88c27.34 0 51.91 12.26 65.74 32.8 9.23 13.71 14.11 29.75 14.11 46.38V432zM96 256c44.18 0 80-35.82 80-80s-35.82-80-80-80-80 35.82-80 80 35.82 80 80 80zm0-128c26.47 0 48 21.53 48 48s-21.53 48-48 48-48-21.53-48-48 21.53-48 48-48zm61.15 172.93C145.27 292.83 131.18 288 116 288H76c-41.91 0-76 35.89-76 80 0 8.84 7.16 16 16 16s16-7.16 16-16c0-26.47 19.75-48 44-48h40c5.55 0 10.81 1.25 15.7 3.3 7.52-8.5 16.07-16 25.45-22.37zM320 288c61.86 0 112-50.14 112-112V32l-56 28-56-28-56 28-56-28v144c0 61.86 50.14 112 112 112zM240 83.78l24 12 56-28 56 28 24-12V128H240V83.78zm0 76.22h160v16c0 44.11-35.89 80-80 80s-80-35.89-80-80v-16z"/></svg>