<svg xmlns="http://www.w3.org/2000/svg" viewBox="0 0 448 512"><!-- Font Awesome Pro 5.15.4 by @fontawesome - https://fontawesome.com License - https://fontawesome.com/license (Commercial License) --><path d="M313.6 288c-11.04 0-21.78 2.6-32.2 6.24-18 6.28-37.28 9.76-57.4 9.76-20.11 0-39.4-3.48-57.39-9.76-10.42-3.64-21.17-6.24-32.21-6.24C60.17 288 0 348.17 0 422.4V464c0 26.51 21.49 48 48 48h352c26.51 0 48-21.49 48-48v-41.6c0-74.23-60.17-134.4-134.4-134.4zM80 480H48c-8.82 0-16-7.18-16-16v-41.6c0-36.43 19.26-68.26 48-86.42V480zm32 0V322.64c7.23-1.62 14.69-2.64 22.4-2.64 1.47 0 3.18.36 4.75.52L210.04 480H112zm160 0h-26.93l-28.45-64H272c17.66 0 32 14.36 32 32s-14.34 32-32 32zm144-16c0 8.82-7.18 16-16 16h-72.9c5.51-9.45 8.9-20.29 8.9-32 0-35.3-28.72-64-64-64h-69.6l-23.9-53.76c14.96 3.41 30.11 5.76 45.5 5.76 23.12 0 45.98-3.89 67.95-11.55 8.69-3.04 15.57-4.45 21.65-4.45 56.46 0 102.4 45.94 102.4 102.4V464zM224 256c70.7 0 128-57.31 128-128C352 57.3 294.7 0 224 0 153.31 0 96 57.3 96 128c0 70.69 57.31 128 128 128zm90.1-160h-74.11l49.93-37.45c10.84 10.3 19.06 23.09 24.18 37.45zM224 32c13.38 0 26.1 2.78 37.68 7.75l-75 56.25H133.9c13.25-37.17 48.44-64 90.1-64zm96 96c0 52.93-43.06 96-96 96s-96-43.07-96-96h192z"/></svg>