<svg xmlns="http://www.w3.org/2000/svg" viewBox="0 0 640 512"><!-- Font Awesome Pro 5.15.4 by @fontawesome - https://fontawesome.com License - https://fontawesome.com/license (Commercial License) --><path d="M608 0H192c-17.67 0-32 14.33-32 32v96c-53.02 0-96 42.98-96 96s42.98 96 96 96 96-42.98 96-96c0-41.74-26.8-76.9-64-90.12V32h416v352H305.34c-.59-.94-1.03-1.96-1.65-2.88-17.25-25.62-46.67-39.11-76.9-39.11C199 342.02 192.02 352 160 352c-31.97 0-38.95-9.98-66.79-9.98-30.23 0-59.65 13.48-76.9 39.11C6.01 396.42 0 414.84 0 434.67V472c0 22.09 17.91 40 40 40h240c22.09 0 40-17.91 40-40v-37.33c0-6.41-.84-12.6-2.04-18.67H608c17.67 0 32-14.33 32-32V32c0-17.67-14.33-32-32-32zM224 224c0 35.29-28.71 64-64 64s-64-28.71-64-64 28.71-64 64-64 64 28.71 64 64zm64 248c0 4.41-3.59 8-8 8H40c-4.41 0-8-3.59-8-8v-37.33c0-12.79 3.75-25.13 10.85-35.67 10.53-15.64 29.35-24.98 50.36-24.98 21.8 0 29.99 9.98 66.79 9.98 36.79 0 45.01-9.98 66.79-9.98 21 0 39.83 9.34 50.36 24.98 7.1 10.54 10.85 22.88 10.85 35.67V472zm50.62-319.31c-9.38-9.38-24.56-9.38-33.94 0l-25.49 25.49c4.56 11.72 7.3 24.17 8.21 37.04l34.25-34.25L384.69 244c4.69 4.69 10.81 7.02 16.97 7.02s12.28-2.33 16.97-7.02l58.97-58.97 33.24 33.24c3.96 3.96 8.82 5.73 13.6 5.73 9.99 0 19.57-7.76 19.57-19.47v-95.58c0-7.15-5.8-12.95-12.95-12.95h-95.58c-17.31 0-25.98 20.93-13.74 33.17l33.24 33.24-53.31 53.31-63.05-63.03zM512 128v46.18L465.82 128H512z"/></svg>