<svg xmlns="http://www.w3.org/2000/svg" viewBox="0 0 448 512"><!-- Font Awesome Pro 5.15.4 by @fontawesome - https://fontawesome.com License - https://fontawesome.com/license (Commercial License) --><path d="M252,288h40a60.00047,60.00047,0,0,0,60-60V204a12.0006,12.0006,0,0,0-12-12H300a60.00047,60.00047,0,0,0-60,60v24A12.0006,12.0006,0,0,0,252,288Zm20-36a28.03146,28.03146,0,0,1,28-28h20v4a28.03146,28.03146,0,0,1-28,28H272Zm-76,36a12.0006,12.0006,0,0,0,12-12V252a60.00047,60.00047,0,0,0-60-60H108a12.0006,12.0006,0,0,0-12,12v24a60.00047,60.00047,0,0,0,60,60Zm-68-60v-4h20a28.03146,28.03146,0,0,1,28,28v4H156A28.03146,28.03146,0,0,1,128,228ZM352,352h-8.81445c39.14843-43.77734,72.8789-96.6582,72.8789-149.36719C416.06445,76.73633,330.05273,0,224,0,117.918,0,31.93555,76.73633,31.93555,202.63281c0,52.709,33.73047,105.58985,72.8789,149.36719H96A95.99975,95.99975,0,0,0,0,448v16a47.99987,47.99987,0,0,0,48,48H400a47.99987,47.99987,0,0,0,48-48V448A95.99975,95.99975,0,0,0,352,352ZM63.93555,202.63281C63.93555,100.57227,128.25977,32,224,32s160.06445,68.57227,160.06445,170.63281c0,87.58789-121.332,185.05664-158.51953,212.84571a2.5483,2.5483,0,0,1-3.0918-.002C185.26758,387.68945,63.93555,290.2207,63.93555,202.63281ZM416,464a16.01833,16.01833,0,0,1-16,16H48a16.01833,16.01833,0,0,1-16-16V448a64.07333,64.07333,0,0,1,64-64h39.79883a744.84828,744.84828,0,0,0,67.5,57.11133,34.54892,34.54892,0,0,0,41.40234,0A744.84828,744.84828,0,0,0,312.20117,384H352a64.07333,64.07333,0,0,1,64,64Z"/></svg>