<svg xmlns="http://www.w3.org/2000/svg" viewBox="0 0 448 512"><!-- Font Awesome Pro 5.15.4 by @fontawesome - https://fontawesome.com License - https://fontawesome.com/license (Commercial License) --><path d="M319.4 288.6L224 368l-95.4-79.4C57.1 291.7 0 350.2 0 422.4V464c0 26.5 21.5 48 48 48h352c26.5 0 48-21.5 48-48v-41.6c0-72.2-57.1-130.7-128.6-133.8zM208 480H48c-8.8 0-16-7.2-16-16v-41.6c0-50.8 37.1-93 86.4-100.7 89.9 74.8 83.2 69.2 89.6 74.6V480zm208-16c0 8.8-7.2 16-16 16H240v-83.7c6.3-5.3-.2.2 89.6-74.6 49.3 7.7 86.4 49.9 86.4 100.7V464zM32 192c27.3 0 51.8-11.5 69.2-29.7 15.1 53.9 64 93.7 122.8 93.7 70.7 0 128-57.3 128-128S294.7 0 224 0c-50.4 0-93.6 29.4-114.5 71.8C92.1 47.8 64 32 32 32c0 33.4 17.1 62.8 43.1 80-26 17.2-43.1 46.6-43.1 80zM224 32c52.9 0 96 43.1 96 96s-43.1 96-96 96-96-43.1-96-96 43.1-96 96-96zm48 64h-96c-17.7 0-32 14.3-32 32h160c0-17.7-14.3-32-32-32z"/></svg>