<svg xmlns="http://www.w3.org/2000/svg" viewBox="0 0 448 512"><!-- Font Awesome Pro 5.15.4 by @fontawesome - https://fontawesome.com License - https://fontawesome.com/license (Commercial License) --><path d="M98.50586,152.8457a127.91341,127.91341,0,0,0,250.98828.002C360.37305,145.69141,368,133.97266,368,120V104c0-19.57422-14.38672-35.14648-32.98047-38.58008C313.04883,26.54688,271.834,0,224,0S134.95312,26.54688,112.98242,65.41992C94.38867,68.85352,80,84.42578,80,104v16C80,133.9707,87.62695,145.69141,98.50586,152.8457ZM224,224c-41.63281,0-76.834-26.8457-90.0957-64H314.0957C300.834,197.1543,265.63281,224,224,224Zm0-192c28.24023,0,53.42188,12.50586,71.00977,32H152.99023C170.57812,44.50586,195.75977,32,224,32ZM112,104a8.01545,8.01545,0,0,1,8-8H328a8.01545,8.01545,0,0,1,8,8v16a8.01545,8.01545,0,0,1-8,8H120a8.01545,8.01545,0,0,1-8-8ZM322.875,352h-.125a3.9709,3.9709,0,0,0-3.03125,1.39062c-19.8125,22.98438-31.8125,53.09376-35.6875,89.5a3.9982,3.9982,0,0,0,6.4375,3.57813c24.84375-19.32813,33.75-23.8125,37.03125-24.8125a6.629,6.629,0,0,1,1.375-.375c2.625,2.32813,8.1875,8.57813,19.875,25.03125A3.94519,3.94519,0,0,0,352,448a4.06435,4.06435,0,0,0,1.28125-.20312A4.01157,4.01157,0,0,0,356,443.875c-1.15625-35.32812-11.28125-65.70312-30.0625-90.29688A4.02082,4.02082,0,0,0,322.875,352Zm-9.28125-64c-28.6875,0-42.5,16-89.59375,16s-60.8125-16-89.59375-16A134.43133,134.43133,0,0,0,0,422.40625V464a48.01238,48.01238,0,0,0,48,48H400a48.01238,48.01238,0,0,0,48-48V422.40625A134.43133,134.43133,0,0,0,313.59375,288ZM416,464a16.041,16.041,0,0,1-16,16H48a16.041,16.041,0,0,1-16-16V422.40625A102.47984,102.47984,0,0,1,134.40625,320C153.99922,320,173.5,336,224,336c50.40625,0,69.99922-16,89.59375-16A102.47984,102.47984,0,0,1,416,422.40625Z"/></svg>