<svg xmlns="http://www.w3.org/2000/svg" viewBox="0 0 448 512"><!-- Font Awesome Pro 5.15.4 by @fontawesome - https://fontawesome.com License - https://fontawesome.com/license (Commercial License) --><path d="M320 352h-4.7c-12.16 0-24 2.9-35.5 6.8a173.76 173.76 0 0 1-111.64 0c-11.48-3.9-23.29-6.78-35.42-6.78H128A128 128 0 0 0 0 480a32 32 0 0 0 32 32h384a32 32 0 0 0 32-32 128 128 0 0 0-128-128zM32 480a96.1 96.1 0 0 1 96-96h4.74c6.92 0 14.92 1.62 25.16 5.09a205.75 205.75 0 0 0 132.16 0c10.31-3.49 18.33-5.11 25.24-5.11h4.7a96.1 96.1 0 0 1 96 96zm16-256a16 16 0 0 0 16-16v-16c0-88.22 71.78-160 160-160s160 71.78 160 160v16a80.09 80.09 0 0 1-80 80h-32a32 32 0 0 0-32-32h-32a32 32 0 0 0 0 64h96a112.14 112.14 0 0 0 112-112v-16C416 86.12 329.88 0 224 0S32 86.12 32 192v16a16 16 0 0 0 16 16zM224 96a95.57 95.57 0 0 1 71.23 159.76c0 .09.13.15.18.24H304a47.89 47.89 0 0 0 40.55-22.58C349 220.36 352 206.58 352 192a128 128 0 0 0-256 0c0 40.42 19.1 76 48.35 99.47-.06-1.17-.35-2.28-.35-3.47a63.25 63.25 0 0 1 8.93-32A95.58 95.58 0 0 1 224 96z"/></svg>