<svg xmlns="http://www.w3.org/2000/svg" viewBox="0 0 448 512"><!-- Font Awesome Pro 5.15.4 by @fontawesome - https://fontawesome.com License - https://fontawesome.com/license (Commercial License) --><path d="M224 256c70.7 0 128-57.3 128-128S294.7 0 224 0 96 57.3 96 128s57.3 128 128 128zm0-224c52.9 0 96 43.1 96 96s-43.1 96-96 96-96-43.1-96-96 43.1-96 96-96zm93.7 256.1c-33.8-1-44.3 15.9-93.7 15.9-49.3 0-59.8-16.9-93.6-15.9C58 290.2 0 349.5 0 422.4V504c0 4.4 3.6 8 8 8h16c4.4 0 8-3.6 8-8v-81.6c0-54.3 42.6-98.4 96-101.8v81.7c-23.1 6.9-40 28.3-40 53.7 0 30.9 25.1 56 56 56s56-25.1 56-56c0-25.4-16.9-46.8-40-53.7v-76.9c20.8 6.8 42.2 10.5 64 10.5 21.8 0 43.2-3.7 64-10.5v68.8c-28.2 7.5-48 34.5-48 64.6V488c0 4.2 1.7 8.3 4.7 11.3l10.3 10.3c3.1 3.1 8.2 3.1 11.3 0l11.3-11.3c3.1-3.1 3.1-8.2 0-11.3l-5.7-5.7V456c0-19.4 17.4-34.8 37.4-31.6 15.7 2.6 26.6 17.4 26.6 33.3v23.6l-5.7 5.7c-3.1 3.1-3.1 8.2 0 11.3l11.3 11.3c3.1 3.1 8.2 3.1 11.3 0l10.3-10.3c3-3 4.7-7.1 4.7-11.3v-32c0-29.7-20.5-54.5-48-61.6v-73.7c53.4 3.4 96 47.5 96 101.8V504c0 4.4 3.6 8 8 8h16c4.4 0 8-3.6 8-8v-81.6c.2-72.9-57.8-132.2-130.1-134.3zM168 456c0 13.2-10.8 24-24 24s-24-10.8-24-24 10.8-24 24-24 24 10.8 24 24z"/></svg>