<svg xmlns="http://www.w3.org/2000/svg" viewBox="0 0 448 512"><!-- Font Awesome Pro 5.15.4 by @fontawesome - https://fontawesome.com License - https://fontawesome.com/license (Commercial License) --><path d="M99.46 165.1A150.52 150.52 0 0 0 96 192a128 128 0 0 0 256 0 150.48 150.48 0 0 0-3.5-27.07c72.19-35.62 97.88-93.86 98.25-94.7a16 16 0 0 0-29.47-12.53c-1.16 2.67-19.77 43.52-71.21 72.78C336.2 80.21 314.75 0 278.1 0c-10.33 0-19.55 4.45-27.3 10.47a42.32 42.32 0 0 1-26 8.93 42.32 42.32 0 0 1-26-8.93C191 4.45 181.76 0 171.43 0c-36.78 0-58.26 80.78-68.08 131-52.26-29.32-71.51-70.75-72.69-73.44a16 16 0 0 0-29.28 13c1.52 3.38 27.44 59.81 98.08 94.54zm73.4-132.88a19.71 19.71 0 0 1 6.23 3.51 74.77 74.77 0 0 0 45.67 15.67 74.83 74.83 0 0 0 45.68-15.66 19.57 19.57 0 0 1 6.23-3.52c9.17 6.89 26.59 41.8 39.5 112.27v.06C291.24 153.84 260.85 160 224 160c-36.13 0-66-6-90.71-15.1 12.9-70.71 30.37-105.77 39.57-112.68zm-43.27 145C156.07 186.12 187.12 192 224 192s67.91-5.92 94.4-14.87A95 95 0 0 1 320 192a96 96 0 0 1-192 0 95.31 95.31 0 0 1 1.59-14.8zm184 174.8c-28.72 0-42.43 16-89.59 16s-60.88-16-89.56-16A134.46 134.46 0 0 0 0 486.41 25.61 25.61 0 0 0 25.59 512H422.4a25.61 25.61 0 0 0 25.6-25.59A134.46 134.46 0 0 0 313.59 352zM32.19 480c3.4-52.94 49.18-95.95 102.25-96 19.81 0 38.93 16 89.56 16 51 0 69.59-16 89.59-16 53 .06 98.85 43.08 102.22 96z"/></svg>