<svg xmlns="http://www.w3.org/2000/svg" viewBox="0 0 480 512"><!-- Font Awesome Pro 5.15.4 by @fontawesome - https://fontawesome.com License - https://fontawesome.com/license (Commercial License) --><path d="M344.1 470.3l14.2-164.8c-42.1-33.1-70.4-77-70.4-129.5C288 81.7 376.1 0 440 0c22.1 0 40 17.3 40 38.5v435c0 21.2-17.9 38.5-40 38.5h-56c-22.8 0-41.8-18.7-39.9-41.7zM320 176c0 51 32.2 85.5 71.8 114.5L376 473.1c-.3 3.7 3.4 6.9 8 6.9h56c4.3 0 8-3 8-6.5v-435c0-3.5-3.7-6.5-8-6.5-44.6 0-120 65.8-120 144zM240.7 33.8C237.4 14.3 219.5 0 194.6 0c-11.9 0-24.1 3.4-33.3 11.2C152.9 4.1 141.3 0 128 0s-24.9 4.1-33.3 11.2C85.5 3.4 73.3 0 61.4 0 36.2 0 18.6 14.5 15.3 33.8 13.5 43.2 0 118.4 0 149.9c0 50.9 26.7 91.6 71 110.7L59.6 471.4C58.4 493.4 75.9 512 98 512h60c22 0 39.6-18.5 38.4-40.6L185 260.6c44.2-19.1 71-59.8 71-110.7 0-31.5-13.5-106.7-15.3-116.1zM152.3 240l12.2 233.1c.2 3.7-2.7 6.9-6.5 6.9H98c-3.7 0-6.7-3.1-6.5-6.9L103.7 240C61.3 231.2 32 197 32 149.9c0-29.7 14.8-110.6 14.8-110.6 1.6-9.9 28.3-9.7 29.5.2V162c.9 11.5 28.2 11.7 29.5.2l7.4-122.9c1.6-9.7 27.9-9.7 29.5 0l7.4 122.9c1.3 11.4 28.6 11.2 29.5-.2V39.6c1.2-9.9 27.9-10.1 29.5-.2 0 0 14.8 80.9 14.8 110.6.1 46.8-29 81.2-71.6 90z"/></svg>