<svg xmlns="http://www.w3.org/2000/svg" viewBox="0 0 512 512"><!-- Font Awesome Pro 5.15.4 by @fontawesome - https://fontawesome.com License - https://fontawesome.com/license (Commercial License) --><path d="M431.36,80.64a248,248,0,0,0-350.72,0c-96.85,96.85-96.85,253.87,0,350.72a248,248,0,0,0,350.72,0C528.21,334.51,528.21,177.49,431.36,80.64ZM408.74,408.73a216,216,0,0,1-305.48,0c-84.21-84.21-84.21-221.25,0-305.47a216,216,0,0,1,305.48,0C493,187.48,493,324.52,408.74,408.73ZM140.12,304a16,16,0,0,0-22.63,22.63l67.88,67.88A16,16,0,0,0,208,371.88Zm22.62-67.88a16,16,0,0,0-22.62,22.62L253.25,371.88a16,16,0,0,0,22.63-22.63Zm67.89-22.63A16,16,0,0,0,208,236.12L275.88,304a16,16,0,0,0,22.63-22.63Zm149.82-81.94c-68.62-68.63-180.28-68.63-248.9,0a16,16,0,0,0,22.62,22.62c56.16-56.15,147.5-56.15,203.66,0s56.14,147.5,0,203.66a16,16,0,1,0,22.62,22.62C449.08,311.83,449.08,200.17,380.45,131.55Z"/></svg>