<svg xmlns="http://www.w3.org/2000/svg" viewBox="0 0 640 512"><!-- Font Awesome Pro 5.15.4 by @fontawesome - https://fontawesome.com License - https://fontawesome.com/license (Commercial License) --><path d="M352,400a16,16,0,1,0,16,16A16,16,0,0,0,352,400ZM640,112A112.14,112.14,0,0,0,528,0H302.16A112.4,112.4,0,0,0,192.5,89.31L124.91,416H80A80,80,0,0,0,0,496a16,16,0,0,0,16,16H208a16,16,0,0,0,16-16V432a16,16,0,0,0-16-16H157.57L223.81,95.78A80.33,80.33,0,0,1,302.16,32H528a80,80,0,0,1,0,160H494.82A191.28,191.28,0,0,0,352,128a32,32,0,0,0-32,32V325.9c-37.17,13.25-64,48.44-64,90.1a96.1,96.1,0,0,0,96,96H480a64,64,0,0,0,64-64V320a190.78,190.78,0,0,0-25.9-96H528A112.14,112.14,0,0,0,640,112ZM192,448v32H34.74A48.1,48.1,0,0,1,80,448Zm160,32a64,64,0,1,1,64-64A64.07,64.07,0,0,1,352,480Zm160-32a32,32,0,0,1-32,32H423a95.58,95.58,0,0,0-71-160h0l0-160h0c88.22,0,160,71.78,160,160Z"/></svg>