<svg xmlns="http://www.w3.org/2000/svg" viewBox="0 0 512 512"><!-- Font Awesome Pro 5.15.4 by @fontawesome - https://fontawesome.com License - https://fontawesome.com/license (Commercial License) --><path d="M288 176c0-79.5-64.5-144-144-144S0 96.5 0 176c0 74.1 56 135.2 128 143.1V384H76c-6.6 0-12 5.4-12 12v8c0 6.6 5.4 12 12 12h52v52c0 6.6 5.4 12 12 12h8c6.6 0 12-5.4 12-12v-52h52c6.6 0 12-5.4 12-12v-8c0-6.6-5.4-12-12-12h-52v-64.9c72-7.9 128-69 128-143.1zm-256 0c0-61.9 50-112 112-112 61.9 0 112 50 112 112 0 61.9-50 112-112 112-61.9 0-112-50-112-112zm352 143.1V384h52c6.6 0 12 5.4 12 12v8c0 6.6-5.4 12-12 12h-52v52c0 6.6-5.4 12-12 12h-8c-6.6 0-12-5.4-12-12v-52h-52c-6.6 0-12-5.4-12-12v-8c0-6.6 5.4-12 12-12h52v-64.9c-27.4-3-52.6-13.8-73.2-30 6.9-8.2 13-17 18.3-26.3 19.9 16.3 44.7 25.2 70.8 25.2 62 0 112-50.1 112-112 0-62-50.1-112-112-112-26.1 0-50.9 8.9-70.8 25.2-5.3-9.3-11.4-18.2-18.3-26.3C303.4 43.6 334.3 32 368 32c79.5 0 144 64.5 144 144 0 74.1-56 135.2-128 143.1z"/></svg>