<svg xmlns="http://www.w3.org/2000/svg" viewBox="0 0 576 512"><!-- Font Awesome Pro 5.15.4 by @fontawesome - https://fontawesome.com License - https://fontawesome.com/license (Commercial License) --><path d="M288 208c0-79.5-64.5-144-144-144S0 128.5 0 208c0 74.1 56 135.2 128 143.1V416H76c-6.6 0-12 5.4-12 12v8c0 6.6 5.4 12 12 12h52v52c0 6.6 5.4 12 12 12h8c6.6 0 12-5.4 12-12v-52h52c6.6 0 12-5.4 12-12v-8c0-6.6-5.4-12-12-12h-52v-64.9c72-7.9 128-69 128-143.1zm-256 0c0-61.9 50-112 112-112 61.9 0 112 50 112 112 0 61.9-50 112-112 112-61.9 0-112-50-112-112zM576 12v88c0 6.6-5.4 12-12 12h-8c-6.6 0-12-5.4-12-12V54.6l-63.5 63.5C500.2 142.8 512 174 512 208c0 79.5-64.5 144-144 144-33.7 0-64.6-11.6-89.2-30.9 6.9-8.2 13-17 18.3-26.3 19.9 16.3 44.7 25.2 70.8 25.2 62 0 112-50.1 112-112 0-62-50.1-112-112-112-26.1 0-50.9 8.9-70.8 25.2-5.3-9.3-11.4-18.2-18.3-26.3C303.4 75.6 334.3 64 368 64c34 0 65.2 11.8 89.9 31.5L521.4 32H476c-6.6 0-12-5.4-12-12v-8c0-6.6 5.4-12 12-12h88c6.6 0 12 5.4 12 12z"/></svg>