<svg xmlns="http://www.w3.org/2000/svg" viewBox="0 0 448 512"><!-- Font Awesome Pro 5.15.4 by @fontawesome - https://fontawesome.com License - https://fontawesome.com/license (Commercial License) --><path d="M60.688,396.688a16,16,0,1,0,22.624,22.624l48-48a16,16,0,0,0-22.624-22.624ZM434.562,231,384,155.156V48A48.052,48.052,0,0,0,336,0H320a15.991,15.991,0,0,0-8.871,2.693l0,0-.018.011-.019.012L286.125,19.359a111.712,111.712,0,0,1-124.25,0l-25-16.671L136.8,2.8A15.9,15.9,0,0,0,128,0H112A48.052,48.052,0,0,0,64,48V155.156L13.438,231A79.628,79.628,0,0,0,0,275.375V464a48.052,48.052,0,0,0,48,48H400a48.052,48.052,0,0,0,48-48V275.375A79.628,79.628,0,0,0,434.562,231ZM193.2,281.906A15.989,15.989,0,0,0,192,288V480H48a16.011,16.011,0,0,1-16-16V275.375a47.759,47.759,0,0,1,8.062-26.625l53.25-79.875A16.016,16.016,0,0,0,96,160V48a16.011,16.011,0,0,1,16-16h4.672l82.82,234.633ZM158.4,54.039A143.466,143.466,0,0,0,224,70.234a143.511,143.511,0,0,0,62.254-14.306l-68.486,166.32ZM416,464a16.011,16.011,0,0,1-16,16H224V291.172L330.719,32H336a16.011,16.011,0,0,1,16,16V160a16.016,16.016,0,0,0,2.688,8.875l53.25,79.875A47.759,47.759,0,0,1,416,275.375ZM339.312,348.688a16,16,0,0,0-22.624,22.624l48,48a16,16,0,0,0,22.624-22.624Z"/></svg>