<svg xmlns="http://www.w3.org/2000/svg" viewBox="0 0 448 512"><!-- Font Awesome Pro 5.15.4 by @fontawesome - https://fontawesome.com License - https://fontawesome.com/license (Commercial License) --><path d="M352.375,287.7c-4-16.844-18.156-29.953-35.5-31.531a40.263,40.263,0,0,0-31.156,10.406,41.271,41.271,0,0,0-13.5,30.063L272,345.156A22.648,22.648,0,0,0,294.656,368h.094l48.594-.219a40.944,40.944,0,0,0,40.5-44.593C382.281,305.859,369.188,291.719,352.375,287.7Zm-2.656,45.109a8.983,8.983,0,0,1-6.563,2.969l-39.125.172.188-39.062A8.987,8.987,0,0,1,313.156,288a7.687,7.687,0,0,1,.844.047c4.156.375,7.531,4.594,7.5,9.265l-.25,21.36,21.344-.125c4.812,0,9,3.359,9.375,7.5A8.765,8.765,0,0,1,349.719,332.812ZM112,352a48,48,0,1,0,48,48A48,48,0,0,0,112,352Zm0,64a16,16,0,1,1,16-16A16.019,16.019,0,0,1,112,416ZM96.5,239.516a12.01,12.01,0,0,0-17,16.968L95.016,272,79.5,287.516a12.01,12.01,0,0,0,17,16.968l15.5-15.5,15.5,15.5a12.01,12.01,0,0,0,17-16.968L128.984,272,144.5,256.484a12.01,12.01,0,0,0-17-16.968l-15.5,15.5ZM434.562,231,384,155.156V48A48.052,48.052,0,0,0,336,0H320a15.991,15.991,0,0,0-8.871,2.693l0,0-.018.011-.019.012L286.125,19.359a111.712,111.712,0,0,1-124.25,0l-25-16.671L136.8,2.8A15.9,15.9,0,0,0,128,0H112A48.052,48.052,0,0,0,64,48V155.156L13.438,231A79.628,79.628,0,0,0,0,275.375V464a48.052,48.052,0,0,0,48,48H400a48.052,48.052,0,0,0,48-48V275.375A79.628,79.628,0,0,0,434.562,231ZM193.2,281.906A15.989,15.989,0,0,0,192,288V480H48a16.011,16.011,0,0,1-16-16V275.375a47.759,47.759,0,0,1,8.062-26.625l53.25-79.875A16.016,16.016,0,0,0,96,160V48a16.011,16.011,0,0,1,16-16h4.672l82.82,234.633ZM158.4,54.039A143.466,143.466,0,0,0,224,70.234a143.511,143.511,0,0,0,62.254-14.306l-68.486,166.32ZM416,464a16.011,16.011,0,0,1-16,16H224V291.172L330.719,32H336a16.011,16.011,0,0,1,16,16V160a16.016,16.016,0,0,0,2.688,8.875l53.25,79.875A47.759,47.759,0,0,1,416,275.375Z"/></svg>