<svg xmlns="http://www.w3.org/2000/svg" viewBox="0 0 640 512"><!-- Font Awesome Pro 5.15.4 by @fontawesome - https://fontawesome.com License - https://fontawesome.com/license (Commercial License) --><path d="M472 96a24 24 0 1 0-24-24 24 24 0 0 0 24 24zM349.66 13.66L338.34 2.34a8 8 0 0 0-11.31 0L2.34 327a8 8 0 0 0 0 11.32l11.32 11.31a8 8 0 0 0 11.31 0L349.66 25a8 8 0 0 0 0-11.34zM520 48a24 24 0 1 0-24-24 24 24 0 0 0 24 24zm96 48a24 24 0 1 0 24 24 24 24 0 0 0-24-24zm-48 48a24 24 0 1 0 24 24 24 24 0 0 0-24-24zm-86.86 48.8L635.31 38.62a16 16 0 0 0 0-22.62L624 4.69a16 16 0 0 0-22.62 0l-154.2 154.19c-15.44-12.84-33.06-23-52.59-27.53a128.23 128.23 0 0 0-28.69-3.3c-21.11 0-47.55 5.52-69.35 27.33-3.68 3.69-6.5 7.9-9.4 12.05A63.51 63.51 0 0 1 224.36 240a64.53 64.53 0 0 1-23.16-4.35c-15.23 5.15-29.31 13.11-41 24.86-38.2 38.13-41.2 99.6-13.3 153.55L138 420a22.41 22.41 0 0 0-3.41 34.48l50.95 50.95a22.22 22.22 0 0 0 8.06 5.06 20.75 20.75 0 0 0 2.93.56 22.54 22.54 0 0 0 4.83.94c.36 0 .67-.23 1-.25a22.35 22.35 0 0 0 6.54-1.59 20.62 20.62 0 0 0 3.2-1A22 22 0 0 0 220 502l5.81-8.71c23.39 12.11 48.14 18.61 71.88 18.61 31 0 60.18-10.53 81.8-32.16 11.75-11.68 19.71-25.77 24.87-41-16.1-42.18 15-86.46 59.09-86.46a68.11 68.11 0 0 1 8.93.6c4.21-2.94 8.48-5.8 12.23-9.54 24.94-25 32.43-61.48 24-97.91-4.52-19.55-14.61-37.18-27.47-52.63zM199.86 474.53l-34.39-34.39 80.08-53.39 7.7 7.7zm262.52-154.26a95.45 95.45 0 0 0-91.83 117 67.49 67.49 0 0 1-13.7 19.86C338 476 314.28 479.92 297.68 479.92c-17.76 0-36.41-4.72-54.08-13.32l40.64-61a22.4 22.4 0 0 0-2.8-28.26l-18.83-18.83a25.73 25.73 0 0 0-14.85-6.36c-.34 0-.65-.2-1-.2a22.17 22.17 0 0 0-3.51.51 21.39 21.39 0 0 0-2.27.33 22.39 22.39 0 0 0-6.64 2.92l-60.78 40.52C153 354.45 156 309.9 182.91 283a67 67 0 0 1 19.68-13.58 95.34 95.34 0 0 0 93.78-30.33 94 94 0 0 0 23.42-61.72c11.83-11.52 27.34-17.36 46.11-17.36a96.24 96.24 0 0 1 21.44 2.46c12.24 2.86 24.64 9.55 36.92 19.29l-99.57 99.58a16 16 0 0 0 0 22.62L336 315.31a16 16 0 0 0 22.62 0l99.59-99.59c9.72 12.26 16.39 24.65 19.22 36.9 6.22 26.92.73 51.54-15.05 67.65z"/></svg>