<svg xmlns="http://www.w3.org/2000/svg" viewBox="0 0 512 512"><!-- Font Awesome Pro 5.15.4 by @fontawesome - https://fontawesome.com License - https://fontawesome.com/license (Commercial License) --><path d="M505.5 460.6l-175.9-225c-4.9-6.3-12.1-9.7-19.8-11.1l16.4-49.4H352c44.1 0 80-36 80-80.2s-35.9-80.2-80-80.2c-13.1 0-26 3.4-37.6 9.6-29.9-32.6-86.9-32.6-116.9 0-11.6-6.3-24.5-9.6-37.6-9.6-44.1 0-80 36-80 80.2s35.9 80.2 80 80.2h25.8l16.4 49.4c-7.7 1.4-14.9 4.8-19.8 11.1L6.5 460.6C-9.4 481.8 5.7 512 32.1 512H480c26.3 0 41.4-30.2 25.5-51.4zM160 143.1c-26.5 0-48-21.6-48-48.1s21.5-48.1 48-48.1c14.2 0 24.6 6.3 30.8 11.6l14.4 12.2 9.7-16.2c17.7-29.7 64.5-29.7 82.2 0l9.7 16.2 14.4-12.2c6.2-5.3 16.7-11.6 30.8-11.6 26.5 0 48 21.6 48 48.1s-21.5 48.1-48 48.1h-48.9l-26.7 80.2h-40.9l-26.7-80.2H160zm47.6 112.3h96.8l51 65.2-35 41c-6.7 7.9-19.7 7.8-26.3 0L268.8 332c-9.6-11.2-23.1-17-38.3-17.3-14.8.3-28.5 7-37.7 18.6-6.6 8.3-20.5 8.3-27.1 0l-9.6-12 51.5-65.9zm-175.9 225l104.1-133.2 4.9 6.1c18.8 23.5 58.3 23.6 77.1 0 3.3-4.1 8.1-6.5 13.3-6.5 5.3.1 10.1 2.2 13.4 6.1l25.3 29.5c9.4 11 23.1 17.3 37.5 17.3 14.4 0 28.1-6.3 37.5-17.3l30.8-36.1L480 479.9l-448.3.5z"/></svg>