<svg xmlns="http://www.w3.org/2000/svg" viewBox="0 0 384 512"><!-- Font Awesome Pro 5.15.4 by @fontawesome - https://fontawesome.com License - https://fontawesome.com/license (Commercial License) --><path d="M342.91 194.57c-7.81-3.8-17.5-.48-21.34 7.5-3.81 7.97-.44 17.53 7.53 21.34C343.22 230.2 352 243.06 352 257c0 13.94-8.78 26.8-22.9 33.58-7.97 3.81-11.34 13.38-7.53 21.34 3.86 8.05 13.54 11.29 21.34 7.5C368.25 307.28 384 283.36 384 257s-15.75-50.29-41.09-62.43zM231.81 65c-5.91 0-11.92 2.18-16.78 7.05L126.06 161H24c-13.26 0-24 10.74-24 24v144c0 13.25 10.74 24 24 24h102.06l88.97 88.95c4.87 4.87 10.88 7.05 16.78 7.05 12.33 0 24.19-9.52 24.19-24.02V89.02C256 74.51 244.13 65 231.81 65zM224 405.67L139.31 321H32V193h107.31L224 108.33v297.34z"/></svg>