<svg xmlns="http://www.w3.org/2000/svg" viewBox="0 0 512 512"><!-- Font Awesome Pro 5.15.4 by @fontawesome - https://fontawesome.com License - https://fontawesome.com/license (Commercial License) --><path d="M454.63 256l55.03-55.03c3.12-3.12 3.12-8.19 0-11.31l-11.31-11.31c-3.12-3.12-8.19-3.12-11.31 0L432 233.37l-55.03-55.03c-3.12-3.12-8.19-3.12-11.31 0l-11.31 11.31c-3.12 3.12-3.12 8.19 0 11.31L409.37 256l-55.03 55.03c-3.12 3.12-3.12 8.19 0 11.31l11.31 11.31c3.12 3.12 8.19 3.12 11.31 0L432 278.63l55.03 55.03c3.12 3.12 8.19 3.12 11.31 0l11.31-11.31c3.12-3.12 3.12-8.19 0-11.31L454.63 256zM231.81 64c-5.91 0-11.92 2.18-16.78 7.05L126.06 160H24c-13.26 0-24 10.74-24 24v144c0 13.25 10.74 24 24 24h102.06l88.97 88.95c4.87 4.87 10.88 7.05 16.78 7.05 12.33 0 24.19-9.52 24.19-24.02V88.02C256 73.51 244.13 64 231.81 64zM224 404.67l-75.32-75.3-9.37-9.37H32V192h107.31l9.37-9.37 75.32-75.3v297.34z"/></svg>