<svg xmlns="http://www.w3.org/2000/svg" viewBox="0 0 576 512"><!-- Font Awesome Pro 5.15.4 by @fontawesome - https://fontawesome.com License - https://fontawesome.com/license (Commercial License) --><path d="M342.91 193.57c-7.81-3.8-17.5-.48-21.34 7.5-3.81 7.97-.44 17.53 7.53 21.34C343.22 229.2 352 242.06 352 256s-8.78 26.8-22.9 33.58c-7.97 3.81-11.34 13.38-7.53 21.34 3.86 8.05 13.54 11.29 21.34 7.5C368.25 306.28 384 282.36 384 256s-15.75-50.29-41.09-62.43zM231.81 64c-5.91 0-11.92 2.18-16.78 7.05L126.06 160H24c-13.26 0-24 10.74-24 24v144c0 13.25 10.74 24 24 24h102.06l88.97 88.95c4.87 4.87 10.88 7.05 16.78 7.05 12.33 0 24.19-9.52 24.19-24.02V88.02C256 73.51 244.13 64 231.81 64zM224 404.67L139.31 320H32V192h107.31L224 107.33v297.34zM421.51 1.83c-7.89-4.08-17.53-1.12-21.66 6.7-4.13 7.81-1.13 17.5 6.7 21.61 84.76 44.55 137.4 131.1 137.4 225.85s-52.64 181.3-137.4 225.85c-7.82 4.11-10.83 13.8-6.7 21.61 4.1 7.75 13.68 10.84 21.66 6.7C516.78 460.06 576 362.67 576 255.99c0-106.67-59.22-204.06-154.49-254.16zM480 255.99c0-66.12-34.02-126.62-88.81-157.87-7.69-4.38-17.59-1.78-22.04 5.89-4.45 7.66-1.77 17.44 5.96 21.86 44.77 25.55 72.61 75.4 72.61 130.12s-27.84 104.58-72.61 130.12c-7.72 4.42-10.4 14.2-5.96 21.86 4.3 7.38 14.06 10.44 22.04 5.89C445.98 382.62 480 322.12 480 255.99z"/></svg>