<svg xmlns="http://www.w3.org/2000/svg" viewBox="0 0 640 512"><!-- Font Awesome Pro 5.15.4 by @fontawesome - https://fontawesome.com License - https://fontawesome.com/license (Commercial License) --><path d="M592 64H48C21.49 64 0 85.49 0 112v288c0 26.51 21.49 48 48 48h165.82c25.19 0 48.03-14.77 58.36-37.74l16.56-36.8C294.66 360.31 306.76 352 320 352s25.34 8.31 31.26 21.46l16.56 36.8C378.15 433.23 401 448 426.18 448H592c26.51 0 48-21.49 48-48V112c0-26.51-21.49-48-48-48zm16 336c0 8.82-7.18 16-16 16H426.18c-12.57 0-24.02-7.41-29.18-18.87l-16.56-36.8C369.42 335.83 345.69 320 320 320s-49.42 15.83-60.44 40.33L243 397.13c-5.16 11.46-16.61 18.87-29.18 18.87H48c-8.82 0-16-7.18-16-16V112c0-8.82 7.18-16 16-16h544c8.82 0 16 7.18 16 16v288zM176 160c-44.18 0-80 35.81-80 80 0 44.18 35.82 80 80 80s80-35.82 80-80-35.82-80-80-80zm0 128c-26.47 0-48-21.53-48-48s21.53-48 48-48 48 21.53 48 48-21.53 48-48 48zm288-128c-44.18 0-80 35.81-80 80 0 44.18 35.82 80 80 80s80-35.82 80-80-35.82-80-80-80zm0 128c-26.47 0-48-21.53-48-48s21.53-48 48-48 48 21.53 48 48-21.53 48-48 48z"/></svg>