<svg xmlns="http://www.w3.org/2000/svg" viewBox="0 0 384 512"><!-- Font Awesome Pro 5.15.4 by @fontawesome - https://fontawesome.com License - https://fontawesome.com/license (Commercial License) --><path d="M104 192h176a8 8 0 0 0 8-8v-16a8 8 0 0 0-8-8H104a8 8 0 0 0-8 8v16a8 8 0 0 0 8 8zm248-96h-32V80a16 16 0 0 0-16-16h-32a16 16 0 0 0-16 16v16h-32V80a16 16 0 0 0-16-16h-32a16 16 0 0 0-16 16v16H96V8a8 8 0 0 0-8-8H72a8 8 0 0 0-8 8v88H32a32.09 32.09 0 0 0-32 32v178.74a32 32 0 0 0 9.38 22.63L32 352v112a48 48 0 0 0 48 48h224a48 48 0 0 0 48-48V352l22.62-22.63a32 32 0 0 0 9.38-22.63V128a32.09 32.09 0 0 0-32-32zm0 210.75l-22.63 22.62-9.37 9.38V464a16 16 0 0 1-16 16H80a16 16 0 0 1-16-16V338.75l-9.37-9.38L32 306.74V128h320zM104 256h176a8 8 0 0 0 8-8v-16a8 8 0 0 0-8-8H104a8 8 0 0 0-8 8v16a8 8 0 0 0 8 8zm0 64h176a8 8 0 0 0 8-8v-16a8 8 0 0 0-8-8H104a8 8 0 0 0-8 8v16a8 8 0 0 0 8 8z"/></svg>