<svg xmlns="http://www.w3.org/2000/svg" viewBox="0 0 512 512"><!-- Font Awesome Pro 5.15.4 by @fontawesome - https://fontawesome.com License - https://fontawesome.com/license (Commercial License) --><path d="M400 192c8.84 0 16-7.16 16-16v-27.96l91.87-101.83c5.72-6.32 5.48-16.02-.55-22.05L487.84 4.69A15.97 15.97 0 0 0 476.52 0c-3.84 0-7.68 1.37-10.73 4.13L186.6 256H144c-8.84 0-16 7.16-16 16v36.87L10.53 414.84c-13.57 12.28-14.1 33.42-1.16 46.36l41.43 41.43c6.26 6.27 14.45 9.37 22.62 9.37 8.71 0 17.4-3.53 23.73-10.53L376.34 192H400zM73.43 480l-41.46-41.4L455.35 56.65 73.43 480z"/></svg>