<svg xmlns="http://www.w3.org/2000/svg" viewBox="0 0 446 512"><!-- Font Awesome Pro 5.15.4 by @fontawesome - https://fontawesome.com License - https://fontawesome.com/license (Commercial License) --><path d="M384-1H64A64 64 0 0 0 0 63v416a32 32 0 0 0 32 32h384a32 32 0 0 0 32-32V63a64 64 0 0 0-64-64zm32 480H32V63a32 32 0 0 1 32-32h320a32 32 0 0 1 32 32zM80 95a16 16 0 1 0-16-16 16 16 0 0 0 16 16zm64 0a16 16 0 1 0-16-16 16 16 0 0 0 16 16zm80 32a160 160 0 1 0 160 160 160 160 0 0 0-160-160zm0 288a128 128 0 1 1 128-128 128.14 128.14 0 0 1-128 128zm36.87-131.66a51.23 51.23 0 0 1-73.74 0A51.81 51.81 0 0 1 150 299c-7.71 0-14.74-2.15-21.31-5.16C132.27 343.53 173.41 383 224 383s91.73-39.47 95.31-89.16c-6.57 3-13.6 5.16-21.31 5.16a51.81 51.81 0 0 1-37.13-15.66z"/></svg>