<svg xmlns="http://www.w3.org/2000/svg" viewBox="0 0 384 512"><!-- Font Awesome Pro 5.15.4 by @fontawesome - https://fontawesome.com License - https://fontawesome.com/license (Commercial License) --><path d="M248.42 168.01c-15.76 0-35.02 6.7-56.42 27.74-21.4-21.04-40.66-27.74-56.42-27.74-16.47 0-29.11 7.31-36.38 13.22-28.27 22.95-29.75 64.17-4.45 89.04l87.08 85.59c5.61 5.52 14.73 5.53 20.36 0l87.08-85.59c25.3-24.87 23.81-66.09-4.46-89.04-7.28-5.91-19.93-13.22-36.39-13.22zm18.41 79.44L192 321l-74.83-73.55c-11.77-11.57-11.19-30.51 2.2-41.38 11.1-9.02 27.15-10.16 50.2 12.5L192 240.63l22.43-22.05c22.96-22.57 39.01-21.58 50.2-12.49 13.42 10.88 13.94 29.81 2.2 41.36zM320 81.61V32c0-17.67-14.33-32-32-32H96C78.33 0 64 14.33 64 32v49.61C27.48 89.03 0 121.3 0 160v192c0 38.7 27.48 70.97 64 78.39V480c0 17.67 14.33 32 32 32h192c17.67 0 32-14.33 32-32v-49.61c36.52-7.41 64-39.69 64-78.39V160c0-38.7-27.48-70.97-64-78.39zM96 32h192v48H96V32zm192 448H96v-48h192v48zm64-128c0 26.47-21.53 48-48 48H80c-26.47 0-48-21.53-48-48V160c0-26.47 21.53-48 48-48h224c26.47 0 48 21.53 48 48v192z"/></svg>