<svg xmlns="http://www.w3.org/2000/svg" viewBox="0 0 384 512"><!-- Font Awesome Pro 5.15.4 by @fontawesome - https://fontawesome.com License - https://fontawesome.com/license (Commercial License) --><path d="M136 232h-32a8 8 0 0 0-8 8v32a8 8 0 0 0 8 8h32a8 8 0 0 0 8-8v-32a8 8 0 0 0-8-8zm72 72h-32a8 8 0 0 0-8 8v32a8 8 0 0 0 8 8h32a8 8 0 0 0 8-8v-32a8 8 0 0 0-8-8zm-72 0h-32a8 8 0 0 0-8 8v32a8 8 0 0 0 8 8h32a8 8 0 0 0 8-8v-32a8 8 0 0 0-8-8zm144 0h-32a8 8 0 0 0-8 8v32a8 8 0 0 0 8 8h32a8 8 0 0 0 8-8v-32a8 8 0 0 0-8-8zm-72-72h-32a8 8 0 0 0-8 8v32a8 8 0 0 0 8 8h32a8 8 0 0 0 8-8v-32a8 8 0 0 0-8-8zM320 81.61V32a32 32 0 0 0-32-32H96a32 32 0 0 0-32 32v49.61A80 80 0 0 0 0 160v192a80 80 0 0 0 64 78.39V480a32 32 0 0 0 32 32h192a32 32 0 0 0 32-32v-49.61A80 80 0 0 0 384 352V160a80 80 0 0 0-64-78.39zM96 32h192v48H96zm192 448H96v-48h192zm64-128a48.05 48.05 0 0 1-48 48H80a48.05 48.05 0 0 1-48-48V160a48.05 48.05 0 0 1 48-48h224a48.05 48.05 0 0 1 48 48zm-72-192H104a8 8 0 0 0-8 8v32a8 8 0 0 0 8 8h176a8 8 0 0 0 8-8v-32a8 8 0 0 0-8-8zm0 72h-32a8 8 0 0 0-8 8v32a8 8 0 0 0 8 8h32a8 8 0 0 0 8-8v-32a8 8 0 0 0-8-8z"/></svg>