<svg xmlns="http://www.w3.org/2000/svg" viewBox="0 0 576 512"><!-- Font Awesome Pro 5.15.4 by @fontawesome - https://fontawesome.com License - https://fontawesome.com/license (Commercial License) --><path d="M568.3 416c-29.5-1.5-57.7-11.6-78.2-28.3-5.9-4.8-14.3-4.8-20.2.1-43.7 35.9-127 36.3-171.8-.1-5.9-4.8-14.3-4.8-20.2.1-43.7 35.9-127 36.3-171.8-.1-5.9-4.8-14.3-4.7-20.2.1-20.2 16.6-48.4 26.7-78.2 28.2-4.3.2-7.7 3.6-7.7 7.9v16c0 4.5 3.8 8.3 8.3 8.1 32.3-1.5 63.3-11.4 87.8-27.9 53.8 36.1 139.2 35.8 192 0 53.7 36.1 139.2 35.8 192 0 24.6 16.5 55.6 26.4 87.6 27.9 4.5.2 8.3-3.6 8.3-8.1v-16c0-4.3-3.4-7.7-7.7-7.9zm0-106.7c-29.5-1.5-57.7-11.6-78.2-28.3-5.9-4.8-14.3-4.8-20.2.1-43.7 35.9-127 36.3-171.8-.1-5.9-4.8-14.3-4.8-20.2.1-43.7 35.9-127 36.3-171.8-.1-5.9-4.8-14.3-4.7-20.2.1-20.2 16.6-48.3 26.7-78.1 28.2-4.3.2-7.7 3.6-7.7 7.9v16c0 4.5 3.8 8.3 8.3 8.1 32.3-1.5 63.3-11.4 87.8-27.9 53.8 36.1 139.2 35.8 192 0 53.7 36.1 139.2 35.8 192 0 24.6 16.5 55.6 26.4 87.6 27.9 4.5.2 8.3-3.6 8.3-8.1v-16c-.1-4.3-3.5-7.7-7.8-7.9zm0-106.7c-29.5-1.5-57.7-11.6-78.2-28.3-5.9-4.8-14.3-4.8-20.2.1-43.7 35.9-127 36.3-171.8-.1-5.9-4.8-14.3-4.8-20.2.1-43.7 35.9-127 36.3-171.8-.1-5.9-4.8-14.3-4.7-20.2.1-20.2 16.6-48.4 26.7-78.2 28.2-4.3.2-7.7 3.6-7.7 7.9v16c0 4.5 3.8 8.3 8.3 8.1 32.3-1.5 63.3-11.4 87.8-27.9 53.8 36.1 139.2 35.8 192 0 53.7 36.1 139.2 35.8 192 0 24.6 16.5 55.6 26.4 87.6 27.9 4.5.2 8.3-3.6 8.3-8.1v-16c0-4.3-3.4-7.7-7.7-7.9zm0-106.7c-29.5-1.5-57.7-11.6-78.2-28.3-5.9-4.8-14.3-4.8-20.2.1-43.7 35.9-127 36.3-171.8-.1-5.9-4.8-14.3-4.8-20.2.1-43.7 35.9-127 36.3-171.8-.1-5.9-4.8-14.3-4.7-20.2.1C65.7 84.3 37.5 94.4 7.7 95.9c-4.3.2-7.7 3.6-7.7 7.9v16c0 4.5 3.8 8.3 8.3 8.1 32.3-1.5 63.3-11.4 87.8-27.9 53.8 36.1 139.2 35.8 192 0 53.7 36.1 139.2 35.8 192 0 24.6 16.5 55.6 26.4 87.6 27.9 4.5.2 8.3-3.6 8.3-8.1v-16c0-4.3-3.4-7.7-7.7-7.9z"/></svg>