<svg xmlns="http://www.w3.org/2000/svg" viewBox="0 0 576 512"><!-- Font Awesome Pro 5.15.4 by @fontawesome - https://fontawesome.com License - https://fontawesome.com/license (Commercial License) --><path d="M276.7 235.7c3.1 2.9 7.2 4.4 11.3 4.4s8.2-1.5 11.3-4.4l90.3-84.7c3.1-2.9 3.1-7.7 0-10.6l-11.3-10.6c-3.1-2.9-8.2-2.9-11.3 0l-63 59.1V7.5c0-4.1-3.6-7.5-8-7.5h-16c-4.4 0-8 3.4-8 7.5v181.3l-63-59.1c-3.1-2.9-8.2-2.9-11.3 0l-11.3 10.6c-3.1 2.9-3.1 7.7 0 10.6l90.3 84.8zM568.3 450c-29.5-1.4-57.7-10.9-78.2-26.5-5.9-4.5-14.3-4.5-20.2.1-43.7 33.6-127 34-171.8-.1-5.9-4.5-14.3-4.5-20.2.1-43.7 33.6-127 34-171.8-.1-5.9-4.5-14.3-4.4-20.2.1-20.2 15.6-48.3 25-78.1 26.4-4.3.2-7.7 3.4-7.7 7.4v15c0 4.2 3.8 7.8 8.3 7.6 32.3-1.4 63.3-10.6 87.8-26.2 53.8 33.9 139.2 33.5 192 0 53.7 33.9 139.2 33.5 192 0 24.6 15.5 55.6 24.8 87.6 26.2 4.5.2 8.3-3.3 8.3-7.6v-15c-.1-4-3.5-7.2-7.8-7.4zm0-119.9c-29.5-1.4-57.7-10.9-78.2-26.5-5.9-4.5-14.3-4.5-20.2.1-43.7 33.6-127 34-171.8-.1-5.9-4.5-14.3-4.5-20.2.1-43.7 33.6-127 34-171.8-.1-5.9-4.5-14.3-4.4-20.2.1-20.2 15.6-48.3 25-78.1 26.4-4.3.2-7.7 3.4-7.7 7.4v15c0 4.2 3.8 7.8 8.3 7.6 32.3-1.4 63.3-10.6 87.8-26.2 53.8 33.9 139.2 33.5 192 0 53.7 33.9 139.2 33.5 192 0 24.6 15.5 55.6 24.8 87.6 26.2 4.5.2 8.3-3.3 8.3-7.6v-15c-.1-4-3.5-7.2-7.8-7.4z"/></svg>