<svg xmlns="http://www.w3.org/2000/svg" viewBox="0 0 640 512"><!-- Font Awesome Pro 5.15.4 by @fontawesome - https://fontawesome.com License - https://fontawesome.com/license (Commercial License) --><path d="M632 276h-61.72l-14.44-93.83A12 12 0 0 0 544.25 172c-4.69.11-10.91 4.11-12 9.66L498 353 459.88 86.3a12 12 0 0 0-23.76-.16L385 412.42l-53.06-402a12 12 0 0 0-23.82 0l-53.12 402-51.12-326.28a12 12 0 0 0-23.76.16L142 353l-34.25-171.36c-1.16-5.81-7.87-9.53-12.19-9.64a12 12 0 0 0-11.44 10.17L69.72 276H8a8 8 0 0 0-8 8v8a8 8 0 0 0 8 8h72a12 12 0 0 0 11.84-10.17l5.72-36.91 34.69 173.44c1.16 5.92 5.56 9.34 12.37 9.64a11.92 11.92 0 0 0 11.26-10.3L192.56 169l51.56 332.91c.5 3.08 2.63 10.14 11.6 10.14h.37a12.09 12.09 0 0 0 11.82-10.42L320 106.78l52.09 394.8a12 12 0 0 0 23.79.28L447.44 169l36.68 256.7a12 12 0 0 0 11.57 10.3c4.75-.25 10.81-3.39 12.09-9.66l34.66-173.42 5.72 36.91A11.88 11.88 0 0 0 560 300h72a8 8 0 0 0 8-8v-8a8 8 0 0 0-8-8z"/></svg>