<svg xmlns="http://www.w3.org/2000/svg" viewBox="0 0 640 512"><!-- Font Awesome Pro 5.15.4 by @fontawesome - https://fontawesome.com License - https://fontawesome.com/license (Commercial License) --><path d="M637 485.25L23 1.75A8 8 0 0 0 11.76 3l-10 12.51A8 8 0 0 0 3 26.75l614 483.5a8 8 0 0 0 11.25-1.25l10-12.51a8 8 0 0 0-1.25-11.24zM320 32c106 0 192 86 192 192a190.79 190.79 0 0 1-28.24 99.86l25.12 19.78A222 222 0 0 0 544 224C544 100.29 443.72 0 320 0a223.19 223.19 0 0 0-160.81 68.27l25.19 19.84A191.38 191.38 0 0 1 320 32zM163.07 193.53A159.34 159.34 0 0 0 320 384a158.7 158.7 0 0 0 66.24-14.73L356.69 346c-11.7 3.53-23.85 6-36.68 6A128.15 128.15 0 0 1 192 224c0-2.44.59-4.72.72-7.12zM458 303.6c13.6-23.53 22-50.47 22-79.6a159.65 159.65 0 0 0-270-115.72l25.65 20.2C258.24 108.52 287.56 96 320 96a128.14 128.14 0 0 1 128 128c0 21.62-5.9 41.69-15.4 59.57zm-196.79-155l26.15 20.59A63.31 63.31 0 0 1 320 160a16 16 0 0 0 0-32 95.06 95.06 0 0 0-58.75 20.64zM320 416c-106 0-192-86-192-192a191.88 191.88 0 0 1 7.39-52.27l-26.83-21.13A223.05 223.05 0 0 0 96 224c0 76.19 38.12 143.39 96.24 183.85L143 438.6a32 32 0 0 0-15 27.14V480a32 32 0 0 0 32 32h320a32 32 0 0 0 32-32v-11.7l-97.87-77.06A190.94 190.94 0 0 1 320 416zm160 49.74V480H160v-14.26L223.63 426a221.82 221.82 0 0 0 192.75 0z"/></svg>