<svg xmlns="http://www.w3.org/2000/svg" viewBox="0 0 512 512"><!-- Font Awesome Pro 5.15.4 by @fontawesome - https://fontawesome.com License - https://fontawesome.com/license (Commercial License) --><path d="M510.28 445.86l-73.03-292.13c-3.8-15.19-16.44-25.72-30.87-25.72h-86.74C329.77 114.6 336 98.09 336 80c0-44.18-35.82-80-80-80s-80 35.82-80 80c0 18.09 6.23 34.6 16.36 48h-86.74c-14.43 0-27.08 10.54-30.87 25.72L1.72 445.86C-6.61 479.17 16.38 512 48.03 512h415.95c31.64 0 54.63-32.83 46.3-66.14zM208 80c0-26.47 21.53-48 48-48s48 21.53 48 48-21.53 48-48 48-48-21.53-48-48zm267.27 393.92c-2.17 2.77-5.88 6.08-11.3 6.08H48.03c-5.42 0-9.13-3.3-11.3-6.08-4.29-5.49-5.77-13.08-3.96-20.3l73.03-292.13c.21-.83.52-1.32.43-1.48h299.31c.2.26.47.72.66 1.48l73.03 292.13c1.81 7.22.33 14.81-3.96 20.3z"/></svg>