<svg xmlns="http://www.w3.org/2000/svg" viewBox="0 0 512 512"><!-- Font Awesome Pro 5.15.4 by @fontawesome - https://fontawesome.com License - https://fontawesome.com/license (Commercial License) --><path d="M448 64h-64.81C353.95 25.38 308.07 0 256 0s-97.95 25.38-127.19 64H64C28.71 64 0 92.71 0 128v320c0 35.29 28.71 64 64 64h384c35.29 0 64-28.71 64-64V128c0-35.29-28.71-64-64-64zM256 32c70.69 0 128 57.31 128 128s-57.31 128-128 128-128-57.31-128-128S185.31 32 256 32zm224 416c0 17.67-14.33 32-32 32H64c-17.67 0-32-14.33-32-32V128c0-17.67 14.33-32 32-32h45.56C100.94 115.63 96 137.22 96 160c0 88.22 71.78 160 160 160s160-71.78 160-160c0-22.78-4.94-44.37-13.56-64H448c17.67 0 32 14.33 32 32v320zM256 256c26.47 0 48-21.53 48-48 0-13.92-6.05-26.36-15.54-35.13l30.24-70.57c3.48-8.11-.28-17.52-8.41-21-8.08-3.48-17.52.27-21 8.41l-30.26 70.6C223.57 158 208 188.65 208 208c0 26.47 21.53 48 48 48zm0-64c8.84 0 16 7.16 16 16s-7.16 16-16 16-16-7.16-16-16 7.16-16 16-16z"/></svg>