<svg xmlns="http://www.w3.org/2000/svg" viewBox="0 0 640 512"><!-- Font Awesome Pro 5.15.4 by @fontawesome - https://fontawesome.com License - https://fontawesome.com/license (Commercial License) --><path d="M432 288c-8.84 0-16 7.16-16 16s7.16 16 16 16 16-7.16 16-16-7.16-16-16-16zm80-160c-210.5 0-287.35 224-332.12 224-10.96 0-19.88-8.92-19.88-19.88V224l47.38-24.9c10.39-5.93 16.62-15.93 16.62-26.62V80.03c0-9.41-9.01-16.03-18.72-16.03-3.47 0-7.03.85-10.3 2.71L112 114.13 29.02 66.71A20.781 20.781 0 0 0 18.72 64C9.01 64 0 70.61 0 80.03v92.45c0 10.7 6.24 20.69 16.62 26.62L64 224v108.12c0 64 51.88 115.88 115.88 115.88H560c44.18 0 80-35.82 80-80V256.54C640 183.59 576 128 512 128zm96 240c0 26.47-21.53 48-48 48H179.88C133.63 416 96 378.37 96 332.12V204.67l-64-33.84v-65.56l80 45.71 80-45.71v65.76l-64 33.64v127.46c0 28.6 23.27 51.88 51.88 51.88 29.8 0 49.95-25.95 80.45-65.23C309.41 255.54 383.6 160 512 160c45.41 0 96 39.65 96 96.54V368z"/></svg>