<svg xmlns="http://www.w3.org/2000/svg" viewBox="0 0 640 512"><!-- Font Awesome Pro 5.15.4 by @fontawesome - https://fontawesome.com License - https://fontawesome.com/license (Commercial License) --><path d="M210 189.4c-35.7 0-64.6 28.9-64.6 64.6 0 35.7 28.9 64.6 64.6 64.6s64.6-28.9 64.6-64.6c0-35.7-28.9-64.6-64.6-64.6zm0 96.9c-17.8 0-32.3-14.5-32.3-32.3 0-17.8 14.5-32.3 32.3-32.3s32.3 14.5 32.3 32.3c0 17.8-14.5 32.3-32.3 32.3zm254.2-83.7L436.5 219c-2.9 1.7-6.5 1.5-9.2-.6L401.9 198c-2.7-2.1-3.7-5.7-2.6-8.9l10.3-29.8c2.2-6.5.1-13.6-5.2-17.9-68-54.4-107.8-97.3-194.5-97.3-33 0-66 7.8-96.1 23.3C101.5 52.8 83.8 44 64.6 44 29 44 0 73 0 108.6c0 19.5 8.7 37.5 23.2 49.6-40.5 79-27.8 178.2 38.3 244.3 41 41 94.7 61.5 148.5 61.5s107.5-20.5 148.5-61.5c10.1-10.1 18.9-20.9 26.5-32.4l151.9 86.8c7.1 4 16 2.2 20.9-4.3l79-105.3c5.2-7 4-16.9-2.8-22.3L482.5 203.8c-5.2-4.2-12.5-4.7-18.3-1.2zm-431.9-94c0-17.8 14.5-32.3 32.3-32.3 8.1 0 15.8 3 21.6 8.3-8.6 6.3-17 13.1-24.7 20.9-7.7 7.7-14.4 16-20.7 24.5-5.2-5.8-8.5-13.2-8.5-21.4zm512.5 307.5c-2.4 3.3-6.9 4.2-10.5 2.2l-159.5-91.2c-13.2 19.9-57 104.2-164.1 104.6-158 .6-238.3-191.4-126.4-303.3 82.3-82.3 183.4-48 220.5-24.5 9.2 6.7 70.5 55.6 70.5 55.6l-12.1 35.2c-2.2 6.5-.1 13.6 5.2 17.9l51.9 41.5c5.2 4.2 12.5 4.7 18.3 1.3l32.5-19.2 124.4 99.5c3.4 2.7 4 7.7 1.4 11.2l-52.1 69.2z"/></svg>