<svg xmlns="http://www.w3.org/2000/svg" viewBox="0 0 640 512"><!-- Font Awesome Pro 5.15.4 by @fontawesome - https://fontawesome.com License - https://fontawesome.com/license (Commercial License) --><path d="M320 320c-44.18 0-80 35.82-80 80 0 44.19 35.83 80 80 80 44.19 0 80-35.84 80-80 0-44.18-35.82-80-80-80zm0 128c-26.47 0-48-21.53-48-48s21.53-48 48-48 48 21.53 48 48-21.53 48-48 48zm316.21-290.05C459.22-9.9 180.95-10.06 3.79 157.95c-4.94 4.69-5.08 12.51-.26 17.32l5.69 5.69c4.61 4.61 12.07 4.74 16.8.25 164.99-156.39 423.64-155.76 587.97 0 4.73 4.48 12.19 4.35 16.8-.25l5.69-5.69c4.81-4.81 4.67-12.63-.27-17.32zM526.02 270.31c-117.34-104.48-294.86-104.34-412.04 0-5.05 4.5-5.32 12.31-.65 17.2l5.53 5.79c4.46 4.67 11.82 4.96 16.66.67 105.17-93.38 264-93.21 368.98 0 4.83 4.29 12.19 4.01 16.66-.67l5.53-5.79c4.65-4.89 4.38-12.7-.67-17.2z"/></svg>