<svg xmlns="http://www.w3.org/2000/svg" viewBox="0 0 640 512"><!-- Font Awesome Pro 5.15.4 by @fontawesome - https://fontawesome.com License - https://fontawesome.com/license (Commercial License) --><path d="M192 0C86 0 0 86 0 192s86 192 192 192 192-86 192-192S298 0 192 0zm0 352c-88.2 0-160-71.8-160-160S103.8 32 192 32s160 71.8 160 160-71.8 160-160 160zm-8.5-144h17c4.2 0 7.7-3.3 8-7.5l7-112c.3-4.6-3.4-8.5-8-8.5h-31c-4.6 0-8.3 3.9-8 8.5l7 112c.3 4.2 3.8 7.5 8 7.5zm8.5 24c-13.3 0-24 10.7-24 24s10.7 24 24 24 24-10.7 24-24-10.7-24-24-24zm347.7 88H375.6c-8 11.5-17.1 22.2-27.1 32h192.4c33.4 0 63.3 24.4 66.5 57.6 3.7 38.1-26.3 70.4-63.7 70.4-32.8 0-59.9-24.8-63.6-56.5-.5-4.2-3.7-7.4-7.9-7.4h-16.1c-4.6 0-8.4 3.9-8 8.4 4.3 49.1 45.5 87.6 95.6 87.6 54 0 97.6-44.6 96-98.9-1.6-52.7-47.5-93.2-100-93.2zm98.1-148.7c-7.6-36.3-36.9-65.6-73.2-73.2-59.1-12.3-111.5 29.8-116.3 85.4-.4 4.6 3.5 8.4 8 8.4h16.2c4.2 0 7.4-3.3 7.9-7.4 4.2-36.6 39.5-63.8 78.7-54.8 23.1 5.3 41.8 24.1 47.2 47.2 9.6 41.8-22.1 79.1-62.3 79.1H406.6c-3.3 11.1-7.6 21.7-12.5 32H544c59.8 0 106.8-54.6 93.8-116.7z"/></svg>