<svg xmlns="http://www.w3.org/2000/svg" viewBox="0 0 512 512"><!-- Font Awesome Pro 5.15.4 by @fontawesome - https://fontawesome.com License - https://fontawesome.com/license (Commercial License) --><path d="M497.3 158L64 100.3v-7.2C82.6 86.5 96 68.9 96 48 96 21.5 74.5 0 48 0S0 21.5 0 48c0 20.9 13.4 38.5 32 45.1v410.3c0 4.8 3.6 8.6 8 8.6h16c4.4 0 8-3.9 8-8.6v-99.7L497.3 346c8.4-1.1 14.7-7.9 14.7-15.8V173.9c0-8-6.3-14.7-14.7-15.9zM48 32c8.8 0 16 7.2 16 16s-7.2 16-16 16-16-7.2-16-16 7.2-16 16-16zm256 132.5l80 10.7v153.6l-80 10.7v-175zm-32 179.2l-96 12.8v-209l96 12.8v183.4zM64 132.5l80 10.7v217.6l-80 10.7v-239zM480 316l-64 8.5v-145l64 8.5v128z"/></svg>