<svg xmlns="http://www.w3.org/2000/svg" viewBox="0 0 512 512"><!-- Font Awesome Pro 5.15.4 by @fontawesome - https://fontawesome.com License - https://fontawesome.com/license (Commercial License) --><path d="M502.91 72.46L439.3 8.81c-11.75-11.75-32.12-11.74-43.87-.01l-21.25 21.25c-7.91 7.94-10.63 19.17-8.13 29.36l-56.44 56.47c-48.66-16.23-102.17-3.88-138.89 32.85L22.2 297.29c-29.6 29.66-29.6 77.89 0 107.54l84.88 84.89C121.43 504.09 140.49 512 160.8 512s39.41-7.91 53.76-22.28l148.52-148.57c36.69-36.71 49.04-90.22 32.82-138.97l56.41-56.44c10.28 2.5 21.75-.55 29.41-8.19l21.19-21.2c5.84-5.86 9.09-13.65 9.09-21.95s-3.25-16.08-9.09-21.94zm-184.7 268.3l-89.39 89.42-147.1-147.16 89.4-89.43 147.09 147.17zm-188.5 126.32l-84.88-84.89c-17.13-17.17-17.13-45.1 0-62.27l14.27-14.27 147.1 147.17-14.26 14.27c-16.63 16.63-45.6 16.63-62.23-.01zm330.82-352.14l-11.34-11.35-90.82 90.89 4.19 9.93c16.55 39.1 7.98 83.65-21.73 113.69L193.79 170.99c50.83-50.29 111.75-22.55 113.63-21.76l9.91 4.21 90.79-89.46-11.28-11.32 19.81-21.23 62.94 63-19.06 20.51z"/></svg>