<svg xmlns="http://www.w3.org/2000/svg" viewBox="0 0 576 512"><!-- Font Awesome Pro 5.15.4 by @fontawesome - https://fontawesome.com License - https://fontawesome.com/license (Commercial License) --><path d="M564 160c6.627 0 12-5.373 12-12v-16c0-6.627-5.373-12-12-12h-53.813l17.23-72.328c1.797-7.541-3.921-14.781-11.673-14.781h-16.275a11.999 11.999 0 0 0-11.691 9.296L469.781 120H327.096l-18.92-77.94a12 12 0 0 0-11.662-9.169h-18.723a12.001 12.001 0 0 0-11.662 9.169L247.209 120H106.656L89.318 42.278a12 12 0 0 0-11.712-9.387H61.313c-7.722 0-13.434 7.188-11.69 14.71L66.41 120H12c-6.627 0-12 5.373-12 12v16c0 6.627 5.373 12 12 12h63.685l12.984 56H12c-6.627 0-12 5.373-12 12v16c0 6.627 5.373 12 12 12h85.943l49.783 214.71a12 12 0 0 0 11.69 9.29h28.302c5.539 0 10.357-3.79 11.662-9.173L251.463 256h71.378l52.084 214.827A12 12 0 0 0 386.587 480h28.361a12 12 0 0 0 11.673-9.219L477.788 256H564c6.627 0 12-5.373 12-12v-16c0-6.627-5.373-12-12-12h-76.683l13.341-56H564zM286.582 98.399h1.14s1.484 9.036 3.793 21.601h-8.726a1280.842 1280.842 0 0 0 3.793-21.601zM115.579 160h121.919l-13.595 56H128.07l-12.491-56zm68.477 220.147c-5.696 22.896-8.544 47.7-9.114 47.7h-1.139s-3.987-24.804-9.113-47.7L136.995 256h77.199l-30.138 124.147zM261.161 216l12.321-50.82c.405-1.696.808-3.427 1.208-5.18h24.926c.4 1.753.803 3.484 1.208 5.18l12.32 50.82h-51.983zm148.454 164.147c-5.127 22.896-9.113 47.7-9.113 47.7h-1.14c-.569 0-3.418-24.804-9.113-47.7L360.111 256h78.216l-28.712 124.147zM447.579 216h-97.178l-13.595-56H460.53l-12.951 56z"/></svg>