<svg xmlns="http://www.w3.org/2000/svg" viewBox="0 0 448 512"><!-- Font Awesome Pro 5.15.4 by @fontawesome - https://fontawesome.com License - https://fontawesome.com/license (Commercial License) --><path d="M310.8 193.4c-2.3-22.1-10.3-34.6-31.4-44.5-1.4-.7-.9-.3-1.9-1.5-15.8-18.2-30.5-22.3-52.1-17.6-1.7.4-.9.3-2.6 0-21.6-4.7-36.3-.6-52.1 17.6-1 1.2-.5.8-1.9 1.5-21.1 9.9-29.1 22.4-31.5 44.5-.2 2.3 0 1.5-.9 3.2-11 19.8-11.2 34.7 0 54.9 1 1.7.7.9.9 3.2 2.4 22.8 10.9 34.8 31.4 44.5 1.4.7.9.3 1.9 1.5 15.8 18.2 30.5 22.3 52.1 17.6 1.6-.3.9-.4 2.6 0 21.6 4.7 36.3.6 52.1-17.6 1-1.2.6-.8 1.9-1.5 21.1-9.9 29.1-22.4 31.5-44.5.2-2.3 0-1.5.9-3.2 10.9-19.7 11.2-34.6 0-54.9-.9-1.7-.6-.9-.9-3.2zm-30.4 49.7c-2 6.5-.8 14.7-4.6 20.1-3.8 5.4-11.7 6.8-16.9 10.8-5.2 3.9-8.8 11.4-15 13.5-6 2-13.2-1.7-19.8-1.7-6.6 0-13.8 3.7-19.8 1.7-6.2-2.1-9.9-9.5-15-13.5-5.2-4-13.1-5.3-16.9-10.8-3.8-5.4-2.6-13.6-4.6-20.1-1.9-6.2-7.6-12.2-7.6-19.1 0-6.9 5.7-12.8 7.6-19.1 2-6.5.8-14.7 4.6-20.1 3.8-5.4 11.7-6.8 16.9-10.8 5.2-3.9 8.8-11.4 15-13.5 6-2 13.2 1.7 19.8 1.7 6.6 0 13.8-3.7 19.8-1.7 6.2 2.1 9.9 9.5 15 13.5 5.2 4 13.1 5.3 16.9 10.8 3.8 5.4 2.6 13.6 4.6 20.1 1.9 6.2 7.6 12.2 7.6 19.1s-5.7 12.8-7.6 19.1zM448 224c0-15.3-4.7-29.8-13.2-41.9 3.2-14.4 2-29.7-3.8-43.8-5.9-14.4-16.1-26.1-28.8-34-2.4-14.6-9.2-28.1-19.8-38.7-10.5-10.5-24-17.4-38.7-19.8-7.9-12.7-19.6-22.8-34-28.8-18.6-7.7-35.1-5.8-43.8-3.8C253.8 4.7 239.3 0 224 0s-29.8 4.7-41.9 13.2c-8.7-1.9-25.2-3.9-43.8 3.8-14.3 5.9-26 16-33.9 28.8-14.7 2.4-28.1 9.2-38.7 19.8C55 76.2 48.3 89.7 45.8 104.3c-12.7 7.9-22.8 19.6-28.8 34-5.8 14.1-7.1 29.4-3.8 43.8C4.7 194.2 0 208.7 0 224c0 15.3 4.7 29.8 13.2 41.9-3.2 14.4-2 29.7 3.8 43.8 5.9 14.2 16 25.9 28.7 33.7 2.4 14.7 9.2 28.3 19.8 39C78.1 394.9 94.1 400 112 400v78.6c0 9.5 3.6 19 10.7 25.3 8.6 7.6 20.5 10.1 32.5 6l68.8-28.6 69.9 29c3.3 1.1 6.7 1.6 10.1 1.6 6.7 0 13.2-2.1 18.8-6 8.3-6 13.3-15.7 13.3-26v-80c17.8 0 33.8-5 46.4-17.6 10.7-10.7 17.4-24.3 19.8-39 12.8-7.9 22.8-19.5 28.7-33.7 5.8-14.1 7-29.4 3.8-43.8 8.5-12 13.2-26.5 13.2-41.8zM224 446.7L144 480l-1.1-96.4 81.1 33.7 80-33.3 1.1 96.4-81.1-33.7zm173.2-188.2c7.6 11.1 9.7 25.7 4.2 39-5.6 13.6-17.8 22.1-31.3 24.4 2.9 13.3 0 27.6-10.3 37.9-7.4 7.4-16.9 11-26.6 11.6-2.3-5.2-5.7-9.9-10.5-13.3-8.3-6-19-7.7-28.8-4.4l-69.9 29-69.9-29c-9.9-3.3-20.6-1.6-28.8 4.4-4.7 3.4-8.2 8.1-10.5 13.3-9.7-.6-19.2-4.2-26.6-11.6-10.3-10.3-13.3-24.6-10.3-37.9-13.5-2.3-25.7-10.8-31.3-24.4-5.5-13.4-3.5-27.9 4.2-39-11.3-7.4-18.8-20-18.8-34.5s7.5-27.1 18.8-34.5c-7.6-11.1-9.7-25.7-4.2-39 5.6-13.6 17.7-22.5 31.2-24.7-2.8-13.2.2-27.3 10.4-37.6C103 73.4 121.8 77 125.8 77.8c2.3-13.5 11.1-25.6 24.7-31.2 14.1-5.8 28.6-3 39 4.2 7.3-11.3 20-18.8 34.5-18.8s27.1 7.5 34.5 18.8c10.5-7.2 25-9.9 39-4.1 13.6 5.6 22.4 17.7 24.7 31.2 4-.9 22.8-4.4 37.6 10.4 10.2 10.2 13.2 24.4 10.4 37.5 13.5 2.3 25.6 11.1 31.2 24.7 5.5 13.4 3.5 27.9-4.2 39 11.3 7.3 18.8 20 18.8 34.5s-7.5 27.1-18.8 34.5z"/></svg>