<svg xmlns="http://www.w3.org/2000/svg" viewBox="0 0 512 512"><!-- Font Awesome Pro 5.15.4 by @fontawesome - https://fontawesome.com License - https://fontawesome.com/license (Commercial License) --><path d="M101.42 352h16.94c6.81 0 12.88-4.32 15.12-10.75l7.38-21.25h70.29l7.38 21.25A16 16 0 0 0 233.65 352h16.94c11.01 0 18.73-10.85 15.12-21.25L212 176.13A24.004 24.004 0 0 0 189.33 160h-26.66c-10.22 0-19.32 6.47-22.67 16.12L86.31 330.75C82.7 341.15 90.42 352 101.42 352zM176 218.78L194.48 272h-36.96L176 218.78zM352 352c9.93 0 19.4-2.02 28.02-5.68 2.94 3.41 7.13 5.68 11.98 5.68h16c8.84 0 16-7.16 16-16V176c0-8.84-7.16-16-16-16h-16c-8.84 0-16 7.16-16 16v36.42c-7.54-2.69-15.54-4.42-24-4.42-39.7 0-72 32.3-72 72s32.3 72 72 72zm0-96c13.23 0 24 10.77 24 24s-10.77 24-24 24-24-10.77-24-24 10.77-24 24-24zM464 64H48C21.5 64 0 85.5 0 112v288c0 26.5 21.5 48 48 48h416c26.5 0 48-21.5 48-48V112c0-26.5-21.5-48-48-48zm0 336H48V112h416v288z"/></svg>