<svg xmlns="http://www.w3.org/2000/svg" viewBox="0 0 576 512"><!-- Font Awesome Pro 5.15.4 by @fontawesome - https://fontawesome.com License - https://fontawesome.com/license (Commercial License) --><path d="M437.42,309.5A16.1,16.1,0,0,0,416,324.67v17.62c0,6.38,3.93,11.85,9.66,14.63,14.92,7.25,24.72,23.06,21.84,41.47C444.4,418.12,426.2,432,406.22,432H400a40,40,0,0,1-40-40V288H312V392a88,88,0,0,0,88,88h4.53c44.92,0,85.21-32.18,90.77-76.76A87.55,87.55,0,0,0,437.42,309.5ZM216,424a40,40,0,0,1-40,40h-6.22c-20,0-38.18-13.88-41.28-33.61-2.88-18.41,6.92-34.22,21.84-41.47,5.73-2.78,9.66-8.25,9.66-14.63V356.67a16.1,16.1,0,0,0-21.42-15.17A87.55,87.55,0,0,0,80.7,435.24C86.26,479.82,126.55,512,171.47,512H176a88,88,0,0,0,88-88V288H216ZM544,0H32A32,32,0,0,0,0,32V224a32,32,0,0,0,32,32H544a32,32,0,0,0,32-32V32A32,32,0,0,0,544,0ZM528,208H48V48H528ZM112,176H464a16,16,0,0,0,16-16V144a16,16,0,0,0-16-16H112a16,16,0,0,0-16,16v16A16,16,0,0,0,112,176Z"/></svg>