<svg xmlns="http://www.w3.org/2000/svg" viewBox="0 0 512 512"><!-- Font Awesome Pro 5.15.4 by @fontawesome - https://fontawesome.com License - https://fontawesome.com/license (Commercial License) --><path d="M256 64C132.26 64 32 164.29 32 288a222.69 222.69 0 0 0 44.75 134l-40.1 40.09a16 16 0 0 0 0 22.63l22.63 22.62a16 16 0 0 0 22.62 0l40.1-40.12a222.82 222.82 0 0 0 268 0l40.1 40.09a16 16 0 0 0 22.63 0l22.62-22.62a16 16 0 0 0 0-22.63L435.21 422A222.7 222.7 0 0 0 480 288c0-123.71-100.3-224-224-224zm0 400a176 176 0 1 1 176-176 176 176 0 0 1-176 176zM96 0A96 96 0 0 0 0 96a94.81 94.81 0 0 0 15.3 51.26L161.2 25.68A95.63 95.63 0 0 0 96 0zm184 292.47V168a8 8 0 0 0-8-8h-32a8 8 0 0 0-8 8v132.16a32 32 0 0 0 12 25l64.54 51.57a8.58 8.58 0 0 0 5.87 1.72 8 8 0 0 0 5.35-2.95l20-25a8 8 0 0 0-1.25-11.27zM416 0a95.66 95.66 0 0 0-65.18 25.66l145.89 121.57A94.85 94.85 0 0 0 512 96a96 96 0 0 0-96-96z"/></svg>