<svg xmlns="http://www.w3.org/2000/svg" viewBox="0 0 512 512"><!-- Font Awesome Pro 5.15.4 by @fontawesome - https://fontawesome.com License - https://fontawesome.com/license (Commercial License) --><path d="M496 104a24 24 0 0 0-24-24H40a24 24 0 0 0-24 24v24h480zm-16-80a24 24 0 0 0-24-24H56a24 24 0 0 0-24 24v24h448zm0 136H32A32 32 0 0 0 .13 194.9l26.19 288A32 32 0 0 0 58.18 512h395.64a32 32 0 0 0 31.86-29.1l26.19-288A32 32 0 0 0 480 160zm-40.8 304H72.8L49.52 208h413zM256 448c80.13 0 148.25-45.29 152.34-104 4.32-62-63.78-114.89-152.35-114.89S99.33 282.05 103.66 344c4.1 58.71 72.21 104 152.34 104zm0-120.41c14.56 0 26.26 8.69 26.14 19.32s-11.82 19-26.14 19-26-8.47-26.13-19 11.58-19.32 26.13-19.32z"/></svg>