<svg xmlns="http://www.w3.org/2000/svg" viewBox="0 0 640 512"><!-- Font Awesome Pro 5.15.4 by @fontawesome - https://fontawesome.com License - https://fontawesome.com/license (Commercial License) --><path d="M448 96c0-8.84-7.16-16-16-16s-16 7.16-16 16 7.16 16 16 16 16-7.16 16-16zm183.98-32H526.61l-15.28-18.57c16.37-5.23 29.03-18.72 32.51-35.79C544.85 4.68 540.96 0 535.9 0H399.95c-68.22 0-125.48 47.71-140.26 111.5-36.9-1.23-73.89-13.34-98.32-40.94-4.02-4.54-9.17-6.56-14.21-6.56-9.78 0-19.16 7.6-19.16 19.06 0 86.09 59.76 162.72 140.01 183.21 10.11 2.58 19.99-5.19 19.99-15.63v-16.36c0-6.96-4.44-13.34-11.15-15.21-37.34-10.46-68.92-37.67-86.32-73.34 23.38 9.37 48.83 14.27 75.24 14.27h38.18v-16c0-53.02 42.98-96 96-96h51.33l44.67 54.28.05 65.35c0 4.77-3.03 9.01-7.54 10.55l-31.02 10.59c-1.51.52-9.71 2.95-16.48-3.83L416 160h-32v80c0 26.09-12.68 49.03-32 63.64V464h-48V320l-107.91-30.83-28.65 79.78L191.53 464H150l-21.13-87.86a31.698 31.698 0 0 1 .37-16.18l22.7-76.72C128.54 273.72 112 250.83 112 224c0-14.93 5.32-28.49 13.9-39.38-9.05-14.37-15.81-30.08-20.87-46.54-7.91 6.56-15.17 13.86-21.04 22.32C37.36 162.55 0 200.84 0 248v56c0 8.84 7.16 16 16 16h16c8.84 0 16-7.16 16-16v-56c0-13.22 6.87-24.39 16.78-31.68-.18 2.59-.78 5.05-.78 7.68 0 30.13 11.9 58.09 32.16 78.58l-12.95 43.76a78.913 78.913 0 0 0-1.05 40.84l24.12 100.29c3.46 14.38 16.32 24.52 31.11 24.52h74.7c20.86 0 36.14-19.64 31.02-39.86l-25.53-100.76 8.51-23.71L256 356.2V480c0 17.67 14.33 32 32 32h80c17.67 0 32-14.33 32-32V324.35c20.57-23.15 32-52.8 32-84.35v-5.62c20.95 6.97 38.32.72 40.93-.17l31.03-10.59c23.96-8.18 40.05-30.7 40.04-56.01l-.04-52.28 92.46-36.67c6.59-4.39 3.48-14.66-4.44-14.66z"/></svg>