<svg xmlns="http://www.w3.org/2000/svg" viewBox="0 0 480 512"><!-- Font Awesome Pro 5.15.4 by @fontawesome - https://fontawesome.com License - https://fontawesome.com/license (Commercial License) --><path d="M256 304c-8.8 0-16 7.2-16 16s7.2 16 16 16 16-7.2 16-16-7.2-16-16-16zm-64-16c-8.8 0-16 7.2-16 16s7.2 16 16 16 16-7.2 16-16-7.2-16-16-16zm64 112c-8.8 0-16 7.2-16 16s7.2 16 16 16 16-7.2 16-16-7.2-16-16-16zm152-288c-2.7 0-5.4.2-8 .4V104c0-39.7-32.3-72-72-72-6.4 0-12.7.8-18.6 2.4C296.7 13.8 273.9 0 248 0s-48.7 13.8-61.4 34.4c-5.9-1.6-12.2-2.4-18.6-2.4-39.7 0-72 32.3-72 72v92.1c-10.5-3.7-38.1-10.2-65.3 8.9C-1.8 227.8-9.8 272.8 13 305.3l113.5 171c14.9 22.4 39.8 35.7 66.6 35.7h180.6c38 0 71-27 78.5-64.3l20.6-103.2c4.7-23.7 7.1-48 7.1-72.2V184c.1-39.7-32.2-72-71.9-72zm24 160.3c0 21.1-2.1 42.1-6.2 62.8l-20.6 103.2c-3 15-16.1 25.7-31.4 25.7H193.1c-10.7 0-20.7-5.4-26.7-14.3L52.3 277.8c-18-25.7 20.7-54.1 39.3-27.5l37.8 54.4c4.5 6.5 14.6 3.2 14.6-4.6V104c0-31.8 48-31.7 48 0v144c0 4.4 3.6 8 8 8h16c4.4 0 8-3.6 8-8V72c0-31.8 48-31.7 48 0v176c0 4.4 3.6 8 8 8h16c4.4 0 8-3.6 8-8V104c0-31.8 48-31.7 48 0v144c0 4.4 3.6 8 8 8h16c4.4 0 8-3.6 8-8v-64c0-31.8 48-31.7 48 0v88.3zM192 368c-8.8 0-16 7.2-16 16s7.2 16 16 16 16-7.2 16-16-7.2-16-16-16zm192-80c-8.8 0-16 7.2-16 16s7.2 16 16 16 16-7.2 16-16-7.2-16-16-16zm-32 112c-8.8 0-16 7.2-16 16s7.2 16 16 16 16-7.2 16-16-7.2-16-16-16zm-32-64c-8.8 0-16 7.2-16 16s7.2 16 16 16 16-7.2 16-16-7.2-16-16-16z"/></svg>