<svg xmlns="http://www.w3.org/2000/svg" viewBox="0 0 640 512"><!-- Font Awesome Pro 5.15.4 by @fontawesome - https://fontawesome.com License - https://fontawesome.com/license (Commercial License) --><path d="M635.1 210.8c-.1-.1-40.2-80.4-40.2-80.4-11.4-22.7-39.9-33.6-64.4-21.3L478.9 135s-76.4-7-77.4-7c-18.7 0-36.6 4.3-52.7 12.5-6.6-8.8-14.3-14.1-23.5-18.3 11.4-35.6-14.8-73.5-53.5-73.2-3.2-26.4-25.9-49-55.5-49-13 0-25.6 4.5-35.7 12.8-45.4 37.3-74.4 89.6-82.4 146.6l-29.7 53.5s-44.7 25.4-44.8 25.5C2.1 251.1-6.1 278.5 4.9 301.2c.1.1 40.2 80.4 40.2 80.4 11.5 22.9 40.1 33.5 64.4 21.3l51.6-25.9c76.9 7 76.9 7 78.8 7 18.1 0 35.6-4.5 51.2-12.5 6.6 8.8 14.3 14.1 23.5 18.3-11.8 37 17.1 73.8 53.5 73.4 3.4 27.1 26.7 48.9 55.6 48.9 13 0 25.7-4.5 35.6-12.8 45.4-37.3 74.4-89.6 82.4-146.6l29.7-53.5s44.7-25.4 44.8-25.5c21.7-12.8 29.9-40.1 18.9-62.9zM297 188.6c-19.9-9.9-43.4-11.3-64.5-3.9-8.4 3-6.3 15.5 2.7 15.5 32.4 0 57.2 14.5 69.8 41 9 18.8-19.8 32.9-28.8 13.6l-.1-.1c-6.9-14-20.7-22.7-36.2-22.7-22.1 0-40 17.9-40 40 0 24.7 20.8 40 40 40 15.5 0 29.3-8.7 36.2-22.7l.1-.1c9.1-19.2 37.8-5.2 28.8 13.6-11.9 24.9-37.3 41.1-64.7 41.2-4.6-.4-62.2-5.7-84.6-7.7-1.5-.1-3 .1-4.3.8l-59.8 30c-4.5 2.2-9.1 0-10.8-3.4l-40-79.9c-1.9-3.9-.5-8.7 3.1-10.8l52.2-29.7c1.3-.7 2.3-1.8 3-3.1l37-66.7c.5-.9.8-1.9 1-3 5.6-49.8 30-94.8 68.9-126.7 6.7-5.6 16.9-4.8 22.4 2.1 6 7.5 4.4 17.2-2.2 22.6-12.1 10.2-22.4 21.5-30.6 33.5-4.9 7.3 3.8 16.1 11.1 11.1C226 100 247.3 92 270 89.2c8.2-1.1 16.4 4.1 17.8 13.9 1.1 8.7-4.8 16.7-13.8 17.8-15 1.8-29.4 6.8-42.9 14.8-7.8 4.6-3 16.6 5.8 14.7 23.6-5.2 51.3-1.7 74 9.3 19.2 9.5 5.1 38.1-13.9 28.9zm299.1 50.5l-52.2 29.7c-1.3.7-2.3 1.8-3 3.1l-37 66.7c-.5.9-.8 1.9-1 3-5.6 49.8-30 94.8-68.9 126.7-16 13.4-36.8-11-20.2-24.7 12.2-10.3 22.5-21.6 30.7-33.6 5-7.4-4-16-11.1-11.1-19.3 13.1-40.6 21.2-63.2 23.9-21.2 2.6-24.9-29.3-4.1-31.6 15-1.8 29.4-6.8 42.9-14.8 7.8-4.6 3-16.6-5.8-14.7-23.6 5.2-51.3 1.7-74-9.3-19.2-9.6-5-38.2 13.9-28.9 19.9 9.9 43.4 11.4 64.5 3.9 8.4-3 6.3-15.5-2.7-15.5-32.4 0-57.2-14.5-69.8-41-9-18.8 19.8-32.9 28.8-13.6l.1.1c6.9 14 20.7 22.7 36.2 22.7 22.1 0 40-17.9 40-40 0-24.7-20.8-40-40-40-15.5 0-29.3 8.7-36.2 22.7l-.1.1c-9.1 19.2-37.8 5.2-28.8-13.6 12.1-25.3 37.4-41.1 66.2-41.2l83.1 7.7c1.5.1 3-.1 4.3-.8l59.8-30c4.5-2.2 9.1 0 10.8 3.4l40 79.9c1.7 3.9.4 8.6-3.2 10.8z"/></svg>