<svg xmlns="http://www.w3.org/2000/svg" viewBox="0 0 576 512"><!-- Font Awesome Pro 5.15.4 by @fontawesome - https://fontawesome.com License - https://fontawesome.com/license (Commercial License) --><path d="M571.515 331.515l-67.029-67.029c-4.686-4.686-12.284-4.686-16.971 0l-67.029 67.029c-7.56 7.56-2.206 20.485 8.485 20.485h44.268C453.531 417.326 380.693 456.315 312 462.865V216h60c6.627 0 12-5.373 12-12v-24c0-6.627-5.373-12-12-12h-60v-11.668c32.456-10.195 56-40.512 56-76.332 0-44.183-35.817-80-80-80s-80 35.817-80 80c0 35.82 23.544 66.138 56 76.332V168h-60c-6.627 0-12 5.373-12 12v24c0 6.627 5.373 12 12 12h60v246.865C195.192 456.304 122.424 417.176 102.762 352h44.268c10.691 0 16.045-12.926 8.485-20.485l-67.029-67.029c-4.686-4.686-12.284-4.686-16.971 0l-67.03 67.029C-3.074 339.074 2.28 352 12.971 352h40.284C73.657 451.556 181.238 512 288 512c113.135 0 215.338-65.3 234.745-160h40.284c10.691 0 16.045-12.926 8.486-20.485zM288 48c17.645 0 32 14.355 32 32s-14.355 32-32 32-32-14.355-32-32 14.355-32 32-32z"/></svg>