<svg xmlns="http://www.w3.org/2000/svg" viewBox="0 0 576 512"><!-- Font Awesome Pro 5.15.4 by @fontawesome - https://fontawesome.com License - https://fontawesome.com/license (Commercial License) --><path d="M571.7 453.1l-38.2-78.6c-6.6-13.5-6.6-29.6 0-43.1 16.2-33.4 26.4-37.5 26.4-75.3 0-51.1-46.9-96-100.4-96-25.1 0-48.7 10-66.3 28.1l-72.7 73.4c-10.3-3.4-21.2-5.4-32.5-5.4-11.2 0-22.1 2-32.4 5.4l-72.7-73.3c-17.6-18-41.2-28.1-66.3-28.1-53.5 0-100.4 44.9-100.4 96 0 37.9 10.2 42 26.4 75.3 6.6 13.5 6.6 29.6 0 43.1L4.4 453.1c-14.5 29.8 9.3 58.9 36.3 58.9h494.7c27.6 0 50.4-29.9 36.3-58.9zM52.4 464l33.4-68.6c12.9-26.6 12.9-58.5 0-85.1-5.4-11.2-9.9-18.9-13.5-25.1-7.2-12.4-8.1-14-8.1-29.2 0-24.7 25.5-48 52.4-48 12.1 0 23.5 4.9 32.1 13.7l65.2 65.8c-7.3 7.5-13.6 16.1-18.4 25.7L120.1 464H52.4zm121.4 0l64.6-129.3c9.5-18.9 28.5-30.7 49.7-30.7 21.2 0 40.2 11.8 49.7 30.7L402.3 464H173.8zm282.1 0l-75.3-150.8c-4.8-9.7-11.1-18.2-18.4-25.7l65.2-65.8c8.6-8.9 20-13.7 32.1-13.7 27 0 52.4 23.3 52.4 48 0 15.2-.9 16.8-8.1 29.2-3.6 6.2-8.1 13.9-13.5 25.1-12.9 26.6-12.9 58.5 0 85.1l33.4 68.6h-67.8zM208 144c0 44.2 35.8 80 80 80s80-35.8 80-80-35.8-80-80-80-80 35.8-80 80zm112 0c0 17.6-14.4 32-32 32s-32-14.4-32-32 14.4-32 32-32 32 14.4 32 32zm-143.3-6.7l.2-.1c.8-13 3.9-25.2 8.8-36.6-11-6-17.6-13-17.6-20.6 0-22.1 53.7-40 120-40s120 17.9 120 40c0 7.6-6.7 14.6-17.6 20.6 4.9 11.4 8 23.6 8.8 36.6l.2.1C429.3 122.8 448 102.5 448 80c0-44.2-71.6-80-160-80S128 35.8 128 80c0 22.5 18.7 42.8 48.7 57.3z"/></svg>