<svg xmlns="http://www.w3.org/2000/svg" viewBox="0 0 384 512"><!-- Font Awesome Pro 5.15.4 by @fontawesome - https://fontawesome.com License - https://fontawesome.com/license (Commercial License) --><path d="M20.2 247.5L167 99.5c4.7-4.7 12.3-4.7 17 0l19.8 19.8c4.7 4.7 4.7 12.3 0 17L85.3 256l118.5 119.7c4.7 4.7 4.7 12.3 0 17L184 412.5c-4.7 4.7-12.3 4.7-17 0l-146.8-148c-4.7-4.7-4.7-12.3 0-17zm160 17l146.8 148c4.7 4.7 12.3 4.7 17 0l19.8-19.8c4.7-4.7 4.7-12.3 0-17L245.3 256l118.5-119.7c4.7-4.7 4.7-12.3 0-17L344 99.5c-4.7-4.7-12.3-4.7-17 0l-146.8 148c-4.7 4.7-4.7 12.3 0 17z"/></svg>