<svg xmlns="http://www.w3.org/2000/svg" viewBox="0 0 448 512"><!-- Font Awesome Pro 5.15.4 by @fontawesome - https://fontawesome.com License - https://fontawesome.com/license (Commercial License) --><path d="M415.22 177.62c-18.53-26.47-43.99-43.17-73.58-48.28h-.03c-34.49-5.98-86.14 9.16-117.6 23.77-31.46-14.61-82.95-29.77-117.64-23.77-29.59 5.11-55.05 21.81-73.58 48.28C4.85 217.5-6.55 280.12 3.73 337.17 18.97 421.69 69.96 512 167.23 512c13.44 0 27.62-4.03 42.21-11.97 9-4.88 20.12-4.88 29.12 0 14.59 7.94 28.78 11.97 42.21 11.97 97.26 0 148.25-90.31 163.5-174.84 10.28-57.04-1.12-119.66-29.05-159.54zm-18.19 151.02C392.97 351.25 368.19 464 280.77 464c-5.25 0-11.9-2.12-19.28-6.12-11.56-6.3-24.53-9.45-37.49-9.45s-25.93 3.16-37.49 9.45c-7.37 4-14.03 6.12-19.28 6.12-87.42 0-112.2-112.75-116.26-135.34-8-44.39.5-94.03 21.12-123.5 11.19-15.98 25.46-25.58 42.43-28.5 12.55-2.16 53.83-.07 109.48 30.75 55.68-30.84 97-32.94 109.48-30.75 16.97 2.92 31.24 12.52 42.43 28.5 20.62 29.46 29.12 79.11 21.12 123.48zM222.41 112c18.66 0 52.09-3.26 73.2-24.38C326.17 57.06 319.32.65 319.32.65S313.93 0 305.57 0c-18.66 0-52.09 3.27-73.19 24.38-30.56 30.57-23.71 86.97-23.71 86.97s5.39.65 13.74.65z"/></svg>