<svg xmlns="http://www.w3.org/2000/svg" viewBox="0 0 576 512"><!-- Font Awesome Pro 5.15.4 by @fontawesome - https://fontawesome.com License - https://fontawesome.com/license (Commercial License) --><path d="M434.22 50.47c11.29-12.19 14.43-32.03 13.22-50.22-12.88-.86-35.67-.12-50.02 13.28-16.53 16.6-13.77 46.36-13.22 50.22 18.47 1.23 37.77-1.85 50.02-13.28zm-191.69 0c11.29-12.19 14.43-32.03 13.22-50.22-12.88-.86-35.67-.12-50.02 13.28-16.53 16.6-13.77 46.36-13.22 50.22 18.47 1.23 37.77-1.85 50.02-13.28zM560 192h-49.71c3.97-26.97.44-63.55-17.22-89.06-11.25-16.31-27.09-26.7-45.78-30.06l-.29-.05c-18.22-3.02-43.56 3.02-63 11.41-19.5-8.39-44.91-14.39-63.28-11.36-12.35 2.23-23.3 7.82-32.68 15.9-9.39-8.09-20.36-13.67-32.76-15.9l-.28-.05c-18.22-3.02-43.56 3.02-63 11.41-19.47-8.41-45-14.36-63.28-11.36-18.62 3.36-34.44 13.73-45.69 30.03-17.76 25.71-21.32 62.47-17.34 89.09H16c-8.84 0-16 7.16-16 16v288c0 8.84 7.16 16 16 16h544c8.84 0 16-7.16 16-16V208c0-8.84-7.16-16-16-16zm-245.5-61.8c5.25-7.61 10.91-9.41 14.44-10.03 6.78-1.17 28.5 3.37 43.38 11.69l11.69 6.55 11.72-6.56c14.78-8.27 36.19-12.81 43.25-11.69 3.81.7 9.44 2.56 14.62 10.06 10.12 14.66 12.22 40.64 9 58.03-.23 1.37-.76 2.42-1.02 3.75H318.29c2.64-17.95 1.48-40.01-4.47-60.38.27-.42.4-1.01.68-1.42zm-191.97 0c5.25-7.61 10.91-9.41 14.38-10.03 7.03-.95 28.5 3.36 43.38 11.67l11.72 6.56 11.72-6.56c14.78-8.27 36.16-12.81 43.25-11.69 6 1.12 10.69 4.33 14.66 10.09 10.12 14.64 12.19 40.61 8.97 58-.23 1.37-.76 2.42-1.02 3.75h-155.1c-.29-1.47-.87-2.62-1.12-4.14-3.18-16.94-1.03-42.93 9.16-57.65zM528 464H48v-88h480v88zm0-136H48v-88h480v88zM96 304c8.84 0 16-7.16 16-16s-7.16-16-16-16-16 7.16-16 16 7.16 16 16 16zm384 128c8.84 0 16-7.16 16-16s-7.16-16-16-16-16 7.16-16 16 7.16 16 16 16zm-384 0c8.84 0 16-7.16 16-16s-7.16-16-16-16-16 7.16-16 16 7.16 16 16 16zm384-128c8.84 0 16-7.16 16-16s-7.16-16-16-16-16 7.16-16 16 7.16 16 16 16z"/></svg>