<svg xmlns="http://www.w3.org/2000/svg" viewBox="0 0 576 512"><!-- Font Awesome Pro 5.15.4 by @fontawesome - https://fontawesome.com License - https://fontawesome.com/license (Commercial License) --><path d="M560 48c8.84 0 16-7.16 16-16V16c0-8.84-7.16-16-16-16H16C7.16 0 0 7.16 0 16v16c0 8.84 7.16 16 16 16h16v416H16.02c-8.84 0-16 7.16-16 16v16c0 8.84 7.16 16 16 16H176c8.84 0 16-7.16 16-16V320c0-53.02 42.98-96 96-96s96 42.98 96 96v160h.02v16c0 8.84 7.16 16 16 16H560c8.84 0 16-7.16 16-16v-16c0-8.84-7.16-16-16-16h-16V48h16zm-64 0v40H80V48h416zm-64 416V320c0-79.4-64.6-144-144-144s-144 64.6-144 144v144H80V136h416v328h-64z"/></svg>