<svg xmlns="http://www.w3.org/2000/svg" viewBox="0 0 384 512"><!-- Font Awesome Pro 5.15.4 by @fontawesome - https://fontawesome.com License - https://fontawesome.com/license (Commercial License) --><path d="M0 68V44c0-6.6 5.4-12 12-12h360c6.6 0 12 5.4 12 12v24c0 6.6-5.4 12-12 12H12C5.4 80 0 74.6 0 68zm369.9 253.9l-144 144c-18.7 18.7-49.1 18.7-67.9 0l-143.9-144c-30.2-30.2-8.7-81.9 34-81.9h51.6v-80c0-26.5 21.5-48 48-48h88.6c26.5 0 48 21.5 48 48v80H336c42.7 0 64 51.8 33.9 81.9zM336 288h-99.7V160h-88.6v128H48l144 144 144-144z"/></svg>