<svg xmlns="http://www.w3.org/2000/svg" viewBox="0 0 448 512"><!-- Font Awesome Pro 5.15.4 by @fontawesome - https://fontawesome.com License - https://fontawesome.com/license (Commercial License) --><path d="M200.1 99.5l148.4 148c4.7 4.7 4.7 12.3 0 17l-148.4 148c-4.7 4.7-12.3 4.7-17 0l-19.6-19.6c-4.8-4.8-4.7-12.5.2-17.1l97.1-93.7H12c-6.6 0-12-5.4-12-12v-28c0-6.6 5.4-12 12-12h248.8l-97.1-93.7c-4.8-4.7-4.9-12.4-.2-17.1l19.6-19.6c4.7-4.9 12.3-4.9 17-.2zM396 76v360c0 6.6 5.4 12 12 12h28c6.6 0 12-5.4 12-12V76c0-6.6-5.4-12-12-12h-28c-6.6 0-12 5.4-12 12z"/></svg>