<svg xmlns="http://www.w3.org/2000/svg" viewBox="0 0 448 512"><!-- Font Awesome Pro 5.15.4 by @fontawesome - https://fontawesome.com License - https://fontawesome.com/license (Commercial License) --><path d="M353.9 266.9L232.5 388.3c-4.7 4.7-12.3 4.7-17 0L94.1 266.9c-4.7-4.7-4.7-12.3 0-17l19.6-19.6c4.8-4.8 12.5-4.7 17.2.2l67.1 70.3V140c0-6.6 5.4-12 12-12h28c6.6 0 12 5.4 12 12v160.8l67.1-70.3c4.7-4.9 12.4-5 17.2-.2l19.6 19.6c4.7 4.7 4.7 12.3 0 17zM448 80v352c0 26.5-21.5 48-48 48H48c-26.5 0-48-21.5-48-48V80c0-26.5 21.5-48 48-48h352c26.5 0 48 21.5 48 48zm-48 346V86c0-3.3-2.7-6-6-6H54c-3.3 0-6 2.7-6 6v340c0 3.3 2.7 6 6 6h340c3.3 0 6-2.7 6-6z"/></svg>