<svg xmlns="http://www.w3.org/2000/svg" viewBox="0 0 448 512"><!-- Font Awesome Pro 5.15.4 by @fontawesome - https://fontawesome.com License - https://fontawesome.com/license (Commercial License) --><path d="M36 448H12c-6.6 0-12-5.4-12-12V76c0-6.6 5.4-12 12-12h24c6.6 0 12 5.4 12 12v360c0 6.6-5.4 12-12 12zM289.9 78.1l144 144c18.7 18.7 18.7 49.1 0 67.9l-144 143.9c-30.2 30.2-81.9 8.7-81.9-33.9v-51.6h-80c-26.5 0-48-21.5-48-48v-88.6c0-26.5 21.5-48 48-48h80V112c0-42.7 51.8-64 81.9-33.9zM256 112v99.7H128v88.6h128V400l144-144-144-144z"/></svg>