<svg xmlns="http://www.w3.org/2000/svg" viewBox="0 0 384 512"><!-- Font Awesome Pro 5.15.4 by @fontawesome - https://fontawesome.com License - https://fontawesome.com/license (Commercial License) --><path d="M348.5 328.1l-148 148.4c-4.7 4.7-12.3 4.7-17 0l-148-148.4c-4.7-4.7-4.7-12.3 0-17l19.6-19.6c4.8-4.8 12.5-4.7 17.1.2l93.7 97.1V140c0-6.6 5.4-12 12-12h28c6.6 0 12 5.4 12 12v248.8l93.7-97.1c4.7-4.8 12.4-4.9 17.1-.2l19.6 19.6c4.9 4.7 4.9 12.3.2 17zM12 84h360c6.6 0 12-5.4 12-12V44c0-6.6-5.4-12-12-12H12C5.4 32 0 37.4 0 44v28c0 6.6 5.4 12 12 12z"/></svg>