<svg xmlns="http://www.w3.org/2000/svg" viewBox="0 0 512 512"><!-- Font Awesome Pro 5.15.4 by @fontawesome - https://fontawesome.com License - https://fontawesome.com/license (Commercial License) --><path d="M347.404 142.86c-4.753 4.753-4.675 12.484.173 17.14l73.203 70H91.22l73.203-70c4.849-4.656 4.927-12.387.173-17.14l-19.626-19.626c-4.686-4.686-12.284-4.686-16.971 0L3.515 247.515c-4.686 4.686-4.686 12.284 0 16.971L128 388.766c4.686 4.686 12.284 4.686 16.971 0l19.626-19.626c4.753-4.753 4.675-12.484-.173-17.14L91.22 282h329.56l-73.203 70c-4.849 4.656-4.927 12.387-.173 17.14l19.626 19.626c4.686 4.686 12.284 4.686 16.971 0l124.485-124.281c4.686-4.686 4.686-12.284 0-16.971L384 123.234c-4.686-4.686-12.284-4.686-16.971 0l-19.625 19.626z"/></svg>