<svg xmlns="http://www.w3.org/2000/svg" viewBox="0 0 512 512"><!-- Font Awesome Pro 5.15.4 by @fontawesome - https://fontawesome.com License - https://fontawesome.com/license (Commercial License) --><path d="M8 256c0 137 111 248 248 248s248-111 248-248S393 8 256 8 8 119 8 256zm448 0c0 110.5-89.5 200-200 200S56 366.5 56 256 145.5 56 256 56s200 89.5 200 200zM266.9 126.1l121.4 121.4c4.7 4.7 4.7 12.3 0 17L266.9 385.9c-4.7 4.7-12.3 4.7-17 0l-19.6-19.6c-4.8-4.8-4.7-12.5.2-17.2l70.3-67.1H140c-6.6 0-12-5.4-12-12v-28c0-6.6 5.4-12 12-12h160.8l-70.3-67.1c-4.9-4.7-5-12.4-.2-17.2l19.6-19.6c4.7-4.7 12.3-4.7 17 0z"/></svg>