<svg xmlns="http://www.w3.org/2000/svg" viewBox="0 0 384 512"><!-- Font Awesome Pro 5.15.4 by @fontawesome - https://fontawesome.com License - https://fontawesome.com/license (Commercial License) --><path d="M35.5 183.9l148-148.4c4.7-4.7 12.3-4.7 17 0l148 148.4c4.7 4.7 4.7 12.3 0 17l-19.6 19.6c-4.8 4.8-12.5 4.7-17.1-.2L218 123.2V372c0 6.6-5.4 12-12 12h-28c-6.6 0-12-5.4-12-12V123.2l-93.7 97.1c-4.7 4.8-12.4 4.9-17.1.2l-19.6-19.6c-4.8-4.7-4.8-12.3-.1-17zM372 428H12c-6.6 0-12 5.4-12 12v28c0 6.6 5.4 12 12 12h360c6.6 0 12-5.4 12-12v-28c0-6.6-5.4-12-12-12z"/></svg>