<svg xmlns="http://www.w3.org/2000/svg" viewBox="0 0 384 512"><!-- Font Awesome Pro 5.15.4 by @fontawesome - https://fontawesome.com License - https://fontawesome.com/license (Commercial License) --><path d="M336 176h-51.6V80c0-26.5-21.5-48-48-48h-88.6c-26.5 0-48 21.5-48 48v96H48.1c-42.6 0-64.2 51.7-33.9 81.9l143.9 144c18.7 18.7 49.1 18.7 67.9 0l144-144c30-30.1 8.7-81.9-34-81.9zM192 368L48 224h99.7V80h88.6v144H336L192 368zm192 76v24c0 6.6-5.4 12-12 12H12c-6.6 0-12-5.4-12-12v-24c0-6.6 5.4-12 12-12h360c6.6 0 12 5.4 12 12z"/></svg>