<svg xmlns="http://www.w3.org/2000/svg" viewBox="0 0 448 512"><!-- Font Awesome Pro 5.15.4 by @fontawesome - https://fontawesome.com License - https://fontawesome.com/license (Commercial License) --><path d="M213.1 385.9L91.7 264.5c-4.7-4.7-4.7-12.3 0-17l121.4-121.4c4.7-4.7 12.3-4.7 17 0l19.6 19.6c4.8 4.8 4.7 12.5-.2 17.2L179.2 230H340c6.6 0 12 5.4 12 12v28c0 6.6-5.4 12-12 12H179.2l70.3 67.1c4.9 4.7 5 12.4.2 17.2l-19.6 19.6c-4.7 4.7-12.3 4.7-17 0zM448 80v352c0 26.5-21.5 48-48 48H48c-26.5 0-48-21.5-48-48V80c0-26.5 21.5-48 48-48h352c26.5 0 48 21.5 48 48zm-48 346V86c0-3.3-2.7-6-6-6H54c-3.3 0-6 2.7-6 6v340c0 3.3 2.7 6 6 6h340c3.3 0 6-2.7 6-6z"/></svg>