<svg xmlns="http://www.w3.org/2000/svg" viewBox="0 0 384 512"><!-- Font Awesome Pro 5.15.4 by @fontawesome - https://fontawesome.com License - https://fontawesome.com/license (Commercial License) --><path d="M48 336h51.6v96c0 26.5 21.5 48 48 48h88.6c26.5 0 48-21.5 48-48v-96h51.6c42.6 0 64.2-51.7 33.9-81.9l-143.9-144c-18.7-18.7-49.1-18.7-67.9 0l-144 144C-16 284.2 5.3 336 48 336zm144-192l144 144h-99.7v144h-88.6V288H48l144-144zM0 68V44c0-6.6 5.4-12 12-12h360c6.6 0 12 5.4 12 12v24c0 6.6-5.4 12-12 12H12C5.4 80 0 74.6 0 68z"/></svg>