<svg xmlns="http://www.w3.org/2000/svg" viewBox="0 0 512 512"><!-- Font Awesome Pro 5.15.4 by @fontawesome - https://fontawesome.com License - https://fontawesome.com/license (Commercial License) --><path d="M504 232C504 95.751 394.053 8 256 8 118.94 8 8 118.919 8 256c0 137.059 110.919 248 248 248 52.926 0 104.681-17.079 147.096-48.321 5.501-4.052 6.423-11.924 2.095-17.211l-15.224-18.597c-4.055-4.954-11.249-5.803-16.428-2.041C339.547 442.517 298.238 456 256 456c-110.28 0-200-89.72-200-200S145.72 56 256 56c109.469 0 200 65.02 200 176 0 63.106-42.478 98.29-83.02 98.29-19.505 0-20.133-12.62-16.366-31.463l28.621-148.557c1.426-7.402-4.245-14.27-11.783-14.27h-39.175a12.005 12.005 0 0 0-11.784 9.735c-1.102 5.723-1.661 8.336-2.28 13.993-11.923-19.548-35.878-31.068-65.202-31.068C183.412 128.66 120 191.149 120 281.53c0 61.159 32.877 102.11 93.18 102.11 29.803 0 61.344-16.833 79.749-42.239 4.145 30.846 28.497 38.01 59.372 38.01C451.467 379.41 504 315.786 504 232zm-273.9 97.35c-28.472 0-45.47-19.458-45.47-52.05 0-57.514 39.56-93.41 74.61-93.41 30.12 0 45.471 21.532 45.471 51.58 0 46.864-33.177 93.88-74.611 93.88z"/></svg>