<svg xmlns="http://www.w3.org/2000/svg" viewBox="0 0 448 512"><!-- Font Awesome Pro 5.15.4 by @fontawesome - https://fontawesome.com License - https://fontawesome.com/license (Commercial License) --><path d="M397.88114,255.83232c53.65542,83.42019,66.68647,161.24674,27.09333,200.80844-61.06155,60.95189-182.77841-15.32781-200.96563-26.99945C205.88412,441.26607,84.04227,517.6239,23.012,456.64076c-39.56188-39.5617-26.53083-117.40388,27.09333-200.80844C-3.55012,172.41213-16.54992,94.57,23.012,55.02388,62.6676,15.4778,140.54139,28.50879,224.00884,82.07021c83.43621-53.59267,161.3725-66.63928,200.96563-27.04633C464.56761,94.57,451.53656,172.41213,397.88114,255.83232ZM80.69857,213.2863A619.57734,619.57734,0,0,1,181.447,112.61646C139.6664,88.617,79.32359,66.69552,56.98019,88.96069,40.23045,105.69473,46.41785,153.61564,80.69857,213.2863ZM181.5095,398.92318A610.36594,610.36594,0,0,1,80.69857,298.34709C46.41785,358.03338,40.23045,405.93866,56.98019,422.6727,73.79243,439.39111,121.79168,433.20373,181.5095,398.92318ZM338.94456,255.83232a552.289,552.289,0,0,0-114.967-115.357,551.74859,551.74859,0,0,0-114.93571,115.357c33.96822,45.71783,69.90516,81.42023,114.93571,114.84143C269.41439,337.00255,305.25758,301.17515,338.94456,255.83232Zm-82.905-.01563a32.04639,32.04639,0,1,1-32.03075-32.015A32.021,32.021,0,0,1,256.03959,255.81669Zm111.24828,42.5304A610.3659,610.3659,0,0,1,266.47693,398.92318c59.71782,34.29618,107.71708,40.48355,124.52932,23.74952C407.756,405.93866,401.59983,358.03338,367.28787,298.34709ZM266.53943,112.61646A619.36058,619.36058,0,0,1,367.28787,213.2863c34.312-59.67066,40.46812-107.59157,23.71838-124.32561C368.75659,66.78927,308.63253,88.44508,266.53943,112.61646Z"/></svg>