<svg xmlns="http://www.w3.org/2000/svg" viewBox="0 0 512 512"><!-- Font Awesome Pro 5.15.4 by @fontawesome - https://fontawesome.com License - https://fontawesome.com/license (Commercial License) --><path d="M512 176.38c-3.73-68.04-31.19-128.82-73.55-171.67-3.19-3.23-7.04-4.7-10.83-4.7-7.08 0-13.96 5.14-16.01 13.66-4.69 19.52-30.54 106.3-131.61 106.3V80c0-8.84-7.16-16-16-16h-16c-8.84 0-16 7.16-16 16v39.96c-100.01 0-126.17-86.81-130.85-106.3C99.1 5.15 92.21 0 85.13 0c-3.79 0-7.64 1.48-10.83 4.7C28.71 50.83 0 117.62 0 192c0 74.38 28.71 141.17 74.31 187.3 3.19 3.22 7.04 4.7 10.83 4.7 7.08 0 13.96-5.14 16.01-13.66 4.69-19.5 30.84-106.3 130.85-106.3V496c0 8.84 7.16 16 16 16h16c8.84 0 16-7.16 16-16V264.03c101.07 0 126.91 86.78 131.61 106.3 2.05 8.52 8.93 13.66 16.01 13.66 3.79 0 7.64-1.48 10.83-4.7 42.36-42.85 69.82-103.63 73.55-171.67L496.73 192 512 176.38zM76.88 303.53C58.27 270.65 48.07 231.96 48.07 192c0-39.97 10.2-78.65 28.81-111.53 31.76 53.46 84.2 87.5 155.12 87.5v48.07c-70.69-.01-123.23 33.82-155.12 87.49zm385.16-78.3c-3.96 28.21-12.87 54.77-26.17 78.31-31.48-53.01-83.46-87.51-155.87-87.51v-48.07c71.15 0 123.69-33.33 155.87-87.5 13.29 23.54 22.21 50.1 26.17 78.31L429.56 192l32.48 33.23z"/></svg>