<svg xmlns="http://www.w3.org/2000/svg" viewBox="0 0 640 512"><!-- Font Awesome Pro 5.15.4 by @fontawesome - https://fontawesome.com License - https://fontawesome.com/license (Commercial License) --><path d="M525.74 160l-58.59-58.59 39.92-39.92c6.25-6.25 6.25-16.38 0-22.63L473.13 4.93c-6.25-6.25-16.38-6.25-22.63 0l-39.92 39.92-35.46-35.48C368.87 3.12 360.68 0 352.49 0s-16.38 3.12-22.63 9.37l-96.49 96.49c-12.5 12.5-12.5 32.76 0 45.25l35.47 35.47L4.69 450.74c-6.25 6.25-6.25 16.38 0 22.63l33.94 33.94c6.25 6.25 16.38 6.25 22.63 0l264.16-264.16L384 301.74V416h32c123.71 0 224-100.29 224-224v-32H525.74zM432 367.28v-85.42l-4.69-4.69-148.68-148.68 73.85-73.87 148.7 148.7 4.69 4.69h85.42c-7.64 84.3-74.98 151.64-159.29 159.27z"/></svg>