<svg xmlns="http://www.w3.org/2000/svg" viewBox="0 0 512 512"><!-- Font Awesome Pro 5.15.4 by @fontawesome - https://fontawesome.com License - https://fontawesome.com/license (Commercial License) --><path d="M496 96h-40c-30.9 0-56 25.1-56 56v40H293.2L189.1 28.2C179.9 13.7 164.7 3.8 147.3.9c-17.2-2.8-34.4 1.6-47.5 12C41.1 59.8-.3 138.8 0 216c.2 50.1 17.6 99.5 60.3 138.7C25.7 363.6 0 394.7 0 432c0 44.2 35.8 80 80 80s80-35.8 80-80c0-8.9-1.8-17.2-4.4-25.2 21.6 5.9 44.6 9.2 68.4 9.2s46.9-3.3 68.4-9.2c-2.7 8-4.4 16.3-4.4 25.2 0 44.2 35.8 80 80 80s80-35.8 80-80c0-37.3-25.7-68.4-60.3-77.3C425 320.4 448 274.6 448 224v-72c0-4.4 3.6-8 8-8h40c8.8 0 16-7.2 16-16v-16c0-8.8-7.2-16-16-16zM129.8 50.4c3.5-2.7 7.5-2.5 9.7-2.2 3.8.6 7.3 2.8 9.2 5.7L236.3 192H49.4c6.5-54.7 35-105.4 80.4-141.6zM80 464c-17.6 0-32-14.4-32-32s14.4-32 32-32 32 14.4 32 32-14.4 32-32 32zm320-32c0 17.6-14.4 32-32 32s-32-14.4-32-32 14.4-32 32-32 32 14.4 32 32zm-176-64c-90.4 0-165.2-56.1-174.9-128h349.8c-9.7 71.9-84.5 128-174.9 128z"/></svg>