<svg xmlns="http://www.w3.org/2000/svg" viewBox="0 0 512 512"><!-- Font Awesome Pro 5.15.4 by @fontawesome - https://fontawesome.com License - https://fontawesome.com/license (Commercial License) --><path d="M267.5 281.2l192 159.4c20.6 17.2 52.5 2.8 52.5-24.6V96c0-27.4-31.9-41.8-52.5-24.6L267.5 232c-15.3 12.8-15.3 36.4 0 49.2zM464 130.3V382L313 256.6l151-126.3zM11.5 281.2l192 159.4c20.6 17.2 52.5 2.8 52.5-24.6V96c0-27.4-31.9-41.8-52.5-24.6L11.5 232c-15.3 12.8-15.3 36.4 0 49.2zM208 130.3V382L57 256.6l151-126.3z"/></svg>