<svg xmlns="http://www.w3.org/2000/svg" viewBox="0 0 576 512"><!-- Font Awesome Pro 5.15.4 by @fontawesome - https://fontawesome.com License - https://fontawesome.com/license (Commercial License) --><path d="M566.93 104.4L470.81 8.91a31 31 0 0 0-40.18-2.83c-13.64 10.1-25.15 14.39-41 20.3C247 79.52 209.26 191.29 200.65 214.11c-29.75 78.82-89.55 94.67-98.72 98.08-24.86 9.26-54.73 20.38-91.07 50.36C-3 374-3.63 395 9.07 407.61l96.14 95.49a30.73 30.73 0 0 0 21.71 8.9 31.05 31.05 0 0 0 18.47-6.08c13.6-10.06 25.09-14.34 40.94-20.24 142.2-53 180-164.1 188.94-187.69C405 219.18 464.8 203.3 474 199.86c24.87-9.26 54.74-20.4 91.11-50.41 13.89-11.4 14.52-32.45 1.82-45.05zM83.14 413.53l-26.06-25.89c23.06-16.11 42.75-23.44 62.56-30.79 74.36-25.31 109.53-82.38 125.91-125.79l1-2.57c28-75.17 81.75-128 159.85-157.13 13.55-5 26.5-9.87 40.61-18.47l22.41 22.27c-13.09 7.23-25.26 11.84-37.73 16.55-28.28 10.6-57.57 21.59-97.35 61.37s-50.78 69.06-61.34 97.36c-9.88 26.27-19.16 51.06-54 85.95s-59.66 44.16-85.91 54c-15.82 5.9-31.95 12.1-49.95 23.14zm373.17-258.32C381.87 180.56 346.73 237.64 330.36 281l-.91 2.42c-28.06 75.28-81.86 128.18-159.9 157.25-13.51 5-26.43 9.84-40.51 18.41l-22.41-22.27c13-7.21 25.17-11.83 37.62-16.5 28.28-10.6 57.53-21.57 97.31-61.33s50.75-69 61.35-97.35c9.87-26.26 19.15-51.06 54.06-86s59.69-44.19 86-54c15.76-5.91 31.9-12.13 49.92-23.19l26.07 25.9c-23.12 16.18-42.82 23.51-62.65 30.87z"/></svg>