<svg xmlns="http://www.w3.org/2000/svg" viewBox="0 0 640 512"><!-- Font Awesome Pro 5.15.4 by @fontawesome - https://fontawesome.com License - https://fontawesome.com/license (Commercial License) --><path d="M512 384c70.69 0 128-35.82 128-80h-.02c0-16.18 1.34-8.73-85.05-181.51C546.11 104.84 529.04 96 511.99 96c-17.04 0-34.08 8.82-42.92 26.49-87.13 174.26-85.05 165.84-85.05 181.51H384c0 44.18 57.31 80 128 80zm72.25-96H439.83c6.19-12.68 72-144 72.15-144l.02-.04c19.82 39.64 66.4 132.08 72.25 144.04zM130.36 178.35l131.29-43.93c9.28 9.95 21.06 17.31 34.34 21.51V496c0 8.84 7.16 16 16 16h216c8.84 0 16-7.16 16-16v-16c0-8.84-7.16-16-16-16H344V155.93c29.77-9.42 51.76-35.54 55.15-67.52l125.71-42.06c8.38-2.8 12.9-11.87 10.1-20.25l-5.08-15.17c-2.8-8.38-11.87-12.9-20.25-10.1L389.47 41.04C375.76 16.66 349.96 0 320 0c-44.18 0-80 35.82-80 80 0 3.66.6 7.16 1.08 10.69l-125.95 42.14c-8.38 2.8-12.9 11.87-10.1 20.25l5.08 15.17c2.81 8.38 11.87 12.9 20.25 10.1zM288 80c0-17.64 14.36-32 32-32s32 14.36 32 32-14.36 32-32 32-32-14.35-32-32zM0 432c0 44.18 57.31 80 128 80s128-35.82 128-80h-.02c0-16.18 1.34-8.73-85.05-181.51-8.83-17.65-25.89-26.49-42.95-26.49-17.04 0-34.08 8.82-42.92 26.49C-2.06 424.75.02 416.33.02 432H0zm55.83-16c6.19-12.68 53.43-106.56 71.87-143.97.03-.01.13-.03.29-.03l.02-.04c19.82 39.64 66.4 132.08 72.25 144.04H55.83z"/></svg>