<svg xmlns="http://www.w3.org/2000/svg" viewBox="0 0 640 512"><!-- Font Awesome Pro 5.15.4 by @fontawesome - https://fontawesome.com License - https://fontawesome.com/license (Commercial License) --><path d="M256 304h-.02c0-15.67 2.08-7.25-85.05-181.51C162.1 104.82 145.05 96 128.01 96c-17.06 0-34.12 8.84-42.95 26.49C-1.32 295.27.02 287.82.02 304H0c0 44.18 57.31 80 128 80s128-35.82 128-80zM128 143.96l.02.04c.15 0 65.96 131.32 72.15 144H55.75c5.85-11.96 52.43-104.4 72.25-144.04zm401.89 24.29l5.08-15.17c2.8-8.38-1.72-17.45-10.1-20.25L398.92 90.69C399.4 87.16 400 83.66 400 80c0-44.18-35.82-80-80-80-29.96 0-55.76 16.66-69.47 41.04L130.36.83c-8.38-2.8-17.45 1.72-20.25 10.1l-5.08 15.17c-2.8 8.38 1.72 17.45 10.1 20.25l125.71 42.06c3.39 31.98 25.38 58.1 55.15 67.52V464H112c-8.84 0-16 7.16-16 16v16c0 8.84 7.16 16 16 16h216c8.84 0 16-7.16 16-16V155.93c13.29-4.2 25.06-11.57 34.34-21.51l131.29 43.93c8.39 2.8 17.45-1.72 20.26-10.1zM320 112c-17.64 0-32-14.36-32-32s14.36-32 32-32 32 14.36 32 32-14.36 32-32 32zm319.98 320c0-15.67 2.08-7.25-85.05-181.51-8.84-17.67-25.88-26.5-42.92-26.49-17.06 0-34.12 8.84-42.95 26.49-86.38 172.78-85.04 165.33-85.04 181.51H384c0 44.18 57.31 80 128 80s128-35.82 128-80h-.02zm-200.23-16c5.85-11.96 52.43-104.4 72.25-144.04l.02.04c.15 0 .26.03.29.03 18.44 37.41 65.67 131.29 71.87 143.97H439.75z"/></svg>