<svg xmlns="http://www.w3.org/2000/svg" viewBox="0 0 448 512"><!-- Font Awesome Pro 5.15.4 by @fontawesome - https://fontawesome.com License - https://fontawesome.com/license (Commercial License) --><path d="M344 360H200c-4.4 0-8 3.6-8 8v32c0 4.4 3.6 8 8 8h144c4.4 0 8-3.6 8-8v-32c0-4.4-3.6-8-8-8zm-232 56h32c8.8 0 16-7.2 16-16v-32c0-8.8-7.2-16-16-16h-32c-8.8 0-16 7.2-16 16v32c0 8.8 7.2 16 16 16zm0-256h32c8.8 0 16-7.2 16-16v-32c0-8.8-7.2-16-16-16h-32c-8.8 0-16 7.2-16 16v32c0 8.8 7.2 16 16 16zm88-8h144c4.4 0 8-3.6 8-8v-32c0-4.4-3.6-8-8-8H200c-4.4 0-8 3.6-8 8v32c0 4.4 3.6 8 8 8zM416 0H32C14.3 0 0 14.3 0 32v448c0 17.7 14.3 32 32 32h384c17.7 0 32-14.3 32-32V32c0-17.7-14.3-32-32-32zm-16 464H48V48h352v416zM134.6 286.4c2.1 2.1 5.5 2.1 7.6 0l64.2-63.6c2.1-2.1 2.1-5.5 0-7.6l-12.6-12.7c-2.1-2.1-5.5-2.1-7.6 0l-47.6 47.2-20.6-20.9c-2.1-2.1-5.5-2.1-7.6 0l-12.7 12.6c-2.1 2.1-2.1 5.5 0 7.6l36.9 37.4zM344 232H237.4c-1.9 5-4.6 9.7-8.5 13.5L194.2 280H344c4.4 0 8-3.6 8-8v-32c0-4.4-3.6-8-8-8z"/></svg>