<svg xmlns="http://www.w3.org/2000/svg" viewBox="0 0 576 512"><!-- Font Awesome Pro 5.15.4 by @fontawesome - https://fontawesome.com License - https://fontawesome.com/license (Commercial License) --><path d="M480 320c-10.4 0-20.3 2.1-29.7 5.2 18.2-17.5 29.7-41.9 29.7-69.2 0-53-43-96-96-96-10.4 0-20.3 2.1-29.7 5.2 18.3-17.5 29.7-42 29.7-69.2 0-53-43-96-96-96s-96 43-96 96c0 27.2 11.4 51.7 29.7 69.2-9.4-3.1-19.2-5.2-29.7-5.2-53 0-96 43-96 96 0 27.2 11.4 51.7 29.7 69.2-9.4-3.1-19.2-5.2-29.7-5.2-53 0-96 43-96 96s43 96 96 96 96-43 96-96c0-27.2-11.4-51.7-29.7-69.2 9.4 3.1 19.2 5.2 29.7 5.2s20.3-2.1 29.7-5.2c-18.3 17.5-29.7 42-29.7 69.2 0 53 43 96 96 96s96-43 96-96c0-27.2-11.4-51.7-29.7-69.2 9.4 3.1 19.2 5.2 29.7 5.2s20.3-2.1 29.7-5.2c-18.3 17.5-29.7 42-29.7 69.2 0 53 43 96 96 96s96-43 96-96-43-96-96-96zM288 48c26.5 0 48 21.5 48 48s-21.5 48-48 48-48-21.5-48-48 21.5-48 48-48zm29.7 277.2c-9.4-3.1-19.2-5.2-29.7-5.2s-20.3 2.1-29.7 5.2c18.2-17.5 29.7-41.9 29.7-69.2s-11.4-51.7-29.7-69.2c9.4 3.1 19.2 5.2 29.7 5.2s20.3-2.1 29.7-5.2c-18.3 17.5-29.7 42-29.7 69.2s11.4 51.7 29.7 69.2zM96 464c-26.5 0-48-21.5-48-48s21.5-48 48-48 48 21.5 48 48-21.5 48-48 48zm96-160c-26.5 0-48-21.5-48-48s21.5-48 48-48 48 21.5 48 48-21.5 48-48 48zm96 160c-26.5 0-48-21.5-48-48s21.5-48 48-48 48 21.5 48 48-21.5 48-48 48zm96-160c-26.5 0-48-21.5-48-48s21.5-48 48-48 48 21.5 48 48-21.5 48-48 48zm96 160c-26.5 0-48-21.5-48-48s21.5-48 48-48 48 21.5 48 48-21.5 48-48 48z"/></svg>