<svg xmlns="http://www.w3.org/2000/svg" viewBox="0 0 640 512"><!-- Font Awesome Pro 5.15.4 by @fontawesome - https://fontawesome.com License - https://fontawesome.com/license (Commercial License) --><path d="M632 232H8c-4.4 0-8 2.7-8 6v36c0 3.3 3.6 6 8 6h624c4.4 0 8-2.7 8-6v-36c0-3.3-3.6-6-8-6zM288 8c0-4.4-3.6-8-8-8h-48c-4.4 0-8 3.6-8 8v152h64V8zm96 0c0-4.4-3.6-8-8-8h-16c-4.4 0-8 3.6-8 8v152h32V8zm96 0c0-4.4-3.6-8-8-8h-48c-4.4 0-8 3.6-8 8v152h64V8zM160 8c0-4.4-3.6-8-8-8H72c-4.4 0-8 3.6-8 8v152h96V8zm416 0c0-4.4-3.6-8-8-8h-48c-4.4 0-8 3.6-8 8v152h64V8zm-64 496c0 4.4 3.6 8 8 8h48c4.4 0 8-3.6 8-8V352h-64v152zm-160 0c0 4.4 3.6 8 8 8h16c4.4 0 8-3.6 8-8V352h-32v152zm64 0c0 4.4 3.6 8 8 8h48c4.4 0 8-3.6 8-8V352h-64v152zm-192 0c0 4.4 3.6 8 8 8h48c4.4 0 8-3.6 8-8V352h-64v152zm-160 0c0 4.4 3.6 8 8 8h80c4.4 0 8-3.6 8-8V352H64v152z"/></svg>