<svg xmlns="http://www.w3.org/2000/svg" viewBox="0 0 496 512"><!-- Font Awesome Pro 5.15.4 by @fontawesome - https://fontawesome.com License - https://fontawesome.com/license (Commercial License) --><path d="M248 8C111 8 0 119 0 256s111 248 248 248 248-111 248-248S385 8 248 8zM114 404c12-14.4 22.5-30 30.8-47.1l-26.8-13c-6.8 13.9-15.3 26.5-24.9 38.4-55.4-67.7-64.8-173.4 0-252.7 9.6 11.8 18.1 24.4 24.8 38.2l26.8-13.1c-8.3-17-18.7-32.5-30.7-46.8 73.3-66.4 188.4-72 268 0-12 14.3-22.4 29.9-30.7 47l26.8 13c6.8-13.9 15.3-26.5 24.8-38.3 55.8 68.3 64.4 173.9.1 252.7-9.6-11.8-18.1-24.4-24.9-38.3l-26.8 13.1c8.3 17 18.7 32.6 30.8 46.9-73.6 66.7-188.8 71.9-268.1 0zm42.7-76.5l-28.3-9.2c12.2-37.5 14-81.5-.1-124.7l28.3-9.2c16.3 50 14 100.4.1 143.1zm211-9.2l-28.3 9.2c-16.3-50-14-100.5-.1-143.1l28.3 9.2c-12.2 37.4-14 81.5.1 124.7z"/></svg>