<svg xmlns="http://www.w3.org/2000/svg" viewBox="0 0 496 512"><!-- Font Awesome Pro 5.15.4 by @fontawesome - https://fontawesome.com License - https://fontawesome.com/license (Commercial License) --><path d="M248 8C111 8 0 118.9 0 256c0 137.9 111.6 248 248 248 136.2 0 248-110 248-248C496 119 385.2 8 248 8zm-13.9 447.3c-38.9-2.7-77.1-16.7-109.4-42L248 290l43 43c-29.2 35.1-48.9 77.4-56.9 122.3zm91.5-87.7l45.7 45.7c-26.1 20.5-56.1 33.6-87.2 39.3 7.3-31.1 21.6-59.9 41.5-85zm34-33.9c25-20 53.9-34.2 85.1-41.5-5.8 31.9-19.2 61.7-39.4 87.3l-45.7-45.8zm87.7-91.6c-45 8.1-87.2 27.8-122.4 57l-43-43 123.3-123.4c24.8 31.4 39.4 69.2 42.1 109.4zM139 181c-25.8 20.6-55.8 35-88.1 42.1 5.5-33 19-63.9 39.8-90.4L139 181zm-14.3-82.3C151.1 77.9 182 64.4 215 58.9c-7.1 32.3-21.5 62.3-42.1 88.1l-48.2-48.3zm140.2-41.9c39.1 3.3 75.8 17.8 106.4 41.9L248 222.1l-40.4-40.4c29.7-35.8 49.6-78.9 57.3-124.9zM48.8 273c46-7.8 89.1-27.6 124.8-57.3l40.4 40.4L90.7 379.4C66.6 348.7 52.1 312 48.8 273z"/></svg>