<svg xmlns="http://www.w3.org/2000/svg" viewBox="0 0 640 512"><!-- Font Awesome Pro 5.15.4 by @fontawesome - https://fontawesome.com License - https://fontawesome.com/license (Commercial License) --><path d="M639.9 336.9c0 22.8-13.6 43.2-34.7 51.8l-103.5 42.5 3.8-53.4 81.4-33.5c3-1.2 5-4.2 5-7.4V218.6C509.1 1.6 133.4.7 48 218.7V337c0 3.3 2 6.2 5 7.4l81.4 33.5 3.8 53.4-103.5-42.5C13.6 380.1 0 359.8 0 336.9L1.2 207C1.8 205 68.7 8 320 8s318.1 197 318.8 199c1.6 10.2 1.1-8.5 1.1 129.9zM461.2 512l-75.4-71.6L320 512l-65.8-71.6-75.4 71.6-18.2-224H136c-4.4 0-8-3.6-8-8v-32c0-4.4 3.6-8 8-8h368c4.4 0 8 3.6 8 8v32c0 4.4-3.6 8-8 8h-24.6l-18.2 224zM206.7 352.4l46.7 43.6 44-44-42.1-42.1-48.6 42.5zm113.3-23l41.4-41.4h-82.8l41.4 41.4zm22.6 22.6l44 44 46.7-43.6-48.6-42.5-42.1 42.1zm104.7-64h-39l36.5 31.9 2.5-31.9zm-254.6 0l2.6 31.9 36.5-31.9h-39.1zm38.1 130.6l-29.9-27.9 4.3 53.5 25.6-25.6zm132.4-.8L320 374.6l-43.2 43.2 43.2 40.3 43.2-40.3zm71.6 26.4l4.3-53.5-29.9 27.9 25.6 25.6zM464 208v-80H176v80h32v-48h224v48h32z"/></svg>