<svg xmlns="http://www.w3.org/2000/svg" viewBox="0 0 640 512"><!-- Font Awesome Pro 5.15.4 by @fontawesome - https://fontawesome.com License - https://fontawesome.com/license (Commercial License) --><path d="M638.61 287.25L568.3 129.7c-5.47-12.27-17.85-19.4-30.67-19.4-5.81 0-11.71 1.46-17.1 4.57l-104.9 60.44L384 64l-58.12 48h-11.77L256 64l-31.62 111.3-104.9-60.44a34.122 34.122 0 0 0-17.1-4.57c-12.83 0-25.2 7.13-30.67 19.4L1.39 287.25c-4.91 10.99 3.9 22.34 15.21 22.34 1.75 0 3.55-.27 5.38-.85l16.48-5.28a69.085 69.085 0 0 1 21.07-3.29c21.83 0 42.85 10.33 55.46 28.51l38.4 55.32 12.31-11.82c13.11-12.59 30.14-18.75 47.08-18.75 20.13 0 40.15 8.69 53.36 25.6L320 448l53.86-68.97c13.21-16.91 33.23-25.6 53.36-25.6 16.95 0 33.98 6.16 47.09 18.75l12.3 11.82 38.41-55.33c12.61-18.17 33.63-28.51 55.46-28.51 7.02 0 14.13 1.07 21.07 3.29l16.48 5.28c1.82.58 3.63.85 5.38.85 11.3.01 20.11-11.34 15.2-22.33zM485.59 301.3l-10.08 14.51c-14.95-6.8-31.36-10.38-48.3-10.38-36.08 0-69.32 16.06-91.19 44.06L320 370.02l-16.03-20.53c-21.87-28-55.1-44.06-91.19-44.06-16.94 0-33.35 3.58-48.3 10.38l-10.07-14.51c-19.49-28.08-50.74-45.83-84.98-48.72l39.46-88.42 91.53 52.74 53.32 30.72 16.82-59.2 11.54-40.62 1.46 1.2 13.29 11h46.29l13.31-10.99 1.46-1.2 11.54 40.62 16.82 59.2 53.32-30.72 91.53-52.74 39.46 88.43c-34.25 2.87-65.49 20.62-84.99 48.7z"/></svg>