<svg xmlns="http://www.w3.org/2000/svg" viewBox="0 0 512 512"><!-- Font Awesome Pro 5.15.4 by @fontawesome - https://fontawesome.com License - https://fontawesome.com/license (Commercial License) --><path d="M496,256H80V69.25a21.26,21.26,0,0,1,36.28-15l12,12a74,74,0,0,0,15.18,88A15.9,15.9,0,0,0,144,176l11.31,11.31a16,16,0,0,0,22.63,0L283.31,81.94a16,16,0,0,0,0-22.63L272,48a15.89,15.89,0,0,0-21.78-.56,74,74,0,0,0-88-15.18l-12-12A69.25,69.25,0,0,0,32,69.25V256H16A16,16,0,0,0,0,272v16a16,16,0,0,0,16,16H32v80a95.4,95.4,0,0,0,32,71.09V496a16,16,0,0,0,16,16H96a16,16,0,0,0,16-16V478.39A95.87,95.87,0,0,0,128,480H384a95.87,95.87,0,0,0,16-1.61V496a16,16,0,0,0,16,16h16a16,16,0,0,0,16-16V455.09A95.4,95.4,0,0,0,480,384V304h16a16,16,0,0,0,16-16V272A16,16,0,0,0,496,256ZM178,120.51c-5.93-5-10-12.1-10-20.51a28,28,0,0,1,28-28c8.46,0,15.58,4.08,20.58,10.07C205.07,93.75,192.62,106.2,178,120.51ZM432,384a48.05,48.05,0,0,1-48,48H128a48.05,48.05,0,0,1-48-48V304H432Z"/></svg>