<svg xmlns="http://www.w3.org/2000/svg" viewBox="0 0 576 512"><!-- Font Awesome Pro 5.15.4 by @fontawesome - https://fontawesome.com License - https://fontawesome.com/license (Commercial License) --><path d="M152,144A72,72,0,1,0,80,72,72,72,0,0,0,152,144Zm0-96a24,24,0,1,1-24,24A24,24,0,0,1,152,48ZM464,0H272a16,16,0,0,0-16,16V160H48V16A16,16,0,0,0,32,0H16A16,16,0,0,0,0,16V496a16,16,0,0,0,16,16H32a16,16,0,0,0,16-16V464H528v32a16,16,0,0,0,16,16h16a16,16,0,0,0,16-16V128C576,50.14,525.88,0,464,0Zm64,416H304V304H464a64.07,64.07,0,0,1,64,64Zm0-139.74A111.31,111.31,0,0,0,464,256H272a16,16,0,0,0-16,16V416H48V208H528ZM528,160H304V48H464a64.07,64.07,0,0,1,64,64ZM152,400a72,72,0,1,0-72-72A72,72,0,0,0,152,400Zm0-96a24,24,0,1,1-24,24A24,24,0,0,1,152,304Z"/></svg>