<svg xmlns="http://www.w3.org/2000/svg" viewBox="0 0 448 512"><!-- Font Awesome Pro 5.15.4 by @fontawesome - https://fontawesome.com License - https://fontawesome.com/license (Commercial License) --><path d="M152 152v208c0 13.255-10.745 24-24 24s-24-10.745-24-24V152c0-13.255 10.745-24 24-24s24 10.745 24 24zm72-24c-13.255 0-24 10.745-24 24v208c0 13.255 10.745 24 24 24s24-10.745 24-24V152c0-13.255-10.745-24-24-24zm224 40v145.288c0 27.985-16.418 53.646-41.827 65.373L352 403.664V432c0 26.51-21.49 48-48 48H48c-26.51 0-48-21.49-48-48V80c0-26.51 21.49-48 48-48h256c26.51 0 48 21.49 48 48v16h24c39.701 0 72 32.299 72 72zM298 80H54c-3.314 0-6 2.678-6 5.992v340.016A5.993 5.993 0 0 0 54 432h244a6 6 0 0 0 6-6V86a6 6 0 0 0-6-6zm102 88c0-13.233-10.767-24-24-24h-24v206.798l34.058-15.719c8.47-3.909 13.942-12.463 13.942-21.791V168z"/></svg>