<svg xmlns="http://www.w3.org/2000/svg" viewBox="0 0 640 512"><!-- Font Awesome Pro 5.15.4 by @fontawesome - https://fontawesome.com License - https://fontawesome.com/license (Commercial License) --><path d="M633.99 471.02L36 3.51C29.1-2.01 19.03-.9 13.51 6l-10 12.49C-2.02 25.39-.9 35.46 6 40.98l598 467.51c6.9 5.52 16.96 4.4 22.49-2.49l10-12.49c5.52-6.9 4.41-16.97-2.5-22.49zM576 336c0-26.51-21.49-48-48-48-12.86 0-24.47 5.12-33.09 13.36l74.54 58.28c4.05-6.98 6.55-14.97 6.55-23.64zm-304 32c-88.22 0-160-71.78-160-160 0-7.37 1.21-14.42 2.18-21.53l-42.6-33.31C66.78 170.67 64 189 64 208c0 58.8 24.64 111.87 64 149.74V480c0 17.67 14.33 32 32 32h224c17.67 0 32-14.33 32-32v-57.56l-84.61-66.15C312.99 363.69 293.01 368 272 368zm96 96H176v-71.67c28.75 15.04 61.37 23.67 96 23.67s67.25-8.63 96-23.67V464zM272 48c88.22 0 160 71.78 160 160 0 13.81-2.31 26.99-5.61 39.78L467 279.53c8.25-22.33 13-46.35 13-71.53C480 93.31 386.69 0 272 0c-43.2 0-83.35 13.26-116.64 35.89l40.96 32.02C218.95 55.62 244.48 48 272 48zm-17.08 65.73l112.44 87.91C364.01 151.71 322.76 112 272 112c-5.85 0-11.52.72-17.08 1.73z"/></svg>