<svg xmlns="http://www.w3.org/2000/svg" viewBox="0 0 640 512"><!-- Font Awesome Pro 5.15.4 by @fontawesome - https://fontawesome.com License - https://fontawesome.com/license (Commercial License) --><path d="M520.94,100a23.8,23.8,0,0,0,12-3.22l55.42-32a24,24,0,0,0-24-41.56l-55.42,32a24,24,0,0,0,12,44.78ZM112,192a24,24,0,0,0-24-24H24a24,24,0,0,0,0,48H88A24,24,0,0,0,112,192ZM51.66,64.78l55.42,32a24,24,0,1,0,24-41.56l-55.42-32a24,24,0,1,0-24,41.56ZM616,168H552a24,24,0,0,0,0,48h64a24,24,0,0,0,0-48ZM479.9,208c0-77.7-54.46-139.91-127.93-155.16V32A32,32,0,1,0,288,32V52.84C214.56,68.09,160.09,130.3,160.09,208c0,102.3-36.15,133.53-55.47,154.3A31.15,31.15,0,0,0,96,384c.12,16.41,13,32,32.09,32H511.9c19.13,0,32-15.59,32.1-32a31.17,31.17,0,0,0-8.63-21.7C516.06,341.53,479.9,310.3,479.9,208ZM163.53,368c21.22-28,44.41-74.33,44.53-159.42,0-.2-.06-.38-.06-.58a112,112,0,0,1,224,0c0,.2-.06.38-.06.58.12,85.11,23.31,131.47,44.53,159.42ZM320,512a64,64,0,0,0,64-64H256A64,64,0,0,0,320,512Z"/></svg>