<svg xmlns="http://www.w3.org/2000/svg" viewBox="0 0 512 512"><!-- Font Awesome Pro 5.15.4 by @fontawesome - https://fontawesome.com License - https://fontawesome.com/license (Commercial License) --><path d="M464 400H48V192H0v208a48 48 0 0 0 48 48h416a48 48 0 0 0 48-48V192h-48zM240 288a80 80 0 1 0-80 80 80 80 0 0 0 80-80zm-112 0a32 32 0 1 1 32 32 32 32 0 0 1-32-32zM496 64H16A16 16 0 0 0 0 80v80h512V80a16 16 0 0 0-16-16zm-96 304a32 32 0 0 0 32-32v-96a32 32 0 0 0-32-32h-96a32 32 0 0 0-32 32v96a32 32 0 0 0 32 32zm-80-112h64v64h-64z"/></svg>