<svg xmlns="http://www.w3.org/2000/svg" viewBox="0 0 640 512"><!-- Font Awesome Pro 5.15.4 by @fontawesome - https://fontawesome.com License - https://fontawesome.com/license (Commercial License) --><path d="M576 176c35.35 0 64-28.65 64-64s-28.65-64-64-64c-26.8 0-49.45 16.61-58.95 40H400V64c0-17.67-14.33-32-32-32h-96c-17.67 0-32 14.33-32 32v24H122.95C113.45 64.61 90.8 48 64 48 28.65 48 0 76.65 0 112s28.65 64 64 64c26.8 0 49.45-16.61 58.95-40H203C138.68 173.78 94.2 241.52 88.81 320H64c-17.67 0-32 14.33-32 32v96c0 17.67 14.33 32 32 32h96c17.67 0 32-14.33 32-32v-96c0-17.67-14.33-32-32-32h-23.19c5.79-66.78 47.39-123.33 105.47-150.54C246.33 182.38 257.73 192 272 192h96c14.27 0 25.67-9.62 29.72-22.54C455.8 196.67 497.4 253.22 503.19 320H480c-17.67 0-32 14.33-32 32v96c0 17.67 14.33 32 32 32h96c17.67 0 32-14.33 32-32v-96c0-17.67-14.33-32-32-32h-24.81c-5.39-78.48-49.87-146.22-114.18-184h80.05c9.49 23.39 32.14 40 58.94 40zm-16-65.59l.62-2.4C562.45 100.94 568.78 96 576 96c8.82 0 16 7.18 16 16s-7.18 16-16 16c-7.22 0-13.55-4.94-15.38-12.01l-.62-2.4v-3.18zm-480 3.18l-.62 2.4C77.55 123.06 71.22 128 64 128c-8.82 0-16-7.18-16-16s7.18-16 16-16c7.22 0 13.55 4.94 15.38 12.01l.62 2.39v3.19zM144 368v64H80v-64h64zm208-224h-64V80h64v64zm208 224v64h-64v-64h64z"/></svg>