<svg xmlns="http://www.w3.org/2000/svg" viewBox="0 0 448 512"><!-- Font Awesome Pro 5.15.4 by @fontawesome - https://fontawesome.com License - https://fontawesome.com/license (Commercial License) --><path d="M160 208h48v96c0 8.84 7.16 16 16 16h32c8.84 0 16-7.16 16-16v-96h48c8.84 0 16-7.16 16-16v-32c0-8.84-7.16-16-16-16h-48V96c0-8.84-7.16-16-16-16h-32c-8.84 0-16 7.16-16 16v48h-48c-8.84 0-16 7.16-16 16v32c0 8.84 7.16 16 16 16zm288 176V16c0-8.8-7.2-16-16-16H80C35.8 0 0 35.8 0 80v352c0 44.2 35.8 80 80 80h352c8.8 0 16-7.2 16-16v-16c0-7.8-5.6-14.3-12.9-15.7-4.2-13-4.2-51.6 0-64.6 7.4-1.5 12.9-7.9 12.9-15.7zm-54 80H80c-17.7 0-32-14.3-32-32 0-17.6 14.4-32 32-32h314c-2.7 17.3-2.7 46.7 0 64zm6-112H80c-11.4 0-22.2 2.4-32 6.7V80c0-17.7 14.3-32 32-32h320v304z"/></svg>