<svg xmlns="http://www.w3.org/2000/svg" viewBox="0 0 640 512"><!-- Font Awesome Pro 5.15.4 by @fontawesome - https://fontawesome.com License - https://fontawesome.com/license (Commercial License) --><path d="M400 96a48 48 0 1 0-48-48 48 48 0 0 0 48 48zm224 256h-5.2a110.19 110.19 0 0 0-8.65-20.89l3.67-3.67a16 16 0 0 0 0-22.63l-22.63-22.63a16 16 0 0 0-22.63 0l-3.66 3.67a110.72 110.72 0 0 0-20.9-8.65V272a16 16 0 0 0-16-16h-32a16 16 0 0 0-16 16v5.2a110.19 110.19 0 0 0-20.89 8.65l-3.67-3.67a16 16 0 0 0-22.63 0l-22.62 22.63a16 16 0 0 0 0 22.63l3.67 3.67A110.45 110.45 0 0 0 405.2 352H400a16 16 0 0 0-16 16v32a16 16 0 0 0 16 16h5.2a110.19 110.19 0 0 0 8.65 20.89l-3.67 3.67a16 16 0 0 0 0 22.63l22.62 22.63a16 16 0 0 0 22.63 0l3.67-3.67a110.94 110.94 0 0 0 20.9 8.65v5.2a16 16 0 0 0 16 16h32a16 16 0 0 0 16-16v-5.2a110.56 110.56 0 0 0 20.9-8.65l3.67 3.67a16 16 0 0 0 22.62 0l22.63-22.63a16 16 0 0 0 0-22.63l-3.67-3.67A110.45 110.45 0 0 0 618.8 416h5.2a16 16 0 0 0 16-16v-32a16 16 0 0 0-16-16zm-112 96a64 64 0 1 1 64-64 64 64 0 0 1-64 64zm-272-96h-5.2a110.19 110.19 0 0 0-8.65-20.89l3.67-3.67a16 16 0 0 0 0-22.63l-22.63-22.63a16 16 0 0 0-22.63 0l-3.66 3.67a110.72 110.72 0 0 0-20.9-8.65V272a16 16 0 0 0-16-16h-32a16 16 0 0 0-16 16v5.2a110.19 110.19 0 0 0-20.89 8.65l-3.67-3.67a16 16 0 0 0-22.63 0l-22.63 22.63a16 16 0 0 0 0 22.63l3.67 3.67A110.45 110.45 0 0 0 21.2 352H16a16 16 0 0 0-16 16v32a16 16 0 0 0 16 16h5.2a110.19 110.19 0 0 0 8.65 20.89l-3.67 3.67a16 16 0 0 0 0 22.63l22.62 22.63a16 16 0 0 0 22.63 0l3.67-3.67A110.94 110.94 0 0 0 96 490.8v5.2a16 16 0 0 0 16 16h32a16 16 0 0 0 16-16v-5.2a110.56 110.56 0 0 0 20.9-8.65l3.67 3.67a16 16 0 0 0 22.62 0l22.63-22.63a16 16 0 0 0 0-22.63l-3.67-3.67A110.45 110.45 0 0 0 234.8 416h5.2a16 16 0 0 0 16-16v-32a16 16 0 0 0-16-16zm-112 96a64 64 0 1 1 64-64 64 64 0 0 1-64 64zm273-237.27a24 24 0 0 0 15 5.27h64a24 24 0 0 0 0-48h-55.59L351 109.27a24 24 0 0 0-30.62.51l-112 96a24 24 0 0 0 2.31 38.22L296 300.84V416a24 24 0 0 0 48 0V288a24 24 0 0 0-10.69-20l-43.23-28.82 70.73-60.63zM159.19 172a35.53 35.53 0 0 0 49.45 3.77l87.3-74.45c16.82-14.24 14.56-37 3.27-49.84C270 18.45 219 13.88 185.93 42L132.2 87.91a34.9 34.9 0 0 0-3.26 49.85zm57.88-93.5c9.92-8.42 24-9.35 35.65-3.43l-65.64 56-13.54-15.31z"/></svg>