<svg xmlns="http://www.w3.org/2000/svg" viewBox="0 0 512 512"><!-- Font Awesome Pro 5.15.4 by @fontawesome - https://fontawesome.com License - https://fontawesome.com/license (Commercial License) --><path d="M440 368H112c-8.8 0-16 7.2-16 16v16c0 8.8 7.2 16 16 16h328c39.8 0 71.7-32.5 71.6-72.4l.4.4V88c0-48.5-39.5-88-88-88H88C39.5 0 0 39.5 0 88v304l.3-.5c0 8.4.5 17 2.3 25.7C14.1 473.3 66.2 512 123.4 512H496c8.8 0 16-7.2 16-16v-16c0-8.8-7.2-16-16-16H120c-42.2 0-76-36.5-71.6-79.5C52.2 347 86.6 320 124.3 320H440c13.2 0 24 10.8 24 24s-10.8 24-24 24zm-4.3-96H120c-27 0-51.9 9.2-72 24.3V88c0-22.1 17.9-40 40-40h336c22.1 0 40 17.9 40 40v189.3c-8.9-3.4-18.4-5.3-28.3-5.3z"/></svg>