<svg xmlns="http://www.w3.org/2000/svg" viewBox="0 0 512 512"><!-- Font Awesome Pro 5.15.4 by @fontawesome - https://fontawesome.com License - https://fontawesome.com/license (Commercial License) --><path d="M425.91 330.01L512 0H48C21.49 0 0 21.49 0 48v160c0 26.51 21.49 48 48 48h102.26l6.17 70.99C121.06 341.14 96 375.57 96 416v64c0 17.67 14.33 32 32 32h320c17.67 0 32-14.33 32-32v-64c0-37.92-22.17-70.39-54.09-85.99zM48 208V48h84.17l13.91 160H48zM449.87 48l-12.52 48H296c-4.42 0-8 3.58-8 8v16c0 4.42 3.58 8 8 8h133l-16.7 64H296c-4.42 0-8 3.58-8 8v16c0 4.42 3.58 8 8 8h107.96l-25.04 96H204.01L180.36 48h269.51zM432 464H144v-48c0-26.47 21.53-48 48-48h192c26.47 0 48 21.53 48 48v48zm-144-72c-13.26 0-24 10.74-24 24 0 13.25 10.74 24 24 24s24-10.75 24-24c0-13.26-10.74-24-24-24z"/></svg>