<svg xmlns="http://www.w3.org/2000/svg" viewBox="0 0 576 512"><!-- Font Awesome Pro 5.15.4 by @fontawesome - https://fontawesome.com License - https://fontawesome.com/license (Commercial License) --><path d="M352 392c-13.26 0-24 10.74-24 24 0 13.25 10.74 24 24 24s24-10.75 24-24c0-13.26-10.74-24-24-24zm137.91-61.99L576 0H192l28.43 326.99C185.06 341.14 160 375.57 160 416v64c0 17.67 14.33 32 32 32h320c17.67 0 32-14.33 32-32v-64c0-37.92-22.17-70.39-54.09-85.99zM513.87 48l-12.52 48H360c-4.42 0-8 3.58-8 8v16c0 4.42 3.58 8 8 8h133l-16.7 64H360c-4.42 0-8 3.58-8 8v16c0 4.42 3.58 8 8 8h107.96l-25.04 96H268.01L244.36 48h269.51zM496 464H208v-48c0-26.47 21.53-48 48-48h192c26.47 0 48 21.53 48 48v48zM115.78 122.61c7.43.73 14.46-3.46 17.24-10.26l25.78-63.26c3.02-7.39.2-15.85-6.68-20.07l-39.28-24.1C98.51-3.87 80.09-.5 68.95 11.97c-92.57 103.6-92 259.55 2.1 362.49 9.87 10.8 29.12 12.48 41.65 4.8l39.41-24.18c6.88-4.22 9.7-12.67 6.68-20.07l-25.78-63.26c-2.78-6.81-9.8-10.99-17.24-10.26l-45.03 4.42c-17.28-46.94-17.65-99.78 0-147.72l45.04 4.42z"/></svg>