<svg xmlns="http://www.w3.org/2000/svg" viewBox="0 0 512 512"><!-- Font Awesome Pro 5.15.4 by @fontawesome - https://fontawesome.com License - https://fontawesome.com/license (Commercial License) --><path d="M512,32V16A16,16,0,0,0,496,0H16A16,16,0,0,0,0,16V32A15.94,15.94,0,0,0,10.28,46.85L.07,158.55a16,16,0,0,0,9.65,16.09L.08,270.41a15.94,15.94,0,0,0,9.64,16.22L.08,382.41a15.94,15.94,0,0,0,9.64,16.22L.08,494.41a16,16,0,0,0,16,17.59H495.89a16,16,0,0,0,16-17.59l-9.64-95.78a15.93,15.93,0,0,0,9.64-16.22l-9.64-95.78a15.93,15.93,0,0,0,9.64-16.22l-9.64-95.77a16,16,0,0,0,9.65-16.09L501.72,46.85A15.94,15.94,0,0,0,512,32ZM58.38,48H120v80H51.06Zm-7,416,6.45-64H454.17l6.44,64ZM454.17,176l6.44,64H217.22a79.22,79.22,0,0,1,5.16,48H454.17l6.44,64H51.38l6.45-64h7.79a79.25,79.25,0,0,1,5.16-48H51.38l6.45-64H120v54.66a48,48,0,1,0,48,0V48H453.62l7.32,80H200v48Z"/></svg>