<svg xmlns="http://www.w3.org/2000/svg" viewBox="0 0 512 512"><!-- Font Awesome Pro 5.15.4 by @fontawesome - https://fontawesome.com License - https://fontawesome.com/license (Commercial License) --><path d="M512,32V16A16,16,0,0,0,496,0H16A16,16,0,0,0,0,16V32A15.94,15.94,0,0,0,10.28,46.85L.07,158.55a16,16,0,0,0,9.65,16.09L.08,270.41a16,16,0,0,0,16,17.59H120V422.66a48,48,0,1,0,48,0V48H453.62l7.32,80H200v48H454.17l6.45,64H200v48H495.89a16,16,0,0,0,16-17.59l-9.64-95.77a16,16,0,0,0,9.65-16.09L501.72,46.85A15.94,15.94,0,0,0,512,32ZM51.38,240l6.45-64H120v64ZM120,128H51.06l7.32-80H120Z"/></svg>