<svg xmlns="http://www.w3.org/2000/svg" viewBox="0 0 512 512"><!-- Font Awesome Pro 5.15.4 by @fontawesome - https://fontawesome.com License - https://fontawesome.com/license (Commercial License) --><path d="M16,352h64.4A79.24,79.24,0,0,1,64,304H21.35A16,16,0,0,0,6.17,314.94l-5.34,16A16,16,0,0,0,16,352Zm489.82-37.06A16,16,0,0,0,490.65,304H224a79.24,79.24,0,0,1-16.41,48H496a16,16,0,0,0,15.18-21.06Zm0,160A16,16,0,0,0,490.65,464H21.35A16,16,0,0,0,6.17,474.94l-5.34,16A16,16,0,0,0,16,512H496a16,16,0,0,0,15.18-21.06Zm0-320A16,16,0,0,0,490.65,144H200v48H496a16,16,0,0,0,15.18-21.06ZM496,0H16A16,16,0,0,0,0,16V32A16,16,0,0,0,16,48H120v96H21.35A16,16,0,0,0,6.17,154.94l-5.34,16A16,16,0,0,0,16,192H120v70.66a48,48,0,1,0,48,0V48H496a16,16,0,0,0,16-16V16A16,16,0,0,0,496,0Z"/></svg>