<svg xmlns="http://www.w3.org/2000/svg" viewBox="0 0 384 512"><!-- Font Awesome Pro 5.15.4 by @fontawesome - https://fontawesome.com License - https://fontawesome.com/license (Commercial License) --><path d="M192.913 510.276c-12.325 4.929-26.281-1.079-31.196-13.37l-50.539-126.341 22.976-71.801 72.129 180.316c4.923 12.307-1.063 26.274-13.37 31.196zM96 0C71.699 0 52 19.699 52 44s19.699 44 44 44 44-19.699 44-44S120.301 0 96 0zm12.53 140.603a4.002 4.002 0 0 1 5.605.802L219.2 281.6c5.429 7.239 15.514 8.364 22.399 3.2 7.051-5.288 8.472-15.373 3.2-22.399l-120-160c-3.14-4.188-7.939-6.385-12.8-6.386L80 96v.009c-4.69.003-9.336 2.049-12.494 5.996L0 186.388v85.161c0 8.616 6.621 16.029 15.227 16.433C24.416 288.414 32 281.093 32 272v-74.388l32-40v176.64L17.142 480.679c-4.039 12.624 2.92 26.133 15.544 30.173 12.63 4.041 26.134-2.924 30.173-15.544L128 291.746V173.333l-20.275-27.132a4.003 4.003 0 0 1 .805-5.598zm274.307 359.245L252.28 284.813a24.013 24.013 0 0 1-12.67 9.96L369.161 508.15a8 8 0 0 0 10.989 2.687 7.998 7.998 0 0 0 2.687-10.989z"/></svg>