<svg xmlns="http://www.w3.org/2000/svg" viewBox="0 0 512 512"><!-- Font Awesome Pro 5.15.4 by @fontawesome - https://fontawesome.com License - https://fontawesome.com/license (Commercial License) --><path d="M208.8 96c-9.1-.7-16.8 7-16.8 16.2v16c0 8.6 6.8 15.3 15.4 15.8 85.3 5.9 153.2 75.3 160.4 160.7.7 8.5 7.3 15.2 15.8 15.2h16.2c9.1 0 16.8-7.7 16.2-16.8-8.3-110.4-96.7-198.9-207.2-207.1zm-.1-96C199.6-.4 192 7.2 192 16.3v16c0 8.6 6.8 15.3 15.4 15.8C345.6 55.8 457.2 166.4 464 304.5c.4 8.6 7.2 15.5 15.8 15.5h16c9.1 0 16.7-7.6 16.3-16.7C503.5 139.9 372.1 8.5 208.7 0zM137 224h-9c-8.8 0-16 7.2-16 16v32c0 8.8 7.2 16 16 16h10.9c47 0 88 38.4 84.9 85.3-2.6 39.9-34.6 71.8-74.4 74.5C102.4 451 64 410 64 362.9V112c0-8.8-7.2-16-16-16H16c-8.8 0-16 7.2-16 16v249c0 82.6 66.5 153.7 149 150.9 75.4-2.6 136.3-63.5 138.9-138.9 2.9-82.5-68.3-149-150.9-149z"/></svg>