<svg xmlns="http://www.w3.org/2000/svg" viewBox="0 0 512 512"><!-- Font Awesome Pro 5.15.4 by @fontawesome - https://fontawesome.com License - https://fontawesome.com/license (Commercial License) --><path d="M384.5 144.5l56-56-17-17-56 56-52.2-52.2c-6.2-6.2-16.4-6.2-22.6 0l-28.4 28.4c-17.9-5-36.8-7.7-56.3-7.7C93.1 96 0 189.1 0 304s93.1 208 208 208 208-93.1 208-208c0-19.5-2.7-38.4-7.7-56.3l28.4-28.4c6.2-6.2 6.2-16.4 0-22.6l-52.2-52.2zm-30 89.1c7.9 28.2 13.5 43.9 13.5 70.4 0 88.4-71.6 160-160 160S48 392.4 48 304s71.6-160 160-160c26.3 0 41.4 5.4 70.4 13.5l25.6-25.6 76.1 76.1-25.6 25.6zM512 72c0 6.6-5.4 12-12 12h-24c-6.6 0-12-5.4-12-12s5.4-12 12-12h24c6.6 0 12 5.4 12 12zm-60-60v24c0 6.6-5.4 12-12 12s-12-5.4-12-12V12c0-6.6 5.4-12 12-12s12 5.4 12 12zm5 43c-4.7-4.7-4.7-12.3 0-17l17-17c4.7-4.7 12.3-4.7 17 0 4.7 4.7 4.7 12.3 0 17l-17 17c-4.7 4.7-12.3 4.7-17 0zm-67.9-16.9c-4.7-4.7-4.7-12.3 0-17 4.7-4.7 12.3-4.7 17 0l17 17c4.7 4.7 4.7 12.3 0 17-4.7 4.7-12.3 4.7-17 0l-17-17zm101.8 67.8c4.7 4.7 4.7 12.3 0 17-4.7 4.7-12.3 4.7-17 0l-17-17c-4.7-4.7-4.7-12.3 0-17 4.7-4.7 12.3-4.7 17 0l17 17zM216 208c0 13.3-10.7 24-24 24-30.9 0-56 25.1-56 56 0 13.3-10.7 24-24 24s-24-10.7-24-24c0-57.3 46.7-104 104-104 13.3 0 24 10.7 24 24z"/></svg>