<svg xmlns="http://www.w3.org/2000/svg" viewBox="0 0 640 512"><!-- Font Awesome Pro 5.15.4 by @fontawesome - https://fontawesome.com License - https://fontawesome.com/license (Commercial License) --><path d="M640 87.23C640 39.14 598.37 0 547.19 0c-39.72 0-75 23.73-87.84 59.06C458.23 62.3 452.72 80 448 80h-80c-26.51 0-48 21.49-48 48h128c15.36 0 37.83 1.19 56.47-52.58C510.44 59.02 527.59 48 547.19 48 571.91 48 592 65.59 592 87.23c0 17.48-4.28 32.16-24.06 41.23-12.66 5.83-20.5 17.89-20.5 31.53s7.88 25.72 20.5 31.53c19.34 8.88 24.06 23.12 24.06 41.23 0 21.64-20.09 39.23-44.81 39.23-19.59 0-36.75-11.02-42.72-27.41C494.42 214.66 483.78 192 448 192h-16c-26.51 0-48 21.49-48 48h64c4.45 0 10.25 17.73 11.34 20.95 12.84 35.31 48.12 59.05 87.84 59.05 51.19 0 92.81-39.14 92.81-87.23 0-29.23-7.93-53.19-32.34-72.77C631.91 140.57 640 116.69 640 87.23zM234.24 323.01c-10.86 10.86-27.6 25.91-2.75 77.11 7.38 15.82 3.04 35.74-10.82 49.6-17.48 17.48-44.13 19.25-59.43 3.95-12.36-12.36-19.71-25.77-12.14-46.17 4.83-13.07 1.85-27.15-7.8-36.79s-23.76-12.62-36.79-7.8c-19.95 7.4-33.36.67-46.17-12.14-15.3-15.3-13.53-41.95 3.95-59.43 13.85-13.85 33.78-18.2 49.59-10.83 28.27 14.06 51.82 22.56 77.12-2.74l58.45-58.45c18.74-18.74 18.74-49.14 0-67.88l-92.38 92.38c-3.15 3.15-19.79-5.28-22.84-6.79-34.05-15.89-75.78-7.72-103.87 20.36-36.2 36.19-37.95 93.3-3.95 127.31 20.67 20.67 43.22 32 74.32 28.58-3.41 30.89 7.76 53.5 28.58 74.32 34.01 34.01 91.12 32.25 127.31-3.94 28.09-28.09 36.25-69.82 20.35-103.88-1.5-3.07-10.12-19.49-6.78-22.83l26.44-26.44c18.75-18.75 18.75-49.14 0-67.88l-60.39 60.38z"/></svg>