<svg xmlns="http://www.w3.org/2000/svg" viewBox="0 0 448 512"><!-- Font Awesome Pro 5.15.4 by @fontawesome - https://fontawesome.com License - https://fontawesome.com/license (Commercial License) --><path d="M443.31 217.37l-52.69-52.69c-6.25-6.25-16.38-6.25-22.63 0l-11.31 11.31c-6.25 6.25-6.25 16.38 0 22.63l9.38 9.38-39.41 39.41c-11.56-11.37-24.53-21.33-38.65-29.51V47.74l15.97-.02c8.82-.01 15.97-7.16 15.98-15.98l.04-15.72C320 7.17 312.82-.01 303.97 0L80.03.26c-8.82.01-15.97 7.16-15.98 15.98l-.04 15.73c-.01 8.85 7.17 16.02 16.02 16.01L96 47.96v169.93C38.67 251.1 0 312.97 0 384c0 43.81 14.8 84.07 39.52 116.35C45.34 507.96 54.73 512 64.31 512h255.37c9.58 0 18.97-4.04 24.79-11.65C369.21 468.07 384 427.8 384 384c0-36.12-10.08-69.81-27.44-98.62L400 241.94l9.38 9.38c6.25 6.25 16.38 6.25 22.63 0l11.3-11.32c6.25-6.25 6.25-16.38 0-22.63zm-323.25 42.06L144 245.56V47.99h96v197.57l23.94 13.87c24.81 14.37 44.12 35.73 56.56 60.57h-257c12.45-24.84 31.75-46.2 56.56-60.57zM311.53 464H72.47C56.43 440.25 48 412.77 48 384c0-5.39.47-10.71 1.07-16h285.85c.6 5.29 1.07 10.61 1.07 16 .01 28.77-8.42 56.25-24.46 80z"/></svg>