<svg xmlns="http://www.w3.org/2000/svg" viewBox="0 0 576 512"><!-- Font Awesome Pro 5.15.4 by @fontawesome - https://fontawesome.com License - https://fontawesome.com/license (Commercial License) --><path d="M575.46 454.59L458.55 11.86c-2.28-8.5-11.1-13.59-19.6-11.31L423.5 4.68c-7.54 2.02-12.37 9.11-11.83 16.53-11.47 7.42-64.22 21.55-77.85 20.86-3.24-6.69-10.97-10.42-18.5-8.4L304 36.7V32c0-17.67-14.33-32-40-32H24C14.33 0 0 14.33 0 32v448c0 17.67 14.33 32 24 32h240c25.67 0 40-14.33 40-32V115.94l101.45 384.2c2.28 8.5 11.1 13.59 19.6 11.31l15.46-4.14c7.54-2.02 12.37-9.11 11.83-16.52 11.47-7.42 64.21-21.55 77.85-20.86 3.24 6.69 10.97 10.42 18.5 8.4l15.46-4.14c8.49-2.28 13.58-11.1 11.31-19.6zM128 464H48v-48h80v48zm0-96H48V144h80v224zm0-272H48V48h80v48zm128 368h-80v-48h80v48zm0-96h-80V144h80v224zm0-272h-80V48h80v48zm185.98 355.01L344.74 81.69c16.76-1.8 60.74-13.39 77.28-20.71l97.24 369.32c-16.76 1.81-60.74 13.4-77.28 20.71z"/></svg>