<svg xmlns="http://www.w3.org/2000/svg" viewBox="0 0 640 512"><!-- Font Awesome Pro 5.15.4 by @fontawesome - https://fontawesome.com License - https://fontawesome.com/license (Commercial License) --><path d="M256 256a128 128 0 1 0-128 128 128 128 0 0 0 128-128zm-149.33 58.67v-37.34H69.33A5.33 5.33 0 0 1 64 272v-32a5.33 5.33 0 0 1 5.33-5.33h37.34v-37.34A5.33 5.33 0 0 1 112 192h32a5.33 5.33 0 0 1 5.33 5.33v37.34h37.34A5.33 5.33 0 0 1 192 240v32a5.33 5.33 0 0 1-5.33 5.33h-37.34v37.34A5.33 5.33 0 0 1 144 320h-32a5.33 5.33 0 0 1-5.33-5.33zm532.79 139.92L522.55 11.86A16 16 0 0 0 503 .55l-15.5 4.13a16 16 0 0 0-11.83 16.53c-11.47 7.42-64.22 21.55-77.85 20.86a16 16 0 0 0-18.5-8.4L368 36.7V32c0-17.67-14.33-32-40-32H88c-9.67 0-24 14.33-24 32v77.56c14.91-6.56 31.14-10.24 48-11.94V48h80v61.56A160.44 160.44 0 0 1 242 144h78v224h-78a160.44 160.44 0 0 1-50 34.44V464h-80v-49.62c-16.86-1.7-33.09-5.4-48-11.94V480c0 17.67 14.33 32 24 32h240c25.67 0 40-14.33 40-32V115.94l101.45 384.2a16 16 0 0 0 19.6 11.31l15.46-4.14a16 16 0 0 0 11.83-16.52c11.47-7.42 64.21-21.55 77.85-20.86a16 16 0 0 0 18.5 8.4l15.46-4.14a16.06 16.06 0 0 0 11.31-19.6zM320 464h-80v-48h80zm0-368h-80V48h80zm186 355L408.74 81.69C425.5 79.89 469.48 68.3 486 61l97.26 369.3c-16.76 1.81-60.74 13.4-77.26 20.7z"/></svg>