<svg xmlns="http://www.w3.org/2000/svg" viewBox="0 0 448 512"><!-- Font Awesome Pro 5.15.4 by @fontawesome - https://fontawesome.com License - https://fontawesome.com/license (Commercial License) --><path d="M128.3 297.64l4.31 16.24c1.19 4.48 5.52 7.07 9.67 5.79L240 289.56l97.71 30.11c4.15 1.28 8.48-1.31 9.67-5.79l4.31-16.24c1.19-4.48-1.21-9.16-5.37-10.44L296.99 272l49.33-15.2c4.16-1.28 6.56-5.95 5.37-10.44l-4.31-16.24c-1.19-4.48-5.52-7.07-9.67-5.79L240 254.44l-97.71-30.11c-4.15-1.28-8.48 1.31-9.67 5.79l-4.31 16.24c-1.19 4.48 1.21 9.16 5.37 10.44l49.33 15.2-49.33 15.2c-4.16 1.28-6.57 5.95-5.38 10.44zM192 194.91V208c0 8.84 7.16 16 16 16h64c8.84 0 16-7.16 16-16v-13.09c19.32-11.68 32-30.04 32-50.91 0-35.35-35.82-64-80-64s-80 28.65-80 64c0 20.87 12.68 39.23 32 50.91zM272 128c8.84 0 16 7.16 16 16s-7.16 16-16 16-16-7.16-16-16 7.16-16 16-16zm-64 0c8.84 0 16 7.16 16 16s-7.16 16-16 16-16-7.16-16-16 7.16-16 16-16zm240 256V16c0-8.8-7.2-16-16-16H80C35.8 0 0 35.8 0 80v352c0 44.2 35.8 80 80 80h352c8.8 0 16-7.2 16-16v-16c0-7.8-5.6-14.3-12.9-15.7-4.2-13-4.2-51.6 0-64.6 7.4-1.5 12.9-7.9 12.9-15.7zm-54 80H80c-17.7 0-32-14.3-32-32 0-17.6 14.4-32 32-32h314c-2.7 17.3-2.7 46.7 0 64zm6-112H80c-11.4 0-22.2 2.4-32 6.7V80c0-17.7 14.3-32 32-32h320v304z"/></svg>