<svg xmlns="http://www.w3.org/2000/svg" viewBox="0 0 448 512"><!-- Font Awesome Pro 5.15.4 by @fontawesome - https://fontawesome.com License - https://fontawesome.com/license (Commercial License) --><path d="M448 384V16c0-8.8-7.2-16-16-16H80C35.8 0 0 35.8 0 80v352c0 44.2 35.8 80 80 80h352c8.8 0 16-7.2 16-16v-16c0-7.8-5.6-14.3-12.9-15.7-4.2-13-4.2-51.6 0-64.6 7.4-1.5 12.9-7.9 12.9-15.7zm-54 80H80c-17.7 0-32-14.3-32-32 0-17.6 14.4-32 32-32h314c-2.7 17.3-2.7 46.7 0 64zm6-112H80c-11.4 0-22.2 2.4-32 6.7V80c0-17.7 14.3-32 32-32h320v304zm-154.66-85.33L272 320l26.66-53.33L352 240l-53.34-26.67L272 160l-26.66 53.33L192 240l53.34 26.67zM160 200l18.66-37.33L216 144l-37.34-18.67L160 88l-18.67 37.33L104 144l37.33 18.67L160 200z"/></svg>