<svg xmlns="http://www.w3.org/2000/svg" viewBox="0 0 640 512"><!-- Font Awesome Pro 5.15.4 by @fontawesome - https://fontawesome.com License - https://fontawesome.com/license (Commercial License) --><path d="M448 432a96 96 0 1 0-96-96 96 96 0 0 0 96 96zm144-272V56a56.06 56.06 0 0 0-56-56H104a56.07 56.07 0 0 0-56 56v104a48 48 0 0 0-48 48v256a48 48 0 0 0 48 48h544a48 48 0 0 0 48-48V208a48 48 0 0 0-48-48zM96 56a8 8 0 0 1 8-8h432a8 8 0 0 1 8 8v104h-96v-16a16 16 0 0 0-16-16h-32a16 16 0 0 0-16 16v16h-32v-16a16 16 0 0 0-16-16h-32a16 16 0 0 0-16 16v16h-32v-16a16 16 0 0 0-16-16h-32a16 16 0 0 0-16 16v16H96zm496 408H48V208h544zm-400-32a96 96 0 1 0-96-96 96 96 0 0 0 96 96z"/></svg>