<svg xmlns="http://www.w3.org/2000/svg" viewBox="0 0 512 512"><!-- Font Awesome Pro 5.15.4 by @fontawesome - https://fontawesome.com License - https://fontawesome.com/license (Commercial License) --><path d="M0 32v464c0 8.8 7.2 16 16 16h16c8.8 0 16-7.2 16-16V48h56v328c0 39.7 32.3 72 72 72 16.3 0 31.7-5.5 44-15 24.7 19.1 63.3 19.1 88 0 24.7 19.1 63.3 19.1 88 0 12.3 9.5 27.7 15 44 15 8.5 0 16.5-1.7 24-4.4V496c0 8.8 7.2 16 16 16h16c8.8 0 16-7.2 16-16V24c0-13.2-10.8-24-24-24H32C14.3 0 0 14.3 0 32zm152 16h312v328c0 13.2-10.8 24-24 24-9.5 0-18.2-5.7-22-14.5-7.6-17.5-36.4-17.5-44 0-7.6 17.6-36.4 17.6-44 0-7.6-17.5-36.4-17.5-44 0-7.6 17.6-36.4 17.6-44 0-3.8-8.8-12.4-14.4-22-14.4s-18.2 5.7-22 14.4c-3.8 8.8-12.5 14.5-22 14.5-13.2 0-24-10.8-24-24V48z"/></svg>