<svg xmlns="http://www.w3.org/2000/svg" viewBox="0 0 448 512"><!-- Font Awesome Pro 5.15.4 by @fontawesome - https://fontawesome.com License - https://fontawesome.com/license (Commercial License) --><path d="M248 464V48a16 16 0 0 0-16-16h-16a16 16 0 0 0-16 16v416a16 16 0 0 0 16 16h16a16 16 0 0 0 16-16zm144-320v24a16 16 0 0 0 16 16h24a16 16 0 0 0 16-16v-24a16 16 0 0 0-16-16h-24a16 16 0 0 0-16 16zM0 144v24a16 16 0 0 0 16 16h24a16 16 0 0 0 16-16v-24a16 16 0 0 0-16-16H16a16 16 0 0 0-16 16zm0 100v24a16 16 0 0 0 16 16h24a16 16 0 0 0 16-16v-24a16 16 0 0 0-16-16H16a16 16 0 0 0-16 16zm0 100v24a16 16 0 0 0 16 16h24a16 16 0 0 0 16-16v-24a16 16 0 0 0-16-16H16a16 16 0 0 0-16 16zm296-100v24a16 16 0 0 0 16 16h24a16 16 0 0 0 16-16v-24a16 16 0 0 0-16-16h-24a16 16 0 0 0-16 16zm96 100v24a16 16 0 0 0 16 16h24a16 16 0 0 0 16-16v-24a16 16 0 0 0-16-16h-24a16 16 0 0 0-16 16zm0-100v24a16 16 0 0 0 16 16h24a16 16 0 0 0 16-16v-24a16 16 0 0 0-16-16h-24a16 16 0 0 0-16 16zm-296 0v24a16 16 0 0 0 16 16h24a16 16 0 0 0 16-16v-24a16 16 0 0 0-16-16h-24a16 16 0 0 0-16 16zM56 464v-24a16 16 0 0 0-16-16H16a16 16 0 0 0-16 16v24a16 16 0 0 0 16 16h24a16 16 0 0 0 16-16zm96 0v-24a16 16 0 0 0-16-16h-24a16 16 0 0 0-16 16v24a16 16 0 0 0 16 16h24a16 16 0 0 0 16-16zm200 0v-24a16 16 0 0 0-16-16h-24a16 16 0 0 0-16 16v24a16 16 0 0 0 16 16h24a16 16 0 0 0 16-16zm96 0v-24a16 16 0 0 0-16-16h-24a16 16 0 0 0-16 16v24a16 16 0 0 0 16 16h24a16 16 0 0 0 16-16zM96 48v24a16 16 0 0 0 16 16h24a16 16 0 0 0 16-16V48a16 16 0 0 0-16-16h-24a16 16 0 0 0-16 16zm200 0v24a16 16 0 0 0 16 16h24a16 16 0 0 0 16-16V48a16 16 0 0 0-16-16h-24a16 16 0 0 0-16 16zm96 0v24a16 16 0 0 0 16 16h24a16 16 0 0 0 16-16V48a16 16 0 0 0-16-16h-24a16 16 0 0 0-16 16zM0 48v24a16 16 0 0 0 16 16h24a16 16 0 0 0 16-16V48a16 16 0 0 0-16-16H16A16 16 0 0 0 0 48z"/></svg>