<svg xmlns="http://www.w3.org/2000/svg" viewBox="0 0 448 512"><!-- Font Awesome Pro 5.15.4 by @fontawesome - https://fontawesome.com License - https://fontawesome.com/license (Commercial License) --><path d="M432 32h-16a16 16 0 0 0-16 16v416a16 16 0 0 0 16 16h16a16 16 0 0 0 16-16V48a16 16 0 0 0-16-16zM40 32H16A16 16 0 0 0 0 48v24a16 16 0 0 0 16 16h24a16 16 0 0 0 16-16V48a16 16 0 0 0-16-16zm96 0h-24a16 16 0 0 0-16 16v24a16 16 0 0 0 16 16h24a16 16 0 0 0 16-16V48a16 16 0 0 0-16-16zm0 392h-24a16 16 0 0 0-16 16v24a16 16 0 0 0 16 16h24a16 16 0 0 0 16-16v-24a16 16 0 0 0-16-16zm0-196h-24a16 16 0 0 0-16 16v24a16 16 0 0 0 16 16h24a16 16 0 0 0 16-16v-24a16 16 0 0 0-16-16zM40 128H16a16 16 0 0 0-16 16v24a16 16 0 0 0 16 16h24a16 16 0 0 0 16-16v-24a16 16 0 0 0-16-16zm0 296H16a16 16 0 0 0-16 16v24a16 16 0 0 0 16 16h24a16 16 0 0 0 16-16v-24a16 16 0 0 0-16-16zm0-196H16a16 16 0 0 0-16 16v24a16 16 0 0 0 16 16h24a16 16 0 0 0 16-16v-24a16 16 0 0 0-16-16zm0 100H16a16 16 0 0 0-16 16v24a16 16 0 0 0 16 16h24a16 16 0 0 0 16-16v-24a16 16 0 0 0-16-16zm296 96h-24a16 16 0 0 0-16 16v24a16 16 0 0 0 16 16h24a16 16 0 0 0 16-16v-24a16 16 0 0 0-16-16zm-100 0h-24a16 16 0 0 0-16 16v24a16 16 0 0 0 16 16h24a16 16 0 0 0 16-16v-24a16 16 0 0 0-16-16zm100-196h-24a16 16 0 0 0-16 16v24a16 16 0 0 0 16 16h24a16 16 0 0 0 16-16v-24a16 16 0 0 0-16-16zm0-196h-24a16 16 0 0 0-16 16v24a16 16 0 0 0 16 16h24a16 16 0 0 0 16-16V48a16 16 0 0 0-16-16zm-100 0h-24a16 16 0 0 0-16 16v24a16 16 0 0 0 16 16h24a16 16 0 0 0 16-16V48a16 16 0 0 0-16-16zm0 96h-24a16 16 0 0 0-16 16v24a16 16 0 0 0 16 16h24a16 16 0 0 0 16-16v-24a16 16 0 0 0-16-16zm0 200h-24a16 16 0 0 0-16 16v24a16 16 0 0 0 16 16h24a16 16 0 0 0 16-16v-24a16 16 0 0 0-16-16zm0-100h-24a16 16 0 0 0-16 16v24a16 16 0 0 0 16 16h24a16 16 0 0 0 16-16v-24a16 16 0 0 0-16-16z"/></svg>