<svg xmlns="http://www.w3.org/2000/svg" viewBox="0 0 448 512"><!-- Font Awesome Pro 5.15.4 by @fontawesome - https://fontawesome.com License - https://fontawesome.com/license (Commercial License) --><path d="M432 432H16a16 16 0 0 0-16 16v16a16 16 0 0 0 16 16h416a16 16 0 0 0 16-16v-16a16 16 0 0 0-16-16zM112 88h24a16 16 0 0 0 16-16V48a16 16 0 0 0-16-16h-24a16 16 0 0 0-16 16v24a16 16 0 0 0 16 16zm0 196h24a16 16 0 0 0 16-16v-24a16 16 0 0 0-16-16h-24a16 16 0 0 0-16 16v24a16 16 0 0 0 16 16zm100 0h24a16 16 0 0 0 16-16v-24a16 16 0 0 0-16-16h-24a16 16 0 0 0-16 16v24a16 16 0 0 0 16 16zm100 0h24a16 16 0 0 0 16-16v-24a16 16 0 0 0-16-16h-24a16 16 0 0 0-16 16v24a16 16 0 0 0 16 16zM212 184h24a16 16 0 0 0 16-16v-24a16 16 0 0 0-16-16h-24a16 16 0 0 0-16 16v24a16 16 0 0 0 16 16zm100-96h24a16 16 0 0 0 16-16V48a16 16 0 0 0-16-16h-24a16 16 0 0 0-16 16v24a16 16 0 0 0 16 16zm-100 0h24a16 16 0 0 0 16-16V48a16 16 0 0 0-16-16h-24a16 16 0 0 0-16 16v24a16 16 0 0 0 16 16zm0 296h24a16 16 0 0 0 16-16v-24a16 16 0 0 0-16-16h-24a16 16 0 0 0-16 16v24a16 16 0 0 0 16 16zm220-156h-24a16 16 0 0 0-16 16v24a16 16 0 0 0 16 16h24a16 16 0 0 0 16-16v-24a16 16 0 0 0-16-16zm0 100h-24a16 16 0 0 0-16 16v24a16 16 0 0 0 16 16h24a16 16 0 0 0 16-16v-24a16 16 0 0 0-16-16zm0-200h-24a16 16 0 0 0-16 16v24a16 16 0 0 0 16 16h24a16 16 0 0 0 16-16v-24a16 16 0 0 0-16-16zm0-96h-24a16 16 0 0 0-16 16v24a16 16 0 0 0 16 16h24a16 16 0 0 0 16-16V48a16 16 0 0 0-16-16zM16 384h24a16 16 0 0 0 16-16v-24a16 16 0 0 0-16-16H16a16 16 0 0 0-16 16v24a16 16 0 0 0 16 16zm0-200h24a16 16 0 0 0 16-16v-24a16 16 0 0 0-16-16H16a16 16 0 0 0-16 16v24a16 16 0 0 0 16 16zm0-96h24a16 16 0 0 0 16-16V48a16 16 0 0 0-16-16H16A16 16 0 0 0 0 48v24a16 16 0 0 0 16 16zm0 196h24a16 16 0 0 0 16-16v-24a16 16 0 0 0-16-16H16a16 16 0 0 0-16 16v24a16 16 0 0 0 16 16z"/></svg>