<svg xmlns="http://www.w3.org/2000/svg" viewBox="0 0 512 512"><!-- Font Awesome Pro 5.15.4 by @fontawesome - https://fontawesome.com License - https://fontawesome.com/license (Commercial License) --><path d="M145.78 286.65l33.94-33.9-99.54-99.42c33.83-24.46 74.26-37.85 116.85-37.85 34.01 0 66.7 8.5 95.73 24.37l34.96-34.91c-38.88-24.21-83.72-37.4-130.69-37.4-55.44 0-107.96 18.26-151.12 51.56l-7.28-7.27c-6.25-6.24-16.38-6.24-22.63 0l-11.31 11.3c-6.25 6.24-6.25 16.36 0 22.6l141.09 140.92zM493.2.3L364.62 25.98c-12.29 2.45-16.88 17.6-8.02 26.45l34.47 34.42-250.63 250.33-49.7-16.55c-1.93-.64-12.39-3.68-21.03 4.96l-63.68 63.6c-10.8 10.79-6.46 29.17 8.04 33.99l55.65 18.53 18.55 55.58c2.99 8.97 11.19 14.05 19.57 14.05 5.14 0 10.36-1.92 14.47-6.02l63.67-63.59a20.51 20.51 0 0 0 4.97-21.01l-16.57-49.64L425 120.75l34.46 34.42c8.92 8.91 24.04 4.2 26.48-8.01l25.72-128.43C514.02 7 503.46-1.74 493.2.3zM116.27 454.85l-14.93-44.72-44.78-14.91 32.92-32.88 44.78 14.91 14.93 44.72-32.92 32.88zM455.64 94.86L417 56.26l48.3-9.65-9.66 48.25zm-48.57 89l-34.96 34.91c16.19 29.21 24.9 62.14 24.9 96.45 0 42.53-13.42 82.9-37.91 116.69L258.9 331.83l-33.94 33.9 141.75 141.58c6.25 6.24 16.38 6.24 22.62 0l11.31-11.3c6.25-6.24 6.25-16.36 0-22.6l-7.28-7.27c33.35-43.1 51.64-95.55 51.64-150.92.01-47.23-13.36-92.33-37.93-131.36z"/></svg>