<svg xmlns="http://www.w3.org/2000/svg" viewBox="0 0 496 512"><!-- Font Awesome Pro 5.15.4 by @fontawesome - https://fontawesome.com License - https://fontawesome.com/license (Commercial License) --><path d="M491 308.2c-13.4-54-49.4-87.4-53.8-132-3-30.5 21.4-53.1 18.8-95.8C453.1 34 419.5.1 376 0c-43.4.1-77 34-79.9 80.5-2.8 42.7 21.7 65.3 18.7 95.8-4.4 44.5-40.5 78.1-53.7 131.9-13 52.5.3 140.1 29.1 191.5l6.9 12.3h158.1l6.9-12.3c28.6-51.4 41.9-139.1 28.9-191.5zM408.1 83.5c1.5 24.2-14.9 43.4-18.4 76.6h-27.4c-3.5-33.4-19.9-52.2-18.4-76.6 3-47.5 61.2-47.5 64.2 0zm18.1 380.4H325.9c-18.8-42.2-27.4-107-18.2-144.2 10.7-43.1 43.5-75 52.9-127.7h31c9.4 52.7 42.2 84.6 52.9 127.7 9.1 37.2.4 102-18.3 144.2zm-245-287.6c-3-30.5 21.4-53.1 18.7-95.8C197 34 163.4.2 119.9.1 76.5.2 42.9 34 40 80.5c-2.7 42.8 21.8 65.2 18.7 95.8C54.3 221 18.4 254.2 5 308.2c-13 52.5.3 140.2 29 191.5l6.9 12.3H199l6.9-12.3c28.7-51.3 42-139 29-191.5-13.3-54-49.3-87.2-53.7-131.9zM152 83.5c1.5 24.3-14.9 43.2-18.4 76.5h-27.4c-3.5-33.5-19.9-52-18.4-76.5 3.1-47.4 61.3-47.4 64.2 0zM170.1 464H69.8C51 421.7 42.4 356.9 51.6 319.7c10.6-43 43.4-74.8 52.9-127.7h30.9c9.5 53 42.3 84.7 52.9 127.8 9.2 37.2.6 101.9-18.2 144.2z"/></svg>