<svg xmlns="http://www.w3.org/2000/svg" viewBox="0 0 448 512"><!-- Font Awesome Pro 5.15.4 by @fontawesome - https://fontawesome.com License - https://fontawesome.com/license (Commercial License) --><path d="M301.3 243c-23.5-19.1-54.3-10.6-70 4.8l-7.4 7.3-7.4-7.3c-15.3-15.1-46.2-24.1-70-4.8-23.6 19.1-24.8 53.5-3.7 74.2l72.6 71.3c4.7 4.6 12.3 4.6 17 0l72.6-71.3c21.1-20.7 19.9-55.1-3.7-74.2zm146.6-67c0-10.6-2.6-21-7.6-30.3l-49.1-91.9c-4.3-13-16.5-21.8-30.3-21.8H87.1c-13.8 0-26 8.8-30.4 21.9L7.6 145.8c-5 9.3-7.6 19.7-7.6 30.3C.1 236.6 0 448 0 448c0 17.7 14.3 32 32 32h384c17.7 0 32-14.3 32-32 0 0-.1-211.4-.1-272zM248 80h102.8l34.2 64H248V80zM97.2 80H200v64H63l34.2-64zM48 432c0-36.5.1-163.5.1-240h351.8c0 76.5.1 203.5.1 240H48z"/></svg>