<svg xmlns="http://www.w3.org/2000/svg" viewBox="0 0 448 512"><!-- Font Awesome Pro 5.15.4 by @fontawesome - https://fontawesome.com License - https://fontawesome.com/license (Commercial License) --><path d="M447.9 176c0-10.6-2.6-21-7.6-30.3l-49.1-91.9c-4.3-13-16.5-21.8-30.3-21.8H87.1c-13.8 0-26 8.8-30.4 21.9L7.6 145.8c-5 9.3-7.6 19.7-7.6 30.3C.1 236.6 0 448 0 448c0 17.7 14.3 32 32 32h384c17.7 0 32-14.3 32-32 0 0-.1-211.4-.1-272zm-97.1-96l42.8 80H278.4l-24-80h96.4zM97.2 80h96.4l-24 80H54.4l42.8-80zM48 432c0-42.3.1-157.9.1-224H160v64c0 8.8 7.2 16 16 16h96c8.8 0 16-7.2 16-16v-64h111.9c0 66.1 0 181.8.1 224H48z"/></svg>