<svg xmlns="http://www.w3.org/2000/svg" viewBox="0 0 512 512"><!-- Font Awesome Pro 5.15.4 by @fontawesome - https://fontawesome.com License - https://fontawesome.com/license (Commercial License) --><path d="M480,208H410.67L448,96H338.6A70.2,70.2,0,0,1,272,48,70.19,70.19,0,0,0,205.4,0H64l46.22,208H32A32,32,0,0,0,0,240V480a32,32,0,0,0,32,32H480a32,32,0,0,0,32-32V240A32,32,0,0,0,480,208ZM205.4,48a22.16,22.16,0,0,1,21.06,15.18A118.06,118.06,0,0,0,338.6,144h42.8l-48,144H177.17L123.84,48ZM48,256h72.89L128,288H112a16,16,0,0,0-16,16v16a16,16,0,0,0,16,16H400a16,16,0,0,0,16-16V304a16,16,0,0,0-16-16H384l10.67-32H464V368H48ZM464,464H48V416H464Z"/></svg>