<svg xmlns="http://www.w3.org/2000/svg" viewBox="0 0 512 512"><!-- Font Awesome Pro 5.15.4 by @fontawesome - https://fontawesome.com License - https://fontawesome.com/license (Commercial License) --><path d="M400 368H112c-8.8 0-16 7.2-16 16v16c0 8.8 7.2 16 16 16h288c8.8 0 16-7.2 16-16v-16c0-8.8-7.2-16-16-16zM448 0H64C28.7 0 0 28.7 0 64v384c0 35.3 28.7 64 64 64h384c35.3 0 64-28.7 64-64V64c0-35.3-28.7-64-64-64zm16 448c0 8.8-7.2 16-16 16H64c-8.8 0-16-7.2-16-16V64c0-8.8 7.2-16 16-16h384c8.8 0 16 7.2 16 16v384zM358.2 99c-3.1-3.8-9.4-3.8-12.5 0l-64 80c-4.2 5.3-.4 13 6.2 13h32v112c0 8.8 7.2 16 16 16h32c8.8 0 16-7.2 16-16V192h32c6.7 0 10.4-7.7 6.2-13l-63.9-80zM128 192v112c0 8.8 7.2 16 16 16h32c8.8 0 16-7.2 16-16V192h32c6.7 0 10.4-7.7 6.2-13l-64-80c-3.1-3.8-9.4-3.8-12.5 0l-64 80c-4.2 5.3-.4 13 6.2 13H128z"/></svg>