<svg xmlns="http://www.w3.org/2000/svg" viewBox="0 0 448 512"><!-- Font Awesome Pro 5.15.4 by @fontawesome - https://fontawesome.com License - https://fontawesome.com/license (Commercial License) --><path d="M252.4 360.8l7.2 14.3c2 4 .4 8.8-3.6 10.7L227.8 400l28.2 14.1c4 2 5.6 6.8 3.6 10.7l-7.2 14.3c-2 4-6.8 5.6-10.7 3.6L192 417.9l-49.7 24.8c-4 2-8.8.4-10.7-3.6l-7.2-14.3c-2-4-.4-8.8 3.6-10.7l28.2-14.1-28.2-14.1c-4-2-5.6-6.8-3.6-10.7l7.2-14.3c2-4 6.8-5.6 10.7-3.6l49.7 24.8 49.7-24.8c3.9-2 8.7-.4 10.7 3.5zM448 229.5c0 55.7-23.3 110.2-63.9 149.6L368 394.7v77.9c0 21.8-17.9 39.5-40 39.5H72c-22.1 0-40-17.7-40-39.5v-82.8l-17-102C5 229.5 0 170 0 111 0 49.8 50.8 0 113.2 0H288c61.8 0 112 49.8 112 111v33.2c28.8 18.1 48 49.5 48 85.3zm-48 0c0-29.5-25.1-53.5-56-53.5h-31.3c-21.5 0-40.2 17.6-40.7 39.1-.5 20.2 14.2 37.2 33.4 40.4 3.8.6 6.6 4 6.6 7.9v32.3c0 4.7-4.1 8.4-8.8 8-44.4-4.4-79.2-42-79.2-87.6 0-8.4 1.6-16.3 3.7-24h-70.5c-30.6 0-59.5-10.9-82.3-30.8-3.5-3.1-3.7-8.4-.4-11.7l11.3-11.3c3-3 7.7-3.1 10.9-.4 16.9 14.4 38.1 22.3 60.5 22.3h87.4c16.2-19.4 40.2-32 67.3-32h32c10.2 0 8 6 8-17 0-35.3-28.1-63-64-63H113.2C77.2 48 48 76.2 48 111c0 95.9 11.4 151 31.4 273H104c4.4 0 8 3.6 8 8v16c0 4.4-3.6 8-8 8H80v48h240v-48h-24c-4.4 0-8-3.6-8-8v-16c0-4.4 3.6-8 8-8h24c0-6.2 2.5-12.1 6.9-16.4l23.8-23.1c31.8-30.7 49.3-71.6 49.3-115z"/></svg>