<svg xmlns="http://www.w3.org/2000/svg" viewBox="0 0 512 512"><!-- Font Awesome Pro 5.15.4 by @fontawesome - https://fontawesome.com License - https://fontawesome.com/license (Commercial License) --><path d="M344 288h-56v-56c0-4.4-3.6-8-8-8h-48c-4.4 0-8 3.6-8 8v56h-56c-4.4 0-8 3.6-8 8v48c0 4.4 3.6 8 8 8h56v56c0 4.4 3.6 8 8 8h48c4.4 0 8-3.6 8-8v-56h56c4.4 0 8-3.6 8-8v-48c0-4.4-3.6-8-8-8zm120-160H352V80c0-26.5-21.5-48-48-48h-96c-26.5 0-48 21.5-48 48v48H48c-26.5 0-48 21.5-48 48v288c0 26.5 21.5 48 48 48h416c26.5 0 48-21.5 48-48V176c0-26.5-21.5-48-48-48zM208 80h96v48h-96V80zm256 378c0 3.3-2.7 6-6 6H54c-3.3 0-6-2.7-6-6V182c0-3.3 2.7-6 6-6h404c3.3 0 6 2.7 6 6v276z"/></svg>