<svg xmlns="http://www.w3.org/2000/svg" viewBox="0 0 640 512"><!-- Font Awesome Pro 5.15.4 by @fontawesome - https://fontawesome.com License - https://fontawesome.com/license (Commercial License) --><path d="M636.52 31.02l-19.92-25c-5.5-6.9-15.57-8.05-22.49-2.56L363.38 181.38l-34.72-43.56c-4.82-6.05-14.03-6.02-18.81.06l-57.61 73.18c-31.09.74-103.98 6.65-151.87 44.66C38.28 304.99 0 511.31 0 511.31c15.1.66 212.37 7.35 272.15-40.1 47.71-37.87 70-107.39 77.79-137.63l84.34-39.52c7.02-3.29 9.13-12.28 4.29-18.35l-35.34-44.34 230.73-177.9c6.92-5.5 8.06-15.54 2.56-22.45zM242.27 433.73c-16.64 13.21-74.29 28.51-182.8 30.21 4.76-19.1 10.1-38.18 15.8-56.35l45.29-35.95c4.96-3.94 1.23-11.88-4.97-10.57l-26.06 5.5c13.43-35.28 27.73-63.05 40.72-73.36 27.04-21.46 71.32-31.04 109.74-33.53l59.81 75.03c-9.44 30.94-28.14 75.69-57.53 99.02zm88.06-143.88l-39.78-49.91 24.22-30.77c2.39-3.04 7-3.05 9.41-.03l43.77 54.91c2.42 3.03 1.37 7.53-2.15 9.17l-35.47 16.63z"/></svg>