<svg xmlns="http://www.w3.org/2000/svg" viewBox="0 0 576 512"><!-- Font Awesome Pro 5.15.4 by @fontawesome - https://fontawesome.com License - https://fontawesome.com/license (Commercial License) --><path d="M536 264h-64v-94.059l40.971-40.971c9.372-9.373 9.372-24.569 0-33.941-9.373-9.372-24.568-9.372-33.941 0L438.059 136H425C425 60.87 364.091 0 289 0c-75.13 0-136 60.909-136 136h-15.059l-40.97-40.971c-9.373-9.372-24.568-9.372-33.941 0-9.373 9.373-9.373 24.569 0 33.941L104 169.941V264H40c-13.255 0-24 10.745-24 24s10.745 24 24 24h64v24c0 29.275 7.91 56.733 21.694 80.365L71.029 471.03c-9.373 9.373-9.373 24.568 0 33.941 9.371 9.372 24.568 9.373 33.941 0l51.029-51.029C184.482 480.046 222.411 496 264 496h48c41.589 0 79.518-15.954 108.001-42.058l51.029 51.029c9.372 9.372 24.568 9.373 33.941 0 9.372-9.373 9.372-24.568 0-33.941l-54.665-54.665C464.09 392.734 472 365.275 472 336v-24h64c13.255 0 24-10.745 24-24s-10.745-24-24-24zM289 48c48.601 0 88 39.399 88 88H201c0-48.601 39.399-88 88-88zm23 400V260c0-6.627-5.373-12-12-12h-24c-6.627 0-12 5.373-12 12v188c-61.757 0-112-50.243-112-112V184h272v152c0 61.757-50.243 112-112 112z"/></svg>