<svg xmlns="http://www.w3.org/2000/svg" viewBox="0 0 640 512"><!-- Font Awesome Pro 5.15.4 by @fontawesome - https://fontawesome.com License - https://fontawesome.com/license (Commercial License) --><path d="M110.47 464L81.72 176H336a16 16 0 0 0 16-16v-16a16 16 0 0 0-16-16H206.74l20-80H272a16 16 0 0 0 16-16V16a16 16 0 0 0-16-16h-51.5a40 40 0 0 0-38.81 30.3L157.26 128H16a16 16 0 0 0-16 16v16a16 16 0 0 0 16 16h17.48l30.57 306.29A31.88 31.88 0 0 0 96 512h160a31.56 31.56 0 0 0 10.11-1.94A115.79 115.79 0 0 1 238.3 464zM528 312a16 16 0 1 0-16-16 16 16 0 0 0 16 16zm-80-16a16 16 0 1 0-16-16 16 16 0 0 0 16 16zm192 80c0-12.92-6.53-23.88-16-31.19a71.86 71.86 0 0 0-5.11-74.32C585.46 222.87 518.41 192.06 448 192c-70.36.06-137.41 30.87-170.82 78.49a71.83 71.83 0 0 0-5.18 74.32c-9.51 7.31-16 18.27-16 31.19a39.64 39.64 0 0 0 12.65 28.91A59.64 59.64 0 0 0 264 428a84.09 84.09 0 0 0 84 84h200a84.09 84.09 0 0 0 84-84 59.64 59.64 0 0 0-4.65-23.09A39.64 39.64 0 0 0 640 376zm-323.56-77.95c22.77-32.45 72.89-58 131.56-58.05s108.8 25.6 131.57 58.06A24.07 24.07 0 0 1 559.84 336H336.17a24.07 24.07 0 0 1-19.73-37.95zM548 464H348a36 36 0 0 1-36-36 12 12 0 0 1 12-12h248a12 12 0 0 1 12 12 36 36 0 0 1-36 36zM368 312a16 16 0 1 0-16-16 16 16 0 0 0 16 16z"/></svg>