<svg xmlns="http://www.w3.org/2000/svg" viewBox="0 0 384 512"><!-- Font Awesome Pro 5.15.4 by @fontawesome - https://fontawesome.com License - https://fontawesome.com/license (Commercial License) --><path d="M192 0C86.2 93.5 0 214.4 0 298.1 0 424 79 512 192 512s192-88 192-213.9c0-84-87.3-205.6-192-298.1zm0 65.2c51.4 51.1 144 158.5 144 232.9 0 29.5-5.6 55.6-15.1 78.4-3.5-74.7-83.7-157.9-128.9-208.8-45.8 51.5-125.4 133.8-128.9 208.8-9.4-22.8-15.1-49-15.1-78.4 0-74.2 92.6-181.7 144-232.9zm-18.1 397c-38.1-7.5-63.4-38.7-63.4-81.1 0-20.6 13.5-64.6 81.5-141.1 68 76.5 81.5 120.5 81.5 141.1 0 42.4-25.3 73.7-63.4 81.1-20.9 2.4-15.4 2.4-36.2 0z"/></svg>