<svg xmlns="http://www.w3.org/2000/svg" viewBox="0 0 512 512"><!-- Font Awesome Pro 5.15.4 by @fontawesome - https://fontawesome.com License - https://fontawesome.com/license (Commercial License) --><path d="M488 128h-24V80c0-44.8-92.11-80-208-80S48 35.2 48 80v48H24c-13.25 0-24 10.74-24 24v80c0 13.25 10.75 24 24 24h16.91C25.59 273.01 16 295.3 16 320v64c0 29.95 20.65 54.88 48.43 61.87-.05.74-.43 1.37-.43 2.13v32c0 17.67 14.33 32 32 32h32c17.67 0 32-14.33 32-32v-32h192v32c0 17.67 14.33 32 32 32h32c17.67 0 32-14.33 32-32v-32c0-.76-.38-1.39-.43-2.13C475.35 438.88 496 413.95 496 384v-64c0-24.7-9.59-46.99-24.91-64H488c13.25 0 24-10.75 24-24v-80c0-13.26-10.75-24-24-24zM96 84.4C108.24 71.08 164.99 48 256 48s147.76 23.08 160 36.4V112h-80c0-17.67-14.33-32-32-32h-96c-17.67 0-32 14.33-32 32H96V84.4zM416 160v64H272v-64h144zm-320 0h144v64H96v-64zm352 224c0 8.82-7.18 16-16 16H80c-8.82 0-16-7.18-16-16v-64c0-26.47 21.53-48 48-48h288c26.47 0 48 21.53 48 48v64zm-80-80c-17.67 0-32 14.33-32 32s14.33 32 32 32 32-14.33 32-32-14.33-32-32-32zm-224 0c-17.67 0-32 14.33-32 32s14.33 32 32 32 32-14.33 32-32-14.33-32-32-32z"/></svg>