<svg xmlns="http://www.w3.org/2000/svg" viewBox="0 0 512 512"><!-- Font Awesome Pro 5.15.4 by @fontawesome - https://fontawesome.com License - https://fontawesome.com/license (Commercial License) --><path d="M144 304c-17.67 0-32 14.33-32 32s14.33 32 32 32 32-14.33 32-32-14.33-32-32-32zm344-176h-8V80c0-44.8-99.2-80-224-80S32 35.2 32 80v48h-8c-13.25 0-24 10.74-24 24v80c0 13.25 10.75 24 24 24h8v160c0 17.67 14.33 32 32 32v32c0 17.67 14.33 32 32 32h16c17.67 0 32-14.33 32-32v-32h224v32c0 17.67 14.33 32 32 32h16c17.67 0 32-14.33 32-32v-32c17.67 0 32-14.33 32-32V256h8c13.25 0 24-10.75 24-24v-80c0-13.26-10.75-24-24-24zM80 160h152v64H80v-64zm352 240H80V272h352v128zm0-176H280v-64h152v64zm0-112h-96c0-17.67-14.33-32-32-32h-96c-17.67 0-32 14.33-32 32H80V85.43C94.18 71.6 156.69 48 256 48s161.82 23.6 176 37.43V112zm-64 256c17.67 0 32-14.33 32-32s-14.33-32-32-32-32 14.33-32 32 14.33 32 32 32z"/></svg>