<svg xmlns="http://www.w3.org/2000/svg" viewBox="0 0 640 512"><!-- Font Awesome Pro 5.15.4 by @fontawesome - https://fontawesome.com License - https://fontawesome.com/license (Commercial License) --><path d="M496 224c-79.59 0-144 64.41-144 144s64.41 144 144 144 144-64.41 144-144-64.41-144-144-144zm64 150.29c0 5.34-4.37 9.71-9.71 9.71h-60.57c-5.34 0-9.71-4.37-9.71-9.71v-76.57c0-5.34 4.37-9.71 9.71-9.71h12.57c5.34 0 9.71 4.37 9.71 9.71V352h38.29c5.34 0 9.71 4.37 9.71 9.71v12.58zM216 320h80c13.25 0 24-10.75 24-24v-24h28.68a177.277 177.277 0 0 1 46.45-48H48v-74c0-3.31 2.69-6 6-6h404c3.31 0 6 2.69 6 6v45.06c10.39-1.92 21.06-3.06 32-3.06 5.4 0 10.72.33 16 .81V144c0-26.51-21.49-48-48-48h-80V48c0-26.51-21.49-48-48-48H176c-26.51 0-48 21.49-48 48v48H48c-26.51 0-48 21.49-48 48v256c0 26.51 21.49 48 48 48h291.43a174.578 174.578 0 0 1-16.37-48H54c-3.31 0-6-2.69-6-6V272h144v24c0 13.25 10.75 24 24 24zM176 48h160v48H176V48z"/></svg>