<svg xmlns="http://www.w3.org/2000/svg" viewBox="0 0 448 512"><!-- Font Awesome Pro 5.15.4 by @fontawesome - https://fontawesome.com License - https://fontawesome.com/license (Commercial License) --><path d="M400 0H48C22.4 0 0 22.4 0 48v416c0 25.6 22.4 48 48 48h352c25.6 0 48-22.4 48-48V48c0-25.6-22.4-48-48-48zm0 464H48V208h352v256zm0-304H48V48h352v112zM108.8 320h38.4c6.4 0 12.8-6.4 12.8-12.8v-38.4c0-6.4-6.4-12.8-12.8-12.8h-38.4c-6.4 0-12.8 6.4-12.8 12.8v38.4c0 6.4 6.4 12.8 12.8 12.8zm192 96h38.4c6.4 0 12.8-6.4 12.8-12.8V268.8c0-6.4-6.4-12.8-12.8-12.8h-38.4c-6.4 0-12.8 6.4-12.8 12.8v134.4c0 6.4 6.4 12.8 12.8 12.8zm-192 0h38.4c6.4 0 12.8-6.4 12.8-12.8v-38.4c0-6.4-6.4-12.8-12.8-12.8h-38.4c-6.4 0-12.8 6.4-12.8 12.8v38.4c0 6.4 6.4 12.8 12.8 12.8zm96-96h38.4c6.4 0 12.8-6.4 12.8-12.8v-38.4c0-6.4-6.4-12.8-12.8-12.8h-38.4c-6.4 0-12.8 6.4-12.8 12.8v38.4c0 6.4 6.4 12.8 12.8 12.8zm0 96h38.4c6.4 0 12.8-6.4 12.8-12.8v-38.4c0-6.4-6.4-12.8-12.8-12.8h-38.4c-6.4 0-12.8 6.4-12.8 12.8v38.4c0 6.4 6.4 12.8 12.8 12.8z"/></svg>