<svg xmlns="http://www.w3.org/2000/svg" viewBox="0 0 512 512"><!-- Font Awesome Pro 5.15.4 by @fontawesome - https://fontawesome.com License - https://fontawesome.com/license (Commercial License) --><path d="M477.71 0H34.29C15.35 0 0 15.35 0 34.29v443.43C0 496.65 15.35 512 34.29 512h443.43c18.94 0 34.29-15.35 34.29-34.29V34.29C512 15.35 496.65 0 477.71 0zM232 464H48V280h184v184zm0-232H48V48h184v184zm232 232H280V280h184v184zm0-232H280V48h184v184zm-360-72h80c4.42 0 8-3.58 8-8v-16c0-4.42-3.58-8-8-8h-80c-4.42 0-8 3.58-8 8v16c0 4.42 3.58 8 8 8zm224 248h80c4.42 0 8-3.58 8-8v-16c0-4.42-3.58-8-8-8h-80c-4.42 0-8 3.58-8 8v16c0 4.42 3.58 8 8 8zm0-48h80c4.42 0 8-3.58 8-8v-16c0-4.42-3.58-8-8-8h-80c-4.42 0-8 3.58-8 8v16c0 4.42 3.58 8 8 8zm0-200h24v24c0 4.42 3.58 8 8 8h16c4.42 0 8-3.58 8-8v-24h24c4.42 0 8-3.58 8-8v-16c0-4.42-3.58-8-8-8h-24v-24c0-4.42-3.58-8-8-8h-16c-4.42 0-8 3.58-8 8v24h-24c-4.42 0-8 3.58-8 8v16c0 4.42 3.58 8 8 8zM104.4 396.28l11.31 11.31c3.12 3.12 8.19 3.12 11.31 0L144 390.63l16.97 16.97c3.12 3.12 8.19 3.12 11.31 0l11.31-11.31c3.12-3.12 3.12-8.19 0-11.31L166.63 368l16.97-16.97c3.12-3.12 3.12-8.19 0-11.31l-11.31-11.31c-3.12-3.12-8.19-3.12-11.31 0L144 345.37l-16.97-16.97c-3.12-3.12-8.19-3.12-11.31 0l-11.31 11.31c-3.12 3.12-3.12 8.19 0 11.31L121.37 368l-16.97 16.97c-3.12 3.12-3.12 8.19 0 11.31z"/></svg>