<svg xmlns="http://www.w3.org/2000/svg" viewBox="0 0 576 512"><!-- Font Awesome Pro 5.15.4 by @fontawesome - https://fontawesome.com License - https://fontawesome.com/license (Commercial License) --><path d="M288 128a80 80 0 1 0 80 80 80.12 80.12 0 0 0-80-80zm0 112a32 32 0 1 1 32-32 32 32 0 0 1-32 32zm282.63 103.94L512 256V80a48 48 0 0 0-48-48H112a48 48 0 0 0-48 48v176L5.38 343.94A32 32 0 0 0 0 361.69V448a32 32 0 0 0 32 32h512a32 32 0 0 0 32-32v-86.31a32 32 0 0 0-5.37-17.75zM112 270.53V80h352v190.53L507.64 336H68.36zM528 432H48v-48h480zM424 112h-32a8 8 0 0 0-8 8v32a8 8 0 0 0 8 8h32a8 8 0 0 0 8-8v-32a8 8 0 0 0-8-8z"/></svg>