<svg xmlns="http://www.w3.org/2000/svg" viewBox="0 0 576 512"><!-- Font Awesome Pro 5.15.4 by @fontawesome - https://fontawesome.com License - https://fontawesome.com/license (Commercial License) --><path d="M176 96a48 48 0 1 0 48 48 48 48 0 0 0-48-48zm192 0a48 48 0 1 0 48 48 48 48 0 0 0-48-48zm182.29 144a25.69 25.69 0 0 0-14.61 4.59L448 303.22v.78a63.5 63.5 0 0 0-10.37-34.74C481.75 244.62 512 198 512 144 512 64.6 447.4 0 368 0c-35.15 0-69.24 13.27-96 37.37C245.24 13.27 211.15 0 176 0 96.6 0 32 64.6 32 144c0 37 14.43 70.46 37.46 96H32a32 32 0 0 0-32 32v64a32 32 0 0 0 32 32h48v80a64 64 0 0 0 64 64h240a64 64 0 0 0 64-64v.73l87.68 58.62a25.56 25.56 0 0 0 14.61 4.6c13.3 0 25.71-10.36 25.71-25.23v-221.5c0-14.82-12.39-25.22-25.71-25.22zM400 448a16 16 0 0 1-16 16H144a16 16 0 0 1-16-16V320H48v-32h336a16 16 0 0 1 16 16zm-32-208H176a96 96 0 0 1 0-192c23.27 0 45.95 8.89 63.88 25L272 102l32.13-29c17.92-16.14 40.6-25 63.87-25a96 96 0 0 1 0 192zm160 204.48L448 391v-30l80-53.5z"/></svg>