<svg xmlns="http://www.w3.org/2000/svg" viewBox="0 0 448 512"><!-- Font Awesome Pro 5.15.4 by @fontawesome - https://fontawesome.com License - https://fontawesome.com/license (Commercial License) --><path d="M224,160a64.12,64.12,0,0,0-64,64,16,16,0,0,0,32,0,32,32,0,0,1,32-32,16,16,0,0,0,0-32Zm0-80C144.59,80,80,144.59,80,224s64.59,144,144,144,144-64.59,144-144S303.41,80,224,80Zm0,240a96,96,0,1,1,96-96A96,96,0,0,1,224,320ZM384,0H64A64,64,0,0,0,0,64V384a64,64,0,0,0,64,64H81.42l-4.89,2.83c-6.9,4.33-12.5,14.45-12.5,22.6v11.9A26.68,26.68,0,0,0,90.7,512H357.37A26.68,26.68,0,0,0,384,485.33V473.45c0-8.17-5.65-18.3-12.58-22.62L366.57,448H384a64,64,0,0,0,64-64V64A64,64,0,0,0,384,0Zm16,384a16,16,0,0,1-16,16H64a16,16,0,0,1-16-16V64A16,16,0,0,1,64,48H384a16,16,0,0,1,16,16Z"/></svg>