<svg xmlns="http://www.w3.org/2000/svg" viewBox="0 0 512 512"><!-- Font Awesome Pro 5.15.4 by @fontawesome - https://fontawesome.com License - https://fontawesome.com/license (Commercial License) --><path d="M256 320c79.53 0 144-64.47 144-144 0-33.29-33.42-101.96-80-144-13.37 12.06-25.45 24.75-36.14 37.48C266.34 46.01 244.61 22.21 220 0c-63.17 56.98-108 131.22-108 176 0 79.53 64.47 144 144 144zM220.26 67.87c9.13 10.02 17.58 20.21 25.14 30.33l36.26 48.56 36.85-43.89C339.82 133.29 352 165.07 352 176c0 52.93-43.06 96-96 96-52.93 0-96-43.07-96-96 0-19.32 20.77-63.38 60.26-108.13zM500.9 465.46l-165.41-52.32 165.41-52.32c8.33-2.64 12.98-11.61 10.38-20.04l-4.71-15.27c-2.6-8.43-11.47-13.14-19.8-10.5L256 387.99 25.24 315c-8.33-2.64-17.2 2.07-19.8 10.5L.73 340.77c-2.6 8.43 2.04 17.41 10.37 20.04l165.41 52.32L11.1 465.46C2.77 468.09-1.88 477.07.73 485.5l4.71 15.27c2.6 8.44 11.47 13.14 19.8 10.5L256 438.28l230.76 72.99c8.33 2.63 17.2-2.07 19.8-10.5l4.71-15.27c2.61-8.44-2.03-17.41-10.37-20.04z"/></svg>