<svg xmlns="http://www.w3.org/2000/svg" viewBox="0 0 640 512"><!-- Font Awesome Pro 5.15.4 by @fontawesome - https://fontawesome.com License - https://fontawesome.com/license (Commercial License) --><path d="M480 0C314.19 1.62 315.52 39.54 322.11 72.47 352.45 224.02 416.18 416 479.91 416h.09c63.77-.18 127.53-191.9 157.89-343.53C644.48 39.54 645.81 1.62 480 0zm-.07 365.62c-12.06-10.3-29.27-39.56-47.6-84.11 31.25-1.83 64.03-1.83 95.28 0-18.35 44.56-35.59 73.82-47.68 84.11zM591 63c-3.27 16.31-6.73 31.93-10.29 47.16-63.77-8.07-137.65-8.07-201.42 0C375.73 94.93 372.26 79.31 369 63c-.12-.62-.23-1.19-.33-1.72 10.2-4.34 38.91-12.52 111.34-13.26 72.42.74 101.13 8.92 111.34 13.26-.11.53-.22 1.1-.35 1.72zM84.94 205.81c-116.1 118.4-88.35 144.26-60.4 162.89 128.62 85.71 309.43 176.4 354.49 131.34l.06-.06c44.96-45.22-45.52-225.87-131.27-354.56-18.62-27.96-44.48-55.71-162.88 60.39zm6.69 149.12c-13.29-8.26-26.78-16.85-40.62-26.07-.53-.35-1.01-.68-1.45-.98 4.14-10.28 18.66-36.37 69.35-88.1 51.74-50.69 77.82-65.21 88.1-69.35.3.44.63.93.98 1.45 9.23 13.84 17.81 27.34 26.07 40.63-50.81 39.37-103.05 91.61-142.43 142.42zm226.04 16.27c18.53 44.49 27.03 77.37 25.76 93.2-15.81 1.24-48.68-7.28-93.13-25.82 20.81-23.39 43.98-46.57 67.37-67.38z"/></svg>