<svg xmlns="http://www.w3.org/2000/svg" viewBox="0 0 544 512"><!-- Font Awesome Pro 5.15.4 by @fontawesome - https://fontawesome.com License - https://fontawesome.com/license (Commercial License) --><path d="M516.88 312.08c-2.16-1.05-11.9-5.64-27.19-10.96 39.01-57.61 52.25-110.92 52.98-113.95 3.85-15.95-.78-32.74-12.27-44.54-9.21-9.45-21.8-14.64-34.78-14.64-3.21 0-6.45.32-9.66.97-3.1.63-55.54 11.56-114.37 43.47-14.48-85.81-57.6-148.6-59.79-151.74C302.76 7.74 287.89 0 272 0s-30.76 7.74-39.79 20.7c-2.19 3.14-45.31 65.92-59.79 151.74-58.83-31.91-111.27-42.85-114.37-43.47a48.7 48.7 0 0 0-9.66-.97c-12.98 0-25.57 5.19-34.78 14.64-11.5 11.79-16.13 28.58-12.28 44.53.73 3.03 13.98 56.34 52.98 113.95-15.29 5.32-25.03 9.91-27.19 10.96C10.54 320.13.01 336.85 0 355.17c-.01 18.32 10.49 35.05 27.06 43.12 2.17 1.05 46.28 22.24 105.46 28.67a47.751 47.751 0 0 0 13.09 38.15c9.26 9.65 21.98 14.89 35.03 14.89 4.47 0 8.97-.62 13.4-1.88 3.67-1.05 25.83-7.77 53.96-22.27V496c0 8.84 7.16 16 16 16h16c8.84 0 16-7.16 16-16v-40.15c28.13 14.5 50.29 21.22 53.96 22.27 4.42 1.27 8.93 1.88 13.4 1.88 13.05 0 25.77-5.24 35.03-14.89 9.91-10.32 14.56-24.32 13.09-38.15 59.18-6.44 103.29-27.62 105.46-28.67 16.57-8.07 27.07-24.8 27.06-43.12-.01-18.32-10.54-35.04-27.12-43.09zM378.22 380.8c-17.3 0-31.13-.86-42.42-2.33-.22.11-.4.15-.62.27 19.77 28.81 28.18 53.26 28.18 53.26s-48-13.73-91.36-48.48C228.63 418.27 180.64 432 180.64 432s8.42-24.45 28.18-53.26c-.22-.11-.4-.15-.62-.27-11.29 1.46-25.12 2.33-42.42 2.33-64.84 0-117.4-25.6-117.4-25.6s40.88-19.84 94.97-24.56c-.85-.77-1.57-1.3-2.43-2.09C69.37 263.02 48.38 176 48.38 176s95.02 19.22 166.57 84.75c.93.85 1.57 1.57 2.48 2.41-.85-10.83-1.33-22.72-1.33-35.96C216.1 128.23 272 48 272 48s55.9 80.23 55.9 179.2c0 13.23-.48 25.13-1.33 35.96.91-.84 1.54-1.56 2.48-2.41C400.6 195.22 495.62 176 495.62 176s-20.99 87.02-92.54 152.55c-.86.79-1.58 1.32-2.43 2.09 54.09 4.71 94.97 24.56 94.97 24.56s-52.56 25.6-117.4 25.6z"/></svg>