<svg xmlns="http://www.w3.org/2000/svg" viewBox="0 0 640 512"><!-- Font Awesome Pro 5.15.4 by @fontawesome - https://fontawesome.com License - https://fontawesome.com/license (Commercial License) --><path d="M336 344.48a23.93 23.93 0 1 0 24 23.93 24 24 0 0 0-24-23.93zm163.32-68.16a32.06 32.06 0 0 0-29.52-19.59h-75.6a32 32 0 0 0-29.41 19.34l-19.59 44.47h173.6zM528 344.48a23.93 23.93 0 1 0 24 23.93 24 24 0 0 0-24-23.93zm58.77-67.21l-14-32.63A111.88 111.88 0 0 0 469.8 177h-75.6a111.88 111.88 0 0 0-102.94 67.69l-14 32.63A79.93 79.93 0 0 0 224 352.45v31.91c0 26 12.72 48.9 32.07 63.47 0 .13-.07.23-.07.35v31.91A32 32 0 0 0 288 512h16a32 32 0 0 0 32-31.91v-15.95h192v15.95A32 32 0 0 0 560 512h16a32 32 0 0 0 32-31.91v-31.91c0-.12-.07-.22-.07-.35 19.35-14.57 32.07-37.48 32.07-63.47v-31.91a79.93 79.93 0 0 0-53.23-75.18zM592 384.36a32 32 0 0 1-32 31.91H304a32 32 0 0 1-32-31.91v-31.91a32 32 0 0 1 32-31.91h6.86l24.52-57a64 64 0 0 1 58.82-38.68h75.6a64 64 0 0 1 58.82 38.68l24.52 57H560a32 32 0 0 1 32 31.91zM176 97.18H96a16 16 0 0 0-16 15.95v111.69a16 16 0 0 0 16 16h80zM48 328.52V99.15c0-28.72 63.77-51.29 144-51.29s144 22.57 144 51.29v58.33a144.12 144.12 0 0 1 48-11.69V99.15C384 26 280.57 0 192 0S0 26 0 99.15v229.37a56 56 0 0 0 56 55.84h8v31.91a32 32 0 0 0 32 31.91h16a32 32 0 0 0 32-31.91v-31.91h48v-31.91a110.91 110.91 0 0 1 1.18-15.95H56a8 8 0 0 1-8-7.98zm32-39.89a24 24 0 1 0 24-23.93 24 24 0 0 0-24 23.93zm181.84-56.56a143.19 143.19 0 0 1 42.16-55v-64a16 16 0 0 0-16-15.95h-80v143.65h50.11z"/></svg>