<svg xmlns="http://www.w3.org/2000/svg" viewBox="0 0 480 512"><!-- Font Awesome Pro 5.15.4 by @fontawesome - https://fontawesome.com License - https://fontawesome.com/license (Commercial License) --><path d="M438.73 209.26l-38.3-95.14C388.24 83.84 358.87 64 326.22 64H153.78c-32.64 0-62.02 19.84-74.21 50.12l-38.31 95.14C16.37 226.6 0 255.35 0 287.99V424c0 13.25 10.75 24 24 24h16c13.25 0 24-10.75 24-24v-24h352v24c0 13.25 10.75 24 24 24h16c13.25 0 24-10.75 24-24V288c0-32.65-16.37-61.4-41.27-78.74zM124.1 132.05C129 119.87 140.65 112 153.78 112h172.44c13.13 0 24.78 7.87 29.68 20.05l24.13 59.94H99.97l24.13-59.94zM432 336c0 8.82-7.18 16-16 16H64c-8.82 0-16-7.18-16-16v-48c0-26.47 21.53-48 48-48h288c26.47 0 48 21.53 48 48v48zm-320-72.01c-19.2 0-32 12.76-32 31.91s12.8 31.91 32 31.91 48 3.19 48-15.96c0-19.14-28.8-47.86-48-47.86zm256 0c-19.2 0-48 28.72-48 47.86 0 19.15 28.8 15.96 48 15.96s32-12.76 32-31.91c0-19.14-12.8-31.91-32-31.91z"/></svg>