<svg xmlns="http://www.w3.org/2000/svg" viewBox="0 0 640 512"><!-- Font Awesome Pro 5.15.4 by @fontawesome - https://fontawesome.com License - https://fontawesome.com/license (Commercial License) --><path d="M136.89 123.07a31.77 31.77 0 0 0 12.66-22.45l2.16-21.95 12.19 18.36a31.944 31.944 0 0 0 21.75 13.86c9 1.28 17.94-1.17 24.97-6.89l52.16-42.94c10.25-8.42 11.72-23.55 3.28-33.78-8.47-10.23-23.56-11.66-33.78-3.28l-38.31 31.55-27.47-41.31C159.09 3.02 145.28-2.32 132.25.97c-13.06 3.28-22.66 14.47-23.91 27.78l-4.81 49.41-48.66-9.81c-13.09-2.56-26.66 3.3-33.56 14.84-6.94 11.53-5.81 26.23 2.72 36.56l31.53 38.31-41.34 27.48C2.88 193.1-2.31 206.52 1 219.74c3.28 13.22 14.19 22.62 27.78 23.97l49.41 4.78-9.81 48.66c-2.62 12.98 5.78 25.64 18.78 28.27 1.62.31 3.22.47 4.78.47 11.19 0 21.19-7.86 23.5-19.27l13.34-66.27c1.75-8.8-.31-17.97-5.62-25.17-5.34-7.2-13.53-11.84-22.5-12.73l-21.94-2.12 18.31-12.17c7.5-4.95 12.56-12.89 13.91-21.78a32.07 32.07 0 0 0-6.91-24.97l-14-17.02 21.62 4.36c8.68 1.76 17.99-.32 25.24-5.68zm397.86 187.6c-18.54-4.97-53.8 15.31-58.75 33.81s23.69 22.87 42.23 27.83c18.54 4.97 34.21-4.04 39.17-22.54s-4.11-34.13-22.65-39.1zm82.49-34.56L604.86 174.3c-3.94-32.41-27.18-59.17-58.71-67.62L379.59 62.06c-31.53-8.45-65.04 3.11-84.65 29.21l-61.62 81.98c-28.54 10.31-51.79 33.84-60.24 65.37l-35.2 131.37c-3.43 12.8 4.17 25.96 16.97 29.39l15.45 4.14c12.8 3.43 25.96-4.17 29.39-16.97l6.21-23.18 340.01 91.11-6.21 23.18c-3.43 12.8 4.17 25.96 16.97 29.39l15.46 4.14c12.8 3.43 25.96-4.17 29.39-16.97l26.92-100.46 8.28-30.91c8.45-31.54.08-63.54-19.48-86.74zM333.31 120.1c7.89-10.5 21.18-15.08 33.86-11.68l166.56 44.63c12.68 3.4 21.9 14.01 23.48 27.04l7.8 64.14-270.53-72.49 38.83-51.64zm257.05 230.32l-12.42 46.37c-2.28 8.52-11.07 13.6-19.6 11.31L218.33 317c-8.52-2.28-13.6-11.07-11.31-19.6l12.42-46.37c6.85-25.56 33.22-40.79 58.79-33.94l278.19 74.54c25.56 6.85 40.79 33.22 33.94 58.79zM287.47 244.41c-18.54-4.97-34.21 4.05-39.17 22.54s4.11 34.13 22.65 39.1c18.55 4.97 45.54 15.5 50.49-2.99 4.96-18.49-15.42-53.68-33.97-58.65z"/></svg>