<svg xmlns="http://www.w3.org/2000/svg" viewBox="0 0 640 512"><!-- Font Awesome Pro 5.15.4 by @fontawesome - https://fontawesome.com License - https://fontawesome.com/license (Commercial License) --><path d="M631.76 168.24L331.67 3.02a24.06 24.06 0 0 0-23.35 0L8.24 168.24c-7.74 4.3-10.52 14.05-6.23 21.79l7.78 14.01c4.3 7.74 14.05 10.52 21.79 6.23L320 51.53l288.41 158.73c7.74 4.3 17.49 1.51 21.79-6.23l7.78-14.01c4.3-7.73 1.51-17.49-6.22-21.78zM192 328c-19.2 0-32 12.76-32 31.91 0 19.14 12.8 31.91 32 31.91s48 3.19 48-15.96c0-19.14-28.8-47.86-48-47.86zm256 0c-19.2 0-48 28.72-48 47.86s28.8 15.96 48 15.96 32-12.76 32-31.91S467.2 328 448 328zm58.21-61.83l-25.79-64.04c-12.19-30.28-41.56-50.12-74.21-50.12H233.78c-32.65 0-62.02 19.84-74.21 50.12l-25.79 64.04C102.04 281.83 80 314.2 80 352v136c0 13.25 10.75 24 24 24h16c13.25 0 24-10.75 24-24v-24h352v24c0 13.25 10.75 24 24 24h16c13.25 0 24-10.75 24-24V352c0-37.8-22.04-70.17-53.79-85.83zM204.1 220.06c4.9-12.18 16.56-20.05 29.69-20.05h172.44c13.13 0 24.78 7.87 29.69 20.05L450.37 256H189.63l14.47-35.94zM512 400c0 8.82-7.18 16-16 16H144c-8.82 0-16-7.18-16-16v-48c0-26.47 21.53-48 48-48h288c26.47 0 48 21.53 48 48v48z"/></svg>