<svg xmlns="http://www.w3.org/2000/svg" viewBox="0 0 480 512"><!-- Font Awesome Pro 5.15.4 by @fontawesome - https://fontawesome.com License - https://fontawesome.com/license (Commercial License) --><path d="M80 128c23.56 0 42.67-19.1 42.67-42.67S80 0 80 0 37.33 61.77 37.33 85.33 56.44 128 80 128zm160 0c23.56 0 42.67-19.1 42.67-42.67S240 0 240 0s-42.67 61.77-42.67 85.33S216.44 128 240 128zm160 0c23.56 0 42.67-19.1 42.67-42.67S400 0 400 0s-42.67 61.77-42.67 85.33S376.44 128 400 128zm26.21 138.17l-25.79-64.04c-12.18-30.29-41.55-50.13-74.2-50.13H153.78c-32.65 0-62.02 19.84-74.21 50.12l-25.79 64.04C22.04 281.83 0 314.2 0 352v136c0 13.25 10.75 24 24 24h16c13.25 0 24-10.75 24-24v-24h352v24c0 13.25 10.75 24 24 24h16c13.25 0 24-10.75 24-24V352c0-37.8-22.04-70.17-53.79-85.83zM124.1 220.05C129 207.87 140.66 200 153.79 200h172.44c13.13 0 24.78 7.87 29.69 20.05l14.47 35.94H109.63l14.47-35.94zM432 400c0 8.82-7.18 16-16 16H64c-8.82 0-16-7.18-16-16v-48c0-26.47 21.53-48 48-48h288c26.47 0 48 21.53 48 48v48zm-64-72.01c-19.2 0-48 28.72-48 47.86s28.8 15.96 48 15.96 32-12.76 32-31.91-12.8-31.91-32-31.91zm-256 0c-19.2 0-32 12.76-32 31.91s12.8 31.91 32 31.91 48 3.19 48-15.96-28.8-47.86-48-47.86z"/></svg>