<svg xmlns="http://www.w3.org/2000/svg" viewBox="0 0 640 512"><!-- Font Awesome Pro 5.15.4 by @fontawesome - https://fontawesome.com License - https://fontawesome.com/license (Commercial License) --><path d="M198.33 314.05c-13.48 13.48-13.51 31.43-.06 44.87 13.44 13.44 31.39 13.42 44.87-.06 13.48-13.48 35.94-31.46 22.5-44.9-13.45-13.45-53.83-13.39-67.31.09zm179.73-179.72c-13.48 13.48-13.54 53.86-.1 67.3 13.44 13.44 31.42-9.02 44.9-22.5 13.48-13.48 13.51-31.42.06-44.87-13.43-13.43-31.38-13.41-44.86.07zM624 464H280.38l-20.26-20.77 247.12-247.12 16.85 16.85c9.3 9.3 24.39 9.3 33.7 0l11.23-11.23c9.3-9.3 9.3-24.39 0-33.7l-95.48-95.48c-22.92-22.92-54.59-31.6-84.24-26.3l-93.68-39.9C265.8-6.35 231.25.34 208.33 23.26L87.27 144.32c-22.92 22.92-29.61 57.46-16.91 87.28l39.9 93.68c-5.3 29.65 3.38 61.32 26.3 84.24L191.03 464H16c-8.84 0-16 7.16-16 16v16c0 8.84 7.16 16 16 16h608c8.84 0 16-7.16 16-16v-16c0-8.84-7.16-16-16-16zM114.2 212.94c-5.11-11.99-2.45-25.7 6.76-34.91L242.03 56.96c9.22-9.22 22.92-11.87 34.91-6.77l59.02 25.14-196.62 196.62-25.14-59.01zm89.75 196.59l-33.7-33.7c-18.58-18.58-18.58-48.81 0-67.39l202.19-202.19c18.58-18.58 48.82-18.58 67.4 0l33.7 33.7c6.19 6.19 6.19 16.27 0 22.46L226.42 409.53c-6.2 6.19-16.28 6.19-22.47 0z"/></svg>