<svg xmlns="http://www.w3.org/2000/svg" viewBox="0 0 512 512"><!-- Font Awesome Pro 5.15.4 by @fontawesome - https://fontawesome.com License - https://fontawesome.com/license (Commercial License) --><path d="M499.99 192.01h-52.21l-31.36-77.88C404.24 83.84 374.86 64 342.22 64H169.78c-32.64 0-62.02 19.84-74.21 50.12L64.21 192h-52.2C4.2 192-1.53 199.34.37 206.91l6 24A12.01 12.01 0 0 0 18.01 240h11.31C21.04 254.16 16 270.41 16 287.99V424c0 13.25 10.75 24 24 24h16c13.25 0 24-10.75 24-24v-24h352v24c0 13.25 10.75 24 24 24h16c13.25 0 24-10.75 24-24V288c0-17.59-5.04-33.84-13.31-47.99H494c5.51 0 10.31-3.75 11.64-9.09l6-24c1.89-7.58-3.84-14.91-11.65-14.91zM140.1 132.05C145 119.87 156.65 112 169.78 112h172.44c13.13 0 24.78 7.87 29.68 20.05l24.13 59.94H115.97l24.13-59.94zM448 336c0 8.82-7.18 16-16 16H80c-8.82 0-16-7.18-16-16v-48c0-26.47 21.53-48 48-48h288c26.47 0 48 21.53 48 48v48zm-320-72.01c-19.2 0-32 12.76-32 31.91s12.8 31.91 32 31.91 48 3.19 48-15.96c0-19.14-28.8-47.86-48-47.86zm256 0c-19.2 0-48 28.72-48 47.86 0 19.15 28.8 15.96 48 15.96s32-12.76 32-31.91c0-19.14-12.8-31.91-32-31.91z"/></svg>