<svg xmlns="http://www.w3.org/2000/svg" viewBox="0 0 640 512"><!-- Font Awesome Pro 5.15.4 by @fontawesome - https://fontawesome.com License - https://fontawesome.com/license (Commercial License) --><path d="M416,96H352a32,32,0,0,0-32,32v64a32,32,0,0,0,32,32h64a32,32,0,0,0,32-32V128A32,32,0,0,0,416,96ZM624,336H576V160A160,160,0,0,0,416,0H96A96,96,0,0,0,0,96V288a96,96,0,0,0,96,96,96,96,0,0,0,192,0H624a16,16,0,0,0,16-16V352A16,16,0,0,0,624,336ZM192,432a48,48,0,1,1,48-48A48.05,48.05,0,0,1,192,432Zm336-96H274.69c-16.64-28.57-47.25-48-82.69-48s-66,19.43-82.69,48H96a48.05,48.05,0,0,1-48-48V96A48.05,48.05,0,0,1,96,48H416A112.12,112.12,0,0,1,528,160ZM256,96H128a32,32,0,0,0-32,32v64a32,32,0,0,0,32,32H256a32,32,0,0,0,32-32V128A32,32,0,0,0,256,96Z"/></svg>