<svg xmlns="http://www.w3.org/2000/svg" viewBox="0 0 512 512"><!-- Font Awesome Pro 5.15.4 by @fontawesome - https://fontawesome.com License - https://fontawesome.com/license (Commercial License) --><path d="M369.8 142.2c22.7-47.5 11-103.8-35.4-142.2-44.5 36.9-56.7 90-37.4 136.1-14-4.9-28.3-8.1-42.5-8.1-48 0-94.1 26.8-116.6 72.8L2.4 478.3c-3 6.2-3.3 13.8 0 20.5 4.1 8.3 12.4 13.1 21 13.1 3.4 0 6.9-.8 10.3-2.4L311.3 374c25-12.2 46.4-32.6 59.6-59.6 15.7-32.1 16.9-67.6 6.1-98.9 45.9 18.7 98.4 6.3 135.1-37.9-38.6-46.4-94.8-58.1-142.3-35.4zm-42.1 151.2c-8.1 16.5-21 29.5-37.5 37.5l-57.3 28L209 335c-9.4-9.4-24.6-9.4-33.9 0s-9.4 24.6 0 33.9l12.2 12.2-110.4 54L173 238.3l34 34.7c4.7 4.7 10.8 7 17 7s12.3-2.3 17-7c9.4-9.4 9.4-24.6 0-33.9l-41.6-40.9c14.8-13.7 34-22.1 55.1-22.1 12.4 0 24.4 2.8 35.7 8.3 19.6 9.6 34.3 26.2 41.4 46.8 7 20.5 5.7 42.7-3.9 62.2z"/></svg>