<svg xmlns="http://www.w3.org/2000/svg" viewBox="0 0 576 512"><!-- Font Awesome Pro 5.15.4 by @fontawesome - https://fontawesome.com License - https://fontawesome.com/license (Commercial License) --><path d="M551.991 64H144.28l-8.726-44.608C133.35 8.128 123.478 0 112 0H12C5.373 0 0 5.373 0 12v24c0 6.627 5.373 12 12 12h80.24l69.594 355.701C150.796 415.201 144 430.802 144 448c0 35.346 28.654 64 64 64s64-28.654 64-64a63.681 63.681 0 0 0-8.583-32h145.167a63.681 63.681 0 0 0-8.583 32c0 35.346 28.654 64 64 64s64-28.654 64-64c0-18.136-7.556-34.496-19.676-46.142l1.035-4.757c3.254-14.96-8.142-29.101-23.452-29.101H203.76l-9.39-48h312.405c11.29 0 21.054-7.869 23.452-18.902l45.216-208C578.695 78.139 567.299 64 551.991 64zM464 424c13.234 0 24 10.766 24 24s-10.766 24-24 24-24-10.766-24-24 10.766-24 24-24zm-256 0c13.234 0 24 10.766 24 24s-10.766 24-24 24-24-10.766-24-24 10.766-24 24-24zm279.438-152H184.98l-31.31-160h368.548l-34.78 160zM272 200v-16c0-6.627 5.373-12 12-12h32v-32c0-6.627 5.373-12 12-12h16c6.627 0 12 5.373 12 12v32h32c6.627 0 12 5.373 12 12v16c0 6.627-5.373 12-12 12h-32v32c0 6.627-5.373 12-12 12h-16c-6.627 0-12-5.373-12-12v-32h-32c-6.627 0-12-5.373-12-12z"/></svg>