<svg xmlns="http://www.w3.org/2000/svg" viewBox="0 0 512 512"><!-- Font Awesome Pro 5.15.4 by @fontawesome - https://fontawesome.com License - https://fontawesome.com/license (Commercial License) --><path d="M168 296h-16c-8.8 0-16 7.2-16 16v16c0 8.8 7.2 16 16 16h16c8.8 0 16-7.2 16-16v-16c0-8.8-7.2-16-16-16zm-32-48c0-8.8-7.2-16-16-16h-16c-8.8 0-16 7.2-16 16v16c0 8.8 7.2 16 16 16h16c8.8 0 16-7.2 16-16v-16zm96 0c0-8.8-7.2-16-16-16h-16c-8.8 0-16 7.2-16 16v16c0 8.8 7.2 16 16 16h16c8.8 0 16-7.2 16-16v-16zm128 48h-16c-8.8 0-16 7.2-16 16v16c0 8.8 7.2 16 16 16h16c8.8 0 16-7.2 16-16v-16c0-8.8-7.2-16-16-16zm48-64h-16c-8.8 0-16 7.2-16 16v16c0 8.8 7.2 16 16 16h16c8.8 0 16-7.2 16-16v-16c0-8.8-7.2-16-16-16zm103.4 147.5l-25.5-178.3c-3.4-23.6-23.6-41.2-47.5-41.2H208v-32h96c8.8 0 16-7.2 16-16V16c0-8.8-7.2-16-16-16H48c-8.8 0-16 7.2-16 16v96c0 8.8 7.2 16 16 16h96v32H73.6c-23.9 0-44.1 17.6-47.5 41.2L.6 379.5c-.4 3-.6 6-.6 9.1V464c0 26.5 21.5 48 48 48h416c26.5 0 48-21.5 48-48v-75.5c0-3-.2-6-.6-9zM80 80V48h192v32H80zm-6.4 128h364.7l22.9 160H50.8l22.8-160zM464 464H48v-48h416v48zM328 248c0-8.8-7.2-16-16-16h-16c-8.8 0-16 7.2-16 16v16c0 8.8 7.2 16 16 16h16c8.8 0 16-7.2 16-16v-16zm-64 48h-16c-8.8 0-16 7.2-16 16v16c0 8.8 7.2 16 16 16h16c8.8 0 16-7.2 16-16v-16c0-8.8-7.2-16-16-16z"/></svg>