<svg xmlns="http://www.w3.org/2000/svg" viewBox="0 0 640 512"><!-- Font Awesome Pro 5.15.4 by @fontawesome - https://fontawesome.com License - https://fontawesome.com/license (Commercial License) --><path d="M448,0A176,176,0,0,0,272,176c0,1.32227.168,2.60156.19727,3.916C205.63672,190.57422,149.23633,226.43555,112,277.01562V184A88.08953,88.08953,0,0,0,24,96a23.99716,23.99716,0,1,0,.6875,47.98438C47.03125,143.375,64,164.5625,64,186.92188v212.375C64,472.70312,103.40625,512,152,512H336a15.9908,15.9908,0,0,0,16-16,32.01159,32.01159,0,0,0-32-32H303.875A163.00191,163.00191,0,0,0,302,442.1875l82-48.23438V480a32.01159,32.01159,0,0,0,32,32h64a32.01159,32.01159,0,0,0,32-32V339.81836C577.51953,314.19727,624,250.59375,624,176A175.99871,175.99871,0,0,0,448,0Zm0,48a127.06647,127.06647,0,0,1,72.9375,23.0625L480,112H416L375.0625,71.0625A127.06647,127.06647,0,0,1,448,48Zm56,128a16,16,0,1,1-16-16A15.9908,15.9908,0,0,1,504,176Zm-80,0a16,16,0,1,1-16-16A15.9908,15.9908,0,0,1,424,176ZM287.4375,395.07812A163.5365,163.5365,0,0,0,234,331.96875c-7.53125-5.26563-18.09375-2.20313-22.53125,5.8125l-7.4375,13.39063c-3.96875,7.14062-2.5625,16.48437,4.0625,21.28124A115.85626,115.85626,0,0,1,255.71875,464H152a40.037,40.037,0,0,1-40-40c0-98.66406,70.42969-180.97852,167.67188-196.59961A176.345,176.345,0,0,0,382.38672,339.22656ZM464,464H432V365.98438a31.91955,31.91955,0,0,0-3.96094-15.19336A162.0303,162.0303,0,0,0,464,351.19336ZM448,304A128.1454,128.1454,0,0,1,320,176c0-32.16992,12.334-61.25391,32-83.76367V176a96,96,0,0,0,192,0V92.23633C563.666,114.74609,576,143.83008,576,176A128.14414,128.14414,0,0,1,448,304ZM146.94531,68.76953l39.71094,16.56055,16.5625,39.71094a5.32345,5.32345,0,0,0,9.53906,0l16.5586-39.71094,39.71484-16.56055a5.336,5.336,0,0,0,0-9.541l-39.71484-16.5586L212.75781,2.957a5.325,5.325,0,0,0-9.53906,0l-16.5625,39.71289-39.71094,16.5586a5.336,5.336,0,0,0,0,9.541Z"/></svg>