<svg xmlns="http://www.w3.org/2000/svg" viewBox="0 0 576 512"><!-- Font Awesome Pro 5.15.4 by @fontawesome - https://fontawesome.com License - https://fontawesome.com/license (Commercial License) --><path d="M416 128c-8.84 0-16 7.16-16 16s7.16 16 16 16 16-7.16 16-16-7.16-16-16-16zM547.53 4.15A47.971 47.971 0 0 0 528.01 0c-11.64 0-23.13 4.23-32.12 12.32L456.25 48h-16.49l-39.64-35.68a48.032 48.032 0 0 0-51.65-8.17C331.16 11.87 320 29.04 320 48v112c0 4.24.85 8.24 1.25 12.38l-47 7.12c-67.48 10.23-124.62 46.4-162.25 97.52V184c0-48.53-39.47-88-88-88-13.25 0-24 10.75-24 24 0 13.47 11.12 24.37 24.68 23.99C47.02 143.37 64 164.57 64 186.92V399.3c0 73.41 39.4 112.7 88 112.7h184c8.84 0 16-7.16 16-16 0-17.67-14.33-32-32-32h-16.14c-.11-7.37-.78-14.63-1.85-21.81L384 393.95V480c0 17.67 14.33 32 32 32h64c17.67 0 32-14.33 32-32V270.2c38.07-22.2 64-63.03 64-110.19V48c0-18.95-11.16-36.13-28.47-43.85zM464 464h-32v-98.02c0-11.45-6.16-22.09-16.09-27.77-9.91-5.69-22.22-5.62-32.12.19l-96.35 56.68c-12.08-24.98-30.23-46.88-53.45-63.11-7.52-5.26-18.07-2.21-22.53 5.81l-7.44 13.39c-3.97 7.15-2.55 16.49 4.07 21.29 29.22 21.17 46.87 55.04 47.63 91.54H152c-22.06 0-40-17.94-40-40 0-99.28 71.25-182.16 169.44-197.03l53.57-8.12C356.4 259.74 398.75 288 448 288c5.48 0 10.7-.95 16-1.62V464zm64-304c0 44.18-35.82 80-80 80s-80-35.82-80-80V48l53.33 48h53.33L528 48v112zm-64-16c0 8.84 7.16 16 16 16s16-7.16 16-16-7.16-16-16-16-16 7.16-16 16z"/></svg>