<svg xmlns="http://www.w3.org/2000/svg" viewBox="0 0 448 512"><!-- Font Awesome Pro 5.15.4 by @fontawesome - https://fontawesome.com License - https://fontawesome.com/license (Commercial License) --><path d="M448 196v-24c0-6.63-6.27-12-14-12H14c-7.73 0-14 5.37-14 12v24c0 6.63 6.27 12 14 12h29.63C16.35 250.46 0 299.55 0 345.6c0 39.08 11.82 70.65 32 95.53V488c0 13.25 10.75 24 24 24s24-10.75 24-24v-7.49c38.95 21.3 89.14 31.49 144 31.49s105.05-10.19 144-31.49V488c0 13.25 10.75 24 24 24s24-10.75 24-24v-46.87c20.18-24.88 32-56.45 32-95.53 0-46.04-16.35-95.13-43.63-137.6H434c7.73 0 14-5.37 14-12zm-54.51 188H392c.49 0 .89.25 1.37.28C367.36 455.26 269.65 464 224 464s-143.36-8.74-169.37-79.72c.48-.03.88-.28 1.37-.28h-1.49C50.44 372.78 48 360.14 48 345.6c0-45.61 21.15-97.83 54.92-137.6h242.17C378.85 247.77 400 299.99 400 345.6c0 14.54-2.44 27.18-6.51 38.4zM160 64c17.67 0 32-14.33 32-32S177.67 0 160 0s-32 14.33-32 32 14.33 32 32 32zm112 64c26.51 0 48-21.49 48-48s-21.49-48-48-48-48 21.49-48 48 21.49 48 48 48z"/></svg>