<svg xmlns="http://www.w3.org/2000/svg" viewBox="0 0 448 512"><!-- Font Awesome Pro 5.15.4 by @fontawesome - https://fontawesome.com License - https://fontawesome.com/license (Commercial License) --><path d="M64 224v-64c0-17.67-14.33-32-32-32S0 142.33 0 160v64c0 17.67 14.33 32 32 32s32-14.33 32-32zm352-96c-17.67 0-32 14.33-32 32v64c0 17.67 14.33 32 32 32s32-14.33 32-32v-64c0-17.67-14.33-32-32-32zm-13.53 166.3c-7.34-22.03-27.46-36.75-50.47-37.88V64c0-35.35-28.65-64-64-64H160c-35.35 0-64 28.65-64 64v192.42c-23.01 1.12-43.13 15.84-50.43 37.84L34.85 326.3c-5.66 17.03-2.78 35.89 7.72 50.44C53.07 391.31 70.04 400 88.01 400H200v50.01c-31.93 4.97-57.99 19.43-69.85 38.56-6.41 10.34 2.41 23.43 15.02 23.43h157.66c12.61 0 21.44-13.09 15.02-23.43-11.86-19.13-37.92-33.59-69.85-38.56V400h112c17.97 0 34.94-8.69 45.45-23.27 10.5-14.55 13.38-33.41 7.69-50.47l-10.67-31.96zM144 64c0-8.82 7.18-16 16-16h128c8.82 0 16 7.18 16 16v192H144V64zm216 288H88.01c-5.42 0-9.33-5.28-7.62-10.52l10.72-32.03c1.06-3.27 4.12-5.45 7.56-5.45h250.67c3.44 0 6.5 2.19 7.6 5.48l10.66 31.97c1.77 5.35-2.26 10.55-7.6 10.55z"/></svg>