<svg xmlns="http://www.w3.org/2000/svg" viewBox="0 0 448 512"><!-- Font Awesome Pro 5.15.4 by @fontawesome - https://fontawesome.com License - https://fontawesome.com/license (Commercial License) --><path d="M445.13 326.27l-10.66-31.97c-7.33-22.02-27.44-36.74-50.44-37.87L384 128C384 57.31 326.69 0 256 0h-64C121.31 0 64 57.31 64 128l-.03 128.43c-23 1.13-43.11 15.85-50.41 37.84L2.85 326.3c-5.66 17.03-2.78 35.89 7.72 50.44 5.57 7.73 13.02 13.65 21.41 17.65L32 496c0 8.84 7.16 16 16 16h16c8.84 0 16-7.16 16-16v-96h288.04l-.04 96c0 8.84 7.16 16 16 16h16c8.84 0 16-7.16 16-16l.04-101.61c8.39-4 15.84-9.92 21.41-17.65 10.49-14.55 13.37-33.41 7.68-50.47zM296 59.13c23.8 13.88 40 39.39 40 68.87v128h-40V59.13zM200 48h48v208h-48V48zm-48 11.13V256h-40V128c0-29.48 16.2-54.99 40-68.87zM48.38 341.48l10.72-32.03c1.06-3.27 4.12-5.45 7.56-5.45h314.69c3.44 0 6.5 2.19 7.59 5.48l10.66 31.97c1.77 5.33-2.24 10.55-7.59 10.55H56c-5.42 0-9.33-5.28-7.62-10.52z"/></svg>