<svg xmlns="http://www.w3.org/2000/svg" viewBox="0 0 640 512"><!-- Font Awesome Pro 5.15.4 by @fontawesome - https://fontawesome.com License - https://fontawesome.com/license (Commercial License) --><path d="M226.79 342.02C199 342.02 192.02 352 160 352c-31.97 0-38.95-9.98-66.79-9.98C21.12 342.02 0 403 0 434.67V472c0 22.09 17.91 40 40 40h240c22.09 0 40-17.91 40-40v-37.33c0-42.72-30.58-92.65-93.21-92.65zM272 464H48v-29.33c0-14.01 8.15-44.65 45.21-44.65 17.24 0 29.56 9.98 66.79 9.98 37.37 0 49.49-9.98 66.79-9.98 37.02 0 45.21 30.58 45.21 44.65V464zM160 320c53.02 0 96-42.98 96-96s-42.98-96-96-96-96 42.98-96 96 42.98 96 96 96zm0-144c26.47 0 48 21.53 48 48s-21.53 48-48 48-48-21.53-48-48 21.53-48 48-48zM592 0H208c-26.47 0-48 22.25-48 49.59V96c9.69 0 32.27 3.13 48 9.52V48h384v320h-48v-48c0-17.67-14.33-32-32-32H384c-17.67 0-32 14.33-32 32v96h240c26.47 0 48-22.25 48-49.59V49.59C640 22.25 618.47 0 592 0zm-96 368h-96v-32h96v32z"/></svg>