<svg xmlns="http://www.w3.org/2000/svg" viewBox="0 0 512 512"><!-- Font Awesome Pro 5.15.4 by @fontawesome - https://fontawesome.com License - https://fontawesome.com/license (Commercial License) --><path d="M117.65 277.65c6.25 6.25 16.38 6.25 22.63 0L192 225.94l84.69 84.69c6.25 6.25 16.38 6.25 22.63 0L409.54 200.4l29.49 29.5c15.12 15.12 40.97 4.41 40.97-16.97V112c0-8.84-7.16-16-16-16H363.07c-21.38 0-32.09 25.85-16.97 40.97l29.5 29.49-87.6 87.6-84.69-84.69c-6.25-6.25-16.38-6.25-22.63 0l-74.34 74.34c-6.25 6.25-6.25 16.38 0 22.63l11.31 11.31zM496 400H48V80c0-8.84-7.16-16-16-16H16C7.16 64 0 71.16 0 80v336c0 17.67 14.33 32 32 32h464c8.84 0 16-7.16 16-16v-16c0-8.84-7.16-16-16-16z"/></svg>