<svg xmlns="http://www.w3.org/2000/svg" viewBox="0 0 576 512"><!-- Font Awesome Pro 5.15.4 by @fontawesome - https://fontawesome.com License - https://fontawesome.com/license (Commercial License) --><path d="M120.57 224h42.39l-8.78 54.77c-1.28 4.74 2.86 9.23 8.34 9.23 2.98 0 5.85-1.37 7.42-3.74l66.93-99.28c3.3-4.99-.82-11.26-7.42-11.26h-41.22l8.28-36.28c1.45-4.76-2.66-9.43-8.28-9.43h-48.57c-4.3 0-7.93 2.78-8.5 6.51l-19.1 81c-.67 4.49 3.33 8.48 8.51 8.48zM560 128h-16V80c0-8.84-7.16-16-16-16s-16 7.16-16 16v48h-32V80c0-8.84-7.16-16-16-16s-16 7.16-16 16v48h-16c-8.84 0-16 7.16-16 16v48c0 35.76 23.62 65.69 56 75.93V372c0 15.44-12.56 28-28 28s-28-12.56-28-28v-28c0-48.53-39.47-88-88-88h-8V48c0-26.51-21.49-48-48-48H80C53.49 0 32 21.49 32 48v416H8c-4.42 0-8 3.58-8 8v32c0 4.42 3.58 8 8 8h336c4.42 0 8-3.58 8-8v-32c0-4.42-3.58-8-8-8h-24V304h8c22.06 0 40 17.94 40 40v28c0 41.91 34.09 76 76 76s76-34.09 76-76V267.93c32.38-10.24 56-40.17 56-75.93v-48c0-8.84-7.16-16-16-16zM272 464H80V48h192v416zm256-272c0 17.64-14.36 32-32 32s-32-14.36-32-32v-16h64v16z"/></svg>