<svg xmlns="http://www.w3.org/2000/svg" viewBox="0 0 512 512"><!-- Font Awesome Pro 5.15.4 by @fontawesome - https://fontawesome.com License - https://fontawesome.com/license (Commercial License) --><path d="M180.69 246.62c6.25 6.25 16.38 6.25 22.63 0L288 161.94l87.6 87.6-29.5 29.49c-15.12 15.12-4.41 40.97 16.97 40.97H464c8.84 0 16-7.16 16-16V203.07c0-21.38-25.85-32.09-40.97-16.97l-29.49 29.5-110.23-110.22c-6.25-6.25-16.38-6.25-22.63 0L192 190.06l-51.72-51.72c-6.25-6.25-16.38-6.25-22.63 0l-11.31 11.31c-6.25 6.25-6.25 16.38 0 22.63l74.35 74.34zM496 400H48V80c0-8.84-7.16-16-16-16H16C7.16 64 0 71.16 0 80v336c0 17.67 14.33 32 32 32h464c8.84 0 16-7.16 16-16v-16c0-8.84-7.16-16-16-16z"/></svg>