<svg xmlns="http://www.w3.org/2000/svg" viewBox="0 0 512 512"><!-- Font Awesome Pro 5.15.4 by @fontawesome - https://fontawesome.com License - https://fontawesome.com/license (Commercial License) --><path d="M461.29 288H224V50.71c0-8.83-7.18-16.21-15.74-16.21-.7 0-1.4.05-2.11.15C87.08 51.47-3.96 155.43.13 280.07 4.2 404.1 107.91 507.8 231.93 511.87c2.69.09 5.39.13 8.07.13 121.04 0 220.89-89.66 237.35-206.16 1.33-9.45-6.52-17.84-16.06-17.84zM240 464c-2.15 0-4.33-.04-6.5-.11-98.98-3.25-182.15-86.42-185.4-185.4C45.31 193.22 98.36 118.35 176 91.14V336h244.78C394.15 411.06 322.06 464 240 464zM288.8.04c-.35-.03-.7-.04-1.04-.04C279.1 0 272 7.44 272 16.23V240h223.77c9.14 0 16.82-7.69 16.2-16.8C503.72 103.74 408.26 8.28 288.8.04z"/></svg>