<svg xmlns="http://www.w3.org/2000/svg" viewBox="0 0 256 512"><!-- Font Awesome Pro 5.15.4 by @fontawesome - https://fontawesome.com License - https://fontawesome.com/license (Commercial License) --><path d="M249.6 435.2L224 416v-24c0-12.1-9.1-21.68-20.74-23.34a460.24 460.24 0 0 1-3.2-48.66H208a16 16 0 0 0 16-16v-16a15.8 15.8 0 0 0-13.62-15.52C224 261.59 232 243.33 232 211.37c0-41.66-25.85-100.61-57.95-132.6C184.27 76 192 67.06 192 56a24.07 24.07 0 0 0-24-24H88a24.07 24.07 0 0 0-24 24c0 11.06 7.73 20 18 22.77-32.15 31.99-58 90.94-58 132.6 0 32 8 50.22 21.62 61.11A15.8 15.8 0 0 0 32 288v16a16 16 0 0 0 16 16h7.94a460.24 460.24 0 0 1-3.2 48.66C41.1 370.31 32 379.9 32 392v24L6.4 435.2A16 16 0 0 0 0 448v48a16 16 0 0 0 16 16h224a16 16 0 0 0 16-16v-48a16 16 0 0 0-6.4-12.8zM115.21 110.39a16.3 16.3 0 0 1 25.58 0 220.39 220.39 0 0 1 17.78 26.27L121 174.28a8 8 0 0 0 0 11.32l13.45 13.45a8 8 0 0 0 11.32 0l28.66-28.67c5.8 15.3 9.62 29.88 9.62 41v.55A49.85 49.85 0 0 1 169 247l-9 9v16H96v-16l-9-9a49.83 49.83 0 0 1-15-35.1v-.59c0-25.71 17.81-68.97 43.21-100.92zM154.9 368h-53.8c1.58-16 2.78-31.95 2.84-48h48.12c.06 16.05 1.26 32 2.84 48zM48 464l32-24v-24h96v24l32 24z"/></svg>