<svg xmlns="http://www.w3.org/2000/svg" viewBox="0 0 256 512"><!-- Font Awesome Pro 5.15.4 by @fontawesome - https://fontawesome.com License - https://fontawesome.com/license (Commercial License) --><path d="M223.67 416v-24c0-11.22-7.86-20.21-18.25-22.84-3.12-22.26-5.34-44.64-5.34-67.13V256h24a16 16 0 0 0 16-16v-16a16 16 0 0 0-16-16h-7.5l38.59-105a8.16 8.16 0 0 0-2.76-10.42l-12.15-8.11c-3.8-2.53-8.61-1.24-11.33 2.39-14 18.65-43.76 9-43.76-16.06a6.82 6.82 0 0 0-6.85-6.8h-19.71a6.6 6.6 0 0 0-6.54 5 24.4 24.4 0 0 1-47.76 0 6.59 6.59 0 0 0-6.54-5H78.06a6.82 6.82 0 0 0-6.82 6.82c0 25.32-30 34.55-43.83 16-2.44-3.28-7.21-5-11.23-2.31L4 92.6A8.16 8.16 0 0 0 1.24 103l38.59 105h-7.5a16 16 0 0 0-16 16v16a16 16 0 0 0 16 16h24v46c0 22.44-2.21 44.76-5.33 67-10.78 2.35-19 11.5-19 23v24L6.39 435.2A16 16 0 0 0 0 448v48a16 16 0 0 0 16 16h223.64a16 16 0 0 0 16-16v-48a16 16 0 0 0-6.39-12.8zM93.26 127.36a71.71 71.71 0 0 0 69.71.08 70.83 70.83 0 0 0 26.82 14.43L166.92 208H89.46l-22.89-66.19a71.44 71.44 0 0 0 26.69-14.45zM156.92 368H99.46c2.78-21.9 4.77-43.89 4.77-66v-46h47.92v46c0 22.11 1.99 44.1 4.77 66zm-109 96l31.95-24v-24h95.86v24l31.95 24zm80.27-408a28 28 0 1 0-28-28 28 28 0 0 0 28 28z"/></svg>