<svg xmlns="http://www.w3.org/2000/svg" viewBox="0 0 384 512"><!-- Font Awesome Pro 5.15.4 by @fontawesome - https://fontawesome.com License - https://fontawesome.com/license (Commercial License) --><path d="M44.05 320.68l14.41 6.41A113 113 0 0 0 32.07 400v32h48v-32a65.49 65.49 0 0 1 36.18-58.57L154.36 318a39.31 39.31 0 0 0 21.71-35.15v-58.78l-15.27 9.06a19.64 19.64 0 0 0-10.26 12.8L143 271a26.2 26.2 0 0 1-15.35 16.78L117.17 292a26.12 26.12 0 0 1-20.36-.38l-33.26-14.8A26.21 26.21 0 0 1 48 252.88V140.53a19.67 19.67 0 0 1 5.75-13.9l7.34-7.34L49.46 96A14 14 0 0 1 48 89.82 9.82 9.82 0 0 1 57.82 80h105.09c86.76 0 157 70.37 157 157.17V432h48V237.17C367.93 124 276 32 162.91 32H57.82A57.89 57.89 0 0 0 0 89.82a62.22 62.22 0 0 0 5.15 24.72 67.51 67.51 0 0 0-5.15 26v112.34a74.26 74.26 0 0 0 44.05 67.8zM80.07 164a20 20 0 1 0 20-20 20 20 0 0 0-20 20zM368 464H16a16 16 0 0 0-16 16v16a16 16 0 0 0 16 16h352a16 16 0 0 0 16-16v-16a16 16 0 0 0-16-16z"/></svg>