<svg xmlns="http://www.w3.org/2000/svg" viewBox="0 0 320 512"><!-- Font Awesome Pro 5.15.4 by @fontawesome - https://fontawesome.com License - https://fontawesome.com/license (Commercial License) --><path d="M281.6 435.2L256 416v-24a23.73 23.73 0 0 0-16.83-22.55c-3.83-25-6.41-50.14-6.41-75.42V256H240a16 16 0 0 0 16-16v-16a16 16 0 0 0-16-16h-3.1l26.92-80.41A24 24 0 0 0 241 96h-64.24V64h24a8 8 0 0 0 8-8V40a8 8 0 0 0-8-8h-24V8a8 8 0 0 0-8-8h-16a8 8 0 0 0-8 8v24h-24a8 8 0 0 0-8 8v16a8 8 0 0 0 8 8h24v32H80.5a24 24 0 0 0-22.78 31.59l27 80.41H80a16 16 0 0 0-16 16v16a16 16 0 0 0 16 16h8.76v38c0 25.17-2.56 50.23-6.36 75.1C71.93 371.71 64 380.73 64 392v24l-25.6 19.2A16 16 0 0 0 32 448v48a16 16 0 0 0 16 16h224a16 16 0 0 0 16-16v-48a16 16 0 0 0-6.4-12.8zM207.72 144l-21.52 64h-50.88l-21.5-64zm-17.29 224H131.1c3.37-24.53 5.66-49.2 5.66-74v-38h48v38c0 24.8 2.29 49.47 5.67 74zM80 464l32-24v-24h96v24l32 24z"/></svg>