<svg xmlns="http://www.w3.org/2000/svg" viewBox="0 0 448 512"><!-- Font Awesome Pro 5.15.4 by @fontawesome - https://fontawesome.com License - https://fontawesome.com/license (Commercial License) --><path d="M57.7 38.1l209.4 209.4c4.7 4.7 4.7 12.3 0 17L57.7 473.9c-4.7 4.7-12.3 4.7-17 0l-19.8-19.8c-4.7-4.7-4.7-12.3 0-17L201.6 256 20.9 74.9c-4.7-4.7-4.7-12.3 0-17l19.8-19.8c4.7-4.7 12.3-4.7 17 0zm143 0l-19.8 19.8c-4.7 4.7-4.7 12.3 0 17L361.6 256 180.9 437.1c-4.7 4.7-4.7 12.3 0 17l19.8 19.8c4.7 4.7 12.3 4.7 17 0l209.4-209.4c4.7-4.7 4.7-12.3 0-17L217.7 38.1c-4.7-4.7-12.3-4.7-17 0z"/></svg>