<svg xmlns="http://www.w3.org/2000/svg" viewBox="0 0 448 512"><!-- Font Awesome Pro 5.15.4 by @fontawesome - https://fontawesome.com License - https://fontawesome.com/license (Commercial License) --><path d="M410.947 101.089c-22.433-22.431-55.179-26.458-81.062-14.53C320.167 38.057 277.177 0 224 0c-53.179 0-96.168 38.06-105.885 86.559-25.929-11.95-58.664-7.866-81.06 14.527-28.074 28.075-28.074 73.752-.003 101.825L96 261.823V440c0 39.701 32.299 72 72 72h8c18.423 0 35.253-6.955 48-18.378C236.747 505.045 253.577 512 272 512h8c39.701 0 72-32.299 72-72V261.823l58.946-58.912c28.072-28.073 28.072-73.75.001-101.822zM224 48c33.137 0 60 26.863 60 60s-26.863 60-60 60-60-26.863-60-60 26.863-60 60-60zm152.971 120.971L304 241.941V440c0 13.255-10.745 24-24 24h-8c-13.255 0-24-10.745-24-24v-96h-48v96c0 13.255-10.745 24-24 24h-8c-13.255 0-24-10.745-24-24V241.941L71.029 168.97c-9.372-9.373-9.372-24.569 0-33.942 9.373-9.372 24.568-9.372 33.941 0L177.941 208h92.117l72.971-72.971c9.373-9.372 24.568-9.372 33.941 0 9.373 9.373 9.373 24.569.001 33.942z"/></svg>