<svg xmlns="http://www.w3.org/2000/svg" viewBox="0 0 576 512"><!-- Font Awesome Pro 5.15.4 by @fontawesome - https://fontawesome.com License - https://fontawesome.com/license (Commercial License) --><path d="M281.71 320.3c-33.27 3.17-57.71 33.02-57.71 66.45V496c0 8.84 7.16 16 16 16h96c8.84 0 16-7.16 16-16V384c0-37.42-32.12-67.34-70.29-63.7zm276.86 19.69L448 292.58v-34.46c0-11.24-5.9-21.66-15.54-27.44L312 158.4V112h60c6.63 0 12-5.37 12-12V76c0-6.63-5.37-12-12-12h-60V12c0-6.63-5.37-12-12-12h-24c-6.63 0-12 5.37-12 12v52h-60c-6.63 0-12 5.37-12 12v24c0 6.63 5.37 12 12 12h60v46.4l-120.46 72.28A31.997 31.997 0 0 0 128 258.12v34.47l-110.57 47.4C6.96 344.99 0 357.89 0 372.32v122.44C0 504.28 5.97 512 13.33 512H32c8.84 0 16-7.16 16-16V379.11l80-34.3V496c0 8.84 7.16 16 16 16h16c8.84 0 16-7.16 16-16V267.17l112-67.2 112 67.2V496c0 8.84 7.16 16 16 16h16c8.84 0 16-7.16 16-16V344.81l80 34.3V496c0 8.84 7.16 16 16 16h18.67c7.37 0 13.33-7.71 13.33-17.23V372.32c0-14.43-6.96-27.33-17.43-32.33z"/></svg>