<svg xmlns="http://www.w3.org/2000/svg" viewBox="0 0 640 512"><!-- Font Awesome Pro 5.15.4 by @fontawesome - https://fontawesome.com License - https://fontawesome.com/license (Commercial License) --><path d="M244 384h-40c-6.63 0-12 5.37-12 12v40c0 6.63 5.37 12 12 12h40c6.63 0 12-5.37 12-12v-40c0-6.63-5.37-12-12-12zm0-192h-40c-6.63 0-12 5.37-12 12v40c0 6.63 5.37 12 12 12h40c6.63 0 12-5.37 12-12v-40c0-6.63-5.37-12-12-12zm-96 0h-40c-6.63 0-12 5.37-12 12v40c0 6.63 5.37 12 12 12h40c6.63 0 12-5.37 12-12v-40c0-6.63-5.37-12-12-12zm0 192h-40c-6.63 0-12 5.37-12 12v40c0 6.63 5.37 12 12 12h40c6.63 0 12-5.37 12-12v-40c0-6.63-5.37-12-12-12zm0-96h-40c-6.63 0-12 5.37-12 12v40c0 6.63 5.37 12 12 12h40c6.63 0 12-5.37 12-12v-40c0-6.63-5.37-12-12-12zm96 0h-40c-6.63 0-12 5.37-12 12v40c0 6.63 5.37 12 12 12h40c6.63 0 12-5.37 12-12v-40c0-6.63-5.37-12-12-12zm288 96h-40c-6.63 0-12 5.37-12 12v40c0 6.63 5.37 12 12 12h40c6.63 0 12-5.37 12-12v-40c0-6.63-5.37-12-12-12zm0-96h-40c-6.63 0-12 5.37-12 12v40c0 6.63 5.37 12 12 12h40c6.63 0 12-5.37 12-12v-40c0-6.63-5.37-12-12-12zm84-96H512V24c0-13.26-10.74-24-24-24H280c-13.26 0-24 10.74-24 24v72h-32V16c0-8.84-7.16-16-16-16h-16c-8.84 0-16 7.16-16 16v80h-64V16c0-8.84-7.16-16-16-16H80c-8.84 0-16 7.16-16 16v80H24c-13.26 0-24 10.74-24 24v376c0 8.84 7.16 16 16 16h16c8.84 0 16-7.16 16-16V144h256V48h160v192h128v256c0 8.84 7.16 16 16 16h16c8.84 0 16-7.16 16-16V216c0-13.26-10.75-24-24-24zM404 96h-40c-6.63 0-12 5.37-12 12v40c0 6.63 5.37 12 12 12h40c6.63 0 12-5.37 12-12v-40c0-6.63-5.37-12-12-12zm0 192h-40c-6.63 0-12 5.37-12 12v40c0 6.63 5.37 12 12 12h40c6.63 0 12-5.37 12-12v-40c0-6.63-5.37-12-12-12zm0-96h-40c-6.63 0-12 5.37-12 12v40c0 6.63 5.37 12 12 12h40c6.63 0 12-5.37 12-12v-40c0-6.63-5.37-12-12-12z"/></svg>