<svg xmlns="http://www.w3.org/2000/svg" viewBox="0 0 640 512"><!-- Font Awesome Pro 5.15.4 by @fontawesome - https://fontawesome.com License - https://fontawesome.com/license (Commercial License) --><path d="M616 112a23.7 23.7 0 0 0-13.28 4l-66 44H480v-32h24a8 8 0 0 0 8-8v-16a8 8 0 0 0-8-8H232a8 8 0 0 0-8 8v16a8 8 0 0 0 8 8h24v32H101.2a31.92 31.92 0 0 0-10.12 1.64l-69.2 23.07A32 32 0 0 0 0 215.06v81.88a32 32 0 0 0 21.88 30.35l69.2 23.07A31.92 31.92 0 0 0 101.2 352h435.53l66 44A24 24 0 0 0 640 376V136a24 24 0 0 0-24-24zm-232 16h64v32h-64zm-96 0h64v32h-64zm304 203.15L551.27 304H103.79L48 285.4v-58.8l55.79-18.6h447.48L592 180.84zM464 232a24 24 0 1 0 24 24 24 24 0 0 0-24-24zm-96 0a24 24 0 1 0 24 24 24 24 0 0 0-24-24zm-96 0a24 24 0 1 0 24 24 24 24 0 0 0-24-24z"/></svg>