<svg xmlns="http://www.w3.org/2000/svg" viewBox="0 0 512 512"><!-- Font Awesome Pro 5.15.4 by @fontawesome - https://fontawesome.com License - https://fontawesome.com/license (Commercial License) --><path d="M7.11 224.51c-4.99-2.37-9.39 4.09-5.49 8l85.11 85.13c6 6 9.37 14.14 9.37 22.63V384h43.73c8.49 0 16.62 3.37 22.62 9.37l117.13 117.16c3.86 3.86 10.31-.56 7.98-5.49C206.47 333.11 63.46 251.26 7.11 224.51zM246.69 29.63c6 6 9.37 14.14 9.37 22.63V96h43.73c8.49 0 16.62 3.37 22.62 9.37l52.25 52.26c6 6 9.37 14.14 9.37 22.63V224h43.72c8.49 0 16.62 3.37 22.62 9.37l53.14 53.16c3.86 3.86 10.31-.56 7.98-5.49C430.42 109.11 287.41 27.26 231.05.51c-4.99-2.37-9.39 4.09-5.49 8l21.13 21.12zm262.25 436.9l-1.44-3.03C453.42 347.77 321.51 134.06 45.64 3.14 31.74-3.47 15.02.89 6.06 13.53-2.97 26.3-1.51 43.59 7.8 52.74l144.28 179.7V296h62.05l65.92 65.94V424h64.42l114.97 80.47a31.741 31.741 0 0 0 20.5 7.48c6.44 0 12.87-1.92 18.46-5.86 12.69-8.93 17.13-25.56 10.54-39.56zM359.6 376h-31.56v-33.94L234 248h-33.93v-32.44L92.85 82.16C277.03 188.93 382.78 335.35 435.9 429.43L359.6 376z"/></svg>