<svg xmlns="http://www.w3.org/2000/svg" viewBox="0 0 512 512"><!-- Font Awesome Pro 5.15.4 by @fontawesome - https://fontawesome.com License - https://fontawesome.com/license (Commercial License) --><path d="M410.7 104.2C397.2 61.8 358 32 312 32c-13.5 0-26.8 2.6-39.2 7.7C250.3 14.5 218.4 0 184 0 120 0 67.6 50.3 64.2 113.4 25.6 130.4 0 168.5 0 212c0 59.5 48.4 108 108 108h296c59.6 0 108-48.5 108-108 0-57.3-44.9-104.3-101.3-107.8zM404 272H108c-33.1 0-60-26.9-60-60 0-28 19.1-52 46.4-58.3l20.8-4.8-2.8-24.9c-.2-1.3-.4-2.6-.4-4 0-39.7 32.3-72 72-72 25.2 0 48.2 13.1 61.4 35.1l13.3 22.1 21.1-14.9C289.4 83.6 300.5 80 312 80c28.6 0 52.4 21.7 55.3 50.4l2.2 21.6H404c33.1 0 60 26.9 60 60s-26.9 60-60 60zM87.2 369.7c-7.9-3.9-17.5-.8-21.5 7.2l-16 32c-3.9 7.9-.8 17.5 7.2 21.5 2.3 1.1 4.8 1.7 7.2 1.7 5.8 0 11.5-3.2 14.3-8.8l16-32c3.8-8.1.7-17.7-7.2-21.6zm384 0c-7.9-3.9-17.5-.8-21.5 7.2l-16 32c-3.9 7.9-.8 17.5 7.2 21.5 2.3 1.1 4.8 1.7 7.2 1.7 5.8 0 11.5-3.2 14.3-8.8l16-32c3.8-8.1.7-17.7-7.2-21.6zm-95.3.4c-7.6-4.4-17.4-1.8-21.8 6l-64 112c-4.4 7.7-1.7 17.5 6 21.8 2.5 1.4 5.2 2.1 7.9 2.1 5.5 0 10.9-2.9 13.9-8.1l64-112c4.4-7.6 1.7-17.4-6-21.8zm-96.7-.4c-7.9-3.9-17.5-.8-21.5 7.2l-16 32c-3.9 7.9-.8 17.5 7.2 21.5 2.3 1.1 4.8 1.7 7.2 1.7 5.8 0 11.5-3.2 14.3-8.8l16-32c3.8-8.1.7-17.7-7.2-21.6zm-95.3.4c-7.6-4.4-17.4-1.8-21.8 6l-64 112c-4.4 7.7-1.7 17.5 6 21.8 2.5 1.4 5.2 2.1 7.9 2.1 5.5 0 10.9-2.9 13.9-8.1l64-112c4.4-7.6 1.7-17.4-6-21.8zM32 448c-17.7 0-32 14.3-32 32s14.3 32 32 32 32-14.3 32-32-14.3-32-32-32zm192 0c-17.7 0-32 14.3-32 32s14.3 32 32 32 32-14.3 32-32-14.3-32-32-32zm192 0c-17.7 0-32 14.3-32 32s14.3 32 32 32 32-14.3 32-32-14.3-32-32-32z"/></svg>