<svg xmlns="http://www.w3.org/2000/svg" viewBox="0 0 640 512"><!-- Font Awesome Pro 5.15.4 by @fontawesome - https://fontawesome.com License - https://fontawesome.com/license (Commercial License) --><path d="M582.8 296.4C575.3 246.4 532 208 480 208c-5.1 0-10.2.4-15.2 1.1C440.5 188 409.2 176 376 176c-64 0-118.3 45.2-132.4 105.3C211.6 305.1 192 343 192 384c0 70.6 57.4 128 128 128h204c64 0 116-52 116-116 0-41.8-22.8-79.3-57.2-99.6zM524 464H320c-44.2 0-80-35.8-80-80 0-32.8 19.8-61 48.1-73.3.7-48 39.7-86.7 87.9-86.7 31.2 0 58.4 16.3 74.1 40.8 8.7-5.5 18.9-8.8 29.9-8.8 30.9 0 56 25.1 56 56 0 5.9-1.2 11.5-2.9 16.9 33.2 4.5 58.9 32.6 58.9 67.1 0 37.6-30.4 68-68 68zM106.5 341.3l8.5-43.9 6-31.1-26.2-17.8-37-25.1 37-25.1 26.2-17.8-6-31.1-8.5-43.9 43.7 8.5 31.2 6 17.8-26.3L224 57v1l24.9 36.9 17.8 26.3 31.2-6 43.6-8.5-8.4 43.6c13.9-3.8 28.2-6.3 42.9-6.3 2.4 0 4.7.5 7 .6l9.1-47c2.2-11.6-1.4-23.5-9.7-31.8-6.7-6.7-15.6-10.4-25-10.4-2.2 0-4.5.2-6.8.6l-62 12-35.4-52.4C246.7 5.8 235.8 0 224 0c-11.4 0-22.7 4.9-29.3 14.7l-35.4 52.4-62-12c-2.3-.4-4.5-.7-6.8-.7-9.3 0-18.3 3.7-25 10.4-8.3 8.4-11.9 20.2-9.7 31.8l12 62.1-52.3 35.5C5.8 200.8 0 211.8 0 223.5c0 11.8 5.8 22.7 15.6 29.3l52.3 35.4-12 62.1c-2.2 11.6 1.4 23.5 9.7 31.8 6.7 6.7 15.6 10.4 25 10.4 2.2 0 4.5-.2 6.8-.6l62-12 .8 1.3c.3-18 3.8-35.6 9.9-52.2l-19.8 3.8-43.8 8.5zm109.2-79c-18-3.9-31.7-19.2-31.7-38.3 0-22.1 17.9-40 40-40 12 0 22.4 5.5 29.7 13.9 11-11.8 23.7-21.7 37.5-29.9-16.1-19.4-40.1-32-67.2-32-48.5 0-88 39.5-88 88 0 33.7 19.2 62.7 47.1 77.5 8.7-14.4 19.5-27.4 32.4-38.5.1-.3.2-.5.2-.7z"/></svg>