<svg xmlns="http://www.w3.org/2000/svg" viewBox="0 0 640 512"><!-- Font Awesome Pro 5.15.4 by @fontawesome - https://fontawesome.com License - https://fontawesome.com/license (Commercial License) --><path d="M543.7 200.1C539.7 142.1 491.4 96 432 96c-7.6 0-15.1.8-22.4 2.3C377.7 58.3 328.1 32 272 32c-84.6 0-155.5 59.7-172.3 139.8C39.9 196.1 0 254.4 0 320c0 88.4 71.6 160 160 160h336c79.5 0 144-64.5 144-144 0-61.8-39.2-115.8-96.3-135.9zM496 432H160c-61.9 0-112-50.1-112-112 0-56.4 41.7-103.1 96-110.9V208c0-70.7 57.3-128 128-128 53.5 0 99.3 32.8 118.4 79.4 11.2-9.6 25.7-15.4 41.6-15.4 35.3 0 64 28.7 64 64 0 11.8-3.2 22.9-8.8 32.4 2.9-.3 5.9-.4 8.8-.4 53 0 96 43 96 96s-43 96-96 96zM383.6 255.6c-4.7-4.7-12.4-4.7-17.1.1L312 311.5V172c0-6.6-5.4-12-12-12h-24c-6.6 0-12 5.4-12 12v139.5l-54.5-55.8c-4.7-4.8-12.3-4.8-17.1-.1l-16.9 16.9c-4.7 4.7-4.7 12.3 0 17l104 104c4.7 4.7 12.3 4.7 17 0l104-104c4.7-4.7 4.7-12.3 0-17l-16.9-16.9z"/></svg>