<svg xmlns="http://www.w3.org/2000/svg" viewBox="0 0 576 512"><!-- Font Awesome Pro 5.15.4 by @fontawesome - https://fontawesome.com License - https://fontawesome.com/license (Commercial License) --><path d="M384.5 375.6l-16.7-8.7 5.7-18c6.1-19.2-7.5-35.9-25.3-35.9-6 0-8.5 1.2-27.1 7.1l-8.7-16.7c-10.8-20.7-38.1-20.6-48.8 0l-8.7 16.7c-17.7-5.6-20.8-7.1-27.1-7.1-17.8 0-31.4 16.7-25.3 35.9l5.7 18-16.7 8.7c-20.5 10.7-20.8 38 0 48.8l16.7 8.7-5.7 18c-6.3 19.9 8.6 36.4 26.1 36.4 3.7 0 12.5-3.2 26.3-7.6l8.7 16.7c10.8 20.7 38.1 20.6 48.8 0l8.7-16.7c13.9 4.4 22.6 7.6 26.3 7.6 17.6 0 32.4-16.4 26.1-36.4l-5.7-18 16.7-8.7c20.7-10.8 20.6-38.1 0-48.8zM576 256c0-59.2-41.5-110.1-97.6-123.8C468.9 75.4 419.4 32 360 32c-12.8 0-25.6 2.2-38 6.5C293.6 13.5 258 0 220 0 137.7 0 70.1 64.1 64.4 145 24.8 167.6 0 209.6 0 256c0 70.6 57.4 128 128 128h18.5c3.8-13.1 12-24.8 23.7-32.8-1-5.1-1.1-10.2-.8-15.2H128c-44.1 0-80-35.9-80-80 0-32.5 19.4-61.5 49.6-73.9l15.6-6.4-.8-16.9c-.1-1.4-.2-2.8-.4-2.8 0-59.5 48.4-108 108-108 30.1 0 58.2 12.4 79.1 35l12.3 13.3 16.2-8.2c49-24.9 103.5 12.6 104.4 62.5l-2.8 24.1 24.9 1.9c41.5 3.2 73.9 38 73.9 79.3 0 44.1-35.9 80-80 80h-41.4c.3 5 .2 10.1-.7 15.2 11.7 8 19.9 19.7 23.7 32.8H448c70.6.1 128-57.3 128-127.9zM64 416c-17.7 0-32 14.3-32 32s14.3 32 32 32 32-14.3 32-32-14.3-32-32-32zm448 0c-17.7 0-32 14.3-32 32s14.3 32 32 32 32-14.3 32-32-14.3-32-32-32z"/></svg>