<svg xmlns="http://www.w3.org/2000/svg" viewBox="0 0 640 512"><!-- Font Awesome Pro 5.15.4 by @fontawesome - https://fontawesome.com License - https://fontawesome.com/license (Commercial License) --><path d="M268.5 418.1c-7.6-4.3-17.4-1.8-21.8 6l-36.6 64c-4.4 7.7-1.7 17.4 6 21.8 2.5 1.4 5.2 2.1 7.9 2.1 5.5 0 10.9-2.9 13.9-8.1l36.6-64c4.3-7.7 1.7-17.4-6-21.8zm-96 0c-7.6-4.3-17.4-1.8-21.8 6l-36.6 64c-4.4 7.7-1.7 17.4 6 21.8 2.5 1.4 5.2 2.1 7.9 2.1 5.5 0 10.9-2.9 13.9-8.1l36.6-64c4.3-7.7 1.7-17.4-6-21.8zm-96 0c-7.6-4.3-17.4-1.8-21.8 6l-36.6 64c-4.4 7.7-1.7 17.4 6 21.8 2.5 1.4 5.2 2.1 7.9 2.1 5.5 0 10.9-2.9 13.9-8.1l36.6-64c4.3-7.7 1.7-17.4-6-21.8zm288 0c-7.6-4.3-17.4-1.8-21.8 6l-36.6 64c-4.4 7.7-1.7 17.4 6 21.8 2.5 1.4 5.2 2.1 7.9 2.1 5.5 0 10.9-2.9 13.9-8.1l36.6-64c4.3-7.7 1.7-17.4-6-21.8zm-1.1-234.7c-12-36.8-46.7-63.4-87.4-63.4-3.1 0-6.1.2-9.1.5C245.3 104.7 219.2 96 192 96c-52.4 0-97.6 31.3-117.2 77.2C31.4 187.3 0 228 0 276c0 59.6 48.4 108 108 108h200c59.6 0 108-48.4 108-108 0-38.8-20.8-73.6-52.6-92.6zM308 336H108c-33.1 0-60-26.9-60-60s26.9-60 60-60c1.6 0 3.2.4 4.8.5 3.8-40.6 37.6-72.5 79.2-72.5 25.2 0 47.4 11.9 62.1 30.1 6.5-3.8 13.9-6.1 21.9-6.1 24.3 0 44 19.7 44 44 0 1.8-.3 3.4-.5 5.2 27.6 5.4 48.5 29.6 48.5 58.8 0 33.1-26.9 60-60 60zm329.8-99.3c-3.8-7.9-11.8-13-20.5-13h-1.5l-2.8.4c-6.1 1.2-12.3 1.8-18.4 1.8-53.2 0-96.5-43.4-96.5-96.8 0-34.7 18.8-67 49-84.2 8.4-4.8 12.8-14 11.2-23.6-1.6-9.5-8.8-16.8-18.3-18.6C530.3.9 520.5 0 510.7 0c-73.6 0-135.1 50.3-153.6 118.2 13.8 11.9 25 26.8 32.6 44.1.6.4 1 .9 1.6 1.3 0-1.2-.4-2.4-.4-3.6 0-58.9 42.6-108 98.6-118.1-19.9 24.2-31.3 54.9-31.3 87.1 0 67.4 48.8 123.5 112.9 134.8-18 10.5-38.7 16.2-60.2 16.2-23.4 0-45.1-7-63.6-18.7.5 4.9.9 9.8.9 14.7 0 10.1-1.3 19.8-3.3 29.3 20.2 9.2 42.4 14.7 66.1 14.7 48.4 0 93.6-21.6 124.2-59.2 5.3-6.9 6.4-16.1 2.6-24.1z"/></svg>