<svg xmlns="http://www.w3.org/2000/svg" viewBox="0 0 640 512"><!-- Font Awesome Pro 5.15.4 by @fontawesome - https://fontawesome.com License - https://fontawesome.com/license (Commercial License) --><path d="M588.5 418.1c-7.6-4.3-17.4-1.8-21.8 6l-36.6 64c-4.4 7.7-1.7 17.4 6 21.8 2.5 1.4 5.2 2.1 7.9 2.1 5.5 0 10.9-2.9 13.9-8.1l36.6-64c4.3-7.7 1.7-17.4-6-21.8zm-96 0c-7.6-4.3-17.4-1.8-21.8 6l-36.6 64c-4.4 7.7-1.7 17.4 6 21.8 2.5 1.4 5.2 2.1 7.9 2.1 5.5 0 10.9-2.9 13.9-8.1l36.6-64c4.3-7.7 1.7-17.4-6-21.8zm-96 0c-7.6-4.3-17.4-1.8-21.8 6l-36.6 64c-4.4 7.7-1.7 17.4 6 21.8 2.5 1.4 5.2 2.1 7.9 2.1 5.5 0 10.9-2.9 13.9-8.1l36.6-64c4.3-7.7 1.7-17.4-6-21.8zm-96 0c-7.6-4.3-17.4-1.8-21.8 6l-36.6 64c-4.4 7.7-1.7 17.4 6 21.8 2.5 1.4 5.2 2.1 7.9 2.1 5.5 0 10.9-2.9 13.9-8.1l36.6-64c4.3-7.7 1.7-17.4-6-21.8zm286.9-234.7c-12-36.8-46.7-63.4-87.4-63.4-3.1 0-6.1.2-9.1.5C469.3 104.7 443.2 96 416 96c-52.4 0-97.6 31.3-117.2 77.2C255.4 187.3 224 228 224 276c0 59.6 48.4 108 108 108h200c59.6 0 108-48.4 108-108 0-38.8-20.8-73.6-52.6-92.6zM532 336H332c-33.1 0-60-26.9-60-60s26.9-60 60-60c1.6 0 3.2.4 4.8.5 3.8-40.6 37.6-72.5 79.2-72.5 25.2 0 47.4 11.9 62.1 30.1 6.5-3.8 13.9-6.1 21.9-6.1 24.3 0 44 19.7 44 44 0 1.8-.3 3.4-.5 5.2 27.6 5.4 48.5 29.6 48.5 58.8 0 33.1-26.9 60-60 60zm-339.1-72.3l-5.9 8.7-10.8 16-11.2-16.7-17.8-26.3-31.2 6-19.4 3.8 3.8-19.6 6-31.1-26.2-17.8-16.5-11.2 16.5-11.2 26.2-17.8-6-31.1-3.8-19.5 19.4 3.8 31.2 6L165 79.5l10.8-16L187 80.3l17.8 26.3 31.2-6 19.4-3.7-3.8 19.6-6 31.1 13.5 9.2c5.3-3.2 10.7-6.2 16.4-8.7 7-13 15.7-24.8 25.7-35.2l7-36.1c1.8-9.1-1.1-18.4-7.6-25-5.2-5.3-12.3-8.2-19.6-8.2-1.8 0-3.6.2-5.3.5L227 53.5l-28-41.3C193.9 4.6 185.2 0 176 0c-8.9 0-17.9 3.8-23 11.5l-27.8 41.2-48.7-9.4c-1.8-.3-3.6-.5-5.3-.5-7.3 0-14.3 2.9-19.6 8.2-6.5 6.6-9.4 15.9-7.6 25l9.4 48.8-41.1 27.9C4.6 157.8 0 166.4 0 175.6s4.6 17.9 12.2 23.1l41.1 27.8-9.4 48.8c-1.8 9.1 1.1 18.4 7.6 25 5.2 5.3 12.3 8.2 19.6 8.2 1.8 0 3.6-.2 5.3-.5l48.7-9.4 27.8 41.2c5.2 7.7 13.8 12.3 23 12.3 8.9 0 17.9-3.8 23-11.5l5.2-7.8c-7.8-17.4-12.3-36.5-12.3-56.7.2-4.3.7-8.3 1.1-12.4zM176 136c-22.1 0-40 17.9-40 40s17.9 40 40 40 40-17.9 40-40-17.9-40-40-40z"/></svg>