<svg xmlns="http://www.w3.org/2000/svg" viewBox="0 0 640 512"><!-- Font Awesome Pro 5.15.4 by @fontawesome - https://fontawesome.com License - https://fontawesome.com/license (Commercial License) --><path d="M390.8 296.4C383.3 246.4 340 208 288 208c-5.1 0-10.2.4-15.2 1.1C248.5 188 217.2 176 184 176c-64 0-118.3 45.2-132.4 105.3C19.6 305.1 0 343 0 384c0 70.6 57.4 128 128 128h204c64 0 116-52 116-116 0-41.8-22.8-79.3-57.2-99.6zM332 464H128c-44.2 0-80-35.8-80-80 0-32.8 19.8-61 48.1-73.3.7-48 39.7-86.7 87.9-86.7 31.2 0 58.4 16.3 74.1 40.8 8.7-5.5 18.9-8.8 29.9-8.8 30.9 0 56 25.1 56 56 0 5.9-1.2 11.5-2.9 16.9 33.2 4.5 58.9 32.6 58.9 67.1 0 37.6-30.5 68-68 68zm305.6-176.8c-4.1-8.6-12.4-13.9-21.8-13.9-1.5 0-3 .1-4.6.4-7.7 1.5-15.5 2.2-23.2 2.2-67 0-121.5-54.7-121.5-121.9 0-43.7 23.6-84.3 61.6-106 8.9-5.1 13.6-15 11.9-25.1-1.7-10.2-9.4-17.9-19.5-19.8-11.5-2-23.2-3.1-35-3.1-100.5 0-183.1 77.9-191 176.6 16.8.8 32.8 4.8 47.6 11.3 1.9-66.3 48.5-121.6 110.8-136.1-21.9 29.1-34.4 64.9-34.4 102.4 0 81.1 57 149.1 132.9 165.9-20.1 10.4-42.6 16-65.9 16-6.7 0-13.1-1.1-19.6-2 7.3 15.5 11.8 32.3 13.3 49.7 2.1.1 4.2.3 6.3.3 58.1 0 112.4-25.9 149-71.1 6-7.4 7.2-17.3 3.1-25.8z"/></svg>