<svg xmlns="http://www.w3.org/2000/svg" viewBox="0 0 512 512"><!-- Font Awesome Pro 5.15.4 by @fontawesome - https://fontawesome.com License - https://fontawesome.com/license (Commercial License) --><path d="M48 368c-8.8 0-16 7.2-16 16v80c0 8.8 7.2 16 16 16s16-7.2 16-16v-80c0-8.8-7.2-16-16-16zm96 32c-8.8 0-16 7.2-16 16v80c0 8.8 7.2 16 16 16s16-7.2 16-16v-80c0-8.8-7.2-16-16-16zm96-32c-8.8 0-16 7.2-16 16v80c0 8.8 7.2 16 16 16s16-7.2 16-16v-80c0-8.8-7.2-16-16-16zm96 32c-8.8 0-16 7.2-16 16v80c0 8.8 7.2 16 16 16s16-7.2 16-16v-80c0-8.8-7.2-16-16-16zm96-32c-8.8 0-16 7.2-16 16v80c0 8.8 7.2 16 16 16s16-7.2 16-16v-80c0-8.8-7.2-16-16-16zm-21.3-263.8C397.2 61.8 358 32 312 32c-13.5 0-26.8 2.6-39.2 7.7C250.3 14.5 218.4 0 184 0 120 0 67.6 50.3 64.2 113.4 25.6 130.4 0 168.5 0 212c0 59.5 48.4 108 108 108h296c59.6 0 108-48.5 108-108 0-57.3-44.9-104.3-101.3-107.8zM404 272H108c-33.1 0-60-26.9-60-60 0-28 19.1-52 46.4-58.3l20.8-4.8-2.8-24.9c-.2-1.3-.4-2.6-.4-4 0-39.7 32.3-72 72-72 25.2 0 48.2 13.1 61.4 35.1l13.3 22.1 21.1-14.9C289.4 83.6 300.5 80 312 80c28.6 0 52.4 21.7 55.3 50.4l2.2 21.6H404c33.1 0 60 26.9 60 60s-26.9 60-60 60z"/></svg>