<svg xmlns="http://www.w3.org/2000/svg" viewBox="0 0 384 512"><!-- Font Awesome Pro 5.15.4 by @fontawesome - https://fontawesome.com License - https://fontawesome.com/license (Commercial License) --><path d="M374.44,115.19,266.7,9.37a32.89,32.89,0,0,0-23-9.37H140.32a32.89,32.89,0,0,0-23,9.37L9.54,115.19A31.61,31.61,0,0,0,1,145.58L88.08,487.76A32.47,32.47,0,0,0,119.69,512H264.31a32.48,32.48,0,0,0,31.61-24.24L383,145.58a31.65,31.65,0,0,0-8.59-30.39ZM252.43,464H131.55L49.81,142.91,146.45,48h91.08l96.64,94.91Z"/></svg>