<svg xmlns="http://www.w3.org/2000/svg" viewBox="0 0 640 512"><!-- Font Awesome Pro 5.15.4 by @fontawesome - https://fontawesome.com License - https://fontawesome.com/license (Commercial License) --><path d="M512 32H112c-8.8 0-16 7.2-16 16v256c0 44.2 35.8 80 80 80h224c44.2 0 80-35.8 80-80v-16h32c70.6 0 128-57.4 128-128S582.6 32 512 32zm-80 272c0 17.6-14.4 32-32 32H176c-17.6 0-32-14.4-32-32V80h288v224zm80-64h-32V80h32c44.1 0 80 35.9 80 80s-35.9 80-80 80zm55.8 240H40.2c-37.3 0-50.2-48-32-48h591.7c18.1 0 5.2 48-32.1 48z"/></svg>