<svg xmlns="http://www.w3.org/2000/svg" viewBox="0 0 384 512"><!-- Font Awesome Pro 5.15.4 by @fontawesome - https://fontawesome.com License - https://fontawesome.com/license (Commercial License) --><path d="M374.45 115.19L266.71 9.37c-6.11-6-14.4-9.37-23.04-9.37H140.33c-8.64 0-16.93 3.37-23.04 9.37L9.55 115.19C1.46 123.14-1.8 134.67.98 145.58l87.11 342.18C91.71 502.01 104.75 512 119.7 512h144.62c14.95 0 27.98-9.99 31.61-24.24l87.11-342.18c2.76-10.91-.49-22.44-8.59-30.39zM252.44 464H131.56L49.82 142.91 146.46 48h91.08l96.64 94.91L252.44 464zM216 112c0-8.84-7.16-16-16-16h-16c-8.84 0-16 7.16-16 16v48h-56c-8.84 0-16 7.16-16 16v16c0 8.84 7.16 16 16 16h56v128c0 8.84 7.16 16 16 16h16c8.84 0 16-7.16 16-16V208h56c8.84 0 16-7.16 16-16v-16c0-8.84-7.16-16-16-16h-56v-48z"/></svg>