<svg xmlns="http://www.w3.org/2000/svg" viewBox="0 0 512 512"><!-- Font Awesome Pro 5.15.4 by @fontawesome - https://fontawesome.com License - https://fontawesome.com/license (Commercial License) --><path d="M320 0C214 0 128 35.8 128 80v52.6C53.5 143.6 0 173.2 0 208v224c0 44.2 86 80 192 80s192-35.8 192-80v-52.7c74.5-11 128-40.5 128-75.3V80c0-44.2-86-80-192-80zm16 428.3C326 440 275.6 464 192 464S58 440 48 428.3v-39.5c35.2 16.6 86.6 27.2 144 27.2s108.8-10.6 144-27.2v39.5zm0-96C326 344 275.6 368 192 368S58 344 48 332.3v-44.9c35.2 20 86.6 32.6 144 32.6s108.8-12.7 144-32.6v44.9zM192 272c-79.5 0-144-21.5-144-48s64.5-48 144-48 144 21.5 144 48-64.5 48-144 48zm272 28.3c-7.1 8.3-34.9 22.6-80 30.4V283c31-4.6 58.7-12.1 80-22.2v39.5zm0-96c-7.1 8.3-34.9 22.6-80 30.4V208c0-7.2-2.5-14.2-6.8-20.9 33.8-5.3 64-14.8 86.8-27.8v45zM320 144c-5 0-9.8-.3-14.7-.5-26-7.9-56.8-13.2-90.4-14.9C191 120 176 108.6 176 96c0-26.5 64.5-48 144-48s144 21.5 144 48-64.5 48-144 48z"/></svg>