<svg xmlns="http://www.w3.org/2000/svg" viewBox="0 0 512 512"><!-- Font Awesome Pro 5.15.4 by @fontawesome - https://fontawesome.com License - https://fontawesome.com/license (Commercial License) --><path d="M256 64C114.67 64 0 128.44 0 208v112c0 70.72 114.67 128 256 128s256-57.28 256-128V208c0-79.56-114.67-144-256-144zM88 363.37C62.42 349.16 48 333.2 48 320v-28.27a226 226 0 0 0 40 24.75zm96 30.88a348.83 348.83 0 0 1-64-16.32v-48.09a373.73 373.73 0 0 0 64 16.28zm112 4c-12.81 1.1-26.1 1.78-40 1.78s-27.19-.68-40-1.78v-48.18c13.07 1.16 26.36 1.93 40 1.93s26.93-.77 40-1.93zm96-20.29a348.83 348.83 0 0 1-64 16.32v-48.16a373.73 373.73 0 0 0 64-16.28zM464 320c0 13.2-14.42 29.16-40 43.37v-46.89a226 226 0 0 0 40-24.75zm-208-16c-119 0-208-50.68-208-96s89-96 208-96 208 50.68 208 96-88.95 96-208 96z"/></svg>