<svg xmlns="http://www.w3.org/2000/svg" viewBox="0 0 576 512"><!-- Font Awesome Pro 5.15.4 by @fontawesome - https://fontawesome.com License - https://fontawesome.com/license (Commercial License) --><path d="M512 160h-96V64c0-35.35-28.65-64-64-64H64C28.65 0 0 28.65 0 64v208c0 35.35 28.65 64 64 64h32v51.98c0 7.1 5.83 12.02 12.05 12.02 2.41 0 4.87-.74 7.08-2.37L192 354.12V384c0 35.35 28.65 64 64 64h96l108.87 61.63c2.21 1.63 4.68 2.37 7.08 2.37 6.22 0 12.05-4.92 12.05-12.02V448h32c35.35 0 64-28.65 64-64V224c0-35.35-28.65-64-64-64zM200.35 294.23L144 326.13V288H64c-8.82 0-16-7.18-16-16V64c0-8.82 7.18-16 16-16h288c8.82 0 16 7.18 16 16v208c0 8.82-7.18 16-16 16H211.36l-11.01 6.23zM528 384c0 8.82-7.18 16-16 16h-80v38.13l-56.35-31.9-11-6.23H256c-8.82 0-16-7.18-16-16v-48h112c35.35 0 64-28.65 64-64v-64h96c8.82 0 16 7.18 16 16v160zM233.28 158.28l-42.19-11.44c-4.19-1.14-7.09-4.55-7.09-8.3 0-4.8 4.5-8.7 10.06-8.7h26.34c4.15 0 8.23 1.04 11.77 2.95 3.08 1.66 6.84 1.37 9.24-1.18l12.07-12.73c3.11-3.28 2.6-8.64-1.13-11.19-8.3-5.65-18.06-8.88-28.35-9.52V88c0-4.42-3.58-8-8-8h-16c-4.42 0-8 3.58-8 8v10.25c-22.18 1.1-40 18.57-40 40.3 0 18.17 12.62 34.28 30.72 39.17l42.19 11.44c4.19 1.14 7.09 4.55 7.09 8.3 0 4.8-4.5 8.7-10.06 8.7H195.6c-4.15 0-8.23-1.04-11.77-2.95-3.08-1.67-6.84-1.37-9.24 1.18l-12.07 12.73c-3.11 3.28-2.6 8.64 1.13 11.19 8.3 5.65 18.06 8.88 28.35 9.52V248c0 4.42 3.58 8 8 8h16c4.42 0 8-3.58 8-8v-10.25c22.18-1.1 40-18.57 40-40.3 0-18.17-12.62-34.28-30.72-39.17z"/></svg>