<svg xmlns="http://www.w3.org/2000/svg" viewBox="0 0 576 512"><!-- Font Awesome Pro 5.15.4 by @fontawesome - https://fontawesome.com License - https://fontawesome.com/license (Commercial License) --><path d="M532.01 386.17C559.48 359.05 576 325.04 576 288c0-80.02-76.45-146.13-176.18-157.94C368.35 72.46 294.32 32 208 32 93.12 32 0 103.64 0 192c0 37.04 16.52 71.05 43.99 98.17-15.3 30.74-37.34 54.53-37.7 54.89-6.31 6.69-8.05 16.53-4.42 24.99A23.085 23.085 0 0 0 23.06 384c53.54 0 96.67-20.24 125.17-38.78 9.21 2.12 18.69 3.74 28.37 4.89C208.11 407.58 281.8 448 368 448c20.79 0 40.83-2.41 59.77-6.78C456.27 459.76 499.4 480 552.94 480c9.22 0 17.55-5.5 21.18-13.96 3.64-8.46 1.89-18.3-4.42-24.99-.35-.36-22.39-24.14-37.69-54.88zm-372.99-87.72l-19.87-4.58-17.09 11.12c-14.07 9.15-28.46 16.29-43.1 21.41a258.5 258.5 0 0 0 8-14.84l15.49-31.12-24.74-24.42C64.16 242.63 48 220.66 48 192c0-60.71 73.27-112 160-112s160 51.29 160 112-73.27 112-160 112c-16.52 0-33-1.87-48.98-5.55zm339.27 53.56l-24.74 24.42 15.49 31.12c2.56 5.15 5.26 10.11 8 14.84-14.64-5.11-29.03-12.26-43.1-21.4l-17.09-11.12-19.87 4.58A218.576 218.576 0 0 1 368 400c-53.96 0-102.22-20.06-131.3-49.7C337.96 339.53 416 272.86 416 192c0-3.37-.39-6.66-.65-9.97C479.7 196.49 528 238.85 528 288c0 28.66-16.16 50.63-29.71 64.01zM233.28 182.28l-42.19-11.44c-4.19-1.14-7.09-4.55-7.09-8.3 0-4.8 4.5-8.7 10.06-8.7h26.34c4.15 0 8.23 1.04 11.77 2.95 3.08 1.66 6.84 1.37 9.24-1.18l12.07-12.73c3.11-3.28 2.6-8.64-1.13-11.19-8.3-5.65-18.06-8.88-28.35-9.52V112c0-4.42-3.58-8-8-8h-16c-4.42 0-8 3.58-8 8v10.25c-22.18 1.1-40 18.57-40 40.3 0 18.17 12.62 34.28 30.72 39.17l42.19 11.44c4.19 1.14 7.09 4.55 7.09 8.3 0 4.8-4.5 8.7-10.06 8.7H195.6c-4.15 0-8.23-1.04-11.77-2.95-3.08-1.67-6.84-1.37-9.24 1.18l-12.07 12.73c-3.11 3.28-2.6 8.64 1.13 11.19 8.3 5.65 18.06 8.88 28.35 9.52V272c0 4.42 3.58 8 8 8h16c4.42 0 8-3.58 8-8v-10.25c22.18-1.1 40-18.57 40-40.3 0-18.17-12.62-34.28-30.72-39.17z"/></svg>