<svg xmlns="http://www.w3.org/2000/svg" viewBox="0 0 576 512"><!-- Font Awesome Pro 5.15.4 by @fontawesome - https://fontawesome.com License - https://fontawesome.com/license (Commercial License) --><path d="M512 160h-96V64c0-35.3-28.7-64-64-64H64C28.7 0 0 28.7 0 64v160c0 35.3 28.7 64 64 64h32v52c0 7.1 5.8 12 12 12 2.4 0 4.9-.7 7.1-2.4l76.9-43.5V384c0 35.3 28.7 64 64 64h96l108.9 61.6c2.2 1.6 4.7 2.4 7.1 2.4 6.2 0 12-4.9 12-12v-52h32c35.3 0 64-28.7 64-64V224c0-35.3-28.7-64-64-64zM96 240H64c-8.8 0-16-7.2-16-16V64c0-8.8 7.2-16 16-16h288c8.8 0 16 7.2 16 16v160c0 8.8-7.2 16-16 16H211.4l-11 6.2-56.4 31.9V240H96zm432 144c0 8.8-7.2 16-16 16h-80v38.1l-56.4-31.9-11-6.2H256c-8.8 0-16-7.2-16-16v-96h112c35.3 0 64-28.7 64-64v-16h96c8.8 0 16 7.2 16 16v160z"/></svg>