<svg xmlns="http://www.w3.org/2000/svg" viewBox="0 0 640 512"><!-- Font Awesome Pro 5.15.4 by @fontawesome - https://fontawesome.com License - https://fontawesome.com/license (Commercial License) --><path d="M634 471L36 3.5C29.1-2 19-.9 13.5 6l-10 12.5C-2 25.4-.9 35.5 6 41l58 45.3 41.6 32.5L604 508.5c6.9 5.5 17 4.4 22.5-2.5l10-12.5c5.5-6.9 4.4-17-2.5-22.5zM512 48c8.8 0 16 7.2 16 16v263.2l46.8 36.6c.7-3.8 1.2-7.8 1.2-11.8V64c0-35.3-28.7-64-64-64H128c-5.5 0-10.7.9-15.8 2.2L170.8 48H512zM339.2 377.6L272 428v-60H128c-8.8 0-16-7.2-16-16V184.8l-48-37.5V352c0 35.3 28.7 64 64 64h96v84c0 7.1 5.8 12 12 12 2.4 0 4.9-.7 7.1-2.4L368 416h39.8l-58.6-45.8-10 7.4z"/></svg>