<svg xmlns="http://www.w3.org/2000/svg" viewBox="0 0 512 512"><!-- Font Awesome Pro 5.15.4 by @fontawesome - https://fontawesome.com License - https://fontawesome.com/license (Commercial License) --><path d="M256 32C114.62 32 0 125.13 0 240c0 47.55 19.86 91.23 52.9 126.27C38 405.72 6.97 439.06 6.54 439.5c-6.56 6.95-8.38 17.19-4.59 25.98S14.39 480 23.98 480c61.51 0 110.02-25.72 139.15-46.33C191.95 442.8 223.2 448 256 448c141.38 0 256-93.12 256-208S397.38 32 256 32zm0 368c-26.69 0-53.05-4.07-78.37-12.09l-22.74-7.21-19.48 13.78c-14.34 10.15-33.88 21.45-57.47 28.97 7.29-12.06 14.38-25.7 19.86-40.22l10.61-28.07-20.59-21.83C69.65 314.07 48 282.25 48 240c0-88.22 93.31-160 208-160s208 71.78 208 160-93.31 160-208 160zm30.41-176.28l-50.07-14.3a8.46 8.46 0 0 1-6.12-8.11c0-4.64 3.78-8.42 8.44-8.42h32.78c3.6 0 7.08.77 10.26 2.22 4.8 2.21 10.37 1.71 14.11-2.03l17.52-17.52c5.27-5.27 4.67-14.28-1.55-18.38-9.5-6.27-20.35-10.11-31.78-11.46V128c0-8.84-7.16-16-16-16h-16c-8.84 0-16 7.16-16 16v17.56c-30.29 3.62-53.37 30.98-49.32 63.05 2.9 22.95 20.66 41.31 42.91 47.67l50.07 14.3a8.46 8.46 0 0 1 6.12 8.11c0 4.64-3.78 8.42-8.44 8.42h-32.78c-3.6 0-7.08-.77-10.26-2.22-4.8-2.21-10.37-1.71-14.11 2.03l-17.52 17.52c-5.27 5.27-4.68 14.28 1.55 18.38 9.5 6.27 20.35 10.11 31.78 11.46V352c0 8.84 7.16 16 16 16h16c8.84 0 16-7.16 16-16v-17.56c30.29-3.62 53.37-30.98 49.32-63.05-2.9-22.95-20.66-41.31-42.91-47.67z"/></svg>