<svg xmlns="http://www.w3.org/2000/svg" viewBox="0 0 640 512"><!-- Font Awesome Pro 5.15.4 by @fontawesome - https://fontawesome.com License - https://fontawesome.com/license (Commercial License) --><path d="M320 80c114.7 0 208 71.8 208 160 0 25.3-7.9 49.1-21.5 70.4l37.9 29.6c20.1-29.6 31.6-63.7 31.6-100 0-114.9-114.6-208-256-208-48.2 0-93 11-131.5 29.8l43 33.6C258.4 85.6 288.3 80 320 80zm0 320c-26.7 0-53.1-4.1-78.4-12.1l-22.7-7.2-19.5 13.8c-14.3 10.1-33.9 21.4-57.5 29 7.3-12.1 14.4-25.7 19.9-40.2l10.6-28.1-20.6-21.8C133.7 314.1 112 282.2 112 240c0-16.6 3.3-32.7 9.5-47.8L82.8 162c-12 24.1-18.8 50.4-18.8 78 0 47.6 19.9 91.2 52.9 126.3-14.9 39.4-45.9 72.8-46.4 73.2-6.6 7-8.4 17.2-4.6 26S78.4 480 88 480c61.5 0 110-25.7 139.1-46.3C256 442.8 287.2 448 320 448c37.5 0 73-6.7 105.1-18.5l-46.2-36.2c-18.7 4.3-38.5 6.7-58.9 6.7zm314 71L481.6 351.8l-6.8-5.3L36 3.5C29.1-2 19-.9 13.5 6l-10 12.5C-2 25.4-.9 35.5 6 41l598 467.5c6.9 5.5 17 4.4 22.5-2.5l10-12.5c5.5-6.9 4.4-17-2.5-22.5z"/></svg>