<svg xmlns="http://www.w3.org/2000/svg" viewBox="0 0 448 512"><!-- Font Awesome Pro 5.15.4 by @fontawesome - https://fontawesome.com License - https://fontawesome.com/license (Commercial License) --><path d="M224 232v-95.005c0-21.382 25.851-32.09 40.971-16.971l27.704 27.704L404.888 35.515c4.686-4.686 12.284-4.686 16.971 0l22.627 22.627c4.686 4.686 4.686 12.284 0 16.971L332.272 187.326l27.704 27.704c15.119 15.119 4.411 40.97-16.971 40.97H248c-13.255 0-24-10.745-24-24zM43.112 476.485l112.213-112.213 27.704 27.704c15.12 15.119 40.971 4.411 40.971-16.971V280c0-13.255-10.745-24-24-24h-95.005c-21.382 0-32.09 25.851-16.971 40.971l27.704 27.704L3.515 436.888c-4.686 4.686-4.686 12.284 0 16.971l22.627 22.627c4.686 4.686 12.284 4.686 16.97-.001z"/></svg>