<svg xmlns="http://www.w3.org/2000/svg" viewBox="0 0 512 512"><!-- Font Awesome Pro 5.15.4 by @fontawesome - https://fontawesome.com License - https://fontawesome.com/license (Commercial License) --><path d="M352 320c-17.67 0-32 14.33-32 32s14.33 32 32 32 32-14.33 32-32-14.33-32-32-32zm-32-160c17.67 0 32-14.33 32-32s-14.33-32-32-32-32 14.33-32 32 14.33 32 32 32zm-128 32c0-17.67-14.33-32-32-32s-32 14.33-32 32 14.33 32 32 32 32-14.33 32-32zm0 128c-17.67 0-32 14.33-32 32s14.33 32 32 32 32-14.33 32-32-14.33-32-32-32zm96-96c-17.67 0-32 14.33-32 32s14.33 32 32 32 32-14.33 32-32-14.33-32-32-32zm222.37 30.79l-12.08-76.26a132.493 132.493 0 0 0-37.16-72.95l-54.76-54.75c-19.73-19.72-45.18-32.7-72.71-37.05l-76.7-12.15A131.26 131.26 0 0 0 236.34 0c-20.72 0-41.25 4.88-59.89 14.38l-69.12 35.21a132.25 132.25 0 0 0-57.79 57.8l-35.1 68.87A132.602 132.602 0 0 0 1.62 257.2l12.08 76.27a132.493 132.493 0 0 0 37.16 72.95l54.76 54.75a132.087 132.087 0 0 0 72.71 37.05l76.7 12.14c6.86 1.09 13.75 1.62 20.63 1.62 20.72 0 41.25-4.88 59.88-14.38l69.12-35.21a132.302 132.302 0 0 0 57.79-57.8l35.1-68.87a132.56 132.56 0 0 0 12.82-80.93zm-55.59 59.15l-35.1 68.88c-8.13 15.97-20.86 28.7-36.81 36.82l-69.12 35.21C302 460.83 288.83 464 275.66 464a84.8 84.8 0 0 1-13.12-1.03l-76.69-12.14c-17.63-2.79-33.64-10.95-46.28-23.59l-54.76-54.76c-12.69-12.68-20.88-28.77-23.69-46.51L49.04 249.7c-2.81-17.76.01-35.62 8.18-51.64l35.1-68.88c8.13-15.97 20.86-28.7 36.81-36.82l69.12-35.21C210 51.17 223.17 48 236.35 48c4.38 0 8.79.35 13.12 1.03l76.7 12.15c17.63 2.79 33.63 10.95 46.27 23.59l54.76 54.75c12.69 12.69 20.88 28.77 23.69 46.52l12.08 76.26c2.8 17.76-.02 35.62-8.19 51.64z"/></svg>