<svg xmlns="http://www.w3.org/2000/svg" viewBox="0 0 640 512"><!-- Font Awesome Pro 5.15.4 by @fontawesome - https://fontawesome.com License - https://fontawesome.com/license (Commercial License) --><path d="M624.48 237.99l-16.51-19.15v-42.82c0-11.89-12.52-19.63-23.15-14.31-6.08 3.04-11.32 7.1-16.1 11.58l-59.99-69.6A96.044 96.044 0 0 0 430.96 64H111.99c-48.6 0-88 39.4-88 88v86.41C9.48 250.14 0 267.88 0 288v32c39.76 0 72-32.24 72-72v-96c0-16.88 10.57-31.18 25.38-37.04-.87 4.21-1.35 8.57-1.35 13.04v288c0 17.67 14.33 32 32 32h64c17.67 0 32-14.33 32-32v-39.98c2.55.87 5.4 1.3 8.04 2.05V392c0 8.84 7.16 16 16 16s16-7.16 16-16v-8.68c2.68.15 13.27.14 16-.01V392c0 8.84 7.16 16 16 16s16-7.16 16-16v-13.98c2.62-.74 5.44-1.17 7.96-2.03V416c0 17.67 14.33 32 32 32h63.96c17.67 0 31.99-14.32 32-31.99l.04-143.97L463.97 288v41.98c0 12.32 3.56 24.38 10.24 34.73l35.46 54.89a62.08 62.08 0 0 0 52.14 28.4H576c35.34 0 64-28.65 64-64V279.78c0-15.34-5.51-30.17-15.52-41.79zm-414.37 82.58c6.95-27.82 31.97-48.57 61.9-48.57 29.92 0 54.92 20.73 61.89 48.53-61.3 20.93-62.19 21.03-123.79.04zM592 384c0 8.82-7.18 16-16 16h-14.19c-4.8 0-9.22-2.41-11.83-6.44l-35.46-54.9c-.87-2.95-1.69-5.72-2.56-8.68v-61.87l-75.77-75.77c-13.35-13.35-36.17-3.9-36.17 14.98L399.98 400h-31.97v-64c0-45.59-38.14-96-95.99-96-58.15 0-95.99 50.69-95.99 96v64h-32V128c0-8.82 7.18-16 16-16h4.32c.8 1.5 25.36 34.82 25.36 34.82C211.52 175.75 241.1 192 271.94 192h.17c30.84 0 60.42-16.25 82.23-45.18 0 0 24.56-33.32 25.36-34.82h51.27c15.34 0 29.87 7.42 38.87 19.85l118.28 137.49c2.5 2.91 3.88 6.62 3.88 10.46V384zm-32-80c-8.84 0-16 7.16-16 16s7.16 16 16 16 16-7.16 16-16-7.16-16-16-16z"/></svg>