<svg xmlns="http://www.w3.org/2000/svg" viewBox="0 0 640 512"><!-- Font Awesome Pro 5.15.4 by @fontawesome - https://fontawesome.com License - https://fontawesome.com/license (Commercial License) --><path d="M464 160c-97 0-176 79-176 176s79 176 176 176 176-78.95 176-176-78.95-176-176-176zm0 304a128 128 0 1 1 128-128 128 128 0 0 1-128 128zm80-152h-56v-56a16 16 0 0 0-16-16h-16a16 16 0 0 0-16 16v56h-56a16 16 0 0 0-16 16v16a16 16 0 0 0 16 16h56v56a16 16 0 0 0 16 16h16a16 16 0 0 0 16-16v-56h56a16 16 0 0 0 16-16v-16a16 16 0 0 0-16-16zM300.39 464H51.14l57.54-320h230.64l4.1 22.84a207.09 207.09 0 0 1 44.42-24.2l-3.65-20.29A32 32 0 0 0 352.64 96h-16V48a48.1 48.1 0 0 0-48.12-48H160.29a48.1 48.1 0 0 0-48.09 48v48H95.36a32 32 0 0 0-31.55 26.35l-63.3 352A32 32 0 0 0 32.07 512h321.59a209.26 209.26 0 0 1-53.27-48zM160 48h128v48H160z"/></svg>