<svg xmlns="http://www.w3.org/2000/svg" viewBox="0 0 576 512"><!-- Font Awesome Pro 5.15.4 by @fontawesome - https://fontawesome.com License - https://fontawesome.com/license (Commercial License) --><path d="M527.9 32H48.1C21.5 32 0 53.5 0 80v352c0 26.5 21.5 48 48.1 48h479.8c26.6 0 48.1-21.5 48.1-48V80c0-26.5-21.5-48-48.1-48zm-6 400H54.1c-3.3 0-6-2.7-6-6V86c0-3.3 2.7-6 6-6h467.8c3.3 0 6 2.7 6 6v340c0 3.3-2.7 6-6 6zM192 364v8c0 6.6-5.4 12-12 12h-72c-6.6 0-12-5.4-12-12v-8c0-6.6 5.4-12 12-12h72c6.6 0 12 5.4 12 12zm192 0v8c0 6.6-5.4 12-12 12H236c-6.6 0-12-5.4-12-12v-8c0-6.6 5.4-12 12-12h136c6.6 0 12 5.4 12 12zm-124-44h-56c-6.6 0-12-5.4-12-12v-40c0-6.6 5.4-12 12-12h56c6.6 0 12 5.4 12 12v40c0 6.6-5.4 12-12 12zm28-12v-40c0-6.6 5.4-12 12-12h56c6.6 0 12 5.4 12 12v40c0 6.6-5.4 12-12 12h-56c-6.6 0-12-5.4-12-12zm-192 0v-40c0-6.6 5.4-12 12-12h56c6.6 0 12 5.4 12 12v40c0 6.6-5.4 12-12 12h-56c-6.6 0-12-5.4-12-12zm384-40v40c0 6.6-5.4 12-12 12h-72c-6.6 0-12-5.4-12-12v-40c0-6.6 5.4-12 12-12h72c6.6 0 12 5.4 12 12zm0-132v48c0 13.3-10.7 24-24 24h-80c-13.3 0-24-10.7-24-24v-48c0-13.3 10.7-24 24-24h80c13.3 0 24 10.7 24 24z"/></svg>