<svg xmlns="http://www.w3.org/2000/svg" viewBox="0 0 640 512"><!-- Font Awesome Pro 5.15.4 by @fontawesome - https://fontawesome.com License - https://fontawesome.com/license (Commercial License) --><path d="M635.7 31.9l-15.2-21.6c-7.6-10.8-22.6-13.5-33.4-5.9L442.6 105.9c-14.5 10.1-34.4 6.6-44.5-7.8L385.4 80c-9.9-14-29.7-18.2-44.5-7.8L13.8 300.7C4.9 306.9-.7 317.2.1 328c5.6 79.3 54.7 149.2 127.4 181.6 15.4 6.9 28.9-2.5 30.4-3.5L485 277.6c14.5-10.1 18-30 7.9-44.4l-15.3-21.8c-10.1-14.4-6.6-34.3 7.9-44.4L629.8 65.2c10.8-7.6 13.5-22.5 5.9-33.3zM138 461.5c-48.8-25.3-82-72.6-89.1-126.9l224.8-157.1-19.1 107.9 108.2 19L138 461.5zM437.8 252l-37.9 26.5-108.2-19 19.1-107.9 37.9-26.5c3.6-2.5 8.6-1.6 11.1 2L439.7 241c2.6 3.5 1.7 8.5-1.9 11zm73.8 68.5c-52.9 0-95.9 42.9-95.9 95.7s43 95.7 95.9 95.7 95.9-42.9 95.9-95.7-43-95.7-95.9-95.7zm0 143.6c-26.4 0-48-21.5-48-47.9s21.5-47.9 48-47.9c26.4 0 48 21.5 48 47.9 0 26.5-21.5 47.9-48 47.9z"/></svg>