<svg xmlns="http://www.w3.org/2000/svg" viewBox="0 0 512 512"><!-- Font Awesome Pro 5.15.4 by @fontawesome - https://fontawesome.com License - https://fontawesome.com/license (Commercial License) --><path d="M507.72 168a161 161 0 0 0-73.48-84 71.07 71.07 0 0 0-26.18-42.49A203.31 203.31 0 0 0 285.49 0a199 199 0 0 0-46.12 5.77 72.23 72.23 0 0 0-46-3.57A262.32 262.32 0 0 0 2.13 193.38a73 73 0 0 0 3.5 45.5 201.29 201.29 0 0 0 35.73 168.36 71 71 0 0 0 41.5 25.95 161.71 161.71 0 0 0 85.06 74.52c46.79 17.71 95.34-22 87.11-71.4l-15.85-95.07a69.94 69.94 0 0 0 4.32-5.7 72.79 72.79 0 0 0 48.24-21.17l22.64-22.62c12.94-12.94 19.78-29.95 20.85-47.58a69.1 69.1 0 0 0 6.62-4.83l94.45 15.74c49.82 8.3 89.02-40.72 71.42-87.08zM111.81 382.26c-11.51 9-25.79 4.39-32.28-4.12-21.85-28.64-31.86-63.25-30.84-97.94 1.1.39 2.06 1 3.18 1.33l135.28 41.61zm73.13 80.58a113.44 113.44 0 0 1-50.43-38.27 70.28 70.28 0 0 0 6.94-4.56l55-43.16 11.23 67.35a17 17 0 0 1-22.74 18.64zm95.49-205l-22.62 22.62a25.57 25.57 0 0 1-25.6 6.36L66 235.66A25.58 25.58 0 0 1 48.7 205 214.41 214.41 0 0 1 205 48.76 25.57 25.57 0 0 1 235.64 66l51.15 166.18a25.56 25.56 0 0 1-6.36 25.63zm42.95-69.89l-41.85-136c-.39-1.24-1-2.36-1.42-3.56 1.79-.08 3.58-.38 5.37-.38a154 154 0 0 1 93.46 31.63c8.58 6.54 13.08 20.85 4.12 32.27zm120.82 19.79l-66.64-11.1 43.26-55.12a69.1 69.1 0 0 0 4.31-6.55 113.54 113.54 0 0 1 37.71 50 17 17 0 0 1-18.64 22.77z"/></svg>