<svg xmlns="http://www.w3.org/2000/svg" viewBox="0 0 512 512"><!-- Font Awesome Pro 5.15.4 by @fontawesome - https://fontawesome.com License - https://fontawesome.com/license (Commercial License) --><path d="M496 352h-80V141.25l91.31-91.31c6.25-6.25 6.25-16.38 0-22.63L484.69 4.69c-6.25-6.25-16.38-6.25-22.63 0L370.75 96H192v64h114.75L160 306.75V16c0-8.84-7.16-16-16-16h-32c-8.84 0-16 7.16-16 16v80H16c-8.84 0-16 7.16-16 16v32c0 8.84 7.16 16 16 16h80v224c0 17.67 14.33 32 32 32h192v-64H205.25L352 205.25V496c0 8.84 7.16 16 16 16h32c8.84 0 16-7.16 16-16v-80h80c8.84 0 16-7.16 16-16v-32c0-8.84-7.16-16-16-16z"/></svg>