<svg xmlns="http://www.w3.org/2000/svg" viewBox="0 0 640 512"><!-- Font Awesome Pro 5.15.4 by @fontawesome - https://fontawesome.com License - https://fontawesome.com/license (Commercial License) --><path d="M635.31 185.59L454.29 4.68a16 16 0 0 0-22.62 0L420.35 16a16 16 0 0 0 0 22.61l181 180.9a16 16 0 0 0 22.63 0l11.31-11.3a16 16 0 0 0 .02-22.62zm-178.75 77.2l-79.19-79.15 71.43-71.38-33.94-33.92-121.14 121a87.62 87.62 0 0 0-23.5 42.43l-28.31 122.47-108.64 108.57a18 18 0 0 0 0 25.44l8.49 8.48a18 18 0 0 0 25.45 0l108.67-108.59 122.49-28.24a87.85 87.85 0 0 0 42.41-23.51l121.16-121.06L528 191.41zm-49.75 49.7a39.75 39.75 0 0 1-19.25 10.66l-91.78 21.18L317 252.59a39.74 39.74 0 0 1 10.69-19.27l15.77-15.76 79.19 79.14zM207.93 353l4.87-4.86 10.51-45.47L89.38 168.79l79.2-79.15L264 185c2.33-2.79 4.57-5.64 7.15-8.22l26.27-26.25-94.9-94.81 17.13-17.12a16 16 0 0 0 0-22.61L208.33 4.68a16 16 0 0 0-22.62 0L4.69 185.59a16 16 0 0 0 0 22.61L16 219.5a16 16 0 0 0 22.63 0l16.81-16.79 143.78 143.68c2.59 2.61 5.83 4.33 8.71 6.61zm219.43 40.53a120.22 120.22 0 0 1-21.8 7.6l-31.27 7.21 98.5 98.43a18 18 0 0 0 25.45 0l8.49-8.48a18 18 0 0 0 0-25.44z"/></svg>