<svg xmlns="http://www.w3.org/2000/svg" viewBox="0 0 512 512"><!-- Font Awesome Pro 5.15.4 by @fontawesome - https://fontawesome.com License - https://fontawesome.com/license (Commercial License) --><path d="M507.31 185.59L326.29 4.68a16 16 0 0 0-22.62 0L292.35 16a16 16 0 0 0 0 22.61l181 180.9a16 16 0 0 0 22.63 0l11.31-11.3a16 16 0 0 0 .02-22.62zm-178.75 77.2l-79.19-79.15 71.43-71.38-33.94-33.92-121.14 121a87.62 87.62 0 0 0-23.5 42.43l-28.31 122.47L5.27 472.81a18 18 0 0 0 0 25.44l8.49 8.48a18 18 0 0 0 25.45 0l108.66-108.59 122.5-28.24a87.85 87.85 0 0 0 42.41-23.51l121.16-121.06L400 191.41zm-49.75 49.7a39.75 39.75 0 0 1-19.25 10.66l-91.78 21.18L189 252.59a39.74 39.74 0 0 1 10.69-19.27l15.77-15.76 79.19 79.14z"/></svg>