<svg xmlns="http://www.w3.org/2000/svg" viewBox="0 0 512 512"><!-- Font Awesome Pro 5.15.4 by @fontawesome - https://fontawesome.com License - https://fontawesome.com/license (Commercial License) --><path d="M384 215.1V102.5c0-15-9.3-28.4-23.4-33.7l-92-34.5c-8.1-3.1-17.1-3.1-25.3 0l-92 34.5c-14.1 5.3-23.4 18.7-23.4 33.7v112.6L23.4 254.4C9.3 259.6 0 273.1 0 288.1v106.6c0 13.6 7.7 26.1 19.9 32.2l98.6 49.3c10.1 5.1 22.1 5.1 32.2 0L256 423.6l105.3 52.6c10.1 5.1 22.1 5.1 32.2 0l98.6-49.3c12.2-6.1 19.9-18.6 19.9-32.2V288.1c0-15-9.3-28.4-23.4-33.7L384 215.1zm-116 34.8V152l92-31.7v97.6l-92 32zM152 94.2l104-39 104 39v.2L256 131 152 94.3v-.1zm0 26.1l92 31.7v97.9l-92-32v-97.6zm-30 329.4l-96.8-48.4V308l96.8 39.3v102.4zM25.2 280.8v-.2l109.4-41 108.1 40.5v1.2l-108.1 43.9-109.4-44.4zm122 66.5l95.5-38.8V402l-95.5 47.8V347.3zm217.6 102.4L269.3 402v-93.4l95.5 38.8v102.3zm122-48.4L390 449.7V347.3l96.8-39.3v93.3zm0-120.5l-109.4 44.4-108.1-43.9v-1.2l108.1-40.5 109.4 41v.2z"/></svg>