<svg xmlns="http://www.w3.org/2000/svg" viewBox="0 0 640 512"><!-- Font Awesome Pro 5.15.4 by @fontawesome - https://fontawesome.com License - https://fontawesome.com/license (Commercial License) --><path d="M540.5 199.7C529.7 158.5 492.6 128 448 128H288v-16c0-26.5 21.5-48 48-48h128c8.8 0 16-7.2 16-16V16c0-8.8-7.2-16-16-16H336c-61.9 0-112 50.1-112 112v16h-32c-44.6 0-81.7 30.5-92.5 71.7C41.9 218.6 0 272.1 0 336v32c0 79.5 64.5 144 144 144h352c79.5 0 144-64.5 144-144v-32c0-63.9-41.9-117.4-99.5-136.3zM144 240h352c52.9 0 96 43.1 96 96H48c0-52.9 43.1-96 96-96zm352 224H144c-52.9 0-96-43.1-96-96h544c0 52.9-43.1 96-96 96z"/></svg>