<svg xmlns="http://www.w3.org/2000/svg" viewBox="0 0 384 512"><!-- Font Awesome Pro 5.15.4 by @fontawesome - https://fontawesome.com License - https://fontawesome.com/license (Commercial License) --><path d="M344 96H216V16c0-8.84-7.16-16-16-16h-16c-8.84 0-16 7.16-16 16v80H40c-22.09 0-40 17.91-40 40s17.91 40 40 40c19.25 0 34.57-13.88 38.38-32H112v264.05l63.36 95.04c3.96 5.94 10.3 8.91 16.64 8.91s12.68-2.97 16.64-8.91L272 408.05V144h33.62c3.81 18.12 19.13 32 38.38 32 22.09 0 40-17.91 40-40s-17.91-40-40-40zM224 393.52l-32 48-32-48V144h64v249.52z"/></svg>