<svg xmlns="http://www.w3.org/2000/svg" viewBox="0 0 448 512"><!-- Font Awesome Pro 5.15.4 by @fontawesome - https://fontawesome.com License - https://fontawesome.com/license (Commercial License) --><path d="M224 48c97.167 0 176 27.723 176 61.714v4.571C400 148.277 321.167 176 224 176S48 148.277 48 114.286v-4.571C48 75.723 126.833 48 224 48m176 135.018v26.399c0 33.991-78.833 61.714-176 61.714S48 243.408 48 209.417v-26.399C85.813 210.982 155.021 224 224 224s138.187-13.018 176-40.982m0 96v26.834c0 33.991-78.833 61.714-176 61.714S48 339.842 48 305.851v-26.834C85.813 306.982 155.021 320 224 320s138.187-13.018 176-40.982m0 96v27.268C400 436.277 321.167 464 224 464S48 436.277 48 402.286v-27.268C85.813 402.982 155.021 416 224 416s138.187-13.018 176-40.982M224 0C137.052 0 0 23.26 0 109.714v292.571C0 488.758 137.03 512 224 512c86.948 0 224-23.26 224-109.714V109.714C448 23.242 310.97 0 224 0z"/></svg>