<svg xmlns="http://www.w3.org/2000/svg" viewBox="0 0 576 512"><!-- Font Awesome Pro 5.15.4 by @fontawesome - https://fontawesome.com License - https://fontawesome.com/license (Commercial License) --><path d="M400 160c-8.8 0-16 7.2-16 16s7.2 16 16 16 16-7.2 16-16-7.2-16-16-16zm136-64c-15.5 0-28.5 9.1-35.2 22-5.8-4.1-12.3-7.4-19.4-9.4l-68.7-19.4c3-3.3 6.2-6.3 8.7-10L439.5 52c4.9-7.4 2.9-17.3-4.4-22.2l-13.3-8.9c-7.4-4.9-17.3-2.9-22.2 4.4l-18.1 27.2c-3.9 5.8-9.2 10.5-15.4 13.6l-48.8 24.4-1.3.6-9-2.5.7-.9c7.9-9.9 12.3-22.3 12.3-35V16c0-8.8-7.2-16-16-16h-16c-8.8 0-16 7.2-16 16v36.8c0 1.8-.6 3.6-1.7 5l-13.4 16.8-11-3.1c-3.4-1-5.8-4.1-5.8-7.7V16c0-8.8-7.2-16-16-16h-16c-8.8 0-16 7.2-16 16v47.8c0 25 16.8 47.2 40.9 53.9l63.8 17.9-14.5 24.4H88c-48.5 0-88 39.5-88 88v64h48v7.2L37.6 347c-6.2 16.8-7.3 34.9-2.6 53.3l24.5 81.5c4.5 17.8 20.4 30.3 38.8 30.3h63.8c12.4 0 23.9-5.6 31.5-15.3 7.6-9.8 10.3-22.3 7-35.4l-24-80.7 10.7-28.6H256v120c0 22.1 17.9 40 40 40h64c22.1 0 40-17.9 40-40V302.4l21.9-38.4H464c35.3 0 64-28.7 64-64v-25.6c2.7.6 5.2 1.6 8 1.6 22.1 0 40-17.9 40-40s-17.9-40-40-40zm-56 104c0 8.8-7.2 16-16 16h-69.9L352 289.6V464h-48V304H154l-28.1 74.8 25.4 85.2h-47.1l-23.1-76.5c-2-7.9-1.5-16.1 1.3-23.7L96.5 332l-.5-68H48v-16c0-22.1 17.9-40 40-40h221.7l34.5-58.8c7.5-15 24.6-22.5 40.8-18l83.3 23.5c6.9 1.9 11.7 8.3 11.7 15.4V200z"/></svg>