<svg xmlns="http://www.w3.org/2000/svg" viewBox="0 0 640 512"><!-- Font Awesome Pro 5.15.4 by @fontawesome - https://fontawesome.com License - https://fontawesome.com/license (Commercial License) --><path d="M638.7 221.2L619 191.7c-25.2-37.8-66.5-61.2-111.6-63.7h-219l-73.6-61.2c11.3-19.2 11.5-43.1-.9-61.9-3.4-5.2-10.8-5.9-15.2-1.5l-40.9 40.8-41.9-41.8c-3.6-3.6-9.6-3-12.4 1.2-11.4 17.2-9.9 39.7 3.1 56l-93 108.7C-1.1 185.4-4 209.6 6.1 229.7l13.7 27.4c9.6 19.1 28.8 30.9 50.1 30.9h31c14.8 0 29.2-6 38.2-15.1l10.3-8.7 26.3 68.3V472c0 22.1 18 40 40 40h72.1c22.1 0 40-17.9 40-40v-40h96.1v40c0 22.1 18 40 40 40H536c22.1 0 40-17.9 40-40V216c0-.5-.1-1-.2-1.5 1 1.4 2.3 2.4 3.3 3.9l19.6 29.4c1.2 1.8 3 3 5.1 3.4 2.2.5 4.2 0 6-1.2l26.7-17.7c3.6-2.5 4.6-7.5 2.2-11.1zM527.9 464h-56.1v-64c0-8.8-7.2-16-16-16H295.7c-8.8 0-16 7.2-16 16v64h-56.1V352h304.3v112zm0-160H214.7l-36.9-98.8c-3.9-10.4-16.9-13.8-25.4-6.6l-46 39.1c-1.5 1.5-3.6 2.3-5.7 2.3h-31c-3.1 0-5.8-1.7-7.2-4.4l-13.7-27.3c-1.4-2.9-1-6.3 1.1-8.8L138.6 96h36.3l96.1 80h216.9c22.1 0 40 17.9 40 40v88zm-244.2-77.2l-8.2-16.5c-1.5-3-5.7-3-7.2 0l-8.2 16.5-18.3 2.7c-3.3.5-4.6 4.5-2.2 6.8l13.2 12.9-3.1 18.2c-.6 3.3 2.9 5.8 5.8 4.2l16.3-8.6 16.3 8.6c2.9 1.5 6.4-.9 5.8-4.2l-3.1-18.2 13.2-12.9c2.4-2.3 1.1-6.3-2.2-6.8l-18.1-2.7zm95.8 0l-8.2-16.5c-1.5-3-5.7-3-7.2 0l-8.2 16.5-18.3 2.7c-3.3.5-4.6 4.5-2.2 6.8l13.2 12.9-3.1 18.2c-.6 3.3 2.9 5.8 5.8 4.2l16.3-8.6 16.3 8.6c2.9 1.5 6.4-.9 5.8-4.2l-3.1-18.2 13.2-12.9c2.4-2.3 1.1-6.3-2.2-6.8l-18.1-2.7zm96.2 0l-8.2-16.5c-1.5-3-5.7-3-7.2 0l-8.2 16.5-18.3 2.7c-3.3.5-4.6 4.5-2.2 6.8l13.2 12.9-3.1 18.2c-.6 3.3 2.9 5.8 5.8 4.2l16.3-8.6 16.3 8.6c2.9 1.5 6.4-.9 5.8-4.2l-3.1-18.2 13.2-12.9c2.4-2.3 1.1-6.3-2.2-6.8l-18.1-2.7z"/></svg>