<svg xmlns="http://www.w3.org/2000/svg" viewBox="0 0 448 512"><!-- Font Awesome Pro 5.15.4 by @fontawesome - https://fontawesome.com License - https://fontawesome.com/license (Commercial License) --><path d="M431.88 116.13L239.88 4.3a31.478 31.478 0 0 0-31.76 0l-192 111.84C6.15 121.94 0 132.75 0 144.45v223.09c0 11.71 6.15 22.51 16.12 28.32l192 111.84a31.478 31.478 0 0 0 31.76 0l192-111.84c9.97-5.81 16.12-16.62 16.12-28.32V144.45c0-11.7-6.15-22.51-16.12-28.32zM224 87.87L296.47 184H151.53L224 87.87zm0 251.42L155.72 232h136.56L224 339.29zm-110.88-84.82l63.37 99.58-83.42-19.37 20.05-80.21zm221.76 0l20.05 80.21-83.42 19.37 63.37-99.58zm16.6-77.22l-70.41-93.41 106.02 61.76-35.61 31.65zm-254.96 0L60.91 145.6l106.02-61.76-70.41 93.41zm-24.24 42.66L48 317.05V198.33l24.28 21.58zM200 408.78v38.64L89.71 383.18 200 408.78zm48 0l110.29-25.61L248 447.42v-38.64zm152-91.73l-24.28-97.13L400 198.33v118.72z"/></svg>