<svg xmlns="http://www.w3.org/2000/svg" viewBox="0 0 512 512"><!-- Font Awesome Pro 5.15.4 by @fontawesome - https://fontawesome.com License - https://fontawesome.com/license (Commercial License) --><path d="M508.62 185.24l-55.85-111.7a32.06 32.06 0 0 0-14.31-14.31L326.76 3.38A32.066 32.066 0 0 0 312.45 0h-112.9c-4.97 0-9.87 1.16-14.31 3.38L73.54 59.23a32.06 32.06 0 0 0-14.31 14.31L3.38 185.24A32.066 32.066 0 0 0 0 199.55v112.89c0 4.97 1.16 9.87 3.38 14.31l55.85 111.7a32.06 32.06 0 0 0 14.31 14.31l111.7 55.85c4.44 2.22 9.34 3.38 14.31 3.38h112.89c4.97 0 9.87-1.16 14.31-3.38l111.7-55.85a32.06 32.06 0 0 0 14.31-14.31l55.85-111.7c2.22-4.44 3.38-9.34 3.38-14.31V199.55c.01-4.96-1.15-9.86-3.37-14.31zm-53.62.1l-78.18 104.24L280 241.17v-93.5l140.72-28.14-.93-4.61L455 185.34zM300.56 464h-89.11l-52.96-132.41L256 282.83l97.52 48.76L300.56 464zM203.33 48h105.34l64.28 32.14L256 103.53 139.06 80.14 203.33 48zM92.21 114.92l-.93 4.61L232 147.68v93.5l-96.82 48.41L57 185.34l35.21-70.42zM48 308.67v-55.35l58.9 78.53 41.96 104.91-49.08-24.54L48 308.67zm364.22 103.55l-49.08 24.54 41.96-104.91 58.9-78.53v55.35l-51.78 103.55z"/></svg>