<svg xmlns="http://www.w3.org/2000/svg" viewBox="0 0 576 512"><!-- Font Awesome Pro 5.15.4 by @fontawesome - https://fontawesome.com License - https://fontawesome.com/license (Commercial License) --><path d="M272 96a48 48 0 1 0-48-48 48 48 0 0 0 48 48zm39.06 320a32 32 0 0 0-30.35 21.88L256 512h320L474.07 305.69a32 32 0 0 0-56.07-2.15l-31.52 53.69-75-40.52L289 194.56a121.81 121.81 0 0 0-65.47-85.62A123 123 0 0 0 168.72 96H96a24 24 0 0 0-17.94 8.06L21.2 170.38a32 32 0 0 0 9 49l331.6 179.9L352 416zM107.84 206L70 185.38 106.78 144h55.33zm82.51 45l49.18-54.63 18 91.15zm203 189.26l50.84-86.63L498.75 464H379.48zM195.5 346.94L65.33 273.88l-64.24 207a24 24 0 1 0 45.81 14.23l46.35-149.27L160 382.25V488a24 24 0 0 0 48 0V368a24 24 0 0 0-12.5-21.06z"/></svg>