<svg xmlns="http://www.w3.org/2000/svg" viewBox="0 0 640 512"><!-- Font Awesome Pro 5.15.4 by @fontawesome - https://fontawesome.com License - https://fontawesome.com/license (Commercial License) --><path d="M608.64 79.58c-5.62-9.54-17.06-15.56-29.38-15.56-7.35 0 1.98-2.46-134.62 43.56a390.517 390.517 0 0 1-124.65 20.44c-42.38 0-84.48-6.9-124.65-20.44C58.15 61.36 68.05 64.03 60.74 64.03c-12.31 0-23.75 6.01-29.38 15.56-41.81 70.93-41.81 217.94 0 288.87 5.63 9.54 17.06 15.56 29.38 15.56 7.35 0-1.98 2.46 134.62-43.56 7.54-2.54 15.21-4.61 22.88-6.69l-57.4 98.91c-3.05 7.49 2.65 15.63 10.73 15.32l36.64.01 25.21 28.52c5.56 5.87 15.33 4.04 18.39-3.45L320 352.01l68.2 121.06c3.05 7.49 12.83 9.32 18.39 3.45l25.2-28.52 36.64-.01c8.08.31 13.78-7.83 10.73-15.32l-57.4-98.92c7.67 2.07 15.34 4.15 22.89 6.69C581.85 386.67 571.95 384 579.27 384c12.31 0 23.75-6.01 29.38-15.56 41.8-70.92 41.8-217.92-.01-288.86zM180.02 294.96l-113 38.07c-25.49-56.48-25.49-161.56 0-218.04l113 38.07c24.81 8.36 50.23 14.23 75.98 18.03v97.58l-5.15 8.88c-23.99 3.84-47.66 9.61-70.83 17.41zm392.96 38.08l-113-38.07c-23.16-7.8-46.84-13.57-70.82-17.4l-5.15-8.88V171.1c25.74-3.8 51.16-9.67 75.98-18.03l113-38.07c25.47 56.48 25.47 161.56-.01 218.04z"/></svg>