<svg xmlns="http://www.w3.org/2000/svg" viewBox="0 0 512 512"><!-- Font Awesome Pro 5.15.4 by @fontawesome - https://fontawesome.com License - https://fontawesome.com/license (Commercial License) --><path d="M459.68 179.63l-60.78-20.49c-9.81-3.32-16.94-9.95-19-17.7L365.37 87.5c-6.81-25.46-27.65-45-55.71-52.44-30.88-8.1-63.12.15-84.25 21.62L183.6 99.25c-7 7.16-18.59 11-30.15 10.14l-65.12-5c-33.75-2.54-65.06 13.19-79.93 40.19-12.85 23.38-10.88 50.32 5.37 72.06l34.9 46.8c4.63 6.17 5.32 13.16 2 19.67L25 334c-11.85 23.36-9.25 49.83 6.93 70.85 19.21 24.91 52.9 36.44 86.07 29.35l63.4-13.64c11.32-2.49 23.82-.05 32.38 6.28L263 463.3a87.24 87.24 0 0 0 51.87 16.7 89.76 89.76 0 0 0 37.25-8c25.41-11.6 41.75-33.77 43.75-59.35l4.25-55.24c.56-7.44 6-14.47 14.62-18.8L471 310.25c27.21-13.73 42.87-39.6 40.87-67.54-2.07-28.71-22.07-52.92-52.19-63.08zm-10.35 87.74l-56.21 28.35c-23.72 12-39 33.64-40.87 58L348 408.93c-.88 11.38-11.35 17.33-15.78 19.36-10.25 4.69-27 6.52-40.66-3.56l-49.21-36.47c-14.69-10.85-33.22-16.64-52-16.64a90.73 90.73 0 0 0-19 2l-63.4 13.64c-17 3.73-31.41-3.25-38-11.77-4.87-6.33-5.59-13-2.12-19.83l25.74-50.88c11.44-22.59 9-49.44-6.37-70.07L52.21 187.9c-4.91-6.58-5.5-13.38-1.75-20.18 4.4-8 16.43-16.87 34.18-15.5l65.12 5c25.25 2 51.12-7.1 68.09-24.36l41.81-42.55c8.87-9.08 23.78-12.54 37.78-8.85 11.22 2.94 19.25 9.83 21.56 18.46l14.5 54c6.28 23.29 25 42.24 50.09 50.7l60.77 20.5C456 229 463.3 236.9 464 246.12c.58 8.52-4.76 16.27-14.67 21.25zM160 192a32 32 0 1 0 32 32 32 32 0 0 0-32-32zm128 96a32 32 0 1 0 32 32 32 32 0 0 0-32-31.95zm16-96a16 16 0 1 0 16 16 16 16 0 0 0-16-16z"/></svg>