<svg xmlns="http://www.w3.org/2000/svg" viewBox="0 0 576 512"><!-- Font Awesome Pro 5.15.4 by @fontawesome - https://fontawesome.com License - https://fontawesome.com/license (Commercial License) --><path d="M576,104v48a88.09,88.09,0,0,1-88,88h-8V480a32,32,0,0,1-32,32H368a32,32,0,0,1-32-32V384H208v96a32,32,0,0,1-32,32H96a32,32,0,0,1-32-32V312a118.82,118.82,0,0,1,7.88-41.63A88,88,0,0,1,0,184a24,24,0,0,1,48,0,40,40,0,0,0,40,40h15.06c21.38-19.69,49.66-32,80.94-32H304V16c0-14.25,17.22-21.39,27.31-11.31L358.59,32l-.12.15c.53,0,1-.15,1.53-.15h76.22a55.65,55.65,0,0,1,50.09,31l.53,1H536A40,40,0,0,1,576,104ZM432,268.73,317.06,240H184a72.09,72.09,0,0,0-72,72V464h48V336H384V464h48ZM528,112H457.16L443.38,84.42A8,8,0,0,0,436.22,80H360a8,8,0,0,0-8,8V199.26l80,20V192h56a40,40,0,0,0,40-40Zm-96,0a16,16,0,1,1-16-16A16,16,0,0,1,432,112Z"/></svg>