<svg xmlns="http://www.w3.org/2000/svg" viewBox="0 0 512 512"><!-- Font Awesome Pro 5.15.4 by @fontawesome - https://fontawesome.com License - https://fontawesome.com/license (Commercial License) --><path d="M368 160.2c0 8.8 7.2 16 16 16s16-7.2 16-16-7.2-16-16-16c-8.9 0-16 7.2-16 16zM384 64c-46.2 0-84.8 32.8-93.9 76.4-29-36.6-49-79.8-56.2-126.5C231.8.6 215-5.1 206 5.5c-25.1 29.6-44.3 65.1-55 105.1-1.6 5.8-2.4 11.7-3.4 17.5-25.4-24.4-46.3-53.5-60.6-86.3-5.5-12.6-23.3-13.1-29.1-.7-16.1 34.1-25.3 72-25.9 112-1.3 96.1 54.8 163.1 95.9 199.4L13.8 391C1.6 394.3-3.9 409.2 3 420.3c19.8 32.3 68.9 87 174.8 91.6 13.5.6 17.6-4.6 25.2-9.4l76.4-54.1H320c88.4 0 160-71.7 160-160.1V159.9L512 64H384zm-186.6 59c2.6-9.7 5.8-19.1 9.6-28.2 15.9 38.4 39.9 72.9 69.3 102.4-30.2-6.8-58.6-18.2-84.1-34.1.4-13.7 1.8-27.2 5.2-40.1zM432 152.1v136.1c0 61.8-50.2 111.7-112 111.7h-55.9l-89.4 63.7c-52.3-3.3-85.9-21.4-107-40.2l154-52C165.9 324.9 78.6 261.1 80 153.7c.1-9 .8-17 1.9-25.7C174.6 249.1 320 256 336 256v-95.8c0-26.6 21.5-48.1 48-48.1h61.4l-13.4 40z"/></svg>