<svg xmlns="http://www.w3.org/2000/svg" viewBox="0 0 640 512"><!-- Font Awesome Pro 5.15.4 by @fontawesome - https://fontawesome.com License - https://fontawesome.com/license (Commercial License) --><path d="M481.12 119.98c14.92.85 27.36-9.89 30.88-24.59l-58.43-15.37c-6.5 27.13 15.51 39.27 27.55 39.96zm82.55 136.9l-94.19-44.21a9.876 9.876 0 0 1-4.6-4.69h18.68c4.9 3.12 8.91 5.72 12.25 7.89 16.52 10.73 24.81 16.12 42.65 16.12h27.87c23.03 0 43.8-12.59 54.22-32.85l12.88-25.04c10.49-20.39 8.19-45.32-5.84-63.51L560.5 23.65C549.07 8.84 530.99 0 512.12 0h-213.7c-37.28 0-52.93 46.77-24.99 69.01l12.52 9.94c-4.44 1.8-3.56 1.43-4.75 2.01-29.37 14.28-29.24 55.87.01 70.08L320 166.01v12.95l-167.69-41.84c-22.03-5.48-45.5 3.28-58.53 21.77L5.03 285.13c-14.39 22.6 4.05 52.39 33.06 48.25l91.52-17.21c-14.71 23.28 5.27 52.03 31.82 48.36l180.76-24.23c4.91 10.23 10.58 19.99 17.01 29.17-147.08 10.08-247.2 32.47-321.46 48.52C15.88 422.71 0 442.24 0 464.42c0 26.21 21.52 47.54 47.98 47.54l449.17.04c76.07.01 138.73-55.84 142.65-127.15 2.96-53.81-26.93-104.04-76.13-127.97zM68.03 278.95l65-92.44c1.66-2.38 4.59-3.66 7.69-2.81l69.82 17.33-41.4 58.87-101.11 19.05zm123.03 33.18l69.38-98.67L320 228.47c0 21.25.13 36.77 6.72 65.48l-135.66 18.18zM497.15 464l-449.26.9c92.02-19.88 196.84-43.56 383.18-51.02 16.58-.67 23.38-21.76 9.29-31.79C367.78 330.38 368 258.74 368 239.03V132.98l-45.11-17.22 57.34-23.24L324.16 48h188.22c3.96 0 7.7 1.84 10.12 4.97l67.13 87.01c2.7 3.5 3.13 8.23 1.11 12.16l-12.88 25.04c-2.12 4.13-6.65 6.79-11.53 6.79h-27.87c-3.61 0-3.61 0-16.5-8.37-5.12-3.33-24.56-15.64-24.56-15.64H416v44.11c0 22.19 12.6 42.09 33.08 52.04l93.59 43.92c32.27 15.69 51.12 47.18 49.2 82.16-2.48 45.13-44.97 81.82-94.72 81.81z"/></svg>