<svg xmlns="http://www.w3.org/2000/svg" viewBox="0 0 448 512"><!-- Font Awesome Pro 5.15.4 by @fontawesome - https://fontawesome.com License - https://fontawesome.com/license (Commercial License) --><path d="M384 352c-3.36 0-6.59.49-9.81.99l-35.21-58.68C347.05 283.6 352 270.43 352 256s-4.95-27.6-13.01-38.31l35.21-58.68c3.22.5 6.45.99 9.81.99 35.35 0 64-28.65 64-64s-28.65-64-64-64c-26.84 0-49.75 16.56-59.25 40H123.25c-9.5-23.44-32.4-40-59.25-40C28.65 32 0 60.65 0 96c0 26.84 16.56 49.75 40 59.25v201.49C16.56 366.25 0 389.15 0 416c0 35.35 28.65 64 64 64 26.85 0 49.75-16.56 59.25-40h201.49c9.5 23.44 32.41 40 59.25 40 35.35 0 64-28.65 64-64 .01-35.35-28.64-64-63.99-64zm-296 4.75v-201.5A64.053 64.053 0 0 0 123.25 120h201.49c2.1 5.19 4.96 9.92 8.28 14.32l-35.21 58.67c-3.22-.5-6.45-.99-9.82-.99-35.35 0-64 28.65-64 64s28.65 64 64 64c3.36 0 6.59-.49 9.82-.99l35.21 58.67c-3.32 4.4-6.18 9.14-8.28 14.32H123.25A64.053 64.053 0 0 0 88 356.75zM288 240c8.82 0 16 7.18 16 16s-7.18 16-16 16-16-7.18-16-16 7.18-16 16-16zm96-160c8.82 0 16 7.18 16 16s-7.18 16-16 16-16-7.18-16-16 7.18-16 16-16zM64 80c8.82 0 16 7.18 16 16s-7.18 16-16 16-16-7.18-16-16 7.18-16 16-16zm0 352c-8.82 0-16-7.18-16-16s7.18-16 16-16 16 7.18 16 16-7.18 16-16 16zm320 0c-8.82 0-16-7.18-16-16s7.18-16 16-16 16 7.18 16 16-7.18 16-16 16z"/></svg>