<svg xmlns="http://www.w3.org/2000/svg" viewBox="0 0 512 512"><!-- Font Awesome Pro 5.15.4 by @fontawesome - https://fontawesome.com License - https://fontawesome.com/license (Commercial License) --><path d="M512 256c0-30.3-21.11-55.54-49.39-62.17-20.85-69.11-75.33-123.6-144.44-144.45C311.54 21.11 286.3 0 256 0s-55.54 21.11-62.17 49.39c-69.11 20.85-123.6 75.33-144.44 144.45C21.12 200.46 0 225.7 0 256c0 30.3 21.12 55.54 49.39 62.17 20.85 69.11 75.33 123.6 144.44 144.45C200.46 490.89 225.7 512 256 512s55.54-21.11 62.17-49.39c69.11-20.85 123.6-75.33 144.44-144.45C490.89 311.54 512 286.3 512 256zm-64 16c-8.82 0-16-7.18-16-16s7.18-16 16-16 16 7.18 16 16-7.18 16-16 16zM256 48c8.82 0 16 7.18 16 16s-7.18 16-16 16-16-7.18-16-16 7.18-16 16-16zM64 240c8.82 0 16 7.18 16 16s-7.18 16-16 16-16-7.18-16-16 7.18-16 16-16zm192 224c-8.82 0-16-7.18-16-16s7.18-16 16-16 16 7.18 16 16-7.18 16-16 16zm53.89-50.28C298.53 395.9 278.71 384 256 384c-22.7 0-42.53 11.9-53.89 29.72A166.552 166.552 0 0 1 98.28 309.89C116.1 298.53 128 278.7 128 256c0-22.71-11.9-42.53-29.72-53.89A166.567 166.567 0 0 1 202.12 98.28C213.47 116.1 233.3 128 256 128c22.71 0 42.53-11.9 53.89-29.72a166.614 166.614 0 0 1 103.84 103.83C395.9 213.47 384 233.29 384 256c0 22.7 11.9 42.53 29.72 53.89a166.529 166.529 0 0 1-103.83 103.83z"/></svg>