<svg xmlns="http://www.w3.org/2000/svg" viewBox="0 0 512 512"><!-- Font Awesome Pro 5.15.4 by @fontawesome - https://fontawesome.com License - https://fontawesome.com/license (Commercial License) --><path d="M339.41 92.33a63.82 63.82 0 1 1 80.26 80.26l-35.93 49.77A110.32 110.32 0 0 0 400 224a112 112 0 1 0-112-112 110.32 110.32 0 0 0 1.64 16.26zM111 368.2a31.91 31.91 0 1 0 32.8 32.8l67.86-49h88.68l67.86 49a31.91 31.91 0 1 0 32.8-32.8l-49-67.86v-88.68l49-67.86a31.91 31.91 0 1 0-32.8-32.8l-67.86 49h-88.68l-67.86-49a31.91 31.91 0 1 0-32.8 32.8l49 67.86v88.68zM208 208h96v96h-96zm192 80a110.45 110.45 0 0 0-16.26 1.64l35.93 49.77a63.82 63.82 0 1 1-80.26 80.25l-49.77-35.92A110.32 110.32 0 0 0 288 400a112 112 0 1 0 112-112zm-288-64a110.32 110.32 0 0 0 16.26-1.64l-35.92-49.77a63.82 63.82 0 1 1 80.25-80.26l49.77 35.93A110.45 110.45 0 0 0 224 112a112 112 0 1 0-112 112zm60.59 195.67a63.82 63.82 0 1 1-80.26-80.26l35.93-49.77A110.32 110.32 0 0 0 112 288a112 112 0 1 0 112 112 110.32 110.32 0 0 0-1.64-16.26z"/></svg>