<svg xmlns="http://www.w3.org/2000/svg" viewBox="0 0 512 512"><!-- Font Awesome Pro 5.15.4 by @fontawesome - https://fontawesome.com License - https://fontawesome.com/license (Commercial License) --><path d="M471.06 57.65A169.92 169.92 0 0 0 348.12.07a172.16 172.16 0 0 0-126.19 49.72C195.34 76.21 160 119.46 160 189.81v60.42L116.3 294c-1.93 1.88-5.75 1-7.75.17A79.19 79.19 0 0 0 23.22 423.7a76.41 76.41 0 0 0 43.57 21.59 76.39 76.39 0 0 0 21.57 43.55 79.19 79.19 0 0 0 129.58-85.33c-1-2.5-1.56-6 .16-7.75L261.84 352H323c38.72 0 72.75-10.17 104-31.08 46.22-30.88 76.69-79.36 83.56-133 6.22-48.32-7.81-94.58-39.5-130.27zM173.37 421.34A31.07 31.07 0 0 1 144.43 464c-12 0-27.64-7.82-30.11-25.39l-5-35.8-35.81-5.05C56 395.28 48 379.69 48 367.65a31.13 31.13 0 0 1 42.5-29 60.4 60.4 0 0 0 22.5 4.42 52.8 52.8 0 0 0 37.27-15.17l20.43-20.45a84.92 84.92 0 0 0 34 33.87l-20.49 20.5c-15.3 15.24-19.43 38.05-10.84 59.52zM400.31 281c-23.13 15.47-48.44 23-77.34 23h-77.81A37 37 0 0 1 208 267.2v-77.39c0-41 14.28-72.7 47.78-106 57.69-57.39 139.86-38.82 179.4 5.7 61.93 69.83 14.31 158.66-34.87 191.49z"/></svg>