<svg xmlns="http://www.w3.org/2000/svg" viewBox="0 0 576 512"><!-- Font Awesome Pro 5.15.4 by @fontawesome - https://fontawesome.com License - https://fontawesome.com/license (Commercial License) --><path d="M288 32C128.94 32 0 89.31 0 160v192c0 70.69 128.94 128 288 128s288-57.31 288-128V160c0-70.69-128.94-128-288-128zm0 48c24.31 0 47.75 1.23 69.87 3.47l-11.5 44.71C341.86 145.73 315.67 160 288 160c-27.67 0-53.86-14.27-58.37-31.82l-11.5-44.71C240.25 81.23 263.69 80 288 80zm-58.38 95.55C245.95 185.92 266.66 192 288 192c21.02 0 41.47-5.87 57.68-15.95 2.82 21.76 11.49 41.94 24.64 59.01C344.61 238.2 316.97 240 288 240c-29.32 0-57.28-1.84-83.25-5.05 13.11-17.29 21.97-37.61 24.87-59.4zm-55.11-86.04l13.02 46.08c9.82 34.77-3.37 70.58-30.33 91.44C91.51 212.75 48 188.09 48 160c0-30.5 51.21-56.99 126.51-70.49zM528 352c0 27.47-93.46 80-240 80-146.54 0-240-52.53-240-80V230.7C99.59 265.22 187.77 288 288 288s188.41-22.78 240-57.3V352zM418.16 227.15c-8.38-6.16-15.65-13.85-21.32-22.94-11.73-18.82-15.42-41.09-10.4-62.7l12.19-52.46C475.46 102.39 528 129.13 528 160c0 28.18-43.8 52.9-109.84 67.15z"/></svg>