<svg xmlns="http://www.w3.org/2000/svg" viewBox="0 0 512 512"><!-- Font Awesome Pro 5.15.4 by @fontawesome - https://fontawesome.com License - https://fontawesome.com/license (Commercial License) --><path d="M431.67 121.83l73.2-47.2a16 16 0 0 0 4.44-22.19l-8.87-13.31a16 16 0 0 0-22.19-4.44l-109.8 70.81C319.94 97 273.56 96 256 96 213.25 96 0 101.4 0 208v160c0 61.86 114.62 112 256 112s256-50.14 256-112V208c0-43.4-35.52-69.85-80.33-86.17zM88 400.21C62 387.88 48 375.08 48 368v-88.56A216.21 216.21 0 0 0 88 297zM232 431c-37.53-1.64-69.81-6.57-96-13.54V309.2c36.05 6.87 71.63 9.43 96 10.33zm144-13.54c-26.19 7-58.47 11.9-96 13.54V319.53c24.37-.9 59.95-3.46 96-10.33zM464 368c0 7.08-14 19.88-40 32.21V297a216.21 216.21 0 0 0 40-17.54zm-208-96c-114.88 0-208-28.65-208-64s93.12-64 208-64c17.19 0 33.8.71 49.78 1.92l-72.91 47a16 16 0 0 0-4.43 22.19l8.87 13.31a16 16 0 0 0 22.19 4.44l118.74-76.56C430.13 167.93 464 186.73 464 208c0 35.35-93.13 64-208 64z"/></svg>