<svg xmlns="http://www.w3.org/2000/svg" viewBox="0 0 512 512"><!-- Font Awesome Pro 5.15.4 by @fontawesome - https://fontawesome.com License - https://fontawesome.com/license (Commercial License) --><path d="M471.15 57.65A170 170 0 0 0 348.19.07 172.2 172.2 0 0 0 222 49.79c-26.62 26.42-62 69.67-62 140.01v60.42L116.3 294c-1.93 1.88-5.75 1-7.75.17A79.19 79.19 0 0 0 23.22 423.7a76.41 76.41 0 0 0 43.57 21.59 76.39 76.39 0 0 0 21.57 43.55 79.19 79.19 0 0 0 129.58-85.33c-1-2.5-1.56-6 .16-7.75L261.89 352H323a189.07 189.07 0 0 0 50.76-6.94A24 24 0 0 0 388.29 310c-19.38-33.91-14.6-75.9 11.63-102.15 21-21 51.48-28.58 81.7-20.23A24 24 0 0 0 512 164.24c-.38-40.09-14.5-76.95-40.85-106.59zM173.37 421.34A31.07 31.07 0 0 1 144.43 464c-12 0-27.64-7.82-30.11-25.38l-5-35.81-35.81-5.05C56 395.28 48 379.7 48 367.65a31.13 31.13 0 0 1 42.5-29 60.4 60.4 0 0 0 22.5 4.42 52.77 52.77 0 0 0 37.28-15.17l20.46-20.47a85 85 0 0 0 34 33.87c-21.21 21.15-18.74 18.7-20.59 20.52-15.23 15.24-19.36 38.05-10.78 59.52zM366 173.92c-33.85 33.86-45.38 83.82-32.16 129.66-3.59.27-7.16.41-10.78.41H245.2A37 37 0 0 1 208 267.2v-77.4c0-41 14.29-72.7 47.79-106 57.7-57.39 139.9-38.81 179.44 5.7a112.62 112.62 0 0 1 25.07 46.91 128.69 128.69 0 0 0-94.3 37.51z"/></svg>