<svg xmlns="http://www.w3.org/2000/svg" viewBox="0 0 448 512"><!-- Font Awesome Pro 5.15.4 by @fontawesome - https://fontawesome.com License - https://fontawesome.com/license (Commercial License) --><path d="M384 0H64A64 64 0 0 0 0 64v416a32 32 0 0 0 32 32h384a32 32 0 0 0 32-32V64a64 64 0 0 0-64-64zm16 464H48V64a16 16 0 0 1 16-16h320a16 16 0 0 1 16 16zM128 104a24 24 0 1 0-24 24 24 24 0 0 0 24-24zm56 24a24 24 0 1 0-24-24 24 24 0 0 0 24 24zm40 32a136 136 0 1 0 136 136 136 136 0 0 0-136-136zm-25.5 179.93c6.59 6.17 15.25 14.28 17.71 28.13a6.94 6.94 0 0 1-7.07 7.94h-14.5a7.05 7.05 0 0 1-6.83-5.06c-1.21-4.29-4.25-7.3-9.42-12.15-7.77-7.27-18.39-17.23-18.39-36.07s10.62-28.83 18.39-36.11c7-6.54 10.06-9.75 10.06-17.25s-3.09-10.72-10.06-17.25c-6.6-6.19-15.26-14.3-17.71-28.17a6.94 6.94 0 0 1 7.06-7.94h14.51a7 7 0 0 1 6.82 5.07c1.22 4.3 4.25 7.33 9.43 12.18 7.76 7.28 18.39 17.24 18.39 36.11s-10.63 28.83-18.39 36.1c-7 6.54-10.05 9.76-10.05 17.26s3.08 10.67 10.05 17.21zm71.11 0c6.59 6.17 15.25 14.28 17.71 28.13a6.94 6.94 0 0 1-7.06 7.94h-14.51a7 7 0 0 1-6.82-5.06c-1.22-4.29-4.26-7.3-9.43-12.15-7.76-7.27-18.39-17.23-18.39-36.07s10.63-28.83 18.39-36.11c7-6.54 10.05-9.75 10.05-17.25s-3.08-10.72-10.05-17.25c-6.59-6.19-15.25-14.3-17.71-28.17a6.94 6.94 0 0 1 7.06-7.94h14.51a7 7 0 0 1 6.82 5.07c1.22 4.3 4.25 7.33 9.43 12.18 7.77 7.28 18.39 17.24 18.39 36.11s-10.62 28.83-18.39 36.1c-7 6.54-10.06 9.76-10.06 17.26s3.09 10.67 10.06 17.21z"/></svg>