<svg xmlns="http://www.w3.org/2000/svg" viewBox="0 0 576 512"><!-- Font Awesome Pro 5.15.4 by @fontawesome - https://fontawesome.com License - https://fontawesome.com/license (Commercial License) --><path d="M416 144c0-8.84-7.16-16-16-16s-16 7.16-16 16 7.16 16 16 16 16-7.16 16-16zm48 96c61.86 0 112-50.14 112-112h-65.57c-.46-3.32-.6-6.58-1.36-9.95-9.15-40.61-41.97-73.7-82.54-83-9-2.07-17.88-3.05-26.53-3.05-61.86 0-112 50.14-112 112v80h-54.23c-39 0-78.18-13.76-104.79-42.28-3.96-4.25-8.94-6.14-13.82-6.14-9.78 0-19.16 7.59-19.16 19.06 0 94.71 72.21 178.39 164.58 188.02 9.47.99 17.77-6.49 17.77-16.01v-16.09c0-8.02-5.94-14.86-13.9-15.77-45.77-5.2-85.53-35.7-105.91-77.49 23.38 9.37 48.83 14.27 75.24 14.27L336 272V144c0-35.29 28.71-64 64-64 5.19 0 10.5.62 15.79 1.83 22.66 5.2 41.32 23.99 46.46 46.77 7.9 35.06-11.85 61.87-34.92 72.89L400 214.54v71.63l11.86 13.57c8.89 10.18 19.61 27.21 20.12 50.54.43 19.57-7.61 38.82-22.64 54.19-17.12 17.5-40.59 27.54-64.39 27.54h-91.17c-6.03 0-12.1-.31-18.66-.97-88.83-7.9-163.37-73.51-183.76-159.04h29.28a190.546 190.546 0 0 1-14.15-48H32.25C12.96 224-2.39 241.03.31 260.13 16.82 376.94 112.22 468.3 230.87 478.84c7.53.77 15.18 1.16 22.91 1.16h91.17c71.96 0 136.61-58.84 135.02-130.78-.69-31.13-12.86-59.21-31.97-81.07V240h16z"/></svg>