<svg xmlns="http://www.w3.org/2000/svg" viewBox="0 0 640 512"><!-- Font Awesome Pro 5.15.4 by @fontawesome - https://fontawesome.com License - https://fontawesome.com/license (Commercial License) --><path d="M418.7 104.1l.2-.2-14.4-72H304v128h60.8c16.2-19.3 34.2-38.2 53.9-55.8zm42.6 0c18.2 16.3 35.5 33.7 51.1 51.5 5.7-5.6 11.4-11.1 17.3-16.3l21.3-19 21.3 19c1.1.9 2.1 2.1 3.1 3.1-.1-.8.2-1.5 0-2.3l-24-96C549.7 37 543.3 32 536 32h-98.9l12.3 61.5 11.9 10.6zM272 32H171.5l-25.6 128H272V32zM106.4 400l-20-160h225.3c7.9-15.7 17.6-31.9 28.9-48H32l4 32H16c-8.8 0-16 7.2-16 16v16c0 8.8 7.2 16 16 16h26l22 176v16c0 8.8 7.2 16 16 16h32c8.8 0 16-7.2 16-16v-16h208.8c-12.8-14.3-23.5-30.4-31.6-48H106.4zM16 160h97.3l25.6-128H40c-7.3 0-13.7 5-15.5 12.1l-24 96C-2 150.2 5.6 160 16 160zm535.1 3.2c-14.9 13.3-28.3 27.2-40.2 41.2-19.5-25.8-43.6-52-71-76.4-70.2 62.7-120 144.3-120 193.6 0 87.5 71.6 158.4 160 158.4s160-70.9 160-158.4c.1-36.6-37-112.2-88.8-158.4zM480 432c-61.8 0-112-49.5-112-110.4 0-22.6 24.9-74.7 72.2-126.4 22.4 23.7 30.5 35.7 68.5 86.1 40.6-47.8 39.1-46.1 41.1-48.4 26.4 35.3 42.2 74 42.2 88.8 0 60.8-50.2 110.3-112 110.3z"/></svg>