<svg xmlns="http://www.w3.org/2000/svg" viewBox="0 0 512 512"><!-- Font Awesome Pro 5.15.4 by @fontawesome - https://fontawesome.com License - https://fontawesome.com/license (Commercial License) --><path d="M512 295.43c0-8.47-1.91-16.51-5.33-23.7 3.66-7.9 5.48-16.63 5.14-25.42-1.32-35.2-9.77-69.19-25.09-101-4.32-8.97-10.97-16.45-19.02-21.85-1.4-9.57-5.29-18.7-11.41-26.4-21.33-26.84-47.35-48.81-77.33-65.3a55.498 55.498 0 0 0-26.64-6.84c-.44 0-.88 0-1.31.02-6.72-7.04-15.24-12.27-24.74-15C303.32 3.35 279.67 0 256 0s-47.32 3.35-70.29 9.95c-9.49 2.72-18 7.95-24.72 14.99-.44-.01-.88-.02-1.31-.02-9.29 0-18.49 2.36-26.62 6.83-29.99 16.5-56.01 38.47-77.35 65.32a55.208 55.208 0 0 0-11.41 26.39c-8.05 5.39-14.7 12.87-19.02 21.84C9.95 177.12 1.51 211.1.18 246.32c-.33 8.77 1.48 17.5 5.14 25.4A55.223 55.223 0 0 0 0 295.43v57.14c0 8.37 1.86 16.31 5.2 23.43-3.34 7.12-5.2 15.06-5.2 23.43v57.14C0 487.13 24.87 512 55.43 512h401.14c30.56 0 55.43-24.87 55.43-55.43v-57.14c0-8.37-1.86-16.31-5.2-23.43 3.33-7.12 5.2-15.06 5.2-23.43v-57.14zM112 456.57c0 4.1-3.33 7.43-7.43 7.43H55.43c-4.1 0-7.43-3.33-7.43-7.43v-57.14c0-4.1 3.33-7.43 7.43-7.43h49.14c4.1 0 7.43 3.33 7.43 7.43v57.14zm0-104c0 4.1-3.33 7.43-7.43 7.43H55.43c-4.1 0-7.43-3.33-7.43-7.43v-57.14c0-4.1 3.33-7.43 7.43-7.43h49.14c4.1 0 7.43 3.33 7.43 7.43v57.14zm21.22-148.4c-5.98 13.92-9.85 28.93-10.74 44.79-.22 3.92-3.26 7.04-7.19 7.04H55.81c-4.25 0-7.82-3.62-7.66-7.86 1.1-29.28 8.33-57 20.37-81.99 1.29-2.67 4.01-4.17 6.8-4.17 1.39 0 2.8.37 4.05 1.15l51.11 31.94c3.09 1.93 4.18 5.75 2.74 9.1zm16.94-33.11c-1.3 0-2.6-.35-3.79-1.09L95.3 138.05c-3.78-2.36-4.79-7.62-2.02-11.11 17.19-21.62 38.54-39.72 62.89-53.12a7.23 7.23 0 0 1 3.5-.89c3.03 0 5.99 1.85 7.17 4.86l22.1 56.24c1.31 3.33-.03 7-3.07 8.89a133.5 133.5 0 0 0-30.09 25.55c-1.47 1.68-3.53 2.59-5.62 2.59zM208 456c0 4.42-3.58 8-8 8h-16c-4.42 0-8-3.58-8-8V203.13c8.16-12.3 19.22-22.32 32-29.78V456zm64 0c0 4.42-3.58 8-8 8h-16c-4.42 0-8-3.58-8-8V161.62c5.23-.89 10.52-1.62 16-1.62s10.77.73 16 1.62V456zm16.88-329.27c-.64 0-1.3-.08-1.94-.24-10.99-2.81-20.99-4.2-30.95-4.2-10.02 0-20 1.41-30.92 4.2-.65.17-1.3.25-1.95.25-2.98 0-5.79-1.7-6.91-4.56l-22.04-56.09c-1.6-4.08.59-8.79 4.8-10C217.1 50.87 236.21 48 256 48s38.9 2.87 57.03 8.08c4.21 1.21 6.4 5.92 4.8 10l-22.04 56.1c-1.12 2.86-3.93 4.55-6.91 4.55zM336 456c0 4.42-3.58 8-8 8h-16c-4.42 0-8-3.58-8-8V173.36c12.78 7.46 23.84 17.47 32 29.78V456zm25.84-284.94c-2.08 0-4.14-.91-5.62-2.6a133.758 133.758 0 0 0-30.09-25.55c-3.04-1.89-4.38-5.56-3.07-8.89l22.1-56.24c1.18-3.01 4.13-4.86 7.17-4.86 1.19 0 2.39.28 3.5.89a208.882 208.882 0 0 1 62.89 53.12c2.77 3.49 1.76 8.75-2.02 11.11l-51.07 31.92c-1.19.75-2.5 1.1-3.79 1.1zm27.68 77.9c-.89-15.85-4.76-30.87-10.74-44.79-1.44-3.35-.35-7.17 2.74-9.1l51.11-31.94a7.639 7.639 0 0 1 4.05-1.15c2.79 0 5.51 1.5 6.8 4.17 12.04 24.99 19.27 52.71 20.37 81.99.16 4.24-3.41 7.86-7.66 7.86H396.7c-3.92 0-6.96-3.12-7.18-7.04zM464 456.57c0 4.1-3.33 7.43-7.43 7.43h-49.14c-4.1 0-7.43-3.33-7.43-7.43v-57.14c0-4.1 3.33-7.43 7.43-7.43h49.14c4.1 0 7.43 3.33 7.43 7.43v57.14zm0-104c0 4.1-3.33 7.43-7.43 7.43h-49.14c-4.1 0-7.43-3.33-7.43-7.43v-57.14c0-4.1 3.33-7.43 7.43-7.43h49.14c4.1 0 7.43 3.33 7.43 7.43v57.14z"/></svg>