<svg xmlns="http://www.w3.org/2000/svg" viewBox="0 0 640 512"><!-- Font Awesome Pro 5.15.4 by @fontawesome - https://fontawesome.com License - https://fontawesome.com/license (Commercial License) --><path d="M621.4 305.2c-6.3-39.7-43.5-50-44.4-50.2-13.8-18.4-32.2-22.3-33.1-22.6V224C544 100.5 443.5.1 320 0 196.5.1 96 100.5 96 224v8.4c-.9.3-19.2 4.2-33.1 22.6-.9.3-38 10.5-44.4 50.2-15 15-23.5 38.8-15.3 63.2-7.8 24.2.5 48 15.7 63 5.2 30.3 28.2 45 44.9 50.1.5.7 23.7 32.6 66 23.9 8.9 4.3 18.7 6.6 29 6.6 36 0 65.3-28.3 65.3-63.1 0-6.9-1.2-13.7-3.6-20.2 6.4-17.6 2.8-32.9.2-40.5 6.1-17.6 2.6-32.7 0-40.3 2.7-7.6 6.2-22.8-.2-40.5 2.4-6.5 3.6-13.3 3.6-20.2 0-34.8-29.3-63.1-65.3-63.1h-14.7c0-97 78.9-176 176-176 97 0 176 79 176 176h-14.7c-36 0-65.3 28.3-65.3 63.1 0 6.9 1.2 13.7 3.6 20.2-6.4 17.6-2.8 32.9-.2 40.5-2.6 7.6-6.1 22.7 0 40.3-2.6 7.6-6.2 22.8.2 40.5-2.4 6.5-3.6 13.3-3.6 20.2 0 34.8 29.3 63.1 65.3 63.1 10.2 0 20.1-2.3 29-6.6 42.3 8.7 65.5-23.2 66-23.9 16.7-5.1 39.7-19.8 44.9-50.1 15.2-15 23.5-38.7 15.7-63 8-24.4-.5-48.2-15.6-63.2zM167.5 314c11.7 10.1 11.1 26.5 0 36 11.7 10.1 11.1 26.5 0 36 11.7 10.1 11.1 26.5 0 36 24.5 21-7.7 57.1-31.4 35.6-16 14.5-41.3 2.5-39.7-19.3-20.5 7.7-38.2-13-30.5-31.6-16.9-4.5-24.1-24.8-11.5-38.7-12.6-13.9-5.4-34.2 11.5-38.8-7.7-18.5 9.7-39.3 30.5-31.6-1.6-21.8 23.6-33.9 39.7-19.3 23.7-21.5 55.8 14.7 31.4 35.7zm406.6 92.8c7.8 18.6-9.9 39.2-30.5 31.6 1.6 21.8-23.6 33.9-39.7 19.3-23.7 21.4-55.9-14.7-31.4-35.7-11.1-9.5-11.7-25.9 0-36-11.1-9.5-11.7-25.9 0-36-11.1-9.5-11.7-25.9 0-36-24.4-21 7.7-57.2 31.4-35.6 16-14.5 41.3-2.5 39.7 19.3 20.7-7.8 38.2 13.1 30.5 31.6 16.9 4.6 24.1 24.9 11.5 38.8 12.6 13.8 5.4 34.1-11.5 38.7z"/></svg>