<svg xmlns="http://www.w3.org/2000/svg" viewBox="0 0 384 512"><!-- Font Awesome Pro 5.15.4 by @fontawesome - https://fontawesome.com License - https://fontawesome.com/license (Commercial License) --><path d="M192 92c-55.12 0-100 44.86-100 100 0 37.5 30.5 68 68 68 15.44 0 28 12.56 28 28s-12.56 28-28 28h-20c-6.62 0-12 5.39-12 12v16c0 6.61 5.38 12 12 12h20c37.5 0 68-30.5 68-68s-30.5-68-68-68c-15.44 0-28-12.56-28-28 0-33.08 26.91-60 60-60s60 26.92 60 60v20c0 6.61 5.38 12 12 12h16c6.62 0 12-5.39 12-12v-20c0-55.14-44.88-100-100-100zm0-92C85.96 0 0 85.96 0 192v176c0 79.53 64.47 144 144 144s144-64.47 144-144v-9.9c57.33-33.21 96-95.08 96-166.1C384 85.96 298.04 0 192 0zm71.94 316.57L240 330.44v37.57c0 52.93-43.06 96-96 96s-96-43.07-96-96V192c0-79.4 64.6-144 144-144s144 64.6 144 144c0 51.09-27.61 98.82-72.06 124.57z"/></svg>