<svg xmlns="http://www.w3.org/2000/svg" viewBox="0 0 640 512"><!-- Font Awesome Pro 5.15.4 by @fontawesome - https://fontawesome.com License - https://fontawesome.com/license (Commercial License) --><path d="M448 64c-106 0-192 86-192 192s86 192 192 192 192-86 192-192S554 64 448 64zm0 336c-79.4 0-144-64.6-144-144s64.6-144 144-144 144 64.6 144 144-64.6 144-144 144zm-192 58l-51.9-77-90.9 17.6 17.6-91.2-76.8-52 76.8-52-17.6-91.2 91 17.6L256 53l31.7 46.9c11.2-11.5 23.7-21.9 37.2-30.8l-35.3-52.4c-15.1-22.3-51.9-22.3-67 0l-40.4 59.9-70.8-13.7C98 60.4 84.5 64.5 75 74.1s-13.7 23.1-11.1 36.3l13.7 71-59.8 40.5C6.6 229.5 0 242 0 255.5s6.7 26 17.8 33.5l59.8 40.5-13.7 71c-2.6 13.2 1.6 26.8 11.1 36.3 9.5 9.5 22.9 13.7 36.3 11.1l70.8-13.7 40.4 59.9C230 505.3 242.6 512 256 512s26-6.7 33.5-17.8l34.8-51.6c-13.5-9-25.8-19.4-37.1-30.9L256 458zm-26.4-251.1c4.3-19.1 11-37.3 19.9-54.3-54.3 3.5-97.5 48.3-97.5 103.4s43.2 99.9 97.5 103.3c-8.9-16.9-15.6-35.1-19.9-54.3-17.5-9.5-29.6-27.8-29.6-49.1s12.1-39.5 29.6-49z"/></svg>