<svg xmlns="http://www.w3.org/2000/svg" viewBox="0 0 512 512"><!-- Font Awesome Pro 5.15.4 by @fontawesome - https://fontawesome.com License - https://fontawesome.com/license (Commercial License) --><path d="M478.32 150.45c-39.5-40.71-100.73-46.29-144.39-82.24S255.63 0 200.54 0a157.74 157.74 0 0 0-25.15 2.1c-86.78 14-111.71 80-125 157.13-11.1 64.34-54.41 127-50 192.91s52.83 128.45 114.97 150.75c17.64 6.32 33.83 9.11 48.92 9.11 64.66 0 108.94-51.18 155.72-95.56 43.68-41.44 93.4-37.72 140.93-73.89 56.28-42.82 71.71-140.55 17.39-192.1zm-46.43 153.84C415.7 316.61 398.22 323 378 330.39c-28.26 10.33-60.29 22-91 51.18-5.51 5.23-11 10.55-16.48 15.88C233.77 433.13 202.05 464 164.28 464c-10.22 0-20.92-2.06-32.72-6.29C87.09 441.7 51.26 395 48.2 349c-1.92-29 10.31-61.4 23.26-95.69 10.3-27.28 21-55.49 26.19-85.85C111.48 87.34 133 57.6 183 49.54a110.62 110.62 0 0 1 17.52-1.49c32.33 0 54.3 17 93.51 49.5l9.39 7.77c25.45 21 54.09 33.12 79.36 43.85 25 10.6 46.52 19.75 61.08 34.76l.69.71.72.68c17.78 16.88 19.27 40.81 18.57 53.57-1.39 26.03-13.95 51.7-31.95 65.4zM224 128.14c-61.72 0-112 50.3-112 112.13s50.24 112.11 112 112.11 112-50.3 112-112.11-50.21-112.13-112-112.13zm0 72.07a40.08 40.08 0 0 0-40 40.06 16 16 0 1 1-32 0 72.13 72.13 0 0 1 72-72.09 16 16 0 0 1 0 32z"/></svg>