<svg xmlns="http://www.w3.org/2000/svg" viewBox="0 0 512 512"><!-- Font Awesome Pro 5.15.4 by @fontawesome - https://fontawesome.com License - https://fontawesome.com/license (Commercial License) --><path d="M230.72 233.72l42.19 11.44c4.19 1.14 7.09 4.55 7.09 8.3 0 4.8-4.5 8.7-10.06 8.7H243.6c-4.15 0-8.23-1.04-11.77-2.95-3.08-1.67-6.84-1.37-9.24 1.18l-12.07 12.73c-3.11 3.28-2.6 8.64 1.13 11.19 8.3 5.65 18.06 8.88 28.35 9.52V304c0 4.42 3.58 8 8 8h16c4.42 0 8-3.58 8-8v-10.25c22.18-1.1 40-18.57 40-40.3 0-18.17-12.62-34.28-30.72-39.17l-42.19-11.44c-4.19-1.14-7.09-4.55-7.09-8.3 0-4.8 4.5-8.7 10.06-8.7h26.34c4.15 0 8.23 1.04 11.77 2.95 3.08 1.66 6.84 1.37 9.24-1.18l12.07-12.73c3.11-3.28 2.6-8.64-1.13-11.19-8.3-5.65-18.06-8.88-28.35-9.52V144c0-4.42-3.58-8-8-8h-16c-4.42 0-8 3.58-8 8v10.25c-22.18 1.1-40 18.57-40 40.3 0 18.17 12.62 34.28 30.72 39.17zm263.87-69.2c-1.52-1.26-13.86-11.2-30.59-24.66V96c0-26.51-21.49-48-48-48h-66.13C327.24 28.85 293.77 0 256 0c-37.65 0-70.9 28.63-93.85 48H96c-26.51 0-48 21.49-48 48v43.85c-16.81 13.52-29.15 23.46-30.48 24.56A48.002 48.002 0 0 0 0 201.48V464c0 26.51 21.49 48 48 48h416c26.51 0 48-21.49 48-48V201.51c0-14.31-6.38-27.88-17.41-36.99zM96 96h320v156.66c-36.26 29.32-78.69 63.67-86.59 69.95C311.25 337.12 279.6 368 256 368c-23.69 0-55.86-31.37-73.41-45.39-7.9-6.28-50.33-40.64-86.59-69.97V96zm368 362c0 3.31-2.69 6-6 6H54c-3.31 0-6-2.69-6-6V275.56c38.96 31.48 95.95 77.65 104.66 84.58C174.71 377.76 212.55 416 256 416c43.21 0 80.64-37.72 103.34-55.86 9-7.15 65.84-53.19 104.66-84.56V458z"/></svg>