<svg xmlns="http://www.w3.org/2000/svg" viewBox="0 0 320 512"><!-- Font Awesome Pro 5.15.4 by @fontawesome - https://fontawesome.com License - https://fontawesome.com/license (Commercial License) --><path d="M315.6 458.6l-6.5-29.4c-1.4-6.5-8-10.6-14.5-9.1-10.3 2.4-26.5 5.4-44.7 5.4-65.5 0-117-39.5-138.2-97.4h129.5c5.7 0 10.6-4 11.7-9.6l5-24c1.5-7.5-4.1-14.4-11.7-14.4h-148c-1.5-16.1-2.1-32.3-.6-48h162.5c5.7 0 10.6-4 11.7-9.5l5.1-24c1.6-7.5-4.1-14.5-11.7-14.5H108.1c21-58.4 72.5-98 140-98 14.7 0 28.9 2.1 38.2 3.8 6.2 1.1 12.2-2.6 13.8-8.7l7.9-29.6c1.8-6.8-2.5-13.6-9.4-14.9-11.4-2.1-29.4-4.7-49.3-4.7-100 0-179.7 64.1-205.9 152H12c-6.6 0-12 5.4-12 12v24c0 6.6 5.4 12 12 12h23.1c-1.2 15.8-1 35.5.4 48H12c-6.6 0-12 5.4-12 12v24c0 6.6 5.4 12 12 12h32.2c26 88.7 103.4 152 205 152 24.4 0 45.4-4.2 57.5-7.2 6.4-1.6 10.3-7.9 8.9-14.2z"/></svg>