<svg xmlns="http://www.w3.org/2000/svg" viewBox="0 0 512 512"><!-- Font Awesome Pro 5.15.4 by @fontawesome - https://fontawesome.com License - https://fontawesome.com/license (Commercial License) --><path d="M508.485 168.485l-100.375 100c-4.686 4.686-12.284 4.686-16.97 0l-19.626-19.626c-4.753-4.753-4.675-12.484.173-17.14L422.916 184H12c-6.627 0-12-5.373-12-12v-24c0-6.627 5.373-12 12-12h410.916l-51.228-47.719c-4.849-4.656-4.927-12.387-.173-17.14l19.626-19.626c4.686-4.686 12.284-4.686 16.97 0l100.375 100c4.685 4.686 4.685 12.284-.001 16.97zm-504.97 192l100.375 100c4.686 4.686 12.284 4.686 16.97 0l19.626-19.626c4.753-4.753 4.675-12.484-.173-17.14L89.084 376H500c6.627 0 12-5.373 12-12v-24c0-6.627-5.373-12-12-12H89.084l51.228-47.719c4.849-4.656 4.927-12.387.173-17.14l-19.626-19.626c-4.686-4.686-12.284-4.686-16.97 0l-100.375 100c-4.686 4.686-4.686 12.284.001 16.97z"/></svg>