<svg xmlns="http://www.w3.org/2000/svg" viewBox="0 0 512 512"><!-- Font Awesome Pro 5.15.4 by @fontawesome - https://fontawesome.com License - https://fontawesome.com/license (Commercial License) --><path d="M508.485 168.48l-96.16 96.16c-7.58 7.58-20.485 2.14-20.485-8.485L391.833 184H12c-6.627 0-12-5.373-12-12v-24c0-6.627 5.373-12 12-12h379.833l.01-72.162c.001-10.683 12.949-16.022 20.485-8.485l96.156 96.156c4.687 4.686 4.688 12.285.001 16.971zM3.515 360.491l96.156 96.156c7.536 7.536 20.484 2.198 20.485-8.485l.01-72.162H500c6.627 0 12-5.373 12-12v-24c0-6.628-5.373-12-12-12H120.167l-.007-72.154c0-10.625-12.905-16.066-20.485-8.485l-96.16 96.16c-4.687 4.685-4.686 12.284 0 16.97z"/></svg>