<svg xmlns="http://www.w3.org/2000/svg" viewBox="0 0 256 512"><!-- Font Awesome Pro 5.15.4 by @fontawesome - https://fontawesome.com License - https://fontawesome.com/license (Commercial License) --><path d="M173.854 48c6.874 0 12.343 5.763 11.984 12.628l-11.742 224c-.334 6.375-5.6 11.372-11.984 11.372H93.888c-6.383 0-11.65-4.997-11.984-11.372l-11.742-224C69.802 53.763 75.271 48 82.146 48h91.708M128 336c35.29 0 64 28.71 64 64s-28.71 64-64 64-64-28.71-64-64 28.71-64 64-64M173.854 0H82.146C47.881 0 20.427 28.783 22.228 63.141l11.742 224c.698 13.309 5.689 25.414 13.592 35.001C28.035 342.31 16 369.777 16 400c0 61.757 50.243 112 112 112s112-50.243 112-112c0-30.223-12.035-57.69-31.561-77.858a59.78 59.78 0 0 0 13.592-35.001l11.742-224C235.566 28.922 208.259 0 173.854 0z"/></svg>