<svg xmlns="http://www.w3.org/2000/svg" viewBox="0 0 448 512"><!-- Font Awesome Pro 5.15.4 by @fontawesome - https://fontawesome.com License - https://fontawesome.com/license (Commercial License) --><path d="M448 80v352c0 26.51-21.49 48-48 48H48c-26.51 0-48-21.49-48-48V80c0-26.51 21.49-48 48-48h352c26.51 0 48 21.49 48 48zm-48 346V86a6 6 0 0 0-6-6H54a6 6 0 0 0-6 6v340a6 6 0 0 0 6 6h340a6 6 0 0 0 6-6zm-134-74c0 23.159-18.841 42-42 42s-42-18.841-42-42 18.841-42 42-42 42 18.841 42 42zm-81.37-211.401l6.8 136c.319 6.387 5.591 11.401 11.985 11.401h41.17c6.394 0 11.666-5.014 11.985-11.401l6.8-136c.343-6.854-5.122-12.599-11.985-12.599h-54.77c-6.863 0-12.328 5.745-11.985 12.599z"/></svg>