<svg xmlns="http://www.w3.org/2000/svg" viewBox="0 0 448 512"><!-- Font Awesome Pro 5.15.4 by @fontawesome - https://fontawesome.com License - https://fontawesome.com/license (Commercial License) --><path d="M252.3 256l121.4 121.4 53.8-53.8c7.6-7.6 20.5-2.2 20.5 8.5v136c0 6.6-5.4 12-12 12H300c-10.7 0-16-12.9-8.5-20.5l53.8-53.8L224 284.3 102.6 405.7l53.8 53.8c7.6 7.6 2.2 20.5-8.5 20.5h-136c-6.6 0-12-5.4-12-12V332c0-10.7 12.9-16 20.5-8.5l53.8 53.8L195.7 256 74.3 134.6l-53.8 53.8C12.9 196 0 190.7 0 180V44c0-6.6 5.4-12 12-12h136c10.7 0 16 12.9 8.5 20.5l-53.8 53.8L224 227.7l121.4-121.4-53.8-53.8C284 44.9 289.3 32 300 32h136c6.6 0 12 5.4 12 12v136c0 10.7-12.9 16-20.5 8.5l-53.8-53.8L252.3 256z"/></svg>