<svg xmlns="http://www.w3.org/2000/svg" viewBox="0 0 448 512"><!-- Font Awesome Pro 5.15.4 by @fontawesome - https://fontawesome.com License - https://fontawesome.com/license (Commercial License) --><path d="M448 56v95.005c0 21.382-25.851 32.09-40.971 16.971l-27.704-27.704-107.242 107.243c-4.686 4.686-12.284 4.686-16.971 0l-22.627-22.627c-4.686-4.686-4.686-12.284 0-16.971l107.243-107.243-27.704-27.704C296.905 57.851 307.613 32 328.995 32H424c13.255 0 24 10.745 24 24zM175.917 264.485L68.674 371.728 40.97 344.024C25.851 328.905 0 339.613 0 360.995V456c0 13.255 10.745 24 24 24h95.005c21.382 0 32.09-25.851 16.971-40.971l-27.704-27.704 107.243-107.243c4.686-4.686 4.686-12.284 0-16.971l-22.627-22.627c-4.687-4.685-12.285-4.685-16.971.001z"/></svg>