<svg xmlns="http://www.w3.org/2000/svg" viewBox="0 0 448 512"><!-- Font Awesome Pro 5.15.4 by @fontawesome - https://fontawesome.com License - https://fontawesome.com/license (Commercial License) --><path d="M0 180V56c0-13.3 10.7-24 24-24h124c6.6 0 12 5.4 12 12v24c0 6.6-5.4 12-12 12H48v100c0 6.6-5.4 12-12 12H12c-6.6 0-12-5.4-12-12zM288 44v24c0 6.6 5.4 12 12 12h100v100c0 6.6 5.4 12 12 12h24c6.6 0 12-5.4 12-12V56c0-13.3-10.7-24-24-24H300c-6.6 0-12 5.4-12 12zm148 276h-24c-6.6 0-12 5.4-12 12v100H300c-6.6 0-12 5.4-12 12v24c0 6.6 5.4 12 12 12h124c13.3 0 24-10.7 24-24V332c0-6.6-5.4-12-12-12zM160 468v-24c0-6.6-5.4-12-12-12H48V332c0-6.6-5.4-12-12-12H12c-6.6 0-12 5.4-12 12v124c0 13.3 10.7 24 24 24h124c6.6 0 12-5.4 12-12z"/></svg>