<svg xmlns="http://www.w3.org/2000/svg" viewBox="0 0 448 512"><!-- Font Awesome Pro 5.15.4 by @fontawesome - https://fontawesome.com License - https://fontawesome.com/license (Commercial License) --><path d="M400 32H48C21.49 32 0 53.49 0 80v352c0 26.51 21.49 48 48 48h352c26.51 0 48-21.49 48-48V80c0-26.51-21.49-48-48-48zm-6 400H54a6 6 0 0 1-6-6V86a6 6 0 0 1 6-6h340a6 6 0 0 1 6 6v340a6 6 0 0 1-6 6zm-54-304H204.015c-10.658 0-16.039 12.93-8.485 20.485l48.187 48.201L99.515 340.888c-4.686 4.686-4.686 12.284 0 16.971l22.627 22.627c4.687 4.686 12.285 4.686 16.971 0l144.201-144.201 48.201 48.192c7.513 7.513 20.485 2.235 20.485-8.485V140c0-6.627-5.373-12-12-12z"/></svg>