<svg xmlns="http://www.w3.org/2000/svg" viewBox="0 0 512 512"><!-- Font Awesome Pro 5.15.4 by @fontawesome - https://fontawesome.com License - https://fontawesome.com/license (Commercial License) --><path d="M483.89 28.14l-.02-.02-.03-.03c-37.47-37.47-98.26-37.46-135.72.03l-77.09 77.09-13.1-13.1c-9.44-9.44-24.65-9.31-33.94 0l-63.6 63.6c-9.37 9.37-9.37 24.57 0 33.94l16.98 16.98L50.75 333.25c-12 12-18.75 28.28-18.75 45.26V424L0 480l32 32 56-32h45.49c16.97 0 33.25-6.74 45.25-18.74l126.64-126.62 16.96 16.96c9.44 9.44 24.65 9.31 33.94 0l63.6-63.6c9.37-9.37 9.37-24.57 0-33.94l-13.1-13.1 77.09-77.09c37.5-37.47 37.5-98.25.02-135.73zM144.8 427.32a15.892 15.892 0 0 1-11.31 4.68H80v-53.49c0-4.27 1.66-8.29 4.69-11.31l126.63-126.62 60.12 60.12L144.8 427.32zm305.14-297.38l-77.09 77.09-33.94 33.94 30.07 30.06-29.66 29.66-128-128 29.66-29.65 30.06 30.07L382.08 62.05c9.05-9.06 21.1-14.05 33.91-14.05 12.82 0 24.86 4.98 33.91 14.04l.04.04C459.01 71.14 464 83.19 464 96.01c0 12.81-5 24.86-14.06 33.93z"/></svg>