<svg xmlns="http://www.w3.org/2000/svg" viewBox="0 0 640 512"><!-- Font Awesome Pro 5.15.4 by @fontawesome - https://fontawesome.com License - https://fontawesome.com/license (Commercial License) --><path d="M610.12 217.47l-94.53-25.09c14.97-23.36 41.28-64.52 41.31-64.56 9.09-14.31 8.16-32.16-2.44-45.44-11-13.81-29.66-19.02-46.62-13.09l-101.62 36.06c-3.97-1.7-8.03-3.31-12.19-4.81l-36.75-77.16C350.41 8.95 336.12 0 320 0s-30.41 8.95-37.28 23.39l-36.75 77.14c-4.16 1.5-8.22 3.11-12.19 4.81L132.16 69.3c-16.94-6.02-35.62-.7-46.62 13.08-10.6 13.28-11.54 31.12-2.42 45.5 0 0 26.31 41.14 41.28 64.5l-94.53 25.09C12 222.2 0 237.69 0 256s12 33.8 29.84 38.53l94.5 25.08c-14.91 23.33-41.22 64.55-41.25 64.58-9.09 14.31-8.16 32.16 2.44 45.44 11 13.83 29.72 19.08 46.62 13.09l101.62-36.06c3.97 1.7 8.03 3.31 12.19 4.81l36.75 77.12C289.59 503.03 303.88 512 320 512s30.41-8.97 37.28-23.41l36.75-77.12c4.16-1.5 8.22-3.11 12.19-4.81l101.62 36.05c16.97 6.05 35.66.73 46.62-13.08 10.59-13.28 11.53-31.12 2.41-45.48 0 0-26.31-41.2-41.22-64.53l94.47-25.08C628 289.8 640 274.31 640 256s-12-33.8-29.88-38.53zm-123.81 60.26l-5 6.67a298.45 298.45 0 0 1-13.78 17.12l-11.81 13.73 9.88 15.17c1.34 2.08 23.72 37.08 38.31 59.95l-100.28-35.58-9.06 4.41c-7.72 3.78-16.12 7.09-24.94 9.83l-10.03 3.12-39.6 83.12-39.59-83.09-10.03-3.12c-8.81-2.73-17.22-6.05-24.94-9.83l-9.06-4.41L136.1 390.4c14.59-22.88 36.94-57.86 38.28-59.89l10.03-15.2-11.94-13.77c-5.12-5.91-9.69-11.64-13.78-17.12l-5-6.67L71.81 256l81.88-21.75 5-6.67c4.12-5.5 8.69-11.23 13.81-17.16l11.91-13.8-10-15.22c-1.5-2.31-23.75-37.05-38.28-59.78l100.25 35.56 9.06-4.41c7.72-3.78 16.12-7.09 24.94-9.83l10.03-3.12L320 56.72l39.59 83.11 10.03 3.12c8.81 2.73 17.22 6.05 24.94 9.83l9.06 4.41 100.25-35.56c-14.53 22.75-36.75 57.44-38.19 59.66l-10.28 15.27 12.09 13.88c5.12 5.92 9.69 11.66 13.81 17.16l5 6.67L568.19 256l-81.88 21.73zm-142.1-55.71c4.41 9.25 7.79 20.41 7.79 33.98 0 42.67-32 64-32 64s-32-21.33-32-64c0-13.57 3.37-24.73 7.79-33.98-20.82-3-39.68-9.76-55.59-19.33C229.99 217.94 224 236.27 224 256c0 53.02 42.98 96 96 96s96-42.98 96-96c0-19.73-5.99-38.06-16.2-53.31-15.9 9.57-34.77 16.33-55.59 19.33z"/></svg>