<svg xmlns="http://www.w3.org/2000/svg" viewBox="0 0 448 512"><!-- Font Awesome Pro 5.15.4 by @fontawesome - https://fontawesome.com License - https://fontawesome.com/license (Commercial License) --><path d="M448,224C448,100.29,347.71,0,224,0S0,100.29,0,224C0,339.6,87.58,434.69,200,446.68V464H112c-21.32,0-41.21,13.89-47.48,33.12C62.11,504.53,68.41,512,76.2,512H371.81c7.78,0,14.08-7.47,11.67-14.88C377.22,477.89,357.32,464,336,464H248V446.68C360.42,434.69,448,339.6,448,224ZM224,400c-97,0-176-78.95-176-176S127,48,224,48s176,79,176,176S321.05,400,224,400ZM354.06,266.31a17.49,17.49,0,0,0,20.34-17.25,87.62,87.62,0,0,0-144.35-66.88L195.62,90.24c-2.57-6.85-13-15.9-25.1-9l0,0a87.06,87.06,0,0,0-40.87,53.25c-8.85,33.12,2.3,86.06,55.38,104.9l-62.65,76.1c-8.76,10.6-1.81,22.47,4.77,26.26a87.71,87.71,0,0,0,119.77-32.11,86.67,86.67,0,0,0,9.95-59.52ZM224,240a16,16,0,1,1,16-16A16,16,0,0,1,224,240Z"/></svg>