<svg xmlns="http://www.w3.org/2000/svg" viewBox="0 0 576 512"><!-- Font Awesome Pro 5.15.4 by @fontawesome - https://fontawesome.com License - https://fontawesome.com/license (Commercial License) --><path d="M112 48a64.07 64.07 0 0 1 64 64v37.43l14.25-28.49a64.12 64.12 0 0 1 31.24-29.86l.38-.17A111.93 111.93 0 0 0 0 112v384a16 16 0 0 0 16 16h112v-48H48V112a64.07 64.07 0 0 1 64-64zm288 176h-64a16 16 0 0 0-16 16v64a16 16 0 0 0 16 16h64a16 16 0 0 0 16-16v-64a16 16 0 0 0-16-16zm172.62 22.22l-55.49-111a32 32 0 0 0-15.62-14.93L381 66.76a32 32 0 0 0-26 0l-120.51 53.56c-5.17 2.3-11 8-10.49 8a31.56 31.56 0 0 0-5.13 6.95l-55.49 111a32.08 32.08 0 0 0-3.38 14.27V512h400a16 16 0 0 0 16-16V260.54a32.08 32.08 0 0 0-3.38-14.32zM528 464H416v-64a16 16 0 0 0-16-16h-64a16 16 0 0 0-16 16v64H208V264.31l51.23-102.46L368 113.51l108.77 48.34L528 264.31z"/></svg>