<svg xmlns="http://www.w3.org/2000/svg" viewBox="0 0 512 512"><!-- Font Awesome Pro 5.15.4 by @fontawesome - https://fontawesome.com License - https://fontawesome.com/license (Commercial License) --><path d="M12 448h24c6.6 0 12-5.4 12-12V277.7c1.1 1.2 2.2 2.4 3.5 3.4l184 159.5c20.6 17.2 52.5 2.8 52.5-24.6V292l171.5 148.6c20.6 17.2 52.5 2.8 52.5-24.6V96c0-27.4-31.9-41.8-52.5-24.6L288 221.1v-125c0-27.4-31.9-41.8-52.5-24.6L51.5 232c-1.3 1.1-2.4 2.2-3.5 3.4V76c0-6.6-5.4-12-12-12H12C5.4 64 0 69.4 0 76v360c0 6.6 5.4 12 12 12zm452-316.8V381L320.4 256.5 464 131.2zm-224 0V381L96.4 256.5 240 131.2z"/></svg>