<svg xmlns="http://www.w3.org/2000/svg" viewBox="0 0 512 512"><!-- Font Awesome Pro 5.15.4 by @fontawesome - https://fontawesome.com License - https://fontawesome.com/license (Commercial License) --><path d="M416,480a32,32,0,0,0,64,0c0-17.67-32-64-32-64S416,462.33,416,480ZM368,160H323.18c-18.67-23.11-44.83-39.81-75.18-45.58V83.6S366.6,96,368,96c8.71,0,16-7.48,16-16.89V48.89C384,39.47,376.74,32,368,32c-1.4,0,6.12-.79-120,13.32V16A16,16,0,0,0,232,0H216a16,16,0,0,0-16,16V45.32C73.88,31.21,81.38,32,80,32c-8.72,0-16,7.47-16,16.89V79.11C64,88.52,71.26,96,80,96c1.43,0,120-12.4,120-12.4v30.82c-30.35,5.77-56.51,22.47-75.18,45.58H16A16,16,0,0,0,0,176v16a16,16,0,0,0,16,16H150.75a79.89,79.89,0,0,1,146.5,0H368a96.1,96.1,0,0,1,96,96v32H400V304a32,32,0,0,0-32-32H297.25a79.89,79.89,0,0,1-146.5,0H16A16,16,0,0,0,0,288v16a16,16,0,0,0,16,16H124.82c23.46,29.05,58.93,48,99.18,48s75.72-18.95,99.18-48H352v16a48,48,0,0,0,48,48h64a48,48,0,0,0,48-48V304C512,224.6,447.4,160,368,160Z"/></svg>