<svg xmlns="http://www.w3.org/2000/svg" viewBox="0 0 512 512"><!-- Font Awesome Pro 5.15.4 by @fontawesome - https://fontawesome.com License - https://fontawesome.com/license (Commercial License) --><path d="M288 368h-32a16 16 0 0 0-16 16v32a16 16 0 0 0 16 16h32a16 16 0 0 0 16-16v-32a16 16 0 0 0-16-16zm192-167.12V77.25a32 32 0 0 0-9.38-22.63L425.38 9.38A32 32 0 0 0 402.75 0H176a32 32 0 0 0-32 32v104.88a63.33 63.33 0 0 0-32-8.88H64a64 64 0 0 0-64 64v256a64 64 0 0 0 64 64h48a63.44 63.44 0 0 0 40-14.41A63.44 63.44 0 0 0 192 512h256a64 64 0 0 0 64-64V256a63.71 63.71 0 0 0-32-55.12zM128 448a16 16 0 0 1-16 16H64a16 16 0 0 1-16-16V192a16 16 0 0 1 16-16h48a16 16 0 0 1 16 16zm64-400h192v32a16 16 0 0 0 16 16h32v96H192zm272 400a16 16 0 0 1-16 16H192a16 16 0 0 1-16-16V240h272a16 16 0 0 1 16 16zM288 272h-32a16 16 0 0 0-16 16v32a16 16 0 0 0 16 16h32a16 16 0 0 0 16-16v-32a16 16 0 0 0-16-16zm96 0h-32a16 16 0 0 0-16 16v32a16 16 0 0 0 16 16h32a16 16 0 0 0 16-16v-32a16 16 0 0 0-16-16zm0 96h-32a16 16 0 0 0-16 16v32a16 16 0 0 0 16 16h32a16 16 0 0 0 16-16v-32a16 16 0 0 0-16-16z"/></svg>