<svg xmlns="http://www.w3.org/2000/svg" viewBox="0 0 320 512"><!-- Font Awesome Pro 5.15.4 by @fontawesome - https://fontawesome.com License - https://fontawesome.com/license (Commercial License) --><path d="M300.6 331.5l-48-139c-3.5-10.2-9.4-19.4-17.4-26.6 15.4-17.6 24.8-40.6 24.8-65.8C260 44.9 215.1 0 160 0S60 44.9 60 100c0 25.2 9.4 48.2 24.8 65.8-7.9 7.3-13.9 16.4-17.4 26.6L19.5 331.2C5.2 374 36.9 416 80 416v32c0 35.3 28.7 64 64 64h32c35.3 0 64-28.7 64-64v-32c44-.2 74.5-42.9 60.6-84.5zM160 48c28.7 0 52 23.3 52 52s-23.3 52-52 52-52-23.3-52-52 23.3-52 52-52zm79.6 320H192v80c0 8.8-7.2 16-16 16h-32c-8.8 0-16-7.2-16-16v-80H80c-10.5 0-18.8-10.2-15.1-21.4L112.8 208c2.2-6.5 8.3-10.9 15.2-10.9h7.9c15.8 3.9 32.4 3.9 48.2 0h7.9c6.9 0 13 4.4 15.2 10.9l48 138.9c3.3 10-3.8 21.1-15.6 21.1z"/></svg>