<svg xmlns="http://www.w3.org/2000/svg" viewBox="0 0 640 512"><!-- Font Awesome Pro 5.15.4 by @fontawesome - https://fontawesome.com License - https://fontawesome.com/license (Commercial License) --><path d="M619.5 96.3L558.8 157l-45.2-45.2 91.2-91.2C612.4 12.9 607 0 596.3 0h-33.9c-3.2 0-6.2 1.3-8.5 3.5L214.7 342.7c-29.4 29.5-75.6-14.8-45.3-45.2 31.2-31.2 31.2-81.9 0-113.1-31.2-31.2-81.8-31.3-113.1 0C20 220.6 0 268.8 0 320.1 0 426.7 86.3 512 192 512c86.5 0 131.8-52.2 153.3-73.7 18.2 43.3 61 73.7 110.7 73.7 66.2 0 120-53.8 120-120 0-49.8-30.5-92.5-73.7-110.7l134.2-134.2c2.3-2.3 3.5-5.3 3.5-8.5v-33.9c0-10.6-12.9-16-20.5-8.4zM192 464c-38.5 0-74.7-14.9-101.8-42C63 394.8 48 358.6 48 320.1c0-38.5 15-74.7 42.2-101.8 29.5-29.6 75.6 14.9 45.2 45.3-31.1 31.2-31.1 81.9.2 113.2 31.1 30.8 81.7 31.3 113-.2l231.1-231.1 45.2 45.2-82.5 82.5c-55.2 6.3-98.7 49.8-105 105C293.3 422.5 262.2 464 192 464zm336-72c0 39.7-32.3 72-72 72s-72-32.3-72-72 32.3-72 72-72 72 32.3 72 72z"/></svg>