<svg xmlns="http://www.w3.org/2000/svg" viewBox="0 0 640 512"><!-- Font Awesome Pro 5.15.4 by @fontawesome - https://fontawesome.com License - https://fontawesome.com/license (Commercial License) --><path d="M520 181.4l-108-12.34L370.22 152h-11.15L288.5 63.79C310.73 62.56 328 56.09 328 48c0-9-21.38-16-47.19-16H128v32h16v63.53L119.48 96h-74.3L8 133.18v62.12l-8 1v119.42l8 1v62.12L45.18 416h74.3L144 384.47V448h-16v32h152.81c25.81 0 47.19-7 47.19-16 0-8.09-17.27-14.56-39.5-15.79L359.07 360h11.15L412 342.94l108-12.34c61-13.55 120.35-22 120-74.6.3-52.76-59.54-61.15-120-74.6zm-8 101.8L400 296l-39.2 16H336l-96 120h-48V296h-40l-56 72H65.07L56 358.93V304h8v-16h40v-8l-56-6.8v-34.4l56-6.8v-8H64v-16h-8v-54.93l9.07-9.07H96l56 72h40V80h48l96 120h24.8l39.2 16 112 12.8c81.6 18.13 80 22.6 80 27.2s1.6 9.07-80 27.2z"/></svg>