<svg xmlns="http://www.w3.org/2000/svg" viewBox="0 0 384 512"><!-- Font Awesome Pro 5.15.4 by @fontawesome - https://fontawesome.com License - https://fontawesome.com/license (Commercial License) --><path d="M224 232c0-4.4-3.6-8-8-8h-48c-4.4 0-8 3.6-8 8v56h-56c-4.4 0-8 3.6-8 8v48c0 4.4 3.6 8 8 8h56v56c0 4.4 3.6 8 8 8h48c4.4 0 8-3.6 8-8v-56h56c4.4 0 8-3.6 8-8v-48c0-4.4-3.6-8-8-8h-56v-56zM369.8 98l-83.9-83.9C276.9 5.1 264.7 0 252 0H48C21.5.1 0 21.6 0 48.1V464c0 26.5 21.5 48 48 48h287.9c26.5 0 48.1-21.5 48.1-48V132c0-12.7-5.2-25-14.2-34zM255.9 52l76.1 76.1h-76.1V52zM336 464H48V48.1h160v104c0 13.3 10.7 24 24 24h104V464z"/></svg>