<svg xmlns="http://www.w3.org/2000/svg" viewBox="0 0 384 512"><!-- Font Awesome Pro 5.15.4 by @fontawesome - https://fontawesome.com License - https://fontawesome.com/license (Commercial License) --><path d="M369.83 97.98L285.94 14.1c-9-9-21.2-14.1-33.89-14.1H47.99C21.5.1 0 21.6 0 48.09v415.92C0 490.5 21.5 512 47.99 512h287.94c26.5 0 48.07-21.5 48.07-47.99V131.97c0-12.69-5.17-24.99-14.17-33.99zM255.95 51.99l76.09 76.08h-76.09V51.99zM336 464.01H47.99V48.09h159.97v103.98c0 13.3 10.7 23.99 24 23.99H336v287.95zM208 216c0-4.42-3.58-8-8-8h-16c-4.42 0-8 3.58-8 8v24.12c-23.62.63-42.67 20.55-42.67 45.07 0 19.97 12.98 37.81 31.58 43.39l45 13.5c5.16 1.55 8.77 6.78 8.77 12.73 0 7.27-5.3 13.19-11.8 13.19h-28.11c-4.56 0-8.96-1.29-12.82-3.72-3.24-2.03-7.36-1.91-10.13.73l-11.75 11.21c-3.53 3.37-3.33 9.21.57 12.14 9.1 6.83 20.08 10.77 31.37 11.35V424c0 4.42 3.58 8 8 8h16c4.42 0 8-3.58 8-8v-24.12c23.62-.63 42.67-20.54 42.67-45.07 0-19.97-12.98-37.81-31.58-43.39l-45-13.5c-5.16-1.55-8.77-6.78-8.77-12.73 0-7.27 5.3-13.19 11.8-13.19h28.11c4.56 0 8.96 1.29 12.82 3.72 3.24 2.03 7.36 1.91 10.13-.73l11.75-11.21c3.53-3.37 3.33-9.21-.57-12.14-9.1-6.83-20.08-10.77-31.37-11.35V216zM88 112h80c4.42 0 8-3.58 8-8V88c0-4.42-3.58-8-8-8H88c-4.42 0-8 3.58-8 8v16c0 4.42 3.58 8 8 8zm88 56v-16c0-4.42-3.58-8-8-8H88c-4.42 0-8 3.58-8 8v16c0 4.42 3.58 8 8 8h80c4.42 0 8-3.58 8-8z"/></svg>