<svg xmlns="http://www.w3.org/2000/svg" viewBox="0 0 384 512"><!-- Font Awesome Pro 5.15.4 by @fontawesome - https://fontawesome.com License - https://fontawesome.com/license (Commercial License) --><path d="M144 271.29V370a69.27 69.27 0 0 0-16-2c-26.5 0-48 14.32-48 32s21.5 32 48 32 48-14.32 48-32v-84.81l96-37.51V338a69.82 69.82 0 0 0-16-2c-26.5 0-48 14.33-48 32s21.5 32 48 32 48-14.32 48-32V224a16 16 0 0 0-20.81-15.24l-128 47.24A16 16 0 0 0 144 271.29zM369.91 98L286 14.09A48 48 0 0 0 252.09 0H48A48.15 48.15 0 0 0 0 48.08V464a48 48 0 0 0 48 48h288a48 48 0 0 0 48-48V132a48.22 48.22 0 0 0-14.09-34zM256 52l76.09 76.08H256zm80 412H48V48.08h160v104a23.93 23.93 0 0 0 24 24h104z"/></svg>