<svg xmlns="http://www.w3.org/2000/svg" viewBox="0 0 448 512"><!-- Font Awesome Pro 5.15.4 by @fontawesome - https://fontawesome.com License - https://fontawesome.com/license (Commercial License) --><path d="M433.94 65.94l-51.88-51.88A48 48 0 0 0 348.12 0H176a48 48 0 0 0-48 48v48H48a48 48 0 0 0-48 48v320a48 48 0 0 0 48 48h224a48 48 0 0 0 48-48v-48h80a48 48 0 0 0 48-48V99.88a48 48 0 0 0-14.06-33.94zM352 51.88L396.12 96H352zM272 458a6 6 0 0 1-6 6H54a6 6 0 0 1-6-6V150a6 6 0 0 1 6-6h74v224a48 48 0 0 0 48 48h96zm128-96a6 6 0 0 1-6 6H182a6 6 0 0 1-6-6V54a6 6 0 0 1 6-6h122v64a32 32 0 0 0 32 32h64zm-85.33-179.34A6.67 6.67 0 0 0 308 176h-40a6.67 6.67 0 0 0-6.67 6.66v46.67h-46.66A6.67 6.67 0 0 0 208 236v40a6.67 6.67 0 0 0 6.67 6.66h46.66v46.67A6.67 6.67 0 0 0 268 336h40a6.67 6.67 0 0 0 6.67-6.67v-46.67h46.66A6.67 6.67 0 0 0 368 276v-40a6.67 6.67 0 0 0-6.67-6.67h-46.66z"/></svg>