<svg xmlns="http://www.w3.org/2000/svg" viewBox="0 0 512 512"><!-- Font Awesome Pro 5.15.4 by @fontawesome - https://fontawesome.com License - https://fontawesome.com/license (Commercial License) --><path d="M497.83 97.98L413.94 14.1c-9-9-21.2-14.1-33.89-14.1H175.99C149.5.1 128 21.6 128 48.09v215.98H12c-6.63 0-12 5.37-12 12v24c0 6.63 5.37 12 12 12h276v48.88c0 10.71 12.97 16.05 20.52 8.45l71.77-72.31c4.95-4.99 4.95-13.04 0-18.03l-71.77-72.31c-7.55-7.6-20.52-2.26-20.52 8.45v48.88H175.99V48.09h159.97v103.98c0 13.3 10.7 23.99 24 23.99H464v287.95H175.99V360.07H128v103.94c0 26.49 21.5 47.99 47.99 47.99h287.94c26.5 0 48.07-21.5 48.07-47.99V131.97c0-12.69-5.17-24.99-14.17-33.99zm-113.88 30.09V51.99l76.09 76.08h-76.09z"/></svg>