<svg xmlns="http://www.w3.org/2000/svg" viewBox="0 0 384 512"><!-- Font Awesome Pro 5.15.4 by @fontawesome - https://fontawesome.com License - https://fontawesome.com/license (Commercial License) --><path d="M369.83 97.98L285.94 14.1c-9-9-21.2-14.1-33.89-14.1H47.99C21.5.1 0 21.6 0 48.09v415.92C0 490.5 21.5 512 47.99 512h287.94c26.5 0 48.07-21.5 48.07-47.99V131.97c0-12.69-5.17-24.99-14.17-33.99zM255.95 51.99l76.09 76.08h-76.09V51.99zM336 464.01H47.99V48.09h159.97v103.98c0 13.3 10.7 23.99 24 23.99H336v287.95zM128 272c0 35.35 28.65 64 64 64s64-28.65 64-64-28.65-64-64-64-64 28.65-64 64zm103.85 80c-12.29 5.12-25.73 8-39.85 8s-27.56-2.88-39.85-8h-4.95c-37.11 0-67.2 25.79-67.2 57.6v6.4c0 8.84 7.16 16 16 16h192c8.84 0 16-7.16 16-16v-6.4c0-31.81-30.09-57.6-67.2-57.6h-4.95z"/></svg>