<svg xmlns="http://www.w3.org/2000/svg" viewBox="0 0 384 512"><!-- Font Awesome Pro 5.15.4 by @fontawesome - https://fontawesome.com License - https://fontawesome.com/license (Commercial License) --><path d="M369.9,97.9,286,14A48,48,0,0,0,252.1-.1H48A48.16,48.16,0,0,0,0,48V464a48,48,0,0,0,48,48H336a48,48,0,0,0,48-48V131.9A48.23,48.23,0,0,0,369.9,97.9ZM256,51.9,332.1,128H256ZM336,464H48V48H208V152a23.94,23.94,0,0,0,24,24H336ZM215,223.75a16,16,0,0,0-16-16H183a16,16,0,0,0-16,16v56.5h-55.5a16,16,0,0,0-16,16v16a16,16,0,0,0,16,16H167v56a16,16,0,0,0,16,16h16a16,16,0,0,0,16-16v-56h56.5a16,16,0,0,0,16-16v-16a16,16,0,0,0-16-16H215Z"/></svg>