<svg xmlns="http://www.w3.org/2000/svg" viewBox="0 0 576 512"><!-- Font Awesome Pro 5.15.4 by @fontawesome - https://fontawesome.com License - https://fontawesome.com/license (Commercial License) --><path d="M568.54 167.33l-31.87-31.87c-9.94-9.94-26.07-9.94-36.01 0l-27.25 27.25 67.88 67.88 27.25-27.25c9.95-9.94 9.95-26.07 0-36.01zM329.06 306a63.974 63.974 0 0 0-16.26 27.11L297.57 384h-24.76c-4.28 0-8.12-2.38-10.16-6.5-11.97-23.86-46.28-30.34-66-14.17l-13.88-41.62c-3.28-9.81-12.44-16.41-22.78-16.41s-19.5 6.59-22.78 16.41L119 376.36c-1.5 4.58-5.78 7.64-10.59 7.64H96c-8.84 0-16 7.16-16 16s7.16 16 16 16h12.41c18.62 0 35.09-11.88 40.97-29.53L160 354.58l16.81 50.48a15.994 15.994 0 0 0 14.06 10.89c.38.03.75.05 1.12.05 6.03 0 11.59-3.41 14.31-8.86l7.66-15.33c2.78-5.59 7.94-6.19 10.03-6.19s7.25.59 10.19 6.53c7.38 14.7 22.19 23.84 38.62 23.84H336V464H47.99V48.09h159.97v103.98c0 13.3 10.7 23.99 24 23.99H336v78l48-47.58v-74.5c0-12.7-5.17-25-14.17-33.99L285.94 14.1c-9-9-21.2-14.1-33.89-14.1H47.99C21.5.1 0 21.6 0 48.09v415.92C0 490.5 21.5 512 47.99 512h287.94c26.5 0 48.07-21.5 48.07-47.99V388.8l134.66-135.58-67.88-67.88L329.06 306zM255.95 51.99l76.09 76.08h-76.09V51.99z"/></svg>