<svg xmlns="http://www.w3.org/2000/svg" viewBox="0 0 512 512"><!-- Font Awesome Pro 5.15.4 by @fontawesome - https://fontawesome.com License - https://fontawesome.com/license (Commercial License) --><path d="M497.83 97.98L413.94 14.1c-9-9-21.2-14.1-33.89-14.1H175.99C149.5.1 128 21.6 128 48.09V128h47.99V48.09h159.97v103.98c0 13.3 10.7 23.99 24 23.99H464v287.95H224V512h239.93c26.5 0 48.07-21.5 48.07-47.99V131.97c0-12.69-5.17-24.99-14.17-33.99zm-113.88 30.09V51.99l76.09 76.08h-76.09zM247.42 338.28c7.4-7.53 10.29-18.5 7.58-28.79-5.43-20.65-5.44-17.74 0-38.42 2.71-10.29-.18-21.26-7.58-28.79-14.86-15.12-13.43-12.61-18.87-33.27-2.71-10.29-10.6-18.32-20.71-21.07-20.28-5.53-17.84-4.1-32.69-19.21-7.4-7.53-18.18-10.47-28.29-7.71-20.32 5.54-17.46 5.53-37.75 0-10.1-2.76-20.88.19-28.28 7.71-14.91 15.18-12.5 13.7-32.69 19.21-10.11 2.76-18 10.79-20.71 21.07-5.46 20.74-4 18.13-18.87 33.27-7.4 7.53-10.29 18.5-7.58 28.79 5.45 20.71 5.42 17.79 0 38.42-2.71 10.29.18 21.26 7.58 28.79 14.85 15.11 13.43 12.61 18.87 33.27 2.71 10.29 10.6 18.32 20.71 21.07 14.31 3.9 11.52 2.97 15.84 5V512l64-32 64 32V397.62c4.31-2.02 1.52-1.1 15.84-5 10.11-2.76 18-10.79 20.71-21.07 5.48-20.75 4.02-18.14 18.89-33.27zM128 352c-35.34 0-64-28.65-64-64s28.66-64 64-64 64 28.65 64 64-28.66 64-64 64z"/></svg>