<svg xmlns="http://www.w3.org/2000/svg" viewBox="0 0 384 512"><!-- Font Awesome Pro 5.15.4 by @fontawesome - https://fontawesome.com License - https://fontawesome.com/license (Commercial License) --><path d="M369.9,98,286,14.1A48,48,0,0,0,252.1,0H48A48.16,48.16,0,0,0,0,48.1v416a48,48,0,0,0,48,48H336a48,48,0,0,0,48-48V132A48.23,48.23,0,0,0,369.9,98ZM256,52l76.1,76.1H256Zm80,412.1H48V48.1H208v104a23.94,23.94,0,0,0,24,24H336ZM111.48,280.35a16,16,0,0,0-16,16v16a16,16,0,0,0,16,16h160a16,16,0,0,0,16-16v-16a16,16,0,0,0-16-16Z"/></svg>