<svg xmlns="http://www.w3.org/2000/svg" viewBox="0 0 384 512"><!-- Font Awesome Pro 5.15.4 by @fontawesome - https://fontawesome.com License - https://fontawesome.com/license (Commercial License) --><path d="M369.9 97.9L286 14C277 5 264.8-.1 252.1-.1H48C21.5 0 0 21.5 0 48v416c0 26.5 21.5 48 48 48h288c26.5 0 48-21.5 48-48V131.9c0-12.7-5.1-25-14.1-34zM332.1 128H256V51.9l76.1 76.1zM48 464V48h160v104c0 13.3 10.7 24 24 24h104v288H48zm163.1-229.9l46.8 46.8c2 2 2 5.2 0 7.2L143.4 402.6 95.2 408c-6.4.7-11.9-4.7-11.2-11.2l5.4-48.2 114.5-114.5c2-2 5.2-2 7.2 0zm83 17.8l-19.5 19.5c-2 2-5.2 2-7.2 0l-46.8-46.8c-2-2-2-5.2 0-7.2l19.5-19.5c7.9-7.9 20.7-7.9 28.6 0l25.4 25.4c7.9 7.9 7.9 20.7 0 28.6z"/></svg>