<svg xmlns="http://www.w3.org/2000/svg" viewBox="0 0 384 512"><!-- Font Awesome Pro 5.15.4 by @fontawesome - https://fontawesome.com License - https://fontawesome.com/license (Commercial License) --><path d="M369.83 97.98L285.94 14.1c-9-9-21.2-14.1-33.89-14.1H47.99C21.5.1 0 21.6 0 48.09v415.92C0 490.5 21.5 512 47.99 512h287.94c26.5 0 48.07-21.5 48.07-47.99V131.97c0-12.69-5.17-24.99-14.17-33.99zM255.95 51.99l76.09 76.08h-76.09V51.99zM336 464.01H47.99V48.09h159.97v103.98c0 13.3 10.7 23.99 24 23.99H336v287.95zM224.97 330.34l-32.3-32.3C211.17 288.9 224 270.03 224 248c0-30.93-25.07-56-56-56h-64c-4.42 0-8 3.58-8 8v144c0 4.42 3.58 8 8 8h16c4.42 0 8-3.58 8-8v-40h25.37l48.97 48.97c-1.15.38-2.4.46-3.31 1.37l-36.69 36.69c-3.12 3.12-3.12 8.19 0 11.31l11.31 11.31c3.12 3.12 8.19 3.12 11.31 0l36.69-36.69c.92-.92.99-2.16 1.37-3.31l40 40c3.12 3.12 8.19 3.12 11.31 0l11.31-11.31c3.12-3.12 3.12-8.19 0-11.31l-40-40c1.15-.38 2.4-.46 3.31-1.37l36.69-36.69c3.12-3.12 3.12-8.19 0-11.31l-11.31-11.31c-3.12-3.12-8.19-3.12-11.31 0l-36.69 36.69c-.9.9-.98 2.15-1.36 3.3zM168 272h-40v-48h40c13.23 0 24 10.77 24 24s-10.77 24-24 24z"/></svg>