<svg xmlns="http://www.w3.org/2000/svg" viewBox="0 0 576 512"><!-- Font Awesome Pro 5.15.4 by @fontawesome - https://fontawesome.com License - https://fontawesome.com/license (Commercial License) --><path d="M512 320s-64 92.65-64 128c0 35.35 28.66 64 64 64s64-28.65 64-64-64-128-64-128zm-9.37-102.94L294.94 9.37A31.94 31.94 0 0 0 272.31 0c-8.19 0-16.38 3.12-22.62 9.37L162.5 96.56 70.62 4.69c-6.25-6.25-16.38-6.25-22.63 0L36.69 16c-6.25 6.25-6.25 16.38 0 22.63l91.88 91.88L28.11 230.95c-37.49 37.48-37.49 98.26 0 135.75L145.3 483.89c18.74 18.74 43.31 28.12 67.87 28.12 24.57 0 49.13-9.37 67.87-28.12l221.57-221.57c12.51-12.51 12.51-32.76.02-45.26zM247.11 449.95C238.05 459.01 226 464 213.18 464s-24.87-4.99-33.93-14.05L65.3 336h295.75L247.11 449.95zM409.06 288H49.34c2-8.67 6.27-16.67 12.71-23.11L162.5 164.44l69.9 69.9c9.37 9.37 24.56 9.37 33.94 0 9.37-9.37 9.37-24.57 0-33.94l-69.9-69.9 75.87-75.87 185.05 185.06-48.3 48.31z"/></svg>