<svg xmlns="http://www.w3.org/2000/svg" viewBox="0 0 576 512"><!-- Font Awesome Pro 5.15.4 by @fontawesome - https://fontawesome.com License - https://fontawesome.com/license (Commercial License) --><path d="M544 112H320V80h16a16 16 0 0 0 16-16V48a16 16 0 0 0-16-16h-80V16a16 16 0 0 0-16-16H112a16 16 0 0 0-16 16v16H16A16 16 0 0 0 0 48v16a16 16 0 0 0 16 16h16v384H16a16 16 0 0 0-16 16v16a16 16 0 0 0 16 16h320a16 16 0 0 0 16-16v-16a16 16 0 0 0-16-16h-16v-32h160a32 32 0 0 0 32-32v-48a32 32 0 0 1 32-32 32 32 0 0 0 32-32V144a32 32 0 0 0-32-32zM80 464V80h192v384zm344-104a16 16 0 0 1-16 16h-16a16 16 0 0 1-16-16v-16a16 16 0 0 1 16-16h16a16 16 0 0 1 16 16zm0-160a16 16 0 0 1-16 16h-16a16 16 0 0 1-16-16v-16a16 16 0 0 1 16-16h16a16 16 0 0 1 16 16zm96 0a16 16 0 0 1-16 16h-16a16 16 0 0 1-16-16v-16a16 16 0 0 1 16-16h16a16 16 0 0 1 16 16z"/></svg>