<svg xmlns="http://www.w3.org/2000/svg" viewBox="0 0 576 512"><!-- Font Awesome Pro 5.15.4 by @fontawesome - https://fontawesome.com License - https://fontawesome.com/license (Commercial License) --><path d="M456 272c-27.3 0-53.1 9.2-74 25.8-23.9-26.3-57.8-41.8-94-41.8s-70.1 15.5-94 41.8c-20.9-16.6-46.6-25.8-74-25.8C53.8 272 0 325.8 0 392s53.8 120 120 120h336c66.2 0 120-53.8 120-120s-53.8-120-120-120zm0 192H120c-39.7 0-72-32.3-72-72s32.3-72 72-72c22.7 0 43.7 10.7 57.6 29.3l22.5 30.2 17.9-33.1c14-26.2 40.9-42.4 70-42.4s56 16.2 70.1 42.3l17.9 33.1 22.5-30.2c13.8-18.6 34.8-29.3 57.6-29.3 39.7 0 72 32.3 72 72S495.7 464 456 464zM320 200s-70.2-71.7-75.4-77.9c-36.2 44.9-54.4 71.2-54.4 101.1 0 11.4 2 21.6 5 31.3C222.1 235 254.5 224 288 224c32.4 0 63.7 10.5 90.1 28.7 5.9-22.8 3.7-48-7.4-69.9-2.5-5-5.3-10.1-8.4-15.4L320 200zm-200 40c15.7 0 30.9 2.6 45.4 7.2-3.2-10.9-5.4-22.3-5.4-34.2 0-29.8 31.5-89.7 84.2-146.1 14.5 15.1 27.9 30.7 39.5 46.1l36.1 47.9 38.8-45.8c2.1-2.5 4.2-4.9 6.4-7.3 31.9 40.9 51 87.8 51 105.2 0 11.9-2.2 23.3-5.4 34.2 14.5-4.6 29.7-7.2 45.4-7.2 1.9 0 3.7.5 5.6.6 1.5-9 2.4-18.2 2.4-27.6 0-40.3-40.8-123.4-97.8-174.2-16.3 14.6-31.1 29.9-44.2 45.4-21.4-28.5-47.9-57.3-78-84.2-77.2 68.9-132 158.8-132 213 0 9.4 1 18.6 2.4 27.6 1.9-.1 3.7-.6 5.6-.6z"/></svg>