<svg xmlns="http://www.w3.org/2000/svg" viewBox="0 0 640 512"><!-- Font Awesome Pro 5.15.4 by @fontawesome - https://fontawesome.com License - https://fontawesome.com/license (Commercial License) --><path d="M342.3 311.6c-14-18.8-31.4-37.8-51.1-55.6-50.5 45.6-86.4 105-86.4 140.8 0 63.6 51.6 115.2 115.2 115.2s115.2-51.6 115.2-115.2c0-26.6-26.7-81.6-64-115.2-10.7 9.6-20.4 19.8-28.9 30zm15.5 136.9c-10.6 7.7-23.7 12.3-37.8 12.3-35.3 0-64-24.4-64-64 0-19.7 11.9-37.1 35.6-66.8 3.4 4.1 48.3 64.1 48.3 64.1l28.7-34.2c2 3.5 3.9 6.9 5.5 10.2 13.4 26.6 7.8 60.8-16.3 78.4zM624 0H16C7.2 0 0 7.2 0 16v112c0 8.8 7.2 16 16 16h16v344c0 13.3 10.7 24 24 24h80c13.3 0 24-10.7 24-24v-96.6c0-83.7 60.9-158.7 144.2-166.7 5.3-.5 10.6-.8 15.8-.8 88.4 0 160 71.6 160 160v104c0 13.3 10.7 24 24 24h80c13.3 0 24-10.7 24-24V144h16c8.8 0 16-7.2 16-16V16c0-8.8-7.2-16-16-16zm-64 464h-32v-80c0-114.7-93.3-208-208-208-6.7 0-13.5.3-20.3 1C194.5 187 112 281 112 390.9V464H80V144h480v320zm32-368H48V48h544v48z"/></svg>