<svg xmlns="http://www.w3.org/2000/svg" viewBox="0 0 448 512"><!-- Font Awesome Pro 5.15.4 by @fontawesome - https://fontawesome.com License - https://fontawesome.com/license (Commercial License) --><path d="M420.054 20.658l-144 24C264.919 46.514 256 54.906 256 72h-58.332C208.353 36.108 181.446 0 144 0c-39.435 0-66.368 39.676-52.228 76.203-52.039 13.051-75.381 54.213-90.049 90.884-4.923 12.307 1.063 26.274 13.37 31.197 12.317 4.926 26.279-1.075 31.196-13.37C75.058 112.99 106.964 120 168 120v27.076c-41.543 10.862-72 49.235-72 94.129V488c0 13.255 10.745 24 24 24h144c13.255 0 24-10.745 24-24V240c0-44.731-30.596-82.318-72-92.975V120h40c0 16.871 8.727 25.454 20.054 27.342l144 24C434.681 173.78 448 162.501 448 147.669V44.331c0-14.829-13.316-26.112-27.946-23.673zM144 72c-8.822 0-16-7.178-16-16s7.178-16 16-16 16 7.178 16 16-7.178 16-16 16zm96 168v224h-96V241.205c0-26.936 21.366-49.009 47.632-49.204L192 192c26.467 0 48 21.533 48 48zm168-111.218l-112-18.667v-28.23l112-18.667v65.564z"/></svg>