<svg xmlns="http://www.w3.org/2000/svg" viewBox="0 0 576 512"><!-- Font Awesome Pro 5.15.4 by @fontawesome - https://fontawesome.com License - https://fontawesome.com/license (Commercial License) --><path d="M200 288h56v56c0 4.4 3.6 8 8 8h48c4.4 0 8-3.6 8-8v-56h56c4.4 0 8-3.6 8-8v-48c0-4.4-3.6-8-8-8h-56v-56c0-4.4-3.6-8-8-8h-48c-4.4 0-8 3.6-8 8v56h-56c-4.4 0-8 3.6-8 8v48c0 4.4 3.6 8 8 8zM528 32H48C21.5 32 0 53.5 0 80v352c0 26.5 21.5 48 48 48h480c26.5 0 48-21.5 48-48V80c0-26.5-21.5-48-48-48zM96 432H54c-3.3 0-6-2.7-6-6V86c0-3.3 2.7-6 6-6h42v352zm336 0H144V80h288v352zm96-6c0 3.3-2.7 6-6 6h-42V80h42c3.3 0 6 2.7 6 6v340z"/></svg>