<svg xmlns="http://www.w3.org/2000/svg" viewBox="0 0 512 512"><!-- Font Awesome Pro 5.15.4 by @fontawesome - https://fontawesome.com License - https://fontawesome.com/license (Commercial License) --><path d="M472.5 0c-7 0-14.3 1.5-21.2 4.6-50.5 22.7-87.8 30.3-119.1 30.3C266.1 34.9 227.7.4 151.4.4c-28.4 0-62.2 4.9-104.5 18C44.3 7.9 35.3 0 24 0 10.7 0 0 10.7 0 24v476c0 6.6 5.4 12 12 12h24c6.6 0 12-5.4 12-12V398.1c37.3-11.8 69.6-16.5 98.5-16.5 81.2 0 137.8 34.4 219.1 34.4 35.3 0 75.1-6.5 123.7-25 14-5.4 22.8-17.9 22.8-31.2V33.4C512 13 493.4 0 472.5 0zM464 349.1c-35.3 12.7-67.6 18.9-98.5 18.9-75.5 0-128.5-34.4-219.1-34.4-31.9 0-64.5 4.7-98.5 14.2V68.5C87.7 55 121.7 48.4 151.4 48.4c66.3 0 105.2 34.5 180.8 34.5 40.3 0 82.3-10 131.8-31.5v297.7z"/></svg>