<svg xmlns="http://www.w3.org/2000/svg" viewBox="0 0 512 512"><!-- Font Awesome Pro 5.15.4 by @fontawesome - https://fontawesome.com License - https://fontawesome.com/license (Commercial License) --><path d="M472.5 0c-7 0-14.3 1.5-21.2 4.6-50.5 22.7-87.8 30.3-119.1 30.3C266.1 34.9 227.7.4 151.4.4c-28.4 0-62.2 4.9-104.5 18C44.3 7.9 35.3 0 24 0 10.7 0 0 10.7 0 24v476c0 6.6 5.4 12 12 12h24c6.6 0 12-5.4 12-12V398.1c37.3-11.8 69.6-16.5 98.5-16.5 81.2 0 137.8 34.4 219.1 34.4 35.3 0 75.1-6.5 123.7-25 14-5.4 22.8-17.9 22.8-31.2V33.4C512 13 493.4 0 472.5 0zM176 40c8.8 0 16 7.2 16 16s-7.2 16-16 16-16-7.2-16-16 7.2-16 16-16zm0 56c8.8 0 16 7.2 16 16s-7.2 16-16 16-16-7.2-16-16 7.2-16 16-16zm-72-56c8.8 0 16 7.2 16 16s-7.2 16-16 16-16-7.2-16-16 7.2-16 16-16zm0 56c8.8 0 16 7.2 16 16s-7.2 16-16 16-16-7.2-16-16 7.2-16 16-16zm360 253.1c-79 28.4-125.8 20.7-196.4 3.1-73-18.2-132.2-28.8-219.6-4.4v-55.3c92.6-32.5 146-19.4 202.2-5.2C304.4 301 363.8 317.4 464 286v63.1zm0-113.6c-92.5 32.4-146 19.4-202.1 5.2-57.5-14.5-117.4-29-213.9 1.3v-61.6c92.6-32.5 146-19.4 202.2-5.2C304.4 189 363.8 205.4 464 174v61.5zm0-112c-96.5 33.8-150.9 18.1-208 3.7V71c22.2 6.4 46.9 11.9 76.2 11.9 40.3 0 82.3-10 131.8-31.5v72.1z"/></svg>