<svg xmlns="http://www.w3.org/2000/svg" viewBox="0 0 512 512"><!-- Font Awesome Pro 5.15.4 by @fontawesome - https://fontawesome.com License - https://fontawesome.com/license (Commercial License) --><path d="M448 327.4V258c-15.5 9.4-44 19-72 22.9v70.4c28.7-2.8 54.8-13.5 72-23.9zm0-207.3c-21.2 8.1-46.7 15.8-72 20.2v70.6c25-4 48.6-12.5 72-21.4zM88 336.8c21.7-7 47.2-11.9 72-14.5v-70.1c-24.3 2.4-48 7.6-72 15.3zm357.1-285C409.2 67.3 371.6 80 336.2 80c-49.1 0-93.3-32-161.9-32-31.3 0-58.3 6.5-80.8 15.2 2.2-6.7 3-13.7 2.1-20.7C93.1 19.6 74.2 1.6 51.2.1 23.2-1.7 0 20.4 0 48c0 17.8 9.7 33.3 24 41.6V496c0 8.8 7.2 16 16 16h16c8.8 0 16-7.2 16-16v-83.4c37.9-17.3 71.3-28.6 127.8-28.6 49.1 0 93.3 32 161.9 32 58.5 0 102-22.6 128.5-40 13.6-8.9 21.7-24 21.7-40.2V95.9c.1-34.4-35.2-57.7-66.8-44.1zM464 336c-21.8 15.4-60.8 32-102.3 32-59.9 0-102-32-161.9-32-43.4 0-96.4 9.4-127.8 24V128c21.8-15.4 60.8-32 102.3-32 59.9 0 102 32 161.9 32 43.3 0 96.3-17.4 127.8-32zM88 136.6V206c15.5-9.4 44-19 72-22.9v-70.4c-28.7 2.8-54.8 13.4-72 23.9zm72 46.5v69.1c30.5-3 51.4-1.3 72 3.1v-67c-28.5-7.6-48.7-8.4-72-5.2zm144 92.7c-23.7-6.2-46.5-15.2-72-20.5v67.5c25.9 4.3 48.9 12.9 72 19.6v-66.6c28.5 7.5 48.7 8.3 72 5.2v-70c-23.8 3.8-46.5 3.3-72-2.1zm0-134.5c-25.9-4.3-48.8-12.9-72-19.7v66.6c23.8 6.3 46.5 15.2 72 20.5z"/></svg>