<svg xmlns="http://www.w3.org/2000/svg" viewBox="0 0 384 512"><!-- Font Awesome Pro 5.15.4 by @fontawesome - https://fontawesome.com License - https://fontawesome.com/license (Commercial License) --><path d="M192 0C79.7 101.33 0 220.92 0 300.55 0 425.05 78.95 512 192 512s192-86.95 192-211.45C384 220.6 303.78 100.86 192 0zm0 464c-86.13 0-144-65.69-144-163.45 0-46.27 45.31-136.62 143.96-234.47C278.21 151.97 336 244.82 336 300.55 336 398.31 278.13 464 192 464zm45.07-224.32c-19.89-17-38.67-33.06-38.67-58.22 0-3.4-2.82-4.69-4.04-5.08-2.32-.74-5.77-.57-7.94 2.38C131.52 253.42 216 248 216 302c0 23.2-18.8 42-42 42-23.19 0-42-18.8-42-42v-30a6 6 0 0 0-10.24-4.24C115.38 273.95 96 294.48 96 327.58c0 48.75 43.06 88.42 96 88.42s96-39.67 96-88.42c0-44.37-25.89-66.5-50.93-87.9z"/></svg>