<svg xmlns="http://www.w3.org/2000/svg" viewBox="0 0 640 512"><!-- Font Awesome Pro 5.15.4 by @fontawesome - https://fontawesome.com License - https://fontawesome.com/license (Commercial License) --><path d="M608 96h-32a317 317 0 0 0-175.89 53.26L384 160H48a48 48 0 0 0-48 48v96a48 48 0 0 0 48 48h336l16.13 10.75A317.07 317.07 0 0 0 576 416h32a32 32 0 0 0 32-32V128a32 32 0 0 0-32-32zm-64 269.65a267.55 267.55 0 0 1-117.24-42.84L398.53 304H48v-96h350.54l28.19-18.8A267.73 267.73 0 0 1 544 146.35zM284 232h-24a24 24 0 0 0 0 48h24a24 24 0 0 0 0-48z"/></svg>