<svg xmlns="http://www.w3.org/2000/svg" viewBox="0 0 416 512"><!-- Font Awesome Pro 5.15.4 by @fontawesome - https://fontawesome.com License - https://fontawesome.com/license (Commercial License) --><path d="M304 169.05V48h16c8.84 0 16-7.16 16-16V16c0-8.84-7.16-16-16-16H96c-8.84 0-16 7.16-16 16v16c0 8.84 7.16 16 16 16h16v120.12C45.61 202.85 0 271.88 0 352c0 53.79 20.43 102.79 53.94 139.7 11.95 13.17 29.22 20.3 47 20.3h214.05c18.06 0 35.49-7.44 47.58-20.85 32.24-35.78 52.25-82.79 53.39-134.48 1.75-79.95-44.77-151.49-111.96-187.62zm-144 28.12V48h96v149.74c16.81 9.04 94.76 40.59 109.67 130.26h-31.76c-26.41 0-52.88-6.08-76.47-17.58-61-29.75-133.88-29.75-194.88 0l-9.93 4.84C72.41 232.48 142.66 206.25 160 197.17zm166.91 261.84c-2.81 3.12-7.27 4.99-11.92 4.99H100.94c-4.58 0-8.86-1.71-11.45-4.56-22.64-24.94-36.04-56.23-39.81-89.35l33.92-16.51c47.81-23.34 104.97-23.34 152.84 0 30.09 14.67 63.81 22.42 97.47 22.42h31.77c-4.68 30.72-17.76 59.7-38.77 83.01z"/></svg>