<svg xmlns="http://www.w3.org/2000/svg" viewBox="0 0 512 512"><!-- Font Awesome Pro 5.15.4 by @fontawesome - https://fontawesome.com License - https://fontawesome.com/license (Commercial License) --><path d="M461.55 256C492.22 229.19 512 190.23 512 146.29A146.28 146.28 0 0 0 365.71 0C321.77 0 282.81 19.78 256 50.45 229.19 19.78 190.23 0 146.29 0A146.28 146.28 0 0 0 0 146.29c0 43.94 19.78 82.9 50.45 109.71C19.78 282.81 0 321.77 0 365.71A146.29 146.29 0 0 0 146.29 512c43.94 0 82.9-19.78 109.71-50.45C282.81 492.22 321.77 512 365.71 512A146.29 146.29 0 0 0 512 365.71c0-43.94-19.78-82.9-50.45-109.71zm-95.84 208c-28.25 0-54.38-12.09-73.57-34L256 388.62 219.86 430c-19.19 22-45.32 34-73.57 34A98.4 98.4 0 0 1 48 365.71c0-28.25 12.09-54.38 34-73.57L123.38 256 82 219.86c-22-19.19-34-45.32-34-73.57A98.4 98.4 0 0 1 146.29 48c28.25 0 54.38 12.09 73.57 34L256 123.38 292.14 82c19.19-22 45.32-34 73.57-34A98.4 98.4 0 0 1 464 146.29c0 28.25-12.09 54.38-34 73.57L388.62 256 430 292.14c22 19.19 34 45.32 34 73.57A98.4 98.4 0 0 1 365.71 464zM256 176a80 80 0 1 0 80 80 80 80 0 0 0-80-80z"/></svg>