<svg xmlns="http://www.w3.org/2000/svg" viewBox="0 0 512 512"><!-- Font Awesome Pro 5.15.4 by @fontawesome - https://fontawesome.com License - https://fontawesome.com/license (Commercial License) --><path d="M495.87 288H448.6c-67.44 0-127.48 30-168.6 77v-77.16c75.24-.88 136-62 136-137.44V16a16 16 0 0 0-25.45-12.88l-73.91 53.64-48.35-51a16 16 0 0 0-24.58 0l-48.35 51-73.91-53.64A16 16 0 0 0 96 16v134.4c0 75.45 60.76 136.6 136 137.44V365c-41.12-47-101.16-77-168.6-77H16.13c-9.19 0-17 9-16.06 19.65C10.06 422.15 106.43 512 223.83 512h64.34c117.4 0 213.77-89.85 223.76-204.35.92-10.65-6.87-19.65-16.06-19.65zM144 150.4v-72l56 41.6 56-56 56 56 56-41.6v72a89.6 89.6 0 0 1-89.6 89.6h-44.8a89.61 89.61 0 0 1-89.6-89.6zM223.83 464c-79.54 0-148.7-54.09-169.91-128 75.25 0 128.67 32.21 160.93 85.92L240.13 464zm64.17 0h-16.13l25.28-42.08c32-53.34 85.23-85.92 160.93-85.92-21.22 73.91-90.39 128-170.08 128z"/></svg>