<svg xmlns="http://www.w3.org/2000/svg" viewBox="0 0 512 512"><!-- Font Awesome Pro 5.15.4 by @fontawesome - https://fontawesome.com License - https://fontawesome.com/license (Commercial License) --><path d="M495.87 288h-47.26c-67.45 0-127.49 30-168.61 77v-82a90.52 90.52 0 0 0 102.53-139A89.43 89.43 0 0 0 400 90.67 90.76 90.76 0 0 0 309.34 0 89.39 89.39 0 0 0 256 17.47 89.4 89.4 0 0 0 202.65 0 90.75 90.75 0 0 0 112 90.67 89.43 89.43 0 0 0 129.47 144 89.43 89.43 0 0 0 112 197.33a90.48 90.48 0 0 0 120 85.72v82c-41.12-47-101.16-77-168.6-77H16.13c-9.19 0-17 9-16.06 19.65C10.06 422.15 106.43 512 223.83 512h64.34c117.4 0 213.77-89.85 223.76-204.35.92-10.65-6.87-19.65-16.06-19.65zm-272 176c-79.54 0-148.7-54.09-169.91-128 75.25 0 128.67 32.21 160.93 85.92L240.13 464zm12.92-241.37a42.48 42.48 0 1 1-59.38-59.38L203.19 144l-25.82-19.25A42.27 42.27 0 0 1 160 90.67 42.7 42.7 0 0 1 202.65 48a42.26 42.26 0 0 1 34.1 17.38L256 91.2l19.25-25.82A42.24 42.24 0 0 1 309.34 48 42.71 42.71 0 0 1 352 90.67a42.28 42.28 0 0 1-17.38 34.08L308.81 144l25.81 19.25A42.28 42.28 0 0 1 352 197.33 42.71 42.71 0 0 1 309.34 240a42.26 42.26 0 0 1-34.09-17.37L256 196.8zM288 464h-16.13l25.28-42.08c32.07-53.4 85.3-85.92 160.93-85.92-21.22 73.91-90.39 128-170.08 128zm0-320a32 32 0 1 0-32 32 32 32 0 0 0 32-32z"/></svg>