<svg xmlns="http://www.w3.org/2000/svg" viewBox="0 0 448 512"><!-- Font Awesome Pro 5.15.4 by @fontawesome - https://fontawesome.com License - https://fontawesome.com/license (Commercial License) --><path d="M448,120V392a88.1599,88.1599,0,0,1-88,88H88A88.15989,88.15989,0,0,1,0,392V120A88.15989,88.15989,0,0,1,88,32H360A88.1599,88.1599,0,0,1,448,120Zm-48,0a40.027,40.027,0,0,0-40-40H88a40.027,40.027,0,0,0-40,40V392a40.027,40.027,0,0,0,40,40H360a40.027,40.027,0,0,0,40-40Zm-16,56a80.034,80.034,0,0,1-80,80,91.97421,91.97421,0,0,1-20.43751-3l48.71876-48.71875C339,197.76562,344.5,184.875,344.5,175.51562a40.017,40.017,0,0,0-40-40c-9.375,0-22.25,5.46876-28.78125,12.20313L224,199.4375l-51.71875-51.73438C165.75,140.96875,152.875,135.5,143.5,135.5a40.027,40.027,0,0,0-40,40c0,9.375,5.5,22.26562,12.21875,28.76562L164.4375,253A91.97413,91.97413,0,0,1,144,256a80,80,0,1,1,80-80,80,80,0,0,1,160,0ZM208,336V262.625l-75.3125-75.3125a18.38329,18.38329,0,0,1-4.375-11.01562,15.97086,15.97086,0,0,1,16-16,18.49292,18.49292,0,0,1,11,4.39062L224,233.375l68.68749-68.6875a18.49294,18.49294,0,0,1,11-4.39062,15.97086,15.97086,0,0,1,16,16,18.38323,18.38323,0,0,1-4.375,11.01562L240,262.625V336a16,16,0,0,1-32,0Zm96,.10938a80,80,0,0,1-160,0C144,312.125,160.3125,282.0625,180.43749,269L184,272.5625V336a40,40,0,0,0,80,0V272.5625L267.56249,269C287.68749,282.0625,304,312.125,304,336.10938Z"/></svg>