<svg xmlns="http://www.w3.org/2000/svg" viewBox="0 0 640 512"><!-- Font Awesome Pro 5.15.4 by @fontawesome - https://fontawesome.com License - https://fontawesome.com/license (Commercial License) --><path d="M208 464H80c-8.8 0-16 7.2-16 16v16c0 8.8 7.2 16 16 16h128c8.8 0 16-7.2 16-16v-16c0-8.8-7.2-16-16-16zm416 0H288c-8.8 0-16 7.2-16 16v16c0 8.8 7.2 16 16 16h336c8.8 0 16-7.2 16-16v-16c0-8.8-7.2-16-16-16zm-48-56v-16c0-8.8-7.2-16-16-16H16c-8.8 0-16 7.2-16 16v16c0 8.8 7.2 16 16 16h544c8.8 0 16-7.2 16-16zm-404-88h296c59.6 0 108-48.5 108-108 0-57.3-44.9-104.3-101.3-107.8C461.2 61.8 422 32 376 32c-13.5 0-26.8 2.6-39.2 7.7C314.3 14.5 282.4 0 248 0c-64 0-116.4 50.3-119.8 113.4C89.6 130.4 64 168.5 64 212c0 59.5 48.4 108 108 108zm-13.6-166.3l20.8-4.8-2.8-24.9c-.2-1.3-.4-2.6-.4-4 0-39.7 32.3-72 72-72 25.2 0 48.2 13.1 61.4 35.1l13.3 22.1 21.1-14.9C353.4 83.6 364.5 80 376 80c28.6 0 52.4 21.7 55.3 50.4l2.2 21.6H468c33.1 0 60 26.9 60 60s-26.9 60-60 60H172c-33.1 0-60-26.9-60-60 0-28 19.1-52 46.4-58.3z"/></svg>