<svg xmlns="http://www.w3.org/2000/svg" viewBox="0 0 512 512"><!-- Font Awesome Pro 5.15.4 by @fontawesome - https://fontawesome.com License - https://fontawesome.com/license (Commercial License) --><path d="M464,128H272L217.37,73.37A32,32,0,0,0,194.74,64H48A48,48,0,0,0,0,112V400a48,48,0,0,0,48,48H464a48,48,0,0,0,48-48V176A48,48,0,0,0,464,128Zm0,272H280V320h48.88a12,12,0,0,0,8.45-20.52L265,227.71a12.81,12.81,0,0,0-18,0h0l-72.31,71.77A12,12,0,0,0,183.12,320H232v80H48V112H188.12l54.63,54.63A32,32,0,0,0,265.38,176H464Z"/></svg>