<svg xmlns="http://www.w3.org/2000/svg" viewBox="0 0 512 512"><!-- Font Awesome Pro 5.15.4 by @fontawesome - https://fontawesome.com License - https://fontawesome.com/license (Commercial License) --><path d="M464 128H272l-54.63-54.63c-6-6-14.14-9.37-22.63-9.37H48C21.49 64 0 85.49 0 112v288c0 26.51 21.49 48 48 48h416c26.51 0 48-21.49 48-48V176c0-26.51-21.49-48-48-48zm0 272H48V112h140.12l54.63 54.63c6 6 14.14 9.37 22.63 9.37H464v224zM227.71 225.77a15.964 15.964 0 0 0-11.31-4.69c-4.09 0-8.19 1.56-11.31 4.69l-11.31 11.31c-6.25 6.25-6.25 16.38 0 22.63L222.06 288l-28.28 28.28c-6.25 6.25-6.25 16.38 0 22.63l11.31 11.31c3.12 3.12 7.22 4.69 11.31 4.69s8.19-1.56 11.31-4.69L256 321.94l28.29 28.28c3.12 3.12 7.22 4.69 11.31 4.69s8.19-1.56 11.31-4.69l11.31-11.31c6.25-6.25 6.25-16.38 0-22.63L289.94 288l28.28-28.29c6.25-6.25 6.25-16.38 0-22.63l-11.31-11.31a15.964 15.964 0 0 0-11.31-4.69c-4.09 0-8.19 1.56-11.31 4.69L256 254.06l-28.29-28.29z"/></svg>