<svg xmlns="http://www.w3.org/2000/svg" viewBox="0 0 496 512"><!-- Font Awesome Pro 5.15.4 by @fontawesome - https://fontawesome.com License - https://fontawesome.com/license (Commercial License) --><path d="M481.4 60.9c-4.8-18.2-19.1-32.5-37.2-37.4-23.8-6.4-211.8-59.9-349.7 78.2C-28.2 224.6-2.4 386.9 14.6 451.6c4.8 18.2 19.1 31.6 37.2 36.5 23.8 6.4 211.7 60.9 349.7-77.3 122.7-122.9 96.9-285.3 79.9-349.9zM64.3 442.6c-1.6-.4-2.8-1.7-3.2-3.3-5.4-20.3-11.7-51.9-12.8-88.9l105.1 105.1c-36.8-1.2-68.5-7.4-89.1-12.9zm303.3-66.7c-41.2 41.3-91.6 66.6-150.1 75.9L52.3 286.6c8.2-50.2 29.6-103.9 76.1-150.5 41.2-41.3 91.6-66.6 150.1-75.9l165.1 165.1c-8.1 50.3-29.5 104-76 150.6zm-25-319.4c36.8 1.2 68.5 7.4 89.1 12.9 1.6.4 2.8 1.7 3.2 3.3 5.4 20.3 11.7 51.9 12.8 88.9L342.6 56.5zm-88.9 103.3l-11.3 11.3c-3.1 3.1-3.1 8.2 0 11.3l28.3 28.3-22.7 22.7-28.3-28.3c-3.1-3.1-8.2-3.1-11.3 0l-11.3 11.3c-3.1 3.1-3.1 8.2 0 11.3l28.3 28.3-22.6 22.6-28.3-28.3c-3.1-3.1-8.2-3.1-11.3 0l-11.3 11.3c-3.1 3.1-3.1 8.2 0 11.3l28.3 28.3-28.3 28.3c-3.1 3.1-3.1 8.2 0 11.3l11.3 11.3c3.1 3.1 8.2 3.1 11.3 0l28.3-28.3 28.3 28.3c3.1 3.1 8.2 3.1 11.3 0l11.3-11.3c3.1-3.1 3.1-8.2 0-11.3l-28.3-28.3 22.6-22.6 28.3 28.3c3.1 3.1 8.2 3.1 11.3 0l11.3-11.3c3.1-3.1 3.1-8.2 0-11.3L270.6 256l22.6-22.6 28.3 28.3c3.1 3.1 8.2 3.1 11.3 0l11.3-11.3c3.1-3.1 3.1-8.2 0-11.3l-28.3-28.3 28.3-28.3c3.1-3.1 3.1-8.2 0-11.3l-11.3-11.3c-3.1-3.1-8.2-3.1-11.3 0l-28.3 28.3-28.2-28.4c-3.2-3.1-8.2-3.1-11.3 0z"/></svg>