<svg xmlns="http://www.w3.org/2000/svg" viewBox="0 0 512 512"><!-- Font Awesome Pro 5.15.4 by @fontawesome - https://fontawesome.com License - https://fontawesome.com/license (Commercial License) --><path d="M479.6 320H355.5l-15.2-76 136.5-17.8c9-1.2 15.6-9.8 13.9-18.7C468.1 93.8 368.3 8 248 8 114.9 8 18.2 109.5 2.6 219.9-7.6 292 13.3 359 53.7 409.9c3.1 3.9 7.8 6.1 12.8 6.1H120c92.7 46.4 95 49.8 115 49.8 17 0 33.8-6.6 46.4-19.2 36.2-36.2 10.9-79.7 5-94.6h42.9l9.5 49.5c9.5 47.4 47.6 83.2 95.6 89.2 42.2 5.3 52.6 9.6 66.5-2.6 14.3-12.6 10.8-18.4 10.8-136.1-.1-17.7-14.4-32-32.1-32zm-206 0l-10.3-25.7c-7.8-19.4 4.9-40.9 25.6-43.6l19.6-2.6 14.4 71.9h-49.3zm9.1-116.9c-51.8 6.7-83.4 60.5-64 109l32.6 81.6c4.6 11.5-3.9 24.1-16.3 24.1-5.9 0 .2 2.1-103.7-49.8H82.4c-28-41.2-39.5-90.9-32.3-141.4C62.3 140.1 139.6 56 248 56c83.2 0 156.4 51.9 185.8 127.4l-151.1 19.7zm196.9 261l-41.3-5.2c-25.9-3.2-47.6-18.7-59.7-40.7h101.1l-.1 45.9zm0-80.1H368.3l-6.4-32h117.7v32zM176 312c-13.3 0-24 10.7-24 24s10.7 24 24 24 24-10.7 24-24-10.7-24-24-24z"/></svg>