<svg xmlns="http://www.w3.org/2000/svg" viewBox="0 0 640 512"><!-- Font Awesome Pro 5.15.4 by @fontawesome - https://fontawesome.com License - https://fontawesome.com/license (Commercial License) --><path d="M416 344.9V237.1c0-8.7-1.8-17.2-5.2-25.2L332.5 29.1C324.9 11.4 307.6 0 288.3 0H144c-26.5 0-48 21.5-48 48v112H48c-26.5 0-48 21.5-48 48v208c0 53 43 96 96 96s96-43 96-96h64c0 53 43 96 96 96s96-43 96-96c0-28.3-12.5-53.5-32-71.1zM144 48h144.3l78.4 182.8c.9 2 1.3 4.1 1.3 6.3v2.9H246.1c-8.9 0-17.7-3-24.7-8.5L144 170.6V48zM96 464c-26.5 0-48-21.5-48-48s21.5-48 48-48 48 21.5 48 48-21.5 48-48 48zm173.3-96h-90.6c-16.6-28.6-47.2-48-82.7-48-17.6 0-33.8 5.1-48 13.3V208h65.9l77.9 61.2c15.4 12.1 34.8 18.8 54.4 18.8H368v33.6c-5.2-.9-10.5-1.6-16-1.6-35.4 0-66.1 19.4-82.7 48zm82.7 96c-26.5 0-48-21.5-48-48s21.5-48 48-48 48 21.5 48 48-21.5 48-48 48zm272-64h-96V16c0-8.8-7.2-16-16-16h-16c-8.8 0-16 7.2-16 16v416c0 8.8 7.2 16 16 16h128c8.8 0 16-7.2 16-16v-16c0-8.8-7.2-16-16-16z"/></svg>