<svg xmlns="http://www.w3.org/2000/svg" viewBox="0 0 512 512"><!-- Font Awesome Pro 5.15.4 by @fontawesome - https://fontawesome.com License - https://fontawesome.com/license (Commercial License) --><path d="M244.5 230.8L52.5 71.4C31.9 54.3 0 68.6 0 96v320c0 27.4 31.9 41.8 52.5 24.6l192-160.6c15.3-12.8 15.3-36.4 0-49.2zM48 381.7V130.1l151 125.4L48 381.7zm452.5-150.9l-192-159.4C287.9 54.3 256 68.6 256 96v320c0 27.4 31.9 41.8 52.5 24.6l192-160.6c15.3-12.8 15.3-36.4 0-49.2zM304 381.7V130.1l151 125.4-151 126.2z"/></svg>