<svg xmlns="http://www.w3.org/2000/svg" viewBox="0 0 512 512"><!-- Font Awesome Pro 5.15.4 by @fontawesome - https://fontawesome.com License - https://fontawesome.com/license (Commercial License) --><path d="M351.54 228.14c.4-1.78 1.46-3.22 2.06-4.91l30.15-172.46a16 16 0 0 0-20.34-18.08l-34.28 10.25c-4.24 1.27-7.17 4.51-9.13 8.33v207.27c17.55-8.38 29.15-19.54 31.54-30.4zM288 268.78V32a16 16 0 0 0-8.84-14.31l-32-16A16 16 0 0 0 224 16v252.78a160.62 160.62 0 0 0 64 0zM431.45 192l16.3-93.23a16 16 0 0 0-20.34-18.08l-17.31 5.17-18.75 107.26c2.24-.32 4.33-1.12 6.63-1.12zm-350.9 0H114c3.6 0 7 1 10.35 1.75l-20-107.16-19.74-5.9a16 16 0 0 0-20.36 18.08zm84.62 45.79c5.3 7.58 14.49 14.86 26.83 20.75V33.17l-3.76-20.1a16 16 0 0 0-25.39-9.81l-28.51 21.62a16 16 0 0 0-6.07 15.69zM432 224h-34c-6.92 0-13.7 4.27-15.19 11-8.6 39-62.09 69-126.79 69s-118.19-30-126.79-69c-1.49-6.76-8.27-11-15.19-11H80a16 16 0 0 0-15.62 19.47l54.1 243.47A32 32 0 0 0 149.73 512h212.54a32 32 0 0 0 31.24-25.06l54.1-243.47A16 16 0 0 0 432 224zm-82.56 240H162.56l-33.3-149.86C161.08 337.86 205.8 352 256 352s94.92-14.14 126.74-37.86z"/></svg>