<svg xmlns="http://www.w3.org/2000/svg" viewBox="0 0 576 512"><!-- Font Awesome Pro 5.15.4 by @fontawesome - https://fontawesome.com License - https://fontawesome.com/license (Commercial License) --><path d="M576 189.94c0-21.4-11.72-40.95-30.48-51.23-28.68-15.71-65.94-29.69-85.51-36.62C448.64 61.74 411.98 32 368 32c-42.97 0-78.91 28.42-91.16 67.35C120.27 120.52-.49 254.49 0 416.98.11 451.89 29.08 480 64 480h304c8.84 0 16-7.16 16-16 0-17.67-14.33-32-32-32h-29.74l18.87-25.48c9.29-13.93 14.7-29.24 17.15-44.82L469.62 480H560c8.84 0 16-7.16 16-16 0-17.67-14.33-32-32-32h-53.63l-98.52-104.68 154.44-86.65A58.183 58.183 0 0 0 576 189.94zm-53.19 8.87l-174.79 96.05c-7.56-15.39-18.32-29.45-32.92-40.4-39.66-29.72-95-29.75-134.72 0l-34.78 26.09c-10.59 7.95-12.75 23-4.78 33.61 7.97 10.59 23 12.77 33.59 4.8l34.78-26.09c22.72-17.08 54.44-17.02 77.09 0 27.28 20.45 33.81 58.67 15.59 86.06L262.56 432H64c-8.65 0-15.97-6.95-16-15.17-.41-135.69 100.74-251.73 235.27-269.92l30.21-4.08 9.15-29.08C328.98 93.56 347.21 80 368 80c21.15 0 39.99 14.43 45.81 35.1l6.74 23.93 23.44 8.3c18.33 6.49 52.91 19.47 78.47 33.47 3.47 1.9 5.54 5.32 5.54 9.14 0 3.67-1.99 7.07-5.19 8.87zM368 120c-13.25 0-24 10.74-24 24 0 13.25 10.75 24 24 24s24-10.75 24-24c0-13.26-10.75-24-24-24z"/></svg>