<svg xmlns="http://www.w3.org/2000/svg" viewBox="0 0 640 512"><!-- Font Awesome Pro 5.15.4 by @fontawesome - https://fontawesome.com License - https://fontawesome.com/license (Commercial License) --><path d="M471.61 160.38l94.5-103.14C587.24 36.12 572.27 0 542.4 0H33.6C3.73 0-11.24 36.12 9.89 57.25L192 256v135.91c0 15.11 7.11 29.33 19.2 38.4l95.99 72c8.91 6.68 18.89 9.7 28.63 9.7 16.62 0 32.46-8.82 41.17-23.14C402.66 503.51 432.31 512 464 512c97.2 0 176-78.8 176-176 0-94.63-74.74-171.6-168.39-175.62zM335.99 463.91l-95.99-72V237.33L66.52 48h442.96L393.15 174.96C331.26 202.23 288 264.02 288 336c0 46.7 18.31 89.03 47.99 120.53v7.38zM464 464c-70.58 0-128-57.42-128-128s57.42-128 128-128 128 57.42 128 128-57.42 128-128 128zm27.09-136.58l-45-13.5c-5.16-1.55-8.77-6.78-8.77-12.73 0-7.27 5.3-13.19 11.8-13.19h28.11c4.56 0 8.96 1.29 12.82 3.72 3.24 2.03 7.36 1.91 10.13-.73l11.75-11.21c3.53-3.37 3.33-9.21-.57-12.14-9.1-6.83-20.08-10.77-31.37-11.35V240c0-4.42-3.58-8-8-8h-16c-4.42 0-8 3.58-8 8v16.12c-23.62.63-42.67 20.55-42.67 45.07 0 19.97 12.98 37.81 31.58 43.39l45 13.5c5.16 1.55 8.77 6.78 8.77 12.73 0 7.27-5.3 13.19-11.8 13.19h-28.11c-4.56 0-8.96-1.29-12.82-3.72-3.24-2.03-7.36-1.91-10.13.73l-11.75 11.21c-3.53 3.37-3.33 9.21.57 12.14 9.1 6.83 20.08 10.77 31.37 11.35V432c0 4.42 3.58 8 8 8h16c4.42 0 8-3.58 8-8v-16.12c23.62-.63 42.67-20.54 42.67-45.07 0-19.97-12.98-37.81-31.58-43.39z"/></svg>