<svg xmlns="http://www.w3.org/2000/svg" viewBox="0 0 512 512"><!-- Font Awesome Pro 5.15.4 by @fontawesome - https://fontawesome.com License - https://fontawesome.com/license (Commercial License) --><path d="M506.46308,266.91212l-.03125-.01563C489.18219,193.742,428.121,134.7434,354.59127,120.07188a202.37262,202.37262,0,0,0-60.84248-2.953,106.7548,106.7548,0,0,1,50.81144-45.827,36.20633,36.20633,0,0,0,21.84329-39.31156,36.23237,36.23237,0,0,0-32.59307-30.968A201.526,201.526,0,0,0,266.87436,5.559C193.75089,22.85546,134.75213,83.88525,120.06494,157.43036a202.4291,202.4291,0,0,0-2.84369,60.87354A106.56522,106.56522,0,0,1,71.28471,167.477,36.44256,36.44256,0,0,0,31.973,145.60252a36.21769,36.21769,0,0,0-30.9681,32.593,201.27673,201.27673,0,0,0,4.5624,66.92027C22.817,318.27026,83.8782,377.26885,157.4079,391.94037a201.36172,201.36172,0,0,0,60.84248,2.95306,106.75481,106.75481,0,0,1-50.81144,45.827A36.7142,36.7142,0,0,0,178.18872,511a194.69683,194.69683,0,0,0,19.81156,1,205.81064,205.81064,0,0,0,47.12453-5.54674C318.24828,489.1568,377.247,428.127,391.93423,354.58189a202.42908,202.42908,0,0,0,2.84369-60.87354,106.5652,106.5652,0,0,1,45.93654,50.82691,36.70618,36.70618,0,0,0,70.27978-10.7185A201.96376,201.96376,0,0,0,506.46308,266.91212ZM365.966,233.89728a24.011,24.011,0,0,0-26.24945,31.5305,151.14812,151.14812,0,0,1,5.15614,79.74809c-11.34546,56.73887-58.29565,105.98574-120.96621,116.62221a155.27325,155.27325,0,0,0,54.21761-95.81021,24.02479,24.02479,0,0,0-31.53059-26.265A152.37383,152.37383,0,0,1,166.814,344.879C109.87179,333.50623,60.59548,286.17728,50.22265,223.94439A155.24373,155.24373,0,0,0,146.03314,278.115a24.01235,24.01235,0,0,0,26.24945-31.53049,151.14813,151.14813,0,0,1-5.15614-79.74809C178.47192,110.09751,225.4221,60.85064,288.09266,50.21418a155.27325,155.27325,0,0,0-54.21761,95.8102,24.02987,24.02987,0,0,0,31.53059,26.265,151.21288,151.21288,0,0,1,79.77958-5.15613c56.83669,11.3513,106.19894,58.58454,116.5913,120.93461A155.24378,155.24378,0,0,0,365.966,233.89728Zm-109.96644-17.8902a39.999,39.999,0,1,0,39.99916,39.999A39.99858,39.99858,0,0,0,255.99959,216.00708Z"/></svg>