<svg xmlns="http://www.w3.org/2000/svg" viewBox="0 0 640 512"><!-- Font Awesome Pro 5.15.4 by @fontawesome - https://fontawesome.com License - https://fontawesome.com/license (Commercial License) --><path d="M432 240a32 32 0 1 0 32 32 32 32 0 0 0-32-32zm-184-24h-48v-48a8 8 0 0 0-8-8h-32a8 8 0 0 0-8 8v48h-48a8 8 0 0 0-8 8v32a8 8 0 0 0 8 8h48v48a8 8 0 0 0 8 8h32a8 8 0 0 0 8-8v-48h48a8 8 0 0 0 8-8v-32a8 8 0 0 0-8-8zm248-40a32 32 0 1 0 32 32 32 32 0 0 0-32-32zM464 64H176a176 176 0 1 0 120.81 304h46.38A176 176 0 1 0 464 64zm0 304c-55.81 0-85.5-32.69-101.69-48h-84.62c-15.6 14.69-45.5 48-101.69 48a128 128 0 0 1 0-256h288a128 128 0 0 1 0 256z"/></svg>