<svg xmlns="http://www.w3.org/2000/svg" viewBox="0 0 640 512"><!-- Font Awesome Pro 5.15.4 by @fontawesome - https://fontawesome.com License - https://fontawesome.com/license (Commercial License) --><path d="M597.91,110.08,346.31,5.29a68.1,68.1,0,0,0-52.62,0L42.09,110.08A68.1,68.1,0,0,0,0,173.19V496a16,16,0,0,0,16,16H32a16,16,0,0,0,16-16V173.19a20.19,20.19,0,0,1,12.5-18.8L312.19,49.58a20.49,20.49,0,0,1,15.72,0L579.5,154.39a20.39,20.39,0,0,1,12.5,18.8V496a16,16,0,0,0,16,16h16a16,16,0,0,0,16-16V173.19A68.1,68.1,0,0,0,597.91,110.08ZM504,192H136a40,40,0,0,0-40,40V496a16,16,0,0,0,16,16h16a16,16,0,0,0,16-16V320H496V496a16,16,0,0,0,16,16h16a16,16,0,0,0,16-16V232A40,40,0,0,0,504,192Zm-8,48v48H144V240H496ZM430.19,370.38,425.6,352H376.12l4,16H258.81l4-16H213.33l-4.68,18.74A47.83,47.83,0,0,0,176,416v24a23.79,23.79,0,0,0,16,22.38V496a16,16,0,0,0,16,16h32a16,16,0,0,0,16-16V464H384v32a16,16,0,0,0,16,16h32a16,16,0,0,0,16-16V462.38A23.79,23.79,0,0,0,464,440V416A47.83,47.83,0,0,0,430.19,370.38ZM232,436.56c-9.6,0-16-6.64-16-16.61s6.4-16.62,16-16.62,24,14.95,24,24.92S241.6,436.56,232,436.56Zm176,0c-9.6,0-24,1.66-24-8.31s14.4-24.92,24-24.92S424,410,424,420,417.6,436.56,408,436.56Z"/></svg>