<svg xmlns="http://www.w3.org/2000/svg" viewBox="0 0 640 512"><!-- Font Awesome Pro 5.15.4 by @fontawesome - https://fontawesome.com License - https://fontawesome.com/license (Commercial License) --><path d="M597.91,110.08,346.31,5.29a68.1,68.1,0,0,0-52.62,0L42.09,110.08A68.11,68.11,0,0,0,0,173.2V496a16,16,0,0,0,16,16H32a16,16,0,0,0,16-16V173.2a20.18,20.18,0,0,1,12.5-18.8L312.19,49.58a20.49,20.49,0,0,1,15.72,0L579.5,154.4A20.38,20.38,0,0,1,592,173.2V496a16,16,0,0,0,16,16h16a16,16,0,0,0,16-16V173.2A68.11,68.11,0,0,0,597.91,110.08ZM504,192H136a40,40,0,0,0-40,40V496a16,16,0,0,0,16,16h16a16,16,0,0,0,16-16V352H496V496a16,16,0,0,0,16,16h16a16,16,0,0,0,16-16V232A40,40,0,0,0,504,192Zm-8,128H144V240H496ZM368,416H272a16,16,0,0,0,0,32h96a16,16,0,0,0,0-32Z"/></svg>