<svg xmlns="http://www.w3.org/2000/svg" viewBox="0 0 640 512"><!-- Font Awesome Pro 5.15.4 by @fontawesome - https://fontawesome.com License - https://fontawesome.com/license (Commercial License) --><path d="M633.99 471.02L36 3.51C29.1-2.01 19.03-.9 13.51 6l-10 12.49C-2.02 25.39-.9 35.46 6 40.98l598 467.51c6.9 5.52 16.96 4.4 22.49-2.49l10-12.49c5.52-6.9 4.41-16.97-2.5-22.49zM480 97.94V160c0 28.14 20.93 51.27 48 55.19v112.04l48 37.53V152.57c0-16.97-6.74-33.25-18.75-45.26l-86.63-86.63c-3.12-3.12-8.19-3.12-11.31 0L436.68 43.3c-3.12 3.12-3.12 8.19 0 11.31L480 97.94zM336 48v129.12l48 37.53V48c0-26.51-21.49-48-48-48H144c-9.28 0-17.86 2.75-25.21 7.31L170.84 48H336zm72 416h-24v-66.58l-48-37.53V464H144V209.79l-48-37.53V464H72c-4.42 0-8 3.58-8 8v32c0 4.42 3.58 8 8 8h336c4.42 0 8-3.58 8-8v-32c0-4.42-3.58-8-8-8z"/></svg>