<svg xmlns="http://www.w3.org/2000/svg" viewBox="0 0 512 512"><!-- Font Awesome Pro 5.15.4 by @fontawesome - https://fontawesome.com License - https://fontawesome.com/license (Commercial License) --><path d="M493.3 107.3l-86.6-86.6c-3.1-3.1-8.2-3.1-11.3 0l-22.6 22.6c-3.1 3.1-3.1 8.2 0 11.3L416 97.9V160c0 28.1 20.9 51.3 48 55.2V376c0 13.2-10.8 24-24 24s-24-10.8-24-24v-32c0-48.6-39.4-88-88-88h-8V48c0-26.5-21.5-48-48-48H80C53.5 0 32 21.5 32 48v416H8c-4.4 0-8 3.6-8 8v32c0 4.4 3.6 8 8 8h336c4.4 0 8-3.6 8-8v-32c0-4.4-3.6-8-8-8h-24V304h8c22.1 0 40 17.9 40 40v27.8c0 37.7 27 72 64.5 75.9 43 4.3 79.5-29.5 79.5-71.7V152.6c0-17-6.7-33.3-18.7-45.3zM272 464H80V240h192v224zm0-272H80V48h192v144z"/></svg>