<svg xmlns="http://www.w3.org/2000/svg" viewBox="0 0 640 512"><!-- Font Awesome Pro 5.15.4 by @fontawesome - https://fontawesome.com License - https://fontawesome.com/license (Commercial License) --><path d="M608 224h-20.4c2.6-7.6 4.4-15.5 4.4-23.8 0-35.5-27-72.2-72.1-72.2-48.1 0-75.9 47.7-87.9 75.3-11.4-26-36.9-69.4-80-74.3v-1c0-17.7-14.3-32-32-32h-61.4l30.7-22c7.2-5.1 8.9-15.1 3.7-22.3l-9.3-13c-5.1-7.2-15.1-8.9-22.3-3.7l-32 22.9 11.5-30.6c3.1-8.3-1.1-17.5-9.4-20.6l-15-5.6c-8.3-3.1-17.5 1.1-20.6 9.4l-19.9 53-19.9-53.1C153 2.1 143.8-2.1 135.5 1l-15 5.6c-8.3 3.1-12.5 12.3-9.4 20.6l11.5 30.6-32-22.8c-7.2-5.1-17.2-3.5-22.3 3.7l-9.3 13c-5.1 7.2-3.5 17.2 3.7 22.3l30.7 22H32c-17.7 0-32 14.3-32 32v352c0 17.7 14.3 32 32 32h576c17.7 0 32-14.3 32-32V256c0-17.7-14.3-32-32-32zm-88.1-48c17.7 0 24.1 14.5 24.1 24.2 0 5.1-1.5 12.6-8.8 19-2.1 1.8-4.5 3.4-7.2 4.8h-52.6c8.8-20.3 25.9-48 44.5-48zm-175.8 0c18.7 0 35.6 27.4 44.5 48H336c-2.7-1.4-5.1-3-7.2-4.8-7.3-6.4-8.8-13.8-8.8-19 0-9.7 6.4-24.2 24.1-24.2zM224 256v208H48V144h250.7c-17 14-26.7 35.2-26.7 56.2 0 8.3 1.7 16.2 4.4 23.8H256c-17.7 0-32 14.3-32 32zm184 208H272v-72h136v72zm0-120H272v-72h136v72zm23.3-120l.7-.2.7.2h-1.4zM592 464H456v-72h136v72zm0-120H456v-72h136v72z"/></svg>