<svg xmlns="http://www.w3.org/2000/svg" viewBox="0 0 576 512"><!-- Font Awesome Pro 5.15.4 by @fontawesome - https://fontawesome.com License - https://fontawesome.com/license (Commercial License) --><path d="M528 128h-58.07c6.22-12.06 10.07-25.52 10.07-40 0-48.52-39.48-88-88-88-41.6 0-68.51 21.34-103.04 68.33C254.44 21.33 227.53 0 185.93 0c-48.52 0-88 39.48-88 88 0 14.48 3.85 27.94 10.07 40H48c-26.51 0-48 21.49-48 48v288c0 26.51 21.49 48 48 48h480c26.51 0 48-21.49 48-48V176c0-26.51-21.49-48-48-48zM392 48c22.06 0 40 17.94 40 40 0 22.05-17.94 40-40 40h-86.07c51.36-76.47 65.72-80 86.07-80zM145.93 88c0-22.06 17.94-40 40-40 19.94 0 34.58 3.27 86.07 80h-86.07c-22.06 0-40-17.95-40-40zm76.13 88l-51.72 51.72c-6.25 6.25-6.25 16.38 0 22.63l11.31 11.31c6.25 6.25 16.38 6.25 22.63 0L288 177.94l83.72 83.72c6.25 6.25 16.38 6.25 22.63 0l11.31-11.31c6.25-6.25 6.25-16.38 0-22.63L353.94 176H528v144H48V176h174.06zM48 464v-80h480v80H48z"/></svg>