<svg xmlns="http://www.w3.org/2000/svg" viewBox="0 0 448 512"><!-- Font Awesome Pro 5.15.4 by @fontawesome - https://fontawesome.com License - https://fontawesome.com/license (Commercial License) --><path d="M192 96c-8.8 0-16 7.2-16 16s7.2 16 16 16 16-7.2 16-16-7.2-16-16-16zm32 240c-8.8 0-16 7.2-16 16s7.2 16 16 16 16-7.2 16-16-7.2-16-16-16zm222.7-109.4c-7.6-46.7-48.5-81-98-82.5.9-5.9 1.3-12 1.3-18.1 0-33.7-13.1-65.3-36.9-89.1C289.3 13.1 257.7 0 224 0s-65.3 13.1-89.1 36.9C111.1 60.7 98 92.3 98 126c0 6.1.4 12.1 1.3 18.1-49.4 1.5-90.4 35.8-98 82.5-4.8 29.2 3.4 58.8 22.5 81.2 11.3 13.3 25.7 23.2 41.7 29.1l-7 8.5c-18 21.6-26.6 50.2-23.6 78.5 2.9 27 15.9 50.9 36.7 67.1 17.4 13.5 39.2 21 61.4 21 29.8 0 57.8-13.1 76.8-36l14.2-17 14.2 17c19.1 22.9 47.1 36 76.8 36 22.2 0 44-7.5 61.5-21.1 20.8-16.2 33.8-40 36.7-67.1 3-28.3-5.6-56.9-23.6-78.5l-7-8.5c16-5.9 30.3-15.8 41.7-29.1 18.9-22.3 27.1-51.9 22.4-81.1zM348 295h-31.2c-8.2 0-14.8 6.6-14.8 14.8 0 3.5 1.2 6.8 3.4 9.5l47.3 56.7c18.9 22.7 17.5 58.8-5.8 77-25.5 19.9-56.9 10.3-71.9-7.7L244 408c-5.2-6.2-12.6-9.4-20-9.4s-14.8 3.1-20 9.4l-31.1 37.3c-15 18.1-46.4 27.6-71.9 7.7-23.3-18.2-24.7-54.3-5.8-77l47.3-56.7c2.2-2.7 3.4-6 3.4-9.5 0-8.2-6.6-14.8-14.8-14.8H100c-66.9 0-72-103 2.8-103h60.4c5.8 0 8.5-7.9 4.5-12.1-13.4-14-21.7-33-21.7-53.9 0-43.1 34.9-78 78-78s78 34.9 78 78c0 20.9-8.3 39.9-21.7 53.9-4 4.2-1.4 12.1 4.5 12.1h60.4c74.8 0 69.8 103 2.8 103zm-124-23c-8.8 0-16 7.2-16 16s7.2 16 16 16 16-7.2 16-16-7.2-16-16-16zm32-176c-8.8 0-16 7.2-16 16s7.2 16 16 16 16-7.2 16-16-7.2-16-16-16zm-32 112c-8.8 0-16 7.2-16 16s7.2 16 16 16 16-7.2 16-16-7.2-16-16-16z"/></svg>