<svg xmlns="http://www.w3.org/2000/svg" viewBox="0 0 448 512"><!-- Font Awesome Pro 5.15.4 by @fontawesome - https://fontawesome.com License - https://fontawesome.com/license (Commercial License) --><path d="M208.07 352c88.4 0 160.06-71.63 160.06-160 0-88.32-71.61-160-160.06-160-88.4 0-160.06 71.63-160.06 160 .01 88.31 71.61 160 160.06 160zm0-272c61.88 0 112.04 50.14 112.04 112s-50.16 112-112.04 112S96.03 253.86 96.03 192 146.19 80 208.07 80zm140.05 384H248.09v-35.53c47.5-7.92 93.08-30.1 129.75-66.77 85.25-85.22 92.73-218.44 22.91-312.38l10.7-10.7c6.25-6.25 6.25-16.38 0-22.63l-11.31-11.3c-6.25-6.25-16.38-6.25-22.64 0L334.47 47.7c3.17 2.79 6.39 5.52 9.41 8.53 36.28 36.26 56.26 84.48 56.26 135.77s-19.98 99.5-56.26 135.76S259.37 384 208.07 384s-99.53-19.97-135.81-56.24c-3.02-3.02-5.75-6.23-8.53-9.41L4.69 377.38c-6.25 6.25-6.25 16.38 0 22.63L16 411.31c6.25 6.25 16.38 6.25 22.64 0l26.71-26.7c40.03 29.72 87.18 45.3 134.72 46.95V464H100.03c-19.89 0-36.01 16.12-36.01 36 0 6.63 5.37 12 12 12h296.1c6.63 0 12-5.37 12-12 .01-19.88-16.11-36-36-36z"/></svg>