<svg xmlns="http://www.w3.org/2000/svg" viewBox="0 0 496 512"><!-- Font Awesome Pro 5.15.4 by @fontawesome - https://fontawesome.com License - https://fontawesome.com/license (Commercial License) --><path d="M248 8C111.04 8 0 119.03 0 256s111.04 248 248 248 248-111.03 248-248S384.96 8 248 8zm0 448c-110.28 0-200-89.72-200-200S137.72 56 248 56c10.92 0 21.55 1.12 32 2.81v21.7c0 8.56-6.94 15.5-15.5 15.5h-24.21c-5.18 0-10.02 2.59-12.89 6.9l-8.08 12.11c-2.14 3.21-5.4 5.5-9.14 6.44l-14.45 3.61a15.492 15.492 0 0 0-11.74 15.04v4.4c0 8.56 6.94 15.5 15.5 15.5h90.09c4.11 0 8.05 1.63 10.96 4.54l6.92 6.92c2.91 2.91 6.85 4.54 10.96 4.54h10.09c8.56 0 15.5 6.94 15.5 15.5 0 6.67-4.27 12.59-10.6 14.7l-47.31 15.77c-3.9 1.3-8.15 1-11.83-.84l-14.72-7.36a54.682 54.682 0 0 0-24.43-5.77h-.89c-11.82 0-23.32 3.83-32.78 10.93l-27.58 20.69A54.545 54.545 0 0 0 152 283.31v14.06c0 14.49 5.76 28.38 16 38.63a54.641 54.641 0 0 0 38.63 16h25.88c8.56 0 15.5 6.94 15.5 15.5v29.88c0 12.25 2.85 24.33 8.33 35.29 4.7 9.4 14.31 15.34 24.82 15.34 9.28 0 17.94-4.64 23.09-12.36l13.03-19.55a159.608 159.608 0 0 1 25-29.16c2.47-2.26 4.14-5.26 4.76-8.56l4.3-22.83c.44-2.33 1.41-4.53 2.83-6.43l18.74-24.98c2.01-2.68 3.1-5.95 3.1-9.3V303.5c0-8.56-6.94-15.5-15.5-15.5h-8.21c-5.18 0-10.02-2.59-12.89-6.9l-13.24-19.86c-5.67-8.5-1.7-20.07 7.99-23.3l2.65-.88c4.54-1.51 9.52-.85 13.5 1.81l18.21 12.14a15.532 15.532 0 0 0 15.53.97l15.39-7.7c5.25-2.62 8.57-7.99 8.57-13.86v-6.93c0-8.56 6.94-15.5 15.5-15.5h18.44c3.82 15.41 6.07 31.43 6.07 48C448 366.28 358.28 456 248 456z"/></svg>