<svg xmlns="http://www.w3.org/2000/svg" viewBox="0 0 448 512"><!-- Font Awesome Pro 5.15.4 by @fontawesome - https://fontawesome.com License - https://fontawesome.com/license (Commercial License) --><path d="M232 80c-13.3 0-24 10.7-24 24s10.7 24 24 24 24-10.7 24-24-10.7-24-24-24zm-128 80c-13.3 0-24 10.7-24 24s10.7 24 24 24 24-10.7 24-24-10.7-24-24-24zm224-16c-13.3 0-24 10.7-24 24s10.7 24 24 24 24-10.7 24-24-10.7-24-24-24zm35.3 255c51.5-41 84.7-104 84.7-175C448 100.3 347.7 0 224 0S0 100.3 0 224c0 71 33.2 134 84.7 175l-46.3 61.8C22.6 481.9 37.6 512 64 512h320c26.4 0 41.4-30.1 25.6-51.2L363.3 399zM96 464l24-32h208l24 32H96zm200.9-80H256v-48h57.9c14.2 0 22-15 12.9-24.9L276 256h15.4c10.7 0 16.5-11.2 9.7-18.7l-67.4-73.2c-5-5.5-14.3-5.5-19.3 0L147 237.3c-6.8 7.4-1 18.7 9.7 18.7H172l-50.7 55.1c-9.1 9.9-1.3 24.9 12.9 24.9H192v48h-40.9C90.4 356.2 48 295 48 224c0-97 79-176 176-176s176 79 176 176c0 71-42.4 132.2-103.1 160z"/></svg>