<svg xmlns="http://www.w3.org/2000/svg" viewBox="0 0 512 512"><!-- Font Awesome Pro 5.15.4 by @fontawesome - https://fontawesome.com License - https://fontawesome.com/license (Commercial License) --><path d="M496 352h-16V240c0-8.84-7.16-16-16-16h-16v-80c0-8.84-7.16-16-16-16h-16V24c0-13.26-10.75-24-24-24s-24 10.74-24 24v8h-48v-8c0-13.26-10.75-24-24-24s-24 10.74-24 24v8h-32v-8c0-13.26-10.75-24-24-24s-24 10.74-24 24v8h-48v-8c0-13.26-10.75-24-24-24S96 10.74 96 24v104H80c-8.84 0-16 7.16-16 16v80H48c-8.84 0-16 7.16-16 16v112H16c-8.84 0-16 7.16-16 16v128c0 8.84 7.16 16 16 16h16c8.84 0 16-7.16 16-16v-96h48v104c0 4.42 3.58 8 8 8h16c4.42 0 8-3.58 8-8V400h256v104c0 4.42 3.58 8 8 8h16c4.42 0 8-3.58 8-8V400h48v96c0 8.84 7.16 16 16 16h16c8.84 0 16-7.16 16-16V368c0-8.84-7.16-16-16-16zM144 80h224v48H144V80zm120 120h-16c-8.84 0-16 7.16-16 16v8h-40v-48h128v48h-40v-8c0-8.84-7.16-16-16-16zm-152-24h48v48h-48v-48zm16 176H80v-80h48v80zm224 0h-64v-32c0-8.84-7.16-16-16-16h-32c-8.84 0-16 7.16-16 16v32h-64v-80h192v80zm0-128v-48h48v48h-48zm80 128h-48v-80h48v80zm-144 80h-64c-8.84 0-16 7.16-16 16v64h96v-64c0-8.84-7.16-16-16-16z"/></svg>