<svg xmlns="http://www.w3.org/2000/svg" viewBox="0 0 512 512"><!-- Font Awesome Pro 5.15.4 by @fontawesome - https://fontawesome.com License - https://fontawesome.com/license (Commercial License) --><path d="M511.21 39.58a48.13 48.13 0 0 0-37.8-38.27C450.48-3 450.66.79 366.74 54.94a32.15 32.15 0 0 0-14.74 27v44.59l-83.23 83.17a12.45 12.45 0 0 1-1.77-12.77l15.9-34.18a41.31 41.31 0 0 0-66.67-46.65L181 151.34a95.94 95.94 0 0 0-22.42 35.47 47.67 47.67 0 0 1-24.74 27.11l-70.29 32.57c-31 12.38-54.45 40.37-61.43 74.36a102.65 102.65 0 0 0 28 93.48l67.51 67.5A102.9 102.9 0 0 0 266 447.28l32.05-69.15a47.69 47.69 0 0 1 27.12-24.74A96 96 0 0 0 360.65 331l19.84-19.83a42.28 42.28 0 0 0 0-59.82c-17.58-17.58-38.86-11.62-42.76-10.38l-21.8 6.95c-7 2.23-11.51-1.82-13.58-3.89l149.37-149.4A47.44 47.44 0 0 0 464 96.42a48 48 0 0 0 47.21-56.84zM312.08 288.49a52.57 52.57 0 0 0 16-2.49l24.14-6.39-19.84 23.08a55.75 55.75 0 0 1-20.59 13 87.92 87.92 0 0 0-50 45.62l-32.9 71.1A62.9 62.9 0 0 1 126 453.54L58.45 386a61.92 61.92 0 0 1-17.15-57.1c4.33-21.1 18.28-37.78 39.05-46.12l70.32-32.56a87.89 87.89 0 0 0 45.62-50 55.77 55.77 0 0 1 13-20.59L245.48 144l-14.71 36.05a52.86 52.86 0 0 0 10.51 59.46l33.56 33.56a52.36 52.36 0 0 0 37.24 15.42zm-177.46 36.2a16 16 0 0 0-22.63 0L100.68 336a16 16 0 0 0 0 22.63l52.69 52.68a16 16 0 0 0 22.63 0L187.31 400a16 16 0 0 0 0-22.63zm64-64a16 16 0 0 0-22.63 0L164.68 272a16 16 0 0 0 0 22.63l52.69 52.68a16 16 0 0 0 22.63 0L251.31 336a16 16 0 0 0 0-22.63z"/></svg>