<svg xmlns="http://www.w3.org/2000/svg" viewBox="0 0 448 512"><!-- Font Awesome Pro 5.15.4 by @fontawesome - https://fontawesome.com License - https://fontawesome.com/license (Commercial License) --><path d="M400 32H48C21.49 32 0 53.49 0 80v352c0 26.51 21.49 48 48 48h352c26.51 0 48-21.49 48-48V80c0-26.51-21.49-48-48-48zm-6 400H54a6 6 0 0 1-6-6V86a6 6 0 0 1 6-6h340a6 6 0 0 1 6 6v340a6 6 0 0 1-6 6zm-50-292v232c0 6.627-5.373 12-12 12h-24c-6.627 0-12-5.373-12-12v-92H152v92c0 6.627-5.373 12-12 12h-24c-6.627 0-12-5.373-12-12V140c0-6.627 5.373-12 12-12h24c6.627 0 12 5.373 12 12v92h144v-92c0-6.627 5.373-12 12-12h24c6.627 0 12 5.373 12 12z"/></svg>