<svg xmlns="http://www.w3.org/2000/svg" viewBox="0 0 576 512"><!-- Font Awesome Pro 5.15.4 by @fontawesome - https://fontawesome.com License - https://fontawesome.com/license (Commercial License) --><path d="M304 96h-98.94A13.06 13.06 0 0 0 192 109.06v21.88A13.06 13.06 0 0 0 205.06 144H232v88H88v-88h26.94A13.06 13.06 0 0 0 128 130.94V112a16 16 0 0 0-16-16H16a16 16 0 0 0-16 16v18.94A13.06 13.06 0 0 0 13.06 144H40v224H13.06A13.06 13.06 0 0 0 0 381.06V400a16 16 0 0 0 16 16h98.94A13.06 13.06 0 0 0 128 402.94v-21.88A13.06 13.06 0 0 0 114.94 368H88v-88h144v88h-26.94A13.06 13.06 0 0 0 192 381.06V400a16 16 0 0 0 16 16h96a16 16 0 0 0 16-16v-18.94A13.06 13.06 0 0 0 306.94 368H280V144h26.94A13.06 13.06 0 0 0 320 130.94V112a16 16 0 0 0-16-16zm244.14 272.13H410.82c8.52-60.35 146-79.28 146-179.31C556.8 134.17 515 96 455.05 96a114.71 114.71 0 0 0-97.92 55.05 11.81 11.81 0 0 0 3.58 15.95L382 181.23a11.89 11.89 0 0 0 16.27-3c13-18.23 31.58-31.35 53.72-31.35 29.57 0 49.43 18.08 49.43 45 0 67-149.45 84-149.45 195.49a137.14 137.14 0 0 0 1.39 18.42 12.18 12.18 0 0 0 11.8 10.21h183A11.85 11.85 0 0 0 560 404.18V380a11.85 11.85 0 0 0-11.86-11.87z"/></svg>