<svg xmlns="http://www.w3.org/2000/svg" viewBox="0 0 576 512"><!-- Font Awesome Pro 5.15.4 by @fontawesome - https://fontawesome.com License - https://fontawesome.com/license (Commercial License) --><path d="M480.07 219.78l75.39-85.88a11.82 11.82 0 0 0 2.93-7.76v-18.32A11.89 11.89 0 0 0 546.44 96H379.87a11.88 11.88 0 0 0-11.94 11.82V132a11.88 11.88 0 0 0 11.94 11.83s102.44-.11 106-.25c-2.77 2.88-74.12 85.58-74.12 85.58a11.67 11.67 0 0 0-1.86 12.38l6.71 15.3a12.94 12.94 0 0 0 10.93 7.16h17.08c48.61 0 65.85 27.23 65.85 50.56 0 28.57-24.58 50.13-57.17 50.13-24 0-46.88-10.46-65.29-26.89a12 12 0 0 0-17.76 1.81l-16 22a11.73 11.73 0 0 0 1.4 15.41c24.6 23.34 60.62 39 99.38 39 64.2 0 109.86-46.22 109.86-103.17.01-51.1-36.73-84.17-84.81-93.07zM304 96h-98.94A13.06 13.06 0 0 0 192 109.06v21.88A13.06 13.06 0 0 0 205.06 144H232v88H88v-88h26.94A13.06 13.06 0 0 0 128 130.94V112a16 16 0 0 0-16-16H16a16 16 0 0 0-16 16v18.94A13.06 13.06 0 0 0 13.06 144H40v224H13.06A13.06 13.06 0 0 0 0 381.06V400a16 16 0 0 0 16 16h98.94A13.06 13.06 0 0 0 128 402.94v-21.88A13.06 13.06 0 0 0 114.94 368H88v-88h144v88h-26.94A13.06 13.06 0 0 0 192 381.06V400a16 16 0 0 0 16 16h96a16 16 0 0 0 16-16v-18.94A13.06 13.06 0 0 0 306.94 368H280V144h26.94A13.06 13.06 0 0 0 320 130.94V112a16 16 0 0 0-16-16z"/></svg>