<svg xmlns="http://www.w3.org/2000/svg" viewBox="0 0 512 512"><!-- Font Awesome Pro 5.15.4 by @fontawesome - https://fontawesome.com License - https://fontawesome.com/license (Commercial License) --><path d="M256.01 288c-53.01 0-95.98 64-95.98 64s42.97 64 95.98 64 95.98-64 95.98-64-42.98-64-95.98-64zm0 96c-17.67 0-31.99-14.33-31.99-32s14.33-32 31.99-32S288 334.33 288 352s-14.33 32-31.99 32zm249.54-100.6c-11.79-26.32-38.34-43.4-67.59-43.4h-6V113.71c0-39.77-28.77-74.45-66.91-80.65-4.42-.72-8.79-1.06-13.07-1.06-10.18 0-19.93 1.91-28.89 5.4-11.97-18.9-31.34-32.65-54.01-36.34A81.3 81.3 0 0 0 256 0c-28.39 0-53.38 14.88-67.58 37.24a75.764 75.764 0 0 0-15.33-4.18c-4.42-.72-8.79-1.06-13.07-1.06-44.1 0-79.98 35.89-79.98 80v128h-5.99c-29.25 0-55.8 17.08-67.63 43.5-12.21 27.09-6.7 58.57 14.08 80.12l83.42 86.46C141.91 489.43 197.34 512 256.01 512s114.1-22.57 152.08-61.91l83.42-86.46c20.79-21.55 26.3-53.04 14.04-80.23zm-48.57 46.89l-83.42 86.45C344.58 446.78 301.75 464 256.01 464s-88.57-17.22-117.56-47.25L55.03 330.3c-7.06-7.32-8.96-17.99-4.82-27.17C54.32 293.94 63.69 288 74.05 288h53.98V112c0-17.67 14.32-32 31.99-32 1.76 0 3.56.14 5.37.44 15.73 2.56 26.62 17.33 26.62 33.27V216c0 4.42 3.58 8 8 8h16c4.42 0 8-3.58 8-8V80c0-17.67 14.32-32 31.99-32 1.76 0 3.56.14 5.37.44 15.73 2.56 26.62 17.33 26.62 33.27V216c0 4.42 3.58 8 8 8h16c4.42 0 8-3.58 8-8V112c0-17.67 14.32-32 31.99-32 1.76 0 3.56.14 5.37.44 15.73 2.56 26.62 17.33 26.62 33.27V288h53.99c10.36 0 19.72 5.94 23.84 15.12 4.14 9.19 2.24 19.86-4.82 27.17z"/></svg>