<svg xmlns="http://www.w3.org/2000/svg" viewBox="0 0 576 512"><!-- Font Awesome Pro 5.15.4 by @fontawesome - https://fontawesome.com License - https://fontawesome.com/license (Commercial License) --><path d="M551.9 312c-31.1-26.4-69.3-16.1-88.4-1.8l-60.4 45.5h-3.3c-.2-38-30.5-67.8-69.2-67.8h-144c-28.4 0-56.3 9.4-78.5 26.3L79.8 336H16c-8.8 0-16 7.2-16 16v16c0 8.8 7.2 16 16 16h80l41.3-31.5c14-10.7 31.4-16.5 49.4-16.5h144c27.9 0 29.1 40.2-1.1 40.2h-59.8c-7.6 0-13.8 6.2-13.8 13.8v.1c0 7.6 6.2 13.8 13.8 13.8h134.5c9.7 0 19.2-3.2 26.9-9l61.3-46.1c8.3-6.2 20.5-6.7 28.4 0 10.1 8.5 9.3 23.1-.9 30.7L419.4 455c-7.8 5.8-17.2 9-26.9 9H16c-8.8 0-16 7.2-16 16v16c0 8.8 7.2 16 16 16h376.8c19.9 0 39.3-6.5 55.2-18.5l100.8-75.9c16.6-12.5 26.5-31.5 27.1-52 .7-20.5-8.1-40.1-24-53.6zm-439.4-56h352c8.8 0 16-7.2 16-16V16c0-8.8-7.2-16-16-16h-352c-8.8 0-16 7.2-16 16v224c0 8.8 7.2 16 16 16zm32-208h80v112l64-32 64 32V48h80v160h-288V48z"/></svg>