<svg xmlns="http://www.w3.org/2000/svg" viewBox="0 0 640 512"><!-- Font Awesome Pro 5.15.4 by @fontawesome - https://fontawesome.com License - https://fontawesome.com/license (Commercial License) --><path d="M255.7 182.7l65.6-60.1c7.4-6.8 17-10.5 27-10.5l83.7-.2c2.1 0 4.1.8 5.5 2.3l61.7 61.6H624c8.8 0 16-7.2 16-16v-16c0-8.8-7.2-16-16-16H519.2l-47.6-47.6C461.1 69.9 446.9 64 432 64H205.2c-14.8 0-29.1 5.9-39.6 16.3L118 127.9H16c-8.8 0-16 7.2-16 16v16c0 8.8 7.2 16 16 16h121.9l61.7-61.6c2-.8 3.7-1.5 5.7-2.3H262l-38.7 35.5c-29.4 26.9-31.1 72.3-4.4 101.3 14.8 16.2 61.2 41.2 101.5 4.4l8.2-7.5 108.2 87.8c3.4 2.8 4 7.8 1.2 11.3L411.9 377c-2.8 3.4-7.8 4-11.3 1.2l-23.9-19.4-30 36.5c-2.2 2.7-5.4 4.4-8.9 4.8-3.5.4-7-.7-9.1-2.4l-36.8-31.5-15.6 19.2c-13.9 17.1-39.2 19.7-55.3 6.6l-97.3-88H16c-8.8 0-16 7.2-16 16v16c0 8.8 7.2 16 16 16h89l84.6 76.4c30.9 25.1 73.8 25.7 105.6 3.8 12.5 10.8 26 15.9 41.1 15.9 18.2 0 35.3-7.4 48.8-24 22.1 8.7 48.2 2.6 64-16.8l26.2-32.3c5.6-6.9 9.1-14.8 10.9-23H624c8.8 0 16-7.2 16-16v-16c0-8.8-7.2-16-16-16H474.8c-2.3-2.8-4.9-5.4-7.7-7.7l-102.7-83.4 12.5-11.4c6.5-6 7-16.1 1-22.6L367 167.1c-6-6.5-16.1-6.9-22.6-1l-55.2 50.6c-9.5 8.7-25.7 9.4-34.6 0-9.4-9.9-8.5-25.2 1.1-34z"/></svg>