<svg xmlns="http://www.w3.org/2000/svg" viewBox="0 0 576 512"><!-- Font Awesome Pro 5.15.4 by @fontawesome - https://fontawesome.com License - https://fontawesome.com/license (Commercial License) --><path d="M551.94 312.03c-31.11-26.43-69.35-16.09-88.37-1.77l-60.43 45.5h-3.27c-.17-38.03-30.51-67.76-69.2-67.76h-144c-28.38 0-56.26 9.35-78.5 26.33L79.79 336H16c-8.84 0-16 7.16-16 16v16c0 8.84 7.16 16 16 16h80.02l41.27-31.52c13.96-10.66 31.39-16.48 49.37-16.48h144c27.86 0 29.07 40.16-1.14 40.16h-59.76c-7.6 0-13.76 6.16-13.76 13.76v.08c0 7.6 6.16 13.76 13.76 13.76h134.46c9.71 0 19.17-3.16 26.93-9l61.29-46.15c8.27-6.22 20.49-6.73 28.42 0 10.05 8.54 9.26 23.06-.87 30.68L419.43 455c-7.76 5.84-17.2 9-26.92 9H16c-8.84 0-16 7.16-16 16v16c0 8.84 7.16 16 16 16h376.83c19.92 0 39.3-6.48 55.21-18.46l100.81-75.91c16.6-12.48 26.49-31.45 27.11-52.03.62-20.54-8.13-40.06-24.02-53.57zM224 192h41.69c42.62 0 78.28-30.48 86.31-70.8-16.09 9.98-44.81 22.8-86.31 22.8H224c-22.53 0-40-21.5-40-40V88c0-22.06 17.94-40 40-40h144c22.06 0 40 17.94 40 40v33.22c0 33.94-15.78 68.22-44.47 96.5L324.72 256c73.34-5.77 130.75-63.72 131.28-133.28V88c0-48.53-39.47-88-88-88H224c-48.53 0-88 39.47-88 88v16c0 46.88 41.12 88 88 88z"/></svg>