<svg xmlns="http://www.w3.org/2000/svg" viewBox="0 0 640 512"><!-- Font Awesome Pro 5.15.4 by @fontawesome - https://fontawesome.com License - https://fontawesome.com/license (Commercial License) --><path d="M346.7,395.21c-6,7.29-15,4.79-18,2.39l-36.79-31.5L276.3,385.3c-13.89,17.11-39.21,19.7-55.3,6.61l-97.3-88H96V175.8h4.53L39.27,127.91H0V383.6H64a31.89,31.89,0,0,0,31.91-31.69H105l84.59,76.39c30.91,25.11,73.82,25.7,105.61,3.8,12.5,10.81,26,15.9,41.1,15.9,18.2,0,35.29-7.4,48.79-24a56,56,0,0,0,35.2,1.78l-60.1-47ZM48,351.6a16,16,0,1,1,16-16A16,16,0,0,1,48,351.6ZM377.91,178.8,367,167.1a16.07,16.07,0,0,0-22.59-1L334,175.6l38.32,30,4.55-4.14A16,16,0,0,0,377.91,178.8ZM519.2,127.91,471.59,80.3C462.52,71.3,444.78,64,432,64H205.2a56.09,56.09,0,0,0-12.07,1.42l102.94,80.48,25.34-23.2a39.77,39.77,0,0,1,27-10.5l83.68-.2a7.43,7.43,0,0,1,5.5,2.29l61.71,61.61H544v128H498.18L600.11,383.6H640V127.91ZM592,351.6a16,16,0,1,1,16-16A16,16,0,0,1,592,351.6ZM36,3.52A16,16,0,0,0,13.51,6l-10,12.49A16,16,0,0,0,6,41L604,508.48A16,16,0,0,0,626.48,506l10-12.49A16,16,0,0,0,634,471Z"/></svg>