<svg xmlns="http://www.w3.org/2000/svg" viewBox="0 0 576 512"><!-- Font Awesome Pro 5.15.4 by @fontawesome - https://fontawesome.com License - https://fontawesome.com/license (Commercial License) --><path d="M160,176h64v64a16,16,0,0,0,16,16h64a16,16,0,0,0,16-16V176h64a16,16,0,0,0,16-16V96a16,16,0,0,0-16-16H320V16A16,16,0,0,0,304,0H240a16,16,0,0,0-16,16V80H160a16,16,0,0,0-16,16v64A16,16,0,0,0,160,176ZM552,312c-31.11-26.4-69.32-16.09-88.41-1.8l-60.42,45.49h-3.29c-.21-38-30.51-67.78-69.21-67.78h-144a130.4,130.4,0,0,0-78.51,26.29L79.8,336H16A16,16,0,0,0,0,352v16a16,16,0,0,0,16,16H96l41.3-31.49A81.37,81.37,0,0,1,186.72,336h144c27.89,0,29.09,40.2-1.11,40.2H269.82A13.82,13.82,0,0,0,256,390v.1a13.83,13.83,0,0,0,13.79,13.81H404.34a45,45,0,0,0,26.91-9l61.3-46.1c8.3-6.21,20.5-6.71,28.41,0a19.28,19.28,0,0,1-.91,30.69L419.45,455a45.16,45.16,0,0,1-26.91,9H16A16,16,0,0,0,0,480v16a16,16,0,0,0,16,16H392.84A91.69,91.69,0,0,0,448,493.5l100.81-75.89A67.32,67.32,0,0,0,552,312Z"/></svg>