<svg xmlns="http://www.w3.org/2000/svg" viewBox="0 0 640 512"><!-- Font Awesome Pro 5.15.4 by @fontawesome - https://fontawesome.com License - https://fontawesome.com/license (Commercial License) --><path d="M289.6 144.3l50.1 14.3c3.6 1 6.1 4.4 6.1 8.1 0 4.6-3.8 8.4-8.4 8.4h-32.8c-3.6 0-7.1-.8-10.3-2.2-4.8-2.2-10.4-1.7-14.1 2l-17.5 17.5c-5.3 5.3-4.7 14.3 1.5 18.4 9.5 6.3 20.4 10.1 31.8 11.5V240c0 8.8 7.2 16 16 16h16c8.8 0 16-7.2 16-16v-17.6c30.3-3.6 53.4-31 49.3-63-2.9-23-20.7-41.3-42.9-47.7l-50.1-14.3c-3.6-1-6.1-4.4-6.1-8.1 0-4.6 3.8-8.4 8.4-8.4h32.8c3.6 0 7.1.8 10.3 2.2 4.8 2.2 10.4 1.7 14.1-2l17.5-17.5c5.3-5.3 4.7-14.3-1.5-18.4-9.5-6.3-20.4-10.1-31.8-11.5V16c0-8.8-7.2-16-16-16h-16c-8.8 0-16 7.2-16 16v17.6c-30.3 3.6-53.4 31-49.3 63 2.9 23 20.6 41.3 42.9 47.7zm283.3-48.1C531 93.4 496 126.7 496 168c0 0-.1 39-.2 76-11.7-7.8-25.7-12-39.8-12-22.5 0-43.3 10.2-57 28l-71.8 93.3c-2.7 3.5-5 7.4-7.2 11.2-2.3-3.8-4.5-7.7-7.2-11.2L241 260c-13.8-17.8-34.6-28-57-28-14.1 0-28.1 4.3-39.8 12-.1-37.1-.2-76-.2-76 0-41.3-35-74.6-76.9-71.8C28.8 98.7 0 132.2 0 170.5V362c0 25.3 8.7 50.2 24.5 70l58.7 74c3 3.8 7.7 6.1 12.5 6.1H112c8.8 0 16-7.2 16-16 0-7.5-2.6-14.8-7.2-20.6L62 402c-9.1-11.3-14-25.4-14-40V168.9c0-11.6 7.8-22.3 19.2-24.4 15.3-3 28.8 8.7 28.8 23.5 0 0 .2 101 .3 132.6 0 7.6 2.8 14.8 7.8 20.6l76.5 92.6c8.1 9.8 23.6 11.1 33.1 1 7.5-7.9 7.3-20.4.8-29.2l-49.5-67c-8.1-10.5-6.1-25.6 4.4-33.7 4.4-3.4 9.5-5 14.6-5 7.2 0 14.3 3.2 19.1 9.4l71.7 93.2c8.6 11.2 13.3 24.9 13.3 39V496c0 8.8 7.2 16 16 16h32c8.8 0 16-7.2 16-16v-74.4c0-14.1 4.7-27.8 13.3-39l71.7-93.2c4.7-6.1 11.9-9.4 19.1-9.4 5.1 0 10.2 1.6 14.6 5 10.5 8.1 12.5 23.1 4.4 33.7l-49.5 67c-6.5 8.8-6.6 21.3.8 29.2 10.2 10.9 25.7 7.9 33.1-1l76.5-92.6c5-5.8 7.7-13 7.8-20.6-.1-31.7.1-132.7.1-132.7 0-14.8 13.4-26.5 28.8-23.5 11.4 2.2 19.2 12.8 19.2 24.4V362c0 14.5-4.9 28.6-14 39.9l-58.7 73.4c-4.7 5.9-7.2 13.1-7.2 20.6 0 8.8 7.2 16 16 16h16.3c4.9 0 9.5-2.2 12.5-6.1l58.7-74c15.8-19.8 24.5-44.6 24.5-70V170.5c-.1-38.3-28.9-71.8-67.2-74.3z"/></svg>