<svg xmlns="http://www.w3.org/2000/svg" viewBox="0 0 576 512"><!-- Font Awesome Pro 5.15.4 by @fontawesome - https://fontawesome.com License - https://fontawesome.com/license (Commercial License) --><path d="M576,192a80.09,80.09,0,0,0-80-80c-2.39,0-4.64.5-7,.71A63.65,63.65,0,1,0,448,128c.19,0,.37,0,.56-.06A78.77,78.77,0,0,0,421.64,221H386.21a67.83,67.83,0,0,0-4.49-12.92l12.42-39.3a67.5,67.5,0,0,0-42.83-84.32,68.3,68.3,0,0,0-6.63-13.17A67.28,67.28,0,0,0,309.56,44,67.66,67.66,0,0,0,253.9.45,66,66,0,0,0,246.24,0,66.87,66.87,0,0,0,208,11.94a68.38,68.38,0,0,0-11.55-2.37,66.08,66.08,0,0,0-7.66-.44c-29.57,0-55.51,19.24-64.56,47.89l-19.15,60.61c-1.5-.11-3-.17-4.54-.18-37.52,0-68.09,29.94-68.57,66.75v92.23A150.26,150.26,0,0,0,56.43,356C23.87,366.09,0,396.15,0,432a80.09,80.09,0,0,0,80,80c31.25,0,58.09-18.19,71.25-44.38A144.84,144.84,0,0,0,255.5,512h169A67.5,67.5,0,0,0,492,445.76a67.47,67.47,0,0,0,26-52,67.61,67.61,0,0,0,24.77-66.19A66.67,66.67,0,0,0,518,287.42a53.17,53.17,0,0,0-3-17.95C549.93,260.88,576,229.53,576,192ZM448,80a16,16,0,1,1,16-16A16,16,0,0,1,448,80ZM311,143.26c8.13-25.71,45.21-13.61,37.41,11.05l-5.83,18.48a65.19,65.19,0,0,0-40.58-1Zm-4.34-29.4-19.7,62.36L241.29,190.3c.21-.38.6-.6.74-1l27.18-86.46C277.34,77.09,314.41,89.19,306.62,113.86ZM80,184.83c.14-10.79,9.44-19.39,20.16-19.39h.07a19.52,19.52,0,0,1,19.39,19.63l1.69,40.66L170,71.48c8.12-25.72,45.2-13.62,37.41,11L176.12,181.7a6.5,6.5,0,1,0,12.4,3.91L227.46,62.35c8.12-25.72,45.2-13.62,37.41,11.05l-35.24,112a6.33,6.33,0,0,0,3.44,7.48l-20,6.17C151,219.7,110,276.41,110,340.47v5.66a99.83,99.83,0,0,1-30-69.7ZM80,464a32,32,0,1,1,32-32A32,32,0,0,1,80,464ZM476.5,360h-130a6.5,6.5,0,0,0,0,13H449.77c9.43,0,18.08,6.37,19.86,15.63A19.53,19.53,0,0,1,450.5,412h-104a6.5,6.5,0,0,0,0,13h77.27c9.43,0,18.08,6.37,19.86,15.63A19.53,19.53,0,0,1,424.5,464h-169A97.5,97.5,0,0,1,158,366.5v-26a100.65,100.65,0,0,1,69.22-95.59l87.52-27a20,20,0,0,1,5.73-.85,19.5,19.5,0,0,1,5.79,38.13L288,269H449.77c9.43,0,18.08,6.37,19.86,15.63A19.53,19.53,0,0,1,450.5,308h-104a6.5,6.5,0,0,0,0,13H475.77c9.43,0,18.08,6.37,19.86,15.63A19.53,19.53,0,0,1,476.5,360ZM496,224a32,32,0,1,1,32-32A32,32,0,0,1,496,224Z"/></svg>