<svg xmlns="http://www.w3.org/2000/svg" viewBox="0 0 640 512"><!-- Font Awesome Pro 5.15.4 by @fontawesome - https://fontawesome.com License - https://fontawesome.com/license (Commercial License) --><path d="M456 160c-4.42 0-8 3.58-8 8v128h32V168c0-4.42-3.58-8-8-8h-16zM320 80c13.25 0 24-11.94 24-26.67S320 0 320 0s-24 38.61-24 53.33S306.75 80 320 80zm224 88c0-4.42-3.58-8-8-8h-16c-4.42 0-8 3.58-8 8v128h32V168zm72-40c13.25 0 24-11.94 24-26.67C640 86.61 616 48 616 48s-24 38.61-24 53.33c0 14.73 10.75 26.67 24 26.67zm-224 32c-4.42 0-8 3.58-8 8v128h32V168c0-4.42-3.58-8-8-8h-16zm-288 0c-4.42 0-8 3.58-8 8v128h32V168c0-4.42-3.58-8-8-8h-16zm-80-32c13.25 0 24-11.94 24-26.67C48 86.61 24 48 24 48S0 86.61 0 101.33C0 116.06 10.75 128 24 128zm600 32h-16c-8.84 0-16 7.16-16 16v118.22c0 23.07-18.71 41.78-41.78 41.78H344V128c0-8.84-7.16-16-16-16h-16c-8.84 0-16 7.16-16 16v208H89.78C66.71 336 48 317.29 48 294.22V176c0-8.84-7.16-16-16-16H16c-8.84 0-16 7.16-16 16v118.22C0 343.8 40.2 384 89.78 384H296v80H112c-8.84 0-16 7.16-16 16v16c0 8.84 7.16 16 16 16h416c8.84 0 16-7.16 16-16v-16c0-8.84-7.16-16-16-16H344v-80h206.22c49.59 0 89.78-40.2 89.78-89.78V176c0-8.84-7.16-16-16-16zm-456 0c-4.42 0-8 3.58-8 8v128h32V168c0-4.42-3.58-8-8-8h-16zm64 0c-4.42 0-8 3.58-8 8v128h32V168c0-4.42-3.58-8-8-8h-16zm-120-32c13.25 0 24-11.94 24-26.67S112 48 112 48s-24 38.61-24 53.33S98.75 128 112 128zm64 0c13.25 0 24-11.94 24-26.67S176 48 176 48s-24 38.61-24 53.33S162.75 128 176 128zm64 0c13.25 0 24-11.94 24-26.67S240 48 240 48s-24 38.61-24 53.33S226.75 128 240 128zm160 0c13.25 0 24-11.94 24-26.67S400 48 400 48s-24 38.61-24 53.33S386.75 128 400 128zm64 0c13.25 0 24-11.94 24-26.67S464 48 464 48s-24 38.61-24 53.33S450.75 128 464 128zm64 0c13.25 0 24-11.94 24-26.67S528 48 528 48s-24 38.61-24 53.33S514.75 128 528 128z"/></svg>