<svg xmlns="http://www.w3.org/2000/svg" viewBox="0 0 448 512"><!-- Font Awesome Pro 5.15.4 by @fontawesome - https://fontawesome.com License - https://fontawesome.com/license (Commercial License) --><path d="M443.524 190.109l4.286-24c1.313-7.355-4.342-14.109-11.813-14.109h-89.045l18.909-105.89c1.313-7.355-4.342-14.11-11.813-14.11h-24.38a12 12 0 0 0-11.813 9.89L298.192 152h-111.24l18.909-105.89c1.313-7.355-4.342-14.11-11.813-14.11h-24.38a12 12 0 0 0-11.813 9.89L138.192 152H44.86a12 12 0 0 0-11.813 9.891l-4.286 24C27.448 193.246 33.103 200 40.575 200h89.045l-20 112H16.289a12 12 0 0 0-11.813 9.891l-4.286 24C-1.123 353.246 4.532 360 12.003 360h89.045L82.139 465.891C80.826 473.246 86.481 480 93.953 480h24.38a12 12 0 0 0 11.813-9.891L149.808 360h111.24l-18.909 105.891c-1.313 7.355 4.342 14.109 11.813 14.109h24.38a12 12 0 0 0 11.813-9.891L309.808 360h93.331a12 12 0 0 0 11.813-9.891l4.286-24c1.313-7.355-4.342-14.109-11.813-14.109H318.38l20-112h93.331a12 12 0 0 0 11.813-9.891zM269.62 312H158.38l20-112h111.24l-20 112z"/></svg>