<svg xmlns="http://www.w3.org/2000/svg" viewBox="0 0 512 512"><!-- Font Awesome Pro 5.15.4 by @fontawesome - https://fontawesome.com License - https://fontawesome.com/license (Commercial License) --><path d="M480 416H32c-17.7 0-32 14.3-32 32v32c0 17.7 14.3 32 32 32h448c17.7 0 32-14.3 32-32v-32c0-17.7-14.3-32-32-32zM195.2 105.2c-5.5 10.1-4.4 22.8 4.2 31.4 5.2 5.2 12 7.8 18.9 7.8 4.4 0 8.6-1.5 12.5-3.6 3.3 11 13.1 19.2 25.2 19.2s21.9-8.2 25.2-19.2c4 2.1 8.2 3.6 12.5 3.6 6.8 0 13.6-2.6 18.9-7.8 8.6-8.6 9.7-21.3 4.2-31.4 11-3.3 19.2-13.1 19.2-25.2s-8.2-21.9-19.2-25.2c5.5-10.1 4.4-22.8-4.2-31.4s-21.3-9.7-31.4-4.2C277.9 8.2 268.1 0 256 0s-21.9 8.2-25.2 19.2c-10.1-5.5-22.8-4.4-31.4 4.2s-9.7 21.3-4.2 31.4C184.2 58.1 176 67.9 176 80s8.2 21.9 19.2 25.2zM85.9 335.9l42.1-21.1 64 32 64-32 64 32 64-32 42.1 21.1c5.5 26.4 5.9 45.6 5.9 48.1h48c0-2-2.3-165.5-131.9-244.9-2.8 7.3-7.1 14.2-13 20.1-6.6 6.6-14.6 11.2-23.2 14 46.8 24.6 75.2 61.8 92.6 98.2L384 261.2l-64 32-64-32-64 32-64-32-20.6 10.3c17.4-36.4 45.8-73.6 92.6-98.2-8.6-2.8-16.6-7.4-23.2-14-5.9-5.9-10.1-12.7-12.9-20.1C34.3 218.5 32 382 32 384h48c0-2.5.4-21.7 5.9-48.1z"/></svg>