<svg xmlns="http://www.w3.org/2000/svg" viewBox="0 0 576 512"><!-- Font Awesome Pro 5.15.4 by @fontawesome - https://fontawesome.com License - https://fontawesome.com/license (Commercial License) --><path d="M572 433.06l-10.47-11.86c-5.57-6.31-14.94-6.85-21.65-1.76-10.95 8.32-22.75 15.26-34.96 21.38L408.2 223.85c-4.54-10.61-5.05-22.71-1.33-33.87l6.35-19.04A15.982 15.982 0 0 1 428.4 160h39.2c6.9 0 13 4.4 15.18 10.94l14.04 42.12 13.94 41.82 16.13-41.03 30.36-77.24c6.07-18.15 1.63-36.97-11.31-49.91l-69.08-72.38C467.53 4.99 455.47 0 442.64 0c-8.33 0-16.56 2.19-23.8 6.32L252.01 109.58c-26.33 15.03-47.13 38.04-59.67 66.26L71.48 441c-12.35-6.16-24.29-13.15-35.37-21.56-6.71-5.1-16.07-4.55-21.65 1.76L4 433.06c-5.92 6.71-5.25 17.25 1.85 22.71C53.08 492.14 111.35 512 171.63 512h232.75c60.28 0 118.54-19.86 165.77-56.23 7.09-5.47 7.77-16 1.85-22.71zm-364 31.82h-36.37c-18.73 0-37.01-3.02-54.85-7.51L135.63 416H208v48.88zm112-.88h-64v-64h64v64zm10-112h-84c-12.59 0-23.22 6.55-30.14 16h-58.35l78.7-172.67c8.36-18.81 22.23-34.15 41.07-44.94L442.65 48.01l69.32 72.6-2.68 6.81A63.876 63.876 0 0 0 467.6 112h-39.2a63.913 63.913 0 0 0-60.71 43.76l-6.35 19.04c-7.44 22.33-6.44 46.54 3.02 68.6L419.91 368h-59.77c-6.92-9.45-17.55-16-30.14-16zm74.37 112.88H368V416h73.3l18.39 41.25c-17.99 4.57-36.42 7.63-55.32 7.63z"/></svg>