<svg xmlns="http://www.w3.org/2000/svg" viewBox="0 0 512 512"><!-- Font Awesome Pro 5.15.4 by @fontawesome - https://fontawesome.com License - https://fontawesome.com/license (Commercial License) --><path d="M416 32a95.17 95.17 0 0 0-57.73 19.74C334.93 20.5 298 0 256 0s-78.93 20.5-102.27 51.74A95.56 95.56 0 0 0 0 128c0 41.74 64 224 64 224v128a32 32 0 0 0 32 32h320a32 32 0 0 0 32-32V352s64-182.26 64-224a96 96 0 0 0-96-96zM112 464v-80h288v80zm290.74-128h-29.55L384 201.25a8 8 0 0 0-7.33-8.61l-16-1.28h-.65a8 8 0 0 0-8 7.37l-11 137.3h-69.68V200a8 8 0 0 0-8-8h-16a8 8 0 0 0-8 8v136h-68.42l-11-137.3a8 8 0 0 0-8-7.37h-.65l-16 1.28a8 8 0 0 0-7.33 8.61L138.81 336h-29.55C80 252.78 48.46 149.34 48 128a47.57 47.57 0 0 1 76.72-38l38.52 29.22 28.94-38.73C207.6 59.84 230.86 48 256 48s48.4 11.84 63.82 32.47l28.94 38.73L387.28 90A47.57 47.57 0 0 1 464 127.92c-.46 21.42-32 124.86-61.26 208.08z"/></svg>