<svg xmlns="http://www.w3.org/2000/svg" viewBox="0 0 640 512"><!-- Font Awesome Pro 5.15.4 by @fontawesome - https://fontawesome.com License - https://fontawesome.com/license (Commercial License) --><path d="M627 178.3c-1.5-13.2-7.4-25.9-17.4-35.9-9.7-9.7-22.2-15.8-35.8-17.3-10.5-8.3-23.6-13.1-37.8-13.1s-27.3 4.8-37.8 13.1c-.1 0-.2.1-.4.1C426.3 59 379.8 32 305.4 32h-.2c-72.8.1-138.4 45-167.4 114.4L58.8 336H32c-17.7 0-32 16.1-32 36v72c0 19.9 14.3 36 32 36h448c17.7 0 32-16.1 32-36v-72c0-19.9-14.3-36-32-36h-29.6l-62.8-112.8 51.8 20.3c1.8 3.5 3.2 7.1 5.6 10.2 1.5 13.2 7.4 25.9 17.4 35.9 9.8 9.8 22.4 15.9 36 17.5 10.4 8.2 23.5 12.9 37.5 12.9s27.1-4.7 37.5-12.9c13.6-1.6 26.2-7.7 36-17.5 10-10 15.9-22.6 17.4-35.8 8.3-10.4 13-23.6 13-37.7s-4.6-27.3-12.8-37.8zM464 384v48H48v-48h416zM335.4 227.9L395.5 336H110.8l71.3-171.2C203.5 113.3 251.8 80 305.2 80h.1c54.4 0 89.5 17.1 150.3 72-5.5 8.1-9.6 16.9-10.7 26.4-3.1 3.9-5.1 8.5-7.2 13l-52.5-20.6c-4.8-1.9-9.8-2.8-14.8-2.8-14.2 0-27.5 7.7-34.8 20-7.1 12.3-7.3 27.3-.2 39.9zm246.9.6l-9.5 2.8 4.7 8.7c2.9 5.3 2.1 11.6-2 15.6-2.5 2.5-5.9 3.9-9.4 3.9-1.8 0-3.8-.6-6.2-1.9l-8.7-4.7-2.8 9.5c-1.7 5.8-6.7 9.7-12.5 9.7s-10.8-3.9-12.5-9.7l-2.8-9.5-8.7 4.7c-2.4 1.3-4.4 1.9-6.2 1.9-3.6 0-6.9-1.4-9.4-3.9-4.1-4.1-4.9-10.3-2-15.6l4.7-8.7-9.5-2.8c-5.8-1.7-9.7-6.7-9.7-12.5s3.9-10.8 9.7-12.5l9.5-2.8-4.7-8.7c-2.9-5.3-2.1-11.6 2-15.6 2.4-2.4 5.6-3.7 9-3.7 2.3 0 4.6.6 6.7 1.7l8.7 4.7 2.8-9.5c1.7-5.8 6.7-9.7 12.5-9.7s10.8 3.9 12.5 9.7l2.8 9.5 8.7-4.7c2.1-1.1 4.4-1.7 6.7-1.7 3.4 0 6.6 1.3 9 3.7 4.1 4.1 4.9 10.3 2 15.6l-4.7 8.7 9.5 2.8c5.8 1.7 9.7 6.7 9.7 12.5s-4.1 10.8-9.9 12.5z"/></svg>