<svg xmlns="http://www.w3.org/2000/svg" viewBox="0 0 640 512"><!-- Font Awesome Pro 5.15.4 by @fontawesome - https://fontawesome.com License - https://fontawesome.com/license (Commercial License) --><path d="M617.78 239.05c-24.06-11.08-43.34 4.24-49.07 11.62-1.64 2.45-17.73 25.85-57.17 48.4C495.86 198.05 462 64 392.32 64c-18.35 0-36.06 7.23-52.66 21.52-11.75 10.09-27.5 10.09-39.25 0C283.81 71.23 266.1 64 247.75 64 178.1 64 144.2 198.09 128.53 299.12c-36.85-21.06-53.26-42.81-56.4-47.35a40.82 40.82 0 0 0-49.53-13c-18.21 8.1-27 27.85-20.42 45.93C5.28 292.87 79.16 480 320 480s314.79-187.13 317.82-195.1c6.55-17.99-2.09-37.61-20.04-45.85zm-370-127c6.53 0 13.72 3.33 21.35 9.89 30 25.83 71.9 25.81 101.87 0 7.63-6.58 14.82-9.91 21.35-9.91 18.19 0 44.6 57.37 63.46 148.85-78.15 35.67-186.45 38.81-271.49 0C203.15 169.37 229.56 112 247.75 112zM320 432c-135.81 0-209.67-67.5-245.16-115.87 41.5 27 117.19 58.27 245.16 58.27s204-31.73 245.31-58.54C529.85 364.36 456 432 320 432z"/></svg>