<svg xmlns="http://www.w3.org/2000/svg" viewBox="0 0 512 512"><!-- Font Awesome Pro 5.15.4 by @fontawesome - https://fontawesome.com License - https://fontawesome.com/license (Commercial License) --><path d="M352 192c0-17.67-14.33-32-32-32s-32 14.33-32 32 14.33 32 32 32 32-14.33 32-32zm157.21 83c-20.94-47.12-48.44-151.73-73.08-186.75C397.68 33.6 334.56 0 266.09 0h-66.08C95.47 0 4.12 80.08.14 184.55-2.13 244.33 23.1 298.14 64 334.82V496c0 8.84 7.16 16 16 16h16c8.84 0 16-7.16 16-16V313.39l-15.95-14.31c-46.94-42.1-63.11-111.72-32.19-172.5C89.2 76.78 143.11 48 198.99 48h67.1c51.99 0 100.88 25.37 130.78 67.87 11.2 15.91 28.06 65.67 40.38 102 6.55 19.32 12.86 37.92 18.97 54.13H400v112c0 8.84-7.16 16-16 16h-80v96c0 8.84 7.16 16 16 16h16c8.84 0 16-7.16 16-16v-48h32c35.35 0 64-28.65 64-64v-64h31.96c23.16 0 38.65-23.84 29.25-45z"/></svg>