<svg xmlns="http://www.w3.org/2000/svg" viewBox="0 0 512 512"><!-- Font Awesome Pro 5.15.4 by @fontawesome - https://fontawesome.com License - https://fontawesome.com/license (Commercial License) --><path d="M432 80v352h32a16 16 0 0 1 16 16v16a16 16 0 0 1-16 16H336a16 16 0 0 1-16-16v-16a16 16 0 0 1 16-16h32V280H144v152h32a16 16 0 0 1 16 16v16a16 16 0 0 1-16 16H48a16 16 0 0 1-16-16v-16a16 16 0 0 1 16-16h32V80H48a16 16 0 0 1-16-16V48a16 16 0 0 1 16-16h128a16 16 0 0 1 16 16v16a16 16 0 0 1-16 16h-32v152h224V80h-32a16 16 0 0 1-16-16V48a16 16 0 0 1 16-16h128a16 16 0 0 1 16 16v16a16 16 0 0 1-16 16z"/></svg>