<svg xmlns="http://www.w3.org/2000/svg" viewBox="0 0 512 512"><!-- Font Awesome Pro 5.15.4 by @fontawesome - https://fontawesome.com License - https://fontawesome.com/license (Commercial License) --><path d="M224 336V192.36c0-17.67-14.33-32-32-32h-48c-35.35 0-64 28.65-64 64V304c0 35.35 28.65 64 64 64h48c17.67 0 32-14.33 32-32zm-48-16h-32c-8.82 0-16-7.18-16-16v-79.64c0-8.82 7.18-16 16-16h32V320zM256 0C113.18 0 4.58 118.83 0 256v16c0 8.84 7.16 16 16 16h16c8.84 0 16-7.16 16-16v-16c0-114.69 93.31-208 208-208s208 93.31 208 208h-.12c.08 2.43.12 165.72.12 165.72 0 23.35-18.93 42.28-42.28 42.28H320c0-26.51-21.49-48-48-48h-32c-26.51 0-48 21.49-48 48s21.49 48 48 48h181.72c49.86 0 90.28-40.42 90.28-90.28V256C507.42 118.83 398.82 0 256 0zm112 368c35.35 0 64-28.65 64-64v-79.64c0-35.35-28.65-64-64-64h-48c-17.67 0-32 14.33-32 32V336c0 17.67 14.33 32 32 32h48zm-32-159.64h32c8.82 0 16 7.18 16 16V304c0 8.82-7.18 16-16 16h-32V208.36z"/></svg>