<svg xmlns="http://www.w3.org/2000/svg" viewBox="0 0 512 512"><!-- Font Awesome Pro 5.15.4 by @fontawesome - https://fontawesome.com License - https://fontawesome.com/license (Commercial License) --><path d="M336 216v-48a8 8 0 0 0-8-8h-56v-56a8 8 0 0 0-8-8h-48a8 8 0 0 0-8 8v56h-56a8 8 0 0 0-8 8v48a8 8 0 0 0 8 8h56v56a8 8 0 0 0 8 8h48a8 8 0 0 0 8-8v-56h56a8 8 0 0 0 8-8zm173.21 59c-20.94-47.12-48.44-151.73-73.08-186.75A207.94 207.94 0 0 0 266.09 0H200C95.47 0 4.12 80.08.14 184.55A191.3 191.3 0 0 0 64 334.82V496a16 16 0 0 0 16 16h16a16 16 0 0 0 16-16V313.39l-16-14.31C49.11 257 32.94 187.36 63.86 126.58 89.2 76.78 143.11 48 199 48h67.1a160.06 160.06 0 0 1 130.78 67.87c11.2 15.91 28.06 65.67 40.38 102 6.55 19.32 12.86 37.92 19 54.13H400v112a16 16 0 0 1-16 16h-80v96a16 16 0 0 0 16 16h16a16 16 0 0 0 16-16v-48h32a64 64 0 0 0 64-64v-64h32a32 32 0 0 0 29.21-45z"/></svg>