<svg xmlns="http://www.w3.org/2000/svg" viewBox="0 0 640 512"><!-- Font Awesome Pro 5.15.4 by @fontawesome - https://fontawesome.com License - https://fontawesome.com/license (Commercial License) --><path d="M320,224a32,32,0,1,0-32-32A32,32,0,0,0,320,224Zm189.2,51c-20.93-47.13-48.43-151.73-73.07-186.75A207.9,207.9,0,0,0,266.09,0H198.17C93.66,0,3.67,80.86.11,185.3A191.31,191.31,0,0,0,64,334.81V496a16,16,0,0,0,16,16H96a16,16,0,0,0,16-16V313.39l-16-14.31c-46.6-41.79-62.88-110.71-32.86-171.17C88.2,77.53,142.07,48,198.32,48h67.77a160.1,160.1,0,0,1,130.79,67.87c11.18,15.91,28.06,65.68,40.37,102,6.55,19.32,12.86,37.93,19,54.13H400v48H347.17c-30.32,0-57.5,22.71-59.09,53A56,56,0,0,0,344,432h56v16a16,16,0,0,1-16,16H304v48h80a64,64,0,0,0,64-64V408a16,16,0,0,0-16-16H344a16,16,0,0,1,0-32h88a16,16,0,0,0,16-16V320H480A32,32,0,0,0,509.2,275ZM616,360a24,24,0,1,0,24,24A24,24,0,0,0,616,360Zm0,104a24,24,0,1,0,24,24A24,24,0,0,0,616,464Zm0-160a24,24,0,1,0-24-24A24,24,0,0,0,616,304Zm-64,16a24,24,0,1,0,24,24A24,24,0,0,0,552,320Zm0,96a24,24,0,1,0,24,24A24,24,0,0,0,552,416Zm-64-56a24,24,0,1,0,24,24A24,24,0,0,0,488,360Z"/></svg>