<svg xmlns="http://www.w3.org/2000/svg" viewBox="0 0 512 512"><!-- Font Awesome Pro 5.15.4 by @fontawesome - https://fontawesome.com License - https://fontawesome.com/license (Commercial License) --><path d="M256 32C114.52 32 0 146.497 0 288v49.714a24.001 24.001 0 0 0 12.319 20.966l19.702 10.977C32.908 430.748 82.698 480 144 480h24c13.255 0 24-10.745 24-24V280c0-13.255-10.745-24-24-24h-24c-40.744 0-76.402 21.758-96 54.287V288c0-114.691 93.309-208 208-208s208 93.309 208 208v22.287C444.402 277.758 408.744 256 368 256h-24c-13.255 0-24 10.745-24 24v176c0 13.255 10.745 24 24 24h24c61.302 0 111.092-49.252 111.979-110.344l19.702-10.977A24.001 24.001 0 0 0 512 337.713V288c0-141.48-114.497-256-256-256zM144 304v128c-35.29 0-64-28.71-64-64s28.71-64 64-64zm224 128V304c35.29 0 64 28.71 64 64s-28.71 64-64 64z"/></svg>