<svg xmlns="http://www.w3.org/2000/svg" viewBox="0 0 512 512"><!-- Font Awesome Pro 5.15.4 by @fontawesome - https://fontawesome.com License - https://fontawesome.com/license (Commercial License) --><path d="M473.7 73.9l-2.4-2.5C445.5 45.1 411.6 32 377.6 32s-67.9 13.1-93.7 39.4L256 100l-27.9-28.5C202.4 45.2 168.4 32 134.4 32S66.5 45.2 40.7 71.5l-2.4 2.4C-10.4 123.7-12.5 203 31 256l212.1 218.5c3.5 3.6 8.2 5.5 12.8 5.5 4.7 0 9.3-1.8 12.8-5.5L481 256c43.5-53 41.4-132.3-7.3-182.1zM445 224.2L256 418.9 67 224.2c-27.2-34.6-24.9-85.5 5.2-116.3l2.8-2.8C90.8 88.9 111.9 80 134.4 80s43.6 8.9 59.4 25.1l26 26.6L240 192l-75.6 35.2c-4.8 2.4-5.9 8.7-2.3 12.6l86.8 88.6c5.9 6 15.8.1 13.4-7.9L240 248l76.6-52.4c3-2.1 4.2-6 2.9-9.4l-23.6-58.3 22.3-22.8C334 88.9 355.1 80 377.6 80s43.6 8.9 59 24.7l2.7 2.8c30.6 31.2 32.9 82.1 5.7 116.7z"/></svg>