<svg xmlns="http://www.w3.org/2000/svg" viewBox="0 0 448 512"><!-- Font Awesome Pro 5.15.4 by @fontawesome - https://fontawesome.com License - https://fontawesome.com/license (Commercial License) --><path d="M325.2 160.4c-13.9-11.7-29.6-16.4-44.9-16.4-22.1 0-43.3 10-56.3 23.3-13-13.3-34.2-23.3-56.3-23.3-15.3 0-31 4.7-44.9 16.4-37.6 31.7-32.1 83.3-5.3 110.5l87.7 89.3c5.5 5.6 12.1 7.8 18.5 7.8h.6c6.4 0 13-2.2 18.5-7.8l87.7-89.3c26.7-27.2 32.3-78.8-5.3-110.5zm-28.9 76.9L224 310.9l-72.3-73.6c-4-4.1-16.4-24.7 2-40.2 13.6-11.4 31.3-1.1 36.1 3.7l34.2 34.8 34.2-34.8c4.7-4.8 22.4-15.2 36.1-3.7 18.3 15.5 5.9 36.2 2 40.2zM392 32H56C25.1 32 0 57.1 0 88v336c0 30.9 25.1 56 56 56h336c30.9 0 56-25.1 56-56V88c0-30.9-25.1-56-56-56zm8 392c0 4.4-3.6 8-8 8H56c-4.4 0-8-3.6-8-8V88c0-4.4 3.6-8 8-8h336c4.4 0 8 3.6 8 8v336z"/></svg>