<svg xmlns="http://www.w3.org/2000/svg" viewBox="0 0 448 512"><!-- Font Awesome Pro 5.15.4 by @fontawesome - https://fontawesome.com License - https://fontawesome.com/license (Commercial License) --><path d="M48,156.12V112A16,16,0,0,0,32,96H16A16,16,0,0,0,0,112v44.12A186.57,186.57,0,0,0,54.67,288.6,140.87,140.87,0,0,1,96,387.88V464a16,16,0,0,0,16,16h16a16,16,0,0,0,16-16V387.88A186.61,186.61,0,0,0,89.33,255.39,140.83,140.83,0,0,1,48,156.12Zm152,0V48a16,16,0,0,0-16-16H168a16,16,0,0,0-16,16V156.12A186.57,186.57,0,0,0,206.67,288.6,140.87,140.87,0,0,1,248,387.88V464a16,16,0,0,0,16,16h16a16,16,0,0,0,16-16V387.88a186.61,186.61,0,0,0-54.67-132.49A140.83,140.83,0,0,1,200,156.12Zm193.33,99.27A140.83,140.83,0,0,1,352,156.12V112a16,16,0,0,0-16-16H320a16,16,0,0,0-16,16v44.12A186.57,186.57,0,0,0,358.67,288.6,140.87,140.87,0,0,1,400,387.88V464a16,16,0,0,0,16,16h16a16,16,0,0,0,16-16V387.88A186.61,186.61,0,0,0,393.33,255.39Z"/></svg>