<svg xmlns="http://www.w3.org/2000/svg" viewBox="0 0 640 512"><!-- Font Awesome Pro 5.15.4 by @fontawesome - https://fontawesome.com License - https://fontawesome.com/license (Commercial License) --><path d="M316.5 416.02h235.22c15.69 0 30.81-6.63 41.51-18.16 10.55-11.41 15.9-26.75 14.68-42.13-9.94-122.54-110.45-219.35-231.95-226.98V48h184.03c8.84 0 16-7.16 16-16V16c0-8.84-7.17-16-16-16H143.93c-8.84 0-16 7.16-16 16v16c0 8.84 7.17 16 16 16h184.03v80H148.19l-36.07-48.02C104.58 69.97 92.58 64 80.06 64H39.99C27.56 64 16.04 69.61 8.4 79.39c-7.64 9.78-10.3 22.28-7.01 35.2L36.2 233.95l164.93 65.85 70.47 93.82c10.55 14.03 27.33 22.4 44.9 22.4zm91.47-234.03c81.63 20.18 144.96 90.87 151.98 177.57.22 2.66-1 4.58-2.07 5.72-.94 1.02-3 2.73-6.17 2.73H407.97V181.99zM75.84 198.07L50.7 112h25.36l48.09 64h235.82v192.01H316.5c-2.51 0-4.92-1.19-6.42-3.2L231.5 260.23 75.84 198.07zm561.88 274.49l-22.16-22.14c-3.09-3.09-8.06-3.09-11.22-.07-7.39 7.06-16.14 13.65-30.41 13.65H239.95c-8.8 0-16 7.2-16 16v16c0 8.8 7.2 16 16 16h333.98c13.41 0 31.79 0 63.16-27.47a8.564 8.564 0 0 0 2.91-6.09c.06-2.24-.75-4.33-2.28-5.88z"/></svg>