<svg xmlns="http://www.w3.org/2000/svg" viewBox="0 0 384 512"><!-- Font Awesome Pro 5.15.4 by @fontawesome - https://fontawesome.com License - https://fontawesome.com/license (Commercial License) --><path d="M114.13 252.08L142.88 141c5.59-21.31-9.34-38.69-25.94-42.69-42.84-10.25-87.22 15.28-98.19 57.28L1.13 224.05c-4.9 18.7 6.53 38.01 25.94 42.69l44.41 10.64c20.2 4.76 38.24-8.23 42.65-25.3zm-43.31-24.22l-19.87-4.77 14.28-55.47c3.28-12.59 14.31-21.45 27.22-23.28l-21.63 83.52zM368 160h-16c-8.84 0-16 7.16-16 16v24h-37.12l-50.09-57.16c-9.59-9.58-22.34-14.84-35.87-14.84-23.37 0-43.62 15.83-49.25 38.47l-22.53 90.08c-4.78 18.97.84 39.34 14.72 53.23l73.81 73.81c1.5 1.5 2.34 3.55 2.34 5.66V488c0 13.25 10.75 24 24 24s24-10.75 24-24v-98.75c0-14.95-5.81-29.02-16.41-39.59l-50.37-50.38 24.55-96.21 32.16 36.75c4.56 5.2 11.16 8.19 18.06 8.19h48v248c0 8.84 7.16 16 16 16h16c8.84 0 16-7.16 16-16V176c0-8.84-7.16-16-16-16zM121.87 317.6L80.73 482.17c-3.22 12.86 4.59 25.89 17.47 29.11 1.94.48 3.91.72 5.84.72 10.75 0 20.53-7.28 23.25-18.17l33.47-133.88-27.55-27.55c-4.46-4.46-8-9.59-11.34-14.8zM239.99 96c26.51 0 48-21.49 48-48s-21.49-48-48-48-48 21.49-48 48 21.49 48 48 48z"/></svg>