<svg xmlns="http://www.w3.org/2000/svg" viewBox="0 0 640 512"><!-- Font Awesome Pro 5.15.4 by @fontawesome - https://fontawesome.com License - https://fontawesome.com/license (Commercial License) --><path d="M559.21 91.45c-18.74 1.41-34.99 8.97-49.36 15.86-18.82-25.75-48.45-42.44-80.98-43.51-6.67-18.5-24.2-31.8-44.98-31.8H351.9c-26.5 0-47.99 21.49-47.99 48v4.23C275.19 71.45 242.66 64 207.94 64 99.48 64 0 128 0 224v224c0 17.67 14.32 32 31.99 32h79.98c17.67 0 31.99-14.33 31.99-32v-40.58c55.92 15.3 103.01 6.82 127.96 0V448c0 17.67 14.32 32 31.99 32h79.98c17.67 0 31.99-14.33 31.99-32V303.75l95.97-.07V336c0 8.84 7.16 16 16 16h31.99c8.83 0 16-7.16 16-16v-32.37l12.78-.01c28.34 0 51.39-23.08 51.39-51.44v-82.55c-.01-43.7-35.95-81.28-80.8-78.18zM367.89 432H319.9v-87.47c-122.94 33.63-114.46 29.95-223.93 0V432H47.99V235.51C56.43 156.2 132.07 112 207.94 112c35.88 0 69.1 10.02 95.97 26.58l.19 58.89c0 43.64 26.27 80.96 63.79 97.35V432zm224.12-176.38l-181.63.13h-.03c-32.18 0-58.26-26.09-58.26-58.28L351.9 88c0-4.42 3.58-8 8-8h16c4.42 0 8 3.58 8 8v31.52c22.43-6.57 33.96-8.29 44.57-7.53 21.76 1.55 40.8 15.33 49.31 35.42l8.97 21.17c54.94-20.54 59.67-28.03 76.04-29.25 18.26-1.58 29.24 16.98 29.24 30.31v85.98zM431.87 160c-8.83 0-16 7.16-16 16s7.16 16 16 16 16-7.16 16-16-7.16-16-16-16z"/></svg>