<svg xmlns="http://www.w3.org/2000/svg" viewBox="0 0 640 512"><!-- Font Awesome Pro 5.15.4 by @fontawesome - https://fontawesome.com License - https://fontawesome.com/license (Commercial License) --><path d="M600 304H407.3L520 86.5c9.9-19.7 1.8-43.7-17.9-53.6L444.8 4.2c-19.7-9.9-43.7-1.9-53.6 17.7L320 158.2 248.8 21.9c-9.9-19.6-33.9-27.6-53.6-17.7l-57.3 28.6c-19.7 9.9-27.8 34-17.9 53.6L232.7 304H40c-22.1 0-40 18-40 40v128c0 22.1 17.9 40 40 40h186.5c37.2 0 71.2-17 93.6-45.1 22.4 28.1 56.3 45.1 93.5 45.1H600c22.1 0 40-17.9 40-40V344c0-22-17.9-40-40-40zM166.6 72.2l43-21.5 83.3 159.4-27.5 52.7-98.8-190.6zM79.6 464H48V352h31.6v112zm211.3-39.8c-12.3 24.6-37 39.8-64.5 39.8H111.6V352h141.9c12.3 0 23.3-6.8 28.5-17.3l148.4-284 43 21.5-182.5 352zm237 39.8H413.5c-6.6 0-43.4.8-66.5-43.7l35.7-68.9c7.2.9-21.4.6 145.2.6v112zm64.1 0h-32V352h32v112z"/></svg>