<svg xmlns="http://www.w3.org/2000/svg" viewBox="0 0 448 512"><!-- Font Awesome Pro 5.15.4 by @fontawesome - https://fontawesome.com License - https://fontawesome.com/license (Commercial License) --><path d="M224 96c26.5 0 48-21.5 48-48S250.5 0 224 0s-48 21.5-48 48 21.5 48 48 48zm31.9 48c0 26.5 21.5 48 48 48s48-21.5 48-48-21.5-48-48-48-48 21.5-48 48zM144 191.9c26.5 0 48-21.5 48-48s-21.5-48-48-48-48 21.5-48 48 21.5 48 48 48zm276 144.3c-14.4-1.4-29.2-4.2-43.9-8.4-7.1-2-11.4-8.7-9.8-15.2 3.5-14.2 8.3-27.7 14.1-40 8.8-18.7-3.9-40.8-25-42.6-77.4-6.9-94.9-37.9-131.4-37.9-37.6 0-52.9 30.9-131.4 37.9-21.3 1.9-33.8 24.1-25 42.6 5.9 12.4 10.6 25.9 14.1 40.1 1.6 6.5-2.7 13.2-9.8 15.2-14.8 4.2-29.6 7-43.9 8.4C8.7 338.2-6.7 358.9 3 379c14.4 29.8 22 64.1 22.2 99 .1 24.3 21.5 34.1 34.9 34.1 5.9 0 11.8-1.5 17.3-4.5 32.2-17.5 67.5-28.4 102.1-31.5 21.2-1.9 33.9-24 25-42.6-5.9-12.4-10.6-25.9-14.1-40-6.6-26.3 73.7-26.3 67.1 0-3.5 14.2-8.3 27.6-14.1 40-8.8 18.7 3.9 40.8 25 42.6 34.6 3.1 69.9 14 102.1 31.5 5.5 3 11.4 4.5 17.3 4.5 13.2 0 34.8-9.7 34.9-34.1.2-34.9 7.8-69.2 22.2-99 10.2-21.1-6.5-41-24.9-42.8zm-232.9-4.1c-32.2 9.1-51.2 41.2-43.2 73 2.3 9 4.9 17.8 8 26.3-27.1 4.6-53.7 13-79.5 25-2-26.4-7.5-51.7-16.5-75.7 9.7-1.8 19.4-4 29.1-6.8 32.2-9.1 51.2-41.2 43.2-73-2.3-9-4.9-17.8-8-26.3 27-4.6 53.9-13.1 79.5-25.1 2 26.2 7.6 51.8 16.5 75.7-9.7 1.8-19.4 4.1-29.1 6.9zm188.5 124.3c-25.7-12-52.3-20.4-79.5-25 3.1-8.5 5.7-17.3 8-26.3 7.1-28.3-7.3-56.7-33.2-69.1-1.9-14-17.9-35.3-22.9-85 0-.5.1-1 .2-1.5 25.6 11.9 52.5 20.4 79.5 25.1-3.1 8.5-5.7 17.3-8 26.3-8 31.8 11 63.9 43.2 73 9.7 2.8 19.4 5 29.1 6.8-8.9 24-14.4 49.3-16.4 75.7z"/></svg>