<svg xmlns="http://www.w3.org/2000/svg" viewBox="0 0 576 512"><!-- Font Awesome Pro 5.15.4 by @fontawesome - https://fontawesome.com License - https://fontawesome.com/license (Commercial License) --><path d="M231.3 191.8c-15.3 0-31 4.8-44.9 16.5-37.7 31.7-32.1 83.3-5.3 110.6l87.8 89.4c12.7 12.9 30.3 7.5 37.7 0l87.8-89.4c26.8-27.3 32.4-78.9-5.3-110.6-13.9-11.7-29.7-16.5-44.9-16.5-22.2 0-43.3 10-56.4 23.3-13.2-13.3-34.3-23.3-56.5-23.3zM358.1 245c18.3 15.4 5.9 36.1 2 40.2l-72.4 73.6-72.3-73.6c-4-4.1-16.4-24.8 2-40.2 13.6-11.5 31.3-1.1 36.1 3.8l34.3 34.9 34.3-34.9c4.6-4.9 22.3-15.3 36-3.8zM573 224l-61.1-52.2V72c0-4.4-3.6-8-8-8h-32c-4.4 0-8 3.6-8 8v60.5L313.2 9.1c-14.7-12.1-36-12.1-50.7 0L2.9 224.3c-3.4 2.8-3.9 7.8-1.1 11.3l20.3 24.8c2.8 3.4 7.8 3.9 11.3 1.1l30.3-27.7V496c0 8.8 7.3 16 16.1 16H496c8.8 0 16-7.2 16-16V233.8l30.8 27.3c3.4 2.8 8.5 2.3 11.3-1.1l20.3-24.8c2.6-3.4 2-8.4-1.4-11.2zM463.8 464H111.7V194.5l171-140c2.9-2.4 7.2-2.4 10.1 0l171 140V464z"/></svg>