<svg xmlns="http://www.w3.org/2000/svg" viewBox="0 0 576 512"><!-- Font Awesome Pro 5.15.4 by @fontawesome - https://fontawesome.com License - https://fontawesome.com/license (Commercial License) --><path d="M570.24 247.41L323.87 45a56.06 56.06 0 0 0-71.74 0L5.76 247.41a16 16 0 0 0-2 22.54L14 282.25a16 16 0 0 0 22.53 2L64 261.69V448a32.09 32.09 0 0 0 32 32h128a32.09 32.09 0 0 0 32-32V344h64v104a32.09 32.09 0 0 0 32 32h128a32.07 32.07 0 0 0 32-31.76V261.67l27.53 22.62a16 16 0 0 0 22.53-2L572.29 270a16 16 0 0 0-2.05-22.59zM463.85 432H368V328a32.09 32.09 0 0 0-32-32h-96a32.09 32.09 0 0 0-32 32v104h-96V222.27L288 77.65l176 144.56z"/></svg>