<svg xmlns="http://www.w3.org/2000/svg" viewBox="0 0 576 512"><!-- Font Awesome Pro 5.15.4 by @fontawesome - https://fontawesome.com License - https://fontawesome.com/license (Commercial License) --><path d="M569.6 460.8C512 383.9 512 320 512 320v-64c0-84-46.4-123-101.2-182.7l39.8-39.8C462.9 21.2 454.2 0 436.7 0H287.6C192 0 64 109.5 64 256v64s0 63.9-57.7 140.8c-15.8 21-.3 51.2 26 51.2h511.3c26.4 0 41.8-30.1 26-51.2zM368.3 464h-160V328c0-44.1 35.9-80 80-80s80 35.9 80 80zm48 0V328c0-70.6-57.4-128-128-128s-128 57.4-128 128v136H62.5c48-75.8 49.5-136.6 49.5-144v-64c0-118.7 106.5-208 175.5-208h80.7l-23.9 23.9c36.5 39.7 34.4 37.5 49.2 53.2C441.1 175.8 464 202.6 464 256v64c0 7.4 1.5 68.2 49.5 144z"/></svg>