<svg xmlns="http://www.w3.org/2000/svg" viewBox="0 0 576 512"><!-- Font Awesome Pro 5.15.4 by @fontawesome - https://fontawesome.com License - https://fontawesome.com/license (Commercial License) --><path d="M464 80a16 16 0 1 0 16 16 16 16 0 0 0-16-16zm111.94 22.25c0-9.48-4.91-23.14-10.94-30.47L543.28 45.3c16-5.39 29.12-18.85 32.56-35.66A8.11 8.11 0 0 0 567.9 0H432c-68.41 0-125.81 48-140.41 112H176a111.81 111.81 0 0 0-92 48.41C37.37 162.55 0 200.84 0 248v56a16 16 0 0 0 16 16h16a16 16 0 0 0 16-16v-56c0-13.22 6.87-24.39 16.78-31.69-.16 2.17-6.73 47.72 31.38 86.27l-12.94 43.76a82.4 82.4 0 0 0-1.06 40.85l24.12 100.29A32 32 0 0 0 137.37 512h74.72a32 32 0 0 0 31-39.86l-25.5-100.76 9.47-26.38L288 358.5V480a32 32 0 0 0 32 32h80a32 32 0 0 0 32-32V324.34a126.17 126.17 0 0 0 32-81.54c.06-.92.09-8.42.09-8.42a64.41 64.41 0 0 0 40.91-.18l31-10.59a59.07 59.07 0 0 0 40-56zM224 295.12l-27.81-6.18-28.75 80L191.53 464H150l-21.13-87.86a33 33 0 0 1 .38-16.19l22.69-76.72a63.79 63.79 0 0 1 8.06-121V176c0 40.16 27.18 73.73 64 84.25zM208 176v-16h80v16a40 40 0 0 1-80 0zm312.5 2.19l-31 10.59A16 16 0 0 1 473 185l-24.94-25h-32v80H416a79.66 79.66 0 0 1-32 63.64V464h-48V320l-64-14.22v-45.53c36.82-10.52 64-44.09 64-84.25v-32a96 96 0 0 1 96-96h51.34L528 102.28l.06 65.34a11.13 11.13 0 0 1-7.56 10.57z"/></svg>