<svg xmlns="http://www.w3.org/2000/svg" viewBox="0 0 512 512"><!-- Font Awesome Pro 5.15.4 by @fontawesome - https://fontawesome.com License - https://fontawesome.com/license (Commercial License) --><path d="M506.9 268.6c-.8-1.9-71.4-140.4-103.9-166 6.1-18.9 6.7-39.9 1-61.3-8.2-31.5-42-48.9-72.4-38L166.8 65.1C19 118.2 0 257 0 372v76c0 35.3 28.7 64 64 64h232c19.9 0 38.5-10.7 48.4-27.9 10-17.2 10.1-38.6.2-55.9l-.5-.9-.5-.9-39.1-62.2c2.3-1 .3-.5 3.9-1.6l5.5 7.4c14.1 18.8 36.6 30 60 30h27.3c18.8 0 36.5-7 50.3-19.7 42.8-35.4 36.8-30.3 38.8-32.3 20.8-20.8 27.3-52 16.6-79.4zM456.4 314l-36.8 30.3c-4.9 4.9-11.5 7.6-18.4 7.6h-27.3c-8.5 0-16.6-4-21.7-10.8l-33.7-45.5C299.9 314.2 281 328 250.8 328c-34.6 0-66-20.6-80.1-52.6-2.5-5.8-8.3-9.5-14.6-9.5-4.2 0-8.2 1.7-11.3 4.7l-12.1 12.1c-5 5-6.2 12.4-3.1 18.6C153 347.4 199.4 376 250.7 376c1.4 0 2.7-.3 4-.4l48.1 76.4c3 5.3-.8 12-6.9 12H64c-8.8 0-16-7.2-16-16v-76c0-129.9 29.2-223.7 135.6-262l164.3-61.6c5.5-2 9.1 2.6 9.7 5 9.9 37.7-13.1 58.3-27.7 66.9 34.6 6.7 60.5 35.9 75.5 64.4l56.8 101.5c3.8 9.6 1.5 20.5-5.8 27.8zM296 176c-13.3 0-24 10.7-24 24s10.7 24 24 24 24-10.7 24-24c0-13.2-10.7-24-24-24z"/></svg>