<svg xmlns="http://www.w3.org/2000/svg" viewBox="0 0 640 512"><!-- Font Awesome Pro 5.15.4 by @fontawesome - https://fontawesome.com License - https://fontawesome.com/license (Commercial License) --><path d="M500 416h-40c-6.6 0-12 5.4-12 12v40c0 6.6 5.4 12 12 12h40c6.6 0 12-5.4 12-12v-40c0-6.6-5.4-12-12-12zm0-160h-40c-6.6 0-12 5.4-12 12v40c0 6.6 5.4 12 12 12h40c6.6 0 12-5.4 12-12v-40c0-6.6-5.4-12-12-12zM340 416h-40c-6.6 0-12 5.4-12 12v40c0 6.6 5.4 12 12 12h40c6.6 0 12-5.4 12-12v-40c0-6.6-5.4-12-12-12zm0-160h-40c-6.6 0-12 5.4-12 12v40c0 6.6 5.4 12 12 12h40c6.6 0 12-5.4 12-12v-40c0-6.6-5.4-12-12-12zM180 416h-40c-6.6 0-12 5.4-12 12v40c0 6.6 5.4 12 12 12h40c6.6 0 12-5.4 12-12v-40c0-6.6-5.4-12-12-12zm0-160h-40c-6.6 0-12 5.4-12 12v40c0 6.6 5.4 12 12 12h40c6.6 0 12-5.4 12-12v-40c0-6.6-5.4-12-12-12zm182-144h-26V86c0-3.3-2.7-6-6-6h-20c-3.3 0-6 2.7-6 6v26h-26c-3.3 0-6 2.7-6 6v20c0 3.3 2.7 6 6 6h26v26c0 3.3 2.7 6 6 6h20c3.3 0 6-2.7 6-6v-26h26c3.3 0 6-2.7 6-6v-20c0-3.3-2.7-6-6-6zm222-16H464V53.7C464 24.1 439.9 0 410.3 0H229.7C200.1 0 176 24.1 176 53.7V96H56c-30.9 0-56 25.1-56 56v352c0 4.4 3.6 8 8 8h32c4.4 0 8-3.6 8-8V152c0-4.4 3.6-8 8-8h168V53.7c0-3.2 2.6-5.7 5.7-5.7h180.6c3.2 0 5.7 2.6 5.7 5.7V144h168c4.4 0 8 3.6 8 8v352c0 4.4 3.6 8 8 8h32c4.4 0 8-3.6 8-8V152c0-30.9-25.1-56-56-56z"/></svg>