<svg xmlns="http://www.w3.org/2000/svg" viewBox="0 0 640 512"><!-- Font Awesome Pro 5.15.4 by @fontawesome - https://fontawesome.com License - https://fontawesome.com/license (Commercial License) --><path d="M192 144h26a6 6 0 0 0 6-6v-20a6 6 0 0 0-6-6h-26V86a6 6 0 0 0-6-6h-20a6 6 0 0 0-6 6v26h-26a6 6 0 0 0-6 6v20a6 6 0 0 0 6 6h26v26a6 6 0 0 0 6 6h20a6 6 0 0 0 6-6zm244 272h-40a12 12 0 0 0-12 12v40a12 12 0 0 0 12 12h40a12 12 0 0 0 12-12v-40a12 12 0 0 0-12-12zm-192-96h-40a12 12 0 0 0-12 12v40a12 12 0 0 0 12 12h40a12 12 0 0 0 12-12v-40a12 12 0 0 0-12-12zm0-96h-40a12 12 0 0 0-12 12v40a12 12 0 0 0 12 12h40a12 12 0 0 0 12-12v-40a12 12 0 0 0-12-12zm-96 192h-40a12 12 0 0 0-12 12v40a12 12 0 0 0 12 12h40a12 12 0 0 0 12-12v-40a12 12 0 0 0-12-12zm0-192h-40a12 12 0 0 0-12 12v40a12 12 0 0 0 12 12h40a12 12 0 0 0 12-12v-40a12 12 0 0 0-12-12zm0 96h-40a12 12 0 0 0-12 12v40a12 12 0 0 0 12 12h40a12 12 0 0 0 12-12v-40a12 12 0 0 0-12-12zm96 96h-40a12 12 0 0 0-12 12v40a12 12 0 0 0 12 12h40a12 12 0 0 0 12-12v-40a12 12 0 0 0-12-12zm288-192h-40a12 12 0 0 0-12 12v40a12 12 0 0 0 12 12h40a12 12 0 0 0 12-12v-40a12 12 0 0 0-12-12zm0 96h-40a12 12 0 0 0-12 12v40a12 12 0 0 0 12 12h40a12 12 0 0 0 12-12v-40a12 12 0 0 0-12-12zm76-224h-16V32a32 32 0 0 0-32-32H368a32 32 0 0 0-32 32v64h-32V32a32 32 0 0 0-32-32H80a32 32 0 0 0-32 32v64H32a32 32 0 0 0-32 32v368a16 16 0 0 0 16 16h16a16 16 0 0 0 16-16V144h48V48h160v96h40v352a16 16 0 0 0 16 16h16a16 16 0 0 0 16-16V144h40V48h160v96h48v352a16 16 0 0 0 16 16h16a16 16 0 0 0 16-16V128a32 32 0 0 0-32-32zm-76 320h-40a12 12 0 0 0-12 12v40a12 12 0 0 0 12 12h40a12 12 0 0 0 12-12v-40a12 12 0 0 0-12-12zm-96-96h-40a12 12 0 0 0-12 12v40a12 12 0 0 0 12 12h40a12 12 0 0 0 12-12v-40a12 12 0 0 0-12-12zm0-96h-40a12 12 0 0 0-12 12v40a12 12 0 0 0 12 12h40a12 12 0 0 0 12-12v-40a12 12 0 0 0-12-12zm44-80h26a6 6 0 0 0 6-6v-20a6 6 0 0 0-6-6h-26V86a6 6 0 0 0-6-6h-20a6 6 0 0 0-6 6v26h-26a6 6 0 0 0-6 6v20a6 6 0 0 0 6 6h26v26a6 6 0 0 0 6 6h20a6 6 0 0 0 6-6z"/></svg>