<svg xmlns="http://www.w3.org/2000/svg" viewBox="0 0 512 512"><!-- Font Awesome Pro 5.15.4 by @fontawesome - https://fontawesome.com License - https://fontawesome.com/license (Commercial License) --><path d="M432.83 209.65c1 8.21 7.62 14.35 15.48 14.35h15.85c9.35 0 16.8-8.57 15.73-18.35-4.26-39.11-22.02-74.53-49.29-97.16-17.07-14.17-28.34-36.75-31.44-62.15-1-8.21-7.62-14.35-15.48-14.35h-15.85c-9.35 0-16.8 8.57-15.73 18.35 4.27 39.11 22.02 74.53 49.29 97.16 17.08 14.18 28.34 36.76 31.44 62.15zm-96 0c1 8.21 7.62 14.35 15.48 14.35h15.85c9.35 0 16.8-8.57 15.73-18.35-4.26-39.11-22.02-74.53-49.29-97.16-17.07-14.17-28.34-36.75-31.44-62.15-1-8.21-7.62-14.35-15.48-14.35h-15.85c-9.35 0-16.8 8.57-15.73 18.35 4.27 39.11 22.02 74.53 49.29 97.16 17.08 14.18 28.34 36.76 31.44 62.15zM480 288H288l-110.93-83.2a63.99 63.99 0 0 0-38.4-12.8H64c-35.35 0-64 28.65-64 64v192c0 35.35 28.65 64 64 64h384c35.35 0 64-28.65 64-64V320c0-17.67-14.33-32-32-32zM48 256c0-8.82 7.18-16 16-16h74.67c3.44 0 6.85 1.14 9.6 3.2L208 288H48v-32zm64 208H64c-8.82 0-16-7.18-16-16V336h64v128zm120 0h-72V336h72v128zm120 0h-72V336h72v128zm112-16c0 8.82-7.18 16-16 16h-48V336h64v112zM96 160c44.18 0 80-35.82 80-80 0-44.19-35.82-80-80-80S16 35.81 16 80c0 44.18 35.82 80 80 80zm0-112c17.64 0 32 14.36 32 32s-14.36 32-32 32-32-14.36-32-32 14.36-32 32-32z"/></svg>