<svg xmlns="http://www.w3.org/2000/svg" viewBox="0 0 576 512"><!-- Font Awesome Pro 5.15.4 by @fontawesome - https://fontawesome.com License - https://fontawesome.com/license (Commercial License) --><path d="M38.1 244.8c2.8 3.4 7.8 3.9 11.3 1.1l14.7-12v177.5c9.3-6.6 20.3-10.6 31.9-10.6 5.5 0 10.8 1.2 16 2.7v-209l170.9-140c2.9-2.4 7.2-2.4 10.1 0l170.9 140V224h.1v179.5c5.2-1.5 10.5-2.8 16-2.8 11.6 0 22.8 4 32.1 10.7V233.8l14.7 12c3.4 2.8 8.5 2.3 11.3-1.1l20.3-24.8c2.6-3.4 2.1-8.4-1.3-11.2L512 171.8V72c0-4.4-3.6-8-8-8h-32c-4.4 0-8 3.6-8 8v60.5L313.4 9.1c-14.7-12.1-36-12.1-50.7 0L18.9 208.7c-3.4 2.8-3.9 7.8-1.1 11.3l20.3 24.8zm523.4 219.1c-25.1-2.6-49.2-11.9-66.4-25.9-8.7-7.1-21.6-7-30.3.1-20.5 16.9-50 26.6-80.8 26.6-30.1 0-60.3-10-80.9-26.7-8.7-7.1-21.6-7-30.3.1-20.5 16.9-50 26.6-80.8 26.6-30.1 0-60.3-10-80.9-26.7-8.7-7.1-21.6-7-30.3.1-17.2 14.2-40.7 23.3-66.1 25.8-8.2.9-14.7 7.3-14.7 15.5v16.5c0 9.1 7.6 16.8 16.7 16 28.9-2.5 56.5-11.5 79.3-25.8 54.9 34.2 137.9 33.9 192 0 54.9 34.2 137.9 33.9 192 0 22.9 14.3 50.5 23.3 79.2 25.8 9.1.8 16.7-6.9 16.7-16v-16.7c.1-8.1-6.3-14.4-14.4-15.3zM240 192c-8.8 0-16 7.2-16 16v96c0 8.8 7.2 16 16 16h96c8.8 0 16-7.2 16-16v-96c0-8.8-7.2-16-16-16h-96z"/></svg>