<svg xmlns="http://www.w3.org/2000/svg" viewBox="0 0 640 512"><!-- Font Awesome Pro 5.15.4 by @fontawesome - https://fontawesome.com License - https://fontawesome.com/license (Commercial License) --><path d="M363.25,389a7.4,7.4,0,0,0,1.62-2.64L372.46,368H112.05V168L240.1,51.93l104.81,95A123.2,123.2,0,0,1,381,124.32l7.13-2.89L264.17,9.1a36.4,36.4,0,0,0-48.18,0L5.37,200A16,16,0,0,0,4,222.55l10.63,12a16,16,0,0,0,22.6,1.33L64,211.57V376a40,40,0,0,0,40,40H336.36ZM528,96A48,48,0,1,0,480.1,48,47.91,47.91,0,0,0,528,96Zm111,185.52a21.92,21.92,0,0,0-.8-2.54,25.55,25.55,0,0,0-5.49-8.08L603.43,242a8.75,8.75,0,0,1-2-3.2L588.55,200a105.09,105.09,0,0,0-99.85-72c-34.83,0-53,8.79-95.73,26a92.15,92.15,0,0,0-48.24,44.8L330.32,229.9a25,25,0,0,0-2.23,9.22c0,.71-.08,1.41-.06,2.09a21.6,21.6,0,0,0,1.59,7.93c.06.14.17.25.23.39a23.39,23.39,0,0,0,4.31,6.17c.43.45.86.91,1.32,1.34a26.84,26.84,0,0,0,6.46,4.45c.23.11.48.16.72.26a26.44,26.44,0,0,0,7,1.92c.62.09,1.23.18,1.85.22a23.15,23.15,0,0,0,7.86-.71c.26-.08.5-.25.76-.34a23.62,23.62,0,0,0,8.13-5,25.45,25.45,0,0,0,5.61-7.73l14-30.38a43.71,43.71,0,0,1,22.82-21c21.69-8.71,33.1-13.5,44.33-17.11l-19.82,79.2c-4.69,18.9.31,38.79,14.91,54.61l79,73a39.65,39.65,0,0,1,11.79,20.39l19.51,84.8a23.62,23.62,0,0,0,3.36,7.61,24.53,24.53,0,0,0,1.77,2.05,24.25,24.25,0,0,0,4.05,4.05,23.65,23.65,0,0,0,2.8,1.65,23.34,23.34,0,0,0,5,2.12,22.79,22.79,0,0,0,3.54.64,23.67,23.67,0,0,0,8.21-.12,24,24,0,0,0,17.91-28.8l-19.51-84.7a88.16,88.16,0,0,0-26-44.89l-53.83-49.61,26.2-104.79c7.4,9.7,7.5,12.61,21.82,55.4a57.41,57.41,0,0,0,13.82,22.21l29.29,29a24.91,24.91,0,0,0,8.44,5.38,20.4,20.4,0,0,0,3,.59,22.16,22.16,0,0,0,5.82.79,23.39,23.39,0,0,0,2.35-.36,24.52,24.52,0,0,0,5.65-1.55c.81-.34,1.61-.7,2.39-1.12a27.36,27.36,0,0,0,5-3.56c.51-.45,1.08-.82,1.55-1.3a26.48,26.48,0,0,0,4.7-6.55c.25-.5.34-1.06.56-1.57a23,23,0,0,0,1.63-6.13,20.79,20.79,0,0,0,.09-2.62A21.18,21.18,0,0,0,639.05,281.52ZM176.1,192a16.05,16.05,0,0,0-16,16v64a16,16,0,0,0,16,16h64a16,16,0,0,0,16-16V208a16.05,16.05,0,0,0-16-16ZM427.43,338l-.87-.93c-1.69-1.83-2.85-3.91-4.38-5.82l-27.71,67.3A38.74,38.74,0,0,1,385.56,412l-58.43,58.49A23.95,23.95,0,1,0,361,504.39l58.4-58.5a87.66,87.66,0,0,0,19.41-29.5l19.44-49.93L428.36,338.9Z"/></svg>