<svg xmlns="http://www.w3.org/2000/svg" viewBox="0 0 576 512"><!-- Font Awesome Pro 5.15.4 by @fontawesome - https://fontawesome.com License - https://fontawesome.com/license (Commercial License) --><path d="M573.05 224l-61.13-52.23v-99.8c0-4.4-3.6-8-8-8H471.9c-4.4 0-8 3.6-8 8v60.5L313.23 9.07c-14.71-12.1-36.01-12.1-50.72 0L2.92 224.33c-3.4 2.8-3.9 7.8-1.1 11.3l20.31 24.8c2.8 3.4 7.8 3.9 11.3 1.1l30.28-27.67V496c0 8.8 7.31 16 16.11 16H253.2l-47.55-118.83 79.83-53.2A23.963 23.963 0 0 0 296.17 320v-59.58l68.95 86.12-74.26 49.48c-10.07 6.72-13.57 19.87-8.16 30.7L325.34 512h170.67c8.8 0 15.95-7.2 15.95-16V233.77l30.77 27.33c3.4 2.8 8.5 2.3 11.3-1.1l20.31-24.8c2.61-3.4 2.11-8.4-1.29-11.2zM463.8 464H355.04l-19.91-39.78 78.42-52.25a23.99 23.99 0 0 0 10.41-16.28c1.03-6.66-.78-13.42-4.97-18.69L290.92 177c-6.38-7.94-17.13-11.05-26.7-7.64-9.63 3.38-16.07 12.45-16.07 22.64v115.16l-85.36 56.87c-9.44 6.3-13.2 18.34-8.97 28.87l28.45 71.1h-70.53V194.47l170.97-140c2.9-2.4 7.21-2.4 10.1 0l170.99 140V464z"/></svg>