<svg xmlns="http://www.w3.org/2000/svg" viewBox="0 0 640 512"><!-- Font Awesome Pro 5.15.4 by @fontawesome - https://fontawesome.com License - https://fontawesome.com/license (Commercial License) --><path d="M352,304v64a16,16,0,0,0,16,16h64a16,16,0,0,0,16-16V304a16.05,16.05,0,0,0-16-16H368A16.05,16.05,0,0,0,352,304Zm282.63-8L576,242.85V144a16,16,0,0,0-16-16H544a16,16,0,0,0-16,16v55.34L424.06,105.12a36.35,36.35,0,0,0-48.15,0L165.37,296A16,16,0,0,0,164,318.58l10.62,12a16,16,0,0,0,22.59,1.33L224,307.61V472a40,40,0,0,0,40,40H536a40,40,0,0,0,40-40V307.61l26.75,24.26a16,16,0,0,0,22.59-1.33l10.62-12A16,16,0,0,0,634.63,296ZM528,464H272V264.06L400,148,528,264.06ZM104,176a72.08,72.08,0,0,1,72-72c38.61,0,70,30.61,71.68,68.8l40-36.28-7.39-3.69,23-69a11.89,11.89,0,0,0-15.06-15l-69,23L186.66,6.6a11.9,11.9,0,0,0-21.31,0L132.83,71.71l-69.09-23a11.89,11.89,0,0,0-15.06,15l23,69L6.6,165.35a11.9,11.9,0,0,0,0,21.31l65.11,32.51-23,69.1a11.89,11.89,0,0,0,15.06,15.06L127,282.23,166,246.81C131.1,241.89,104,212.27,104,176Zm32,0a40,40,0,1,0,40-40A40.07,40.07,0,0,0,136,176Z"/></svg>