<svg xmlns="http://www.w3.org/2000/svg" viewBox="0 0 640 512"><!-- Font Awesome Pro 5.15.4 by @fontawesome - https://fontawesome.com License - https://fontawesome.com/license (Commercial License) --><path d="M112,224a111.77,111.77,0,0,0,87-41.47,5.25,5.25,0,0,0-5.05-8.47A87.74,87.74,0,0,1,134.11,11.6a5.26,5.26,0,0,0-1.65-9.73A136.16,136.16,0,0,0,112,0a112,112,0,0,0,0,224ZM195,68.78l39.72,16.56,16.56,39.72a5.32,5.32,0,0,0,9.54,0l16.56-39.72,39.72-16.56a5.33,5.33,0,0,0,0-9.54L277.33,42.68,260.77,3a5.32,5.32,0,0,0-9.54,0L234.67,42.68,195,59.24a5.33,5.33,0,0,0,0,9.54Zm-37.9,310.46-39.72-16.56L100.77,323a5.32,5.32,0,0,0-9.54,0L74.67,362.68,35,379.24a5.33,5.33,0,0,0,0,9.54l39.72,16.56,16.56,39.72a5.32,5.32,0,0,0,9.54,0l16.56-39.72,39.72-16.56a5.33,5.33,0,0,0,0-9.54ZM634.63,296,576,242.85V144a16,16,0,0,0-16-16H544a16,16,0,0,0-16,16v55.34L424.06,105.12a36.35,36.35,0,0,0-48.15,0L165.37,296A16,16,0,0,0,164,318.58l10.62,12a16,16,0,0,0,22.59,1.33L224,307.61V472a40,40,0,0,0,40,40H536a40,40,0,0,0,40-40V307.61l26.75,24.26a16,16,0,0,0,22.59-1.33l10.62-12A16,16,0,0,0,634.63,296ZM528,464H272V264.06L400,148,528,264.06ZM352,304v64a16,16,0,0,0,16,16h64a16,16,0,0,0,16-16V304a16.05,16.05,0,0,0-16-16H368A16.05,16.05,0,0,0,352,304Z"/></svg>