<svg xmlns="http://www.w3.org/2000/svg" viewBox="0 0 576 512"><!-- Font Awesome Pro 5.15.4 by @fontawesome - https://fontawesome.com License - https://fontawesome.com/license (Commercial License) --><path d="M570.63,240,512,187.36V56a24,24,0,0,0-24-24H392a24,24,0,0,0-24,24v2.08l-53.44-48a40,40,0,0,0-53.12,0L5.37,240A16,16,0,0,0,4,262.58l10.62,11.95a16,16,0,0,0,22.59,1.34l26.75-24V472a40,40,0,0,0,40,40H472a40,40,0,0,0,40-40V251.85l26.75,24a16,16,0,0,0,22.59-1.34L572,262.58A16,16,0,0,0,570.63,240ZM464,464H112V208.75l176-158,176,158Zm0-319.74-48-43.09V80h48ZM224,208v96a16,16,0,0,0,16,16h96a16,16,0,0,0,16-16V208a16,16,0,0,0-16-16H240A16,16,0,0,0,224,208Z"/></svg>