<svg xmlns="http://www.w3.org/2000/svg" viewBox="0 0 384 512"><!-- Font Awesome Pro 5.15.4 by @fontawesome - https://fontawesome.com License - https://fontawesome.com/license (Commercial License) --><path d="M368 240c8.84 0 16-7.16 16-16v-16c0-8.84-7.16-16-16-16h-71.22C311.4 174.48 320 151.63 320 127.86 320 75 280.3 32 231.5 32h-73.88c-23.84 0-46.83 8.87-64.49 24.89L70.35 77.55c-6.54 5.94-7.04 16.05-1.1 22.6l21.5 23.7c5.94 6.54 16.06 7.04 22.6 1.1l22.76-20.64c5.9-5.35 13.58-8.31 21.54-8.31h73.85c13.28 0 24.5 14.59 24.5 31.86 0 9.59-3.39 18.64-9.28 24.8L209.01 192H16c-8.84 0-16 7.16-16 16v16c0 8.84 7.16 16 16 16h147.01l-30.67 32H16c-8.84 0-16 7.16-16 16v16c0 8.84 7.16 16 16 16h71.22C72.6 337.52 64 360.37 64 384.14 64 437 103.7 480 152.5 480h73.88c23.85 0 46.84-8.88 64.51-24.9l22.77-20.65c6.54-5.94 7.04-16.06 1.1-22.6l-21.5-23.71c-5.94-6.54-16.06-7.04-22.6-1.1l-22.77 20.66a32.006 32.006 0 0 1-21.5 8.3H152.5c-13.28 0-24.5-14.59-24.5-31.86 0-9.59 3.39-18.64 9.28-24.8L174.99 320H368c8.84 0 16-7.16 16-16v-16c0-8.84-7.16-16-16-16H220.99l30.67-32H368z"/></svg>