<svg xmlns="http://www.w3.org/2000/svg" viewBox="0 0 384 512"><!-- Font Awesome Pro 5.15.4 by @fontawesome - https://fontawesome.com License - https://fontawesome.com/license (Commercial License) --><path d="M160 292c0-15.5-12.5-28-28-28s-28 12.5-28 28 12.5 28 28 28 28-12.5 28-28zm92 60c-15.5 0-28 12.5-28 28s12.5 28 28 28 28-12.5 28-28-12.5-28-28-28zM223.9 22.1C219.5 7.5 205.8 0 192 0c-13.5 0-27 7.2-31.8 22.1C109.1 179.8 0 222.7 0 333.9 0 432.3 85.9 512 192 512s192-79.7 192-178.1c0-111.7-108.9-153.3-160.1-311.8zM192 464c-79.4 0-144-58.4-144-130.1 0-40.3 19.3-67.6 56.3-116.2 28-36.8 61.8-81.2 87.7-143.5 26 62.6 59.8 106.9 87.9 143.6 36.9 48.3 56.1 75.4 56.1 116 0 71.8-64.6 130.2-144 130.2zm61-196.2l-12.5-10c-3.5-2.8-8.5-2.2-11.2 1.2l-99.5 134c-2.8 3.5-2.2 8.5 1.2 11.2l12.5 10c3.5 2.8 8.5 2.2 11.2-1.2l99.5-134c2.8-3.4 2.2-8.5-1.2-11.2z"/></svg>