<svg xmlns="http://www.w3.org/2000/svg" viewBox="0 0 384 512"><!-- Font Awesome Pro 5.15.4 by @fontawesome - https://fontawesome.com License - https://fontawesome.com/license (Commercial License) --><path d="M209.9 89.6l12.3-39c4.1-12.7 1.5-26.5-7-36.7C206.8 3.8 194-1.4 181.3.3 77.9 13.1 0 104.3 0 212.5c0 106 75.6 194.1 174.1 209.9l-12.3 39c-4.1 12.7-1.5 26.4 7 36.7 7.3 8.9 18.1 13.9 29.3 13.9 1.5 0 3.1-.1 4.7-.3C306.1 498.9 384 407.7 384 299.5c0-106-75.6-194-174.1-209.9zm2.2 371.8l26.7-84.4H206c-87.1 0-158-73.8-158-164.5C48 134 100.3 67 171.9 50.6L145.2 135H178c87.1 0 158 73.8 158 164.5 0 78.5-52.3 145.5-123.9 161.9zM192 184c-39.7 0-72 32.3-72 72s32.3 72 72 72 72-32.3 72-72-32.3-72-72-72zm0 96c-13.2 0-24-10.8-24-24s10.8-24 24-24 24 10.8 24 24-10.8 24-24 24z"/></svg>