<svg xmlns="http://www.w3.org/2000/svg" viewBox="0 0 512 512"><!-- Font Awesome Pro 5.15.4 by @fontawesome - https://fontawesome.com License - https://fontawesome.com/license (Commercial License) --><path d="M480 0H32C10.6 0-4.8 20.7 1.4 41.2l79.5 235.9c2.5 7.2 8.8 10.9 15.1 10.9 6.3 0 12.7-3.6 15.1-10.9l28.8-86.6 36.4 181.1c1.9 8.3 8.7 12.4 15.6 12.4 6.8 0 13.7-4.1 15.6-12.4l38.7-190.7 26.4 95.7c2.3 7.6 8.8 11.4 15.3 11.4s13-3.8 15.3-11.4l38.1-134.8 58.8 357.4C402 507.7 409 512 416 512s14-4.3 15.7-12.8l79.8-461.3C515.1 18.2 500 0 480 0zM95.8 171.2L54.3 48h82.5l-41 123.2zm103.4.1l-7.1 35L187 181 160.3 48h64l-25.1 123.3zm96.1-42.6l-6.9 24.4-29-105.1h58.7l-22.8 80.7zm121.5 175l-28-169.7-14.2-86H461l-44.2 255.7z"/></svg>