<svg xmlns="http://www.w3.org/2000/svg" viewBox="0 0 640 512"><!-- Font Awesome Pro 5.15.4 by @fontawesome - https://fontawesome.com License - https://fontawesome.com/license (Commercial License) --><path d="M320 0C146.3 0 4.7 139.3.4 312H0v136c0 35.3 28.7 64 64 64h512c35.3 0 64-28.7 64-64V312h-.4C635.3 139.3 493.7 0 320 0zm243.7 200c16.8 34 26.7 71.9 27.9 112H520V200h43.7zM392 58c56.7 15.6 106 49 141.5 94H392V58zm-72-10c8.1 0 16.1.5 24 1.2V152H106.5C156.4 88.8 233.4 48 320 48zM76.3 200H120v112H48.4c1.2-40.1 11.1-78 27.9-112zM192 384v80H64c-8.8 0-16-7.2-16-16v-88h146.4c-1.5 7.8-2.4 15.8-2.4 24zm208 80H240v-80c0-44.1 35.9-80 80-80s80 35.9 80 80v80zm-80-208c-43.9 0-82.6 22.2-105.7 56H168V200h304v112h-46.3c-23.1-33.8-61.8-56-105.7-56zm272 192c0 8.8-7.2 16-16 16H448v-80c0-8.2-.9-16.2-2.4-24H592v88z"/></svg>