<svg xmlns="http://www.w3.org/2000/svg" viewBox="0 0 576 512"><!-- Font Awesome Pro 5.15.4 by @fontawesome - https://fontawesome.com License - https://fontawesome.com/license (Commercial License) --><path d="M395.5 185.5l-99 99c-4.7 4.7-12.3 4.7-17 0l-99-99c-7.6-7.6-2.2-20.5 8.5-20.5h67V12c0-6.6 5.4-12 12-12h40c6.6 0 12 5.4 12 12v153h67c10.7 0 16.1 12.9 8.5 20.5zM528 352H408l-32 64H200l-32-64H48v112h480V352zm48 2.2V464c0 26.5-21.5 48-48 48H48c-26.5 0-48-21.5-48-48V354.2c0-11.8 4.3-23.1 12.1-31.9l101.6-114.2c2.3-2.6 4.9-4.9 7.7-7 2.4-1.7 5.6-1.4 7.7.7l24.8 24.9c2.2 2.2 2.3 5.9.2 8.2L92.7 304h105l32 64h116.7l32-64h105L422 234.9c-2.1-2.4-2-5.9.2-8.2l24.6-25c2-2.1 5.3-2.4 7.7-.7 2.9 2.1 5.5 4.4 7.9 7.1L564 322.3c7.7 8.8 12 20.2 12 31.9z"/></svg>