<svg xmlns="http://www.w3.org/2000/svg" viewBox="0 0 640 512"><!-- Font Awesome Pro 5.15.4 by @fontawesome - https://fontawesome.com License - https://fontawesome.com/license (Commercial License) --><path d="M484.4 96C407 96 349.3 164.1 320 208.5 290.7 164.1 233 96 155.6 96 69.8 96 0 167.8 0 256s69.8 160 155.6 160c77.5 0 135.1-68.1 164.4-112.5C349.3 347.9 407 416 484.4 416c85.8 0 155.6-71.8 155.6-160S570.2 96 484.4 96zM155.6 368C96.2 368 48 317.8 48 256s48.2-112 107.6-112c67.8 0 120.5 82.3 137.2 112-16.8 29.7-69.4 112-137.2 112zm328.8 0c-67.8 0-120.5-82.3-137.2-112 16.8-29.7 69.4-112 137.2-112 59.3 0 107.6 50.2 107.6 112s-48.2 112-107.6 112z"/></svg>