<svg xmlns="http://www.w3.org/2000/svg" viewBox="0 0 640 512"><!-- Font Awesome Pro 5.15.4 by @fontawesome - https://fontawesome.com License - https://fontawesome.com/license (Commercial License) --><path d="M128 400c-17.67 0-32 14.33-32 32s14.33 32 32 32 32-14.33 32-32-14.33-32-32-32zm-96 48c-17.67 0-32 14.33-32 32s14.33 32 32 32 32-14.33 32-32-14.33-32-32-32zm0-96c-17.67 0-32 14.33-32 32s14.33 32 32 32 32-14.33 32-32-14.33-32-32-32zm0-96c-17.67 0-32 14.33-32 32s14.33 32 32 32 32-14.33 32-32-14.33-32-32-32zm96 48c-17.67 0-32 14.33-32 32s14.33 32 32 32 32-14.33 32-32-14.33-32-32-32zm281.19-192.18c-3.21-3.21-7.26-4.7-11.25-4.7-6.87 0-13.56 4.39-15.54 11.95L346.49 256H224c-17.67 0-32 14.33-32 32v192c0 17.67 14.33 32 32 32h270.62c29.09 0 54.53-19.62 61.91-47.76l37.96-144.71c2.88-11-.28-22.71-8.32-30.75L409.19 111.82zM510.1 452.06c-1.84 7.03-8.21 11.94-15.48 11.94H240V304h143.53l9.39-35.82 21.77-82.99 131.04 131.04-35.63 135.83zM616.27 38.02L478.47 1.1c-2.77-.74-5.56-1.1-8.3-1.1-14.13 0-27.06 9.43-30.89 23.72l-15.41 57.52 39.19 39.19 18.45-68.83L588.4 80.24l-34.98 130.55 39.19 39.19L638.9 77.21c4.58-17.07-5.55-34.61-22.63-39.19z"/></svg>