<svg xmlns="http://www.w3.org/2000/svg" viewBox="0 0 640 512"><!-- Font Awesome Pro 5.15.4 by @fontawesome - https://fontawesome.com License - https://fontawesome.com/license (Commercial License) --><path d="M624 0h-16c-8.8 0-16 7.2-16 16v144h-48V16c0-8.8-7.2-16-16-16H336c-8.8 0-16 7.2-16 16v144H48V16c0-8.8-7.2-16-16-16H16C7.2 0 0 7.2 0 16v496h48v-32h544v32h48V16c0-8.8-7.2-16-16-16zM368 48h128v112H368V48zM144 432V304h120v128H144zm168 0V304h120v128H312zm168 0V272c0-8.8-7.2-16-16-16H112c-8.8 0-16 7.2-16 16v160H48V208h544v224H480z"/></svg>