<svg xmlns="http://www.w3.org/2000/svg" viewBox="0 0 448 512"><!-- Font Awesome Pro 5.15.4 by @fontawesome - https://fontawesome.com License - https://fontawesome.com/license (Commercial License) --><path d="M336.53 32a125.17 125.17 0 0 0-65 17.87C249.61 20.28 207.89 0 159.39 0 94.9 0 41.49 35.43 32.21 81.64 30.71 89.09 37.4 96 46.4 96H80l16-32 19 37.91c-6.27 9.6-11.45 19.63-14.53 30.14-8.18 27.9-4.92 59.59 21.76 89.32a8.26 8.26 0 0 0 11.74.35l66.65-68.67c-5.77 76.67-32.31 153.22-51 199H128A128 128 0 0 0 0 482.08C.28 498.93 15.14 512 32 512h320c16.84 0 31.71-13 32-29.88 1-60.75-40.53-111.58-96.62-125.79C308.51 248 297.19 139.47 295.9 128H368l16-32 16 32h35.4a12.38 12.38 0 0 0 12.42-14.36C439.69 67.43 393 32 336.53 32zm-87.47 118.16l.66.11c2.7 35.85 5.82 120.48-10.87 201.73h-37.68c19.52-51 43.18-126.26 47.89-201.84zM334.39 464H49.61A80.14 80.14 0 0 1 128 400h128a80.14 80.14 0 0 1 78.39 64z"/></svg>