<svg xmlns="http://www.w3.org/2000/svg" viewBox="0 0 576 512"><!-- Font Awesome Pro 5.15.4 by @fontawesome - https://fontawesome.com License - https://fontawesome.com/license (Commercial License) --><path d="M494.59 104.28C455.6 67.15 396.8 62.07 352 89V35.81c0-6.06-3.42-11.6-8.84-14.31l-39.6-19.8c-8.37-4.19-18.54-.32-22.01 8.37l-26.7 66.74c-10.24 2.99-20.02 7.37-28.85 13.23-45.03-28.27-105.03-23.42-144.59 14.25C28.91 154.28 0 220.94 0 292s28.91 137.72 81.41 187.73c37.66 35.8 95.62 42.53 141.09 16.3 2.16-1.23 4.91-1.08 7.41.39C247.06 506.75 266.62 512 288 512s40.94-5.25 58.09-15.58c2.53-1.47 5.28-1.62 7.41-.39 45.44 26.23 103.41 19.52 141.09-16.31C547.09 429.72 576 363.06 576 292s-28.91-137.72-81.41-187.72zm-33.12 340.67c-22.28 21.27-56.88 25.16-83.97 9.52-17.28-10-38.81-9.59-56.16.83-19.44 11.72-47.25 11.72-66.69 0-17.41-10.48-38.94-10.81-56.16-.83-27.16 15.64-61.69 11.75-83.97-9.5C71.62 404.11 48 349.8 48 292s23.62-112.11 66.53-152.97c13.19-12.56 30.72-18.87 48.28-18.87 17.12 0 34.25 5.98 47.44 17.97l16.59 15.09 16.19-15.53c24.75-23.81 65.19-23.81 89.94 0l16.19 15.53 16.59-15.09c26.72-24.25 69.69-23.89 95.72.91C504.38 179.89 528 234.2 528 292s-23.62 112.11-66.53 152.95zM249.15 272c2.85 0 4.86-1.11 6-3.33s1.14-4.44 0-6.67L214 195.33c-1.71-2.23-3.86-3.33-6.43-3.33s-4.43 1.11-5.57 3.33L160.85 262c-1.14 2.23-1.14 4.44 0 6.67s3.15 3.33 6 3.33h82.3zm160 0c2.85 0 4.86-1.11 6-3.33s1.14-4.44 0-6.67L374 195.33c-1.71-2.23-3.86-3.33-6.43-3.33s-4.43 1.11-5.57 3.33L320.85 262c-1.14 2.23-1.14 4.44 0 6.67s3.15 3.33 6 3.33h82.3zm37.4 18.27c-45.82 27.05-100.16 42.79-158.54 42.79h-.02v14.26c0 8.84-7.16 16-16 16h-16c-8.84 0-16-7.16-16-16v-18.18c-40.08-6.1-77.53-19.4-110.47-38.84-12.68-7.48-28.11 4.78-23.24 18.67 6.02 17.15 12.92 28.87 19.04 37.46 9.21 12.72 21.04 23.43 34.75 32.51.21-8.65 7.22-15.63 15.92-15.63h16c8.84 0 16 7.16 16 16v21.49c23.45 6.86 50.17 10.51 80.02 10.51 29.83 0 56.52-3.64 79.98-10.52v-21.48c0-8.84 7.16-16 16-16h16c8.68 0 15.66 6.93 15.91 15.55 13.85-9.19 25.81-20.04 35.19-32.99 5.95-8.35 12.75-19.93 18.7-36.96 4.86-13.88-10.57-26.12-23.24-18.64z"/></svg>