<svg xmlns="http://www.w3.org/2000/svg" viewBox="0 0 576 512"><!-- Font Awesome Pro 5.15.4 by @fontawesome - https://fontawesome.com License - https://fontawesome.com/license (Commercial License) --><path d="M560,241.23438C560,390.53125,437.94015,512,287.91215,512q-6.37486,0-12.84347-.29688C136.22793,505.34375,22.4804,392.125,16.10554,253.95312c-.28125-6.29687.18749-12.48437.31249-18.71874a15.86953,15.86953,0,0,1,.125-7.75,269.32041,269.32041,0,0,1,113.90378-207,23.736,23.736,0,0,1,13.7497-4.42188,24.13055,24.13055,0,0,1,19.93707,10.64062A23.88407,23.88407,0,0,1,166.53978,49a126.06575,126.06575,0,0,0-8.96856,46.65625c0,41.10937,19.18709,78.90625,52.62386,103.67187a24.03259,24.03259,0,0,1,1.81246,37.375c-23.99948,21.67188-37.21794,51.03126-37.21794,82.6875,0,51.90626,35.718,95.26563,83.87318,108.17188l2.2187-57.26562-20.6558,14.03124a12.34237,12.34237,0,0,1-14.99967-1.17187,12.00668,12.00668,0,0,1-2.06246-14.875l17.28088-28.9375-36.593-7.57813a12.00026,12.00026,0,0,1,0-23.5l36.593-7.59374L223.16355,271.75a11.99745,11.99745,0,0,1,17.06213-16.0625l24.46822,16.60938L275.91241,11.51562a12.00927,12.00927,0,0,1,23.99948.03126l11.2185,260.71874,24.46822-16.60937a12.08736,12.08736,0,0,1,14.99968,1.1875,13.74639,13.74639,0,0,1,3.74992,8.70313,14.18111,14.18111,0,0,1-1.68747,6.15624l-17.24962,28.9375,36.56171,7.59376a12.00026,12.00026,0,0,1,0,23.5l-36.56171,7.57812,17.24962,28.92188a12.001,12.001,0,0,1-2.06245,14.875,12.28459,12.28459,0,0,1-14.99968,1.1875l-20.6558-14.03126,2.2187,57.57813c40.74912-10.51563,73.15467-43.89063,81.52949-85.375A111.53351,111.53351,0,0,0,363.81675,236.6875a24.04957,24.04957,0,0,1,1.81246-37.39062C399.066,174.53125,418.22182,136.75,418.22182,95.64062a126.30747,126.30747,0,0,0-8.96855-46.70312,23.934,23.934,0,0,1,36.03047-28.53125A270.72551,270.72551,0,0,1,559.125,226.84375a15.84287,15.84287,0,0,1,.46874,7.64063C559.65626,236.75,560,238.95312,560,241.23438Zm-452.1152,57.3125a15.98428,15.98428,0,0,1-22.562,1.51562L68.6044,285.4375c12.781,62.125,51.90513,115.4375,105.279,147.20312a158.932,158.932,0,0,1-12.406-212.03124,174.82519,174.82519,0,0,1-51.62388-114.625c-14.156,18.39062-24.812,39.0625-32.59305,60.82812l29.9056,29.875a15.99812,15.99812,0,1,1-22.62451,22.625L67.85442,202.65625a220.57569,220.57569,0,0,0-3.24993,36.75l41.78034,36.54687A15.992,15.992,0,0,1,107.8848,298.54688ZM507.00115,285.625l-16.49964,14.4375a16.00682,16.00682,0,0,1-21.062-24.10938l42.34284-37.03124a219.80562,219.80562,0,0,0-3.46868-36.625L491.28274,219.3125a15.9926,15.9926,0,0,1-22.62451-22.60938l30.06185-30.0625A223.23012,223.23012,0,0,0,465.93954,106.125a174.70091,174.70091,0,0,1-51.59263,114.45312c29.24936,36.70313,40.90536,84.14063,31.40557,131.375a159.13826,159.13826,0,0,1-43.87405,81.03126A223.24987,223.24987,0,0,0,507.00115,285.625Z"/></svg>