<svg xmlns="http://www.w3.org/2000/svg" viewBox="0 0 640 512"><!-- Font Awesome Pro 5.15.4 by @fontawesome - https://fontawesome.com License - https://fontawesome.com/license (Commercial License) --><path d="M476.34 181.1c22.38 15.68 35.66 41.16 35.66 68.59V280c0 4.42 3.58 8 8 8h32c4.42 0 8-3.58 8-8v-30.31c0-43.24-21.01-83.41-56.34-108.06C479.85 125.02 464 99.34 464 70.31V8c0-4.42-3.58-8-8-8h-32c-4.42 0-8 3.58-8 8v66.4c0 43.69 24.56 81.63 60.34 106.7zm76.94-94.01c-5.67-3.8-9.28-9.96-9.28-16.78V8c0-4.42-3.58-8-8-8h-32c-4.42 0-8 3.58-8 8v62.31c0 22.02 10.17 43.41 28.64 55.39C566.79 153.04 592 199.54 592 249.69V280c0 4.42 3.58 8 8 8h32c4.42 0 8-3.58 8-8v-30.31c0-65.44-32.41-126.19-86.72-162.6zM616 352H278.94C180.3 352 83.65 379.72 0 432c83.65 52.28 180.3 80 278.94 80H616c13.25 0 24-10.75 24-24V376c0-13.26-10.75-24-24-24zM278.94 464c-59.16 0-117.42-10.93-172.06-32 49.28-19.01 101.56-29.28 154.74-31.2l54.19 63.2h-36.87zm100.11 0l-54.88-64h96.77l54.88 64h-96.77zM592 464h-52.95l-54.88-64H592v64z"/></svg>