<svg xmlns="http://www.w3.org/2000/svg" viewBox="0 0 448 512"><!-- Font Awesome Pro 5.15.4 by @fontawesome - https://fontawesome.com License - https://fontawesome.com/license (Commercial License) --><path d="M435.09375,399.70312c-4.1875,13-4.1875,51.59376,0,64.59376A16.0064,16.0064,0,0,1,448,480v16a16.0612,16.0612,0,0,1-16,16H80A79.964,79.964,0,0,1,0,432V80A79.964,79.964,0,0,1,80,0H432a16.0612,16.0612,0,0,1,16,16V384A15.9909,15.9909,0,0,1,435.09375,399.70312ZM400,48H80A31.9517,31.9517,0,0,0,48,80V358.70312A79.33472,79.33472,0,0,1,80,352H400Zm-6,352H80a32,32,0,0,0,0,64H394C391.28125,446.70312,391.28125,417.29688,394,400ZM116.125,201.46875c0-.34375-.125-.6875-.125-1.04687a113.9228,113.9228,0,0,1,4.65625-31.9375l17.6875,17.6875a7.99915,7.99915,0,0,0,11.3125-11.3125L126.9375,152.15625a122.208,122.208,0,0,1,52.875-55.6875,4.02047,4.02047,0,0,1,4.84376.79687,4.06586,4.06586,0,0,1,.4375,4.89063,60.044,60.044,0,0,0-9.65626,32.25c0,14.28125,5.18751,27.79687,15,39.10937a4.01624,4.01624,0,0,1,.25,4.92188A59.86683,59.86683,0,0,0,227.375,271.125H228V243.3125l-6.34375,6.34375a7.99915,7.99915,0,0,1-11.3125-11.3125L220.68749,228H208a8,8,0,0,1,0-16h12.68749l-10.34374-10.34375a7.99915,7.99915,0,0,1,11.3125-11.3125L228,196.6875V100a12,12,0,0,1,24,0v96.6875l6.34375-6.34375a7.99915,7.99915,0,0,1,11.3125,11.3125L259.31249,212H272a8,8,0,0,1,0,16H259.31249l10.34376,10.35938a7.99915,7.99915,0,1,1-11.3125,11.3125L252,243.32812v27.82813h.65625a59.88671,59.88671,0,0,0,36.65624-92.70313,3.99355,3.99355,0,0,1,.25-4.90624c9.81251-11.3125,15-24.84376,15-39.125a60.044,60.044,0,0,0-9.65624-32.25,4.78239,4.78239,0,0,1-.625-2.15626,4.60792,4.60792,0,0,1,1.0625-2.71874,3.98087,3.98087,0,0,1,4.84374-.8125,122.44378,122.44378,0,0,1,52.875,55.6875L330.34375,174.875a7.99915,7.99915,0,0,0,11.3125,11.3125L359.34375,168.5A112.796,112.796,0,0,1,364,200.4375c0,.35938-.125.6875-.125,1.04688l-33.15625,29.03124A9.11316,9.11316,0,0,0,328,236.53125a9.24745,9.24745,0,0,0,1.96875,5.26563,8.03814,8.03814,0,0,0,11.3125.75l20.03124-17.53126C349.5,279.1875,299.625,320,240,320s-109.53125-40.8125-121.3125-94.96875l20.03125,17.51563a8.005,8.005,0,1,0,10.5625-12.03126Z"/></svg>