<svg xmlns="http://www.w3.org/2000/svg" viewBox="0 0 448 512"><!-- Font Awesome Pro 5.15.4 by @fontawesome - https://fontawesome.com License - https://fontawesome.com/license (Commercial License) --><path d="M304 288H144a32 32 0 0 0-32 32v64a32 32 0 0 0 32 32h160a32 32 0 0 0 32-32v-64a32 32 0 0 0-32-32zm144-120a72 72 0 0 0-72-72 70.93 70.93 0 0 0-54.58 25.77l-10.41-13a32 32 0 0 1-7-20V48a16 16 0 0 0 16-16V16A16 16 0 0 0 304 0H144a16 16 0 0 0-16 16v16a16 16 0 0 0 16 16v40.78a32 32 0 0 1-7 20l-76.95 96.16a128 128 0 0 0-28 80V448a64 64 0 0 0 64 64H352a64 64 0 0 0 64-64V284.9a127.59 127.59 0 0 0-11.1-51A72 72 0 0 0 448 168zm-80 280a16 16 0 0 1-16 16H96a16 16 0 0 1-16-16V284.9a80.32 80.32 0 0 1 17.53-50l76.94-96.17a80.31 80.31 0 0 0 17.53-50V48h64v40.78a80.31 80.31 0 0 0 17.53 50l76.94 96.17a80.34 80.34 0 0 1 17.53 50zm9.38-256.28l-24.09-30.1C356.14 151.54 365 144 376 144a23.88 23.88 0 0 1 1.38 47.72z"/></svg>