<svg xmlns="http://www.w3.org/2000/svg" viewBox="0 0 640 512"><!-- Font Awesome Pro 5.15.4 by @fontawesome - https://fontawesome.com License - https://fontawesome.com/license (Commercial License) --><path d="M416.54 0h-17A8 8 0 0 0 392 5.32l-176.28 496a8 8 0 0 0 7.55 10.68h17a8 8 0 0 0 7.54-5.32l176.29-496A8 8 0 0 0 416.54 0zm206.25 393.94l-103.91-288A16 16 0 0 0 504.07 96h-48.14a16 16 0 0 0-14.81 9.94l-103.91 288A16 16 0 0 0 352 416h25.92a16 16 0 0 0 14.81-9.94l19.1-54.06h136.34l19.08 54.06a16 16 0 0 0 14.81 9.94H608a16 16 0 0 0 14.79-22.06zM434.42 288L480 158.84 525.59 288zM288 96h-25.94a16 16 0 0 0-14.81 9.94L160 353.16 72.75 105.94A16 16 0 0 0 57.94 96H32a16 16 0 0 0-14.81 22.06l103.91 288a16 16 0 0 0 14.83 9.94h48.14a16 16 0 0 0 14.81-9.94l103.91-288A16 16 0 0 0 288 96z"/></svg>