<svg xmlns="http://www.w3.org/2000/svg" viewBox="0 0 512 512"><!-- Font Awesome Pro 5.15.4 by @fontawesome - https://fontawesome.com License - https://fontawesome.com/license (Commercial License) --><path d="M505.24 274.49l-48.4-96.8A32 32 0 0 0 428.22 160H144c0-33.85 21.22-62.7 52.02-74.36C204.92 110.28 228.29 128 256 128h32c35.35 0 64-28.65 64-64S323.35 0 288 0h-32c-24.63 0-45.77 14.07-56.47 34.47C140.63 45.94 96 97.8 96 160H83.78a32 32 0 0 0-28.62 17.69l-48.4 96.8A63.874 63.874 0 0 0 0 303.11V352c0 17.67 14.33 32 32 32h200v80h-88c-8.84 0-16 7.16-16 16v16c0 8.84 7.16 16 16 16h224c8.84 0 16-7.16 16-16v-16c0-8.84-7.16-16-16-16h-88v-80h200c17.67 0 32-14.33 32-32v-48.89c0-9.94-2.31-19.74-6.76-28.62zM256 48h32c8.82 0 16 7.18 16 16s-7.18 16-16 16h-32c-8.82 0-16-7.18-16-16s7.18-16 16-16zm208 288H48v-32.89c0-2.47.58-4.95 1.69-7.15L93.67 208h324.67l43.98 87.95c1.11 2.21 1.69 4.69 1.69 7.16V336z"/></svg>