<svg xmlns="http://www.w3.org/2000/svg" viewBox="0 0 640 512"><!-- Font Awesome Pro 5.15.4 by @fontawesome - https://fontawesome.com License - https://fontawesome.com/license (Commercial License) --><path d="M608 0H345.5c-14.9 0-27.8 10.3-31.2 24.8 0 0-79.2 344.6-79.3 346.3l-88.3 88.3c-9.8 9.8-26.6 2.9-26.6-11V319.3l47.1 30.1c10.6 6.8 24.9-.5 24.9-12.8v-65.3c0-12.2-14.2-19.5-24.9-12.8L120 288.7V224c0-48.6-39.4-88-88-88H16c-8.8 0-16 7.2-16 16v16c0 8.8 7.2 16 16 16h16c22.1 0 40 17.9 40 40v64.7l-47.1-30.1c-10.7-6.8-24.9.5-24.9 12.7v65.3c0 12.2 14.2 19.5 24.9 12.8L72 319.3v124c0 16.5 5 33 15.7 45.7 26.5 31.5 69 28.3 92.9 4.3l88.3-88.3c1.7-.1 346.3-79.3 346.3-79.3 14.5-3.3 24.8-16.3 24.8-31.2V32c0-17.7-14.3-32-32-32zm-16 281.8L288 352l187-187L358.2 48H592L475.1 164.9z"/></svg>