<svg xmlns="http://www.w3.org/2000/svg" viewBox="0 0 576 512"><!-- Font Awesome Pro 5.15.4 by @fontawesome - https://fontawesome.com License - https://fontawesome.com/license (Commercial License) --><path d="M575.83 217.98C572.66 157.41 518.3 112 457.65 112h-9.37c-52.83 0-104.26-16.25-147.74-46.24C269.69 44.48 232.32 32 191.99 32 80.36 32-.05 121.84 0 224c.04 70.95 38.68 132.8 95.99 166.01V464c0 8.84 7.16 16 16 16h16c8.84 0 16-7.16 16-16v-54.26c15.37 3.96 31.4 6.26 48 6.26 5.44 0 10.68-.73 16-1.18V464c0 8.84 7.16 16 16 16h16c8.83 0 16-7.16 16-16v-59.46c14.24-5.06 27.89-11.37 40.34-19.48C342.08 355.25 393.88 336 448.48 336h15.51c2.59 0 5-.61 7.55-.79l74.42 136.44c2.84 5.23 8.28 8.34 14.03 8.34 8.41 0 16-6.77 16-16 0-255.95.07-241.71-.16-246.01zM96.33 390.21c.01 0 .01.01.02.01-.01.05-.01.04-.02-.01zM463.99 288h-15.51c-60.45 0-120.46 19.12-178.35 56.84-23.25 15.15-50.27 23.16-78.14 23.16-77.75 0-144.18-62.88-144.03-144 .15-83.71 66.68-144 144.03-144 29.21 0 57.32 8.74 81.29 25.27 51.92 35.8 112.43 54.73 175 54.73h9.37c36.99 0 68.5 27.13 70.25 60.49 1.95 37.26-27.61 67.51-63.91 67.51zm80 113.25l-39.87-73.08c15.12-5.83 28.74-14.6 39.87-25.98v99.06zm-80-201.25c-13.25 0-24 10.74-24 24 0 13.25 10.75 24 24 24s24-10.75 24-24c0-13.26-10.75-24-24-24z"/></svg>