<svg xmlns="http://www.w3.org/2000/svg" viewBox="0 0 576 512"><!-- Font Awesome Pro 5.15.4 by @fontawesome - https://fontawesome.com License - https://fontawesome.com/license (Commercial License) --><path d="M566.28 88.57c12.96-12.5 12.96-32.76 0-45.25L531.07 9.37c-12.96-12.5-33.98-12.5-46.94 0L319.99 160 4.76 464.14c-8.25 7.96-5.38 22.16 5.53 25.69C53.72 503.86 102.37 512 150.51 512c75.83 0 150.42-20.19 201.49-69.35l104.4-100.04c12.95-12.41 13.17-33.05.49-45.73L448 288v-80L566.28 88.57zM496 64c8.84 0 16 7.16 16 16s-7.16 16-16 16-16-7.16-16-16 7.16-16 16-16zM318.71 408.07C281.24 444.14 221.5 464 150.51 464c-23.16 0-46.79-2.1-70.07-6.17L319.4 227.28l91.99 91.99-92.68 88.8zM432 160c-8.84 0-16-7.16-16-16s7.16-16 16-16 16 7.16 16 16-7.17 16-16 16z"/></svg>