<svg xmlns="http://www.w3.org/2000/svg" viewBox="0 0 384 512"><!-- Font Awesome Pro 5.15.4 by @fontawesome - https://fontawesome.com License - https://fontawesome.com/license (Commercial License) --><path d="M382,212.76l-71.13-192A31.63,31.63,0,0,0,281.23,0H102.77a31.64,31.64,0,0,0-29.6,20.76L2,212.76C-5.71,233.68,9.57,256,31.64,256H168.29V464H113c-21.06,0-40.72,13.89-46.91,33.12C63.68,504.53,69.9,512,77.59,512H306.4c7.7,0,13.92-7.47,11.54-14.88C311.75,477.89,292.09,464,271,464H215.71V256H352.36C374.43,256,389.71,233.68,382,212.76ZM54.45,208,113.73,48H270.27l59.28,160Z"/></svg>