<svg xmlns="http://www.w3.org/2000/svg" viewBox="0 0 448 512"><!-- Font Awesome Pro 5.15.4 by @fontawesome - https://fontawesome.com License - https://fontawesome.com/license (Commercial License) --><path d="M445.5 237.8L368 21.8C363.3 8.6 352.4 0 340.4 0H120.6c-11.4 0-21.8 7.7-27 19.9l-90.4 216c-10 23.9 4.6 52.1 27 52.1h89.2C94.7 323.1 80 366.5 80 401.6c0 32.7 12.8 64.2 36 88.7 13 13.8 31.8 21.7 51.5 21.7h113c19.7 0 38.5-7.9 51.5-21.7 23.2-24.5 36-56.1 36-88.7 0-35.1-14.7-78.5-39.4-113.6h89.2c21.7 0 36.3-26.4 27.7-50.2zM320 401.6c0 21.3-8.7 40.7-22.9 55.7-4.3 4.5-10.4 6.7-16.6 6.7h-113c-6.2 0-12.4-2.2-16.6-6.7-14.2-15-22.9-34.4-22.9-55.7 0-34.7 22.8-87.4 55.6-113.6h80.7c32.9 26.2 55.7 78.9 55.7 113.6zM53.5 240l80.4-192h192.6l68.9 192H53.5z"/></svg>