<svg xmlns="http://www.w3.org/2000/svg" viewBox="0 0 512 512"><!-- Font Awesome Pro 5.15.4 by @fontawesome - https://fontawesome.com License - https://fontawesome.com/license (Commercial License) --><path d="M392.65,278.4a56,56,0,0,0,77.75-77.76ZM509.3,85.76A35.08,35.08,0,0,0,476.76,64h-85L355.88,28.12A95.68,95.68,0,0,0,202.76,139.3L103,239a24,24,0,0,0-6.09,23.56L154.48,464H48C26.69,464,6.78,477.89.52,497.12-1.89,504.53,4.41,512,12.19,512H371.81c7.79,0,14.08-7.47,11.67-14.88C377.22,477.89,357.32,464,336,464H204.38L147,263l86.13-86.13L256,199.76v85a35.23,35.23,0,0,0,60.14,24.9L501.63,124.15A35.06,35.06,0,0,0,509.3,85.76ZM304,253.92v-74l-49.93-49.94a48,48,0,0,1,67.87-67.88L371.88,112h74Z"/></svg>