<svg xmlns="http://www.w3.org/2000/svg" viewBox="0 0 576 512"><!-- Font Awesome Pro 5.15.4 by @fontawesome - https://fontawesome.com License - https://fontawesome.com/license (Commercial License) --><path d="M48 160h480c8.84 0 16-7.16 16-16v-36.91c0-6.67-4.14-12.64-10.38-14.98L299.24 2.04C295.62.68 291.81 0 288 0s-7.62.68-11.24 2.04L42.38 92.11A16.001 16.001 0 0 0 32 107.09V144c0 8.84 7.16 16 16 16zM288 49.14L451.58 112H124.42L288 49.14zM560 464h-16v-64c0-17.67-16.37-32-36.57-32H480V192h-48v176h-64V192h-48v176h-64V192h-48v176h-64V192H96v176H68.57C48.37 368 32 382.33 32 400v64H16c-8.84 0-16 7.16-16 16v16c0 8.84 7.16 16 16 16h544c8.84 0 16-7.16 16-16v-16c0-8.84-7.16-16-16-16zm-64 0H80v-48h416v48z"/></svg>