<svg xmlns="http://www.w3.org/2000/svg" viewBox="0 0 512 512"><!-- Font Awesome Pro 5.15.4 by @fontawesome - https://fontawesome.com License - https://fontawesome.com/license (Commercial License) --><path d="M496 464h-16v-80c0-8.8-7.2-16-16-16h-16V256h16c8.8 0 16-7.2 16-16v-16c0-8.8-7.2-16-16-16h-16.8C439.7 117.6 369.3 44.9 280 33.7V16c0-8.8-7.2-16-16-16h-16c-8.8 0-16 7.2-16 16v17.7C142.7 44.9 72.3 117.6 64.8 208H48c-8.8 0-16 7.2-16 16v16c0 8.8 7.2 16 16 16h16v112H48c-8.8 0-16 7.2-16 16v80H16c-8.8 0-16 7.2-16 16v16c0 8.8 7.2 16 16 16h480c8.8 0 16-7.2 16-16v-16c0-8.8-7.2-16-16-16zM256 80c73.9 0 134.3 56.2 142.4 128H113.6c8.1-71.8 68.5-128 142.4-128zm144 176v112h-64V256h64zm-112 0v112h-64V256h64zm-176 0h64v112h-64V256zm320 208H80v-48h352v48z"/></svg>