<svg xmlns="http://www.w3.org/2000/svg" viewBox="0 0 576 512"><!-- Font Awesome Pro 5.15.4 by @fontawesome - https://fontawesome.com License - https://fontawesome.com/license (Commercial License) --><path d="M288 0C126.5 0 0 78.48 0 178.67c0 48.33 29.62 93.24 83.44 126.6 4.17 2.59 8.69 5.12 13.44 7.65-5.61 40.89 35.55 73.75 85.65 70.45a82.41 82.41 0 0 1 3.79 27.11c-.63 29.94-26.22 53.52-56.16 53.52H48a16 16 0 0 0-16 16v16a16 16 0 0 0 16 16h82.06c57 0 104-46 104.28-103.07a125.05 125.05 0 0 0-6.71-40.52 71.77 71.77 0 0 0 15.22-13.48c14.88 1.42 29.9 2.4 45.15 2.4 161.5 0 288-78.47 288-178.66S449.5 0 288 0zm0 309.33c-11.35 0-22.46-.88-33.55-1.76-7.19-29.44-39.54-51.67-78.45-51.67-20.38 0-38.77 6.28-52.9 16.32-4.9-2.56-10.12-5.11-14.35-7.74C69.56 240.19 48 209.72 48 178.67 48 107.84 157.91 48 288 48s240 59.84 240 130.67-109.91 130.66-240 130.66z"/></svg>