<svg xmlns="http://www.w3.org/2000/svg" viewBox="0 0 512 512"><!-- Font Awesome Pro 5.15.4 by @fontawesome - https://fontawesome.com License - https://fontawesome.com/license (Commercial License) --><path d="M496 32H304c-8.84 0-16 7.16-16 16v16c0 8.84 7.16 16 16 16h192c8.84 0 16-7.16 16-16V48c0-8.84-7.16-16-16-16zm16 224c0-12.84-7.53-24.41-19.12-29.42l-218.28-94.7c-11.81-5.16-25.38-5.16-37.19 0L19.16 226.56C7.53 231.59 0 243.16 0 256s7.53 24.41 19.12 29.42L98.82 320l-79.67 34.56C7.53 359.59 0 371.16 0 384.02c0 12.84 7.53 24.41 19.12 29.42l218.28 94.69a46.488 46.488 0 0 0 18.59 3.88c6.34-.02 12.69-1.3 18.59-3.86l218.25-94.69c11.62-5.03 19.16-16.59 19.16-29.44 0-12.86-7.53-24.42-19.12-29.44L413.19 320l79.65-34.56C504.47 280.41 512 268.84 512 256zm-71.81 128.05l-183.66 80.06L71.91 384l87.22-37.84 78.28 33.96A46.488 46.488 0 0 0 256 384c6.34-.02 12.69-1.3 18.59-3.86l78.3-33.98 87.3 37.89zm-183.66-47.94L71.91 256 256 176.12l184.16 79.91-183.63 80.08z"/></svg>