<svg xmlns="http://www.w3.org/2000/svg" viewBox="0 0 576 512"><!-- Font Awesome Pro 5.15.4 by @fontawesome - https://fontawesome.com License - https://fontawesome.com/license (Commercial License) --><path d="M397.4 219c-23.5-19.1-54.3-10.6-70 4.8l-7.4 7.3-7.4-7.3c-15.3-15.1-46.2-24.1-70-4.8-23.6 19.1-24.8 53.5-3.7 74.2l72.6 71.3c4.7 4.6 12.3 4.6 17 0l72.6-71.3c21-20.7 19.8-55.1-3.7-74.2zM546.2 9.7c-2.9-6.5-8.6-9.7-14.3-9.7-5.3 0-10.7 2.8-14 8.5C486.9 62.4 431.4 96 368 96h-80C182 96 96 182 96 288c0 17.5 2.5 34.4 6.9 50.5C29 402.5 2.5 476.9 1.3 480.2c-4.3 12.5 2.3 26.1 14.8 30.5 2.6.9 5.2 1.3 7.9 1.3 9.9 0 19.2-6.2 22.7-16.1.2-.6 21.1-57.8 76.1-110.4C160.3 449 231.5 487 308.4 478.9 465.5 467.6 576 326.8 576 154.3c0-50.2-10.8-102.2-29.8-144.6zM303.4 431.2C215.4 440.5 144 370.8 144 288c0-79.4 64.6-144 144-144h80c57.9 0 111.6-22 152-60.9 5.2 23.2 8 47.5 8 71.2 0 151-93.8 267.4-224.6 276.9z"/></svg>