<svg xmlns="http://www.w3.org/2000/svg" viewBox="0 0 512 512"><!-- Font Awesome Pro 5.15.4 by @fontawesome - https://fontawesome.com License - https://fontawesome.com/license (Commercial License) --><path d="M511.56 208.08c-2.31-21.37-14.25-40.99-32.74-53.79-2.9-2.01-5.86-3.97-8.92-5.75 11.79-47.63-7.42-74.79-19.43-86.06-12.19-12.91-39.35-32.1-87.03-20.39-1.75-3.04-3.71-6-5.71-8.9C344.88 14.7 325.27 2.76 303.91.44c-20.99-2.32-41.35 4.58-57.25 19.33-8.36 7.76-13.94 16.88-20.02 26.77-3.03 4.87-5.92 9.81-8.82 14.86-17.59-11.82-36.95-16.28-55.26-12.69-20.14 3.99-37.76 17.6-49.55 38.29-16.53 28.84-14.31 58.55-10.95 84.12-10.32-.94-20.64.48-30.19 4.44-17.9 7.47-31.24 23.2-36.58 43.14-4.08 15.21-4.4 32.64-.94 47.81 2.53 10.88 6.42 20.64 10.23 30.09 2.62 6.56 5.3 13.11 7.17 19.86 2.12 7.64 1.81 12.85 1.34 14.2-12.31 34.06-11.61 66.68 1.03 91.89L7.31 469.39c-9.75 9.75-9.75 25.56 0 35.31 4.87 4.86 11.28 7.3 17.66 7.3s12.78-2.44 17.66-7.3l46.63-46.63c24.9 12.83 57.12 13.43 92.02.79 1.34-.5 6.58-.83 14.22 1.34 6.77 1.88 13.31 4.57 19.89 7.2 9.45 3.77 19.21 7.69 30.09 10.2 6.95 1.61 14.41 2.4 21.86 2.4 8.82 0 17.71-1.12 25.94-3.32 19.99-5.36 35.73-18.72 43.19-36.65 3.93-9.51 5.39-19.78 4.4-30.12 25.72 3.43 55.35 5.58 84.13-10.93 20.74-11.83 34.33-29.45 38.29-49.59 3.62-18.27-.87-37.67-12.66-55.21 5.27-3.05 10.73-6.27 16.68-9.95 8.08-4.97 17.21-10.59 24.95-18.96 14.75-15.89 21.61-36.2 19.3-57.19zm-54.44 24.66c-3.27 3.55-8.92 7.02-16.84 11.9-8.14 5.04-16.53 9.76-25.32 14.72l-36.95 21.14 23.14 28.17c2.84 3.41 5.3 6.38 7.7 9.43 4.3 5.53 9.07 13.83 7.48 22-1.62 8.09-9.11 13.89-15.09 17.32-14.44 8.25-30.75 8.09-54.16 5.01-8.51-1.12-17.03-1.96-26.66-2.92l-66.7-6.98 33.77 48.66c1.09 1.51 1.84 2.46 2.4 3.45 3.46 6.05 4.33 12.25 2.34 17.04-2.21 5.32-7.39 7.69-11.35 8.76-7.64 2.06-17.12 2.28-24.67.5-7.23-1.67-14.9-4.74-22.98-7.98-8.2-3.29-16.43-6.53-24.85-8.87-5.55-1.56-14.19-3.43-23.73-3.43-6.36 0-13.13.84-19.61 3.16-14.01 5.08-26.74 6.99-37.57 6.06L336.5 210.84c9.75-9.75 9.75-25.56 0-35.31-9.75-9.72-25.56-9.72-35.31 0L92.4 384.31c-1-10.96.83-23.71 5.75-37.35 5.52-15.25 2.93-31.97-.22-43.31-2.34-8.45-5.58-16.66-8.89-24.87-3.24-8.11-6.3-15.75-7.98-22.99-1.71-7.56-1.53-17.03.53-24.7 1.06-3.94 3.43-9.1 8.73-11.3 4.83-2.03 11.01-1.15 16.99 2.28 1.03.61 2 1.37 3.55 2.48l48.61 33.97-7.02-67.18c-.94-9.51-1.78-17.96-2.9-26.41-3.09-23.37-3.24-39.72 5.02-54.16 3.43-6 9.2-13.48 17.28-15.07 8.26-1.67 16.5 3.16 22.05 7.48 3.21 2.49 6.36 5.11 9.98 8.15l27.6 22.76 21.02-36.78c5.02-8.9 9.79-17.35 16.06-27.53 3.68-5.97 7.14-11.62 10.7-14.92 7.17-6.63 14.69-7.44 19.46-6.81 7.7.83 14.69 5.25 19.64 12.41 1.81 2.6 3.68 5.24 4.89 8.01 7.77 17.77 28.19 26.89 47.52 21.23 14.13-4.13 33.4-6.5 45.87 6.64 12.16 11.47 9.76 30.73 5.64 44.87-5.64 19.35 3.49 39.79 21.23 47.53 2.84 1.25 5.43 3.09 7.98 4.88 7.2 4.99 11.63 11.96 12.44 19.64.58 4.96-.17 12.33-6.81 19.48z"/></svg>