<svg xmlns="http://www.w3.org/2000/svg" viewBox="0 0 384 512"><!-- Font Awesome Pro 5.15.4 by @fontawesome - https://fontawesome.com License - https://fontawesome.com/license (Commercial License) --><path d="M368 416H16c-8.84 0-16 7.16-16 16v32c0 8.84 7.16 16 16 16h352c8.84 0 16-7.16 16-16v-32c0-8.84-7.16-16-16-16zM42.06 235.24L318.18 350.8c8.21 3.44 17.52-.74 20.8-9.33l11.88-31.1c3.28-8.58-.71-18.32-8.92-21.76L111.09 192l230.85-96.62c8.2-3.43 12.19-13.17 8.92-21.76l-11.88-31.1c-3.28-8.59-12.59-12.76-20.8-9.33L42.06 148.76C35.98 151.3 32 157.46 32 164.3v55.39c0 6.85 3.98 13.01 10.06 15.55z"/></svg>