<svg xmlns="http://www.w3.org/2000/svg" viewBox="0 0 320 512"><!-- Font Awesome Pro 5.15.4 by @fontawesome - https://fontawesome.com License - https://fontawesome.com/license (Commercial License) --><path d="M316.485 392l-116 116.485c-4.686 4.686-12.284 4.686-16.971 0L67.515 392c-4.686-4.686-4.686-12.284 0-16.971l22.312-22.312c4.808-4.808 12.646-4.665 17.275.315L164 414.996V56H44.024a11.996 11.996 0 0 1-8.485-3.515l-32-32C-4.021 12.926 1.333 0 12.024 0H196c13.255 0 24 10.745 24 24v390.996l56.899-61.963c4.629-4.98 12.467-5.123 17.275-.315l22.312 22.312c4.686 4.686 4.686 12.284-.001 16.97z"/></svg>