<svg xmlns="http://www.w3.org/2000/svg" viewBox="0 0 640 512"><!-- Font Awesome Pro 5.15.4 by @fontawesome - https://fontawesome.com License - https://fontawesome.com/license (Commercial License) --><path d="M250.43 110.23l25.28 19.76C287.22 118.9 302.8 112 320 112c8.84 0 16-7.16 16-16s-7.16-16-16-16c-27.44 0-52.06 11.71-69.57 30.23zM320 48c70.58 0 128 57.42 128 128 0 25.62-8.07 50.25-22.28 71.27l37.73 29.49C483.62 248.16 496 213.67 496 176 496 78.8 417.2 0 320 0c-17.59 0-81.33 1.58-132.77 60.82l37.84 29.58C262.63 48.81 307.46 48 320 48zm-79.94 411.17c0 3.15.94 6.22 2.68 8.84l24.51 36.84c2.97 4.46 7.97 7.14 13.32 7.14h78.85c5.36 0 10.36-2.68 13.32-7.14l24.51-36.84c1.74-2.62 2.67-5.7 2.68-8.84l.05-43.18H240.02l.04 43.18zM287.98 384v-.11c-.01-4.8-.74-9.56-2.21-14.13-4.46-13.93-16.1-45.55-39.55-80.05l-98.02-76.63c6.4 29.68 20.04 56.66 39.35 78.7 16.64 18.99 42.74 58.8 52.42 92.16v.06h48.01zm346.01 87.02L36 3.51C29.1-2.01 19.03-.9 13.51 6l-10 12.49C-2.02 25.39-.9 35.46 6 40.98l598 467.51c6.9 5.52 16.96 4.4 22.49-2.49l10-12.49c5.52-6.9 4.41-16.97-2.5-22.49z"/></svg>