<svg xmlns="http://www.w3.org/2000/svg" viewBox="0 0 384 512"><!-- Font Awesome Pro 5.15.4 by @fontawesome - https://fontawesome.com License - https://fontawesome.com/license (Commercial License) --><path d="M320,0H64A64,64,0,0,0,0,64V448a64,64,0,0,0,64,64H320a64,64,0,0,0,64-64V64A64,64,0,0,0,320,0Zm16,448a16,16,0,0,1-16,16H214.38a23.65,23.65,0,0,0-44.76,0H64a16,16,0,0,1-16-16V64A16,16,0,0,1,64,48H169.62a23.65,23.65,0,0,0,44.76,0H320a16,16,0,0,1,16,16ZM256,96H128a32,32,0,0,0-32,32V384a32,32,0,0,0,32,32H256a32,32,0,0,0,32-32V128A32,32,0,0,0,256,96ZM240,256H144V144h96Z"/></svg>