<svg xmlns="http://www.w3.org/2000/svg" viewBox="0 0 640 512"><!-- Font Awesome Pro 5.15.4 by @fontawesome - https://fontawesome.com License - https://fontawesome.com/license (Commercial License) --><path d="M637.8 85.7l-8.1-13.9c-4.4-7.6-14.1-10-21.8-5.9-80.8 43.7-182.3 67.7-287.9 67.7S112.9 109.8 32.1 66c-7.7-4.2-17.3-1.7-21.8 5.9L2.2 85.7c-4.7 7.9-1.7 18 6.4 22.4 45.8 24.9 97.7 43.7 153 56.2l-17.9 39.3c-5.4.6-10.5 3.7-12.9 9l-9.2 20.2c-25.6-.7-49.6 12.6-65.2 46.8-21.9 48.3 4.3 129.8 17.4 135.7 13.1 6 91.8-27.9 113.7-76.1 15.6-34.2 9.8-61.1-7.7-79.8l9.2-20.2c2.4-5.3 1.4-11.2-1.7-15.6l22.8-50.1c28.1 4.3 56.8 6.9 85.8 7.8v45.2c-4.7 2.8-8 7.7-8 13.5v22.2c-23.6 9.8-40 31.8-40 69.5 0 53 57.6 116.4 72 116.4s72-63.3 72-116.4c0-37.6-16.4-59.7-40-69.5V240c0-5.9-3.3-10.8-8-13.5v-45.2c29.1-.9 57.8-3.6 85.8-7.8l22.8 50.1c-3.1 4.5-4.1 10.3-1.7 15.6l9.2 20.2c-17.5 18.7-23.2 45.5-7.7 79.8 21.9 48.3 100.6 82.1 113.7 76.1 13.1-6 39.3-87.5 17.4-135.7-15.6-34.2-39.6-47.5-65.2-46.7l-9.2-20.2c-2.4-5.3-7.5-8.4-12.9-9l-17.9-39.3c55.2-12.5 107.1-31.3 153-56.2 8.3-4.4 11.2-14.5 6.6-22.5zm-494 233.6c-6.5 14.2-26.5 29-43.9 38.6-4.3-19.4-6.3-44.2.2-58.4 9.7-21.4 18.5-22 33.3-15.2 14.8 6.7 20.2 13.6 10.4 35zm362.8-35.1c14.8-6.7 23.6-6.2 33.3 15.2 6.5 14.2 4.4 39 .2 58.4-17.4-9.6-37.4-24.4-43.9-38.6-9.8-21.3-4.4-28.2 10.4-35zM320 384.9c-11.9-15.9-24-37.7-24-53.3 0-23.5 7.7-27.6 24-27.6s24 4.1 24 27.6c0 15.6-12.1 37.4-24 53.3z"/></svg>