<svg xmlns="http://www.w3.org/2000/svg" viewBox="0 0 640 512"><!-- Font Awesome Pro 5.15.4 by @fontawesome - https://fontawesome.com License - https://fontawesome.com/license (Commercial License) --><path d="M633.99 471.02L36 3.51C29.1-2.01 19.03-.9 13.51 6l-10 12.49C-2.02 25.39-.9 35.46 6 40.98l598 467.51c6.9 5.52 16.96 4.4 22.49-2.49l10-12.49c5.52-6.9 4.41-16.97-2.5-22.49zM320 112c79.4 0 144 64.6 144 144 0 6.72-1.09 13.15-1.99 19.64l42.25 33.03c2.66-9.31 4.84-18.83 6.07-28.67H560c8.84 0 16-7.16 16-16v-16c0-8.84-7.16-16-16-16h-49.66C499.49 145.19 430.81 76.51 344 65.66V16c0-8.84-7.16-16-16-16h-16c-8.84 0-16 7.16-16 16v49.66c-25.81 3.23-49.69 12.07-71.26 24.48l41.55 32.48C282.92 115.9 300.99 112 320 112zm0 288c-79.4 0-144-64.6-144-144 0-6.72 1.09-13.16 1.99-19.64l-42.25-33.03c-2.66 9.31-4.85 18.83-6.08 28.67H80c-8.84 0-16 7.16-16 16v16c0 8.84 7.16 16 16 16h49.66C140.51 366.81 209.2 435.49 296 446.34V496c0 8.84 7.16 16 16 16h16c8.84 0 16-7.16 16-16v-49.66c25.81-3.23 49.69-12.07 71.26-24.48l-41.55-32.48C357.08 396.1 339.01 400 320 400z"/></svg>