<svg xmlns="http://www.w3.org/2000/svg" viewBox="0 0 576 512"><!-- Font Awesome Pro 5.15.4 by @fontawesome - https://fontawesome.com License - https://fontawesome.com/license (Commercial License) --><path d="M432.3 0C352.8-.2 288 64.5 288 144v48H48c-26.5 0-48 21.5-48 48v224c0 26.5 21.5 48 48 48h352c26.5 0 48-21.5 48-48V240c0-26.5-21.5-48-48-48h-64v-46.8c0-52.8 42.1-96.7 95-97.2 53.4-.6 97 42.7 97 96v56c0 13.3 10.7 24 24 24s24-10.7 24-24v-54.6C576 65.8 512 .2 432.3 0zM400 240v224H48V240h352z"/></svg>