<svg xmlns="http://www.w3.org/2000/svg" viewBox="0 0 576 512"><!-- Font Awesome Pro 5.15.4 by @fontawesome - https://fontawesome.com License - https://fontawesome.com/license (Commercial License) --><path d="M569.348 231.63C512.968 135.95 407.81 72 288 72c-31.44 0-61.87 4.4-90.67 12.63L144 5.12c-3.8-5.429-11.282-6.75-16.712-2.95l-19.657 13.758c-5.43 3.8-6.751 11.284-2.95 16.713L150.8 101.84c-58.851 27-110.003 71.82-144.147 129.79a47.963 47.963 0 0 0 0 48.74c36.15 61.35 92.357 109.66 159.637 136.42L50.65 251.6a273.208 273.208 0 0 1 38.609-49.099L254.32 438.3c19.795 2.055 40.851 2.183 59.09.73L126.009 171.311a277.521 277.521 0 0 1 52.851-29.381l.34.49L432 506.881c3.8 5.429 11.282 6.75 16.712 2.95l19.657-13.758c5.43-3.8 6.751-11.283 2.95-16.713l-46.119-69.2c60.42-27.72 110.818-73.22 144.148-129.79a47.963 47.963 0 0 0 0-48.74zM397.15 370.08l-26.59-37.99c54.022-41.348 68.205-114.637 37.44-172.13v.04c0 30.93-25.07 56-56 56s-56-25.07-56-56c0-15.17 6.04-28.92 15.84-39.01 92.48 7.74 172 60.08 216.16 135.01-29.8 50.57-75.71 90.86-130.85 114.08z"/></svg>