<svg xmlns="http://www.w3.org/2000/svg" viewBox="0 0 448 512"><!-- Font Awesome Pro 5.15.4 by @fontawesome - https://fontawesome.com License - https://fontawesome.com/license (Commercial License) --><path d="M224 0C100.3 0 0 100.3 0 224v128c0 88.4 71.6 160 160 160h128c88.4 0 160-71.6 160-160V224C448 100.3 347.7 0 224 0zm176 352c0 61.8-50.2 112-112 112H160c-61.8 0-112-50.2-112-112V224c0-97 79-176 176-176s176 79 176 176v128zM226.5 226.2c-.9-.7-4.2-.7-5.1 0C213.3 188.3 182 160 144 160H76c-6.6 0-12 5.4-12 12v30.7c0 47.1 35.8 85.3 80 85.3h22.4c-7.4 12.2-12.5 23.5-15.8 32.9-30.9 4.6-54.6 31-54.6 63.1 0 35.5 29.4 64 64.9 64H287c35.5 0 64.9-28.5 64.9-64 0-32.1-23.7-58.5-54.6-63.1-3.3-9.5-8.4-20.7-15.8-32.9H304c44.2 0 80-38.2 80-85.3V172c0-6.6-5.4-12-12-12h-68c-37.9 0-69.3 28.3-77.5 66.2zm-2.5 40.5c20.2 19.9 31.9 38.6 38.7 53.3h-77.4c6.8-14.8 18.5-33.4 38.7-53.3zM144 256c-26.5 0-48-23.9-48-53.3V192h48c26.5 0 48 23.9 48 53.3v8.7c-.6.7-1.2 1.3-1.8 2H144zm144 96c17.6 0 32 14.4 32 32s-14.4 32-32 32H160c-17.6 0-32-14.4-32-32s14.4-32 32-32h128zm64-149.3c0 29.4-21.5 53.3-48 53.3h-46.2c-.6-.7-1.2-1.3-1.8-2v-8.7c0-29.4 21.5-53.3 48-53.3h48v10.7z"/></svg>