<svg xmlns="http://www.w3.org/2000/svg" viewBox="0 0 512 512"><!-- Font Awesome Pro 5.15.4 by @fontawesome - https://fontawesome.com License - https://fontawesome.com/license (Commercial License) --><path d="M304 176c-17.67 0-32 14.33-32 32s14.33 32 32 32 32-14.33 32-32-14.33-32-32-32zm196.98 18.97l-56.5-17.91c-12.21-55.61-56.4-99.15-112.42-110.23L313.05 10.8c-4.92-14.5-17.46-14.37-22.08.22l-17.91 56.5c-55.61 12.21-99.15 56.4-110.23 112.42l-56.03 19.01c-14.5 4.92-14.37 17.46.22 22.08l56.5 17.91c4.21 19.18 12.29 36.81 23.31 52.29L3.51 474.54c-4.69 4.69-4.69 12.29 0 16.97l16.97 16.97c4.69 4.69 12.29 4.69 16.97 0l183.32-183.32c16.26 11.57 34.87 19.99 55.16 24l19.01 56.03c4.92 14.5 17.46 14.37 22.08-.22l17.91-56.5c55.61-12.21 99.15-56.4 110.23-112.42l56.03-19.01c14.51-4.91 14.38-17.45-.21-22.07zM304 304c-52.94 0-96-43.07-96-96 0-52.94 43.06-96 96-96s96 43.06 96 96c0 52.93-43.06 96-96 96z"/></svg>