<svg xmlns="http://www.w3.org/2000/svg" viewBox="0 0 512 512"><!-- Font Awesome Pro 5.15.4 by @fontawesome - https://fontawesome.com License - https://fontawesome.com/license (Commercial License) --><path d="M509.8 55.6c-1.2-3.3-2.9-6.4-5-9.2-6.6-8.8-17-14.5-28.8-14.5H372c-12.4 0-23.4 6.3-29.9 15.9-1 1.4-1.8 2.9-2.6 4.5-2.3 4.7-3.5 10-3.5 15.6v172c0 64-40 96-79.9 96-40 0-80.1-32-80.1-96V68c0-4.3-.8-8.5-2.2-12.4-1.2-3.3-2.9-6.4-5-9.2-6.6-8.8-17-14.5-28.8-14.5H36c-11.8 0-22.3 5.7-28.8 14.5-2.1 2.8-3.8 5.9-5 9.2C.8 59.5 0 63.7 0 68v189.3C0 408 136.2 504 256.8 504 377.5 504 512 408 512 257.3V68c0-4.3-.8-8.5-2.2-12.4zM464 257.3c0 28.9-6.1 56.2-18.2 81.3-11.2 23.4-27.3 44.4-47.9 62.5-19.5 17.2-42.9 31.2-67.6 40.7-24.1 9.3-49.6 14.2-73.6 14.2-49.5 0-102.6-20.6-142.1-55-20.7-18.1-37-39.1-48.4-62.5-12-25.1-18.2-52.4-18.2-81.2V176h80v64c0 53.1 20.7 86.3 38 104.8 11.9 12.7 26 22.6 41.8 29.3 15.3 6.5 31.6 9.9 48.2 9.9 16.7 0 32.9-3.3 48.2-9.8 15.8-6.8 29.9-16.6 41.8-29.3 17.3-18.5 38-51.7 38-104.8v-64h80v81.2z"/></svg>