<svg xmlns="http://www.w3.org/2000/svg" viewBox="0 0 576 512"><!-- Font Awesome Pro 5.15.4 by @fontawesome - https://fontawesome.com License - https://fontawesome.com/license (Commercial License) --><path d="M560 160c-2 0-4 .4-6 1.2l-73.5 27.2c-8.2 20.4-20.2 42-34.2 63.8L528 222v193l-128 44.5V316.3c-13.7 17.3-27.9 34.3-42.5 50.8-1.7 1.9-3.6 3.5-5.5 5.1v81.4l-128-45.2v-113c-18.1-24.1-34.8-48.8-48-72.8v180.2l-.6.2L48 450V257l123.6-43c-8-15.4-14.1-30.3-18.3-44.5L20.1 216C8 220.8 0 232.6 0 245.7V496c0 9.2 7.5 16 16 16 2 0 4-.4 6-1.2L192 448l172 60.7c13 4.3 27 4.4 40 .2L555.9 456c12.2-4.9 20.1-16.6 20.1-29.7V176c0-9.2-7.5-16-16-16zM320 352c5 0 10-2 13.5-6.1 35.3-40 127.3-150.1 127.3-210.6C460.8 60.6 397.8 0 320 0S179.2 60.6 179.2 135.3c0 60.4 92 170.6 127.3 210.6C310 350 315 352 320 352zm0-304c51.2 0 92.8 39.2 92.8 87.3 0 21.4-31.8 79.1-92.8 152.6-61-73.5-92.8-131.2-92.8-152.6 0-48.1 41.6-87.3 92.8-87.3z"/></svg>