<svg xmlns="http://www.w3.org/2000/svg" viewBox="0 0 384 512"><!-- Font Awesome Pro 5.15.4 by @fontawesome - https://fontawesome.com License - https://fontawesome.com/license (Commercial License) --><path d="M192 0C86.4 0 0 86.4 0 192c0 76.8 25.6 99.2 172.8 310.4 4.8 6.4 12 9.6 19.2 9.6s14.4-3.2 19.2-9.6C358.4 291.2 384 268.8 384 192 384 86.4 297.6 0 192 0zm0 446.09c-14.41-20.56-27.51-39.12-39.41-55.99C58.35 256.48 48 240.2 48 192c0-79.4 64.6-144 144-144s144 64.6 144 144c0 48.2-10.35 64.48-104.59 198.09-11.9 16.87-25 35.44-39.41 56zM194.67 88c-41.81 0-76.9 29.3-85.81 68.45-2.28 9.99 5.2 19.55 15.44 19.55h16.84c7.22 0 13.19-4.99 15.33-11.88 5.07-16.27 20.27-28.12 38.2-28.12 25.98 0 40 20.61 40 40 0 15.96-20.07 27.19-50.67 42.5-8.14 4.07-13.33 12.4-13.33 21.5v16.16c0 8.75 7.09 15.84 15.84 15.84h16.32c8.75 0 15.84-7.09 15.84-15.84v-1.43c31.25-16.27 64-37.78 64-78.73 0-43.25-32.92-88-88-88zM192 288c-17.67 0-32 14.33-32 32s14.33 32 32 32 32-14.33 32-32-14.33-32-32-32z"/></svg>