<svg xmlns="http://www.w3.org/2000/svg" viewBox="0 0 512 512"><!-- Font Awesome Pro 5.15.4 by @fontawesome - https://fontawesome.com License - https://fontawesome.com/license (Commercial License) --><path d="M485.48 26.51C467.81 8.84 444.64 0 421.47 0s-46.33 8.84-64.01 26.51L335.7 48.27l-36.55-36.55c-15.62-15.62-40.95-15.62-56.56 0L123.8 130.5c-6.25 6.25-6.25 16.38 0 22.63l11.31 11.31c6.25 6.25 16.38 6.25 22.63 0L270.87 51.31l30.9 30.9L93.95 290.02A327.038 327.038 0 0 0 .17 485.11l-.03.23C-1.45 499.72 9.88 512 23.95 512c5.73 0 111.06-6.99 198.03-93.95l263.51-263.51c35.35-35.36 35.35-92.67-.01-128.03zm-297.45 357.6c-37.02 37.02-83.99 62.88-134.74 74.6 11.72-50.74 37.59-97.73 74.6-134.74l73.07-73.07 60.14 60.14-73.07 73.07zm263.52-263.52L295.04 277.1l-60.14-60.14 156.51-156.5C399.44 52.42 410.12 48 421.47 48c11.36 0 22.04 4.42 30.07 12.46C459.58 68.49 464 79.17 464 90.52c0 11.36-4.42 22.04-12.45 30.07z"/></svg>