<svg xmlns="http://www.w3.org/2000/svg" viewBox="0 0 512 512"><!-- Font Awesome Pro 5.15.4 by @fontawesome - https://fontawesome.com License - https://fontawesome.com/license (Commercial License) --><path d="M288 208c0-31.1-9.9-59.9-26.6-83.4L317 69l14.5 14.5c7.6 7.6 20.5 2.2 20.5-8.5V12c0-6.6-5.4-12-12-12h-63c-10.7 0-16 12.9-8.5 20.5L283 35l-55.6 55.6C203.9 73.9 175.1 64 144 64 64.5 64 0 128.5 0 208s64.5 144 144 144 144-64.5 144-144zm-144 96c-52.9 0-96-43.1-96-96s43.1-96 96-96 96 43.1 96 96-43.1 96-96 96zm368-132v63c0 10.7-12.9 16-20.5 8.5L477 229l-55.6 55.6c16.8 23.5 26.6 52.3 26.6 83.4 0 79.5-64.5 144-144 144-74.4 0-135.6-56.4-143.2-128.8 16.1-1.5 32-5.3 47.3-11.2 2.1 51.1 44.3 92 95.9 92 52.9 0 96-43.1 96-96 0-51.6-40.9-93.8-92-95.9 6-15.3 9.7-31.2 11.2-47.3 25.3 2.7 48.6 11.8 68.2 25.8L443 195l-14.5-14.5c-7.6-7.6-2.2-20.5 8.5-20.5h63c6.6 0 12 5.4 12 12z"/></svg>