<svg xmlns="http://www.w3.org/2000/svg" viewBox="0 0 384 512"><!-- Font Awesome Pro 5.15.4 by @fontawesome - https://fontawesome.com License - https://fontawesome.com/license (Commercial License) --><path d="M372 64h-63c-10.7 0-16 12.9-8.5 20.5L315 99l-23.4 23.4-14.1-14.1c-4.7-4.7-12.3-4.7-17 0l-17 17c-4.7 4.7-4.7 12.3 0 17l14.1 14.1-30.2 30.2C203.9 169.9 175.1 160 144 160 64.5 160 0 224.5 0 304s64.5 144 144 144 144-64.5 144-144c0-31.1-9.9-59.9-26.6-83.4l30.2-30.2 14.1 14.1c4.7 4.7 12.3 4.7 17 0l17-17c4.7-4.7 4.7-12.3 0-17l-14.1-14.1L349 133l14.5 14.5c7.6 7.6 20.5 2.2 20.5-8.5V76c0-6.6-5.4-12-12-12zM144 400c-52.9 0-96-43.1-96-96s43.1-96 96-96 96 43.1 96 96-43.1 96-96 96z"/></svg>