<svg xmlns="http://www.w3.org/2000/svg" viewBox="0 0 288 512"><!-- Font Awesome Pro 5.15.4 by @fontawesome - https://fontawesome.com License - https://fontawesome.com/license (Commercial License) --><path d="M245.8 234.2c-22-22-49.3-35.4-77.8-40.2v-42.7h20c6.6 0 12-5.4 12-12v-24c0-6.6-5.4-12-12-12h-20V70.1h20.6c10.7 0 16-12.9 8.5-20.5L152.5 5.1c-4.7-4.7-12.3-4.7-17 0L90.9 49.6c-7.6 7.6-2.2 20.5 8.5 20.5H120v33.1h-20c-6.6 0-12 5.4-12 12v24c0 6.6 5.4 12 12 12h20V194c-28.5 4.8-55.8 18.2-77.8 40.2-56.2 56.2-56.2 147.4 0 203.6 56.2 56.2 147.4 56.2 203.6 0 56.3-56.2 56.3-147.4 0-203.6zm-33.9 169.7c-37.4 37.4-98.3 37.4-135.8 0-37.4-37.4-37.4-98.3 0-135.8 37.4-37.4 98.3-37.4 135.8 0 37.4 37.4 37.4 98.4 0 135.8z"/></svg>