<svg xmlns="http://www.w3.org/2000/svg" viewBox="0 0 640 512"><!-- Font Awesome Pro 5.15.4 by @fontawesome - https://fontawesome.com License - https://fontawesome.com/license (Commercial License) --><path d="M320.67 64c-442.6 0-357.57 384-158.46 384 39.9 0 77.47-20.69 101.42-55.86l25.73-37.79c7.83-11.5 19.57-17.25 31.31-17.25 11.74 0 23.49 5.75 31.31 17.25l25.73 37.79C401.66 427.31 439.23 448 479.13 448c189.86 0 290.63-384-158.46-384zm158.46 331.64c-24.57 0-48.08-12.98-62.88-34.72l-25.73-37.79c-16.61-24.39-42.07-38.38-69.85-38.38-27.78 0-53.24 13.99-69.85 38.38l-25.73 37.79c-14.8 21.74-38.31 34.72-62.88 34.72C93.89 395.64 48 332.11 48 272.77c0-38.62 18.1-73.1 52.35-99.7 33.3-25.87 98.55-56.71 220.32-56.71 122.22 0 187.15 30.17 220.1 55.48 33.52 25.75 51.23 59.42 51.23 97.37 0 59.8-46.35 126.43-112.87 126.43zM192 186.18c-39.11 0-64.53 25.66-76.27 41.05-4.98 6.53-4.98 16.1 0 22.63 11.73 15.4 37.16 41.05 76.27 41.05s64.53-25.66 76.27-41.05c4.98-6.53 4.98-16.09 0-22.63-11.74-15.39-37.16-41.05-76.27-41.05zm256 0c-39.11 0-64.53 25.66-76.27 41.05-4.98 6.53-4.98 16.1 0 22.63 11.73 15.4 37.16 41.05 76.27 41.05s64.53-25.66 76.27-41.05c4.98-6.53 4.98-16.09 0-22.63-11.74-15.39-37.16-41.05-76.27-41.05z"/></svg>