<svg xmlns="http://www.w3.org/2000/svg" viewBox="0 0 512 512"><!-- Font Awesome Pro 5.15.4 by @fontawesome - https://fontawesome.com License - https://fontawesome.com/license (Commercial License) --><path d="M444 68.52C399.45 24.05 345.11 0 299.18 0c-38.65 0-62 19.06-68.77 25.85-38.72 38.68-102.26 113.78-102.26 183.6v72.67L116.3 294c-1.93 1.88-5.76 1-7.75.17A79.19 79.19 0 0 0 23.22 423.7a76.41 76.41 0 0 0 43.57 21.59 76.39 76.39 0 0 0 21.57 43.55 79.19 79.19 0 0 0 129.58-85.33c-1-2.5-1.56-6 .16-7.75L229.87 384h73c81.9 0 181.09-94.54 190.46-111.16 37.43-49.42 17.38-137.65-49.33-204.32zM302.88 336H210l-25.85 25.82c-15.24 15.24-19.37 38.05-10.78 59.52A31.07 31.07 0 0 1 144.43 464c-12 0-27.64-7.82-30.11-25.38l-5-35.81-35.8-5.05C56 395.28 48 379.7 48 367.65a31.13 31.13 0 0 1 42.5-29 60.4 60.4 0 0 0 22.5 4.42 52.76 52.76 0 0 0 37.27-15.17l25.9-25.9v-92.55c0-22.79 11.76-51.7 32.33-82.69 8.62 39.31 31.34 79.12 64.7 112.45s73.54 56.08 112.19 64.6C354.34 324.38 325.57 336 302.88 336zm149.82-88.09c-23.44 23.42-89.77 13.12-145.61-42.67-53.75-53.69-67.28-120.9-42.71-145.45 23.44-23.42 89.76-13.11 145.62 42.67 53.88 53.83 67 121.19 42.7 145.45zM331.89 127.23c-9.81 9.8-5.84 29.67 8.88 44.37s34.61 18.68 44.42 8.87 5.84-29.66-8.88-44.37-34.61-18.67-44.42-8.87z"/></svg>