<svg xmlns="http://www.w3.org/2000/svg" viewBox="0 0 512 512"><!-- Font Awesome Pro 5.15.4 by @fontawesome - https://fontawesome.com License - https://fontawesome.com/license (Commercial License) --><path d="M342.17 281.67l-52.43-7.64-23.43-47.52c-2.11-4.25-6.22-6.39-10.33-6.39-4.08 0-8.16 2.12-10.28 6.39l-23.43 47.52-52.43 7.64c-9.4 1.36-13.17 12.96-6.35 19.59l37.93 36.96-8.97 52.22c-1.28 7.46 4.67 13.44 11.32 13.44 1.77 0 3.58-.42 5.33-1.35l46.9-24.65 46.9 24.65c1.74.92 3.55 1.33 5.31 1.33 6.66 0 12.62-5.96 11.34-13.43l-8.97-52.22 37.93-36.96c6.83-6.63 3.06-18.22-6.34-19.58zM495.97 0H338.12c-11.24 0-21.66 5.9-27.44 15.54L256 106.67l-54.68-91.13A31.997 31.997 0 0 0 173.88 0H16.03C3.08 0-4.5 14.57 2.92 25.18l113.99 162.85C84.21 222.47 64 268.87 64 320c0 105.87 86.13 192 192 192s192-86.13 192-192c0-51.13-20.21-97.53-52.91-131.98L509.08 25.18C516.5 14.57 508.92 0 495.97 0zM77.49 48h87.33l50.64 84.4c-22.11 4.78-42.73 13.45-61.3 25.13L77.49 48zM400 320c0 79.53-64.47 144-144 144s-144-64.47-144-144 64.47-144 144-144 144 64.47 144 144zm-42.16-162.47c-18.57-11.68-39.19-20.36-61.3-25.13L347.18 48h87.33l-76.67 109.53z"/></svg>