<svg xmlns="http://www.w3.org/2000/svg" viewBox="0 0 512 512"><!-- Font Awesome Pro 5.15.4 by @fontawesome - https://fontawesome.com License - https://fontawesome.com/license (Commercial License) --><path d="M464 96H352V80c0-26.51-21.49-48-48-48h-96c-26.51 0-48 21.49-48 48v16H48c-26.51 0-48 21.49-48 48v288c0 26.51 21.49 48 48 48h416c26.51 0 48-21.49 48-48V144c0-26.51-21.49-48-48-48zM208 80h96v16h-96V80zM54 432a6 6 0 0 1-6-6V150a6 6 0 0 1 6-6h404a6 6 0 0 1 6 6v276a6 6 0 0 1-6 6H54zm298-160v32c0 6.627-5.373 12-12 12h-56v56c0 6.627-5.373 12-12 12h-32c-6.627 0-12-5.373-12-12v-56h-56c-6.627 0-12-5.373-12-12v-32c0-6.627 5.373-12 12-12h56v-56c0-6.627 5.373-12 12-12h32c6.627 0 12 5.373 12 12v56h56c6.627 0 12 5.373 12 12z"/></svg>