<svg xmlns="http://www.w3.org/2000/svg" viewBox="0 0 640 512"><!-- Font Awesome Pro 5.15.4 by @fontawesome - https://fontawesome.com License - https://fontawesome.com/license (Commercial License) --><path d="M416 96c17.67 0 32-14.33 32-32S416 0 416 0s-32 46.33-32 64 14.33 32 32 32zm-96 0c17.67 0 32-14.33 32-32S320 0 320 0s-32 46.33-32 64 14.33 32 32 32zm200 32h-16c-8.84 0-16 7.16-16 16v144h48V144c0-8.84-7.16-16-16-16zm-8-32c17.67 0 32-14.33 32-32S512 0 512 0s-32 46.33-32 64 14.33 32 32 32zm96 0c17.67 0 32-14.33 32-32S608 0 608 0s-32 46.33-32 64 14.33 32 32 32zm-184 32h-16c-8.84 0-16 7.16-16 16v144h48V144c0-8.84-7.16-16-16-16zM32 96c17.67 0 32-14.33 32-32S32 0 32 0 0 46.33 0 64s14.33 32 32 32zm104 32h-16c-8.84 0-16 7.16-16 16v144h48V144c0-8.84-7.16-16-16-16zm88-32c17.67 0 32-14.33 32-32S224 0 224 0s-32 46.33-32 64 14.33 32 32 32zm400 32h-16c-8.84 0-16 7.16-16 16v136c0 22.09-17.91 40-40 40H344V144c0-8.84-7.16-16-16-16h-16c-8.84 0-16 7.16-16 16v176H88c-22.09 0-40-17.91-40-40V144c0-8.84-7.16-16-16-16H16c-8.84 0-16 7.16-16 16v136c0 48.6 39.4 88 88 88h208v96H112c-8.84 0-16 7.16-16 16v16c0 8.84 7.16 16 16 16h416c8.84 0 16-7.16 16-16v-16c0-8.84-7.16-16-16-16H344v-96h208c48.6 0 88-39.4 88-88V144c0-8.84-7.16-16-16-16zM128 96c17.67 0 32-14.33 32-32S128 0 128 0 96 46.33 96 64s14.33 32 32 32zm104 32h-16c-8.84 0-16 7.16-16 16v144h48V144c0-8.84-7.16-16-16-16z"/></svg>