<svg xmlns="http://www.w3.org/2000/svg" viewBox="0 0 288 512"><!-- Font Awesome Pro 5.15.4 by @fontawesome - https://fontawesome.com License - https://fontawesome.com/license (Commercial License) --><path d="M288 208c0-50.3-25.8-94.6-65-120.4 3.2-2.2 6.2-4.6 9.2-7.2 21.1-18.1 34.1-41.4 37.5-66.8 1-7.2-4.6-13.6-11.9-13.6h-24.3c-5.7 0-10.7 4-11.8 9.7C216 40.4 183.3 64 144 64S72 40.4 66.2 9.7C65.2 4 60.2 0 54.5 0H30.1c-7.3 0-12.9 6.4-11.9 13.6C21.7 39 34.7 62.4 55.8 80.4c3 2.5 6 4.9 9.2 7.2C25.8 113.4 0 157.7 0 208c0 71.6 52.2 130.9 120.6 142.1-.4 1.2-.6 2.4-.6 3.7V408H76c-6.6 0-12 5.4-12 12v24c0 6.6 5.4 12 12 12h44v44c0 6.6 5.4 12 12 12h24c6.6 0 12-5.4 12-12v-44h44c6.6 0 12-5.4 12-12v-24c0-6.6-5.4-12-12-12h-44v-54.2c0-1.3-.2-2.6-.6-3.7C235.8 338.9 288 279.6 288 208zm-144 96c-52.9 0-96-43.1-96-96s43.1-96 96-96 96 43.1 96 96-43.1 96-96 96z"/></svg>