<svg xmlns="http://www.w3.org/2000/svg" viewBox="0 0 512 512"><!-- Font Awesome Pro 5.15.4 by @fontawesome - https://fontawesome.com License - https://fontawesome.com/license (Commercial License) --><path d="M464,64H48A48,48,0,0,0,0,112V400a48,48,0,0,0,48,48h0l24,32h48l24-32H368l24,32h48l24-32h0a48,48,0,0,0,48-48V112A48,48,0,0,0,464,64Zm0,336H48V112H464ZM416,272a24,24,0,1,0-24-24A24,24,0,0,0,416,272Zm0-80a24,24,0,1,0-24-24A24,24,0,0,0,416,192ZM96,368H352a16,16,0,0,0,16-16V160a16,16,0,0,0-16-16H96a16,16,0,0,0-16,16V352A16,16,0,0,0,96,368Z"/></svg>