<svg xmlns="http://www.w3.org/2000/svg" viewBox="0 0 640 512"><!-- Font Awesome Pro 5.15.4 by @fontawesome - https://fontawesome.com License - https://fontawesome.com/license (Commercial License) --><path d="M633.99 471.02L36 3.51C29.1-2.01 19.03-.9 13.51 6l-10 12.49C-2.02 25.39-.9 35.46 6 40.98l598 467.51c6.9 5.52 16.96 4.4 22.49-2.49l10-12.49c5.52-6.9 4.41-16.97-2.5-22.49zM496 256v-48c0-8.84-7.16-16-16-16h-16c-8.84 0-16 7.16-16 16v48c0 2.75-.69 5.31-.86 8.01l43.21 33.78c3.32-13.47 5.65-27.31 5.65-41.79zm-96 208h-56v-33.77c20.68-2.84 40.14-9.43 57.9-18.81l-43.1-33.69c-16.09 5.14-33.46 7.42-51.59 5.65C240.72 376.89 192 317.11 192 250.3v-2.98l-48-37.53v38.37c0 89.64 63.97 169.55 152 181.69V464h-56c-8.84 0-16 7.16-16 16v16c0 8.84 7.16 16 16 16h160c8.84 0 16-7.16 16-16v-16c0-8.84-7.16-16-16-16zM272 96c0-26.47 21.53-48 48-48s48 21.53 48 48v106.14l48 37.53V96c0-53.02-42.98-96-96-96-50.97 0-92.26 39.85-95.4 90.03l47.4 37.05V96z"/></svg>