<svg xmlns="http://www.w3.org/2000/svg" viewBox="0 0 512 512"><!-- Font Awesome Pro 5.15.4 by @fontawesome - https://fontawesome.com License - https://fontawesome.com/license (Commercial License) --><path d="M476 464h-40.5c37.06-33.68 60.5-82.1 60.5-136 0-98.75-78.26-179.36-176-183.6V97.14c0-18.39-10.16-34.45-25.16-42.88V36.58c0-20.17-16.4-36.58-36.56-36.58H157.72c-20.16 0-36.56 16.41-36.56 36.58v17.69C106.16 62.69 96 78.75 96 97.14v197.72c0 22.02 14.56 40.7 34.56 46.94v37.62c0 20.17 16.41 36.58 36.59 36.58h81.69c20.19 0 36.59-16.41 36.59-36.58V341.8c20-6.23 34.56-24.92 34.56-46.94V192.81c71.21 4.23 128 62.95 128 135.19 0 74.98-61 136-136 136H36c-19.88 0-36 16.12-36 36 0 6.63 5.37 12 12 12h488c6.63 0 12-5.37 12-12 0-19.88-16.12-36-36-36zm-297.44-96v-40h58.88v40h-58.88zm92.28-72H145.16l-1.16-1.14L145.16 96h24V48h77.69L248 96h24l-1.16 200z"/></svg>