<svg xmlns="http://www.w3.org/2000/svg" viewBox="0 0 640 512"><!-- Font Awesome Pro 5.15.4 by @fontawesome - https://fontawesome.com License - https://fontawesome.com/license (Commercial License) --><path d="M635 339.8l-96-95.2c-10.1-10-27-2.6-27 12.2V304h-79.9c-5.6 0-11.2-.1-17 .8-47.1 6.9-85.6 44.5-93.4 91.5-7.8 46.7 13.3 89.5 48.3 112.9 9.8 6.5 21.6-3.2 17.8-14.4-9-26.6-5.6-94.7 60.3-94.7h64v47.2c0 14.8 16.9 22.2 27 12.2l96-95.2c6.6-6.7 6.6-17.9-.1-24.5zM290 391c1.3-8 3.4-15.7 6.1-23.2V82c0-18.8 15.3-34 34.2-34 15.5 0 29.1 10.5 32.9 25.6l4.8 18.9 22.9-1.2c16.5.1 31.9 15.4 31.9 34.1 0 4.4-.4 5.3-5.5 27.2l18.9 7.7c13.7 5.6 42.7 30.2 25.1 65.9l-9.9 20.1 19.5 11.2c3.5 2 6.2 4.5 8.9 6.9v-7.8c0-22 14.5-40.4 34.2-46.5.1-1.7.7-3.4.7-5.1 0-33-16.7-63-43.7-80.6-.4-39.7-29.4-72.8-67.5-79.8C389.9 17.8 361.8 0 330.3 0c-22.8 0-43.4 9.2-58.3 24.1A82.316 82.316 0 0 0 213.7 0c-31.4 0-59.6 17.8-73.3 44.9-38.1 7-67.1 40.1-67.5 79.8-27.1 17.6-43.7 47.6-43.7 80.6 0 7.7 1 15.4 2.9 23C11.9 246.3 0 272.2 0 299.5c0 33 16.7 63 43.7 80.6.5 47.5 38.5 86.2 85.8 88.3 15.9 26.7 44.9 43.6 76.8 43.6 26 0 49.2-11.2 65.6-28.8 13.4 14.4 31.5 24.1 51.9 27.3-28-32.2-41-75.9-33.8-119.5zm-42.1 31.8c0 22.8-18.6 41.2-41.5 41.2-32.9 0-39.5-29.5-45.6-47.6l-20.3 3.4c-24 4-48.5-15.3-48.5-40.5 0-2.8 4.7-27.4 4.7-27.4l-18.2-7.5c-36.9-15.2-41.3-66.1-5.5-86.6l19.5-11.2-9.9-20.1C65 190.7 94 166 107.7 160.4l18.9-7.7c-5-21.9-5.5-22.8-5.5-27.2 0-18.8 15.3-34 31.9-34.1l22.9 1.2 4.8-18.9c3.9-15.1 17.4-25.6 32.9-25.6 18.9 0 34.2 15.2 34.2 34v340.7z"/></svg>