<svg xmlns="http://www.w3.org/2000/svg" viewBox="0 0 576 512"><!-- Font Awesome Pro 5.15.4 by @fontawesome - https://fontawesome.com License - https://fontawesome.com/license (Commercial License) --><path d="M542.1 213.4c-26-26-89.6-38.6-130.9-44.2L312 70.1V16c0-8.8-7.2-16-16-16h-16c-8.8 0-16 7.2-16 16v54.1l-99.1 99.1C123.6 174.8 60 187.4 34 213.4c-40 40-45.4 99.4-12.1 132.7C36.5 360.8 56.3 368 77.2 368c26.6 0 55-11.5 77.4-33.9 14.9-14.9 25.3-42 32.6-70.2 5.6 4.9 12.7 8.1 20.8 8.1 17.7 0 32-14.3 32-32s-14.3-32-32-32c-3.6 0-6.9 1-10.2 2.1.4-2.4.7-4.6 1-6.9L264 138v144.3c-28.4 32.8-72 89.2-72 127.3 0 56.6 43 102.4 96 102.4s96-45.8 96-102.4c0-38.1-43.6-94.6-72-127.3V137.9l65.2 65.2c5.6 41.3 18.2 104.9 44.2 130.9 22.4 22.4 50.8 33.9 77.4 33.9 20.9 0 40.7-7.2 55.4-21.8 33.3-33.3 27.9-92.7-12.1-132.7zm-421.4 86.7C108.2 312.6 92 320 77.2 320c-6.2 0-15-1.4-21.4-7.8-14.1-14.1-8.4-44.4 12.1-64.9 10.4-10.4 43.4-20.3 79.8-26.9-6.7 36.3-16.6 69.3-27 79.7zM336 409.6c0 30-21.5 54.4-48 54.4s-48-24.4-48-54.4c0-13.8 20.4-47.5 48-81.5 27.3 33.9 48 67.9 48 81.5zm184.2-97.4c-6.4 6.4-15.2 7.8-21.4 7.8-14.8 0-31-7.4-43.4-19.9-10.4-10.4-20.3-43.4-26.9-79.7 36.3 6.6 69.4 16.6 79.7 26.9 20.4 20.5 26.1 50.8 12 64.9zM384 64c17.7 0 32-14.3 32-32S401.7 0 384 0s-32 14.3-32 32 14.3 32 32 32z"/></svg>