<svg xmlns="http://www.w3.org/2000/svg" viewBox="0 0 448 512"><!-- Font Awesome Pro 5.15.4 by @fontawesome - https://fontawesome.com License - https://fontawesome.com/license (Commercial License) --><path d="M416.8 184.7c-15.6-13-35.3-20.1-55.6-20.1-14.8 0-29.1 3.7-41.7 10.6l-12.6-54.7C290.5 49.6 228.3 0 155.5 0c-11.7 0-23.5 1.4-35.1 4C37 23.3-15.3 106.9 4 190.4L54.6 384h49.6L50.8 179.6C37.5 121.9 73.6 64.1 131.3 50.8c8-1.8 16.1-2.8 24.2-2.8 50.3 0 93.3 34.3 104.6 83.3l32.7 141.5 38.5-46.2c7.4-8.9 18.3-14 29.9-14 9 0 17.9 3.2 24.8 9 16.5 13.7 18.7 38.3 5 54.7L301.3 384h62.5l64.1-76.9c30.7-36.8 25.7-91.7-11.1-122.4zM368.1 416H48c-8.8 0-16 7.2-16 16v64c0 8.8 7.2 16 16 16h320c8.8 0 16-7.2 16-16v-64c.1-8.8-7.1-16-15.9-16z"/></svg>