<svg xmlns="http://www.w3.org/2000/svg" viewBox="0 0 320 512"><!-- Font Awesome Pro 5.15.4 by @fontawesome - https://fontawesome.com License - https://fontawesome.com/license (Commercial License) --><path d="M272 0H48C21.5 0 0 21.5 0 48v416c0 26.5 21.5 48 48 48h224c26.5 0 48-21.5 48-48V48c0-26.5-21.5-48-48-48zm-6 464H54c-3.3 0-6-2.7-6-6V54c0-3.3 2.7-6 6-6h212c3.3 0 6 2.7 6 6v404c0 3.3-2.7 6-6 6zm-70-32h-72c-6.6 0-12-5.4-12-12v-8c0-6.6 5.4-12 12-12h72c6.6 0 12 5.4 12 12v8c0 6.6-5.4 12-12 12z"/></svg>