<svg xmlns="http://www.w3.org/2000/svg" viewBox="0 0 640 512"><!-- Font Awesome Pro 5.15.4 by @fontawesome - https://fontawesome.com License - https://fontawesome.com/license (Commercial License) --><path d="M485.51 384H528a16 16 0 0 0 16-16v-42.46a32 32 0 0 0-9.37-22.63L303.18 71.47l-71.7 71.7 231.39 231.45a32 32 0 0 0 22.64 9.38zM208.88 120.57l71.7-71.8L238.78 7a24.1 24.1 0 0 0-33.9 0L167 44.87a24 24 0 0 0 0 33.8zM136 424h16a8 8 0 0 0 8-8v-16.12c23.62-.63 42.67-20.54 42.67-45.07 0-20-13-37.81-31.58-43.39l-45-13.5c-5.16-1.54-8.77-6.78-8.77-12.73 0-7.27 5.3-13.19 11.8-13.19h28.11a24 24 0 0 1 12.82 3.72 9 9 0 0 0 4.75 1.4 7.72 7.72 0 0 0 5.38-2.13l11.75-11.21a8 8 0 0 0-.57-12.14A57.18 57.18 0 0 0 160 240.29V224a8 8 0 0 0-8-8h-16a8 8 0 0 0-8 8v16.12c-23.62.63-42.67 20.55-42.67 45.07 0 20 13 37.81 31.58 43.39l45 13.5c5.16 1.54 8.77 6.78 8.77 12.73 0 7.27-5.3 13.19-11.8 13.19h-28.11a24.08 24.08 0 0 1-12.77-3.72 9 9 0 0 0-4.75-1.4 7.7 7.7 0 0 0-5.38 2.13l-11.8 11.21a8 8 0 0 0 .57 12.14A57.26 57.26 0 0 0 128 399.71V416a8 8 0 0 0 8 8zm120-120h91l-48-48h-43a16 16 0 0 0-16 16v16a16 16 0 0 0 16 16zm-16 64a16 16 0 0 0 16 16h171l-48-48H256a16 16 0 0 0-16 16zm368-240H405l48 48h139v288H48V176h171.05l-10.2-10.2-22.6-22.6-15.2-15.2H32a32 32 0 0 0-32 32v320a32 32 0 0 0 32 32h576a32 32 0 0 0 32-32V160a32 32 0 0 0-32-32z"/></svg>