<svg xmlns="http://www.w3.org/2000/svg" viewBox="0 0 640 512"><!-- Font Awesome Pro 5.15.4 by @fontawesome - https://fontawesome.com License - https://fontawesome.com/license (Commercial License) --><path d="M320 160.55c-44.18 0-80 43.16-80 96.41 0 53.24 35.81 96.41 80 96.41 44.17 0 80-43.15 80-96.41 0-53.25-35.82-96.41-80-96.41zM621.16 54.46C582.37 38.19 543.55 32 504.75 32c-123.17-.01-246.33 62.34-369.5 62.34-30.89 0-61.76-3.92-92.65-13.72-3.47-1.1-6.95-1.62-10.35-1.62C15.04 79 0 92.32 0 110.81v317.26c0 12.63 7.23 24.6 18.84 29.46C57.63 473.81 96.45 480 135.25 480c123.17 0 246.34-62.35 369.51-62.35 30.89 0 61.76 3.92 92.65 13.72 3.47 1.1 6.95 1.62 10.35 1.62 17.21 0 32.25-13.32 32.25-31.81V83.93c-.01-12.64-7.24-24.6-18.85-29.47zM592 379.98c-27.7-6.93-56.44-10.32-87.25-10.32-67.56 0-133.13 16.59-196.53 32.64-60.36 15.27-117.37 29.7-172.97 29.7-31.62 0-60.28-4.78-87.25-14.58v-285.4c27.7 6.93 56.44 10.32 87.25 10.32 67.56 0 133.12-16.59 196.52-32.64C392.13 94.43 449.14 80 504.75 80c31.63 0 60.29 4.78 87.25 14.58v285.4z"/></svg>