<svg xmlns="http://www.w3.org/2000/svg" viewBox="0 0 576 512"><!-- Font Awesome Pro 5.15.4 by @fontawesome - https://fontawesome.com License - https://fontawesome.com/license (Commercial License) --><path d="M544 0H32C14.33 0 0 14.33 0 32v448c0 17.67 14.33 32 32 32h512c17.67 0 32-14.33 32-32V32c0-17.67-14.33-32-32-32zm-16 464H48V288h158.69l26.53 79.59A24.044 24.044 0 0 0 255.69 384h.31c10.09 0 19.09-6.3 22.56-15.8l42.5-116.91 8.67 21.63A23.993 23.993 0 0 0 352 287.99h112c8.84 0 16-7.16 16-16v-16c0-8.84-7.16-16-16-16h-95.75l-25.97-64.91c-3.69-9.23-13.41-15.42-22.66-15.09-9.97.16-18.78 6.44-22.19 15.8L257 287.06l-10.22-30.66c-3.27-9.8-12.44-16.41-22.76-16.41H48V48h480v416z"/></svg>