<svg xmlns="http://www.w3.org/2000/svg" viewBox="0 0 640 512"><!-- Font Awesome Pro 5.15.4 by @fontawesome - https://fontawesome.com License - https://fontawesome.com/license (Commercial License) --><path d="M640 120c0-39.77-32.24-72-72-72h-12.27C535.49 19.04 502.02 0 464 0s-71.49 19.04-91.73 48H360c-39.76 0-72 32.23-72 72 0 38.77 30.72 70.16 69.11 71.71.78 2.63 1.47 5.29 2.43 7.84C263.21 224.58 192 311.83 192 416v48h-8c-22.06 0-40-17.94-40-40V168c0-39.7-32.31-72-72-72S0 128.3 0 168v64c0 13.25 10.75 24 24 24s24-10.75 24-24v-64c0-13.23 10.78-24 24-24s24 10.77 24 24v256c0 48.53 39.47 88 88 88h248c8.84 0 16-7.16 16-16 0-17.67-14.33-32-32-32h-32l83.4-62.55 12.6 49.91V480c0 17.67 14.33 32 32 32h64c17.67 0 32-14.33 32-32v-16.24c0-10.47-1.28-20.89-3.82-31.05l-51.31-205.24c8.08-10.62 14.13-22.66 18.02-35.76C609.28 190.16 640 158.77 640 120zm-48 0c0 10.4-6.73 19.05-16 22.38V112c0-5.03-.84-9.83-1.48-14.68 10 2.89 17.48 11.76 17.48 22.68zm-240-8v30.38c-9.27-3.33-16-11.98-16-22.38 0-10.92 7.48-19.79 17.48-22.68-.64 4.85-1.48 9.65-1.48 14.68zm48 0c0-35.29 28.71-64 64-64s64 28.71 64 64v48c0 35.29-28.71 64-64 64s-64-28.71-64-64v-48zm157.61 332.36a79.834 79.834 0 0 1 2.39 19.4v.24h-32v-18.6l-1.46-5.78-30.24-119.85L304 464h-64v-48c0-87.74 64.62-160.41 148.71-173.58C408.63 260.62 434.89 272 464 272c17.15 0 33.22-4.17 47.76-11.06l45.85 183.42zM496 136c8.84 0 16-7.16 16-16s-7.16-16-16-16-16 7.16-16 16 7.16 16 16 16zm-64 0c8.84 0 16-7.16 16-16s-7.16-16-16-16-16 7.16-16 16 7.16 16 16 16z"/></svg>