<svg xmlns="http://www.w3.org/2000/svg" viewBox="0 0 640 512"><!-- Font Awesome Pro 5.15.4 by @fontawesome - https://fontawesome.com License - https://fontawesome.com/license (Commercial License) --><path d="M283.6 176.1C259.7 146.3 223.2 128 184 128c-40.4 0-77.7 19-101.6 50.3C35.4 188.2 0 230.1 0 280c0 57.3 46.7 104 104 104h176c57.3 0 104-46.7 104-104 0-56.1-44.7-102-100.4-103.9zM280 336H104c-30.9 0-56-25.1-56-56s25.1-56 56-56h6.8c12.4-28.2 40.5-48 73.2-48 34.4 0 63.4 21.8 74.8 52.2 6.6-2.7 13.7-4.2 21.2-4.2 30.9 0 56 25.1 56 56s-25.1 56-56 56zm357.6 15.2c-4.1-8.6-12.4-13.9-21.8-13.9-5.5 0-11.9 2.6-27.8 2.6-67 0-121.5-54.7-121.5-121.9 0-43.7 23.6-84.3 61.6-106 8.9-5.1 13.6-15 11.9-25.1-1.7-10.2-9.4-17.9-19.5-19.8-11.5-2.1-23.3-3.2-35-3.2-67.3 0-126 35.2-160.1 87.9 15.4 5.4 29.5 13.5 41.7 23.7 19.8-29.6 50-51.5 85.7-59.9-21.9 29.1-34.4 64.9-34.4 102.4 0 81.1 57 149.1 132.9 165.9-20.1 10.4-42.6 16-65.9 16-37.7 0-71.7-14.8-97.2-38.7-9.7 12.8-21.3 24-34.8 32.8 34.3 33.2 80.6 53.9 132 53.9 58.1 0 112.4-25.9 149-71.1 6.1-7.2 7.3-17.1 3.2-25.6z"/></svg>