<svg xmlns="http://www.w3.org/2000/svg" viewBox="0 0 512 512"><!-- Font Awesome Pro 5.15.4 by @fontawesome - https://fontawesome.com License - https://fontawesome.com/license (Commercial License) --><path d="M496 192H395.7L496.3 91.4c25.8-25.8 18.8-69.4-13.9-85.7-18.1-9.1-39.8-7.1-56 5.1L184.6 192H16c-8.8 0-16 7.2-16 16v16c0 8.8 7.2 16 16 16h16v16c0 81.4 50.8 150.8 122.3 178.8-12.8 16.8-21.7 36.6-24.9 58.4-1.4 9.8 6 18.8 15.9 18.8h221.4c9.9 0 17.4-9 15.9-18.8-3.2-21.8-12.2-41.7-24.9-58.4C429.2 406.8 480 337.4 480 256v-16h16c8.8 0 16-7.2 16-16v-16c0-8.8-7.2-16-16-16zM455.2 49.1c1-.7 2.1-1.1 3.3-1.1.9 0 1.7.2 2.5.6.6.3 2.5 1.3 3 4s-1 4.3-1.5 4.8L327.8 192h-63.2zM432 256c0 59.7-36 112.3-91.7 134L281 413.2l38.5 50.6c0 .1.1.1.1.2H192.4c0-.1.1-.1.1-.2l38.5-50.6-59.3-23.2C116 368.3 80 315.7 80 256v-16h352z"/></svg>