<svg xmlns="http://www.w3.org/2000/svg" viewBox="0 0 640 512"><!-- Font Awesome Pro 5.15.4 by @fontawesome - https://fontawesome.com License - https://fontawesome.com/license (Commercial License) --><path d="M512 192c-15.601 0-30.548 2.795-44.374 7.905L434.633 144H520c13.255 0 24-10.745 24-24V88c0-13.255-10.745-24-24-24h-45.312a24 24 0 0 0-17.839 7.945l-39.101 43.445-24.524-41.555A20 20 0 0 0 376 64h-76c-6.627 0-12 5.373-12 12v16c0 6.627 5.373 12 12 12h64.58l30.688 52h-175.86c-4.01-4.393-8.542-8.531-13.783-12.275C186.784 130.268 162.118 124 128 124H72c-11.046 0-20 8.954-20 20s8.954 20 20 20h56c22.885 0 37.946 8.448 48.662 20.205l-7.936 14.43A127.765 127.765 0 0 0 128 192C57.308 192 0 249.308 0 320s57.308 128 128 128c58.192 0 107.311-38.834 122.863-92h81.327c11.396 0 20.491-9.517 19.979-20.897-2.456-54.98 23.782-106.017 68.372-136.28l12.198 20.668C403.054 242.932 384 279.24 384 320c0 70.692 57.308 128 128 128s128-57.308 128-128-57.308-128-128-128zM128 408c-48.523 0-88-39.477-88-88s39.477-88 88-88c7.229 0 14.256.878 20.983 2.53l-50.507 91.831C91.156 339.672 100.802 356 116 356h92.27c-13.787 30.62-44.569 52-80.27 52zm184.367-92H149.825l66-120h147.308c-30.834 33.811-48.088 76.226-50.766 120zM512 408c-48.523 0-88-39.477-88-88 0-26.019 11.354-49.434 29.365-65.559l53.477 90.614c3.369 5.708 10.726 7.604 16.434 4.236l13.78-8.132c5.708-3.368 7.604-10.726 4.236-16.434l-52.833-89.522A87.769 87.769 0 0 1 512 232c48.523 0 88 39.477 88 88s-39.477 88-88 88z"/></svg>