<svg xmlns="http://www.w3.org/2000/svg" viewBox="0 0 384 512"><!-- Font Awesome Pro 5.15.4 by @fontawesome - https://fontawesome.com License - https://fontawesome.com/license (Commercial License) --><path d="M356.683 255.576L115.915 18.636C77.055-21.086 8 6.909 8 62.87v349.112c0 55.241 67.457 83.887 107.414 44.727l23.927-23.449 17.535 40.669.121.281.125.274c13.903 31.145 50.295 45.894 82.155 32.648l41.903-17.395.254-.106.253-.109c15.618-6.697 27.662-19.038 33.912-34.749 6.184-15.545 5.927-32.568-.724-47.933l-18.71-43.423h16.527c55.848.002 85.165-68.485 43.991-107.841zm-43.872 59.843h-89.594l47.607 110.491c3.316 7.661-.474 16.249-8.053 19.499l-41.922 17.409c-7.816 3.25-16.58-.465-19.895-7.892l-45.238-104.92-73.898 72.423C72.038 432.012 56 424.734 56 411.982V62.868c0-13.309 16.978-19.829 25.817-10.445L323.47 290.117c9.79 9.091 2.553 25.302-10.659 25.302z"/></svg>