<svg xmlns="http://www.w3.org/2000/svg" viewBox="0 0 640 512"><!-- Font Awesome Pro 5.15.4 by @fontawesome - https://fontawesome.com License - https://fontawesome.com/license (Commercial License) --><path d="M591.21 220.16l48.52-207.28c1.04-4.46-.94-9.25-5.14-11.57-5.07-2.8-11.45-.96-14.25 4.11L517.06 192.51c-1.71-.07-3.32-.51-5.06-.51-141.14 0-207.15 83.47-308.69 182.31-3.26 3.26-7.27 4.72-11.2 4.72-8.23 0-16.12-6.39-16.12-16.03v-62.87l31.38-16.49C217.76 277.7 224 267.7 224 257V144.03c0-9.41-9.01-16.03-18.72-16.03h-.01c-3.47 0-7.02.85-10.29 2.71L112 178.13l-82.98-47.42c-3.27-1.87-6.83-2.71-10.3-2.71C9.01 128 0 134.61 0 144.03V257c0 10.7 6.24 20.69 16.62 26.62L48 300.12v80C48 452.96 107.04 512 179.88 512H544c53.02 0 96-42.98 96-96v-96c0-40.62-19.29-76.39-48.79-99.84zM592 416c0 26.47-21.53 48-48 48H179.88C133.63 464 96 426.37 96 380.13v-109l-25.67-13.49L48 245.89v-49.05l40.19 22.96L112 233.42l23.82-13.61L176 196.84v49.05l-22.33 11.74-25.67 13.5V363c0 35.31 28.76 64.03 64.12 64.03 17 0 33.03-6.67 44.68-18.32 11.53-11.22 22.6-22.24 33.38-32.97C352.28 294 406.52 240 512 240c44.11 0 80 35.89 80 80v96zm-160-72c-13.25 0-24 10.74-24 24 0 13.25 10.75 24 24 24s24-10.75 24-24c0-13.26-10.75-24-24-24z"/></svg>