<svg xmlns="http://www.w3.org/2000/svg" viewBox="0 0 640 512"><!-- Font Awesome Pro 5.15.4 by @fontawesome - https://fontawesome.com License - https://fontawesome.com/license (Commercial License) --><path d="M16 400h16c38.62 0 72.72-12.19 96-31.84 23.21 19.6 57.18 31.74 95.66 31.82-14.61-14.67-25.34-32.9-32.07-52.98-10.15-3.33-18.29-7.92-23.68-12.89-8.9-8.21-19.66-14.1-31.77-14.1h-16.3c-12.11 0-22.87 5.89-31.77 14.1C77.8 343.58 58.04 352 32 352H16c-8.84 0-16 7.16-16 16v16c0 8.83 7.16 16 16 16zm608-48h-16c-26.04 0-45.8-8.42-56.09-17.9-8.9-8.21-19.66-14.1-31.77-14.1h-16.3c-12.11 0-22.87 5.89-31.77 14.1-5.39 4.97-13.53 9.57-23.68 12.89-6.73 20.08-17.46 38.31-32.07 52.98 38.48-.07 72.45-12.22 95.66-31.82 23.28 19.66 57.38 31.84 96 31.84h16c8.84 0 16-7.16 16-16v-16C640 359.16 632.84 352 624 352zm0 112h-16c-26.04 0-45.8-8.42-56.09-17.9-8.9-8.21-19.66-14.1-31.77-14.1h-16.3c-12.11 0-22.87 5.89-31.77 14.1C461.8 455.58 442.04 464 416 464s-45.8-8.42-56.09-17.9a60.051 60.051 0 0 0-12.49-8.85c-8.86 1.81-18.03 2.77-27.42 2.77s-18.57-.95-27.42-2.77c-4.46 2.39-8.68 5.34-12.49 8.85C269.8 455.58 250.04 464 224 464s-45.8-8.42-56.09-17.9c-8.9-8.21-19.66-14.1-31.77-14.1h-16.3c-12.11 0-22.87 5.89-31.77 14.1C77.8 455.58 58.04 464 32 464H16c-8.84 0-16 7.16-16 16v16c0 8.84 7.16 16 16 16h16c38.62 0 72.72-12.19 96-31.84 23.28 19.66 57.38 31.84 96 31.84s72.72-12.19 96-31.84c23.28 19.66 57.38 31.84 96 31.84s72.72-12.19 96-31.84c23.28 19.66 57.38 31.84 96 31.84h16c8.84 0 16-7.16 16-16v-16c0-8.84-7.16-16-16-16zm-304-63.99c52.94 0 96-43.06 96-96 0-44.6-30.71-81.86-72-92.59V144h56c8.84 0 16-7.16 16-16v-16c0-8.84-7.16-16-16-16h-56V48h56c8.84 0 16-7.16 16-16V16c0-8.84-7.16-16-16-16h-88c-8.84 0-16 7.16-16 16v195.41c-41.29 10.73-72 47.99-72 92.59 0 52.95 43.06 96.01 96 96.01zm0-144c26.47 0 48 21.53 48 48s-21.53 48-48 48-48-21.53-48-48 21.53-48 48-48z"/></svg>