<svg xmlns="http://www.w3.org/2000/svg" viewBox="0 0 640 512"><!-- Font Awesome Pro 5.15.4 by @fontawesome - https://fontawesome.com License - https://fontawesome.com/license (Commercial License) --><path d="M496 72c-8.84 0-16 7.16-16 16s7.17 16 16 16c8.84 0 16-7.16 16-16s-7.16-16-16-16zm79.96-40h-9.47l-8.63-8.61C542.74 8.31 522.65 0 501.27 0h-20.54c-13.89 0-27.62 3.63-39.68 10.51L291.09 96h-18.71C157.48 96 64 189.31 64 304l.08 64.8C28.15 372.81 0 403.01 0 440c0 39.7 32.31 72 72 72h160c13.25 0 24-10.75 24-24s-10.75-24-24-24H72c-13.22 0-24-10.77-24-24s10.78-24 24-24h232.46c26.51 0 48-21.49 48-48 0-19.45-6.98-37.29-18.57-51.17l13.94-7.39 40.13 80.07A48 48 0 0 0 430.87 416H529c26.51 0 48-21.49 48-48 0-44.11-35.92-80-80.08-80h-16.59l-19.35-38.6 31.12-16.51c10.96-5.82 23.32-8.89 35.75-8.89C589.69 224 640 173.76 640 112V96c0-35.29-28.73-64-64.04-64zm-48.11 144c-20.31 0-40.31 4.97-58.24 14.49l-3.68 1.95 16.7-21.71c9-11.73 23.22-18.73 38.03-18.73h56.9c-11.76 14.52-29.54 24-49.71 24zM592 112c0 2.74-.47 5.35-.81 8h-70.53c-24.69 0-48.38 11.67-63.41 31.23l-59.32 75.78 1.01.96-1.89 1L450.7 336h46.22c17.7 0 32.08 14.36 32.08 32h-98.13l-62.14-123.99L195.33 336h77.05c17.7 0 32.08 14.36 32.08 32H112v-64c0-88.37 71.81-160 160.38-160h31.43l161.01-91.79A32.16 32.16 0 0 1 480.73 48h20.54c8.57 0 16.63 3.33 22.68 9.37l13.29 13.26 9.4 9.38h29.32c8.86 0 16.04 7.16 16.04 16V112z"/></svg>