<svg xmlns="http://www.w3.org/2000/svg" viewBox="0 0 512 512"><!-- Font Awesome Pro 5.15.4 by @fontawesome - https://fontawesome.com License - https://fontawesome.com/license (Commercial License) --><path d="M448,0H64A64,64,0,0,0,0,64V448a64,64,0,0,0,64,64H448a64,64,0,0,0,64-64V64A64,64,0,0,0,448,0Zm16,448a16,16,0,0,1-16,16H64a16,16,0,0,1-16-16V64A16,16,0,0,1,64,48H448a16,16,0,0,1,16,16ZM353.85,96H158.15a22.86,22.86,0,0,0-16.41,6.7C103.71,141.71,80,195.9,80,256s23.71,114.28,61.74,153.29A22.87,22.87,0,0,0,158.15,416h195.7a22.87,22.87,0,0,0,16.41-6.71c38-39,61.74-93.19,61.74-153.29s-23.71-114.29-61.74-153.3A22.86,22.86,0,0,0,353.85,96ZM208,272a16,16,0,0,1-16,16H176a16,16,0,0,1-16-16V192a16,16,0,0,1,16-16h16a16,16,0,0,1,16,16Zm80,80H224V336a32,32,0,0,1,64,0Zm64-80a16,16,0,0,1-16,16H320a16,16,0,0,1-16-16V192a16,16,0,0,1,16-16h16a16,16,0,0,1,16,16Z"/></svg>