<svg xmlns="http://www.w3.org/2000/svg" viewBox="0 0 448 512"><!-- Font Awesome Pro 5.15.4 by @fontawesome - https://fontawesome.com License - https://fontawesome.com/license (Commercial License) --><path d="M96,432H352a16,16,0,0,0,16-16V256a16,16,0,0,0-16-16H96a16,16,0,0,0-16,16V416A16,16,0,0,0,96,432Zm32-144H320v32H128ZM104,80a24,24,0,1,0,24,24A24,24,0,0,0,104,80Zm240,0a24,24,0,1,0,24,24A24,24,0,0,0,344,80ZM184,80a24,24,0,1,0,24,24A24,24,0,0,0,184,80ZM384,0H64A64,64,0,0,0,0,64V480a32,32,0,0,0,32,32H416a32,32,0,0,0,32-32V64A64,64,0,0,0,384,0Zm16,464H48V208H400Zm0-304H48V64A16,16,0,0,1,64,48H384a16,16,0,0,1,16,16ZM264,80a24,24,0,1,0,24,24A24,24,0,0,0,264,80Z"/></svg>