<svg xmlns="http://www.w3.org/2000/svg" viewBox="0 0 576 512"><!-- Font Awesome Pro 5.15.4 by @fontawesome - https://fontawesome.com License - https://fontawesome.com/license (Commercial License) --><path d="M144 48.06L304 48v112a16 16 0 0 0 16 16h112v40h48v-84a48.09 48.09 0 0 0-14.09-34L382 14.07A48.09 48.09 0 0 0 348 0L128 .08a32 32 0 0 0-32 32V216h48zM352 52l76.07 76H352zM240 264a16 16 0 0 0-16 16v16a16 16 0 0 0 16 16h96a16 16 0 0 0 16-16v-16a16 16 0 0 0-16-16zm192 200H144V360H96v120a32 32 0 0 0 32 32h320a32 32 0 0 0 32-32V360h-48zm128-200H432a16 16 0 0 0-16 16v16a16 16 0 0 0 16 16h128a16 16 0 0 0 16-16v-16a16 16 0 0 0-16-16zm-400 32v-16a16 16 0 0 0-16-16H16a16 16 0 0 0-16 16v16a16 16 0 0 0 16 16h128a16 16 0 0 0 16-16z"/></svg>