<svg xmlns="http://www.w3.org/2000/svg" viewBox="0 0 512 512"><!-- Font Awesome Pro 5.15.4 by @fontawesome - https://fontawesome.com License - https://fontawesome.com/license (Commercial License) --><path d="M456 72h-40V48c0-26.51-21.49-48-48-48H48C21.49 0 0 21.49 0 48v96c0 26.51 21.49 48 48 48h320c26.51 0 48-21.49 48-48v-24h40c4.41 0 8 3.59 8 8v96c0 4.41-3.59 8-8 8H256c-30.88 0-56 25.12-56 56v32h-8c-17.67 0-32 14.33-32 32v128c0 17.67 14.33 32 32 32h64c17.67 0 32-14.33 32-32V352c0-17.67-14.33-32-32-32h-8v-32c0-4.41 3.59-8 8-8h200c30.88 0 56-25.12 56-56v-96c0-30.88-25.12-56-56-56zm-88 72H48V48h320v96zM240 464h-32v-96h32v96z"/></svg>