<svg xmlns="http://www.w3.org/2000/svg" viewBox="0 0 512 512"><!-- Font Awesome Pro 5.15.4 by @fontawesome - https://fontawesome.com License - https://fontawesome.com/license (Commercial License) --><path d="M511.9 175c-9.1-75.6-78.4-132.4-158.3-158.7 36.3 39.2 62.2 100.1 62.4 174.8L314.6 320H280V192h104C384 76.8 315.1 0 256 0S128 76.8 128 192h104v128h-34.6L96 191.1c.2-74.7 26.1-135.6 62.4-174.8C78.5 42.7 9.2 99.5.1 175c-1.1 9.1 6.8 17 16 17h19.5l124.7 158.5c0 .5-.3 1-.3 1.5v128c0 17.7 14.3 32 32 32h128c17.7 0 32-14.3 32-32V352c0-.5-.3-1-.3-1.5L476.4 192h19.5c9.2 0 17.1-7.8 16-17zM304 456c0 4.4-3.6 8-8 8h-80c-4.4 0-8-3.6-8-8v-80c0-4.4 3.6-8 8-8h80c4.4 0 8 3.6 8 8v80z"/></svg>