<svg xmlns="http://www.w3.org/2000/svg" viewBox="0 0 448 512"><!-- Font Awesome Pro 5.15.4 by @fontawesome - https://fontawesome.com License - https://fontawesome.com/license (Commercial License) --><path d="M400 32H48C21.5 32 0 53.5 0 80v352c0 26.5 21.5 48 48 48h352c26.5 0 48-21.5 48-48V80c0-26.5-21.5-48-48-48zm0 394c0 3.3-2.7 6-6 6H54c-3.3 0-6-2.7-6-6V86c0-3.3 2.7-6 6-6h340c3.3 0 6 2.7 6 6v340zM232 135.9h-80c-8.8 0-16 7.2-16 16v216c0 8.8 7.2 16 16 16h16c8.8 0 16-7.2 16-16v-56h48c48.5 0 88-39.5 88-88 .1-48.5-39.4-88-88-88zm0 128.1h-48v-80h48c22.1 0 40 17.9 40 40s-17.9 40-40 40z"/></svg>