<svg xmlns="http://www.w3.org/2000/svg" viewBox="0 0 496 512"><!-- Font Awesome Pro 5.15.4 by @fontawesome - https://fontawesome.com License - https://fontawesome.com/license (Commercial License) --><path d="M256.09 135.91h-80c-8.84 0-16 7.16-16 16v216c0 8.84 7.16 16 16 16h16c8.84 0 16-7.16 16-16v-56h48c48.53 0 88-39.47 88-88s-39.47-88-88-88zm0 128h-48v-80h48c22.06 0 40 17.94 40 40s-17.94 40-40 40zM248 8C111.03 8 0 119.03 0 256s111.03 248 248 248 248-111.03 248-248S384.97 8 248 8zm0 448c-110.28 0-200-89.72-200-200S137.72 56 248 56s200 89.72 200 200-89.72 200-200 200z"/></svg>