<svg xmlns="http://www.w3.org/2000/svg" viewBox="0 0 640 512"><!-- Font Awesome Pro 5.15.4 by @fontawesome - https://fontawesome.com License - https://fontawesome.com/license (Commercial License) --><path d="M624.52 347.67c-32.62-12.47-57.34 4.27-75.37 16.45-17.09 11.53-23.19 14.42-31.4 11.36-8.09-3.09-10.81-9.38-15.87-29.38-3.33-13.15-7.44-29.31-17.96-42.64 2.25-2.92 4.43-5.79 6.38-8.58 10.17 9.56 23.41 17.11 41.7 17.11 33.97 0 50.87-25.78 62.06-42.83 10.59-16.14 15-21.17 21.94-21.17 13.25 0 24-10.75 24-24s-10.75-24-24-24c-33.97 0-50.87 25.78-62.06 42.83-10.59 16.14-15 21.17-21.94 21.17-17.83 0-39.62-66.72-103.93-106.46l15.02-30.03c1.65.13 3.23.5 4.92.5 35.35 0 64-28.65 64-64s-28.65-64-64-64c-35.34 0-64 28.65-64 64 0 16.19 6.21 30.81 16.12 42.08l-15.85 31.71C365.31 131.81 344.11 128 320 128s-45.31 3.81-64.27 9.79l-15.85-31.71C249.79 94.8 256 80.19 256 64c0-35.35-28.65-64-64-64-35.34 0-64 28.65-64 64s28.65 64 64 64c1.68 0 3.26-.37 4.92-.5l15.02 30.03C148.35 196.84 125.44 264 108.01 264c-6.94 0-11.34-5.03-21.94-21.17C74.89 225.78 57.98 200 24.01 200c-13.25 0-24 10.75-24 24s10.75 24 24 24c6.94 0 11.34 5.03 21.94 21.17C57.14 286.22 74.04 312 108.01 312c18.29 0 31.53-7.54 41.7-17.11 1.95 2.79 4.14 5.66 6.38 8.58-10.52 13.33-14.63 29.49-17.96 42.64-5.06 20-7.78 26.28-15.87 29.38-8.19 3.06-14.34.17-31.4-11.36-18-12.19-42.72-28.91-75.37-16.45-12.41 4.72-18.62 18.58-13.91 30.97 4.75 12.39 18.66 18.64 30.97 13.88 8.22-3.09 14.34-.19 31.4 11.36 13.53 9.16 30.84 20.86 52.43 20.84 7.16 0 14.81-1.28 22.94-4.39 32.65-12.44 40-41.33 45.34-62.44 2.21-8.72 3.99-14.49 5.95-18.86 16.62 13.61 36.94 25.88 61.63 34.16-9.95 37-32.17 90.81-60.23 90.81-13.25 0-24 10.75-24 24s10.75 24 24 24c66.74 0 97.04-88.63 107.42-129.14 6.69.6 13.42 1.14 20.58 1.14s13.89-.54 20.58-1.14C350.95 423.37 381.25 512 447.99 512c13.25 0 24-10.75 24-24s-10.75-24-24-24c-27.93 0-50.19-53.81-60.2-90.82 24.67-8.29 44.98-20.55 61.6-34.15 1.95 4.38 3.74 10.14 5.95 18.86 5.34 21.11 12.69 50 45.34 62.44 8.12 3.11 15.78 4.39 22.94 4.39 21.59 0 38.9-11.69 52.43-20.84 17.06-11.55 23.19-14.45 31.4-11.36 12.37 4.73 26.22-1.48 30.97-13.88 4.72-12.39-1.5-26.25-13.9-30.97zM447.99 48c8.82 0 16 7.18 16 16s-7.18 16-16 16-16-7.18-16-16 7.18-16 16-16zM192.01 80c-8.82 0-16-7.18-16-16s7.18-16 16-16 16 7.18 16 16-7.18 16-16 16zM320 336c-80.59 0-122.1-52.17-138.49-79.97C197.99 228.05 239.49 176 320 176c80.59 0 122.1 52.17 138.49 79.97C442.01 283.95 400.51 336 320 336z"/></svg>