<svg xmlns="http://www.w3.org/2000/svg" viewBox="0 0 512 512"><!-- Font Awesome Pro 5.15.4 by @fontawesome - https://fontawesome.com License - https://fontawesome.com/license (Commercial License) --><path d="M256 256c-80.75 0-192 108.19-192 186.7 0 42.09 34.06 69.3 86.78 69.3 46.78 0 76.4-20.38 105.22-20.38 28.99 0 58.94 20.38 105.22 20.38 52.72 0 86.78-27.2 86.78-69.3C448 364.19 336.75 256 256 256zm105.22 208c-37.73 0-65.78-20.38-105.22-20.38-39.23 0-67.06 20.38-105.22 20.38-14.47 0-38.78-2.77-38.78-21.3 0-47.77 86.09-138.7 144-138.7s144 90.94 144 138.7c0 18.53-24.31 21.3-38.78 21.3zM493.5 190.37L448 128v66.94c-19.83 6.55-37.51 24.43-44.72 48.46-10.4 34.65 4.77 68.38 33.89 75.34 30.19 7.22 61.56-16.82 71.56-50.13 8.84-29.5-1.54-59.48-15.23-78.24zm-47.1 89.25c-16.45-4.94-.2-53.07 19.22-47.25 16.49 4.98-.13 53.38-19.22 47.25zm-127.85-57.01c40.37 10.63 69.81-35.82 77.46-63.87 8.44-30.94 3.01-61.05-12.01-78.75L320 0v74.96c-15.95 11.26-29.49 30.37-36.02 54.29-11.85 43.42 3.64 85.22 34.57 93.36zm4.01-82.83c15.7-57.62 47.93-39.38 34.84 8.44-15.62 57.31-47.91 39.57-34.84-8.44zM108.73 243.39c-7.21-24.03-24.89-41.91-44.72-48.46V128L18.5 190.37C4.81 209.13-5.57 239.11 3.29 268.61c10 33.3 41.36 57.35 71.56 50.13 29.11-6.97 44.28-40.7 33.88-75.35zM65.6 279.62c-19.09 6.12-35.72-42.28-19.22-47.25 19.42-5.81 35.67 42.32 19.22 47.25zm127.85-57.01c30.94-8.14 46.42-49.94 34.58-93.36-6.53-23.92-20.07-43.04-36.02-54.29V0L128 79.99c-15.02 17.7-20.45 47.82-12.01 78.75 7.65 28.05 37.09 74.5 77.46 63.87zm-4.01-82.83c13.07 48.01-19.22 65.75-34.84 8.44-13.09-47.82 19.15-66.06 34.84-8.44z"/></svg>