<svg xmlns="http://www.w3.org/2000/svg" viewBox="0 0 576 512"><!-- Font Awesome Pro 5.15.4 by @fontawesome - https://fontawesome.com License - https://fontawesome.com/license (Commercial License) --><path d="M464 112c8.84 0 16-7.16 16-16s-7.16-16-16-16-16 7.16-16 16 7.16 16 16 16zm111.95-9.75a47.943 47.943 0 0 0-10.94-30.46L543.28 45.3c16.02-5.4 29.13-18.84 32.56-35.66C576.85 4.68 572.96 0 567.9 0H432c-68.4 0-125.82 47.95-140.42 112h-25.81c-38.88 0-78.63-12.31-104.4-41.44-4.02-4.54-9.17-6.56-14.21-6.56-9.78 0-19.16 7.6-19.16 19.06 0 86.09 59.76 162.72 140.01 183.21 10.11 2.58 19.99-5.19 19.99-15.63v-16.36c0-6.96-4.44-13.34-11.15-15.21-37.34-10.46-68.92-37.67-86.32-73.34 23.38 9.37 48.83 14.27 75.24 14.27H336v-16c0-53.02 42.98-96 96-96h51.33L528 102.28l.05 65.35c0 4.77-3.03 9.01-7.54 10.55l-31.02 10.59c-1.51.52-9.71 2.95-16.48-3.83L448.05 160h-32v80H416c0 26.09-12.68 49.03-32 63.64V464h-48V320l-139.82-31.07-28.73 80.02L191.53 464H150l-21.13-87.86a31.698 31.698 0 0 1 .37-16.18l22.7-76.72C128.54 273.72 112 250.83 112 224c0-14.97 5.17-28.67 13.8-39.51-8.95-14.24-15.65-29.79-20.68-46.07-7.93 6.43-15.28 13.54-21.13 21.98C37.36 162.55 0 200.84 0 248v56c0 8.84 7.16 16 16 16h16c8.84 0 16-7.16 16-16v-56c0-13.22 6.87-24.39 16.78-31.68-.18 2.59-.78 5.05-.78 7.68 0 30.13 11.91 58.09 32.16 78.58l-12.94 43.76a78.948 78.948 0 0 0-1.05 40.85l24.11 100.29c3.46 14.38 16.32 24.52 31.11 24.52h74.7c20.86 0 36.14-19.64 31.02-39.86l-25.53-100.76 9.48-26.41L288 358.5V480c0 17.67 14.33 32 32 32h80c17.67 0 32-14.33 32-32V324.35c19.96-22.47 31.31-51.04 31.97-81.55.05-.93.08-8.43.08-8.43 20.95 6.96 38.31.72 40.94-.17l31.02-10.59c23.96-8.18 40.01-30.7 39.99-56.02l-.05-65.34z"/></svg>