<svg xmlns="http://www.w3.org/2000/svg" viewBox="0 0 512 512"><!-- Font Awesome Pro 5.15.4 by @fontawesome - https://fontawesome.com License - https://fontawesome.com/license (Commercial License) --><path d="M493.87 95.6L416.4 18.13C404.32 6.04 388.48 0 372.64 0c-15.84 0-31.68 6.04-43.76 18.13l-92.45 92.45-99.83 28.21a64.003 64.003 0 0 0-43.31 41.35L0 460l52 52 279.86-93.29a64.003 64.003 0 0 0 41.35-43.31l28.21-99.83 92.45-92.45c24.17-24.17 24.17-63.35 0-87.52zM327.02 362.35c-1.44 5.1-5.31 9.15-10.34 10.83L83.83 450.79 187.42 347.2c6.26 2.99 13.18 4.8 20.58 4.8 26.51 0 48-21.49 48-48s-21.49-48-48-48-48 21.49-48 48c0 7.4 1.81 14.32 4.8 20.58L61.21 428.17l77.62-232.85c1.68-5.03 5.72-8.89 10.83-10.34l99.83-28.21 1.05-.3 105 105-.29 1.04-28.23 99.84zm132.91-213.17l-74.41 74.41-97.11-97.11 74.41-74.41c2.29-2.29 11.67-7.97 19.64 0l77.47 77.47c5.42 5.41 5.42 14.22 0 19.64z"/></svg>