<svg xmlns="http://www.w3.org/2000/svg" viewBox="0 0 512 512"><!-- Font Awesome Pro 5.15.4 by @fontawesome - https://fontawesome.com License - https://fontawesome.com/license (Commercial License) --><path d="M502.71 368.14L379.88 245.31l56.01-56.01 57.36-57.37c24.99-24.99 24.99-65.52-.01-90.51l-22.68-22.68C458.07 6.25 441.69 0 425.31 0s-32.76 6.25-45.25 18.74L322.69 76.1l-.01-.01-56.02 56.01L230.57 96 143.86 9.29C137.66 3.1 129.55 0 121.43 0S105.2 3.1 99 9.29L9.29 99.01c-12.38 12.39-12.39 32.47 0 44.86l100.18 100.17 22.62 22.62-113.02 113L.32 487.1c-2.3 13.24 8.01 24.9 20.86 24.9 1.23 0 2.47-.11 3.74-.33l107.44-18.84 112.95-112.96L368.14 502.7c6.19 6.19 14.31 9.29 22.43 9.29s16.24-3.1 22.43-9.29l89.71-89.7c12.39-12.39 12.39-32.47 0-44.86zM414 52.68c4.08-4.08 8.84-4.69 11.31-4.69 2.47 0 7.23.61 11.31 4.69l22.68 22.68c4.08 4.08 4.69 8.84 4.69 11.31s-.61 7.24-4.69 11.31l-51.69 51.69-45.31-45.31L414 52.68zM143.41 210.1l-88.66-88.66 66.69-66.69 38.95 38.94-22.03 22.03c-6.25 6.25-6.25 16.38 0 22.63l11.31 11.31c6.25 6.25 16.38 6.25 22.63 0l22.03-22.03 2.32 2.32 36.1 36.1-66.69 66.68-22.65-22.63zm-34.27 238.07l-54.97 9.64 9.59-54.94 264.62-264.56 45.31 45.31-264.55 264.55zm281.43 9.08L279.25 345.94l66.69-66.69 38.44 38.44-22.03 22.03c-6.25 6.25-6.25 16.38 0 22.63l11.31 11.31c6.25 6.25 16.38 6.25 22.63 0l22.03-22.03 38.94 38.94-66.69 66.68z"/></svg>