<svg xmlns="http://www.w3.org/2000/svg" viewBox="0 0 576 512"><!-- Font Awesome Pro 5.15.4 by @fontawesome - https://fontawesome.com License - https://fontawesome.com/license (Commercial License) --><path d="M542.3 183.5c-21.9 4.8-104.7 14.1-246.4-62.8-74.6-40.4-137.5-50.4-186.7-48C121.5 33.7 90.9 0 56 0 25.1 0 0 25.1 0 56c0 22.3 13.2 41.4 32 50.4V504c0 4.4 3.6 8 8 8h32c4.4 0 8-3.6 8-8v-75.6c80.8-54.3 156.4-55.7 165.8-56.2 28.2-1.4 74.5-5.9 135.1-19 4.4-1 109-24.5 188.9-124.7 16.1-20.2-1.5-50.3-27.5-45zM370.8 306.3c-57.5 12.4-101 16.6-127.4 18-69.6 3.5-125.6 26.3-163.4 47.9V124c44.1-8.6 109.6-6.3 193 38.9 101.4 54.9 177 69.8 225.9 71.5-61.8 56.6-127.4 71.7-128.1 71.9z"/></svg>