<svg xmlns="http://www.w3.org/2000/svg" viewBox="0 0 576 512"><!-- Font Awesome Pro 5.15.4 by @fontawesome - https://fontawesome.com License - https://fontawesome.com/license (Commercial License) --><path d="M512,165H416a66,66,0,0,0-43.35,15.93,44.91,44.91,0,0,1,21.59,10.33l21.29,18.83c.16,0,.3-.09.47-.09h96c8.82,0,16,6.73,16,15v90H496V435H432V345.48l-1.7,1.5-36.08,31.93a43.68,43.68,0,0,1-10.22,6.7V450c0,16.57,14.33,30,32,30h96c17.67,0,32-13.43,32-30V360c17.67,0,32-13.43,32-30V225C576,191.86,547.35,165,512,165Zm-48-15c44.22,0,80-33.54,80-75S508.22,0,464,0s-80,33.54-80,75S419.78,150,464,150Zm0-105c17.64,0,32,13.46,32,30s-14.36,30-32,30-32-13.46-32-30S446.36,45,464,45ZM145.7,347l-1.7-1.5V435H80V315H48V225c0-8.27,7.18-15,16-15h96c.17,0,.31.08.47.09l21.3-18.84a44.9,44.9,0,0,1,21.58-10.32A66,66,0,0,0,160,165H64c-35.35,0-64,26.86-64,60V330c0,16.57,14.33,30,32,30v90c0,16.57,14.33,30,32,30h96c17.67,0,32-13.43,32-30V385.62a44.33,44.33,0,0,1-10.24-6.73ZM112,150c44.22,0,80-33.54,80-75S156.22,0,112,0,32,33.54,32,75,67.78,150,112,150Zm0-105c17.64,0,32,13.46,32,30s-14.36,30-32,30S80,91.54,80,75,94.36,45,112,45ZM444.4,276.88l-72.12-63.81a12.67,12.67,0,0,0-13-2.15A11.28,11.28,0,0,0,352,221.26V255H224V221.26a11.28,11.28,0,0,0-7.26-10.34,12.67,12.67,0,0,0-13,2.15L131.6,276.88a11.12,11.12,0,0,0,0,16.38l72.12,63.81a12.67,12.67,0,0,0,13,2.16A11.28,11.28,0,0,0,224,348.88V315H352v33.88a11.28,11.28,0,0,0,7.26,10.35,12.67,12.67,0,0,0,13-2.16l72.12-63.81A11.12,11.12,0,0,0,444.4,276.88Z"/></svg>