<svg xmlns="http://www.w3.org/2000/svg" viewBox="0 0 640 512"><!-- Font Awesome Pro 5.15.4 by @fontawesome - https://fontawesome.com License - https://fontawesome.com/license (Commercial License) --><path d="M128 96c26.5 0 48-21.5 48-48S154.5 0 128 0 80 21.5 80 48s21.5 48 48 48zm384 0c26.5 0 48-21.5 48-48S538.5 0 512 0s-48 21.5-48 48 21.5 48 48 48zm88 154.6l-19-78.4c-4.2-17.3-16.7-32-33.5-39.3-16.9-7.4-35.7-6.5-51.4 2.3-25.6 14.4-40.3 47.6-46.8 66.2l-12.2 34.7c-.6 1.7-1.7 3.2-3.4 4.3L416 250.5V128c0-8.8-7.2-16-16-16H240c-8.8 0-16 7.2-16 16v122.5l-17.8-10.1c-1.6-1.1-2.8-2.6-3.4-4.3l-12.2-34.7c-6.5-18.6-21.2-51.8-46.8-66.2-15.7-8.8-34.5-9.7-51.4-2.3-16.7 7.3-29.2 22-33.5 39.3L40 250.7c-5.1 21.1 2 43.2 18.3 57.5l68.7 60c6.3 5.5 10.2 13.2 10.9 21.5l8 100.2c.8 9.1 8.9 23.3 25.8 22 13.2-1.1 23.1-12.6 22-25.8L185 376.9c-1.2-15.1-8.3-29.1-19.7-39.1l-52.2-45.6 24.8-92.1c2.7 5.3 19.6 51.8 19.6 51.8 3.9 11.2 11.2 20.7 23 28.9l36.9 19.4c4.6 2.4 9.7 3.7 14.9 3.7h175.5c5.2 0 10.3-1.3 14.9-3.7l36.9-19.4c11.8-8.2 19.1-17.7 23-28.9 0 0 16.9-46.6 19.6-51.8l24.8 92.1-52.2 45.6c-11.4 10-18.5 24-19.7 39.1L446.3 486c-1 13.2 8.8 24.8 22 25.8 16.9 1.3 25.1-12.7 25.8-22l8-100.2c.7-8.3 4.6-16.1 10.9-21.5l68.7-59.9c16.3-14.3 23.3-36.5 18.3-57.6zM368 256h-96v-96h96v96zm270.2 222.9l-53.7-130.8-38.2 33.4 47.4 115.6c5 12.2 18.9 18.1 31.3 13.1 12.4-5 18.2-19 13.2-31.3zm-636.4 0c-5 12.3.8 26.3 13.1 31.3 12.4 5 26.3-.9 31.3-13.1l47.4-115.6-38.2-33.4L1.8 478.9z"/></svg>