<svg xmlns="http://www.w3.org/2000/svg" viewBox="0 0 512 512"><!-- Font Awesome Pro 5.15.4 by @fontawesome - https://fontawesome.com License - https://fontawesome.com/license (Commercial License) --><path d="M456.54 143c38.38-63.64 21.46-115.6 2-140.1a7.94 7.94 0 0 0-11.81-.51l-23 23a7.91 7.91 0 0 0-1 10c7.3 10.9 18.86 38.19-5.06 79.78A166.42 166.42 0 0 0 340.34 96c-54.74 0-92.37 28.33-98.4 32.12a17.16 17.16 0 0 0 .12 29.13C222.23 182 211.15 213 200.84 242.22c-40.4 114.55-104.37 122.66-132.3 125.86A72 72 0 0 0 72 512c197.58-3 336.64-99 396.24-180.62l10.62 8a14.94 14.94 0 0 0 23.44-8.2c2.73-10.59 9.7-33.74 9.7-58.45A178.43 178.43 0 0 0 456.54 143zm-116.2 1c66.69 0 121.22 55.22 123.57 124l-39-29.31a32 32 0 0 0-22.77-6.23l-39 4.33 4.13-37.13a32 32 0 0 0-15-30.77l-36.15-22.29a114.26 114.26 0 0 1 24.22-2.6zM72 464a24 24 0 0 1 0-48c30.46-3.51 122.66-11.95 174.12-157.81 11.21-31.8 20.68-57.68 37.54-75.23l34.81 21.49-5.21 47a32 32 0 0 0 35.34 35.34l52.59-5.85 28.72 21.61C382.09 368.39 259.26 461.12 72 464z"/></svg>