<svg xmlns="http://www.w3.org/2000/svg" viewBox="0 0 320 512"><!-- Font Awesome Pro 5.15.4 by @fontawesome - https://fontawesome.com License - https://fontawesome.com/license (Commercial License) --><path d="M81.94 177.94c18.74-18.75 18.74-49.14 0-67.88-18.75-18.75-49.14-18.75-67.88 0-18.74 18.74-18.74 49.14 0 67.88 18.75 18.75 49.14 18.75 67.88 0zm156.12 156.12c-18.74 18.74-18.74 49.14 0 67.88 18.75 18.74 49.14 18.74 67.88 0 18.74-18.75 18.74-49.14 0-67.88-18.75-18.75-49.14-18.75-67.88 0zm77.25-210.75l-22.63-22.63c-6.25-6.25-16.38-6.25-22.63 0L4.69 366.06c-6.25 6.25-6.25 16.38 0 22.63l22.63 22.63c6.25 6.25 16.38 6.25 22.63 0l265.37-265.37c6.24-6.26 6.24-16.39-.01-22.64z"/></svg>