<svg xmlns="http://www.w3.org/2000/svg" viewBox="0 0 512 512"><!-- Font Awesome Pro 5.15.4 by @fontawesome - https://fontawesome.com License - https://fontawesome.com/license (Commercial License) --><path d="M32 48C32 21.5 53.5 0 80 0s48 21.5 48 48-21.5 48-48 48-48-21.5-48-48zM0 488c0 13.2 10.8 24 24 24s24-10.7 24-24v-95.9C36 382.6.5 354.3 0 353.9V488zm503.4-111.6l8.3 30.9c1.1 4.3-1.4 8.7-5.7 9.8l-155.2 41.6c-5.1 30.2-31.2 53.3-62.9 53.3-35.3 0-64-28.7-64-64 0-21.6 10.8-40.7 27.2-52.3L222.4 288h-74.6c-12.9 0-24.6-7.8-29.6-19.8L96 214.7v113.4l38.1 30.1c10 7.9 17 19 19.9 31.4l21.4 93c3 12.9-5.1 25.8-18 28.8-14.4 3.2-26.1-6.5-28.8-18L109 408.6c-1.6-7.1-5.6-13.4-11.3-17.9l-76.4-60.4C3 315.8 0 294 0 286.3V184c0-30.9 25.1-56 56-56h18.7c22.6 0 43 13.6 51.7 34.5l32.1 77.5h51.1L193 178.4c-1.1-4.3 1.4-8.7 5.7-9.8l30.9-8.3c4.3-1.1 8.7 1.4 9.8 5.7l58.7 219c17.7 2.8 33.1 12.7 42.8 27l152.8-41.2c4.2-1.2 8.6 1.4 9.7 5.6zM304 448c0-8.8-7.2-16-16-16s-16 7.2-16 16 7.2 16 16 16 16-7.2 16-16z"/></svg>