<svg xmlns="http://www.w3.org/2000/svg" viewBox="0 0 576 512"><!-- Font Awesome Pro 5.15.4 by @fontawesome - https://fontawesome.com License - https://fontawesome.com/license (Commercial License) --><path d="M192 496c0 8.8 7.2 16 16 16h16c8.8 0 16-7.2 16-16V320h-48v176zM63.6 128c26.5 0 48-21.5 48-48s-21.5-48-48-48-48 21.5-48 48 21.5 48 48 48zm160.6 104h-54.3l-47.6-47.6C111.8 173.8 97.7 168 82.8 168H56.1c-31 0-56.1 25.1-56 56.1L.2 320 0 488c0 13.2 10.7 24 24 24 13.2 0 24-10.7 24-24l.2-117.9c.2.2.5.3.8.5.2.2.3.4.5.5l51.4 38.4c2 1.5 3.2 3.9 3.2 6.4v72c0 13.2 10.8 24 24 24s24-10.8 24-24v-72c0-17.6-8.4-34.4-22.5-44.8l-17.9-13.4V241.5l26.7 26.8c7.4 7.5 17.8 11.7 28.3 11.7h57.6c13.2 0 24-10.8 24-24s-10.8-24-24.1-24zM544 0H224c-17.7 0-32 14.3-32 32v160h48V48.1l84.7 204.7C301.8 285.1 264 342.7 264 372c0 41.9 34.1 76 76 76 14.3 0 28.1-4.1 40-11.5 23.8 15 56.2 15 80 0 11.9 7.5 25.7 11.5 40 11.5 9.9 0 19.3-2 28-5.5V496c0 8.8 7.2 16 16 16h16c8.8 0 16-7.2 16-16V32c0-17.7-14.3-32-32-32zm-16 372c0 15.4-12.6 28-28 28-8.2 0-16-3.8-21.5-10.4-4.6-5.5-11.3-8.8-18.5-8.8s-14 3.2-18.5 8.8c-10.9 13.2-32.1 13.2-42.9 0-9.1-11.1-27.9-11.1-37.1 0-5.5 6.6-13.3 10.4-21.5 10.4-15.4 0-28-12.6-28-27.8.8-12.2 28.5-59.9 59.3-102 5-6.8 6-15.6 2.8-23.4L291.9 48H528v324z"/></svg>