<svg xmlns="http://www.w3.org/2000/svg" viewBox="0 0 512 512"><!-- Font Awesome Pro 5.15.4 by @fontawesome - https://fontawesome.com License - https://fontawesome.com/license (Commercial License) --><path d="M80 96c26.5 0 48-21.5 48-48S106.5 0 80 0 32 21.5 32 48s21.5 48 48 48zm423.4 280.4c-1.1-4.3-5.5-6.8-9.8-5.7l-20.3 5.4L432 222c-2.1-7.8-10.3-13.8-19.6-11.3L262.1 251l-22.8-85.1c-1.1-4.3-5.5-6.8-9.8-5.7l-30.9 8.3c-4.3 1.1-6.8 5.5-5.7 9.8l16.5 61.6h-51.1l-32.1-77.5c-8.7-20.9-29-34.5-51.7-34.5H56c-30.9 0-56 25.1-56 56v102.3c0 7.7 3 29.5 21.3 44l76.4 60.4c5.7 4.5 9.7 10.8 11.3 17.9l19.6 84.8c2.6 11.5 14.4 21.2 28.8 18 12.9-3 21-15.9 18-28.8l-21.4-93c-2.9-12.4-9.9-23.5-19.9-31.4l-38.1-30V214.7l22.2 53.5c5 12 16.6 19.8 29.6 19.8h74.6l28.9 107.7C234.8 407.3 224 426.4 224 448c0 35.3 28.7 64 64 64 31.7 0 57.8-23.1 62.9-53.3l155.2-41.6c4.3-1.1 6.8-5.5 5.7-9.8l-8.4-30.9zM288 464c-8.8 0-16-7.2-16-16s7.2-16 16-16 16 7.2 16 16-7.2 16-16 16zm52.9-52c-9.7-14.2-25.1-24.1-42.8-27l-23.5-87.8L394 265.5l33 123.2-86.1 23.3zM0 488c0 13.2 10.8 24 24 24s24-10.7 24-24v-95.9C36 382.6.5 354.3 0 353.9V488z"/></svg>