<svg xmlns="http://www.w3.org/2000/svg" viewBox="0 0 512 512"><!-- Font Awesome Pro 5.15.4 by @fontawesome - https://fontawesome.com License - https://fontawesome.com/license (Commercial License) --><path d="M501.5 66.7l-67.6-24.6 5.5-15c3-8.3-1.3-17.5-9.6-20.5l-15-5.5c-8.3-3-17.5 1.3-20.5 9.6l-5.5 15-67.7-24.6C310-3 302.5 5.6 300.6 10.6l-43.8 120.3c-3 8.3 1.3 17.5 9.6 20.5L334 176l-15.8 43.5s-49.9-17.1-49.5-16.5l-50.5-58.6C207.8 134 193.4 128 178.6 128h-62.9c-21.4 0-40.5 11.9-50.1 30.9L2.5 285.3c-5.9 11.9-1.1 26.3 10.7 32.2 14.1 7 27.4-1.3 32.2-10.7L96 205.7v96.7L72.2 484.9c-1.7 13.2 7.6 25.2 20.7 26.9 1 .1 2.1.2 3.1.2 11.9 0 22.2-8.8 23.8-20.9L141 328h14l51.2 78.2c1.1 1.4 1.7 3.2 1.7 5V488c0 13.2 10.7 24 24 24 13.2 0 24-10.7 24-24v-76.8c0-12.7-4.3-25.1-10.9-33.1l-53.1-81.2V187.3l41.6 48.3c6.1 6.1 13.6 10.8 21.9 13.6l46.3 15.4-13.9 38.3c-3 8.3 1.3 17.5 9.6 20.5l15 5.5c8.3 3 17.5-1.3 20.5-9.6l46.2-126.9 67.6 24.6c11.3 4.1 18.7-4.7 20.5-9.6L511 87.2c3.1-8.3-1.2-17.5-9.5-20.5zM433.1 161l-120.2-43.8 21.9-60.1L455 100.9 433.1 161zM144 96.1c26.5 0 48-21.5 48-48s-21.5-48-48-48-48 21.5-48 48 21.5 48 48 48z"/></svg>