<svg xmlns="http://www.w3.org/2000/svg" viewBox="0 0 384 512"><!-- Font Awesome Pro 5.15.4 by @fontawesome - https://fontawesome.com License - https://fontawesome.com/license (Commercial License) --><path d="M80 96c26.5 0 48-21.5 48-48S106.5 0 80 0 32 21.5 32 48s21.5 48 48 48zm288 0H208c-8.8 0-16 7.2-16 16v128h-33.6l-32.1-77.5c-8.7-20.9-29-34.5-51.7-34.5H56c-30.9 0-56 25.1-56 56v102.3c0 7.7 3 29.5 21.3 44l76.4 60.4c5.7 4.5 9.7 10.8 11.3 17.9l19.6 84.8c2.6 11.5 14.4 21.2 28.8 18 12.9-3 21-15.9 18-28.8l-21.4-93c-2.9-12.4-9.9-23.5-19.9-31.4L96 328.1V214.7l22.2 53.5c5 12 16.6 19.8 29.6 19.8H368c8.8 0 16-7.2 16-16V112c0-8.8-7.2-16-16-16zm-32 144h-96v-96h96v96zM0 488c0 13.2 10.8 24 24 24s24-10.7 24-24v-95.9C36 382.6.5 354.3 0 353.9V488z"/></svg>