<svg xmlns="http://www.w3.org/2000/svg" viewBox="0 0 448 512"><!-- Font Awesome Pro 5.15.4 by @fontawesome - https://fontawesome.com License - https://fontawesome.com/license (Commercial License) --><path d="M226.615 412.576l-28.086-70.218c-7.914-19.785-27.631-31.304-48.207-29.247l-21.97 2.197c-6.25-27.912-6.442-57.872-.002-86.618l21.97 2.197c20.541 2.055 40.282-9.433 48.208-29.246l28.087-70.218c8.438-21.094.579-45.143-18.686-57.184l-56.175-35.107c-18.097-11.311-42.199-9.21-58.016 6.606-124.622 124.622-125.347 327.175 0 452.523 15.816 15.814 39.913 17.922 58.017 6.606l56.174-35.107c19.265-12.041 27.124-36.091 18.686-57.184zm-99.556 51.125C21.661 357.639 21.517 186.505 127.06 80.297l54.646 34.156-27.437 68.589-59.946-5.993c-25.22 69.795-25.241 120.05 0 189.901l59.947-5.995 27.436 68.591-54.647 34.155zm155.728-362.488l-11.476 11.476c-4.117 4.117-4.671 10.584-1.341 15.36A55.7 55.7 0 0 1 280 160a55.688 55.688 0 0 1-10.031 31.95c-3.329 4.776-2.775 11.244 1.341 15.36l11.476 11.476c5.191 5.191 13.751 4.52 18.149-1.359C312.913 201.414 320 181.535 320 160s-7.087-41.414-19.064-57.428c-4.398-5.88-12.958-6.55-18.149-1.359zm90.875-90.875l-11.323 11.323c-4.461 4.461-4.746 11.651-.559 16.37C391.666 71.708 408 114.595 408 160s-16.334 88.292-46.22 121.969c-4.188 4.719-3.902 11.909.559 16.37l11.323 11.323c4.871 4.871 12.843 4.658 17.434-.479C426.488 269.575 448 217.302 448 160S426.488 50.425 391.096 10.817c-4.591-5.137-12.563-5.35-17.434-.479zm-45.355 45.355l-11.355 11.355c-4.406 4.406-4.679 11.429-.685 16.213C334.227 104.771 344 131.638 344 160s-9.773 55.229-27.733 76.74c-3.994 4.783-3.721 11.807.685 16.213l11.355 11.355c4.935 4.935 13.059 4.665 17.582-.65C369.655 235.731 384 199.54 384 160s-14.345-75.731-38.111-103.657c-4.523-5.315-12.647-5.584-17.582-.65z"/></svg>