<svg xmlns="http://www.w3.org/2000/svg" viewBox="0 0 512 512"><!-- Font Awesome Pro 5.15.4 by @fontawesome - https://fontawesome.com License - https://fontawesome.com/license (Commercial License) --><path d="M476.5 22.9L382.3 1.2C378.8.4 375.4 0 372 0c-18 0-34.7 10.6-42 27.7l-43.5 101.5c-8 18.6-2.6 40.6 13.1 53.4l40 32.7C311 267.8 267.8 311 215.4 339.5l-32.7-40c-8.9-10.8-22.1-16.7-35.5-16.7-6 0-12.1 1.2-17.9 3.7L27.7 329.9c-20.4 8.7-31.5 30.7-26.6 52.3l21.7 94.2c4.8 20.9 23.2 35.5 44.6 35.5C312.3 512 512 313.7 512 67.5c0-21.4-14.6-39.8-35.5-44.6zM69.3 464l-20.9-90.7 98.2-42.1 55.7 68.1c98.8-46.4 150.6-98 197-197l-68.1-55.7 42.1-98.2L464 69.3C463 286.9 286.9 463 69.3 464zM88 208c0 8.8 7.2 16 16 16h16c8.8 0 16-7.2 16-16v-72h72c8.8 0 16-7.2 16-16v-16c0-8.8-7.2-16-16-16h-72V16c0-8.8-7.2-16-16-16h-16c-8.8 0-16 7.2-16 16v72H16c-8.8 0-16 7.2-16 16v16c0 8.8 7.2 16 16 16h72v72z"/></svg>