<svg xmlns="http://www.w3.org/2000/svg" viewBox="0 0 448 512"><!-- Font Awesome Pro 5.15.4 by @fontawesome - https://fontawesome.com License - https://fontawesome.com/license (Commercial License) --><path d="M344.73 309l-56-24a14.46 14.46 0 0 0-4.73-1 13.61 13.61 0 0 0-9.29 4.4l-24.8 30.31a185.51 185.51 0 0 1-88.62-88.62l30.31-24.8A13.61 13.61 0 0 0 196 196a14.2 14.2 0 0 0-1-4.73l-24-56a13 13 0 0 0-11-7.27 14.51 14.51 0 0 0-2.7.31l-52 12A12.57 12.57 0 0 0 96 152c0 128.23 104 232 232 232a12.57 12.57 0 0 0 11.69-9.3l12-52a14.51 14.51 0 0 0 .31-2.7 13 13 0 0 0-7.27-11zM400 32H48A48 48 0 0 0 0 80v352a48 48 0 0 0 48 48h352a48 48 0 0 0 48-48V80a48 48 0 0 0-48-48zm0 394a6 6 0 0 1-6 6H54a6 6 0 0 1-6-6V86a6 6 0 0 1 6-6h340a6 6 0 0 1 6 6z"/></svg>