<svg xmlns="http://www.w3.org/2000/svg" viewBox="0 0 576 512"><!-- Font Awesome Pro 5.15.4 by @fontawesome - https://fontawesome.com License - https://fontawesome.com/license (Commercial License) --><path d="M368 336h-32c-8.84 0-16 7.16-16 16v32c0 8.84 7.16 16 16 16h32c8.84 0 16-7.16 16-16v-32c0-8.84-7.16-16-16-16zm-48-80v32c0 8.84 7.16 16 16 16h32c8.84 0 16-7.16 16-16v-32c0-8.84-7.16-16-16-16h-32c-8.84 0-16 7.16-16 16zm112 144h32c8.84 0 16-7.16 16-16v-32c0-8.84-7.16-16-16-16h-32c-8.84 0-16 7.16-16 16v32c0 8.84 7.16 16 16 16zm0-96h32c8.84 0 16-7.16 16-16v-32c0-8.84-7.16-16-16-16h-32c-8.84 0-16 7.16-16 16v32c0 8.84 7.16 16 16 16zm80-272H269.06C262.45 13.4 244.87 0 224 0h-80c-20.87 0-38.45 13.4-45.06 32H64C28.65 32 0 60.65 0 96v352c0 35.35 28.65 64 64 64h448c35.35 0 64-28.65 64-64V96c0-35.35-28.65-64-64-64zM144 48h80v320h-80V48zm384 400c0 8.82-7.18 16-16 16H64c-8.82 0-16-7.18-16-16V96c0-8.82 7.18-16 16-16h32v288c0 26.51 21.49 48 48 48h80c26.51 0 48-21.49 48-48V80h48v72c0 22.06 17.94 40 40 40h168v256zm0-304H368V80h144c8.82 0 16 7.18 16 16v48z"/></svg>