<svg xmlns="http://www.w3.org/2000/svg" viewBox="0 0 640 512"><!-- Font Awesome Pro 5.15.4 by @fontawesome - https://fontawesome.com License - https://fontawesome.com/license (Commercial License) --><path d="M634 471L36 3.5C29.1-2 19-.9 13.5 6l-10 12.5C-2 25.4-.9 35.5 6 41l598 467.5c6.9 5.5 17 4.4 22.5-2.5l10-12.5c5.5-6.9 4.4-17-2.5-22.5zM403.5 215.4c-1.8 3.4-4.2 6.4-6.2 9.7l37.8 29.5c9.8-16 19.2-33 28.2-52.3l-68.1-55.7 42.1-98.2L528 69.3c-.3 77.2-23.1 149-61.6 209.8l38 29.7c45-69.5 71.5-152.2 71.5-241.3 0-21.4-14.6-39.8-35.5-44.6L446.3 1.2c-21.6-5-43.6 6.2-52.3 26.6l-43.5 101.5c-8 18.6-2.6 40.6 13.1 53.4l39.9 32.7zM133.3 464l-20.9-90.7 98.2-42.1 55.7 68.1c26.5-12.4 49.4-25.3 69.9-39.3l-40-31.3c-5.6 3.6-10.9 7.6-16.8 10.8l-32.7-40c-12.8-15.7-34.8-21.1-53.4-13.1L91.7 329.9c-20.4 8.7-31.5 30.7-26.6 52.3l21.7 94.2c4.8 20.9 23.2 35.5 44.6 35.5 104.2 0 199.9-36.1 275.9-96.3L368.2 385c-65.6 49.1-146.7 78.6-234.9 79z"/></svg>