<svg xmlns="http://www.w3.org/2000/svg" viewBox="0 0 448 512"><!-- Font Awesome Pro 5.15.4 by @fontawesome - https://fontawesome.com License - https://fontawesome.com/license (Commercial License) --><path d="M436 96H49.96c-8.49 0-16.63 3.37-22.63 9.37L2.36 130.34C-2.68 135.38.89 144 8.02 144H144v137.79c0 48.12-17.34 93.57-49.1 129.21-4.26 4.78-4.31 11.89.21 16.42l16.99 16.99c4.83 4.83 12.94 4.82 17.52-.25C169.95 399.53 192 342.35 192 281.79V144h96v235.9c0 28.48 16.96 55.51 43.97 64.53 29.62 9.89 60.23-1.42 76.37-25.68l23.63-35.45c3.68-5.52 2.19-12.96-3.33-16.64l-19.97-13.31c-5.52-3.68-12.97-2.19-16.64 3.33l-23.62 35.46a17.644 17.644 0 0 1-14.72 7.86c-9.75 0-17.69-7.94-17.69-17.69V144h100c6.63 0 12-5.37 12-12v-24c0-6.63-5.37-12-12-12z"/></svg>