<svg xmlns="http://www.w3.org/2000/svg" viewBox="0 0 512 512"><!-- Font Awesome Pro 5.15.4 by @fontawesome - https://fontawesome.com License - https://fontawesome.com/license (Commercial License) --><path d="M476.62,270.31l-57.24-28.62A64,64,0,0,1,384,184.44C384,82.58,301.42,0,199.55,0h-15.1C82.58,0,0,82.58,0,184.44V480a32,32,0,0,0,32,32H480a32,32,0,0,0,32-32V327.55A64,64,0,0,0,476.62,270.31ZM464,464H48V384H80v40a8,8,0,0,0,8,8h16a8,8,0,0,0,8-8V384h32v40a8,8,0,0,0,8,8h16a8,8,0,0,0,8-8V384h32v40a8,8,0,0,0,8,8h16a8,8,0,0,0,8-8V384h96v40a8,8,0,0,0,8,8h16a8,8,0,0,0,8-8V384h32v40a8,8,0,0,0,8,8h16a8,8,0,0,0,8-8V384h32Zm0-128H48V184.44C48,109.21,109.21,48,184.45,48h15.1C274.79,48,336,109.21,336,184.44a111.38,111.38,0,0,0,61.91,100.18l57.24,28.62A15.9,15.9,0,0,1,464,327.55Z"/></svg>