<svg xmlns="http://www.w3.org/2000/svg" viewBox="0 0 576 512"><!-- Font Awesome Pro 5.15.4 by @fontawesome - https://fontawesome.com License - https://fontawesome.com/license (Commercial License) --><path d="M560 224h-29.5c-11.1-25.3-28.7-46.9-50.5-63.4V96h-16c-30.3 0-57.8 10.1-81 26.2.4-3.4 1-6.7 1-10.2C384 50.1 333.9 0 272 0S160 50.1 160 112c0 9.7 1.5 19 3.8 27.9C114.9 159.8 78 203.1 67.2 256H56c-14.8 0-26.5-13.5-23.5-28.8C34.7 215.8 45.4 208 57 208h1c3.3 0 6-2.7 6-6v-20c0-3.3-2.7-6-6-6-28.5 0-53.9 20.4-57.5 48.6C-3.9 258.8 22.7 288 56 288h8c0 52.2 25.4 98.1 64 127.3V496c0 8.8 7.2 16 16 16h112c8.8 0 16-7.2 16-16v-48h64v48c0 8.8 7.2 16 16 16h112c8.8 0 16-7.2 16-16v-80.9c11.7-9 22.4-19.3 31.3-31.1H560c8.8 0 16-7.2 16-16V240c0-8.8-7.2-16-16-16zM272 48c35.3 0 64 28.7 64 64 0 5.6-.9 10.9-2.3 16H224c-4.5 0-8.8 1-13.3 1.3-1.6-5.5-2.7-11.3-2.7-17.3 0-35.3 28.7-64 64-64zm256 288h-40.6c-23.5 31.1-19.4 27.9-55.4 55.4V464h-48v-64H224v64h-48v-72.6c-14.6-11-64-39.8-64-103.4 0-61.8 50.2-112 112-112h167.4c9.5-7.6 22.2-19.3 40.6-26.2v34.7c45.4 34.4 44.2 35.2 67.1 87.5H528v64zm-96-80c-8.8 0-16 7.2-16 16s7.2 16 16 16 16-7.2 16-16-7.2-16-16-16z"/></svg>