<svg xmlns="http://www.w3.org/2000/svg" viewBox="0 0 576 512"><!-- Font Awesome Pro 5.15.4 by @fontawesome - https://fontawesome.com License - https://fontawesome.com/license (Commercial License) --><path d="M523.2 100.13a15.43 15.43 0 0 0-12.36-6 16.42 16.42 0 0 0-11.61 4.78L342.17 256l157.06 157.06a16.42 16.42 0 0 0 11.61 4.78 15.4 15.4 0 0 0 12.36-6 256.47 256.47 0 0 0 0-311.71zm-67.32 201.7L410.05 256l45.66-45.66c4.91 14.44 8.29 29.58 8.29 45.66a137.62 137.62 0 0 1-8.12 45.83zm49.23 49.23l-24.27-24.27a172.11 172.11 0 0 0-.1-141.48l24.37-24.37a208.65 208.65 0 0 1 0 190.12zM256.45 256L425.6 86.85c6.46-6.46 6.45-17.36-.42-23.39A255.13 255.13 0 0 0 256.46 0C175.37 0 94.29 38.28 42.65 114.84c-56.87 84.3-56.87 198 0 282.34C94.3 473.72 175.38 512 256.45 512a255.14 255.14 0 0 0 168.73-63.46c6.87-6 6.88-16.93.42-23.39zm-67.88 0L318 385.38A140.58 140.58 0 0 1 256 400c-79.4 0-144-64.6-144-144s64.6-144 144-144a140.71 140.71 0 0 1 62 14.62zm67.88 208c-70.42 0-133.84-34.14-174-93.67-46.14-68.38-46.14-160.26 0-228.64C122.6 82.15 186 48 256.46 48a207.9 207.9 0 0 1 109.19 30.92l-23.8 23.8A174.09 174.09 0 0 0 256 80a176 176 0 0 0 0 352 174.09 174.09 0 0 0 85.85-22.72l23.8 23.8A207.91 207.91 0 0 1 256.45 464zM216 144a24 24 0 1 0 24 24 24 24 0 0 0-24-24zm-40 184a24 24 0 1 0 24-24 24 24 0 0 0-24 24z"/></svg>