<svg xmlns="http://www.w3.org/2000/svg" viewBox="0 0 576 512"><!-- Font Awesome Pro 5.15.4 by @fontawesome - https://fontawesome.com License - https://fontawesome.com/license (Commercial License) --><path d="M558.57 339.99L448 292.58v-18.46c0-11.24-5.9-21.65-15.53-27.44L384 217.6V102.63c0-8.49-3.37-16.63-9.38-22.63L299.31 4.69C296.19 1.56 292.09 0 288 0s-8.19 1.56-11.31 4.69L201.37 80c-6 6-9.37 14.14-9.37 22.62V217.6l-48.46 29.08A32.002 32.002 0 0 0 128 274.13v18.46l-110.57 47.4C6.96 344.99 0 357.89 0 372.32v122.45C0 504.28 5.97 512 13.33 512H32c8.84 0 16-7.16 16-16V379.11l80-34.3V496c0 8.84 7.16 16 16 16h16c8.84 0 16-7.16 16-16V283.18l64-38.4V109.26l48-48 48 48v135.52l64 38.4V496c0 8.84 7.16 16 16 16h16c8.84 0 16-7.16 16-16V344.81l80 34.3V496c0 8.84 7.16 16 16 16h18.67c7.37 0 13.33-7.71 13.33-17.23V372.32c0-14.43-6.96-27.33-17.43-32.33zM281.71 320.3c-33.27 3.17-57.71 33.02-57.71 66.45V496c0 8.84 7.16 16 16 16h96c8.84 0 16-7.16 16-16V384c0-37.42-32.12-67.34-70.29-63.7z"/></svg>