<svg xmlns="http://www.w3.org/2000/svg" viewBox="0 0 640 512"><!-- Font Awesome Pro 5.15.4 by @fontawesome - https://fontawesome.com License - https://fontawesome.com/license (Commercial License) --><path d="M624 464H16c-8.84 0-16 7.16-16 16v16c0 8.84 7.16 16 16 16h608c8.84 0 16-7.16 16-16v-16c0-8.84-7.16-16-16-16zM74.64 367.77A48.002 48.002 0 0 0 110.62 384h.21l124.25-.54c12.03-.02 24.23-3.07 35.13-8.82L550.46 226.7c30.06-15.87 54.47-38.04 70.58-64.11 19.42-31.42 23.95-58.48 13.46-80.44-10.38-21.78-33.53-34.06-68.79-36.44-3.23-.22-6.46-.32-9.68-.32-26.8 0-54.1 7.23-81.12 21.5l-88.68 46.82-.36.19-.39-.15-201-78.46a47.99 47.99 0 0 0-39.86 2.26L108.7 56.52a48.002 48.002 0 0 0-3.84 82.64l103.92 67.88.29.19-.35.18-66.79 35.26-.42.22-.42-.22-54.64-28.65a47.96 47.96 0 0 0-22.29-5.49c-7.7 0-15.4 1.85-22.41 5.55l-16.16 8.53A47.987 47.987 0 0 0 .78 256.42a47.981 47.981 0 0 0 11.23 40.4l62.63 70.95zM64.16 256.52l77.43 40.6 161.98-85.51L131.11 98.97 167.03 80l221.83 86.59 108.46-57.25c20.05-10.59 39.81-15.95 58.72-15.95 2.14 0 4.29.07 6.44.21 15.03 1.02 26.56 4.71 28.71 9.24 2.08 4.36.46 16.01-10.98 34.51-11.62 18.8-29.66 35.02-52.16 46.9L247.81 332.19c-4.04 2.13-8.52 3.26-12.94 3.27l-124.25.54L48 265.05l16.16-8.53z"/></svg>