<svg xmlns="http://www.w3.org/2000/svg" viewBox="0 0 576 512"><!-- Font Awesome Pro 5.15.4 by @fontawesome - https://fontawesome.com License - https://fontawesome.com/license (Commercial License) --><path d="M457.75 176.563H356.417L329.66 128H340c6.627 0 12-5.373 12-12V76c0-6.627-5.373-12-12-12h-45.602l-25.569-46.406-.581-.998C261.947 6.359 250.566 0 238.547 0h-52.369c-22.472 0-38.951 20.866-34.015 42.578l25.086 135.738a624.765 624.765 0 0 0-37.477 3.772l-27.581-42.387c-6.326-10.162-17.62-16.451-29.61-16.451H44.004c-22.029 0-38.509 20.155-34.198 41.714l11.961 59.805C7.821 234.229 0 244.818 0 256.001s7.821 21.772 21.766 31.231l-11.96 59.803c-4.319 21.601 12.212 41.718 34.199 41.714l38.582-.001c11.988-.003 23.278-6.292 29.604-16.45l27.58-42.386a624.11 624.11 0 0 0 37.477 3.772L152.163 469.42c-4.941 21.739 11.568 42.58 34.015 42.58h52.369c12.021 0 23.401-6.36 29.702-16.598l.302-.491L294.397 448H340c6.627 0 12-5.373 12-12v-40c0-6.627-5.373-12-12-12h-10.341l26.758-48.565 101.333.001C510.814 335.436 576 306.854 576 256c0-50.872-65.216-79.437-118.25-79.437zm0 110.873l-129.69-.001L230.778 464h-28.801l32.542-176.087c-53.455-1.594-62.567-1.471-118.194-9.978l-40.872 62.812-15.439.001L76.964 256l-16.95-84.751h15.44l40.872 62.814c55.671-8.515 64.832-8.386 118.194-9.979L201.979 48h28.8l97.281 176.563h129.69C496.424 224.563 528 240 528 256s-31.58 31.436-70.25 31.436z"/></svg>