<svg xmlns="http://www.w3.org/2000/svg" viewBox="0 0 640 512"><!-- Font Awesome Pro 5.15.4 by @fontawesome - https://fontawesome.com License - https://fontawesome.com/license (Commercial License) --><path d="M271.57,464H234.44L277.3,314l-33.25-26H168l-36,48H90.69L114,256,90.69,176,41.38,129.56a15.89,15.89,0,0,0-8.89,18.32L64,256,32.49,364.13A16,16,0,0,0,48,384H148a16,16,0,0,0,12.8-6.4L192,336h29.08L176.63,491.59A16,16,0,0,0,192,512h98.13A16,16,0,0,0,304,503.94L370.8,387.1l-38.21-29.88ZM188.45,61.77,252.73,112,234.44,48h37.13l81.34,142.33L396,224h92c26,0,62.88,19.74,71.1,32-8.22,12.27-45.06,32-71.1,32H477.83l51.5,40.26C568.11,315.5,608,288.06,608,256c0-44.18-75.81-80-120-80H400L304,8.07C301.49,3.62,295.27,0,290.14,0H192A16,16,0,0,0,176.63,20.4ZM634,471,36,3.52A16,16,0,0,0,13.51,6l-10,12.49A16,16,0,0,0,6,41L604,508.48A16,16,0,0,0,626.48,506l10-12.49A16,16,0,0,0,634,471Z"/></svg>