<svg xmlns="http://www.w3.org/2000/svg" viewBox="0 0 512 512"><!-- Font Awesome Pro 5.15.4 by @fontawesome - https://fontawesome.com License - https://fontawesome.com/license (Commercial License) --><path d="M502.93136,9.03939c-23.47-23.46814-88.251.13477-167.07181,54.86839A207.27823,207.27823,0,0,0,255.986,47.96155c-114.88922,0-208.02332,93.1362-208.02332,208.02366a207.28775,207.28775,0,0,0,15.94425,79.87567C9.17336,414.68181-14.42952,479.46288,9.04054,502.931c23.49155,23.49158,88.31157-.01172,167.2144-54.81369a207.3182,207.3182,0,0,0,79.731,15.89153c114.88727,0,208.02137-93.13425,208.02137-208.02365A207.30937,207.30937,0,0,0,448.11581,176.256C502.91769,97.3511,526.42291,32.531,502.93136,9.03939ZM63.96353,448.00794c-7.96334-7.96334,2.46107-32.88469,25.7612-67.375A208.80918,208.80918,0,0,0,131.397,422.28967C96.83645,445.64257,71.94053,455.983,63.96353,448.00794ZM172.57505,391.8973c-45.76036-28.19107-76.60779-78.33262-76.60779-135.91209,0-88.23358,71.7833-160.017,160.01869-160.017,57.57939,0,107.7189,30.84552,135.90993,76.60791-27.48787,34.72074-63.109,74.61366-103.90814,115.41288C247.18663,328.79017,207.29574,364.4094,172.57505,391.8973Zm83.4109,24.10686a160.07735,160.07735,0,0,1-32.30258-3.28535,1197.437,1197.437,0,0,0,99.65009-89.386,1196.72461,1196.72461,0,0,0,89.38389-99.6483,160.0442,160.0442,0,0,1,3.28534,32.30069C416.00269,344.22074,344.21939,416.00416,255.986,416.00416ZM380.63353,89.72566c34.4902-23.29821,59.40956-33.72459,67.3729-25.76124,7.975,7.97507-2.36342,32.86907-25.71823,67.4316A208.84145,208.84145,0,0,0,380.63353,89.72566Z"/></svg>