<svg xmlns="http://www.w3.org/2000/svg" viewBox="0 0 576 512"><!-- Font Awesome Pro 5.15.4 by @fontawesome - https://fontawesome.com License - https://fontawesome.com/license (Commercial License) --><path d="M512,0a64,64,0,1,0,64,64A63.99942,63.99942,0,0,0,512,0ZM224,64C100.28711,64,0,164.28516,0,288,0,411.71289,100.28711,512,224,512S448,411.71289,448,288C448,164.28516,347.71289,64,224,64Zm0,400c-97.04688,0-176-78.95312-176-176a174.63792,174.63792,0,0,1,17.93555-76.90625,28.23035,28.23035,0,0,0,23.78515,12.9043L114.74609,224a32.00483,32.00483,0,0,1,22.627,9.37109L192,288v32a32.00033,32.00033,0,0,0,32,32c-.00586,0-.00391,39.58984-.00195,63.06836a16.03421,16.03421,0,0,0,17.60742,15.98437q5.25587-.5625,10.41992-1.43359A28.68332,28.68332,0,0,0,272.918,414.166l40.32422-80.64844A64.02377,64.02377,0,0,0,320,304.89062V288a31.99908,31.99908,0,0,0-32-32H223.45312a37.31367,37.31367,0,0,1-26.38085-10.92773,32.00106,32.00106,0,0,1-1.55079-43.58985L245.25,144.125c5.82031-8.73047,8.77539-18.832,9.81836-29.209C337.32422,129.65039,400,201.57031,400,288,400,385.04688,321.04688,464,224,464Z"/></svg>