<svg xmlns="http://www.w3.org/2000/svg" viewBox="0 0 448 512"><!-- Font Awesome Pro 5.15.4 by @fontawesome - https://fontawesome.com License - https://fontawesome.com/license (Commercial License) --><path d="M186 338.3l-6.2 36.4c-1.1 6.6 5.8 11.5 11.6 8.4l32.6-17.2 32.6 17.2c5.8 3 12.7-1.8 11.6-8.4l-6.2-36.4 26.4-25.7c4.7-4.6 2.1-12.7-4.4-13.6l-36.5-5.3-16.3-33.1c-2.9-5.9-11.4-6-14.3 0l-16.3 33.1-36.5 5.3c-6.5.9-9.2 9-4.4 13.6l26.3 25.7zM432 160H112c0-33.8 21.2-62.7 52-74.3 8.9 24.6 32.3 42.3 60 42.3h32c35.3 0 64-28.7 64-64S291.3 0 256 0h-32c-24.6 0-45.8 14.1-56.5 34.5C108.6 45.9 64 97.8 64 160H16c-8.8 0-16 7.2-16 16v16c0 8.8 7.2 16 16 16h51l23.7 256H48c-8.8 0-16 7.2-16 16v16c0 8.8 7.2 16 16 16h352c8.8 0 16-7.2 16-16v-16c0-8.8-7.2-16-16-16h-42.7L381 208h51c8.8 0 16-7.2 16-16v-16c0-8.8-7.2-16-16-16zM224 48h32c8.8 0 16 7.2 16 16s-7.2 16-16 16h-32c-8.8 0-16-7.2-16-16s7.2-16 16-16zm85 416H139l-23.7-256h217.5L309 464z"/></svg>