<svg xmlns="http://www.w3.org/2000/svg" viewBox="0 0 448 512"><!-- Font Awesome Pro 5.15.4 by @fontawesome - https://fontawesome.com License - https://fontawesome.com/license (Commercial License) --><path d="M432 160H112c0-33.85 21.22-62.69 52.02-74.35C172.92 110.29 196.29 128 224 128h32c35.35 0 64-28.65 64-64S291.35 0 256 0h-32c-24.63 0-45.77 14.07-56.47 34.47C108.63 45.94 64 97.8 64 160H16c-8.84 0-16 7.16-16 16v16c0 8.84 7.16 16 16 16h51.02l23.71 256H48c-8.84 0-16 7.16-16 16v16c0 8.84 7.16 16 16 16h352c8.84 0 16-7.16 16-16v-16c0-8.84-7.16-16-16-16h-42.73l23.71-256H432c8.84 0 16-7.16 16-16v-16c0-8.84-7.16-16-16-16zM224 48h32c8.82 0 16 7.18 16 16s-7.18 16-16 16h-32c-8.82 0-16-7.18-16-16s7.18-16 16-16zm85.04 416H138.96l-23.71-256h217.5l-23.71 256z"/></svg>