<svg xmlns="http://www.w3.org/2000/svg" viewBox="0 0 384 512"><!-- Font Awesome Pro 5.15.4 by @fontawesome - https://fontawesome.com License - https://fontawesome.com/license (Commercial License) --><path d="M184,208V180H148v36h28A8.00039,8.00039,0,0,0,184,208Zm-44-72H112a8.00039,8.00039,0,0,0-8,8v28h36Zm-28,80h28V180H104v28A8.00039,8.00039,0,0,0,112,216Zm72-72a8.00039,8.00039,0,0,0-8-8H148v36h36ZM112,320h64a8.00039,8.00039,0,0,0,8-8V248a8.00039,8.00039,0,0,0-8-8H112a8.00039,8.00039,0,0,0-8,8v64A8.00039,8.00039,0,0,0,112,320ZM280,208V180H244v36h28A8.00039,8.00039,0,0,0,280,208Zm0-64a8.00039,8.00039,0,0,0-8-8H244v36h36Zm-72,72h28V180H200v28A8.00039,8.00039,0,0,0,208,216Zm28-80H208a8.00039,8.00039,0,0,0-8,8v28h36ZM368,464H352V88a23.99869,23.99869,0,0,0-24-24h-8.02148V48a15.99829,15.99829,0,0,0-16-16H216V16A15.99954,15.99954,0,0,0,200,0H184a15.99954,15.99954,0,0,0-16,16V32H80A15.99954,15.99954,0,0,0,64,48V64H56A23.99993,23.99993,0,0,0,32,88V464H16A15.99954,15.99954,0,0,0,0,480v16a16.00079,16.00079,0,0,0,16,16H368a16.00079,16.00079,0,0,0,16-16V480A15.99954,15.99954,0,0,0,368,464Zm-64,0H80V112H304Z"/></svg>