<svg xmlns="http://www.w3.org/2000/svg" viewBox="0 0 448 512"><!-- Font Awesome Pro 5.15.4 by @fontawesome - https://fontawesome.com License - https://fontawesome.com/license (Commercial License) --><path d="M448 432V80c0-26.5-21.5-48-48-48H48C21.5 32 0 53.5 0 80v352c0 26.5 21.5 48 48 48h352c26.5 0 48-21.5 48-48zm-400 0V80h352v352H48zm48-280v16c0 8.84 7.16 16 16 16h128c8.84 0 16-7.16 16-16v-16c0-8.84-7.16-16-16-16H112c-8.84 0-16 7.16-16 16zm0 96v16c0 8.84 7.16 16 16 16h224c8.84 0 16-7.16 16-16v-16c0-8.84-7.16-16-16-16H112c-8.84 0-16 7.16-16 16zm0 96v16c0 8.84 7.16 16 16 16h64c8.84 0 16-7.16 16-16v-16c0-8.84-7.16-16-16-16h-64c-8.84 0-16 7.16-16 16z"/></svg>