<svg xmlns="http://www.w3.org/2000/svg" viewBox="0 0 512 512"><!-- Font Awesome Pro 5.15.4 by @fontawesome - https://fontawesome.com License - https://fontawesome.com/license (Commercial License) --><path d="M343.7 352H168.3c-5.8 0-9.8 5.7-7.8 11 10.5 27.9 58.4 53 95.5 53s85-25.1 95.5-53c2-5.3-2-11-7.8-11zM192 320c17.7 0 32-14.3 32-32s-14.3-32-32-32-32 14.3-32 32 14.3 32 32 32zm128-64c-17.7 0-32 14.3-32 32s14.3 32 32 32 32-14.3 32-32-14.3-32-32-32zm161.8 75.1c2.8-9.5 4.2-19.5 4.2-29.6 0-38.9-21-73-52.2-91.6.1-2 .2-3.9.2-5.9 0-37.9-21.2-71-52.4-87.9C376.5 51.2 322.1 0 256 0c-7.6 0-14.2.9-19.8 1.8-16.4 2.6-30.4 13.6-36.8 28.9-6.4 15.4-4.4 33 5.3 46.5 2.2 3 3.3 6.3 3.3 9.8 0 9.4-7.6 17-17 17h-13c-55.1 0-100 44.9-100 100 0 2 .1 4 .2 5.9C47 228.5 26 262.6 26 301.5c0 10.2 1.4 20.2 4.2 29.6C11.4 350.4 0 376.7 0 405.5 0 464.2 47.8 512 106.5 512h299c58.7 0 106.5-47.8 106.5-106.5 0-28.8-11.4-55.1-30.2-74.4zM405.5 464h-299C74.2 464 48 437.8 48 405.5c0-29.1 21.4-53.1 49.3-57.6C83.2 337.2 74 320.5 74 301.5c0-32.3 26.2-58.5 58.5-58.5h11.4c-10.9-9.5-17.9-23.4-17.9-39 0-28.7 23.3-52 52-52h13c35.9 0 65-29.1 65-65 0-14.1-4.6-27.1-12.3-37.8 4-.6 8.1-1.2 12.3-1.2 43.1 0 78 34.9 78 78 0 9.2-1.9 17.8-4.8 26h4.8c28.7 0 52 23.3 52 52 0 15.6-7 29.5-17.9 39h11.4c32.3 0 58.5 26.2 58.5 58.5 0 19-9.2 35.7-23.3 46.4 27.9 4.5 49.3 28.4 49.3 57.6 0 32.3-26.2 58.5-58.5 58.5z"/></svg>