<svg xmlns="http://www.w3.org/2000/svg" viewBox="0 0 512 512"><!-- Font Awesome Pro 5.15.4 by @fontawesome - https://fontawesome.com License - https://fontawesome.com/license (Commercial License) --><path d="M422.06 113.61c-5.57-34.13-30.33-53.78-50-61.32-11.16-16.85-34.37-36.17-67.58-35.77A80.37 80.37 0 0 0 255.57 0a78.42 78.42 0 0 0-48.39 16.52c-20.08-.33-49.35 7.9-67.7 35.78a80.15 80.15 0 0 0-50.21 61.36C60.35 140 60.84 173.53 68.34 195.94v.38l39.36 288A32.05 32.05 0 0 0 139.45 512h232.69a32 32 0 0 0 31.78-27.68L443 198.46c13.56-37.63-2.83-68.46-20.94-84.85zM153.45 464l-35-256h50.39l21.38 256zm119.65 0h-34.6l-21.39-256h77.37zm85 0h-36.74l21.38-256h50.39zM114.42 160c7.38-16.75 21.92-18.55 25.59-18.91a30.59 30.59 0 0 1 .25-29.51c10.3-19 29.91-16.79 34.14-15.9a31.58 31.58 0 0 1 21.73-29.5 30.59 30.59 0 0 1 29.08 5c1-3.55 8.08-23.23 30.36-23.23 21.49 0 30.57 18.91 30.57 23.23a31.15 31.15 0 0 1 29.3-5 31.56 31.56 0 0 1 21.75 29.5c4.23-.89 23.86-3.09 34.12 15.9a32 32 0 0 1 .27 29.51c7.69.77 19.37 4.79 25.58 18.91z"/></svg>