<svg xmlns="http://www.w3.org/2000/svg" viewBox="0 0 512 512"><!-- Font Awesome Pro 5.15.4 by @fontawesome - https://fontawesome.com License - https://fontawesome.com/license (Commercial License) --><path d="M368.156,95.99707a47.99855,47.99855,0,1,0-48.03125-47.999A48.02823,48.02823,0,0,0,368.156,95.99707ZM488.06226,239.99219l-48.40625-.17188a7.91188,7.91188,0,0,1-7.59375-5.65527l-13.96875-45.3584a88.19461,88.19461,0,0,0-64.8125-60.23242l-78.24988-17.70313a87.467,87.467,0,0,0-73.25,16.21875L184.996,140.05273C174.35925,63.17188,149.42383,0,96,0,52.20508,0,0,44.41113,0,255.99219,0,372.77344,16.65625,511.98438,96,511.98438c24.63281,0,51.92773-14.05274,71.0957-63.998H114.46484c-5.68554,10.27929-11.91992,16-18.46484,16-26.50977,0-48-93.12305-48-207.99414S69.49023,47.99805,96,47.99805s48,93.123,48,207.99414c0,41.44629-2.94531,79.58984-7.77539,111.99609H120a23.99951,23.99951,0,1,0,0,47.999h74.96863a55.997,55.997,0,0,0,51.5-33.93652l13.53125-31.6084-9.5625-5.76562a87.55746,87.55746,0,0,1-28.28125-27.82715l-19.84375,46.28027a8.01229,8.01229,0,0,1-7.34375,4.8584h-9.459c4.0586-30.835,6.49024-67.499,6.49024-111.99609,0-19.43067-.52344-39.47559-1.65821-59.40235l40.81446-31.53222a40.3409,40.3409,0,0,1,33.3125-7.375l14.875,3.375-35.3125,87.34082a55.77154,55.77154,0,0,0,23,68.90429l83.78113,50.5918a8.84316,8.84316,0,0,1,3.84375,6.84375,8.721,8.721,0,0,1-.3125,2.20313L321.06226,481.40723A23.97414,23.97414,0,0,0,337.531,511.07812,24.99489,24.99489,0,0,0,344.156,512a23.98672,23.98672,0,0,0,23.0625-17.42188L400.531,390.11328a56.1032,56.1032,0,0,0-24.90625-63.32617L323.781,295.49121l41.9375-104.79394a39.09522,39.09522,0,0,1,6.40625,12.0625l13.96875,45.373A55.77866,55.77866,0,0,0,439.49976,287.835l48.40625.15625h.09375a23.99955,23.99955,0,0,0,.0625-47.999Z"/></svg>