<svg xmlns="http://www.w3.org/2000/svg" viewBox="0 0 640 512"><!-- Font Awesome Pro 5.15.4 by @fontawesome - https://fontawesome.com License - https://fontawesome.com/license (Commercial License) --><path d="M620.1 364.4c10.1 2.5 19.9-5.1 19.9-15.5v-16.5c0-7.4-5-13.8-12.1-15.5l-67.9-17v-66.3c0-21.2-6-42-17.3-59.9L452.9 33.6C439.7 12.7 416.7 0 392 0c-13.6 0-26.8 3.8-38.4 11.1-18.9 11.9-31.1 31.6-33.3 54.3-.2 1.8-.3 3.5-.3 5.2 0-1.7-.1-3.4-.3-5.2-2.2-22.8-14.4-42.4-33.3-54.3C274.9 3.9 261.6 0 248 0c-24.7 0-47.7 12.7-60.9 33.6L97.3 173.7C86 191.6 80 212.4 80 233.6v66.3l-67.9 17C5 318.6 0 325 0 332.4v16.5c0 10.4 9.8 18.1 19.9 15.5l108.1-27V233.6c0-12.1 3.4-24 9.9-34.2l89.8-140.1c7.6-12.1 24.2-15 35.5-5.8 9.6 7.8 10.9 22.2 4.2 32.8l-57.6 89c-6.5 10.2-9.9 22.1-9.9 34.2V286c0 8.8 7.2 16 16 16h16c8.8 0 16-7.2 16-16v-56c0-13.3 10.8-24 24-24s24 10.8 24 24v69.1c0 55.1-37.5 103.2-90.9 116.6L12 464c-7 1.7-12 8.1-12 15.5V496c0 10.4 9.8 18.1 19.9 15.5l196.9-49.3c44.6-11.2 80.9-39.8 103.3-77.3 22.3 37.5 58.7 66.1 103.3 77.3l196.9 49.3c10.1 2.5 19.9-5.1 19.9-15.5v-16.5c0-7.4-5-13.8-12.1-15.5l-193-48.3c-53.4-13.4-90.9-61.4-90.9-116.5V230c0-13.3 10.8-24 24-24s24 10.8 24 24v56c0 8.8 7.2 16 16 16h16c8.8 0 16-7.2 16-16v-76.6c0-12.1-3.4-24-9.9-34.2l-57.6-89c-6.6-10.5-5.4-24.9 4.2-32.8 11.3-9.2 27.9-6.3 35.5 5.8l89.8 140.1c6.5 10.2 9.9 22.1 9.9 34.2v103.8zM320 176.7c-11.5-10.4-26.2-17.4-42.6-18.6l29.9-47.4c7.6-12.1 12.4-24.4 12.6-38.1.2 13.7 5 26 12.6 38.1l29.9 47.4c-16.2 1.2-30.9 8.2-42.4 18.6z"/></svg>