<svg xmlns="http://www.w3.org/2000/svg" viewBox="0 0 384 512"><!-- Font Awesome Pro 5.15.4 by @fontawesome - https://fontawesome.com License - https://fontawesome.com/license (Commercial License) --><path d="M256 128c35.35 0 64-28.65 64-64S291.35 0 256 0s-64 28.65-64 64 28.65 64 64 64zm-22.28 159.48a28.1 28.1 0 0 0 19.31 10.89c7.59.83 15.31-1.55 21.16-6.56l100-82.54c11.75-10.05 13.16-27.73 3.09-39.48-10.06-11.75-27.81-13.11-39.47-3.08l-77.47 63.27-46.69-61.38c-12.5-17.14-32.44-26.14-53.47-24.38-21.03 1.89-39.19 14.47-49.06 34.86l-47 109.41c-20.47 41.95-7.09 93.28 31.06 119.41L165.5 456H28c-15.47 0-28 12.53-28 28s12.53 28 28 28h228c5.57 0 32-4.93 32-32 0-8.51-3.37-17-10.06-23.3L158.53 344.33l44.03-97.82 31.16 40.97z"/></svg>