<svg xmlns="http://www.w3.org/2000/svg" viewBox="0 0 576 512"><!-- Font Awesome Pro 5.15.4 by @fontawesome - https://fontawesome.com License - https://fontawesome.com/license (Commercial License) --><path d="M560 0H16C7.16 0 0 7.16 0 16v16c0 8.84 7.16 16 16 16h16v272c0 17.67 14.33 32 32 32h200v43.72l-77.65 77.65c-6.25 6.25-6.25 16.38 0 22.63l11.31 11.31c6.25 6.25 16.38 6.25 22.63 0L288 439.6l67.72 67.72c6.25 6.25 16.38 6.25 22.63 0l11.3-11.32c6.25-6.25 6.25-16.38 0-22.63L312 395.72V352h200c17.67 0 32-14.33 32-32V48h16c8.84 0 16-7.16 16-16V16c0-8.84-7.16-16-16-16zm-64 304H80V48h416v256z"/></svg>