<svg xmlns="http://www.w3.org/2000/svg" viewBox="0 0 640 512"><!-- Font Awesome Pro 5.15.4 by @fontawesome - https://fontawesome.com License - https://fontawesome.com/license (Commercial License) --><path d="M451.91 267.74l34.7 27.13c.68-2.21 1.39-4.43 1.39-6.87 0-13.26-10.75-24-24-24-4.51 0-8.49 1.58-12.09 3.74zM192 48h192v48c0 8.84 7.16 16 16 16h48v64H334.57l61.4 48H496c17.64 0 32 14.36 32 32v71.23l48 37.53V256c0-44.18-35.82-80-80-80V99.88c0-12.73-5.06-24.94-14.06-33.94l-51.88-51.88c-9-9-21.21-14.06-33.94-14.06H174.48c-15.37 0-27.55 12.14-29.64 27.67L192 64.54V48zm441.99 423.02L36 3.51C29.1-2.01 19.03-.9 13.51 6l-10 12.49C-2.02 25.39-.9 35.46 6 40.98l598 467.51c6.9 5.52 16.96 4.4 22.49-2.49l10-12.49c5.52-6.9 4.41-16.97-2.5-22.49zM448 464H192v-64h195.3l-61.4-48H112v-96c0-17.64 14.36-32 32-32h18.18l-51.7-40.42C83.1 196.29 64 223.83 64 256v128c0 8.84 7.16 16 16 16h64v96c0 8.84 7.16 16 16 16h320c8.84 0 16-7.16 16-16v-11.02l-48-37.53V464z"/></svg>