<svg xmlns="http://www.w3.org/2000/svg" viewBox="0 0 640 512"><!-- Font Awesome Pro 5.15.4 by @fontawesome - https://fontawesome.com License - https://fontawesome.com/license (Commercial License) --><path d="M520 240H312c-22.1 0-40 17.9-40 40v136H48V136c0-4.4-3.6-8-8-8H8c-4.4 0-8 3.6-8 8v368c0 4.4 3.6 8 8 8h32c4.4 0 8-3.6 8-8v-40h544v40c0 4.4 3.6 8 8 8h32c4.4 0 8-3.6 8-8V360c0-66.2-53.8-120-120-120zm72 176H320V288h200c39.7 0 72 32.3 72 72v56zm-432-32c44.1 0 80-35.9 80-80s-35.9-80-80-80-80 35.9-80 80 35.9 80 80 80zm0-112c17.7 0 32 14.4 32 32s-14.3 32-32 32-32-14.4-32-32 14.3-32 32-32zm-16-144h114.3l36.9 73.9c4.1 8.2 15.7 8.2 19.8 0l54.1-108.2 17.2 34.3H504c13.2 0 24-10.7 24-24s-10.8-24-24-24h-88L379.1 6.1C375-2 363.3-2 359.3 6.1l-54.1 108.2L288 80H144c-8.8 0-16 7.2-16 16v16c0 8.8 7.2 16 16 16z"/></svg>