<svg xmlns="http://www.w3.org/2000/svg" viewBox="0 0 448 512"><!-- Font Awesome Pro 5.15.4 by @fontawesome - https://fontawesome.com License - https://fontawesome.com/license (Commercial License) --><path d="M0 224h192V32H0v192zM40 72h112v112H40V72zm216-40v192h192V32H256zm152 152H296V72h112v112zM0 480h192V288H0v192zm40-152h112v112H40V328zm32 32h48v48H72v-48zm0-256h48v48H72v-48zm304 48h-48v-48h48v48zm40 136h32v128H320v-32h-32v96h-32V288h96v32h64v-32zm0 160h32v32h-32v-32zm-64 0h32v32h-32v-32z"/></svg>