<svg xmlns="http://www.w3.org/2000/svg" viewBox="0 0 384 512"><!-- Font Awesome Pro 5.15.4 by @fontawesome - https://fontawesome.com License - https://fontawesome.com/license (Commercial License) --><path d="M199.65 0C125.625 0 69.665 30.187 27.21 92.51c-19.17 28.15-12.94 66.3 14.17 86.86l36.73 27.85c10.81 8.2 24.19 12.79 37.74 12.96-11.84 19-17.82 40.61-17.82 64.55v11.43c0 16.38 6.2 31.34 16.38 42.65C97.99 357.2 88 381.45 88 408c0 57.35 46.65 104 104 104s104-46.65 104-104c0-26.55-9.99-50.8-26.41-69.19 8.66-9.62 14.43-21.87 15.97-35.38 28.287-16.853 96-48.895 96-138.21C381.56 71.151 290.539 0 199.65 0zM192 464c-30.88 0-56-25.12-56-56 0-30.873 25.118-56 56-56 30.887 0 56 25.132 56 56 0 30.88-25.12 56-56 56zm45.97-176.21v8.37c0 8.788-7.131 15.84-15.84 15.84h-60.26c-8.708 0-15.84-7.051-15.84-15.84v-11.43c0-47.18 35.77-66.04 62.81-81.2 23.18-13 37.39-21.83 37.39-39.04 0-22.77-29.04-37.88-52.52-37.88-30.61 0-44.74 14.49-64.6 39.56-5.365 6.771-15.157 8.01-22 2.8l-36.73-27.85c-6.74-5.11-8.25-14.6-3.49-21.59C98.08 73.73 137.8 48 199.65 48c64.77 0 133.91 50.56 133.91 117.22 0 88.51-95.59 89.87-95.59 122.57z"/></svg>