<svg xmlns="http://www.w3.org/2000/svg" viewBox="0 0 640 512"><!-- Font Awesome Pro 5.15.4 by @fontawesome - https://fontawesome.com License - https://fontawesome.com/license (Commercial License) --><path d="M636.5 31L616.6 6c-5.5-6.9-15.6-8-22.5-2.6l-230.7 178-34.7-43.6c-4.8-6.1-14-6-18.8.1L252.2 211c-31.1.7-104 6.6-151.9 44.7C38.3 305 0 511.3 0 511.3c15.1.7 212.4 7.4 272.2-40.1 47.7-37.9 70-107.4 77.8-137.6l84.3-39.5c7-3.3 9.1-12.3 4.3-18.3l-35.3-44.3L634 53.5c6.9-5.5 8-15.6 2.5-22.5zM242.3 433.7c-16.6 13.2-74.3 28.5-182.8 30.2 4.8-19.1 10.1-38.2 15.8-56.4l45.3-36c5-3.9 1.2-11.9-5-10.6l-26.1 5.5c13.4-35.3 27.7-63 40.7-73.4 27-21.5 71.3-31 109.7-33.5l59.8 75c-9.3 31.2-28 75.9-57.4 99.2zm88-143.9l-39.8-49.9 24.2-30.8c2.4-3 7-3.1 9.4 0l43.8 54.9c2.4 3 1.4 7.5-2.1 9.2l-35.5 16.6zm181.8 29.9c-52.9 0-96 43-96 95.8s43.1 95.8 96 95.8 96-43 96-95.8-43.1-95.8-96-95.8zm0 143.8c-26.5 0-48-21.5-48-47.9s21.5-47.9 48-47.9 48 21.5 48 47.9-21.6 47.9-48 47.9z"/></svg>