<svg xmlns="http://www.w3.org/2000/svg" viewBox="0 0 448 512"><!-- Font Awesome Pro 5.15.4 by @fontawesome - https://fontawesome.com License - https://fontawesome.com/license (Commercial License) --><path d="M257.13 182.57l20.72 20.2-4.89 28.52c-.52 3.02 2.65 5.39 5.42 3.94L304 221.76l25.62 13.47c2.75 1.45 5.94-.9 5.42-3.94l-4.89-28.52 20.72-20.2c2.21-2.16.99-5.93-2.07-6.37l-28.64-4.16-12.81-25.95c-1.37-2.77-5.33-2.77-6.7 0l-12.81 25.95-28.64 4.16c-3.06.44-4.28 4.2-2.07 6.37zM232.66 304c12.31 0 24.53-2.23 36.03-6.53 5.59-1.88 9.34-7.06 9.34-12.94 0-7.52-6.12-13.64-13.69-13.64l-3.44.17c-39.19 0-71.06-31.88-71.06-71.06s31.88-71.06 71.06-71.06l3.44.17c6.47 0 12.09-4.59 13.38-10.89 1.34-6.59-2.25-13.12-8.59-15.55C257.28 98.25 245 96 232.66 96c-57.34 0-104 46.66-104 104s46.65 104 104 104zM448 384V16c0-8.8-7.2-16-16-16H80C35.8 0 0 35.8 0 80v352c0 44.2 35.8 80 80 80h352c8.8 0 16-7.2 16-16v-16c0-7.8-5.6-14.3-12.9-15.7-4.2-13-4.2-51.6 0-64.6 7.4-1.5 12.9-7.9 12.9-15.7zm-54 80H80c-17.7 0-32-14.3-32-32 0-17.6 14.4-32 32-32h314c-2.7 17.3-2.7 46.7 0 64zm6-112H80c-11.4 0-22.2 2.4-32 6.7V80c0-17.7 14.3-32 32-32h320v304z"/></svg>