<svg xmlns="http://www.w3.org/2000/svg" viewBox="0 0 512 512"><!-- Font Awesome Pro 5.15.4 by @fontawesome - https://fontawesome.com License - https://fontawesome.com/license (Commercial License) --><path d="M500.36 421.88l-95.95-120.66c43.34-10.47 75.61-49.35 75.61-95.58 0-47.99-32.82-74.41-42.89-81.02C458.33 17.1 401.03 0 378.86 0c-16.92 0-31.09 6.91-42.84 17.36C324.27 6.91 310.11.01 293.2 0h-.02c-25.92 0-86.21 22.9-53.74 144.05.99 3.7 2.08 7.42 3.28 11.18-2.19 9.16-2.7 17.54-2.7 23.43v34.93c-63.14 14.97-114.6 59.14-140.89 117.07C92.93 329.08 86.58 328 80 328c-44.19 0-80 35.76-80 80 0 44.19 35.76 80 80 80 7.07 0 13.9-1.2 20.52-3.02C115.18 501.42 136.29 512 160 512h160.01c21.04 0 38.92-13.54 45.4-32.37l7.76 9.55c10.53 14.36 27.1 22.82 45.12 22.82h37.72c20.35 0 39.12-11.06 48.98-28.86 11.26-20.32 8.4-44.87-4.63-61.26zM80.8 439.85c-.28.01-.53.15-.8.15-8.19 0-16.38-3.12-22.63-9.37-12.5-12.5-12.5-32.76 0-45.25 12.4-12.4 25.91-8.71 26.6-8.61-.6 3.16-6.35 31.02-3.17 63.08zM456.01 464h-37.72c-2.76 0-5.32-1.42-6.79-3.76l-70.46-86.76L224.01 432h64c17.66 0 32 14.36 32 32h-160c-17.67 0-32-14.33-32-32v-16c0-88.37 71.64-160 160.01-160v-77.34c0-9.78 2.36-17.04 5.53-23.66-2.84-7.29-5.5-15.03-7.74-23.37-11.32-42.25-9.08-79.55 5-83.32 13.81-3.7 33.78 26.27 45.21 67.09 11.46-40.89 31.43-70.79 45.21-67.09 14.08 3.77 16.32 41.08 5 83.32-1.43 5.32-3 10.46-4.69 15.39l29.13 17.65c13.4 9.45 21.35 24.71 21.35 40.97 0 27.81-22.83 50.36-50.99 50.36h-29.02v56.46l110.78 139.3c3.33 5.33-.5 12.24-6.78 12.24zm-87.99-272c0-8.84-7.16-16-16-16s-16 7.16-16 16 7.16 16 16 16 16-7.16 16-16z"/></svg>