<svg xmlns="http://www.w3.org/2000/svg" viewBox="0 0 640 512"><!-- Font Awesome Pro 5.15.4 by @fontawesome - https://fontawesome.com License - https://fontawesome.com/license (Commercial License) --><path d="M616.3 61.3C562-17.2 434.4-19.7 333 50.4c-57.7 40-95.6 95.3-108.4 149.9-10 42.6-30.1 81.5-56.6 115.8-.4-.2-15.1-8.1-30.7 2.8L13.6 405.6c-14.5 10.1-18 30.1-7.9 44.6l33.8 48.2c10.5 15 30.5 17.7 44.6 7.9l123.7-86.6c9.8-6.8 14-18.1 13-29.2 30.3-9.2 61.7-14.3 93.4-14 28.7.3 34.9 3.8 58.3 4.1 49.7.5 104.6-16.1 154.1-50.3 103-71.4 143.2-191.8 89.7-269zM69.7 457.7l-15.4-22 97.5-68.3 15.4 22-97.5 68.3zM207.9 344c9.9-12.9 18.4-26.5 26.4-40.4 8.4 16.8 12.6 20.5 20.9 29.6-15.8 2.6-31.6 6.1-47.3 10.8zm291.4-53.3c-39.7 27.5-84.7 42.4-126.6 41.9-139.4-1.5-135.7-157.3-12.4-242.7C416.9 50.8 466.3 48 486.9 48c10 0 10 0 0 0 138.2 1.5 137.2 156.4 12.4 242.7z"/></svg>