<svg xmlns="http://www.w3.org/2000/svg" viewBox="0 0 512 512"><!-- Font Awesome Pro 5.15.4 by @fontawesome - https://fontawesome.com License - https://fontawesome.com/license (Commercial License) --><path d="M504,256c0,136.9668-111.0332,248-248,248S8,392.9668,8,256,119.0332,8,256,8A246.36335,246.36335,0,0,1,395.14648,50.916L425.377,20.68555a16.00006,16.00006,0,0,1,22.627,0l11.31054,11.31054a16.00006,16.00006,0,0,1,0,22.627l-201.373,201.373L257.93555,256H320a64.00026,64.00026,0,1,1-66.1543-63.7832l34.543-34.543A100.011,100.011,0,0,0,256,152,104,104,0,1,0,360,256h48c0,73.94727-52.85156,135.42773-122.81055,149.05664a39.15632,39.15632,0,0,0-58.3789,0A151.96039,151.96039,0,0,1,106.94336,285.18945a39.15632,39.15632,0,0,0,0-58.3789C120.57227,156.85156,182.05273,104,256,104c24.918,0,47.99219,6.67773,68.66016,17.40234l35.64062-35.64062A197.97306,197.97306,0,0,0,256,56C157.05078,56,74.87305,128.30664,58.98828,222.81055,47.82812,229.9082,40,241.79492,40,256s7.82812,26.0918,18.98828,33.18945A200.18858,200.18858,0,0,0,222.81055,453.01172C229.9082,464.17188,241.79492,472,256,472s26.0918-7.82812,33.18945-18.98828C383.69336,437.127,456,354.94922,456,256Z"/></svg>