<svg xmlns="http://www.w3.org/2000/svg" viewBox="0 0 496 512"><!-- Font Awesome Pro 5.15.4 by @fontawesome - https://fontawesome.com License - https://fontawesome.com/license (Commercial License) --><path d="M314.1 256h81.7c9.5 0 17.5-8 16.5-17.4-4.8-45-27.8-84.4-61.5-111.3-7.9-6.3-19.5-4.7-24.8 3.9l-43.1 68.9c18.6 11.7 31.2 32.3 31.2 55.9zm-101 55.9L169.9 381c-5 8-2.5 19 5.9 23.2 21.8 10.8 46.2 17 72.1 17s50.3-6.3 72.1-17c8.5-4.2 11-15.2 5.9-23.2l-43.2-69.1c-10.2 6.4-22.1 10.2-34.9 10.2s-24.6-3.9-34.7-10.2zM100.3 256H182c0-23.6 12.5-44.2 31.2-55.9l-43.1-68.9c-5.3-8.6-16.9-10.2-24.8-3.9-33.6 26.8-56.7 66.3-61.5 111.3-1 9.4 7 17.4 16.5 17.4zM248 289c18.2 0 33-14.8 33-33s-14.8-33-33-33-33 14.8-33 33 14.8 33 33 33zm0 215c137 0 248-111 248-248S385 8 248 8 0 119 0 256s111 248 248 248zm0-448c110.3 0 200 89.7 200 200s-89.7 200-200 200S48 366.3 48 256 137.7 56 248 56z"/></svg>