<svg xmlns="http://www.w3.org/2000/svg" viewBox="0 0 496 512"><!-- Font Awesome Pro 5.15.4 by @fontawesome - https://fontawesome.com License - https://fontawesome.com/license (Commercial License) --><path d="M290.7 323.6c-12.4 7.7-27 12.4-42.7 12.4s-30.3-4.6-42.7-12.4l-71.5 113.3c-10.2 16.2-4.2 38.2 13.5 45.9C178.1 496.4 212.1 504 248 504s69.9-7.6 100.7-21.1c17.6-7.7 23.7-29.7 13.5-45.9l-71.5-113.4zM248 456c-21.5 0-42.5-3.4-62.7-10l40.4-64c7.4 1.3 14.8 2 22.4 2 7.5 0 15-.7 22.4-2l40.4 64c-20.4 6.6-41.4 10-62.9 10zM32.6 256h134.6c0-28.6 15.3-53.5 38.1-67.6L133.9 75.2c-6.2-9.8-17-15.3-27.8-15.3-7.1 0-14.2 2.3-20.1 7.3-45.2 38-76.7 91.7-85.7 152.5C-2.5 238.9 13 256 32.6 256zm70.6-139l40.3 63.9c-6.2 8.4-11.3 17.5-15.3 27.1H52c8.5-34.2 26.2-65.6 51.2-91zM248 304c26.5 0 48-21.5 48-48s-21.5-48-48-48-48 21.5-48 48 21.5 48 48 48zm80.8-48h134.6c19.6 0 35.1-17.1 32.3-36.3-9-60.9-40.5-114.5-85.7-152.5-5.9-4.9-13-7.3-20.1-7.3-10.8 0-21.6 5.4-27.8 15.3l-71.4 113.2c22.8 14.1 38.1 39 38.1 67.6zm64-139c25 25.4 42.6 56.8 51.2 91h-76.2c-3.9-9.6-9.1-18.7-15.3-27.1l40.3-63.9z"/></svg>