<svg xmlns="http://www.w3.org/2000/svg" viewBox="0 0 512 512"><!-- Font Awesome Pro 5.15.4 by @fontawesome - https://fontawesome.com License - https://fontawesome.com/license (Commercial License) --><path d="M208 336h-96a16 16 0 0 0-16 16v16a16 16 0 0 0 16 16h96a16 16 0 0 0 16-16v-16a16 16 0 0 0-16-16zm16-80H96a16 16 0 0 0-16 16v16a16 16 0 0 0 16 16h128a16 16 0 0 0 16-16v-16a16 16 0 0 0-16-16zm128-16a80 80 0 1 0 80 80 80 80 0 0 0-80-80zm96-112H211.5l288.83-81.21a16 16 0 0 0 11.07-19.74l-4.33-15.38A16 16 0 0 0 487.33.6L46.68 124.5A64 64 0 0 0 0 186.11V448a64 64 0 0 0 64 64h384a64 64 0 0 0 64-64V192a64 64 0 0 0-64-64zm16 320a16 16 0 0 1-16 16H64a16 16 0 0 1-16-16V192a16 16 0 0 1 16-16h384a16 16 0 0 1 16 16z"/></svg>