<svg xmlns="http://www.w3.org/2000/svg" viewBox="0 0 576 512"><!-- Font Awesome Pro 5.15.4 by @fontawesome - https://fontawesome.com License - https://fontawesome.com/license (Commercial License) --><path d="M268.3 32.7C115.4 42.9 0 176.9 0 330.2V464c0 8.8 7.2 16 16 16h16c8.8 0 16-7.2 16-16V320C48 177.3 173.2 63.3 319.6 82 440.6 97.5 528 206.4 528 328.3V464c0 8.8 7.2 16 16 16h16c8.8 0 16-7.2 16-16V320c0-165.3-140-298.6-307.7-287.3zm-5.6 97.4C166 142.5 96 229.6 96 327.2V464c0 8.8 7.2 16 16 16h16c8.8 0 16-7.2 16-16V320.5c0-84.2 72.5-151.7 158.4-143.3 74.8 7.3 129.6 74.5 129.6 149.7V464c0 8.8 7.2 16 16 16h16c8.8 0 16-7.2 16-16V320.5c0-114.2-100.2-205.4-217.3-190.4zm6.2 95.8c-45.6 8.9-76.9 51.5-76.9 97.9V464c0 8.8 7.2 16 16 16h16c8.8 0 16-7.2 16-16V320c0-26.5 21.5-48 48-48s48 21.5 48 48v144c0 8.8 7.2 16 16 16h16c8.8 0 16-7.2 16-16V320c0-59.2-53.8-106-115.1-94.1z"/></svg>