<svg xmlns="http://www.w3.org/2000/svg" viewBox="0 0 448 512"><!-- Font Awesome Pro 5.15.4 by @fontawesome - https://fontawesome.com License - https://fontawesome.com/license (Commercial License) --><path d="M320 216.7c14.8 28.3 31.2 50.4 45.4 69.6 23.3 31.5 34.6 47.7 34.6 71.2 0 41-35.9 74.4-80 74.4s-80-33.4-80-74.4c0-23.3 11.3-39.6 34.7-71.3 14.2-19.2 30.5-41.3 45.3-69.5M160 32c-3.9 0-7.9 2.3-9.3 6.9-14.9 49.3-46.7 62.7-46.7 97.4 0 30.8 25 55.7 56 55.7s56-24.9 56-55.7c0-34.9-31.8-47.9-46.7-97.4C168 34.4 164 32 160 32zm160 96c-9 0-18 5-21.2 15.2C264.7 251.6 192 281.1 192 357.6c0 67.7 57.2 122.4 128 122.4s128-54.8 128-122.4c0-76.8-72.6-105.4-106.8-214.4-2.9-10-12-15.2-21.2-15.2zM56 224c-3.9 0-7.9 2.3-9.3 6.9C31.8 280.2 0 293.6 0 328.3 0 359.1 25 384 56 384s56-24.9 56-55.7c0-34.9-31.8-47.9-46.7-97.4C64 226.4 60 224 56 224z"/></svg>