<svg xmlns="http://www.w3.org/2000/svg" viewBox="0 0 640 512"><!-- Font Awesome Pro 5.15.4 by @fontawesome - https://fontawesome.com License - https://fontawesome.com/license (Commercial License) --><path d="M609.81 100.92l-27.22-16.2C575.84 50.16 545.31 24 508.81 24H445.9C424.49 8.91 398.84 0 371.69 0c-55.97 0-101.7 42.61-107.73 97.02-12.82-1.47-26.04.24-37.55 5.97-18.84-9.47-42.91-9.08-61.47 1-12.94-5.89-27.53-7.52-42.31-4.37-17.88 4.02-33.12 15.11-42.69 30.34-17.59 2.08-34.06 11.16-45.66 25.83-11.25 14.57-16.22 32.94-14.28 50.88-12.62 12.78-20 30.34-20 49.02s7.25 36.19 19.69 48.92c-2.06 18.17 2.94 36.62 14.28 50.94 11.28 14.67 27.66 23.81 45.25 25.91 4.77 7.71 10.96 14.36 18.17 19.57l20.79 86.46c3.46 14.38 16.32 24.52 31.11 24.52h74.7c20.86 0 36.14-19.64 31.02-39.86l-14.67-57.91a66.566 66.566 0 0 0 15.23 1.77c10.5 0 20.72-2.45 29.94-7.09 5.69 2.77 11.96 4.46 18.52 5.59V480c0 17.67 14.33 32 32 32h80c17.67 0 32-14.33 32-32V377.86c11.36-4.34 21.72-11.56 29.7-21.64 11.25-14.58 16.22-32.95 14.28-50.89 12.62-12.78 20-30.34 20-49.02 0-8.48-1.68-16.65-4.47-24.31h68.13c17.75 0 34.31-9.56 43.22-25.05 18.94-33.2 21.12-48.14 21.12-56.48-.01-21.06-11.54-39.94-30.2-49.55zM161.89 464l-12.41-51.61c5.02-.98 9.97-2.33 14.7-4.46 8.18 4.46 17.47 6.72 26.91 7.4L203.42 464h-41.53zm238.13 0h-48v-54.2c11.7 4.23 24.42 5.38 37.35 2.59 3.7-.83 7.2-2.14 10.65-3.55V464zm175.64-280H452.64l-17.23 43.39 18.34 10.27c13.42 7.56 13.97 29.28-.31 37.31l-18.34 10.27 7.75 19.53c6.19 15.52-6.22 32.05-21.78 29.47l-21.19-3.77-6.03 20.67c-3.81 13.07-20.02 20.48-31.88 9.92l-17.16-15.22-16 16.44c-6.56 6.78-18.41 8.29-26.88.23l-16.59-15.78-16.53 15.84c-7.41 7.02-19.03 7.06-26 .23l-16.59-16.37-16.84 16.14c-8.56 8.23-22.38 4.28-26.69-.25L167 346.09l-17.16 14.64c-12.02 10.18-28.26 3.88-32.19-10.05l-5.94-20.91-21.41 3.83c-14.59 2.64-27.87-13.37-21.47-29.48l7.75-19.52-18.34-10.27c-13.42-7.56-13.97-29.28.31-37.31l18.34-10.27-7.75-19.53c-6.23-15.61 6.46-32.22 21.78-29.47l21.19 3.77 6.03-20.67c3.86-13.24 20.2-20.35 31.88-9.92l17.16 15.2 15.97-16.42c4.44-4.5 18.28-8.44 26.22-.58l16.59 16.45 16.91-16.16c7.28-6.98 19.19-7.08 26.59.03 11.63 11.08 31.4 50.64 84.44 50.64 42.41 0 76.91-34.5 76.91-76.92 0-30.37-21.5-57.25-51-63.91C369.28 55.33 361 62.05 361 70.22V86.5c0 4.47 2.47 8.48 6.22 10.48 11.7 4.12 23.59 9.07 23.59 26.2 0 20.36-16.56 36.92-36.91 36.92-28.22 0-51.16-22.95-51.16-51.16 0-38.02 30.94-68.95 68.94-68.95 26.76 0 51.68 12.38 68.72 32h68.41c15 0 27.19 12.2 27.19 27.22v13.66c70.12 41.71 60.88 27.24 39.66 71.13zM496 112c-8.84 0-16 7.16-16 16s7.16 16 16 16 16-7.16 16-16-7.16-16-16-16z"/></svg>