<svg xmlns="http://www.w3.org/2000/svg" viewBox="0 0 512 512"><!-- Font Awesome Pro 5.15.4 by @fontawesome - https://fontawesome.com License - https://fontawesome.com/license (Commercial License) --><path d="M483.515 28.485L431.35 80.65C386.475 35.767 324.485 8 256.001 8 119.34 8 7.9 119.525 8 256.185 8.1 393.067 119.095 504 256 504c63.926 0 122.202-24.187 166.178-63.908 5.113-4.618 5.353-12.561.482-17.433l-19.738-19.738c-4.498-4.498-11.753-4.785-16.501-.552C351.787 433.246 306.105 452 256 452c-108.321 0-196-87.662-196-196 0-108.321 87.662-196 196-196 54.163 0 103.157 21.923 138.614 57.386l-54.128 54.129c-7.56 7.56-2.206 20.485 8.485 20.485H492c6.627 0 12-5.373 12-12V36.971c0-10.691-12.926-16.045-20.485-8.486z"/></svg>