<svg xmlns="http://www.w3.org/2000/svg" viewBox="0 0 512 512"><!-- Font Awesome Pro 5.15.4 by @fontawesome - https://fontawesome.com License - https://fontawesome.com/license (Commercial License) --><path d="M481.162 164.326c19.478 25.678 30.997 57.709 30.836 92.388C511.61 340.638 442.361 408 358.436 408H176v64c-.001 10.683-12.949 16.021-20.485 8.485l-88-87.995c-4.686-4.686-4.687-12.284 0-16.971l88-88.005c7.58-7.58 20.485-2.14 20.485 8.485v64h182.668C415.933 360 464.06 313.154 464 255.889c-.023-22.372-7.149-43.111-19.237-60.082-3.431-4.817-2.962-11.387 1.223-15.564 8.269-8.255 13.592-13.545 17.137-17.104 5.131-5.152 13.645-4.605 18.039 1.187zM48 256.111C47.94 198.846 96.067 152 153.332 152H336v64c0 10.625 12.905 16.066 20.485 8.485l88-88.005c4.687-4.686 4.686-12.285 0-16.971l-88-87.995C348.949 23.979 336.001 29.317 336 40v64H153.564C69.639 104 .389 171.362.002 255.286c-.16 34.679 11.358 66.71 30.836 92.388 4.394 5.792 12.908 6.339 18.039 1.188 3.545-3.559 8.867-8.849 17.137-17.105 4.185-4.178 4.653-10.748 1.223-15.564-12.088-16.971-19.213-37.71-19.237-60.082zm179.263 43.416c0-7.477 3.917-11.572 11.573-11.572h15.131v-39.878c0-5.163.534-10.503.534-10.503h-.356s-1.779 2.67-2.848 3.738c-4.451 4.273-10.504 4.451-15.666-1.068l-5.518-6.231c-5.342-5.341-4.984-11.216.534-16.379l21.72-19.939c4.449-4.095 8.366-5.697 14.42-5.697h12.105c7.656 0 11.749 3.916 11.749 11.572v84.384h15.488c7.655 0 11.572 4.094 11.572 11.572v8.901c0 7.477-3.917 11.572-11.572 11.572h-67.293c-7.656 0-11.573-4.095-11.573-11.572v-8.9z"/></svg>