<svg xmlns="http://www.w3.org/2000/svg" viewBox="0 0 512 512"><!-- Font Awesome Pro 5.15.4 by @fontawesome - https://fontawesome.com License - https://fontawesome.com/license (Commercial License) --><path d="M512 256c0 83.813-68.187 152-152 152H136.535l55.762 54.545c4.775 4.67 4.817 12.341.094 17.064l-16.877 16.877c-4.686 4.686-12.284 4.686-16.971 0l-104-104c-4.686-4.686-4.686-12.284 0-16.971l104-104c4.686-4.686 12.284-4.686 16.971 0l16.877 16.877c4.723 4.723 4.681 12.393-.094 17.064L136.535 360H360c57.346 0 104-46.654 104-104 0-19.452-5.372-37.671-14.706-53.258a11.991 11.991 0 0 1 1.804-14.644l17.392-17.392c5.362-5.362 14.316-4.484 18.491 1.847C502.788 196.521 512 225.203 512 256zM62.706 309.258C53.372 293.671 48 275.452 48 256c0-57.346 46.654-104 104-104h223.465l-55.762 54.545c-4.775 4.67-4.817 12.341-.094 17.064l16.877 16.877c4.686 4.686 12.284 4.686 16.971 0l104-104c4.686-4.686 4.686-12.284 0-16.971l-104-104c-4.686-4.686-12.284-4.686-16.971 0l-16.877 16.877c-4.723 4.723-4.681 12.393.094 17.064L375.465 104H152C68.187 104 0 172.187 0 256c0 30.797 9.212 59.479 25.019 83.447 4.175 6.331 13.129 7.209 18.491 1.847l17.392-17.392a11.991 11.991 0 0 0 1.804-14.644z"/></svg>