<svg xmlns="http://www.w3.org/2000/svg" viewBox="0 0 640 512"><!-- Font Awesome Pro 5.15.4 by @fontawesome - https://fontawesome.com License - https://fontawesome.com/license (Commercial License) --><path d="M189 144.2l-27.4-4-12.2-24.8c-2.2-4.4-8.5-4.5-10.7 0l-12.2 24.8-27.4 4c-4.9.7-6.9 6.8-3.3 10.2l19.8 19.3-4.7 27.3c-.8 4.9 4.3 8.6 8.7 6.3l24.5-12.9 24.5 12.9c4.3 2.3 9.5-1.4 8.7-6.3l-4.7-27.3 19.8-19.3c3.4-3.5 1.5-9.5-3.4-10.2zm128 0l-27.4-4-12.2-24.8c-2.2-4.4-8.5-4.5-10.7 0l-12.2 24.8-27.4 4c-4.9.7-6.9 6.8-3.3 10.2l19.8 19.3-4.7 27.3c-.8 4.9 4.3 8.6 8.7 6.3l24.5-12.9 24.5 12.9c4.3 2.3 9.5-1.4 8.7-6.3l-4.7-27.3 19.8-19.3c3.4-3.5 1.5-9.5-3.4-10.2zm128 0l-27.4-4-12.2-24.8c-2.2-4.4-8.5-4.5-10.7 0l-12.2 24.8-27.4 4c-4.9.7-6.9 6.8-3.3 10.2l19.8 19.3-4.7 27.3c-.8 4.9 4.3 8.6 8.7 6.3l24.5-12.9 24.5 12.9c4.3 2.3 9.5-1.4 8.7-6.3l-4.7-27.3 19.8-19.3c3.4-3.5 1.5-9.5-3.4-10.2zM624 320h-16c-8.8 0-16 7.2-16 16v72c0 13.2-10.8 24-24 24s-24-10.8-24-24V192c0-88.4-71.6-160-160-160H160C71.6 32 0 103.6 0 192v256c0 17.7 14.3 32 32 32h96c17.7 0 32-14.3 32-32v-64h128v64c0 17.7 14.3 32 32 32h96c17.7 0 32-14.3 32-32v-64h48v19.7c0 37.6 27 72 64.4 75.9 2.5.3 5.1.4 7.6.4 39.7 0 72-32.3 72-72v-72c0-8.8-7.2-16-16-16zm-128 16h-64c-17.7 0-32 14.3-32 32v64h-64v-64c0-17.7-14.3-32-32-32H144c-17.7 0-32 14.3-32 32v64H48V288h448v48zm0-96H48v-48c0-61.9 50.1-112 112-112h224c61.8 0 112 50.2 112 112v48z"/></svg>