<svg xmlns="http://www.w3.org/2000/svg" viewBox="0 0 640 512"><!-- Font Awesome Pro 5.15.4 by @fontawesome - https://fontawesome.com License - https://fontawesome.com/license (Commercial License) --><path d="M328 0h-16c-8.8 0-16 7.2-16 16v480c0 8.8 7.2 16 16 16h16c8.8 0 16-7.2 16-16V16c0-8.8-7.2-16-16-16zM200.8 137.4c9.6-14.1 15.2-31.1 15.2-49.4 0-48.6-39.4-88-88-88S40 39.4 40 88c0 18.3 5.6 35.3 15.2 49.4C22.7 152.8 0 185.6 0 224v112c0 17.7 14.3 32 32 32h16v112c0 17.7 14.3 32 32 32h96c17.7 0 32-14.3 32-32V368h16c17.7 0 32-14.3 32-32V224c0-38.4-22.7-71.2-55.2-86.6zM128 48c22.1 0 40 17.9 40 40s-17.9 40-40 40-40-17.9-40-40 17.9-40 40-40zm80 272h-48v144H96V320H48v-96c0-26.5 21.5-48 48-48h64c26.5 0 48 21.5 48 48v96zm430.8 10.3l-37.7-134.7c-4.9-17.7-15.1-32.7-28.2-44.3 16.7-16 27.1-38.4 27.1-63.3 0-48.6-39.4-88-88-88s-88 39.4-88 88c0 24.9 10.5 47.3 27.1 63.3-13.2 11.6-23.3 26.6-28.2 44.3l-37.7 134.7c-3.1 12.8-.2 26.2 8 36.6 8.5 10.8 21.4 17 35.3 17h3.5v88c0 22.1 17.9 40 40 40h80c22.1 0 40-17.9 40-40v-88h3.5c13.9 0 26.8-6.2 35.3-17 8.2-10.4 11.1-23.7 8-36.6zM512 48c22.1 0 40 17.9 40 40s-17.9 40-40 40-40-17.9-40-40 17.9-40 40-40zm32 288v128h-64V336l-46.9 1.2 36-128.7c5.3-19.2 23-32.5 42.9-32.5s37.5 13.4 42.9 32.5L590.5 336H544z"/></svg>