<svg xmlns="http://www.w3.org/2000/svg" viewBox="0 0 640 512"><!-- Font Awesome Pro 5.15.4 by @fontawesome - https://fontawesome.com License - https://fontawesome.com/license (Commercial License) --><path d="M624.485 353.456l-104 104c-4.686 4.686-12.284 4.686-16.971 0l-104-104c-4.686-4.686-4.686-12.284 0-16.971l16.877-16.877c4.723-4.723 12.393-4.681 17.064.094L488 375.465V152H284.024a11.996 11.996 0 0 1-8.485-3.515l-24-24c-7.56-7.56-2.206-20.485 8.485-20.485H512c13.255 0 24 10.745 24 24v247.465l54.545-55.762c4.671-4.775 12.341-4.817 17.064-.094l16.877 16.877c4.686 4.686 4.686 12.284-.001 16.97zm-260.024 10.059a12.002 12.002 0 0 0-8.485-3.515H152V136.535l54.545 55.762c4.671 4.775 12.341 4.817 17.064.094l16.877-16.877c4.686-4.686 4.686-12.284 0-16.971l-104-104c-4.686-4.686-12.284-4.686-16.971 0l-104 104c-4.686 4.686-4.686 12.284 0 16.971l16.877 16.877c4.723 4.723 12.393 4.681 17.064-.094L104 136.535V384c0 13.255 10.745 24 24 24h251.976c10.691 0 16.045-12.926 8.485-20.485l-24-24z"/></svg>