<svg xmlns="http://www.w3.org/2000/svg" viewBox="0 0 640 512"><!-- Font Awesome Pro 5.15.4 by @fontawesome - https://fontawesome.com License - https://fontawesome.com/license (Commercial License) --><path d="M388.461 387.515c7.56 7.56 2.206 20.485-8.485 20.485H128c-13.255 0-24-10.745-24-24V171.187l-72.162-.001c-10.683-.001-16.022-12.949-8.485-20.485l96.156-96.156c4.686-4.686 12.284-4.687 16.971 0l96.16 96.16c7.58 7.58 2.14 20.485-8.485 20.485L152 171.188V360h203.976c3.183 0 6.235 1.264 8.485 3.515l24 24zm219.701-46.7L536 340.813V128c0-13.255-10.745-24-24-24H260.024c-10.691 0-16.045 12.926-8.485 20.485l24 24a12.002 12.002 0 0 0 8.485 3.515H488v188.812l-72.154-.001c-10.625 0-16.066 12.905-8.485 20.485l96.16 96.16c4.686 4.687 12.285 4.686 16.971 0l96.156-96.156c7.535-7.536 2.197-20.485-8.486-20.485z"/></svg>