<svg xmlns="http://www.w3.org/2000/svg" viewBox="0 0 448 512"><!-- Font Awesome Pro 5.15.4 by @fontawesome - https://fontawesome.com License - https://fontawesome.com/license (Commercial License) --><path d="M437.7 404.6L329.5 287l37.5-40.3c34.8-37.4 39-91.3 10.8-137.3L347 59.1c-15-24.5-37.2-42.4-62.4-50.5-36-11.5-85.1-11.5-121 0-25.3 8.1-47.5 26-62.4 50.5l-33.3 54.3c-25.9 42.2-20.4 97 13.3 133.2l37.5 40.4L10.4 404.7c-16.5 17.9-12.8 45.9 7.5 59.2l63.3 41.3c24 15.7 45.5.1 51.4-6.2l91.5-98.5 91.4 98.4c5.8 6.3 27.6 21.9 51.4 6.3l63.3-41.3c20.1-13.1 24-41.3 7.5-59.3zM328.2 120.2l8.7 14.2c16.9 27.5 14.9 58-5.1 79.5l-34.9 37.6-40.3-43.8 45.5-49.5c11.7-11.4 19.9-24.9 26.1-38zm-150-65.9c26.5-8.5 65.2-8.5 91.7 0 9.1 2.9 17.5 8.5 24.8 15.8-2.7 12.9-9.8 37.9-27 54.8L224 172.3 179.6 124C163 107.7 156 82.7 153.4 69.9c7.2-7.3 15.7-12.7 24.8-15.6zm-76.3 407.2l-49.1-32.1 98.5-107.2 40 43-89.4 96.3zm244.3 0L116.3 214c-19.1-20.6-22.2-51.6-7.5-75.5l10.9-17.9c6 12.8 14.2 25.8 25.4 36.8l250.2 272.1-49.1 32z"/></svg>