<svg xmlns="http://www.w3.org/2000/svg" viewBox="0 0 512 512"><!-- Font Awesome Pro 5.15.4 by @fontawesome - https://fontawesome.com License - https://fontawesome.com/license (Commercial License) --><path d="M256 64C110.06 64 0 125.91 0 208v98.13C0 384.48 114.62 448 256 448s256-63.52 256-141.87V208c0-82.09-110.06-144-256-144zm0 48c110.46 0 200 35.82 200 80 0 9.09-3.97 17.79-10.95 25.93C398.24 192.23 331 176 256 176s-142.24 16.23-189.05 41.93C59.97 209.79 56 201.09 56 192c0-44.18 89.54-80 200-80zm141.7 136.45C361.48 262.99 311.38 272 256 272s-105.48-9.01-141.7-23.55C150 234.3 198.38 224 256 224s106 10.3 141.7 24.45zm66.3 57.68C464 344.4 382.97 400 256 400S48 344.41 48 306.13v-39.78C94.43 298.78 170.15 320 256 320s161.57-21.22 208-53.64v39.77z"/></svg>