<svg xmlns="http://www.w3.org/2000/svg" viewBox="0 0 512 512"><!-- Font Awesome Pro 5.15.4 by @fontawesome - https://fontawesome.com License - https://fontawesome.com/license (Commercial License) --><path d="M371.94 163.7a222.3 222.3 0 0 1 22.43 59C435.52 244.05 464 286.55 464 336a128 128 0 0 1-256 0c0-54.66 34.52-101.17 82.85-119.44A126.49 126.49 0 0 1 304 272c0 37.37-16.38 70.73-42 94.15a80.3 80.3 0 0 0 31 37 175.71 175.71 0 0 0-46.33-292.3L288 44.66 232.53 0H119.47L64 44.66l41.29 66.23A176 176 0 0 0 176 448a164 164 0 0 0 22.86-1.82A176 176 0 1 0 371.94 163.7zM128 55.34l8.53-7.34h78.94l8.53 7.34-25.47 42.26a160 160 0 0 0-45.06 0zM48 272a128.14 128.14 0 0 1 128-128c33 0 62.87 12.91 85.6 33.51-59.88 28-101.6 88-101.6 158.49a175.18 175.18 0 0 0 12 63.6C103.33 397.45 48 341.22 48 272z"/></svg>