<svg xmlns="http://www.w3.org/2000/svg" viewBox="0 0 576 512"><!-- Font Awesome Pro 5.15.4 by @fontawesome - https://fontawesome.com License - https://fontawesome.com/license (Commercial License) --><path d="M267.73 192h40.54c7.13 0 12.68-6.17 11.93-13.26l-4.6-43.58a8 8 0 0 0-7.96-7.16h-39.29c-4.09 0-7.53 3.09-7.96 7.16l-4.6 43.58c-.74 7.09 4.82 13.26 11.94 13.26zm-7.37 112h55.29c9.5 0 16.91-8.23 15.91-17.68l-5.07-48c-.86-8.14-7.72-14.32-15.91-14.32h-45.15c-8.19 0-15.05 6.18-15.91 14.32l-5.07 48c-1 9.45 6.41 17.68 15.91 17.68zm13.06-208h29.16c4.75 0 8.45-4.12 7.96-8.84l-1.69-16a8 8 0 0 0-7.96-7.16h-25.78c-4.09 0-7.53 3.09-7.96 7.16l-1.69 16c-.49 4.72 3.21 8.84 7.96 8.84zm48.98 240h-68.8c-8.19 0-15.05 6.18-15.91 14.32l-8.45 80c-1 9.45 6.41 17.68 15.91 17.68h85.69c9.5 0 16.91-8.23 15.91-17.68l-8.45-80c-.85-8.14-7.71-14.32-15.9-14.32zM173.35 64h-16a7.99 7.99 0 0 0-7.38 4.92L1.25 425.85C-3.14 436.38 4.6 448 16.02 448h44c7.11 0 13.37-4.69 15.36-11.52L181.03 74.24c1.49-5.12-2.35-10.24-7.68-10.24zm401.4 361.85L426.04 68.92a8 8 0 0 0-7.38-4.92h-16c-5.33 0-9.17 5.12-7.68 10.24l105.65 362.24A15.996 15.996 0 0 0 515.99 448h44c11.41 0 19.15-11.62 14.76-22.15z"/></svg>