<svg xmlns="http://www.w3.org/2000/svg" viewBox="0 0 576 512"><!-- Font Awesome Pro 5.15.4 by @fontawesome - https://fontawesome.com License - https://fontawesome.com/license (Commercial License) --><path d="M528 288H376v-80a16 16 0 0 0-16-16h-16a16 16 0 0 0-16 16v80H48a48 48 0 0 0-48 48v128a48 48 0 0 0 48 48h480a48 48 0 0 0 48-48V336a48 48 0 0 0-48-48zm0 176H48V336h480zm-416-32a32 32 0 1 0-32-32 32 32 0 0 0 32 32zm96 0a32 32 0 1 0-32-32 32 32 0 0 0 32 32zm35.44-296.47a16.44 16.44 0 0 0-1.3 24l11.11 11.37a15.15 15.15 0 0 0 20.53 1.29 122.72 122.72 0 0 1 156.44 0 15.15 15.15 0 0 0 20.53-1.29l11.11-11.37a16.44 16.44 0 0 0-1.3-24 168.83 168.83 0 0 0-217.12 0zm-67.84-28.2c6 6.11 15.39 6.06 21.71.36a230.29 230.29 0 0 1 309.38 0c6.32 5.7 15.75 5.75 21.71-.36L539.47 96a16.41 16.41 0 0 0-1-23.56C487 25.59 421.42 0 352 0S217 25.59 165.48 72.44a16.41 16.41 0 0 0-.95 23.56z"/></svg>