<svg xmlns="http://www.w3.org/2000/svg" viewBox="0 0 512 512"><!-- Font Awesome Pro 5.15.4 by @fontawesome - https://fontawesome.com License - https://fontawesome.com/license (Commercial License) --><path d="M501.65 452.08L59.91 10.35C52.76 3.2 43.97 0 35.35 0 17.31 0 0 14.01 0 35.17V476.9C0 496.29 15.71 512 35.1 512h441.73c31.27 0 46.93-37.8 24.82-59.92zM48 464V66.32l63.08 63.08-11.31 11.31c-6.25 6.25-6.25 16.38 0 22.63l11.31 11.31c6.25 6.25 16.38 6.25 22.63 0l11.31-11.31 45.26 45.25-11.31 11.31c-6.25 6.25-6.25 16.38 0 22.63l11.31 11.31c6.25 6.25 16.38 6.25 22.63 0l11.31-11.31 45.25 45.25-11.31 11.31c-6.25 6.25-6.25 16.38 0 22.63l11.31 11.31c6.25 6.25 16.38 6.25 22.63 0l11.31-11.31 45.25 45.26-11.31 11.31c-6.25 6.25-6.25 16.38 0 22.63l11.31 11.31c6.25 6.25 16.38 6.25 22.63 0l11.31-11.31L445.68 464H48zm80-80h124.54L128 259.46V384z"/></svg>