<svg xmlns="http://www.w3.org/2000/svg" viewBox="0 0 640 512"><!-- Font Awesome Pro 5.15.4 by @fontawesome - https://fontawesome.com License - https://fontawesome.com/license (Commercial License) --><path d="M608 128H32c-17.67 0-32 14.33-32 32v192c0 17.67 14.33 32 32 32h576c17.67 0 32-14.33 32-32V160c0-17.67-14.33-32-32-32zm-16 208H48V176h64v56c0 4.42 3.58 8 8 8h16c4.42 0 8-3.58 8-8v-56h64v56c0 4.42 3.58 8 8 8h16c4.42 0 8-3.58 8-8v-56h64v56c0 4.42 3.58 8 8 8h16c4.42 0 8-3.58 8-8v-56h64v56c0 4.42 3.58 8 8 8h16c4.42 0 8-3.58 8-8v-56h64v56c0 4.42 3.58 8 8 8h16c4.42 0 8-3.58 8-8v-56h64v160z"/></svg>