<svg xmlns="http://www.w3.org/2000/svg" viewBox="0 0 640 512"><!-- Font Awesome Pro 5.15.4 by @fontawesome - https://fontawesome.com License - https://fontawesome.com/license (Commercial License) --><path d="M635.7 179.2L543.2 16.3c-7.6-13.5-26.5-22-43.7-11.9L16 288.3c-15.3 9-20.6 28.9-11.7 44.5l92.5 162.9c7.6 13.4 26.5 22 43.7 11.9L624 223.7c15.3-9 20.5-28.9 11.7-44.5zm-505.4 278L53.9 322.5l46-27 34.2 60.3c2.2 3.9 7.1 5.2 10.9 3l26.6-15.6c3.8-2.2 5.1-7.2 2.9-11.1l-34.2-60.3 40.4-23.7 18.7 32.9c2.2 3.9 7.1 5.2 10.9 3l26.6-15.6c3.8-2.2 5.1-7.2 2.9-11.1l-18.7-32.9 40.4-23.7 34.2 60.3c2.2 3.9 7.1 5.2 10.9 3l26.6-15.6c3.8-2.2 5.1-7.2 2.9-11.1L302 176.8l40.4-23.7 18.7 32.9c2.2 3.9 7.1 5.2 10.9 3l26.6-15.6c3.8-2.2 5.1-7.2 2.9-11.1l-18.7-32.9 40.4-23.7 34.2 60.3c2.2 3.9 7.1 5.2 10.9 3l26.6-15.6c3.8-2.2 5.1-7.2 2.9-11.1L463.6 82l46-27 76.5 134.7-455.8 267.5z"/></svg>