<svg xmlns="http://www.w3.org/2000/svg" viewBox="0 0 640 512"><!-- Font Awesome Pro 5.15.4 by @fontawesome - https://fontawesome.com License - https://fontawesome.com/license (Commercial License) --><path d="M592.1 208h3.9c24.3 0 44-19.7 44-44 0-72.9-59.1-132-132-132H384V16c0-8.8-7.2-16-16-16H240c-8.8 0-16 7.2-16 16v16H64C28.7 32 0 60.7 0 96v197.5c0 17 6.7 33.3 18.7 45.3L96 416v16c0 44.2 35.8 80 80 80s80-35.8 80-80c0-5.5-.6-10.8-1.6-16h163.2c-1.1 5.2-1.6 10.5-1.6 16 0 44.2 35.8 80 80 80s80-35.8 80-80c0-5.5-.6-10.8-1.6-16H608c17.6 0 32-14.4 32-32V282.4c0-17-6.7-33.2-18.7-45.2L592.1 208zM176 464c-17.6 0-32-14.4-32-32s14.4-32 32-32 32 14.4 32 32-14.4 32-32 32zm192-96H223.6c-13.3-9.9-29.7-16-47.6-16s-34.2 6.1-47.6 16h-12.6l-63.2-63.2c-3-3-4.7-7-4.7-11.3V96c0-8.8 7.2-16 16-16h444c45 0 81.8 35.5 83.9 80H368v208zm204.2-112H416v-48h101.5c4.3 0 8.4 1.7 11.5 4.8l43.2 43.2zM496 464c-17.6 0-32-14.4-32-32s14.4-32 32-32 32 14.4 32 32-14.4 32-32 32zm96-96h-48.4c-13.3-9.9-29.7-16-47.6-16s-34.2 6.1-47.6 16H416v-64h176v64zM304 128H112c-8.8 0-16 7.2-16 16v96c0 8.8 7.2 16 16 16h192c8.8 0 16-7.2 16-16v-96c0-8.8-7.2-16-16-16zm-32 80H144v-32h128v32z"/></svg>