<svg xmlns="http://www.w3.org/2000/svg" viewBox="0 0 512 512"><!-- Font Awesome Pro 5.15.4 by @fontawesome - https://fontawesome.com License - https://fontawesome.com/license (Commercial License) --><path d="M326 115.91l55.4-81.18A24 24 0 0 0 360 0H152a24 24 0 0 0-21.47 34.73L186 115.92C-9.82 235.66.08 392.05.08 412c0 55.23 49.11 100 109.69 100h292.49c60.57 0 109.68-44.77 109.68-100 0-19.59 8.8-177-185.94-296.09zM314.28 48l-38.22 56h-40.12l-38.22-56zm149.66 364c0 28.67-27.67 52-61.68 52H109.77c-34 0-61.68-23.33-61.68-52-.82-81 32.63-175.45 170.91-260h74.08c137.58 84.18 171.53 178.93 170.86 260zM285.61 310.74l-49-14.54c-5.65-1.62-9.57-7.22-9.57-13.68 0-7.86 5.77-14.21 12.84-14.21h30.59a26.81 26.81 0 0 1 13.93 4 8.92 8.92 0 0 0 11-.75l12.74-12.17a8.54 8.54 0 0 0-.66-13 63.12 63.12 0 0 0-34.17-12.17v-17.6a8.69 8.69 0 0 0-8.71-8.62h-17.42a8.68 8.68 0 0 0-8.7 8.62v17.44c-25.8.75-46.48 22.19-46.48 48.57 0 21.54 14.15 40.71 34.39 46.74l49 14.54c5.65 1.61 9.57 7.21 9.57 13.67 0 7.87-5.77 14.22-12.84 14.22h-30.6a26.72 26.72 0 0 1-13.93-4 8.92 8.92 0 0 0-11 .76l-12.85 12.06a8.54 8.54 0 0 0 .66 13 63.2 63.2 0 0 0 34.18 12.17v17.55a8.68 8.68 0 0 0 8.7 8.62h17.42a8.68 8.68 0 0 0 8.7-8.62V406c25.69-.64 46.48-22.18 46.59-48.56.01-21.5-14.14-40.67-34.38-46.7z"/></svg>