<svg xmlns="http://www.w3.org/2000/svg" viewBox="0 0 512 512"><!-- Font Awesome Pro 5.15.4 by @fontawesome - https://fontawesome.com License - https://fontawesome.com/license (Commercial License) --><path d="M512 240c0-49.93-29-92.82-70.87-113.9a95.42 95.42 0 0 0-77.72-60.94c-12.78-2.07-24.33-.78-36.69 2.59a112 112 0 0 0-205.84 0C103 62.88 91.19 64 84.21 65.16a95.49 95.49 0 0 0-84.08 90c-1 16 4.11 37 10.56 49.14 9 17 15.94 34.9 19.09 53.57-7.39 1.81-14.4 5-19.64 10.71a38.29 38.29 0 0 0-10 29.08c6.18 72.9 51.31 136.51 116.6 166.34 2.84 26.92 25.44 48 52.78 48H343.1c27.44 0 50.1-21.17 52.82-48.22 64.94-30 109.79-93.51 115.94-166.11.67-7.76-1.84-15.15-5.69-21.86 3.41-11.43 5.83-23.28 5.83-35.81zm-128.09-80C430 160 464 198.84 464 240c0 5.57-1.14 10.79-2.28 16H306.13c-1.14-5.21-2.27-10.43-2.27-16a80 80 0 0 1 80.05-80zM215.8 96h16a8 8 0 0 1 8 8v152h-32V104a8 8 0 0 1 8-8zM74 165.66l11.32-11.32a8 8 0 0 1 11.32 0L198.41 256h-45.28L74 177a8 8 0 0 1 0-11.34zm290 259.39l-15.81 5.73v27.5c0 3.16-2.29 5.72-5.1 5.72H169.52c-2.81 0-5.09-2.56-5.09-5.72v-27.4l-15.91-5.69C95.8 406.31 57.7 359.42 49.2 304h413.6c-8.47 55.2-46.35 102.05-98.8 121.05z"/></svg>