<svg xmlns="http://www.w3.org/2000/svg" viewBox="0 0 512 512"><!-- Font Awesome Pro 5.15.4 by @fontawesome - https://fontawesome.com License - https://fontawesome.com/license (Commercial License) --><path d="M497.61 247.3c-16.86-1.78-26.82-6.77-38.8-12.77-12.94-6.47-71.67-38.85-149.37 0-52.66 26.38-90.19 8.19-106.56 0-12.8-6.39-71.25-39.14-149.54 0-12 6-22 11-38.95 12.77A16 16 0 0 0 0 263.13v16.08c0 9.59 8.51 16.88 18.06 16 26.4-2.55 42.36-10.52 56.72-17.7 52.79-26.4 90.35-8.15 106.66 0 77.7 38.85 136.54 6.47 149.5 0 55.93-28 95.44-5.46 106.37 0 14.36 7.18 30.3 15.15 56.62 17.7 9.55.92 18.07-6.37 18.07-16v-16.08a16 16 0 0 0-14.39-15.83zM480 32H32A32 32 0 0 0 0 64v96a32 32 0 0 0 32 32h448a32 32 0 0 0 32-32V64a32 32 0 0 0-32-32zm-16 112H48V80h416zm16 176H32a32 32 0 0 0-32 32v96a32 32 0 0 0 32 32h448a32 32 0 0 0 32-32v-96a32 32 0 0 0-32-32zm-16 112H48v-64h232l72 48 72-48h40z"/></svg>