<svg xmlns="http://www.w3.org/2000/svg" viewBox="0 0 512 512"><!-- Font Awesome Pro 5.15.4 by @fontawesome - https://fontawesome.com License - https://fontawesome.com/license (Commercial License) --><path d="M315.02363,461.00155c7.59223,7.59352,6.31124,20.7025-3.09314,25.79609A211.82864,211.82864,0,0,1,61.98024,450.00188C-5.725,382.30081-17.91011,280.30391,25.17507,200.10322a15.47642,15.47642,0,0,1,13.90348-8.0935,16.89827,16.89827,0,0,1,11.90388,4.9061L171.64591,317.709l21.90189-21.90559c-.68736-2.59367-1.59343-4.99985-1.59343-7.79664a31.99364,31.99364,0,1,1,31.99363,31.999c-2.81194,0-5.21771-.90622-7.81094-1.5937l-21.90189,21.89Zm-68.5801-.7031-194.68-194.69722C40.39079,319.00586,56.1689,376.301,95.97348,416.09666A162.48809,162.48809,0,0,0,211.638,464.00146,169.49813,169.49813,0,0,0,246.44353,460.29845ZM511.98442,303.30321a16.25209,16.25209,0,0,1-16.30925,16.70262H479.67835a15.96553,15.96553,0,0,1-15.77811-15.49953C457.0891,166.41675,345.51756,55.81073,207.35756,48.10784c-8.62329-.5-15.40319-7.18728-15.40319-15.7964V16.31193A16.25444,16.25444,0,0,1,208.63855.01555C372.01228,8.51529,503.39238,139.91755,511.98442,303.30321Zm-96.07462-.20312c.59363,9.1091-7.09234,16.812-16.21553,16.812H383.51c-8.4983,0-15.09074-6.70292-15.80935-15.20266-7.18607-85.40366-75.07881-154.79217-160.34308-160.69824-8.62329-.5-15.40319-7.20291-15.40319-15.7964V112.21527c0-9.20285,7.686-16.90574,16.77791-16.20264C319.21029,104.21551,407.599,192.71282,415.9098,303.10009Z"/></svg>