<svg xmlns="http://www.w3.org/2000/svg" viewBox="0 0 544 512"><!-- Font Awesome Pro 5.15.4 by @fontawesome - https://fontawesome.com License - https://fontawesome.com/license (Commercial License) --><path d="M509.82 13.82C496.61 4.4 481.33 0 465.99 0c-24.22 0-48.59 10.96-65.24 30.42l-235.08 274.7c-6.79 7.94-4.94 18.28 1.27 24.77L0 512h.38c101.37 0 198.38-34.12 272.97-94.68.23-.19.46-.38.69-.56 25.93-21.25 42.01-49.96 49.46-80.75h10.32c10.93 0 21.32-4.78 28.43-13.09L524.43 133.4c30.77-35.94 24.78-91.48-14.61-119.58zM243.09 380.05c-33.88 27.51-72.81 48.74-114.74 62.97L226.45 336h47.49c-6.22 17.28-16.71 32.46-30.85 44.05zm244.87-277.86L328.94 288H243.5L437.22 61.63C444.41 53.22 455.43 48 465.99 48c6.03 0 11.4 1.65 15.96 4.9 10.45 7.45 13.13 17.75 13.8 23.22 1.17 9.58-1.6 18.84-7.79 26.07z"/></svg>