<svg xmlns="http://www.w3.org/2000/svg" viewBox="0 0 640 512"><!-- Font Awesome Pro 5.15.4 by @fontawesome - https://fontawesome.com License - https://fontawesome.com/license (Commercial License) --><path d="M632 64H456c-4.4 0-8 3.6-8 8v48c0 4.4 3.6 8 8 8h176c4.4 0 8-3.6 8-8V72c0-4.4-3.6-8-8-8zm0-64H456c-4.4 0-8 3.6-8 8v16c0 4.4 3.6 8 8 8h176c4.4 0 8-3.6 8-8V8c0-4.4-3.6-8-8-8zm0 160H456c-4.4 0-8 3.6-8 8v48c0 4.4 3.6 8 8 8h176c4.4 0 8-3.6 8-8v-48c0-4.4-3.6-8-8-8zm0 192H456c-4.4 0-8 3.6-8 8v16c0 4.4 3.6 8 8 8h176c4.4 0 8-3.6 8-8v-16c0-4.4-3.6-8-8-8zm0-64H456c-4.4 0-8 3.6-8 8v16c0 4.4 3.6 8 8 8h176c4.4 0 8-3.6 8-8v-16c0-4.4-3.6-8-8-8zM368 64H112C50.1 64 0 114.1 0 176c0 50.3 33.3 92.3 78.9 106.5L6.4 408C-6.9 431 1 460.3 24 473.6l55.4 32c7.6 4.4 15.8 6.4 24 6.4 16.6 0 32.7-8.6 41.6-24l60-104h67c26.5 0 48-21.5 48-48v-48h48c8.8 0 16-7.2 16-16V80c0-8.8-7.2-16-16-16zM103.4 464L48 432l83.1-144H205L103.4 464zM288 336c0 8.8-7.2 16-16 16h-48.5l36.9-64H288v48zm48-96H112c-35.3 0-64-28.7-64-64s28.7-64 64-64h224v128zm296 208H456c-4.4 0-8 3.6-8 8v48c0 4.4 3.6 8 8 8h176c4.4 0 8-3.6 8-8v-48c0-4.4-3.6-8-8-8z"/></svg>