<svg xmlns="http://www.w3.org/2000/svg" viewBox="0 0 640 512"><!-- Font Awesome Pro 5.15.4 by @fontawesome - https://fontawesome.com License - https://fontawesome.com/license (Commercial License) --><path d="M168 408h32a8 8 0 0 0 8-8v-32a8 8 0 0 0-8-8h-32a8 8 0 0 0-8 8v32a8 8 0 0 0 8 8zm-80 0h32a8 8 0 0 0 8-8v-32a8 8 0 0 0-8-8H88a8 8 0 0 0-8 8v32a8 8 0 0 0 8 8zm550.89-120c-2.69-21-16.51-39.19-37-46.11L26.25 32.85a15.75 15.75 0 0 0-5.12-.85A16 16 0 0 0 6 42.88L.85 58.07a16 16 0 0 0 10 20.28l575.7 209.06c.34.11.5.44.81.59H48a48 48 0 0 0-48 48v96a48 48 0 0 0 48 48h544a48 48 0 0 0 48-48V288zM592 432H48v-96h544z"/></svg>