<svg xmlns="http://www.w3.org/2000/svg" viewBox="0 0 512 512"><!-- Font Awesome Pro 5.15.4 by @fontawesome - https://fontawesome.com License - https://fontawesome.com/license (Commercial License) --><path d="M509.7 395.7l-68.8-68.6-74.3-74.2 24.1-24.7c48.6-53.7 13-113.3 11.5-115.8l-43.6-73.1c-4.3-7.2-9.9-13.3-16.8-18-45.8-30.6-132.4-26.2-171.5.2-6.9 4.7-12.5 10.8-16.8 18l-43.6 73.1c-1.5 2.5-37.1 62.1 11.5 115.8l24.1 24.7-74.3 74.2-68.9 68.4c-3.1 3.1-3.1 8.2 0 11.3l11.3 11.3c3.1 3.1 8.2 3.1 11.3 0l68.8-68.6 22.6 22.6-68.8 68.6c-3.1 3.1-3.1 8.2 0 11.3l11.3 11.3c3.1 3.1 8.2 3.1 11.3 0l68.8-68.6 22.5 22.5-68.7 69.7c-3.1 3.1-3.1 8.2 0 11.3l11.3 11.3c3.1 3.1 8.2 3.1 11.3 0L256 365.9l140.5 143.7c3.1 3.1 8.2 3.1 11.3 0l11.3-11.3c3.1-3.1 3.1-8.2 0-11.3l-68.7-69.7 22.5-22.5 68.8 68.6c3.1 3.1 8.2 3.1 11.3 0l11.3-11.3c3.1-3.1 3.1-8.2 0-11.3l-68.8-68.6 22.6-22.6 68.8 68.6c3.1 3.1 8.2 3.1 11.3 0l11.3-11.3c3.3-3 3.3-8 .2-11.2zM361 137.1c4.3 7.4 16.6 33.4-5.4 58.3L332.5 219l-42.7-42.8L349 117l12 20.1zm-166.3-73c12.6-21 110.2-21 122.7-.1l6.3 10.5-67.7 67.8-67.6-67.8 6.3-10.4zm27 268.3l-38.2 39.1-44.4-44.3 40-39.9 43.4 44.3-.8.8zm106.8 39l-172.1-176c-22-24.9-9.7-50.9-5.3-58.4l12-20.1L372.9 327l-44.4 44.4z"/></svg>