<svg xmlns="http://www.w3.org/2000/svg" viewBox="0 0 448 512"><!-- Font Awesome Pro 5.15.4 by @fontawesome - https://fontawesome.com License - https://fontawesome.com/license (Commercial License) --><path d="M445.7 186.3L419.3 160l18.3-18.3c5-5 1.5-13.7-5.7-13.7H320V96c0-53-43-96-96-96-1.7 0-3.4 0-5.2.1C166.9 2.8 128 49.5 128 101.4V128H16c-7.1 0-10.7 8.6-5.7 13.7L28.7 160 2.3 186.3c-3.1 3.1-3.1 8.2 0 11.3L28.7 224l-18.3 18.3c-5 5-1.5 13.7 5.7 13.7h106.1l-26 141.3c-1.7 10.3 6.5 18.7 15.8 18.7 2.4 0 4.8-.5 7.2-1.7l32.7-24.2c2.8-2 6.1-3.2 9.5-3.1 2.6 0 5.2.6 7.5 1.9l31.1 16.6V496c0 8.8 7.2 16 16 16h16c8.8 0 16-7.2 16-16v-90.7l31.1-16.6c2.4-1.3 5-1.9 7.5-1.9 3.4 0 6.7 1.1 9.5 3.1l32.7 24.2c2.4 1.2 4.8 1.7 7.2 1.7 9.3 0 17.5-8.4 15.8-18.7L325.9 256H432c7.1 0 10.7-8.6 5.7-13.7L419.3 224l26.3-26.3c3.2-3.2 3.2-8.2.1-11.4zM176 101.4c0-.6.1-1.2.2-1.7 3.3 2.5 7.3 4.3 11.8 4.3 11 0 20-9 20-20 0-10.5-8.1-18.8-18.3-19.7 8.2-9.4 19.4-15.6 31.7-16.3h2.6c22 0 40.3 14.9 46 35.1-3-1.8-6.3-3.1-10-3.1-11 0-20 9-20 20s9 20 20 20c4.6 0 8.6-1.8 12-4.4V128c0 8.8-7.2 16-16 16h-64c-8.8 0-16-7.2-16-16zM367.4 208h-99.2l10.4 56.6 13.7 74.5c-12.4-1.1-24.8 1.4-35.8 7.3L224 363.7l-32.5-17.3c-9.3-4.9-19.6-7.5-30.1-7.5-1.9 0-3.8.1-5.7.2l13.6-74.5 10.4-56.7H80.6l-16-16 16-16h69.5c11.2 9.8 25.8 16 41.9 16h64c16.1 0 30.7-6.2 41.9-16h69.5l16 16z"/></svg>