<svg xmlns="http://www.w3.org/2000/svg" viewBox="0 0 640 512"><!-- Font Awesome Pro 5.15.4 by @fontawesome - https://fontawesome.com License - https://fontawesome.com/license (Commercial License) --><path d="M368 352h-96c-8.84 0-16 7.16-16 16v128c0 8.84 7.16 16 16 16h96c8.84 0 16-7.16 16-16V368c0-8.84-7.16-16-16-16zm-48-232c-48.6 0-88 39.4-88 88s39.4 88 88 88 88-39.4 88-88-39.4-88-88-88zm48 112c0 4.42-3.58 8-8 8h-48c-4.42 0-8-3.58-8-8v-64c0-4.42 3.58-8 8-8h16c4.42 0 8 3.58 8 8v40h24c4.42 0 8 3.58 8 8v16zm240-40h-96v-53.33c0-10.7-5.35-20.69-14.25-26.62l-160-106.67A31.9 31.9 0 0 0 320 0a31.97 31.97 0 0 0-17.75 5.37l-160 106.67A32.015 32.015 0 0 0 128 138.66V192H32c-17.67 0-32 14.33-32 32v272c0 8.84 7.16 16 16 16h16c8.84 0 16-7.16 16-16V240h80v272h48V147.23l144-96 144 96V512h48V240h80v256c0 8.84 7.16 16 16 16h16c8.84 0 16-7.16 16-16V224c0-17.67-14.33-32-32-32z"/></svg>