<svg xmlns="http://www.w3.org/2000/svg" viewBox="0 0 512 512"><!-- Font Awesome Pro 5.15.4 by @fontawesome - https://fontawesome.com License - https://fontawesome.com/license (Commercial License) --><path d="M400 224L512 74.67 437.33 0 288 112v78.06l-75.85 75.85c-44.88-23.79-82.68.42-96.41 14.16L12.03 383.77c-16.04 16.05-16.04 42.06 0 58.11l58.09 58.09C78.15 507.99 88.66 512 99.18 512c10.51 0 21.03-4.01 29.05-12.03l103.71-103.71c26.14-26.14 30.61-65.37 14.16-96.41L321.94 224H400zm-64-88l96.83-72.62 15.79 15.79L376 176h-40v-40zM197.99 362.32l-98.82 98.82-48.31-48.31 98.82-98.82c13.34-13.34 34.95-13.36 48.31 0 13.32 13.32 13.32 34.99 0 48.31z"/></svg>