<svg xmlns="http://www.w3.org/2000/svg" viewBox="0 0 640 512"><!-- Font Awesome Pro 5.15.4 by @fontawesome - https://fontawesome.com License - https://fontawesome.com/license (Commercial License) --><path d="M608 336h-64v-65.94L529.94 256 544 241.94v-99.88L529.94 128 544 113.94V88c0-48.52-39.47-88-88-88H80C35.88 0 0 35.89 0 80v64c0 17.64 14.34 32 32 32h80v65.94L126.06 256 112 270.06v133.38c0 55.44 41.69 105.46 98.66 108.3l312 .26C587.38 512 640 459.36 640 394.67V368c0-17.64-14.34-32-32-32zM48 128V80c0-17.64 14.34-32 32-32s32 14.36 32 32v48H48zm112 275.44v-113.5L193.94 256 160 222.06V80c0-11.38-2.38-22.2-6.69-32H456c22.06 0 40 17.94 40 40v6.06L462.06 128 496 161.94v60.12L462.06 256 496 289.94V336h-65.94L416 350.06 401.94 336H304c-17.66 0-32 14.36-32 32v40c0 15.78-6.72 30.92-18.44 41.53-11.88 10.73-27.25 15.67-43.41 14.19-28.12-2.83-50.15-29.3-50.15-60.28zm432-8.77c0 38.23-31.09 69.33-69.34 69.33H303.11c10.67-16.62 16.89-35.92 16.89-56v-24h62.06L416 417.94 449.94 384H592v10.67z"/></svg>