<svg xmlns="http://www.w3.org/2000/svg" viewBox="0 0 512 512"><!-- Font Awesome Pro 5.15.4 by @fontawesome - https://fontawesome.com License - https://fontawesome.com/license (Commercial License) --><path d="M235.09 199.42l-45-13.5c-5.16-1.55-8.77-6.78-8.77-12.73 0-7.27 5.3-13.19 11.8-13.19h28.11c4.56 0 8.96 1.29 12.82 3.72 3.24 2.03 7.36 1.91 10.13-.73l11.75-11.21c3.53-3.37 3.33-9.21-.57-12.14-9.1-6.83-20.08-10.77-31.37-11.35V112c0-4.42-3.58-8-8-8h-16c-4.42 0-8 3.58-8 8v16.12c-23.62.63-42.67 20.55-42.67 45.07 0 19.97 12.98 37.81 31.58 43.39l45 13.5c5.16 1.55 8.77 6.78 8.77 12.73 0 7.27-5.3 13.19-11.8 13.19h-28.11c-4.56 0-8.96-1.29-12.82-3.72-3.24-2.03-7.36-1.91-10.13.73l-11.75 11.21c-3.53 3.37-3.33 9.21.57 12.14 9.1 6.83 20.08 10.77 31.37 11.35V304c0 4.42 3.58 8 8 8h16c4.42 0 8-3.58 8-8v-16.12c23.62-.63 42.67-20.54 42.67-45.07 0-19.97-12.98-37.81-31.58-43.39zm273.38 269.46l-121.39-121.4c-2.3-2.3-5.3-3.5-8.5-3.5h-13.2c31.5-36.5 50.6-84 50.6-135.99C415.98 93.1 322.88 0 207.99 0S0 93.1 0 207.99c0 114.89 93.1 207.99 207.99 207.99 52 0 99.49-19.1 135.99-50.6v13.2c0 3.2 1.3 6.2 3.5 8.5l121.39 121.39c4.7 4.7 12.3 4.7 17 0l22.6-22.6c4.71-4.69 4.71-12.29 0-16.99zm-300.48-100.9c-88.4 0-159.99-71.6-159.99-159.99C48 119.59 119.59 48 207.99 48c88.39 0 159.99 71.6 159.99 159.99 0 88.4-71.6 159.99-159.99 159.99z"/></svg>