<svg xmlns="http://www.w3.org/2000/svg" viewBox="0 0 512 512"><!-- Font Awesome Pro 5.15.4 by @fontawesome - https://fontawesome.com License - https://fontawesome.com/license (Commercial License) --><path d="M436.4 32c-91 0-168.3 67.9-194.7 161.4C204.6 134.6 144 96 75.6 96H0v24c0 127.9 91.7 232 204.4 232H232v112c0 8.8 7.2 16 16 16h16c8.8 0 16-7.2 16-16V288h27.6C420.3 288 512 183.9 512 56V32h-75.6zm-232 272c-79.3 0-145.1-69.8-155.1-160h26.2c79.3 0 145.1 69.8 155.1 160h-26.2zm103.2-64h-26.2c10-90.2 75.8-160 155.1-160h26.2c-10 90.2-75.8 160-155.1 160z"/></svg>