<svg xmlns="http://www.w3.org/2000/svg" viewBox="0 0 512 512"><!-- Font Awesome Pro 5.15.4 by @fontawesome - https://fontawesome.com License - https://fontawesome.com/license (Commercial License) --><path d="M48,48H304v80h48V48A48,48,0,0,0,304,0H48A48,48,0,0,0,0,48V304a48,48,0,0,0,48,48h80V304H48ZM256,432H416a16,16,0,0,0,16-16V256a16,16,0,0,0-16-16H256a16,16,0,0,0-16,16V416A16,16,0,0,0,256,432Zm32-144h96v96H288ZM464,160H208a48,48,0,0,0-48,48V464a48,48,0,0,0,48,48H464a48,48,0,0,0,48-48V208A48,48,0,0,0,464,160Zm0,304H208V208H464Z"/></svg>