<svg xmlns="http://www.w3.org/2000/svg" viewBox="0 0 640 512"><!-- Font Awesome Pro 5.15.4 by @fontawesome - https://fontawesome.com License - https://fontawesome.com/license (Commercial License) --><path d="M616,232H536a24,24,0,0,0,0,48h80a24,24,0,0,0,0-48Zm-80-88a23.87,23.87,0,0,0,13.29-4l48-32a24,24,0,1,0-26.62-39.92l-48,32A24,24,0,0,0,536,144Zm13.29,228A24,24,0,1,0,522.69,412l48,32A24,24,0,1,0,597.31,404ZM120,128a24,24,0,0,0-24,24V264a24,24,0,0,0,48,0V152A24,24,0,0,0,120,128Zm80,0a24,24,0,0,0-24,24V264a24,24,0,0,0,48,0V152A24,24,0,0,0,200,128ZM384,32H64A64,64,0,0,0,0,96V416a64,64,0,0,0,64,64H384a64,64,0,0,0,64-64V96A64,64,0,0,0,384,32Zm16,384a16,16,0,0,1-16,16H64a16,16,0,0,1-16-16V96A16,16,0,0,1,64,80H384a16,16,0,0,1,16,16Z"/></svg>