<svg xmlns="http://www.w3.org/2000/svg" viewBox="0 0 448 512"><!-- Font Awesome Pro 5.15.4 by @fontawesome - https://fontawesome.com License - https://fontawesome.com/license (Commercial License) --><path d="M200,128a24,24,0,0,0-24,24V264a24,24,0,0,0,48,0V152A24,24,0,0,0,200,128Zm-80,0a24,24,0,0,0-24,24V264a24,24,0,0,0,48,0V152A24,24,0,0,0,120,128ZM384,32H64A64,64,0,0,0,0,96V416a64,64,0,0,0,64,64H384a64,64,0,0,0,64-64V96A64,64,0,0,0,384,32Zm16,384a16,16,0,0,1-16,16H64a16,16,0,0,1-16-16V96A16,16,0,0,1,64,80H384a16,16,0,0,1,16,16Z"/></svg>