<svg xmlns="http://www.w3.org/2000/svg" viewBox="0 0 512 512"><!-- Font Awesome Pro 5.15.4 by @fontawesome - https://fontawesome.com License - https://fontawesome.com/license (Commercial License) --><path d="M480 288H320c-17.67 0-32 14.33-32 32v160c0 17.67 14.33 32 32 32h160c17.67 0 32-14.33 32-32V320c0-17.67-14.33-32-32-32zm-16 176H336V336h128v128zM128 256C57.31 256 0 313.31 0 384s57.31 128 128 128 128-57.31 128-128-57.31-128-128-128zm0 208c-44.11 0-80-35.89-80-80s35.89-80 80-80 80 35.89 80 80-35.89 80-80 80zm378.98-262.86L400.07 18.29C392.95 6.1 380.47 0 368 0s-24.95 6.1-32.07 18.29L229.02 201.14c-14.26 24.38 3.56 54.86 32.07 54.86h213.82c28.51 0 46.33-30.48 32.07-54.86zM280.61 208L368 58.53 455.39 208H280.61z"/></svg>