<svg xmlns="http://www.w3.org/2000/svg" viewBox="0 0 640 512"><!-- Font Awesome Pro 5.15.4 by @fontawesome - https://fontawesome.com License - https://fontawesome.com/license (Commercial License) --><path d="M497.94 206.06l-160-159.96C307.89 16.04 256 37.16 256 80.04v72.73C127.16 157.36 0 185.98 0 328.38c0 63.78 27.85 108.41 78.46 143.11 36.89 25.28 86.27-9.68 73.1-53.43-17.51-58.18-13.74-84.23 104.44-89.17v71.08c0 42.92 51.92 63.96 81.94 33.94l160-159.97c18.75-18.74 18.75-49.14 0-67.88zM304 400V280c-137.571 0-239.402 15.753-198.4 152C76.79 412.25 48 384.18 48 328.38 48 206.513 183.384 200 304 200V80l160 160-160 160zm321.941-126.059l-160 159.967c-20.37 20.37-50.817 17.225-68.291-.306L592 240 397.652 46.407c17.468-17.53 47.9-20.699 68.29-.31l160 159.962c18.744 18.745 18.744 49.137-.001 67.882z"/></svg>