<svg xmlns="http://www.w3.org/2000/svg" viewBox="0 0 640 512"><!-- Font Awesome Pro 5.15.4 by @fontawesome - https://fontawesome.com License - https://fontawesome.com/license (Commercial License) --><path d="M496 96c-8.84 0-16 7.16-16 16s7.16 16 16 16 16-7.16 16-16-7.16-16-16-16zm113.81 4.92L584 85.56V80c0-30.87-25.12-56-56-56h-81.62C442.76 10.3 430.84 0 416 0c-17.67 0-32 14.33-32 32v67.04c-12.39-1.71-24.83-.09-36.19 5.01-17.11-9.45-40.77-11.56-61.81-1-18.41-9.2-41.19-9.2-59.59-.06-18.84-9.47-42.91-9.08-61.47 1-12.94-5.89-27.56-7.52-42.31-4.37-17.88 4.02-33.12 15.11-42.69 30.34-17.59 2.08-34.06 11.16-45.66 25.83-11.25 14.57-16.22 32.94-14.28 50.88-12.62 12.78-20 30.34-20 49.02s7.25 36.19 19.69 48.92c-2.06 18.17 2.94 36.62 14.28 50.94 11.28 14.67 27.66 23.81 45.25 25.91 4.77 7.71 10.96 14.36 18.17 19.57l20.79 86.46c3.46 14.38 16.32 24.52 31.11 24.52h74.7c20.86 0 36.14-19.64 31.02-39.86l-14.67-57.91a66.566 66.566 0 0 0 15.23 1.77c10.5 0 20.72-2.45 29.94-7.09 5.64 2.75 11.96 4.45 18.52 5.57V480c0 17.67 14.33 32 32 32h80c17.67 0 32-14.33 32-32V377.86c11.36-4.34 21.72-11.56 29.7-21.64 11.25-14.58 16.22-32.95 14.28-50.89 12.62-12.78 20-30.34 20-49.02 0-8.48-1.68-16.65-4.47-24.31h68.13c17.75 0 34.31-9.56 43.22-25.05 18.94-33.2 21.12-48.14 21.12-56.48-.01-21.06-11.54-39.94-30.2-49.55zM161.89 464l-12.41-51.61c5.02-.98 9.97-2.33 14.7-4.46 8.19 4.46 17.48 6.72 26.91 7.4L203.42 464h-41.53zm238.13 0h-48v-54.2c11.7 4.23 24.4 5.38 37.35 2.59 3.7-.83 7.2-2.14 10.65-3.55V464zm53.42-189.03l-18.34 10.27 7.75 19.53c6.2 15.52-6.22 32.05-21.78 29.47l-21.19-3.77-6.03 20.67c-3.83 13.14-20.14 20.45-31.88 9.92l-17.16-15.22-16 16.44c-6.56 6.78-18.41 8.29-26.88.23l-16.59-15.78-16.53 15.84c-7.41 7.02-19.06 7.06-26 .23l-16.59-16.37-16.84 16.14c-8.56 8.23-22.38 4.28-26.69-.25L167 346.09l-17.16 14.64c-11.21 9.5-27.98 4.87-32.19-10.05l-5.94-20.91-21.41 3.83c-14.59 2.64-27.87-13.37-21.47-29.48l7.75-19.52-18.34-10.27c-13.42-7.56-13.97-29.28.31-37.31l18.34-10.27-7.75-19.53c-6.23-15.61 6.46-32.22 21.78-29.47l21.19 3.77 6.03-20.67c3.87-13.27 20.22-20.33 31.88-9.92l17.16 15.2 15.97-16.42c4.44-4.5 18.28-8.44 26.22-.58l16.59 16.45 16.91-16.16c7.28-6.98 19.19-7.08 26.59.03l16.62 15.84 16.56-15.91c10.04-9.7 21.87-4.71 26.69.28l15.66 16.2 17.16-14.62c12.15-10.3 28.3-3.72 32.19 10.05l5.94 20.91 21.41-3.83c14.63-2.69 27.84 13.44 21.47 29.48l-7.75 19.52 18.34 10.27c13.42 7.57 13.97 29.29-.31 37.33zM575.66 184h-84.83c-2.22-9.96-6.37-19.44-12.79-27.55-11.28-14.67-27.66-23.81-45.25-25.91-.23-.37-.55-.66-.78-1.03V72h96c4.41 0 8 3.59 8 8v32.87l49.97 29.72c9.66 5.28 8.6 10.49-10.32 41.41z"/></svg>