<svg xmlns="http://www.w3.org/2000/svg" viewBox="0 0 384 512"><!-- Font Awesome Pro 5.15.4 by @fontawesome - https://fontawesome.com License - https://fontawesome.com/license (Commercial License) --><path d="M216 160v192c0 8.84 7.16 16 16 16h32c8.84 0 16-7.16 16-16V160c0-70.69-57.31-128-128-128H24C10.75 32 0 42.74 0 56v408c0 8.84 7.16 16 16 16h32c8.84 0 16-7.16 16-16V96h88c35.35 0 64 28.65 64 64zM368 32h-32c-8.84 0-16 7.16-16 16v304c0 35.35-28.65 64-64 64h-88V160c0-8.84-7.16-16-16-16h-32c-8.84 0-16 7.16-16 16v296c0 13.25 10.75 24 24 24h128c70.69 0 128-57.31 128-128V48c0-8.84-7.16-16-16-16z"/></svg>