<svg xmlns="http://www.w3.org/2000/svg" viewBox="0 0 448 512"><!-- Font Awesome Pro 5.15.4 by @fontawesome - https://fontawesome.com License - https://fontawesome.com/license (Commercial License) --><path d="M420.43 83.69l-179.2-80C235.72 1.23 229.86 0 224 0s-11.72 1.23-17.23 3.69l-179.2 80C10.88 91.14 0 108.62 0 128c0 198.49 106.86 335.71 206.77 380.31 5.51 2.46 11.37 3.69 17.23 3.69s11.72-1.23 17.23-3.69C321.13 472.64 448 349.28 448 128c0-19.38-10.88-36.86-27.57-44.31zM398.33 168H248V59.41L400 128c0 13.81-.64 27.08-1.67 40zM200 59.28V168H49.17c-1.15-13.19-1.96-26.6-2.03-40.48L200 59.28zM55.76 216H200v233.96C137.82 410.28 77.53 328.89 55.76 216zM248 449.75V216h143.84C368.77 339.71 300.17 415.42 248 449.75z"/></svg>