<svg xmlns="http://www.w3.org/2000/svg" viewBox="0 0 640 512"><!-- Font Awesome Pro 5.15.4 by @fontawesome - https://fontawesome.com License - https://fontawesome.com/license (Commercial License) --><path d="M484.843 379.396l74.163-62.753c28.358-23.994 19.811-69.847-15.304-82.002L488 215.359V88c0-13.255-10.745-24-24-24h-48V24c0-13.255-10.745-24-24-24H248c-13.255 0-24 10.745-24 24v40h-48c-13.255 0-24 10.745-24 24v127.359L96.299 234.64c-35.103 12.151-43.671 58-15.304 82.002l74.163 62.753C131.794 430.787 84.576 464 12 464c-6.627 0-12 5.373-12 12v24c0 6.627 5.373 12 12 12 61.682 0 114.334-17.015 157.164-66.492C175.604 483.207 208.493 512 248 512h144c39.507 0 72.396-28.793 78.836-66.492C513.949 495.312 566.824 512 628 512c6.627 0 12-5.373 12-12v-24c0-6.627-5.373-12-12-12-71.98 0-119.548-32.672-143.157-84.604zM264 40h112v24H264V40zm-64 72h240v86.744l-104.299-36.103a48 48 0 0 0-31.403 0L200 198.744V112zm224 320c0 17.673-14.327 32-32 32H248c-17.673 0-32-14.327-32-32v-64l-104-88 208-72 208 72-104 88v64z"/></svg>