<svg xmlns="http://www.w3.org/2000/svg" viewBox="0 0 512 512"><!-- Font Awesome Pro 5.15.4 by @fontawesome - https://fontawesome.com License - https://fontawesome.com/license (Commercial License) --><path d="M511.21 84.07c-3.78-29.71-21.06-55.68-47.42-71.21a95.17 95.17 0 0 0-97.93 1.43C323.2 41 307.71 94 330 138.88c1.44 2.93 2.28 7.16 0 9.49l-24.3 24.21-31.8-31.8a70.94 70.94 0 0 0-100.32 0l-31.7 31.71a70.15 70.15 0 0 0-20.28 45.11 70.28 70.28 0 0 0-45.12 20.28l-31.7 31.71a70.93 70.93 0 0 0 0 100.32l31.71 31.72-71.94 71.89a15.49 15.49 0 0 0 0 21.94l12 12a15.49 15.49 0 0 0 21.94 0l72-71.89 31.67 31.66a70.93 70.93 0 0 0 100.32 0l31.7-31.7a70.22 70.22 0 0 0 20.29-45.11 70.24 70.24 0 0 0 45.11-20.29l31.7-31.7a70.93 70.93 0 0 0 0-100.32l-31.58-31.59 24.23-24.22c16.72-16.73 20.28-42.14 9.09-64.72-9.62-19.43-6-48.25 19.61-63.36a45.55 45.55 0 0 1 45.92-.53c14.22 8 23.15 21 25.13 36.45a47.88 47.88 0 0 1-6 30.09c-3.71 6.39-3.31 14.32 1.91 19.55l12.29 12.29c6.72 6.72 18.17 6.09 23.54-1.75a95.31 95.31 0 0 0 15.79-66.25zm-271 317.51l-31.7 31.7a22.94 22.94 0 0 1-32.44 0L78.72 336a22.94 22.94 0 0 1 0-32.44l31.7-31.7a22.94 22.94 0 0 1 32.44 0l97.32 97.32a22.94 22.94 0 0 1 0 32.4zm97.1-97.1l-31.7 31.7a22.94 22.94 0 0 1-32.44 0l-97.32-97.32a22.94 22.94 0 0 1 0-32.44l31.7-31.7a22.94 22.94 0 0 1 32.44 0L337.28 272a22.94 22.94 0 0 1 0 32.48z"/></svg>