<svg xmlns="http://www.w3.org/2000/svg" viewBox="0 0 640 512"><!-- Font Awesome Pro 5.15.4 by @fontawesome - https://fontawesome.com License - https://fontawesome.com/license (Commercial License) --><path d="M491.42 7.7C468.38 2.4 444.87 0 421.3 0c-9.15 0-18.31.36-27.46 1.05-27.3 2.07-54.1 8.33-80.31 16.12L256 32h-64c-35.35 0-64 32.98-64 70.86 0 37.87 28.65 68.57 64 68.57h64c60.2 0 79.94 16.73 104.73 34.29C389.3 225.94 430.54 240 465.46 240 555.82 240 640 205.71 640 137.14 640 88.69 600.9 32.89 491.42 7.7zM240 123.43h-48c-8.67 0-16-9.42-16-20.57C176 90.2 184.75 80 192 80h48v43.43zM465.46 192c-24.16 0-55.82-10.47-76.99-25.46l-4.08-2.91c-20.96-14.97-46.54-32.83-96.38-38.35V73.32l37.51-9.66.86-.22.85-.25c27.53-8.19 49.85-12.72 70.26-14.27 7.94-.6 15.88-.92 23.83-.92 20.71 0 40.69 2.18 59.36 6.48C562.75 73.37 592 109.57 592 137.14c0 34.34-64.34 54.86-126.54 54.86zm-128 80c-34.91 0-76.16 14.06-104.73 34.29-24.79 17.55-44.52 34.29-104.73 34.29H64c-35.35 0-64 30.7-64 68.57S28.65 480 64 480h64l57.53 14.82c26.21 7.79 53.01 14.05 80.31 16.12 9.14.69 18.31 1.05 27.46 1.05 23.57 0 47.09-2.4 70.12-7.7C472.9 479.11 512 423.3 512 374.86 512 306.29 427.82 272 337.46 272zM112 432H64c-7.25 0-16-10.2-16-22.86 0-11.15 7.33-20.57 16-20.57h48V432zm240.66 25.52c-18.68 4.3-38.65 6.48-59.36 6.48-7.94 0-15.89-.32-23.83-.92-20.4-1.55-42.73-6.08-70.26-14.27l-.85-.25-.86-.22-37.5-9.66v-51.97c49.84-5.52 75.43-23.37 96.38-38.34l4.08-2.91c21.18-14.99 52.84-25.46 77-25.46 62.2 0 126.54 20.52 126.54 54.86 0 27.57-29.25 63.77-111.34 82.66z"/></svg>