<svg xmlns="http://www.w3.org/2000/svg" viewBox="0 0 512 512"><!-- Font Awesome Pro 5.15.4 by @fontawesome - https://fontawesome.com License - https://fontawesome.com/license (Commercial License) --><path d="M502.71 89.55L422.45 9.29C416.26 3.1 408.14 0 400.02 0s-16.24 3.1-22.43 9.29l-31.56 31.56c-16.77 16.77-25.91 39.25-25.91 62.49 0 20.49 6.93 35.24 11.39 43.23L207.22 270.86l-52.66-52.66c-6.24-6.25-14.43-9.37-22.61-9.37s-16.37 3.12-22.61 9.37l-69.62 69.62C-11.22 338.76-6.4 472.29 16.66 495.35 26.71 505.41 57.81 512 93.89 512c46.62 0 101.57-11 130.29-39.71l69.62-69.62c12.49-12.49 12.49-32.74 0-45.23l-52.66-52.66 124.32-124.32c17.83 9.95 34.2 11.45 43.26 11.45 24.7 0 48.16-11.67 65.7-29.2l28.29-28.3c12.39-12.39 12.39-32.47 0-44.86zM190.26 438.37c-15.35 15.35-54.08 25.66-96.37 25.66-19.48 0-33.9-2.27-41.9-4.31-7.87-29.31-5.31-111.05 21.63-137.99l58.31-58.32 116.63 116.63-58.3 58.33zm250.23-309.59c-9.61 9.61-21.17 15.13-32.76 15.13-35 0-53.14-43.78-27.78-69.15l20.07-20.07 57.28 57.28-16.81 16.81z"/></svg>