<svg xmlns="http://www.w3.org/2000/svg" viewBox="0 0 512 512"><!-- Font Awesome Pro 5.15.4 by @fontawesome - https://fontawesome.com License - https://fontawesome.com/license (Commercial License) --><path d="M503.2 72.3L439.7 8.8C428-2.9 409-2.9 397.3 8.8l-24.5 24.5c-14.2 14.2-21.9 33.2-21.9 52.9 0 4.9.5 9.8 1.5 14.8 1.3 6.5 3.6 12.6 6.4 18.4L262 216.2l-41.5-41.5c-9.7-9.7-22.5-14.6-35.3-14.6-10.7 0-21.5 3.4-30.5 10.4L19.4 274.9c-23.8 18.4-26.1 53.5-4.8 74.8l147.7 147.7c9.8 9.8 22.6 14.6 35.3 14.6 14.8 0 29.6-6.6 39.5-19.4l104.5-135.2c15.4-19.9 13.6-48.1-4.2-65.8l-41.5-41.5 96.8-96.8c5.8 2.8 11.9 5.1 18.4 6.4 24.6 4.9 49.9-2.7 67.6-20.5l24.5-24.5c11.7-11.7 11.7-30.7 0-42.4zM303.4 325.5c.7.7.8 1.8.2 2.5L199.1 463.2c-.1.2-.3.4-1.2.4-.4 0-1-.1-1.7-.3L48.6 315.8l.2-2.9L184 208.4c.2-.2.6-.4 1.2-.4l1.4.6 116.8 116.9zm141.4-220.2c-6.4 6.4-15.5 9.1-24.3 7.3-10.7-2.1-19-10.4-21.1-21.1-1.7-8.9 1-17.9 7.3-24.3l11.8-11.8 38.1 38.1-11.8 11.8zM153.7 265.7l-32 32c-9.4 9.4-9.4 24.6 0 33.9 4.7 4.7 10.8 7 17 7s12.3-2.3 17-7l32-32c9.4-9.4 9.4-24.6 0-33.9-9.5-9.4-24.6-9.4-34 0zm26.7 124.6c4.7 4.7 10.8 7 17 7s12.3-2.3 17-7l32-32c9.4-9.4 9.4-24.6 0-33.9s-24.6-9.4-33.9 0l-32 32c-9.5 9.3-9.5 24.5-.1 33.9z"/></svg>