<svg xmlns="http://www.w3.org/2000/svg" viewBox="0 0 512 512"><!-- Font Awesome Pro 5.15.4 by @fontawesome - https://fontawesome.com License - https://fontawesome.com/license (Commercial License) --><path d="M472 192h-40v-72c0-22.1-17.9-40-40-40h-72V40c0-22.1-17.9-40-40-40h-34.9c-15.5 0-29.8 9.1-36.3 23.1L95.5 266.5 31.1 331c-41.4 41.4-41.4 108.6 0 150 41.3 41.3 108.4 41.5 150 0l64.5-64.5 243.3-113.3c14.1-6.5 23.2-20.8 23.2-36.3V232c-.1-22.1-18-40-40.1-40zm-88-64v62.4l-91.2 28.8 28.8-91.2H384zM85.1 344.8l20.9-20.9 82.1 82.1-20.9 20.9-82.1-82.1zM250.2 48H272v50.2l-62 36L250.2 48zm10.9 112l-26.3 83.1L164 314l-25.7-25.7 36.3-77.9 86.5-50.4zM65 447c-21.8-21.8-22.4-56.6-2.2-79.4l81.6 81.6c-23.8 21.1-58.2 19-79.4-2.2zm158.7-73.3L198 347.9l70.8-70.8 83.1-26.3-50.3 86.5-77.9 36.4zM464 261.8l-86.2 40.1 36-61.9H464v21.8z"/></svg>