<svg xmlns="http://www.w3.org/2000/svg" viewBox="0 0 640 512"><!-- Font Awesome Pro 5.15.4 by @fontawesome - https://fontawesome.com License - https://fontawesome.com/license (Commercial License) --><path d="M628.88 210.65L499.19 55.03A64.006 64.006 0 0 0 450.02 32H32C14.33 32 0 46.33 0 64v288c0 17.67 14.33 32 32 32h32c0 52.93 43.06 96 96 96s96-43.07 96-96h128c0 52.93 43.06 96 96 96s96-43.07 96-96h32c17.67 0 32-14.33 32-32V241.38a48.03 48.03 0 0 0-11.12-30.73zM376 80h74.02c4.76 0 9.24 2.1 12.29 5.76L550.85 192H376V80zm-160 0h112v112H216V80zM48 80h120v112H48V80zm112 352c-26.51 0-48-21.49-48-48s21.49-48 48-48 48 21.49 48 48-21.49 48-48 48zm320 0c-26.51 0-48-21.49-48-48s21.49-48 48-48 48 21.49 48 48-21.49 48-48 48zm112-96h-29.36c-16.65-28.55-47.27-48-82.64-48s-65.99 19.45-82.64 48H242.64c-16.65-28.55-47.27-48-82.64-48s-65.99 19.45-82.64 48H48v-96h542.85l1.15 1.38V336z"/></svg>