<svg xmlns="http://www.w3.org/2000/svg" viewBox="0 0 512 512"><!-- Font Awesome Pro 5.15.4 by @fontawesome - https://fontawesome.com License - https://fontawesome.com/license (Commercial License) --><path d="M511.54 159.85C500.76 104.56 445.67 0 314.48 0c-91.79 0-169.8 64.06-189.75 155.79-5 22.84-6.45 50.38-4 77.41l-67.38 67.36a16 16 0 0 0 0 22.63l22.59 22.6-66.6 66.6a31.93 31.93 0 0 0 0 45.13l45.13 45.13a31.92 31.92 0 0 0 45.14 0l66.6-66.6 22.6 22.6a16 16 0 0 0 22.57 0l67.7-67.7a16 16 0 0 0 0-22.57l-14.46-14.46 13.73-13.71c6-6 5.75-15.69.32-22.28-20.12-24.4-28.54-55.28-23.66-87.09 7.51-49.26 45.45-90.64 98.56-100.74a103.34 103.34 0 0 1 19.31-1.8 113.08 113.08 0 0 1 45.73 9.82c21 9.37 38.28 23 51 40.36a23.24 23.24 0 0 0 18.76 9.6 23.64 23.64 0 0 0 23.13-28.23zM200.05 402.29l-33.88-33.88-89.11 89.1-22.57-22.57 89.2-89-34.16-34.16 22.63-22.63 90.51 90.51-22.62 22.64zM372.89 80.43a151.56 151.56 0 0 0-28.24 2.64c-71.16 13.52-126.2 70-136.95 140.52a157.39 157.39 0 0 0 9.56 83l-44-44.49-2.9-16.75c-4.46-25.8-4-55.46 1.17-79.33 15.12-69.53 73.91-118.08 143-118.09 47.72 0 80.84 17.48 103.57 39.16a160.12 160.12 0 0 0-45.17-6.61z"/></svg>