<svg xmlns="http://www.w3.org/2000/svg" viewBox="0 0 576 512"><!-- Font Awesome Pro 5.15.4 by @fontawesome - https://fontawesome.com License - https://fontawesome.com/license (Commercial License) --><path d="M186.87 157.25l-11.37-11.11a16.44 16.44 0 0 0-24 1.3 168.83 168.83 0 0 0 0 217.12 16.44 16.44 0 0 0 24 1.3l11.37-11.11a15.14 15.14 0 0 0 1.29-20.53 122.72 122.72 0 0 1 0-156.44 15.15 15.15 0 0 0-1.29-20.53zM107.33 79.6L96 68.53a16.41 16.41 0 0 0-23.56 1C25.59 121 0 186.58 0 256s25.59 135 72.44 186.52a16.41 16.41 0 0 0 23.56 1l11.33-11.07c6.11-6 6.06-15.39.36-21.71a230.28 230.28 0 0 1 0-309.37c5.7-6.37 5.75-15.81-.36-21.77zm396.23-10.12a16.41 16.41 0 0 0-23.56-1L468.67 79.6c-6.11 6-6.06 15.39-.36 21.72a230.28 230.28 0 0 1 0 309.37c-5.7 6.32-5.75 15.75.36 21.71L480 443.47a16.41 16.41 0 0 0 23.56-1C550.41 391 576 325.42 576 256s-25.59-135-72.44-186.52zM288 200a56 56 0 1 0 56 56 56 56 0 0 0-56-56zm112.5-53.86l-11.37 11.11a15.15 15.15 0 0 0-1.29 20.53 122.72 122.72 0 0 1 0 156.44 15.15 15.15 0 0 0 1.29 20.53l11.37 11.11a16.44 16.44 0 0 0 24-1.3 168.83 168.83 0 0 0 0-217.12 16.44 16.44 0 0 0-24-1.3z"/></svg>