<svg xmlns="http://www.w3.org/2000/svg" viewBox="0 0 640 512"><!-- Font Awesome Pro 5.15.4 by @fontawesome - https://fontawesome.com License - https://fontawesome.com/license (Commercial License) --><path d="M633.99 471.02L36 3.51C29.1-2.01 19.03-.9 13.51 6l-10 12.49C-2.02 25.39-.9 35.46 6 40.98l598 467.51c6.9 5.52 16.96 4.4 22.49-2.49l10-12.49c5.52-6.9 4.41-16.97-2.5-22.49zM544 48h32v316.75l48 37.53V32c0-17.67-14.33-32-32-32h-64c-17.67 0-32 14.33-32 32v270.21l48 37.53V48zM384 176h32v63.66l48 37.53V160c0-17.67-14.33-32-32-32h-64c-17.67 0-32 14.33-32 32v17.12l48 37.53V176zM112 352H48c-17.67 0-32 14.33-32 32v96c0 17.67 14.33 32 32 32h64c17.67 0 32-14.33 32-32v-96c0-17.67-14.33-32-32-32zM96 464H64v-64h32v64zm320 0h-32v-66.58l-48-37.53V480c0 17.67 14.33 32 32 32h64c17.67 0 32-14.33 32-32v-20.03l-48-37.53V464zM176 288v192c0 17.67 14.33 32 32 32h64c17.67 0 32-14.33 32-32V334.88l-99.89-78.09c-15.75 2-28.11 14.92-28.11 31.21zm48 16h32v160h-32V304z"/></svg>