<svg xmlns="http://www.w3.org/2000/svg" viewBox="0 0 512 512"><!-- Font Awesome Pro 5.15.4 by @fontawesome - https://fontawesome.com License - https://fontawesome.com/license (Commercial License) --><path d="M496,288H400V256h64a16,16,0,0,0,16-16V224a16,16,0,0,0-16-16H384a32,32,0,0,0-32,32v48H280V88a40,40,0,0,1,44.17-39.79C345,50.33,360,69.43,360,90.35V112a16,16,0,0,0,16,16h16a16,16,0,0,0,16-16V88A88.09,88.09,0,0,0,311.22.43C265.5,4.88,232,46,232,91.9V288H160V240a32,32,0,0,0-32-32H48a16,16,0,0,0-16,16v16a16,16,0,0,0,16,16h64v32H16A16,16,0,0,0,0,304v16a16,16,0,0,0,16,16H32v80a96,96,0,0,0,96,96H384a96,96,0,0,0,96-96V336h16a16,16,0,0,0,16-16V304A16,16,0,0,0,496,288ZM432,416a48.05,48.05,0,0,1-48,48H128a48.05,48.05,0,0,1-48-48V336H432Z"/></svg>