<svg xmlns="http://www.w3.org/2000/svg" viewBox="0 0 448 512"><!-- Font Awesome Pro 5.15.4 by @fontawesome - https://fontawesome.com License - https://fontawesome.com/license (Commercial License) --><path d="M416,336,393.88,127.07A72,72,0,0,0,322.44,64H125.56a72,72,0,0,0-71.44,63.07L32,336h0A32,32,0,0,0,0,368v80a32,32,0,0,0,32,32H416a32,32,0,0,0,32-32V368A32,32,0,0,0,416,336ZM101.75,133a24,24,0,0,1,23.81-21H322.44a24,24,0,0,1,23.82,21l21.37,203H156.09l19.84-180.82a8,8,0,0,0-6.87-9l-15.86-2.13a7.79,7.79,0,0,0-1.07-.07,8,8,0,0,0-7.92,6.94L123.8,336H80.37ZM400,432H48V384H400Z"/></svg>