<svg xmlns="http://www.w3.org/2000/svg" viewBox="0 0 448 512"><!-- Font Awesome Pro 5.15.4 by @fontawesome - https://fontawesome.com License - https://fontawesome.com/license (Commercial License) --><path d="M400 0c-26.5 0-48 21.5-48 48s21.5 48 48 48 48-21.5 48-48-21.5-48-48-48zM152 144h103.1l-36.5 31.3c-11.8 10.1-18.9 24.8-19.5 40.4-.6 15.5 5.4 30.8 17.2 42.5l87.7 80V424c0 13.2 10.7 24 24 24s24-10.8 24-24v-89.4c0-10.5-4.3-20.8-12.5-29l-72.8-66.3 88.6-88.6c9.2-9.2 11.9-22.9 6.9-34.9s-16.6-19.7-29.6-19.7H152c-13.2 0-24 10.8-24 24s10.7 23.9 24 23.9zm35.5 129.4L85.9 375c-9.4 9.4-9.4 24.6 0 33.9 4.7 4.7 10.8 7 17 7s12.3-2.3 17-7L222 306.7l-28.4-25.9c-2.3-2.3-4-4.9-6.1-7.4zM400 448c-8.8 0-16 7.2-16 16s-7.2 16-16 16h-96c-8.8 0-16 7.2-16 16s7.2 16 16 16h96c26.5 0 48-21.5 48-48 0-8.8-7.2-16-16-16zm-282.2 8.6c-6.2 6.2-16.4 6.2-22.6 0l-67.9-67.9c-6.2-6.2-16.4-6.2-22.6 0s-6.2 16.4 0 22.6l67.9 67.9c9.3 9.4 21.7 14 33.9 14s24.6-4.7 33.9-14c6.2-6.2 6.2-16.4 0-22.6s-16.3-6.3-22.6 0z"/></svg>