<svg xmlns="http://www.w3.org/2000/svg" viewBox="0 0 512 512"><!-- Font Awesome Pro 5.15.4 by @fontawesome - https://fontawesome.com License - https://fontawesome.com/license (Commercial License) --><path d="M112 128c26.5 0 48-21.5 48-48s-21.5-48-48-48-48 21.5-48 48 21.5 48 48 48zM256 0h-32v216l32-8V0zm-64.4 381.4c12.6-4.2 19.4-17.8 15.2-30.4-4.2-12.6-17.7-19.5-30.4-15.2L158 342c-19 6.4-40-2.5-48.7-20.7l-63.6-133c-5.7-11.9-20-17-32-11.3-12 5.7-17 20-11.3 32L66 342c15 31.2 46.4 50 79.5 50 12.6 0 17-.9 46.1-10.6zM488 288c-13.2 0-24 10.8-24 24 0 13.9-8.8 26.5-21.8 31.3L312 391.5V256c0-15.8-15-27-29.8-23.3l-93.5 23.4-39.7-85.5c-7.4-16-26.3-23.1-42.5-15.6-12.6 5.8-24.1 24.2-15.7 42.5l47.3 100.6c4.8 10.5 16.5 16.1 27.6 13.2l98.2-24.5v122.5l-152.3 56.3c-12.4 4.6-18.8 18.4-14.2 30.8 3.6 9.7 12.8 15.7 22.5 15.7 2.8 0 5.6-.5 8.3-1.5l330.5-122.1c31.8-11.8 53.2-42.5 53.2-76.4.1-13.3-10.7-24.1-23.9-24.1z"/></svg>