<svg xmlns="http://www.w3.org/2000/svg" viewBox="0 0 512 512"><!-- Font Awesome Pro 5.15.4 by @fontawesome - https://fontawesome.com License - https://fontawesome.com/license (Commercial License) --><path d="M400 96c26.5 0 48-21.5 48-48S426.5 0 400 0s-48 21.5-48 48 21.5 48 48 48zm110.7 94.1c-2.2-13.1-14.8-22-27.7-19.7-13.1 2.2-21.9 14.6-19.7 27.7 3.3 19.3-6 38.9-22.1 48.1L169 386.4l50.5-122.6c.4-1.1 1.2-2.1 2-2.9l121.2-110.3c9.2-9.2 11.9-22.9 6.9-34.9S333 96 320 96H136c-13.3 0-24 10.8-24 24s10.8 24 24 24h113.7L181 233.4c-1.3 1.6-1.7 2-5.9 12.1l-53.3 129.4c-4.8 11.5.4 24.3 11.2 30.1L13 466.7c-11.8 6-16.4 20.5-10.3 32.3 4.3 8.3 12.7 13 21.4 13 3.7 0 7.4-.9 10.9-2.7l429.2-220.9c34.4-19.7 53.1-59.2 46.5-98.3z"/></svg>