<svg xmlns="http://www.w3.org/2000/svg" viewBox="0 0 576 512"><!-- Font Awesome Pro 5.15.4 by @fontawesome - https://fontawesome.com License - https://fontawesome.com/license (Commercial License) --><path d="M336 96c26.5 0 48-21.5 48-48S362.5 0 336 0s-48 21.5-48 48 21.5 48 48 48zm216 320c-13.2 0-24 10.7-24 24 0 13.2-10.8 24-24 24h-69.5l28.2-197.4c5.5-4.4 9.3-10.9 9.3-18.5 0-13.2-10.8-24-24-24h-49l-28.2-57.7c-11.3-23.1-32.4-40.6-56.6-46.7l-71.4-21.2c-25.6-6.2-52.6-.4-73.7 15.8l-39.7 30.4c-5.1 3.9-8.4 9.5-9.2 15.9-.8 5.8.8 11.5 4.1 16.4L66.9 464H24c-13.2 0-24 10.7-24 24s10.8 24 24 24h480c39.7 0 72-32.3 72-72 0-13.2-10.8-24-24-24zm-254.6 48H185.7l51.4-108.5-17.4-10.3c-8.6-5.1-15.8-11.5-22-18.8L132.6 464H99.5l56-279.8c1-.6 2.2-.8 3.1-1.5l39.7-30.4c7.1-5.5 15.9-8.5 24.4-8.5 2.6 0 5.2.3 7.6.9l23.8 7-41 95.7c-11 25.8-1.2 56 23 70.3l90.5 53.4-29.2 92.9zm104.7 0h-54.4l26.9-85.8c4.8-17.1-2.6-35.8-18.2-45.2l-67.1-39.6L329.8 192l28.2 57.6c6.7 13.6 20.8 22.4 35.9 22.4h35.5l-27.3 192z"/></svg>