<svg xmlns="http://www.w3.org/2000/svg" viewBox="0 0 640 512"><!-- Font Awesome Pro 5.15.4 by @fontawesome - https://fontawesome.com License - https://fontawesome.com/license (Commercial License) --><path d="M256,224.09a32,32,0,1,0,32,32A32,32,0,0,0,256,224.09Zm128,0a32,32,0,1,0,32,32A32,32,0,0,0,384,224.09ZM603.26,4.57a16,16,0,0,0-26.21,17c6.07,16.11,19.6,67.57,2.88,91.67C573.13,123,561.4,128,544,128l-73.1-.12a63.75,63.75,0,0,0-55-31.71H224a63.74,63.74,0,0,0-55,31.83H96C78.63,128,66.9,123,60.1,113.26,43.35,89.2,56.49,38.91,63,21.56a16,16,0,0,0-26.19-17C13.05,27.8,0,60.15,0,95.67c0,70.46,57.43,128.26,128,128.26H160v80.13a63.82,63.82,0,0,0,54.6,63l34.73,121.69A32,32,0,0,0,280.07,512h79.72a32,32,0,0,0,30.77-23.19l34.83-121.72a63.81,63.81,0,0,0,54.57-63V224l32-.08c70.59,0,128-57.81,128-128.26C640,60.16,627,27.81,603.26,4.57ZM432,304.06a15.78,15.78,0,0,1-13.64,15.57l-30.58,4.55-8.5,29.71L347.73,464H292.14L260.72,353.93l-8.5-29.76-30.61-4.54A15.79,15.79,0,0,1,208,304.06V160.11a16,16,0,0,1,16-16H416a16,16,0,0,1,16,16Z"/></svg>