<svg xmlns="http://www.w3.org/2000/svg" viewBox="0 0 448 512"><!-- Font Awesome Pro 5.15.4 by @fontawesome - https://fontawesome.com License - https://fontawesome.com/license (Commercial License) --><path d="M184 160c13.24 0 24-10.76 24-24s-10.76-24-24-24-24 10.76-24 24 10.76 24 24 24zm80 0c13.24 0 24-10.76 24-24s-10.76-24-24-24-24 10.76-24 24 10.76 24 24 24zm-128.15 68.54l-7.33 34.61c-2.67 12.62 5.42 24.85 16.45 24.85h158.08c11.03 0 19.12-12.23 16.45-24.85l-7.33-34.61C345.91 205.11 368 169.01 368 128 368 57.31 303.53 0 224 0S80 57.31 80 128c0 41.01 22.09 77.11 55.85 100.54zM224 48c52.94 0 96 35.89 96 80 0 23.3-12.84 45.57-35.21 61.1l-26.2 18.18 6.61 31.2.32 1.52h-83.03l.32-1.52 6.61-31.2-26.2-18.18C140.84 173.57 128 151.3 128 128c0-44.11 43.07-80 96-80zm214.7 418.95L284.31 400l154.39-66.95c8.03-3.71 11.53-13.21 7.82-21.24l-6.71-14.52c-3.71-8.02-13.21-11.52-21.23-7.82L224 373.85 29.42 289.48c-8.02-3.7-17.53-.2-21.23 7.82l-6.71 14.52c-3.71 8.02-.21 17.53 7.82 21.24L163.69 400 9.3 466.95c-8.03 3.7-11.53 13.21-7.82 21.24l6.71 14.52c3.71 8.02 13.21 11.52 21.23 7.82L224 426.15l194.58 84.37c8.02 3.7 17.53.2 21.23-7.82l6.71-14.52c3.71-8.02.21-17.53-7.82-21.23z"/></svg>