<svg xmlns="http://www.w3.org/2000/svg" viewBox="0 0 640 512"><!-- Font Awesome Pro 5.15.4 by @fontawesome - https://fontawesome.com License - https://fontawesome.com/license (Commercial License) --><path d="M612.7 350.7l-9.3-7.4c-6.9-5.5-17-4.4-22.5 2.5l-10 12.5c-5.5 6.9-4.4 17 2.5 22.5l9.3 7.4c5.9 4.7 9.2 11.7 9.2 19.2 0 13.6-11 24.6-24.6 24.6H440v-48c66.2 0 120-53.8 120-120V144h32c8.8 0 16-7.2 16-16v-16c0-8.8-7.2-16-16-16H432c-8.8 0-16 7.2-16 16v72c0 65.3-134.4 52.3-181.2-42.6C201.5 73.9 134.6 32 60.2 32H16C7.2 32 0 39.2 0 48v16c0 8.8 7.2 16 16 16h16v152c0 66.9 43.8 123.3 104 143.5V432H48c-8.8 0-16 7.2-16 16v16c0 8.8 7.2 16 16 16h516c39 0 73.7-29.3 75.9-68.3 1.4-23.8-8.7-46.3-27.2-61zM80 232V81.4c47.9 6.5 89.6 36.4 111.7 81.2C260.3 301.6 464 308.4 464 184v-40h48v120c0 39.7-32.3 72-72 72H184c-57.3 0-104-46.7-104-104zm312 200H184v-48h208v48z"/></svg>