<svg xmlns="http://www.w3.org/2000/svg" viewBox="0 0 448 512"><!-- Font Awesome Pro 5.15.4 by @fontawesome - https://fontawesome.com License - https://fontawesome.com/license (Commercial License) --><path d="M272 352h-24V16c0-8.8-7.2-16-16-16h-16c-8.8 0-16 7.2-16 16v336h-24c-8.8 0-16 7.2-16 16v32c0 8.8 7.2 16 16 16h24v80c0 8.8 7.2 16 16 16h16c8.8 0 16-7.2 16-16v-80h24c8.8 0 16-7.2 16-16v-32c0-8.8-7.2-16-16-16zM112 96H88V16c0-8.8-7.2-16-16-16H56c-8.8 0-16 7.2-16 16v80H16c-8.8 0-16 7.2-16 16v32c0 8.8 7.2 16 16 16h24v336c0 8.8 7.2 16 16 16h16c8.8 0 16-7.2 16-16V160h24c8.8 0 16-7.2 16-16v-32c0-8.8-7.2-16-16-16zm320 128h-24V16c0-8.8-7.2-16-16-16h-16c-8.8 0-16 7.2-16 16v208h-24c-8.8 0-16 7.2-16 16v32c0 8.8 7.2 16 16 16h24v208c0 8.8 7.2 16 16 16h16c8.8 0 16-7.2 16-16V288h24c8.8 0 16-7.2 16-16v-32c0-8.8-7.2-16-16-16z"/></svg>