<svg xmlns="http://www.w3.org/2000/svg" viewBox="0 0 640 512"><!-- Font Awesome Pro 5.15.4 by @fontawesome - https://fontawesome.com License - https://fontawesome.com/license (Commercial License) --><path d="M624 368H80c-8.8 0-16 7.2-16 16v16c0 8.8 7.2 16 16 16h544c8.8 0 16-7.2 16-16v-16c0-8.8-7.2-16-16-16zm-480 96H16c-8.8 0-16 7.2-16 16v16c0 8.8 7.2 16 16 16h128c8.8 0 16-7.2 16-16v-16c0-8.8-7.2-16-16-16zm416 0H224c-8.8 0-16 7.2-16 16v16c0 8.8 7.2 16 16 16h336c8.8 0 16-7.2 16-16v-16c0-8.8-7.2-16-16-16zM144 288h113c28 21 60.7 32 95 32s67.1-11 95-32h65c70.6 0 128-57.4 128-128S582.6 32 512 32c-17.8 0-35.4 3.8-51.7 11C430.8 15.5 392.2 0 352 0c-40.1 0-77.7 14.9-106.9 41.5C218.4 15.2 182.3 0 144 0 64.6 0 0 64.6 0 144s64.6 144 144 144zm0-240c25.4 0 49.3 9.8 67.3 27.7l32.4 32L277.4 77c20.5-18.7 47-29 74.6-29 27.9 0 54.7 10.7 75.6 30.1l23.2 21.7 29-12.9c10.3-4.6 21.1-6.9 32.2-6.9 44.1 0 80 35.9 80 80s-35.9 80-80 80h-81l-12.8 9.6C398.4 264.5 376.1 272 352 272s-46.4-7.5-66.2-22.4L273 240H144c-52.9 0-96-43.1-96-96s43.1-96 96-96z"/></svg>