<svg xmlns="http://www.w3.org/2000/svg" viewBox="0 0 512 512"><!-- Font Awesome Pro 5.15.4 by @fontawesome - https://fontawesome.com License - https://fontawesome.com/license (Commercial License) --><path d="M135.4 218.5c-1.4-1.2-2.1-2.5-2.1-3.8 0-3.1 4.5-6.6 10.4-6.6H156c4.4 0 8-3.6 8-8v-16c0-4.4-3.6-8-8-8h-12.2c-23.4 0-42.4 17.3-42.4 38.6 0 10.7 4.9 20.9 13.3 28.1l21.9 18.8c1.4 1.2 2.1 2.5 2.1 3.8 0 3.1-4.5 6.6-10.4 6.6H116c-4.4 0-8 3.6-8 8v16c0 4.4 3.6 8 8 8h12.3c23.4 0 42.4-17.3 42.4-38.6 0-10.7-4.9-20.9-13.3-28.1l-22-18.8zM304 176h-16c-6.1 0-11.6 3.4-14.3 8.8L256 220.2l-17.7-35.4c-2.7-5.4-8.2-8.8-14.3-8.8h-16c-8.8 0-16 7.2-16 16v104c0 4.4 3.6 8 8 8h16c4.4 0 8-3.6 8-8v-68.2l24.8 55.8c2.9 5.9 11.4 5.9 14.3 0l24.8-55.8V296c0 4.4 3.6 8 8 8h16c4.4 0 8-3.6 8-8V192c.1-8.8-7.1-16-15.9-16zm71.4 42.5c-1.4-1.2-2.1-2.5-2.1-3.8 0-3.1 4.5-6.6 10.4-6.6H396c4.4 0 8-3.6 8-8v-16c0-4.4-3.6-8-8-8h-12.3c-23.4 0-42.4 17.3-42.4 38.6 0 10.7 4.9 20.9 13.3 28.1l21.9 18.8c1.4 1.2 2.1 2.5 2.1 3.8 0 3.1-4.5 6.6-10.4 6.6H356c-4.4 0-8 3.6-8 8v16c0 4.4 3.6 8 8 8h12.3c23.4 0 42.4-17.3 42.4-38.6 0-10.7-4.9-20.9-13.3-28.1l-22-18.8zM256 32C114.6 32 0 125.1 0 240c0 47.6 19.9 91.2 52.9 126.3C38 405.7 7 439.1 6.5 439.5c-6.6 7-8.4 17.2-4.6 26C5.7 474.3 14.4 480 24 480c61.5 0 110-25.7 139.1-46.3C192 442.8 223.2 448 256 448c141.4 0 256-93.1 256-208S397.4 32 256 32zm0 368c-26.7 0-53.1-4.1-78.4-12.1l-22.7-7.2-19.5 13.8c-14.3 10.1-33.9 21.4-57.5 29 7.3-12.1 14.4-25.7 19.9-40.2l10.6-28.1-20.6-21.8C69.7 314.1 48 282.2 48 240c0-88.2 93.3-160 208-160s208 71.8 208 160-93.3 160-208 160z"/></svg>