<svg xmlns="http://www.w3.org/2000/svg" viewBox="0 0 448 512"><!-- Font Awesome Pro 5.15.4 by @fontawesome - https://fontawesome.com License - https://fontawesome.com/license (Commercial License) --><path d="M288 29V16a16 16 0 0 0-16-16H160a16 16 0 0 0-16 16v16a16 16 0 0 0 16 16h58.12l-82.2 93.94A32 32 0 0 0 128 163v13a16 16 0 0 0 16 16h112a16 16 0 0 0 16-16v-16a16 16 0 0 0-16-16h-58.13l82.21-93.94A32 32 0 0 0 288 29zm-88 227H32a16 16 0 0 0-16 16v32a16 16 0 0 0 16 16h99.34L9.53 440.06A32.09 32.09 0 0 0 0 462.86V488a24 24 0 0 0 24 24h184a16 16 0 0 0 16-16v-32a16 16 0 0 0-16-16H92.66l121.81-120.06a32.09 32.09 0 0 0 9.53-22.8V280a24 24 0 0 0-24-24zm232-32H320a16 16 0 0 0-16 16v16a16 16 0 0 0 16 16h58.12l-82.2 93.94A32 32 0 0 0 288 387v13a16 16 0 0 0 16 16h112a16 16 0 0 0 16-16v-16a16 16 0 0 0-16-16h-58.13l82.21-93.94A32 32 0 0 0 448 253v-13a16 16 0 0 0-16-16z"/></svg>