<svg xmlns="http://www.w3.org/2000/svg" viewBox="0 0 512 512"><!-- Font Awesome Pro 5.15.4 by @fontawesome - https://fontawesome.com License - https://fontawesome.com/license (Commercial License) --><path d="M432 96c26.5 0 48-21.5 48-48S458.5 0 432 0s-48 21.5-48 48 21.5 48 48 48zm41.4 155c4.3 3.3 9.5 5 14.6 5 7.2 0 14.3-3.2 19.1-9.4 8.1-10.5 6.1-25.6-4.4-33.7L383 121.3c-13.1-9.8-27.6-17.4-43.2-22.6l-67-22.4-35.9-64C230.4.8 215.7-3.4 204.2 3.1c-11.6 6.5-15.7 21.1-9.2 32.7l36.5 65.1c4.8 9.5 13 16.6 23.1 20l34.8 11.6-58.4 29.2c-19.1 9.5-31 28.7-31 50.1v54.9c0 3.2-1.9 6.1-4.9 7.4l-76.3 31.8c-12.2 5.1-18 19.2-12.9 31.4 1.2 3 3.1 5.4 5.3 7.5l-43.6-15.9c-9.7-3.5-17.4-10.6-21.8-20-5.6-12-19.9-17.3-31.9-11.6-12 5.6-17.2 19.9-11.6 31.9 9.8 21 27.1 36.8 48.8 44.8l364.8 132.8c9.7 3.5 19.7 5.3 29.7 5.3 12.5 0 24.9-2.7 36.5-8.2 12-5.6 17.2-19.9 11.6-31.9s-19.9-17.2-31.9-11.6c-9.3 4.3-19.8 4.8-29.5 1.3l-103.8-37.8c10.8-.3 20.5-7.8 22.9-18.9l21.8-102c3.2-15.2-2.7-31.1-15.1-40.4l-62.7-47 82.2-37.9 95.8 73.3zm-148.1 47l-20.8 97c-1.9 9 1.7 17.7 8.2 23.2l-182.8-66.5c2.5-.2 4.9-.5 7.3-1.5l76.3-31.8c20.9-8.7 34.4-29 34.4-51.7V240l77.4 58z"/></svg>