<svg xmlns="http://www.w3.org/2000/svg" viewBox="0 0 640 512"><!-- Font Awesome Pro 5.15.4 by @fontawesome - https://fontawesome.com License - https://fontawesome.com/license (Commercial License) --><path d="M350.4 105.4l-12.1-21c-3.4-5.8-10.8-7.8-16.6-4.4l-26.6 15.3 5.5-20.4c1.7-6.5-2.1-13.1-8.6-14.9l-11.7-3.1c-6.5-1.7-13.1 2.1-14.9 8.6l-15 55.5-50.4 29.1V93.2L240.2 53c4.7-4.7 4.7-12.3 0-17l-8.5-8.5c-4.7-4.7-12.3-4.7-17 0L200 42.3V12c0-6.6-5.4-12-12-12h-24c-6.6 0-12 5.4-12 12v30.3l-14.8-14.8c-4.7-4.7-12.3-4.7-17 0l-8.5 8.5c-4.7 4.7-4.7 12.3 0 17L152 93.2v56.9L101.6 121l-15-55.7c-1.7-6.5-8.4-10.3-14.9-8.6L60 59.9c-6.5 1.7-10.3 8.4-8.6 14.9l5.5 20.4-26.5-15.3c-5.8-3.4-13.2-1.4-16.6 4.4l-12.1 21c-3.4 5.8-1.4 13.2 4.4 16.6l26.6 15.3-20.4 5.5c-6.5 1.7-10.3 8.4-8.6 14.9l3.1 11.7c1.7 6.5 8.4 10.3 14.9 8.6L77.3 163l50.2 29-50.2 29-55.7-15c-6.5-1.7-13.1 2.1-14.9 8.6l-3.1 11.7c-1.7 6.5 2.1 13.1 8.6 14.9l20.4 5.5-26.5 15.4c-5.8 3.4-7.8 10.8-4.4 16.6l12.1 21c3.4 5.8 10.8 7.8 16.6 4.4L57 288.8l-5.5 20.4c-1.7 6.5 2.1 13.1 8.6 14.9l11.7 3.1c6.5 1.7 13.1-2.1 14.9-8.6l14.9-55.6 50.4-29.1v56.9L111.8 331c-4.7 4.7-4.7 12.3 0 17l8.5 8.5c4.7 4.7 12.3 4.7 17 0l14.8-14.8V372c0 6.6 5.4 12 12 12h24c6.6 0 12-5.4 12-12v-30.3l14.8 14.8c4.7 4.7 12.3 4.7 17 0l8.5-8.5c4.7-4.7 4.7-12.3 0-17L200 290.8v-56.9l50.4 29.1 14.9 55.6c1.7 6.5 8.4 10.3 14.9 8.6l11.7-3.1c6.5-1.7 10.3-8.4 8.6-14.9l-5.5-20.4 26.6 15.3c5.8 3.4 13.2 1.4 16.6-4.4l12.1-21c3.4-5.8 1.4-13.2-4.4-16.6l-26.6-15.3 20.4-5.5c6.5-1.7 10.3-8.4 8.6-14.9l-3.1-11.7c-1.7-6.5-8.4-10.3-14.9-8.6L274.7 221l-50.2-29 50.2-29 55.6 14.9c6.5 1.7 13.1-2.1 14.9-8.6l3.1-11.7c1.7-6.5-2.1-13.1-8.6-14.9l-20.4-5.5 26.6-15.3c5.8-3.3 7.8-10.7 4.5-16.5zM544 320H368c-8.8 0-16 7.2-16 16v16c0 8.8 7.2 16 16 16h176c31.4 0 55.9 30.3 45.6 63.3-4.4 14.3-16.1 25.9-30.4 30.4-28.5 8.9-55.1-8.3-61.7-33.5-1.8-6.9-7.5-12.1-14.7-12.1h-18.4c-9.2 0-16.6 8.2-14.9 17.2 9.3 51.2 59.2 88.3 115.1 76.6 36.3-7.6 65.6-36.9 73.2-73.2 13-62.1-34-116.7-93.8-116.7zm-144-32h144c59.8 0 106.8-54.6 93.8-116.6-7.6-36.3-36.9-65.6-73.2-73.2-55.9-11.7-105.8 25.4-115.1 76.6-1.6 9 5.8 17.2 14.9 17.2h18.4c7.2 0 12.9-5.2 14.7-12.1 6.6-25.2 33.2-42.4 61.7-33.5 14.3 4.5 25.9 16.1 30.4 30.4 10.2 32.9-14.2 63.3-45.6 63.3H400c-8.8 0-16 7.2-16 16v16c0 8.7 7.2 15.9 16 15.9z"/></svg>