<svg xmlns="http://www.w3.org/2000/svg" viewBox="0 0 512 512"><!-- Font Awesome Pro 5.15.4 by @fontawesome - https://fontawesome.com License - https://fontawesome.com/license (Commercial License) --><path d="M384,64a32,32,0,1,0-32-32A32,32,0,0,0,384,64ZM208,96a48,48,0,1,0-48-48A48,48,0,0,0,208,96Zm208,96H398.39a80,80,0,1,0-156.78,0H96A96,96,0,0,0,0,288V416a96,96,0,0,0,96,96H416a96,96,0,0,0,96-96V288A96,96,0,0,0,416,192Zm-96-48a32,32,0,1,1-32,32A32,32,0,0,1,320,144ZM464,416a48.05,48.05,0,0,1-48,48H96a48.05,48.05,0,0,1-48-48V288a48.05,48.05,0,0,1,48-48H272.94c13.27,9.77,29.32,16,47.06,16s33.79-6.23,47.06-16H416a48.05,48.05,0,0,1,48,48ZM352,288H160a64,64,0,0,0,0,128H352a64,64,0,0,0,0-128Zm0,96H160a32,32,0,0,1,0-64H352a32,32,0,0,1,0,64Z"/></svg>