<svg xmlns="http://www.w3.org/2000/svg" viewBox="0 0 512 512"><!-- Font Awesome Pro 5.15.4 by @fontawesome - https://fontawesome.com License - https://fontawesome.com/license (Commercial License) --><path d="M448 0h-95.83c-11.89 0-22.88 3.44-32.42 9.06C310.34 3.6 299.68 0 288 0h-95.83c-35.32 0-63.96 28.46-64 63.78C128.1 137.27 128 248 128 248l-79.77 59.39c-45.97 34.49-62.82 98.49-34.06 148.25C35.46 492.47 73.2 512 111.49 512c23.38 0 47.57-7.3 67.7-22.41l13.76-10.32c21.47 21.46 50.13 32.72 79.15 32.72 23.38 0 46.97-7.3 67.09-22.41l121.61-91.2a128.006 128.006 0 0 0 51.21-102.4V64C512 28.65 483.35 0 448 0zm-95.83 48H448c8.82 0 16 7.18 16 16v32H336.14l.03-32.17c.01-8.73 7.19-15.83 16-15.83zm-160 0H288c.8 0 1.5.29 2.26.43-1.23 4.94-2.08 10.03-2.08 15.36l-.03 32.22h-112l.03-32.17c0-8.74 7.18-15.84 15.99-15.84zm-80.68 416c-23.2 0-44.04-12.11-55.76-32.38-15.79-27.32-6.43-65.02 21.31-85.83l98.94-73.77.12-128.02h112c-.05 54.65-.1 104-.1 104l-79.16 59.39c-40.9 30.68-58.54 84.68-41.72 131.26l-16.74 12.55c-11.16 8.38-25 12.8-38.89 12.8zM432 360l-121.63 91.21c-11.15 8.37-24.38 12.79-38.28 12.79-23.2 0-44.04-12.11-55.76-32.38-15.79-27.32-6.43-65.02 21.31-85.83l98.34-73.77.12-128.02H464v151.99c0 25.05-11.96 48.98-32 64.01z"/></svg>