<svg xmlns="http://www.w3.org/2000/svg" viewBox="0 0 640 512"><!-- Font Awesome Pro 5.15.4 by @fontawesome - https://fontawesome.com License - https://fontawesome.com/license (Commercial License) --><path d="M585.24 26.74C582.62 11.31 569.02 0 553.09 0H86.91C70.98 0 57.38 11.31 54.76 26.74l-54.31 320C-2.86 366.24 12.46 384 32.6 384H224v80.24l-31.98.03c-8.82.01-15.97 7.16-15.98 15.98l-.04 15.73c-.01 8.85 7.17 16.03 16.02 16.02l255.94-.26c8.82-.01 15.97-7.16 15.98-15.98l.04-15.72c.01-8.85-7.17-16.03-16.02-16.02l-31.96.03V384h191.4c20.14 0 35.46-17.76 32.14-37.26l-54.3-320zM558.3 160H436.91l-11.2-112h113.58l19.01 112zm-306.99 0l11.2-112h114.97l11.2 112H251.31zm142.18 48l12.8 128H233.71l12.8-128h146.98zM100.71 48h113.58l-11.2 112H81.7l19.01-112zM73.55 208h124.73l-12.8 128H51.83l21.72-128zM368 464.1l-96 .1V384h96v80.1zM454.51 336l-12.8-128h124.73l21.72 128H454.51z"/></svg>