<svg xmlns="http://www.w3.org/2000/svg" viewBox="0 0 512 512"><!-- Font Awesome Pro 5.15.4 by @fontawesome - https://fontawesome.com License - https://fontawesome.com/license (Commercial License) --><path d="M391.77844,120.23438c-16.64243-16.64063-42.05926-17.63672-60.76247-4.73047C307.55639,102.98633,281.92079,96,256,96A160,160,0,1,0,369.149,369.13672c51.02312-51.01758,59.65883-127.62891,27.36235-188.14453C409.421,162.291,408.42283,136.877,391.77844,120.23438ZM346.51961,346.50977a128.50726,128.50726,0,1,1-34.23614-204.94141c-4.41455,16.09375-1.03918,33.90625,11.60673,46.54883,12.644,12.64453,30.45839,16.01953,46.55389,11.60547a126.334,126.334,0,0,1-23.92448,146.78711ZM256,176a80,80,0,1,0,80.0087,80A80.08848,80.08848,0,0,0,256,176Zm0,112a32,32,0,1,1,32.00348-32A32.03339,32.03339,0,0,1,256,288Zm80.90528,159.67773a208.24661,208.24661,0,0,1-227.9994-44.59961C39.328,333.50781,29.62381,226.59766,79.41829,146.38672a56.05613,56.05613,0,1,0-37.799-30.34375c-64.97,99.2832-53.88672,233.75781,33.34152,320.97656A255.17414,255.17414,0,0,0,364.422,487.65039c-2.19165-1.80273-4.5376-3.32812-6.58665-5.377A86.91321,86.91321,0,0,1,336.90528,447.67773ZM437.03922,74.98047A255.17108,255.17108,0,0,0,147.58,24.34961c2.19165,1.80273,4.53761,3.32812,6.5847,5.375a86.87534,86.87534,0,0,1,20.93,34.59766,208.24661,208.24661,0,0,1,227.9994,44.59961c69.57593,69.56835,79.28011,176.47851,29.48759,256.68945a56.05819,56.05819,0,1,0,37.799,30.3457C535.3507,296.67383,524.26746,162.19922,437.03922,74.98047Z"/></svg>