<svg xmlns="http://www.w3.org/2000/svg" viewBox="0 0 448 512"><!-- Font Awesome Pro 5.15.4 by @fontawesome - https://fontawesome.com License - https://fontawesome.com/license (Commercial License) --><path d="M164 384h-44V48a16 16 0 0 0-16-16H88a16 16 0 0 0-16 16v336H28a12 12 0 0 0-8.73 20.24l68 72a12 12 0 0 0 17.45 0l68-72A12 12 0 0 0 164 384zm100-160h144a24 24 0 0 0 24-24V56a24 24 0 0 0-24-24H264a24 24 0 0 0-24 24v144a24 24 0 0 0 24 24zm24-144h96v96h-96zm156.1 358.86L361 301.71a29.56 29.56 0 0 0-49.9 0l-83.2 137.15c-11.08 18.28 2.77 41.14 24.95 41.14h166.3c22.18 0 36.03-22.86 24.95-41.14zM288.19 432L336 353.14 383.81 432z"/></svg>