<svg xmlns="http://www.w3.org/2000/svg" viewBox="0 0 512 512"><!-- Font Awesome Pro 5.15.4 by @fontawesome - https://fontawesome.com License - https://fontawesome.com/license (Commercial License) --><path d="M350.88,26.94A247.21,247.21,0,0,0,256.1,8C158.8,8,66.49,65.64,26.94,161.12c-52.4,126.51,7.67,271.54,134.18,323.94A247.21,247.21,0,0,0,255.9,504c97.3,0,189.61-57.64,229.16-153.12C537.46,224.37,477.39,79.34,350.88,26.94Zm89.84,305.57A199.74,199.74,0,0,1,179.49,440.72C77.64,398.53,29.09,281.34,71.28,179.49A199.74,199.74,0,0,1,332.51,71.28C434.37,113.47,482.9,230.66,440.72,332.51ZM164.75,224H347.11c16.4,0,24.59-19.85,13-31.41L269,101.41a18.31,18.31,0,0,0-26,0l-91.25,91.18C140.16,204.15,148.35,224,164.75,224Zm182.36,64H164.75c-16.4,0-24.59,19.85-13,31.41L243,410.59a18.31,18.31,0,0,0,26,0l91.18-91.18C371.7,307.85,363.52,288,347.11,288ZM256,378.33,197.59,320H314.3Z"/></svg>