<svg xmlns="http://www.w3.org/2000/svg" viewBox="0 0 448 512"><!-- Font Awesome Pro 5.15.4 by @fontawesome - https://fontawesome.com License - https://fontawesome.com/license (Commercial License) --><path d="M400 176h-24V48a16 16 0 0 0-16-16h-36a16 16 0 0 0-13.57 7.52l-20 32A16 16 0 0 0 304 96h24v80h-24a16 16 0 0 0-16 16v16a16 16 0 0 0 16 16h96a16 16 0 0 0 16-16v-16a16 16 0 0 0-16-16zm-56 80a72 72 0 0 0 0 144 71.1 71.1 0 0 0 18.84-2.82 59.56 59.56 0 0 1-42.32 34.42A15.84 15.84 0 0 0 308 447.16v16.77a16 16 0 0 0 18.71 15.83A108.19 108.19 0 0 0 416 373.38V328a72.08 72.08 0 0 0-72-72zm0 96a24 24 0 1 1 24-24 24 24 0 0 1-24 24zM28 128h44v336a16 16 0 0 0 16 16h16a16 16 0 0 0 16-16V128h44a12 12 0 0 0 8.73-20.24l-68-72a12 12 0 0 0-17.44 0l-68 72A12 12 0 0 0 28 128z"/></svg>