<svg xmlns="http://www.w3.org/2000/svg" viewBox="0 0 448 512"><!-- Font Awesome Pro 5.15.4 by @fontawesome - https://fontawesome.com License - https://fontawesome.com/license (Commercial License) --><path d="M288 224h128a16 16 0 0 0 16-16v-16a16 16 0 0 0-16-16h-77.11L423 89.29A32 32 0 0 0 432 67V48a16 16 0 0 0-16-16H288a16 16 0 0 0-16 16v16a16 16 0 0 0 16 16h77.11L281 166.69a32 32 0 0 0-9 22.31v19a16 16 0 0 0 16 16zm159.17 234.94l-61.05-160A16 16 0 0 0 371 288h-38a15.92 15.92 0 0 0-15.1 10.94l-61.06 160a16 16 0 0 0 15.1 21.06h16.78a15.93 15.93 0 0 0 15.11-10.94L314.35 440h75.3l10.52 29.06A15.93 15.93 0 0 0 415.28 480h16.78a16 16 0 0 0 15.11-21.06zM331.73 392L352 336l20.27 56zm-227-356.24a12 12 0 0 0-17.44 0l-68 72A12 12 0 0 0 28 128h44v336a16 16 0 0 0 16 16h16a16 16 0 0 0 16-16V128h44a12 12 0 0 0 8.73-20.24z"/></svg>