<svg xmlns="http://www.w3.org/2000/svg" viewBox="0 0 512 512"><!-- Font Awesome Pro 5.15.4 by @fontawesome - https://fontawesome.com License - https://fontawesome.com/license (Commercial License) --><path d="M244 192h184a20 20 0 0 0 20-20V52a20 20 0 0 0-20-20H244a20 20 0 0 0-20 20v120a20 20 0 0 0 20 20zm28-112h128v64H272zm212 176H252a28 28 0 0 0-28 28v168a28 28 0 0 0 28 28h232a28 28 0 0 0 28-28V284a28 28 0 0 0-28-28zm-20 176H272V304h192zm-300-48h-44V48a16 16 0 0 0-16-16H88a16 16 0 0 0-16 16v336H28a12 12 0 0 0-8.73 20.24l68 72a12 12 0 0 0 17.44 0l68-72A12 12 0 0 0 164 384z"/></svg>