<svg xmlns="http://www.w3.org/2000/svg" viewBox="0 0 448 512"><!-- Font Awesome Pro 5.15.4 by @fontawesome - https://fontawesome.com License - https://fontawesome.com/license (Commercial License) --><path d="M104.72 35.76a12 12 0 0 0-17.45 0l-68 72A12 12 0 0 0 28 128h44v336a16 16 0 0 0 16 16h16a16 16 0 0 0 16-16V128h44a12 12 0 0 0 8.73-20.24zm339.38 147.1L361 45.71a29.56 29.56 0 0 0-49.9 0l-83.2 137.15c-11.08 18.28 2.77 41.14 24.95 41.14h166.3c22.18 0 36.03-22.86 24.95-41.14zM288.19 176L336 97.14 383.81 176zM408 288H264a24 24 0 0 0-24 24v144a24 24 0 0 0 24 24h144a24 24 0 0 0 24-24V312a24 24 0 0 0-24-24zm-24 144h-96v-96h96z"/></svg>