<svg xmlns="http://www.w3.org/2000/svg" viewBox="0 0 512 512"><!-- Font Awesome Pro 5.15.4 by @fontawesome - https://fontawesome.com License - https://fontawesome.com/license (Commercial License) --><path d="M303.06 146.5a16.23 16.23 0 0 0 16 13.5h16.5c9.8 0 17.6-8.5 16.3-18a130.72 130.72 0 0 0-36.6-74.7 94.83 94.83 0 0 1-26.4-53.5A16.11 16.11 0 0 0 272.76 0h-16.4c-9.8 0-17.5 8.5-16.3 18a145.36 145.36 0 0 0 40.6 84.4 81.22 81.22 0 0 1 22.4 44.1zM480 192H32a32 32 0 0 0-32 32c0 94.7 51.56 177.16 128 221.45V480a32 32 0 0 0 32 32h192a32 32 0 0 0 32-32v-34.55C460.44 401.16 512 318.7 512 224a32 32 0 0 0-32-32zM336 417.78V464H176v-46.22C108.46 378.65 55.73 330.7 48.62 240h414.76c-6.97 88.93-57.97 137.57-127.38 177.78zM191.11 146.5a16.23 16.23 0 0 0 16 13.5h16.5c9.8 0 17.6-8.5 16.3-18a130.72 130.72 0 0 0-36.6-74.7 94.83 94.83 0 0 1-26.4-53.5A16.11 16.11 0 0 0 160.81 0h-16.4a16.31 16.31 0 0 0-16.3 18 145.36 145.36 0 0 0 40.6 84.4 81.22 81.22 0 0 1 22.4 44.1z"/></svg>