<svg xmlns="http://www.w3.org/2000/svg" viewBox="0 0 640 512"><!-- Font Awesome Pro 5.15.4 by @fontawesome - https://fontawesome.com License - https://fontawesome.com/license (Commercial License) --><path d="M456 168C248 168 266.989 32 96 32c-44.665 0-66.4 24.39-66.4 64v56C9.056 152 0 162.568 0 176v48c0 12.834 8.412 24 29.6 24v16C9.056 264 0 274.568 0 288v48c0 12.834 8.412 24 29.6 24v56c0 39.602 21.727 64 66.4 64 171.029 0 152-136 360-136 96 0 184-33.5 184-88 0-51-88-88-184-88zM115.417 80C181.277 80 240 144 288 168H144c-13.999-9.503-31.155-16-48-16V80h19.417zm0 352H96v-72c16.845 0 34.001-6.497 48-16h144c-48 24-97.487 88-172.583 88zM456 304H168.786c9.396-29.293 9.843-65.315 0-96H456c39.888 0 76.728 3.778 103.734 16 .09.041.09 63.959 0 64-27.006 12.222-63.846 16-103.734 16zm24.242-11.429a8 8 0 0 1-8-8v-57.143a8 8 0 0 1 8-8c42.384.001 42.303 73.143 0 73.143z"/></svg>