<svg xmlns="http://www.w3.org/2000/svg" viewBox="0 0 512 512"><!-- Font Awesome Pro 5.15.4 by @fontawesome - https://fontawesome.com License - https://fontawesome.com/license (Commercial License) --><path d="M256,8C119.0332,8,8,119.0332,8,256S119.0332,504,256,504,504,392.9668,504,256,392.9668,8,256,8ZM176,112a32,32,0,1,1-32,32A32.03667,32.03667,0,0,1,176,112ZM96.87305,135.3418A78.62147,78.62147,0,0,0,96,144a80.0001,80.0001,0,1,0,97.62891-77.9082A198.97376,198.97376,0,0,1,256,56c110.28125,0,200,89.71875,200,200a199.64027,199.64027,0,0,1-2.77734,31.80078A504.546,504.546,0,0,1,256,328,502.908,502.908,0,0,1,58.7207,287.4375,195.37013,195.37013,0,0,1,96.87305,135.3418ZM256,456c-77.77148,0-145.14844-44.71484-178.21484-109.69727A551.90154,551.90154,0,0,0,256,376a556.10146,556.10146,0,0,0,178.08594-29.43359C400.97266,411.4082,333.666,456,256,456Z"/></svg>