<svg xmlns="http://www.w3.org/2000/svg" viewBox="0 0 512 512"><!-- Font Awesome Pro 5.15.4 by @fontawesome - https://fontawesome.com License - https://fontawesome.com/license (Commercial License) --><path d="M256 48s174.6 167.3 192.2 192c10 14.1 15.9 31.4 15.8 50.1-.3 47.1-39.5 84.8-86.6 84.8h-.8c-38.1-.3-48.9-6-78.4-36.2-1.2-1.3-2.7-1.8-4.2-1.8-3.1 0-6 2.4-6 6V360c0 37.7-2.3 48.8 24.7 82.9 6.8 8.5.7 21.1-10.2 21.1h-93.2c-10.9 0-16.9-12.6-10.2-21.1 27-34 24.7-45.2 24.7-82.9v-17.1c0-3.6-3-6-6-6-1.5 0-3 .6-4.2 1.8-29.2 29.9-40.1 35.8-78.3 36.2h-.8c-47.2 0-86.4-37.8-86.6-85.1-.1-18.7 5.9-36 16-50.1C81.6 215.2 256 48 256 48m0-48c-12 0-23.9 4.5-33.2 13.4-.4.4-44.3 42.5-89.8 87C38.5 193 29.4 205.6 25 211.7c-16.5 22.9-25.1 50-25 78.2.3 73.3 60.6 132.9 134.6 132.9h1.2c7-.1 13.6-.3 20-.8-3.9 7.2-6.3 15.2-7.1 23.5-1 11 1 22.1 5.9 32 4.8 10 12.2 18.4 21.4 24.5 9.9 6.5 21.5 10 33.5 10h93.2c12 0 23.6-3.5 33.5-10 9.2-6.1 16.6-14.5 21.4-24.5 4.8-10 6.8-21 5.9-32-.7-8.3-3.2-16.2-7.1-23.5 6.4.5 13 .8 20 .8h1.2c35.4 0 68.9-13.6 94.3-38.3 25.7-25 40-58.5 40.3-94.1.2-28.2-8.3-55.3-24.7-78.3-4.4-6.1-13.5-18.9-108.2-111.7-45.5-44.6-89.4-86.7-89.9-87.1C279.9 4.4 268 0 256 0z"/></svg>