<svg xmlns="http://www.w3.org/2000/svg" viewBox="0 0 640 512"><!-- Font Awesome Pro 5.15.4 by @fontawesome - https://fontawesome.com License - https://fontawesome.com/license (Commercial License) --><path d="M448 176a48 48 0 1 0-48-48 48 48 0 0 0 48 48zm0 256a112 112 0 1 0-112-112 112 112 0 0 0 112 112zm0-176a64 64 0 1 1-64 64 64 64 0 0 1 64-64zM592 0H304a48 48 0 0 0-48 48v416a48 48 0 0 0 48 48h288a48 48 0 0 0 48-48V48a48 48 0 0 0-48-48zm0 464H304V48h288zM224 92.46a48 48 0 1 0 0 71.08zM192 256a63.33 63.33 0 0 1 32 8.88V213.2c-10.2-3.06-20.8-5.2-32-5.2a112 112 0 0 0 0 224c11.2 0 21.8-2.14 32-5.2v-51.68a63.33 63.33 0 0 1-32 8.88 64 64 0 0 1 0-128zM240.41 0H48A48 48 0 0 0 0 48v416a48 48 0 0 0 48 48h192.41A79.24 79.24 0 0 1 224 464H48V48h176a79.24 79.24 0 0 1 16.41-48z"/></svg>