<svg xmlns="http://www.w3.org/2000/svg" viewBox="0 0 512 512"><!-- Font Awesome Pro 5.15.4 by @fontawesome - https://fontawesome.com License - https://fontawesome.com/license (Commercial License) --><path d="M507.45 239.54l-10.99-10.99c-6.07-6.07-15.91-6.07-21.98 0L432 271.03l-42.47-42.47c-6.07-6.07-15.91-6.07-21.98 0l-10.99 10.99c-6.07 6.07-6.07 15.91 0 21.98L399.03 304l-42.47 42.47c-6.07 6.07-6.07 15.91 0 21.98l10.99 10.99c6.07 6.07 15.91 6.07 21.98 0L432 336.97l42.47 42.47c6.07 6.07 15.91 6.07 21.98 0l10.99-10.99c6.07-6.07 6.07-15.91 0-21.98L464.97 304l42.47-42.47c6.08-6.07 6.08-15.92.01-21.99zM496 32H316.59c-18.5 0-34.5 12.58-38.91 30.62l-97.2 349.24c-1.83 7.18-11.59 8.23-14.91 1.6L89.93 262.13A40.034 40.034 0 0 0 54.12 240H16c-8.84 0-16 7.16-16 16v16c0 8.84 7.16 16 16 16h33.19l83.06 166.11c7.94 15.97 23.97 25.89 41.81 25.89 21.69 0 40.41-14.72 45.5-35.8L322.88 80H496c8.84 0 16-7.16 16-16V48c0-8.84-7.16-16-16-16z"/></svg>