<svg xmlns="http://www.w3.org/2000/svg" viewBox="0 0 512 512"><!-- Font Awesome Pro 5.15.4 by @fontawesome - https://fontawesome.com License - https://fontawesome.com/license (Commercial License) --><path d="M480 256c17.67 0 32-14.33 32-32v-32c0-58.44-37.09-105.88-88-117.34V48c0-13.25-10.75-24-24-24-55.42 0-88.73 42.76-106.56 73.23C265.04 42.96 206.07 0 147.72 0 66.28 0 0 66.27 0 147.73c0 69.03 47.59 127.16 111.69 143.3l-8.81 18.3c-18.64 48.91-11.55 100.12 22.63 142.81 31.38 39.2 80.54 59.86 130.75 59.86H496c8.22 0 15.57-6.22 15.96-14.43.88-18.39-13.77-33.57-31.96-33.57h-29.85c12.72-18.38 21.85-40.48 21.85-64 0-51.33-30.06-89.67-75.84-100.75l7.88-43.25H480zm-126.7 88c20.5 0 40.83 7.13 55.31 21.63 41.83 41.89-13.4 93.04-26.97 98.37h-139.2c-56.03 0-101.62-45.59-101.62-101.64 0-11.78 2.34-23.88 6.12-34.05l39.03-80.84h-34.78c-50.68 0-95.9-36.34-102.34-86.62C41.05 100.03 88.4 48 147.72 48c54.91 0 115.22 60.3 115.22 115.2h.44l-54.33 130.68c-3.39 8.16.47 17.52 8.63 20.92l14.76 6.14c8.16 3.4 17.53-.47 20.92-8.63l72.11-173.58c16-31.98 32.44-51.95 50.53-61.02V120h24c35.88 0 64 31.62 64 72v16H363.97l-24.72 136h14.05zM400 176c8.84 0 16-7.16 16-16s-7.16-16-16-16-16 7.16-16 16 7.16 16 16 16z"/></svg>