<svg xmlns="http://www.w3.org/2000/svg" viewBox="0 0 512 512"><!-- Font Awesome Pro 5.15.4 by @fontawesome - https://fontawesome.com License - https://fontawesome.com/license (Commercial License) --><path d="M448 0h-76.23a64 64 0 0 0-57.24 35.38l-16 32c-3.95 7.9-.75 17.51 7.15 21.46l28.63 14.31c7.9 3.95 17.51.75 21.47-7.15l16-32H448v103.86l-168.92 48.28a159.974 159.974 0 0 0-69.15 40.69L146.75 320H112c-8.84 0-16 7.16-16 16v34.75L4.69 462.06c-6.25 6.25-6.25 16.38 0 22.63l22.62 22.62c6.25 6.25 16.38 6.25 22.63 0L255.15 302.1a96.027 96.027 0 0 1 41.54-24.44l70.31-20.1 35.14 20.29c7.65 4.42 17.44 1.8 21.86-5.86l21.24-36.79 20.35-5.82c27.47-7.85 46.41-32.96 46.41-61.53V64c0-35.35-28.65-64-64-64z"/></svg>