<svg xmlns="http://www.w3.org/2000/svg" viewBox="0 0 512 512"><!-- Font Awesome Pro 5.15.4 by @fontawesome - https://fontawesome.com License - https://fontawesome.com/license (Commercial License) --><path d="M416 256h-66.56c-16.26 0-29.44-13.18-29.44-29.44v-9.46c0-27.37 8.88-53.42 21.46-77.73 9.11-17.61 12.9-38.38 9.05-60.42-6.77-38.78-38.47-70.7-77.26-77.45C267.41.49 261.65 0 256 0c-53.02 0-96 42.98-96 96 0 14.16 3.12 27.54 8.68 39.57C182.02 164.43 192 194.71 192 226.5v.06c0 16.26-13.18 29.44-29.44 29.44H96c-53.02 0-96 42.98-96 96v48c0 8.84 7.16 16 16 16h16v64c0 17.67 14.33 32 32 32h384c17.67 0 32-14.33 32-32v-64h16c8.84 0 16-7.16 16-16v-48c0-53.02-42.98-96-96-96zM48 352c0-26.47 21.53-48 48-48h66.56c42.7 0 77.44-34.74 77.44-77.5 0-34.82-8.82-70.11-27.74-111.06-2.83-6.12-4.26-12.66-4.26-19.44 0-26.47 21.53-48 48-48 2.96 0 6 .27 9.02.79 18.82 3.28 34.89 19.43 38.2 38.42 1.87 10.71.39 20.85-4.4 30.11C280.78 152.21 272 184.85 272 217.1v9.46c0 42.7 34.74 77.44 77.44 77.44H416c26.47 0 48 21.53 48 48v16H48v-16zm384 112H80v-48h352v48z"/></svg>