<svg xmlns="http://www.w3.org/2000/svg" viewBox="0 0 512 512"><!-- Font Awesome Pro 5.15.4 by @fontawesome - https://fontawesome.com License - https://fontawesome.com/license (Commercial License) --><path d="M487.7 224.9l-121.8-30.5 60.7-75.4c7.8-9.8 7.1-23.2-1.7-32-8.8-8.8-22.2-9.4-32-1.7l-75.5 60.4-30.3-121.4C283.5 10 270.7 0 256 0h-.1c-14.8 0-27.5 10-31 24.3l-30.5 121.9L119 85.5c-9.8-7.8-23.2-7.1-32 1.7-8.8 8.8-9.5 22.2-1.7 32l60.4 75.5-121.4 30.2C10 228.5 0 241.3 0 256c0 14.7 10 27.5 24.3 31.1l121.8 30.5L85.4 393c-7.8 9.8-7.1 23.2 1.7 32 4.7 4.7 10.8 7.1 16.8 7.1 5.3 0 10.6-1.8 15.1-5.4l75.5-60.4 30.4 121.5c3.5 14.3 16.3 24.3 31 24.3h.1c14.7 0 27.5-10 31.1-24.3L317.6 366l75.4 60.7c4.5 3.6 9.8 5.4 15.1 5.4 6.1 0 12.1-2.4 16.8-7.1 8.8-8.8 9.5-22.2 1.7-32l-60.4-75.5 121.5-30.4C502 283.5 512 270.7 512 256c0-14.7-10-27.5-24.3-31.1zm-200.1 62.7L256 414.1l-31.6-126.5L97.9 256l126.5-31.6L256 97.9l31.6 126.5L414.1 256l-126.5 31.6z"/></svg>