<svg xmlns="http://www.w3.org/2000/svg" viewBox="0 0 640 512"><!-- Font Awesome Pro 5.15.4 by @fontawesome - https://fontawesome.com License - https://fontawesome.com/license (Commercial License) --><path d="M288,256v48a16.00079,16.00079,0,0,0,16,16h32a16.00079,16.00079,0,0,0,16-16V256a32,32,0,0,0-64,0ZM624,128v-8a24,24,0,0,0-48,0v8H560v32h16V352H528V304a64.07207,64.07207,0,0,0-64-64H432a63.18953,63.18953,0,0,0-20.36133,3.62891L385.5625,35.03125A40.06534,40.06534,0,0,0,345.875,0h-51.75a40.06457,40.06457,0,0,0-39.6875,35.03125L228.51367,243.67578A63.19136,63.19136,0,0,0,208,240H176a64.07207,64.07207,0,0,0-64,64v48H64V160H80V128H64v-8a24,24,0,0,0-48,0v8H0v32H16V424a23.88263,23.88263,0,0,0,45.52734,10.21094L168,476.80078V496a16.00079,16.00079,0,0,0,16,16h16a16.00079,16.00079,0,0,0,16-16V479.19141a63.1753,63.1753,0,0,0,23.95117-8.06836C246.71484,476.35938,254.80078,480,264,480H376c9.19922,0,17.28516-3.64258,24.04883-8.877A63.1753,63.1753,0,0,0,424,479.19141V496a16.00079,16.00079,0,0,0,16,16h16a16.00079,16.00079,0,0,0,16-16V476.80078l106.47266-42.58984A23.88263,23.88263,0,0,0,624,424V160h16V128ZM224,416a16.00079,16.00079,0,0,1-16,16H176a16.00079,16.00079,0,0,1-16-16V304a15.99954,15.99954,0,0,1,16-16h32a15.99954,15.99954,0,0,1,16,16Zm144,0a16.00079,16.00079,0,0,1-16,16H287.98047a15.99913,15.99913,0,0,1-16-15.98047l-.168-133.03515L301.1875,48h37.625L368,280Zm112,0a16.00079,16.00079,0,0,1-16,16H432a16.00079,16.00079,0,0,1-16-16V304a15.99954,15.99954,0,0,1,16-16h32a15.99954,15.99954,0,0,1,16,16Z"/></svg>