<svg xmlns="http://www.w3.org/2000/svg" viewBox="0 0 536 512"><!-- Font Awesome Pro 5.15.4 by @fontawesome - https://fontawesome.com License - https://fontawesome.com/license (Commercial License) --><path d="M390.6 439.61l-7.94 5.88-22.39 42.5 38.67 20.28c4.7 2.45 9.68 3.7 14.83 3.7 9.41 0 18.68-4.38 24.74-11.59 4.84-5.75 7.41-12.73 7.41-20.2l-7.91-48.69-47.41 8.12zM278.98 391.6c-6.77-3.54-14.92-4.21-22.18-.4l-113.32 59.44 23.83-138.31-100.8-98.02 139.28-20.28 62.2-125.88 10.02 20.29 43.15-21.22-24.41-49.41C291.29 6.83 280.24 0 267.92 0c-12.46 0-23.19 6.67-28.68 17.81l-65.41 132.38-146.4 21.3c-12.21 1.8-22.11 10.19-25.8 21.73-3.84 11.69-.74 24.28 8.09 32.86l105.9 103-25.05 145.5c-1.61 9.45.86 18.64 6.94 25.83 6.12 7.27 15.34 11.59 24.69 11.59 5.2 0 10.25-1.3 14.86-3.75l130.95-68.68 45.58 23.91 22.39-42.5-56.77-29.78-.23.4zm51.23-197.57l75.95 11.06 6.95-47.5-50.96-7.41-22.77-46.09-43.15 21.22 33.98 68.72zm204.22-.62c-3.76-11.73-13.67-20.12-25.89-21.92l-43.32-6.31-6.95 47.5 3.21 9.42 33.57 34.38L526.38 226c6.22-6.09 9.63-14.14 9.63-22.66l-1.58-9.93zM368.68 312.33l13.01 75.52 47.41-8.12-8.72-50.64 36.86-35.86-33.57-34.38-54.99 53.48z"/></svg>