<svg xmlns="http://www.w3.org/2000/svg" viewBox="0 0 576 512"><!-- Font Awesome Pro 5.15.4 by @fontawesome - https://fontawesome.com License - https://fontawesome.com/license (Commercial License) --><path d="M127.99741,336A16,16,0,1,0,143.997,352,16.00059,16.00059,0,0,0,127.99741,336Zm-31.9992-96a16,16,0,1,0,15.9996,16A16.0006,16.0006,0,0,0,95.99821,240Zm31.9992-96A16,16,0,1,0,143.997,160,16.00059,16.00059,0,0,0,127.99741,144Zm426.95819-7.668L311.32686,47.5625A257.73035,257.73035,0,0,0,224.43448,32c-29.15162,0-58.1177,5.41211-85.21469,17.15039C-4.095,111.22266.01425,256,.01425,256S-4.34111,400.666,139.21979,462.84961c27.09308,11.73437,56.067,17.14844,85.21469,17.14844,25.39195,0,50.8503-4.32813,75.38095-11.94532l9.08376,13.05665A71.93338,71.93338,0,0,0,367.99148,512h71.99821a71.67038,71.67038,0,0,0,57.19976-115.28516L554.9556,375.668A31.998,31.998,0,0,0,576,345.60156V166.39844A31.998,31.998,0,0,0,554.9556,136.332Zm-330.52112,295.666c-103.46619,0-177.84521-89.92188-176.41946-175.96875C46.79239,163.28711,126.48378,80.09375,224.28409,80.01367,256.48252,79.98633,399.99068,106.793,399.99068,256A173.67687,173.67687,0,0,1,381.497,333.33594l-53.5436-76.95508c0-.13086.03907-.25.03907-.38086a87.99783,87.99783,0,1,0-175.99565,0c0,37.76562,24.03456,69.77539,57.5142,82.23633l60.98091,87.66211C255.09974,429.50977,239.69582,431.99805,224.43448,431.99805ZM279.99365,256a39.999,39.999,0,1,1-39.999-40A39.999,39.999,0,0,1,279.99365,256Zm159.996,208H367.99148a23.959,23.959,0,0,1-19.687-10.29688L268.42558,338.875a87.70726,87.70726,0,0,0,39.35059-27.44531L380.52242,416h59.46727a24,24,0,0,1,0,48Zm88.0115-129.59766L435.79058,368H417.27932a221.81734,221.81734,0,0,0,28.32156-80h82.38664l.01367-.002Zm0-110.40039L527.98752,224h-82.3964a221.319,221.319,0,0,0-33.4816-88.62891l115.89167,42.22657Z"/></svg>