<svg xmlns="http://www.w3.org/2000/svg" viewBox="0 0 640 512"><!-- Font Awesome Pro 5.15.4 by @fontawesome - https://fontawesome.com License - https://fontawesome.com/license (Commercial License) --><path d="M448,64c-78.54688,0-145.97461,47.22266-175.71289,114.77734l-71.15039,6.46875L163.26562,160H192a64,64,0,0,0,0-128H32A31.99908,31.99908,0,0,0,0,64v64a31.99908,31.99908,0,0,0,32,32H76.73438l48.25585,32.17188C86.27336,195.68455,64,224.521,64,256c0,30.88879,21.50605,60.23325,60.98828,63.832L76.73438,352H32A31.99908,31.99908,0,0,0,0,384v64a31.99908,31.99908,0,0,0,32,32H192a64,64,0,0,0,0-128H163.26562l37.86915-25.24609,71.15234,6.46875C302.02344,400.77734,369.45312,448,448,448c106.03906,0,192-85.96094,192-192S554.03906,64,448,64ZM48,112V80H192a16,16,0,0,1,0,32ZM192,400a16,16,0,0,1,0,32H48V400Zm66.22852-116.26367L126.375,271.75a15.81421,15.81421,0,0,1,.03125-31.5l131.82227-11.98438A192.33608,192.33608,0,0,0,256,256,192.36313,192.36313,0,0,0,258.22852,283.73633ZM448,400c-79.40234,0-144-64.59766-144-144s64.59766-144,144-144,144,64.59766,144,144S527.40234,400,448,400Zm0-224a80,80,0,1,0,80,80A79.999,79.999,0,0,0,448,176Zm0,112a32,32,0,1,1,32-32A32.00033,32.00033,0,0,1,448,288Z"/></svg>