<svg xmlns="http://www.w3.org/2000/svg" viewBox="0 0 464 512"><!-- Font Awesome Pro 5.15.4 by @fontawesome - https://fontawesome.com License - https://fontawesome.com/license (Commercial License) --><path d="M405.68 256l53.21-89.39C473.3 142.4 455.48 112 426.88 112H319.96l-55.95-93.98C256.86 6.01 244.43 0 232 0s-24.86 6.01-32.01 18.02L144.04 112H37.11c-28.6 0-46.42 30.4-32.01 54.61L58.32 256 5.11 345.39C-9.31 369.6 8.51 400 37.11 400h106.93l55.95 93.98C207.14 505.99 219.57 512 232 512s24.86-6.01 32.01-18.02L319.96 400h106.93c28.6 0 46.42-30.4 32.01-54.61L405.68 256zm1.29-96l-29.22 49.08L348.53 160h58.44zm-57.15 96l-57.15 96H171.33l-57.15-96 57.15-96h121.34l57.15 96zM232 58.08L264.1 112h-64.2L232 58.08zM57.03 160h58.44l-29.22 49.08L57.03 160zm0 192l29.22-49.08L115.47 352H57.03zM232 453.92L199.9 400h64.2L232 453.92zM348.53 352l29.22-49.08L406.97 352h-58.44z"/></svg>