<svg xmlns="http://www.w3.org/2000/svg" viewBox="0 0 576 512"><!-- Font Awesome Pro 5.15.4 by @fontawesome - https://fontawesome.com License - https://fontawesome.com/license (Commercial License) --><path d="M560,32H544a15.99954,15.99954,0,0,0-16,16V195.26562L421.86133,168.73047C393.30078,125.01172,344.11719,96,288,96s-105.30078,29.01172-133.86133,72.73047L48,195.26562V48A15.99954,15.99954,0,0,0,32,32H16A15.99954,15.99954,0,0,0,0,48V464a16.00079,16.00079,0,0,0,16,16H32a16.00079,16.00079,0,0,0,16-16V316.73438l106.13867,26.53515C182.69922,386.98828,231.88281,416,288,416s105.30078-29.01172,133.86133-72.73047L528,316.73438V464a16.00079,16.00079,0,0,0,16,16h16a16.00079,16.00079,0,0,0,16-16V48A15.99954,15.99954,0,0,0,560,32ZM131.23242,288.07422,56,269.26562V242.73438l75.23242-18.8086a160.74708,160.74708,0,0,0,0,64.14844ZM304,145.61719a110.85425,110.85425,0,0,1,50.76562,20.99219l-28.57031,28.57031A71.32957,71.32957,0,0,0,304,185.92578Zm-32,0v40.30859a71.32957,71.32957,0,0,0-22.19531,9.25391l-28.57031-28.57031A110.85425,110.85425,0,0,1,272,145.61719Zm-73.39062,43.61719,28.57031,28.57031A71.30232,71.30232,0,0,0,217.92578,240H177.61719A110.85425,110.85425,0,0,1,198.60938,189.23438ZM177.61719,272h40.30859a71.32957,71.32957,0,0,0,9.25391,22.19531l-28.56836,28.56836A110.82866,110.82866,0,0,1,177.61719,272ZM272,366.38281a110.82866,110.82866,0,0,1-50.76367-20.99414l28.56836-28.56836A71.32957,71.32957,0,0,0,272,326.07422ZM264,256a24,24,0,1,1,24,24A24.02624,24.02624,0,0,1,264,256Zm40,110.38281V326.07422a71.32957,71.32957,0,0,0,22.19531-9.25391l28.57031,28.57031A110.83317,110.83317,0,0,1,304,366.38281Zm73.38867-43.61914-28.56836-28.56836A71.32957,71.32957,0,0,0,358.07422,272h40.30859A110.82866,110.82866,0,0,1,377.38867,322.76367ZM358.07422,240a71.30232,71.30232,0,0,0-9.25391-22.19531l28.57031-28.57031A110.85425,110.85425,0,0,1,398.38281,240ZM520,269.26562l-75.23242,18.8086a160.74708,160.74708,0,0,0,0-64.14844L520,242.73438Z"/></svg>