<svg xmlns="http://www.w3.org/2000/svg" viewBox="0 0 576 512"><!-- Font Awesome Pro 5.15.4 by @fontawesome - https://fontawesome.com License - https://fontawesome.com/license (Commercial License) --><path d="M368.85 96c-27.31 0-51.89 23.7-62.62 60.36-6.24 21.36-26.75 106.21-173.16 170-82.13 35.76-9.65 88.57 95.81 88.57 72.76 0 161.21-25.12 225.45-98.31 38.21-43.53 32.8-126-11.57-176.59C417.86 111.58 391.61 96 368.85 96zM384 255.9a32 32 0 1 1 32-32 32 32 0 0 1-32 32zM514.92 76.65C467.92 23.11 416.28 0 368.85 0 298.27 0 237 51.17 214.1 129.39 165 269.32 1.37 212.32 0 351.63-1.13 467.49 126.32 512 239.31 512q8.41 0 16.69-.32c87.78-3.41 187.32-37.1 270.49-131.85C596.78 299.75 591.6 164 514.92 76.65zm-24.5 271.51c-79.89 91-172.59 113.08-236.28 115.55q-7.37.29-14.83.29c-71.69 0-135.83-19.8-167.39-51.66C55.59 395.85 47.77 376.15 48 352.1c.38-39.52 15.05-47.66 65.88-69.79 48.52-21.13 115-50.06 145.5-137l.42-1.2.35-1.22C277 85.24 319.69 48 368.85 48c37.32 0 75.36 20.86 110 60.32 60.15 68.58 65.49 178.41 11.57 239.84z"/></svg>