<svg xmlns="http://www.w3.org/2000/svg" viewBox="0 0 496 512"><!-- Font Awesome Pro 5.15.4 by @fontawesome - https://fontawesome.com License - https://fontawesome.com/license (Commercial License) --><path d="M248 8C111.03 8 0 119.03 0 256s111.03 248 248 248 248-111.03 248-248S384.97 8 248 8zm0 48c102.14 0 186.51 77.02 198.42 176h-84.65c-12.85-32.71-44.55-56-81.77-56h-64c-37.22 0-68.92 23.29-81.77 56H49.58C61.5 133.02 145.86 56 248 56zm0 270.05l-71-70.98c4.06-17.77 20-31.06 39-31.06h64c19 0 34.94 13.3 39 31.06l-71 70.98zM49.58 280h84.48L224 369.93v84.49C132.9 443.45 60.55 371.1 49.58 280zM272 454.42v-84.49L361.94 280h84.48C435.46 371.1 363.1 443.45 272 454.42z"/></svg>