<svg xmlns="http://www.w3.org/2000/svg" viewBox="0 0 512 512"><!-- Font Awesome Pro 5.15.4 by @fontawesome - https://fontawesome.com License - https://fontawesome.com/license (Commercial License) --><path d="M120 334v18c0 88.2 75.4 160 168 160s168-71.8 168-160v-99.7c32.3-10.1 55.7-40.2 56-75.7.3-43.4-34.6-79.6-78.1-80.6-45-1-81.9 35.2-81.9 80 0 35.8 23.5 66.1 56 76.3V352c0 61.8-53.8 112-120 112s-120-50.2-120-112v-18c68-11.5 120-70.8 120-142V27.5c0-5.6-3.9-10.5-9.4-11.7L208.9.3c-6.5-1.4-12.9 2.6-14.3 9.1l-5.2 23.4c-1.4 6.5 2.6 12.9 9.1 14.3l41.5 9.2v134.4c0 52.9-42.2 96.7-95.1 97.2-53.3.6-96.9-42.6-96.9-95.9V56.4l41.5-9.2c6.5-1.4 10.5-7.8 9.1-14.3L93.4 9.4C92 2.9 85.5-1.1 79.1.3L9.4 15.8C3.9 17 0 21.9 0 27.5V192c0 71.2 52 130.5 120 142zm312-190c17.6 0 32 14.4 32 32s-14.4 32-32 32-32-14.4-32-32 14.4-32 32-32z"/></svg>