<svg xmlns="http://www.w3.org/2000/svg" viewBox="0 0 448 512"><!-- Font Awesome Pro 5.15.4 by @fontawesome - https://fontawesome.com License - https://fontawesome.com/license (Commercial License) --><path d="M275.35,207.2c-29.29,0-45,18-45,50.58V342c0,27.15,8.95,50.76,43.81,50.76C310.15,392.8,320,370,320,341.85V256.24C320,225.31,304.79,207.2,275.35,207.2Zm10.16,138.4c0,10.59-2.71,17-10.41,17s-10.59-6-10.59-16.48V253.39c0-10,3.05-16,10.59-16,8,0,10.41,6.46,10.41,15.47ZM217.6,256c0-28.15-10.07-48.83-44.46-48.83-38.36,0-45.14,26.35-45.14,48.19v3.26a6.56,6.56,0,0,0,6.66,6.46h19.92a6.57,6.57,0,0,0,6.67-6.46v-4.19c0-12.22,2.64-18.14,10.14-18.14,8.35,0,9.78,5.88,9.78,19.42,0,20-5.35,26.52-21.68,49.87-19,27.17-28.54,44.92-30.76,73.1A13.16,13.16,0,0,0,142,392.8h66.28a6.56,6.56,0,0,0,6.66-6.45V368.49a6.56,6.56,0,0,0-6.66-6.45H169c1.44-12.5,11.88-28.92,21.13-41C207.64,297,217.6,284.49,217.6,256Zm176.31-72,22.59-22.59a12,12,0,0,0,0-17l-17-17a12,12,0,0,0-17,0l-20.7,20.68A206.56,206.56,0,0,0,248,97.3V48h28a12,12,0,0,0,12-12V12A12,12,0,0,0,276,0H172a12,12,0,0,0-12,12V36a12,12,0,0,0,12,12h28V97.41C96.41,109.3,16,197.2,16,304c0,114.91,93.09,208,208,208s208-93.09,208-208A207,207,0,0,0,393.91,184ZM224,464A160,160,0,1,1,384,304,159.94,159.94,0,0,1,224,464Z"/></svg>