<svg xmlns="http://www.w3.org/2000/svg" viewBox="0 0 640 512"><!-- Font Awesome Pro 5.15.4 by @fontawesome - https://fontawesome.com License - https://fontawesome.com/license (Commercial License) --><path d="M634,471,36,3.52A16,16,0,0,0,13.51,6l-10,12.49A16,16,0,0,0,6,41L604,508.48A16,16,0,0,0,626.48,506l10-12.49A16,16,0,0,0,634,471ZM513.09,48,573.3,144.1c9.5,15.11,7.5,31.9,2.4,42.7-3.2,6.8-10.9,18.61-27,20.8a56.2,56.2,0,0,1-7.2.5,50.43,50.43,0,0,1-38.09-17.19L467.7,151,432,190.8A50.57,50.57,0,0,1,393.91,208c-22.43,0-25.91-11.16-25.91-5.86l60.26,47.11a99.41,99.41,0,0,0,39.24-26.34,99.26,99.26,0,0,0,60.3,32.19v.9h.2v71.23l48,37.52V249.41c48-20.2,67.59-83.61,38-130.81L549.09,15A32,32,0,0,0,522,0H118a31.63,31.63,0,0,0-7.35.94L170.84,48ZM112,464V368H346.38l-61.66-48.2H112V255.1a98.44,98.44,0,0,0,55.08-27.27l-38.27-29.92A50.24,50.24,0,0,1,98.5,208a55.37,55.37,0,0,1-7.2-.5c-16-2.2-23.8-13.9-27-20.79A45.75,45.75,0,0,1,64.91,148L26.45,117.88l-.45.72C-3.59,165.8,16,229.21,64,249.41V476.8C64,496.2,78.3,512,96,512H530.57l-61.4-48Z"/></svg>