<svg xmlns="http://www.w3.org/2000/svg" viewBox="0 0 640 512"><!-- Font Awesome Pro 5.15.4 by @fontawesome - https://fontawesome.com License - https://fontawesome.com/license (Commercial License) --><path d="M600 112H203l-86.25-99.6a39.86 39.86 0 0 0-55.47-2.25L13.44 52.66C-3.75 68-4.06 94.39 10.28 109.31l101.56 117.16A88.09 88.09 0 0 0 177.63 256h46.48l107.43 94-46.91 41.05A63.31 63.31 0 0 0 256 384a64 64 0 1 0 64 64 63.26 63.26 0 0 0-3.76-20.81L368 381.9l51.76 45.29A63.26 63.26 0 0 0 416 448a64 64 0 1 0 64-64 63.31 63.31 0 0 0-28.63 7.05L404.45 350l107.43-94H600a40 40 0 0 0 40-40v-64a40 40 0 0 0-40-40zM256 464a16 16 0 1 1 16-16 16 16 0 0 1-16 16zm224-32a16 16 0 1 1-16 16 16 16 0 0 1 16-16zM368 318.1L297 256h142zM592 208H177.63a40 40 0 0 1-29.72-13.2L51.22 83.31l35.87-31.88L181 160h411z"/></svg>