<svg xmlns="http://www.w3.org/2000/svg" viewBox="0 0 512 512"><!-- Font Awesome Pro 5.15.4 by @fontawesome - https://fontawesome.com License - https://fontawesome.com/license (Commercial License) --><path d="M150.39 208h113.17l-46.31-23.16a45.65 45.65 0 0 1 0-81.68A67.93 67.93 0 0 1 247.56 96H310a45.59 45.59 0 0 1 36.49 18.25l15.09 20.13a16 16 0 0 0 22.4 3.21l25.62-19.19a16 16 0 0 0 3.21-22.4L397.7 75.84A109.44 109.44 0 0 0 310.1 32h-62.54a132.49 132.49 0 0 0-58.94 13.91c-40.35 20.17-64.19 62.31-60.18 108 1.76 20.09 10.02 38.37 21.95 54.09zM496 240H16a16 16 0 0 0-16 16v16a16 16 0 0 0 16 16h480a16 16 0 0 0 16-16v-16a16 16 0 0 0-16-16zm-92.5 80h-91.07l14.32 7.16a45.65 45.65 0 0 1 0 81.68 67.93 67.93 0 0 1-30.31 7.16H234a45.59 45.59 0 0 1-36.49-18.25l-15.09-20.13a16 16 0 0 0-22.4-3.21L134.4 393.6a16 16 0 0 0-3.21 22.4l15.11 20.17A109.44 109.44 0 0 0 233.9 480h62.54a132.42 132.42 0 0 0 58.93-13.91c40.36-20.17 64.2-62.31 60.19-108-1.19-13.69-5.89-26.27-12.06-38.09z"/></svg>