<svg xmlns="http://www.w3.org/2000/svg" viewBox="0 0 512 512"><!-- Font Awesome Pro 5.15.4 by @fontawesome - https://fontawesome.com License - https://fontawesome.com/license (Commercial License) --><path d="M256 0C114.62 0 0 114.62 0 256s114.62 256 256 256 256-114.62 256-256S397.38 0 256 0zm0 464c-114.69 0-208-93.31-208-208S141.31 48 256 48s208 93.31 208 208-93.31 208-208 208zm158.39-208l28.28-28.28c3.12-3.12 3.12-8.19 0-11.31l-11.31-11.31c-3.12-3.12-8.19-3.12-11.31 0l-28.28 28.28-45.26-45.25 22.63-22.63 16.97 16.97c3.12 3.12 8.19 3.12 11.31 0l11.31-11.31c3.12-3.12 3.12-8.19 0-11.31l-16.97-16.97 5.66-5.66c3.12-3.12 3.12-8.19 0-11.31l-11.31-11.31c-3.12-3.12-8.19-3.12-11.31 0l-5.66 5.66-16.97-16.97c-3.12-3.12-8.19-3.12-11.31 0l-11.31 11.31c-3.12 3.12-3.12 8.19 0 11.31l16.97 16.97-22.63 22.63-45.26-45.25 28.29-28.28c3.12-3.12 3.12-8.19 0-11.31L295.6 69.32c-3.12-3.12-8.19-3.12-11.31 0L256 97.61l-28.29-28.29c-3.12-3.12-8.19-3.12-11.31 0l-11.31 11.31c-3.12 3.12-3.12 8.19 0 11.31l28.29 28.28-45.25 45.25-22.63-22.63 16.97-16.97c3.12-3.12 3.12-8.19 0-11.31l-11.31-11.31c-3.12-3.12-8.19-3.12-11.31 0l-16.97 16.97-5.66-5.66c-3.12-3.12-8.19-3.12-11.31 0l-11.31 11.31c-3.12 3.12-3.12 8.19 0 11.31l5.66 5.66-16.97 16.97c-3.12 3.12-3.12 8.19 0 11.31l11.31 11.31c3.12 3.12 8.19 3.12 11.31 0l16.97-16.97 22.63 22.63-45.25 45.25-28.29-28.28c-3.12-3.12-8.19-3.12-11.31 0L69.32 216.4c-3.12 3.12-3.12 8.19 0 11.31L97.61 256l-28.29 28.29c-3.12 3.12-3.12 8.19 0 11.31l11.31 11.31c3.12 3.12 8.19 3.12 11.31 0l28.29-28.28 45.25 45.25-22.63 22.63-16.97-16.97c-3.12-3.12-8.19-3.12-11.31 0l-11.31 11.31c-3.12 3.12-3.12 8.19 0 11.31l16.97 16.97-5.66 5.66c-3.12 3.12-3.12 8.19 0 11.31l11.31 11.31c3.12 3.12 8.19 3.12 11.31 0l5.66-5.66 16.97 16.97c3.12 3.12 8.19 3.12 11.31 0l11.31-11.31c3.12-3.12 3.12-8.19 0-11.31l-16.97-16.97 22.63-22.63 45.26 45.26-28.29 28.29c-3.12 3.12-3.12 8.19 0 11.31l11.31 11.31c3.12 3.12 8.19 3.12 11.31 0L256 414.39l28.29 28.29c3.12 3.12 8.19 3.12 11.31 0l11.31-11.31c3.12-3.12 3.12-8.19 0-11.31l-28.29-28.29 45.26-45.26 22.63 22.63-16.97 16.97c-3.12 3.12-3.12 8.19 0 11.31l11.31 11.31c3.12 3.12 8.19 3.12 11.31 0l16.97-16.97 5.66 5.66c3.12 3.12 8.19 3.12 11.31 0l11.31-11.31c3.12-3.12 3.12-8.19 0-11.31l-5.66-5.66 16.97-16.97c3.12-3.12 3.12-8.19 0-11.31l-11.31-11.31c-3.12-3.12-8.19-3.12-11.31 0l-16.97 16.97-22.63-22.63 45.25-45.25 28.29 28.28c3.12 3.12 8.19 3.12 11.31 0l11.31-11.31c3.12-3.12 3.12-8.19 0-11.31L414.39 256zM256 142.86l45.25 45.25L256 233.37l-45.25-45.25L256 142.86zM142.86 256l45.25-45.26L233.37 256l-45.26 45.26L142.86 256zM256 369.14l-45.26-45.26L256 278.62l45.26 45.26L256 369.14zm67.88-67.89L278.63 256l45.26-45.25L369.14 256l-45.26 45.25z"/></svg>