<svg xmlns="http://www.w3.org/2000/svg" viewBox="0 0 448 512"><!-- Font Awesome Pro 5.15.4 by @fontawesome - https://fontawesome.com License - https://fontawesome.com/license (Commercial License) --><path d="M280 328c0-22.091 17.909-40 40-40s40 17.909 40 40-17.909 40-40 40-40-17.909-40-40zm-152 40c22.091 0 40-17.909 40-40s-17.909-40-40-40-40 17.909-40 40 17.909 40 40 40zm320-258.286v228.572c0 49.194-43.706 90.629-99.059 104.713l58.758 58.758c3.78 3.78 1.103 10.243-4.243 10.243h-48.427a11.996 11.996 0 0 1-8.485-3.515L286.059 448H161.941l-60.485 60.485A12.002 12.002 0 0 1 92.971 512H44.544c-5.345 0-8.022-6.463-4.243-10.243l58.758-58.758C43.886 428.961 0 387.656 0 338.286V109.714C0 45.928 71.001 0 138.286 0h171.428C377.889 0 448 45.922 448 109.714zM50.774 96h346.534c-10.2-26.136-47.971-48-87.595-48H138.286c-38.862 0-77.011 21.67-87.512 48zM48 224h152v-80H48v80zm352 48H48v66.286C48 374.495 99.975 400 138.286 400h171.428C347.479 400 400 374.816 400 338.286V272zm0-128H248v80h152v-80z"/></svg>