<svg xmlns="http://www.w3.org/2000/svg" viewBox="0 0 576 512"><!-- Font Awesome Pro 5.15.4 by @fontawesome - https://fontawesome.com License - https://fontawesome.com/license (Commercial License) --><path d="M574.09 280.38L528.75 98.66a87.94 87.94 0 0 0-113.19-62.14l-15.25 5.08a16 16 0 0 0-10.12 20.25L395.25 77a16 16 0 0 0 20.22 10.13l13.19-4.39c10.87-3.63 23-3.57 33.15 1.73a39.59 39.59 0 0 1 20.38 25.81l38.47 153.83a276.7 276.7 0 0 0-81.22-12.47c-39.88 0-85.63 9.2-133 36.34h-36.85c-47.4-27.15-93.12-36.34-133-36.34a276.75 276.75 0 0 0-81.22 12.45l38.44-153.8a39.61 39.61 0 0 1 20.38-25.82c10.15-5.29 22.28-5.34 33.15-1.73l13.16 4.39A16 16 0 0 0 180.75 77l5.06-15.19a16 16 0 0 0-10.12-20.21l-15.25-5.08A87.95 87.95 0 0 0 47.25 98.65L1.91 280.38A75.35 75.35 0 0 0 0 295.86v70.25C0 429 51.59 480 115.19 480h37.12c60.28 0 110.38-45.94 114.88-105.37l2.93-38.63h35.76l2.93 38.63c4.5 59.43 54.6 105.37 114.88 105.37h37.12C524.41 480 576 429 576 366.13v-70.25a62.67 62.67 0 0 0-1.91-15.5zM48 366.11v-48.47c19.78-8.18 51.22-18 88.59-18zM356.66 371l-4-52.81a213.46 213.46 0 0 1 86.78-18.53z"/></svg>