<svg xmlns="http://www.w3.org/2000/svg" viewBox="0 0 576 512"><!-- Font Awesome Pro 5.15.4 by @fontawesome - https://fontawesome.com License - https://fontawesome.com/license (Commercial License) --><path d="M560 464h-68.5l29.4-44.7c7.4-11.2 8.7-25.3 3.6-37.8-5.2-12.4-16.1-21.5-29.3-24.2l-70.7-14.5L410 272c-2.7-13.2-11.7-24.2-24.2-29.4-12.5-5.2-26.7-3.7-37.7 3.6L287.8 286l-60.2-39.9c-22.5-14.9-56.5-.8-61.9 25.7l-14.4 70.8L80.6 357c-13.3 2.7-24.1 11.7-29.3 24.2-5.1 12.5-3.8 26.6 3.7 37.8l29.7 45H16c-8.8 0-16 7.2-16 16v16c0 8.8 7.2 16 16 16h544c8.8 0 16-7.2 16-16v-16c0-8.8-7.2-16-16-16zm-325.4 0c4.7-15.6 16-29 32.2-35.7 28.5-11.8 61.4 1.8 73.2 30.3.7 1.8 1.1 3.6 1.6 5.4h-107zm199.4 0h-43.3c-1.2-8-3.1-16-6.3-23.8-21.9-53-82.9-78.2-135.9-56.3-34.7 14.4-57.4 45.5-62.8 80.1h-43.4l-40.9-62.1 90.8-18.6 18.5-90.9 77.4 51.2 77.3-51.1 18.7 90.9 90.8 18.7L434 464zM276.7 203.4c6.2 6.2 16.3 6.2 22.5 0l97.7-97c6.3-6.2 6.3-16.4.1-22.6l-11.3-11.4c-6.2-6.3-16.4-6.3-22.6-.1L312 123.1V16c0-8.8-7.2-16-16-16h-16c-8.8 0-16 7.2-16 16v107.1l-51.1-50.8c-6.3-6.2-16.4-6.2-22.6.1L179 83.8c-6.2 6.3-6.2 16.4.1 22.6l97.6 97z"/></svg>