<svg xmlns="http://www.w3.org/2000/svg" viewBox="0 0 512 512"><!-- Font Awesome Pro 5.15.4 by @fontawesome - https://fontawesome.com License - https://fontawesome.com/license (Commercial License) --><path d="M176.53532,223.49668a8.003,8.003,0,0,0-11.31445,0l-11.31249,11.31446a7.99945,7.99945,0,0,0,0,11.31446l4.48047,4.47851L15.99828,393.00458a54.62106,54.62106,0,0,0,0,77.24613l25.75,25.752a54.61858,54.61858,0,0,0,77.24411-.002L261.3849,353.60026l5.66015,5.66211a8.003,8.003,0,0,0,11.31445,0L289.672,347.94791a7.99708,7.99708,0,0,0,0-11.3125ZM85.051,462.06125a6.62791,6.62791,0,0,1-9.35937.00391L49.93968,436.31124a6.632,6.632,0,0,1,0-9.36719l63.19723-63.19925,35.11327,35.1133Zm74.51168-74.51566-35.11326-35.11525,11.31445-11.31251,35.11326,35.1133Zm22.6289-22.62892-35.11327-35.1133,11.31055-11.31446,35.11522,35.1133Zm22.625-22.62892-35.11327-35.1133,11.31445-11.3125,35.11327,35.1133ZM503.28323,8.71532a29.769,29.769,0,0,0-41.26561-.79492l-237.58779,218.215,61.43552,61.43558,218.2128-237.588A29.76768,29.76768,0,0,0,503.28323,8.71532Z"/></svg>