<svg xmlns="http://www.w3.org/2000/svg" viewBox="0 0 512 512"><!-- Font Awesome Pro 5.15.4 by @fontawesome - https://fontawesome.com License - https://fontawesome.com/license (Commercial License) --><path d="M511.84 18.27C513.23 8.49 505.57 0 496.04 0c-.76 0-1.53.05-2.31.16L400 16 148.51 267.49l-38.82-38.82c-6.22-6.22-16.31-6.23-22.54 0L68.43 247.4c-5.37 5.37-6.21 13.79-1.99 20.11l53.19 79.79-53.23 53.22-29.15-14.57c-1.21-.61-9.25-4.14-15.97 2.59L4.05 405.76c-5.4 5.41-5.4 14.17 0 19.57l82.62 82.62c2.7 2.7 6.24 4.05 9.78 4.05s7.08-1.35 9.79-4.05l17.23-17.23a13.84 13.84 0 0 0 2.59-15.97l-14.57-29.15 53.22-53.23 79.79 53.19c6.32 4.21 14.74 3.38 20.11-1.99l18.73-18.72c6.22-6.22 6.22-16.32 0-22.54l-38.82-38.82L496 112l15.84-93.73zm-60.62 70.62L210.57 329.55l-28.12-28.12L423.11 60.77l33.83-5.72-5.72 33.84z"/></svg>