<svg xmlns="http://www.w3.org/2000/svg" viewBox="0 0 512 512"><!-- Font Awesome Pro 5.15.4 by @fontawesome - https://fontawesome.com License - https://fontawesome.com/license (Commercial License) --><path d="M507.31 462.06L448 402.75l31.64-59.03c3.33-6.22 2.2-13.88-2.79-18.87l-17.54-17.53c-6.25-6.25-16.38-6.25-22.63 0L420 324 112 16 18.27.16C8.27-1.27-1.42 7.17.17 18.26l15.84 93.73 308 308-16.69 16.69c-6.25 6.25-6.25 16.38 0 22.62l17.53 17.54a16 16 0 0 0 18.87 2.79L402.75 448l59.31 59.31c6.25 6.25 16.38 6.25 22.63 0l22.62-22.62c6.25-6.25 6.25-16.38 0-22.63zm-149.36-76.01L60.78 88.89l-5.72-33.83 33.84 5.72 297.17 297.16-28.12 28.11zm65.17-325.27l33.83-5.72-5.72 33.84L340.7 199.43l33.94 33.94L496.01 112l15.84-93.73c1.43-10-7.01-19.69-18.1-18.1l-93.73 15.84-121.38 121.36 33.94 33.94L423.12 60.78zM199.45 340.69l-45.38 45.38-28.12-28.12 45.38-45.38-33.94-33.94-45.38 45.38-16.69-16.69c-6.25-6.25-16.38-6.25-22.62 0l-17.54 17.53a16 16 0 0 0-2.79 18.87L64 402.75 4.69 462.06c-6.25 6.25-6.25 16.38 0 22.63l22.62 22.62c6.25 6.25 16.38 6.25 22.63 0L109.25 448l59.03 31.64c6.22 3.33 13.88 2.2 18.87-2.79l17.53-17.54c6.25-6.25 6.25-16.38 0-22.63L188 420l45.38-45.38-33.93-33.93z"/></svg>