<svg xmlns="http://www.w3.org/2000/svg" viewBox="0 0 640 512"><!-- Font Awesome Pro 5.15.4 by @fontawesome - https://fontawesome.com License - https://fontawesome.com/license (Commercial License) --><path d="M136.77186,8.71727a29.77142,29.77142,0,0,0-.79483,41.26562l216.0556,235.26173V167.75048L178.03476,7.92234A29.76184,29.76184,0,0,0,136.77186,8.71727Zm487.23191,384.291L411.30716,181.52587a15.99854,15.99854,0,0,0-27.27816,11.3457V352.37939a16.00105,16.00105,0,0,0,4.685,11.3125L521.01739,496.00244a54.61454,54.61454,0,0,0,77.23929,0l25.74709-25.748a54.626,54.626,0,0,0,0-77.24609ZM432.02356,339.12548V268.89892l70.23814,70.24023-35.11126,35.11329ZM564.31717,462.06494a6.6166,6.6166,0,0,1-9.36222-.00195l-65.18207-65.18751,10.45585-10.45507L570.0919,456.2876Zm25.749-25.75195-5.77669,5.77539-69.86317-69.86719,10.4578-10.459,65.18206,65.1875a6.62075,6.62075,0,0,1,0,9.36329ZM414.60757,147.31493l89.4137-97.332a29.76239,29.76239,0,0,0-42.05579-42.0625L343.66834,116.61766l30.00832,27.56446,5.79426,5.32226a47.89343,47.89343,0,0,1,20.67149-4.66406A47.27194,47.27194,0,0,1,414.60757,147.31493Zm-173.951,63.957-39.79822,36.57032-24.343-24.34571a8.00142,8.00142,0,0,0-11.31317,0L153.891,234.811a8.00009,8.00009,0,0,0,0,11.31445l4.48,4.47851L15.99648,393.00439a54.62537,54.62537,0,0,0,0,77.2461l25.74708,25.75195a54.60807,54.60807,0,0,0,77.23539-.00195L261.3554,353.60009l5.65951,5.66211a8.00143,8.00143,0,0,0,11.31318,0l11.31121-11.31445a7.99772,7.99772,0,0,0,0-11.3125l-25.51078-25.51368,34.11723-37.13867ZM85.04139,462.061a6.62663,6.62663,0,0,1-9.35831.00391L49.934,436.311a6.63257,6.63257,0,0,1,0-9.36719l63.19011-63.19922,35.1093,35.11329Zm74.50328-74.51562-35.10931-35.11524,11.31318-11.3125,35.1093,35.11328ZM182.171,364.9165l-35.1093-35.11328L158.371,318.48876l35.11126,35.11329Zm22.62244-22.62891-35.10931-35.11328,11.31318-11.3125,35.1093,35.11328Z"/></svg>