<svg xmlns="http://www.w3.org/2000/svg" viewBox="0 0 640 512"><!-- Font Awesome Pro 5.15.4 by @fontawesome - https://fontawesome.com License - https://fontawesome.com/license (Commercial License) --><path d="M320 320c-45.52 0-64 41.61-64 66.75V496c0 8.84 7.16 16 16 16h96c8.84 0 16-7.16 16-16V384c0-35.35-28.65-64-64-64zm311.99-51.71l-76-71.78c-3.19-3.01-7.59-4.51-12-4.51s-8.81 1.5-12 4.51l-36 34v-82.68a35.21 35.21 0 0 0-13.21-27.49L341.99 7.71A35.157 35.157 0 0 0 320 0c-7.78 0-15.56 2.57-21.99 7.71l-140.8 112.64A35.196 35.196 0 0 0 144 147.84v82.67l-36-34c-3.19-3.01-7.59-4.51-12-4.51s-8.81 1.5-12 4.51L8 268.29c-5.15 4.87-8 11.14-8 17.64V496c0 8.84 7.16 16 16 16h16c8.84 0 16-7.16 16-16V296.54l48-45.33 48 45.33V496c0 8.84 7.16 16 16 16h16c8.84 0 16-7.16 16-16V153.99l128-102.4 128 102.4V496c0 8.84 7.16 16 16 16h16c8.84 0 16-7.16 16-16V296.54l48-45.33 48 45.33V496c0 8.84 7.16 16 16 16h16c8.84 0 16-7.16 16-16V285.93c0-6.5-2.85-12.77-8.01-17.64zM388.06 154.2h-38.95L324 114.21c-1.85-2.95-6.15-2.95-8 0l-25.12 39.98h-38.94c-3.72 0-5.98 4.09-4 7.24l19.2 30.56-19.2 30.56c-1.98 3.15.29 7.24 4 7.24h38.94l25.12 40c1.85 2.95 6.15 2.95 8 0l25.12-39.98h38.94c3.72 0 5.98-4.09 4-7.24L372.87 192l19.2-30.56c1.97-3.15-.29-7.24-4.01-7.24z"/></svg>