<svg xmlns="http://www.w3.org/2000/svg" viewBox="0 0 512 512"><!-- Font Awesome Pro 5.15.4 by @fontawesome - https://fontawesome.com License - https://fontawesome.com/license (Commercial License) --><path d="M483.2 325.8c46.5-83.4 35.4-190.7-35.2-261.5C406.6 22.8 351.7 0 293.2 0c-105.4 0-152.7 62.3-218 127.7-50.9 51-50.9 134 0 185.1l13.1 13.1-73.9 64.2c-18.3 15.9-19.3 44-2.2 61.1l48.4 48.5c17.7 17.8 45.8 15.6 61.2-2.2l63.9-73.9c10.1 10.1 53.4 64.5 130.6 50.1C336.8 497 366.6 512 400 512c61.8 0 112-50.2 112-112 0-28.6-11.1-54.4-28.8-74.2zM293.2 48c45.6 0 88.5 17.8 120.7 50.1 53.8 53.9 63.4 134.7 30.3 199.1-58.1-25.1-105 5.9-122.3 22.8L136.3 134.4C167.6 103.1 209.2 48 293.2 48zm-110 305.1l-93.3 108-39-39.1 107.7-93.6-49.5-49.5c-29.9-30-31.7-77.3-6-109.8l192.2 192.2c-10.5 28.3-7.7 49.4-3.7 65.4-43-.1-56.5-21.6-108.4-73.6zM400 464c-35.3 0-64-28.7-64-64s28.7-64 64-64 64 28.7 64 64-28.7 64-64 64z"/></svg>