<svg xmlns="http://www.w3.org/2000/svg" viewBox="0 0 448 512"><!-- Font Awesome Pro 5.15.4 by @fontawesome - https://fontawesome.com License - https://fontawesome.com/license (Commercial License) --><path d="M356 368H92c-6.6 0-12-5.4-12-12V92c0-6.6 5.4-12 12-12h264c6.6 0 12 5.4 12 12v264c0 6.6-5.4 12-12 12zm92-320v416c0 26.5-21.5 48-48 48H48c-26.5 0-48-21.5-48-48V48C0 21.5 21.5 0 48 0h352c26.5 0 48 21.5 48 48zm-48 410V54c0-3.3-2.7-6-6-6H54c-3.3 0-6 2.7-6 6v404c0 3.3 2.7 6 6 6h340c3.3 0 6-2.7 6-6zm-112-38v-8c0-6.6-5.4-12-12-12H172c-6.6 0-12 5.4-12 12v8c0 6.6 5.4 12 12 12h104c6.6 0 12-5.4 12-12z"/></svg>