<svg xmlns="http://www.w3.org/2000/svg" viewBox="0 0 640 512"><!-- Font Awesome Pro 5.15.4 by @fontawesome - https://fontawesome.com License - https://fontawesome.com/license (Commercial License) --><path d="M160 192C71.6 192 0 263.6 0 352s71.6 160 160 160 160-71.6 160-160-71.6-160-160-160zM50.7 376h218.5c-25.6 117-192.8 116.7-218.5 0zm0-48c25.7-116.9 192.9-116.9 218.5 0H50.7zM593.1 46.9c-62.4-62.4-163.8-62.5-226.3 0s-62.5 163.8 0 226.3c62.4 62.4 163.8 62.5 226.3 0s62.5-163.9 0-226.3zM385.8 99.7l154.5 154.5C439.7 318.8 321 200.5 385.8 99.7zm188.4 120.6L419.7 65.8C520.3 1.1 639 119.5 574.2 220.3z"/></svg>