<svg xmlns="http://www.w3.org/2000/svg" viewBox="0 0 576 512"><!-- Font Awesome Pro 5.15.4 by @fontawesome - https://fontawesome.com License - https://fontawesome.com/license (Commercial License) --><path d="M416 320c0 17.67 14.33 32 32 32s32-14.33 32-32-14.33-32-32-32-32 14.33-32 32zm-192 32c0 11.72 3.38 22.55 8.88 32h110.25c5.5-9.45 8.88-20.28 8.88-32 0-11.67-3.36-22.46-8.81-31.88l75.75-97.39c8.16-10.47 6.25-25.55-4.19-33.67-10.56-8.17-25.56-6.25-33.69 4.2l-75.76 97.4c-5.54-1.56-11.27-2.67-17.3-2.67C252.65 288 224 316.65 224 352zm96-192c0-17.67-14.33-32-32-32s-32 14.33-32 32 14.33 32 32 32 32-14.33 32-32zM128 288c-17.67 0-32 14.33-32 32s14.33 32 32 32 32-14.33 32-32-14.33-32-32-32zm48-48c17.67 0 32-14.33 32-32s-14.33-32-32-32-32 14.33-32 32 14.33 32 32 32zM0 320c0 52.8 14.25 102.26 39.06 144.8 5.61 9.62 16.3 15.2 27.44 15.2h443c11.14 0 21.83-5.58 27.44-15.2C561.75 422.26 576 372.8 576 320c0-159.06-128.94-288-288-288S0 160.94 0 320zm48 0C48 187.66 155.66 80 288 80s240 107.66 240 240c0 39.12-9.56 77.63-27.73 112H75.73C57.56 397.63 48 359.12 48 320z"/></svg>