<svg xmlns="http://www.w3.org/2000/svg" viewBox="0 0 576 512"><!-- Font Awesome Pro 5.15.4 by @fontawesome - https://fontawesome.com License - https://fontawesome.com/license (Commercial License) --><path d="M128 288c-17.67 0-32 14.33-32 32s14.33 32 32 32 32-14.33 32-32-14.33-32-32-32zm160 0c-6.04 0-11.77 1.11-17.3 2.67l-75.76-97.4c-8.12-10.45-23.12-12.38-33.69-4.2-10.44 8.12-12.34 23.2-4.19 33.67l75.75 97.39c-5.45 9.42-8.81 20.21-8.81 31.88 0 11.72 3.38 22.55 8.88 32h110.25c5.5-9.45 8.88-20.28 8.88-32C352 316.65 323.35 288 288 288zm0-96c17.67 0 32-14.33 32-32s-14.33-32-32-32-32 14.33-32 32 14.33 32 32 32zm128 128c0 17.67 14.33 32 32 32s32-14.33 32-32-14.33-32-32-32-32 14.33-32 32zm16-112c0-17.67-14.33-32-32-32s-32 14.33-32 32 14.33 32 32 32 32-14.33 32-32zM288 32C128.94 32 0 160.94 0 320c0 52.8 14.25 102.26 39.06 144.8 5.61 9.62 16.3 15.2 27.44 15.2h443c11.14 0 21.83-5.58 27.44-15.2C561.75 422.26 576 372.8 576 320c0-159.06-128.94-288-288-288zm212.27 400H75.73C57.56 397.63 48 359.12 48 320 48 187.66 155.66 80 288 80s240 107.66 240 240c0 39.12-9.56 77.63-27.73 112z"/></svg>