<svg xmlns="http://www.w3.org/2000/svg" viewBox="0 0 576 512"><!-- Font Awesome Pro 5.15.4 by @fontawesome - https://fontawesome.com License - https://fontawesome.com/license (Commercial License) --><path d="M288 32C128.94 32 0 160.94 0 320c0 52.8 14.25 102.26 39.06 144.8 5.61 9.62 16.3 15.2 27.44 15.2h443c11.14 0 21.83-5.58 27.44-15.2C561.75 422.26 576 372.8 576 320c0-159.06-128.94-288-288-288zm212.27 400H75.73C57.56 397.63 48 359.12 48 320 48 187.66 155.66 80 288 80s240 107.66 240 240c0 39.12-9.56 77.63-27.73 112zM359.59 137.23c-12.72-4.23-26.16 2.62-30.38 15.17l-45.34 136.01C250.49 290.58 224 318.06 224 352c0 11.72 3.38 22.55 8.88 32h110.25c5.5-9.45 8.88-20.28 8.88-32 0-19.45-8.86-36.66-22.55-48.4l45.34-136.01c4.17-12.57-2.64-26.17-15.21-30.36z"/></svg>