<svg xmlns="http://www.w3.org/2000/svg" viewBox="0 0 640 512"><!-- Font Awesome Pro 5.15.4 by @fontawesome - https://fontawesome.com License - https://fontawesome.com/license (Commercial License) --><path d="M639.25 171.91l-4.84-15.25c-2.67-8.42-11.66-13.09-20.09-10.42L536 171.08V48c0-8.84-7.16-16-16-16h-16c-8.84 0-16 7.16-16 16v138.3l-80 25.37V48c0-8.84-7.16-16-16-16h-16c-8.84 0-16 7.16-16 16v178.89l-80 25.37V48c0-8.84-7.16-16-16-16h-16c-8.84 0-16 7.16-16 16v219.47l-80 25.37V48c0-8.84-7.16-16-16-16h-16c-8.84 0-16 7.16-16 16v260.06L11.17 337.5C2.75 340.17-1.92 349.16.75 357.59l4.84 15.25c2.67 8.42 11.67 13.09 20.09 10.41L104 358.41V464c0 8.84 7.16 16 16 16h16c8.84 0 16-7.16 16-16V343.19l80-25.37V464c0 8.84 7.16 16 16 16h16c8.84 0 16-7.16 16-16V302.61l80-25.37V464c0 8.84 7.16 16 16 16h16c8.84 0 16-7.16 16-16V262.02l80-25.37V464c0 8.84 7.16 16 16 16h16c8.84 0 16-7.16 16-16V221.44L628.83 192c8.43-2.67 13.09-11.66 10.42-20.09z"/></svg>