<svg xmlns="http://www.w3.org/2000/svg" viewBox="0 0 448 512"><!-- Font Awesome Pro 5.15.4 by @fontawesome - https://fontawesome.com License - https://fontawesome.com/license (Commercial License) --><path d="M368 0H16A16 16 0 0 0 0 16v368a16 16 0 0 0 12.9 15.7c4.2 13 4.2 51.6 0 64.6A16 16 0 0 0 0 480v16a16 16 0 0 0 16 16h352a80 80 0 0 0 80-80V80a80 80 0 0 0-80-80zm0 464H54c2.7-17.3 2.7-46.7 0-64h314a32 32 0 0 1 0 64zm32-105.3a79.37 79.37 0 0 0-32-6.7H48V48h320a32 32 0 0 1 32 32zM314.58 200l27.7-46.32a20 20 0 0 0-17.19-30.26h-56.35L241 77.16a19.64 19.64 0 0 0-16.94-9.68 20 20 0 0 0-17.28 9.8l-27.6 46.16h-56.3a20.14 20.14 0 0 0-17.5 10.15 19.68 19.68 0 0 0 .21 20L133.42 200l-27.7 46.32a20 20 0 0 0 17.19 30.26h56.35L207 322.84a19.64 19.64 0 0 0 16.94 9.68h.06a20 20 0 0 0 17.22-9.8l27.6-46.16h56.3a20.14 20.14 0 0 0 17.5-10.15 19.68 19.68 0 0 0-.21-20zm3.48-52.58l-17.47 29.21-17.49-29.19zM224 95.38l16.8 28.06h-33.62zm-94 52.06h34.91l-17.51 29.17zm0 105.12l17.47-29.21 17.49 29.21zm94 52.06l-16.8-28.06h33.59zm31.15-52.06h-62.28L161.39 200l31.43-52.54h62.31L286.61 200zm28 0l17.45-29.17 17.46 29.17z"/></svg>