<svg xmlns="http://www.w3.org/2000/svg" viewBox="0 0 512 512"><!-- Font Awesome Pro 5.15.4 by @fontawesome - https://fontawesome.com License - https://fontawesome.com/license (Commercial License) --><path d="M496 232H208a16 16 0 0 0-16 16v16a16 16 0 0 0 16 16h288a16 16 0 0 0 16-16v-16a16 16 0 0 0-16-16zm0 160H208a16 16 0 0 0-16 16v16a16 16 0 0 0 16 16h288a16 16 0 0 0 16-16v-16a16 16 0 0 0-16-16zm0-320H208a16 16 0 0 0-16 16v16a16 16 0 0 0 16 16h288a16 16 0 0 0 16-16V88a16 16 0 0 0-16-16zM64.3 368C38 368 16 389.5 16 416s22 48 48.3 48a48 48 0 0 0 0-96zm75.26-172.51a12.09 12.09 0 0 0-17 0l-63.66 63.3-22.68-21.94a12 12 0 0 0-17 0L3.53 252.43a11.86 11.86 0 0 0 0 16.89L51 316.51a12.82 12.82 0 0 0 17.58 0l15.7-15.59 72.17-71.74a11.86 11.86 0 0 0 .1-16.8zm0-160a12 12 0 0 0-17 0L58.91 98.65 36.22 76.58a12.07 12.07 0 0 0-17 0L3.53 92.26a11.93 11.93 0 0 0 0 16.95l47.57 47.28a12.79 12.79 0 0 0 17.6 0l15.59-15.58 72.17-72a12.05 12.05 0 0 0 .1-17z"/></svg>