<svg xmlns="http://www.w3.org/2000/svg" viewBox="0 0 512 512"><!-- Font Awesome Pro 5.15.4 by @fontawesome - https://fontawesome.com License - https://fontawesome.com/license (Commercial License) --><path d="M112 280c-17.67 0-32 14.33-32 32s14.33 32 32 32 32-14.33 32-32-14.33-32-32-32zm288 0c-17.67 0-32 14.33-32 32s14.33 32 32 32 32-14.33 32-32-14.33-32-32-32zm-72 24H184c-4.42 0-8 3.58-8 8v16c0 4.42 3.58 8 8 8h144c4.42 0 8-3.58 8-8v-16c0-4.42-3.58-8-8-8zm126.15-88.03l-15.03-77.66C432.56 104.52 402.84 80 368.44 80H352V64c0-17.67-14.33-32-32-32H192c-17.67 0-32 14.33-32 32v16h-16.44c-34.41 0-64.12 24.52-70.69 58.31l-15.03 77.66C23.83 230.74 0 264.55 0 304v48c0 23.63 12.95 44.04 32 55.12V456c0 13.25 10.75 24 24 24h32c13.25 0 24-10.75 24-24v-40h288v40c0 13.25 10.75 24 24 24h32c13.25 0 24-10.75 24-24v-48.88c19.05-11.09 32-31.49 32-55.12v-48c0-39.45-23.83-73.26-57.85-88.03zM120 147.44c2.19-11.27 12.09-19.44 23.56-19.44h224.88c11.47 0 21.38 8.17 23.56 19.44L403.72 208H108.28L120 147.44zM464 352c0 8.82-7.18 16-16 16H64c-8.82 0-16-7.18-16-16v-48c0-26.47 21.53-48 48-48h320c26.47 0 48 21.53 48 48v48z"/></svg>