<svg xmlns="http://www.w3.org/2000/svg" viewBox="0 0 640 512"><!-- Font Awesome Pro 5.15.4 by @fontawesome - https://fontawesome.com License - https://fontawesome.com/license (Commercial License) --><path d="M544 0H96C42.98 0 0 42.98 0 96v320c0 53.02 42.98 96 96 96h448c53.02 0 96-42.98 96-96V96c0-53.02-42.98-96-96-96zm48 416c0 26.47-21.53 48-48 48H96c-26.47 0-48-21.53-48-48v-29.68C63.93 409.04 90.21 424 120 424c26.38 0 50.09-11.67 66.23-30.12C203.75 412.42 228.55 424 256 424c24.56 0 47-9.27 64-24.5 17 15.23 39.44 24.5 64 24.5 27.45 0 52.25-11.58 69.77-30.12C469.91 412.33 493.62 424 520 424c29.79 0 56.07-14.96 72-37.68V416zM93.33 288h53.33c7.36 0 13.33 5.97 13.33 13.33V336c0 22.09-17.91 40-40 40s-40-17.91-40-40v-34.67C80 293.97 85.97 288 93.33 288zM80 242.67V208c0-22.09 17.91-40 40-40s40 17.91 40 40v34.67c0 7.36-5.97 13.33-13.33 13.33H93.33C85.97 256 80 250.03 80 242.67zM221.71 288h68.57c7.57 0 13.71 6.14 13.71 13.71V328c0 26.51-21.49 48-48 48s-48-21.49-48-48v-26.29c.01-7.57 6.15-13.71 13.72-13.71zM208 242.29V184c0-26.51 21.49-48 48-48s48 21.49 48 48v58.29c0 7.57-6.14 13.71-13.71 13.71h-68.57c-7.58 0-13.72-6.14-13.72-13.71zM349.71 288h68.57c7.57 0 13.71 6.14 13.71 13.71V328c0 26.51-21.49 48-48 48s-48-21.49-48-48v-26.29c.01-7.57 6.15-13.71 13.72-13.71zM336 242.29V184c0-26.51 21.49-48 48-48s48 21.49 48 48v58.29c0 7.57-6.14 13.71-13.71 13.71h-68.57c-7.58 0-13.72-6.14-13.72-13.71zM493.33 288h53.33c7.36 0 13.33 5.97 13.33 13.33V336c0 22.09-17.91 40-40 40s-40-17.91-40-40v-34.67c.01-7.36 5.98-13.33 13.34-13.33zM480 242.67V208c0-22.09 17.91-40 40-40s40 17.91 40 40v34.67c0 7.36-5.97 13.33-13.33 13.33h-53.33c-7.37 0-13.34-5.97-13.34-13.33zm112-84.99C576.07 134.96 549.79 120 520 120c-19.53 0-37.59 6.39-52.2 17.2C451.35 107.86 419.95 88 384 88c-24.56 0-47 9.27-64 24.5C303 97.27 280.56 88 256 88c-35.95 0-67.35 19.86-83.8 49.2-14.61-10.8-32.68-17.2-52.2-17.2-29.79 0-56.07 14.96-72 37.68V96c0-26.47 21.53-48 48-48h448c26.47 0 48 21.53 48 48v61.68z"/></svg>