<svg xmlns="http://www.w3.org/2000/svg" viewBox="0 0 640 512"><!-- Font Awesome Pro 5.15.4 by @fontawesome - https://fontawesome.com License - https://fontawesome.com/license (Commercial License) --><path d="M638.7773,216.83088,553.06276,9.88222A15.99571,15.99571,0,0,0,532.16,1.22208L414.84419,49.81961a15.9993,15.9993,0,0,0-8.65758,20.90424l3.22047,7.77537L74.29836,241.74292c-8.31776,4.06444-12.27646,13.25582-9.056,21.02924l8.74351,21.10932L9.88112,310.43609a16.00022,16.00022,0,0,0-8.65954,20.90424l20.0552,48.42175a16.00118,16.00118,0,0,0,20.90475,8.66013l64.10476-26.55462,8.74352,21.10737c3.18531,7.69138,12.42684,11.50387,21.2719,8.46677l126.87565-43.77918c.2285.29492.47848.57031.71088.86133L216.419,490.93951A16.00126,16.00126,0,0,0,231.5976,512h16.86207a15.99882,15.99882,0,0,0,15.17664-10.94138l42.163-126.49575a71.11486,71.11486,0,0,0,28.44718,0l42.163,126.49575A16.00127,16.00127,0,0,0,391.58805,512h16.86011a16.00043,16.00043,0,0,0,15.1786-21.06049L376.15752,348.52388a71.27587,71.27587,0,0,0,15.86018-44.52332c0-.26367-.07616-.50586-.07812-.76757l96.72547-33.37491,3.2361,7.81443a16.00164,16.00164,0,0,0,20.90279,8.66013l117.31578-48.59752A15.99767,15.99767,0,0,0,638.7773,216.83088ZM320.02288,328.0005a23.99994,23.99994,0,1,1,23.99827-23.99994A24.0354,24.0354,0,0,1,320.02288,328.0005Zm55.123-69.74786a71.55078,71.55078,0,0,0-126.92056,43.79285L147.81065,336.69383l-26.6641-64.38068L427.8081,122.92683,470.264,225.43046ZM524.00235,229.739l-61.228-147.81991,58.18918-24.1054,61.22607,147.82186Z"/></svg>