<svg xmlns="http://www.w3.org/2000/svg" viewBox="0 0 512 512"><!-- Font Awesome Pro 5.15.4 by @fontawesome - https://fontawesome.com License - https://fontawesome.com/license (Commercial License) --><path d="M160,322.91V304a16,16,0,0,0-32,0v18.91a48,48,0,1,0,32,0ZM256,112a112,112,0,0,0-224,0V278.5C12.31,303.09,0,334,0,368a144,144,0,0,0,288,0c0-34-12.31-64.91-32-89.5ZM144,464a96.14,96.14,0,0,1-96-96c0-27,11.69-47.3,21.5-59.5L80,295.41V112a64,64,0,0,1,128,0V295.3l10.5,13.11C228.31,320.7,240,341,240,368A96.14,96.14,0,0,1,144,464Zm340-80H440V48a16,16,0,0,0-16-16H408a16,16,0,0,0-16,16V384H348a12,12,0,0,0-12,12,13.75,13.75,0,0,0,3.28,8.23l68,72A13.61,13.61,0,0,0,416,480a13.77,13.77,0,0,0,8.72-3.77l68-72A13.75,13.75,0,0,0,496,396,12,12,0,0,0,484,384Z"/></svg>