<svg xmlns="http://www.w3.org/2000/svg" viewBox="0 0 448 512"><!-- Font Awesome Pro 5.15.4 by @fontawesome - https://fontawesome.com License - https://fontawesome.com/license (Commercial License) --><path d="M368 0c-44.1 0-80 35.9-80 80s35.9 80 80 80 80-35.9 80-80-35.9-80-80-80zm0 112c-17.7 0-32-14.3-32-32s14.3-32 32-32 32 14.3 32 32-14.3 32-32 32zm-112 0C256 50.1 205.9 0 144 0S32 50.1 32 112v166.5C12.3 303.1 0 334 0 368c0 79.5 64.5 144 144 144s144-64.5 144-144c0-34-12.3-64.9-32-89.5V112zM144 464c-52.9 0-96-43.1-96-96 0-27 11.7-47.3 21.5-59.5L80 295.4V112c0-35.3 28.7-64 64-64s64 28.7 64 64v183.3l10.5 13.1C228.3 320.7 240 341 240 368c0 52.9-43.1 96-96 96zm16-141.1V112c0-8.8-7.2-16-16-16s-16 7.2-16 16v210.9c-18.6 6.6-32 24.2-32 45.1 0 26.5 21.5 48 48 48s48-21.5 48-48c0-20.9-13.4-38.5-32-45.1z"/></svg>