<svg xmlns="http://www.w3.org/2000/svg" viewBox="0 0 496 512"><!-- Font Awesome Pro 5.15.4 by @fontawesome - https://fontawesome.com License - https://fontawesome.com/license (Commercial License) --><path d="M495 236.2c0-.1.1-.2.1-.3h-.1C485.2 115.2 388.8 18.8 268.1 9v-.1c-.1 0-.2.1-.3.1-6.5-.5-13.1-1-19.8-1C111.2 8 0 119.2 0 256c0 6.7.5 13.3 1 19.9v.1c9.7 120.8 106.2 217.3 227 227h.1c6.6.5 13.2 1 19.9 1 136.8 0 248-111.2 248-248 0-6.7-.5-13.2-1-19.8zM219.3 58.3c-1.7 6.2-2.8 12.6-2.8 19.3 0 37.7-16.9 79.9-41.9 104.9-25.1 25-67.2 41.9-104.9 41.9-6.7 0-13.1 1.1-19.3 2.8C63 140 132 71 219.3 58.3zM50 282.9c4.2-6.4 11.4-10.5 19.6-10.5 50.3 0 104.8-22 138.8-56 34-34 55.9-88.5 56-138.8 0-8.2 4-15.4 10.4-19.6C363.6 70 434 140.4 446 229.2c-4.2 6.4-11.4 10.4-19.6 10.4-50.4 0-104.8 22-138.8 56-34 34-55.9 88.4-56 138.8 0 8.3-4.1 15.5-10.5 19.7C132.4 442 62 371.6 50 282.9zm226.8 170.8c1.7-6.2 2.8-12.6 2.8-19.3 0-37.7 16.9-79.9 41.9-104.9 25.1-25.1 67.2-41.9 104.9-41.9 6.7 0 13.1-1.1 19.3-2.8C433 372 364 441 276.8 453.7z"/></svg>