<svg xmlns="http://www.w3.org/2000/svg" viewBox="0 0 576 512"><!-- Font Awesome Pro 5.15.4 by @fontawesome - https://fontawesome.com License - https://fontawesome.com/license (Commercial License) --><path d="M560 368h-56V144h56c14.31 0 21.33-17.31 11.31-27.31l-80-80a16 16 0 0 0-22.62 0l-80 80C379.36 126 384.36 144 400 144h56v224h-56c-14.31 0-21.32 17.31-11.31 27.31l80 80a16 16 0 0 0 22.62 0l80-80C580.64 386 575.64 368 560 368zM304 32H16A16 16 0 0 0 0 48v80a16 16 0 0 0 16 16h16a16 16 0 0 0 16-16V96h80v336H80a16 16 0 0 0-16 16v16a16 16 0 0 0 16 16h160a16 16 0 0 0 16-16v-16a16 16 0 0 0-16-16h-48V96h80v32a16 16 0 0 0 16 16h16a16 16 0 0 0 16-16V48a16 16 0 0 0-16-16z"/></svg>