<svg xmlns="http://www.w3.org/2000/svg" viewBox="0 0 512 512"><!-- Font Awesome Pro 5.15.4 by @fontawesome - https://fontawesome.com License - https://fontawesome.com/license (Commercial License) --><path d="M464 32H48C21.5 32 0 53.5 0 80v352c0 26.5 21.5 48 48 48h416c26.5 0 48-21.5 48-48V80c0-26.5-21.5-48-48-48zM197.3 72h117.3v96H197.3zm0 136h117.3v96H197.3zm-40 232H52c-6.6 0-12-5.4-12-12v-84h117.3zm0-136H40v-96h117.3zm0-136H40V84c0-6.6 5.4-12 12-12h105.3zm157.4 272H197.3v-96h117.3v96zm157.3 0H354.7v-96H472zm0-136H354.7v-96H472zm0-136H354.7V72H472z"/></svg>