<svg xmlns="http://www.w3.org/2000/svg" viewBox="0 0 640 512"><!-- Font Awesome Pro 5.15.4 by @fontawesome - https://fontawesome.com License - https://fontawesome.com/license (Commercial License) --><path d="M206.86 244.47c-35.88 10.48-59.95 41.3-57.53 74.29 11.4-12.76 28.81-23.76 49.9-31l7.63-43.29zM606.8 119.91c-44.49-24.76-92.35-41.65-141.65-50.34-49.3-8.69-100.05-9.19-150.32-1.14-27.31 4.37-49.08 26.32-54.04 54.49l-31.73 179.96c-15.39 87.27 95.28 196.76 158.31 207.88 63.03 11.11 204.47-53.93 219.86-141.2l31.73-179.96c4.96-28.17-7.99-56.24-32.16-69.69zm-46.86 241.32c-10.22 57.95-124.2 109.32-164.25 102.26-40.06-7.06-129.59-94.32-119.38-152.27l31.73-179.96c1.4-7.96 7.31-14.3 14.36-15.43 44.75-7.16 89.96-6.82 134.4 1.02 44.44 7.83 87.05 22.98 126.64 45.01 6.24 3.47 9.62 11.46 8.22 19.42l-31.72 179.95zM80.05 297.66L48.32 118.22c-1.4-7.93 1.97-15.89 8.22-19.36 60.13-33.37 128.18-51 196.79-51 8.45 0 16.94.48 25.42 1.01 9.52-5.26 19.91-9.08 31.03-10.86 18.89-3.01 38.04-4.54 57.18-5.32-9.99-13.95-24.47-24.22-41.77-26.99C301.27 1.89 277.24 0 253.32 0 176.66 0 101.02 19.41 33.2 57.04 9.03 70.45-3.92 98.44 1.05 126.53l31.73 179.45C47.02 386.46 169.11 448 237.23 448c3.69 0 6.95-.46 10.29-.82-12.21-15.56-23.11-32.14-31.6-49.38-52.88-10.5-127.86-54.85-135.87-100.14zm113.31-141.01c-.73-4.13-2.23-7.89-4.07-11.42-8.25 8.94-20.67 15.79-35.32 18.37-14.65 2.58-28.67.4-39.48-5.18-.52 3.95-.64 8 .09 12.13 3.84 21.76 24.58 36.28 46.34 32.45s36.28-24.6 32.44-46.35zm312.59 50.09c-21.75-3.84-42.5 10.69-46.34 32.45-.73 4.13-.61 8.18-.09 12.13 10.81-5.58 24.83-7.77 39.48-5.18 14.65 2.58 27.08 9.43 35.33 18.37 1.84-3.53 3.34-7.29 4.07-11.43 3.83-21.76-10.69-42.51-32.45-46.34zm-133 17.16c14.65 2.58 27.08 9.43 35.32 18.37 1.84-3.53 3.34-7.29 4.07-11.43 3.84-21.76-10.69-42.5-32.45-46.34-21.75-3.84-42.5 10.69-46.34 32.45-.73 4.13-.61 8.18-.09 12.13 10.82-5.57 24.84-7.76 39.49-5.18zm44.31 117.3c-43.28-7.63-78.89-28.32-99.49-53.92-4.48 53.77 33.37 103.36 89.04 113.18 55.68 9.82 108.21-23.84 122.38-75.9-28.11 17.01-68.65 24.27-111.93 16.64z"/></svg>