<svg xmlns="http://www.w3.org/2000/svg" viewBox="0 0 512 512"><!-- Font Awesome Pro 5.15.4 by @fontawesome - https://fontawesome.com License - https://fontawesome.com/license (Commercial License) --><path d="M476.8 20.4c-37.5-30.7-95.5-26.3-131.9 10.2L96 281.1V382L7 471c-9.4 9.4-9.4 24.6 0 33.9 9.4 9.4 24.6 9.4 33.9 0l89-89h99.9L484 162.6c34.9-34.9 42.2-101.5-7.2-142.2zm-26.7 108.2L210 368h-66v-67.1l33.1-33.3 27.6 27.6c6.2 6.2 16.4 6.2 22.6 0l11.3-11.3c6.2-6.2 6.2-16.4 0-22.6L211 233.5l33.8-34.1 27.8 27.8c6.2 6.2 16.4 6.2 22.6 0l11.3-11.3c6.3-6.2 6.3-16.4 0-22.6l-28-28 33.8-34.1 28.1 28.1c6.2 6.2 16.4 6.2 22.6 0l11.3-11.3c6.2-6.3 6.2-16.4 0-22.6l-28.2-28.2 32.6-32.8c19.2-19.1 48.8-22.2 67.4-7 25.5 21 21.1 54.1 4 71.2z"/></svg>