<svg xmlns="http://www.w3.org/2000/svg" viewBox="0 0 256 512"><!-- Font Awesome Pro 5.15.4 by @fontawesome - https://fontawesome.com License - https://fontawesome.com/license (Commercial License) --><path d="M224 96c0-53.019-42.981-96-96-96S32 42.981 32 96v203.347C12.225 321.756.166 351.136.002 383.333c-.359 70.303 56.787 128.176 127.089 128.664.299.002.61.003.909.003 70.698 0 128-57.304 128-128 0-32.459-12.088-62.09-32-84.653V96zm-96 376l-.631-.002c-48.276-.335-87.614-40.17-87.367-88.461.188-36.783 21.022-56.625 31.999-69.064V96c0-30.878 25.121-56 56-56 30.878 0 56 25.122 56 56v218.473c10.848 12.292 32 32.361 32 69.527-.001 48.523-39.477 88-88.001 88zm56-88c0 30.928-25.072 56-56 56s-56-25.072-56-56c0-22.338 13.082-41.615 32-50.604V96c0-13.255 10.745-24 24-24s24 10.745 24 24v237.396c18.918 8.989 32 28.266 32 50.604z"/></svg>