<svg xmlns="http://www.w3.org/2000/svg" viewBox="0 0 256 512"><!-- Font Awesome Pro 5.15.4 by @fontawesome - https://fontawesome.com License - https://fontawesome.com/license (Commercial License) --><path d="M184 384c0 30.928-25.072 56-56 56s-56-25.072-56-56c0-22.338 13.082-41.615 32-50.604V280c0-13.255 10.745-24 24-24s24 10.745 24 24v53.396c18.918 8.989 32 28.266 32 50.604zm40-84.653c19.912 22.563 32 52.194 32 84.653 0 70.696-57.302 128-128 128-.299 0-.61-.001-.909-.003C56.789 511.509-.357 453.636.002 383.333.166 351.135 12.225 321.756 32 299.347V96c0-53.019 42.981-96 96-96s96 42.981 96 96v203.347zM216 384c0-37.167-21.152-57.235-32-69.527V96c0-30.878-25.122-56-56-56-30.879 0-56 25.122-56 56v218.473c-10.977 12.439-31.811 32.281-31.999 69.064-.247 48.291 39.091 88.125 87.367 88.461L128 472c48.524 0 88-39.477 88-88z"/></svg>