<svg xmlns="http://www.w3.org/2000/svg" viewBox="0 0 512 512"><!-- Font Awesome Pro 5.15.4 by @fontawesome - https://fontawesome.com License - https://fontawesome.com/license (Commercial License) --><path d="M337 288h-72.1l22.6-77.1c2.5-9.5-4.6-18.9-14.5-18.9h-82c-7.5 0-13.9 5.6-14.9 13l-16 130c-1.2 9 5.8 17 14.9 17h81l-31.6 141.5c-2.2 9.5 5 18.5 14.6 18.5 5.2 0 10.2-2.7 13-7.5l98-194c5.7-10-1.5-22.5-13-22.5zm73.7-183.8C397.2 61.8 358 32 312 32c-13.5 0-26.8 2.6-39.2 7.7C250.3 14.5 218.4 0 184 0 120 0 67.6 50.3 64.2 113.4 25.6 130.4 0 168.5 0 212c0 59.5 48.4 108 108 108h21.7l5.9-48H108c-33.1 0-60-26.9-60-60 0-28 19.1-52 46.4-58.3l20.8-4.8-2.8-24.9c-.2-1.3-.4-2.6-.4-4 0-39.7 32.3-72 72-72 25.2 0 48.2 13.1 61.4 35.1l13.3 22.1 21.1-14.9C289.4 83.6 300.5 80 312 80c28.6 0 52.4 21.7 55.3 50.4l2.2 21.6H404c33.1 0 60 26.9 60 60s-26.9 60-60 60h-32.1c2.1 2.4 4.2 4.7 5.8 7.5 7.2 12.4 7.8 27.3 2.7 40.5H404c59.6 0 108-48.5 108-108 0-57.3-44.9-104.3-101.3-107.8z"/></svg>