<svg xmlns="http://www.w3.org/2000/svg" viewBox="0 0 448 512"><!-- Font Awesome Pro 5.15.4 by @fontawesome - https://fontawesome.com License - https://fontawesome.com/license (Commercial License) --><path d="M316.25 350.67c-31.48-4.74-58.98-24.08-77.7-49.83l-70.96-97.62c-19.2-26.36-56.6-36.33-87.97-17.5C59.2 197.99 48 221.37 48 245.19V304c0 8.84-7.16 16-16 16H16c-8.84 0-16-7.16-16-16v-56.21c0-46.29 25.01-90.77 67.26-109.69 51.3-22.97 108.58-5.14 139.15 36.88l74 101.8c19.2 26.36 56.6 36.33 87.97 17.5C388.8 282.02 400 258.63 400 234.81V176c0-8.84 7.16-16 16-16h16c8.84 0 16 7.16 16 16v61.89c0 68.71-61.03 123.42-131.75 112.78z"/></svg>