<svg xmlns="http://www.w3.org/2000/svg" viewBox="0 0 640 512"><!-- Font Awesome Pro 5.15.4 by @fontawesome - https://fontawesome.com License - https://fontawesome.com/license (Commercial License) --><path d="M633.99 471.01L36 3.51C29.1-2.01 19.03-.9 13.51 6l-10 12.49C-2.02 25.39-.9 35.46 6 40.98l598 467.51c6.9 5.52 16.96 4.4 22.49-2.49l10-12.49c5.52-6.9 4.41-16.97-2.5-22.5zM320 83.66c23.15 56.83 52.02 98.1 76.2 132.66 4.2 6 8.16 11.69 11.95 17.21l84.24 65.86c-17.92-87.7-101.36-136.27-143.17-277.3C345.21 7.54 332.61 0 319.97 0c-12.35 0-24.74 7.2-29.19 22.09-10.44 35.2-23.58 64.47-37.62 90.27l38.12 29.8c10.01-17.75 19.83-36.71 28.72-58.5zM320 464c-70.58 0-128-58.36-128-130.09 0-26.35 7.73-47.65 20.76-70.37l-38.06-29.76c-18.15 30.24-30.7 60.94-30.7 100.13C144 432.35 222.72 512 320 512c52.93 0 100.23-23.69 132.48-61.04l-38.17-29.84C390.88 447.27 357.46 464 320 464z"/></svg>