<svg xmlns="http://www.w3.org/2000/svg" viewBox="0 0 512 512"><!-- Font Awesome Pro 5.15.4 by @fontawesome - https://fontawesome.com License - https://fontawesome.com/license (Commercial License) --><path d="M246.48 256.02h19.04c8.22 0 15.1-6.23 15.92-14.41l12.8-128c.94-9.42-6.45-17.59-15.92-17.59h-44.64c-9.47 0-16.86 8.17-15.92 17.59l12.8 128c.82 8.18 7.7 14.41 15.92 14.41zm257.67-40.31c-6.02-28.55-19.49-54.79-34.23-79.98C455.57 111.21 448 84.89 448 59.47V16c0-8.84-7.16-16-16-16h-16c-8.84 0-16 7.16-16 16v43.47c0 89.04 55.66 112.48 63.19 206.2 4.73 58.94-11.05 105.22-53.22 153.27-7.44 8.47-18.48 13.06-29.75 13.06H131.78c-11.29 0-22.34-4.59-29.78-13.08-42.16-48.06-57.93-94.35-53.19-153.29C56.21 173.78 112 147.1 112 59.47V16c0-8.84-7.16-16-16-16H80c-8.84 0-16 7.16-16 16v43.47c0 25.42-7.56 51.73-21.91 76.23-14.74 25.16-28.2 51.38-34.22 79.92-19.71 93.35-3.04 165.08 57.71 234.54 4.32 4.93 9.19 9.25 14.43 13.04V496c0 8.84 7.16 16 16 16h32c8.84 0 16-7.16 16-16v-16h32v16c0 8.84 7.16 16 16 16h32c8.84 0 16-7.16 16-16v-16h32v16c0 8.84 7.16 16 16 16h32c8.84 0 16-7.16 16-16v-16h32v16c0 8.84 7.16 16 16 16h32c8.84 0 16-7.16 16-16v-32.8c5.22-3.78 10.08-8.09 14.39-13.01 60.75-69.44 77.44-141.16 57.75-234.48zM256 288.02c-17.67 0-32 14.33-32 32s14.33 32 32 32 32-14.33 32-32c0-17.68-14.33-32-32-32z"/></svg>