<svg xmlns="http://www.w3.org/2000/svg" viewBox="0 0 576 512"><!-- Font Awesome Pro 5.15.4 by @fontawesome - https://fontawesome.com License - https://fontawesome.com/license (Commercial License) --><path d="M384 64H192C85.961 64 0 149.961 0 256s85.961 192 192 192h192c106.039 0 192-85.961 192-192S490.039 64 384 64zM48 256c0-79.583 64.404-144 144-144 79.582 0 144 64.404 144 144 0 79.582-64.404 144-144 144-79.582 0-144-64.404-144-144zm336 144h-65.02c86.704-76.515 86.683-211.504 0-288H384c79.582 0 144 64.404 144 144 0 79.582-64.404 144-144 144z"/></svg>