<svg xmlns="http://www.w3.org/2000/svg" viewBox="0 0 640 512"><!-- Font Awesome Pro 5.15.4 by @fontawesome - https://fontawesome.com License - https://fontawesome.com/license (Commercial License) --><path d="M496,144c-13.25,0-24,21.48-24,48s10.75,48,24,48,24-21.49,24-48S509.26,144,496,144ZM176,48H422.09C398.78,83.19,384,134.58,384,192v22.65L440.73,259A257.37,257.37,0,0,1,432,192c0-86.56,38.51-144,64-144s64,57.44,64,144c0,61.15-19.25,107.25-39.52,129.35l38.16,29.83C588.42,316.68,608,258.26,608,192,608,86,557.86,0,496,0H176c-16.17,0-31.5,6-45.38,16.56L172.13,49C173.41,48.75,174.77,48,176,48ZM365.41,464H92.59C105.16,426.48,112,401.78,112,364.06V192c0-2.42.32-4.56.38-6.93l-45.53-35.6A324.36,324.36,0,0,0,64,192V364.06c0,41.12-9.8,62.78-31.17,126.87A16,16,0,0,0,48,512H376.94a32,32,0,0,0,30.36-21.87c6.73-20.22,13-39.49,17.6-60.73l-42.85-33.5C379.11,420.68,373,441.16,365.41,464ZM634,471,36,3.52A16,16,0,0,0,13.51,6l-10,12.49A16,16,0,0,0,6,41L604,508.48A16,16,0,0,0,626.48,506l10-12.49A16,16,0,0,0,634,471Z"/></svg>