<svg xmlns="http://www.w3.org/2000/svg" viewBox="0 0 576 512"><!-- Font Awesome Pro 5.15.4 by @fontawesome - https://fontawesome.com License - https://fontawesome.com/license (Commercial License) --><path d="M464 144c-13.25 0-24 21.49-24 48s10.75 48 24 48c13.26 0 24-21.49 24-48s-10.74-48-24-48zm0-144H144C82.14 0 32 85.96 32 192v172.07c0 41.12-9.8 62.77-31.17 126.87C-2.62 501.3 5.09 512 16.01 512h328.92c13.77 0 26-8.81 30.36-21.88 11.16-33.48 21.59-63.54 24.11-106.12H464c61.86 0 112-85.96 112-192S525.86 0 464 0zM352 192v172.07c0 41.07-8.02 68.04-18.6 99.93H60.6C73.16 426.48 80 401.78 80 364.07V192c0-86.57 38.52-144 64-144h246.09C366.78 83.19 352 134.58 352 192zm112 144c-25.48 0-64-57.43-64-144s38.52-144 64-144c25.48 0 64 57.43 64 144s-38.52 144-64 144z"/></svg>