<svg xmlns="http://www.w3.org/2000/svg" viewBox="0 0 384 512"><!-- Font Awesome Pro 5.15.4 by @fontawesome - https://fontawesome.com License - https://fontawesome.com/license (Commercial License) --><path d="M152 64h-48c-4.4 0-8 3.6-8 8v16c0 4.4 3.6 8 8 8h48c4.4 0 8-3.6 8-8V72c0-4.4-3.6-8-8-8zm216-16c8.8 0 16-7.2 16-16V16c0-8.8-7.2-16-16-16H16C7.2 0 0 7.2 0 16v16c0 8.8 7.2 16 16 16h16v156.7C11.8 214.8 0 226.9 0 240c0 61.4 28.9 115.9 73.7 151l-24.3 79.7C43.1 491.2 58.5 512 80 512h224c21.5 0 36.9-20.8 30.6-41.3L310.3 391c44.8-35.1 73.7-89.7 73.7-151 0-13.1-11.8-25.2-32-35.3V48h16zM80 48h224v140.1c-31.5-7.6-70.2-12.1-112-12.1s-80.5 4.5-112 12.1V48zm21.6 416l14.5-47.6c23.3 10 48.9 15.6 75.9 15.6s52.6-5.6 75.9-15.6l14.5 47.6H101.6zm90.4-80c-63.6 0-117.3-41.6-136.3-98.9 34.8 11.7 83 18.9 136.3 18.9s101.5-7.2 136.3-18.9c-19 57.3-72.7 98.9-136.3 98.9zm0-116c-77.1 0-139.6-12.5-139.6-28s62.5-28 139.6-28 139.6 12.5 139.6 28-62.5 28-139.6 28z"/></svg>