<svg xmlns="http://www.w3.org/2000/svg" viewBox="0 0 448 512"><!-- Font Awesome Pro 5.15.4 by @fontawesome - https://fontawesome.com License - https://fontawesome.com/license (Commercial License) --><path d="M443.96 96.2c-11.03-45.29-47.13-82.07-91.97-93.7-27.48-7.16-57.49 1.03-89.16 24.31-11.45 8.42-25.2 13.02-38.81 13.3-6.28-.12-17.12.13-40.43-14.36-.1-.06-.21-.05-.3-.11C152.33 3.4 122.92-4.46 96.04 2.49c-44.85 11.64-80.96 48.43-92 93.73-9.59 39.52-1.95 78.74 21.51 110.45 20.51 27.71 32.04 61.82 36.29 107.35 3.61 38.69 9.26 89.62 20.93 140.32l7.8 33.99c3.22 13.94 15.42 23.67 29.67 23.67 13.97 0 26.12-9.5 29.54-23.16l34.48-138.43c4.56-18.35 20.9-31.16 39.74-31.16 18.84 0 35.2 12.81 39.76 31.16l34.46 138.48C301.65 502.5 313.8 512 327.77 512c14.25 0 26.45-9.74 29.67-23.69l7.8-33.97c11.67-50.71 17.33-101.63 20.93-140.32 4.25-45.54 15.78-79.65 36.28-107.35 23.47-31.71 31.11-70.93 21.51-110.47zm-60.09 81.9c-25.93 35.05-40.38 76.82-45.48 131.45-2.52 26.85-6.03 59.74-11.94 94.01l-16.12-64.75c-9.92-39.77-45.42-67.55-86.33-67.55-40.93 0-76.43 27.78-86.32 67.57l-16.14 64.75c-5.9-34.25-9.42-67.18-11.94-94.02-5.09-54.63-19.54-96.4-45.49-131.45-14.84-20.06-19.62-45.11-13.45-70.52 6.9-28.35 29.45-51.36 57.44-58.63 2.53-.66 5.14-.98 7.75-.98 15.92 0 17.9 3.35 135.48 76.4 3.94 2.45 8.31 3.61 12.64 3.61 8.01 0 15.86-4.02 20.4-11.34 6.98-11.25 3.53-26.05-7.73-33.05l-8.46-5.26c8.08-3.47 15.9-7.55 23.08-12.82 19.22-14.16 35.12-20.13 48.63-16.53 27.98 7.25 50.52 30.27 57.41 58.6 6.21 25.39 1.43 50.44-13.43 70.51z"/></svg>