<svg xmlns="http://www.w3.org/2000/svg" viewBox="0 0 640 512"><!-- Font Awesome Pro 5.15.4 by @fontawesome - https://fontawesome.com License - https://fontawesome.com/license (Commercial License) --><path d="M224.36 256l-29.21 48.86a21.11 21.11 0 0 0 18.1 32h59.54L302 385.71a20.78 20.78 0 0 0 18 10.23 21.13 21.13 0 0 0 18.16-10.37l29.13-48.7h59.45a21.25 21.25 0 0 0 18.48-10.72A20.69 20.69 0 0 0 445 305l-29.35-49 29.24-48.86a21.12 21.12 0 0 0-18.1-32h-59.54L338 126.29a20.76 20.76 0 0 0-17.95-10.23 21.13 21.13 0 0 0-18.22 10.37l-29.13 48.7h-59.45a21.23 21.23 0 0 0-18.48 10.72A20.7 20.7 0 0 0 195 207zm-3.62 55.5l18.39-30.82 18.46 30.82zm99.31 55l-17.74-29.64h35.46zm99.26-55h-36.86l18.41-30.8zm-.05-111l-18.4 30.82-18.46-30.82zm-99.26-55l17.68 29.62h-35.46zm-32.93 54.95h65.79L386.09 256l-33.17 55.5h-65.79L253.9 256zm-29.52 0l-18.37 30.8-18.44-30.8zM560 0c-36.17 0-65.67 20-75.88 48H155.88C145.67 20 116.17 0 80 0 35.14 0 0 30.46 0 69.33v373.34C0 481.54 35.14 512 80 512c36.17 0 65.67-19.95 75.88-48h328.24c10.21 28.05 39.71 48 75.88 48 44.86 0 80-30.46 80-69.33V69.33C640 30.46 604.86 0 560 0zM112 442.67C112 454.45 97.67 464 80 464s-32-9.55-32-21.33V69.33C48 57.55 62.33 48 80 48s32 9.55 32 21.33zM480 416H160V96h320zm112 26.67c0 11.78-14.33 21.33-32 21.33s-32-9.55-32-21.33V69.33C528 57.55 542.33 48 560 48s32 9.55 32 21.33z"/></svg>