<svg xmlns="http://www.w3.org/2000/svg" viewBox="0 0 512 512"><!-- Font Awesome Pro 5.15.4 by @fontawesome - https://fontawesome.com License - https://fontawesome.com/license (Commercial License) --><path d="M429.1 25.2c7.4-10.6 0-25.2-12.9-25.2h-400C7.1 0-.3 7.6 0 16.5c13.3 352.7 452 219.8 331.7 472.6-5 10.6 2.6 22.9 14.3 22.9h27.4c7.9 0 15.8-3 21.7-8.3 320.6-286.7-138.9-229.8 34-478.5zM360.4 48c-13.8 29.8-19.3 56.3-19.3 80H76.4c-12.3-22-21.2-48.1-25.6-80h309.6zM114.6 176h234.7c11.8 33.3 34.3 59.3 55.1 80H257.1c-4.3-1.9-8.5-3.8-12.8-5.7-47.6-20.9-93.9-41.4-129.7-74.3zm284.6 257.6c3.2-24.3.9-46.6-6.8-67.2-9.8-26.3-26.9-46-48.1-62.5h107.3c8 10.2 12.5 19.4 12.3 29.1-.2 14.3-9.7 44.9-64.7 100.6z"/></svg>