<svg xmlns="http://www.w3.org/2000/svg" viewBox="0 0 640 512"><!-- Font Awesome Pro 5.15.4 by @fontawesome - https://fontawesome.com License - https://fontawesome.com/license (Commercial License) --><path d="M608 160h-80v-48c0-10.59 3.52-20.82 9.86-29.13 3.32-4.35 2.66-10.54-.99-14.62l-16.22-18.12c-5-5.58-13.74-5.19-18.53.58C487.93 67.83 480 89.51 480 112v48H364.4L306.22 24.23C299.88 9.52 285.44 0 269.44 0H136c-22.06 0-40 17.94-40 40v144.53c-11.97.87-23.15 5.72-31.72 14.29l-25.45 25.45c-9.44 9.45-14.64 22-14.64 35.36 0 4.94.71 9.77 2.08 14.37C10.63 282.47 0 299.02 0 318v36c0 18.98 10.63 35.53 26.26 44-1.37 4.6-2.08 9.43-2.08 14.37 0 13.36 5.2 25.91 14.65 35.35l25.46 25.46c9.44 9.44 22 14.64 35.35 14.65 4.94 0 9.77-.71 14.37-2.09 8.46 15.63 25.01 26.26 44 26.26h36.01c18.98 0 35.52-10.64 43.99-26.26a50.3 50.3 0 0 0 14.37 2.09c13.36 0 25.92-5.2 35.36-14.65l25.45-25.45c9.44-9.45 14.64-22 14.64-35.36 0-4.94-.71-9.77-2.08-14.37 6.27-3.4 11.42-8.36 15.72-14h80.42c-3.57 10.05-5.88 20.72-5.88 32 0 53.02 42.98 96 96 96s96-42.98 96-96c0-26.51-10.74-50.51-28.12-67.88l50.74-50.74c6-6 9.37-14.14 9.37-22.63V192c0-17.67-14.33-32-32-32zM144 48h120.19l47.98 112H157.99c-4.86 0-9.55.74-13.99 2.04V48zm160 306c0 1.1-.9 2-2 2h-17.77c-6.73 22.57-6.25 21.41-17.55 42.39l12.56 12.56c.67.67.66 2.16 0 2.82l-25.46 25.46h-2.83l-12.55-12.56c-21.02 11.32-19.88 10.84-42.4 17.55V462a2 2 0 0 1-2 2h-36c-1.1 0-2-.9-2-2v-17.77c-22.49-6.71-21.38-6.23-42.4-17.55l-12.56 12.56h-2.83l-25.46-25.46c-.67-.67-.67-2.16 0-2.83l12.55-12.56C74 377.41 74.47 378.53 67.76 356H50c-1.1 0-2-.9-2-2v-36c0-1.1.9-2 2-2h17.77c6.73-22.57 6.25-21.41 17.55-42.39l-12.56-12.56c-.67-.67-.66-2.16 0-2.82l25.46-25.46h2.83l12.55 12.56c21.02-11.32 19.88-10.84 42.4-17.55V210a2 2 0 0 1 2-2h36c1.1 0 2 .9 2 2v17.77c22.49 6.7 21.38 6.22 42.4 17.55l12.56-12.56h2.83l25.46 25.46c.67.67.67 2.16 0 2.83l-12.55 12.56c11.3 20.98 10.83 19.86 17.54 42.39H302c1.1 0 2 .9 2 2v36zm208 110c-26.47 0-48-21.53-48-48s21.53-48 48-48 48 21.53 48 48-21.53 48-48 48zm80-195.88l-55.45 55.45c-7.88-2.09-16.01-3.57-24.55-3.57-19.59 0-37.76 5.93-52.95 16H352v-18c0-18.98-10.63-35.53-26.26-44 1.37-4.6 2.08-9.43 2.08-14.37 0-13.36-5.2-25.91-14.65-35.35L296.9 208H592v60.12zm-380.22 14.81C201.57 276.03 189.25 272 176 272s-25.57 4.03-35.78 10.93a64.352 64.352 0 0 0-17.29 17.29C116.03 310.43 112 322.74 112 336c0 35.35 28.65 64 64 64s64-28.65 64-64c0-13.26-4.03-25.57-10.93-35.78a64.352 64.352 0 0 0-17.29-17.29zM176 352c-8.82 0-16-7.18-16-16s7.18-16 16-16 16 7.18 16 16-7.18 16-16 16z"/></svg>