<svg xmlns="http://www.w3.org/2000/svg" viewBox="0 0 640 512"><!-- Font Awesome Pro 5.15.4 by @fontawesome - https://fontawesome.com License - https://fontawesome.com/license (Commercial License) --><path d="M640 403l-23.8-296c-.5-6.2-5.7-11-12-11h-43c-4.9 0-9.3 3-11.2 7.6l-59.6 150.6c-7.2 18.9-15.8 46.9-15.8 46.9h-.9s-9-27.9-16.2-46.9l-59.6-150.6c-1.8-4.6-6.2-7.6-11.2-7.6h-43c-6.2 0-11.5 4.8-12 11l-24.2 296c-.6 7 4.9 13 12 13h34c6.3 0 11.5-4.8 12-11.1l12.7-167.8c1.4-21.2.5-50 .5-50h.9s9.9 31.5 17.6 50l48.3 116.5c1.9 4.5 6.2 7.4 11.1 7.4h34.9c4.8 0 9.2-2.9 11.1-7.4L551.3 237c7.7-18.5 17.1-49.6 17.1-49.6h.9s-.9 28.4.5 49.6l12.7 167.8c.5 6.3 5.7 11.1 12 11.1H628c7 .1 12.5-5.9 12-12.9zM256.2 96H12c-6.6 0-12 5.4-12 12v26c0 6.6 5.4 12 12 12h93v258c0 6.6 5.4 12 12 12h34.1c6.6 0 12-5.4 12-12V146h93c6.6 0 12-5.4 12-12v-26c.1-6.6-5.3-12-11.9-12z"/></svg>