<svg xmlns="http://www.w3.org/2000/svg" viewBox="0 0 640 512"><!-- Font Awesome Pro 5.15.4 by @fontawesome - https://fontawesome.com License - https://fontawesome.com/license (Commercial License) --><path d="M176,320a80,80,0,1,0,80,80A80,80,0,0,0,176,320Zm0,112a32,32,0,1,1,32-32A32,32,0,0,1,176,432Zm448-96H544V96a32,32,0,0,0-32-32H32A32,32,0,0,0,0,96V368a16,16,0,0,0,16,16H52.58c7.59,0,13.69-5.44,15.64-12.78C80.91,323.36,124.14,288,176,288s95.09,35.36,107.78,83.22c2,7.34,8.05,12.78,15.64,12.78H624a16,16,0,0,0,16-16V352A16,16,0,0,0,624,336Zm-128,0H440V160a16,16,0,0,0-16-16H408a16,16,0,0,0-16,16V336H344V160a16,16,0,0,0-16-16H312a16,16,0,0,0-16,16V295.79a158.8,158.8,0,0,0-48-38.09V160a16,16,0,0,0-16-16H216a16,16,0,0,0-16,16v81.81a151.35,151.35,0,0,0-48,.21V160a16,16,0,0,0-16-16H120a16,16,0,0,0-16,16v97.4a160.31,160.31,0,0,0-56,47.87V112H496Z"/></svg>