<svg xmlns="http://www.w3.org/2000/svg" viewBox="0 0 512 512"><!-- Font Awesome Pro 5.15.4 by @fontawesome - https://fontawesome.com License - https://fontawesome.com/license (Commercial License) --><path d="M511.1 49.6c-3.5-12.8-16.7-20.2-29.5-16.8l-464 128C4.8 164.3-2.7 177.6.8 190.3 3.8 201 13.5 208 24 208c2.1 0 4.3-.3 6.4-.9L232 151.5V224H64c-17.7 0-32 14.3-32 32v224c0 17.7 14.3 32 32 32h384c17.7 0 32-14.3 32-32V256c0-17.7-14.3-32-32-32H280v-85.7l214.4-59.1c12.8-3.6 20.3-16.8 16.7-29.6zM432 272v192H80V272h352zM144 384h32c8.8 0 16-7.2 16-16v-32c0-8.8-7.2-16-16-16h-32c-8.8 0-16 7.2-16 16v32c0 8.8 7.2 16 16 16zm96 0h32c8.8 0 16-7.2 16-16v-32c0-8.8-7.2-16-16-16h-32c-8.8 0-16 7.2-16 16v32c0 8.8 7.2 16 16 16zm96 0h32c8.8 0 16-7.2 16-16v-32c0-8.8-7.2-16-16-16h-32c-8.8 0-16 7.2-16 16v32c0 8.8 7.2 16 16 16zM192 96c17.7 0 32-14.3 32-32s-14.3-32-32-32-32 14.3-32 32 14.3 32 32 32zm96-32c17.7 0 32-14.3 32-32S305.7 0 288 0s-32 14.3-32 32 14.3 32 32 32z"/></svg>