<svg xmlns="http://www.w3.org/2000/svg" viewBox="0 0 512 512"><!-- Font Awesome Pro 5.15.4 by @fontawesome - https://fontawesome.com License - https://fontawesome.com/license (Commercial License) --><path d="M191.99145,416h56.00541V384H191.99145Zm72.00583,0h55.99759V384H263.99728Zm-144.039-128a23.98036,23.98036,0,0,0,18.90676-9.17188l53.12641-67.59765V352h56.00541V320h16.00042v32h55.99759V211.20312l53.12642,67.625a24.00329,24.00329,0,0,0,37.751-29.65624L332.464,149.35938A55.81142,55.81142,0,0,0,288.43153,128H223.5548a55.672,55.672,0,0,0-44.03243,21.40625L101.114,249.17188A23.99035,23.99035,0,0,0,119.95828,288ZM255.958,96l.01953-.00195L255.99707,96a48,48,0,1,0,0-96l-.01953.002L255.958,0a48,48,0,1,0,0,96ZM384.00049,464H319.99487V448H263.99728v16H247.99686V448H191.99145v16h-63.9978A31.99951,31.99951,0,0,0,95.9928,496v16H416.00134V496A31.99951,31.99951,0,0,0,384.00049,464ZM509.789,364.41992,480.005,352l-12.42026-29.78516a3.99471,3.99471,0,0,0-7.15644,0L448.00806,352l-29.784,12.41992a3.99921,3.99921,0,0,0,0,7.1543l29.784,12.41992,12.42025,29.78516a3.99628,3.99628,0,0,0,7.15644,0L480.005,383.99414l29.784-12.41992a3.99921,3.99921,0,0,0,0-7.1543ZM63.99194,128.002,51.57169,98.21875a3.99313,3.99313,0,0,0-7.15449,0L31.997,128.002,2.211,140.42188a4.00078,4.00078,0,0,0,0,7.15624l29.786,12.41993,12.42025,29.7832a3.99313,3.99313,0,0,0,7.15449,0l12.42025-29.7832,29.786-12.41993a4.00236,4.00236,0,0,0,0-7.15624Z"/></svg>