<svg xmlns="http://www.w3.org/2000/svg" viewBox="0 0 512 512"><!-- Font Awesome Pro 5.15.4 by @fontawesome - https://fontawesome.com License - https://fontawesome.com/license (Commercial License) --><path d="M255.958,96l.01953-.00195L255.99707,96a48,48,0,1,0,0-96l-.01953.002L255.958,0a48,48,0,1,0,0,96ZM63.99194,96,51.57169,66.21484a3.99313,3.99313,0,0,0-7.15449,0L31.997,96,2.211,108.41992a3.99921,3.99921,0,0,0,0,7.1543l29.786,12.41992L44.4172,157.7793a3.9947,3.9947,0,0,0,7.15449,0l12.42025-29.78516,29.786-12.41992a4.00079,4.00079,0,0,0,0-7.1543ZM384.00049,464H319.99487V211.20312l53.12642,67.625a24.00329,24.00329,0,0,0,37.751-29.65624L332.464,149.35938A55.81142,55.81142,0,0,0,288.43153,128H223.5548a55.672,55.672,0,0,0-44.03243,21.40625L101.114,249.17188a24.00329,24.00329,0,0,0,37.751,29.65624l53.12641-67.59765V464h-63.9978A31.99951,31.99951,0,0,0,95.9928,496v16H416.00134V496A31.99951,31.99951,0,0,0,384.00049,464Zm-120.00321,0H247.99686V320h16.00042ZM509.789,44.43164,480.005,32.01172,467.58475,2.22656a3.99471,3.99471,0,0,0-7.15644,0L448.00806,32.01172l-29.784,12.41992a3.99921,3.99921,0,0,0,0,7.1543l29.784,12.41992L460.42831,93.791a3.99628,3.99628,0,0,0,7.15644,0L480.005,64.00586l29.784-12.41992a3.99921,3.99921,0,0,0,0-7.1543Z"/></svg>