<svg xmlns="http://www.w3.org/2000/svg" viewBox="0 0 512 512"><!-- Font Awesome Pro 5.15.4 by @fontawesome - https://fontawesome.com License - https://fontawesome.com/license (Commercial License) --><path d="M509.791,44.43164,480.00488,32.01172,467.58458,2.22656a3.99315,3.99315,0,0,0-7.15451,0l-12.4203,29.78516L418.2237,44.43164a3.99921,3.99921,0,0,0,0,7.1543l29.78607,12.41992L460.43007,93.791a3.99472,3.99472,0,0,0,7.15451,0l12.4203-29.78516L509.791,51.58594a4.00079,4.00079,0,0,0,0-7.1543ZM63.99023,352.00391,51.56993,322.2207a3.99315,3.99315,0,0,0-7.15451,0l-12.4203,29.78321L2.20905,364.42383a4.00237,4.00237,0,0,0,0,7.15625L31.99512,384l12.4203,29.7832a3.99315,3.99315,0,0,0,7.15451,0L63.99023,384,93.7763,371.58008a4.00079,4.00079,0,0,0,0-7.15625Zm309.13248-73.17579a23.99776,23.99776,0,0,0,33.68853,4.04688A23.74885,23.74885,0,0,0,414.31343,256H355.18857ZM319.99609,320h-55.9978v32h55.9978ZM191.99219,211.23047V224h128.0039V211.20312L330.04913,224h61.0507l-25.13749-32H146.04743l-25.14921,32h61.0585ZM255.99805,0l-.01954.002L255.959,0a47.95186,47.95186,0,0,0-45.0502,32h90.13947A47.95186,47.95186,0,0,0,255.99805,0ZM255.959,96l.01953-.00195L255.99805,96a47.87741,47.87741,0,0,0,45.06-32H210.899A47.87741,47.87741,0,0,0,255.959,96Zm76.50624,53.35938A55.81167,55.81167,0,0,0,288.43263,128h-64.877a55.67224,55.67224,0,0,0-44.03259,21.40625L171.19663,160H340.82485ZM263.99829,416h55.9978V384h-55.9978ZM384.002,464H319.99609V448h-55.9978v16H247.9978V448H191.99219v16h-63.998a31.99957,31.99957,0,0,0-32.001,32v16H416.00293V496A31.99957,31.99957,0,0,0,384.002,464ZM191.99219,416H247.9978V384H191.99219ZM119.95874,288a23.98048,23.98048,0,0,0,18.90683-9.17188L156.80752,256H97.67486a23.69223,23.69223,0,0,0,22.28388,32ZM247.9978,320H191.99219v32H247.9978Zm71.99829-64H191.99219v32h128.0039Z"/></svg>