<svg xmlns="http://www.w3.org/2000/svg" viewBox="0 0 512 512"><!-- Font Awesome Pro 5.15.4 by @fontawesome - https://fontawesome.com License - https://fontawesome.com/license (Commercial License) --><path d="M264.0061,416h55.99781V384H264.0061Zm55.99781-96H264.0061v32h55.99781Zm0-64H192v32H320.00391Zm53.12662,22.82812a23.99776,23.99776,0,0,0,33.68853,4.04688A23.74886,23.74886,0,0,0,414.32124,256H355.19639ZM255.9668,96l.01953-.00195L256.00586,96a48,48,0,1,0,0-96l-.01953.002L255.9668,0a48,48,0,1,0,0,96ZM192,211.23047V224H320.00391V211.20312L330.05695,224h61.05069L332.473,149.35938A55.81171,55.81171,0,0,0,288.44044,128h-64.877a55.67227,55.67227,0,0,0-44.03259,21.40625L120.906,224h61.05851ZM248.00562,320H192v32h56.00562ZM119.96655,288a23.98048,23.98048,0,0,0,18.90683-9.17188L156.81533,256H97.68267a23.69223,23.69223,0,0,0,22.28388,32ZM192,416h56.00562V384H192Zm192.00977,48H320.00391V448H264.0061v16H248.00562V448H192v16H128.002a31.99957,31.99957,0,0,0-32.001,32v16H416.01074V496A31.99957,31.99957,0,0,0,384.00977,464ZM509.791,140.416l-29.78607-12.41993-12.4203-29.7832a3.99315,3.99315,0,0,0-7.15451,0l-12.4203,29.7832L418.2237,140.416a4.00079,4.00079,0,0,0,0,7.15625l29.78607,12.41992,12.4203,29.7832a3.99315,3.99315,0,0,0,7.15451,0l12.4203-29.7832L509.791,147.57227a4.00237,4.00237,0,0,0,0-7.15625ZM63.99023,32.002,51.56993,2.21875a3.99315,3.99315,0,0,0-7.15451,0L31.99512,32.002,2.20905,44.42188a4.00078,4.00078,0,0,0,0,7.15429L31.99512,63.99609l12.4203,29.78516a3.99315,3.99315,0,0,0,7.15451,0l12.4203-29.78516L93.7763,51.57617a3.99921,3.99921,0,0,0,0-7.15429Z"/></svg>