<svg xmlns="http://www.w3.org/2000/svg" viewBox="0 0 480 512"><!-- Font Awesome Pro 5.15.4 by @fontawesome - https://fontawesome.com License - https://fontawesome.com/license (Commercial License) --><path d="M468 0h-63c-10.7 0-16 12.9-8.5 20.5L411 35l-87.6 87.6C299.9 105.9 271.1 96 240 96s-59.9 9.9-83.4 26.6l-26-26L150 77.1c4.7-4.7 4.7-12.3 0-17l-17-17c-4.7-4.7-12.3-4.7-17 0L96.6 62.6 69 35l14.5-14.5C91.1 12.9 85.7 0 75 0H12C5.4 0 0 5.4 0 12v63c0 10.7 12.9 16 20.5 8.5L35 69l27.6 27.6L43.2 116c-4.7 4.7-4.7 12.3 0 17l17 17c4.7 4.7 12.3 4.7 17 0l19.5-19.5 26 26C105.9 180.1 96 208.9 96 240c0 71.4 51.9 130.6 120 142v34h-44c-6.6 0-12 5.4-12 12v24c0 6.6 5.4 12 12 12h44v36c0 6.6 5.4 12 12 12h24c6.6 0 12-5.4 12-12v-36h44c6.6 0 12-5.4 12-12v-24c0-6.6-5.4-12-12-12h-44v-34c68.1-11.4 120-70.6 120-142 0-31.1-9.9-59.9-26.6-83.4L445 69l14.5 14.5c7.6 7.6 20.5 2.2 20.5-8.5V12c0-6.6-5.4-12-12-12zM240 336c-52.9 0-96-43.1-96-96s43.1-96 96-96 96 43.1 96 96-43.1 96-96 96z"/></svg>