<svg xmlns="http://www.w3.org/2000/svg" viewBox="0 0 448 512"><!-- Font Awesome Pro 5.15.4 by @fontawesome - https://fontawesome.com License - https://fontawesome.com/license (Commercial License) --><path d="M203.76 348.71A12 12 0 0 0 224 340v-35.16c48.68 5.1 65.21 26 48.45 84.78-2.15 7.53 6.15 13.37 12 8.72C303.11 383.45 320 355 320 326.19c0-62.88-39.64-82-96-86.17V204a12 12 0 0 0-20.24-8.73l-72 68a12 12 0 0 0 0 17.44zM432 80h-82.41l-34-56.7C307.88 10.44 289.44 0 274.44 0H173.56c-15 0-33.44 10.44-41.15 23.3l-34 56.7H16A16 16 0 0 0 0 96v16a16 16 0 0 0 16 16h16l21.19 339c1.56 24.84 23 45 47.9 45h245.82c24.87 0 46.34-20.16 47.9-45L416 128h16a16 16 0 0 0 16-16V96a16 16 0 0 0-16-16zM173.59 48h100.82l19.18 32H154.41zm173.32 416H101.12l-21-336h287.79z"/></svg>