<svg xmlns="http://www.w3.org/2000/svg" viewBox="0 0 448 512"><!-- Font Awesome Pro 5.15.4 by @fontawesome - https://fontawesome.com License - https://fontawesome.com/license (Commercial License) --><path d="M432 80h-82.4l-34-56.7A48 48 0 0 0 274.4 0H173.6a48 48 0 0 0-41.2 23.3L98.4 80H16A16 16 0 0 0 0 96v16a16 16 0 0 0 16 16h16l21.2 339a48 48 0 0 0 47.9 45h245.8a48 48 0 0 0 47.9-45L416 128h16a16 16 0 0 0 16-16V96a16 16 0 0 0-16-16zM173.6 48h100.8l19.2 32H154.4zm173.3 416H101.11l-21-336h287.8zM235.61 181.05a15.88 15.88 0 0 0-23.22 0l-80.26 81.75c-8.82 9.3-2.58 25.2 9.9 25.2h50v96a16 16 0 0 0 16 16h32a16 16 0 0 0 16-16v-96h50c12.48 0 18.72-15.9 9.9-25.2z"/></svg>