<svg xmlns="http://www.w3.org/2000/svg" viewBox="0 0 576 512"><!-- Font Awesome Pro 5.15.4 by @fontawesome - https://fontawesome.com License - https://fontawesome.com/license (Commercial License) --><path d="M448 32H128C57.31 32 0 89.31 0 160v288c0 17.67 14.33 32 32 32h512c17.67 0 32-14.33 32-32V160c0-70.69-57.31-128-128-128zM96 432H48V288h48v144zm0-192H48v-80c0-32.72 19.8-60.84 48-73.22V240zm336 192H144V288h80v48c0 8.84 7.16 16 16 16h96c8.84 0 16-7.16 16-16v-48h80v144zM272 288v-32c0-8.84 7.16-16 16-16s16 7.16 16 16v32c0 8.84-7.16 16-16 16s-16-7.16-16-16zm160-48h-80v-32c0-8.84-7.16-16-16-16h-96c-8.84 0-16 7.16-16 16v32h-80V80h288v160zm96 192h-48V288h48v144zm0-192h-48V86.78c28.2 12.38 48 40.5 48 73.22v80z"/></svg>