<svg xmlns="http://www.w3.org/2000/svg" viewBox="0 0 512 512"><!-- Font Awesome Pro 5.15.4 by @fontawesome - https://fontawesome.com License - https://fontawesome.com/license (Commercial License) --><path d="M500.3 432.6l-46.6-53.7c9.2-4.7 16.8-12.2 21.5-21.8 8-16.5 5.9-36.2-5.4-50.6L413.6 235c9.9-5 17.9-13.3 22.5-23.9 7.6-17.6 4-38-9.2-52l-136-144C281.8 5.4 269.2 0 256 0s-25.8 5.4-34.9 15l-136 144c-13.2 13.9-16.8 34.4-9.2 52 4.6 10.6 12.6 18.9 22.5 23.9l-56.2 71.5c-11.4 14.4-13.5 34.1-5.4 50.6 4.7 9.6 12.3 17.2 21.5 21.8l-46.6 53.7c-12.3 14.2-15.2 34.3-7.4 51.4C12.1 501 29.2 512 48 512h416c18.8 0 35.9-11 43.7-28.1 7.8-17.1 4.9-37.1-7.4-51.3zM48 464l110.9-128H80l113.1-144H120L256 48l136 144h-73.1L432 336h-78.9L464 464H48zm256-88c-13.3 0-24 10.7-24 24s10.7 24 24 24 24-10.7 24-24-10.7-24-24-24zM192 264c-13.3 0-24 10.7-24 24s10.7 24 24 24 24-10.7 24-24-10.7-24-24-24zm104-88c0-13.3-10.7-24-24-24s-24 10.7-24 24 10.7 24 24 24 24-10.7 24-24z"/></svg>