<svg xmlns="http://www.w3.org/2000/svg" viewBox="0 0 448 512"><!-- Font Awesome Pro 5.15.4 by @fontawesome - https://fontawesome.com License - https://fontawesome.com/license (Commercial License) --><path d="M442.2 376.2l-55.5-64.4h5.3c9.3 0 17.8-5.4 21.8-13.9 3.9-8.5 2.6-18.5-3.5-25.6l-54.6-64.5H368c9.5 0 18.1-5.6 21.9-14.2 3.8-8.7 2.2-18.8-4.1-25.8L241.9 7.6c-9.1-10.1-26.6-10.1-35.7 0l-144 160.1c-6.3 7.1-7.9 17.2-4.1 25.8 3.9 8.7 12.5 14.2 21.9 14.2h12.2l-54.6 64.5c-6 7.1-7.4 17.1-3.5 25.6s12.4 13.9 21.8 13.9h5.3L5.8 376.2c-6.1 7.1-7.5 17.2-3.6 25.7s12.4 14 21.8 14h168v24.5l-30.3 48.4c-5.3 10.6 2.4 23.2 14.3 23.2h96c11.9 0 19.6-12.5 14.3-23.2L256 440.4v-24.5h168c9.4 0 17.9-5.5 21.8-14s2.5-18.6-3.6-25.7zm-365.8-8.3L166 263.8h-58.3l88-104.1h-61.9L224 59.5l90.1 100.2h-61.9l88 104.1H282l89.7 104.1z"/></svg>