<svg xmlns="http://www.w3.org/2000/svg" viewBox="0 0 512 512"><!-- Font Awesome Pro 5.15.4 by @fontawesome - https://fontawesome.com License - https://fontawesome.com/license (Commercial License) --><path d="M232 256c-13.3 0-24 10.7-24 24s10.7 24 24 24 24-10.7 24-24-10.7-24-24-24zm80 96c-13.3 0-24 10.7-24 24s10.7 24 24 24 24-10.7 24-24-10.7-24-24-24zm190.1 82.8l-66.5-87c10.6-4.8 19.4-13.3 24.3-24.4 7.7-17.4 4.4-37.6-8.4-51.7L338 146.8l12.4-6.2c10.8-5.4 17.7-16.5 17.7-28.6s-6.8-23.2-17.7-28.6l-43.8-21.9-21.9-43.8C279.2 6.8 268.1 0 256 0s-23.2 6.8-28.6 17.7l-21.9 43.8-43.8 21.9C150.8 88.8 144 99.9 144 112s6.8 23.2 17.7 28.6l12.4 6.2L60.5 271.7c-12.8 14.1-16.1 34.3-8.4 51.7 4.9 11.1 13.7 19.6 24.3 24.4l-66.5 87c-11.1 14.5-13 34.1-4.9 50.4 8.1 16.4 24.8 26.7 43 26.7h416c18.3 0 34.9-10.4 43-26.7 8.1-16.3 6.2-35.9-4.9-50.4zM236.5 99.6c3.1-1.5 5.6-4.1 7.2-7.2L256 67.8l12.4 24.7c1.5 3.1 4.1 5.6 7.2 7.2l24.7 12.4-24.7 12.4c-3.1 1.5-5.6 4.1-7.2 7.2L256 156.2l-12.4-24.7c-1.5-3.1-4.1-5.6-7.2-7.2L211.8 112l24.7-12.4zM48 464l122.4-160H96l116.3-127.9 15.1 30.2c5.4 10.8 16.5 17.7 28.6 17.7s23.2-6.8 28.6-17.7l15.1-30.2L416 304h-74.4L464 464H48z"/></svg>