<svg xmlns="http://www.w3.org/2000/svg" viewBox="0 0 512 512"><!-- Font Awesome Pro 5.15.4 by @fontawesome - https://fontawesome.com License - https://fontawesome.com/license (Commercial License) --><path d="M463.16 198.09a94.96 94.96 0 0 0 2.44-21.36c0-58.56-51.97-105.42-111.06-99.91C343.81 32.81 303.69 0 256 0s-87.81 32.81-98.53 76.83c-59.09-5.52-111.06 41.34-111.06 99.91 0 7.19.81 14.33 2.44 21.36C18.88 215.89 0 247.86 0 283.64 0 338.98 45.47 384 101.34 384H224v56.45l-30.29 48.4c-5.32 10.64 2.42 23.16 14.31 23.16h95.96c11.89 0 19.63-12.52 14.31-23.16L288 440.45V384h122.66C466.53 384 512 338.98 512 283.64c0-35.78-18.88-67.75-48.84-85.55zM410.66 336H101.34C71.94 336 48 312.52 48 283.64c0-22.95 15.22-42.95 37.84-49.75l27.59-8.28-13.12-25.64c-3.94-7.64-5.91-15.45-5.91-23.23 0-28.88 23.91-52.38 53.31-52.38 7.41 0 14.78 1.61 21.94 4.77l37.53 16.66-4.53-45.42C202.66 71.48 226.59 48 256 48s53.34 23.48 53.19 53.38l-4.38 44.41 37.53-16.66c35.59-15.72 75.25 11.45 75.25 47.61 0 7.78-1.97 15.59-5.91 23.23l-13.12 25.64 27.59 8.28c22.62 6.8 37.84 26.8 37.84 49.75.01 28.88-23.93 52.36-53.33 52.36z"/></svg>