<svg xmlns="http://www.w3.org/2000/svg" viewBox="0 0 640 512"><!-- Font Awesome Pro 5.15.4 by @fontawesome - https://fontawesome.com License - https://fontawesome.com/license (Commercial License) --><path d="M634.19 376.23l-55.47-64.37H584c9.34 0 17.84-5.43 21.78-13.92 3.94-8.47 2.56-18.48-3.47-25.61l-54.56-64.55H560c9.47 0 18.06-5.58 21.94-14.24a24.088 24.088 0 0 0-4.09-25.85l-144-160.11c-9.13-10.1-26.56-10.1-35.69 0L320 94.48l-78.16-86.9c-9.13-10.1-26.56-10.1-35.69 0l-144 160.11a24.063 24.063 0 0 0-4.09 25.85c3.88 8.66 12.47 14.24 21.94 14.24h12.25l-54.56 64.55c-6.03 7.13-7.41 17.14-3.47 25.61A24.021 24.021 0 0 0 56 311.86h5.28L5.81 376.23c-6.13 7.11-7.53 17.15-3.63 25.69a23.998 23.998 0 0 0 21.81 14.01h168v24.46l-30.29 48.43c-5.32 10.65 2.42 23.17 14.31 23.17h95.96c11.89 0 19.63-12.53 14.31-23.17L256 440.39v-24.46h128v24.46l-30.29 48.43c-5.32 10.65 2.42 23.17 14.31 23.17h95.96c11.89 0 19.63-12.53 14.31-23.17L448 440.39v-24.46h168c9.38 0 17.91-5.47 21.81-14.01 3.91-8.54 2.51-18.57-3.62-25.69zM304 367.9H76.37l89.66-104.07h-58.28l88-104.07h-61.88L224 59.55l90.13 100.2h-61.88l88 104.07h-58.28l89.66 104.07H304zm131 0l-48.29-56.04H392c9.34 0 17.84-5.43 21.78-13.92 3.94-8.47 2.56-18.48-3.47-25.61l-54.56-64.55H368c9.47 0 18.06-5.58 21.94-14.24a24.088 24.088 0 0 0-4.09-25.85l-33.55-37.31L416 59.55l90.13 100.2h-61.88l88 104.07h-58.28l89.66 104.07H435z"/></svg>