<svg xmlns="http://www.w3.org/2000/svg" viewBox="0 0 640 512"><!-- Font Awesome Pro 5.15.4 by @fontawesome - https://fontawesome.com License - https://fontawesome.com/license (Commercial License) --><path d="M624 336h-16V208c0-17.67-14.33-32-32-32h-60.8L419.21 56.02A63.99 63.99 0 0 0 369.24 32H256c-17.67 0-32 14.33-32 32v112H64c-17.67 0-32 14.33-32 32v128H16c-8.84 0-16 7.16-16 16v16c0 8.84 7.16 16 16 16h49.61c7.82 54.21 54.01 96 110.39 96s102.56-41.79 110.39-96h67.23c7.82 54.21 54.01 96 110.39 96s102.56-41.79 110.39-96H624c8.84 0 16-7.16 16-16v-16c0-8.84-7.16-16-16-16zM272 80h97.24c4.89 0 9.44 2.19 12.49 6l72 90H272V80zm-96 352c-35.35 0-64-28.65-64-64s28.65-64 64-64 64 28.65 64 64-28.65 64-64 64zm288 0c-35.29 0-64-28.71-64-64s28.71-64 64-64 64 28.71 64 64-28.71 64-64 64zm96-120.86C540.48 278.27 505 256 464 256c-50.66 0-92.96 33.85-106.8 80h-74.4c-13.84-46.15-56.14-80-106.8-80-41 0-76.48 22.27-96 55.14V224h480v87.14z"/></svg>