<svg xmlns="http://www.w3.org/2000/svg" viewBox="0 0 640 512"><!-- Font Awesome Pro 5.15.4 by @fontawesome - https://fontawesome.com License - https://fontawesome.com/license (Commercial License) --><path d="M13.8 237.9c2.5-1 4.9-2.1 7.5-2.8 6.1-1.6 12.4-2.5 18.7-2.5 29.8 0 56.1 18.5 66.8 45.8l125-33.5c-2.5-16.1.3-32.4 8.5-46.7 9.6-16.7 25.1-28.6 43.7-33.5 2.6-.7 5.3-.7 8-1.1l-.3-1c-9.1-34.1-44.2-54.4-78.4-45.3L58.9 158.8c-34.1 9.1-54.4 44.2-45.3 78.4l.2.7zM7.6 338.2L24.1 400l77.3-20.7 185.5-49.7 14.8-4 18.3-4.9v-122c-8.3-4-18-5.6-27.6-3.1-21.3 5.7-34 27.7-28.3 49l6.2 23.2-143.2 38.4-11.4 3-30.9 8.3-6.2-23.2c-5.7-21.3-27.7-34-49-28.3-21.3 5.7-34 27.7-28.3 49l6.3 23.2zM640 48V0H384c-17.7 0-32 14.3-32 32v340.6L5.9 465.4c-4.3 1.1-6.8 5.5-5.7 9.8l8.3 30.9c1.1 4.3 5.5 6.8 9.8 5.7L416.5 405c2.7 59.5 51.4 107 111.5 107 61.9 0 112-50.1 112-112s-50.1-112-112-112c-44.6 0-82.8 26.3-100.8 64H400V48h240zM528 336c35.3 0 64 28.7 64 64s-28.7 64-64 64-64-28.7-64-64 28.7-64 64-64z"/></svg>