<svg xmlns="http://www.w3.org/2000/svg" viewBox="0 0 640 512"><!-- Font Awesome Pro 5.15.4 by @fontawesome - https://fontawesome.com License - https://fontawesome.com/license (Commercial License) --><path d="M638 121c-3.3-9.8-10.2-17.8-19.5-22.4L420.2 0c-9.5 13.2-28.4 50.3-100.2 50.3-72.4 0-91.1-37.7-100.2-50.3L21.6 98.6C12.3 103.2 5.3 111.2 2 121c-3.3 9.9-2.6 20.4 2.1 29.7l53 106.2c9.6 19.2 33 27 51.6 17.7l24-11.3c5.3-2.5 11.4 1.4 11.4 7.2v185.3c0 31 25.1 56.2 56 56.2h240c30.9 0 56-25.2 56-56.2V270.6c0-5.9 6.1-9.7 11.4-7.2l23.5 11.1c19.1 9.7 42.5 1.8 52.1-17.4l53-106.2c4.4-9.5 5.2-20 1.9-29.9zm-94 106.4l-73.2-34.6c-10.6-5-22.8 2.7-22.8 14.5v248.6c0 4.4-3.6 8-8 8H200c-4.4 0-8-3.6-8-8V207.3c0-11.7-12.2-19.5-22.8-14.5L96 227.4l-44.8-89.9 155.5-77.3c26.4 24 67.8 38.3 113.3 38.3s86.9-14.3 113.2-38.2l155.5 77.3-44.7 89.8z"/></svg>