<svg xmlns="http://www.w3.org/2000/svg" viewBox="0 0 512 512"><!-- Font Awesome Pro 5.15.4 by @fontawesome - https://fontawesome.com License - https://fontawesome.com/license (Commercial License) --><path d="M256.015.004zm248.687 159.27l-37.058 59.291c-12.314 19.701-36.965 27.752-58.53 19.125l-74.42-29.769c-19.855-7.943-32.062-28.062-29.935-49.341l2.606-26.073c-36.57-9.118-67.361-8.82-102.729 0l2.607 26.072c2.128 21.28-10.079 41.401-29.936 49.344l-74.422 29.768c-21.579 8.631-46.225.56-58.53-19.127L7.297 159.272c-11.876-19.002-9.025-43.693 6.869-59.488 133.558-132.722 349.459-133.369 483.668.001 15.894 15.795 18.745 40.487 6.868 59.489zm-40.701-25.441c-115.216-114.495-300.899-114.381-416-.001l37.059 59.292 74.422-29.768-6.505-65.044c75.782-27.384 130.31-27.367 206.046 0l-6.502 65.043 74.42 29.769 37.06-59.291zM126 430H98c-6.627 0-12-5.373-12-12v-28c0-6.627 5.373-12 12-12h28c6.627 0 12 5.373 12 12v28c0 6.627-5.373 12-12 12zm96 0h-28c-6.627 0-12-5.373-12-12v-28c0-6.627 5.373-12 12-12h28c6.627 0 12 5.373 12 12v28c0 6.627-5.373 12-12 12zm96 0h-28c-6.627 0-12-5.373-12-12v-28c0-6.627 5.373-12 12-12h28c6.627 0 12 5.373 12 12v28c0 6.627-5.373 12-12 12zm96 0h-28c-6.627 0-12-5.373-12-12v-28c0-6.627 5.373-12 12-12h28c6.627 0 12 5.373 12 12v28c0 6.627-5.373 12-12 12zM78 512H50c-6.627 0-12-5.373-12-12v-28c0-6.627 5.373-12 12-12h28c6.627 0 12 5.373 12 12v28c0 6.627-5.373 12-12 12zm384 0h-28c-6.627 0-12-5.373-12-12v-28c0-6.627 5.373-12 12-12h28c6.627 0 12 5.373 12 12v28c0 6.627-5.373 12-12 12zM78 348H50c-6.627 0-12-5.373-12-12v-28c0-6.627 5.373-12 12-12h28c6.627 0 12 5.373 12 12v28c0 6.627-5.373 12-12 12zm96 0h-28c-6.627 0-12-5.373-12-12v-28c0-6.627 5.373-12 12-12h28c6.627 0 12 5.373 12 12v28c0 6.627-5.373 12-12 12zm96 0h-28c-6.627 0-12-5.373-12-12v-28c0-6.627 5.373-12 12-12h28c6.627 0 12 5.373 12 12v28c0 6.627-5.373 12-12 12zm96 0h-28c-6.627 0-12-5.373-12-12v-28c0-6.627 5.373-12 12-12h28c6.627 0 12 5.373 12 12v28c0 6.627-5.373 12-12 12zm96 0h-28c-6.627 0-12-5.373-12-12v-28c0-6.627 5.373-12 12-12h28c6.627 0 12 5.373 12 12v28c0 6.627-5.373 12-12 12zm-98 158H148c-6.627 0-12-5.373-12-12v-16c0-6.627 5.373-12 12-12h216c6.627 0 12 5.373 12 12v16c0 6.627-5.373 12-12 12z"/></svg>