<svg xmlns="http://www.w3.org/2000/svg" viewBox="0 0 576 512"><!-- Font Awesome Pro 5.15.4 by @fontawesome - https://fontawesome.com License - https://fontawesome.com/license (Commercial License) --><path d="M224 112a144 144 0 1 0 144 144 144 144 0 0 0-144-144zm0 168a24 24 0 1 1 24-24 24 24 0 0 1-24 24zm248-152h-16a16 16 0 0 0-16 16v99.71a31.88 31.88 0 0 1-2.95 13.41L416 302.8a15.69 15.69 0 0 0-11.75 8.35l-25.69 51.38a16 16 0 0 0 7.13 21.47l28.62 14.32a16 16 0 0 0 21.47-7.16l25.69-51.38a15.89 15.89 0 0 0-1.85-17l25.43-55.1a32 32 0 0 0 2.95-13.44V144a16 16 0 0 0-16-16zm40-96H64A64 64 0 0 0 0 96v320a64 64 0 0 0 64 64h448a64 64 0 0 0 64-64V96a64 64 0 0 0-64-64zm16 384a16 16 0 0 1-16 16H64a16 16 0 0 1-16-16V96a16 16 0 0 1 16-16h448a16 16 0 0 1 16 16z"/></svg>