<svg xmlns="http://www.w3.org/2000/svg" viewBox="0 0 640 512"><!-- Font Awesome Pro 5.15.4 by @fontawesome - https://fontawesome.com License - https://fontawesome.com/license (Commercial License) --><path d="M240 320c26.5 0 48-14.33 48-32v-84.84l96-37.52V226a69.82 69.82 0 0 0-16-2c-26.5 0-48 14.33-48 32s21.5 32 48 32 48-14.33 48-32V112a16 16 0 0 0-20.81-15.25l-128 47.25A16 16 0 0 0 256 159.25V258a69.82 69.82 0 0 0-16-2c-26.5 0-48 14.33-48 32s21.5 32 48 32zM592 0H48A48 48 0 0 0 0 48v320a48 48 0 0 0 48 48h544a48 48 0 0 0 48-48V48a48 48 0 0 0-48-48zm0 368H48V48h544zm-64 96H112a16 16 0 0 0-16 16v16a16 16 0 0 0 16 16h416a16 16 0 0 0 16-16v-16a16 16 0 0 0-16-16z"/></svg>