<svg xmlns="http://www.w3.org/2000/svg" viewBox="0 0 512 512"><!-- Font Awesome Pro 5.15.4 by @fontawesome - https://fontawesome.com License - https://fontawesome.com/license (Commercial License) --><path d="M400 244v-8c0-6.6 5.4-12 12-12h8c6.6 0 12 5.4 12 12v8c0 6.6-5.4 12-12 12h-8c-6.6 0-12-5.4-12-12zm12 76h8c6.6 0 12-5.4 12-12v-8c0-6.6-5.4-12-12-12h-8c-6.6 0-12 5.4-12 12v8c0 6.6 5.4 12 12 12zm-36-136.5s-1.5-7.5-144-7.5-144.5 7.5-144.5 7.5S80 184 80 288s7.5 104.5 7.5 104.5S88 400 232 400s144-7.5 144-7.5 7.5-.5 7.5-104.5-7.5-104.5-7.5-104.5zM512 144v288c0 26.5-21.5 48-48 48h-16v32h-48l-10.7-32H122.7L112 512H64v-32H48c-26.5 0-48-21.5-48-48V144c0-26.5 21.5-48 48-48h140.9l-54-55.2c-9.3-9.5-9.1-24.7.3-33.9 9.5-9.3 24.7-9.1 33.9.3L256 96l86.9-88.8c9.3-9.5 24.5-9.6 33.9-.3 9.5 9.3 9.6 24.5.3 33.9l-54 55.2H464c26.5 0 48 21.5 48 48zm-48 0H48v288h416V144z"/></svg>