<svg xmlns="http://www.w3.org/2000/svg" viewBox="0 0 640 512"><!-- Font Awesome Pro 5.15.4 by @fontawesome - https://fontawesome.com License - https://fontawesome.com/license (Commercial License) --><path d="M320,232.00045a24,24,0,1,0,24,24A24,24,0,0,0,320,232.00045ZM144,200.00038a24.00005,24.00005,0,1,0,24,24A24,24,0,0,0,144,200.00038Zm322.36719-90.88494C447.2793,45.94345,388.45117,0,320,0S192.7207,45.94345,173.63281,109.11544C75.24219,127.86939,0,166.56282,0,224.00043c0,84.03141,160.96875,128.00025,320,128.00025s320-43.96884,320-128.00025C640,166.56282,564.75781,127.86939,466.36719,109.11544ZM320,48.00009a104.91293,104.91293,0,0,1,104.82422,97.08808C393.53711,154.57842,357.89062,160.00031,320,160.00031s-73.53711-5.42189-104.82422-14.91214A104.91293,104.91293,0,0,1,320,48.00009Zm0,256.00049c-166.03125,0-272-47.37509-272-80.00015,0-21.1602,44.78516-48.45126,121.4082-65.07044a47.86653,47.86653,0,0,0,31.834,32.09186C238.38477,202.2875,278.33984,208.0004,320,208.0004s81.61523-5.7129,118.75781-16.97855A47.86653,47.86653,0,0,0,470.5918,158.93C547.21484,175.54917,592,202.84023,592,224.00043,592,256.62549,486.03125,304.00058,320,304.00058ZM33.68164,481.68452a15.99652,15.99652,0,0,0,7.1543,21.46488l14.3164,7.15822a16.00262,16.00262,0,0,0,21.4668-7.15431l68.75-137.50222c-16.45117-3.77344-32.23633-8.10743-47.12109-13.10158ZM541.74219,352.55341c-14.88477,4.9922-30.66992,9.32619-47.1211,13.10159l68.74805,137.49831a16.00206,16.00206,0,0,0,21.4668,7.15431l14.3164-7.15822a15.99819,15.99819,0,0,0,7.1543-21.46488ZM496,200.00038a24.00005,24.00005,0,1,0,24,24A24,24,0,0,0,496,200.00038Z"/></svg>