<svg xmlns="http://www.w3.org/2000/svg" viewBox="0 0 640 512"><!-- Font Awesome Pro 5.15.4 by @fontawesome - https://fontawesome.com License - https://fontawesome.com/license (Commercial License) --><path d="M128,296a24,24,0,1,0,24,24A23.99993,23.99993,0,0,0,128,296Zm192,40a24,24,0,1,0,24,24A23.99993,23.99993,0,0,0,320,336ZM483.47656,210.10938C474.207,128.15039,404.87891,64,320,64c-84.87695,0-154.20312,64.15039-163.47461,146.10742C62.91016,232.44141,0,273.23047,0,320c0,70.69141,143.26953,128,320,128,176.73242,0,320-57.30859,320-128C640,273.23047,577.09375,232.44336,483.47656,210.10938ZM320,112c64.80273,0,117.334,52.0957,117.334,116.36328,0,5.22461-.877,10.21289-1.55078,15.25586a250.36631,250.36631,0,0,1-231.5664,0c-.67188-5.043-1.54883-10.03125-1.54883-15.25586C202.668,164.0957,255.19727,112,320,112Zm0,288c-178.47656,0-272-59.44141-272-80,0-13.05078,37.81445-41.72656,110.98438-60.96289a47.81277,47.81277,0,0,0,23.043,27.14648,298.37591,298.37591,0,0,0,275.94532,0,47.80892,47.80892,0,0,0,23.04492-27.14648C554.18555,278.27344,592,306.94922,592,320,592,340.55859,498.47852,400,320,400ZM512,296a24,24,0,1,0,24,24A23.99993,23.99993,0,0,0,512,296Z"/></svg>