<svg xmlns="http://www.w3.org/2000/svg" viewBox="0 0 640 512"><!-- Font Awesome Pro 5.15.4 by @fontawesome - https://fontawesome.com License - https://fontawesome.com/license (Commercial License) --><path d="M443.48 18.08C409.77 5.81 375.31 0 341.41 0c-90.47 0-176.84 41.45-233.44 112.33-6.7 8.39-2.67 21.04 7.42 24.71l229.18 83.41L254.84 464H16c-8.84 0-16 7.16-16 16v16c0 8.84 7.16 16 16 16h544c8.84 0 16-7.16 16-16v-16c0-8.84-7.16-16-16-16H306.01l83.67-227.12 228.66 83.22c1.83.67 3.7.98 5.53.98 8.27 0 15.83-6.35 16.04-15.14 3.03-124.66-72.77-242.85-196.43-287.86zm9.1 190.61L307.4 155.85c14.25-25.26 30.54-47.29 48.16-63.97 25.34-24.03 50.03-34.16 67.41-27.77 17.53 6.38 29.84 29.92 33.84 64.62 2.77 24.11 1.09 51.45-4.23 79.96zm-274.63-99.95c42.89-36.66 97.81-58.24 154.55-60.33-4.47 3.76-36.86 28.45-70.29 91l-84.26-30.67zm319.82 116.4c7.38-35.07 12.06-77.07 4.11-118.28 45.77 38.28 77.14 91.67 86.87 151.39l-90.98-33.11z"/></svg>