<svg xmlns="http://www.w3.org/2000/svg" viewBox="0 0 512 512"><!-- Font Awesome Pro 5.15.4 by @fontawesome - https://fontawesome.com License - https://fontawesome.com/license (Commercial License) --><path d="M256 8C119.033 8 8 119.033 8 256s111.033 248 248 248 248-111.033 248-248S392.967 8 256 8zm0 456c-114.953 0-208-93.029-208-208 0-114.953 93.029-208 208-208 114.953 0 208 93.029 208 208 0 114.953-93.029 208-208 208zm143.594-286.66c2.538 10.75-4.119 21.522-14.869 24.061-29.865 7.051-57.839 13.286-85.597 16.751.679 111.33 12.654 128.456 26.969 165.116 4.823 12.346-1.275 26.265-13.622 31.087-12.34 4.823-26.263-1.27-31.087-13.622-9.559-24.467-18.089-42.949-23.805-85.12h-3.164c-5.721 42.206-14.269 60.706-23.805 85.12-4.816 12.329-18.721 18.451-31.087 13.623-12.346-4.823-18.445-18.741-13.623-31.088 14.33-36.686 26.29-53.837 26.969-165.116-27.758-3.465-55.732-9.699-85.597-16.751-10.75-2.538-17.407-13.311-14.869-24.061 2.539-10.75 13.312-17.405 24.061-14.869 104.768 24.736 134.447 24.701 239.066 0 10.749-2.538 21.522 4.118 24.06 14.869zm-181.788-43.146C217.806 113.1 234.906 96 256 96s38.194 17.1 38.194 38.194-17.1 38.194-38.194 38.194-38.194-17.101-38.194-38.194z"/></svg>