<svg xmlns="http://www.w3.org/2000/svg" viewBox="0 0 448 512"><!-- Font Awesome Pro 5.15.4 by @fontawesome - https://fontawesome.com License - https://fontawesome.com/license (Commercial License) --><path d="M400 240H128v-94.8c0-52.8 42.1-96.7 95-97.2 53.4-.6 97 42.7 97 96v24c0 13.3 10.7 24 24 24s24-10.7 24-24v-22.6C368 65.8 304 .2 224.3 0 144.8-.2 80 64.5 80 144v96H48c-26.5 0-48 21.5-48 48v176c0 26.5 21.5 48 48 48h352c26.5 0 48-21.5 48-48V288c0-26.5-21.5-48-48-48zm0 224H48V288h352v176z"/></svg>