<svg xmlns="http://www.w3.org/2000/svg" viewBox="0 0 576 512"><!-- Font Awesome Pro 5.15.4 by @fontawesome - https://fontawesome.com License - https://fontawesome.com/license (Commercial License) --><path d="M528 288H384v-32h64c42.6 0 64.2-51.7 33.9-81.9l-160-160c-18.8-18.8-49.1-18.7-67.9 0l-160 160c-30.1 30.1-8.7 81.9 34 81.9h64v32H48c-26.5 0-48 21.5-48 48v128c0 26.5 21.5 48 48 48h480c26.5 0 48-21.5 48-48V336c0-26.5-21.5-48-48-48zm-400-80L288 48l160 160H336v160h-96V208H128zm400 256H48V336h144v32c0 26.5 21.5 48 48 48h96c26.5 0 48-21.5 48-48v-32h144v128zm-40-64c0 13.3-10.7 24-24 24s-24-10.7-24-24 10.7-24 24-24 24 10.7 24 24z"/></svg>