<svg xmlns="http://www.w3.org/2000/svg" viewBox="0 0 448 512"><!-- Font Awesome Pro 5.15.4 by @fontawesome - https://fontawesome.com License - https://fontawesome.com/license (Commercial License) --><path d="M261.8 242.3L200 223.7c-6.2-1.9-10.6-8.3-10.6-15.6 0-8.9 6.4-16.1 14.2-16.1h38.6c6.6 0 13 2.1 18.4 6.1 3 2.2 7.2 1.7 9.8-.9l23.4-22.3c3.3-3.2 3.5-8.7 0-11.6-12.9-10.9-29.1-17.4-45.9-18.6V120c0-4.4-3.6-8-8-8h-32c-4.4 0-8 3.6-8 8v24.4c-32.6 1.9-58.7 29.7-58.7 63.8 0 28.3 18.4 53.7 44.8 61.6l61.9 18.6c6.2 1.9 10.6 8.3 10.6 15.6 0 8.9-6.4 16.1-14.2 16.1h-38.6c-6.6 0-13-2.1-18.4-6.1-3-2.2-7.2-1.7-9.8.9l-23.4 22.3c-3.3 3.2-3.5 8.7 0 11.6 12.9 10.9 29.1 17.4 45.9 18.6V392c0 4.4 3.6 8 8 8h32c4.4 0 8-3.6 8-8v-24.4c32.6-1.9 58.7-29.7 58.7-63.8 0-28.3-18.5-53.6-44.9-61.5zM392 32H56C25.1 32 0 57.1 0 88v336c0 30.9 25.1 56 56 56h336c30.9 0 56-25.1 56-56V88c0-30.9-25.1-56-56-56zm8 392c0 4.4-3.6 8-8 8H56c-4.4 0-8-3.6-8-8V88c0-4.4 3.6-8 8-8h336c4.4 0 8 3.6 8 8v336z"/></svg>