<svg xmlns="http://www.w3.org/2000/svg" viewBox="0 0 640 512"><!-- Font Awesome Pro 5.15.4 by @fontawesome - https://fontawesome.com License - https://fontawesome.com/license (Commercial License) --><path d="M315.3 255.5c6.8-19 16.4-36.5 28.4-52.2-7.4 3-15.4 4.7-23.8 4.7-35.3 0-64-28.7-64-64s28.7-64 64-64 64 28.7 64 64c0 8.4-1.7 16.4-4.7 23.8 15.7-12 33.2-21.7 52.2-28.4C429 79.7 380.3 32 320 32c-61.9 0-112 50.1-112 112 0 60.3 47.7 109 107.3 111.5zM96 224c44.2 0 80-35.8 80-80s-35.8-80-80-80-80 35.8-80 80 35.8 80 80 80zm0-112c17.6 0 32 14.4 32 32s-14.4 32-32 32-32-14.4-32-32 14.4-32 32-32zm244.3 320H176v-44.8c0-36.4 29.2-66.2 65.4-67.2 20.6 8.6 41.9 13.6 63.4 15.2-.7-9.3-2-24 2.3-48.6-16.8-1.5-33.1-4.9-48-11.2-5.1-2.1-10.4-3.4-15.9-3.4-63.6 0-115.2 51.6-115.2 115.2V432c0 26.5 21.5 48 48 48h214c-19.4-12.9-36.2-29.2-49.7-48zM154.8 270.3c-13.4-9-29.5-14.3-46.8-14.3H84c-46.3 0-84 37.7-84 84 0 13.2 10.8 24 24 24s24-10.8 24-24c0-19.8 16.2-36 36-36h24c4.4 0 8.5 1.1 12.3 2.5 9.3-14 21.1-26.1 34.5-36.2zm455.7 71c2.6-14.1 2.6-28.5 0-42.6l25.8-14.9c3-1.7 4.3-5.2 3.3-8.5-6.7-21.6-18.2-41.2-33.2-57.4-2.3-2.5-6-3.1-9-1.4l-25.8 14.9c-10.9-9.3-23.4-16.5-36.9-21.3v-29.8c0-3.4-2.4-6.4-5.7-7.1-22.3-5-45-4.8-66.2 0-3.3.7-5.7 3.7-5.7 7.1v29.8c-13.5 4.8-26 12-36.9 21.3l-25.8-14.9c-2.9-1.7-6.7-1.1-9 1.4-15 16.2-26.5 35.8-33.2 57.4-1 3.3.4 6.8 3.3 8.5l25.8 14.9c-2.6 14.1-2.6 28.5 0 42.6l-25.8 14.9c-3 1.7-4.3 5.2-3.3 8.5 6.7 21.6 18.2 41.1 33.2 57.4 2.3 2.5 6 3.1 9 1.4l25.8-14.9c10.9 9.3 23.4 16.5 36.9 21.3v29.8c0 3.4 2.4 6.4 5.7 7.1 22.3 5 45 4.8 66.2 0 3.3-.7 5.7-3.7 5.7-7.1v-29.8c13.5-4.8 26-12 36.9-21.3l25.8 14.9c2.9 1.7 6.7 1.1 9-1.4 15-16.2 26.5-35.8 33.2-57.4 1-3.3-.4-6.8-3.3-8.5l-25.8-14.9zM496 368.5c-26.8 0-48.5-21.8-48.5-48.5s21.8-48.5 48.5-48.5 48.5 21.8 48.5 48.5-21.7 48.5-48.5 48.5z"/></svg>