<svg xmlns="http://www.w3.org/2000/svg" viewBox="0 0 640 512"><!-- Font Awesome Pro 5.15.4 by @fontawesome - https://fontawesome.com License - https://fontawesome.com/license (Commercial License) --><path d="M160 320c53 0 96-43 96-96s-43-96-96-96-96 43-96 96 43 96 96 96zm0-144c26.5 0 48 21.5 48 48s-21.5 48-48 48-48-21.5-48-48 21.5-48 48-48zm257 81l72-72 24.3 24.3c11.3 11.3 30.7 3.3 30.7-12.7V108c0-6.6-5.4-12-12-12h-88.5c-16 0-24.1 19.4-12.7 30.7L455 151l-55 55-55-55c-9.4-9.4-24.6-9.4-33.9 0l-30.7 30.7C285 195 288 209.1 288 224c0 6.8-1 13.4-2 20l42-42 55 55c9.4 9.3 24.6 9.3 34 0zM592 0H208c-26.5 0-48 22.2-48 49.6V96c6.4 0 11.4.6 15.8 1.6 5.4.7 10.7 1.5 15.9 2.9 4.2 1 8.2 2.3 12.2 3.8 1.3.5 2.8.7 4.1 1.3V48h384v320H352v48h240c26.5 0 48-22.2 48-49.6V49.6C640 22.2 618.5 0 592 0zM226.8 342c-9.9 0-19.9 1.5-29.6 4.4C185.4 350 173 352 160 352s-25.4-2-37.2-5.6c-9.7-2.9-19.7-4.4-29.6-4.4-30.2 0-59.7 13.5-76.9 39.1C6 396.4 0 414.8 0 434.7V472c0 22.1 17.9 40 40 40h240c22.1 0 40-17.9 40-40v-37.3c0-19.8-6-38.2-16.3-53.5-17.3-25.7-46.7-39.2-76.9-39.2zM272 464H48v-29.3c0-9.6 2.8-18.8 8.1-26.7 7.5-11.2 21.4-17.9 37.1-17.9 5.3 0 10.6.8 15.6 2.3 16.8 5.1 34 7.7 51.2 7.7s34.4-2.6 51.2-7.7c5.1-1.5 10.3-2.3 15.6-2.3 15.7 0 29.5 6.7 37.1 17.9 5.3 7.9 8.1 17.1 8.1 26.7z"/></svg>