<svg xmlns="http://www.w3.org/2000/svg" viewBox="0 0 448 512"><!-- Font Awesome Pro 5.15.4 by @fontawesome - https://fontawesome.com License - https://fontawesome.com/license (Commercial License) --><path d="M224 272a80.13 80.13 0 0 1-78.38-64h-48c8 63.06 61.17 112 126.39 112s118.44-48.94 126.39-112h-48a80.13 80.13 0 0 1-78.4 64zm89.6 80c-28.72 0-42.45 16-89.6 16s-60.88-16-89.56-16A134.4 134.4 0 0 0 0 486.4 25.6 25.6 0 0 0 25.6 512h396.8a25.6 25.6 0 0 0 25.6-25.6A134.4 134.4 0 0 0 313.6 352zM50.94 464a86.58 86.58 0 0 1 83.5-64c14.44 0 38.28 16 89.56 16 51.47 0 75.1-16 89.6-16a86.55 86.55 0 0 1 83.46 64zM88 176h272a8 8 0 0 0 8-8v-32a8 8 0 0 0-8-8h-8c0-46.41-28.53-85.54-68.79-102.42L256 80V16a16 16 0 0 0-16-16h-32a16 16 0 0 0-16 16v64l-27.21-54.42C124.53 42.46 96 81.59 96 128h-8a8 8 0 0 0-8 8v32a8 8 0 0 0 8 8z"/></svg>