<svg xmlns="http://www.w3.org/2000/svg" viewBox="0 0 640 512"><!-- Font Awesome Pro 5.15.4 by @fontawesome - https://fontawesome.com License - https://fontawesome.com/license (Commercial License) --><path d="M358.9 433.3l-6.8 61c-1.1 10.2 7.5 18.8 17.6 17.6l60.9-6.8 137.9-137.9-71.7-71.7-137.9 137.8zM633 268.9L595.1 231c-9.3-9.3-24.5-9.3-33.8 0l-41.8 41.8 71.8 71.7 41.8-41.8c9.2-9.3 9.2-24.4-.1-33.8zM223.9 288c79.6.1 144.2-64.5 144.1-144.1C367.9 65.6 302.4.1 224.1 0 144.5-.1 79.9 64.5 80 144.1c.1 78.3 65.6 143.8 143.9 143.9zm-4.4-239.9c56.5-2.6 103 43.9 100.4 100.4-2.3 49.2-42.1 89.1-91.4 91.4-56.5 2.6-103-43.9-100.4-100.4 2.3-49.3 42.2-89.1 91.4-91.4zM134.4 352c14.6 0 38.3 16 89.6 16 51.7 0 74.9-16 89.6-16 16.7 0 32.2 5 45.5 13.3l34.4-34.4c-22.4-16.7-49.8-26.9-79.9-26.9-28.7 0-42.5 16-89.6 16-47.1 0-60.8-16-89.6-16C60.2 304 0 364.2 0 438.4V464c0 26.5 21.5 48 48 48h258.3c-3.8-14.6-2.2-20.3.9-48H48v-25.6c0-47.6 38.8-86.4 86.4-86.4z"/></svg>