<svg xmlns="http://www.w3.org/2000/svg" viewBox="0 0 448 512"><!-- Font Awesome Pro 5.15.4 by @fontawesome - https://fontawesome.com License - https://fontawesome.com/license (Commercial License) --><path d="M272,208a32,32,0,1,0-32-32A31.99783,31.99783,0,0,0,272,208Zm-64,64h32V240H208Zm64,0h32V240H272Zm103.48828,35.23633A79.15715,79.15715,0,0,0,384,272V256h29.99955A17.97977,17.97977,0,0,0,432,238V178a17.97853,17.97853,0,0,0-18.00045-18H384V144a79.999,79.999,0,0,0-80-80H248V24a24,24,0,0,0-48,0V64H144a79.999,79.999,0,0,0-80,80v16H33.99956A17.97834,17.97834,0,0,0,16,178v60a17.97958,17.97958,0,0,0,17.99956,18H64v16a79.15715,79.15715,0,0,0,8.51172,35.23633C30.91406,317.75977,0,355.13086,0,400v48a64.00067,64.00067,0,0,0,64,64H384a64.00067,64.00067,0,0,0,64-64V400C448,355.13086,417.08594,317.75977,375.48828,307.23633ZM112,144a32.03667,32.03667,0,0,1,32-32H304a32.03667,32.03667,0,0,1,32,32V272a32.03667,32.03667,0,0,1-32,32H144a32.03667,32.03667,0,0,1-32-32Zm96,320H176V432a16,16,0,0,1,32,0Zm64-16a16,16,0,1,1,16-16A16.00079,16.00079,0,0,1,272,448Zm128,0a16.01833,16.01833,0,0,1-16,16H320V416a31.99908,31.99908,0,0,0-32-32H160a31.99908,31.99908,0,0,0-32,32v48H64a16.01833,16.01833,0,0,1-16-16V400a48.055,48.055,0,0,1,48-48H352a48.055,48.055,0,0,1,48,48ZM176,208a32,32,0,1,0-32-32A31.99783,31.99783,0,0,0,176,208Zm0,32H144v32h32Z"/></svg>