<svg xmlns="http://www.w3.org/2000/svg" viewBox="0 0 640 512"><!-- Font Awesome Pro 5.15.4 by @fontawesome - https://fontawesome.com License - https://fontawesome.com/license (Commercial License) --><path d="M556.09,256h-24a83.66,83.66,0,0,0-46.79,14.29,146.29,146.29,0,0,1,34.39,36.21A36.21,36.21,0,0,1,532,304h24a36.11,36.11,0,0,1,36,36,24,24,0,0,0,48,0A84,84,0,0,0,556.09,256Zm-236-176A63.78,63.78,0,0,1,358.6,194.79L397.19,225a111.81,111.81,0,0,0-77.1-193c-41.75,0-77.7,23.06-97,56.88l38.21,29.87A64,64,0,0,1,320.09,80Zm224,144a80,80,0,1,0-80-80A80,80,0,0,0,544.09,224Zm0-112a32,32,0,1,1-32,32A32.1,32.1,0,0,1,544.09,112Zm-368,320V387.2A67.38,67.38,0,0,1,241.5,320a206.08,206.08,0,0,0,62.92,15.2l-74.84-58.51C197,279.44,166.26,295,147.5,322.9a114.5,114.5,0,0,0-19.61,64.3V432a48,48,0,0,0,48,48h288a47.59,47.59,0,0,0,20-4.49L428.23,432Zm-21.2-161.71A83.67,83.67,0,0,0,108.09,256h-24a84.12,84.12,0,0,0-84,84,24,24,0,0,0,48,0,36.11,36.11,0,0,1,36-36h24a35.2,35.2,0,0,1,12.3,2.5A148.78,148.78,0,0,1,154.89,270.29ZM96.09,224a79.47,79.47,0,0,0,46.63-15.21L99.81,175.24c-1.28.16-2.4.76-3.72.76-16.19,0-29.15-12.39-31.19-28.06l-43-33.6A79.75,79.75,0,0,0,96.09,224ZM36,3.52A16,16,0,0,0,13.51,6l-10,12.49A16,16,0,0,0,6,41L604,508.48A16,16,0,0,0,626.48,506l10-12.49A16,16,0,0,0,634,471Z"/></svg>