<svg xmlns="http://www.w3.org/2000/svg" viewBox="0 0 512 512"><!-- Font Awesome Pro 5.15.4 by @fontawesome - https://fontawesome.com License - https://fontawesome.com/license (Commercial License) --><path d="M384 336c-40.6 0-47.6-1.5-72.2 6.8-17.5 5.9-36.3 9.2-55.8 9.2s-38.3-3.3-55.8-9.2c-24.6-8.3-31.5-6.8-72.2-6.8C57.3 336 0 393.3 0 464v16c0 17.7 14.3 32 32 32h448c17.7 0 32-14.3 32-32v-16c0-70.7-57.3-128-128-128zm80 128H48c0-21.4 8.3-41.5 23.4-56.6C86.5 392.3 106.6 384 128 384c41.1 0 41-1.1 56.8 4.2 23 7.8 47 11.8 71.2 11.8 24.2 0 48.2-4 71.2-11.8 15.8-5.4 15.7-4.2 56.8-4.2 44.1 0 80 35.9 80 80zM256 320c88.4 0 160-71.6 160-160S344.4 0 256 0 96 71.6 96 160s71.6 160 160 160zm0-272c61.8 0 112 50.2 112 112s-50.2 112-112 112-112-50.2-112-112S194.2 48 256 48z"/></svg>