<svg xmlns="http://www.w3.org/2000/svg" viewBox="0 0 640 512"><!-- Font Awesome Pro 5.15.4 by @fontawesome - https://fontawesome.com License - https://fontawesome.com/license (Commercial License) --><path d="M556 256h-24c-17.3 0-33.39 5.27-46.77 14.28 13.37 10.14 25.18 22.18 34.43 36.22 3.88-1.44 7.96-2.5 12.34-2.5h24c19.84 0 36 16.16 36 36 0 13.25 10.75 24 24 24s24-10.75 24-24c0-46.31-37.69-84-84-84zm-12-32c44.18 0 80-35.82 80-80s-35.82-80-80-80-80 35.82-80 80 35.82 80 80 80zm0-112c17.64 0 32 14.36 32 32s-14.36 32-32 32-32-14.36-32-32 14.36-32 32-32zM154.77 270.28C141.39 261.27 125.3 256 108 256H84c-46.31 0-84 37.69-84 84 0 13.25 10.75 24 24 24s24-10.75 24-24c0-19.84 16.16-36 36-36h24c4.37 0 8.46 1.06 12.34 2.5 9.25-14.04 21.06-26.08 34.43-36.22zM96 224c44.18 0 80-35.82 80-80s-35.82-80-80-80-80 35.82-80 80 35.82 80 80 80zm0-112c17.64 0 32 14.36 32 32s-14.36 32-32 32-32-14.36-32-32 14.36-32 32-32zm268.66 169.28c-14.16 4.3-29.1 6.72-44.66 6.72s-30.5-2.42-44.66-6.72c-47.08-14.3-100.29.84-127.77 41.66C135.21 341.3 128 363.41 128 387.2V432c0 26.51 21.49 48 48 48h288c26.51 0 48-21.49 48-48v-44.8c0-23.79-7.21-45.9-19.57-64.25-27.48-40.82-80.69-55.97-127.77-41.67zM464 432H176v-44.8c0-36.44 29.16-66.2 65.38-67.18C266.88 330.63 293.32 336 320 336c26.67 0 53.11-5.37 78.62-15.98C434.84 321 464 350.76 464 387.2V432zM320 256c61.86 0 112-50.14 112-112V32l-56 28-56-28-56 28-56-28v112c0 61.86 50.14 112 112 112zm-64-128h128v16c0 35.29-28.71 64-64 64s-64-28.71-64-64v-16z"/></svg>