<svg xmlns="http://www.w3.org/2000/svg" viewBox="0 0 640 512"><!-- Font Awesome Pro 5.15.4 by @fontawesome - https://fontawesome.com License - https://fontawesome.com/license (Commercial License) --><path d="M480 256c53 0 96-43 96-96s-43-96-96-96-96 43-96 96 43 96 96 96zm0-144c26.5 0 48 21.5 48 48s-21.5 48-48 48-48-21.5-48-48 21.5-48 48-48zM272.1 276c-11.9 0-23.9 1.7-35.5 5.3-14.2 4.3-29.1 6.7-44.7 6.7s-30.5-2.4-44.7-6.7c-11.6-3.5-23.6-5.3-35.5-5.3-36.3 0-71.6 16.2-92.3 46.9C7.2 341.3 0 363.4 0 387.2V432c0 26.5 21.5 48 48 48h288c26.5 0 48-21.5 48-48v-44.8c0-23.8-7.2-45.9-19.6-64.3-20.7-30.7-56-46.9-92.3-46.9zM336 432H48v-44.8c0-28.9 18.4-53.6 44.1-63.1 10.3-3.8 21.6-3.7 31.9 0 22.1 7.9 45 11.9 68 11.9s45.8-4 68.1-11.9c10.3-3.7 21.6-3.8 31.9 0 25.7 9.4 44.1 34.2 44.1 63.1V432zM192 256c61.9 0 112-50.1 112-112S253.9 32 192 32 80 82.1 80 144s50.1 112 112 112zm0-176c35.3 0 64 28.7 64 64s-28.7 64-64 64-64-28.7-64-64 28.7-64 64-64zm431.7 237.1C606.4 291.5 577 278 546.8 278c-27.8 0-34.8 10-66.8 10s-39-10-66.8-10c-13.3 0-26.2 3-38.2 8.1 5.8 5.9 11.3 12 16 18.9 4.7 7 8.6 14.4 12 22 3.3-.7 6.7-1.1 10.2-1.1 17.2 0 29.6 10 66.8 10 37.4 0 49.5-10 66.8-10 15.7 0 29.5 6.7 37.1 17.9 5.3 7.9 8.1 17.1 8.1 26.7V400H416v32c0 5.5-.6 10.8-1.6 16H600c22.1 0 40-17.9 40-40v-37.3c0-19.9-6-38.3-16.3-53.6z"/></svg>