<svg xmlns="http://www.w3.org/2000/svg" viewBox="0 0 640 512"><!-- Font Awesome Pro 5.15.4 by @fontawesome - https://fontawesome.com License - https://fontawesome.com/license (Commercial License) --><path d="M512 224a128 128 0 1 0 128 128 128 128 0 0 0-128-128zm64 144a5.33 5.33 0 0 1-5.33 5.33h-37.34v37.34A5.33 5.33 0 0 1 528 416h-32a5.33 5.33 0 0 1-5.33-5.33v-37.34h-37.34A5.33 5.33 0 0 1 448 368v-32a5.33 5.33 0 0 1 5.33-5.33h37.34v-37.34A5.33 5.33 0 0 1 496 288h32a5.33 5.33 0 0 1 5.33 5.33v37.34h37.34A5.33 5.33 0 0 1 576 336zM320 256a112 112 0 1 0-112-112 111.94 111.94 0 0 0 112 112zm0-176a64 64 0 1 1-64 64 64.06 64.06 0 0 1 64-64zM96 224a80 80 0 1 0-80-80 80 80 0 0 0 80 80zm0-112a32 32 0 1 1-32 32 32.09 32.09 0 0 1 32-32zm278.26 320H176v-44.8a67.38 67.38 0 0 1 65.4-67.2 203.8 203.8 0 0 0 78.6 16 198.4 198.4 0 0 0 33.94-3.14 157.56 157.56 0 0 1 16-52.84c-1.76.45-3.56.65-5.3 1.18a152.46 152.46 0 0 1-89.4 0c-47.1-14.3-100.3.8-127.8 41.7a114.59 114.59 0 0 0-19.6 64.3V432a48 48 0 0 0 48 48H417a160.27 160.27 0 0 1-42.74-48zM154.8 270.3A83.7 83.7 0 0 0 108 256H84a84.12 84.12 0 0 0-84 84 24 24 0 0 0 48 0 36.11 36.11 0 0 1 36-36h24a35.48 35.48 0 0 1 12.3 2.5 148.37 148.37 0 0 1 34.5-36.2z"/></svg>