<svg xmlns="http://www.w3.org/2000/svg" viewBox="0 0 640 512"><!-- Font Awesome Pro 5.15.4 by @fontawesome - https://fontawesome.com License - https://fontawesome.com/license (Commercial License) --><path d="M320 48c61.8 0 112 50.2 112 112 0 27.3-10.2 52-26.5 71.5l24.1 18.8 13.6 10.7c22.7-27.7 36.8-62.5 36.8-101C480 71.6 408.4 0 320 0c-52.5 0-98.7 25.6-127.8 64.7l37.7 29.5C250.3 66.3 282.9 48 320 48zm314 423L479.5 350.2 400 288.1 115.6 65.7l-2.2-1.7L36 3.5C29.1-2 19-.9 13.5 6l-10 12.5C-2 25.4-.9 35.5 6 41l44.3 34.6 39 30.5L604 508.5c6.9 5.5 17 4.4 22.5-2.5l10-12.5c5.5-6.9 4.4-17-2.5-22.5zm-522-7.1c0-21.4 8.3-41.4 23.4-56.5S170.6 384 192 384h36.8c5.1 0 11.5 1.3 20 4.2 23 7.8 47 11.8 71.2 11.8 19.3 0 38.2-3.2 56.9-8.2l-51.5-40.3c-1.8.1-3.5.4-5.3.4-19.5 0-38.3-3.3-55.8-9.2-11.5-3.9-23.3-6.8-35.4-6.8H192c-70.7 0-128 57.3-128 128v16c0 17.7 14.3 32 32 32h434.6l-61.4-48z"/></svg>