<svg xmlns="http://www.w3.org/2000/svg" viewBox="0 0 640 512"><!-- Font Awesome Pro 5.15.4 by @fontawesome - https://fontawesome.com License - https://fontawesome.com/license (Commercial License) --><path d="M630.6 364.9l-90.3-90.2c-12-12-28.3-18.7-45.3-18.7h-79.3c-17.7 0-32 14.3-32 32v79.2c0 17 6.7 33.2 18.7 45.2l90.3 90.2c12.5 12.5 32.8 12.5 45.3 0l92.5-92.5c12.6-12.5 12.6-32.7.1-45.2zm-182.8-21c-13.3 0-24-10.7-24-24s10.7-24 24-24 24 10.7 24 24c0 13.2-10.7 24-24 24zM48 463.8v-25.6c0-47.6 38.8-86.4 86.4-86.4 14.6 0 38.3 16 89.6 16 51.7 0 74.9-16 89.6-16 7.7 0 15.1 1.3 22.2 3.3v-49c-7.3-1.2-14.6-2.2-22.2-2.2-28.7 0-42.5 16-89.6 16-47.1 0-60.8-16-89.6-16C60.2 303.9 0 364 0 438.3v25.6c0 26.5 21.5 48 48 48h352c9.7 0 18.7-2.9 26.3-7.9l-40.1-40.1H48zm176-175.9c79.5 0 144-64.5 144-144S303.5 0 224 0 80 64.4 80 144c0 79.5 64.5 143.9 144 143.9zM224 48c52.9 0 96 43 96 96 0 52.9-43.1 96-96 96s-96-43.1-96-96c0-53 43.1-96 96-96z"/></svg>