<svg xmlns="http://www.w3.org/2000/svg" viewBox="0 0 448 512"><!-- Font Awesome Pro 5.15.4 by @fontawesome - https://fontawesome.com License - https://fontawesome.com/license (Commercial License) --><path d="M13.2 100l6.8 2v37.6c-7 4.2-12 11.5-12 20.3 0 8.4 4.6 15.4 11.1 19.7L3.5 242c-1.7 6.9 2.1 14 7.6 14h41.8c5.5 0 9.3-7.1 7.6-14l-15.6-62.3C51.4 175.4 56 168.4 56 160c0-8.8-5-16.1-12-20.3v-30.5L90.6 123C84 139.4 80 157.2 80 176c0 79.5 64.5 144 144 144s144-64.5 144-144c0-18.8-4-36.6-10.6-53l77.4-23c17.6-5.2 17.6-34.8 0-40L240.9 2.5C235.3.8 229.7 0 224 0s-11.3.8-16.9 2.5L13.2 60c-17.6 5.2-17.6 34.8 0 40zM224 272c-52.9 0-96-43.1-96-96 0-14.1 3.3-27.3 8.8-39.3l70.4 20.9c14.8 4.4 27.2 2 33.8 0l70.4-20.9c5.5 12 8.8 25.3 8.8 39.3-.2 52.9-43.3 96-96.2 96zm-3.2-223.5c1-.3 3.3-.9 6.5 0L333.5 80l-106.3 31.5c-2.1.6-4.2.7-6.5 0L114.5 80l106.3-31.5zm98.6 272.1L224 400l-95.4-79.4C57.1 323.7 0 382.2 0 454.4v9.6c0 26.5 21.5 48 48 48h352c26.5 0 48-21.5 48-48v-9.6c0-72.2-57.1-130.7-128.6-133.8zM200 464H48v-9.6c0-40.4 27.9-74.4 66-83.5l86 71.6V464zm200 0H248v-21.5l86-71.6c38.1 9.1 66 43.1 66 83.5v9.6z"/></svg>