<svg xmlns="http://www.w3.org/2000/svg" viewBox="0 0 448 512"><!-- Font Awesome Pro 5.15.4 by @fontawesome - https://fontawesome.com License - https://fontawesome.com/license (Commercial License) --><path d="M252,272h24a60.00047,60.00047,0,0,0,60-60v-8a12.0006,12.0006,0,0,0-12-12H300a60.00047,60.00047,0,0,0-60,60v8A12.0006,12.0006,0,0,0,252,272Zm-56,0a12.0006,12.0006,0,0,0,12-12v-8a60.00047,60.00047,0,0,0-60-60H124a12.0006,12.0006,0,0,0-12,12v8a60.00047,60.00047,0,0,0,60,60Zm156,80h-8.81251c39.14845-43.77734,72.87892-96.6582,72.87892-149.36719C416.06641,76.73633,330.05273,0,224,0,117.91992,0,31.93555,76.73633,31.93555,202.63281c0,52.709,33.73047,105.58985,72.8789,149.36719H96A95.99975,95.99975,0,0,0,0,448v32a32.00158,32.00158,0,0,0,32,32H416a32.00033,32.00033,0,0,0,32-32V448A95.99975,95.99975,0,0,0,352,352ZM79.93555,202.63281C79.93555,110.14258,137.83008,48,224,48s144.06641,62.14258,144.06641,154.63281c0,61.3711-72.96289,139.19336-144.06641,193.9375C152.89648,341.82617,79.93555,264.00391,79.93555,202.63281ZM400,464H48V448a48.055,48.055,0,0,1,48-48h57.05664c19.35156,17.27734,37.27344,31.41992,50.24219,41.11133a34.55191,34.55191,0,0,0,41.40429,0c12.96876-9.69141,30.88868-23.834,50.24024-41.11133H352a48.055,48.055,0,0,1,48,48Z"/></svg>