<svg xmlns="http://www.w3.org/2000/svg" viewBox="0 0 640 512"><!-- Font Awesome Pro 5.15.4 by @fontawesome - https://fontawesome.com License - https://fontawesome.com/license (Commercial License) --><path d="M512 0c-70.69 0-128 50.14-128 112 0 28.76 12.75 54.72 33.11 74.55a312.08 312.08 0 0 1-31.29 55.37 9.86 9.86 0 0 0-1.25 9.07c1.09 3.13 3.43 5 6.11 5 39.84 0 72.35-17.14 95.22-34.36A146 146 0 0 0 512 224c70.69 0 128-50.14 128-112S582.69 0 512 0zM224 288A144 144 0 1 0 80 144a144 144 0 0 0 144 144zm0-240a96 96 0 1 1-96 96 96.15 96.15 0 0 1 96-96zm89.6 256c-11 0-21.8 2.6-32.2 6.2a173 173 0 0 1-114.8 0c-10.4-3.6-21.2-6.2-32.2-6.2A134.43 134.43 0 0 0 0 438.4V488a24 24 0 0 0 48 0v-49.6c0-45.5 35.4-82.4 80-85.8v50a56 56 0 1 0 32 0v-44.7c20.8 6.3 42.3 10.1 64 10.1s43.2-3.8 64-10.1v36.3c-28.2 7.5-48 34.5-48 64.6V488a16.06 16.06 0 0 0 4.7 11.3l10.3 10.3a8 8 0 0 0 11.3 0l11.3-11.3a8 8 0 0 0 0-11.3l-5.7-5.7V456a32.14 32.14 0 0 1 37.4-31.6c15.7 2.6 26.6 17.4 26.6 33.3v23.6l-5.7 5.7a8 8 0 0 0 0 11.3l11.3 11.3a8 8 0 0 0 11.3 0l10.3-10.3a16.06 16.06 0 0 0 4.7-11.3v-32a63.8 63.8 0 0 0-48-61.6v-41.7c44.6 3.3 80 40.3 80 85.8V488a24 24 0 0 0 48 0v-49.6c.2-74.2-60-134.4-134.2-134.4zM168 456a24 24 0 1 1-24-24 23.94 23.94 0 0 1 24 24z"/></svg>