<svg xmlns="http://www.w3.org/2000/svg" viewBox="0 0 576 512"><!-- Font Awesome Pro 5.15.4 by @fontawesome - https://fontawesome.com License - https://fontawesome.com/license (Commercial License) --><path d="M0 74.1c0 114.2 47.3 199 156.1 223L88 356.6c-31.9 28.2-33.4 77.6-3.3 107.7l26.9 26c30.3 30.3 79.6 28.5 107.7-3.3l70.1-79.1c74 87.3 67.1 79.2 68.5 80.7 28.2 30.1 76.4 31.6 106.3 1.7l26-26c29.7-29.7 28.7-78.1-2-106.6l-59.4-55.2c25.5-3.9 50.3-16.2 71.3-37.2 20.7-20.7 58.4-74.8 66.1-85.9 23.5-33.6 1.2-78.9-35.8-91.9-6.4-18.5-22.8-35.3-42-42.1-12.8-36.3-58-59.6-91.9-35.8-11.2 7.8-65.2 45.4-85.9 66.1-23 23-36.3 51.4-38.3 81.4L124.4 19.9C76.9-24.2 0 9.9 0 74.1zm348.3 153.6c-33.6-33.6-40.1-81.6-3.7-118C363.4 90.9 424 49 424 49c7.3-5.3 24.1 11.8 18.6 18.9L365 145.5c-6.7 7.8 10.5 25.3 18.6 18.9l82.6-73.3c7.2-5.1 23.9 11.5 18.7 18.7l-73.3 82.6c-6.4 8.1 11 25.3 18.9 18.6l77.6-77.6c7.1-5.5 24.1 11.3 18.9 18.6 0 0-41.9 60.6-60.7 79.5-35.8 35.8-83.8 30.5-118-3.8zm-138.7 86.1l48.5 57.1-74.6 84.3c-9.9 11.2-27.3 11.7-37.8 1.1l-26-26c-10.6-10.6-10.1-27.9 1.1-37.8l88.8-78.7zM48 74c0-22.6 27-34.5 43.7-19l364 338c10.8 10 11.1 27 .7 37.4l-26 26c-10.4 10.4-27.3 10.1-37.4-.6L223.5 256C93.5 256 48 182.8 48 74z"/></svg>