<svg xmlns="http://www.w3.org/2000/svg" viewBox="0 0 512 512"><!-- Font Awesome Pro 5.15.4 by @fontawesome - https://fontawesome.com License - https://fontawesome.com/license (Commercial License) --><path d="M474.4 37.5c-64-64-180.7-39.7-245.2 24.8-45 45.1-57.9 98.1-40.5 153.4L18.8 368.2c-24.2 21.7-25.3 59.4-2.2 82.5l44.7 44.7c23.3 23.3 61 21.7 82.5-2.2l152.4-169.9c53.8 16.9 107.1 5.8 153.4-40.5 63.4-63.5 89.7-180.4 24.8-245.3zm-58.7 211.2c-40.3 40.3-82.9 43-132.5 17.1L108 461.1c-3.3 3.7-9.2 4-12.8.3l-44.7-44.7c-3.6-3.6-3.4-9.4.3-12.8L246 228.7c-24.2-46.5-25.3-90.1 17.1-132.5 48.3-48.3 135.1-67 177.3-24.8 44 43.9 21.1 131.5-24.7 177.3z"/></svg>