<svg xmlns="http://www.w3.org/2000/svg" viewBox="0 0 512 512"><!-- Font Awesome Pro 5.15.4 by @fontawesome - https://fontawesome.com License - https://fontawesome.com/license (Commercial License) --><path d="M457.4 107.3c-6.3-24.8-28.9-46.7-52.7-52.8-10.2-39.8-60-70.8-97.6-45.2C294 18.1 230.8 60.9 207 84.8c-41.3 41.3-51.2 96.4-34.6 145.5L18.2 368.2c-23.5 21-24.3 57.5-1.9 79.9l47.6 47.6c22.6 22.6 59.1 21.4 79.9-1.9l137.9-154.3c51.5 17.4 105.9 5 145.5-34.6 23.8-23.8 66.5-86.9 75.3-100.1 26.4-38.4-6.6-87.7-45.1-97.5zm5.5 70.6s-47.8 71.3-69.7 93.1c-34.3 34.3-82.6 37-123.2 9.5L108 461.9c-2.5 2.9-7.2 2.9-10.2-.1l-47.6-47.6c-2.9-2.9-3-7.6-.1-10.2l181.4-162c-27.2-40.1-25.2-88.5 9.5-123.2 21.9-21.9 93.1-69.7 93.1-69.7 8.5-6 29.6 15.3 23.2 23.6l-90.1 90.1c-7.7 9.2 13.8 31 23.2 23.6l96.4-84.7c8.4-5.9 29.3 15 23.4 23.4l-84.7 96.4c-7.4 9.4 14.4 31 23.6 23.2l90.1-90.1c8.4-6.3 29.8 14.7 23.7 23.3z"/></svg>