<svg xmlns="http://www.w3.org/2000/svg" viewBox="0 0 512 512"><!-- Font Awesome Pro 5.15.4 by @fontawesome - https://fontawesome.com License - https://fontawesome.com/license (Commercial License) --><path d="M431.36,80.64a248,248,0,0,0-350.72,0c-96.85,96.85-96.85,253.87,0,350.72a248,248,0,0,0,350.72,0C528.21,334.51,528.21,177.49,431.36,80.64ZM397.42,397.42A200,200,0,1,1,114.58,114.58,200,200,0,1,1,397.42,397.42ZM369,143C306.66,80.75,205.34,80.75,143,143A24,24,0,0,0,177,177,111.77,111.77,0,1,1,335,335,24,24,0,1,0,369,369,159.72,159.72,0,0,0,369,143ZM139.55,304.57a16,16,0,0,0-22.63,22.63l67.88,67.88a16,16,0,0,0,22.63-22.63Zm90.51-90.51a16,16,0,0,0-22.63,22.63l67.88,67.88a16,16,0,0,0,22.63-22.63Zm-67.88,22.63a16,16,0,0,0-22.63,22.62L252.69,372.45a16,16,0,0,0,22.62-22.63Z"/></svg>