<svg xmlns="http://www.w3.org/2000/svg" viewBox="0 0 512 512"><!-- Font Awesome Pro 5.15.4 by @fontawesome - https://fontawesome.com License - https://fontawesome.com/license (Commercial License) --><path d="M480 160c17.67 0 32-14.33 32-32V32c0-17.67-14.33-32-32-32h-96c-17.67 0-32 14.33-32 32v16H160V32c0-17.67-14.33-32-32-32H32C14.33 0 0 14.33 0 32v96c0 17.67 14.33 32 32 32h16v192H32c-17.67 0-32 14.33-32 32v96c0 17.67 14.33 32 32 32h96c17.67 0 32-14.33 32-32v-16h192v16c0 17.67 14.33 32 32 32h96c17.67 0 32-14.33 32-32v-96c0-17.67-14.33-32-32-32h-16V160h16zM400 48h64v64h-64V48zM48 48h64v64H48V48zm64 416H48v-64h64v64zm352 0h-64v-64h64v64zm-48-112h-32c-17.67 0-32 14.33-32 32v32H160v-32c0-17.67-14.33-32-32-32H96V160h32c17.67 0 32-14.33 32-32V96h192v32c0 17.67 14.33 32 32 32h32v192z"/></svg>