<svg xmlns="http://www.w3.org/2000/svg" viewBox="0 0 512 512"><!-- Font Awesome Pro 5.15.4 by @fontawesome - https://fontawesome.com License - https://fontawesome.com/license (Commercial License) --><path d="M288 176c0-79.5-64.5-144-144-144S0 96.5 0 176c0 71.4 51.9 130.6 120 142v58H76c-6.6 0-12 5.4-12 12v24c0 6.6 5.4 12 12 12h44v44c0 6.6 5.4 12 12 12h24c6.6 0 12-5.4 12-12v-44h44c6.6 0 12-5.4 12-12v-24c0-6.6-5.4-12-12-12h-44v-58c68.1-11.4 120-70.6 120-142zm-240 0c0-52.9 43.1-96 96-96s96 43.1 96 96-43.1 96-96 96-96-43.1-96-96zm344 142v58h44c6.6 0 12 5.4 12 12v24c0 6.6-5.4 12-12 12h-44v44c0 6.6-5.4 12-12 12h-24c-6.6 0-12-5.4-12-12v-44h-44c-6.6 0-12-5.4-12-12v-24c0-6.6 5.4-12 12-12h44v-58c-24.3-4.1-46.6-14.3-65.2-28.9 10.4-12.4 19.1-26.1 25.8-41 16.9 14.9 39.1 24 63.4 24 52.9 0 96-43.1 96-96s-43.1-96-96-96c-24.3 0-46.5 9.1-63.4 24-6.7-14.9-15.4-28.7-25.8-41C303.4 43.6 334.3 32 368 32c79.5 0 144 64.5 144 144 0 71.4-51.9 130.6-120 142z"/></svg>