<svg xmlns="http://www.w3.org/2000/svg" viewBox="0 0 448 512"><!-- Font Awesome Pro 5.15.4 by @fontawesome - https://fontawesome.com License - https://fontawesome.com/license (Commercial License) --><path d="M433.219,226.562,384,152.734V56A56.068,56.068,0,0,0,328,0h-8a23.924,23.924,0,0,0-13.289,4.066l-.023-.035-25,16.672a103.794,103.794,0,0,1-115.376,0l-25-16.672-.023.035A23.924,23.924,0,0,0,128,0h-8A56.068,56.068,0,0,0,64,56v96.734L14.781,226.562A87.638,87.638,0,0,0,0,275.375V456a56.068,56.068,0,0,0,56,56H392a56.068,56.068,0,0,0,56-56V275.375A87.638,87.638,0,0,0,433.219,226.562ZM194.094,246.188A24.06,24.06,0,0,0,192,256V464H56a8.016,8.016,0,0,1-8-8V275.375a39.907,39.907,0,0,1,6.719-22.187l53.25-79.876A24.021,24.021,0,0,0,112,160V56a7.992,7.992,0,0,1,1.781-5.031L197.7,238.154ZM400,456a8.016,8.016,0,0,1-8,8H240V261.141L334.219,50.969A7.992,7.992,0,0,1,336,56V160a24.021,24.021,0,0,0,4.031,13.312l53.25,79.876A39.907,39.907,0,0,1,400,275.375ZM76.688,419.312a15.992,15.992,0,0,0,22.624,0l48-48a16,16,0,0,0-22.624-22.624l-48,48A15.993,15.993,0,0,0,76.688,419.312Zm246.624-70.624a16,16,0,0,0-22.624,22.624l48,48a16,16,0,0,0,22.624-22.624Z"/></svg>