<svg xmlns="http://www.w3.org/2000/svg" viewBox="0 0 448 512"><!-- Font Awesome Pro 5.15.4 by @fontawesome - https://fontawesome.com License - https://fontawesome.com/license (Commercial License) --><path d="M433.219,226.562,384,152.734V56A56.068,56.068,0,0,0,328,0h-8a23.924,23.924,0,0,0-13.289,4.066l-.023-.035-25,16.672a103.794,103.794,0,0,1-115.376,0l-25-16.672-.023.035A23.924,23.924,0,0,0,128,0h-8A56.068,56.068,0,0,0,64,56v96.734L14.781,226.562A87.638,87.638,0,0,0,0,275.375V456a56.068,56.068,0,0,0,56,56H392a56.068,56.068,0,0,0,56-56V275.375A87.638,87.638,0,0,0,433.219,226.562ZM194.094,246.188A24.06,24.06,0,0,0,192,256V464H56a8.016,8.016,0,0,1-8-8V275.375a39.907,39.907,0,0,1,6.719-22.187l53.25-79.876A24.021,24.021,0,0,0,112,160V56a7.992,7.992,0,0,1,1.781-5.031L197.7,238.154ZM400,456a8.016,8.016,0,0,1-8,8H240V261.141L334.219,50.969A7.992,7.992,0,0,1,336,56V160a24.021,24.021,0,0,0,4.031,13.312l53.25,79.876A39.907,39.907,0,0,1,400,275.375ZM342.5,302.541l-5.051.037.037-5.057c.073-12.8-9.267-24.257-22.056-25.419a24.987,24.987,0,0,0-27.215,24.621L288,345.3a6.671,6.671,0,0,0,6.7,6.7l48.53-.215A24.948,24.948,0,0,0,367.9,324.617C366.736,311.816,355.326,302.506,342.5,302.541ZM112,360a40,40,0,1,0,40,40A40,40,0,0,0,112,360ZM95.5,255.516a12.052,12.052,0,0,0,0,16.968L111.016,288,95.5,303.516a12.01,12.01,0,0,0,17,16.968l15.5-15.5,15.5,15.5a12.01,12.01,0,0,0,17-16.968L144.984,288,160.5,272.484a12.01,12.01,0,0,0-17-16.968l-15.5,15.5-15.5-15.5A12.032,12.032,0,0,0,95.5,255.516Z"/></svg>