<svg xmlns="http://www.w3.org/2000/svg" viewBox="0 0 640 512"><!-- Font Awesome Pro 5.15.4 by @fontawesome - https://fontawesome.com License - https://fontawesome.com/license (Commercial License) --><path d="M632.88 384.94L544 320v-32l55.16-23.59c11.79-7.86 11.79-30.3 0-38.16L480 160v-32l27.31-16.3c7.72-7.72 5.61-20.74-4.16-25.62L320 0 136.85 86.07c-9.77 4.88-11.88 17.9-4.16 25.62L160 128v32L40.84 226.25c-11.79 7.86-11.79 30.3 0 38.16L96 288v32L7.12 384.94c-10.22 9.09-9.27 29.51 1.72 36.83L64 448v48c0 8.84 7.16 16 16 16h16c8.84 0 16-7.16 16-16v-48h184v48c0 8.84 7.16 16 16 16h16c8.84 0 16-7.16 16-16v-48h184v48c0 8.84 7.16 16 16 16h16c8.84 0 16-7.16 16-16v-48l55.15-26.23c10.99-7.32 11.95-27.74 1.73-36.83zM320 53.04L377.39 80H262.62L320 53.04zM208 128h224v32H208v-32zm-35.55 80h295.11l57.55 32H114.89l57.56-32zM144 288h352v32H144v-32zm-32.33 80h416.66L576 400H64l47.67-32z"/></svg>