<svg xmlns="http://www.w3.org/2000/svg" viewBox="0 0 640 512"><!-- Font Awesome Pro 5.15.4 by @fontawesome - https://fontawesome.com License - https://fontawesome.com/license (Commercial License) --><path d="M481.14 192.8L635.31 38.62a16 16 0 0 0 0-22.62L624 4.69a16 16 0 0 0-22.62 0l-154.2 154.19c-15.44-12.84-33.06-23-52.59-27.53-18.76-4.37-64-10-98 24-3.68 3.69-6.5 7.9-9.4 12.05 6.65 48.81-40.82 85.5-85.95 68.2-15.23 5.15-29.31 13.11-41 24.86-42.52 42.4-41.86 113.62-3.24 171.24l-21.87 14.59a16 16 0 0 0-2.44 24.62l36.4 36.4a16 16 0 0 0 24.62-2.44l14.46-21.69c28.23 18.92 59.72 28.74 89.51 28.74 31 0 60.18-10.53 81.8-32.16 11.75-11.68 19.71-25.77 24.87-41-17.17-45 19.28-92.33 68-85.87 4.21-2.94 8.48-5.8 12.23-9.54 24.94-25 32.43-61.48 24-97.91-4.49-19.56-14.58-37.19-27.44-52.64zm-26.21 111.58c-61.44 4.94-113.41 62.7-101.22 130.69-5 8.85-20.61 28.85-56 28.85-21.29 0-43.21-7.47-62.86-20.71l4.79-7.18a16 16 0 0 0-2-20.19l-13.45-13.45a16 16 0 0 0-20.19-2l-7.2 4.8c-13.3-19.7-20.79-41.67-20.77-63 0-26.13 11.64-46.1 28.84-55.91 68.45 12.32 126-39.66 130.83-101.37 10.07-7.25 21.8-8.92 30.45-8.92a78 78 0 0 1 17.59 2.1c11.06 2.57 21 8.55 29.29 15l-88.31 88.32a16 16 0 0 0 0 22.62L336 315.31a16 16 0 0 0 22.62 0L447 227c6.4 8.33 12.34 18.21 14.89 29.23 4.33 18.92 1.76 36.1-6.96 48.15zM347.31 16L336 4.69a16 16 0 0 0-22.62 0L4.69 313.38a16 16 0 0 0 0 22.62L16 347.31a16 16 0 0 0 22.62 0L347.31 38.62a16 16 0 0 0 0-22.62zM520 48a24 24 0 1 0-24-24 24 24 0 0 0 24 24zm-48 48a24 24 0 1 0-24-24 24 24 0 0 0 24 24zm144 0a24 24 0 1 0 24 24 24 24 0 0 0-24-24zm-48 48a24 24 0 1 0 24 24 24 24 0 0 0-24-24z"/></svg>