<svg xmlns="http://www.w3.org/2000/svg" viewBox="0 0 512 512"><!-- Font Awesome Pro 5.15.4 by @fontawesome - https://fontawesome.com License - https://fontawesome.com/license (Commercial License) --><path d="M500.9 426.5L341.6 228.3c-10.1-12.9-25.3-20.3-41.8-20.3H212c-16.4 0-31.6 7.4-41.6 20.1L10.7 427.2c-12.2 16.2-14.1 37.4-5.1 55.5S32.8 512 53 512h406c20.2 0 38.4-11.2 47.4-29.3s7.1-39.4-5.5-56.2zM208.2 257.9c.9-1.2 2.4-1.9 3.9-1.9h87.8c1.5 0 3 .7 4.1 2.2l49.4 61.5-28.9 35.6c-3.6 4.2-8.1 4.8-10.5 4.8-2.4 0-6.9-.6-10.5-4.8l-28.6-33.4c-12-14-29.7-20.9-47.9-21.6-18.4.3-35.7 8.8-47.2 23.2-3.6 4.5-8.3 5.2-10.8 5.2s-7.2-.7-9.2-2.9l-2.7-4.3 51.1-63.6zM459 464H53.1c-2.1 0-3.6-.9-4.5-2.8-.9-1.8-.8-3.6 0-4.7l78.2-97.3c25.2 23.1 68.6 21.4 90.5-5.8 3.5-4.4 8.1-5.1 10.5-5.2 3-.4 7 .6 10.7 4.8l28.6 33.4C278.9 400.2 296 408 314 408c18.1 0 35.2-7.8 47.3-22.1l22.8-28.1L463 456c1.3 1.7 1.4 3.4.5 5.3-1 1.8-2.5 2.7-4.5 2.7zM160 144c12.9 0 24.8-3.9 34.8-10.4L224 176h64l29.2-42.4c10 6.5 21.9 10.4 34.8 10.4 35.3 0 64-28.7 64-64s-28.7-64-64-64c-15.8 0-30 5.9-41.2 15.4C299.6 12.7 279.4 0 256 0s-43.6 12.7-54.8 31.4C190.1 21.9 175.8 16 160 16c-35.3 0-64 28.7-64 64s28.7 64 64 64z"/></svg>