<svg xmlns="http://www.w3.org/2000/svg" viewBox="0 0 496 512"><!-- Font Awesome Pro 5.15.4 by @fontawesome - https://fontawesome.com License - https://fontawesome.com/license (Commercial License) --><path d="M248 8C111.2 8 0 119.2 0 256s111.2 248 248 248 248-111.2 248-248S384.8 8 248 8zm146.6 383.6c-75.3 12.7-152.6-4.5-215.7-47.8 19.8-23.6 43.5-43.9 70.3-60.3 95 51.4 177.4 40.1 187.1 39.3-9.2 25.8-23.5 49.1-41.7 68.8zm52.5-118.1c-18.9 2.6-37.9 3.5-56.8 2.3 5.6-68.4-10.3-136.3-45-194.4 28.8 16.2 111.9 76.6 101.8 192.1zM291.9 61c48.8 58.9 72.6 134.6 66.7 211-30.2-5.3-59.6-15.6-87.1-30.5-1.8-65.7-22.6-128.5-59.9-182 12-2.2 41.1-7.3 80.3 1.5zM163.7 74.9C175.4 90 185.6 106 194 122.8c-62 29.3-112.9 77-145.9 136.2-1.3-87.3 52-154.4 115.6-184.1zM57.1 315.7c26.6-71.8 80.2-130.4 149.4-163.5 10.5 28.8 16.3 59.4 17.1 90.7-56 34.4-100 83.8-127.6 142.8-17.3-20.3-30.7-44-38.9-70zm76.2 103.9c7.1-17.6 15.9-34.2 26.1-49.9 33.7 23.3 98.9 59.2 190.8 57.9-30 17.9-64.8 28.4-102.2 28.4-42.7 0-82.2-13.6-114.7-36.4z"/></svg>