<svg xmlns="http://www.w3.org/2000/svg" viewBox="0 0 640 512"><!-- Font Awesome Pro 5.15.4 by @fontawesome - https://fontawesome.com License - https://fontawesome.com/license (Commercial License) --><path d="M246.5 268.4l11.3 11.3c6.2 6.2 16.4 6.2 22.6 0l39.6-39.6 39.6 39.6c6.2 6.2 16.4 6.2 22.6 0l11.3-11.3c6.2-6.2 6.2-16.4 0-22.6l-39.6-39.6 39.6-39.6c6.2-6.2 6.2-16.4 0-22.6l-11.3-11.3c-6.2-6.2-16.4-6.2-22.6 0L320 172.3l-39.6-39.6c-6.2-6.2-16.4-6.2-22.6 0L246.5 144c-6.2 6.2-6.2 16.4 0 22.6l39.6 39.6-39.6 39.6c-6.3 6.3-6.3 16.4 0 22.6zM592 272h-80V38.2C512 17.1 497.5 0 479.7 0H160.3C142.5 0 128 17.1 128 38.2V272H48c-26.5 0-48 21.5-48 48v144c0 26.5 21.5 48 48 48h544c26.5 0 48-21.5 48-48V320c0-26.5-21.5-48-48-48zM464 48v320H176V48h288zm128 416H48V320h80v48h-22.4c-5.3 0-9.6 3.6-9.6 8v32c0 4.4 4.3 8 9.6 8h428.8c5.3 0 9.6-3.6 9.6-8v-32c0-4.4-4.3-8-9.6-8H512v-48h80v144z"/></svg>