<svg xmlns="http://www.w3.org/2000/svg" viewBox="0 0 640 512"><!-- Font Awesome Pro 5.15.4 by @fontawesome - https://fontawesome.com License - https://fontawesome.com/license (Commercial License) --><path d="M288.1 285.1c3.8 3.9 10.1 3.9 14 .1l117.8-116.8c3.9-3.8 3.9-10.1.1-14L396.8 131c-3.8-3.9-10.1-3.9-14-.1l-87.4 86.7-37.9-38.2c-3.8-3.9-10.1-3.9-14-.1l-23.4 23.2c-3.9 3.8-3.9 10.1-.1 14l68.1 68.6zM592 272h-80V38.2C512 17.1 497.5 0 479.7 0H160.3C142.5 0 128 17.1 128 38.2V272H48c-26.5 0-48 21.5-48 48v144c0 26.5 21.5 48 48 48h544c26.5 0 48-21.5 48-48V320c0-26.5-21.5-48-48-48zM464 48v320H176V48h288zm128 416H48V320h80v48h-22.4c-5.3 0-9.6 3.6-9.6 8v32c0 4.4 4.3 8 9.6 8h428.8c5.3 0 9.6-3.6 9.6-8v-32c0-4.4-4.3-8-9.6-8H512v-48h80v144z"/></svg>