<svg xmlns="http://www.w3.org/2000/svg" viewBox="0 0 640 512"><!-- Font Awesome Pro 5.15.4 by @fontawesome - https://fontawesome.com License - https://fontawesome.com/license (Commercial License) --><path d="M624.23,26.47A71.08,71.08,0,0,0,555.75,1.21l-149,27.94h-8.22A63.44,63.44,0,0,0,360,16H280A63.42,63.42,0,0,0,241.5,29.15h-8.22L84.31,1.21a71.12,71.12,0,0,0-78.89,97L69,260.42A15.86,15.86,0,0,0,64,272v32a16,16,0,0,0,16,16H97.79c-.31.31-.68.5-1,.81A112,112,0,1,0,286.49,416h67.08a111.85,111.85,0,1,0,189.69-95.2c-.31-.31-.68-.5-1-.81h17.79a16,16,0,0,0,16-16V272a15.85,15.85,0,0,0-5-11.56L634.4,98.71A71,71,0,0,0,624.23,26.47ZM160,461.73A62.4,62.4,0,0,1,114.27,416H160ZM160,384H114.27A62.4,62.4,0,0,1,160,338.25ZM118.87,256l-69-175.89A23.12,23.12,0,0,1,75.46,48.4L216.53,74.85c-.14,1.72-.51,3.36-.51,5.11V256Zm102.4,189.27A63.4,63.4,0,0,1,192,461.73V416h45.74A63.36,63.36,0,0,1,221.27,445.25ZM192,384V338.25A62.4,62.4,0,0,1,237.75,384ZM376,256H264V80a16,16,0,0,1,16-16h80a16,16,0,0,1,16,16Zm72,205.75A62.43,62.43,0,0,1,402.3,416h45.75Zm0-77.74H402.3a62.43,62.43,0,0,1,45.75-45.74Zm61.26,61.26a63.4,63.4,0,0,1-29.26,16.48V416h45.74A63.36,63.36,0,0,1,509.31,445.25ZM480.05,384V338.25A62.4,62.4,0,0,1,525.79,384ZM589.94,80.63,521.18,256H424V80c0-1.88-.39-3.65-.55-5.49L564.59,48.4a22.59,22.59,0,0,1,22.27,8.2C589.47,59.84,595,68.6,589.94,80.63Z"/></svg>