<svg xmlns="http://www.w3.org/2000/svg" viewBox="0 0 320 512"><!-- Font Awesome Pro 5.15.4 by @fontawesome - https://fontawesome.com License - https://fontawesome.com/license (Commercial License) --><path d="M94.8 347.8s-.1-.1-.1-.2l-20.4 51c-2 5-5 9.6-8.9 13.4L7 470.5c-9.4 9.4-9.4 24.6 0 33.9 4.7 4.7 10.8 7 16.9 7s12.3-2.3 16.9-7l58.4-58.5c8.5-8.5 15-18.5 19.4-29.5l13.5-33.7-36.2-33.5-1.1-1.4zM207.8 96c26.5 0 47.9-21.5 47.9-48S234.2 0 207.8 0c-26.5 0-47.9 21.5-47.9 48s21.4 48 47.9 48zm104.7 174.9L283.2 242c-.9-.9-1.6-2-2-3.2L268.3 200c-14.4-43.1-54.4-72-99.8-72-34.8 0-53 8.8-95.7 26-20.9 8.4-37.9 24.1-48.2 44.8l-14.4 31.1c-13.3 28.7 30.1 49.1 43.5 20.2l14-30.4c4.8-9.6 12.9-17 22.8-21 21.7-8.7 33.1-13.5 44.3-17.1L115 260.8c-4.7 18.9.3 38.8 14.9 54.6l79 73c5.9 5.5 10 12.5 11.8 20.4l19.5 84.8c2.6 11.5 14.4 21.2 28.7 18 12.9-3 20.9-15.9 17.9-28.8l-19.5-84.7c-4-17.3-13-32.8-26-44.9l-53.8-49.6 26.2-104.8c7.4 9.7 7.5 12.6 21.8 55.4 2.8 8.3 7.5 15.9 13.8 22.2l29.3 29c22.3 21.5 56.7-11.9 33.9-34.5z"/></svg>