<svg xmlns="http://www.w3.org/2000/svg" viewBox="0 0 640 512"><!-- Font Awesome Pro 5.15.4 by @fontawesome - https://fontawesome.com License - https://fontawesome.com/license (Commercial License) --><path d="M504 208H136c-22.1 0-40 17.9-40 40v248c0 8.8 7.2 16 16 16h16c8.8 0 16-7.2 16-16v-48h352v48c0 8.8 7.2 16 16 16h16c8.8 0 16-7.2 16-16V248c0-22.1-17.9-40-40-40zm-8 208H144v-64h352v64zm0-96H144v-64h352v64zm101.9-209.9L346.3 5.3c-17-7-35.7-7.1-52.6 0L42.1 110.1C16.5 120.7 0 145.5 0 173.2V496c0 8.8 7.2 16 16 16h16c8.8 0 16-7.2 16-16V173.2c0-8.3 4.9-15.7 12.5-18.8L312.2 49.6c5.1-2.1 10.6-2.1 15.7 0l251.6 104.8c7.6 3.2 12.5 10.6 12.5 18.8V496c0 8.8 7.2 16 16 16h16c8.8 0 16-7.2 16-16V173.2c0-27.7-16.5-52.5-42.1-63.1z"/></svg>