<svg xmlns="http://www.w3.org/2000/svg" viewBox="0 0 446 512"><!-- Font Awesome Pro 5.15.4 by @fontawesome - https://fontawesome.com License - https://fontawesome.com/license (Commercial License) --><path d="M383 0H63A64 64 0 0 0-1 64v416a32 32 0 0 0 32 32h384a32 32 0 0 0 32-32V64a64 64 0 0 0-64-64zm16 464H47V64a16 16 0 0 1 16-16h320a16 16 0 0 1 16 16zM127 104a24 24 0 1 0-24 24 24 24 0 0 0 24-24zm56 24a24 24 0 1 0-24-24 24 24 0 0 0 24 24zm40 32a136 136 0 1 0 136 136 136 136 0 0 0-136-136zm0 226.67A90.78 90.78 0 0 1 132.33 296c0-2.89.59-5.62.86-8.44a45.71 45.71 0 0 0 19.92 4.66 48.93 48.93 0 0 0 35.07-14.79 48.38 48.38 0 0 0 69.64 0 48.93 48.93 0 0 0 35.07 14.79 45.71 45.71 0 0 0 19.92-4.66c.27 2.82.86 5.55.86 8.44A90.78 90.78 0 0 1 223 386.67z"/></svg>