<svg xmlns="http://www.w3.org/2000/svg" viewBox="0 0 384 512"><!-- Font Awesome Pro 5.15.4 by @fontawesome - https://fontawesome.com License - https://fontawesome.com/license (Commercial License) --><path d="M320 81.61V32c0-17.67-14.33-32-32-32H96C78.33 0 64 14.33 64 32v49.61C27.49 89.03 0 121.3 0 160v192c0 38.7 27.49 70.97 64 78.39V480c0 17.67 14.33 32 32 32h192c17.67 0 32-14.33 32-32v-49.61c36.52-7.41 64-39.69 64-78.39V160c0-38.7-27.48-70.97-64-78.39zM112 48h160v32H112V48zm160 416H112v-32h160v32zm64-112c0 17.64-14.36 32-32 32H80c-17.64 0-32-14.36-32-32V160c0-17.64 14.36-32 32-32h224c17.64 0 32 14.36 32 32v192zm-71.49-150.1c-22.05-17.19-50.86-9.54-65.59 4.36l-6.93 6.54-6.93-6.54c-14.36-13.55-43.29-21.73-65.59-4.36-22.09 17.21-23.25 48.13-3.48 66.79l68.04 64.2c4.39 4.14 11.52 4.15 15.91 0l68.04-64.2c19.78-18.66 18.62-49.58-3.47-66.79z"/></svg>