<svg xmlns="http://www.w3.org/2000/svg" viewBox="0 0 576 512"><!-- Font Awesome Pro 5.15.4 by @fontawesome - https://fontawesome.com License - https://fontawesome.com/license (Commercial License) --><path d="M276.7 219.4c6.2 6.2 16.3 6.2 22.5 0l97.7-97c6.3-6.2 6.3-16.4.1-22.6l-11.3-11.4c-6.2-6.3-16.4-6.3-22.6-.1L312 139.1V16c0-8.8-7.2-16-16-16h-16c-8.8 0-16 7.2-16 16v123.1l-51.1-50.8c-6.3-6.2-16.4-6.2-22.6.1L179 99.8c-6.2 6.3-6.2 16.4.1 22.6l97.6 97zm284.8 244.5c-25.1-2.6-49.2-11.9-66.4-25.9-8.7-7.1-21.6-7-30.3.1-20.5 16.9-50 26.6-80.8 26.6-30.1 0-60.3-10-80.9-26.7-8.7-7.1-21.6-7-30.3.1-20.5 16.9-50 26.6-80.8 26.6-30.1 0-60.3-10-80.9-26.7-8.7-7.1-21.6-7-30.3.1-17.2 14.2-40.7 23.3-66.1 25.8-8.2.9-14.7 7.3-14.7 15.5v16.5c0 9.1 7.6 16.8 16.7 16 28.9-2.5 56.5-11.5 79.3-25.8 54.9 34.2 137.9 33.9 192 0 54.9 34.2 137.9 33.9 192 0 22.9 14.3 50.5 23.3 79.2 25.8 9.1.8 16.7-6.9 16.7-16v-16.7c.1-8.1-6.3-14.4-14.4-15.3zm0-144.7c-25.1-2.6-49.2-11.9-66.4-25.9-8.7-7.1-21.6-7-30.3.1-20.5 16.9-50 26.6-80.8 26.6-30.1 0-60.3-10-80.9-26.7-8.7-7.1-21.6-7-30.3.1-20.5 16.9-50 26.6-80.8 26.6-30.1 0-60.3-10-80.9-26.7-8.7-7.1-21.6-7-30.3.1-17.2 14.2-40.7 23.3-66.1 25.8C6.5 320 0 326.4 0 334.7v16.5c0 9.1 7.6 16.8 16.7 16 28.9-2.5 56.5-11.5 79.3-25.8 54.9 34.2 137.9 33.9 192 0 54.9 34.2 137.9 33.9 192 0 22.9 14.3 50.5 23.3 79.2 25.8 9.1.8 16.7-6.9 16.7-16v-16.7c.1-8.2-6.3-14.5-14.4-15.3z"/></svg>