<svg xmlns="http://www.w3.org/2000/svg" viewBox="0 0 640 512"><!-- Font Awesome Pro 5.15.4 by @fontawesome - https://fontawesome.com License - https://fontawesome.com/license (Commercial License) --><path d="M328 0h-16a16 16 0 0 0-16 16v480a16 16 0 0 0 16 16h16a16 16 0 0 0 16-16V16a16 16 0 0 0-16-16zm-96 96h-16a16 16 0 0 0-16 16v288a16 16 0 0 0 16 16h16a16 16 0 0 0 16-16V112a16 16 0 0 0-16-16zm192 32h-16a16 16 0 0 0-16 16v224a16 16 0 0 0 16 16h16a16 16 0 0 0 16-16V144a16 16 0 0 0-16-16zm96-64h-16a16 16 0 0 0-16 16v352a16 16 0 0 0 16 16h16a16 16 0 0 0 16-16V80a16 16 0 0 0-16-16zM136 192h-16a16 16 0 0 0-16 16v96a16 16 0 0 0 16 16h16a16 16 0 0 0 16-16v-96a16 16 0 0 0-16-16zm-96 32H24a16 16 0 0 0-16 16v32a16 16 0 0 0 16 16h16a16 16 0 0 0 16-16v-32a16 16 0 0 0-16-16zm576 0h-16a16 16 0 0 0-16 16v32a16 16 0 0 0 16 16h16a16 16 0 0 0 16-16v-32a16 16 0 0 0-16-16z"/></svg>