<svg xmlns="http://www.w3.org/2000/svg" viewBox="0 0 640 512"><!-- Font Awesome Pro 5.15.4 by @fontawesome - https://fontawesome.com License - https://fontawesome.com/license (Commercial License) --><path d="M628 268h-52.09l-20.44-92.48a20 20 0 0 0-38.94-.07L484.75 315.7l-33-234.53a20 20 0 0 0-39.65.45l-29.5 250-42.79-314.35a20 20 0 0 0-39.62 0l-42.81 314.37-29.5-250a20 20 0 0 0-39.66-.44l-33 234.53-31.75-140.28a20 20 0 0 0-38.94.05L64.09 268H12a12 12 0 0 0-12 12v16a12 12 0 0 0 12 12h68a19.87 19.87 0 0 0 19.47-15.5l4.66-19.94 36.4 160c2.22 9.69 9.78 15.44 20.25 15.44h.22a19.94 19.94 0 0 0 18.75-17.16l26.5-189.36 29.85 252.91a20 20 0 0 0 39.68.34L320 170.36l44.19 324.37a20 20 0 0 0 39.69-.34l29.84-252.91 26.5 189.33A20 20 0 0 0 479.13 448c9.93.53 18.06-5.63 20.34-15.44l36.41-160 4.65 19.92A19.88 19.88 0 0 0 560 308h68a12 12 0 0 0 12-12v-16a12 12 0 0 0-12-12z"/></svg>