<svg xmlns="http://www.w3.org/2000/svg" viewBox="0 0 640 512"><!-- Font Awesome Pro 5.15.4 by @fontawesome - https://fontawesome.com License - https://fontawesome.com/license (Commercial License) --><path d="M634 471L36 3.51A16 16 0 0 0 13.51 6l-10 12.49A16 16 0 0 0 6 41l598 467.49a16 16 0 0 0 22.49-2.49l10-12.49A16 16 0 0 0 634 471zM455.58 270.61c5.08-14.7 8.42-30.21 8.42-46.61 0-79.41-64.59-144-144-144a142.89 142.89 0 0 0-78.26 23.43l41 32.09a94.54 94.54 0 0 1 131.75 103zM320 48a176 176 0 0 1 162.48 243.64l38.63 30.2A222.06 222.06 0 0 0 544 224C544 100.29 443.71 0 320 0a223 223 0 0 0-143.71 52.26l39 30.5A175 175 0 0 1 320 48zm0 320a142.8 142.8 0 0 0 23.35-2.36L177.18 235.73C183.27 309.58 244.61 368 320 368zm0 32a176 176 0 0 1-176-176c0-4.62.34-9.15.69-13.67l-43.49-34A224.17 224.17 0 0 0 96 224c0 76.19 38.11 143.39 96.23 183.85L143 438.6a32 32 0 0 0-15 27.14V480a32 32 0 0 0 32 32h320c12.39 0 22.81-7.25 28.14-17.54L375.63 390.88A175.61 175.61 0 0 1 320 400z"/></svg>