<svg xmlns="http://www.w3.org/2000/svg" viewBox="0 0 512 512"><!-- Font Awesome Pro 5.15.4 by @fontawesome - https://fontawesome.com License - https://fontawesome.com/license (Commercial License) --><path d="M510.28 445.86l-73.03-292.13c-3.8-15.19-16.44-25.72-30.87-25.72h-72.41c6.2-12.05 10.04-25.51 10.04-40 0-48.6-39.4-88-88-88s-88 39.4-88 88c0 14.49 3.83 27.95 10.04 40h-72.41c-14.43 0-27.08 10.54-30.87 25.72L1.72 445.86C-6.61 479.17 16.38 512 48.03 512h415.95c31.64 0 54.63-32.83 46.3-66.14zM216 88c0-22.06 17.94-40 40-40s40 17.94 40 40c0 22.05-17.94 40-40 40s-40-17.95-40-40zm246.72 376H49.28c-.7-.96-1.81-3.23-1-6.5L118.66 176h274.68l70.38 281.5c.81 3.27-.3 5.54-1 6.5z"/></svg>