<svg xmlns="http://www.w3.org/2000/svg" viewBox="0 0 640 512"><!-- Font Awesome Pro 5.15.4 by @fontawesome - https://fontawesome.com License - https://fontawesome.com/license (Commercial License) --><path d="M512 128c-141.14 0-207.15 83.47-308.69 182.31-3.26 3.26-7.27 4.72-11.2 4.72-8.23 0-16.12-6.39-16.12-16.03v-62.87l31.38-16.49C217.76 213.7 224 203.7 224 193V80.03c0-9.41-9.01-16.03-18.72-16.03h-.01c-3.47 0-7.02.85-10.29 2.71L112 114.13 29.02 66.71A20.781 20.781 0 0 0 18.72 64C9.01 64 0 70.61 0 80.03V193c0 10.7 6.24 20.69 16.62 26.62L48 236.12v80C48 388.96 107.04 448 179.88 448H544c53.02 0 96-42.98 96-96v-96c0-70.69-57.31-128-128-128zm80 224c0 26.47-21.53 48-48 48H179.88C133.63 400 96 362.37 96 316.12v-109l-25.67-13.49L48 181.89v-49.05l40.19 22.96L112 169.42l23.82-13.61L176 132.84v49.05l-22.33 11.74L128 207.12v91.87c0 35.31 28.76 64.03 64.12 64.03 17 0 33.03-6.67 44.68-18.32 11.53-11.22 22.6-22.24 33.38-32.97C352.28 230 406.52 176 512 176c44.11 0 80 35.89 80 80v96zm-160-72c-13.25 0-24 10.74-24 24 0 13.25 10.75 24 24 24s24-10.75 24-24c0-13.26-10.75-24-24-24z"/></svg>