<svg xmlns="http://www.w3.org/2000/svg" viewBox="0 0 640 512"><!-- Font Awesome Pro 5.15.4 by @fontawesome - https://fontawesome.com License - https://fontawesome.com/license (Commercial License) --><path d="M250.6 254c0 22.3-18.1 40.4-40.4 40.4s-40.4-18.1-40.4-40.4c0-22.3 18.1-40.4 40.4-40.4s40.4 18.1 40.4 40.4zm231.9-50.2L633.9 325c6.8 5.5 8.1 15.3 2.8 22.3l-79 105.3c-4.9 6.5-13.9 8.4-20.9 4.3l-151.7-86.8c-7.6 11.4-16.4 22.3-26.5 32.4-41 41-94.7 61.5-148.5 61.5-157 0-258.4-166.6-186.8-306A64.714 64.714 0 0 1 .2 108.4c0-35.6 29-64.6 64.6-64.6 19.2 0 36.9 8.8 49.1 23.4C144 51.7 177 44.1 210 44.1c86.7 0 126.5 42.9 194.5 97.3 5.3 4.3 7.4 11.4 5.2 17.9L399.5 189c-1.1 3.2-.1 6.8 2.6 8.9l25.5 20.4c2.6 2.1 6.3 2.4 9.2.6l27.5-16.4c5.7-3.4 13-2.9 18.2 1.3zM41 129.8c6.3-8.5 13-16.8 20.7-24.5 7.8-7.8 16.1-14.6 24.7-20.9-5.9-5.3-13.5-8.3-21.6-8.3-17.8 0-32.3 14.5-32.3 32.3 0 8.1 3.3 15.6 8.5 21.4zm533.5 219.7c2.6-3.5 2-8.4-1.4-11.2l-103.4-82.7-32.3 19.2c-5.8 3.4-13.1 2.9-18.3-1.3L349.6 218c-5.3-4.3-7.4-11.4-5.2-17.9l12.1-35.2s-52-41.5-60.6-47.8C262.1 95.9 170.5 65 96 139.5 33 202.5 33 305 96 368c30.5 30.5 71.1 47.5 114.2 47.5 102.1 0 142.2-83.7 159.7-109.9L530 397.2c3.5 2 8 1.1 10.5-2.2l34-45.5z"/></svg>