<svg xmlns="http://www.w3.org/2000/svg" viewBox="0 0 640 512"><!-- Font Awesome Pro 5.15.4 by @fontawesome - https://fontawesome.com License - https://fontawesome.com/license (Commercial License) --><path d="M36 3.51C29.1-2.01 19.03-.9 13.51 6l-10 12.49C-2.02 25.39-.9 35.46 6 40.98l598 467.51c6.9 5.52 16.96 4.4 22.49-2.49l10-12.49c5.53-6.9 4.41-16.97-2.49-22.49L36 3.51zm467.18 304.31c1.77-.6 3.67-.83 5.05-2.29l16.46-17.37c4.62-4.87 4.38-12.64-.58-17.15-47.67-43.38-105.71-68.61-165.55-76.26l144.62 113.07zm100.09-118.96c4.8 4.39 12.29 4.13 16.81-.54l16.6-17.19c4.65-4.81 4.37-12.43-.57-16.95C509.51 38.38 333.7 5.4 178.62 54.08l46.71 36.52c130.7-29.93 273.12 2.51 377.94 98.26zM3.89 154.18c-4.94 4.52-5.22 12.14-.57 16.95l16.6 17.19c4.52 4.68 12.01 4.93 16.81.54 12.72-11.62 26.16-21.97 39.9-31.74L37.34 126.4c-11.47 8.69-22.66 17.91-33.45 27.78zm112 116.83c-4.96 4.52-5.2 12.28-.58 17.15l16.46 17.37c4.46 4.71 11.81 4.95 16.62.6 19.7-17.81 41.53-31.84 64.54-42.46l-41.51-32.45c-19.55 11.03-38.28 24.09-55.53 39.79zM240 400c0 44.18 35.82 80 80 80 41.03 0 74.45-31 79.07-70.79l-107.24-83.84C261.6 336.79 240 365.77 240 400zm80-32c17.64 0 32 14.36 32 32s-14.36 32-32 32-32-14.36-32-32 14.36-32 32-32z"/></svg>