<svg xmlns="http://www.w3.org/2000/svg" viewBox="0 0 640 512"><!-- Font Awesome Pro 5.15.4 by @fontawesome - https://fontawesome.com License - https://fontawesome.com/license (Commercial License) --><path d="M320 368c17.64 0 32 14.36 32 32s-14.36 32-32 32-32-14.36-32-32 14.35-32 32-32m0-48c-44.18 0-80 35.82-80 80s35.82 80 80 80 80-35.82 80-80-35.82-80-80-80zm204.69-31.83c4.62-4.87 4.38-12.64-.59-17.15-115.74-105.32-292.41-105.38-408.22 0-4.96 4.51-5.2 12.28-.59 17.15l16.47 17.37c4.46 4.71 11.81 4.95 16.62.6 97.44-88.13 245.68-88.21 343.22 0 4.81 4.35 12.16 4.1 16.62-.6l16.47-17.37z"/></svg>