<svg xmlns="http://www.w3.org/2000/svg" viewBox="0 0 512 512"><!-- Font Awesome Pro 5.15.4 by @fontawesome - https://fontawesome.com License - https://fontawesome.com/license (Commercial License) --><path d="M484.2 148.3l-389.9-52C105.1 86.2 112 72 112 56c0-30.9-25.1-56-56-56S0 25.1 0 56c0 22.3 13.1 41.4 32 50.4V496c0 8.8 7.2 16 16 16h16c8.8 0 16-7.2 16-16V369.6l404.2-53.9C500.1 313.6 512 300 512 284V180c0-16-11.9-29.6-27.8-31.7zM320 174.8v114.3L224 302V162l96 12.8zm-240-32l80 10.7v157l-80 10.7V142.8zM464 270l-80 10.7v-97.3l80 10.7V270z"/></svg>