<svg xmlns="http://www.w3.org/2000/svg" viewBox="0 0 640 512"><!-- Font Awesome Pro 5.15.4 by @fontawesome - https://fontawesome.com License - https://fontawesome.com/license (Commercial License) --><path d="M544 320H420.1c-9.2 17.4-20.7 33.4-33.7 48H544c31.4 0 55.9 30.3 45.6 63.3-4.4 14.3-16.1 25.9-30.4 30.4-28.5 8.9-55.1-8.3-61.7-33.5-1.8-6.9-7.5-12.1-14.7-12.1h-18.4c-9.2 0-16.6 8.2-14.9 17.2 9.3 51.2 59.2 88.3 115.1 76.6 36.3-7.6 65.6-36.9 73.2-73.2 13-62.1-34-116.7-93.8-116.7zm93.8-148.7c-7.6-36.3-36.9-65.6-73.2-73.2-55.9-11.7-105.8 25.4-115.1 76.6-1.6 9 5.8 17.2 14.9 17.2h18.4c7.2 0 12.9-5.2 14.7-12.1 6.6-25.2 33.2-42.4 61.7-33.5 14.3 4.5 25.9 16.1 30.4 30.4 10.2 32.9-14.2 63.3-45.6 63.3h-98.4c-2.2 16.6-6.2 32.6-11.6 48h110c59.8 0 106.8-54.6 93.8-116.7zM208 256c-17.7 0-32 14.3-32 32s14.3 32 32 32 32-14.3 32-32-14.3-32-32-32zm28.7-160h-57.4c-10 0-17.6 9.1-15.7 18.9l18 96c1.4 7.6 8 13.1 15.7 13.1h21.4c7.7 0 14.3-5.5 15.7-13.1l18-96c1.9-9.8-5.7-18.9-15.7-18.9zM208 0C93.1 0 0 93.1 0 208s93.1 208 208 208 208-93.1 208-208S322.9 0 208 0zm0 368c-88.2 0-160-71.8-160-160S119.8 48 208 48s160 71.8 160 160-71.8 160-160 160z"/></svg>