<svg xmlns="http://www.w3.org/2000/svg" viewBox="0 0 512 512"><!-- Font Awesome Pro 5.15.4 by @fontawesome - https://fontawesome.com License - https://fontawesome.com/license (Commercial License) --><path d="M500.75 72.77l-61.54-61.56c-15.03-14.97-39.47-14.94-54.44.03l-43.16 43.15c-8.56 8.6-12.22 20.28-10.97 31.51l-25.16 25.16c-48.85-14.3-101.44-1.13-137.91 35.38L24.03 290.01C8.53 305.48 0 326.08 0 347.99c0 21.93 8.53 42.52 24.03 57.99l82.01 82.06c16 15.97 36.97 23.96 57.97 23.96s42-7.99 58-23.97l143.57-143.57c36.5-36.54 49.6-89.2 35.38-137.93l25.13-25.14c11.34 1.2 22.94-2.41 31.53-11.02l43.13-43.15c15-15.01 15-39.43 0-54.45zM309.76 332.4l-73.38 73.38-130.11-130.13 73.37-73.39L309.76 332.4zM139.98 454.08l-82.01-82.05c-6.44-6.42-9.97-14.96-9.97-24.05 0-9.08 3.53-17.61 9.97-24.04l25.67-25.68L213.76 428.4l-25.68 25.68c-13.19 13.26-34.79 13.29-48.1 0zM430.4 129.7l-10.25-10.25-75.29 75.28 6.31 14.89c14.55 34.38 7.11 73.52-18.84 100.09L202.34 179.7c44.99-43.96 98.43-19.55 100.08-18.85l14.88 6.3 75.22-75.26-10.22-10.27 29.69-29.72 48.1 48.1-29.69 29.7z"/></svg>