<svg xmlns="http://www.w3.org/2000/svg" viewBox="0 0 288 512"><!-- Font Awesome Pro 5.15.4 by @fontawesome - https://fontawesome.com License - https://fontawesome.com/license (Commercial License) --><path d="M216 464h-48V348.54c72.6-12.52 126.31-78.75 119.4-155.88L271.45 14.55C270.71 6.31 263.9 0 255.74 0H32.26c-8.15 0-14.97 6.31-15.7 14.55L.6 192.66C-6.31 269.79 47.4 336.03 120 348.54V464H72c-22.09 0-40 17.91-40 40 0 4.42 3.58 8 8 8h208c4.42 0 8-3.58 8-8 0-22.09-17.91-40-40-40zm-85.01-161.73c-51.16-7.1-87.28-52.88-82.58-105.33L61.75 48h164.5l13.34 148.94c4.7 52.45-31.42 98.23-82.58 105.33h-26.02z"/></svg>