<svg xmlns="http://www.w3.org/2000/svg" viewBox="0 0 576 512"><!-- Font Awesome Pro 5.15.4 by @fontawesome - https://fontawesome.com License - https://fontawesome.com/license (Commercial License) --><path d="M564 168c6.6 0 12-5.4 12-12v-24c0-6.6-5.4-12-12-12h-46.1l17.3-72.8c1.8-7.5-3.9-14.8-11.7-14.8h-30.8c-5.6 0-10.5 3.9-11.7 9.3L463.2 120h-130l-18.9-78.4c-1.3-5.4-6.1-9.2-11.7-9.2H271c-5.5 0-10.4 3.8-11.7 9.2L240.5 120H112.6L95.5 41.8c-1.2-5.5-6.1-9.4-11.7-9.4H55c-7.7 0-13.4 7.2-11.7 14.7L60.1 120H12c-6.6 0-12 5.4-12 12v24c0 6.6 5.4 12 12 12h59.2l11.1 48H12c-6.6 0-12 5.4-12 12v24c0 6.6 5.4 12 12 12h81.4l47.7 206.7c1.3 5.4 6.1 9.3 11.7 9.3h42c5.5 0 10.4-3.8 11.7-9.2L256.3 264h61.1l49.9 206.8c1.3 5.4 6.1 9.2 11.7 9.2h44c5.6 0 10.4-3.8 11.7-9.2l49-206.8H564c6.6 0 12-5.4 12-12v-24c0-6.6-5.4-12-12-12h-68.9l11.4-48zM182.4 360.8c-5.7 24.7-8.6 47.5-8.6 47.5h-1.1s-2.3-23.5-7.5-47.5L144.1 264h61.7zM217.3 216h-83.8L123 168h105.8zm50.6 0l6.4-26.4c1.7-7 3.3-14.4 4.7-21.6h15.8c1.4 7.2 3 14.6 4.7 21.6l6.4 26.4zm140.6 144.8c-5.7 24.1-7.5 47.5-7.5 47.5h-1.1s-2.9-22.8-8.6-47.5L367.9 264h62.5zM441.4 216h-85l-11.6-48h107.5z"/></svg>