<svg xmlns="http://www.w3.org/2000/svg" viewBox="0 0 448 512"><!-- Font Awesome Pro 5.15.4 by @fontawesome - https://fontawesome.com License - https://fontawesome.com/license (Commercial License) --><path d="M298.9 384.8L224 416l-74.9-31.2c-10.4-3.5-21.1 4.3-21.1 15.2v96c0 10.9 10.7 18.6 21.1 15.2L224 480l74.9 31.2c10.4 3.5 21.1-4.3 21.1-15.2v-96c0-10.9-10.7-18.6-21.1-15.2zm10.9-193.9c-.7-6.4-1.7-16-7.8-24.7-6.3-9-15-13.1-20.7-15.8-4.1-1.9-2.9-.9-6.1-4.7-4.2-4.9-10.7-12.3-21.1-15.8-10.4-3.5-19.8-1.5-26-.1-4.5 1-3.1 1-7.9 0-6.2-1.3-15.6-3.4-25.9.1-10.5 3.5-16.9 10.9-21.2 15.8-3 3.5-1.8 2.6-6.2 4.7-5.8 2.7-14.4 6.7-20.7 15.7-6.2 8.8-7.2 18.4-7.8 24.8-.5 5.1 0 3.5-2.4 8-3.1 5.6-7.8 14.1-7.8 25.1 0 11 4.7 19.5 7.8 25.1 2.3 4.2 1.9 2.5 2.4 8 .7 6.4 1.7 16 7.8 24.7 6.3 9 15 13.1 20.7 15.8 4.1 1.9 2.9.9 6.1 4.7 4.2 4.9 10.7 12.3 21.1 15.8 10.4 3.5 19.8 1.5 26 .1 4.5-1 3.1-1 7.9 0 4.1.9 14.8 3.6 25.9-.1 10.5-3.5 16.9-10.9 21.2-15.8 3-3.5 1.8-2.6 6.2-4.7 5.8-2.7 14.4-6.7 20.7-15.7 6.2-8.8 7.2-18.4 7.8-24.8.5-5.1 0-3.5 2.4-8 3.1-5.6 7.8-14.1 7.8-25.1 0-11-4.7-19.5-7.8-25.1-2.4-4.3-1.9-2.8-2.4-8zm-48 62.7c-9 4.1-17.3 9.1-23.5 17.7-15.5-2.6-13.2-2.6-28.7 0-8.7-11.9-22.2-17-23.5-17.7-1.5-12.6-1.7-15.9-9.4-29.6 8.2-14.5 8-18 9.4-29.6 4.1-1.8 15.6-6.8 23.5-17.7 10.5 1.7 18.2 1.7 28.7 0 3 4.2 7.3 9.6 23.5 17.7 1.3 11 1.1 14.9 9.4 29.6-8.1 14.4-8 18-9.4 29.6zm175-71.9c1.8-14.5-.1-29.4-5.9-43.4-5.9-14.2-15.2-26.2-27-35.2-3.8-14-11.1-27-21.6-37.5A81.794 81.794 0 0 0 344.9 44c-9-11.7-21-21.1-35.2-26.9-10.5-4.3-21.5-6.5-32.7-6.5-3.6 0-7.1.2-10.6.7C253.7 4 239.1 0 224 0s-29.7 4-42.4 11.2c-3.5-.4-7.1-.7-10.7-.7-11.3 0-22.3 2.2-32.7 6.5-14.2 5.9-26.2 15.2-35.1 26.9C89 47.7 76.1 55 65.6 65.5 55.1 76.1 47.8 89 44 103.1c-11.7 9-21.1 21-27 35.2-5.8 14-7.7 28.9-5.9 43.4C3.9 194.4 0 208.9 0 224c0 15.1 3.9 29.6 11.2 42.3-1.8 14.5.1 29.4 5.9 43.4 5.8 14.1 15.2 26 26.9 34.9 3.7 14.1 11.1 27.2 21.7 37.7 8.7 8.7 19.2 14.7 30.4 18.9V400c0-13 5.1-25.2 14.4-34.3 3-2.9 6.5-5.3 10-7.3-24.7-3.8-34.7-25-30.4-44.6-12.4-2.1-23.5-9.9-28.7-22.4-5.1-12.2-3.2-25.6 3.8-35.8C54.9 248.9 48 237.3 48 224s6.9-24.9 17.2-31.6c-7-10.2-8.9-23.5-3.8-35.8 5.2-12.5 16.2-20.6 28.6-22.7-2.6-12.1.2-25.1 9.5-34.4C113.1 86 130.2 89.2 134 90c2.1-12.4 10.2-23.5 22.7-28.6 12.9-5.3 26.2-2.7 35.8 3.8C199.1 54.9 210.7 48 224 48s24.9 6.9 31.6 17.2c9.6-6.6 22.9-9.1 35.8-3.8 12.5 5.2 20.6 16.2 22.7 28.6 3.7-.8 20.9-4 34.4 9.5 9.4 9.4 12.1 22.3 9.5 34.4 12.4 2.1 23.5 10.2 28.6 22.7 5.1 12.3 3.2 25.6-3.8 35.8 10.3 6.7 17.2 18.3 17.2 31.6s-6.9 24.9-17.2 31.6c7 10.2 8.9 23.5 3.8 35.8-5.2 12.5-16.3 20.3-28.7 22.4 4.4 19.7-5.9 40.9-30.5 44.6C342 366.6 352 382.1 352 400v1.3c11.2-4.2 21.7-10.2 30.4-18.9 10.6-10.6 17.9-23.6 21.7-37.7 11.7-8.9 21.1-20.9 26.9-34.9 5.8-14 7.7-28.9 5.9-43.4 7.2-12.7 11.2-27.2 11.2-42.3-.1-15.2-4-29.7-11.3-42.4z"/></svg>