<svg xmlns="http://www.w3.org/2000/svg" viewBox="0 0 640 512"><!-- Font Awesome Pro 5.15.4 by @fontawesome - https://fontawesome.com License - https://fontawesome.com/license (Commercial License) --><path d="M168 224h128v32h-96c-4.4 0-8 3.6-8 8v16c0 4.4 3.6 8 8 8h96v32h-56c-26.5 0-48 21.5-48 48s21.5 48 48 48 48-21.5 48-48h64c0 26.5 21.5 48 48 48s48-21.5 48-48-21.5-48-48-48h-56v-32h96c4.4 0 8-3.6 8-8v-16c0-4.4-3.6-8-8-8h-96v-32h128c4.4 0 8-3.6 8-8v-16c0-4.4-3.6-8-8-8H344v-32h96c4.4 0 8-3.6 8-8v-16c0-4.4-3.6-8-8-8h-96V88c0-4.4-3.6-8-8-8h-32c-4.4 0-8 3.6-8 8v40h-96c-4.4 0-8 3.6-8 8v16c0 4.4 3.6 8 8 8h96v32H168c-4.4 0-8 3.6-8 8v16c0 4.4 3.6 8 8 8zm56 144c0-21.2 32-21.2 32 0s-32 21.1-32 0zm192 0c0 21.2-32 21.1-32 0 0-21.2 32-21.2 32 0zM632 48c4.4 0 8-3.6 8-8V8c0-4.4-3.6-8-8-8H8C3.6 0 0 3.6 0 8v32c0 4.4 3.6 8 8 8h56v416H8c-4.4 0-8 3.6-8 8v32c0 4.4 3.6 8 8 8h624c4.4 0 8-3.6 8-8v-32c0-4.4-3.6-8-8-8h-56V48h56zM528 464H112V48h416v416z"/></svg>