<svg xmlns="http://www.w3.org/2000/svg" viewBox="0 0 496 512"><!-- Font Awesome Pro 5.15.4 by @fontawesome - https://fontawesome.com License - https://fontawesome.com/license (Commercial License) --><path d="M263.9 332c-19.88 0-35.99 16.12-35.99 36s16.11 36 35.99 36 35.99-16.12 35.99-36-16.11-36-35.99-36zm-31.99-152c19.88 0 35.99-16.12 35.99-36s-16.11-36-35.99-36-35.99 16.12-35.99 36c.01 19.88 16.12 36 35.99 36zm16-172C110.99 8 0 119.03 0 256s110.99 248 247.91 248v-.02c.06 0 .12.02.19.02C384.79 504 496 392.75 496 256S384.6 8 247.91 8zM119.05 408.67C75.65 371.95 47.98 317.18 47.98 256c0-110.28 89.68-200 199.92-200 48.51 0 88.15 39.47 88.15 88s-39.45 88-87.97 88c-74.97 0-135.95 61.02-135.95 136 .02 14.26 2.83 27.75 6.92 40.67zM248.09 456c-48.51 0-87.97-39.47-87.97-88s39.45-88 87.97-88c74.97 0 135.95-61.02 135.95-136 0-13.84-2.09-27.22-5.94-39.83 42.77 36.72 69.91 91.16 69.91 151.83.01 110.28-89.68 200-199.92 200z"/></svg>