<svg xmlns="http://www.w3.org/2000/svg" viewBox="0 0 576 512"><!-- Font Awesome Pro 5.15.4 by @fontawesome - https://fontawesome.com License - https://fontawesome.com/license (Commercial License) --><defs><style>.fa-secondary{opacity:.4}</style></defs><path d="M192 440h-32v-48h32zM160 72v48h32V72zm96 160v48h32v-48zm-96 0v48h32v-48zm96 208h160v-48H256zm96-160h128v-48H352zM544 0a32 32 0 0 0-32 32v464a16 16 0 0 0 16 16h32a16 16 0 0 0 16-16V32a32 32 0 0 0-32-32zM416 72H256v48h160zM32 0A32 32 0 0 0 0 32v464a16 16 0 0 0 16 16h32a16 16 0 0 0 16-16V32A32 32 0 0 0 32 0z" class="fa-secondary"/><path d="M144 32h-32a16 16 0 0 0-16 16v96a16 16 0 0 0 16 16h32a16 16 0 0 0 16-16V48a16 16 0 0 0-16-16zm96 0h-32a16 16 0 0 0-16 16v96a16 16 0 0 0 16 16h32a16 16 0 0 0 16-16V48a16 16 0 0 0-16-16zm-96 160h-32a16 16 0 0 0-16 16v96a16 16 0 0 0 16 16h32a16 16 0 0 0 16-16v-96a16 16 0 0 0-16-16zm192 0h-32a16 16 0 0 0-16 16v96a16 16 0 0 0 16 16h32a16 16 0 0 0 16-16v-96a16 16 0 0 0-16-16zm-96 0h-32a16 16 0 0 0-16 16v96a16 16 0 0 0 16 16h32a16 16 0 0 0 16-16v-96a16 16 0 0 0-16-16zM464 32h-32a16 16 0 0 0-16 16v96a16 16 0 0 0 16 16h32a16 16 0 0 0 16-16V48a16 16 0 0 0-16-16zM144 352h-32a16 16 0 0 0-16 16v96a16 16 0 0 0 16 16h32a16 16 0 0 0 16-16v-96a16 16 0 0 0-16-16zm96 0h-32a16 16 0 0 0-16 16v96a16 16 0 0 0 16 16h32a16 16 0 0 0 16-16v-96a16 16 0 0 0-16-16zm224 0h-32a16 16 0 0 0-16 16v96a16 16 0 0 0 16 16h32a16 16 0 0 0 16-16v-96a16 16 0 0 0-16-16z" class="fa-primary"/></svg>