<svg xmlns="http://www.w3.org/2000/svg" viewBox="0 0 448 512"><!-- Font Awesome Pro 5.15.4 by @fontawesome - https://fontawesome.com License - https://fontawesome.com/license (Commercial License) --><defs><style>.fa-secondary{opacity:.4}</style></defs><path d="M32 256h384a258.87 258.87 0 0 1-143.11 231.55L224 512l-48.89-24.45A258.87 258.87 0 0 1 32 256z" class="fa-secondary"/><path d="M448 160v32a32 32 0 0 1-32 32H32a32 32 0 0 1-32-32v-32a96 96 0 0 1 96-96h106a132.41 132.41 0 0 1 29.41-58.64 15.7 15.7 0 0 1 11.31-5.3 15.44 15.44 0 0 1 12 4.72L266 16.1a16 16 0 0 1 .66 21.9 84.32 84.32 0 0 0-15.16 26H352a96 96 0 0 1 96 96z" class="fa-primary"/></svg>