<svg xmlns="http://www.w3.org/2000/svg" viewBox="0 0 512 512"><!-- Font Awesome Pro 5.15.4 by @fontawesome - https://fontawesome.com License - https://fontawesome.com/license (Commercial License) --><defs><style>.fa-secondary{opacity:.4}</style></defs><path d="M352 256a24 24 0 1 0 24 24 24 24 0 0 0-24-24zm-194.48 16h37L176 218.78zM464 64H48a48 48 0 0 0-48 48v288a48 48 0 0 0 48 48h416a48 48 0 0 0 48-48V112a48 48 0 0 0-48-48zM250.58 352h-16.94a16 16 0 0 1-15.12-10.75L211.15 320h-70.29l-7.38 21.25A16 16 0 0 1 118.36 352h-16.94a16 16 0 0 1-15.12-21.25L140 176.12A24 24 0 0 1 162.67 160h26.66A24 24 0 0 1 212 176.13l53.69 154.62A16 16 0 0 1 250.58 352zM424 336a16 16 0 0 1-16 16h-16a15.74 15.74 0 0 1-12-5.68A72 72 0 1 1 352 208a71.05 71.05 0 0 1 24 4.42V176a16 16 0 0 1 16-16h16a16 16 0 0 1 16 16z" class="fa-secondary"/><path d="M212 176.13A24 24 0 0 0 189.33 160h-26.66A24 24 0 0 0 140 176.12L86.3 330.75A16 16 0 0 0 101.42 352h16.94a16 16 0 0 0 15.12-10.75l7.38-21.25h70.29l7.37 21.25A16 16 0 0 0 233.64 352h16.94a16 16 0 0 0 15.11-21.25zM157.52 272L176 218.78 194.48 272zM408 160h-16a16 16 0 0 0-16 16v36.42a71.05 71.05 0 0 0-24-4.42 72 72 0 1 0 28 138.32 15.74 15.74 0 0 0 12 5.68h16a16 16 0 0 0 16-16V176a16 16 0 0 0-16-16zm-56 144a24 24 0 1 1 24-24 24 24 0 0 1-24 24z" class="fa-primary"/></svg>