<svg xmlns="http://www.w3.org/2000/svg" viewBox="0 0 512 512"><!-- Font Awesome Pro 5.15.4 by @fontawesome - https://fontawesome.com License - https://fontawesome.com/license (Commercial License) --><defs><style>.fa-secondary{opacity:.4}</style></defs><path d="M434.55 422a223.27 223.27 0 0 0 44.61-134c0-123.71-99.9-224-223.14-224S32.88 164.29 32.88 288a223.27 223.27 0 0 0 44.61 134l-39.95 40.06a16.05 16.05 0 0 0 0 22.63l22.54 22.62a15.89 15.89 0 0 0 22.54 0l39.94-40.09a221.27 221.27 0 0 0 266.92 0l39.94 40.09a15.89 15.89 0 0 0 22.54 0l22.53-22.62a16 16 0 0 0 0-22.63zM256 416a32 32 0 1 1 31.88-32A31.91 31.91 0 0 1 256 416zm38.05-238.4l-12.75 128a15.91 15.91 0 0 1-15.82 14.4h-18.93a15.92 15.92 0 0 1-15.84-14.4L218 177.6a16 16 0 0 1 15.8-17.6h44.42a15.92 15.92 0 0 1 15.84 17.6z" class="fa-secondary"/><path d="M1 96a95.11 95.11 0 0 0 15.24 51.26L161.57 25.68A95 95 0 0 0 96.62 0C43.83 0 1 43 1 96zM415.38 0a95.09 95.09 0 0 0-64.93 25.66l145.33 121.57A95.13 95.13 0 0 0 511 96c0-53-42.83-96-95.62-96zM256 352a32 32 0 1 0 31.88 32A31.91 31.91 0 0 0 256 352zm22.21-192H233.8a16 16 0 0 0-15.8 17.6l12.76 128a15.92 15.92 0 0 0 15.79 14.4h18.93a15.91 15.91 0 0 0 15.83-14.4l12.75-128a15.92 15.92 0 0 0-15.84-17.6z" class="fa-primary"/></svg>