<svg xmlns="http://www.w3.org/2000/svg" viewBox="0 0 512 512"><!-- Font Awesome Pro 5.15.4 by @fontawesome - https://fontawesome.com License - https://fontawesome.com/license (Commercial License) --><defs><style>.fa-secondary{opacity:.4}</style></defs><path d="M474.49 462.06L434.55 422a223.25 223.25 0 0 0 44.61-134c0-123.71-99.9-224-223.14-224S32.88 164.29 32.88 288a223.25 223.25 0 0 0 44.61 134l-39.95 40.06a16.05 16.05 0 0 0 0 22.63l22.54 22.62a15.9 15.9 0 0 0 22.47.07l.07-.07 39.94-40.09a221.26 221.26 0 0 0 266.92 0l39.94 40.09a15.9 15.9 0 0 0 22.47.07l.07-.07 22.53-22.62a16 16 0 0 0 0-22.63zM346 355.51l-20 25a16 16 0 0 1-22.49 2.5L239 331.39a40 40 0 0 1-15-31.23V176a16 16 0 0 1 16-16h32a16 16 0 0 1 16 16v112.62L343.5 333a16 16 0 0 1 2.5 22.51z" class="fa-secondary"/><path d="M1 96a95.08 95.08 0 0 0 15.24 51.26L161.57 25.68A95 95 0 0 0 96.62 0C43.83 0 1 43 1 96zm342.5 237L288 288.62V176a16 16 0 0 0-16-16h-32a16 16 0 0 0-16 16v124.16a40 40 0 0 0 15 31.23L303.51 383a16 16 0 0 0 22.49-2.5l20-25a16 16 0 0 0-2.5-22.5zM415.38 0a95.08 95.08 0 0 0-64.93 25.66l145.33 121.57A95.13 95.13 0 0 0 511 96c0-53-42.83-96-95.62-96z" class="fa-primary"/></svg>