<svg xmlns="http://www.w3.org/2000/svg" viewBox="0 0 512 512"><!-- Font Awesome Pro 5.15.4 by @fontawesome - https://fontawesome.com License - https://fontawesome.com/license (Commercial License) --><defs><style>.fa-secondary{opacity:.4}</style></defs><path d="M434.55 422a223.27 223.27 0 0 0 44.61-134c0-123.71-99.91-224-223.14-224S32.88 164.29 32.88 288a223.21 223.21 0 0 0 44.61 134l-39.95 40.06a16.05 16.05 0 0 0 0 22.63l22.54 22.62a15.89 15.89 0 0 0 22.54 0l39.94-40.09a221.25 221.25 0 0 0 266.91 0l39.95 40.09a15.89 15.89 0 0 0 22.54 0l22.53-22.62a16 16 0 0 0 0-22.63zM338.4 223L242 344h77.77a16 16 0 0 1 15.93 16v16a16 16 0 0 1-15.93 16H192.23a24 24 0 0 1-18.67-39L270 232h-77.77a16 16 0 0 1-15.94-16v-16a16 16 0 0 1 15.94-16h127.51a24 24 0 0 1 18.66 39z" class="fa-secondary"/><path d="M319.74 184H192.23a16 16 0 0 0-15.94 16v16a16 16 0 0 0 15.94 16H270l-96.44 121a24 24 0 0 0 18.67 39h127.51a16 16 0 0 0 15.93-16v-16a16 16 0 0 0-15.93-16H242l96.4-121a24 24 0 0 0-18.66-39zM1 96a95.11 95.11 0 0 0 15.24 51.26L161.57 25.68A95 95 0 0 0 96.62 0C43.83 0 1 43 1 96zM415.38 0a95.09 95.09 0 0 0-64.93 25.66l145.32 121.57A95.14 95.14 0 0 0 511 96c0-53-42.84-96-95.62-96z" class="fa-primary"/></svg>