<svg xmlns="http://www.w3.org/2000/svg" viewBox="0 0 448 512"><!-- Font Awesome Pro 5.15.4 by @fontawesome - https://fontawesome.com License - https://fontawesome.com/license (Commercial License) --><defs><style>.fa-secondary{opacity:.4}</style></defs><path d="M416 32H32A32 32 0 0 0 0 64v384a32 32 0 0 0 32 32h384a32 32 0 0 0 32-32V64a32 32 0 0 0-32-32zM224 416a160 160 0 1 1 160-160 160 160 0 0 1-160 160z" class="fa-secondary"/><path d="M224 96a160 160 0 1 0 160 160A160 160 0 0 0 224 96zm0 192a32 32 0 1 1 32-32 32 32 0 0 1-32 32z" class="fa-primary"/></svg>