<svg xmlns="http://www.w3.org/2000/svg" viewBox="0 0 640 512"><!-- Font Awesome Pro 5.15.4 by @fontawesome - https://fontawesome.com License - https://fontawesome.com/license (Commercial License) --><defs><style>.fa-secondary{opacity:.4}</style></defs><path d="M64.36 215.74A39.94 39.94 0 0 0 48 248v56a16 16 0 0 1-16 16H16a16 16 0 0 1-16-16v-56a88 88 0 0 1 88-88h.45a95.57 95.57 0 0 0-24.09 55.74zM632 32H531.93a52.6 52.6 0 0 1-10.28 8.3c5.11 5.38 9.91 10.47 13.69 14.5a31.76 31.76 0 0 1 8.58 21.8v6.74l92.49-36.69A8 8 0 0 0 632 32z" class="fa-secondary"/><path d="M535.34 54.8c-3.78-4-8.58-9.12-13.69-14.5 11.06-6.84 19.5-17.49 22.18-30.66A8.09 8.09 0 0 0 535.9 0h-120C346.67 0 288 64 288 128h-.08c-63.92 0-104.2-36.78-127.66-90.27-3.22-7.35-13.61-7.76-17-.5A158.37 158.37 0 0 0 128 105.1c0 67 51 136.25 128 150.9-96.87 0-138.75-73.3-153.39-109a96 96 0 0 0-8.16 147.09l-25.63 68.39a63.94 63.94 0 0 0-2.16 38l24.85 99.41A16 16 0 0 0 107 512h66a16 16 0 0 0 15.52-19.88l-26.33-105.26L186 323.27l102 22.31V496a16 16 0 0 0 16 16h64a16 16 0 0 0 16-16V318.22A111.55 111.55 0 0 0 416 240c0-.22-.07-.42-.08-.64V136.89l16 7.11 18.9 37.7a32 32 0 0 0 40.49 15.37l32.55-13A32 32 0 0 0 544 154.31l-.06-77.71a31.76 31.76 0 0 0-8.6-21.8zM479.92 96a16 16 0 1 1 16-16 16 16 0 0 1-16 16z" class="fa-primary"/></svg>