<svg xmlns="http://www.w3.org/2000/svg" viewBox="0 0 512 512"><!-- Font Awesome Pro 5.15.4 by @fontawesome - https://fontawesome.com License - https://fontawesome.com/license (Commercial License) --><defs><style>.fa-secondary{opacity:.4}</style></defs><path d="M321 403a16 16 0 1 0-16-16 16 16 0 0 0 16 16zm-64-128a16 16 0 0 0 16-16h-32a16 16 0 0 0 16 16zm-32 96a16 16 0 1 0-16-16 16 16 0 0 0 16 16zm32-64a16 16 0 1 0 16 16 16 16 0 0 0-16-16zm0 96a16 16 0 1 0-16-16 16 16 0 0 0 16 16zm32-32a16 16 0 1 0-16-16 16 16 0 0 0 16 16zm64 0a16 16 0 1 0-16-16 16 16 0 0 0 16 16zm32 32a16 16 0 1 0-16-16 16 16 0 0 0 16 16zm-64-128a16 16 0 0 0 16-16h-32a16 16 0 0 0 16 16zm0 32a16 16 0 1 0 16 16 16 16 0 0 0-16-16zm32 0a16 16 0 1 0-16-16 16 16 0 0 0 16 16zm-64 0a16 16 0 1 0-16-16 16 16 0 0 0 16 16zm-160 0a16 16 0 1 0 16 16 16 16 0 0 0-16-16zm-32 32a16 16 0 1 0 16 16 16 16 0 0 0-16-16zm288-32a16 16 0 1 0 16 16 16 16 0 0 0-16-16zm-256 96a16 16 0 1 0-16-16 16 16 0 0 0 16 16zm288-96a16 16 0 1 0-16-16 16 16 0 0 0 16 16zm-224-32a16 16 0 0 0 16-16h-32a16 16 0 0 0 16 16zm-32 32a16 16 0 1 0-16-16 16 16 0 0 0 16 16zm64 0a16 16 0 1 0-16-16 16 16 0 0 0 16 16zm-32 0a16 16 0 1 0 16 16 16 16 0 0 0-16-16zm0 96a16 16 0 1 0-16-16 16 16 0 0 0 16 16zm-32-32a16 16 0 1 0-16-16 16 16 0 0 0 16 16zm-32-96a16 16 0 0 0 16-16h-32a16 16 0 0 0 16 16zm224 128a16 16 0 1 0 16 16 16 16 0 0 0-16-16zm-32 32a16 16 0 0 0-16 16h32a16 16 0 0 0-16-16zm-64 0a16 16 0 0 0-16 16h32a16 16 0 0 0-16-16zm32-32a16 16 0 1 0 16 16 16 16 0 0 0-16-16zm96 32a16 16 0 0 0-16 16h32a16 16 0 0 0-16-16zm32-32a16 16 0 1 0 16 16 16 16 0 0 0-16-16zm16-144a16 16 0 0 0 16 16v-16zM225 403a16 16 0 1 0 16 16 16 16 0 0 0-16-16zm208-80a16 16 0 0 0 16 16v-32a16 16 0 0 0-16 16zm0 64a16 16 0 0 0 16 16v-32a16 16 0 0 0-16 16zm-48-112a16 16 0 0 0 16-16h-32a16 16 0 0 0 16 16zm48 176h16v-16a16 16 0 0 0-16 16zM81 259H65v16a16 16 0 0 0 16-16zm0 64a16 16 0 0 0-16-16v32a16 16 0 0 0 16-16zm336 48a16 16 0 1 0-16-16 16 16 0 0 0 16 16zM97 307a16 16 0 1 0-16-16 16 16 0 0 0 16 16zm-16 80a16 16 0 0 0-16-16v32a16 16 0 0 0 16-16zm48 48a16 16 0 0 0-16 16h32a16 16 0 0 0-16-16zm-64 0v16h16a16 16 0 0 0-16-16zm128 0a16 16 0 0 0-16 16h32a16 16 0 0 0-16-16zm-32-32a16 16 0 1 0 16 16 16 16 0 0 0-16-16zm-64 0a16 16 0 1 0 16 16 16 16 0 0 0-16-16zM257 51c26.89 0 54 14.79 76.25 32h70.25C378.75 55.71 322.51 3 257 3S135.25 55.71 110.5 83h70.25C203 65.79 230.12 51 257 51z" class="fa-secondary"/><path d="M465 83H49a48 48 0 0 0-48 48v336a48 48 0 0 0 48 48h416a48 48 0 0 0 48-48V131a48 48 0 0 0-48-48zm-120 64a24 24 0 1 1-24 24 24 24 0 0 1 24-24zm-176 0a24 24 0 1 1-24 24 24 24 0 0 1 24-24zm-80 0a24 24 0 1 1-24 24 24 24 0 0 1 24-24zm360 304H65V259h384zm-24-256a24 24 0 1 1 24-24 24 24 0 0 1-24 24z" class="fa-primary"/></svg>