<svg xmlns="http://www.w3.org/2000/svg" viewBox="0 0 576 512"><!-- Font Awesome Pro 5.15.4 by @fontawesome - https://fontawesome.com License - https://fontawesome.com/license (Commercial License) --><defs><style>.fa-secondary{opacity:.4}</style></defs><path d="M384 64c0 2.3-3.3 6.1-9.1 10.3a117.38 117.38 0 0 1 16.6 27.1C406.74 90.9 416 78 416 64c0-35.3-57.3-64-128-64S160 28.7 160 64c0 14 9.3 26.9 24.5 37.4a108.79 108.79 0 0 1 16.6-27.1c-5.8-4.1-9.1-7.9-9.1-10.3 0-8 34-32 96-32s96 24 96 32zm187.77 389.1l-38.17-78.6a49.38 49.38 0 0 1 0-43.1c4.79-9.8 8.69-16.7 11.89-22.1C555 292.7 560 282.8 560 256c0-51.1-46.87-96-100.35-96a93 93 0 0 0-66.26 28.1l-72.54 73.27a103.63 103.63 0 0 1 60 52.13L480 512h55.6a40.29 40.29 0 0 0 34.18-19 41.12 41.12 0 0 0 1.99-39.9zM116.34 160C62.86 160 16 204.9 16 256c0 26.8 5 36.7 14.52 53.3 3.2 5.4 7.1 12.3 11.89 22.1a49.38 49.38 0 0 1 0 43.1L4.23 453.1a41.12 41.12 0 0 0 2 39.9 40.29 40.29 0 0 0 34.17 19H96l99.22-198.5a103.63 103.63 0 0 1 60-52.13L182.6 188.1a93 93 0 0 0-66.26-28.1z" class="fa-secondary"/><path d="M288 224a80 80 0 1 0-80-80 80 80 0 0 0 80 80zm93.4 89.54a104.58 104.58 0 0 0-186.8 0L96 512h384z" class="fa-primary"/></svg>