<svg xmlns="http://www.w3.org/2000/svg" viewBox="0 0 496 512"><!-- Font Awesome Pro 5.15.4 by @fontawesome - https://fontawesome.com License - https://fontawesome.com/license (Commercial License) --><defs><style>.fa-secondary{opacity:.4}</style></defs><path d="M248,8C111,8,0,119,0,256S111,504,248,504,496,393,496,256,385,8,248,8ZM136,240a31.87,31.87,0,0,1,10.22-23.43l-30.82-9.24a16,16,0,0,1,9.2-30.66l80,24A16,16,0,0,1,200,232h-1a32,32,0,1,1-63,8ZM304.32,394.05c-27.93-33.26-84.59-33.26-112.62,0-13.57,16.23-38.38-4.18-24.72-20.41a105.93,105.93,0,0,1,162,0C342.81,390.07,317.79,410.09,304.32,394.05ZM381.6,207.33,350,216.8A32,32,0,1,1,297,232a16,16,0,0,1-4.61-31.32l80-24a16,16,0,1,1,9.2,30.65h0Z" class="fa-secondary"/><path d="M204.6,200.67l-80-24a16,16,0,0,0-9.2,30.66h0l30.82,9.24A32,32,0,1,0,199,232h1a16,16,0,0,0,4.59-31.33ZM392.33,187.4a16,16,0,0,0-19.93-10.72h0l-80,24A16,16,0,0,0,297,232a32,32,0,1,0,53-15.2l31.58-9.47a16,16,0,0,0,10.76-19.9h0Z" class="fa-primary"/></svg>