<svg xmlns="http://www.w3.org/2000/svg" viewBox="0 0 512 512"><!-- Font Awesome Pro 5.15.4 by @fontawesome - https://fontawesome.com License - https://fontawesome.com/license (Commercial License) --><defs><style>.fa-secondary{opacity:.4}</style></defs><path d="M424.17 80.61c-18.13-3-51.9 6.18-72.49 17.69-17-9.52-42.45-17-61.15-17.79 1.82 2.21 3.83 4.17 5.5 6.58 20.84 30.15 25.74 72.3 22.17 104.91H478c5.25-39.47-5.16-102.65-53.83-111.39zM210.53 50.47C221.82 38.28 225 18.44 223.75.25c-12.88-.86-35.67-.12-50 13.28-16.55 16.6-13.75 46.36-13.24 50.22C179 65 198.28 61.9 210.53 50.47zm191.69 0c11.29-12.19 14.43-32 13.22-50.22-12.88-.86-35.67-.12-50 13.28-16.53 16.6-13.77 46.36-13.22 50.22 18.45 1.25 37.78-1.85 50-13.28zM232.48 80.61c-18.13-3-51.9 6.18-72.48 17.69-20.66-11.56-54.43-20.71-72.48-17.69C38.91 89.34 28.53 152.88 33.7 192h252.6c5.26-39.47-5.15-102.65-53.82-111.39z" class="fa-secondary"/><path d="M496 224H16a16 16 0 0 0-16 16v112h512V240a16 16 0 0 0-16-16zM64 304a16 16 0 1 1 16-16 16 16 0 0 1-16 16zm384 0a16 16 0 1 1 16-16 16 16 0 0 1-16 16zM0 496a16 16 0 0 0 16 16h480a16 16 0 0 0 16-16V384H0zm448-64a16 16 0 1 1-16 16 16 16 0 0 1 16-16zm-384 0a16 16 0 1 1-16 16 16 16 0 0 1 16-16z" class="fa-primary"/></svg>