<svg xmlns="http://www.w3.org/2000/svg" viewBox="0 0 576 512"><!-- Font Awesome Pro 5.15.4 by @fontawesome - https://fontawesome.com License - https://fontawesome.com/license (Commercial License) --><defs><style>.fa-secondary{opacity:.4}</style></defs><path d="M576 16v32a16 16 0 0 1-16 16H16A16 16 0 0 1 0 48V16A16 16 0 0 1 16 0h544a16 16 0 0 1 16 16z" class="fa-secondary"/><path d="M576 464v32a16 16 0 0 1-16 16H400a16 16 0 0 1-16-16V320a96 96 0 0 0-192 0v176a16 16 0 0 1-16 16H16a16 16 0 0 1-16-16v-32a16 16 0 0 1 16-16h16V96h512v352h16a16 16 0 0 1 16 16z" class="fa-primary"/></svg>