<svg xmlns="http://www.w3.org/2000/svg" viewBox="0 0 448 512"><!-- Font Awesome Pro 5.15.4 by @fontawesome - https://fontawesome.com License - https://fontawesome.com/license (Commercial License) --><defs><style>.fa-secondary{opacity:.4}</style></defs><path d="M400 32H48A48 48 0 0 0 0 80v352a48 48 0 0 0 48 48h352a48 48 0 0 0 48-48V80a48 48 0 0 0-48-48zm-48 256.26a12.07 12.07 0 0 1-12 12.1H224v71.49c0 10.78-12.83 16.23-20.32 8.57L88.52 264.47a12.08 12.08 0 0 1 0-17l115.16-115.89c7.49-7.66 20.32-2.21 20.32 8.57v71.49h116a12.07 12.07 0 0 1 12 12.1z" class="fa-secondary"/><path d="M352 223.74v64.52a12.07 12.07 0 0 1-12 12.1H224v71.49c0 10.78-12.83 16.23-20.32 8.57L88.52 264.47a12.08 12.08 0 0 1 0-17l115.16-115.89c7.49-7.66 20.32-2.21 20.32 8.57v71.49h116a12.07 12.07 0 0 1 12 12.1z" class="fa-primary"/></svg>