<svg xmlns="http://www.w3.org/2000/svg" viewBox="0 0 448 512"><!-- Font Awesome Pro 5.15.4 by @fontawesome - https://fontawesome.com License - https://fontawesome.com/license (Commercial License) --><defs><style>.fa-secondary{opacity:.4}</style></defs><path d="M400 32H48A48 48 0 0 0 0 80v352a48 48 0 0 0 48 48h352a48 48 0 0 0 48-48V80a48 48 0 0 0-48-48zm-60.15 224h-71.49v116a12.07 12.07 0 0 1-12.1 12h-64.52a12.07 12.07 0 0 1-12.1-12V256h-71.49c-10.78 0-16.23-12.83-8.57-20.32l116-115.16a12.08 12.08 0 0 1 17 0l115.84 115.16c7.66 7.49 2.21 20.32-8.57 20.32z" class="fa-secondary"/><path d="M256.26 384h-64.52a12.07 12.07 0 0 1-12.1-12V256h-71.49c-10.78 0-16.23-12.83-8.57-20.32l116-115.16a12.08 12.08 0 0 1 17 0l115.84 115.16c7.66 7.49 2.21 20.32-8.57 20.32h-71.49v116a12.07 12.07 0 0 1-12.1 12z" class="fa-primary"/></svg>