<svg xmlns="http://www.w3.org/2000/svg" viewBox="0 0 512 512"><!-- Font Awesome Pro 5.15.4 by @fontawesome - https://fontawesome.com License - https://fontawesome.com/license (Commercial License) --><defs><style>.fa-secondary{opacity:.4}</style></defs><path d="M256 8C119 8 8 119 8 256s111 248 248 248 248-111 248-248S393 8 256 8zm149.6 263.6L272.9 404.3a23.9 23.9 0 0 1-33.9 0L106.4 271.6a23.9 23.9 0 0 1 0-33.9l10.9-11a24 24 0 0 1 34.3.4l72.4 75.5V120a23.94 23.94 0 0 1 24-24h16a23.94 23.94 0 0 1 24 24v182.6l72.4-75.5a24 24 0 0 1 34.3-.4l10.9 11a23.9 23.9 0 0 1 0 33.9z" class="fa-secondary"/><path d="M360.4 227.1a24 24 0 0 1 34.3-.4l10.9 11a23.9 23.9 0 0 1 0 33.9L272.9 404.3a23.9 23.9 0 0 1-33.9 0L106.4 271.6a23.9 23.9 0 0 1 0-33.9l10.9-11a24 24 0 0 1 34.3.4l72.4 75.5V120a23.94 23.94 0 0 1 24-24h16a23.94 23.94 0 0 1 24 24v182.6l72.4-75.5z" class="fa-primary"/></svg>