<svg xmlns="http://www.w3.org/2000/svg" viewBox="0 0 448 512"><!-- Font Awesome Pro 5.15.4 by @fontawesome - https://fontawesome.com License - https://fontawesome.com/license (Commercial License) --><defs><style>.fa-secondary{opacity:.4}</style></defs><path d="M448 88v336a23.94 23.94 0 0 1-24 24h-16a23.94 23.94 0 0 1-24-24V88a23.94 23.94 0 0 1 24-24h16a23.94 23.94 0 0 1 24 24z" class="fa-secondary"/><path d="M0 296.11V216a24 24 0 0 1 24-24h136v-88c0-17.82 21.51-26.73 34.11-14.12l152.26 152.45a19.4 19.4 0 0 1 0 27.34L194.14 422.09C181.54 434.7 160 425.79 160 408v-87.86H24a24 24 0 0 1-24-24.03z" class="fa-primary"/></svg>