<svg xmlns="http://www.w3.org/2000/svg" viewBox="0 0 448 512"><!-- Font Awesome Pro 5.15.4 by @fontawesome - https://fontawesome.com License - https://fontawesome.com/license (Commercial License) --><defs><style>.fa-secondary{opacity:.4}</style></defs><path d="M0 424V88a23.94 23.94 0 0 1 24-24h16a23.94 23.94 0 0 1 24 24v336a23.94 23.94 0 0 1-24 24H24a23.94 23.94 0 0 1-24-24z" class="fa-secondary"/><path d="M289.48 391.87l-17 17.06a23.86 23.86 0 0 1-33.91 0L103.05 273a24 24 0 0 1 0-34l135.52-135.93a23.86 23.86 0 0 1 33.91 0l17 17.06a24 24 0 0 1 0 34l-65.61 65.81H424A24 24 0 0 1 448 244v24.08a24 24 0 0 1-24 24.07H223.87L289.48 358a23.9 23.9 0 0 1 0 33.87z" class="fa-primary"/></svg>