<svg xmlns="http://www.w3.org/2000/svg" viewBox="0 0 448 512"><!-- Font Awesome Pro 5.15.4 by @fontawesome - https://fontawesome.com License - https://fontawesome.com/license (Commercial License) --><defs><style>.fa-secondary{opacity:.4}</style></defs><path d="M400 32H48A48 48 0 0 0 0 80v352a48 48 0 0 0 48 48h352a48 48 0 0 0 48-48V80a48 48 0 0 0-48-48zm-16 232a23.94 23.94 0 0 1-24 24H177.4l75.5 72.4a24 24 0 0 1 .4 34.3l-11 10.9a23.9 23.9 0 0 1-33.9 0L75.7 272.9a23.9 23.9 0 0 1 0-33.9l132.7-132.6a23.9 23.9 0 0 1 33.9 0l11 10.9a24 24 0 0 1-.4 34.3L177.4 224H360a23.94 23.94 0 0 1 24 24z" class="fa-secondary"/><path d="M253.3 394.7l-11 10.9a23.9 23.9 0 0 1-33.9 0L75.7 272.9a23.9 23.9 0 0 1 0-33.9l132.7-132.6a23.9 23.9 0 0 1 33.9 0l11 10.9a24 24 0 0 1-.4 34.3L177.4 224H360a23.94 23.94 0 0 1 24 24v16a23.94 23.94 0 0 1-24 24H177.4l75.5 72.4a24 24 0 0 1 .4 34.3z" class="fa-primary"/></svg>