<svg xmlns="http://www.w3.org/2000/svg" viewBox="0 0 512 512"><!-- Font Awesome Pro 5.15.4 by @fontawesome - https://fontawesome.com License - https://fontawesome.com/license (Commercial License) --><defs><style>.fa-secondary{opacity:.4}</style></defs><path d="M440 256l-34.68 32H288v117.34L256 440l-32-34.68V288H106.66L72 256l34.68-32H224V106.66L256 72l32 34.67V224h117.34z" class="fa-secondary"/><path d="M128.57 170.71l-.46-.47-10.83-10.84a24 24 0 0 0-33.93 0l-74 74a32 32 0 0 0 0 45.24l74 74a24 24 0 0 0 33.93 0l10.83-10.84.46-.47a24 24 0 0 0-.93-33.92L72 256l55.66-51.37a24 24 0 0 0 .91-33.92zm374.05 62.67l-74-74a24 24 0 0 0-33.93 0l-10.83 10.84-.46.47a24 24 0 0 0 .93 33.92L440 256l-55.66 51.37a24 24 0 0 0-.93 33.92l.46.47 10.83 10.84a24 24 0 0 0 33.93 0l74-74a32 32 0 0 0 0-45.24zM341.76 383.89l-.47-.46a24 24 0 0 0-33.92.93L256 440l-51.37-55.66a24 24 0 0 0-33.92-.93l-.47.46-10.84 10.85a24 24 0 0 0 0 33.93l74 74a32 32 0 0 0 45.24 0l74-74a24 24 0 0 0 0-33.93zM278.62 9.38a32 32 0 0 0-45.24 0l-74 74a24 24 0 0 0 0 33.93l10.84 10.83.47.46a24 24 0 0 0 33.92-.93L256 72l51.37 55.66a24 24 0 0 0 33.92.93l.47-.46 10.84-10.83a24 24 0 0 0 0-33.93z" class="fa-primary"/></svg>