<svg xmlns="http://www.w3.org/2000/svg" viewBox="0 0 448 512"><!-- Font Awesome Pro 5.15.4 by @fontawesome - https://fontawesome.com License - https://fontawesome.com/license (Commercial License) --><defs><style>.fa-secondary{opacity:.4}</style></defs><path d="M400 32H48A48 48 0 0 0 0 80v352a48 48 0 0 0 48 48h352a48 48 0 0 0 48-48V80a48 48 0 0 0-48-48zm-40.52 232.57L244.32 380.42c-7.49 7.66-20.32 2.21-20.32-8.57v-71.49H108a12.07 12.07 0 0 1-12-12.1v-64.52a12.07 12.07 0 0 1 12-12.1h116v-71.49c0-10.78 12.83-16.23 20.32-8.57l115.16 116a12.08 12.08 0 0 1 0 16.99z" class="fa-secondary"/><path d="M96 288.26v-64.52a12.07 12.07 0 0 1 12-12.1h116v-71.49c0-10.78 12.83-16.23 20.32-8.57l115.16 116a12.08 12.08 0 0 1 0 17L244.32 380.42c-7.49 7.66-20.32 2.21-20.32-8.57v-71.49H108a12.07 12.07 0 0 1-12-12.1z" class="fa-primary"/></svg>