<svg xmlns="http://www.w3.org/2000/svg" viewBox="0 0 448 512"><!-- Font Awesome Pro 5.15.4 by @fontawesome - https://fontawesome.com License - https://fontawesome.com/license (Commercial License) --><defs><style>.fa-secondary{opacity:.4}</style></defs><path d="M0 424V88a23.94 23.94 0 0 1 24-24h16a23.94 23.94 0 0 1 24 24v336a23.94 23.94 0 0 1-24 24H24a23.94 23.94 0 0 1-24-24z" class="fa-secondary"/><path d="M96 296v-80a23.94 23.94 0 0 1 24-24h136v-87.8c0-17.8 21.51-26.7 34.11-14.1l152.26 152.2a19.36 19.36 0 0 1 0 27.3L290.14 421.8c-12.6 12.6-34.11 3.7-34.11-14.1V320H120a23.94 23.94 0 0 1-24-24z" class="fa-primary"/></svg>