<svg xmlns="http://www.w3.org/2000/svg" viewBox="0 0 448 512"><!-- Font Awesome Pro 5.15.4 by @fontawesome - https://fontawesome.com License - https://fontawesome.com/license (Commercial License) --><defs><style>.fa-secondary{opacity:.4}</style></defs><path d="M400 32H48A48 48 0 0 0 0 80v352a48 48 0 0 0 48 48h352a48 48 0 0 0 48-48V80a48 48 0 0 0-48-48zm-26.4 242.3l-10.9 11a24 24 0 0 1-34.3-.4L256 209.4V392a23.94 23.94 0 0 1-24 24h-16a23.94 23.94 0 0 1-24-24V209.4l-72.4 75.5a24.15 24.15 0 0 1-34.4.4l-10.9-11a23.9 23.9 0 0 1 0-33.9l132.8-132.7a23.9 23.9 0 0 1 33.9 0l132.6 132.7a23.9 23.9 0 0 1 0 33.9z" class="fa-secondary"/><path d="M85.2 285.3l-10.9-11a23.9 23.9 0 0 1 0-33.9l132.8-132.7a23.9 23.9 0 0 1 33.9 0l132.6 132.7a23.9 23.9 0 0 1 0 33.9l-10.9 11a24 24 0 0 1-34.3-.4L256 209.4V392a23.94 23.94 0 0 1-24 24h-16a23.94 23.94 0 0 1-24-24V209.4l-72.4 75.5a24.15 24.15 0 0 1-34.4.4z" class="fa-primary"/></svg>