<svg xmlns="http://www.w3.org/2000/svg" viewBox="0 0 512 512"><!-- Font Awesome Pro 5.15.4 by @fontawesome - https://fontawesome.com License - https://fontawesome.com/license (Commercial License) --><defs><style>.fa-secondary{opacity:.4}</style></defs><path d="M160 320a32 32 0 1 0 32 32 32 32 0 0 0-32-32zM32 448a32 32 0 1 0 32 32 32 32 0 0 0-32-32zm480-192.52c-1.88-115-75.8-217-184-254a28 28 0 1 0-18.1 53C395.79 83.86 454.5 165 456 256.46v3.55a28 28 0 0 0 56 0v-4.53zM39 393l80 80 34-34-80-80z" class="fa-secondary"/><path d="M240 236a24 24 0 0 1 24 24 28 28 0 0 0 56 0 80 80 0 0 0-160 0 28 28 0 0 0 56 0 24 24 0 0 1 24-24zm0-152c-97 0-176 79-176 176a28 28 0 0 0 56 0 120 120 0 0 1 240 0c0 75.16-71 70.31-72 143.62v.38a52.06 52.06 0 0 1-52 52 28 28 0 0 0 0 56 108.12 108.12 0 0 0 108-107.77c.59-34.43 72-48.23 72-144.23 0-97-78.95-176-176-176z" class="fa-primary"/></svg>