<svg xmlns="http://www.w3.org/2000/svg" viewBox="0 0 512 512"><!-- Font Awesome Pro 5.15.4 by @fontawesome - https://fontawesome.com License - https://fontawesome.com/license (Commercial License) --><defs><style>.fa-secondary{opacity:.4}</style></defs><path d="M479 177.64l-.41.23-182.5 100.45 3.45 209.17A24 24 0 0 1 276.06 512h-39.55a24 24 0 0 1-24-24v-.52L216 278 33.47 177.91A24 24 0 0 1 24 145.32l.25-.45 19.5-33.74a24.07 24.07 0 0 1 32.89-8.75l.38.23L256 208l179-105.39a24.07 24.07 0 0 1 33.05 8.12l.23.4 19.5 33.74a24 24 0 0 1-8.78 32.77z" class="fa-secondary"/><path d="M488 366.68l-.25.45-19.5 33.74a24.07 24.07 0 0 1-32.89 8.75l-.38-.23L256 304 77 409.39a24.07 24.07 0 0 1-33-8.12l-.23-.4-19.5-33.74a24 24 0 0 1 8.83-32.77l.41-.23 182.4-100.45-3.45-209.17A24 24 0 0 1 235.94 0h39.55a24 24 0 0 1 24 24v.52L296 234l182.53 100.09a24 24 0 0 1 9.47 32.59z" class="fa-primary"/></svg>