<svg xmlns="http://www.w3.org/2000/svg" viewBox="0 0 448 512"><!-- Font Awesome Pro 5.15.4 by @fontawesome - https://fontawesome.com License - https://fontawesome.com/license (Commercial License) --><defs><style>.fa-secondary{opacity:.4}</style></defs><path d="M424.37305,55.69141C408.294,39.61914,385.50879,32,358.58252,32,319.82764,32,272.43359,48.127,224,77.14453a493.86641,493.86641,0,0,0-58.042,41.03711C140.58252,138.875,114.57666,162.5918,85.75635,197.916a374.25237,374.25237,0,0,0,35.70263,58.082A505.23427,505.23427,0,0,1,224,153.65625a377.23937,377.23937,0,0,1,58.042-35.47266c70.01221-34.334,95.22461-19.07421,97.0625-17.23632,9.54248,9.543,7.67432,46.94531-16.86084,96.96875A492.27615,492.27615,0,0,1,403.06543,256C452.27637,173.91992,463.59277,94.90039,424.37305,55.69141ZM224,358.3418a377.44678,377.44678,0,0,1-58.042,35.47461c-70.01221,34.334-95.22461,19.07421-97.0625,17.23632-9.54248-9.543-7.67432-46.94335,16.86084-96.96875A492.27615,492.27615,0,0,1,44.93457,256C-4.27637,338.08008-15.59277,417.09961,23.627,456.30664,39.70605,472.38086,62.49121,480,89.41748,480c38.75488,0,86.14893-16.127,134.58252-45.14453a493.86641,493.86641,0,0,0,58.042-41.03711c25.38965-20.70508,51.42285-44.45606,80.20166-79.73438A373.962,373.962,0,0,0,326.541,256,505.23427,505.23427,0,0,1,224,358.3418Z" class="fa-secondary"/><path d="M224,287.98828a31.99414,31.99414,0,1,0-32-31.99414A31.98908,31.98908,0,0,0,224,287.98828ZM121.46094,255.99805A374.13921,374.13921,0,0,1,85.7583,197.916c-24.53906-50.02344-26.40625-87.42579-16.86328-96.9668,1.83984-1.83789,27.05078-17.10156,97.062,17.23242A494.241,494.241,0,0,1,224,77.14453C175.5625,48.13086,128.16406,32,89.41846,32c-26.9336,0-49.707,7.61523-65.793,23.69141C-15.59326,94.90039-4.27686,173.91992,44.93408,256A492.0174,492.0174,0,0,0,85.7583,314.084c28.79639,35.30274,54.85889,59.07227,80.19873,79.73243A377.429,377.429,0,0,0,224,358.3418,505.131,505.131,0,0,1,121.46094,255.99805ZM403.06592,256a492.0174,492.0174,0,0,0-40.82422-58.084c-28.84326-35.35547-54.89795-59.10352-80.19873-79.73243A377.4073,377.4073,0,0,0,224,153.65625,505.20556,505.20556,0,0,1,326.53906,256a373.849,373.849,0,0,1,35.70264,58.084c24.53906,50.02149,26.40625,87.42383,16.86328,96.9668-1.83984,1.83789-27.05078,17.10156-97.062-17.23242A494.241,494.241,0,0,1,224,434.85547C272.4375,463.86914,319.83594,480,358.58154,480c26.9336,0,49.707-7.61523,65.793-23.69336C463.59326,417.09961,452.27686,338.08008,403.06592,256Z" class="fa-primary"/></svg>