<svg xmlns="http://www.w3.org/2000/svg" viewBox="0 0 512 512"><!-- Font Awesome Pro 5.15.4 by @fontawesome - https://fontawesome.com License - https://fontawesome.com/license (Commercial License) --><defs><style>.fa-secondary{opacity:.4}</style></defs><path d="M159 223.47c-1.22 5.24-2.59 10.82-3.87 15.24l-9 30.65h25.57l-8.83-30.65c-1.26-4.42-2.64-9.99-3.87-15.24zM464 64H48a48 48 0 0 0-48 48v288a48 48 0 0 0 48 48h416a48 48 0 0 0 48-48V112a48 48 0 0 0-48-48zM234.1 352h-29.17a12 12 0 0 1-11.53-8.6l-8.79-30h-51.37l-8.57 29.91a12 12 0 0 1-11.54 8.69H84a12 12 0 0 1-11.35-15.86l57.09-168a12 12 0 0 1 11.37-8.14H177a12 12 0 0 1 11.36 8.14l57.1 168A12 12 0 0 1 234.1 352zm97.1 0h-57.37a12 12 0 0 1-12-12V172a12 12 0 0 1 12-12h57.37c61 0 99 36.64 99 95.61 0 59.46-38 96.39-99 96.39zm-1.8-145.39h-14.52v98.78h14.52c29.77 0 46.17-17.68 46.17-49.78s-17.49-49-46.17-49z" class="fa-secondary"/><path d="M188.36 168.14A12 12 0 0 0 177 160h-35.89a12 12 0 0 0-11.37 8.14l-57.09 168A12 12 0 0 0 84 352h29.13a12 12 0 0 0 11.54-8.69l8.57-29.91h51.37l8.79 30a12 12 0 0 0 11.53 8.6h29.17a12 12 0 0 0 11.36-15.86zm-42.22 101.22l9-30.65c1.28-4.42 2.65-10 3.87-15.24 1.22 5.25 2.6 10.82 3.87 15.24l8.83 30.65zM331.2 160h-57.37a12 12 0 0 0-12 12v168a12 12 0 0 0 12 12h57.37c61 0 99-36.93 99-96.39-.04-58.97-37.96-95.61-99-95.61zm-1.8 145.39h-14.52v-98.78h14.52c28.68 0 46.17 16.77 46.17 49s-16.4 49.78-46.17 49.78z" class="fa-primary"/></svg>