<svg xmlns="http://www.w3.org/2000/svg" viewBox="0 0 384 512"><!-- Font Awesome Pro 5.15.4 by @fontawesome - https://fontawesome.com License - https://fontawesome.com/license (Commercial License) --><defs><style>.fa-secondary{opacity:.4}</style></defs><path d="M272.07 288v48L216 400h-48l-55.93-64-.07-48z" class="fa-secondary"/><path d="M192 160a80 80 0 1 0-80-80 80 80 0 0 0 80 80zm-52.46 259L168 400l-55.93-64v-.06l-.07.06-57.33 49a40 40 0 0 0-3 59.24l56 56a40 40 0 1 0 56.56-56.56zM376 143.19a39.81 39.81 0 0 0-55.86-7.88l-40.5 28.39a152.31 152.31 0 0 1-175.28 0l-40.47-28.39a40 40 0 0 0-48 63.9q1 .78 2.13 1.5l40.49 28.5A231.24 231.24 0 0 0 112 257.1V288h160v-30.9a231.24 231.24 0 0 0 53.49-27.89l40.51-28.5q1.09-.72 2.13-1.5a40.08 40.08 0 0 0 7.87-56.02zM328.33 385L272 336l-56 64 27.46 19-24.74 24.75a40 40 0 1 0 56.57 56.56l56-56a40 40 0 0 0-3-59.24z" class="fa-primary"/></svg>