<svg xmlns="http://www.w3.org/2000/svg" viewBox="0 0 640 512"><!-- Font Awesome Pro 5.15.4 by @fontawesome - https://fontawesome.com License - https://fontawesome.com/license (Commercial License) --><defs><style>.fa-secondary{opacity:.4}</style></defs><path d="M576 64H205.26A64 64 0 0 0 160 82.75L9.38 233.37a32 32 0 0 0 0 45.25L160 429.25A64 64 0 0 0 205.25 448H576a64 64 0 0 0 64-64V128a64 64 0 0 0-64-64zm-84.69 254.06a16 16 0 0 1 0 22.63l-22.62 22.62a16 16 0 0 1-22.63 0L384 301.25l-62.06 62.06a16 16 0 0 1-22.63 0l-22.62-22.62a16 16 0 0 1 0-22.63L338.75 256l-62.06-62.06a16 16 0 0 1 0-22.63l22.62-22.62a16 16 0 0 1 22.63 0L384 210.75l62.06-62.06a16 16 0 0 1 22.63 0l22.62 22.62a16 16 0 0 1 0 22.63L429.25 256z" class="fa-secondary"/><path d="M491.31 318.06a16 16 0 0 1 0 22.63l-22.62 22.62a16 16 0 0 1-22.63 0L384 301.25l-62.06 62.06a16 16 0 0 1-22.63 0l-22.62-22.62a16 16 0 0 1 0-22.63L338.75 256l-62.06-62.06a16 16 0 0 1 0-22.63l22.62-22.62a16 16 0 0 1 22.63 0L384 210.75l62.06-62.06a16 16 0 0 1 22.63 0l22.62 22.62a16 16 0 0 1 0 22.63L429.25 256z" class="fa-primary"/></svg>