<svg xmlns="http://www.w3.org/2000/svg" viewBox="0 0 576 512"><!-- Font Awesome Pro 5.15.4 by @fontawesome - https://fontawesome.com License - https://fontawesome.com/license (Commercial License) --><defs><style>.fa-secondary{opacity:.4}</style></defs><path d="M9.09 407.62C-3.61 395-3 374 10.88 362.56c36.33-30 66.2-41.1 91.06-50.36 9.17-3.41 69-19.26 98.72-98.09 8.61-22.81 46.34-134.59 189-187.73 15.85-5.91 27.36-10.2 41-20.3a31 31 0 0 1 40.14 2.83l26.31 26.14C467 62.7 444.24 71.37 420.38 80.37 392.08 91 362.81 102 323 141.75s-50.76 69.05-61.37 97.34c-9.85 26.31-19.16 51.12-54.05 86s-59.65 44.16-85.91 54c-26 9.76-53 20.13-88.17 52.73zM566.92 104.4l-24.44-24.2c-35.19 32.64-62.17 43-88.24 52.8-26.26 9.85-51.06 19.16-85.95 54s-44.19 59.69-54 86c-10.64 28.33-21.62 57.56-61.41 97.34s-69 50.73-97.3 61.32c-23.85 9-46.59 17.65-76.68 45.3l26.32 26.14a31 31 0 0 0 40.18 2.82c13.6-10.06 25.09-14.34 40.94-20.24 142.19-53 180-164.11 188.93-187.7 29.73-78.79 89.52-94.67 98.73-98.11 24.87-9.28 54.74-20.41 91.11-50.42 13.89-11.4 14.51-32.45 1.81-45.05z" class="fa-secondary"/><path d="M252.88 370.34c-39.79 39.78-69 50.73-97.3 61.32-23.86 9-46.6 17.66-76.71 45.33l-45.33-45.16c35.17-32.6 62.17-43 88.17-52.73 26.26-9.84 51.05-19.12 85.91-54s44.2-59.7 54.05-86c10.61-28.29 21.59-57.54 61.37-97.34s69-50.77 97.34-61.38c23.88-9 46.64-17.68 76.79-45.37l45.31 45.2c-35.19 32.64-62.17 43-88.24 52.8-26.26 9.85-51.06 19.16-85.95 54s-44.19 59.69-54 86c-10.64 28.32-21.62 57.55-61.41 97.33z" class="fa-primary"/></svg>