<svg xmlns="http://www.w3.org/2000/svg" viewBox="0 0 576 512"><!-- Font Awesome Pro 5.15.4 by @fontawesome - https://fontawesome.com License - https://fontawesome.com/license (Commercial License) --><defs><style>.fa-secondary{opacity:.4}</style></defs><path d="M448 192a32 32 0 0 0-32-32h-96V96a96 96 0 0 0-192 0v64H32a32 32 0 0 0-32 32v256a32 32 0 0 0 32 32h128V256a32 32 0 0 1 32-32h256zm-176-32h-96V96a48 48 0 0 1 96 0zm200 160h-16a8 8 0 0 0-8 8v24a64.07 64.07 0 0 1-70.38 63.69c-33.25-3.23-57.62-33.12-57.62-66.53V328a8 8 0 0 0-8-8h-16a8 8 0 0 0-8 8v20.66c0 48.79 35 92.32 83.37 98.53A96.12 96.12 0 0 0 480 352v-24a8 8 0 0 0-8-8z" class="fa-secondary"/><path d="M544 256H224a32 32 0 0 0-32 32v192a32 32 0 0 0 32 32h320a32 32 0 0 0 32-32V288a32 32 0 0 0-32-32zm-64 96a96.12 96.12 0 0 1-108.63 95.19C323 441 288 397.45 288 348.66V328a8 8 0 0 1 8-8h16a8 8 0 0 1 8 8v21.16c0 33.41 24.37 63.3 57.62 66.53A64.07 64.07 0 0 0 448 352v-24a8 8 0 0 1 8-8h16a8 8 0 0 1 8 8z" class="fa-primary"/></svg>