<svg xmlns="http://www.w3.org/2000/svg" viewBox="0 0 640 512"><!-- Font Awesome Pro 5.15.4 by @fontawesome - https://fontawesome.com License - https://fontawesome.com/license (Commercial License) --><defs><style>.fa-secondary{opacity:.4}</style></defs><path d="M544 464v32a16 16 0 0 1-16 16H112a16 16 0 0 1-16-16v-32a16 16 0 0 1 16-16h176V153.25A80.06 80.06 0 0 1 241.61 96H112a16 16 0 0 1-16-16V48a16 16 0 0 1 16-16h144.36a79.28 79.28 0 0 1 127.28 0H528a16 16 0 0 1 16 16v32a16 16 0 0 1-16 16H398.39A80.06 80.06 0 0 1 352 153.25V448h176a16 16 0 0 1 16 16z" class="fa-secondary"/><path d="M256 336c0-16.18 1.34-8.73-85-181.51-17.65-35.29-68.19-35.36-85.87 0C-2.06 328.75 0 320.33 0 336c0 44.18 57.31 80 128 80s128-35.82 128-80zM128 176l72 144H56zm512 160c0-16.18 1.34-8.73-85.05-181.51-17.65-35.29-68.19-35.36-85.87 0C381.94 328.75 384 320.33 384 336c0 44.18 57.31 80 128 80s128-35.82 128-80zm-200-16l72-144 72 144z" class="fa-primary"/></svg>