<svg xmlns="http://www.w3.org/2000/svg" viewBox="0 0 384 512"><!-- Font Awesome Pro 5.15.4 by @fontawesome - https://fontawesome.com License - https://fontawesome.com/license (Commercial License) --><defs><style>.fa-secondary{opacity:.4}</style></defs><path d="M360 0H24A23.94 23.94 0 0 0 0 24v464a23.94 23.94 0 0 0 24 24h336a23.94 23.94 0 0 0 24-24V24a23.94 23.94 0 0 0-24-24zM128 400a16 16 0 0 1-16 16H80a16 16 0 0 1-16-16v-32a16 16 0 0 1 16-16h32a16 16 0 0 1 16 16zm0-128a16 16 0 0 1-16 16H80a16 16 0 0 1-16-16v-32a16 16 0 0 1 16-16h32a16 16 0 0 1 16 16zm0-128a16 16 0 0 1-16 16H80a16 16 0 0 1-16-16v-32a16 16 0 0 1 16-16h32a16 16 0 0 1 16 16zm192 248a8 8 0 0 1-8 8H168a8 8 0 0 1-8-8v-16a8 8 0 0 1 8-8h144a8 8 0 0 1 8 8zm0-128a8 8 0 0 1-8 8H168a8 8 0 0 1-8-8v-16a8 8 0 0 1 8-8h144a8 8 0 0 1 8 8zm0-128a8 8 0 0 1-8 8H168a8 8 0 0 1-8-8v-16a8 8 0 0 1 8-8h144a8 8 0 0 1 8 8z" class="fa-secondary"/><path d="M112 352H80a16 16 0 0 0-16 16v32a16 16 0 0 0 16 16h32a16 16 0 0 0 16-16v-32a16 16 0 0 0-16-16zm0-128H80a16 16 0 0 0-16 16v32a16 16 0 0 0 16 16h32a16 16 0 0 0 16-16v-32a16 16 0 0 0-16-16zm0-128H80a16 16 0 0 0-16 16v32a16 16 0 0 0 16 16h32a16 16 0 0 0 16-16v-32a16 16 0 0 0-16-16z" class="fa-primary"/></svg>