<svg xmlns="http://www.w3.org/2000/svg" viewBox="0 0 576 512"><!-- Font Awesome Pro 5.15.4 by @fontawesome - https://fontawesome.com License - https://fontawesome.com/license (Commercial License) --><defs><style>.fa-secondary{opacity:.4}</style></defs><path d="M176 168a80 80 0 1 0 80 80 80 80 0 0 0-80-80zm224 0a80 80 0 1 0 80 80 80 80 0 0 0-80-80z" class="fa-secondary"/><path d="M80 352a80 80 0 1 0 80 80 80 80 0 0 0-80-80zM288 0a80 80 0 1 0 80 80 80 80 0 0 0-80-80zm0 352a80 80 0 1 0 80 80 80 80 0 0 0-80-80zm208 0a80 80 0 1 0 80 80 80 80 0 0 0-80-80z" class="fa-primary"/></svg>