<svg xmlns="http://www.w3.org/2000/svg" viewBox="0 0 512 512"><!-- Font Awesome Pro 5.15.4 by @fontawesome - https://fontawesome.com License - https://fontawesome.com/license (Commercial License) --><defs><style>.fa-secondary{opacity:.4}</style></defs><path d="M192 200A120 120 0 1 1 72 320a120.13 120.13 0 0 1 120-120m0-48a168 168 0 1 0 168 168 168 168 0 0 0-168-168z" class="fa-secondary"/><path d="M194.34 381.66l11.31-11.31a8 8 0 0 0 0-11.32L153 306.35a8 8 0 0 0-11.32 0l-11.31 11.31a8 8 0 0 0 0 11.31L183 381.66a8 8 0 0 0 11.34 0zM502.63 39L473.05 9.37a32 32 0 0 0-45.26 0l-46.31 46.32A35.26 35.26 0 0 0 373 69.48l-12.19 36.59L286 180.79A168.81 168.81 0 0 1 331.29 226l74.88-74.88L442.52 139a35.12 35.12 0 0 0 13.79-8.52l46.32-46.31a32 32 0 0 0 0-45.17zM56.48 221.48a168.39 168.39 0 0 1 37-37l-.23-.23a26.18 26.18 0 0 0-37 37zm0 197l-.23.22a26.18 26.18 0 1 0 37 37l.23-.23a168 168 0 0 1-37-36.95zm-30.3-124.7a26.18 26.18 0 0 0 0 52.36h.46C25.29 337.59 24 329 24 320s1.29-17.59 2.64-26.18zm301.34 124.7a168 168 0 0 1-37 37l.23.23a26.18 26.18 0 1 0 37-37zm30.3-124.7h-.46C358.71 302.41 360 311 360 320s-1.29 17.59-2.64 26.18h.46a26.18 26.18 0 0 0 0-52.36zm-192 191.54v.46a26.18 26.18 0 0 0 52.36 0v-.46C209.59 486.71 201 488 192 488s-17.59-1.29-26.18-2.64zM192 128a26.18 26.18 0 0 0-26.18 26.18v.46C174.41 153.29 183 152 192 152s17.59 1.29 26.18 2.64v-.46A26.19 26.19 0 0 0 192 128z" class="fa-primary"/></svg>