<svg xmlns="http://www.w3.org/2000/svg" viewBox="0 0 640 512"><!-- Font Awesome Pro 5.15.4 by @fontawesome - https://fontawesome.com License - https://fontawesome.com/license (Commercial License) --><defs><style>.fa-secondary{opacity:.4}</style></defs><path d="M144 448H64v-80a16 16 0 0 0-16-16H16a16 16 0 0 0-16 16v128a16 16 0 0 0 16 16h128a16 16 0 0 0 16-16v-32a16 16 0 0 0-16-16zm0-448H16A16 16 0 0 0 0 16v128a16 16 0 0 0 16 16h32a16 16 0 0 0 16-16V64h80a16 16 0 0 0 16-16V16a16 16 0 0 0-16-16zm480 0H496a16 16 0 0 0-16 16v32a16 16 0 0 0 16 16h80v80a16 16 0 0 0 16 16h32a16 16 0 0 0 16-16V16a16 16 0 0 0-16-16zm0 352h-32a16 16 0 0 0-16 16v80h-80a16 16 0 0 0-16 16v32a16 16 0 0 0 16 16h128a16 16 0 0 0 16-16V368a16 16 0 0 0-16-16z" class="fa-secondary"/><path d="M184 128h-48a8 8 0 0 0-8 8v240a8 8 0 0 0 8 8h48a8 8 0 0 0 8-8V136a8 8 0 0 0-8-8zm64 0h-16a8 8 0 0 0-8 8v240a8 8 0 0 0 8 8h16a8 8 0 0 0 8-8V136a8 8 0 0 0-8-8zm160 0h-48a8 8 0 0 0-8 8v240a8 8 0 0 0 8 8h48a8 8 0 0 0 8-8V136a8 8 0 0 0-8-8zm-96 0h-16a8 8 0 0 0-8 8v240a8 8 0 0 0 8 8h16a8 8 0 0 0 8-8V136a8 8 0 0 0-8-8zm192 0h-48a8 8 0 0 0-8 8v240a8 8 0 0 0 8 8h48a8 8 0 0 0 8-8V136a8 8 0 0 0-8-8z" class="fa-primary"/></svg>