<svg xmlns="http://www.w3.org/2000/svg" viewBox="0 0 496 512"><!-- Font Awesome Pro 5.15.4 by @fontawesome - https://fontawesome.com License - https://fontawesome.com/license (Commercial License) --><defs><style>.fa-secondary{opacity:.4}</style></defs><path d="M441.77,101.1a213.51,213.51,0,0,0-44,60.42l-.12.24-28.75-14,.09-.19A245.85,245.85,0,0,1,420.13,77.5C323.91-15.33,171.4-15.14,75.4,77.91a244.73,244.73,0,0,1,50.72,68.79L97.51,160.9a212.83,212.83,0,0,0-43.58-59.31,248,248,0,0,0,.33,309.22,213.57,213.57,0,0,0,43.91-60.36l.11-.24L127,364.26l-.09.19a245.76,245.76,0,0,1-51.12,70c96.2,92.86,248.71,92.72,344.73-.32a244.66,244.66,0,0,1-50.76-68.83l28.65-14.25A212.72,212.72,0,0,0,442,410.46a248.06,248.06,0,0,0-.34-309.36ZM139.25,334.49l-30.33-10.2A212.09,212.09,0,0,0,120,256.52a214.18,214.18,0,0,0-11.69-69.79l30.26-10.4A245.62,245.62,0,0,1,152,256.52,243.74,243.74,0,0,1,139.25,334.49Zm218.13,1.14a245.26,245.26,0,0,1-.67-158.16L387,187.67a213.39,213.39,0,0,0,.6,137.56Z" class="fa-secondary"/><path d="M98.17,350.45a214.1,214.1,0,0,1-43.91,60.36,250.37,250.37,0,0,0,21.56,23.67,245.93,245.93,0,0,0,51.13-70l.09-.19-28.76-14ZM97.51,160.9l28.65-14.25A244.73,244.73,0,0,0,75.44,77.86a249.19,249.19,0,0,0-21.52,23.71A213.3,213.3,0,0,1,97.51,160.9Zm300.28.62a213.51,213.51,0,0,1,44-60.42,250.36,250.36,0,0,0-21.57-23.66A245.73,245.73,0,0,0,369,147.52l-.09.19,28.75,14ZM376,255.44A212.18,212.18,0,0,1,387,187.67l-30.33-10.2a245.26,245.26,0,0,0,.67,158.16l30.26-10.4a213.85,213.85,0,0,1-11.71-69.79Zm22.5,95.63L369.8,365.32a244.59,244.59,0,0,0,50.77,68.84,250.19,250.19,0,0,0,21.51-23.7A212.63,212.63,0,0,1,398.45,351.07ZM108.32,186.73A214.44,214.44,0,0,1,120,256.52a212.1,212.1,0,0,1-11.09,67.77l30.33,10.2a243.61,243.61,0,0,0,12.76-78,245.62,245.62,0,0,0-13.43-80.19Z" class="fa-primary"/></svg>