<svg xmlns="http://www.w3.org/2000/svg" viewBox="0 0 496 512"><!-- Font Awesome Pro 5.15.4 by @fontawesome - https://fontawesome.com License - https://fontawesome.com/license (Commercial License) --><defs><style>.fa-secondary{opacity:.4}</style></defs><path d="M216,10.05A247,247,0,0,0,84.33,69.7l79.89,79.89A212.33,212.33,0,0,0,216,10.05ZM186.89,172.26,248,233.37,411.67,69.7A247,247,0,0,0,248,8v2a244.13,244.13,0,0,1-61.11,162.26ZM280,502a247,247,0,0,0,131.67-59.7l-79.89-79.89A212.38,212.38,0,0,0,280,502ZM434.3,92.33,270.63,256l61.11,61.11A244.18,244.18,0,0,1,494,256h2A247,247,0,0,0,434.3,92.33Zm0,327.34A247,247,0,0,0,494,288a212.33,212.33,0,0,0-139.54,51.78ZM309.11,339.74,248,278.63,84.33,442.3A247,247,0,0,0,248,504v-2A244.13,244.13,0,0,1,309.11,339.74ZM61.7,92.33A247,247,0,0,0,2.05,224a212.33,212.33,0,0,0,139.54-51.78ZM164.26,194.89A244.13,244.13,0,0,1,2,256H0A247,247,0,0,0,61.7,419.67L225.37,256Z" class="fa-secondary"/><path d="M280,502a249.84,249.84,0,0,1-32,2v-2a244.13,244.13,0,0,1,61.11-162.26L248,278.63,84.33,442.3A249.14,249.14,0,0,1,61.7,419.67L225.37,256l-61.11-61.11A244.13,244.13,0,0,1,2,256H0a249.89,249.89,0,0,1,2.05-32,212.33,212.33,0,0,0,139.54-51.78L61.7,92.33A249.14,249.14,0,0,1,84.33,69.7l79.89,79.89A212.33,212.33,0,0,0,216,10.05,249.89,249.89,0,0,1,248,8v2a244.13,244.13,0,0,1-61.11,162.26L248,233.37,411.67,69.7A249.14,249.14,0,0,1,434.3,92.33L270.63,256l61.11,61.11A244.18,244.18,0,0,1,494,256h2a249.84,249.84,0,0,1-2,32,212.33,212.33,0,0,0-139.54,51.78l79.89,79.89a249.14,249.14,0,0,1-22.63,22.63l-79.89-79.89A212.39,212.39,0,0,0,280,502Z" class="fa-primary"/></svg>