<svg xmlns="http://www.w3.org/2000/svg" viewBox="0 0 640 512"><!-- Font Awesome Pro 5.15.4 by @fontawesome - https://fontawesome.com License - https://fontawesome.com/license (Commercial License) --><defs><style>.fa-secondary{opacity:.4}</style></defs><path d="M192 176h256v-48H192zm446.83 26.76C638.13 200.72 571.32 0 320 0S1.87 200.72 1.17 202.76c-1.6 10.39-1.1-8.66-1.1 132.35 0 23.23 13.6 44 34.71 52.78L139 431.6 130.15 288H104a40 40 0 0 1-40-40v-32a40 40 0 0 1 40-40h56V96h320v80h56a40 40 0 0 1 40 40v32a40 40 0 0 1-40 40h-26.15L501 431.6l104.21-43.71c21.11-8.76 34.71-29.55 34.71-52.78.01-141.01.51-121.96-1.09-132.35z" class="fa-secondary"/><path d="M445.27 319.9L408.63 288h-47.07L320 329.4 278.44 288h-47.07l-36.64 31.9-2.51-31.9H160l18.27 224L254 440.4l66 71.6 66.05-71.6 75.68 71.6L480 288h-32.22zm-240.5 124.3l-4.32-53.5 30 27.9zm48.38-48.2l-46.88-43.6 48.79-42.5 42.25 42.1zM320 458.1l-43.36-40.3L320 374.6l43.36 43.2zM342.69 352l42.25-42.1 48.79 42.5-46.88 43.6zm92.54 92.2l-25.69-25.6 30-27.9zM536 208H104a8 8 0 0 0-8 8v32a8 8 0 0 0 8 8h432a8 8 0 0 0 8-8v-32a8 8 0 0 0-8-8z" class="fa-primary"/></svg>