<svg xmlns="http://www.w3.org/2000/svg" viewBox="0 0 640 512"><!-- Font Awesome Pro 5.15.4 by @fontawesome - https://fontawesome.com License - https://fontawesome.com/license (Commercial License) --><defs><style>.fa-secondary{opacity:.4}</style></defs><path d="M616 160h-8v-16a48 48 0 0 0-48-48H48a48 48 0 0 0-48 48v224a48 48 0 0 0 48 48h512a48 48 0 0 0 48-48v-16h8a24 24 0 0 0 24-24V184a24 24 0 0 0-24-24zm-40 128h-32v64H64V160h480v64h32z" class="fa-secondary"/><path d="M224 320H96V192h128z" class="fa-primary"/></svg>