<svg xmlns="http://www.w3.org/2000/svg" viewBox="0 0 640 512"><!-- Font Awesome Pro 5.15.4 by @fontawesome - https://fontawesome.com License - https://fontawesome.com/license (Commercial License) --><defs><style>.fa-secondary{opacity:.4}</style></defs><path d="M208,128H112a16,16,0,0,0-16,16V288H224V144A16,16,0,0,0,208,128Zm320,0H272a16,16,0,0,0-16,16V288H640V240A112,112,0,0,0,528,128Z" class="fa-secondary"/><path d="M640,288V432a16,16,0,0,1-16,16H592a16,16,0,0,1-16-16V384H64v48a16,16,0,0,1-16,16H16A16,16,0,0,1,0,432V80A16,16,0,0,1,16,64H48A16,16,0,0,1,64,80V288Z" class="fa-primary"/></svg>