<svg xmlns="http://www.w3.org/2000/svg" viewBox="0 0 640 512"><!-- Font Awesome Pro 5.15.4 by @fontawesome - https://fontawesome.com License - https://fontawesome.com/license (Commercial License) --><defs><style>.fa-secondary{opacity:.4}</style></defs><path d="M528 128H304a16 16 0 0 0-16 16v144h352v-48a112 112 0 0 0-112-112zM176 96a80 80 0 1 0 80 80 80 80 0 0 0-80-80z" class="fa-secondary"/><path d="M640 288v144a16 16 0 0 1-16 16h-32a16 16 0 0 1-16-16v-48H64v48a16 16 0 0 1-16 16H16a16 16 0 0 1-16-16V80a16 16 0 0 1 16-16h32a16 16 0 0 1 16 16v208z" class="fa-primary"/></svg>