<svg xmlns="http://www.w3.org/2000/svg" viewBox="0 0 512 512"><!-- Font Awesome Pro 5.15.4 by @fontawesome - https://fontawesome.com License - https://fontawesome.com/license (Commercial License) --><defs><style>.fa-secondary{opacity:.4}</style></defs><path d="M464 320a48 48 0 0 0-27.14 87.55A40.07 40.07 0 0 1 400 432h-48v48h48a88.08 88.08 0 0 0 86-69.56A47.86 47.86 0 0 0 464 320zM208 160a48 48 0 1 0 48 48 48 48 0 0 0-48-48z" class="fa-secondary"/><path d="M208 0C93.12 0 0 93.12 0 208s93.12 208 208 208 208-93.12 208-208S322.88 0 208 0zm0 288a80 80 0 1 1 80-80 80.09 80.09 0 0 1-80 80zM64 399.54V480a32 32 0 0 0 32 32h224a32 32 0 0 0 32-32v-80.46a238.18 238.18 0 0 1-288 0z" class="fa-primary"/></svg>