<svg xmlns="http://www.w3.org/2000/svg" viewBox="0 0 448 512"><!-- Font Awesome Pro 5.15.4 by @fontawesome - https://fontawesome.com License - https://fontawesome.com/license (Commercial License) --><defs><style>.fa-secondary{opacity:.4}</style></defs><path d="M439.39 361.29c-19.32-20.76-55.47-52-55.47-154.29 0-77.7-54.48-139.9-127.94-155.16V31a32 32 0 1 0-64 0v20.84C118.56 67.1 64.08 129.3 64.08 207c0 102.3-36.15 133.53-55.47 154.29A31.24 31.24 0 0 0 0 383c.11 16.4 13 32 32.1 32h383.8c19.12 0 32-15.6 32.1-32a31.23 31.23 0 0 0-8.61-21.71zM320 247a16 16 0 0 1-16 16h-56v56a16 16 0 0 1-16 16h-16a16 16 0 0 1-16-16v-56h-56a16 16 0 0 1-16-16v-16a16 16 0 0 1 16-16h56v-56a16 16 0 0 1 16-16h16a16 16 0 0 1 16 16v56h56a16 16 0 0 1 16 16z" class="fa-secondary"/><path d="M224 511a64 64 0 0 0 64-64H160a64 64 0 0 0 64 64zm80-296h-56v-56a16 16 0 0 0-16-16h-16a16 16 0 0 0-16 16v56h-56a16 16 0 0 0-16 16v16a16 16 0 0 0 16 16h56v56a16 16 0 0 0 16 16h16a16 16 0 0 0 16-16v-56h56a16 16 0 0 0 16-16v-16a16 16 0 0 0-16-16z" class="fa-primary"/></svg>