<svg xmlns="http://www.w3.org/2000/svg" viewBox="0 0 640 512"><!-- Font Awesome Pro 5.15.4 by @fontawesome - https://fontawesome.com License - https://fontawesome.com/license (Commercial License) --><defs><style>.fa-secondary{opacity:.4}</style></defs><path d="M368 32h-96a32 32 0 0 0-32 32v96a32 32 0 0 0 32 32h96a32 32 0 0 0 32-32V64a32 32 0 0 0-32-32zM160 320H64a32 32 0 0 0-32 32v96a32 32 0 0 0 32 32h96a32 32 0 0 0 32-32v-96a32 32 0 0 0-32-32zm416 0h-96a32 32 0 0 0-32 32v96a32 32 0 0 0 32 32h96a32 32 0 0 0 32-32v-96a32 32 0 0 0-32-32z" class="fa-secondary"/><path d="M208 88h-84.75a64 64 0 1 0 0 48H203A232.21 232.21 0 0 0 93.44 288h49.4a183.69 183.69 0 0 1 71-101.56A63.28 63.28 0 0 1 208 160zm368-40a63.93 63.93 0 0 0-59.25 40H432v72a63.43 63.43 0 0 1-5.88 26.44 183.69 183.69 0 0 1 71 101.56h49.4A232.21 232.21 0 0 0 437 136h79.73A64 64 0 1 0 576 48z" class="fa-primary"/></svg>