<svg xmlns="http://www.w3.org/2000/svg" viewBox="0 0 576 512"><!-- Font Awesome Pro 5.15.4 by @fontawesome - https://fontawesome.com License - https://fontawesome.com/license (Commercial License) --><defs><style>.fa-secondary{opacity:.4}</style></defs><path d="M206 80.83a89.75 89.75 0 0 0 29.5 40.69c16.51-5.7 34-9.5 52.51-9.5s36.2 3.8 52.81 9.6a89.75 89.75 0 0 0 29.5-40.69 207.71 207.71 0 0 0-164.32-.1zm-76.72 205.83a84 84 0 0 0-26.4-4.59 81.46 81.46 0 0 0-22.5 3.1 208.16 208.16 0 0 0 83.31 153.45 91.09 91.09 0 0 0 24.5-42.39 158.72 158.72 0 0 1-58.91-109.57zm343.94-4.59a85.81 85.81 0 0 0-26.6 4.69A158.8 158.8 0 0 1 387.91 396a91.4 91.4 0 0 0 24.5 42.49 207.53 207.53 0 0 0 83-153.45 83.1 83.1 0 0 0-22.19-2.97z" class="fa-secondary"/><path d="M575.53 283.47c-13.1-39.09-39.5-72-74.1-92.37a162.36 162.36 0 0 0-55.31-19.9c6-17.69 10-36.39 10-56.18a173.9 173.9 0 0 0-41-112.16 7.84 7.84 0 0 0-10-1.8 8.26 8.26 0 0 0-3.6 9.69c4.5 13.8 6.6 26.29 6.6 38.49 0 67.78-53.8 122.86-120 122.86s-120-55.08-120-122.86c0-12.1 2.2-24.69 6.6-38.49a8.26 8.26 0 0 0-3.6-9.69 7.86 7.86 0 0 0-10 1.8 174.49 174.49 0 0 0-41 112.16c0 19.79 3.9 38.49 10 56.18a163.12 163.12 0 0 0-55.31 19.9c-34.6 20.49-61 53.28-74.3 92.37A8.32 8.32 0 0 0 4 293.26a7.82 7.82 0 0 0 10-1.6c9.4-10.79 19-19.09 29.2-25.09 57.31-33.89 130.82-13.69 163.92 45s13.4 134-43.9 167.84c-10.21 6.1-22 10.4-35.81 13.4a8.27 8.27 0 0 0-6.4 8.1 8.07 8.07 0 0 0 6.5 8 163.8 163.8 0 0 0 115.18-19.71c18-10.6 32.91-24.49 45.31-40.09 12.4 15.6 27.3 29.49 45.31 40.09a163.8 163.8 0 0 0 115.21 19.69 8.07 8.07 0 0 0 6.5-8 8.16 8.16 0 0 0-6.4-8.1c-13.9-2.9-25.6-7.3-35.81-13.4-57.3-33.89-77-109.16-43.9-167.84s106.61-78.88 163.92-45c10.2 6.1 19.8 14.3 29.2 25.09a7.82 7.82 0 0 0 10 1.6 8.27 8.27 0 0 0 3.5-9.77zM288 320.05a48 48 0 1 1 48-48 48 48 0 0 1-48 48z" class="fa-primary"/></svg>