<svg xmlns="http://www.w3.org/2000/svg" viewBox="0 0 576 512"><!-- Font Awesome Pro 5.15.4 by @fontawesome - https://fontawesome.com License - https://fontawesome.com/license (Commercial License) --><defs><style>.fa-secondary{opacity:.4}</style></defs><path d="M497.46 288L480 352H192V0h384l-17.45 64H392a8 8 0 0 0-8 8v16a8 8 0 0 0 8 8h157.82l-17.45 64H392a8 8 0 0 0-8 8v16a8 8 0 0 0 8 8h131.64l-17.45 64H392a8 8 0 0 0-8 8v16a8 8 0 0 0 8 8z" class="fa-secondary"/><path d="M158.8 335L133 271.75a16.79 16.79 0 0 0-17.24-10.26l-45 4.42a214.78 214.78 0 0 1 0-147.72l45 4.42A16.81 16.81 0 0 0 133 112.35l25.8-63.26A16.3 16.3 0 0 0 152.12 29L112.84 4.92C98.51-3.87 80.09-.5 69 12a269.64 269.64 0 0 0 2.09 362.49c9.87 10.8 29.12 12.48 41.66 4.8l39.4-24.18A16.3 16.3 0 0 0 158.8 335zM480 384H192a64 64 0 0 0-64 64v32a32 32 0 0 0 32 32h352a32 32 0 0 0 32-32v-32a64 64 0 0 0-64-64zm-144 96a32 32 0 1 1 32-32 32 32 0 0 1-32 32zm56-192h105.46l8.72-32H392a8 8 0 0 0-8 8v16a8 8 0 0 0 8 8zm0-96h131.64l8.72-32H392a8 8 0 0 0-8 8v16a8 8 0 0 0 8 8zm0-128a8 8 0 0 0-8 8v16a8 8 0 0 0 8 8h157.81l8.73-32z" class="fa-primary"/></svg>