<svg xmlns="http://www.w3.org/2000/svg" viewBox="0 0 384 512"><!-- Font Awesome Pro 5.15.4 by @fontawesome - https://fontawesome.com License - https://fontawesome.com/license (Commercial License) --><defs><style>.fa-secondary{opacity:.4}</style></defs><path d="M380.15 510.84a8 8 0 0 1-11-2.68L243.83 301.72a31.91 31.91 0 0 0 13-9.48l126 207.61a8 8 0 0 1-2.68 11z" class="fa-secondary"/><path d="M142.8 314.34l-32.54 89.48 36.12 88.29a32 32 0 0 0 59.24-24.23zM96 88a44 44 0 1 0-44-44 44 44 0 0 0 44 44zm154.84 169.13l-120-152A23.91 23.91 0 0 0 112 96H80a23.9 23.9 0 0 0-18.94 9.24L0 183.77v95.69c0 13.46 11 24.79 24.46 24.54A24 24 0 0 0 48 280v-79.77l16-20.57v140.7L9.93 469.05a32 32 0 0 0 59.91 22.51c.08-.21.16-.42.23-.63L136 309.64v-107.2l-31.41-39.82a4 4 0 0 1 6.27-5l102.3 129.22c9.15 11.59 24.37 11.34 33.71 4a24 24 0 0 0 4-33.71z" class="fa-primary"/></svg>