<svg xmlns="http://www.w3.org/2000/svg" viewBox="0 0 448 512"><!-- Font Awesome Pro 5.15.4 by @fontawesome - https://fontawesome.com License - https://fontawesome.com/license (Commercial License) --><defs><style>.fa-secondary{opacity:.4}</style></defs><path d="M48 384c0-25.42 5.87-46.53 14.74-64h258.52c8.87 17.47 14.74 38.58 14.74 64a143 143 0 0 1-19.08 71.36A16.86 16.86 0 0 1 302.5 464h-221a16.86 16.86 0 0 1-14.42-8.64A143 143 0 0 1 48 384z" class="fa-secondary"/><path d="M443.31 217.37l-52.69-52.69a16 16 0 0 0-22.63 0L356.68 176a16 16 0 0 0 0 22.63l9.38 9.38-39.41 39.41A193.53 193.53 0 0 0 288 217.9V63.74h16a16 16 0 0 0 16-16V16a16 16 0 0 0-16-16L80 .26a16 16 0 0 0-16 16V48a16 16 0 0 0 16 16h16v153.89C38.67 251.1 0 313 0 384a190.15 190.15 0 0 0 25.5 95.34 64.77 64.77 0 0 0 56 32.66h221a64.75 64.75 0 0 0 56-32.66 191 191 0 0 0-1.94-194l43.44-43.4 9.38 9.38a16 16 0 0 0 22.63 0l11.3-11.32a16 16 0 0 0 0-22.63zm-126.39 238A16.86 16.86 0 0 1 302.5 464h-221a16.86 16.86 0 0 1-14.42-8.64A143 143 0 0 1 48 384c0-93.78 79.85-129.09 96-138.44V64.19h96v181.37c16.15 9.35 96 44.66 96 138.44a143 143 0 0 1-19.08 71.36z" class="fa-primary"/></svg>