<svg xmlns="http://www.w3.org/2000/svg" viewBox="0 0 448 512"><!-- Font Awesome Pro 5.15.4 by @fontawesome - https://fontawesome.com License - https://fontawesome.com/license (Commercial License) --><defs><style>.fa-secondary{opacity:.4}</style></defs><path d="M96 448c-19.2 0-32-12.8-32-32s16-32 32-32h319.33c-1.93 16.24-1.76 48.38.53 64z" class="fa-secondary"/><path d="M96 384h328a24 24 0 0 0 24-24V32a32 32 0 0 0-32-32H96A96 96 0 0 0 0 96v320a96 96 0 0 0 96 96h328a24 24 0 0 0 24-24v-16a24 24 0 0 0-24-24H96c-19.2 0-32-12.8-32-32s16-32 32-32zM240 64a64 64 0 1 1-64 64 64 64 0 0 1 64-64zM128 281.6c0-31.81 30.09-57.6 67.2-57.6h5a103.22 103.22 0 0 0 79.7 0h5c37.11 0 67.2 25.79 67.2 57.6v19.2c0 10.61-10 19.2-22.4 19.2H150.4c-12.4 0-22.4-8.6-22.4-19.2z" class="fa-primary"/></svg>