<svg xmlns="http://www.w3.org/2000/svg" viewBox="0 0 384 512"><!-- Font Awesome Pro 5.15.4 by @fontawesome - https://fontawesome.com License - https://fontawesome.com/license (Commercial License) --><defs><style>.fa-secondary{opacity:.4}</style></defs><path d="M384 48v464L192 400 0 512V48A48 48 0 0 1 48 0h32v326.11a16 16 0 0 0 23.16 14.31L192 296l88.84 44.42A16 16 0 0 0 304 326.11V0h32a48 48 0 0 1 48 48z" class="fa-secondary"/><path d="M304 0v326.11a16 16 0 0 1-23.16 14.31L192 296l-88.84 44.42A16 16 0 0 1 80 326.11V0z" class="fa-primary"/></svg>