<svg xmlns="http://www.w3.org/2000/svg" viewBox="0 0 640 512"><!-- Font Awesome Pro 5.15.4 by @fontawesome - https://fontawesome.com License - https://fontawesome.com/license (Commercial License) --><defs><style>.fa-secondary{opacity:.4}</style></defs><path d="M160 0H96a32 32 0 0 0-32 32v76.33a160.25 160.25 0 0 1 128 0V32a32 32 0 0 0-32-32zm64 480a32 32 0 0 0 32 32h64a32 32 0 0 0 32-32v-64H224zm353.62-17.78L465.08 42.71l-60.26 16.14 112.35 418.8c.11.39.2.79.29 1.18l60.29-16.15c-.04-.15-.09-.3-.13-.46zM64 401.68V480a32 32 0 0 0 32 32h64a32 32 0 0 0 32-32v-78.32a160.33 160.33 0 0 1-128 0zm191-49.36A160.35 160.35 0 0 1 224 383v1h128V127.84l-126.7.16A160 160 0 0 1 255 352.32zM320 0h-64a32 32 0 0 0-32 32v64h124.79l-8-29.65a23.94 23.94 0 0 1 11.17-27V32A32 32 0 0 0 320 0z" class="fa-secondary"/><path d="M128 127a128 128 0 1 0 128 128 128 128 0 0 0-128-128zm64 144a5.33 5.33 0 0 1-5.33 5.33h-37.34v37.34A5.33 5.33 0 0 1 144 319h-32a5.33 5.33 0 0 1-5.33-5.33v-37.33H69.33A5.33 5.33 0 0 1 64 271v-32a5.33 5.33 0 0 1 5.33-5.33h37.34v-37.33A5.33 5.33 0 0 1 112 191h32a5.33 5.33 0 0 1 5.33 5.33v37.34h37.34A5.33 5.33 0 0 1 192 239zM402.39 49.78a23.89 23.89 0 0 0-29.18-17h-.09L357.73 37a24 24 0 0 0-16.9 29.36l8 29.65H224v32h128V108l103.62 386.22a23.89 23.89 0 0 0 29.18 17h.09l15.38-4.22a24 24 0 0 0 16.9-29.33zm236.78 395.87L524.39 17.78a23.89 23.89 0 0 0-29.18-17h-.09L479.73 5a24 24 0 0 0-16.9 29.36l114.79 427.86a23.89 23.89 0 0 0 29.18 17h.09l15.38-4.22a24 24 0 0 0 16.9-29.35zM224 416h128v-32H224z" class="fa-primary"/></svg>