<svg xmlns="http://www.w3.org/2000/svg" viewBox="0 0 640 512"><!-- Font Awesome Pro 5.15.4 by @fontawesome - https://fontawesome.com License - https://fontawesome.com/license (Commercial License) --><defs><style>.fa-secondary{opacity:.4}</style></defs><path d="M592 160H48a48 48 0 0 0-48 48v256a48 48 0 0 0 48 48h544a48 48 0 0 0 48-48V208a48 48 0 0 0-48-48zM176 448a112 112 0 1 1 112-112 112.12 112.12 0 0 1-112 112zm288 0a112 112 0 1 1 112-112 112.12 112.12 0 0 1-112 112z" class="fa-secondary"/><path d="M552 0H88a56.07 56.07 0 0 0-56 56v106.94A47.5 47.5 0 0 1 48 160h32V56a8 8 0 0 1 8-8h464a8 8 0 0 1 8 8v104h32a47.5 47.5 0 0 1 16 2.94V56a56.06 56.06 0 0 0-56-56zM256 144a16 16 0 0 0-16-16h-32a16 16 0 0 0-16 16v16h64zm192 0a16 16 0 0 0-16-16h-32a16 16 0 0 0-16 16v16h64zm-96 0a16 16 0 0 0-16-16h-32a16 16 0 0 0-16 16v16h64zm112 80a112 112 0 1 0 112 112 112.12 112.12 0 0 0-112-112zm0 176a64 64 0 1 1 64-64 64.07 64.07 0 0 1-64 64zM176 224a112 112 0 1 0 112 112 112.12 112.12 0 0 0-112-112zm0 176a64 64 0 1 1 64-64 64.07 64.07 0 0 1-64 64z" class="fa-primary"/></svg>