<svg xmlns="http://www.w3.org/2000/svg" viewBox="0 0 512 512"><!-- Font Awesome Pro 5.15.4 by @fontawesome - https://fontawesome.com License - https://fontawesome.com/license (Commercial License) --><defs><style>.fa-secondary{opacity:.4}</style></defs><path d="M480 0h-32v496a16 16 0 0 0 16 16h32a16 16 0 0 0 16-16V32a32 32 0 0 0-32-32zM0 32v464a16 16 0 0 0 16 16h32a16 16 0 0 0 16-16V64h32V0H32A32 32 0 0 0 0 32z" class="fa-secondary"/><path d="M416 0v400a48 48 0 0 1-84.7 31 15.07 15.07 0 0 0-22.6 0 48.11 48.11 0 0 1-73.4 0 15.07 15.07 0 0 0-22.6 0 48 48 0 0 1-84.7-31V0z" class="fa-primary"/></svg>