<svg xmlns="http://www.w3.org/2000/svg" viewBox="0 0 448 512"><!-- Font Awesome Pro 5.15.4 by @fontawesome - https://fontawesome.com License - https://fontawesome.com/license (Commercial License) --><defs><style>.fa-secondary{opacity:.4}</style></defs><path d="M416 32H32A32 32 0 0 0 0 64v384a32 32 0 0 0 32 32h384a32 32 0 0 0 32-32V64a32 32 0 0 0-32-32zM57.8 179l64-80a8.28 8.28 0 0 1 12.5 0l64 80a8 8 0 0 1-6.2 13h-32v112a16 16 0 0 1-16 16h-32a16 16 0 0 1-16-16V192H64a8 8 0 0 1-6.2-13zM384 408a8 8 0 0 1-8 8H72a8 8 0 0 1-8-8v-16a8 8 0 0 1 8-8h304a8 8 0 0 1 8 8zm0-216h-32v112a16 16 0 0 1-16 16h-32a16 16 0 0 1-16-16V192h-32a8 8 0 0 1-6.2-13l64-80a8.28 8.28 0 0 1 12.5 0l64 80a8.05 8.05 0 0 1-6.3 13z" class="fa-secondary"/><path d="M134.3 99a8.28 8.28 0 0 0-12.5 0l-64 80a8 8 0 0 0 6.2 13h32.1v112a16 16 0 0 0 16 16h32a16 16 0 0 0 16-16V192h32a8 8 0 0 0 6.2-13zm256 80l-64-80a8.28 8.28 0 0 0-12.5 0l-64 80a8 8 0 0 0 6.2 13h32v112a16 16 0 0 0 16 16h32a16 16 0 0 0 16-16V192h32a8.05 8.05 0 0 0 6.3-13z" class="fa-primary"/></svg>