<svg xmlns="http://www.w3.org/2000/svg" viewBox="0 0 640 512"><!-- Font Awesome Pro 5.15.4 by @fontawesome - https://fontawesome.com License - https://fontawesome.com/license (Commercial License) --><defs><style>.fa-secondary{opacity:.4}</style></defs><path d="M439 254.14L576 215v178a32.07 32.07 0 0 1-24.2 31l-216.4 54.1a65 65 0 0 1-31 0L88.24 424A31.9 31.9 0 0 1 64 393V215l137 39.2a46 46 0 0 0 13.3 1.9 48.64 48.64 0 0 0 41.5-23.5L320 126l64.3 106.6a48.47 48.47 0 0 0 41.4 23.4 46 46 0 0 0 13.3-1.86z" class="fa-secondary"/><path d="M638.34 143.84L586.84 41a16.33 16.33 0 0 0-16.7-8.9L320 64l91.7 152.1a16.44 16.44 0 0 0 18.5 7.3l197.9-56.5a16.47 16.47 0 0 0 10.24-23.06zM53.24 41L1.74 143.84a16.3 16.3 0 0 0 10.1 23l197.9 56.5a16.44 16.44 0 0 0 18.5-7.3L320 64 69.84 32.14A16.34 16.34 0 0 0 53.24 41z" class="fa-primary"/></svg>