<svg xmlns="http://www.w3.org/2000/svg" viewBox="0 0 448 512"><!-- Font Awesome Pro 5.15.4 by @fontawesome - https://fontawesome.com License - https://fontawesome.com/license (Commercial License) --><defs><style>.fa-secondary{opacity:.4}</style></defs><path d="M256 32l32 128v112a16 16 0 0 1-16 16h-96a16 16 0 0 1-16-16V160l32-128z" class="fa-secondary"/><path d="M446.7 160c.4-.5.5-.7.9-1.2L391.3 53.9A32 32 0 0 0 360.9 32H256l32 128zM160 160l32-128H87.1a32 32 0 0 0-30.4 21.9L.4 158.8c.4.5.5.7.9 1.2zm128 32v80a16 16 0 0 1-16 16h-96a16 16 0 0 1-16-16v-80H0v256a32 32 0 0 0 32 32h384a32 32 0 0 0 32-32V192z" class="fa-primary"/></svg>