<svg xmlns="http://www.w3.org/2000/svg" viewBox="0 0 448 512"><!-- Font Awesome Pro 5.15.4 by @fontawesome - https://fontawesome.com License - https://fontawesome.com/license (Commercial License) --><defs><style>.fa-secondary{opacity:.4}</style></defs><path d="M352 400v80a32 32 0 0 1-32 32H64a32 32 0 0 1-32-32v-80h133.3l-40.5 30.4a8.09 8.09 0 0 0-1.6 11.2l9.6 12.8A8 8 0 0 0 144 456l48-36 48 36a8 8 0 0 0 11.2-1.6l9.6-12.8a8.08 8.08 0 0 0-1.6-11.2L218.7 400z" class="fa-secondary"/><path d="M15.8 286.7A1161.36 1161.36 0 0 1 0 95.9C0 43.1 43.3 0 96 0h192a96 96 0 0 1 96 96v32.2c-29.1 0-67.6-5.6-96 32.5v-.5H141.2a92.8 92.8 0 0 1-60.5-22.3 8 8 0 0 0-10.9.4l-11.3 11.3a8 8 0 0 0 .4 11.7 124.45 124.45 0 0 0 82.3 30.8h132.5a84.28 84.28 0 0 0-1.6 16 80.12 80.12 0 0 0 71.2 79.5 8 8 0 0 0 8.8-8v-16a8.17 8.17 0 0 0-6.9-8.1 47.9 47.9 0 0 1-41.1-48.4c.5-26.3 22.5-47.1 48.8-47.1H384a64.06 64.06 0 0 1 64 64c0 13.8 2.8 61.1-37.5 101.5L352 384v16H218.7l40.5-30.4a8.09 8.09 0 0 0 1.6-11.2l-9.6-12.8A8 8 0 0 0 240 344l-48 36-48-36a8 8 0 0 0-11.2 1.6l-9.6 12.8a8 8 0 0 0 1.6 11.2l40.5 30.4H32v-16z" class="fa-primary"/></svg>