<svg xmlns="http://www.w3.org/2000/svg" viewBox="0 0 448 512"><!-- Font Awesome Pro 5.15.4 by @fontawesome - https://fontawesome.com License - https://fontawesome.com/license (Commercial License) --><defs><style>.fa-secondary{opacity:.4}</style></defs><path d="M448 64v384a32 32 0 0 1-32 32H304a16 16 0 0 1-16-16v-32a16 16 0 0 1 16-16h80V96h-80a16 16 0 0 1-16-16V48a16 16 0 0 1 16-16h112a32 32 0 0 1 32 32z" class="fa-secondary"/><path d="M144 32H32A32 32 0 0 0 0 64v384a32 32 0 0 0 32 32h112a16 16 0 0 0 16-16v-32a16 16 0 0 0-16-16H64V96h80a16 16 0 0 0 16-16V48a16 16 0 0 0-16-16z" class="fa-primary"/></svg>