<svg xmlns="http://www.w3.org/2000/svg" viewBox="0 0 640 512"><!-- Font Awesome Pro 5.15.4 by @fontawesome - https://fontawesome.com License - https://fontawesome.com/license (Commercial License) --><defs><style>.fa-secondary{opacity:.4}</style></defs><path d="M64 400a32 32 0 1 0 32 32 32 32 0 0 0-32-32zm160-160a32 32 0 1 0 32 32 32 32 0 0 0-32-32zm0 160a32 32 0 1 0 32 32 32 32 0 0 0-32-32zm224-160a32 32 0 1 0 32 32 32 32 0 0 0-32-32zm0 160a32 32 0 1 0 32 32 32 32 0 0 0-32-32zm160-160a32 32 0 1 0 32 32 32 32 0 0 0-32-32zm0 160a32 32 0 1 0 32 32 32 32 0 0 0-32-32zm0-256a32 32 0 1 0-32-32 32 32 0 0 0 32 32z" class="fa-secondary"/><path d="M64 208a64 64 0 1 0 64 64 64 64 0 0 0-64-64zm0-160a64 64 0 1 0 64 64 64 64 0 0 0-64-64zm160 0a64 64 0 1 0 64 64 64 64 0 0 0-64-64zm224 0a64 64 0 1 0 64 64 64 64 0 0 0-64-64z" class="fa-primary"/></svg>