<svg xmlns="http://www.w3.org/2000/svg" viewBox="0 0 576 512"><!-- Font Awesome Pro 5.15.4 by @fontawesome - https://fontawesome.com License - https://fontawesome.com/license (Commercial License) --><defs><style>.fa-secondary{opacity:.4}</style></defs><path d="M272 439.93a71.81 71.81 0 0 1-140 22.78 70.91 70.91 0 0 1-84-70.77 72.51 72.51 0 0 1 1.42-14.1A80 80 0 0 1 0 304c0-29.66 16.34-55.26 40.34-69.07A79.05 79.05 0 0 1 32 200a80 80 0 0 1 49.66-74A63.6 63.6 0 0 1 144 48c.75 0 1.45.2 2.2.22A63.87 63.87 0 0 1 272 64zM576 304c0-29.66-16.34-55.26-40.34-69.07A79.05 79.05 0 0 0 544 200a80 80 0 0 0-49.66-74A63.6 63.6 0 0 0 432 48c-.75 0-1.45.2-2.2.22A63.87 63.87 0 0 0 304 64v375.9a71.81 71.81 0 0 0 140 22.78 71.73 71.73 0 0 0 82.61-84.87A80 80 0 0 0 576 304z" class="fa-secondary"/><path d="M304 439.93a8 8 0 0 1-8 8h-16a8 8 0 0 1-8-8V72a8 8 0 0 1 8-8h16a8 8 0 0 1 8 8z" class="fa-primary"/></svg>