<svg xmlns="http://www.w3.org/2000/svg" viewBox="0 0 576 512"><!-- Font Awesome Pro 5.15.4 by @fontawesome - https://fontawesome.com License - https://fontawesome.com/license (Commercial License) --><defs><style>.fa-secondary{opacity:.4}</style></defs><path d="M288 0C108 0 0 93.4 0 169.14 0 199.44 24.24 224 64 224v256c0 17.67 16.12 32 36 32h376c19.88 0 36-14.33 36-32V224c39.76 0 64-24.56 64-54.86C576 93.4 468 0 288 0zM152 448a24 24 0 1 1 24-24 24 24 0 0 1-24 24zm0-96a24 24 0 1 1 24-24 24 24 0 0 1-24 24zm96 96a24 24 0 1 1 24-24 24 24 0 0 1-24 24z" class="fa-secondary"/><path d="M152 400a24 24 0 1 0 24 24 24 24 0 0 0-24-24zm0-96a24 24 0 1 0 24 24 24 24 0 0 0-24-24zm96 96a24 24 0 1 0 24 24 24 24 0 0 0-24-24z" class="fa-primary"/></svg>