<svg xmlns="http://www.w3.org/2000/svg" viewBox="0 0 512 512"><!-- Font Awesome Pro 5.15.4 by @fontawesome - https://fontawesome.com License - https://fontawesome.com/license (Commercial License) --><defs><style>.fa-secondary{opacity:.4}</style></defs><path d="M512 208v256a48 48 0 0 1-48 48H208a48 48 0 0 1-48-48V352h64v96h224V224h-96v-64h112a48 48 0 0 1 48 48z" class="fa-secondary"/><path d="M304 352H48a48 48 0 0 1-48-48V48A48 48 0 0 1 48 0h256a48 48 0 0 1 48 48v256a48 48 0 0 1-48 48z" class="fa-primary"/></svg>