<svg xmlns="http://www.w3.org/2000/svg" viewBox="0 0 512 512"><!-- Font Awesome Pro 5.15.4 by @fontawesome - https://fontawesome.com License - https://fontawesome.com/license (Commercial License) --><defs><style>.fa-secondary{opacity:.4}</style></defs><path d="M76 160h40a12 12 0 0 0 12-12v-40a12 12 0 0 0-12-12H76a12 12 0 0 0-12 12v40a12 12 0 0 0 12 12zM0 224v208a48 48 0 0 0 48 48h416a48 48 0 0 0 48-48V224z" class="fa-secondary"/><path d="M464 32H48A48 48 0 0 0 0 80v144h512V80a48 48 0 0 0-48-48zM128 148a12 12 0 0 1-12 12H76a12 12 0 0 1-12-12v-40a12 12 0 0 1 12-12h40a12 12 0 0 1 12 12zm320 0a12 12 0 0 1-12 12H188a12 12 0 0 1-12-12v-40a12 12 0 0 1 12-12h248a12 12 0 0 1 12 12z" class="fa-primary"/></svg>