<svg xmlns="http://www.w3.org/2000/svg" viewBox="0 0 384 512"><!-- Font Awesome Pro 5.15.4 by @fontawesome - https://fontawesome.com License - https://fontawesome.com/license (Commercial License) --><defs><style>.fa-secondary{opacity:.4}</style></defs><path d="M384 32v224H0V32A32 32 0 0 1 32 0h320a32 32 0 0 1 32 32z" class="fa-secondary"/><path d="M0 288v32a64 64 0 0 0 64 64h64v64a64 64 0 0 0 128 0v-64h64a64 64 0 0 0 64-64v-32zm192 184a24 24 0 1 1 24-24 24 24 0 0 1-24 24z" class="fa-primary"/></svg>