<svg xmlns="http://www.w3.org/2000/svg" viewBox="0 0 496 512"><!-- Font Awesome Pro 5.15.4 by @fontawesome - https://fontawesome.com License - https://fontawesome.com/license (Commercial License) --><defs><style>.fa-secondary{opacity:.4}</style></defs><path d="M248,320a64.07,64.07,0,0,1-64-64c0-28.95,19.45-53.19,45.88-61.07L285,139.79l-2.12-6.38C271.73,130.24,260.18,128,248,128A128,128,0,1,0,376,256c0-12.18-2.24-23.73-5.42-34.89L364.21,219l-55.14,55.14A63.85,63.85,0,0,1,248,320ZM484.43,181.1l-35.5,35.5a52.13,52.13,0,0,1-19.17,12.07c15.9,101.19-53.24,196.1-154.43,212s-196.1-53.25-212-154.43,53.25-196.1,154.43-212a185.71,185.71,0,0,1,57.88.05A52,52,0,0,1,287.4,55.07l35.5-35.5A247.87,247.87,0,0,0,248,8C111,8,0,119,0,256S111,504,248,504,496,393,496,256A247.87,247.87,0,0,0,484.43,181.1Z" class="fa-secondary"/><path d="M310,77.7,373.68,14a20.56,20.56,0,0,1,34,8l18.55,55.65L481.89,96.2a20.56,20.56,0,0,1,8,34L426.3,194a20.58,20.58,0,0,1-21,5l-49.7-16.57L265,273a24,24,0,0,1-34-34l90.59-90.59L305,98.71A20.58,20.58,0,0,1,310,77.7Z" class="fa-primary"/></svg>