<svg xmlns="http://www.w3.org/2000/svg" viewBox="0 0 512 512"><!-- Font Awesome Pro 5.15.4 by @fontawesome - https://fontawesome.com License - https://fontawesome.com/license (Commercial License) --><defs><style>.fa-secondary{opacity:.4}</style></defs><path d="M96 160v96a32 32 0 0 0 32 32h112V128H128a32 32 0 0 0-32 32zm320 96v-96a32 32 0 0 0-32-32H272v160h112a32 32 0 0 0 32-32zM64 480a32 32 0 0 0 32 32h32a32 32 0 0 0 32-32v-32H64zm288-32v32a32 32 0 0 0 32 32h32a32 32 0 0 0 32-32v-32z" class="fa-secondary"/><path d="M488 128h-8V80c0-44.8-99.2-80-224-80S32 35.2 32 80v48h-8a24 24 0 0 0-24 24v80a24 24 0 0 0 24 24h8v160a32 32 0 0 0 32 32h384a32 32 0 0 0 32-32V256h8a24 24 0 0 0 24-24v-80a24 24 0 0 0-24-24zM112 400a32 32 0 1 1 32-32 32 32 0 0 1-32 32zm128-112H128a32 32 0 0 1-32-32v-96a32 32 0 0 1 32-32h112zM168 96a8 8 0 0 1-8-8V72a8 8 0 0 1 8-8h176a8 8 0 0 1 8 8v16a8 8 0 0 1-8 8H168zm104 32h112a32 32 0 0 1 32 32v96a32 32 0 0 1-32 32H272zm128 272a32 32 0 1 1 32-32 32 32 0 0 1-32 32z" class="fa-primary"/></svg>