<svg xmlns="http://www.w3.org/2000/svg" viewBox="0 0 512 512"><!-- Font Awesome Pro 5.15.4 by @fontawesome - https://fontawesome.com License - https://fontawesome.com/license (Commercial License) --><defs><style>.fa-secondary{opacity:.4}</style></defs><path d="M352 448v32a32 32 0 0 0 32 32h32a32 32 0 0 0 32-32v-32zM64 480a32 32 0 0 0 32 32h32a32 32 0 0 0 32-32v-32H64zm64-192h256a32 32 0 0 0 32-32V128a32 32 0 0 0-32-32H128a32 32 0 0 0-32 32v128a32 32 0 0 0 32 32z" class="fa-secondary"/><path d="M488 128h-8V80c0-44.8-99.2-80-224-80S32 35.2 32 80v48h-8a24 24 0 0 0-24 24v80a24 24 0 0 0 24 24h8v160a32 32 0 0 0 32 32h384a32 32 0 0 0 32-32V256h8a24 24 0 0 0 24-24v-80a24 24 0 0 0-24-24zm-392 0a32 32 0 0 1 32-32h256a32 32 0 0 1 32 32v128a32 32 0 0 1-32 32H128a32 32 0 0 1-32-32zm16 272a32 32 0 1 1 32-32 32 32 0 0 1-32 32zm288 0a32 32 0 1 1 32-32 32 32 0 0 1-32 32z" class="fa-primary"/></svg>