<svg xmlns="http://www.w3.org/2000/svg" viewBox="0 0 512 512"><!-- Font Awesome Pro 5.15.4 by @fontawesome - https://fontawesome.com License - https://fontawesome.com/license (Commercial License) --><defs><style>.fa-secondary{opacity:.4}</style></defs><path d="M0 480a32 32 0 0 0 32 32h448a32 32 0 0 0 32-32V256H0zm160-112a16 16 0 0 1 16-16h160a16 16 0 0 1 16 16v40a8 8 0 0 1-8 8h-16a8 8 0 0 1-8-8v-24H192v24a8 8 0 0 1-8 8h-16a8 8 0 0 1-8-8zM480 0H32A32 32 0 0 0 0 32v192h512V32a32 32 0 0 0-32-32zM352 152a8 8 0 0 1-8 8h-16a8 8 0 0 1-8-8v-24H192v24a8 8 0 0 1-8 8h-16a8 8 0 0 1-8-8v-40a16 16 0 0 1 16-16h160a16 16 0 0 1 16 16z" class="fa-secondary"/><path d="M336 96H176a16 16 0 0 0-16 16v40a8 8 0 0 0 8 8h16a8 8 0 0 0 8-8v-24h128v24a8 8 0 0 0 8 8h16a8 8 0 0 0 8-8v-40a16 16 0 0 0-16-16zm0 256H176a16 16 0 0 0-16 16v40a8 8 0 0 0 8 8h16a8 8 0 0 0 8-8v-24h128v24a8 8 0 0 0 8 8h16a8 8 0 0 0 8-8v-40a16 16 0 0 0-16-16z" class="fa-primary"/></svg>