<svg xmlns="http://www.w3.org/2000/svg" viewBox="0 0 512 512"><!-- Font Awesome Pro 5.15.4 by @fontawesome - https://fontawesome.com License - https://fontawesome.com/license (Commercial License) --><defs><style>.fa-secondary{opacity:.4}</style></defs><path d="M224 144a16 16 0 1 0 16 16 16 16 0 0 0-16-16zm64 224a16 16 0 1 0 16 16 16 16 0 0 0-16-16zm176-144a48 48 0 0 0-48 48v64a16 16 0 0 1-16 16h-48v96h48a112.14 112.14 0 0 0 112-112v-64a48 48 0 0 0-48-48zM96 208v-64a48 48 0 0 0-96 0v64a112.14 112.14 0 0 0 112 112h48v-96h-48a16 16 0 0 1-16-16z" class="fa-secondary"/><path d="M352 96a96 96 0 0 0-192 0v416h192zm-128 80a16 16 0 1 1 16-16 16 16 0 0 1-16 16zm64 224a16 16 0 1 1 16-16 16 16 0 0 1-16 16z" class="fa-primary"/></svg>