<svg xmlns="http://www.w3.org/2000/svg" viewBox="0 0 512 512"><!-- Font Awesome Pro 5.15.4 by @fontawesome - https://fontawesome.com License - https://fontawesome.com/license (Commercial License) --><defs><style>.fa-secondary{opacity:.4}</style></defs><path d="M192 0H32A32 32 0 0 0 0 32v160a32 32 0 0 0 32 32h160a32 32 0 0 0 32-32V32a32 32 0 0 0-32-32zm-16 120a8 8 0 0 1-8 8H56a8 8 0 0 1-8-8v-16a8 8 0 0 1 8-8h112a8 8 0 0 1 8 8zm16 168H32a32 32 0 0 0-32 32v160a32 32 0 0 0 32 32h160a32 32 0 0 0 32-32V320a32 32 0 0 0-32-32zm-29.09 140.29a8 8 0 0 1 0 11.31l-11.31 11.31a8 8 0 0 1-11.31 0L112 422.63l-28.29 28.29a8 8 0 0 1-11.31 0L61.09 439.6a8 8 0 0 1 0-11.31L89.37 400l-28.29-28.29a8 8 0 0 1 0-11.31l11.31-11.31a8 8 0 0 1 11.31 0l28.3 28.28 28.29-28.29a8 8 0 0 1 11.31 0l11.31 11.31a8 8 0 0 1 0 11.31L134.63 400zM480 0H320a32 32 0 0 0-32 32v160a32 32 0 0 0 32 32h160a32 32 0 0 0 32-32V32a32 32 0 0 0-32-32zm-16 120a8 8 0 0 1-8 8h-40v40a8 8 0 0 1-8 8h-16a8 8 0 0 1-8-8v-40h-40a8 8 0 0 1-8-8v-16a8 8 0 0 1 8-8h40V56a8 8 0 0 1 8-8h16a8 8 0 0 1 8 8v40h40a8 8 0 0 1 8 8z" class="fa-secondary"/><path d="M162.91 360.39l-11.31-11.31a8 8 0 0 0-11.31 0L112 377.37l-28.3-28.28a8 8 0 0 0-11.31 0L61.08 360.4a8 8 0 0 0 0 11.31L89.37 400l-28.28 28.29a8 8 0 0 0 0 11.31l11.31 11.32a8 8 0 0 0 11.31 0L112 422.63l28.29 28.28a8 8 0 0 0 11.31 0l11.31-11.31a8 8 0 0 0 0-11.31L134.63 400l28.28-28.3a8 8 0 0 0 0-11.31zM344 128h40v40a8 8 0 0 0 8 8h16a8 8 0 0 0 8-8v-40h40a8 8 0 0 0 8-8v-16a8 8 0 0 0-8-8h-40V56a8 8 0 0 0-8-8h-16a8 8 0 0 0-8 8v40h-40a8 8 0 0 0-8 8v16a8 8 0 0 0 8 8zM168 96H56a8 8 0 0 0-8 8v16a8 8 0 0 0 8 8h112a8 8 0 0 0 8-8v-16a8 8 0 0 0-8-8zm312 192H320a32 32 0 0 0-32 32v160a32 32 0 0 0 32 32h160a32 32 0 0 0 32-32V320a32 32 0 0 0-32-32zm-16 152a8 8 0 0 1-8 8H344a8 8 0 0 1-8-8v-16a8 8 0 0 1 8-8h112a8 8 0 0 1 8 8zm0-64a8 8 0 0 1-8 8H344a8 8 0 0 1-8-8v-16a8 8 0 0 1 8-8h112a8 8 0 0 1 8 8z" class="fa-primary"/></svg>