<svg xmlns="http://www.w3.org/2000/svg" viewBox="0 0 448 512"><!-- Font Awesome Pro 5.15.4 by @fontawesome - https://fontawesome.com License - https://fontawesome.com/license (Commercial License) --><defs><style>.fa-secondary{opacity:.4}</style></defs><path d="M0 192v272a48 48 0 0 0 48 48h352a48 48 0 0 0 48-48V192zm324.13 141.91a11.92 11.92 0 0 1-3.53 6.89L281 379.4l9.4 54.6a12 12 0 0 1-17.4 12.6l-49-25.8-48.9 25.8a12 12 0 0 1-17.4-12.6l9.4-54.6-39.6-38.6a12 12 0 0 1 6.6-20.5l54.7-8 24.5-49.6a12 12 0 0 1 21.5 0l24.5 49.6 54.7 8a12 12 0 0 1 10.13 13.61zM304 128h32a16 16 0 0 0 16-16V16a16 16 0 0 0-16-16h-32a16 16 0 0 0-16 16v96a16 16 0 0 0 16 16zm-192 0h32a16 16 0 0 0 16-16V16a16 16 0 0 0-16-16h-32a16 16 0 0 0-16 16v96a16 16 0 0 0 16 16z" class="fa-secondary"/><path d="M314 320.3l-54.7-8-24.5-49.6a12 12 0 0 0-21.5 0l-24.5 49.6-54.7 8a12 12 0 0 0-6.6 20.5l39.6 38.6-9.4 54.6a12 12 0 0 0 17.4 12.6l48.9-25.8 49 25.8a12 12 0 0 0 17.4-12.6l-9.4-54.6 39.6-38.6a12 12 0 0 0-6.6-20.5zM400 64h-48v48a16 16 0 0 1-16 16h-32a16 16 0 0 1-16-16V64H160v48a16 16 0 0 1-16 16h-32a16 16 0 0 1-16-16V64H48a48 48 0 0 0-48 48v80h448v-80a48 48 0 0 0-48-48z" class="fa-primary"/></svg>