<svg xmlns="http://www.w3.org/2000/svg" viewBox="0 0 448 512"><!-- Font Awesome Pro 5.15.4 by @fontawesome - https://fontawesome.com License - https://fontawesome.com/license (Commercial License) --><defs><style>.fa-secondary{opacity:.4}</style></defs><path d="M0 192v272a48 48 0 0 0 48 48h352a48 48 0 0 0 48-48V192zm345.26 113l-143 141.8a12 12 0 0 1-17 0l-82.6-83.26a12 12 0 0 1 .06-17l.08-.08 28.4-28.17a12 12 0 0 1 17 0l46 46.36 106-105.19a12 12 0 0 1 17 0L345.3 288a12 12 0 0 1-.04 17zM304 128h32a16 16 0 0 0 16-16V16a16 16 0 0 0-16-16h-32a16 16 0 0 0-16 16v96a16 16 0 0 0 16 16zm-192 0h32a16 16 0 0 0 16-16V16a16 16 0 0 0-16-16h-32a16 16 0 0 0-16 16v96a16 16 0 0 0 16 16z" class="fa-secondary"/><path d="M345.33 288l-28.2-28.4a12 12 0 0 0-17-.1l-106 105.19-46-46.36a12 12 0 0 0-17-.09l-28.4 28.17a12 12 0 0 0-.1 17l82.6 83.26a12 12 0 0 0 17 .1l143-141.8a12 12 0 0 0 .1-17zM400 64h-48v48a16 16 0 0 1-16 16h-32a16 16 0 0 1-16-16V64H160v48a16 16 0 0 1-16 16h-32a16 16 0 0 1-16-16V64H48a48 48 0 0 0-48 48v80h448v-80a48 48 0 0 0-48-48z" class="fa-primary"/></svg>