<svg xmlns="http://www.w3.org/2000/svg" viewBox="0 0 448 512"><!-- Font Awesome Pro 5.15.4 by @fontawesome - https://fontawesome.com License - https://fontawesome.com/license (Commercial License) --><defs><style>.fa-secondary{opacity:.4}</style></defs><path d="M0 192v272a48 48 0 0 0 48 48h352a48 48 0 0 0 48-48V192zm328 180a12 12 0 0 1-12 12h-60v60a12 12 0 0 1-12 12h-40a12 12 0 0 1-12-12v-60h-60a12 12 0 0 1-12-12v-40a12 12 0 0 1 12-12h60v-60a12 12 0 0 1 12-12h40a12 12 0 0 1 12 12v60h60a12 12 0 0 1 12 12zm-24-244h32a16 16 0 0 0 16-16V16a16 16 0 0 0-16-16h-32a16 16 0 0 0-16 16v96a16 16 0 0 0 16 16zm-192 0h32a16 16 0 0 0 16-16V16a16 16 0 0 0-16-16h-32a16 16 0 0 0-16 16v96a16 16 0 0 0 16 16z" class="fa-secondary"/><path d="M316 320h-60v-60a12 12 0 0 0-12-12h-40a12 12 0 0 0-12 12v60h-60a12 12 0 0 0-12 12v40a12 12 0 0 0 12 12h60v60a12 12 0 0 0 12 12h40a12 12 0 0 0 12-12v-60h60a12 12 0 0 0 12-12v-40a12 12 0 0 0-12-12zm84-256h-48v48a16 16 0 0 1-16 16h-32a16 16 0 0 1-16-16V64H160v48a16 16 0 0 1-16 16h-32a16 16 0 0 1-16-16V64H48a48 48 0 0 0-48 48v80h448v-80a48 48 0 0 0-48-48z" class="fa-primary"/></svg>