<svg xmlns="http://www.w3.org/2000/svg" viewBox="0 0 448 512"><!-- Font Awesome Pro 5.15.4 by @fontawesome - https://fontawesome.com License - https://fontawesome.com/license (Commercial License) --><defs><style>.fa-secondary{opacity:.4}</style></defs><path d="M0 192v272a48 48 0 0 0 48 48h352a48 48 0 0 0 48-48V192zm196.18 48h55.02a12 12 0 0 1 12 12v.83l-7.2 112A12 12 0 0 1 244 376h-40a12 12 0 0 1-12-11.2l-7.2-112a12.1 12.1 0 0 1 11.38-12.8zM224 472a40 40 0 1 1 40-40 40 40 0 0 1-40 40zM112 128h32a16 16 0 0 0 16-16V16a16 16 0 0 0-16-16h-32a16 16 0 0 0-16 16v96a16 16 0 0 0 16 16zm192 0h32a16 16 0 0 0 16-16V16a16 16 0 0 0-16-16h-32a16 16 0 0 0-16 16v96a16 16 0 0 0 16 16z" class="fa-secondary"/><path d="M224 392a40 40 0 1 0 40 40 40 40 0 0 0-40-40zm-20-16h40a12 12 0 0 0 12-11.2l7.2-112A12 12 0 0 0 252 240h-55.2a12.1 12.1 0 0 0-12 12.18v.62l7.2 112a12 12 0 0 0 12 11.2zM400 64h-48v48a16 16 0 0 1-16 16h-32a16 16 0 0 1-16-16V64H160v48a16 16 0 0 1-16 16h-32a16 16 0 0 1-16-16V64H48a48 48 0 0 0-48 48v80h448v-80a48 48 0 0 0-48-48z" class="fa-primary"/></svg>