<svg xmlns="http://www.w3.org/2000/svg" viewBox="0 0 448 512"><!-- Font Awesome Pro 5.15.4 by @fontawesome - https://fontawesome.com License - https://fontawesome.com/license (Commercial License) --><defs><style>.fa-secondary{opacity:.4}</style></defs><path d="M0 192v272a48 48 0 0 0 48 48h352a48 48 0 0 0 48-48V192zm317.4 208.1a12 12 0 0 1 0 17l-28.3 28.3a12 12 0 0 1-17 0L224 397.3l-48.1 48.1a12 12 0 0 1-17 0l-28.3-28.3a12 12 0 0 1 0-17l48.1-48.1-48.1-48.1a12 12 0 0 1 0-17l28.3-28.3a12 12 0 0 1 17 0l48.1 48.1 48.1-48.1a12 12 0 0 1 17 0l28.3 28.3a12 12 0 0 1 0 17L269.3 352zM304 128h32a16 16 0 0 0 16-16V16a16 16 0 0 0-16-16h-32a16 16 0 0 0-16 16v96a16 16 0 0 0 16 16zm-192 0h32a16 16 0 0 0 16-16V16a16 16 0 0 0-16-16h-32a16 16 0 0 0-16 16v96a16 16 0 0 0 16 16z" class="fa-secondary"/><path d="M317.43 286.93l-28.3-28.3a12 12 0 0 0-17 0L224 306.7l-48.1-48.1a12 12 0 0 0-17 0l-28.3 28.3a12 12 0 0 0 0 17l48.1 48.1-48.1 48.1a12 12 0 0 0 0 17l28.3 28.3a12 12 0 0 0 17 0l48.1-48.1 48.1 48.1a12 12 0 0 0 17 0l28.3-28.3a12 12 0 0 0 0-17L269.3 352l48.1-48.1a12 12 0 0 0 .03-16.97zM400 64h-48v48a16 16 0 0 1-16 16h-32a16 16 0 0 1-16-16V64H160v48a16 16 0 0 1-16 16h-32a16 16 0 0 1-16-16V64H48a48 48 0 0 0-48 48v80h448v-80a48 48 0 0 0-48-48z" class="fa-primary"/></svg>