<svg xmlns="http://www.w3.org/2000/svg" viewBox="0 0 576 512"><!-- Font Awesome Pro 5.15.4 by @fontawesome - https://fontawesome.com License - https://fontawesome.com/license (Commercial License) --><defs><style>.fa-secondary{opacity:.4}</style></defs><path d="M336.2 160H96v-32a32 32 0 0 1 32-32h176a16 16 0 0 0 16-16V48a16 16 0 0 0-16-16H128a96 96 0 0 0-96 96v34.89A47.66 47.66 0 0 0 0 207.8v224.4A47.81 47.81 0 0 0 47.8 480h288.4a47.81 47.81 0 0 0 47.8-47.8V207.8a47.81 47.81 0 0 0-47.8-47.8zM320 249.6a6.41 6.41 0 0 1-6.4 6.4H70.4a6.41 6.41 0 0 1-6.4-6.4v-19.2a6.41 6.41 0 0 1 6.4-6.4h243.2a6.41 6.41 0 0 1 6.4 6.4z" class="fa-secondary"/><path d="M525.59 165.7L416 241.3v157.4l109.59 75.5c21.21 14.6 50.41-.29 50.41-25.79V191.5c0-25.41-29.09-40.41-50.41-25.8zM313.6 224H70.4a6.41 6.41 0 0 0-6.4 6.4v19.2a6.41 6.41 0 0 0 6.4 6.4h243.2a6.41 6.41 0 0 0 6.4-6.4v-19.2a6.41 6.41 0 0 0-6.4-6.4z" class="fa-primary"/></svg>