<svg xmlns="http://www.w3.org/2000/svg" viewBox="0 0 576 512"><!-- Font Awesome Pro 5.15.4 by @fontawesome - https://fontawesome.com License - https://fontawesome.com/license (Commercial License) --><defs><style>.fa-secondary{opacity:.4}</style></defs><path d="M368.2 288H16a16 16 0 0 0-16 16v32a16 16 0 0 0 16 16h48v112.2a47.81 47.81 0 0 0 47.8 47.8h256.4a47.81 47.81 0 0 0 47.8-47.8V335.8a47.81 47.81 0 0 0-47.8-47.8zM128 192a64 64 0 1 0-64-64 64.07 64.07 0 0 0 64 64zm224 0a64 64 0 1 0-64-64 64.07 64.07 0 0 0 64 64z" class="fa-secondary"/><path d="M535.68 260.59L448 321.07V447l87.68 60.4c17 11.68 40.32-.23 40.32-20.64V281.23c0-20.33-23.27-32.33-40.32-20.64zM352 0c-48.57 0-90.31 27.37-112 67.24C218.31 27.37 176.57 0 128 0a128 128 0 0 0 0 256h224a128 128 0 0 0 0-256zM128 192a64 64 0 1 1 64-64 64.07 64.07 0 0 1-64 64zm224 0a64 64 0 1 1 64-64 64.07 64.07 0 0 1-64 64z" class="fa-primary"/></svg>