<svg xmlns="http://www.w3.org/2000/svg" viewBox="0 0 512 512"><!-- Font Awesome Pro 5.15.4 by @fontawesome - https://fontawesome.com License - https://fontawesome.com/license (Commercial License) --><defs><style>.fa-secondary{opacity:.4}</style></defs><path d="M256 232a88 88 0 1 0 88 88 88 88 0 0 0-88-88zm0 56a32.09 32.09 0 0 0-32 32 16 16 0 0 1-32 0 64.06 64.06 0 0 1 64-64 16 16 0 0 1 0 32zM480 32H256l-64 48H16A16 16 0 0 0 0 96v64h512V64a32.09 32.09 0 0 0-32-32z" class="fa-secondary"/><path d="M176 48a16 16 0 0 0-16-16H64a16 16 0 0 0-16 16v32h128zM0 160v272a48 48 0 0 0 48 48h416a48 48 0 0 0 48-48V160zm256 280a120 120 0 1 1 120-120 120 120 0 0 1-120 120z" class="fa-primary"/></svg>