<svg xmlns="http://www.w3.org/2000/svg" viewBox="0 0 512 512"><!-- Font Awesome Pro 5.15.4 by @fontawesome - https://fontawesome.com License - https://fontawesome.com/license (Commercial License) --><defs><style>.fa-secondary{opacity:.4}</style></defs><path d="M344 288a88 88 0 1 1-88-88 88.13 88.13 0 0 1 88 88z" class="fa-secondary"/><path d="M464 96h-88l-12.4-32.9A47.93 47.93 0 0 0 318.7 32H193.2a47.93 47.93 0 0 0-44.9 31.1L136 96H48a48 48 0 0 0-48 48v288a48 48 0 0 0 48 48h416a48 48 0 0 0 48-48V144a48 48 0 0 0-48-48zM256 408a120 120 0 1 1 120-120 120.1 120.1 0 0 1-120 120z" class="fa-primary"/></svg>