<svg xmlns="http://www.w3.org/2000/svg" viewBox="0 0 640 512"><!-- Font Awesome Pro 5.15.4 by @fontawesome - https://fontawesome.com License - https://fontawesome.com/license (Commercial License) --><defs><style>.fa-secondary{opacity:.4}</style></defs><path d="M640 464v32a16 16 0 0 1-16 16H16a16 16 0 0 1-16-16v-32a16 16 0 0 1 16-16h608a16 16 0 0 1 16 16z" class="fa-secondary"/><path d="M40.68 448l239.79-330.25-53.41-73.55a16 16 0 0 1 3.54-22.35l25.88-18.8a16 16 0 0 1 22.35 3.55L320 63.3l41.16-56.69a16 16 0 0 1 22.35-3.55l25.9 18.79A16 16 0 0 1 413 44.2l-53.41 73.55L599.32 448h-163L320 288 203.64 448z" class="fa-primary"/></svg>