<svg xmlns="http://www.w3.org/2000/svg" viewBox="0 0 512 512"><!-- Font Awesome Pro 5.15.4 by @fontawesome - https://fontawesome.com License - https://fontawesome.com/license (Commercial License) --><defs><style>.fa-secondary{opacity:.4}</style></defs><path d="M86.71 355.33l122.12 76.32 75.66-45-122.1-76.31zM15.57 397.6a32 32 0 0 0-11 43.9l32.8 54.9a32.05 32.05 0 0 0 27.5 15.6 32.7 32.7 0 0 0 16.4-4.5l96.62-57.45-122.13-76.33zm249.3-259.8a32.05 32.05 0 0 0 27.5 15.6 32.7 32.7 0 0 0 16.4-4.5l18.91-11.27-41.13-123.38a160 160 0 0 0-16 8.35L243.07 39a32 32 0 0 0-11 43.9zm95.54-8.8l93.11-93.11A160.26 160.26 0 0 0 316.87 4l41.5 124.51c.69.14 1.37.28 2.04.49zm137.06-37a162.39 162.39 0 0 0-21.26-33.58l-92.74 92.73c.26.89.48 1.79.66 2.69l123.2 41.07c8.27-33.67 5.82-69.75-9.86-102.91zM193.34 292l122.09 76.3 75.65-45L269 247zm175.83-104.5L300 228.62l122 76.28 6.55-3.9a173 173 0 0 0 68.17-75.89l-123-41a32 32 0 0 1-4.55 3.39z" class="fa-secondary"/><path d="M336.27 132.5a31.46 31.46 0 0 1 16.4-4.5 31.89 31.89 0 0 1 5.7.52L316.87 4a159.24 159.24 0 0 0-30.32 10.24l41.13 123.38zM55.76 373.72l122.13 76.33 30.94-18.4-122.12-76.32zM380.17 143.6a31.62 31.62 0 0 1 3.3 7.55l92.74-92.73a159.17 159.17 0 0 0-22.69-22.57L360.41 129a32 32 0 0 1 19.76 14.6zM162.39 310.36l122.1 76.31 30.94-18.4L193.34 292zM269 247l122.06 76.28L422 304.9l-122-76.28zm115.11-93.17a32.2 32.2 0 0 1-10.35 30.28l123 41a167.3 167.3 0 0 0 10.59-30.2z" class="fa-primary"/></svg>