<svg xmlns="http://www.w3.org/2000/svg" viewBox="0 0 576 512"><!-- Font Awesome Pro 5.15.4 by @fontawesome - https://fontawesome.com License - https://fontawesome.com/license (Commercial License) --><defs><style>.fa-secondary{opacity:.4}</style></defs><path d="M112 32A112 112 0 0 0 0 144v112h224V144A112 112 0 0 0 112 32zm312.2 80.8a114.33 114.33 0 0 0-159.3-28.1c-3.12 2.18-6.07 4.51-8.9 6.94v179.67l47 67.1 187.38-131.06z" class="fa-secondary"/><path d="M0 368a112 112 0 0 0 224 0V256H0zm555.3-67.9l-64.92-92.75L303 338.41l65 92.79a114.31 114.31 0 1 0 187.3-131.1z" class="fa-primary"/></svg>