<svg xmlns="http://www.w3.org/2000/svg" viewBox="0 0 512 512"><!-- Font Awesome Pro 5.15.4 by @fontawesome - https://fontawesome.com License - https://fontawesome.com/license (Commercial License) --><defs><style>.fa-secondary{opacity:.4}</style></defs><path d="M144 448v32a32 32 0 0 1-32 32H80a32 32 0 0 1-32-32v-46.06A63.71 63.71 0 0 0 88 448zm175.5-224h-127a48 48 0 0 0-44.57 30.17L134.4 288h243.2l-13.53-33.82A48 48 0 0 0 319.5 224zM424 448h-56v32a32 32 0 0 0 32 32h32a32 32 0 0 0 32-32v-46.06A63.71 63.71 0 0 1 424 448zm79.91-344h-56l-24-24 24-24h56a8.09 8.09 0 0 0 7.25-11.64 79.52 79.52 0 0 0-86.85-42.87c-25.65 4.86-46.72 23-57.05 46.51H145C132.63 19.83 104.81 0 72.07 0A79.48 79.48 0 0 0 .84 44.37 8.09 8.09 0 0 0 8.09 56h56l24 24-24 24h-56a8.09 8.09 0 0 0-7.25 11.64 79.52 79.52 0 0 0 86.84 42.87c25.65-4.86 46.73-23 57-46.51H367c12.38 28.17 40.2 48 72.94 48a79.48 79.48 0 0 0 71.23-44.37 8.08 8.08 0 0 0-7.26-11.63z" class="fa-secondary"/><path d="M448.49 292.91l-5.07-12.67-19.93-49.83a111.47 111.47 0 0 0-104-70.4h-127a111.46 111.46 0 0 0-104 70.4l-19.91 49.82-5.07 12.67A64 64 0 0 0 24 352v32a64 64 0 0 0 64 64h336a64 64 0 0 0 64-64v-32a64 64 0 0 0-39.51-59.09zm-300.56-38.73A48 48 0 0 1 192.5 224h127a48 48 0 0 1 44.57 30.17L377.6 288H134.4zM96 399.8c-19.2 0-32-12.76-32-31.9S76.8 336 96 336s48 28.71 48 47.85-28.8 15.95-48 15.95zm352-31.9c0 19.14-12.8 31.9-32 31.9s-48 3.19-48-15.95S396.8 336 416 336s32 12.76 32 31.9z" class="fa-primary"/></svg>