<svg xmlns="http://www.w3.org/2000/svg" viewBox="0 0 480 512"><!-- Font Awesome Pro 5.15.4 by @fontawesome - https://fontawesome.com License - https://fontawesome.com/license (Commercial License) --><defs><style>.fa-secondary{opacity:.4}</style></defs><path d="M176.5,128h127a48,48,0,0,1,44.57,30.17L368,208H112l19.93-49.83A48,48,0,0,1,176.5,128ZM416,384H368v32a32,32,0,0,0,32,32h32a32,32,0,0,0,32-32V368a31.28,31.28,0,0,0-.43-5.2A63.81,63.81,0,0,1,416,384ZM64,384a63.81,63.81,0,0,1-47.57-21.2A31.28,31.28,0,0,0,16,368v48a32,32,0,0,0,32,32H80a32,32,0,0,0,32-32V384Z" class="fa-secondary"/><path d="M438.66,212.33,407.49,134.4A111.47,111.47,0,0,0,303.5,64h-127a111.47,111.47,0,0,0-104,70.4L41.34,212.33A63.88,63.88,0,0,0,0,272v48a64,64,0,0,0,64,64H416a64,64,0,0,0,64-64V272A63.88,63.88,0,0,0,438.66,212.33ZM131.93,158.17A48,48,0,0,1,176.5,128h127a48,48,0,0,1,44.57,30.17L368,208H112ZM80,319.8c-19.2,0-32-12.76-32-31.9S60.8,256,80,256s48,28.71,48,47.85S99.2,319.8,80,319.8Zm320,0c-19.2,0-48,3.19-48-15.95S380.8,256,400,256s32,12.76,32,31.9S419.2,319.8,400,319.8Z" class="fa-primary"/></svg>