<svg xmlns="http://www.w3.org/2000/svg" viewBox="0 0 640 512"><!-- Font Awesome Pro 5.15.4 by @fontawesome - https://fontawesome.com License - https://fontawesome.com/license (Commercial License) --><defs><style>.fa-secondary{opacity:.4}</style></defs><path d="M428.07 254.18L441.6 288H198.4l13.53-33.82A48 48 0 0 1 256.5 224h127a48 48 0 0 1 44.57 30.18zM152 448a63.71 63.71 0 0 1-40-14.06V480a32 32 0 0 0 32 32h32a32 32 0 0 0 32-32v-32zm479.76-279.77L331.67 3a24 24 0 0 0-23.34 0L8.24 168.23A16 16 0 0 0 2 190l7.8 14a16 16 0 0 0 21.79 6.22L320 51.53l288.41 158.73A16 16 0 0 0 630.2 204l7.8-14a16 16 0 0 0-6.24-21.77zM488 448h-56v32a32 32 0 0 0 32 32h32a32 32 0 0 0 32-32v-46.06A63.71 63.71 0 0 1 488 448z" class="fa-secondary"/><path d="M512.49 292.91l-5.07-12.67-19.93-49.83a111.47 111.47 0 0 0-104-70.4h-127a111.46 111.46 0 0 0-104 70.4l-19.93 49.82-5.07 12.67A64 64 0 0 0 88 352v32a64 64 0 0 0 64 64h336a64 64 0 0 0 64-64v-32a64 64 0 0 0-39.51-59.09zm-300.56-38.73A48 48 0 0 1 256.5 224h127a48 48 0 0 1 44.57 30.17L441.6 288H198.4zM160 399.8c-19.2 0-32-12.76-32-31.9s12.8-31.9 32-31.9 48 28.71 48 47.85-28.8 15.95-48 15.95zm352-31.9c0 19.14-12.8 31.9-32 31.9s-48 3.19-48-15.95S460.8 336 480 336s32 12.76 32 31.9z" class="fa-primary"/></svg>