<svg xmlns="http://www.w3.org/2000/svg" viewBox="0 0 512 512"><!-- Font Awesome Pro 5.15.4 by @fontawesome - https://fontawesome.com License - https://fontawesome.com/license (Commercial License) --><defs><style>.fa-secondary{opacity:.4}</style></defs><path d="M176 64H80a16 16 0 0 0-16 16v48h128V80a16 16 0 0 0-16-16zm256 0h-96a16 16 0 0 0-16 16v48h128V80a16 16 0 0 0-16-16z" class="fa-secondary"/><path d="M480 128H32a32 32 0 0 0-32 32v256a32 32 0 0 0 32 32h448a32 32 0 0 0 32-32V160a32 32 0 0 0-32-32zM192 264a8 8 0 0 1-8 8H72a8 8 0 0 1-8-8v-16a8 8 0 0 1 8-8h112a8 8 0 0 1 8 8zm256 0a8 8 0 0 1-8 8h-40v40a8 8 0 0 1-8 8h-16a8 8 0 0 1-8-8v-40h-40a8 8 0 0 1-8-8v-16a8 8 0 0 1 8-8h40v-40a8 8 0 0 1 8-8h16a8 8 0 0 1 8 8v40h40a8 8 0 0 1 8 8z" class="fa-primary"/></svg>