<svg xmlns="http://www.w3.org/2000/svg" viewBox="0 0 640 512"><!-- Font Awesome Pro 5.15.4 by @fontawesome - https://fontawesome.com License - https://fontawesome.com/license (Commercial License) --><defs><style>.fa-secondary{opacity:.4}</style></defs><path d="M256,192V128a32,32,0,0,0-32-32H96a32,32,0,0,0-32,32v64a32,32,0,0,0,32,32H224A32,32,0,0,0,256,192ZM416,96H352a32,32,0,0,0-32,32v64a32,32,0,0,0,32,32h64a32,32,0,0,0,32-32V128A32,32,0,0,0,416,96ZM192,304a88,88,0,1,0,88,88A88,88,0,0,0,192,304Z" class="fa-secondary"/><path d="M624,320H576V160A160,160,0,0,0,416,0H64A64,64,0,0,0,0,64V320a64,64,0,0,0,64,64h8.81C77,321.53,128.47,272,192,272s115,49.53,119.19,112H624a16,16,0,0,0,16-16V336A16,16,0,0,0,624,320ZM256,192a32,32,0,0,1-32,32H96a32,32,0,0,1-32-32V128A32,32,0,0,1,96,96H224a32,32,0,0,1,32,32Zm192,0a32,32,0,0,1-32,32H352a32,32,0,0,1-32-32V128a32,32,0,0,1,32-32h64a32,32,0,0,1,32,32Z" class="fa-primary"/></svg>