<svg xmlns="http://www.w3.org/2000/svg" viewBox="0 0 512 512"><!-- Font Awesome Pro 5.15.4 by @fontawesome - https://fontawesome.com License - https://fontawesome.com/license (Commercial License) --><defs><style>.fa-secondary{opacity:.4}</style></defs><path d="M256 8C119 8 8 119 8 256s111 248 248 248 248-111 248-248S393 8 256 8zm131.5 220.5l-123 123a12 12 0 0 1-17 0l-123-123A12 12 0 0 1 133 208h246a12 12 0 0 1 8.5 20.5z" class="fa-secondary"/><path d="M387.5 228.5l-123 123a12 12 0 0 1-17 0l-123-123A12 12 0 0 1 133 208h246a12 12 0 0 1 8.5 20.5z" class="fa-primary"/></svg>