<svg xmlns="http://www.w3.org/2000/svg" viewBox="0 0 448 512"><!-- Font Awesome Pro 5.15.4 by @fontawesome - https://fontawesome.com License - https://fontawesome.com/license (Commercial License) --><defs><style>.fa-secondary{opacity:.4}</style></defs><path d="M400 32H48A48 48 0 0 0 0 80v352a48 48 0 0 0 48 48h352a48 48 0 0 0 48-48V80a48 48 0 0 0-48-48zm-83.82 232L182.29 380.65c-8.22 7.16-22.29 2.09-22.29-8V139.4c0-10.14 14.06-15.21 22.29-8.05L316.18 248a10.38 10.38 0 0 1 0 16z" class="fa-secondary"/><path d="M316.18 264L182.29 380.65c-8.22 7.16-22.29 2.09-22.29-8V139.4c0-10.14 14.07-15.21 22.29-8.05L316.18 248a10.38 10.38 0 0 1 0 16z" class="fa-primary"/></svg>