<svg xmlns="http://www.w3.org/2000/svg" viewBox="0 0 640 512"><!-- Font Awesome Pro 5.15.4 by @fontawesome - https://fontawesome.com License - https://fontawesome.com/license (Commercial License) --><defs><style>.fa-secondary{opacity:.4}</style></defs><path d="M252.13 243.23A131.77 131.77 0 0 1 375.07 160h38.41a57.49 57.49 0 0 0-32.9-36.44L376 112.2l-17.84-49.08A99.92 99.92 0 0 0 264.93 0H151.07a99.92 99.92 0 0 0-93.23 63.12L40 112.2l-4.55 11.36A57.39 57.39 0 0 0 0 176.55v28.69a57 57 0 0 0 21.52 44.46V288a32 32 0 0 0 32 32h22.07a32 32 0 0 0 32-32v-32h139.88zM111.11 92c6.53-16.92 22.36-28 40-28h113.82c17.6 0 33.42 11.1 40 28L317 128H99zM76 215.85c-14.4 0-24-9.57-24-23.92S61.6 168 76 168s36 21.53 36 35.89-21.6 11.96-36 11.96z" class="fa-secondary"/><path d="M604.58 315.56L600 304.2l-17.87-49.08a99.92 99.92 0 0 0-93.2-63.12H375.07a99.92 99.92 0 0 0-93.23 63.12L264 304.2l-4.55 11.36a57.39 57.39 0 0 0-35.42 53v28.69a57 57 0 0 0 21.52 44.46V480a32 32 0 0 0 32 32h22.07a32 32 0 0 0 32-32v-32h200.79v32a32 32 0 0 0 32 32h22.07a32 32 0 0 0 32-32v-38.3A57 57 0 0 0 640 397.24v-28.69a57.39 57.39 0 0 0-35.42-52.99zM335.11 284c6.53-16.92 22.36-28 40-28h113.82c17.6 0 33.42 11.1 40 28L541 320H323zM300 407.85c-14.4 0-24-9.57-24-23.93S285.6 360 300 360s36 21.53 36 35.89-21.6 11.96-36 11.96zm264 0c-14.4 0-36 2.39-36-12S549.6 360 564 360s24 9.57 24 23.92-9.6 23.93-24 23.93z" class="fa-primary"/></svg>