<svg xmlns="http://www.w3.org/2000/svg" viewBox="0 0 512 512"><!-- Font Awesome Pro 5.15.4 by @fontawesome - https://fontawesome.com License - https://fontawesome.com/license (Commercial License) --><defs><style>.fa-secondary{opacity:.4}</style></defs><path d="M458.63 255.92l46-45c13.71-13 7.34-36-10.66-40.34l-62.66-16 17.69-62c5-17.85-11.84-34.67-29.69-29.67l-62 17.65-16-62.67C337.09.2 313.75-6.28 301 7.23l-45 46.35-45-46.35C198.37-6.13 175 0 170.69 17.89l-16 62.67-62-17.65c-17.82-5-34.63 11.82-29.69 29.67l17.69 62-62.66 16c-18 4.3-24.37 27.36-10.66 40.34l46 45-46 45C-6.31 313.91.06 337 18.06 341.27l62.66 16-17.72 62c-5 17.84 11.84 34.67 29.69 29.67l62-17.67 16 62.67c4.43 18.58 27.68 24 40.31 10.67l45-46 45 46c12.5 13.49 36 7.49 40.31-10.67l16-62.67 62 17.67c17.85 5 34.66-11.83 29.66-29.67l-17.66-62 62.66-16c18-4.31 24.37-27.38 10.66-40.35zm-39.84 32.79a12 12 0 0 1-5.43 20.2l-45.95 11.73 12.71 44.63a12 12 0 0 1-14.83 14.83l-44.58-12.71-11.74 46a12 12 0 0 1-20.2 5.43L256 385.34l-32.75 33.47a12 12 0 0 1-20.25-5.43l-11.74-46-44.53 12.72a12 12 0 0 1-14.83-14.83l12.74-44.63-46-11.73a12 12 0 0 1-5.43-20.2L126.67 256 93.2 223.21A12 12 0 0 1 98.63 203l46-11.73-12.73-44.67a12 12 0 0 1 14.83-14.83l44.61 12.71L203 99a12 12 0 0 1 20.24-5.4L256 127.39l32.82-33.81A12 12 0 0 1 309.06 99l11.61 45.5 44.58-12.7a12 12 0 0 1 14.83 14.83l-12.71 44.63 46 11.74a12 12 0 0 1 5.43 20.2L385.34 256z" class="fa-secondary"/><path d="M418.79 288.71a12 12 0 0 1-5.43 20.2l-45.95 11.73 12.71 44.63a12 12 0 0 1-14.83 14.83l-44.58-12.71-11.74 46a12 12 0 0 1-20.2 5.43L256 385.34l-32.75 33.47a12 12 0 0 1-20.25-5.43l-11.74-46-44.53 12.72a12 12 0 0 1-14.83-14.83l12.74-44.63-46-11.73a12 12 0 0 1-5.43-20.2L126.67 256 93.2 223.21A12 12 0 0 1 98.63 203l46-11.73-12.73-44.67a12 12 0 0 1 14.83-14.83l44.61 12.71L203 99a12 12 0 0 1 20.24-5.4L256 127.39l32.82-33.81A12 12 0 0 1 309.06 99l11.61 45.5 44.58-12.7a12 12 0 0 1 14.83 14.83l-12.71 44.63 46 11.74a12 12 0 0 1 5.43 20.2L385.34 256z" class="fa-primary"/></svg>