<svg xmlns="http://www.w3.org/2000/svg" viewBox="0 0 640 512"><!-- Font Awesome Pro 5.15.4 by @fontawesome - https://fontawesome.com License - https://fontawesome.com/license (Commercial License) --><defs><style>.fa-secondary{opacity:.4}</style></defs><path d="M624 448h-16V40a40 40 0 0 0-40-40H72a40 40 0 0 0-40 40v408H16a16 16 0 0 0-16 16v32a16 16 0 0 0 16 16h608a16 16 0 0 0 16-16v-32a16 16 0 0 0-16-16zm-528 0V64h448v384z" class="fa-secondary"/><path d="M544 64v384h-64v-64H288v64H96V64z" class="fa-primary"/></svg>