<svg xmlns="http://www.w3.org/2000/svg" viewBox="0 0 512 512"><!-- Font Awesome Pro 5.15.4 by @fontawesome - https://fontawesome.com License - https://fontawesome.com/license (Commercial License) --><defs><style>.fa-secondary{opacity:.4}</style></defs><path d="M500 384a12 12 0 0 1 12 12v40a12 12 0 0 1-12 12H12a12 12 0 0 1-12-12V76a12 12 0 0 1 12-12h40a12 12 0 0 1 12 12v308z" class="fa-secondary"/><path d="M390.1 164.2L480 352H96V248l86.8-144.7a12 12 0 0 1 19.9-1L288 216l84.7-56.5a12 12 0 0 1 17.4 4.7z" class="fa-primary"/></svg>