<svg xmlns="http://www.w3.org/2000/svg" viewBox="0 0 576 512"><!-- Font Awesome Pro 5.15.4 by @fontawesome - https://fontawesome.com License - https://fontawesome.com/license (Commercial License) --><defs><style>.fa-secondary{opacity:.4}</style></defs><path d="M256 0H96a64 64 0 0 0-64 64v384h288V64a64 64 0 0 0-64-64zm4.09 175.76l-93.7 139A12.41 12.41 0 0 1 156 320c-7.67 0-13.47-6.28-11.67-12.92l23-83.08H108c-7.25 0-12.85-5.59-11.89-11.89l16-107C112.9 99.9 118 96 124 96h68c7.88 0 13.62 6.54 11.6 13.21L192 160h57.7c9.24 0 15.01 8.78 10.39 15.76z" class="fa-secondary"/><path d="M336 448H16a16 16 0 0 0-16 16v32a16 16 0 0 0 16 16h320a16 16 0 0 0 16-16v-32a16 16 0 0 0-16-16zM108 224h59.33l-23 83.08c-1.8 6.64 4 12.92 11.67 12.92a12.41 12.41 0 0 0 10.39-5.24l93.7-139c4.62-7-1.15-15.76-10.39-15.76H192l11.6-50.79c2-6.67-3.72-13.21-11.6-13.21h-68c-6 0-11.1 3.9-11.89 9.11l-16 107c-.96 6.3 4.64 11.89 11.89 11.89zm452-96h-16V80a16 16 0 0 0-32 0v48h-32V80a16 16 0 0 0-32 0v48h-16a16 16 0 0 0-16 16v32c0 35.76 23.62 65.69 56 75.93v118.49c0 13.95-9.5 26.92-23.26 29.19A28 28 0 0 1 416 372v-28a88 88 0 0 0-88-88h-8v48h8a40 40 0 0 1 40 40v24.61c0 39.67 28.92 75.16 68.41 79a76.08 76.08 0 0 0 83.22-68.18c.24-2.47.37-4.95.37-7.43V251.93c32.38-10.24 56-40.17 56-75.93v-32a16 16 0 0 0-16-16z" class="fa-primary"/></svg>