<svg xmlns="http://www.w3.org/2000/svg" viewBox="0 0 320 512"><!-- Font Awesome Pro 5.15.4 by @fontawesome - https://fontawesome.com License - https://fontawesome.com/license (Commercial License) --><defs><style>.fa-secondary{opacity:.4}</style></defs><path d="M320 473.89V496a16 16 0 0 1-16 16H16a16 16 0 0 1-16-16v-22.11a16 16 0 0 1 8.85-14.31L32 448v-16a16 16 0 0 1 16-16h224a16 16 0 0 1 16 16v16l23.16 11.58a16 16 0 0 1 8.84 14.31z" class="fa-secondary"/><path d="M45.55 235.52l28.83 12.86a22.59 22.59 0 0 0 17.67.34l9.09-3.65a22.79 22.79 0 0 0 13.33-14.62l6.53-21.87a17.09 17.09 0 0 1 8.92-11.15l14.2-5.43v37.21a28.58 28.58 0 0 1-16.9 26.09L80.68 279C40.87 299.22 32.42 352.42 64 384h192c7-7.85 16-18.31 16-32V203.16C272 126.62 209.38 64 132.84 64H40.52A8.54 8.54 0 0 0 32 72.56 12.14 12.14 0 0 0 33.27 78l10.1 20.28-6.37 6.35a17.21 17.21 0 0 0-5 12.11v97.9a22.86 22.86 0 0 0 13.55 20.88zM80.07 128a16 16 0 1 1-15.94 16 16 16 0 0 1 15.94-16z" class="fa-primary"/></svg>