<svg xmlns="http://www.w3.org/2000/svg" viewBox="0 0 640 512"><!-- Font Awesome Pro 5.15.4 by @fontawesome - https://fontawesome.com License - https://fontawesome.com/license (Commercial License) --><defs><style>.fa-secondary{opacity:.4}</style></defs><path d="M519.48 243a12 12 0 0 0-17 0l-50.9 50.89a12 12 0 0 0 0 17l5.66 5.66a12 12 0 0 0 17 0l50.9-50.9a12 12 0 0 0 0-17zm-339.19-18.86h-8a12 12 0 0 0-12 12v72a12 12 0 0 0 12 12h8a12 12 0 0 0 12-12v-72a12 12 0 0 0-12-12zM240.06 32h-128a16 16 0 0 0-16 16v15.94a16 16 0 0 0 16 16h40.19V128h48V79.94h39.81a16 16 0 0 0 16-16V48a16 16 0 0 0-16-16zM528 96H400a16 16 0 0 0-16 16v16h160v-16a16 16 0 0 0-16-16z" class="fa-secondary"/><path d="M600 128H40a40 40 0 0 0-40 40v272a40 40 0 0 0 40 40h560a40 40 0 0 0 40-40V168a40 40 0 0 0-40-40zM176.29 416.06a112 112 0 1 1 112-111.95 111.95 111.95 0 0 1-112 111.95zm288 0a112 112 0 1 1 112-111.95 111.95 111.95 0 0 1-112 111.95z" class="fa-primary"/></svg>