<svg xmlns="http://www.w3.org/2000/svg" viewBox="0 0 448 512"><!-- Font Awesome Pro 5.15.4 by @fontawesome - https://fontawesome.com License - https://fontawesome.com/license (Commercial License) --><defs><style>.fa-secondary{opacity:.4}</style></defs><path d="M400 32H48A48 48 0 0 0 0 80v352a48 48 0 0 0 48 48h352a48 48 0 0 0 48-48V80a48 48 0 0 0-48-48zm-23.51 194.43L241 361.94a24 24 0 0 1-33.94 0L71.52 226.43a24 24 0 0 1 0-33.94l17-17a24 24 0 0 1 33.94 0L224 277.09l101.57-101.58a24 24 0 0 1 33.95 0l17 17a24 24 0 0 1-.03 33.92z" class="fa-secondary"/><path d="M71.52 192.49l17-17a24 24 0 0 1 33.94 0L224 277.09l101.57-101.58a24 24 0 0 1 33.95 0l17 17a24 24 0 0 1 0 34L241 361.94a24 24 0 0 1-33.94 0L71.52 226.43a24 24 0 0 1 0-33.94z" class="fa-primary"/></svg>