<svg xmlns="http://www.w3.org/2000/svg" viewBox="0 0 512 512"><!-- Font Awesome Pro 5.15.4 by @fontawesome - https://fontawesome.com License - https://fontawesome.com/license (Commercial License) --><defs><style>.fa-secondary{opacity:.4}</style></defs><path d="M256 8C119 8 8 119 8 256s111 248 248 248 248-111 248-248S393 8 256 8zm113.9 265L234.4 408.5a23.9 23.9 0 0 1-33.9 0l-17-17a23.9 23.9 0 0 1 0-33.9L285.1 256 183.5 154.4a23.9 23.9 0 0 1 0-33.9l17-17a23.9 23.9 0 0 1 33.9 0L369.9 239a24 24 0 0 1 0 34z" class="fa-secondary"/><path d="M369.9 273L234.4 408.5a23.9 23.9 0 0 1-33.9 0l-17-17a23.9 23.9 0 0 1 0-33.9L285.1 256 183.5 154.4a23.9 23.9 0 0 1 0-33.9l17-17a23.9 23.9 0 0 1 33.9 0L369.9 239a24 24 0 0 1 0 34z" class="fa-primary"/></svg>