<svg xmlns="http://www.w3.org/2000/svg" viewBox="0 0 512 512"><!-- Font Awesome Pro 5.15.4 by @fontawesome - https://fontawesome.com License - https://fontawesome.com/license (Commercial License) --><defs><style>.fa-secondary{opacity:.4}</style></defs><path d="M226.56 239l194-194a23.84 23.84 0 0 1 33.73-.1l.1.1L477 67.7a24.06 24.06 0 0 1 0 33.85L323.36 256l153.58 154.45a23.87 23.87 0 0 1 .1 33.75l-.1.1-22.65 22.7a23.84 23.84 0 0 1-33.73.1l-.1-.1-193.9-194a24.17 24.17 0 0 1 0-34z" class="fa-secondary"/><path d="M35 239L229 45a23.84 23.84 0 0 1 33.73-.1l.1.1 22.61 22.7a23.87 23.87 0 0 1 .1 33.75l-.1.1L131.76 256l153.68 154.45a24.06 24.06 0 0 1 0 33.85L262.79 467a23.84 23.84 0 0 1-33.73.1l-.1-.1L35 273a24.17 24.17 0 0 1 0-34z" class="fa-primary"/></svg>