<svg xmlns="http://www.w3.org/2000/svg" viewBox="0 0 384 512"><!-- Font Awesome Pro 5.15.4 by @fontawesome - https://fontawesome.com License - https://fontawesome.com/license (Commercial License) --><defs><style>.fa-secondary{opacity:.4}</style></defs><path d="M120 72a72 72 0 1 1 72 72 72 72 0 0 1-72-72z" class="fa-secondary"/><path d="M9.37 118.63a32 32 0 0 1 45.26-45.26L141.25 160h101.5l86.62-86.63a32 32 0 0 1 45.26 45.26L280 213.25V480a32 32 0 0 1-32 32h-16a32 32 0 0 1-32-32V368h-16v112a32 32 0 0 1-32 32h-16a32 32 0 0 1-32-32V213.25z" class="fa-primary"/></svg>