<svg xmlns="http://www.w3.org/2000/svg" viewBox="0 0 512 512"><!-- Font Awesome Pro 5.15.4 by @fontawesome - https://fontawesome.com License - https://fontawesome.com/license (Commercial License) --><defs><style>.fa-secondary{opacity:.4}</style></defs><path d="M7 224.51c-5-2.37-9.4 4.09-5.49 8l85.12 85.13A32 32 0 0 1 96 340.27V384h43.74a32 32 0 0 1 22.63 9.37l117.14 117.16c3.86 3.86 10.32-.56 8-5.49C206.4 333.11 63.36 251.26 7 224.51zM511.51 281C430.4 109.11 287.36 27.26 231 .51c-5-2.37-9.4 4.09-5.49 8l21.13 21.12A32 32 0 0 1 256 52.26V96h43.74a32 32 0 0 1 22.63 9.37l52.26 52.26a32 32 0 0 1 9.37 22.63V224h43.73a32 32 0 0 1 22.63 9.37l53.16 53.16c3.86 3.86 10.32-.53 7.99-5.53z" class="fa-secondary"/><path d="M2.67 15.13C-4.28 8.18 3.54-3.3 12.42.91A1010.5 1010.5 0 0 1 116.89 59 32.4 32.4 0 0 0 134 64h58v31.29a31.44 31.44 0 0 0 12.27 25c105.31 81.65 224.13 204 306.86 379.3 4.14 8.77-7.34 16.62-14.2 9.76l-84-84a32 32 0 0 0-22.64-9.35H352v-38.29a32 32 0 0 0-9.37-22.63l-89.71-89.71a32 32 0 0 0-22.63-9.37H192v-38.28a32 32 0 0 0-9.37-22.63z" class="fa-primary"/></svg>