<svg xmlns="http://www.w3.org/2000/svg" viewBox="0 0 384 512"><!-- Font Awesome Pro 5.15.4 by @fontawesome - https://fontawesome.com License - https://fontawesome.com/license (Commercial License) --><defs><style>.fa-secondary{opacity:.4}</style></defs><path d="M336 63h-80a64 64 0 0 1 64 64H64a64 64 0 0 1 64-64H48a48 48 0 0 0-48 48v352a48 48 0 0 0 48 48h288a48 48 0 0 0 48-48V111a48 48 0 0 0-48-48zm-32 369l-11.31 11.31a16 16 0 0 1-22.63 0L240 413.25l-30.06 30.06a16 16 0 0 1-22.63 0L176 432a16 16 0 0 1 0-22.63l30.06-30.06L146.74 320H128v48a16 16 0 0 1-16 16H96a16 16 0 0 1-16-16V208a16 16 0 0 1 16-16h80a63.8 63.8 0 0 1 30.54 119.92L240 345.38l29.9-29.9a16 16 0 0 1 22.63 0l11.3 11.31a16 16 0 0 1 0 22.63l-29.9 29.9L304 409.38a16 16 0 0 1 0 22.62zM192 256a16 16 0 0 1-16 16h-48v-32h48a16 16 0 0 1 16 16z" class="fa-secondary"/><path d="M273.93 379.32l29.9-29.9a16 16 0 0 0 0-22.63l-11.3-11.31a16 16 0 0 0-22.63 0l-29.9 29.9-33.46-33.46A63.8 63.8 0 0 0 176 192H96a16 16 0 0 0-16 16v160a16 16 0 0 0 16 16h16a16 16 0 0 0 16-16v-48h18.74l59.32 59.31L176 409.37a16 16 0 0 0 0 22.63l11.31 11.31a16 16 0 0 0 22.63 0L240 413.25l30.06 30.06a16 16 0 0 0 22.63 0L304 432a16 16 0 0 0 0-22.62zM176 272h-48v-32h48a16 16 0 0 1 0 32zm80-209a64 64 0 0 0-128 0 64 64 0 0 0-64 64h256a64 64 0 0 0-64-64zm-64 24a24 24 0 1 1 24-24 23.94 23.94 0 0 1-24 24z" class="fa-primary"/></svg>