<svg xmlns="http://www.w3.org/2000/svg" viewBox="0 0 384 512"><!-- Font Awesome Pro 5.15.4 by @fontawesome - https://fontawesome.com License - https://fontawesome.com/license (Commercial License) --><defs><style>.fa-secondary{opacity:.4}</style></defs><path d="M336 63h-80v1a64 64 0 0 1 64 64H64a64 64 0 0 1 64-64v-1H48a48 48 0 0 0-48 48v352a48 48 0 0 0 48 48h288a48 48 0 0 0 48-48V111a48 48 0 0 0-48-48zM192 192a64 64 0 1 1-64 64 64 64 0 0 1 64-64zm112 236.8c0 10.61-10 19.2-22.4 19.2H102.4C90 448 80 439.4 80 428.8v-19.2c0-31.81 30.09-57.6 67.2-57.6h5a103.22 103.22 0 0 0 79.7 0h5c37.11 0 67.2 25.79 67.2 57.6z" class="fa-secondary"/><path d="M236.9 352h-5a103.22 103.22 0 0 1-79.7 0h-5c-37.11 0-67.2 25.79-67.2 57.6v19.2c0 10.6 10 19.2 22.4 19.2h179.2c12.4 0 22.4-8.59 22.4-19.2l.1-19.2c0-31.81-30.1-57.6-67.2-57.6zM128 256a64 64 0 1 0 64-64 64 64 0 0 0-64 64zM256 64a64 64 0 0 0-128 0 64 64 0 0 0-64 64h256a64 64 0 0 0-64-64zm-64 24a24 24 0 1 1 24-24 23.94 23.94 0 0 1-24 24z" class="fa-primary"/></svg>