<svg xmlns="http://www.w3.org/2000/svg" viewBox="0 0 512 512"><!-- Font Awesome Pro 5.15.4 by @fontawesome - https://fontawesome.com License - https://fontawesome.com/license (Commercial License) --><defs><style>.fa-secondary{opacity:.4}</style></defs><path d="M48 512a48 48 0 0 1-48-48V176a48 48 0 0 1 48-48h48v208a80.09 80.09 0 0 0 80 80h208v48a48 48 0 0 1-48 48H48z" class="fa-secondary"/><path d="M512 48v288a48 48 0 0 1-48 48H176a48 48 0 0 1-48-48V48a48 48 0 0 1 48-48h288a48 48 0 0 1 48 48z" class="fa-primary"/></svg>