<svg xmlns="http://www.w3.org/2000/svg" viewBox="0 0 512 512"><!-- Font Awesome Pro 5.15.4 by @fontawesome - https://fontawesome.com License - https://fontawesome.com/license (Commercial License) --><defs><style>.fa-secondary{opacity:.4}</style></defs><path d="M464 64H48a48 48 0 0 0-48 48v288a48 48 0 0 0 48 48h416a48 48 0 0 0 48-48V112a48 48 0 0 0-48-48zM246.3 324c-53.6 56.8-172.8 32.1-172.8-67.9 0-97.3 121.7-119.5 172.5-70.1 2.1 2 2.5 3.2 1 5.7l-17.5 30.5c-.11.18-.24.36-.37.54a6.23 6.23 0 0 1-8.73 1.16c-40.8-32-94.6-14.9-94.6 31.2.1 48 51.1 70.5 92.3 32.6a6.47 6.47 0 0 1 .57-.47 6.19 6.19 0 0 1 8.63 1.37l19.5 27.7a6 6 0 0 1-.5 7.7zm162.2-36.3a6.47 6.47 0 0 1 .57-.47 6.19 6.19 0 0 1 8.63 1.37l19.5 27.7a6 6 0 0 1-.5 7.7C383.2 380.9 264 356.1 264 256.1c0-97.3 121.7-119.5 172.5-70.1 2.1 2 2.5 3.2 1 5.7L420 222.2c-.11.18-.24.36-.37.54a6.23 6.23 0 0 1-8.73 1.16c-40.8-32-94.6-14.9-94.6 31.2 0 48 51 70.5 92.2 32.6z" class="fa-secondary"/><path d="M227.3 288.6a6.19 6.19 0 0 0-8.63-1.37 6.47 6.47 0 0 0-.57.47c-41.2 37.9-92.2 15.4-92.3-32.6 0-46.1 53.8-63.2 94.6-31.2a6.23 6.23 0 0 0 8.73-1.16c.13-.18.26-.36.37-.54l17.5-30.5c1.5-2.5 1.1-3.7-1-5.7-50.8-49.4-172.5-27.2-172.5 70.1 0 100 119.2 124.7 172.8 67.9a6 6 0 0 0 .5-7.7zm190.4 0a6.19 6.19 0 0 0-8.63-1.37 6.47 6.47 0 0 0-.57.47c-41.2 37.9-92.2 15.4-92.2-32.6 0-46.1 53.8-63.2 94.6-31.2a6.23 6.23 0 0 0 8.73-1.16c.13-.18.26-.36.37-.54l17.5-30.5c1.5-2.5 1.1-3.7-1-5.7-50.8-49.4-172.5-27.2-172.5 70.1 0 100 119.2 124.8 172.7 67.9a6 6 0 0 0 .5-7.7z" class="fa-primary"/></svg>