<svg xmlns="http://www.w3.org/2000/svg" viewBox="0 0 512 512"><!-- Font Awesome Pro 5.15.4 by @fontawesome - https://fontawesome.com License - https://fontawesome.com/license (Commercial License) --><defs><style>.fa-secondary{opacity:.4}</style></defs><path d="M48 368a16 16 0 0 0-16 16v80a16 16 0 0 0 32 0v-80a16 16 0 0 0-16-16zm96 32a16 16 0 0 0-16 16v80a16 16 0 0 0 32 0v-80a16 16 0 0 0-16-16zm96-32a16 16 0 0 0-16 16v80a16 16 0 0 0 32 0v-80a16 16 0 0 0-16-16zm96 32a16 16 0 0 0-16 16v80a16 16 0 0 0 32 0v-80a16 16 0 0 0-16-16zm96-32a16 16 0 0 0-16 16v80a16 16 0 0 0 32 0v-80a16 16 0 0 0-16-16z" class="fa-secondary"/><path d="M512 224a96 96 0 0 1-96 96H96a96 96 0 0 1-96-96c0-42.5 27.8-78.2 66.1-90.8A113.72 113.72 0 0 1 64 112 111.94 111.94 0 0 1 176 0c43.3 0 80.4 24.8 99 60.8C289.7 43.3 311.4 32 336 32a80 80 0 0 1 80 80 78.09 78.09 0 0 1-1.6 16.2c.5 0 1-.2 1.6-.2a96 96 0 0 1 96 96z" class="fa-primary"/></svg>