<svg xmlns="http://www.w3.org/2000/svg" viewBox="0 0 640 512"><!-- Font Awesome Pro 5.15.4 by @fontawesome - https://fontawesome.com License - https://fontawesome.com/license (Commercial License) --><defs><style>.fa-secondary{opacity:.4}</style></defs><path d="M537.59 226.59a96 96 0 0 0-142.9-114.39A160 160 0 0 0 96 192c0 2.7.09 5.41.19 8.09A144 144 0 0 0 144 480h368a128 128 0 0 0 25.59-253.41zM384 352c0 17.67-21.5 32-48 32s-48-14.33-48-32 21.5-32 48-32a69.82 69.82 0 0 1 16 2v-76.36l-96 37.52V384c0 17.67-21.5 32-48 32s-48-14.33-48-32 21.5-32 48-32a69.82 69.82 0 0 1 16 2V239.25A16 16 0 0 1 235.19 224l128-47.25A16 16 0 0 1 384 192z" class="fa-secondary"/><path d="M208 352a69.82 69.82 0 0 1 16 2V239.25A16 16 0 0 1 235.19 224l128-47.25A16 16 0 0 1 384 192v160c0 17.67-21.5 32-48 32s-48-14.33-48-32 21.5-32 48-32a69.82 69.82 0 0 1 16 2v-76.36l-96 37.52V384c0 17.67-21.5 32-48 32s-48-14.33-48-32 21.5-32 48-32z" class="fa-primary"/></svg>