<svg xmlns="http://www.w3.org/2000/svg" viewBox="0 0 576 512"><!-- Font Awesome Pro 5.15.4 by @fontawesome - https://fontawesome.com License - https://fontawesome.com/license (Commercial License) --><defs><style>.fa-secondary{opacity:.4}</style></defs><path d="M574 313.47A191.54 191.54 0 0 1 436.9 384a110.41 110.41 0 0 0-53.5-52.7 94.83 94.83 0 0 0 .6-10.72c0-53-43.1-96.17-96-96.17a95.1 95.1 0 0 0-36.4 7.21 124.78 124.78 0 0 0-16.7-14.22 188.15 188.15 0 0 1-1.8-25.05C233.1 86.06 319.1 0 425 0a197.47 197.47 0 0 1 35.1 3.21c8.2 1.6 10.1 12.62 2.8 16.73a150.63 150.63 0 0 0-76.1 131c0 94.17 85.4 165.7 178.5 148a9 9 0 0 1 8.7 14.53z" class="fa-secondary"/><path d="M416 432a80 80 0 0 1-80 80H96a96 96 0 0 1-96-96c0-41.9 27.1-77.2 64.6-90.3-.1-1.9-.6-3.7-.6-5.7a96 96 0 0 1 96-96c36.2 0 67.4 20.3 83.7 49.9a63.83 63.83 0 0 1 99.1 78.8c40.9 3.5 73.2 37.4 73.2 79.3z" class="fa-primary"/></svg>