<svg xmlns="http://www.w3.org/2000/svg" viewBox="0 0 512 512"><!-- Font Awesome Pro 5.15.4 by @fontawesome - https://fontawesome.com License - https://fontawesome.com/license (Commercial License) --><defs><style>.fa-secondary{opacity:.4}</style></defs><path d="M183.9 370.1a15.88 15.88 0 0 0-21.8 6l-64 112a15.92 15.92 0 0 0 6 21.8 16 16 0 0 0 21.8-6l64-112a16 16 0 0 0-6-21.8zm96 0a15.88 15.88 0 0 0-21.8 6l-64 112a15.92 15.92 0 0 0 6 21.8 16 16 0 0 0 21.8-6l64-112a16 16 0 0 0-6-21.8zm-192 0a15.88 15.88 0 0 0-21.8 6l-64 112a15.92 15.92 0 0 0 6 21.8 16 16 0 0 0 21.8-6l64-112a16 16 0 0 0-5.99-21.8zm384 0a15.88 15.88 0 0 0-21.8 6l-64 112a15.92 15.92 0 0 0 6 21.8 16 16 0 0 0 21.8-6l64-112a16 16 0 0 0-6.01-21.8zm-96 0a15.88 15.88 0 0 0-21.8 6l-64 112a15.92 15.92 0 0 0 6 21.8 16 16 0 0 0 21.8-6l64-112a16 16 0 0 0-6.01-21.8z" class="fa-secondary"/><path d="M512 224a96 96 0 0 1-96 96H96a96 96 0 0 1-96-96c0-42.5 27.8-78.2 66.1-90.8A113.72 113.72 0 0 1 64 112 112 112 0 0 1 176 0c43.3 0 80.4 24.8 99 60.8C289.7 43.3 311.4 32 336 32a80 80 0 0 1 80 80 78.09 78.09 0 0 1-1.6 16.2c.5 0 1-.2 1.6-.2a96 96 0 0 1 96 96z" class="fa-primary"/></svg>