<svg xmlns="http://www.w3.org/2000/svg" viewBox="0 0 512 512"><!-- Font Awesome Pro 5.15.4 by @fontawesome - https://fontawesome.com License - https://fontawesome.com/license (Commercial License) --><defs><style>.fa-secondary{opacity:.4}</style></defs><path d="M87.2 353.7a16.12 16.12 0 0 0-21.5 7.2l-64 128a16 16 0 0 0 7.2 21.5 16.88 16.88 0 0 0 7.2 1.7 16 16 0 0 0 14.3-8.8l64-128a16.23 16.23 0 0 0-7.2-21.6zm256 0a16.12 16.12 0 0 0-21.5 7.2l-64 128a16 16 0 0 0 7.2 21.5 16.88 16.88 0 0 0 7.2 1.7 16 16 0 0 0 14.3-8.8l64-128a16.23 16.23 0 0 0-7.2-21.6zM492 432l-27.9-16 27.9-16a8 8 0 0 0 2.9-10.9l-8-13.9a8 8 0 0 0-10.9-2.9l-28 16.1V360a8 8 0 0 0-8-8h-16a8 8 0 0 0-8 8v28.4l-28-16.1a8 8 0 0 0-10.9 2.9l-8 13.9A8 8 0 0 0 372 400l27.9 16-27.9 16a8 8 0 0 0-2.9 10.9l8 13.9a8 8 0 0 0 10.9 2.9l28-16.1V472a8 8 0 0 0 8 8h16a8 8 0 0 0 8-8v-28.4l28 16.1a8 8 0 0 0 10.9-2.9l8-13.9A8 8 0 0 0 492 432zm-253.1-42.9l-8-13.9a8 8 0 0 0-10.9-2.9l-28 16.1V360a8 8 0 0 0-8-8h-16a8 8 0 0 0-8 8v28.4l-28-16.1a8 8 0 0 0-10.9 2.9l-8 13.9A8 8 0 0 0 116 400l27.9 16-27.9 16a8 8 0 0 0-2.9 10.9l8 13.9a8 8 0 0 0 10.9 2.9l28-16.1V472a8 8 0 0 0 8 8h16a8 8 0 0 0 8-8v-28.4l28 16.1a8 8 0 0 0 10.9-2.9l8-13.9A8 8 0 0 0 236 432l-27.9-16 27.9-16a8 8 0 0 0 2.9-10.9z" class="fa-secondary"/><path d="M416 320H96a96 96 0 0 1-96-96c0-42.5 27.8-78.2 66.1-90.8A113.72 113.72 0 0 1 64 112 111.94 111.94 0 0 1 176 0c43.3 0 80.4 24.8 99 60.8C289.7 43.3 311.4 32 336 32a80 80 0 0 1 80 80 78.09 78.09 0 0 1-1.6 16.2c.5 0 1-.2 1.6-.2a96 96 0 0 1 0 192z" class="fa-primary"/></svg>