<svg xmlns="http://www.w3.org/2000/svg" viewBox="0 0 576 512"><!-- Font Awesome Pro 5.15.4 by @fontawesome - https://fontawesome.com License - https://fontawesome.com/license (Commercial License) --><defs><style>.fa-secondary{opacity:.4}</style></defs><path d="M567.9 223.8c-70.4 13.3-135-40.3-135-110.8a112.62 112.62 0 0 1 57.5-98.1 6.74 6.74 0 0 0-2.1-12.5A146.75 146.75 0 0 0 461.8 0c-77.9 0-141.1 61.2-144.4 137.9a111.46 111.46 0 0 1 58.9 61.7 111.81 111.81 0 0 1 70.2 86.8c5.1.5 10 1.5 15.2 1.5a145 145 0 0 0 112.6-53.3c4.2-4.8-.2-12-6.4-10.8zM364.5 418.1a16 16 0 0 0-21.8 6l-36.6 64a15.94 15.94 0 0 0 6 21.8 16 16 0 0 0 21.8-6l36.6-64a16 16 0 0 0-6-21.8zm-96 0a16 16 0 0 0-21.8 6l-36.6 64a15.94 15.94 0 0 0 6 21.8 16 16 0 0 0 21.8-6l36.6-64a16 16 0 0 0-6-21.8zm-96 0a16 16 0 0 0-21.8 6l-36.6 64a15.94 15.94 0 0 0 6 21.8 16 16 0 0 0 21.8-6l36.6-64a16 16 0 0 0-6-21.8zm-96 0a16 16 0 0 0-21.8 6l-36.6 64a15.94 15.94 0 0 0 6 21.8 16 16 0 0 0 21.8-6l36.6-64a16 16 0 0 0-6-21.8z" class="fa-secondary"/><path d="M416 304a80 80 0 0 1-80 80H80a80 80 0 0 1-15.8-158.4c0-.5-.2-1.1-.2-1.6a95.82 95.82 0 0 1 173.7-56 79 79 0 0 1 34.3-8 80 80 0 0 1 78.5 65.5A79.79 79.79 0 0 1 416 304z" class="fa-primary"/></svg>