<svg xmlns="http://www.w3.org/2000/svg" viewBox="0 0 640 512"><!-- Font Awesome Pro 5.15.4 by @fontawesome - https://fontawesome.com License - https://fontawesome.com/license (Commercial License) --><defs><style>.fa-secondary{opacity:.4}</style></defs><path d="M161.6 288H96a96 96 0 0 1 0-192c.6 0 1.1.2 1.6.2C105.3 41.9 151.6 0 208 0a111.61 111.61 0 0 1 104.5 72.7A95.07 95.07 0 0 1 352 64a96 96 0 0 1 96 96 93 93 0 0 1-7 34.7 110.5 110.5 0 0 0-31.6 11.8A142.54 142.54 0 0 0 304 160c-73.9 0-134.3 56.2-142.4 128z" class="fa-secondary"/><path d="M640 416a96 96 0 0 1-96 96H224a96 96 0 0 1-96-96c0-42.5 27.8-78.2 66.1-90.8A113.72 113.72 0 0 1 192 304a111.94 111.94 0 0 1 112-112c43.2 0 80.4 24.9 99 60.8 14.7-17.5 36.4-28.8 61-28.8a80 80 0 0 1 80 80 78.09 78.09 0 0 1-1.6 16.2c.5 0 1-.2 1.6-.2a96 96 0 0 1 96 96z" class="fa-primary"/></svg>