<svg xmlns="http://www.w3.org/2000/svg" viewBox="0 0 640 512"><!-- Font Awesome Pro 5.15.4 by @fontawesome - https://fontawesome.com License - https://fontawesome.com/license (Commercial License) --><defs><style>.fa-secondary{opacity:.4}</style></defs><path d="M314.45 53.1l-75.29 25.1-35.49-71a13 13 0 0 0-23.3 0l-35.49 71-75.29-25.1a13.06 13.06 0 0 0-16.5 16.5l25.1 75.3-71 35.5a13 13 0 0 0 0 23.3l71 35.5-25.1 75.3a13.06 13.06 0 0 0 16.5 16.5l42.69-14.2a124.47 124.47 0 0 1 20.1-13.6 141.91 141.91 0 0 1 10.5-29.1 94.9 94.9 0 0 1-18.7-150 96.18 96.18 0 0 1 135.78 0 93.93 93.93 0 0 1 24.1 42.4 110.08 110.08 0 0 1 20.59-18.6L331 69.5a13 13 0 0 0-16.55-16.4zM192.07 128a63.78 63.78 0 0 0-32.3 118.9A141.32 141.32 0 0 1 256 193.4c0-.5.1-.9.1-1.4a64.06 64.06 0 0 0-64.03-64z" class="fa-secondary"/><path d="M512 320h-1.6a80 80 0 0 0-78.4-64c-24.6 0-46.3 11.3-61 28.8-18.6-35.9-55.8-60.8-99-60.8-58.3 0-105.6 44.7-110.9 101.6C123.3 338.5 96 373.9 96 416a96 96 0 0 0 96 96h320a96 96 0 0 0 0-192zm48-160h-17.58a80 80 0 0 0-156.78 0H368a79.77 79.77 0 0 0-66.19 35.1 142.52 142.52 0 0 1 75.59 43.3 110.34 110.34 0 0 1 54.6-14.5 112.41 112.41 0 0 1 102.09 65.9 127.06 127.06 0 0 1 55 24.4A79.81 79.81 0 0 0 560 160z" class="fa-primary"/></svg>