<svg xmlns="http://www.w3.org/2000/svg" viewBox="0 0 512 512"><!-- Font Awesome Pro 5.15.4 by @fontawesome - https://fontawesome.com License - https://fontawesome.com/license (Commercial License) --><defs><style>.fa-secondary{opacity:.4}</style></defs><path d="M48 352a48 48 0 1 0 48 48 48 48 0 0 0-48-48zm416 0a48 48 0 1 0 48 48 48 48 0 0 0-48-48zm-119 11.1c4.6-14.5 1.6-30.8-9.8-42.3s-27.8-14.4-42.3-9.9c-7-13.5-20.7-23-36.9-23s-29.9 9.5-36.9 23c-14.5-4.6-30.8-1.6-42.3 9.9s-14.4 27.8-9.9 42.3c-13.5 7-23 20.7-23 36.9s9.5 29.9 23 36.9c-4.6 14.5-1.6 30.8 9.9 42.3a41.79 41.79 0 0 0 29.7 12.3 39.21 39.21 0 0 0 12.6-2.5c7 13.5 20.7 23 36.9 23s29.9-9.5 36.9-23c4.1 1.3 8.3 2.5 12.6 2.5a41.79 41.79 0 0 0 29.7-12.3c11.5-11.5 14.4-27.8 9.8-42.3 13.5-7 23-20.7 23-36.9s-9.5-29.9-23-36.9z" class="fa-secondary"/><path d="M416 320h-43.4a70.78 70.78 0 0 0-14.8-21.8 72.44 72.44 0 0 0-50.8-21.3 72.67 72.67 0 0 0-102 0 71.9 71.9 0 0 0-65.6 43.1H96a96 96 0 0 1-96-96c0-42.5 27.8-78.2 66.1-90.8A113.72 113.72 0 0 1 64 112 111.94 111.94 0 0 1 176 0c43.3 0 80.4 24.8 99 60.8C289.7 43.3 311.4 32 336 32a80 80 0 0 1 80 80 78.09 78.09 0 0 1-1.6 16.2c.5 0 1-.2 1.6-.2a96 96 0 0 1 0 192z" class="fa-primary"/></svg>