<svg xmlns="http://www.w3.org/2000/svg" viewBox="0 0 512 512"><!-- Font Awesome Pro 5.15.4 by @fontawesome - https://fontawesome.com License - https://fontawesome.com/license (Commercial License) --><defs><style>.fa-secondary{opacity:.4}</style></defs><path d="M512 292a124 124 0 0 1-124 124c-41.36 0-77.55-20.54-100-51.69V272a16 16 0 0 0-16-16h-32a16 16 0 0 0-16 16v92.31C201.55 395.46 165.36 416 124 416a124 124 0 0 1 0-248c5.8 0 11.36.94 16.95 1.71a124 124 0 1 1 230.1 0c5.59-.77 11.15-1.71 16.95-1.71a124 124 0 0 1 124 124z" class="fa-secondary"/><path d="M367.31 486.59A32 32 0 0 1 336 512H176a32 32 0 0 1-13-61.3c52.19-23.2 60.91-38.9 61-75.61V272a16 16 0 0 1 16-16h32a16 16 0 0 1 16 16v103.09c.19 37.5 9.41 52.61 61 75.61a32.09 32.09 0 0 1 18.31 35.89z" class="fa-primary"/></svg>