<svg xmlns="http://www.w3.org/2000/svg" viewBox="0 0 640 512"><!-- Font Awesome Pro 5.15.4 by @fontawesome - https://fontawesome.com License - https://fontawesome.com/license (Commercial License) --><defs><style>.fa-secondary{opacity:.4}</style></defs><path d="M628 224H509.4a189.29 189.29 0 0 1 2.6 32 200.23 200.23 0 0 1-2.6 32H628a12 12 0 0 0 12-12v-40a12 12 0 0 0-12-12zm-616 0a12 12 0 0 0-12 12v40a12 12 0 0 0 12 12h118.6a198.22 198.22 0 0 1 0-64z" class="fa-secondary"/><path d="M320 96a160 160 0 1 0 160 160A160 160 0 0 0 320 96zm0 202a42 42 0 1 1 42-42 42 42 0 0 1-42 42z" class="fa-primary"/></svg>