<svg xmlns="http://www.w3.org/2000/svg" viewBox="0 0 384 512"><!-- Font Awesome Pro 5.15.4 by @fontawesome - https://fontawesome.com License - https://fontawesome.com/license (Commercial License) --><defs><style>.fa-secondary{opacity:.4}</style></defs><path d="M237.53,48l96.65,94.92L252.44,464H131.57L49.83,142.91,146.45,48h91.08" class="fa-secondary"/><path d="M237.53,48l96.65,94.92L252.44,464H131.57L49.83,142.91,146.45,48h91.08m6.14-48H140.32a32.93,32.93,0,0,0-23,9.37L9.54,115.19A31.61,31.61,0,0,0,1,145.58L88.08,487.76A32.47,32.47,0,0,0,119.69,512H264.31a32.5,32.5,0,0,0,31.62-24.24L383,145.58a31.65,31.65,0,0,0-8.59-30.39h0L266.7,9.37a32.89,32.89,0,0,0-23-9.37Z" class="fa-primary"/></svg>