<svg xmlns="http://www.w3.org/2000/svg" viewBox="0 0 512 512"><!-- Font Awesome Pro 5.15.4 by @fontawesome - https://fontawesome.com License - https://fontawesome.com/license (Commercial License) --><defs><style>.fa-secondary{opacity:.4}</style></defs><path d="M424.06,171.86l-271.86.63C98.63,212.07,64,274.39,64,344.62c0,51.47,18.62,84.77,49.64,117.71A57.17,57.17,0,0,0,155.16,480H420.84a57.08,57.08,0,0,0,41.45-17.6c31-32.95,49.69-66.24,49.71-117.72C512,275.13,478.41,211.82,424.06,171.86Zm-6,244.14H158c-22.34-24.35-30-42.72-30-71.38,0-41.12,17-79.62,47.3-108.18l225.81-.53A148.57,148.57,0,0,1,448,344.66C448,373.3,440.37,391.67,418.05,416Z" class="fa-secondary"/><path d="M130.55,320A146,146,0,0,0,128,344.62c0,28.66,7.62,47,30,71.38H418.05C440.37,391.67,448,373.3,448,344.66A150.45,150.45,0,0,0,445.5,320ZM424.06,171.86,480,32H88A88,88,0,0,0,0,120v88a16,16,0,0,0,16,16H48a16,16,0,0,0,16-16V136a40,40,0,0,1,40-40h17.6l30.6,76.49Z" class="fa-primary"/></svg>