<svg xmlns="http://www.w3.org/2000/svg" viewBox="0 0 512 512"><!-- Font Awesome Pro 5.15.4 by @fontawesome - https://fontawesome.com License - https://fontawesome.com/license (Commercial License) --><defs><style>.fa-secondary{opacity:.4}</style></defs><path d="M448 0H64A64.06 64.06 0 0 0 0 64v288a64.06 64.06 0 0 0 64 64h96v84a12 12 0 0 0 19.1 9.7L304 416h144a64.06 64.06 0 0 0 64-64V64a64.06 64.06 0 0 0-64-64zM128 240a32 32 0 1 1 32-32 32 32 0 0 1-32 32zm128 0a32 32 0 1 1 32-32 32 32 0 0 1-32 32zm128 0a32 32 0 1 1 32-32 32 32 0 0 1-32 32z" class="fa-secondary"/><path d="M384 176a32 32 0 1 0 32 32 32 32 0 0 0-32-32zm-128 0a32 32 0 1 0 32 32 32 32 0 0 0-32-32zm-128 0a32 32 0 1 0 32 32 32 32 0 0 0-32-32z" class="fa-primary"/></svg>