<svg xmlns="http://www.w3.org/2000/svg" viewBox="0 0 512 512"><!-- Font Awesome Pro 5.15.4 by @fontawesome - https://fontawesome.com License - https://fontawesome.com/license (Commercial License) --><defs><style>.fa-secondary{opacity:.4}</style></defs><path d="M448 0H64A64.05 64.05 0 0 0 0 64v288a64.06 64.06 0 0 0 64 64h96v84a12 12 0 0 0 19.09 9.7L304 416h144a64.06 64.06 0 0 0 64-64V64a64.05 64.05 0 0 0-64-64zm-96 256c0 17.68-21.5 32-48 32s-48-14.32-48-32 21.5-32 48-32a69.27 69.27 0 0 1 16 1.95v-76.32l-96 37.52V288c0 17.67-21.5 32-48 32s-48-14.33-48-32 21.5-32 48-32a69.27 69.27 0 0 1 16 2V143.24A16 16 0 0 1 203.19 128l128-47.24A16 16 0 0 1 352 96z" class="fa-secondary"/><path d="M176 256a69.82 69.82 0 0 1 16 2V143.25A16 16 0 0 1 203.19 128l128-47.25A16 16 0 0 1 352 96v160c0 17.67-21.5 32-48 32s-48-14.33-48-32 21.5-32 48-32a69.82 69.82 0 0 1 16 2v-76.36l-96 37.52V288c0 17.67-21.5 32-48 32s-48-14.33-48-32 21.5-32 48-32z" class="fa-primary"/></svg>