<svg xmlns="http://www.w3.org/2000/svg" viewBox="0 0 576 512"><!-- Font Awesome Pro 5.15.4 by @fontawesome - https://fontawesome.com License - https://fontawesome.com/license (Commercial License) --><defs><style>.fa-secondary{opacity:.4}</style></defs><path d="M416 224V64a64 64 0 0 0-64-64H64A64 64 0 0 0 0 64v160a64 64 0 0 0 64 64v54.23a9.75 9.75 0 0 0 15.54 7.84L162.33 288H352a64 64 0 0 0 64-64zm-192-.12V240a8 8 0 0 1-8 8h-16a8 8 0 0 1-8-8v-16.29a57.26 57.26 0 0 1-31.37-11.35 8 8 0 0 1-.57-12.14L171.81 189a8.21 8.21 0 0 1 10.13-.73 24.08 24.08 0 0 0 12.82 3.73h28.11c6.5 0 11.8-5.92 11.8-13.19 0-5.95-3.61-11.19-8.77-12.73l-45-13.5c-18.59-5.58-31.58-23.42-31.58-43.39 0-24.52 19.05-44.44 42.67-45.07V48a8 8 0 0 1 8-8h16a8 8 0 0 1 8 8v16.29a57.18 57.18 0 0 1 31.37 11.35 8 8 0 0 1 .57 12.14L244.18 99a8.21 8.21 0 0 1-10.13.73A24 24 0 0 0 221.23 96h-28.11c-6.5 0-11.8 5.92-11.8 13.19 0 6 3.61 11.19 8.77 12.73l45 13.5c18.59 5.58 31.58 23.42 31.58 43.39 0 24.53-19.05 44.44-42.67 45.07z" class="fa-secondary"/><path d="M512 160h-64v64a96.11 96.11 0 0 1-96 96H192v64a64 64 0 0 0 64 64h125.67l82.79 62.07a9.75 9.75 0 0 0 15.54-7.84V448h32a64 64 0 0 0 64-64V224a64 64 0 0 0-64-64zm-320 80a8 8 0 0 0 8 8h16a8 8 0 0 0 8-8v-16.12c23.62-.63 42.67-20.54 42.67-45.07 0-20-13-37.81-31.58-43.39l-45-13.5c-5.16-1.54-8.77-6.78-8.77-12.73 0-7.27 5.3-13.19 11.8-13.19h28.11a24 24 0 0 1 12.82 3.72 8.21 8.21 0 0 0 10.13-.72l11.75-11.21a8 8 0 0 0-.57-12.14A57.18 57.18 0 0 0 224 64.29V48a8 8 0 0 0-8-8h-16a8 8 0 0 0-8 8v16.12c-23.62.63-42.67 20.55-42.67 45.07 0 20 13 37.81 31.58 43.39l45 13.5c5.16 1.54 8.77 6.78 8.77 12.73 0 7.27-5.3 13.19-11.8 13.19h-28.12a24.08 24.08 0 0 1-12.82-3.72 8.21 8.21 0 0 0-10.13.73l-11.75 11.21a8 8 0 0 0 .57 12.14A57.26 57.26 0 0 0 192 223.71z" class="fa-primary"/></svg>