<svg xmlns="http://www.w3.org/2000/svg" viewBox="0 0 512 512"><!-- Font Awesome Pro 5.15.4 by @fontawesome - https://fontawesome.com License - https://fontawesome.com/license (Commercial License) --><defs><style>.fa-secondary{opacity:.4}</style></defs><path d="M256 32C114.6 32 0 125.1 0 240c0 49.6 21.4 95 57 130.7C44.5 421.1 2.7 466 2.2 466.5a8 8 0 0 0-1.5 8.7A7.83 7.83 0 0 0 8 480c66.3 0 116-31.8 140.6-51.4A305 305 0 0 0 256 448c141.4 0 256-93.1 256-208S397.4 32 256 32zm0 336a32 32 0 1 1 32-32 32 32 0 0 1-32 32zm38.2-238.4l-12.8 128a16 16 0 0 1-15.9 14.4h-19a16 16 0 0 1-15.9-14.4l-12.8-128a16.06 16.06 0 0 1 15.9-17.6h44.6a16 16 0 0 1 15.9 17.6z" class="fa-secondary"/><path d="M256 304a32 32 0 1 0 32 32 32 32 0 0 0-32-32zm22.3-192h-44.6a16.06 16.06 0 0 0-15.9 17.6l12.8 128a16 16 0 0 0 15.9 14.4h19a16 16 0 0 0 15.9-14.4l12.8-128a16 16 0 0 0-15.9-17.6z" class="fa-primary"/></svg>