<svg xmlns="http://www.w3.org/2000/svg" viewBox="0 0 512 512"><!-- Font Awesome Pro 5.15.4 by @fontawesome - https://fontawesome.com License - https://fontawesome.com/license (Commercial License) --><defs><style>.fa-secondary{opacity:.4}</style></defs><path d="M256 32C114.62 32 0 125.12 0 240c0 49.56 21.41 95 57 130.74C44.46 421.05 2.7 466 2.2 466.5A8 8 0 0 0 8 480c66.26 0 116-31.75 140.6-51.38A304.66 304.66 0 0 0 256 448c141.38 0 256-93.12 256-208S397.38 32 256 32zm24 302.44V352a16 16 0 0 1-16 16h-16a16 16 0 0 1-16-16v-17.73a73 73 0 0 1-31.78-11.46c-6.22-4.11-6.82-13.11-1.55-18.38l17.52-17.52c3.74-3.74 9.31-4.24 14.11-2a24.52 24.52 0 0 0 10.26 2.22h32.78a8.43 8.43 0 0 0 2.32-16.53l-50.07-14.3c-22.25-6.35-40-24.71-42.91-47.67a56.27 56.27 0 0 1 49.32-63V128a16 16 0 0 1 16-16h16a16 16 0 0 1 16 16v17.73a73 73 0 0 1 31.78 11.46c6.22 4.11 6.82 13.11 1.55 18.38l-17.52 17.52c-3.74 3.74-9.31 4.24-14.11 2a24.54 24.54 0 0 0-10.26-2.22h-32.78a8.43 8.43 0 0 0-2.32 16.53l50.07 14.3c22.25 6.36 40 24.71 42.91 47.67A56.27 56.27 0 0 1 280 334.44z" class="fa-secondary"/><path d="M280 334.44V352a16 16 0 0 1-16 16h-16a16 16 0 0 1-16-16v-17.73a73 73 0 0 1-31.78-11.46c-6.22-4.11-6.82-13.11-1.55-18.38l17.52-17.52c3.74-3.74 9.31-4.24 14.11-2a24.52 24.52 0 0 0 10.26 2.22h32.78a8.43 8.43 0 0 0 2.32-16.53l-50.07-14.3c-22.25-6.35-40-24.71-42.91-47.67a56.27 56.27 0 0 1 49.32-63V128a16 16 0 0 1 16-16h16a16 16 0 0 1 16 16v17.73a73 73 0 0 1 31.78 11.46c6.22 4.11 6.82 13.11 1.55 18.38l-17.52 17.52c-3.74 3.74-9.31 4.24-14.11 2a24.54 24.54 0 0 0-10.26-2.22h-32.78a8.43 8.43 0 0 0-2.32 16.53l50.07 14.3c22.25 6.36 40 24.71 42.91 47.67A56.27 56.27 0 0 1 280 334.44z" class="fa-primary"/></svg>