<svg xmlns="http://www.w3.org/2000/svg" viewBox="0 0 512 512"><!-- Font Awesome Pro 5.15.4 by @fontawesome - https://fontawesome.com License - https://fontawesome.com/license (Commercial License) --><defs><style>.fa-secondary{opacity:.4}</style></defs><path d="M448 0H64A64.06 64.06 0 0 0 0 64v288a64.06 64.06 0 0 0 64 64h96v84a12 12 0 0 0 19.1 9.7L304 416h144a64.06 64.06 0 0 0 64-64V64a64.06 64.06 0 0 0-64-64zM256 336a32 32 0 1 1 32-32 32 32 0 0 1-32 32zm38.2-238.4l-12.8 128a16 16 0 0 1-15.9 14.4h-19a16 16 0 0 1-15.9-14.4l-12.8-128A16.06 16.06 0 0 1 233.7 80h44.6a16 16 0 0 1 15.9 17.6z" class="fa-secondary"/><path d="M256 272a32 32 0 1 0 32 32 32 32 0 0 0-32-32zm22.3-192h-44.6a16.06 16.06 0 0 0-15.9 17.6l12.8 128a16 16 0 0 0 15.9 14.4h19a16 16 0 0 0 15.9-14.4l12.8-128A16 16 0 0 0 278.3 80z" class="fa-primary"/></svg>