<svg xmlns="http://www.w3.org/2000/svg" viewBox="0 0 512 512"><!-- Font Awesome Pro 5.15.4 by @fontawesome - https://fontawesome.com License - https://fontawesome.com/license (Commercial License) --><defs><style>.fa-secondary{opacity:.4}</style></defs><path d="M448 0H64A64 64 0 0 0 0 64v288a64 64 0 0 0 64 64h96v84a12 12 0 0 0 19.13 9.65L304 416h144a64 64 0 0 0 64-64V64a64 64 0 0 0-64-64zM280 302.44V320a16 16 0 0 1-16 16h-16a16 16 0 0 1-16-16v-17.73a73 73 0 0 1-31.78-11.46c-6.22-4.11-6.82-13.11-1.55-18.38l17.52-17.52c3.74-3.74 9.31-4.24 14.11-2a24.52 24.52 0 0 0 10.26 2.22h32.78a8.43 8.43 0 0 0 2.32-16.53l-50.07-14.3c-22.25-6.35-40-24.71-42.91-47.67a56.27 56.27 0 0 1 49.32-63V96a16 16 0 0 1 16-16h16a16 16 0 0 1 16 16v17.73a73 73 0 0 1 31.78 11.46c6.22 4.11 6.82 13.11 1.55 18.38l-17.52 17.52c-3.74 3.74-9.31 4.24-14.11 2a24.54 24.54 0 0 0-10.26-2.22h-32.78a8.43 8.43 0 0 0-2.32 16.53l50.07 14.3c22.25 6.36 40 24.71 42.91 47.67A56.27 56.27 0 0 1 280 302.44z" class="fa-secondary"/><path d="M280 302.44V320a16 16 0 0 1-16 16h-16a16 16 0 0 1-16-16v-17.73a73 73 0 0 1-31.78-11.46c-6.22-4.11-6.82-13.11-1.55-18.38l17.52-17.52c3.74-3.74 9.31-4.24 14.11-2a24.52 24.52 0 0 0 10.26 2.22h32.78a8.43 8.43 0 0 0 2.32-16.53l-50.07-14.3c-22.25-6.35-40-24.71-42.91-47.67a56.27 56.27 0 0 1 49.32-63V96a16 16 0 0 1 16-16h16a16 16 0 0 1 16 16v17.73a73 73 0 0 1 31.78 11.46c6.22 4.11 6.82 13.11 1.55 18.38l-17.52 17.52c-3.74 3.74-9.31 4.24-14.11 2a24.54 24.54 0 0 0-10.26-2.22h-32.78a8.43 8.43 0 0 0-2.32 16.53l50.07 14.3c22.25 6.36 40 24.71 42.91 47.67A56.27 56.27 0 0 1 280 302.44z" class="fa-primary"/></svg>