<svg xmlns="http://www.w3.org/2000/svg" viewBox="0 0 512 512"><!-- Font Awesome Pro 5.15.4 by @fontawesome - https://fontawesome.com License - https://fontawesome.com/license (Commercial License) --><defs><style>.fa-secondary{opacity:.4}</style></defs><path d="M256 32C114.6 32 0 125.1 0 240c0 49.6 21.4 95 57 130.7C44.5 421.1 2.7 466 2.2 466.5a8 8 0 0 0-1.5 8.7A7.83 7.83 0 0 0 8 480c66.3 0 116-31.8 140.6-51.4A305 305 0 0 0 256 448c141.4 0 256-93.1 256-208S397.4 32 256 32zm84.9 281.5l-11.3 11.3a16.06 16.06 0 0 1-22.6 0l-51-50.9-50.9 50.9a16.06 16.06 0 0 1-22.6 0l-11.3-11.3a16.06 16.06 0 0 1 0-22.6l50.9-50.9-50.9-50.9a16.06 16.06 0 0 1 0-22.6l11.3-11.3a16.06 16.06 0 0 1 22.6 0l50.9 50.9 50.9-50.9a16.06 16.06 0 0 1 22.6 0l11.3 11.3a16.06 16.06 0 0 1 0 22.6L289.9 240l51 50.9a16.06 16.06 0 0 1 0 22.6z" class="fa-secondary"/><path d="M340.9 313.5l-11.3 11.3a16.06 16.06 0 0 1-22.6 0l-51-50.9-50.9 50.9a16.06 16.06 0 0 1-22.6 0l-11.3-11.3a16.06 16.06 0 0 1 0-22.6l50.9-50.9-50.9-50.9a16.06 16.06 0 0 1 0-22.6l11.3-11.3a16.06 16.06 0 0 1 22.6 0l50.9 50.9 50.9-50.9a16.06 16.06 0 0 1 22.6 0l11.3 11.3a16.06 16.06 0 0 1 0 22.6L289.9 240l51 50.9a16.06 16.06 0 0 1 0 22.6z" class="fa-primary"/></svg>