<svg xmlns="http://www.w3.org/2000/svg" viewBox="0 0 512 512"><!-- Font Awesome Pro 5.15.4 by @fontawesome - https://fontawesome.com License - https://fontawesome.com/license (Commercial License) --><defs><style>.fa-secondary{opacity:.4}</style></defs><path d="M256 32C114.6 32 0 125.1 0 240c0 49.6 21.4 95 57 130.7C44.5 421.1 2.7 466 2.2 466.5a8 8 0 0 0-1.5 8.7A7.83 7.83 0 0 0 8 480c66.3 0 116-31.8 140.6-51.4A305 305 0 0 0 256 448c141.4 0 256-93.1 256-208S397.4 32 256 32zm64 133.2a26.8 26.8 0 1 1-26.8 26.8 26.8 26.8 0 0 1 26.8-26.8zm-128 0a26.8 26.8 0 1 1-26.8 26.8 26.8 26.8 0 0 1 26.8-26.8zm164.2 140.9a132.32 132.32 0 0 1-200.4 0 16 16 0 1 1 24.3-20.7 100.23 100.23 0 0 0 151.6-.1 16.07 16.07 0 0 1 24.5 20.8z" class="fa-secondary"/><path d="M320 218.8a26.8 26.8 0 1 0-26.8-26.8 26.8 26.8 0 0 0 26.8 26.8zm-128 0a26.8 26.8 0 1 0-26.8-26.8 26.8 26.8 0 0 0 26.8 26.8zm162.3 64.7a16.11 16.11 0 0 0-22.6 1.8 100.23 100.23 0 0 1-151.6.1 16 16 0 1 0-24.3 20.7 132.32 132.32 0 0 0 200.4 0 16 16 0 0 0-1.9-22.6z" class="fa-primary"/></svg>