<svg xmlns="http://www.w3.org/2000/svg" viewBox="0 0 512 512"><!-- Font Awesome Pro 5.15.4 by @fontawesome - https://fontawesome.com License - https://fontawesome.com/license (Commercial License) --><defs><style>.fa-secondary{opacity:.4}</style></defs><path d="M448 0H64A64.06 64.06 0 0 0 0 64v288a64.06 64.06 0 0 0 64 64h96v84a12 12 0 0 0 19.1 9.7L304 416h144a64.06 64.06 0 0 0 64-64V64a64.06 64.06 0 0 0-64-64zM288 264a8 8 0 0 1-8 8H136a8 8 0 0 1-8-8v-16a8 8 0 0 1 8-8h144a8 8 0 0 1 8 8zm96-96a8 8 0 0 1-8 8H136a8 8 0 0 1-8-8v-16a8 8 0 0 1 8-8h240a8 8 0 0 1 8 8z" class="fa-secondary"/><path d="M280 240H136a8 8 0 0 0-8 8v16a8 8 0 0 0 8 8h144a8 8 0 0 0 8-8v-16a8 8 0 0 0-8-8zm96-96H136a8 8 0 0 0-8 8v16a8 8 0 0 0 8 8h240a8 8 0 0 0 8-8v-16a8 8 0 0 0-8-8z" class="fa-primary"/></svg>