<svg xmlns="http://www.w3.org/2000/svg" viewBox="0 0 448 512"><!-- Font Awesome Pro 5.15.4 by @fontawesome - https://fontawesome.com License - https://fontawesome.com/license (Commercial License) --><defs><style>.fa-secondary{opacity:.4}</style></defs><path d="M32 496a16 16 0 0 0 16 16h352a16 16 0 0 0 16-16v-48H32zM416 0H32A32 32 0 0 0 0 32v368a16 16 0 0 0 16 16h416a16 16 0 0 0 16-16V32a32 32 0 0 0-32-32zM80 356a20 20 0 1 1 20-20 20 20 0 0 1-20 20zm304-12a8 8 0 0 1-8 8H232a8 8 0 0 1-8-8v-16a8 8 0 0 1 8-8h144a8 8 0 0 1 8 8zm0-120a32 32 0 0 1-32 32H96a32 32 0 0 1-32-32V96a32 32 0 0 1 32-32h256a32 32 0 0 1 32 32z" class="fa-secondary"/><path d="M384 224a32 32 0 0 1-32 32H96a32 32 0 0 1-32-32V96a32 32 0 0 1 32-32h256a32 32 0 0 1 32 32z" class="fa-primary"/></svg>