<svg xmlns="http://www.w3.org/2000/svg" viewBox="0 0 448 512"><!-- Font Awesome Pro 5.15.4 by @fontawesome - https://fontawesome.com License - https://fontawesome.com/license (Commercial License) --><defs><style>.fa-secondary{opacity:.4}</style></defs><path d="M436 128h-84V44a12 12 0 0 0-12-12h-40a12 12 0 0 0-12 12v124a23.94 23.94 0 0 0 24 24h124a12 12 0 0 0 12-12v-40a12 12 0 0 0-12-12zM136 320H12a12 12 0 0 0-12 12v40a12 12 0 0 0 12 12h84v84a12 12 0 0 0 12 12h40a12 12 0 0 0 12-12V344a23.94 23.94 0 0 0-24-24z" class="fa-secondary"/><path d="M436 320H312a23.94 23.94 0 0 0-24 24v124a12 12 0 0 0 12 12h40a12 12 0 0 0 12-12v-84h84a12 12 0 0 0 12-12v-40a12 12 0 0 0-12-12zM148 32h-40a12 12 0 0 0-12 12v84H12a12 12 0 0 0-12 12v40a12 12 0 0 0 12 12h124a23.94 23.94 0 0 0 24-24V44a12 12 0 0 0-12-12z" class="fa-primary"/></svg>