<svg xmlns="http://www.w3.org/2000/svg" viewBox="0 0 496 512"><!-- Font Awesome Pro 5.15.4 by @fontawesome - https://fontawesome.com License - https://fontawesome.com/license (Commercial License) --><defs><style>.fa-secondary{opacity:.4}</style></defs><path d="M248,8C111,8,0,119,0,256S111,504,248,504,496,393,496,256,385,8,248,8ZM374.14,156.05l-66,144.35a31.94,31.94,0,0,1-15.77,15.77L148,382.17c-16.65,7.61-33.81-9.55-26.2-26.2l66-144.35a31.94,31.94,0,0,1,15.77-15.77l144.34-66c16.66-7.6,33.81,9.55,26.2,26.2Z" class="fa-secondary"/><path d="M348,129.85l-144.34,66a31.94,31.94,0,0,0-15.77,15.77L121.89,356c-7.61,16.65,9.55,33.81,26.2,26.2l144.34-66a32,32,0,0,0,15.77-15.8l66-144.35c7.55-16.65-9.6-33.8-26.2-26.2ZM270.63,278.62a32,32,0,1,1,0-45.25h0A32,32,0,0,1,270.63,278.62Z" class="fa-primary"/></svg>