<svg xmlns="http://www.w3.org/2000/svg" viewBox="0 0 496 512"><!-- Font Awesome Pro 5.15.4 by @fontawesome - https://fontawesome.com License - https://fontawesome.com/license (Commercial License) --><defs><style>.fa-secondary{opacity:.4}</style></defs><path d="M248,8C111,8,0,119,0,256S111,504,248,504,496,393,496,256,385,8,248,8ZM88,256H56C56,150.1,142.1,64,248,64V96C159.8,96,88,167.8,88,256Zm160,96a96,96,0,1,1,96-96A96,96,0,0,1,248,352Z" class="fa-secondary"/><path d="M248,160a96,96,0,1,0,96,96A96,96,0,0,0,248,160Zm0,128a32,32,0,1,1,32-32A32,32,0,0,1,248,288Z" class="fa-primary"/></svg>