<svg xmlns="http://www.w3.org/2000/svg" viewBox="0 0 448 512"><!-- Font Awesome Pro 5.15.4 by @fontawesome - https://fontawesome.com License - https://fontawesome.com/license (Commercial License) --><defs><style>.fa-secondary{opacity:.4}</style></defs><path d="M224 280v112c0 21.38-25.8 32.09-40.92 17L152 376l-99.31 99.31a16 16 0 0 1-22.63 0L4.69 449.94a16 16 0 0 1 0-22.63L104 328l-32.92-31c-15.12-15.12-4.41-41 17-41h112A24 24 0 0 1 224 280z" class="fa-secondary"/><path d="M443.31 62.06a16 16 0 0 1 0 22.63L344 184l32.92 31c15.12 15.12 4.41 41-17 41H248a24 24 0 0 1-24-24V120c0-21.38 25.8-32.09 40.92-17L296 136l99.31-99.31a16 16 0 0 1 22.63 0z" class="fa-primary"/></svg>