<svg xmlns="http://www.w3.org/2000/svg" viewBox="0 0 512 512"><!-- Font Awesome Pro 5.15.4 by @fontawesome - https://fontawesome.com License - https://fontawesome.com/license (Commercial License) --><defs><style>.fa-secondary{opacity:.4}</style></defs><path d="M512 400v32a16 16 0 0 1-16 16H16a16 16 0 0 1-16-16v-32a16 16 0 0 1 16-16h480a16 16 0 0 1 16 16zM208 112h16v18.29a224.73 224.73 0 0 1 64 0V112h16a16 16 0 0 0 16-16V80a16 16 0 0 0-16-16h-96a16 16 0 0 0-16 16v16a16 16 0 0 0 16 16z" class="fa-secondary"/><path d="M480 352H32c0-123.71 100.29-224 224-224s224 100.29 224 224z" class="fa-primary"/></svg>