<svg xmlns="http://www.w3.org/2000/svg" viewBox="0 0 640 512"><!-- Font Awesome Pro 5.15.4 by @fontawesome - https://fontawesome.com License - https://fontawesome.com/license (Commercial License) --><defs><style>.fa-secondary{opacity:.4}</style></defs><path d="M634.66 460.17L349.5 15.92c-13.62-21.23-45.38-21.23-59 0L5.34 460.17C-9.14 482.73 7.52 512 34.85 512h570.3c27.33 0 43.99-29.27 29.51-51.83zM308 160a28 28 0 1 1-28 28 28 28 0 0 1 28-28zm-4 272a16 16 0 0 1-32 0v-32.77l-46.31-29.92-18.25 66.89A16 16 0 0 1 192 448a15.64 15.64 0 0 1-4.22-.56 16 16 0 0 1-11.24-19.64l29.75-109.11 83.07 53.67A31.92 31.92 0 0 1 304 399.23zm48 16l12-29.94A16 16 0 0 1 378.83 408h35.64l-94.8-58.34s-.08 0-.11-.07l-103.95-64a16 16 0 0 1-4.41-23.22l11.61-15.49a47.88 47.88 0 0 1 48.83-18l24.58 7.28c17.45 3.82 31.84 18.53 35.56 37.14l10.55 52.7L430 380l21.16-42.44a16 16 0 0 1 27.78-1.5L550.8 448z" class="fa-secondary"/><path d="M308 216a28 28 0 1 0-28-28 28 28 0 0 0 28 28zm-18.62 156.36l-83.07-53.67-29.75 109.11a16 16 0 0 0 11.24 19.64 15.64 15.64 0 0 0 4.2.56 16 16 0 0 0 15.42-11.8l18.25-66.89L272 399.23V432a16 16 0 0 0 32 0v-32.77a31.92 31.92 0 0 0-14.62-26.87zm74.6 45.7L352 448h198.8l-71.88-112a16 16 0 0 0-27.78 1.5L430 380l-87.67-54-10.55-52.7c-3.72-18.61-18.11-33.32-35.56-37.14l-24.58-7.28a47.88 47.88 0 0 0-48.83 18l-11.61 15.53a16 16 0 0 0 4.41 23.22l104 64 .11.07 94.75 58.3h-35.64A16 16 0 0 0 364 418.06z" class="fa-primary"/></svg>