<svg xmlns="http://www.w3.org/2000/svg" viewBox="0 0 640 512"><!-- Font Awesome Pro 5.15.4 by @fontawesome - https://fontawesome.com License - https://fontawesome.com/license (Commercial License) --><defs><style>.fa-secondary{opacity:.4}</style></defs><path d="M16 96v320h608V96zm96 288H80V128h32zm112 0h-32V128h32zm112 0h-32V128h32zm112 0h-32V128h32zm112 0h-32V128h32z" class="fa-secondary"/><path d="M624 416H16a16 16 0 0 0-16 16v32a16 16 0 0 0 16 16h608a16 16 0 0 0 16-16v-32a16 16 0 0 0-16-16zm0-384H16A16 16 0 0 0 0 48v32a16 16 0 0 0 16 16h608a16 16 0 0 0 16-16V48a16 16 0 0 0-16-16z" class="fa-primary"/></svg>