<svg xmlns="http://www.w3.org/2000/svg" viewBox="0 0 640 512"><!-- Font Awesome Pro 5.15.4 by @fontawesome - https://fontawesome.com License - https://fontawesome.com/license (Commercial License) --><defs><style>.fa-secondary{opacity:.4}</style></defs><path d="M304 0H80a16 16 0 0 0-16 16v224a16 16 0 0 0 16 16h224a16 16 0 0 0 16-16V16a16 16 0 0 0-16-16zm256 64H400a16 16 0 0 0-16 16v160a16 16 0 0 0 16 16h160a16 16 0 0 0 16-16V80a16 16 0 0 0-16-16z" class="fa-secondary"/><path d="M544 320H96a96 96 0 0 0 0 192h448a96 96 0 0 0 0-192zM128 448a32 32 0 1 1 32-32 32 32 0 0 1-32 32zm192 0a32 32 0 1 1 32-32 32 32 0 0 1-32 32zm192 0a32 32 0 1 1 32-32 32 32 0 0 1-32 32z" class="fa-primary"/></svg>