<svg xmlns="http://www.w3.org/2000/svg" viewBox="0 0 448 512"><!-- Font Awesome Pro 5.15.4 by @fontawesome - https://fontawesome.com License - https://fontawesome.com/license (Commercial License) --><defs><style>.fa-secondary{opacity:.4}</style></defs><path d="M352 96V0H152a24 24 0 0 0-24 24v368a24 24 0 0 0 24 24h272a24 24 0 0 0 24-24V96z" class="fa-secondary"/><path d="M96 392V96H24a24 24 0 0 0-24 24v368a24 24 0 0 0 24 24h272a24 24 0 0 0 24-24v-40H152a56.06 56.06 0 0 1-56-56zM441 73L375 7a24 24 0 0 0-17-7h-6v96h96v-6.06A24 24 0 0 0 441 73z" class="fa-primary"/></svg>