<svg xmlns="http://www.w3.org/2000/svg" viewBox="0 0 512 512"><!-- Font Awesome Pro 5.15.4 by @fontawesome - https://fontawesome.com License - https://fontawesome.com/license (Commercial License) --><defs><style>.fa-secondary{opacity:.4}</style></defs><path d="M206.68 111.08a39.13 39.13 0 0 1 45.42-13 40.21 40.21 0 0 1 57.28-32.95 39.86 39.86 0 0 1 61.13-26.57A40.07 40.07 0 0 1 398 11.7a39.12 39.12 0 0 1 38.41 9.6 40.13 40.13 0 0 1 75.51 20.8v3.2a40.51 40.51 0 0 1-22.1 34.53 40.33 40.33 0 0 1 9 38.41 41.29 41.29 0 0 1-27.2 27.19 39.49 39.49 0 0 1 2.88 37.77 40.2 40.2 0 0 1-30.08 23.05 39 39 0 0 1-1.59 37.44 39.79 39.79 0 0 1-31.69 19.85 39.15 39.15 0 0 1-4.79 36.8 39.86 39.86 0 0 1-4.87 5.31c-51.23-28.5-110.09-37.49-166.48-28.13a256.52 256.52 0 0 0-28.32-166.44z" class="fa-secondary"/><path d="M423.85 360c-88-76.52-221.49-72.92-305.21 10.79l-67.88 67.83L96 483.88a96 96 0 0 0 135.76 0l90.51-90.51 97.66-19.53c6.44-1.29 8.86-9.59 3.92-13.84zM201 284.85c15.42-67.76-.79-141.26-49-196.71-4.29-4.94-12.58-2.51-13.87 3.91l-19.54 97.68-90.47 90.51a96 96 0 0 0 0 135.77L96 348.12a254.29 254.29 0 0 1 105-63.27z" class="fa-primary"/></svg>