<svg xmlns="http://www.w3.org/2000/svg" viewBox="0 0 640 512"><!-- Font Awesome Pro 5.15.4 by @fontawesome - https://fontawesome.com License - https://fontawesome.com/license (Commercial License) --><defs><style>.fa-secondary{opacity:.4}</style></defs><path d="M96 160H64a96 96 0 0 1 96-96h320a96 96 0 0 1 96 96h-32a64.06 64.06 0 0 0-64 64v64H160v-64a64.06 64.06 0 0 0-64-64z" class="fa-secondary"/><path d="M640 256a63.84 63.84 0 0 1-32 55.1V432a16 16 0 0 1-16 16h-64a16 16 0 0 1-16-16v-16H128v16a16 16 0 0 1-16 16H48a16 16 0 0 1-16-16V311.1A63.79 63.79 0 0 1 64 192h32a32 32 0 0 1 32 32v96h384v-96a32 32 0 0 1 32-32h32a64.06 64.06 0 0 1 64 64z" class="fa-primary"/></svg>