<svg xmlns="http://www.w3.org/2000/svg" viewBox="0 0 640 512"><!-- Font Awesome Pro 5.15.4 by @fontawesome - https://fontawesome.com License - https://fontawesome.com/license (Commercial License) --><defs><style>.fa-secondary{opacity:.4}</style></defs><path d="M97.37 114.78A40.06 40.06 0 0 0 72 152v104a64 64 0 0 1-64 64H0v-32a63.61 63.61 0 0 1 24-49.59V152a88.1 88.1 0 0 1 88-88h48a64 64 0 0 0-62.63 50.78zm236.36 186.33A79.83 79.83 0 0 0 272 272c-49.29 0-78.11 40.73-79.9 75.89-.06 1.36-.1 2.73-.1 4.11a109 109 0 0 0 32 21.87v25.68c0 8.62 6.63 16 15.23 16.43A16 16 0 0 0 256 400v-17.31c9.1 1.12 12.81 2.36 32 0v16.87c0 8.62 6.63 16 15.23 16.43A16 16 0 0 0 320 400v-26.18A108.92 108.92 0 0 0 352 352a79.7 79.7 0 0 0-18.27-50.89z" class="fa-secondary"/><path d="M634 276.72l-10-13.81v-77a16 16 0 0 0-23-14.39c-10.89 5.41-19.6 13.62-26.47 23.09l-65.82-90.9A96 96 0 0 0 431 64H160a64 64 0 0 0-64 64v304a16 16 0 0 0 16 16h64a16 16 0 0 0 16-16v-80a80 80 0 0 1 160 0v80.79A16 16 0 0 0 368 448h64a16 16 0 0 0 16-16V256l32 32v41.48A64 64 0 0 0 490.71 365L532 427a47.24 47.24 0 0 0 85.66-17l21.73-108.6a31.56 31.56 0 0 0-5.39-24.68zM377.23 167.36l-22.89 22.76A116.65 116.65 0 0 1 272.08 224h-.16a116.66 116.66 0 0 1-82.26-33.88l-22.89-22.76C151.05 151.73 164.47 128 189 128h166c24.53 0 38 23.73 22.23 39.36zM576 352a16 16 0 1 1 16-16 16 16 0 0 1-16 16z" class="fa-primary"/></svg>