<svg xmlns="http://www.w3.org/2000/svg" viewBox="0 0 576 512"><!-- Font Awesome Pro 5.15.4 by @fontawesome - https://fontawesome.com License - https://fontawesome.com/license (Commercial License) --><defs><style>.fa-secondary{opacity:.4}</style></defs><path d="M0 432a48 48 0 0 0 48 48h480a48 48 0 0 0 48-48V256H0zm192-68a12 12 0 0 1 12-12h136a12 12 0 0 1 12 12v40a12 12 0 0 1-12 12H204a12 12 0 0 1-12-12zm-128 0a12 12 0 0 1 12-12h72a12 12 0 0 1 12 12v40a12 12 0 0 1-12 12H76a12 12 0 0 1-12-12zM528 32H48A48 48 0 0 0 0 80v48h576V80a48 48 0 0 0-48-48z" class="fa-secondary"/><path d="M576 256H0V128h576z" class="fa-primary"/></svg>