<svg xmlns="http://www.w3.org/2000/svg" viewBox="0 0 576 512"><!-- Font Awesome Pro 5.15.4 by @fontawesome - https://fontawesome.com License - https://fontawesome.com/license (Commercial License) --><defs><style>.fa-secondary{opacity:.4}</style></defs><path d="M268 256h-64a12 12 0 0 0-12 12v40a12 12 0 0 0 12 12h64a12 12 0 0 0 12-12v-40a12 12 0 0 0-12-12zm-104 0H76a12 12 0 0 0-12 12v40a12 12 0 0 0 12 12h88a12 12 0 0 0 12-12v-40a12 12 0 0 0-12-12zm208 0h-64a12 12 0 0 0-12 12v40a12 12 0 0 0 12 12h64a12 12 0 0 0 12-12v-40a12 12 0 0 0-12-12zm128 0h-88a12 12 0 0 0-12 12v40a12 12 0 0 0 12 12h88a12 12 0 0 0 12-12v-40a12 12 0 0 0-12-12z" class="fa-secondary"/><path d="M528 32H48A48 48 0 0 0 0 80v352a48 48 0 0 0 48 48h480a48 48 0 0 0 48-48V80a48 48 0 0 0-48-48zM192 268a12 12 0 0 1 12-12h64a12 12 0 0 1 12 12v40a12 12 0 0 1-12 12h-64a12 12 0 0 1-12-12zm-32 136a12 12 0 0 1-12 12H76a12 12 0 0 1-12-12v-8a12 12 0 0 1 12-12h72a12 12 0 0 1 12 12zm16-96a12 12 0 0 1-12 12H76a12 12 0 0 1-12-12v-40a12 12 0 0 1 12-12h88a12 12 0 0 1 12 12zm176 96a12 12 0 0 1-12 12H204a12 12 0 0 1-12-12v-8a12 12 0 0 1 12-12h136a12 12 0 0 1 12 12zm32-96a12 12 0 0 1-12 12h-64a12 12 0 0 1-12-12v-40a12 12 0 0 1 12-12h64a12 12 0 0 1 12 12zm128 0a12 12 0 0 1-12 12h-88a12 12 0 0 1-12-12v-40a12 12 0 0 1 12-12h88a12 12 0 0 1 12 12zm0-140a23.94 23.94 0 0 1-24 24h-80a23.94 23.94 0 0 1-24-24v-48a23.94 23.94 0 0 1 24-24h80a23.94 23.94 0 0 1 24 24z" class="fa-primary"/></svg>