<svg xmlns="http://www.w3.org/2000/svg" viewBox="0 0 640 512"><!-- Font Awesome Pro 5.15.4 by @fontawesome - https://fontawesome.com License - https://fontawesome.com/license (Commercial License) --><defs><style>.fa-secondary{opacity:.4}</style></defs><path d="M421.48 321.52L158 506c-8.9 6.2-20.5 7.9-30.4 3.5A216.24 216.24 0 0 1 .08 327.42c-.8-10.8 4.8-21.2 13.7-27.4l263.5-184.5-30.9 175.1z" class="fa-secondary"/><path d="M496 352a80 80 0 1 0 80 80 80 80 0 0 0-80-80zM635.7 30.4l-15.2-20.2A24.14 24.14 0 0 0 587 4.32l-144 100.5a32.07 32.07 0 0 1-44.6-7.9l-21.9-31.3a16 16 0 0 0-22.3-3.9l-21.3 14.9-30.9 175.1 175.1 30.9 21.3-14.9a16 16 0 0 0 3.9-22.3l-24.5-35a32.07 32.07 0 0 1 7.9-44.6l144.1-101.9a24.14 24.14 0 0 0 5.88-33.5z" class="fa-primary"/></svg>