<svg xmlns="http://www.w3.org/2000/svg" viewBox="0 0 512 512"><!-- Font Awesome Pro 5.15.4 by @fontawesome - https://fontawesome.com License - https://fontawesome.com/license (Commercial License) --><defs><style>.fa-secondary{opacity:.4}</style></defs><path d="M256 40C136.71 40 40 136.71 40 256s96.71 216 216 216 216-96.71 216-216S375.29 40 256 40zm107.48 323.48A152 152 0 1 1 408 256a151 151 0 0 1-44.52 107.48z" class="fa-secondary"/><path d="M256 224a32 32 0 1 0 32 32 32 32 0 0 0-32-32zm16 128h-32a16 16 0 0 0-16 16v128a16 16 0 0 0 16 16h32a16 16 0 0 0 16-16V368a16 16 0 0 0-16-16zM144 224H16a16 16 0 0 0-16 16v32a16 16 0 0 0 16 16h128a16 16 0 0 0 16-16v-32a16 16 0 0 0-16-16zm352 0H368a16 16 0 0 0-16 16v32a16 16 0 0 0 16 16h128a16 16 0 0 0 16-16v-32a16 16 0 0 0-16-16zM272 0h-32a16 16 0 0 0-16 16v128a16 16 0 0 0 16 16h32a16 16 0 0 0 16-16V16a16 16 0 0 0-16-16z" class="fa-primary"/></svg>