<svg xmlns="http://www.w3.org/2000/svg" viewBox="0 0 640 512"><!-- Font Awesome Pro 5.15.4 by @fontawesome - https://fontawesome.com License - https://fontawesome.com/license (Commercial License) --><defs><style>.fa-secondary{opacity:.4}</style></defs><path d="M447.27 487.67a12 12 0 0 1-7.17 15.38l-22.55 8.21a12 12 0 0 1-15.38-7.17l-44.65-120.17a192 192 0 0 0 48.73-7.7zM312.87 384H261l45.22 120.1a12 12 0 0 0 15.38 7.17l22.55-8.21a12 12 0 0 0 7.17-15.38zM640 96c0-35.35-43-64-96-64h-16a79.67 79.67 0 0 1 16 48v32z" class="fa-secondary"/><path d="M464 0a80 80 0 0 0-80 80v21L12.09 393.57a30.22 30.22 0 0 0 31.64 51.2L165.27 384H352c106 0 192-86 192-192V80a80 80 0 0 0-80-80zm0 104a24 24 0 1 1 24-24 24 24 0 0 1-24 24z" class="fa-primary"/></svg>