<svg xmlns="http://www.w3.org/2000/svg" viewBox="0 0 640 512"><!-- Font Awesome Pro 5.15.4 by @fontawesome - https://fontawesome.com License - https://fontawesome.com/license (Commercial License) --><defs><style>.fa-secondary{opacity:.4}</style></defs><path d="M544 464v32a16 16 0 0 1-16 16H112a16 16 0 0 1-16-16v-32a16 16 0 0 1 16-16h416a16 16 0 0 1 16 16z" class="fa-secondary"/><path d="M640 176a48 48 0 0 1-48 48 49 49 0 0 1-7.7-.8L512 416H128L55.7 223.2a49 49 0 0 1-7.7.8 48.36 48.36 0 1 1 43.7-28.2l72.3 43.4a32 32 0 0 0 44.2-11.6L289.7 85a48 48 0 1 1 60.6 0l81.5 142.6a32 32 0 0 0 44.2 11.6l72.4-43.4A47 47 0 0 1 544 176a48 48 0 0 1 96 0z" class="fa-primary"/></svg>