<svg xmlns="http://www.w3.org/2000/svg" viewBox="0 0 512 512"><!-- Font Awesome Pro 5.15.4 by @fontawesome - https://fontawesome.com License - https://fontawesome.com/license (Commercial License) --><defs><style>.fa-secondary{opacity:.4}</style></defs><path d="M480.85 85.58l-208-78a47.17 47.17 0 0 0-33.7-.1l-208 78a48.06 48.06 0 0 0-31.1 45v225.1a48 48 0 0 0 26.5 42.9l208 104a47.66 47.66 0 0 0 42.9 0l208-104a47.91 47.91 0 0 0 26.5-42.9v-225.1a47.93 47.93 0 0 0-31.1-44.9zM448 345.16l-160 80v-148.9l160-65zm.05-202.48l-192 78-192-78v-1.1l192-72 192 72z" class="fa-secondary"/><path d="M448 345.16l-160 80v-148.9l160-65z" class="fa-primary"/></svg>