<svg xmlns="http://www.w3.org/2000/svg" viewBox="0 0 640 512"><!-- Font Awesome Pro 5.15.4 by @fontawesome - https://fontawesome.com License - https://fontawesome.com/license (Commercial License) --><defs><style>.fa-secondary{opacity:.4}</style></defs><path d="M0 416a96 96 0 0 0 96 96h448a96 96 0 0 0 96-96v-32H0zm544-176H96a96 96 0 0 0-96 96v16h640v-16a96 96 0 0 0-96-96z" class="fa-secondary"/><path d="M554.1 192H85.9c13.2-37.2 48.4-64 90.1-64h48v-16A111.94 111.94 0 0 1 336 0h128a16 16 0 0 1 16 16v32a16 16 0 0 1-16 16c-117.7 0-176-11.4-176 48v16h176c41.7 0 76.9 26.8 90.1 64z" class="fa-primary"/></svg>