<svg xmlns="http://www.w3.org/2000/svg" viewBox="0 0 448 512"><!-- Font Awesome Pro 5.15.4 by @fontawesome - https://fontawesome.com License - https://fontawesome.com/license (Commercial License) --><defs><style>.fa-secondary{opacity:.4}</style></defs><path d="M96 224a96.49 96.49 0 0 0 13.36-.93L142.29 256l67.88-67.88-24.85-24.86A96 96 0 1 0 96 224zm0-128a32 32 0 1 1-32 32 32 32 0 0 1 32-32zm348.48 326.43a12 12 0 0 1 0 17 84 84 0 0 1-118.79 0L210.17 323.88 278.06 256z" class="fa-secondary"/><path d="M444.48 89.57a12 12 0 0 0 0-17 84 84 0 0 0-118.79 0L109.36 288.93a95.9 95.9 0 1 0 76 59.81zM96 416a32 32 0 1 1 32-32 32 32 0 0 1-32 32z" class="fa-primary"/></svg>