<svg xmlns="http://www.w3.org/2000/svg" viewBox="0 0 576 512"><!-- Font Awesome Pro 5.15.4 by @fontawesome - https://fontawesome.com License - https://fontawesome.com/license (Commercial License) --><defs><style>.fa-secondary{opacity:.4}</style></defs><path d="M528 0H48A48 48 0 0 0 0 48v320a48 48 0 0 0 48 48h480a48 48 0 0 0 48-48V48a48 48 0 0 0-48-48zm-16 288H64V64h448z" class="fa-secondary"/><path d="M64 64v224h448V64zm360 400h-72l-16-48h-96l-16 48h-72a24 24 0 0 0 0 48h272a24 24 0 0 0 0-48z" class="fa-primary"/></svg>