<svg xmlns="http://www.w3.org/2000/svg" viewBox="0 0 512 512"><!-- Font Awesome Pro 5.15.4 by @fontawesome - https://fontawesome.com License - https://fontawesome.com/license (Commercial License) --><defs><style>.fa-secondary{opacity:.4}</style></defs><path d="M416 0a96 96 0 1 0 96 96 96.15 96.15 0 0 0-96-96zm0 128a32 32 0 1 1 32-32 32 32 0 0 1-32 32z" class="fa-secondary"/><path d="M384 333.9c0 98.4-85.9 178.1-192 178.1S0 432.3 0 333.9C0 222.69 109.1 179.79 160.1 22.09c9.8-30.1 55.1-28.8 63.8 0 51.2 158.5 160.1 200 160.1 311.81z" class="fa-primary"/></svg>