<svg xmlns="http://www.w3.org/2000/svg" viewBox="0 0 512 512"><!-- Font Awesome Pro 5.15.4 by @fontawesome - https://fontawesome.com License - https://fontawesome.com/license (Commercial License) --><defs><style>.fa-secondary{opacity:.4}</style></defs><path d="M162.5 277.84l-64.42 4a161.92 161.92 0 0 1 0-51.74l64.42 4q-.6 2.55-1.06 5.18l-.09.6c-.11.64-.22 1.29-.31 1.95l-.12.82c-.08.58-.16 1.17-.23 1.75 0 .31-.07.62-.1.93-.07.56-.12 1.12-.17 1.68l-.09 1c-.05.56-.08 1.13-.12 1.69l-.06 1c0 .6-.06 1.2-.08 1.81v7c0 .61.05 1.21.08 1.81l.06 1c0 .56.07 1.13.12 1.69l.09 1c.05.56.1 1.12.17 1.68 0 .31.07.62.1.93.07.58.15 1.17.23 1.75l.12.82c.09.66.2 1.31.31 1.95l.09.6q.47 2.55 1.06 5.1zm11.95-72.5a96.68 96.68 0 0 1 8.09-11.13 96.52 96.52 0 0 1 22.79-19.74L162.63 126A161.73 161.73 0 0 0 126 162.62zM256 96a162 162 0 0 0-25.87 2.08l4 64.42c1.7-.4 3.43-.75 5.17-1.05l.62-.11c.64-.11 1.28-.21 1.93-.3l.84-.12 1.74-.23.94-.1c.55-.07 1.11-.12 1.67-.17l1-.09c.56-.05 1.13-.08 1.69-.12l1-.06 1.81-.08h7l1.81.08 1 .06c.56 0 1.13.07 1.69.12l1 .09c.56.05 1.12.1 1.67.17l.94.1 1.74.23.84.12c.65.09 1.29.19 1.93.3l.62.11c1.74.3 3.47.65 5.17 1.05l4-64.42A162 162 0 0 0 256 96zm25.87 317.92l-4-64.42c-1.7.4-3.43.75-5.17 1.05l-.62.11c-.64.11-1.28.21-1.93.3l-.84.12-1.74.23-.93.1-1.68.17-1 .09c-.56.05-1.13.08-1.69.12l-1 .06-1.81.08h-7l-1.81-.08-1-.06c-.56 0-1.13-.07-1.69-.12l-1-.09-1.69-.17-.92-.1-1.77-.23-.8-.12c-.66-.09-1.32-.2-2-.31l-.58-.09q-2.61-.46-5.18-1.06l-4 64.42a162 162 0 0 0 51.75 0zm68.69-174.58l.09.6c.11.64.22 1.29.31 1.95l.12.82c.08.58.16 1.17.23 1.75 0 .31.07.62.1.93.07.56.12 1.12.17 1.68l.09 1c.05.56.08 1.13.12 1.69l.06 1c0 .6.06 1.2.08 1.81v7c0 .6-.05 1.2-.08 1.81l-.06 1c0 .56-.07 1.12-.12 1.68l-.09 1c-.05.56-.1 1.12-.17 1.67 0 .32-.07.63-.1.94-.07.58-.15 1.16-.23 1.73 0 .28-.07.57-.12.85-.09.64-.19 1.28-.3 1.91 0 .21-.07.43-.11.64-.14.84-.3 1.68-.47 2.52-.18.89-.37 1.77-.58 2.64l64.42 4a161.92 161.92 0 0 0 0-51.74l-64.42 4q.6 2.49 1.06 5.12zm83.53-119.2l12.78-11.27a16 16 0 0 0 .73-23.31L426.44 64.4a16 16 0 0 0-23.31.73l-11.28 12.78a224.93 224.93 0 0 1 42.24 42.23zm-228.76 217.4a96.39 96.39 0 0 1-30.88-30.88L126 349.37a161.82 161.82 0 0 0 16.82 19.77 163.52 163.52 0 0 0 19.8 16.86l42.71-48.41zm132.23-30.89a96.64 96.64 0 0 1-19.75 22.8 94.54 94.54 0 0 1-11.14 8.1L349.38 386a163.52 163.52 0 0 0 19.76-16.82A161.82 161.82 0 0 0 386 349.37zM32 256a226.63 226.63 0 0 1 2-29.88l-17-1.06A16 16 0 0 0 0 241v30a16 16 0 0 0 17 16l17-1.06A226.63 226.63 0 0 1 32 256zm414.88 147.12l-12.78-11.28a225 225 0 0 1-42.24 42.25l11.27 12.78a16 16 0 0 0 23.31.73l21.17-21.17a16 16 0 0 0-.73-23.31zM495 225.06l-17 1.06a225.32 225.32 0 0 1 0 59.76l17 1.06a16 16 0 0 0 17-16V241a16 16 0 0 0-17-15.94zM285.88 478a225.32 225.32 0 0 1-59.76 0l-1.06 17a16 16 0 0 0 16 17H271a16 16 0 0 0 16-17zm63.49-352l-42.71 48.41a96.33 96.33 0 0 1 22.79 19.75 95.58 95.58 0 0 1 8.1 11.13L386 162.62A161.73 161.73 0 0 0 349.37 126zM226.12 34a225.32 225.32 0 0 1 59.76 0l1.06-17A16 16 0 0 0 271 0h-30a16 16 0 0 0-16 17zm-161 74.88l12.78 11.27a225.58 225.58 0 0 1 42.25-42.25l-11.27-12.77a16 16 0 0 0-23.31-.73L64.4 85.56a16 16 0 0 0 .73 23.31zm12.77 283l-12.76 11.24a16 16 0 0 0-.73 23.31l21.17 21.17a16 16 0 0 0 23.31-.73l11.27-12.77a225.39 225.39 0 0 1-42.25-42.25z" class="fa-secondary"/><path d="M256 32C132.29 32 32 132.29 32 256s100.29 224 224 224 224-100.29 224-224S379.71 32 256 32zm113.14 337.14A160 160 0 1 1 416 256a159 159 0 0 1-46.86 113.14zM256 160a96 96 0 1 0 96 96 96 96 0 0 0-96-96zm0 128a32 32 0 1 1 32-32 32 32 0 0 1-32 32z" class="fa-primary"/></svg>