<svg xmlns="http://www.w3.org/2000/svg" viewBox="0 0 480 512"><!-- Font Awesome Pro 5.15.4 by @fontawesome - https://fontawesome.com License - https://fontawesome.com/license (Commercial License) --><defs><style>.fa-secondary{opacity:.4}</style></defs><path d="M240 0a15.88 15.88 0 0 0-13.63 7.62L130.79 176h218.42L253.63 7.62A15.88 15.88 0 0 0 240 0zm-71.38 11.74L17.81 110.35a4 4 0 0 0 .13 6.78l81.53 48.69L179.4 22.88c4.34-7.06-3.59-15.25-10.78-11.14zm293.57 98.6l-150.81-98.6c-7.19-4.11-15.12 4.08-10.78 11.14l79.93 142.94 81.53-48.7a4 4 0 0 0 .13-6.78z" class="fa-secondary"/><path d="M106.75 215.06L1.2 371a8 8 0 0 0 5.93 12.14l208.26 22.07zM7.41 315.43L82.7 193.08l-76.64-46A4 4 0 0 0 0 150.53v162.81a4 4 0 0 0 7.41 2.09zM18.25 423.6l194.4 87.66A8 8 0 0 0 224 504v-65.67L20.45 416a4 4 0 0 0-2.2 7.6zM139.57 208L240 383.75 340.43 208zM480 313.34V150.53a4 4 0 0 0-6.06-3.43l-76.64 46 75.29 122.35a4 4 0 0 0 7.41-2.11zM478.81 371L373.25 215.06l-108.63 190.1 208.26-22.07a8 8 0 0 0 5.93-12.09zm-19.26 45L256 438.32V504a8 8 0 0 0 11.35 7.26l194.4-87.66a4 4 0 0 0-2.2-7.6z" class="fa-primary"/></svg>