<svg xmlns="http://www.w3.org/2000/svg" viewBox="0 0 640 512"><!-- Font Awesome Pro 5.15.4 by @fontawesome - https://fontawesome.com License - https://fontawesome.com/license (Commercial License) --><defs><style>.fa-secondary{opacity:.4}</style></defs><path d="M296 336H72a8 8 0 0 0-8 8v8a8 8 0 0 0 8 8h224a8 8 0 0 0 8-8v-8a8 8 0 0 0-8-8zm272 0H344a8 8 0 0 0-8 8v8a8 8 0 0 0 8 8h224a8 8 0 0 0 8-8v-8a8 8 0 0 0-8-8zM288 160H80a16 16 0 0 0-16 16v48a16 16 0 0 0 16 16h208a16 16 0 0 0 16-16v-48a16 16 0 0 0-16-16z" class="fa-secondary"/><path d="M608 96H32a32 32 0 0 0-32 32v256a32 32 0 0 0 32 32h576a32 32 0 0 0 32-32V128a32 32 0 0 0-32-32zM304 352a8 8 0 0 1-8 8H72a8 8 0 0 1-8-8v-8a8 8 0 0 1 8-8h224a8 8 0 0 1 8 8zM72 288v-16a8 8 0 0 1 8-8h16a8 8 0 0 1 8 8v16a8 8 0 0 1-8 8H80a8 8 0 0 1-8-8zm64 0v-16a8 8 0 0 1 8-8h16a8 8 0 0 1 8 8v16a8 8 0 0 1-8 8h-16a8 8 0 0 1-8-8zm64 0v-16a8 8 0 0 1 8-8h16a8 8 0 0 1 8 8v16a8 8 0 0 1-8 8h-16a8 8 0 0 1-8-8zm64 0v-16a8 8 0 0 1 8-8h16a8 8 0 0 1 8 8v16a8 8 0 0 1-8 8h-16a8 8 0 0 1-8-8zm40-64a16 16 0 0 1-16 16H80a16 16 0 0 1-16-16v-48a16 16 0 0 1 16-16h208a16 16 0 0 1 16 16zm272 128a8 8 0 0 1-8 8H344a8 8 0 0 1-8-8v-8a8 8 0 0 1 8-8h224a8 8 0 0 1 8 8z" class="fa-primary"/></svg>