<svg xmlns="http://www.w3.org/2000/svg" viewBox="0 0 496 512"><!-- Font Awesome Pro 5.15.4 by @fontawesome - https://fontawesome.com License - https://fontawesome.com/license (Commercial License) --><defs><style>.fa-secondary{opacity:.4}</style></defs><path d="M248,8C111,8,0,119,0,256S111,504,248,504,496,393,496,256,385,8,248,8ZM152,214.6l-28.7,28.7c-14.8,14.8-37.8-7.5-22.6-22.6L129.4,192l-28.7-28.7c-15-15,7.7-37.6,22.6-22.6L152,169.4l28.7-28.7c15-15,37.6,7.7,22.6,22.6L174.6,192l28.7,28.7c15.2,15.2-7.9,37.4-22.6,22.6ZM248,416a64,64,0,1,1,64-64A64,64,0,0,1,248,416ZM372.7,243.3,344,214.6l-28.7,28.7c-14.8,14.8-37.8-7.5-22.6-22.6L321.4,192l-28.7-28.7c-15-15,7.7-37.6,22.6-22.6L344,169.4l28.7-28.7c15-15,37.6,7.7,22.6,22.6L366.6,192l28.7,28.7C410.5,235.9,387.4,258.1,372.7,243.3Z" class="fa-secondary"/><path d="M395.3,220.7,366.6,192l28.7-28.7c15-14.9-7.6-37.6-22.6-22.6L344,169.4l-28.7-28.7c-14.9-15-37.6,7.6-22.6,22.6L321.4,192l-28.7,28.7c-15.2,15.1,7.8,37.4,22.6,22.6L344,214.6l28.7,28.7c14.7,14.8,37.8-7.4,22.6-22.6ZM174.6,192l28.7-28.7c15-14.9-7.6-37.6-22.6-22.6L152,169.4l-28.7-28.7c-14.9-15-37.6,7.6-22.6,22.6L129.4,192l-28.7,28.7c-15.2,15.1,7.8,37.4,22.6,22.6L152,214.6l28.7,28.7c14.7,14.8,37.8-7.4,22.6-22.6Z" class="fa-primary"/></svg>