<svg xmlns="http://www.w3.org/2000/svg" viewBox="0 0 496 512"><!-- Font Awesome Pro 5.15.4 by @fontawesome - https://fontawesome.com License - https://fontawesome.com/license (Commercial License) --><defs><style>.fa-secondary{opacity:.4}</style></defs><path d="M56,288V224a16,16,0,0,1,16-16H424a16,16,0,0,1,16,16v64a16,16,0,0,1-16,16H72A16,16,0,0,1,56,288Z" class="fa-secondary"/><path d="M248,8C111,8,0,119,0,256S111,504,248,504,496,393,496,256,385,8,248,8ZM424,304H72a16,16,0,0,1-16-16V224a16,16,0,0,1,16-16H424a16,16,0,0,1,16,16v64A16,16,0,0,1,424,304Z" class="fa-primary"/></svg>