<svg xmlns="http://www.w3.org/2000/svg" viewBox="0 0 640 512"><!-- Font Awesome Pro 5.15.4 by @fontawesome - https://fontawesome.com License - https://fontawesome.com/license (Commercial License) --><defs><style>.fa-secondary{opacity:.4}</style></defs><path d="M162.74 448a48 48 0 1 0 90.52 0zm378.52 0h-90.52a48 48 0 1 0 90.52 0z" class="fa-secondary"/><path d="M640 400v32a16 16 0 0 1-16 16H80a16 16 0 0 1-16-16V64H16A16 16 0 0 1 0 48V16A16 16 0 0 1 16 0h96a16 16 0 0 1 16 16v368h496a16 16 0 0 1 16 16z" class="fa-primary"/></svg>