<svg xmlns="http://www.w3.org/2000/svg" viewBox="0 0 288 512"><!-- Font Awesome Pro 5.15.4 by @fontawesome - https://fontawesome.com License - https://fontawesome.com/license (Commercial License) --><defs><style>.fa-secondary{opacity:.4}</style></defs><path d="M176,64H112V16A16,16,0,0,1,128,0h32a16,16,0,0,1,16,16ZM112,448v48a16,16,0,0,0,16,16h32a16,16,0,0,0,16-16V448Z" class="fa-secondary"/><path d="M281.72,375.1c-15.4,44.1-59.11,71.8-105.72,72.7l-64,.2a141.39,141.39,0,0,1-86.51-30c-7.9-6.1-8.9-17.6-1.8-24.5l34.81-34a15.6,15.6,0,0,1,19.5-2A61,61,0,0,0,112.19,368H178.5a29.49,29.49,0,0,0,8.3-57.8l-102.52-30c-44.4-13-79.61-50.5-83.81-96.6A109.57,109.57,0,0,1,99.55,64.46h0c3.3-.3,6.61-.46,9.92-.46H176a141.44,141.44,0,0,1,86.52,30c7.9,6.1,8.9,17.6,1.8,24.5l-34.81,34a15.6,15.6,0,0,1-19.5,2A61.1,61.1,0,0,0,175.8,144H109.49a29.49,29.49,0,0,0-8.3,57.8l108,31.6C267.12,250.3,303.23,313.5,281.72,375.1Z" class="fa-primary"/></svg>