<svg xmlns="http://www.w3.org/2000/svg" viewBox="0 0 512 512"><!-- Font Awesome Pro 5.15.4 by @fontawesome - https://fontawesome.com License - https://fontawesome.com/license (Commercial License) --><defs><style>.fa-secondary{opacity:.4}</style></defs><path d="M39.9 196.71A224.68 224.68 0 0 1 196.71 39.9a64 64 0 0 0 9.34 64.1A160.73 160.73 0 0 0 104 206.06a64 64 0 0 0-64.1-9.35zM320 64a63.76 63.76 0 0 1-14 40 160.73 160.73 0 0 1 102 102.06 64 64 0 0 1 64.1-9.35A224.68 224.68 0 0 0 315.29 39.9 63.73 63.73 0 0 1 320 64zm128 256a63.76 63.76 0 0 1-40-14 160.73 160.73 0 0 1-102 102 64 64 0 0 1 9.34 64.1A224.68 224.68 0 0 0 472.1 315.29 63.73 63.73 0 0 1 448 320zM192 448a63.76 63.76 0 0 1 14.05-40A160.73 160.73 0 0 1 104 306a64 64 0 0 1-64.1 9.34A224.68 224.68 0 0 0 196.71 472.1 63.73 63.73 0 0 1 192 448z" class="fa-secondary"/><path d="M256 384a64 64 0 1 0 64 64 64 64 0 0 0-64-64zm0 80a16 16 0 1 1 16-16 16 16 0 0 1-16 16zm0-464a64 64 0 1 0 64 64 64 64 0 0 0-64-64zm0 80a16 16 0 1 1 16-16 16 16 0 0 1-16 16zM64 192a64 64 0 1 0 64 64 64 64 0 0 0-64-64zm0 80a16 16 0 1 1 16-16 16 16 0 0 1-16 16zm384-80a64 64 0 1 0 64 64 64 64 0 0 0-64-64zm0 80a16 16 0 1 1 16-16 16 16 0 0 1-16 16z" class="fa-primary"/></svg>