<svg xmlns="http://www.w3.org/2000/svg" viewBox="0 0 448 512"><!-- Font Awesome Pro 5.15.4 by @fontawesome - https://fontawesome.com License - https://fontawesome.com/license (Commercial License) --><defs><style>.fa-secondary{opacity:.4}</style></defs><path d="M32 360.58V151.42a64 64 0 0 0 64 0v209.16a64 64 0 0 0-64 0zM119.42 64a64 64 0 0 1 0 64h209.16a64 64 0 0 1 0-64zM384 160a63.68 63.68 0 0 1-32-8.58v209.16a64 64 0 0 1 64 0V151.42a63.68 63.68 0 0 1-32 8.58zm-55.42 288a64 64 0 0 1 0-64H119.42a64 64 0 0 1 0 64z" class="fa-secondary"/><path d="M64 32a64 64 0 1 0 64 64 64 64 0 0 0-64-64zm0 80a16 16 0 1 1 16-16 16 16 0 0 1-16 16zm320 48a64 64 0 1 0-64-64 64 64 0 0 0 64 64zm0-80a16 16 0 1 1-16 16 16 16 0 0 1 16-16zm0 272a64 64 0 1 0 64 64 64 64 0 0 0-64-64zm0 80a16 16 0 1 1 16-16 16 16 0 0 1-16 16zM64 352a64 64 0 1 0 64 64 64 64 0 0 0-64-64zm0 80a16 16 0 1 1 16-16 16 16 0 0 1-16 16z" class="fa-primary"/></svg>