<svg xmlns="http://www.w3.org/2000/svg" viewBox="0 0 448 512"><!-- Font Awesome Pro 5.15.4 by @fontawesome - https://fontawesome.com License - https://fontawesome.com/license (Commercial License) --><defs><style>.fa-secondary{opacity:.4}</style></defs><path d="M32 360.58V151.42a64 64 0 0 0 64 0v209.16a64 64 0 0 0-64 0zM119.42 64a64 64 0 0 1 0 64h208.06l-38.41 64A64 64 0 0 1 344 224.94l39-65a64 64 0 0 1-54.35-96zm209.16 384a64 64 0 0 1 54.35-96l-39-65a64 64 0 0 1-54.86 33l38.41 64H119.42a64 64 0 0 1 0 64z" class="fa-secondary"/><path d="M64 32a64 64 0 1 0 64 64 64 64 0 0 0-64-64zm0 80a16 16 0 1 1 16-16 16 16 0 0 1-16 16zm320 48a64 64 0 1 0-64-64 64 64 0 0 0 64 64zm0-80a16 16 0 1 1-16 16 16 16 0 0 1 16-16zM64 352a64 64 0 1 0 64 64 64 64 0 0 0-64-64zm0 80a16 16 0 1 1 16-16 16 16 0 0 1-16 16zm320-80a64 64 0 1 0 64 64 64 64 0 0 0-64-64zm0 80a16 16 0 1 1 16-16 16 16 0 0 1-16 16zm-32-176a64 64 0 1 0-64 64 64 64 0 0 0 64-64zm-64 16a16 16 0 1 1 16-16 16 16 0 0 1-16 16z" class="fa-primary"/></svg>