<svg xmlns="http://www.w3.org/2000/svg" viewBox="0 0 512 512"><!-- Font Awesome Pro 5.15.4 by @fontawesome - https://fontawesome.com License - https://fontawesome.com/license (Commercial License) --><defs><style>.fa-secondary{opacity:.4}</style></defs><path d="M300.34 160l38.86-28.06a64.05 64.05 0 1 1 40.86 40.86L352 211.66v1.56A111.93 111.93 0 1 0 298.78 160zm-88.68 192L172 380.64a64.06 64.06 0 1 1-40.25-41.17L160 300.34v-1.08A111.93 111.93 0 1 0 212.22 352zM111 0a112 112 0 1 0 49 212.74v-1.08l-28.25-39.13A64 64 0 1 1 172 131.36L211.66 160h.56A112 112 0 0 0 111 0zm289 288a111.58 111.58 0 0 0-48 10.78v1.56l28.06 38.86a64.05 64.05 0 1 1-40.86 40.86L300.34 352h-1.56A112 112 0 1 0 400 288z" class="fa-secondary"/><path d="M432 399.19a31.91 31.91 0 1 1-63.8 1.81l-67.86-49h-88.68l-67.86 49a31.91 31.91 0 1 1-32.8-32.8l49-67.86v-88.68l-49-67.86a31.91 31.91 0 1 1 32.8-32.8l67.86 49h88.68l67.86-49a31.91 31.91 0 1 1 32.8 32.8l-49 67.86v88.68l49 67.86a31.9 31.9 0 0 1 31 30.99z" class="fa-primary"/></svg>