<svg xmlns="http://www.w3.org/2000/svg" viewBox="0 0 576 512"><!-- Font Awesome Pro 5.15.4 by @fontawesome - https://fontawesome.com License - https://fontawesome.com/license (Commercial License) --><defs><style>.fa-secondary{opacity:.4}</style></defs><path d="M172 90l25.6 44.34a73.16 73.16 0 0 1-20.94 96.53C100.23 217.46 48 190.78 48 160c0-30.16 50.11-56.39 124-70zm116 70a64.07 64.07 0 0 0 64-64V83c-20.4-1.88-41.8-3-64-3s-43.6 1.08-64 3v13a64.07 64.07 0 0 0 64 64zm110.93 70.9C475.6 217.54 528 190.83 528 160c0-30.21-50.28-56.5-124.44-70.1l-25.65 44.42a73.13 73.13 0 0 0 21 96.58zm-50 6.4c-8.1-26.13-32.19-45.3-60.93-45.3s-52.83 19.17-60.89 45.3c19.48 1.7 39.81 2.7 60.89 2.7s41.41-1 60.89-2.7z" class="fa-secondary"/><path d="M288 32C128.94 32 0 89.31 0 160v192c0 70.69 128.94 128 288 128s288-57.31 288-128V160c0-70.69-128.94-128-288-128zm-83 158.36a73 73 0 0 1-28.31 40.48C100.23 217.46 48 190.78 48 160c0-30.16 50.11-56.39 124-70l25.6 44.34a73.39 73.39 0 0 1 7.4 56.02zM288 240c-21.08 0-41.41-1-60.89-2.7 8.06-26.13 32.15-45.3 60.89-45.3s52.83 19.17 60.89 45.3C329.41 239 309.08 240 288 240zm64-144a64 64 0 0 1-128 0V83c20.4-1.88 41.8-3 64-3s43.6 1.08 64 3zm46.93 134.9a73.13 73.13 0 0 1-21-96.58l25.63-44.42C477.72 103.5 528 129.79 528 160c0 30.83-52.4 57.54-129.07 70.9z" class="fa-primary"/></svg>