<svg xmlns="http://www.w3.org/2000/svg" viewBox="0 0 512 512"><!-- Font Awesome Pro 5.15.4 by @fontawesome - https://fontawesome.com License - https://fontawesome.com/license (Commercial License) --><defs><style>.fa-secondary{opacity:.4}</style></defs><path d="M304 189.36V472a8 8 0 0 0 8 8h16a8 8 0 0 0 8-8V219.13a96.32 96.32 0 0 0-32-29.77zm-64-11.74V472a8 8 0 0 0 8 8h16a8 8 0 0 0 8-8V177.62a94.83 94.83 0 0 0-16-1.62 94.83 94.83 0 0 0-16 1.62zm-64 41.51V472a8 8 0 0 0 8 8h16a8 8 0 0 0 8-8V189.36a96.32 96.32 0 0 0-32 29.77z" class="fa-secondary"/><path d="M112 288H16a16 16 0 0 0-16 16v64a16 16 0 0 0 16 16h96a16 16 0 0 0 16-16v-64a16 16 0 0 0-16-16zm16.73-92.68l-82.81-51.76c-8-5-19-2.17-22.93 6.45A254.32 254.32 0 0 0 .54 239.28C0 248.37 7.59 256 16.69 256h97.13c8 0 14.08-6.25 15-14.16a126.36 126.36 0 0 1 6.24-26.94c2.57-7.34.26-15.46-6.33-19.58zM453 93.11a257.4 257.4 0 0 0-71.61-59.89c-8.28-4.68-18.88-.52-22.42 8.31l-36.32 90.8c-2.85 7.12 0 14.88 6.3 19.28a127.56 127.56 0 0 1 16.79 14c5.44 5.41 13.6 6.86 20.11 2.79l82.93-51.83c8.1-4.98 10.32-16.14 4.22-23.46zM496 416h-96a16 16 0 0 0-16 16v64a16 16 0 0 0 16 16h96a16 16 0 0 0 16-16v-64a16 16 0 0 0-16-16zM153 41.53c-3.53-8.83-14.13-13-22.42-8.31A257.4 257.4 0 0 0 59 93.11c-6.06 7.32-3.85 18.48 4.22 23.52l82.93 51.83c6.51 4.07 14.66 2.62 20.11-2.79a127.56 127.56 0 0 1 16.79-14c6.28-4.41 9.15-12.17 6.3-19.29zM112 416H16a16 16 0 0 0-16 16v64a16 16 0 0 0 16 16h96a16 16 0 0 0 16-16v-64a16 16 0 0 0-16-16zm384-128h-96a16 16 0 0 0-16 16v64a16 16 0 0 0 16 16h96a16 16 0 0 0 16-16v-64a16 16 0 0 0-16-16zm-97.82-32h97.13c9.1 0 16.74-7.63 16.15-16.72A254.05 254.05 0 0 0 489 150c-3.94-8.62-14.89-11.47-22.93-6.45l-82.81 51.76c-6.59 4.12-8.9 12.24-6.34 19.58a125.9 125.9 0 0 1 6.24 26.94c.94 7.92 7.06 14.17 15.02 14.17zM319 8a252.3 252.3 0 0 0-126 0c-9.17 2.35-13.91 12.6-10.39 21.39l37.47 104a16 16 0 0 0 15 10.58h41.8A16 16 0 0 0 292 133.42l37.47-104C332.94 20.6 328.2 10.36 319 8z" class="fa-primary"/></svg>