<svg xmlns="http://www.w3.org/2000/svg" viewBox="0 0 640 512"><!-- Font Awesome Pro 5.15.4 by @fontawesome - https://fontawesome.com License - https://fontawesome.com/license (Commercial License) --><defs><style>.fa-secondary{opacity:.4}</style></defs><path d="M83.44 200.9C102.24 87.1 200.94 0 319.94 0s217.8 87.2 236.5 201a69.63 69.63 0 0 0-15.7-2 72.82 72.82 0 0 0-18 2.3 71.77 71.77 0 0 0-16.5-6.8C485.74 110.6 410.14 48 319.94 48s-165.8 62.6-186.3 146.6a73.62 73.62 0 0 0-16 6.5 72.82 72.82 0 0 0-18-2.3 67.89 67.89 0 0 0-16.2 2.1z" class="fa-secondary"/><path d="M639 335a39.92 39.92 0 0 0-21.4-26.9 39 39 0 0 0-8-33.6 40.3 40.3 0 0 0-31.7-14.7 39.6 39.6 0 0 0-23.4-26.2c-12.7-5-26.1-2.5-36.8 4.5-7.3-8.4-17.8-14.1-29.9-14.1a40 40 0 0 0-40 40c0 10.1 4.1 19 10.2 26a39.5 39.5 0 0 0-10.2 26.1 39.05 39.05 0 0 0 9.6 25.9 39.74 39.74 0 0 0 0 51.8 39.05 39.05 0 0 0-9.6 25.9 39.5 39.5 0 0 0 10.2 26.1 39.63 39.63 0 0 0 59.1 52.8 40.47 40.47 0 0 0 22 6.5 33.57 33.57 0 0 0 14.7-2.9 38.75 38.75 0 0 0 23.4-25.9 41.17 41.17 0 0 0 32-14.4 40.39 40.39 0 0 0 8.3-33.6 40.36 40.36 0 0 0 21.1-26.9 39 39 0 0 0-7.4-33.3A39.19 39.19 0 0 0 639 335zM151.94 224a39.23 39.23 0 0 0-29.6 13.7c-10.6-6.9-23.8-9.3-36.4-4.4a41.06 41.06 0 0 0-23.7 26.2 39.81 39.81 0 0 0-40 48 39.93 39.93 0 0 0-13.7 60.2 39.79 39.79 0 0 0 13.7 60.5 38.59 38.59 0 0 0 8 33.3 40.3 40.3 0 0 0 31.7 14.7 40.26 40.26 0 0 0 23.4 26.2 42 42 0 0 0 15 2.9 39.46 39.46 0 0 0 22.1-6.8 39.35 39.35 0 0 0 29.5 13.5 40 40 0 0 0 40-40 39.3 39.3 0 0 0-10.1-25.9 39.3 39.3 0 0 0 10.1-25.9 39.84 39.84 0 0 0-9.6-26.2 39.74 39.74 0 0 0 0-51.8 39.05 39.05 0 0 0 9.6-25.9 39.5 39.5 0 0 0-10.2-26.1 39.65 39.65 0 0 0-29.8-66.2z" class="fa-primary"/></svg>