<svg xmlns="http://www.w3.org/2000/svg" viewBox="0 0 640 512"><!-- Font Awesome Pro 5.15.4 by @fontawesome - https://fontawesome.com License - https://fontawesome.com/license (Commercial License) --><defs><style>.fa-secondary{opacity:.4}</style></defs><path d="M512 32.15h-72.65A63.9 63.9 0 1 0 352 119.24v72.86a32 32 0 0 0 28.78 31.83H408a8 8 0 0 1 8 8v16a8 8 0 0 1-8 8l-24 .12a64.06 64.06 0 0 1-64-64v-56.73a96 96 0 0 1-32-71.18 94.71 94.71 0 0 1 5.9-32H192c-106 0-192 86-192 191.94v112a16 16 0 0 0 16 16h16V496a16 16 0 0 0 16 16h64a16 16 0 0 0 16-16V388.19C160.35 405.73 198.72 416 240 416s79.65-10.3 112-27.84V496a16 16 0 0 0 16 16h64a16 16 0 0 0 16-16V288.07h64c23.44 0 45.11-6.76 64-17.74v97.31A16.26 16.26 0 0 1 560.14 384 16 16 0 0 1 544 368.19v-.14c0-8.78-7.64-16-16.42-16H496a16 16 0 0 0-16 16 80.07 80.07 0 0 0 88.36 79.54C610 443.34 640 405.14 640 363.32V160.11A128 128 0 0 0 512 32.15zm16 128a16 16 0 1 1 16-16 16 16 0 0 1-16 15.96z" class="fa-secondary"/><path d="M528 128a16 16 0 1 0 16 16 16 16 0 0 0-16-16zm-176 64.16v-72.88A63.89 63.89 0 0 1 328.54 32l-34.64.16a94.77 94.77 0 0 0-5.9 32 96 96 0 0 0 32 71.2v56.8A64.07 64.07 0 0 0 379.74 256H408a8 8 0 0 0 8-8v-16a8 8 0 0 0-8-8h-27.22A32 32 0 0 1 352 192.16z" class="fa-primary"/></svg>