<svg xmlns="http://www.w3.org/2000/svg" viewBox="0 0 512 512"><!-- Font Awesome Pro 5.15.4 by @fontawesome - https://fontawesome.com License - https://fontawesome.com/license (Commercial License) --><defs><style>.fa-secondary{opacity:.4}</style></defs><path d="M80 184a72 72 0 1 0 72 72 72 72 0 0 0-72-72zm0 96a24 24 0 1 1 24-24 24 24 0 0 1-24 24zm352-96a72 72 0 1 0 72 72 72 72 0 0 0-72-72zm0 96a24 24 0 1 1 24-24 24 24 0 0 1-24 24zm-176-96a72 72 0 1 0 72 72 72 72 0 0 0-72-72zm0 96a24 24 0 1 1 24-24 24 24 0 0 1-24 24z" class="fa-secondary"/><path d="M80 232a24 24 0 1 0 24 24 24 24 0 0 0-24-24zm176 0a24 24 0 1 0 24 24 24 24 0 0 0-24-24zm176 0a24 24 0 1 0 24 24 24 24 0 0 0-24-24z" class="fa-primary"/></svg>