<svg xmlns="http://www.w3.org/2000/svg" viewBox="0 0 192 512"><!-- Font Awesome Pro 5.15.4 by @fontawesome - https://fontawesome.com License - https://fontawesome.com/license (Commercial License) --><defs><style>.fa-secondary{opacity:.4}</style></defs><path d="M168 80a72 72 0 1 0-72 72 72 72 0 0 0 72-72zm-96 0a24 24 0 1 1 24 24 24 24 0 0 1-24-24zm96 352a72 72 0 1 0-72 72 72 72 0 0 0 72-72zm-96 0a24 24 0 1 1 24 24 24 24 0 0 1-24-24zm96-176a72 72 0 1 0-72 72 72 72 0 0 0 72-72zm-96 0a24 24 0 1 1 24 24 24 24 0 0 1-24-24z" class="fa-secondary"/><path d="M120 80a24 24 0 1 0-24 24 24 24 0 0 0 24-24zm0 176a24 24 0 1 0-24 24 24 24 0 0 0 24-24zm0 176a24 24 0 1 0-24 24 24 24 0 0 0 24-24z" class="fa-primary"/></svg>