<svg xmlns="http://www.w3.org/2000/svg" viewBox="0 0 512 512"><!-- Font Awesome Pro 5.15.4 by @fontawesome - https://fontawesome.com License - https://fontawesome.com/license (Commercial License) --><defs><style>.fa-secondary{opacity:.4}</style></defs><path d="M76.6 390.15A223 223 0 0 1 32 256C32 132.29 132.29 32 256 32a223 223 0 0 1 134.15 44.6l-57.46 57.46a144.07 144.07 0 0 0-198.63 198.63zm301.34-210.83a144.07 144.07 0 0 1-198.62 198.62l-57.46 57.47A223 223 0 0 0 256 480c123.71 0 224-100.29 224-224a223 223 0 0 0-44.6-134.15z" class="fa-secondary"/><path d="M507.31 50L50 507.32a16 16 0 0 1-22.63 0L4.69 484.69a16 16 0 0 1 0-22.63L462.06 4.69a16 16 0 0 1 22.63 0l22.62 22.62a16 16 0 0 1 0 22.69z" class="fa-primary"/></svg>