<svg xmlns="http://www.w3.org/2000/svg" viewBox="0 0 512 512"><!-- Font Awesome Pro 5.15.4 by @fontawesome - https://fontawesome.com License - https://fontawesome.com/license (Commercial License) --><defs><style>.fa-secondary{opacity:.4}</style></defs><path d="M256.47 352h-.94c-30.1 0-60.41-23.42-82.54-40.52C169.39 308.7 24.77 202.7 0 183.33V400a48 48 0 0 0 48 48h416a48 48 0 0 0 48-48V183.36c-24.46 19.17-169.4 125.34-173 128.12-22.12 17.1-52.43 40.52-82.53 40.52zM464 64H48a48 48 0 0 0-48 48v19a24.08 24.08 0 0 0 9.2 18.9c30.6 23.9 40.7 32.4 173.4 128.7 16.8 12.2 50.2 41.8 73.4 41.4 23.2.4 56.6-29.2 73.4-41.4 132.7-96.3 142.8-104.7 173.4-128.7A23.93 23.93 0 0 0 512 131v-19a48 48 0 0 0-48-48z" class="fa-secondary"/><path d="M512 131v52.36c-24.46 19.17-169.4 125.34-173 128.12-22.12 17.1-52.43 40.52-82.53 40.52h-.94c-30.1 0-60.41-23.42-82.54-40.52C169.39 308.7 24.77 202.7 0 183.33V131a24.08 24.08 0 0 0 9.2 18.9c30.6 23.9 40.7 32.4 173.4 128.7 16.69 12.12 49.75 41.4 72.93 41.4h.94c23.18 0 56.24-29.28 72.93-41.4 132.7-96.3 142.8-104.7 173.4-128.7A23.93 23.93 0 0 0 512 131z" class="fa-primary"/></svg>