<svg xmlns="http://www.w3.org/2000/svg" viewBox="0 0 512 512"><!-- Font Awesome Pro 5.15.4 by @fontawesome - https://fontawesome.com License - https://fontawesome.com/license (Commercial License) --><defs><style>.fa-secondary{opacity:.4}</style></defs><path d="M492.61 163c-24.89-19.52-45.51-35.38-164.2-121.51C311.6 29.17 278.2-.35 255 0c-23.2-.35-56.59 29.17-73.41 41.44C62.89 127.58 42.3 143.42 17.39 163 7.24 170.9-1 187.83-1 200.72V464a48 48 0 0 0 48 48h416a48 48 0 0 0 48-48V200.72c0-12.89-8.24-29.82-18.39-37.72zm-40 128.61c-22.89 16.9-55.46 40.69-105.31 76.87C327 383.23 290.72 416.24 255 416c-35.74.24-72-32.79-92.26-47.57-49.85-36.18-82.42-60-105.31-76.87a9 9 0 0 1-3.24-6.44 9.44 9.44 0 0 1 1.4-4.53l9.08-13.2a8 8 0 0 1 11.33-1.9c22.85 16.87 55.47 40.71 105.59 77.08 16.85 12.28 50.2 41.77 73.41 41.43 23.2.35 56.59-29.17 73.41-41.43 50.12-36.38 82.74-60.21 105.59-77.08a8 8 0 0 1 11.33 1.9l9.08 13.2a9.44 9.44 0 0 1 1.4 4.53 9 9 0 0 1-3.24 6.44z" class="fa-secondary"/><path d="M455.81 285.12a9 9 0 0 1-3.24 6.44c-22.89 16.9-55.46 40.69-105.31 76.87C327 383.23 290.72 416.24 255 416c-35.74.24-72-32.79-92.26-47.57-49.85-36.18-82.42-60-105.31-76.87a9 9 0 0 1-3.24-6.44 9.44 9.44 0 0 1 1.4-4.53l9.08-13.2a8 8 0 0 1 11.33-1.9c22.85 16.87 55.47 40.71 105.59 77.08 16.85 12.28 50.2 41.77 73.41 41.43 23.2.35 56.59-29.17 73.41-41.43 50.12-36.38 82.74-60.21 105.59-77.08a8 8 0 0 1 11.33 1.9l9.08 13.2a9.44 9.44 0 0 1 1.4 4.53z" class="fa-primary"/></svg>