<svg xmlns="http://www.w3.org/2000/svg" viewBox="0 0 512 512"><!-- Font Awesome Pro 5.15.4 by @fontawesome - https://fontawesome.com License - https://fontawesome.com/license (Commercial License) --><defs><style>.fa-secondary{opacity:.4}</style></defs><path d="M512 208v224a16 16 0 0 1-16 16h-80V320h-32v128h-64V320h-32v128h-64V320h-32v128h-64V320H96v128H16a16 16 0 0 1-16-16V208a16 16 0 0 1 16-16h48v-48a16 16 0 0 1 16-16h48V80a16 16 0 0 1 16-16h224a16 16 0 0 1 16 16v48h48a16 16 0 0 1 16 16v48h48a16 16 0 0 1 16 16z" class="fa-secondary"/><path d="M192 448h32V320h-32zm-96 0h32V320H96zm192 0h32V320h-32zm96-128v128h32V320z" class="fa-primary"/></svg>