<svg xmlns="http://www.w3.org/2000/svg" viewBox="0 0 576 512"><!-- Font Awesome Pro 5.15.4 by @fontawesome - https://fontawesome.com License - https://fontawesome.com/license (Commercial License) --><defs><style>.fa-secondary{opacity:.4}</style></defs><path d="M569.52 440L329.58 24c-18.44-32-64.69-32-83.16 0L6.48 440c-18.42 31.94 4.64 72 41.57 72h479.89c36.87 0 60.06-40 41.58-72zM288 448a32 32 0 1 1 32-32 32 32 0 0 1-32 32zm38.24-238.41l-12.8 128A16 16 0 0 1 297.52 352h-19a16 16 0 0 1-15.92-14.41l-12.8-128A16 16 0 0 1 265.68 192h44.64a16 16 0 0 1 15.92 17.59z" class="fa-secondary"/><path d="M310.32 192h-44.64a16 16 0 0 0-15.92 17.59l12.8 128A16 16 0 0 0 278.48 352h19a16 16 0 0 0 15.92-14.41l12.8-128A16 16 0 0 0 310.32 192zM288 384a32 32 0 1 0 32 32 32 32 0 0 0-32-32z" class="fa-primary"/></svg>