<svg xmlns="http://www.w3.org/2000/svg" viewBox="0 0 448 512"><!-- Font Awesome Pro 5.15.4 by @fontawesome - https://fontawesome.com License - https://fontawesome.com/license (Commercial License) --><defs><style>.fa-secondary{opacity:.4}</style></defs><path d="M400 32H48A48 48 0 0 0 0 80v352a48 48 0 0 0 48 48h352a48 48 0 0 0 48-48V80a48 48 0 0 0-48-48zM224 384a32 32 0 1 1 32-32 32 32 0 0 1-32 32zm38.24-238.41l-12.8 128A16 16 0 0 1 233.52 288h-19a16 16 0 0 1-15.92-14.41l-12.8-128A16 16 0 0 1 201.68 128h44.64a16 16 0 0 1 15.92 17.59z" class="fa-secondary"/><path d="M246.32 128h-44.64a16 16 0 0 0-15.92 17.59l12.8 128A16 16 0 0 0 214.48 288h19a16 16 0 0 0 15.92-14.41l12.8-128A16 16 0 0 0 246.32 128zM224 320a32 32 0 1 0 32 32 32 32 0 0 0-32-32z" class="fa-primary"/></svg>