<svg xmlns="http://www.w3.org/2000/svg" viewBox="0 0 448 512"><!-- Font Awesome Pro 5.15.4 by @fontawesome - https://fontawesome.com License - https://fontawesome.com/license (Commercial License) --><defs><style>.fa-secondary{opacity:.4}</style></defs><path d="M148 32H24A23.94 23.94 0 0 0 0 56v124a12 12 0 0 0 12 12h40a12 12 0 0 0 12-12V96h84a12 12 0 0 0 12-12V44a12 12 0 0 0-12-12zm288 288h-40a12 12 0 0 0-12 12v84h-84a12 12 0 0 0-12 12v40a12 12 0 0 0 12 12h124a23.94 23.94 0 0 0 24-24V332a12 12 0 0 0-12-12z" class="fa-secondary"/><path d="M148 416H64v-84a12 12 0 0 0-12-12H12a12 12 0 0 0-12 12v124a23.94 23.94 0 0 0 24 24h124a12 12 0 0 0 12-12v-40a12 12 0 0 0-12-12zM424 32H300a12 12 0 0 0-12 12v40a12 12 0 0 0 12 12h84v84a12 12 0 0 0 12 12h40a12 12 0 0 0 12-12V56a23.94 23.94 0 0 0-24-24z" class="fa-primary"/></svg>