<svg xmlns="http://www.w3.org/2000/svg" viewBox="0 0 448 512"><!-- Font Awesome Pro 5.15.4 by @fontawesome - https://fontawesome.com License - https://fontawesome.com/license (Commercial License) --><defs><style>.fa-secondary{opacity:.4}</style></defs><path d="M0 200V64a32 32 0 0 1 32-32h136a23.94 23.94 0 0 1 24 24v15.3a24 24 0 0 1-24.7 24L101 93.4l123 123-39.6 39.6-123-123 1.9 66.3a24 24 0 0 1-24 24.7H24a23.94 23.94 0 0 1-24-24zm424 88h-15.3a24 24 0 0 0-24 24.7l1.9 66.3-123-123-39.6 39.6 123 123-66.3-1.9a24 24 0 0 0-24.7 24V456a23.94 23.94 0 0 0 24 24h136a32 32 0 0 0 32-32V312a23.94 23.94 0 0 0-24-24z" class="fa-secondary"/><path d="M101 418.6l66.3-1.9a24 24 0 0 1 24.7 24V456a23.94 23.94 0 0 1-24 24H32a32 32 0 0 1-32-32V312a23.94 23.94 0 0 1 24-24h15.3a24 24 0 0 1 24 24.7L61.4 379 347 93.4l-66.3 1.9a24 24 0 0 1-24.7-24V56a23.94 23.94 0 0 1 24-24h136a32 32 0 0 1 32 32v136a23.94 23.94 0 0 1-24 24h-15.3a24 24 0 0 1-24-24.7l1.9-66.3z" class="fa-primary"/></svg>