<svg xmlns="http://www.w3.org/2000/svg" viewBox="0 0 512 512"><!-- Font Awesome Pro 5.15.4 by @fontawesome - https://fontawesome.com License - https://fontawesome.com/license (Commercial License) --><defs><style>.fa-secondary{opacity:.4}</style></defs><path d="M400 320h32a16 16 0 0 1 16 16v128a48 48 0 0 1-48 48H48a48 48 0 0 1-48-48V112a48 48 0 0 1 48-48h160a16 16 0 0 1 16 16v32a16 16 0 0 1-16 16H64v320h320V336a16 16 0 0 1 16-16z" class="fa-secondary"/><path d="M484 224h-17.88a28 28 0 0 1-28-28v-.78L440 128 192.91 376.91A24 24 0 0 1 159 377l-.06-.06L135 353.09a24 24 0 0 1 0-33.94l.06-.06L384 72l-67.21 1.9A28 28 0 0 1 288 46.68V28a28 28 0 0 1 28-28h158.67A37.33 37.33 0 0 1 512 37.33V196a28 28 0 0 1-28 28z" class="fa-primary"/></svg>