<svg xmlns="http://www.w3.org/2000/svg" viewBox="0 0 448 512"><!-- Font Awesome Pro 5.15.4 by @fontawesome - https://fontawesome.com License - https://fontawesome.com/license (Commercial License) --><defs><style>.fa-secondary{opacity:.4}</style></defs><path d="M400 32H48A48 48 0 0 0 0 80v352a48 48 0 0 0 48 48h352a48 48 0 0 0 48-48V80a48 48 0 0 0-48-48zm-16 227.33a23.34 23.34 0 0 1-23.33 23.34h-14.91a23.34 23.34 0 0 1-23.32-24l1.59-56-205.94 207.42a20 20 0 0 1-28.33.05l-19.9-19.9a20 20 0 0 1 0-28.33L277.31 156l-56 1.59a23.34 23.34 0 0 1-24-23.32v-14.94A23.34 23.34 0 0 1 220.67 96h132.22A31.11 31.11 0 0 1 384 127.11z" class="fa-secondary"/><path d="M69.91 361.91L277.31 156l-56 1.59a23.34 23.34 0 0 1-24-23.32v-14.94A23.34 23.34 0 0 1 220.67 96h132.22A31.11 31.11 0 0 1 384 127.11v132.22a23.34 23.34 0 0 1-23.33 23.34h-14.91a23.34 23.34 0 0 1-23.32-24l1.59-56-205.94 207.42a20 20 0 0 1-28.33.05l-19.9-19.9a20 20 0 0 1 .05-28.33z" class="fa-primary"/></svg>