<svg xmlns="http://www.w3.org/2000/svg" viewBox="0 0 640 512"><!-- Font Awesome Pro 5.15.4 by @fontawesome - https://fontawesome.com License - https://fontawesome.com/license (Commercial License) --><defs><style>.fa-secondary{opacity:.4}</style></defs><path d="M344.35 222.25A81 81 0 0 1 352 256c-.49 42.66-32 64-32 64s-31.48-21.34-32-64a81.1 81.1 0 0 1 7.64-33.75 170.14 170.14 0 0 0 48.68 0z" class="fa-secondary"/><path d="M627 239.08l-111.87-30.3c-4.79-6.56-10.15-13.4-16.13-20.45 1.35-2.07 55.18-88 55.18-88 8.98-14.33-6.06-31.33-22.41-25.4L412 118.29A215 215 0 0 0 381.36 106l-44.47-95.27c-6.68-14.31-27.08-14.31-33.76 0L258.66 106A213.81 213.81 0 0 0 228 118.29L108.24 74.93C91.89 69 76.86 86 85.79 100.35c0 0 53.84 85.92 55.18 88q-8.43 9.93-16.13 20.45L13 239.08c-17.29 4.68-17.29 29.15 0 33.83l111.87 30.3c4.78 6.54 10.11 13.35 16.07 20.38-1.34 2.09-55.12 88.05-55.12 88.05-8.97 14.36 6.07 31.36 22.42 25.43L228 393.71A213.81 213.81 0 0 0 258.66 406l44.47 95.24c6.68 14.31 27.08 14.31 33.76 0L381.36 406A213.81 213.81 0 0 0 412 393.71l119.77 43.36c16.35 5.92 31.39-11.11 22.45-25.43 0 0-53.78-86-55.12-88.05 6-7 11.29-13.84 16.07-20.38l111.87-30.3c17.29-4.68 17.29-29.14-.04-33.83zM320 352a96 96 0 0 1-80-149.08C261.92 216.1 289.72 224 320 224s58.08-7.9 80-21.08A96 96 0 0 1 320 352z" class="fa-primary"/></svg>