<svg xmlns="http://www.w3.org/2000/svg" viewBox="0 0 512 512"><!-- Font Awesome Pro 5.15.4 by @fontawesome - https://fontawesome.com License - https://fontawesome.com/license (Commercial License) --><defs><style>.fa-secondary{opacity:.4}</style></defs><path d="M32 512L0 480l32-56v-45.5c0-17 6.7-33.3 18.8-45.3l126.6-126.6 128 128-126.7 126.7c-12 12-28.3 18.7-45.2 18.7H88l-56 32z" class="fa-secondary"/><path d="M483.9 163.9L406.8 241l13.1 13.1c9.4 9.4 9.4 24.6 0 33.9l-41 41c-9.4 9.3-24.5 9.3-33.9 0L183 167c-9.4-9.4-9.4-24.6 0-33.9l41-41c9.4-9.4 24.6-9.4 33.9 0l13.1 13.2 77.1-77.1c37.5-37.5 98.3-37.5 135.8 0s37.5 98.2 0 135.7z" class="fa-primary"/></svg>