<svg xmlns="http://www.w3.org/2000/svg" viewBox="0 0 576 512"><!-- Font Awesome Pro 5.15.4 by @fontawesome - https://fontawesome.com License - https://fontawesome.com/license (Commercial License) --><defs><style>.fa-secondary{opacity:.4}</style></defs><path d="M572.52 241.4C518.29 135.59 410.93 64 288 64S57.68 135.64 3.48 241.41a32.35 32.35 0 0 0 0 29.19C57.71 376.41 165.07 448 288 448s230.32-71.64 284.52-177.41a32.35 32.35 0 0 0 0-29.19zM288.14 400H288a143.93 143.93 0 1 1 .14 0z" class="fa-secondary"/><path d="M380.66 280.87a95.78 95.78 0 1 1-184.87-50.18 47.85 47.85 0 0 0 66.9-66.9 95.3 95.3 0 0 1 118 117.08z" class="fa-primary"/></svg>