<svg xmlns="http://www.w3.org/2000/svg" viewBox="0 0 448 512"><!-- Font Awesome Pro 5.15.4 by @fontawesome - https://fontawesome.com License - https://fontawesome.com/license (Commercial License) --><defs><style>.fa-secondary{opacity:.4}</style></defs><path d="M248,448.5V415c103.55-11.92,184-99.76,184-206.51C432,93.63,338.87.5,224,.5S16,93.63,16,208.5C16,315.25,96.45,403.09,200,415V448.5ZM119.67,335.3c-7.09-4.08-14.57-16.86-5.14-28.28l67.47-82c-57.17-20.29-69.18-77.3-59.64-113a93.78,93.78,0,0,1,44-57.34l0,0c13-7.39,24.25,2.35,27,9.73l37.08,99a94.36,94.36,0,0,1,155.45,72,18.84,18.84,0,0,1-21.91,18.57l-104.7-17.45a93.41,93.41,0,0,1-10.7,64.11A94.47,94.47,0,0,1,119.67,335.3Z" class="fa-secondary"/><path d="M119.67,335.3a94.47,94.47,0,0,0,129-34.58,93.41,93.41,0,0,0,10.7-64.11l104.7,17.45A18.84,18.84,0,0,0,386,235.49a94.36,94.36,0,0,0-155.45-72l-37.08-99c-2.78-7.38-14-17.12-27-9.73l0,0a93.78,93.78,0,0,0-44,57.34c-9.54,35.67,2.47,92.68,59.64,113l-67.47,82C105.1,318.44,112.58,331.22,119.67,335.3ZM224,192.5a16,16,0,1,1-16,16A16,16,0,0,1,224,192.5Zm96,256H128c-28.42,0-54.95,18.53-63.3,44.16-3.22,9.88,5.17,19.84,15.56,19.84H367.74c10.38,0,18.78-10,15.56-19.84C375,467,348.42,448.5,320,448.5Z" class="fa-primary"/></svg>