<svg xmlns="http://www.w3.org/2000/svg" viewBox="0 0 512 512"><!-- Font Awesome Pro 5.15.4 by @fontawesome - https://fontawesome.com License - https://fontawesome.com/license (Commercial License) --><defs><style>.fa-secondary{opacity:.4}</style></defs><path d="M458.38 234.79L351.83 288H433a396.85 396.85 0 0 1-30.46 47.12L255.73 384h101c-35.57 30.07-79.11 51.1-132.59 56.54a1130.32 1130.32 0 0 1-125.99 7.36h-.06L305 241a24 24 0 0 0-34-34L64 414c.08-62.81 4-100.05 7-126.44C96.44 38.2 460.21 3.56 512 0c-1.81 26.26-11.71 132.86-53.62 234.79z" class="fa-secondary"/><path d="M24 512a24 24 0 0 1-17-41l264-264a24 24 0 0 1 34 34L41 505a23.92 23.92 0 0 1-17 7z" class="fa-primary"/></svg>