<svg xmlns="http://www.w3.org/2000/svg" viewBox="0 0 256 512"><!-- Font Awesome Pro 5.15.4 by @fontawesome - https://fontawesome.com License - https://fontawesome.com/license (Commercial License) --><defs><style>.fa-secondary{opacity:.4}</style></defs><path d="M64 64a64 64 0 1 1 64 64 64 64 0 0 1-64-64z" class="fa-secondary"/><path d="M80 144h11.37a87.91 87.91 0 0 0 73.28 0H176a24 24 0 0 1 23.28 18.18l48 192A24 24 0 0 1 224 384h-56v104a24 24 0 0 1-24 24h-32a24 24 0 0 1-24-24V384H32a24 24 0 0 1-23.27-29.82l48-192A24 24 0 0 1 80 144z" class="fa-primary"/></svg>