<svg xmlns="http://www.w3.org/2000/svg" viewBox="0 0 384 512"><!-- Font Awesome Pro 5.15.4 by @fontawesome - https://fontawesome.com License - https://fontawesome.com/license (Commercial License) --><defs><style>.fa-secondary{opacity:.4}</style></defs><path d="M384 128H272a16 16 0 0 1-16-16V0H24A23.94 23.94 0 0 0 0 23.88V488a23.94 23.94 0 0 0 23.88 24H360a23.94 23.94 0 0 0 24-23.88V128zm-192 64a64 64 0 1 1-64 64 64 64 0 0 1 64-64zm112 236.8c0 10.61-10 19.2-22.4 19.2H102.4C90 448 80 439.4 80 428.8v-19.2c0-31.81 30.09-57.6 67.1-57.6h5a103.22 103.22 0 0 0 79.7 0h5c37.11 0 67.2 25.79 67.2 57.6z" class="fa-secondary"/><path d="M377 105L279.1 7a24 24 0 0 0-17-7H256v112a16 16 0 0 0 16 16h112v-6.1a23.9 23.9 0 0 0-7-16.9zM192 320a64 64 0 1 0-64-64 64 64 0 0 0 64 64zm44.8 32h-5a103.22 103.22 0 0 1-79.7 0h-5c-37 0-67.1 25.79-67.1 57.6v19.2c0 10.6 10 19.2 22.4 19.2h179.2c12.37 0 22.4-8.59 22.4-19.2v-19.2c0-31.81-30.09-57.6-67.2-57.6z" class="fa-primary"/></svg>