<svg xmlns="http://www.w3.org/2000/svg" viewBox="0 0 576 512"><!-- Font Awesome Pro 5.15.4 by @fontawesome - https://fontawesome.com License - https://fontawesome.com/license (Commercial License) --><defs><style>.fa-secondary{opacity:.4}</style></defs><path d="M64 400a16 16 0 0 0 16 16h12.39a43.17 43.17 0 0 0 41-29.53L144 354.59l16.83 50.47c4.45 13.46 23.11 14.87 29.48 2.09l7.69-15.34a10.91 10.91 0 0 1 10-6.19 11.08 11.08 0 0 1 10.17 6.52A43 43 0 0 0 256 416h101l27-27.19v99.31A23.94 23.94 0 0 1 360 512H23.88A23.94 23.94 0 0 1 0 488V23.88A23.94 23.94 0 0 1 24 0h232v112a16 16 0 0 0 16 16h112v123.67L288 347v37h-32a11.63 11.63 0 0 1-9.35-6.5c-11.94-23.86-46.25-30.35-66-14.16l-13.88-41.64a24 24 0 0 0-45.55 0L103 376.34A11.21 11.21 0 0 1 92.39 384H80a16 16 0 0 0-16 16z" class="fa-secondary"/><path d="M384 121.9a23.9 23.9 0 0 0-7-16.9L279.1 7a24 24 0 0 0-17-7H256v112a16 16 0 0 0 16 16h112zM288 347v69h69l161.67-162.78-67.88-67.88zm280.56-179.65l-31.87-31.87a25.48 25.48 0 0 0-36 0l-27.25 27.25 67.88 67.88 27.25-27.25a25.45 25.45 0 0 0-.01-36.01z" class="fa-primary"/></svg>