<svg xmlns="http://www.w3.org/2000/svg" viewBox="0 0 384 512"><!-- Font Awesome Pro 5.15.4 by @fontawesome - https://fontawesome.com License - https://fontawesome.com/license (Commercial License) --><defs><style>.fa-secondary{opacity:.4}</style></defs><path d="M384 128H272a16 16 0 0 1-16-16V0H24A23.94 23.94 0 0 0 0 23.88V488a23.94 23.94 0 0 0 23.88 24H360a23.94 23.94 0 0 0 24-23.88V128zM141.79 379.54l-19.58 20.84a5.41 5.41 0 0 1-7.64.24l-64.86-60.69a5.37 5.37 0 0 1-.24-7.6l.25-.25 64.86-60.7a5.42 5.42 0 0 1 7.64.24l19.58 20.85a5.4 5.4 0 0 1-.25 7.62l-.13.12L100.65 336l40.76 35.8a5.4 5.4 0 0 1 .49 7.62zm31.71 71.25l-27.45-8a5.38 5.38 0 0 1-3.67-6.67l61.49-211.24a5.38 5.38 0 0 1 6.68-3.64l27.45 8a5.4 5.4 0 0 1 3.63 6.67l-61.45 211.2a5.4 5.4 0 0 1-6.68 3.68zm161-111.12l-.25.25-64.86 60.69a5.42 5.42 0 0 1-7.64-.23l-19.58-20.84a5.37 5.37 0 0 1 .26-7.6l.13-.12L283.35 336l-40.76-35.8a5.4 5.4 0 0 1-.49-7.62l.11-.12 19.58-20.85a5.42 5.42 0 0 1 7.64-.24l64.86 60.7a5.36 5.36 0 0 1 .25 7.6z" class="fa-secondary"/><path d="M377 105L279.1 7a24 24 0 0 0-17-7H256v112a16 16 0 0 0 16 16h112v-6.1a23.9 23.9 0 0 0-7-16.9zM141.41 371.8L100.65 336l40.76-35.8.13-.12a5.4 5.4 0 0 0 .25-7.62l-19.58-20.85a5.42 5.42 0 0 0-7.64-.24l-64.86 60.7-.25.25a5.37 5.37 0 0 0 .24 7.6l64.86 60.69a5.41 5.41 0 0 0 7.64-.24l19.58-20.84.11-.12a5.4 5.4 0 0 0-.48-7.61zm100.22-135.93a5.4 5.4 0 0 0-3.63-6.67l-27.45-8a5.38 5.38 0 0 0-6.68 3.64l-61.5 211.29a5.38 5.38 0 0 0 3.63 6.67l27.45 8a5.4 5.4 0 0 0 6.68-3.68l61.44-211.22zm92.66 96.2l-64.86-60.7a5.42 5.42 0 0 0-7.64.24l-19.58 20.85-.11.12a5.4 5.4 0 0 0 .49 7.62l40.76 35.8-40.76 35.8-.13.12a5.37 5.37 0 0 0-.26 7.6l19.58 20.84a5.42 5.42 0 0 0 7.64.23l64.86-60.69.25-.25a5.36 5.36 0 0 0-.25-7.6z" class="fa-primary"/></svg>