<svg xmlns="http://www.w3.org/2000/svg" viewBox="0 0 384 512"><!-- Font Awesome Pro 5.15.4 by @fontawesome - https://fontawesome.com License - https://fontawesome.com/license (Commercial License) --><defs><style>.fa-secondary{opacity:.4}</style></defs><path d="M384 128H272a16 16 0 0 1-16-16V0H24A23.94 23.94 0 0 0 0 23.88V488a23.94 23.94 0 0 0 23.88 24H360a23.94 23.94 0 0 0 24-23.88V128zm-96 244a12 12 0 0 1-12 12H108a12 12 0 0 1-12-12v-8a12 12 0 0 1 12-12h168a12 12 0 0 1 12 12zm0-64a12 12 0 0 1-12 12H108a12 12 0 0 1-12-12v-8a12 12 0 0 1 12-12h168a12 12 0 0 1 12 12zm0-64a12 12 0 0 1-12 12H108a12 12 0 0 1-12-12v-8a12 12 0 0 1 12-12h168a12 12 0 0 1 12 12z" class="fa-secondary"/><path d="M377 105L279.1 7a24 24 0 0 0-17-7H256v112a16 16 0 0 0 16 16h112v-6.1a23.9 23.9 0 0 0-7-16.9zM276 352H108a12 12 0 0 0-12 12v8a12 12 0 0 0 12 12h168a12 12 0 0 0 12-12v-8a12 12 0 0 0-12-12zm0-64H108a12 12 0 0 0-12 12v8a12 12 0 0 0 12 12h168a12 12 0 0 0 12-12v-8a12 12 0 0 0-12-12zm0-64H108a12 12 0 0 0-12 12v8a12 12 0 0 0 12 12h168a12 12 0 0 0 12-12v-8a12 12 0 0 0-12-12z" class="fa-primary"/></svg>