<svg xmlns="http://www.w3.org/2000/svg" viewBox="0 0 576 512"><!-- Font Awesome Pro 5.15.4 by @fontawesome - https://fontawesome.com License - https://fontawesome.com/license (Commercial License) --><defs><style>.fa-secondary{opacity:.4}</style></defs><path d="M384 352.05v136.07A23.94 23.94 0 0 1 360 512H23.88A23.94 23.94 0 0 1 0 488V23.88A23.94 23.94 0 0 1 24 0h232v112a16 16 0 0 0 16 16h112v160.05H208a16 16 0 0 0-16 16v32a16 16 0 0 0 16 16z" class="fa-secondary"/><path d="M272 128h112v-6.1a23.9 23.9 0 0 0-7-16.9L279.1 7a24 24 0 0 0-17-7H256v112a16 16 0 0 0 16 16zm299 180.05l-95.61-96.5c-10.1-10.1-27.41-3-27.41 11.3v65.2H208a16 16 0 0 0-16 16v32a16 16 0 0 0 16 16h239.93v65.1c0 14.3 17.31 21.4 27.41 11.3l95.71-96.4a17 17 0 0 0-.05-24z" class="fa-primary"/></svg>