<svg xmlns="http://www.w3.org/2000/svg" viewBox="0 0 384 512"><!-- Font Awesome Pro 5.15.4 by @fontawesome - https://fontawesome.com License - https://fontawesome.com/license (Commercial License) --><defs><style>.fa-secondary{opacity:.4}</style></defs><path d="M96 320h192v-64H96zm288-192H272a16 16 0 0 1-16-16V0H24A23.94 23.94 0 0 0 0 23.88V488a23.94 23.94 0 0 0 23.88 24H360a23.94 23.94 0 0 0 24-23.88V128zM64 72a8 8 0 0 1 8-8h80a8 8 0 0 1 8 8v16a8 8 0 0 1-8 8H72a8 8 0 0 1-8-8zm0 64a8 8 0 0 1 8-8h80a8 8 0 0 1 8 8v16a8 8 0 0 1-8 8H72a8 8 0 0 1-8-8zm256 304a8 8 0 0 1-8 8h-80a8 8 0 0 1-8-8v-16a8 8 0 0 1 8-8h80a8 8 0 0 1 8 8zm0-104a16 16 0 0 1-16 16H80a16 16 0 0 1-16-16v-96a16 16 0 0 1 16-16h224a16 16 0 0 1 16 16z" class="fa-secondary"/><path d="M377 105L279.1 7a24 24 0 0 0-17-7H256v112a16 16 0 0 0 16 16h112v-6.1a23.9 23.9 0 0 0-7-16.9zm-73 119H80a16 16 0 0 0-16 16v96a16 16 0 0 0 16 16h224a16 16 0 0 0 16-16v-96a16 16 0 0 0-16-16zm-16 96H96v-64h192zm24 96h-80a8 8 0 0 0-8 8v16a8 8 0 0 0 8 8h80a8 8 0 0 0 8-8v-16a8 8 0 0 0-8-8z" class="fa-primary"/></svg>