<svg xmlns="http://www.w3.org/2000/svg" viewBox="0 0 384 512"><!-- Font Awesome Pro 5.15.4 by @fontawesome - https://fontawesome.com License - https://fontawesome.com/license (Commercial License) --><defs><style>.fa-secondary{opacity:.4}</style></defs><path d="M384 128H272a16 16 0 0 1-16-16V0H24A23.94 23.94 0 0 0 0 23.88V488a23.94 23.94 0 0 0 23.88 24H360a23.94 23.94 0 0 0 24-23.88V128zm-271.46 48a48 48 0 1 1-48 48 48 48 0 0 1 48-48zm208 240h-256l.46-48.48L104.51 328c4.69-4.69 11.8-4.2 16.49.48L160.54 368 264 264.48a12 12 0 0 1 17 0L320.54 304z" class="fa-secondary"/><path d="M377 105L279.1 7a24 24 0 0 0-17-7H256v112a16 16 0 0 0 16 16h112v-6.1a23.9 23.9 0 0 0-7-16.9zM112.54 272a48 48 0 1 0-48-48 48 48 0 0 0 48 48zM264 264.45L160.54 368 121 328.48c-4.69-4.68-11.8-5.17-16.49-.48L65 367.52 64.54 416h256V304L281 264.48a12 12 0 0 0-17-.03z" class="fa-primary"/></svg>