<svg xmlns="http://www.w3.org/2000/svg" viewBox="0 0 384 512"><!-- Font Awesome Pro 5.15.4 by @fontawesome - https://fontawesome.com License - https://fontawesome.com/license (Commercial License) --><defs><style>.fa-secondary{opacity:.4}</style></defs><path d="M384 128H272a16 16 0 0 1-16-16V0H24A23.94 23.94 0 0 0 0 23.88V488a23.94 23.94 0 0 0 23.88 24H360a23.94 23.94 0 0 0 24-23.88V128zm-94.82 224H224v80a16 16 0 0 1-16 16h-32a16 16 0 0 1-16-16v-80H94.82c-14.28 0-21.41-17.29-11.27-27.36L180 229a17.06 17.06 0 0 1 24 0l96.43 95.65c10.15 10.07 3 27.35-11.25 27.35z" class="fa-secondary"/><path d="M377 105L279.1 7a24 24 0 0 0-17-7H256v112a16 16 0 0 0 16 16h112v-6.1a23.9 23.9 0 0 0-7-16.9zM204 229a17.06 17.06 0 0 0-24 0l-96.45 95.64C73.41 334.71 80.54 352 94.82 352H160v80a16 16 0 0 0 16 16h32a16 16 0 0 0 16-16v-80h65.18c14.25 0 21.4-17.29 11.25-27.36z" class="fa-primary"/></svg>