<svg xmlns="http://www.w3.org/2000/svg" viewBox="0 0 384 512"><!-- Font Awesome Pro 5.15.4 by @fontawesome - https://fontawesome.com License - https://fontawesome.com/license (Commercial License) --><defs><style>.fa-secondary{opacity:.4}</style></defs><path d="M384 128H272a16 16 0 0 1-16-16V0H24A23.94 23.94 0 0 0 0 23.88V488a23.94 23.94 0 0 0 23.88 24H360a23.94 23.94 0 0 0 24-23.88V128zm-219.2 80h55.23a12 12 0 0 1 11.17 12.8l-7.2 112a12 12 0 0 1-12 11.2h-40a12 12 0 0 1-12-11.2l-7.2-112v-.83a12 12 0 0 1 12-11.97zM192 440a40 40 0 1 1 40-40 40 40 0 0 1-40 40z" class="fa-secondary"/><path d="M377 105L279.1 7a24 24 0 0 0-17-7H256v112a16 16 0 0 0 16 16h112v-6.1a23.9 23.9 0 0 0-7-16.9zM160 332.8a12 12 0 0 0 12 11.2h40a12 12 0 0 0 12-11.2l7.2-112A12 12 0 0 0 220 208h-55.2a12 12 0 0 0-12 12v.83zm32 27.2a40 40 0 1 0 40 40 40 40 0 0 0-40-40z" class="fa-primary"/></svg>