<svg xmlns="http://www.w3.org/2000/svg" viewBox="0 0 640 512"><!-- Font Awesome Pro 5.15.4 by @fontawesome - https://fontawesome.com License - https://fontawesome.com/license (Commercial License) --><defs><style>.fa-secondary{opacity:.4}</style></defs><path d="M300.59 257.71a160.1 160.1 0 0 0 83.41 209v21.45A23.94 23.94 0 0 1 360 512H23.88A23.94 23.94 0 0 1 0 488V23.88A23.94 23.94 0 0 1 24 0h232v112a16 16 0 0 0 16 16h112v45.33a160.34 160.34 0 0 0-83.41 84.38z" class="fa-secondary"/><path d="M384 121.9a23.9 23.9 0 0 0-7-16.9L279.1 7a24 24 0 0 0-17-7H256v112a16 16 0 0 0 16 16h112zm251.31 340.16l-77.41-77.41A126.65 126.65 0 0 0 576 320a128 128 0 1 0-128 128c23.7 0 45.61-6.88 64.65-18.11l77.41 77.42a16 16 0 0 0 22.63 0l22.62-22.62a16 16 0 0 0 0-22.63zM448 384a64 64 0 1 1 64-64 64 64 0 0 1-64 64z" class="fa-primary"/></svg>