<svg xmlns="http://www.w3.org/2000/svg" viewBox="0 0 384 512"><!-- Font Awesome Pro 5.15.4 by @fontawesome - https://fontawesome.com License - https://fontawesome.com/license (Commercial License) --><defs><style>.fa-secondary{opacity:.4}</style></defs><path d="M176 240h-48v32h48a16 16 0 0 0 0-32zm96-112a16 16 0 0 1-16-16V0H24A23.94 23.94 0 0 0 0 23.88V488a23.94 23.94 0 0 0 23.88 24H360a23.94 23.94 0 0 0 24-23.88V128zm32 304l-11.31 11.32a16 16 0 0 1-22.63 0L240 413.25l-30.06 30.06a16 16 0 0 1-22.63 0L176 432a16 16 0 0 1 0-22.63l30.06-30.06L146.74 320H128v48a16 16 0 0 1-16 16H96a16 16 0 0 1-16-16V208a16 16 0 0 1 16-16h80a63.8 63.8 0 0 1 30.54 119.92L240 345.38l29.9-29.9a16 16 0 0 1 22.63 0l11.31 11.31a16 16 0 0 1 0 22.63l-29.9 29.9L304 409.38a16 16 0 0 1 0 22.62z" class="fa-secondary"/><path d="M377 105L279.1 7a24 24 0 0 0-17-7H256v112a16 16 0 0 0 16 16h112v-6.1a23.9 23.9 0 0 0-7-16.9zM273.94 379.32l29.9-29.9a16 16 0 0 0 0-22.63l-11.31-11.31a16 16 0 0 0-22.63 0l-29.9 29.9-33.46-33.46A63.8 63.8 0 0 0 176 192H96a16 16 0 0 0-16 16v160a16 16 0 0 0 16 16h16a16 16 0 0 0 16-16v-48h18.74l59.32 59.31L176 409.37a16 16 0 0 0 0 22.63l11.31 11.31a16 16 0 0 0 22.63 0L240 413.25l30.06 30.07a16 16 0 0 0 22.63 0L304 432a16 16 0 0 0 0-22.62zM176 272h-48v-32h48a16 16 0 0 1 0 32z" class="fa-primary"/></svg>