<svg xmlns="http://www.w3.org/2000/svg" viewBox="0 0 384 512"><!-- Font Awesome Pro 5.15.4 by @fontawesome - https://fontawesome.com License - https://fontawesome.com/license (Commercial License) --><defs><style>.fa-secondary{opacity:.4}</style></defs><path d="M256 0H24A23.94 23.94 0 0 0 0 23.88V488a23.94 23.94 0 0 0 23.88 24H360a23.94 23.94 0 0 0 24-23.88V128H272a16 16 0 0 1-16-16z" class="fa-secondary"/><path d="M384 121.9v6.1H272a16 16 0 0 1-16-16V0h6.1a24 24 0 0 1 17 7l97.9 98a23.9 23.9 0 0 1 7 16.9z" class="fa-primary"/></svg>