<svg xmlns="http://www.w3.org/2000/svg" viewBox="0 0 512 512"><!-- Font Awesome Pro 5.15.4 by @fontawesome - https://fontawesome.com License - https://fontawesome.com/license (Commercial License) --><defs><style>.fa-secondary{opacity:.4}</style></defs><path d="M369 448H143V64h226z" class="fa-secondary"/><path d="M488.12 64H480v20a12 12 0 0 1-12 12h-40a12 12 0 0 1-12-12V64h-47v384h47v-20a12 12 0 0 1 12-12h40a12 12 0 0 1 12 12v20h8a23.94 23.94 0 0 0 24-23.88V88a23.94 23.94 0 0 0-23.88-24zM480 372a12 12 0 0 1-12 12h-40a12 12 0 0 1-12-12v-40a12 12 0 0 1 12-12h40a12 12 0 0 1 12 12zm0-96a12 12 0 0 1-12 12h-40a12 12 0 0 1-12-12v-40a12 12 0 0 1 12-12h40a12 12 0 0 1 12 12zm0-96a12 12 0 0 1-12 12h-40a12 12 0 0 1-12-12v-40a12 12 0 0 1 12-12h40a12 12 0 0 1 12 12zM96 84a12 12 0 0 1-12 12H44a12 12 0 0 1-12-12V64h-8A23.94 23.94 0 0 0 0 87.88V424a23.94 23.94 0 0 0 23.88 24H32v-20a12 12 0 0 1 12-12h40a12 12 0 0 1 12 12v20h47V64H96zm0 288a12 12 0 0 1-12 12H44a12 12 0 0 1-12-12v-40a12 12 0 0 1 12-12h40a12 12 0 0 1 12 12zm0-96a12 12 0 0 1-12 12H44a12 12 0 0 1-12-12v-40a12 12 0 0 1 12-12h40a12 12 0 0 1 12 12zm0-96a12 12 0 0 1-12 12H44a12 12 0 0 1-12-12v-40a12 12 0 0 1 12-12h40a12 12 0 0 1 12 12z" class="fa-primary"/></svg>