<svg xmlns="http://www.w3.org/2000/svg" viewBox="0 0 512 512"><!-- Font Awesome Pro 5.15.4 by @fontawesome - https://fontawesome.com License - https://fontawesome.com/license (Commercial License) --><defs><style>.fa-secondary{opacity:.4}</style></defs><path d="M506.1 203.57a24 24 0 1 0-46.87 10.34c4.71 21.41 4.91 37.41 4.7 61.6a24 24 0 0 0 23.8 24.2h.2a24 24 0 0 0 24-23.8c.18-22.18.4-44.11-5.83-72.34zM256.11 246a24 24 0 0 0-24 24 731.23 731.23 0 0 1-27.7 211.55c-2.73 9.72 2.15 30.49 23.12 30.49a24 24 0 0 0 23.09-17.52A774 774 0 0 0 280.1 270a24 24 0 0 0-23.99-24zM144.56 144.45a24 24 0 0 0-33.76 3.48 173.44 173.44 0 0 0-38.75 112A580.75 580.75 0 0 1 62.94 372a24 24 0 0 0 19.36 27.87c20.11 3.5 27.07-14.81 27.89-19.36a629 629 0 0 0 9.86-121.33 123.59 123.59 0 0 1 28-81 24 24 0 0 0-3.49-33.73z" class="fa-secondary"/><path d="M466 112.85A266 266 0 0 0 252.8 0C183-.82 118.46 24.91 70.45 72.94A238.49 238.49 0 0 0 .13 246.65L0 268.12a24 24 0 0 0 23.28 24.69H24a24 24 0 0 0 24-23.3l.16-23.64a190.77 190.77 0 0 1 56.28-139C143.18 68.09 195.76 47.22 252.1 48a217.86 217.86 0 0 1 174.62 92.39A24 24 0 1 0 466 112.85zM254 82.12a178.75 178.75 0 0 0-45.78 5 24 24 0 1 0 11.06 46.72 143.52 143.52 0 0 1 34-3.69c75.43 1.13 137.73 61.5 138.88 134.58a881.07 881.07 0 0 1-5.58 113.63 24 24 0 0 0 21.11 26.58c16.72 1.95 25.51-11.88 26.58-21.11A929.94 929.94 0 0 0 440.19 264C438.63 165.2 355.12 83.62 254 82.12zm1.22 82.11c-61.26-.07-104 47.07-103.16 101.09a656.09 656.09 0 0 1-13.37 142.55 24 24 0 1 0 47 9.72 704 704 0 0 0 14.37-153c-.41-25.95 19.92-52.49 54.45-52.34 31.31.47 57.15 25.34 57.62 55.47a804 804 0 0 1-10.61 143.55 24 24 0 0 0 19.76 27.58c20 3.33 26.81-15.1 27.58-19.77A853 853 0 0 0 360.16 267c-.88-55.85-47.94-101.93-104.91-102.77z" class="fa-primary"/></svg>