<svg xmlns="http://www.w3.org/2000/svg" viewBox="0 0 640 512"><!-- Font Awesome Pro 5.15.4 by @fontawesome - https://fontawesome.com License - https://fontawesome.com/license (Commercial License) --><defs><style>.fa-secondary{opacity:.4}</style></defs><path d="M195.7 283.2a145 145 0 0 0-44.5-21.3A171.61 171.61 0 0 1 144 213c0-54.2 54.8-144.1 132-213 30.1 26.9 56.6 55.7 77.9 84a458.59 458.59 0 0 1 44.2-45.4c57 50.8 97.8 133.9 97.8 174.2a171.61 171.61 0 0 1-7.2 48.9 145 145 0 0 0-44.5 21.3 160.46 160.46 0 0 0-36.5-32.8 99.68 99.68 0 0 0-5.1-77.8c-2.5-4.9-5.3-10.1-8.4-15.4l-43.8 51.7s-68.6-90.7-73.8-96.9c-36.2 45-54.4 71.3-54.4 101.1a103.85 103.85 0 0 0 7.4 39.3 161 161 0 0 0-33.9 31z" class="fa-secondary"/><path d="M640 400a111.94 111.94 0 0 1-112 112H112a112 112 0 0 1 0-224c37.1 0 69.7 18.3 90.1 46.1a128 128 0 0 1 235.8 0c20.4-27.8 53-46.1 90.1-46.1a111.94 111.94 0 0 1 112 112z" class="fa-primary"/></svg>