<svg xmlns="http://www.w3.org/2000/svg" viewBox="0 0 640 512"><!-- Font Awesome Pro 5.15.4 by @fontawesome - https://fontawesome.com License - https://fontawesome.com/license (Commercial License) --><defs><style>.fa-secondary{opacity:.4}</style></defs><path d="M363.43 64c-100 0-187.26 65.72-235.85 122l-97-79.26C17.07 95.68-3 107.42.39 124.29L27.26 256 .38 387.73C-3 404.6 17.06 416.32 30.53 405.32l97-79.26C176.16 382.28 263.47 448 363.43 448 516.17 448 640 294.4 640 256S516.17 64 363.43 64zM245.68 261.68l-11.31-11.31a8 8 0 0 1 0-11.31L319 154.34a8 8 0 0 1 11.31 0l11.32 11.32a8 8 0 0 1 0 11.31L257 261.65a8 8 0 0 1-11.32.03zm59.28 80a8 8 0 0 1-11.31 0l-11.31-11.31a8 8 0 0 1 0-11.31L431 170.34a8 8 0 0 1 11.31 0l11.32 11.32a8 8 0 0 1 0 11.31zM501.69 273L417 357.65a8 8 0 0 1-11.31 0l-11.31-11.31a8 8 0 0 1 0-11.31L479 250.34a8 8 0 0 1 11.31 0l11.32 11.32a8 8 0 0 1 .06 11.34z" class="fa-secondary"/><path d="M453.63 193a8 8 0 0 0 0-11.31l-11.33-11.36a8 8 0 0 0-11.31 0L282.34 319a8 8 0 0 0 0 11.31l11.31 11.31a8 8 0 0 0 11.31 0L453.62 193zm-112-16a8 8 0 0 0 0-11.31l-11.33-11.36a8 8 0 0 0-11.31 0L234.34 239a8 8 0 0 0 0 11.31l11.31 11.31a8 8 0 0 0 11.31 0L341.62 177zm160 84.69l-11.33-11.36a8 8 0 0 0-11.31 0L394.37 335a8 8 0 0 0 0 11.31l11.31 11.31a8 8 0 0 0 11.31 0L501.65 273a8 8 0 0 0-.03-11.35z" class="fa-primary"/></svg>