<svg xmlns="http://www.w3.org/2000/svg" viewBox="0 0 384 512"><!-- Font Awesome Pro 5.15.4 by @fontawesome - https://fontawesome.com License - https://fontawesome.com/license (Commercial License) --><defs><style>.fa-secondary{opacity:.4}</style></defs><path d="M64 512v-64l-26.5-26.51A128 128 0 0 1 0 331v-77.95A47.26 47.26 0 0 0 16 256h32a47.65 47.65 0 0 0 32-12.49A47.65 47.65 0 0 0 112 256h32a47.4 47.4 0 0 0 21.87-5.52 64.34 64.34 0 0 0 38.87 34.45c-17.11 14.82-31.58 34.48-47.31 58.08l-6.31 9.47a8 8 0 0 0 2.22 11.08l13.31 8.88a8 8 0 0 0 11.08-2.22l6.31-9.47c31.89-47.84 51.53-70.27 96.05-72.55a8.22 8.22 0 0 0 7.88-8V264c0-4.42-3.52-8-13.2-8h-35.25A47.59 47.59 0 0 1 192 208.41v-.56A15.86 15.86 0 0 1 207.85 192H320a64 64 0 0 1 64 64v88.22a96 96 0 0 1-28.12 67.91L320 448v64z" class="fa-secondary"/><path d="M144 32h-32a16 16 0 0 0-16 16v160a16 16 0 0 0 16 16h32a16 16 0 0 0 16-16V48a16 16 0 0 0-16-16zM48 64H16A16 16 0 0 0 0 80v128a16 16 0 0 0 16 16h32a16 16 0 0 0 16-16V80a16 16 0 0 0-16-16zm288-32h-32a16 16 0 0 0-16 16v112h32a94.76 94.76 0 0 1 32 5.9V48a16 16 0 0 0-16-16zM240 0h-32a16 16 0 0 0-16 16v146.93a47.56 47.56 0 0 1 16-2.93h48V16a16 16 0 0 0-16-16z" class="fa-primary"/></svg>