<svg xmlns="http://www.w3.org/2000/svg" viewBox="0 0 512 512"><!-- Font Awesome Pro 5.15.4 by @fontawesome - https://fontawesome.com License - https://fontawesome.com/license (Commercial License) --><defs><style>.fa-secondary{opacity:.4}</style></defs><path d="M299.9 303.62c-57.2-15.09-111.7-28.79-203.9 11.1V384c185.7-92.2 221.7 53.3 397.5-23.11a31.39 31.39 0 0 0 18.5-28.8v-36c-43.6 17.3-80.2 24.1-112.1 24.1-37.4-.07-68.9-8.36-100-16.57zm9.5-221.89c51.8 15.6 97.4 29 202.6-20.11V30.83c0-25.1-26.8-38.1-49.4-26.6-89.25 45.48-128.17 25.54-174.6 9.39v158c6.76 1.66 13.45 3.4 20.1 5.14 57.2 15 111.7 28.7 203.9-11.1V96.73c-53.6 23.5-93.3 31.39-126.1 31.39s-59-7.79-85.7-15.89c-4-1.21-8.1-2.4-12.1-3.5V75.52c7.2 2 14.3 4.1 21.3 6.21zm-9.5 125.89c-57.2-15.09-111.7-28.79-203.9 11.1v61.5c94.8-37.6 154.6-22.69 212.1-7.6 57.2 15.1 111.7 28.8 203.9-11.09V200c-43.6 17.3-80.2 24.09-112.1 24.09-37.4.03-68.9-8.26-100-16.47z" class="fa-secondary"/><path d="M32 0A32 32 0 0 0 0 32v464a16 16 0 0 0 16 16h32a16 16 0 0 0 16-16V32A32 32 0 0 0 32 0zm64 32.4v151.93c83.83-33.17 140.29-25.43 192-12.75v-158C245.32-1.23 196.3-12.89 96 32.42zm64 95.7a16 16 0 1 1 16-16 16 16 0 0 1-16 16.02zm0-55.79a16 16 0 1 1 16-16 16 16 0 0 1-16 16.02zm64 47.9a16 16 0 1 1 16-16 16 16 0 0 1-16 16.02zm0-55.9a16 16 0 1 1 16-16 16 16 0 0 1-16 16.02z" class="fa-primary"/></svg>