<svg xmlns="http://www.w3.org/2000/svg" viewBox="0 0 640 512"><!-- Font Awesome Pro 5.15.4 by @fontawesome - https://fontawesome.com License - https://fontawesome.com/license (Commercial License) --><defs><style>.fa-secondary{opacity:.4}</style></defs><path d="M400.13 149.25L384 160H32a32 32 0 0 0-32 32v128a32 32 0 0 0 32 32h352l16.13 10.75A317 317 0 0 0 576 416V96a317 317 0 0 0-175.87 53.25zM288 288h-32a32 32 0 0 1 0-64h32a32 32 0 0 1 0 64z" class="fa-secondary"/><path d="M608 96h-32v320h32a32 32 0 0 0 32-32V128a32 32 0 0 0-32-32zM288 224h-32a32 32 0 0 0 0 64h32a32 32 0 0 0 0-64z" class="fa-primary"/></svg>