<svg xmlns="http://www.w3.org/2000/svg" viewBox="0 0 416 512"><!-- Font Awesome Pro 5.15.4 by @fontawesome - https://fontawesome.com License - https://fontawesome.com/license (Commercial License) --><defs><style>.fa-secondary{opacity:.4}</style></defs><path d="M208 224c-61.86 0-112 39.4-112 88 0 29.87 19 56.17 48 72.08V416a16 16 0 0 0 16 16h96a16 16 0 0 0 16-16v-31.92c29-15.91 48-42.21 48-72.08 0-48.6-50.17-88-112-88zm-40 112a24 24 0 1 1 24-24 24 24 0 0 1-24 24zm80 0a24 24 0 1 1 24-24 24 24 0 0 1-24 24z" class="fa-secondary"/><path d="M96 64h224a16 16 0 0 0 16-16V16a16 16 0 0 0-16-16H96a16 16 0 0 0-16 16v32a16 16 0 0 0 16 16zm208 105.05V96H112v72.12C45.61 202.85 0 271.88 0 352a207.15 207.15 0 0 0 53.93 139.7 63.44 63.44 0 0 0 47 20.3H315a64 64 0 0 0 47.57-20.85A207.15 207.15 0 0 0 416 356.67c1.71-79.95-44.8-151.49-112-187.62zm-32 215V416a16 16 0 0 1-16 16h-96a16 16 0 0 1-16-16v-31.92c-29-15.91-48-42.21-48-72.08 0-48.6 50.13-88 112-88s112 39.4 112 88c0 29.87-19 56.17-48 72.08z" class="fa-primary"/></svg>