<svg xmlns="http://www.w3.org/2000/svg" viewBox="0 0 416 512"><!-- Font Awesome Pro 5.15.4 by @fontawesome - https://fontawesome.com License - https://fontawesome.com/license (Commercial License) --><defs><style>.fa-secondary{opacity:.4}</style></defs><path d="M64 352a154.39 154.39 0 0 1 1.92-24.48c61.84-24.46 131.65-20.73 181 4 36.58 18.29 78.12 20.41 105 20.56v3.23A143.83 143.83 0 0 1 315.29 448h-214.6A143.6 143.6 0 0 1 64 352z" class="fa-secondary"/><path d="M304 169.05V96h-64v111.3c24.51 13.18 114.1 49.87 112 148a143.82 143.82 0 0 1-36.71 92.7h-214.6A143.6 143.6 0 0 1 64 352c0-99.51 88.31-132.74 112-145.13V96h-64v72.12C45.61 202.85 0 271.88 0 352a207.15 207.15 0 0 0 53.93 139.7 63.44 63.44 0 0 0 47 20.3H315a64 64 0 0 0 47.57-20.85A207.15 207.15 0 0 0 416 356.67c1.71-79.95-44.8-151.49-112-187.62zM96 64h224a16 16 0 0 0 16-16V16a16 16 0 0 0-16-16H96a16 16 0 0 0-16 16v32a16 16 0 0 0 16 16z" class="fa-primary"/></svg>