<svg xmlns="http://www.w3.org/2000/svg" viewBox="0 0 512 512"><!-- Font Awesome Pro 5.15.4 by @fontawesome - https://fontawesome.com License - https://fontawesome.com/license (Commercial License) --><defs><style>.fa-secondary{opacity:.4}</style></defs><path d="M464 128H272l-64-64H48a48 48 0 0 0-48 48v288a48 48 0 0 0 48 48h416a48 48 0 0 0 48-48V176a48 48 0 0 0-48-48zM340.85 338.91a16 16 0 0 1 0 22.63l-11.31 11.31a16 16 0 0 1-22.63 0L256 321.94l-50.91 50.91a16 16 0 0 1-22.63 0l-11.31-11.31a16 16 0 0 1 0-22.63L222.06 288l-50.91-50.91a16 16 0 0 1 0-22.63l11.31-11.31a16 16 0 0 1 22.63 0L256 254.06l50.91-50.91a16 16 0 0 1 22.63 0l11.31 11.31a16 16 0 0 1 0 22.63L289.94 288z" class="fa-secondary"/><path d="M171.15 237.09a16 16 0 0 1 0-22.63l11.31-11.31a16 16 0 0 1 22.63 0L256 254.06l50.91-50.91a16 16 0 0 1 22.63 0l11.31 11.31a16 16 0 0 1 0 22.63L289.94 288l50.91 50.91a16 16 0 0 1 0 22.63l-11.31 11.31a16 16 0 0 1-22.63 0L256 321.94l-50.91 50.91a16 16 0 0 1-22.63 0l-11.31-11.31a16 16 0 0 1 0-22.63L222.06 288z" class="fa-primary"/></svg>