<svg xmlns="http://www.w3.org/2000/svg" viewBox="0 0 512 512"><!-- Font Awesome Pro 5.15.4 by @fontawesome - https://fontawesome.com License - https://fontawesome.com/license (Commercial License) --><defs><style>.fa-secondary{opacity:.4}</style></defs><path d="M464,127.08H272l-64-64H48a48,48,0,0,0-48,48v288a48,48,0,0,0,48,48H464a48,48,0,0,0,48-48v-224A48,48,0,0,0,464,127.08Zm-110.81,192H288v48a16,16,0,0,1-16,16H240a16,16,0,0,1-16-16v-48H158.83a16,16,0,0,1-11.27-27.34L244,196a17.05,17.05,0,0,1,24,0l96.42,95.7A16,16,0,0,1,353.19,319.08Z" class="fa-secondary"/><path d="M353.19,319.08H288v48a16,16,0,0,1-16,16H240a16,16,0,0,1-16-16v-48H158.83a16,16,0,0,1-11.27-27.34L244,196a17.05,17.05,0,0,1,24,0l96.42,95.7A16,16,0,0,1,353.19,319.08Z" class="fa-primary"/></svg>