<svg xmlns="http://www.w3.org/2000/svg" viewBox="0 0 512 512"><!-- Font Awesome Pro 5.15.4 by @fontawesome - https://fontawesome.com License - https://fontawesome.com/license (Commercial License) --><defs><style>.fa-secondary{opacity:.4}</style></defs><path d="M464 128H272l-64-64H48a48 48 0 0 0-48 48v288a48 48 0 0 0 48 48h416a48 48 0 0 0 48-48V176a48 48 0 0 0-48-48zm-96 168a16 16 0 0 1-16 16H160a16 16 0 0 1-16-16v-16a16 16 0 0 1 16-16h192a16 16 0 0 1 16 16z" class="fa-secondary"/><path d="M368 280v16a16 16 0 0 1-16 16H160a16 16 0 0 1-16-16v-16a16 16 0 0 1 16-16h192a16 16 0 0 1 16 16z" class="fa-primary"/></svg>