<svg xmlns="http://www.w3.org/2000/svg" viewBox="0 0 448 512"><!-- Font Awesome Pro 5.15.4 by @fontawesome - https://fontawesome.com License - https://fontawesome.com/license (Commercial License) --><defs><style>.fa-secondary{opacity:.4}</style></defs><path d="M432 416H304a16 16 0 0 0-16 16v32a16 16 0 0 0 16 16h128a16 16 0 0 0 16-16v-32a16 16 0 0 0-16-16zm-288 0H16a16 16 0 0 0-16 16v32a16 16 0 0 0 16 16h128a16 16 0 0 0 16-16v-32a16 16 0 0 0-16-16z" class="fa-secondary"/><path d="M147.72 352h152.56l23.31 64h85L277.87 53.69C273.81 41.72 260.22 32 247.59 32h-47.18c-12.63 0-26.22 9.72-30.29 21.69L39.41 416h85zM224 142.52L271.16 272h-94.32z" class="fa-primary"/></svg>