<svg xmlns="http://www.w3.org/2000/svg" viewBox="0 0 496 512"><!-- Font Awesome Pro 5.15.4 by @fontawesome - https://fontawesome.com License - https://fontawesome.com/license (Commercial License) --><defs><style>.fa-secondary{opacity:.4}</style></defs><path d="M0,328.41v1.53L174.06,504h1.53a321.72,321.72,0,0,0,60.6-5.75L5.75,267.81A321.72,321.72,0,0,0,0,328.41ZM496,182.06,321.94,8h-1.53a321.72,321.72,0,0,0-60.6,5.75L490.25,244.19a321.72,321.72,0,0,0,5.75-60.6Z" class="fa-secondary"/><path d="M14.5,451.7a52.8,52.8,0,0,0,37.3,37.4c49.3,13.2,88.49,14.9,122.26,14.9L0,329.94C0,363.51,1.47,402.26,14.5,451.7Zm467-391.4a52.8,52.8,0,0,0-37.3-37.4C394.9,9.7,355.71,8.05,321.94,8L496,182.06c0-33.57-1.47-72.32-14.5-121.76ZM5.75,267.81,236.19,498.25c128.35-24.57,229.49-125.71,254.06-254.06L259.81,13.75C131.46,38.32,30.32,139.46,5.75,267.81Zm288.91-81.69,29.21-29.42a8.29,8.29,0,0,1,11.67,0l11.66,11.66a8.29,8.29,0,0,1,0,11.67L318,209.24l29.21,29.21a8.29,8.29,0,0,1,0,11.67l-11.66,11.66a8.29,8.29,0,0,1-11.67,0l-29.21-29.21L271.33,256l29.21,29.21a8.29,8.29,0,0,1,0,11.67l-11.66,11.66a8.29,8.29,0,0,1-11.67,0L248,279.33l-23.33,23.33,29.21,29.21a8.29,8.29,0,0,1,0,11.67L242.22,355.2a8.29,8.29,0,0,1-11.67,0L201.34,326l-29.21,29.2a8.29,8.29,0,0,1-11.67,0L148.8,343.54a8.29,8.29,0,0,1,0-11.67L178,302.66l-29.2-29.11a8.29,8.29,0,0,1,0-11.67l11.66-11.66a8.29,8.29,0,0,1,11.67,0l29.21,29.21,23.33-23.33-29.21-29.21a8.28,8.28,0,0,1,0-11.66l11.66-11.67a8.29,8.29,0,0,1,11.67,0L248,232.77l23.33-23.32-29.21-29.22a8.28,8.28,0,0,1,0-11.66l11.66-11.67a8.29,8.29,0,0,1,11.67,0Z" class="fa-primary"/></svg>