<svg xmlns="http://www.w3.org/2000/svg" viewBox="0 0 288 512"><!-- Font Awesome Pro 5.15.4 by @fontawesome - https://fontawesome.com License - https://fontawesome.com/license (Commercial License) --><defs><style>.fa-secondary{opacity:.4}</style></defs><path d="M192.21 0l30.6 63.7-85.5 56 49.4 104.3-121.5-119.7 85.5-56L117.91 0z" class="fa-secondary"/><path d="M160 350.3V480h53.9c24.5 0 33.1 32 20 32H54.11c-13.2 0-4.5-32 20-32H128V350.3C51.31 341.6-6.59 272.7.61 192.7l16-178.1A15.79 15.79 0 0 1 32.31 0h85.6l32.8 48.3-85.5 56L186.71 224l-49.4-104.3 85.5-56L192.21 0h63.5a15.79 15.79 0 0 1 15.7 14.6l16 178.1c7.2 80-50.7 148.8-127.41 157.6z" class="fa-primary"/></svg>