<svg xmlns="http://www.w3.org/2000/svg" viewBox="0 0 512 512"><!-- Font Awesome Pro 5.15.4 by @fontawesome - https://fontawesome.com License - https://fontawesome.com/license (Commercial License) --><defs><style>.fa-secondary{opacity:.4}</style></defs><path d="M169.57.3a16.22,16.22,0,0,0-6.72,3L134.34,24.9a16,16,0,0,0-6.07,15.68l36.9,197.22c5.3,7.59,14.49,14.87,26.83,20.75V33.19l-3.76-20.11A16,16,0,0,0,169.57.3Zm109.6,17.4-32-16A16,16,0,0,0,224,16V268.79a160.37,160.37,0,0,0,64,0V32A16,16,0,0,0,279.17,17.7ZM84.61,80.7A16,16,0,0,0,64.25,98.78L80.55,192H114c3.6,0,7,1,10.35,1.75l-20-107.16ZM370.75,32.27a16.38,16.38,0,0,0-7.33.43L329.14,43c-4.24,1.27-7.17,4.51-9.13,8.33V258.55c17.55-8.38,29.15-19.54,31.54-30.39.4-1.79,1.46-3.22,2.06-4.92L383.76,50.78A16,16,0,0,0,370.75,32.27Zm64,48a16.38,16.38,0,0,0-7.33.43l-17.31,5.17L391.36,193.13c2.24-.32,4.33-1.12,6.63-1.12h33.47l16.3-93.23A16,16,0,0,0,434.75,80.27Z" class="fa-secondary"/><path d="M64,240a16,16,0,0,1,16-16h34c6.92,0,13.7,4.24,15.19,11,8.6,39,62.09,69,126.79,69s118.2-30,126.8-69c1.49-6.73,8.27-11,15.19-11h34a16,16,0,0,1,16,16,16.16,16.16,0,0,1-.38,3.46L393.48,487A32,32,0,0,1,362.28,512H149.73A32,32,0,0,1,118.48,487L64.38,243.48A16.18,16.18,0,0,1,64,240Z" class="fa-primary"/></svg>