<svg xmlns="http://www.w3.org/2000/svg" viewBox="0 0 576 512"><!-- Font Awesome Pro 5.15.4 by @fontawesome - https://fontawesome.com License - https://fontawesome.com/license (Commercial License) --><defs><style>.fa-secondary{opacity:.4}</style></defs><path d="M576 464a16 16 0 0 1-16 16h-90.38L351.09 354.09c5.07-54.15-29.93-85.06-40.8-93.21a104.78 104.78 0 0 0-125.13 0L150.38 287a16 16 0 0 0 19.22 25.6l32.76-24.6c20.69-15.53 48.35-20.81 72.24-10.88 44.06 18.32 57.85 70.37 33.71 106.6L272.51 432H352a32 32 0 0 1 32 32 16 16 0 0 1-16 16H64c-34.92 0-63.89-28-64-63-.5-166.8 126.69-303.9 289.33-319.45-.21 1.15-.4 2.32-.56 3.49a82.14 82.14 0 0 0-.77 11c0 47.54 39.29 80 80 80 46 0 80-37.61 80-80a81.4 81.4 0 0 0-1.34-14.53c3 1 59.41 19.62 98.86 41.23a58.22 58.22 0 0 1 .77 102l-154.44 86.61L490.37 432H544a32 32 0 0 1 32 32z" class="fa-secondary"/><path d="M368 32a80 80 0 1 0 80 80 80 80 0 0 0-80-80zm0 48a32 32 0 0 1 32 32h-64a32 32 0 0 1 32-32z" class="fa-primary"/></svg>