<svg xmlns="http://www.w3.org/2000/svg" viewBox="0 0 496 512"><!-- Font Awesome Pro 5.15.4 by @fontawesome - https://fontawesome.com License - https://fontawesome.com/license (Commercial License) --><defs><style>.fa-secondary{opacity:.4}</style></defs><path d="M248,8C111,8,0,119,0,256S111,504,248,504,496,393,496,256,385,8,248,8ZM136,208a32,32,0,1,1,32,32A32,32,0,0,1,136,208ZM323.3,391.3C292.1,381.7,263.9,376,248,376s-44.1,5.7-75.3,15.3a16,16,0,0,1-20.5-18.1c7-40,60.1-61.2,95.8-61.2s88.8,21.3,95.8,61.2a16,16,0,0,1-20.5,18.1ZM328,240a32,32,0,1,1,32-32A32,32,0,0,1,328,240Z" class="fa-secondary"/><path d="M168,176a32,32,0,1,0,32,32A32,32,0,0,0,168,176Zm160,0a32,32,0,1,0,32,32A32,32,0,0,0,328,176Z" class="fa-primary"/></svg>