<svg xmlns="http://www.w3.org/2000/svg" viewBox="0 0 640 512"><!-- Font Awesome Pro 5.15.4 by @fontawesome - https://fontawesome.com License - https://fontawesome.com/license (Commercial License) --><defs><style>.fa-secondary{opacity:.4}</style></defs><path d="M480 192a160 160 0 1 0 160 160 160 160 0 0 0-160-160zm16 239.88V448a8 8 0 0 1-8 8h-16a8 8 0 0 1-8-8v-16.29a57.26 57.26 0 0 1-31.37-11.35 8 8 0 0 1-.57-12.14L443.81 397a8.21 8.21 0 0 1 10.13-.73 24.08 24.08 0 0 0 12.82 3.73h28.11c6.5 0 11.8-5.92 11.8-13.19 0-5.95-3.61-11.19-8.77-12.73l-45-13.5c-18.59-5.58-31.58-23.42-31.58-43.39 0-24.52 19.05-44.44 42.67-45.07V256a8 8 0 0 1 8-8h16a8 8 0 0 1 8 8v16.29a57.18 57.18 0 0 1 31.37 11.35 8 8 0 0 1 .57 12.14L516.18 307a8.21 8.21 0 0 1-10.13.73 24 24 0 0 0-12.82-3.73h-28.11c-6.5 0-11.8 5.92-11.8 13.19 0 5.95 3.61 11.19 8.77 12.73l45 13.5c18.59 5.58 31.58 23.42 31.58 43.39 0 24.53-19.04 44.44-42.67 45.07z" class="fa-secondary"/><path d="M507.09 343.42l-45-13.5c-5.16-1.54-8.77-6.78-8.77-12.73 0-7.27 5.3-13.19 11.8-13.19h28.11a24 24 0 0 1 12.82 3.72 8.21 8.21 0 0 0 10.13-.73l11.75-11.21a8 8 0 0 0-.57-12.14A57.18 57.18 0 0 0 496 272.29V256a8 8 0 0 0-8-8h-16a8 8 0 0 0-8 8v16.12c-23.62.63-42.67 20.55-42.67 45.07 0 20 13 37.81 31.58 43.39l45 13.5c5.16 1.54 8.77 6.78 8.77 12.73 0 7.27-5.3 13.19-11.8 13.19h-28.12a24.08 24.08 0 0 1-12.82-3.72 8.21 8.21 0 0 0-10.13.73l-11.75 11.21a8 8 0 0 0 .57 12.14A57.26 57.26 0 0 0 464 431.71V448a8 8 0 0 0 8 8h16a8 8 0 0 0 8-8v-16.12c23.63-.63 42.67-20.54 42.67-45.07 0-19.97-12.99-37.81-31.58-43.39zM288 352c0-89.79 62.05-165.17 145.46-186.06l101.2-111.87c20-20 5.82-54.07-22.4-54.07H31.74C3.52 0-10.61 34.12 9.34 54.07L192 256v155.92a40 40 0 0 0 16 32l80 60c20.86 15.64 48.47 7 59.22-13.57A191.33 191.33 0 0 1 288 352z" class="fa-primary"/></svg>