<svg xmlns="http://www.w3.org/2000/svg" viewBox="0 0 512 512"><!-- Font Awesome Pro 5.15.4 by @fontawesome - https://fontawesome.com License - https://fontawesome.com/license (Commercial License) --><defs><style>.fa-secondary{opacity:.4}</style></defs><path d="M452 104v-.05.05zm51.88 159.77A246.7 246.7 0 0 1 461 395.61l-7.15-31.45-109.5 13.43-46.69 100.1L325 494l.06.23a248.87 248.87 0 0 1-138.06 0V494l27.37-16.28-46.69-100.1-109.52-13.46L51 395.61a246.7 246.7 0 0 1-42.87-131.8l24.17 21.08 80.61-75.24-20.83-108.5L60 104a248.5 248.5 0 0 1 111.65-81.26l.35.26-12.4 29.11 96.4 53.41 96.4-53.41-12.65-29.6A248.6 248.6 0 0 1 452 104l-31.7-2.84-21.16 108.5 80.62 75.24zM356.32 228L256 155.33 155.68 228l38.45 117.44h124.09z" class="fa-secondary"/><path d="M352.4 52.11l-12.65-29.6a249 249 0 0 0-167.5 0l-12.65 29.6 96.4 53.41zm-34.18 293.37L356.32 228 256 155.33 155.68 228l38.45 117.44zM92.08 101.15L60 104A246.92 246.92 0 0 0 8 256c0 2.61.05 5.21.13 7.81l24.17 21.08 80.61-75.24zm252.26 276.44l-46.69 100.1 27.69 16.47A248.45 248.45 0 0 0 461 395.61l-7.15-31.45zM58.16 364.16L51 395.61a248.45 248.45 0 0 0 135.65 98.55l27.69-16.47-46.69-100.1zM452 104l-31.7-2.84-21.16 108.5 80.62 75.24 24.16-21.08c.08-2.6.13-5.2.13-7.81A246.92 246.92 0 0 0 452 104z" class="fa-primary"/></svg>