<svg xmlns="http://www.w3.org/2000/svg" viewBox="0 0 512 512"><!-- Font Awesome Pro 5.15.4 by @fontawesome - https://fontawesome.com License - https://fontawesome.com/license (Commercial License) --><defs><style>.fa-secondary{opacity:.4}</style></defs><path d="M152.411,380.041A184.06545,184.06545,0,0,1,107.048,364.22461a143.563,143.563,0,0,1-74.11661-8.61719C19.48622,350.21875,7.666,366.28516,16.83,377.502a196.56317,196.56317,0,0,0,49.18712,42.88282c48.33946,29.86718,108.28821,35.41211,161.18624,17.46484a143.15222,143.15222,0,0,0,27.0076-64.42578A194.37634,194.37634,0,0,1,152.411,380.041ZM138.579,254.21289a194.34925,194.34925,0,0,1-6.61713-101.80273,184.10142,184.10142,0,0,1,15.81237-45.36133,143.64822,143.64822,0,0,1,8.61712-74.11914C161.782,19.48828,145.7118,7.66211,134.497,16.82422A196.41386,196.41386,0,0,0,91.61847,66.01367c-29.86695,48.3418-35.41379,108.28906-17.46861,161.1875A143.19192,143.19192,0,0,0,138.579,254.21289ZM373.421,257.78711a194.34925,194.34925,0,0,1,6.61713,101.80273,184.10142,184.10142,0,0,1-15.81237,45.36133,143.64822,143.64822,0,0,1-8.61712,74.11914c-5.39058,13.44141,10.6796,25.26758,21.89436,16.10547a196.48243,196.48243,0,0,0,42.87857-49.18945c29.86695-48.3418,35.41379-108.28906,17.46861-161.1875A143.19192,143.19192,0,0,0,373.421,257.78711ZM495.17,134.49805a196.53038,196.53038,0,0,0-49.18712-42.88477C397.64343,61.74805,337.69468,56.20312,284.79665,74.14844a143.15047,143.15047,0,0,0-27.0076,64.42773,194.37634,194.37634,0,0,1,101.8-6.61719A184.11687,184.11687,0,0,1,404.952,147.77344a143.563,143.563,0,0,1,74.11661,8.61718C492.51378,161.78125,504.334,145.71289,495.17,134.49805Z" class="fa-secondary"/><path d="M506.57617,274.10352C489.77943,202.99805,431.23691,146.26562,359.589,131.959a194.37634,194.37634,0,0,0-101.8,6.61719A143.72851,143.72851,0,0,1,343.3001,27.832c13.3163-5.69531,10.31633-25.418-4.09372-26.86914a196.57346,196.57346,0,0,0-65.105,4.459c-71.101,16.79687-127.83494,75.33984-142.13951,146.98828A194.34925,194.34925,0,0,0,138.579,254.21289,143.73791,143.73791,0,0,1,27.83381,168.69922C22.13854,155.38477,2.416,158.38281.96293,172.793a196.51667,196.51667,0,0,0,4.4609,65.10351C22.22057,309.002,80.76309,365.73438,152.411,380.041a194.37634,194.37634,0,0,0,101.8-6.61719A143.72851,143.72851,0,0,1,168.6999,484.168c-13.3163,5.69531-10.31633,25.418,4.09372,26.86914a196.57346,196.57346,0,0,0,65.105-4.459c71.101-16.79687,127.83494-75.33984,142.13951-146.98828A194.34925,194.34925,0,0,0,373.421,257.78711a143.73791,143.73791,0,0,1,110.74523,85.51367c5.69527,13.31445,25.41777,10.31641,26.87088-4.09375A196.51667,196.51667,0,0,0,506.57617,274.10352ZM256,304a48,48,0,1,1,47.99963-48A48.00094,48.00094,0,0,1,256,304Z" class="fa-primary"/></svg>