<svg xmlns="http://www.w3.org/2000/svg" viewBox="0 0 384 512"><!-- Font Awesome Pro 5.15.4 by @fontawesome - https://fontawesome.com License - https://fontawesome.com/license (Commercial License) --><defs><style>.fa-secondary{opacity:.4}</style></defs><path d="M352 0H32A32 32 0 0 0 0 32v448a32 32 0 0 0 32 32h256a96 96 0 0 0 96-96V32a32 32 0 0 0-32-32zM160 344a8 8 0 0 1-8 8h-24v24a8 8 0 0 1-8 8h-16a8 8 0 0 1-8-8v-24H72a8 8 0 0 1-8-8v-16a8 8 0 0 1 8-8h24v-24a8 8 0 0 1 8-8h16a8 8 0 0 1 8 8v24h24a8 8 0 0 1 8 8zm72 40a24 24 0 1 1 24-24 24 24 0 0 1-24 24zM112 224a16 16 0 0 1-16-16V80a16 16 0 0 1 16-16h160a16 16 0 0 1 16 16v112a32 32 0 0 1-32 32zm184 112a24 24 0 1 1 24-24 24 24 0 0 1-24 24z" class="fa-secondary"/><path d="M112 224a16 16 0 0 1-16-16V80a16 16 0 0 1 16-16h160a16 16 0 0 1 16 16v112a32 32 0 0 1-32 32z" class="fa-primary"/></svg>