<svg xmlns="http://www.w3.org/2000/svg" viewBox="0 0 640 512"><!-- Font Awesome Pro 5.15.4 by @fontawesome - https://fontawesome.com License - https://fontawesome.com/license (Commercial License) --><defs><style>.fa-secondary{opacity:.4}</style></defs><path d="M442.3 60.2a16.06 16.06 0 0 1 0-22.6l11.3-11.3a16.06 16.06 0 0 1 22.6 0l81 81a64.12 64.12 0 0 1 18.8 45.3V376a71.45 71.45 0 0 1-7.39 31.7L528 376.3V215.2a55.91 55.91 0 0 1-48-55.2V97.9zM370 416L96 204.21V416zM160 91.89V64h160v128h-30.47l190.33 147.11A88 88 0 0 0 392 256h-8V64a64.06 64.06 0 0 0-64-64H160a64.1 64.1 0 0 0-61 44.72zM400 448H80a16 16 0 0 0-16 16v32a16 16 0 0 0 16 16h320a16 16 0 0 0 16-16v-32a16 16 0 0 0-16-16z" class="fa-secondary"/><path d="M636.64 480.55L617 505.82a16 16 0 0 1-22.46 2.81L6.18 53.9a16 16 0 0 1-2.81-22.45L23 6.18a16 16 0 0 1 22.47-2.81L633.82 458.1a16 16 0 0 1 2.82 22.45z" class="fa-primary"/></svg>