<svg xmlns="http://www.w3.org/2000/svg" viewBox="0 0 416 512"><!-- Font Awesome Pro 5.15.4 by @fontawesome - https://fontawesome.com License - https://fontawesome.com/license (Commercial License) --><defs><style>.fa-secondary{opacity:.4}</style></defs><path d="M322.21 304H352a64.07 64.07 0 0 0 63.11-74.8c-5.1-31.5-34.71-53.2-66.51-53.2h-65.89a7.86 7.86 0 0 1-5.5-13.5c20.8-21.6 31.6-52.79 24.9-86.29-7.5-37.5-38.5-67.8-76-74.6C165-9.38 112 37.12 112 96a95.56 95.56 0 0 0 26.7 66.29c5 5.2 1.7 13.7-5.5 13.7H67.38C35.48 176 6 197.81.87 229.21A64.07 64.07 0 0 0 64 304h29.79a18.2 18.2 0 0 1 18.2 18.2 18.43 18.43 0 0 1-4.2 11.7l-58.21 69.8c-23.3 27.9-21.6 72.4 7.1 94.7A63 63 0 0 0 96 512a63.92 63.92 0 0 0 49.2-23l38.31-45.9a32 32 0 0 1 49.2 0L271 489a64.06 64.06 0 0 0 88.51 9.5c28.7-22.4 30.4-66.8 7.1-94.7l-58.2-69.8a18.43 18.43 0 0 1-4.2-11.7 18 18 0 0 1 18-18.3zM176 96a16 16 0 1 1 16-16 16 16 0 0 1-16 16zm32 272a16 16 0 1 1 16-16 16 16 0 0 1-16 16zm0-64a16 16 0 1 1 16-16 16 16 0 0 1-16 16zm0-64a16 16 0 1 1 16-16 16 16 0 0 1-16 16zm32-144a16 16 0 1 1 16-16 16 16 0 0 1-16 16z" class="fa-secondary"/><path d="M208 240a16 16 0 1 0-16-16 16 16 0 0 0 16 16zm0 32a16 16 0 1 0 16 16 16 16 0 0 0-16-16zm0 64a16 16 0 1 0 16 16 16 16 0 0 0-16-16z" class="fa-primary"/></svg>