<svg xmlns="http://www.w3.org/2000/svg" viewBox="0 0 576 512"><!-- Font Awesome Pro 5.15.4 by @fontawesome - https://fontawesome.com License - https://fontawesome.com/license (Commercial License) --><defs><style>.fa-secondary{opacity:.4}</style></defs><path d="M64 328.58v37.54C64 393.63 87 416 115.2 416h37.12c26.66 0 49.09-20.3 51.06-46.21l3.13-41.22a196.2 196.2 0 0 0-69.93-12.92A217.08 217.08 0 0 0 64 328.58zm448 37.55v-37.54a217.07 217.07 0 0 0-72.55-12.93 196.27 196.27 0 0 0-69.95 12.92l3.13 41.22c2 25.91 24.39 46.21 51.06 46.21h37.11C489 416 512 393.64 512 366.13z" class="fa-secondary"/><path d="M574.1 280.38L528.75 98.67a87.94 87.94 0 0 0-113.19-62.14l-15.25 5.08a16 16 0 0 0-10.12 20.24L395.25 77a16 16 0 0 0 20.23 10.12l13.18-4.39c10.87-3.62 23-3.57 33.16 1.73a39.62 39.62 0 0 1 20.37 25.82l38.46 153.82a276.75 276.75 0 0 0-81.2-12.46c-34.77 0-74 7-114.85 26.74h-73.18c-40.87-19.74-80.08-26.75-114.86-26.75a276.76 276.76 0 0 0-81.21 12.46l38.46-153.8a39.59 39.59 0 0 1 20.38-25.81c10.16-5.3 22.28-5.35 33.15-1.73l13.17 4.39A16 16 0 0 0 180.74 77l5.06-15.18a16 16 0 0 0-10.12-20.22l-15.25-5.08A87.95 87.95 0 0 0 47.24 98.65L1.9 280.38A64.16 64.16 0 0 0 0 295.87v70.25C0 429 51.58 480 115.2 480h37.12c60.28 0 110.37-45.94 114.88-105.37l2.93-38.63h35.75l2.93 38.63C313.31 434.07 363.4 480 423.68 480h37.12c63.62 0 115.2-51 115.2-113.87v-70.25a64.24 64.24 0 0 0-1.9-15.5zM203.38 369.8c-2 25.91-24.4 46.21-51.06 46.21H115.2C87 416 64 393.63 64 366.12v-37.54a217.08 217.08 0 0 1 72.58-12.92 196.2 196.2 0 0 1 69.93 12.92zM460.8 416h-37.12c-26.67 0-49.1-20.3-51.06-46.21l-3.13-41.22a196.27 196.27 0 0 1 69.95-12.92A217.07 217.07 0 0 1 512 328.59v37.54c0 27.51-23 49.87-51.2 49.87z" class="fa-primary"/></svg>