<svg xmlns="http://www.w3.org/2000/svg" viewBox="0 0 496 512"><!-- Font Awesome Pro 5.15.4 by @fontawesome - https://fontawesome.com License - https://fontawesome.com/license (Commercial License) --><defs><style>.fa-secondary{opacity:.4}</style></defs><path d="M312,16.35V50.73a28,28,0,0,1-11.12,22.35l-41.41,31.27a8,8,0,0,0,.86,13.81l10.83,5.41A16,16,0,0,1,280,137.88V216a8,8,0,0,1-8,8h-3.06a8,8,0,0,1-7.15-4.42,4.47,4.47,0,0,0-1.72-1.86,4.42,4.42,0,0,0-6.06,1.54h0l-17.34,29A16,16,0,0,1,222.94,256h-.31a16,16,0,0,0-11.32,4.69l-5.66,5.66a8,8,0,0,0,0,11.31l5.66,5.66A16,16,0,0,1,216,294.63V304a16,16,0,0,1-16,16h-6.1a16,16,0,0,1-14.28-8.85L157,265.92a8,8,0,0,0-10.72-3.6h0a8.14,8.14,0,0,0-2.11,1.53l-19.47,19.46A16,16,0,0,1,113.38,288H2.05C17.74,409.88,121.84,504,248,504c137,0,248-111,248-248C496,141.13,418,44.56,312,16.35Zm96,342.08a16,16,0,0,1-4.69,11.31l-9.57,9.57A16,16,0,0,1,382.43,384H367.27a16,16,0,0,1-11.36-4.74l-13-13a26.78,26.78,0,0,0-25.42-7l-21.27,5.32a15.86,15.86,0,0,1-3.88.48H282a16,16,0,0,1-11.24-4.69l-11.91-11.91a8,8,0,0,1-2.34-5.66V332.6a8,8,0,0,1,5-7.43l39.34-15.74a26.35,26.35,0,0,0,5.59-3.05l23.71-16.89a8,8,0,0,1,4.64-1.48h12.14a8,8,0,0,1,7.39,4.93l5.35,12.85a4,4,0,0,0,3.69,2.46h3.8a4,4,0,0,0,3.84-2.88l4.16-14.49A4,4,0,0,1,379,288h6.06a4,4,0,0,1,4,4v13a8,8,0,0,0,2.34,5.66l11.91,11.91A16,16,0,0,1,408,333.83Z" class="fa-secondary"/><path d="M260.07,217.72a4.47,4.47,0,0,1,1.72,1.86,8,8,0,0,0,7.15,4.42H272a8,8,0,0,0,8-8V137.88a16,16,0,0,0-8.84-14.31l-10.83-5.41a8,8,0,0,1-.86-13.81l41.41-31.27A28,28,0,0,0,312,50.73V16.35A248.23,248.23,0,0,0,248,8C111,8,0,119,0,256a249.89,249.89,0,0,0,2.05,32H113.38a16,16,0,0,0,11.31-4.69l19.47-19.46A8,8,0,0,1,157,265.92l22.62,45.23A16,16,0,0,0,193.9,320H200a16,16,0,0,0,16-16v-9.37a16,16,0,0,0-4.69-11.31l-5.66-5.66a8,8,0,0,1,0-11.31l5.66-5.66A16,16,0,0,1,222.63,256h.31a16,16,0,0,0,13.72-7.77L254,219.28a4.42,4.42,0,0,1,6.05-1.57Zm143.24,104.8L391.4,310.61a8,8,0,0,1-2.34-5.66V292a4,4,0,0,0-4-4H379a4,4,0,0,0-3.84,2.88L371,305.37a4,4,0,0,1-3.84,2.88h-3.8a4,4,0,0,1-3.69-2.46l-5.35-12.85a8,8,0,0,0-7.39-4.93H334.79a8,8,0,0,0-4.64,1.48l-23.71,16.89a26.35,26.35,0,0,1-5.59,3.05l-39.34,15.74a8,8,0,0,0-5,7.43v10.2a8,8,0,0,0,2.34,5.66l11.91,11.91A16,16,0,0,0,282,365.06h10.34a15.86,15.86,0,0,0,3.88-.48l21.27-5.32a26.78,26.78,0,0,1,25.42,7l13,13A16,16,0,0,0,367.27,384h15.16a16,16,0,0,0,11.31-4.69l9.57-9.57A16,16,0,0,0,408,358.43v-24.6a16,16,0,0,0-4.69-11.31Z" class="fa-primary"/></svg>