<svg xmlns="http://www.w3.org/2000/svg" viewBox="0 0 496 512"><!-- Font Awesome Pro 5.15.4 by @fontawesome - https://fontawesome.com License - https://fontawesome.com/license (Commercial License) --><defs><style>.fa-secondary{opacity:.4}</style></defs><path d="M340.45,320H155.55a579.08,579.08,0,0,1,0-128h184.9A575,575,0,0,1,344,256,575,575,0,0,1,340.45,320ZM160.2,160H335.8c-.41-2.31-.84-4.62-1.28-6.91-6-30.85-14.42-58.37-25.13-81.78C299.54,49.77,288,32.54,276.05,21.48,266.38,12.53,256.94,8,248,8s-18.38,4.53-28,13.48c-12,11.06-23.49,28.29-33.34,49.83C176,94.72,167.5,122.24,161.53,153.09,161,155.38,160.61,157.69,160.2,160ZM120,256a608,608,0,0,1,3.34-64H8.35a249.52,249.52,0,0,0,0,128h115A608,608,0,0,1,120,256Zm367.62-64h-115A608.06,608.06,0,0,1,376,256a608,608,0,0,1-3.34,64h115a249.52,249.52,0,0,0,0-128ZM476.7,160A248.62,248.62,0,0,0,315.58,17.32c24.13,33,42.89,83.15,52.75,142.68ZM315.58,494.68A248.59,248.59,0,0,0,476.71,352H368.33C358.47,411.53,339.71,461.68,315.58,494.68ZM335.8,352H160.2c.41,2.31.84,4.62,1.28,6.91,6,30.85,14.42,58.37,25.13,81.78,9.85,21.54,21.38,38.77,33.34,49.83,9.67,9,19.11,13.48,28.05,13.48s18.38-4.53,28.05-13.48c12-11.06,23.49-28.29,33.34-49.83,10.71-23.41,19.16-50.93,25.13-81.78C335,356.62,335.39,354.31,335.8,352ZM180.42,17.32A248.59,248.59,0,0,0,19.29,160H127.67C137.53,100.47,156.29,50.32,180.42,17.32ZM19.29,352A248.59,248.59,0,0,0,180.42,494.68c-24.13-33-42.89-83.15-52.75-142.68Z" class="fa-secondary"/><path d="M376,256a608,608,0,0,0-3.34-64h115a245.72,245.72,0,0,0-10.92-32H368.33c-9.86-59.53-28.62-109.68-52.75-142.68A248.23,248.23,0,0,0,248,8c8.94,0,18.38,4.53,28.05,13.48,12,11.06,23.49,28.29,33.34,49.83,10.71,23.41,19.16,50.93,25.13,81.78.44,2.29.87,4.6,1.28,6.91H160.2c.41-2.31.84-4.62,1.28-6.91,6-30.85,14.42-58.37,25.13-81.78C196.46,49.77,208,32.54,220,21.48,229.62,12.53,239.06,8,248,8a248.23,248.23,0,0,0-67.58,9.32c-24.13,33-42.89,83.15-52.75,142.68H19.29A245.72,245.72,0,0,0,8.37,192h115a613.93,613.93,0,0,0,0,128H8.37a245.72,245.72,0,0,0,10.92,32H127.67c9.86,59.53,28.62,109.68,52.75,142.68A248.23,248.23,0,0,0,248,504c-8.94,0-18.38-4.53-28.05-13.48-12-11.06-23.49-28.29-33.34-49.83-10.71-23.41-19.16-50.93-25.13-81.78-.44-2.29-.87-4.6-1.28-6.91H335.8c-.41,2.31-.84,4.62-1.28,6.91-6,30.85-14.42,58.37-25.13,81.78-9.85,21.54-21.38,38.77-33.34,49.83-9.67,9-19.11,13.48-28.05,13.48a248.23,248.23,0,0,0,67.58-9.32c24.13-33,42.89-83.15,52.75-142.68H476.71a245.72,245.72,0,0,0,10.92-32h-115A605.37,605.37,0,0,0,376,256Zm-35.54,64H155.55a579.08,579.08,0,0,1,0-128h184.9A575,575,0,0,1,344,256a575,575,0,0,1-3.55,64Z" class="fa-primary"/></svg>