<svg xmlns="http://www.w3.org/2000/svg" viewBox="0 0 496 512"><!-- Font Awesome Pro 5.15.4 by @fontawesome - https://fontawesome.com License - https://fontawesome.com/license (Commercial License) --><defs><style>.fa-secondary{opacity:.4}</style></defs><path d="M487.54,320.4H438.9a15.8,15.8,0,0,1-11.4-4.8l-32-32.6a11.92,11.92,0,0,1,.1-16.7l12.5-12.5v-8.7a11.37,11.37,0,0,0-3.3-8l-9.4-9.4a11.37,11.37,0,0,0-8-3.3h-16a11.31,11.31,0,0,1-8-19.3l9.4-9.4a11.37,11.37,0,0,1,8-3.3h32a11.35,11.35,0,0,0,11.3-11.3v-9.4a11.35,11.35,0,0,0-11.3-11.3H376.1a16,16,0,0,0-16,16v4.5a16,16,0,0,1-10.9,15.2l-31.6,10.5a8,8,0,0,0-5.5,7.6v2.2a8,8,0,0,1-8,8h-16a8,8,0,0,1-8-8,8,8,0,0,0-8-8H269a8.14,8.14,0,0,0-7.2,4.4l-9.4,18.7a15.94,15.94,0,0,1-14.3,8.8H216a16,16,0,0,1-16-16V199a16,16,0,0,1,4.7-11.3l20.1-20.1a24.77,24.77,0,0,0,7.2-17.5,8,8,0,0,1,5.5-7.6l40-13.3a11.66,11.66,0,0,0,4.4-2.7l26.8-26.8a11.31,11.31,0,0,0-8-19.3H280l-16,16v8a8,8,0,0,1-8,8H240a8,8,0,0,1-8-8v-20a8.05,8.05,0,0,1,3.2-6.4l82.42-60.08A247.79,247.79,0,0,0,248,8C111,8,0,119,0,256S111,504,248,504a251.57,251.57,0,0,0,32.1-2.06V448.4a16,16,0,0,0-16-16H243.9c-10.8,0-26.7-5.3-35.4-11.8l-22.2-16.7a45.42,45.42,0,0,1-18.2-36.4V343.6a45.46,45.46,0,0,1,22.1-39l42.9-25.7a46.13,46.13,0,0,1,23.4-6.5h31.2a45.62,45.62,0,0,1,29.6,10.9l43.2,37.1h18.3a32,32,0,0,1,22.6,9.4l17.3,17.3.08.08C432,359.06,440,375.62,440,393.37V413A247.11,247.11,0,0,0,487.54,320.4ZM187.4,157.1a11.37,11.37,0,0,1-8,3.3h-16a11.31,11.31,0,0,1-8-19.3l25.4-25.4a11.31,11.31,0,0,1,19.3,8v16a11.37,11.37,0,0,1-3.3,8Z" class="fa-secondary"/><path d="M187.4,157.1l9.4-9.4a11.37,11.37,0,0,0,3.3-8v-16a11.31,11.31,0,0,0-19.3-8l-25.4,25.4a11.31,11.31,0,0,0,8,19.3h16A11.37,11.37,0,0,0,187.4,157.1ZM418.78,347.18l-.08-.08-17.3-17.3a32,32,0,0,0-22.6-9.4H360.5l-43.2-37.1a45.62,45.62,0,0,0-29.6-10.9H256.5a46.13,46.13,0,0,0-23.4,6.5l-42.9,25.7a45.46,45.46,0,0,0-22.1,39v23.9a45.42,45.42,0,0,0,18.2,36.4l22.2,16.7c8.7,6.5,24.6,11.8,35.4,11.8h20.2a16,16,0,0,1,16,16v53.54A247.57,247.57,0,0,0,440,413V393.37C440,375.62,432,359.06,418.78,347.18ZM317.62,17.92,235.2,78a8.05,8.05,0,0,0-3.2,6.4v20a8,8,0,0,0,8,8h16a8,8,0,0,0,8-8v-8l16-16h20.7a11.31,11.31,0,0,1,8,19.3l-26.8,26.8a11.66,11.66,0,0,1-4.4,2.7l-40,13.3a8,8,0,0,0-5.5,7.6,24.77,24.77,0,0,1-7.2,17.5l-20.1,20.1A16,16,0,0,0,200,199v25.3a16,16,0,0,0,16,16h22.1a15.94,15.94,0,0,0,14.3-8.8l9.4-18.7a8.14,8.14,0,0,1,7.2-4.4h3.1a8,8,0,0,1,8,8,8,8,0,0,0,8,8h16a8,8,0,0,0,8-8v-2.2a8,8,0,0,1,5.5-7.6l31.6-10.5a16,16,0,0,0,10.9-15.2v-4.5a16,16,0,0,1,16-16h36.7a11.35,11.35,0,0,1,11.3,11.3v9.4a11.35,11.35,0,0,1-11.3,11.3h-32a11.37,11.37,0,0,0-8,3.3l-9.4,9.4a11.31,11.31,0,0,0,8,19.3h16a11.37,11.37,0,0,1,8,3.3l9.4,9.4a11.37,11.37,0,0,1,3.3,8v8.7l-12.5,12.5a11.92,11.92,0,0,0-.1,16.7l32,32.6a15.8,15.8,0,0,0,11.4,4.8h48.64A248.29,248.29,0,0,0,496,256C496,143.18,420.71,48,317.62,17.92Z" class="fa-primary"/></svg>