<svg xmlns="http://www.w3.org/2000/svg" viewBox="0 0 496 512"><!-- Font Awesome Pro 5.15.4 by @fontawesome - https://fontawesome.com License - https://fontawesome.com/license (Commercial License) --><defs><style>.fa-secondary{opacity:.4}</style></defs><path d="M491.33,208H423.5A15.5,15.5,0,0,0,408,223.5h0v6.93a15.49,15.49,0,0,1-8.57,13.86L384,252a15.49,15.49,0,0,1-15.53-1L350.3,238.88a15.52,15.52,0,0,0-13.5-1.81l-2.65.88a15.47,15.47,0,0,0-9.83,19.56,15.83,15.83,0,0,0,1.83,3.74l13.24,19.86a15.49,15.49,0,0,0,12.89,6.9h8.21a15.5,15.5,0,0,1,15.5,15.5v11.34a15.52,15.52,0,0,1-3.1,9.3l-18.74,25a15.57,15.57,0,0,0-2.83,6.43L347,378.39a15.53,15.53,0,0,1-4.76,8.56,159.61,159.61,0,0,0-25,29.16l-13,19.55a27.77,27.77,0,0,1-47.91-3A78.82,78.82,0,0,1,248,397.39V367.5A15.5,15.5,0,0,0,232.5,352H206.62A54.63,54.63,0,0,1,152,297.37V283.31a54.65,54.65,0,0,1,21.85-43.7l27.58-20.69A54.6,54.6,0,0,1,234.2,208h.89a54.52,54.52,0,0,1,24.43,5.77l14.72,7.36a15.49,15.49,0,0,0,11.83.84l47.31-15.77a15.5,15.5,0,0,0-4.9-30.2H318.39a15.5,15.5,0,0,1-11-4.54l-6.92-6.92a15.5,15.5,0,0,0-11-4.54h-90A15.5,15.5,0,0,1,184,144.5v-4.4a15.52,15.52,0,0,1,11.74-15l14.45-3.61a15.53,15.53,0,0,0,9.14-6.44l8.08-12.11A15.47,15.47,0,0,1,240.3,96h24.21A15.5,15.5,0,0,0,280,80.49V10.05A249.89,249.89,0,0,0,248,8C111,8,0,119,0,256S111,504,248,504,496,393,496,256A249.51,249.51,0,0,0,491.33,208Z" class="fa-secondary"/><path d="M423.5,208A15.5,15.5,0,0,0,408,223.5h0v6.93a15.49,15.49,0,0,1-8.57,13.86L384,252a15.49,15.49,0,0,1-15.53-1L350.3,238.88a15.52,15.52,0,0,0-13.5-1.81l-2.65.88a15.47,15.47,0,0,0-9.83,19.56,15.83,15.83,0,0,0,1.83,3.74l13.24,19.86a15.49,15.49,0,0,0,12.89,6.9h8.21a15.5,15.5,0,0,1,15.5,15.5v11.34a15.52,15.52,0,0,1-3.1,9.3l-18.74,25a15.57,15.57,0,0,0-2.83,6.43L347,378.39a15.53,15.53,0,0,1-4.76,8.56,159.61,159.61,0,0,0-25,29.16l-13,19.55a27.77,27.77,0,0,1-47.91-3A78.82,78.82,0,0,1,248,397.39V367.5A15.5,15.5,0,0,0,232.5,352H206.62A54.63,54.63,0,0,1,152,297.37V283.31a54.65,54.65,0,0,1,21.85-43.7l27.58-20.69A54.6,54.6,0,0,1,234.2,208h.89a54.52,54.52,0,0,1,24.43,5.77l14.72,7.36a15.49,15.49,0,0,0,11.83.84l47.31-15.77a15.5,15.5,0,0,0-4.9-30.2H318.39a15.5,15.5,0,0,1-11-4.54l-6.92-6.92a15.5,15.5,0,0,0-11-4.54h-90A15.5,15.5,0,0,1,184,144.5v-4.4a15.52,15.52,0,0,1,11.74-15l14.45-3.61a15.53,15.53,0,0,0,9.14-6.44l8.08-12.11A15.47,15.47,0,0,1,240.3,96h24.21A15.5,15.5,0,0,0,280,80.49V10.05C386,23.7,471,104.24,491.34,208Z" class="fa-primary"/></svg>