<svg xmlns="http://www.w3.org/2000/svg" viewBox="0 0 640 512"><!-- Font Awesome Pro 5.15.4 by @fontawesome - https://fontawesome.com License - https://fontawesome.com/license (Commercial License) --><defs><style>.fa-secondary{opacity:.4}</style></defs><path d="M64 205.15a64 64 0 0 0-64 64v26.9h120a8 8 0 0 1 8 8v32a8 8 0 0 1-8 8H0v48h120a8 8 0 0 1 8 8v32a8 8 0 0 1-8 8H0v8a64.06 64.06 0 0 0 64 64h302.6a64 64 0 0 0 57.7-36.26l90-187.42-438.5-82.12a64 64 0 0 0-11.8-1.1z" class="fa-secondary"/><path d="M120 392.05H0v48h120a8 8 0 0 0 8-8v-32a8 8 0 0 0-8-8zm0-96H0v48h120a8 8 0 0 0 8-8v-32a8 8 0 0 0-8-8zM631 8.59l-14.4-6.94-.18-.09a15.91 15.91 0 0 0-21.22 7.49L465.55 279.24l48.76 9.13L638.4 30A16.14 16.14 0 0 0 631 8.59z" class="fa-primary"/></svg>