<svg xmlns="http://www.w3.org/2000/svg" viewBox="0 0 512 512"><!-- Font Awesome Pro 5.15.4 by @fontawesome - https://fontawesome.com License - https://fontawesome.com/license (Commercial License) --><defs><style>.fa-secondary{opacity:.4}</style></defs><path d="M160 224h32v-96h-32zm-32 128h32V224h-32zM96 512h32V352H96zm256-288v128h32V224zm-32-96v96h32v-96zm64 224v160h32V352z" class="fa-secondary"/><path d="M496 352h-16V240a16 16 0 0 0-16-16h-16v-80a16 16 0 0 0-16-16h-16V16a16 16 0 0 0-32 0v16h-64V16a16 16 0 0 0-32 0v16h-64V16a16 16 0 0 0-32 0v16h-64V16a16 16 0 0 0-32 0v112H80a16 16 0 0 0-16 16v80H48a16 16 0 0 0-16 16v112H16a16 16 0 0 0-16 16v128a16 16 0 0 0 16 16h80V352h32V224h32v-96h32v96h-32v128h-32v160h80v-80a16 16 0 0 1 16-16h64a16 16 0 0 1 16 16v80h80V352h-32V224h-32v-96h32v96h32v128h32v160h80a16 16 0 0 0 16-16V368a16 16 0 0 0-16-16zM232 176a16 16 0 0 1 16-16h16a16 16 0 0 1 16 16v48h-48zm56 176h-64v-64a16 16 0 0 1 16-16h32a16 16 0 0 1 16 16z" class="fa-primary"/></svg>