<svg xmlns="http://www.w3.org/2000/svg" viewBox="0 0 640 512"><!-- Font Awesome Pro 5.15.4 by @fontawesome - https://fontawesome.com License - https://fontawesome.com/license (Commercial License) --><defs><style>.fa-secondary{opacity:.4}</style></defs><path d="M323.07 175.7L118.8 215.6a48.1 48.1 0 0 0-38.74 44.73 32 32 0 0 1 2.21 53.94l25.4 114.26A16 16 0 0 1 92 448H35.94a16 16 0 0 1-15.61-19.47l25.39-114.27a32 32 0 0 1 2.33-54 80.16 80.16 0 0 1 64.62-76.07l204.26-39.89a16 16 0 1 1 6.14 31.4z" class="fa-secondary"/><path d="M622.33 198.8l-279 85.7a80 80 0 0 1-46.79 0L99.67 224a47.84 47.84 0 0 1 19.13-8.39l204.27-39.9a16 16 0 1 0-6.14-31.4l-204.26 39.88a79.87 79.87 0 0 0-47.57 29.18l-47.44-14.58c-23.54-7.23-23.54-38.36 0-45.59L296.6 67.5a79.92 79.92 0 0 1 46.8 0l278.93 85.7c23.55 7.24 23.55 38.36 0 45.6zM352.79 315.09a111.94 111.94 0 0 1-65.59 0l-145-44.55L128 384c0 35.35 86 64 192 64s192-28.65 192-64l-14.19-113.47z" class="fa-primary"/></svg>