<svg xmlns="http://www.w3.org/2000/svg" viewBox="0 0 496 512"><!-- Font Awesome Pro 5.15.4 by @fontawesome - https://fontawesome.com License - https://fontawesome.com/license (Commercial License) --><defs><style>.fa-secondary{opacity:.4}</style></defs><path d="M248,8C111,8,0,119,0,256S111,504,248,504,496,393,496,256,385,8,248,8ZM144,400h-8a32,32,0,0,1-32-32v-8h40Zm0-56H104v-8a32,32,0,0,1,32-32h8Zm-8-136a32,32,0,1,1,32,32A32,32,0,0,1,136,208Zm72,192H160V360h48Zm0-56H160V304h48Zm64,56H224V360h48Zm0-56H224V304h48Zm64,56H288V360h48Zm0-56H288V304h48Zm-8-104a32,32,0,1,1,32-32A32,32,0,0,1,328,240Zm64,128a32,32,0,0,1-32,32h-8V360h40Zm0-24H352V304h8a32,32,0,0,1,32,32Z" class="fa-secondary"/><path d="M168,176a32,32,0,1,0,32,32A32,32,0,0,0,168,176Zm160,0a32,32,0,1,0,32,32A32,32,0,0,0,328,176Z" class="fa-primary"/></svg>