<svg xmlns="http://www.w3.org/2000/svg" viewBox="0 0 496 512"><!-- Font Awesome Pro 5.15.4 by @fontawesome - https://fontawesome.com License - https://fontawesome.com/license (Commercial License) --><defs><style>.fa-secondary{opacity:.4}</style></defs><path d="M248,8C111,8,0,119,0,256.06c0,106.32,67,196.73,161,232a95.5,95.5,0,0,1-9-40V402.58c-24.7-16.2-43.5-38.1-47.8-63.81a16,16,0,0,1,20.7-17.9c30.2,9.7,75.1,15.2,123.1,15.2s92.9-5.5,123.1-15.2a16,16,0,0,1,20.7,17.9c-4.3,25.71-23.1,47.61-47.8,63.81v45.51a95.5,95.5,0,0,1-9,40c94-35.31,161-125.72,161-232C496,119,385,8,248,8ZM214.2,218.35l-80,48c-11.5,6.8-24-7.6-15.4-18L152.4,208l-33.6-40.32c-8.6-10.3,3.8-24.9,15.4-18l80,48a12.07,12.07,0,0,1,4,16.59,12.2,12.2,0,0,1-4,4Zm147.6,48-80-48a12,12,0,0,1,0-20.6l80-48c11.7-6.9,23.9,7.7,15.4,18L343.6,208l33.6,40.31c8.7,10.4-3.9,24.8-15.4,18Z" class="fa-secondary"/><path d="M214.2,197.75l-80-48c-11.6-6.9-24,7.7-15.4,18L152.4,208l-33.6,40.31c-8.6,10.4,3.9,24.8,15.4,18l80-48a12.05,12.05,0,0,0,0-20.6Zm44.3,194.53-1.8,7.8c-2.1,9.21-15.2,9.21-17.3,0l-1.8-7.8c-3.5-15.4-20.2-24.1-34.6-17.6-.9.4.3-.2-18.9,9.4v63c0,35.21,28,64.51,63.1,64.91a64,64,0,0,0,64.89-63.22V384c-19.5-9.6-18.2-8.9-19-9.3-14.39-6.53-31.09,2.17-34.59,17.57ZM377.2,248.36,343.6,208l33.6-40.32c8.5-10.3-3.7-24.9-15.4-18l-80,48a12,12,0,0,0,0,20.6l80,48c11.5,6.8,24.1-7.6,15.4-18Z" class="fa-primary"/></svg>