<svg xmlns="http://www.w3.org/2000/svg" viewBox="0 0 512 512"><!-- Font Awesome Pro 5.15.4 by @fontawesome - https://fontawesome.com License - https://fontawesome.com/license (Commercial License) --><defs><style>.fa-secondary{opacity:.4}</style></defs><path d="M414.12 143.6c-33 3.9-48.6-25.1-45.7-45.7 3.4-24 7.4-42.1 11.5-56.5-94.8-54.8-218.1-41.9-299.3 39.2s-94 204.4-39.2 299.3c14.4-4.1 32.4-8 56.5-11.5 33.2-3.9 48.6 25.2 45.7 45.7-3.4 24-7.4 42.1-11.5 56.5 94.8 54.8 218.1 41.9 299.3-39.2s94-204.4 39.2-299.3c-14.4 4.1-32.5 8-56.5 11.5zm-180.9 53l22.5-90.6c3.3-13.2 22.4-11.5 23.6 1.8l4.8 52.3 52.3 4.8c13.4 1.2 14.9 20.3 1.8 23.6l-90.5 22.6a12 12 0 0 1-14.5-14.5zm-68.4 139.7L160 284l-52.3-4.8c-13.4-1.2-14.9-20.3-1.8-23.6l90.5-22.6a12 12 0 0 1 14.5 14.5L188.32 338c-3.1 13.2-22.2 11.7-23.5-1.7zm215.7 44.2c-29.3 29.3-75.7 50.4-116.7 50.4-18.9 0-36.6-4.5-51-14.7a15.92 15.92 0 0 1 2-27.2c28.3-14.6 63.9-42.4 97.8-76.3s61.7-69.6 76.3-97.8a16 16 0 0 1 27.3-2c32.3 45.3 7.1 124.7-35.7 167.6z" class="fa-secondary"/><path d="M102.42 400.1c-22.6 3.2-73.5 12-88.3 26.8-19.1 19.1-18.8 50.6.8 70.2s51 19.9 70.2.7c14.8-14.8 23.5-65.7 26.8-88.3a8.31 8.31 0 0 0-9.5-9.4zm94-167.1l-90.5 22.6c-13.1 3.3-11.6 22.4 1.8 23.6L160 284l4.8 52.3c1.3 13.4 20.4 14.9 23.5 1.7l22.6-90.5a12 12 0 0 0-14.48-14.5zm140-68.1l-52.3-4.8-4.8-52.3c-1.2-13.3-20.3-15-23.6-1.8l-22.5 90.6a12 12 0 0 0 14.5 14.5l90.5-22.6c13.1-3.3 11.6-22.4-1.8-23.6zm160.8-150C477.62-4.7 446-5 426.92 14.2c-14.8 14.8-23.5 65.7-26.8 88.3a8.31 8.31 0 0 0 9.5 9.4c22.6-3.2 73.5-12 88.3-26.8 19.2-19.2 18.9-50.6-.7-70.2z" class="fa-primary"/></svg>