<svg xmlns="http://www.w3.org/2000/svg" viewBox="0 0 496 512"><!-- Font Awesome Pro 5.15.4 by @fontawesome - https://fontawesome.com License - https://fontawesome.com/license (Commercial License) --><defs><style>.fa-secondary{opacity:.4}</style></defs><path d="M248,8C111,8,0,119,0,256S111,504,248,504,496,393,496,256,385,8,248,8Zm24.2,215.4c3.1-42.1,32-71.4,55.8-71.4s52.7,29.3,56,71.4c.7,8.6-10.8,11.9-14.9,4.5l-9.5-17c-7.7-13.7-19.2-21.6-31.5-21.6s-23.8,7.9-31.5,21.6l-9.5,17C283,235.2,271.5,231.9,272.2,223.4Zm-160,0c3.1-42.1,32-71.4,55.8-71.4s52.7,29.3,56,71.4c.7,8.6-10.8,11.9-14.9,4.5l-9.5-17c-7.7-13.7-19.2-21.6-31.5-21.6s-23.8,7.9-31.5,21.6l-9.5,17C122.9,235.3,111.5,231.9,112.2,223.4ZM391.8,338.7c-9.3,55-83.2,93.3-143.8,93.3s-134.5-38.3-143.8-93.3a16,16,0,0,1,20.7-17.9C155.1,330.5,200,336,248,336s92.9-5.5,123.1-15.2a16,16,0,0,1,20.7,17.9Z" class="fa-secondary"/><path d="M168,152c-23.8,0-52.7,29.3-55.8,71.4-.7,8.5,10.7,11.9,14.9,4.5l9.5-17c7.7-13.7,19.2-21.6,31.5-21.6s23.8,7.9,31.5,21.6l9.5,17c4.1,7.4,15.6,4.1,14.9-4.5-3.3-42.1-32.2-71.4-56-71.4Zm216,71.4c-3.3-42.1-32.2-71.4-56-71.4s-52.7,29.3-55.8,71.4c-.7,8.5,10.8,11.8,14.9,4.5l9.5-17c7.7-13.7,19.2-21.6,31.5-21.6s23.8,7.9,31.5,21.6l9.5,17C373.2,235.3,384.7,232,384,223.4Z" class="fa-primary"/></svg>