<svg xmlns="http://www.w3.org/2000/svg" viewBox="0 0 496 512"><!-- Font Awesome Pro 5.15.4 by @fontawesome - https://fontawesome.com License - https://fontawesome.com/license (Commercial License) --><defs><style>.fa-secondary{opacity:.4}</style></defs><path d="M248,8C111,8,0,119,0,256S111,504,248,504,496,393,496,256,385,8,248,8Zm33.8,189.7,80-48c11.6-6.9,24,7.7,15.4,18L343.6,208l33.6,40.3c8.7,10.4-3.9,24.8-15.4,18l-80-48a12.07,12.07,0,0,1,0-20.6Zm-147.6-48,80,48a12,12,0,0,1,0,20.6l-80,48c-11.5,6.8-24-7.6-15.4-18L152.4,208l-33.6-40.3c-8.6-10.3,3.8-24.9,15.4-18Zm257.6,189c-9.3,55-83.2,93.3-143.8,93.3s-134.5-38.3-143.8-93.3a16,16,0,0,1,20.7-17.9C155.1,330.5,200,336,248,336s92.9-5.5,123.1-15.2a16.06,16.06,0,0,1,20.7,17.9Z" class="fa-secondary"/><path d="M214.2,197.7l-80-48c-11.6-6.9-24,7.7-15.4,18L152.4,208l-33.6,40.3c-8.6,10.4,3.9,24.8,15.4,18l80-48a12,12,0,0,0,0-20.6Zm163,50.6L343.6,208l33.6-40.3c8.6-10.3-3.8-24.9-15.4-18l-80,48a12.07,12.07,0,0,0,0,20.6l80,48C373.3,273.1,385.9,258.7,377.2,248.3Z" class="fa-primary"/></svg>