<svg xmlns="http://www.w3.org/2000/svg" viewBox="0 0 496 512"><!-- Font Awesome Pro 5.15.4 by @fontawesome - https://fontawesome.com License - https://fontawesome.com/license (Commercial License) --><defs><style>.fa-secondary{opacity:.4}</style></defs><path d="M248,8C111,8,0,119,0,256S111,504,248,504,496,393,496,256,385,8,248,8Zm20.2,214.2c4-25.2,34.2-42.1,59.9-42.1S384,197,388,222.2c1.6,11-11.5,18.2-20,10.8l-9.5-8.5c-14.8-13.2-46.2-13.2-61,0L288,233C279.7,240.4,266.4,233.4,268.2,222.2ZM168,176a32,32,0,1,1-32,32A32,32,0,0,1,168,176ZM391.8,338.7c-9.2,55-83.2,93.3-143.8,93.3s-134.5-38.3-143.8-93.3a16,16,0,0,1,20.7-17.9C155.1,330.5,200,336,248,336s92.9-5.5,123.1-15.2a16,16,0,0,1,20.7,17.9Z" class="fa-secondary"/><path d="M168,176a32,32,0,1,0,32,32A32,32,0,0,0,168,176Zm220,46.2c-4-25.2-34.2-42.1-59.9-42.1s-55.9,16.9-59.9,42.1c-1.8,11.2,11.5,18.2,19.8,10.8l9.5-8.5c14.8-13.2,46.2-13.2,61,0L368,233c8.5,7.4,21.6.2,20-10.8Z" class="fa-primary"/></svg>