<svg xmlns="http://www.w3.org/2000/svg" viewBox="0 0 496 512"><!-- Font Awesome Pro 5.15.4 by @fontawesome - https://fontawesome.com License - https://fontawesome.com/license (Commercial License) --><defs><style>.fa-secondary{opacity:.4}</style></defs><path d="M248,8C111,8,0,119,0,256S111,504,248,504,496,393,496,256,385,8,248,8Zm80,168a32,32,0,1,1-32,32A32,32,0,0,1,328,176Zm-160,0a32,32,0,1,1-32,32A32,32,0,0,1,168,176ZM391.8,338.7c-9.3,55-83.2,93.3-143.8,93.3s-134.5-38.3-143.8-93.3a16,16,0,0,1,20.7-17.9C155.1,330.5,200,336,248,336s92.9-5.5,123.1-15.2c11.3-3.7,22.6,6.1,20.7,17.9Z" class="fa-secondary"/><path d="M168,176a32,32,0,1,0,32,32A32,32,0,0,0,168,176Zm160,0a32,32,0,1,0,32,32A32,32,0,0,0,328,176Z" class="fa-primary"/></svg>