<svg xmlns="http://www.w3.org/2000/svg" viewBox="0 0 496 512"><!-- Font Awesome Pro 5.15.4 by @fontawesome - https://fontawesome.com License - https://fontawesome.com/license (Commercial License) --><defs><style>.fa-secondary{opacity:.4}</style></defs><path d="M248,8C111,8,0,119,0,256.07c0,106.33,67,196.75,161,232a95.5,95.5,0,0,1-9-40V402.6c-24.7-16.2-43.5-38.1-47.8-63.81a16.06,16.06,0,0,1,20.7-17.9c30.2,9.7,75.1,15.2,123.1,15.2s92.9-5.5,123.1-15.2a16,16,0,0,1,20.7,17.9c-4.3,25.71-23.1,47.61-47.8,63.81v45.52a95.5,95.5,0,0,1-9,40c94-35.31,161-125.73,161-232C496,119,385,8,248,8ZM192,233l-9.5-8.5c-14.8-13.2-46.2-13.2-61,0L112,233c-8.5,7.4-21.6.3-19.8-10.8,4-25.2,34.2-42.11,59.9-42.11S208,197,212,222.26C213.6,233.36,200.4,240.46,192,233Zm105.71,20.22a64,64,0,1,1,.07.07h-.07Z" class="fa-secondary"/><path d="M212,222.26c-4-25.2-34.2-42.11-59.9-42.11S96.2,197,92.2,222.26c-1.8,11.1,11.3,18.2,19.8,10.8l9.5-8.5c14.8-13.2,46.2-13.2,61,0L192,233c8.4,7.4,21.6.3,20-10.8Zm46.5,170-1.8,7.8c-2.1,9.22-15.2,9.22-17.3,0l-1.8-7.8c-3.5-15.4-20.2-24.1-34.6-17.6-.9.4.3-.2-18.9,9.4v63c0,35.21,28,64.51,63.1,64.91a64,64,0,0,0,64.89-63.1V384c-19.5-9.6-18.2-8.9-19-9.3-14.39-6.5-31.09,2.2-34.59,17.6ZM344,184a23.94,23.94,0,1,0,.12,0Z" class="fa-primary"/></svg>