<svg xmlns="http://www.w3.org/2000/svg" viewBox="0 0 256 512"><!-- Font Awesome Pro 5.15.4 by @fontawesome - https://fontawesome.com License - https://fontawesome.com/license (Commercial License) --><defs><style>.fa-secondary{opacity:.4}</style></defs><path d="M224,16V496a16,16,0,0,1-16,16H176a16,16,0,0,1-16-16V16A16,16,0,0,1,176,0h32A16,16,0,0,1,224,16Z" class="fa-secondary"/><path d="M96,16V496a16,16,0,0,1-16,16H48a16,16,0,0,1-16-16V16A16,16,0,0,1,48,0H80A16,16,0,0,1,96,16Z" class="fa-primary"/></svg>