<svg xmlns="http://www.w3.org/2000/svg" viewBox="0 0 512 512"><!-- Font Awesome Pro 5.15.4 by @fontawesome - https://fontawesome.com License - https://fontawesome.com/license (Commercial License) --><defs><style>.fa-secondary{opacity:.4}</style></defs><path d="M243.76 223.27a39.45 39.45 0 0 1-3.18-38.42l17.29-37.13a18.82 18.82 0 0 0-30.38-21.23l-38.31 38.27a77.49 77.49 0 0 0-18.24 28.83A77.6 77.6 0 0 1 130.42 238L54 273.33C-3.23 296.19-18.4 370 25.16 413.54l73.39 73.33c43.56 43.51 117.45 28.36 140.35-28.78l35.4-76.38a77.64 77.64 0 0 1 44.41-40.48A77.77 77.77 0 0 0 347.57 323l21.57-21.55a19.87 19.87 0 0 0-20.11-33L325.32 276a39.67 39.67 0 0 1-36.76-7.11zm-62.1 171.09l-11.31 11.31a8 8 0 0 1-11.32 0L106.34 353a8 8 0 0 1 0-11.31l11.32-11.31a8 8 0 0 1 11.31 0l52.69 52.68a8 8 0 0 1 0 11.3zm64-64l-11.31 11.31a8 8 0 0 1-11.32 0L170.35 289a8 8 0 0 1 0-11.31l11.31-11.31a8 8 0 0 1 11.31 0l52.69 52.68a8 8 0 0 1 0 11.31z" class="fa-secondary"/><path d="M511.21 39.57a48.12 48.12 0 0 0-37.79-38.26C450.48-3 450.66.79 366.74 54.93A32.15 32.15 0 0 0 352 81.88v33.27L243.81 223.33l44.75 45.6.09.05 173-172.93c.82.06 1.57.35 2.4.35a48 48 0 0 0 47.16-56.83zM129 330.37a8 8 0 0 0-11.31 0l-11.32 11.31a8 8 0 0 0 0 11.31L159 405.67a8 8 0 0 0 11.32 0l11.31-11.31a8 8 0 0 0 0-11.31zm64-64a8 8 0 0 0-11.31 0l-11.31 11.31a8 8 0 0 0 0 11.31L223 341.68a8 8 0 0 0 11.32 0l11.31-11.31a8 8 0 0 0 0-11.31z" class="fa-primary"/></svg>