<svg xmlns="http://www.w3.org/2000/svg" viewBox="0 0 512 512"><!-- Font Awesome Pro 5.15.4 by @fontawesome - https://fontawesome.com License - https://fontawesome.com/license (Commercial License) --><defs><style>.fa-secondary{opacity:.4}</style></defs><path d="M348.88 267.67c7.72 33.39.86 66.87-22 89.75a82.56 82.56 0 0 1-33.47 20.25c-18.54 6-32.67 23.29-34.43 42.15-2.28 23.8-11.48 45.82-28.45 62.7C185 528 103.08 519.94 47.57 464.45s-63.67-137.45-18-183c16.87-17 38.9-26.17 62.59-28.44 18.95-1.77 36.13-15.9 42.15-34.46a82.45 82.45 0 0 1 20.24-33.47c22.9-22.91 56.42-29.81 89.86-22 14.62 3.41 28 10.39 40.15 19.17l-74 74c-.85 0-1.65-.25-2.52-.25a48 48 0 1 0 48 48c0-.84-.21-1.62-.25-2.45l74-74.06c8.74 12.2 15.72 25.51 19.09 40.18z" class="fa-secondary"/><path d="M502.63 84.22l-46.32 46.32a35.26 35.26 0 0 1-13.79 8.53l-36.47 12.16-150.33 150.35a47.77 47.77 0 0 0-45.22-45.29L360.79 106 373 69.49a35.26 35.26 0 0 1 8.53-13.79l46.26-46.33a32 32 0 0 1 45.26 0L502.63 39a32 32 0 0 1 0 45.22z" class="fa-primary"/></svg>