<svg xmlns="http://www.w3.org/2000/svg" viewBox="0 0 384 512"><!-- Font Awesome Pro 5.15.4 by @fontawesome - https://fontawesome.com License - https://fontawesome.com/license (Commercial License) --><defs><style>.fa-secondary{opacity:.4}</style></defs><path d="M384 64v192a32 32 0 0 1-37.26 31.56L192 261.77 37.26 287.55A32 32 0 0 1 0 256V64a32 32 0 0 1 37.26-31.56L192 58.23l154.74-25.78A32 32 0 0 1 384 64z" class="fa-secondary"/><path d="M160 52.9V16a16 16 0 0 1 16-16h32a16 16 0 0 1 16 16v36.9l-32 5.33zm0 246.64V496a16 16 0 0 0 16 16h32a16 16 0 0 0 16-16V299.54l-32-5.33z" class="fa-primary"/></svg>