<svg xmlns="http://www.w3.org/2000/svg" viewBox="0 0 512 512"><!-- Font Awesome Pro 5.15.4 by @fontawesome - https://fontawesome.com License - https://fontawesome.com/license (Commercial License) --><defs><style>.fa-secondary{opacity:.4}</style></defs><path d="M288 352a32 32 0 1 1-32-32 32 32 0 0 1 32 32z" class="fa-secondary"/><path d="M509.34 307.25A32 32 0 0 0 480 288h-64V80a40 40 0 0 0-80 0v134a10 10 0 0 1-10 10h-20a10 10 0 0 1-10-10V40a40 40 0 0 0-80 0v174a10 10 0 0 1-10 10h-20a10 10 0 0 1-10-10V80a40 40 0 0 0-80 0v208H32a32 32 0 0 0-23.4 53.83l102.69 110C147 490.08 199.69 512 256 512s109-21.92 144.72-60.14l102.68-110a32 32 0 0 0 5.94-34.61zM256 416c-53 0-96-64-96-64s43-64 96-64 96 64 96 64-43 64-96 64z" class="fa-primary"/></svg>