<svg xmlns="http://www.w3.org/2000/svg" viewBox="0 0 384 512"><!-- Font Awesome Pro 5.15.4 by @fontawesome - https://fontawesome.com License - https://fontawesome.com/license (Commercial License) --><defs><style>.fa-secondary{opacity:.4}</style></defs><path d="M0 224c0-34.22 35.1-57.75 66.91-44.12A135.83 135.83 0 0 1 91.83 194V44.8c0-23.45 20.54-44.8 43.82-44.8 23.63 0 43.83 20.65 43.83 44.8v99.85c17.05-16.34 49.76-18.35 70.94 6.3 22.83-14.29 53-2.15 62.32 16.45 49.14-9 71.26 21.95 71.26 72.6 0 2.75-.2 13.28-.2 16 .17 62-31.06 76.89-38.31 123.73a24 24 0 0 1-23.7 20.27H150.26a48 48 0 0 1-43.84-28.47c-13-28.88-49-95.41-77.33-107.53C10.9 256.2 0 242.62 0 224z" class="fa-secondary"/><path d="M328 416H136a24 24 0 0 0-24 24v48a24 24 0 0 0 24 24h192a24 24 0 0 0 24-24v-48a24 24 0 0 0-24-24zm-24 68a20 20 0 1 1 20-20 20 20 0 0 1-20 20z" class="fa-primary"/></svg>