<svg xmlns="http://www.w3.org/2000/svg" viewBox="0 0 640 512"><!-- Font Awesome Pro 5.15.4 by @fontawesome - https://fontawesome.com License - https://fontawesome.com/license (Commercial License) --><defs><style>.fa-secondary{opacity:.4}</style></defs><path d="M608 64a32 32 0 0 0-32 32v148.4l-89.8 107.8a16.06 16.06 0 0 1-23.6 1.1l-12.8-12.8a16 16 0 0 1-1.5-20.9l38.1-50.8a32 32 0 1 0-51.2-38.4l-57.6 76.8A128.2 128.2 0 0 0 352 384v112a16 16 0 0 0 16 16h131.7a15.76 15.76 0 0 0 15.3-11.6 59.69 59.69 0 0 1 10.4-21.7l104.1-134.3a48.05 48.05 0 0 0 10.5-30V96a32 32 0 0 0-32-32zM204.8 230.42a32 32 0 1 0-51.2 38.4l38.1 50.8a16 16 0 0 1-1.5 20.9l-12.8 12.8a15.9 15.9 0 0 1-23.6-1.1L64 244.42V96a32 32 0 1 0-64 0v218.4a48.05 48.05 0 0 0 10.5 30l104.1 134.3a59.69 59.69 0 0 1 10.4 21.7 15.67 15.67 0 0 0 15.3 11.6H272a16 16 0 0 0 16-16V384a128.2 128.2 0 0 0-25.6-76.8z" class="fa-secondary"/><path d="M198.4 136.32c-31.6-33.2-29.7-88.2 5.6-118.8 30.8-26.7 76.7-21.9 104.9 7.8l11.1 11.6 11.1-11.7c28.2-29.6 74.1-34.4 104.9-7.7 35.4 30.6 37.2 85.6 5.7 118.8l-108.9 114.2a17.42 17.42 0 0 1-25.5 0z" class="fa-primary"/></svg>