<svg xmlns="http://www.w3.org/2000/svg" viewBox="0 0 448 512"><!-- Font Awesome Pro 5.15.4 by @fontawesome - https://fontawesome.com License - https://fontawesome.com/license (Commercial License) --><defs><style>.fa-secondary{opacity:.4}</style></defs><path d="M448 256v80a40.36 40.36 0 0 1-1.06 9.16l-32 136A40 40 0 0 1 376 512H136a40 40 0 0 1-34.73-20.15l-64-112A40 40 0 0 1 47 328.77l31.1-24.88L3.34 113.55a48 48 0 1 1 89.35-35.1L162.43 256H176V48a48 48 0 0 1 96 0v208h8v-32a40 40 0 0 1 80 0v32h8a40 40 0 0 1 80 0z" class="fa-secondary"/></svg>