<svg xmlns="http://www.w3.org/2000/svg" viewBox="0 0 384 512"><!-- Font Awesome Pro 5.15.4 by @fontawesome - https://fontawesome.com License - https://fontawesome.com/license (Commercial License) --><defs><style>.fa-secondary{opacity:.4}</style></defs><path d="M383.81 256c0 2.72.19 13.25.19 16 0 50.65-22.12 81.57-71.26 72.6-9.3 18.6-39.49 30.74-62.32 16.45-21.17 24.64-53.89 22.64-70.94 6.3v99.85c0 24.15-20.2 44.8-43.83 44.8-23.28 0-43.82-21.35-43.82-44.8V318a135.83 135.83 0 0 1-24.92 14.15C35.1 345.75 0 322.22 0 288c0-18.62 10.9-32.2 29.09-40 28.29-12.12 64.33-78.65 77.33-107.53A48 48 0 0 1 150.26 112h171.53a24 24 0 0 1 23.7 20.27C352.74 179.11 384 194 383.81 256z" class="fa-secondary"/><path d="M328 0H136a24 24 0 0 0-24 24v48a24 24 0 0 0 24 24h192a24 24 0 0 0 24-24V24a24 24 0 0 0-24-24zm-24 68a20 20 0 1 1 20-20 20 20 0 0 1-20 20z" class="fa-primary"/></svg>