<svg xmlns="http://www.w3.org/2000/svg" viewBox="0 0 576 512"><!-- Font Awesome Pro 5.15.4 by @fontawesome - https://fontawesome.com License - https://fontawesome.com/license (Commercial License) --><defs><style>.fa-secondary{opacity:.4}</style></defs><path d="M559.73,392.21l-135,99.52A104.8,104.8,0,0,1,363,512H16A16.11,16.11,0,0,1,0,496V400a16.11,16.11,0,0,1,16-16H71.37l46.5-37.74A117.7,117.7,0,0,1,192,320H352a32.07,32.07,0,0,1,31.62,37.38C381,373.15,366.22,384,350.23,384H272a16,16,0,0,0,0,32H392.59l119.67-88.18a40,40,0,1,1,47.47,64.37Z" class="fa-secondary"/><path d="M400,96v64a16,16,0,0,1-16,16H320v64a16,16,0,0,1-16,16H240a16,16,0,0,1-16-16V176H160a16,16,0,0,1-16-16V96a16,16,0,0,1,16-16h64V16A16,16,0,0,1,240,0h64a16,16,0,0,1,16,16V80h64A16,16,0,0,1,400,96Z" class="fa-primary"/></svg>