<svg xmlns="http://www.w3.org/2000/svg" viewBox="0 0 640 512"><!-- Font Awesome Pro 5.15.4 by @fontawesome - https://fontawesome.com License - https://fontawesome.com/license (Commercial License) --><defs><style>.fa-secondary{opacity:.4}</style></defs><path d="M224 248V121.68a31.78 31.78 0 0 1 15-27.1l33.5-20.9A64.48 64.48 0 0 1 306.4 64h102.21L512 4.28A32 32 0 0 1 555.72 16l80 138.6a32 32 0 0 1-11.7 43.7l-80 46.2V216a56 56 0 0 0-56-56H304v88a40 40 0 1 1-80 0z" class="fa-secondary"/><path d="M4.32 357.38A31.92 31.92 0 0 1 16 313.68l80-46.2v-47.3a63.86 63.86 0 0 1 31.1-54.8l64.89-39V248a72 72 0 1 0 144 0v-56H488a23.94 23.94 0 0 1 24 24v48a23.94 23.94 0 0 1-24 24h-8v64a32 32 0 0 1-32 32h-16a64.06 64.06 0 0 1-64 64H231.41L128 507.68A32 32 0 0 1 84.32 496z" class="fa-primary"/></svg>