<svg xmlns="http://www.w3.org/2000/svg" viewBox="0 0 640 512"><!-- Font Awesome Pro 5.15.4 by @fontawesome - https://fontawesome.com License - https://fontawesome.com/license (Commercial License) --><defs><style>.fa-secondary{opacity:.4}</style></defs><path d="M608 64a32 32 0 0 0-32 32v148.4l-89.8 107.8a16.06 16.06 0 0 1-23.6 1.1l-12.8-12.8a16 16 0 0 1-1.5-20.9l38.1-50.8a32 32 0 1 0-51.2-38.4l-57.6 76.8A128.2 128.2 0 0 0 352 384v112a16 16 0 0 0 16 16h131.7a15.76 15.76 0 0 0 15.3-11.6 59.69 59.69 0 0 1 10.4-21.7l104.1-134.3a48.05 48.05 0 0 0 10.5-30V96a32 32 0 0 0-32-32zM204.8 230.4a32 32 0 1 0-51.2 38.4l38.1 50.8a16 16 0 0 1-1.5 20.9l-12.8 12.8a15.9 15.9 0 0 1-23.6-1.1L64 244.4V96a32 32 0 0 0-64 0v218.4a48.05 48.05 0 0 0 10.5 30l104.1 134.3a59.69 59.69 0 0 1 10.4 21.7 15.67 15.67 0 0 0 15.3 11.6H272a16 16 0 0 0 16-16V384a128.2 128.2 0 0 0-25.6-76.8z" class="fa-secondary"/><path d="M246.7 96.6c-4.1-32 19-59.4 49.3-63V16a16 16 0 0 1 16-16h16a16 16 0 0 1 16 16v17.7a73.53 73.53 0 0 1 31.8 11.5c6.2 4.1 6.8 13.1 1.5 18.4l-17.5 17.5c-3.7 3.7-9.3 4.2-14.1 2a25.73 25.73 0 0 0-10.3-2.2h-32.8a8.41 8.41 0 0 0-2.3 16.5l50.1 14.3c22.2 6.4 40 24.7 42.9 47.7a56.14 56.14 0 0 1-49.3 63V240a16 16 0 0 1-16 16h-16a16 16 0 0 1-16-16v-17.7a73.53 73.53 0 0 1-31.8-11.5c-6.2-4.1-6.8-13.1-1.5-18.4l17.5-17.5c3.7-3.7 9.3-4.2 14.1-2a25.73 25.73 0 0 0 10.3 2.2h32.8a8.41 8.41 0 0 0 2.3-16.5l-50.1-14.3c-22.2-6.4-40-24.7-42.9-47.7z" class="fa-primary"/></svg>