<svg xmlns="http://www.w3.org/2000/svg" viewBox="0 0 448 512"><!-- Font Awesome Pro 5.15.4 by @fontawesome - https://fontawesome.com License - https://fontawesome.com/license (Commercial License) --><defs><style>.fa-secondary{opacity:.4}</style></defs><path d="M448 168v150.36a192 192 0 0 1-5.1 44L416.39 475a48 48 0 0 1-46.73 37H172.07a48 48 0 0 1-38.82-19.77L7.65 319.53a40 40 0 0 1 64.7-47.06L104 316V80a40 40 0 0 1 39.22-40C165.64 39.58 184 58.36 184 80.79V256h8V40a40 40 0 0 1 39.22-40C253.64-.42 272 18.36 272 40.79V256h8V79a40 40 0 0 1 39.22-40C341.64 38.58 360 57.36 360 79.79V256h8v-87.21c0-22.43 18.36-41.21 40.78-40.78A40 40 0 0 1 448 168z" class="fa-secondary"/></svg>