<svg xmlns="http://www.w3.org/2000/svg" viewBox="0 0 640 512"><!-- Font Awesome Pro 5.15.4 by @fontawesome - https://fontawesome.com License - https://fontawesome.com/license (Commercial License) --><defs><style>.fa-secondary{opacity:.4}</style></defs><path d="M509.94 318.61C462.5 336.65 399.18 352 320 352c-79 0-142.34-15.44-189.9-33.56.12-.87.24-1.71.35-2.53 2.59-15.31 6.08-35.12 10.62-57.23C180.16 274.28 237.79 288 320 288s139.87-13.71 179-29.3c4.56 22.18 8.05 42 10.64 57.35.06.84.18 1.69.3 2.56z" class="fa-secondary"/><path d="M499 258.7C481.92 175.83 450.62 64 401.33 64c-15.75 0-29.81 6.67-41.63 15.7a65.47 65.47 0 0 1-79.4 0c-11.82-9-25.87-15.7-41.63-15.7-49.28 0-80.57 111.82-97.61 194.68C180.16 274.28 237.79 288 320 288s139.87-13.71 179-29.3zm134 1a16 16 0 0 0-19.75 1.5c-1 .9-101.27 90.78-293.16 90.78-190.82 0-292.22-89.94-293.24-90.84A16 16 0 0 0 1 278.53C1.73 280.55 78.32 480 320 480s318.27-199.45 319-201.47a16 16 0 0 0-6.09-18.81z" class="fa-primary"/></svg>