<svg xmlns="http://www.w3.org/2000/svg" viewBox="0 0 512 512"><!-- Font Awesome Pro 5.15.4 by @fontawesome - https://fontawesome.com License - https://fontawesome.com/license (Commercial License) --><defs><style>.fa-secondary{opacity:.4}</style></defs><path d="M192 464a48 48 0 0 1 48-48h32a48 48 0 0 1 48 48h101.72A42.28 42.28 0 0 0 464 421.72s0-163.29-.12-165.72h.12c0-114.69-93.31-208-208-208S48 141.31 48 256v16a16 16 0 0 1-16 16H16a16 16 0 0 1-16-16v-16C4.58 118.83 113.18 0 256 0s251.42 118.83 256 256v165.72A90.28 90.28 0 0 1 421.72 512H240a48 48 0 0 1-48-48z" class="fa-secondary"/><path d="M368 176h-16a32 32 0 0 0-32 32v112a32 32 0 0 0 32 32h16a64 64 0 0 0 64-64v-48a64 64 0 0 0-64-64zm-208 0h-16a64 64 0 0 0-64 64v48a64 64 0 0 0 64 64h16a32 32 0 0 0 32-32V208a32 32 0 0 0-32-32z" class="fa-primary"/></svg>