<svg xmlns="http://www.w3.org/2000/svg" viewBox="0 0 512 512"><!-- Font Awesome Pro 5.15.4 by @fontawesome - https://fontawesome.com License - https://fontawesome.com/license (Commercial License) --><defs><style>.fa-secondary{opacity:.4}</style></defs><path d="M496 416h-16a16 16 0 0 1-16-16V288c0-114.67-93.33-207.8-208-207.82S48 173.33 48 288v112a16 16 0 0 1-16 16H16a16 16 0 0 1-16-16V288C4.57 151.13 112.91 32 256 32s251.43 119.13 256 256v112a16 16 0 0 1-16 16z" class="fa-secondary"/><path d="M160 288h-16a64.05 64.05 0 0 0-64 64.12v63.76A64.06 64.06 0 0 0 144 480h16a32 32 0 0 0 32-32.06V320.06A32 32 0 0 0 160 288zm208 0h-16a32 32 0 0 0-32 32.06v127.88A32 32 0 0 0 352 480h16a64.06 64.06 0 0 0 64-64.12v-63.76A64.06 64.06 0 0 0 368 288z" class="fa-primary"/></svg>