<svg xmlns="http://www.w3.org/2000/svg" viewBox="0 0 640 512"><!-- Font Awesome Pro 5.15.4 by @fontawesome - https://fontawesome.com License - https://fontawesome.com/license (Commercial License) --><defs><style>.fa-secondary{opacity:.4}</style></defs><path d="M640 240v32a16 16 0 0 1-16 16H499.78l-55.15 110.3a32 32 0 0 1-59.5-5.89l-61.39-225.12-68.44 319.4A32 32 0 0 1 225.08 512h-1.09a32 32 0 0 1-30.75-23.2L135.86 288H16a16 16 0 0 1-16-16v-32a16 16 0 0 1 16-16h144a32 32 0 0 1 30.77 23.2L219.56 348 288.7 25.3a32 32 0 0 1 62.18-1.72l73.95 271.2 26.54-53.09A32 32 0 0 1 480 224h144a16 16 0 0 1 16 16z" class="fa-secondary"/></svg>