<svg xmlns="http://www.w3.org/2000/svg" viewBox="0 0 512 512"><!-- Font Awesome Pro 5.15.4 by @fontawesome - https://fontawesome.com License - https://fontawesome.com/license (Commercial License) --><defs><style>.fa-secondary{opacity:.4}</style></defs><path d="M320.21 243.85l-49.7 99.4a16 16 0 0 1-28.9-.6l-56.9-126.3-30 71.7h-94.1l182.5 186.5a17.82 17.82 0 0 0 25.7 0l182.61-186.5H342.31zM473.71 74l-2.4-2.5a131 131 0 0 0-187.39 0L256 100.05l-27.9-28.5a130.83 130.83 0 0 0-187.4 0L38.31 74c-48.7 49.8-50.8 129.1-7.3 182.1h102.41l35.89-86.2a16 16 0 0 1 29.4-.4l58.21 129.3 49-97.9a16 16 0 0 1 28.59 0l27.6 55.2H481c43.51-53.05 41.42-132.35-7.29-182.1z" class="fa-secondary"/><path d="M451 288l-.1.05H342.31l-22.1-44.2-49.7 99.4a16 16 0 0 1-28.9-.6l-56.9-126.3-30 71.7H61V288l-29.95-31.95h102.37l35.89-86.2a16 16 0 0 1 29.4-.4l58.21 129.3 49-97.9a16 16 0 0 1 28.59 0l27.6 55.2H481z" class="fa-primary"/></svg>