<svg xmlns="http://www.w3.org/2000/svg" viewBox="0 0 512 512"><!-- Font Awesome Pro 5.15.4 by @fontawesome - https://fontawesome.com License - https://fontawesome.com/license (Commercial License) --><defs><style>.fa-secondary{opacity:.4}</style></defs><path d="M473.68 73.78c48.71 49.79 50.8 129.08 7.3 182.08L268.8 474.53a17.82 17.82 0 0 1-25.19.5l-.51-.5L31 256c-43.49-53.1-41.39-132.39 7.3-182.18l2.4-2.4C87 24 159.7 19.6 211.41 57.39L240 143.87l-96 64 144 144-48-128 96-64-34.31-103.39c51.6-36.89 123.59-32.19 169.59 14.8z" class="fa-secondary"/><path d="M288 352L144 208l96-64.1-28.59-86.52q16.68 14.15 32 29.81L256 100l11.67-12q16.23-16.64 34-31.6L336 159.87l-96 64z" class="fa-primary"/></svg>