<svg xmlns="http://www.w3.org/2000/svg" viewBox="0 0 576 512"><!-- Font Awesome Pro 5.15.4 by @fontawesome - https://fontawesome.com License - https://fontawesome.com/license (Commercial License) --><defs><style>.fa-secondary{opacity:.4}</style></defs><path d="M553.48 231.8l-112-192A48.08 48.08 0 0 0 400 16H176a48.08 48.08 0 0 0-41.5 23.8l-112 192a48.19 48.19 0 0 0 0 48.4l112 192A48.08 48.08 0 0 0 176 496h224a48.08 48.08 0 0 0 41.5-23.8l112-192a48.19 48.19 0 0 0-.02-48.4zm-87.19 38.86l-76.38 130.91A29.1 29.1 0 0 1 364.78 416H211.22a29.1 29.1 0 0 1-25.13-14.43l-76.38-130.91a29.12 29.12 0 0 1 0-29.32l76.38-130.91A29.08 29.08 0 0 1 211.22 96h153.56a29.08 29.08 0 0 1 25.13 14.43l76.38 130.91a29.12 29.12 0 0 1 0 29.32z" class="fa-secondary"/><path d="M466.29 270.66l-76.38 130.91A29.1 29.1 0 0 1 364.78 416H211.22a29.1 29.1 0 0 1-25.13-14.43l-76.38-130.91a29.12 29.12 0 0 1 0-29.32l76.38-130.91A29.08 29.08 0 0 1 211.22 96h153.56a29.08 29.08 0 0 1 25.13 14.43l76.38 130.91a29.12 29.12 0 0 1 0 29.32z" class="fa-primary"/></svg>