<svg xmlns="http://www.w3.org/2000/svg" viewBox="0 0 544 512"><!-- Font Awesome Pro 5.15.4 by @fontawesome - https://fontawesome.com License - https://fontawesome.com/license (Commercial License) --><defs><style>.fa-secondary{opacity:.4}</style></defs><path d="M0 480l99.92 32 35.45-35.45-67-67zM527.92 79.27l-63.2-63.2a54.89 54.89 0 0 0-75.12-2.35l-199 170 169.72 169.74 170-199.06a54.88 54.88 0 0 0-2.4-75.13z" class="fa-secondary"/><path d="M75.94 371.84l50.93-50.94-13.05-42.83A36.6 36.6 0 0 1 124.61 240l41.52-35.44 173.34 173.31-35.55 41.64a36.59 36.59 0 0 1-38.15 10.78L223 417.21l-50.86 50.86z" class="fa-primary"/></svg>