<svg xmlns="http://www.w3.org/2000/svg" viewBox="0 0 448 512"><!-- Font Awesome Pro 5.15.4 by @fontawesome - https://fontawesome.com License - https://fontawesome.com/license (Commercial License) --><defs><style>.fa-secondary{opacity:.4}</style></defs><path d="M376.61 54.46c-82.95-72.61-222.26-72.61-305.22 0-64 56-102.4 170-38.76 361.54C64.53 512 224 512 224 512s159.47 0 191.37-96C479 224.44 440.64 110.5 376.61 54.46zM288 64a16 16 0 1 1-16 16 16 16 0 0 1 16-16zm-128 0a16 16 0 1 1-16 16 16 16 0 0 1 16-16zm16 400a16 16 0 1 1 16-16 16 16 0 0 1-16 16zm0-64a16 16 0 1 1 16-16 16 16 0 0 1-16 16zm0-64a16 16 0 1 1 16-16 16 16 0 0 1-16 16zm-48-64a64 64 0 0 1-64-64 32 32 0 0 1 32-32h64a32 32 0 0 1 32 32 64 64 0 0 1-64 64zm96-128a16 16 0 1 1 16-16 16 16 0 0 1-16 16zm48 320a16 16 0 1 1 16-16 16 16 0 0 1-16 16zm0-64a16 16 0 1 1 16-16 16 16 0 0 1-16 16zm0-64a16 16 0 1 1 16-16 16 16 0 0 1-16 16zm48-64a64 64 0 0 1-64-64 32 32 0 0 1 32-32h64a32 32 0 0 1 32 32 64 64 0 0 1-64 64z" class="fa-secondary"/><path d="M176 432a16 16 0 1 0 16 16 16 16 0 0 0-16-16zm0-64a16 16 0 1 0 16 16 16 16 0 0 0-16-16zm0-64a16 16 0 1 0 16 16 16 16 0 0 0-16-16zM288 64a16 16 0 1 0 16 16 16 16 0 0 0-16-16zm-16 240a16 16 0 1 0 16 16 16 16 0 0 0-16-16zm0 64a16 16 0 1 0 16 16 16 16 0 0 0-16-16zm0 64a16 16 0 1 0 16 16 16 16 0 0 0-16-16zm-48-320a16 16 0 1 0 16 16 16 16 0 0 0-16-16zm-48-32a16 16 0 1 0-16 16 16 16 0 0 0 16-16z" class="fa-primary"/></svg>