<svg xmlns="http://www.w3.org/2000/svg" viewBox="0 0 640 512"><!-- Font Awesome Pro 5.15.4 by @fontawesome - https://fontawesome.com License - https://fontawesome.com/license (Commercial License) --><defs><style>.fa-secondary{opacity:.4}</style></defs><path d="M233.65 8.93v-.08a16 16 0 0 0-21.49-7.16l-57.26 28.6a16.11 16.11 0 0 0-7.21 21.5l118.66 237L320 181.47zM624 352h-48v160h48a16 16 0 0 0 16-16V368a16 16 0 0 0-16-16zm-223-8.8l-27.26-54.46L320 395.94l40.39 80.66A64.52 64.52 0 0 0 418 512h126V352H416c-6.06 0-12.35-3.39-15.06-8.8zM64 512h32V352H64z" class="fa-secondary"/><path d="M485.13 30.29l-57.26-28.6a16 16 0 0 0-21.49 7.16v.08L239.06 343.2c-2.71 5.41-9 8.82-15.06 8.8H96v160h126a64.52 64.52 0 0 0 57.61-35.4L492.34 51.79a16.11 16.11 0 0 0-7.21-21.5zM0 368v128a16 16 0 0 0 16 16h48V352H16a16 16 0 0 0-16 16zm544-16v160h32V352z" class="fa-primary"/></svg>