<svg xmlns="http://www.w3.org/2000/svg" viewBox="0 0 448 512"><!-- Font Awesome Pro 5.15.4 by @fontawesome - https://fontawesome.com License - https://fontawesome.com/license (Commercial License) --><defs><style>.fa-secondary{opacity:.4}</style></defs><path d="M207.86 235.1a15.66 15.66 0 0 0-23.8-13.7c-34.3 20.3-71.4 32.7-108.7 36.2a14.38 14.38 0 0 0-11.6 20.2 247.71 247.71 0 0 1 14.7 43.8 29.59 29.59 0 0 1-20.2 35.1A237.74 237.74 0 0 1 13 365.8 14.45 14.45 0 0 0 1.26 386c15 32.8 22.9 69.5 23 107.7a18.34 18.34 0 0 0 27.6 16c33.2-19 68.9-30.5 104.8-33.9a14.38 14.38 0 0 0 11.6-20.2 247.71 247.71 0 0 1-14.7-43.8 29.59 29.59 0 0 1 20.2-35.1 237.74 237.74 0 0 1 45.3-9.1 14.45 14.45 0 0 0 11.7-20.2c-15.5-34.2-23.3-72.5-22.9-112.3zm227.2 130.5a256.08 256.08 0 0 1-45.3-9.1 29.59 29.59 0 0 1-20.2-35.1 250.47 250.47 0 0 1 14.7-43.8 14.38 14.38 0 0 0-11.6-20.2c-37.3-3.5-74.4-15.9-108.7-36.2a15.72 15.72 0 0 0-23.8 13.7c0 1.6-.2 3.2-.2 4.9.2 33.3 7 65.7 19.9 94a46 46 0 0 1-.6 38.9c4.9 1.2 9.9 2.2 14.8 3.7a29.59 29.59 0 0 1 20.2 35.1 250.47 250.47 0 0 1-14.7 43.8 14.38 14.38 0 0 0 11.6 20.2c35.9 3.4 71.6 14.9 104.8 33.9a18.3 18.3 0 0 0 27.6-16c.2-38.2 8-75 23-107.7 4.3-8.7-1.8-19.1-11.5-20.1z" class="fa-secondary"/><path d="M144.06 96a48 48 0 1 0 48 48 48 48 0 0 0-48-48zm160 0a48 48 0 1 0 48 48 48 48 0 0 0-48-48zm-32-48a48 48 0 1 0-48 48 48 48 0 0 0 48-48z" class="fa-primary"/></svg>