<svg xmlns="http://www.w3.org/2000/svg" viewBox="0 0 576 512"><!-- Font Awesome Pro 5.15.4 by @fontawesome - https://fontawesome.com License - https://fontawesome.com/license (Commercial License) --><defs><style>.fa-secondary{opacity:.4}</style></defs><path d="M352 496V368a16 16 0 0 0-16-16h-96a16 16 0 0 0-16 16v128a16 16 0 0 1-16 16H80a16 16 0 0 1-16-16V311.07c1.78-1.21 3.85-1.89 5.47-3.35L288 115l218.74 192.9c1.54 1.38 3.56 2 5.26 3.2V496a16 16 0 0 1-16 16H368a16 16 0 0 1-16-16z" class="fa-secondary"/><path d="M527.92 283.91L298.6 81.64a16 16 0 0 0-21.17 0L48.11 283.92a16 16 0 0 1-22.59-1.21L4.1 258.89a16 16 0 0 1 1.21-22.59l256-226a39.85 39.85 0 0 1 53.45 0l255.94 226a16 16 0 0 1 1.22 22.59l-21.4 23.82a16 16 0 0 1-22.6 1.2z" class="fa-primary"/></svg>