<svg xmlns="http://www.w3.org/2000/svg" viewBox="0 0 512 512"><!-- Font Awesome Pro 5.15.4 by @fontawesome - https://fontawesome.com License - https://fontawesome.com/license (Commercial License) --><defs><style>.fa-secondary{opacity:.4}</style></defs><path d="M509.8 332.43l-69.9-164.3a123.55 123.55 0 0 0-93-79.2c18-10.6 46.3-35.9 34.2-82.3A9.29 9.29 0 0 0 369.54.39l-.44.14-202.2 75.7C35.9 123.33 0 238.83 0 398.73v81.2a32 32 0 0 0 32 32h236.2a32 32 0 0 0 28.6-46.3l-40.8-81.7v-.7a127.76 127.76 0 0 1-104.3-69.6 7.93 7.93 0 0 1 1.6-9.3l12.1-12.1a8 8 0 0 1 11.31.09 8.14 8.14 0 0 1 1.59 2.31A95.46 95.46 0 0 0 265.7 352c17.2 0 33-5.1 46.8-13.2l46 63.9a31.87 31.87 0 0 0 26 13.3h50.3a31.9 31.9 0 0 0 22.6-9.4l45.3-39.8a32.45 32.45 0 0 0 7.1-34.37zM328 223.93a23.94 23.94 0 1 1 .12 0z" class="fa-secondary"/><path d="M178.3 294.63a8 8 0 0 0-12.9-2.4l-12.1 12.1a7.93 7.93 0 0 0-1.6 9.3 127.76 127.76 0 0 0 104.3 69.6v.77l10.66-32h-1a95.46 95.46 0 0 1-87.36-57.37zm149.82-118.58a23.94 23.94 0 1 0-.12 47.88h.12a23.94 23.94 0 0 0 0-47.88z" class="fa-primary"/></svg>