<svg xmlns="http://www.w3.org/2000/svg" viewBox="0 0 576 512"><!-- Font Awesome Pro 5.15.4 by @fontawesome - https://fontawesome.com License - https://fontawesome.com/license (Commercial License) --><defs><style>.fa-secondary{opacity:.4}</style></defs><path d="M575.94 76.6a31.75 31.75 0 0 0-8.59-21.8c-3.78-4-8.58-9.12-13.69-14.5 11.06-6.84 19.5-17.49 22.18-30.66a8.08 8.08 0 0 0-6.39-9.49 8 8 0 0 0-1.54-.15h-120a128 128 0 0 0-128 128H160a96 96 0 0 0-65.56 166.12l-25.62 68.36a64 64 0 0 0-2.16 38l24.85 99.41A16 16 0 0 0 107 512h66a16 16 0 0 0 15.52-19.88l-26.33-105.26L186 323.27l134 22.31V496a16 16 0 0 0 16 16h64a16 16 0 0 0 16-16V318.22A111.49 111.49 0 0 0 448 240c0-.22-.07-.42-.08-.64V224l.08-32a1.15 1.15 0 0 1-.08.41v-55.52h.08l15.93 7.11 18.9 37.7a32 32 0 0 0 40.49 15.37l32.55-13A32 32 0 0 0 576 154.31zm-64 19.4a16 16 0 1 1 16-16 16 16 0 0 1-16.01 16z" class="fa-secondary"/><path d="M0 248v56a16 16 0 0 0 16 16h16a16 16 0 0 0 16-16v-56a39.93 39.93 0 0 1 16.36-32.26A95.65 95.65 0 0 1 88.45 160H88a88 88 0 0 0-88 88zM511.93 64a16 16 0 1 0 16 16 16 16 0 0 0-16-16z" class="fa-primary"/></svg>