<svg xmlns="http://www.w3.org/2000/svg" viewBox="0 0 640 512"><!-- Font Awesome Pro 5.15.4 by @fontawesome - https://fontawesome.com License - https://fontawesome.com/license (Commercial License) --><defs><style>.fa-secondary{opacity:.4}</style></defs><path d="M608 96V32a32 32 0 0 0-32-32H416a32 32 0 0 0-32 32v64a32 32 0 0 0-32 32v352a32 32 0 0 0 32 32h224a32 32 0 0 0 32-32V128a32 32 0 0 0-32-32zM480 404a12 12 0 0 1-12 12h-40a12 12 0 0 1-12-12v-40a12 12 0 0 1 12-12h40a12 12 0 0 1 12 12zm0-128a12 12 0 0 1-12 12h-40a12 12 0 0 1-12-12v-40a12 12 0 0 1 12-12h40a12 12 0 0 1 12 12zm2.67-116a8 8 0 0 1-8-8v-34.67H440a8 8 0 0 1-8-8V82.67a8 8 0 0 1 8-8h34.67V40a8 8 0 0 1 8-8h26.66a8 8 0 0 1 8 8v34.67H552a8 8 0 0 1 8 8v26.66a8 8 0 0 1-8 8h-34.67V152a8 8 0 0 1-8 8zM576 404a12 12 0 0 1-12 12h-40a12 12 0 0 1-12-12v-40a12 12 0 0 1 12-12h40a12 12 0 0 1 12 12zm0-128a12 12 0 0 1-12 12h-40a12 12 0 0 1-12-12v-40a12 12 0 0 1 12-12h40a12 12 0 0 1 12 12zM200 74.67h-34.67V40a8 8 0 0 0-8-8h-26.66a8 8 0 0 0-8 8v34.67H88a8 8 0 0 0-8 8v26.66a8 8 0 0 0 8 8h34.67V152a8 8 0 0 0 8 8h26.66a8 8 0 0 0 8-8v-34.67H200a8 8 0 0 0 8-8V82.67a8 8 0 0 0-8-8z" class="fa-secondary"/><path d="M256 96V32a32 32 0 0 0-32-32H64a32 32 0 0 0-32 32v64a32 32 0 0 0-32 32v352a32 32 0 0 0 32 32h224a32 32 0 0 0 32-32V128a32 32 0 0 0-32-32zM128 404a12 12 0 0 1-12 12H76a12 12 0 0 1-12-12v-40a12 12 0 0 1 12-12h40a12 12 0 0 1 12 12zm0-128a12 12 0 0 1-12 12H76a12 12 0 0 1-12-12v-40a12 12 0 0 1 12-12h40a12 12 0 0 1 12 12zm2.67-116a8 8 0 0 1-8-8v-34.67H88a8 8 0 0 1-8-8V82.67a8 8 0 0 1 8-8h34.67V40a8 8 0 0 1 8-8h26.66a8 8 0 0 1 8 8v34.67H200a8 8 0 0 1 8 8v26.66a8 8 0 0 1-8 8h-34.67V152a8 8 0 0 1-8 8zM224 404a12 12 0 0 1-12 12h-40a12 12 0 0 1-12-12v-40a12 12 0 0 1 12-12h40a12 12 0 0 1 12 12zm0-128a12 12 0 0 1-12 12h-40a12 12 0 0 1-12-12v-40a12 12 0 0 1 12-12h40a12 12 0 0 1 12 12zM552 74.67h-34.67V40a8 8 0 0 0-8-8h-26.66a8 8 0 0 0-8 8v34.67H440a8 8 0 0 0-8 8v26.66a8 8 0 0 0 8 8h34.67V152a8 8 0 0 0 8 8h26.66a8 8 0 0 0 8-8v-34.67H552a8 8 0 0 0 8-8V82.67a8 8 0 0 0-8-8z" class="fa-primary"/></svg>