<svg xmlns="http://www.w3.org/2000/svg" viewBox="0 0 512 512"><!-- Font Awesome Pro 5.15.4 by @fontawesome - https://fontawesome.com License - https://fontawesome.com/license (Commercial License) --><defs><style>.fa-secondary{opacity:.4}</style></defs><path d="M256 0C114.6 0 0 114.6 0 256s114.6 256 256 256 256-114.6 256-256S397.4 0 256 0zm112 376a8 8 0 0 1-8 8h-48a8 8 0 0 1-8-8v-88h-96v88a8 8 0 0 1-8 8h-48a8 8 0 0 1-8-8V136a8 8 0 0 1 8-8h48a8 8 0 0 1 8 8v88h96v-88a8 8 0 0 1 8-8h48a8 8 0 0 1 8 8z" class="fa-secondary"/><path d="M368 376a8 8 0 0 1-8 8h-48a8 8 0 0 1-8-8v-88h-96v88a8 8 0 0 1-8 8h-48a8 8 0 0 1-8-8V136a8 8 0 0 1 8-8h48a8 8 0 0 1 8 8v88h96v-88a8 8 0 0 1 8-8h48a8 8 0 0 1 8 8z" class="fa-primary"/></svg>