<svg xmlns="http://www.w3.org/2000/svg" viewBox="0 0 576 512"><!-- Font Awesome Pro 5.15.4 by @fontawesome - https://fontawesome.com License - https://fontawesome.com/license (Commercial License) --><defs><style>.fa-secondary{opacity:.4}</style></defs><path d="M544 96H416V32a32 32 0 0 0-32-32H192a32 32 0 0 0-32 32v64H32a32 32 0 0 0-32 32v368a16 16 0 0 0 16 16h544a16 16 0 0 0 16-16V128a32 32 0 0 0-32-32zM160 436a12 12 0 0 1-12 12h-40a12 12 0 0 1-12-12v-40a12 12 0 0 1 12-12h40a12 12 0 0 1 12 12zm0-128a12 12 0 0 1-12 12h-40a12 12 0 0 1-12-12v-40a12 12 0 0 1 12-12h40a12 12 0 0 1 12 12zm160 128a12 12 0 0 1-12 12h-40a12 12 0 0 1-12-12v-40a12 12 0 0 1 12-12h40a12 12 0 0 1 12 12zm0-128a12 12 0 0 1-12 12h-40a12 12 0 0 1-12-12v-40a12 12 0 0 1 12-12h40a12 12 0 0 1 12 12zm32-182.67a8 8 0 0 1-8 8h-34.67V168a8 8 0 0 1-8 8h-26.66a8 8 0 0 1-8-8v-34.67H232a8 8 0 0 1-8-8V98.67a8 8 0 0 1 8-8h34.67V56a8 8 0 0 1 8-8h26.66a8 8 0 0 1 8 8v34.67H344a8 8 0 0 1 8 8zM480 436a12 12 0 0 1-12 12h-40a12 12 0 0 1-12-12v-40a12 12 0 0 1 12-12h40a12 12 0 0 1 12 12zm0-128a12 12 0 0 1-12 12h-40a12 12 0 0 1-12-12v-40a12 12 0 0 1 12-12h40a12 12 0 0 1 12 12z" class="fa-secondary"/><path d="M344 90.67h-34.67V56a8 8 0 0 0-8-8h-26.66a8 8 0 0 0-8 8v34.67H232a8 8 0 0 0-8 8v26.66a8 8 0 0 0 8 8h34.67V168a8 8 0 0 0 8 8h26.66a8 8 0 0 0 8-8v-34.67H344a8 8 0 0 0 8-8V98.67a8 8 0 0 0-8-8zM148 384h-40a12 12 0 0 0-12 12v40a12 12 0 0 0 12 12h40a12 12 0 0 0 12-12v-40a12 12 0 0 0-12-12zm0-128h-40a12 12 0 0 0-12 12v40a12 12 0 0 0 12 12h40a12 12 0 0 0 12-12v-40a12 12 0 0 0-12-12zm160 128h-40a12 12 0 0 0-12 12v40a12 12 0 0 0 12 12h40a12 12 0 0 0 12-12v-40a12 12 0 0 0-12-12zm0-128h-40a12 12 0 0 0-12 12v40a12 12 0 0 0 12 12h40a12 12 0 0 0 12-12v-40a12 12 0 0 0-12-12zm160 128h-40a12 12 0 0 0-12 12v40a12 12 0 0 0 12 12h40a12 12 0 0 0 12-12v-40a12 12 0 0 0-12-12zm0-128h-40a12 12 0 0 0-12 12v40a12 12 0 0 0 12 12h40a12 12 0 0 0 12-12v-40a12 12 0 0 0-12-12z" class="fa-primary"/></svg>