<svg xmlns="http://www.w3.org/2000/svg" viewBox="0 0 512 512"><!-- Font Awesome Pro 5.15.4 by @fontawesome - https://fontawesome.com License - https://fontawesome.com/license (Commercial License) --><defs><style>.fa-secondary{opacity:.4}</style></defs><path d="M304 76.49c-17.37-14.17-28.82-36.75-32-62.15A16.06 16.06 0 0 0 256.23 0h-16.12c-9.51 0-17.09 8.57-16 18.35 4.34 39.11 22.4 74.53 50.13 97.16 17.36 14.17 28.82 36.75 32 62.14A16.07 16.07 0 0 0 322 192h16.12c9.51 0 17.08-8.57 16-18.35-4.38-39.11-22.44-74.53-50.12-97.16zM64 128A64 64 0 1 0 0 64a64 64 0 0 0 64 64zm398.08 45.65c-4.34-39.11-22.4-74.53-50.13-97.16-17.37-14.17-28.82-36.75-32-62.15A16.06 16.06 0 0 0 364.23 0h-16.12c-9.51 0-17.09 8.57-16 18.35 4.34 39.11 22.4 74.53 50.13 97.16 17.36 14.17 28.82 36.75 32 62.14A16.07 16.07 0 0 0 430 192h16.12c9.47 0 17.04-8.57 15.96-18.35zM106.67 160H64a64 64 0 0 0-64 64v32h256l-110.93-83.2a64 64 0 0 0-38.4-12.8z" class="fa-secondary"/><path d="M480 256H0v192a64 64 0 0 0 64 64h384a64 64 0 0 0 64-64V288a32 32 0 0 0-32-32zM128 440a8 8 0 0 1-8 8h-16a8 8 0 0 1-8-8V328a8 8 0 0 1 8-8h16a8 8 0 0 1 8 8zm96 0a8 8 0 0 1-8 8h-16a8 8 0 0 1-8-8V328a8 8 0 0 1 8-8h16a8 8 0 0 1 8 8zm96 0a8 8 0 0 1-8 8h-16a8 8 0 0 1-8-8V328a8 8 0 0 1 8-8h16a8 8 0 0 1 8 8zm96 0a8 8 0 0 1-8 8h-16a8 8 0 0 1-8-8V328a8 8 0 0 1 8-8h16a8 8 0 0 1 8 8z" class="fa-primary"/></svg>