<svg xmlns="http://www.w3.org/2000/svg" viewBox="0 0 512 512"><!-- Font Awesome Pro 5.15.4 by @fontawesome - https://fontawesome.com License - https://fontawesome.com/license (Commercial License) --><defs><style>.fa-secondary{opacity:.4}</style></defs><path d="M488.62 23.38a79.86 79.86 0 0 0-112.91 0L24.38 374.72a79.85 79.85 0 1 0 110.94 114.87c.67-.65 1.32-1.3 2-2l351.3-351.3a79.86 79.86 0 0 0 0-112.91zm-50 95.25c-19.6 19.59-37.52 22.67-51.93 25.14C373.74 146 364.38 147.6 352 160s-14 21.76-16.23 34.71c-2.48 14.4-5.55 32.33-25.15 51.92s-37.52 22.67-51.92 25.15c-13 2.22-22.3 3.82-34.7 16.22s-14 21.75-16.23 34.7c-2.47 14.4-5.54 32.33-25.14 51.92s-37.53 22.68-51.93 25.15C117.74 402 108.38 403.6 96 416a16 16 0 1 1-22.63-22.63c19.6-19.59 37.52-22.67 51.92-25.14 13-2.22 22.3-3.82 34.71-16.23s14-21.75 16.22-34.7c2.48-14.4 5.55-32.33 25.15-51.92s37.52-22.67 51.92-25.14c13-2.22 22.3-3.83 34.7-16.23s14-21.76 16.24-34.71c2.47-14.4 5.54-32.33 25.14-51.92s37.52-22.68 51.92-25.15c13-2.23 22.3-3.82 34.71-16.23a16 16 0 0 1 22.63 22.63z" class="fa-secondary"/><path d="M310.64 19.89c-25-25-63.85-26.66-86.79-3.72L16.17 223.85c-22.94 22.94-21.27 61.79 3.72 86.78l11.55 11.55L322.18 31.44zm181.47 181.47l-11.55-11.54-290.74 290.74 11.54 11.55c25 25 63.85 26.66 86.79 3.72l207.68-207.68c22.94-22.94 21.27-61.79-3.72-86.79zM224 288c12.4-12.4 21.75-14 34.7-16.22 14.4-2.48 32.32-5.56 51.92-25.15s22.67-37.52 25.15-51.92c2.23-13 3.83-22.31 16.23-34.71s21.76-14 34.7-16.23c14.41-2.47 32.33-5.55 51.93-25.14A16 16 0 0 0 416 96c-12.41 12.41-21.76 14-34.71 16.23-14.4 2.47-32.32 5.56-51.92 25.15s-22.67 37.52-25.14 51.92C302 202.25 300.37 211.61 288 224s-21.7 14-34.7 16.23c-14.4 2.47-32.32 5.55-51.92 25.14s-22.7 37.53-25.18 51.93c-2.2 12.95-3.81 22.29-16.2 34.7s-21.71 14-34.71 16.23c-14.4 2.47-32.32 5.55-51.92 25.14A16 16 0 1 0 96 416c12.4-12.4 21.76-14 34.7-16.23 14.4-2.47 32.33-5.56 51.93-25.15s22.67-37.52 25.14-51.92c2.23-12.95 3.81-22.3 16.23-34.7z" class="fa-primary"/></svg>