<svg xmlns="http://www.w3.org/2000/svg" viewBox="0 0 576 512"><!-- Font Awesome Pro 5.15.4 by @fontawesome - https://fontawesome.com License - https://fontawesome.com/license (Commercial License) --><defs><style>.fa-secondary{opacity:.4}</style></defs><path d="M288 288a128 128 0 0 0-128 128h256a128 128 0 0 0-128-128zm-96-44.8v-38.4c0-6.4-6.4-12.8-12.8-12.8h-38.4c-6.4 0-12.8 6.4-12.8 12.8v38.4c0 6.4 6.4 12.8 12.8 12.8h38.4c6.4 0 12.8-6.4 12.8-12.8zM140.8 160h38.4c6.4 0 12.8-6.4 12.8-12.8v-38.4c0-6.4-6.4-12.8-12.8-12.8h-38.4c-6.4 0-12.8 6.4-12.8 12.8v38.4c0 6.4 6.4 12.8 12.8 12.8zm128 96h38.4c6.4 0 12.8-6.4 12.8-12.8v-38.4c0-6.4-6.4-12.8-12.8-12.8h-38.4c-6.4 0-12.8 6.4-12.8 12.8v38.4c0 6.4 6.4 12.8 12.8 12.8zm0-96h38.4c6.4 0 12.8-6.4 12.8-12.8v-38.4c0-6.4-6.4-12.8-12.8-12.8h-38.4c-6.4 0-12.8 6.4-12.8 12.8v38.4c0 6.4 6.4 12.8 12.8 12.8zm166.4 32h-38.4c-6.4 0-12.8 6.4-12.8 12.8v38.4c0 6.4 6.4 12.8 12.8 12.8h38.4c6.4 0 12.8-6.4 12.8-12.8v-38.4c0-6.4-6.4-12.8-12.8-12.8zm0-96h-38.4c-6.4 0-12.8 6.4-12.8 12.8v38.4c0 6.4 6.4 12.8 12.8 12.8h38.4c6.4 0 12.8-6.4 12.8-12.8v-38.4c0-6.4-6.4-12.8-12.8-12.8z" class="fa-secondary"/><path d="M560 64a16 16 0 0 0 16-16V16a16 16 0 0 0-16-16H16A16 16 0 0 0 0 16v32a16 16 0 0 0 16 16h16v384H16a16 16 0 0 0-16 16v32a16 16 0 0 0 16 16h240v-96h-96a128 128 0 0 1 256 0h-96v96h240a16 16 0 0 0 16-16v-32a16 16 0 0 0-16-16h-16V64zM192 243.2c0 6.4-6.4 12.8-12.8 12.8h-38.4c-6.4 0-12.8-6.4-12.8-12.8v-38.4c0-6.4 6.4-12.8 12.8-12.8h38.4c6.4 0 12.8 6.4 12.8 12.8zm0-96c0 6.4-6.4 12.8-12.8 12.8h-38.4c-6.4 0-12.8-6.4-12.8-12.8v-38.4c0-6.4 6.4-12.8 12.8-12.8h38.4c6.4 0 12.8 6.4 12.8 12.8zm128 96c0 6.4-6.4 12.8-12.8 12.8h-38.4c-6.4 0-12.8-6.4-12.8-12.8v-38.4c0-6.4 6.4-12.8 12.8-12.8h38.4c6.4 0 12.8 6.4 12.8 12.8zm0-96c0 6.4-6.4 12.8-12.8 12.8h-38.4c-6.4 0-12.8-6.4-12.8-12.8v-38.4c0-6.4 6.4-12.8 12.8-12.8h38.4c6.4 0 12.8 6.4 12.8 12.8zm128 96c0 6.4-6.4 12.8-12.8 12.8h-38.4c-6.4 0-12.8-6.4-12.8-12.8v-38.4c0-6.4 6.4-12.8 12.8-12.8h38.4c6.4 0 12.8 6.4 12.8 12.8zm0-96c0 6.4-6.4 12.8-12.8 12.8h-38.4c-6.4 0-12.8-6.4-12.8-12.8v-38.4c0-6.4 6.4-12.8 12.8-12.8h38.4c6.4 0 12.8 6.4 12.8 12.8z" class="fa-primary"/></svg>