<svg xmlns="http://www.w3.org/2000/svg" viewBox="0 0 640 512"><!-- Font Awesome Pro 5.15.4 by @fontawesome - https://fontawesome.com License - https://fontawesome.com/license (Commercial License) --><defs><style>.fa-secondary{opacity:.4}</style></defs><path d="M635.23,196.42,576,144V48a16,16,0,0,0-16-16H528a16,16,0,0,0-16,16V87.29L423.52,8.92a35.33,35.33,0,0,0-46.93,0L164.8,196.42a14.18,14.18,0,0,0-1.23,20l18.79,21.28a14.21,14.21,0,0,0,20,1.25L224,219.87v64A320.42,320.42,0,0,1,305.24,416H544a32,32,0,0,0,32-32V219.84L597.62,239a14.28,14.28,0,0,0,20-1.25l18.79-21.28A14.25,14.25,0,0,0,635.23,196.42ZM448,272a16.05,16.05,0,0,1-16,16H368a16,16,0,0,1-16-16V208a16,16,0,0,1,16-16h64a16.05,16.05,0,0,1,16,16Z" class="fa-secondary"/><path d="M0,416v96H96A96,96,0,0,0,0,416Zm0-96v63.93A128.12,128.12,0,0,1,128.07,512H192C192,406,106,320,0,320Zm0-96v63.93c123.71,0,224.07,100.36,224.07,224.07H288C288,352.94,159.06,224,0,224Z" class="fa-primary"/></svg>