<svg xmlns="http://www.w3.org/2000/svg" viewBox="0 0 576 512"><!-- Font Awesome Pro 5.15.4 by @fontawesome - https://fontawesome.com License - https://fontawesome.com/license (Commercial License) --><defs><style>.fa-secondary{opacity:.4}</style></defs><path d="M512 311.08V496a16 16 0 0 1-16 16H319.82l-39.92-55.26 104.11-64L236 256l60.11 119.2L192 439.18 229.24 512H80a16 16 0 0 1-16-16V311c1.78-1.21 3.85-1.89 5.47-3.35L288 115l218.74 192.9c1.55 1.36 3.57 2.02 5.26 3.18z" class="fa-secondary"/><path d="M236 256l60.11 119.2L192 439.18 229.24 512h90.58l-39.92-55.26 104.11-64zm334.7-19.74L512 184.43V48a16 16 0 0 0-16-16h-64a16 16 0 0 0-16 16v51.67L314.76 10.29a39.85 39.85 0 0 0-53.45 0l-256 226a16 16 0 0 0-1.21 22.59l21.41 23.79a16 16 0 0 0 22.59 1.21L277.43 81.61a16 16 0 0 1 21.17 0l229.32 202.27a16 16 0 0 0 22.6-1.2l21.4-23.82a16 16 0 0 0-1.22-22.6z" class="fa-primary"/></svg>