<svg xmlns="http://www.w3.org/2000/svg" viewBox="0 0 640 512"><!-- Font Awesome Pro 5.15.4 by @fontawesome - https://fontawesome.com License - https://fontawesome.com/license (Commercial License) --><defs><style>.fa-secondary{opacity:.4}</style></defs><path d="M395.29,284.1a63.54,63.54,0,0,1-58,.39c-31.26-15.74-44.05-54.16-28.52-85.64l6.74-13.65a127.18,127.18,0,0,1,66.39-61.67l7.52-3.07L263.52,8.92a35.33,35.33,0,0,0-46.93,0L4.8,196.42a14.18,14.18,0,0,0-1.23,20l18.79,21.28a14.21,14.21,0,0,0,20,1.25L64,219.87V384a32,32,0,0,0,32,32H325.44l31.43-31.5a30.14,30.14,0,0,0,6.95-10.64l20.71-51.5,11.76-29.25C395.81,290.13,395.48,287.12,395.29,284.1ZM224,272a16,16,0,0,1-16,16H144a16,16,0,0,1-16-16V208a16,16,0,0,1,16-16h64a16,16,0,0,1,16,16Z" class="fa-secondary"/><path d="M393.55,385.74a61.78,61.78,0,0,1-14.18,21.49l-50,50.11a32,32,0,0,0,45.18,45.28L434,443.23a64.64,64.64,0,0,0,14.2-21.5l13.5-33.79c-55.29-60.29-38.7-41.79-47.4-53.69ZM528,96a48,48,0,1,0-48-48A48,48,0,0,0,528,96Zm94.42,149.06-23.29-11.8-9.7-29.38c-14.7-44.61-55.7-75.81-102.19-75.9-36-.09-55.88,10.09-93.28,25.2a95.42,95.42,0,0,0-49.7,46.2L337.56,213a32.12,32.12,0,0,0,14.2,42.9,31.55,31.55,0,0,0,42.49-14.31L401,228a31.81,31.81,0,0,1,16.49-15.4l26.8-10.79-15.2,60.69A64.23,64.23,0,0,0,444,321.25l59.9,65.39a64.49,64.49,0,0,1,14.88,27.7L537,487.63a32,32,0,0,0,62.1-15.5l-22.2-89A63.83,63.83,0,0,0,562,355.45l-45.5-49.7,17.2-68.69,5.5,16.49a63.72,63.72,0,0,0,31.7,37l23.3,11.81a31.56,31.56,0,0,0,42.49-14.31A32.37,32.37,0,0,0,622.42,245.06Z" class="fa-primary"/></svg>