<svg xmlns="http://www.w3.org/2000/svg" viewBox="0 0 384 512"><!-- Font Awesome Pro 5.15.4 by @fontawesome - https://fontawesome.com License - https://fontawesome.com/license (Commercial License) --><defs><style>.fa-secondary{opacity:.4}</style></defs><path d="M0 224v-32a16 16 0 0 1 16-16h205.38L156 240H16a16 16 0 0 1-16-16zm77.91 92.38L123.27 272H16a16 16 0 0 0-16 16v32a16 16 0 0 0 16 16h46.56a94.82 94.82 0 0 1 15.35-19.62zM368 272H228l-65.4 64H368a16 16 0 0 0 16-16v-32a16 16 0 0 0-16-16zm0-96h-46.56a94.78 94.78 0 0 1-15.34 19.61L260.74 240H368a16 16 0 0 0 16-16v-32a16 16 0 0 0-16-16z" class="fa-secondary"/><path d="M323.32 84.26c20.07 36.58 12.6 82.17-17.22 111.35L134.81 363.22A21.21 21.21 0 0 0 149.2 400h83.63a24 24 0 0 0 15.36-5.56l11.75-9.8a24 24 0 0 1 33.81 3.07l20.49 24.59a24 24 0 0 1-3.07 33.8l-11.77 9.81A104 104 0 0 1 232.86 480H154c-37.14 0-73.38-17.85-92-49.95-.45-.77-.88-1.54-1.31-2.31-20.07-36.58-12.6-82.18 17.23-111.35l171.28-167.6A21.21 21.21 0 0 0 234.8 112h-83.62a24 24 0 0 0-15.39 5.57l-11.73 9.78a24 24 0 0 1-33.81-3.07L69.76 99.7a24 24 0 0 1 3.07-33.8l11.77-9.81A104 104 0 0 1 151.14 32H230c37.14 0 73.38 17.84 92 50 .46.72.89 1.49 1.32 2.26z" class="fa-primary"/></svg>