<svg xmlns="http://www.w3.org/2000/svg" viewBox="0 0 512 512"><!-- Font Awesome Pro 5.15.4 by @fontawesome - https://fontawesome.com License - https://fontawesome.com/license (Commercial License) --><defs><style>.fa-secondary{opacity:.4}</style></defs><path d="M208 96H16a16 16 0 0 0-16 16v32a16 16 0 0 0 16 16h64v48a16 16 0 0 0 16 16h32a16 16 0 0 0 16-16v-48h64a16 16 0 0 0 16-16v-32a16 16 0 0 0-16-16zm0-96H16A16 16 0 0 0 0 16v32a16 16 0 0 0 16 16h192a16 16 0 0 0 16-16V16a16 16 0 0 0-16-16zm120 368a40 40 0 1 0-40-40 40 40 0 0 0 40 40zm179.31-52.69l-22.62-22.62a16 16 0 0 0-22.63 0L292.69 462.06a16 16 0 0 0 0 22.63l22.62 22.62a16 16 0 0 0 22.63 0l169.37-169.37a16 16 0 0 0 0-22.63zM472 432a40 40 0 1 0 40 40 40 40 0 0 0-40-40z" class="fa-secondary"/><path d="M478.08.33L329.51 23.18C314.87 25.44 304 38.94 304 54.86V161.7a83.25 83.25 0 0 0-16-1.7c-35.35 0-64 21.49-64 48s28.65 48 64 48c35.2 0 63.73-21.33 64-47.69V99.73L464 82.5v47.2a83.25 83.25 0 0 0-16-1.7c-35.35 0-64 21.49-64 48s28.65 48 64 48c35.2 0 63.73-21.33 64-47.69V32c0-19.47-16-34.43-33.92-31.67zM219.59 383.94L197 361.31a16 16 0 0 0-22.63 0l-27.92 27.89-22.7-22.7a64 64 0 1 0-90.7-3.3l-6.92 6.92c-29.59 29.59-35.69 77.63-9.81 110.52A81.31 81.31 0 0 0 138 488.19l8.48-8.49 27.61 27.61a16 16 0 0 0 22.63 0l22.62-22.62a16 16 0 0 0 0-22.63l-27.64-27.61 27.89-27.89a16 16 0 0 0 0-22.62zM80 304a16 16 0 1 1-16 16 16 16 0 0 1 16-16zm12.72 138.94a17.29 17.29 0 1 1-24.45-24.46l8.48-8.48 24.45 24.45z" class="fa-primary"/></svg>