<svg xmlns="http://www.w3.org/2000/svg" viewBox="0 0 576 512"><!-- Font Awesome Pro 5.15.4 by @fontawesome - https://fontawesome.com License - https://fontawesome.com/license (Commercial License) --><defs><style>.fa-secondary{opacity:.4}</style></defs><path d="M528 64H352v64h16a16 16 0 0 1 0 32H208a16 16 0 0 1 0-32h16V64H48a48 48 0 0 0-48 48v352a48 48 0 0 0 48 48h480a48 48 0 0 0 48-48V112a48 48 0 0 0-48-48zM288 224a64 64 0 1 1-64 64 64 64 0 0 1 64-64zm93.3 224H194.7c-10.4 0-18.8-10-15.6-19.8A64 64 0 0 1 240 384h8.2a103 103 0 0 0 79.6 0h8.2a64.09 64.09 0 0 1 60.9 44.2c3.2 9.8-5.2 19.8-15.6 19.8z" class="fa-secondary"/><path d="M352 32a32 32 0 0 0-32-32h-64a32 32 0 0 0-32 32v96h128zm-64 320a64 64 0 1 0-64-64 64 64 0 0 0 64 64zm108.9 76.2A64.09 64.09 0 0 0 336 384h-8.2a103 103 0 0 1-79.6 0H240a64 64 0 0 0-60.9 44.2c-3.2 9.8 5.2 19.8 15.6 19.8h186.6c10.4 0 18.8-10 15.6-19.8z" class="fa-primary"/></svg>