<svg xmlns="http://www.w3.org/2000/svg" viewBox="0 0 576 512"><!-- Font Awesome Pro 5.15.4 by @fontawesome - https://fontawesome.com License - https://fontawesome.com/license (Commercial License) --><defs><style>.fa-secondary{opacity:.4}</style></defs><path d="M0 128v304a48 48 0 0 0 48 48h480a48 48 0 0 0 48-48V128zm176 64a64 64 0 1 1-64 64 64 64 0 0 1 64-64zm93.3 224H82.7c-10.4 0-18.8-10-15.6-19.8A64.09 64.09 0 0 1 128 352h8.2a103 103 0 0 0 79.6 0h8.2a64.09 64.09 0 0 1 60.9 44.2c3.2 9.9-5.2 19.8-15.6 19.8zM512 344a8 8 0 0 1-8 8H360a8 8 0 0 1-8-8v-16a8 8 0 0 1 8-8h144a8 8 0 0 1 8 8zm0-64a8 8 0 0 1-8 8H360a8 8 0 0 1-8-8v-16a8 8 0 0 1 8-8h144a8 8 0 0 1 8 8zm0-64a8 8 0 0 1-8 8H360a8 8 0 0 1-8-8v-16a8 8 0 0 1 8-8h144a8 8 0 0 1 8 8z" class="fa-secondary"/><path d="M224 352h-8.2a103 103 0 0 1-79.6 0H128a64.09 64.09 0 0 0-60.9 44.2C63.9 406 72.3 416 82.7 416h186.6c10.4 0 18.8-9.9 15.6-19.8A64.09 64.09 0 0 0 224 352zM528 32H48A48 48 0 0 0 0 80v48h576V80a48 48 0 0 0-48-48zM176 320a64 64 0 1 0-64-64 64 64 0 0 0 64 64z" class="fa-primary"/></svg>