<svg xmlns="http://www.w3.org/2000/svg" viewBox="0 0 576 512"><!-- Font Awesome Pro 5.15.4 by @fontawesome - https://fontawesome.com License - https://fontawesome.com/license (Commercial License) --><defs><style>.fa-secondary{opacity:.4}</style></defs><path d="M528 512H48a48 48 0 0 1-48-48v-95.2a47.29 47.29 0 0 1 10.7-30l94.4-118a12 12 0 0 1 18.1-.7l27.6 29.5a12 12 0 0 1 .6 15.7L107.6 320H200l32 64h112l32-64h92.3L424 264.6a12.16 12.16 0 0 1 .8-15.9l28.1-28.9a12.12 12.12 0 0 1 18 .9l94.6 118.2a47.77 47.77 0 0 1 10.5 29.9V464a48 48 0 0 1-48 48z" class="fa-secondary"/><path d="M171.5 160h61.9V17.1A17.16 17.16 0 0 1 250.5 0h68.6a17.09 17.09 0 0 1 17.1 17.1V160h68.3c17.8 0 26.7 21.5 14.1 34.1l-119.4 120a20 20 0 0 1-28.6-.3L157 193.8c-12.1-12.7-3.1-33.8 14.5-33.8z" class="fa-primary"/></svg>