<svg xmlns="http://www.w3.org/2000/svg" viewBox="0 0 512 512"><!-- Font Awesome Pro 5.15.4 by @fontawesome - https://fontawesome.com License - https://fontawesome.com/license (Commercial License) --><defs><style>.fa-secondary{opacity:.4}</style></defs><path d="M512 184v272a24 24 0 0 1-24 24H136a24 24 0 0 0 24-24V252.31l139.12-88.53A24 24 0 0 1 336 184v68.28l139.12-88.53A24 24 0 0 1 512 184z" class="fa-secondary"/><path d="M136 480H24a24 24 0 0 1-24-24V56a24 24 0 0 1 24-24h112a24 24 0 0 1 24 24v400a24 24 0 0 1-24 24z" class="fa-primary"/></svg>