<svg xmlns="http://www.w3.org/2000/svg" viewBox="0 0 512 512"><!-- Font Awesome Pro 5.15.4 by @fontawesome - https://fontawesome.com License - https://fontawesome.com/license (Commercial License) --><defs><style>.fa-secondary{opacity:.4}</style></defs><path d="M148 320h-40a12 12 0 0 0-12 12v40a12 12 0 0 0 12 12h40a12 12 0 0 0 12-12v-40a12 12 0 0 0-12-12zm128 0h-40a12 12 0 0 0-12 12v40a12 12 0 0 0 12 12h40a12 12 0 0 0 12-12v-40a12 12 0 0 0-12-12zm128 0h-40a12 12 0 0 0-12 12v40a12 12 0 0 0 12 12h40a12 12 0 0 0 12-12v-40a12 12 0 0 0-12-12z" class="fa-secondary"/><path d="M475.12 163.78L336 252.31V184a24 24 0 0 0-36.88-20.25L160 252.31V56a24 24 0 0 0-24-24H24A24 24 0 0 0 0 56v400a24 24 0 0 0 24 24h464a24 24 0 0 0 24-24V184a24 24 0 0 0-36.88-20.22zM160 372a12 12 0 0 1-12 12h-40a12 12 0 0 1-12-12v-40a12 12 0 0 1 12-12h40a12 12 0 0 1 12 12zm128 0a12 12 0 0 1-12 12h-40a12 12 0 0 1-12-12v-40a12 12 0 0 1 12-12h40a12 12 0 0 1 12 12zm128 0a12 12 0 0 1-12 12h-40a12 12 0 0 1-12-12v-40a12 12 0 0 1 12-12h40a12 12 0 0 1 12 12z" class="fa-primary"/></svg>