<svg xmlns="http://www.w3.org/2000/svg" viewBox="0 0 512 512"><!-- Font Awesome Pro 5.15.4 by @fontawesome - https://fontawesome.com License - https://fontawesome.com/license (Commercial License) --><defs><style>.fa-secondary{opacity:.4}</style></defs><path d="M256 8C119 8 8 119.08 8 256s111 248 248 248 248-111 248-248S393 8 256 8zm0 110a42 42 0 1 1-42 42 42 42 0 0 1 42-42zm56 254a12 12 0 0 1-12 12h-88a12 12 0 0 1-12-12v-24a12 12 0 0 1 12-12h12v-64h-12a12 12 0 0 1-12-12v-24a12 12 0 0 1 12-12h64a12 12 0 0 1 12 12v100h12a12 12 0 0 1 12 12z" class="fa-secondary"/><path d="M256 202a42 42 0 1 0-42-42 42 42 0 0 0 42 42zm44 134h-12V236a12 12 0 0 0-12-12h-64a12 12 0 0 0-12 12v24a12 12 0 0 0 12 12h12v64h-12a12 12 0 0 0-12 12v24a12 12 0 0 0 12 12h88a12 12 0 0 0 12-12v-24a12 12 0 0 0-12-12z" class="fa-primary"/></svg>