<svg xmlns="http://www.w3.org/2000/svg" viewBox="0 0 640 512"><!-- Font Awesome Pro 5.15.4 by @fontawesome - https://fontawesome.com License - https://fontawesome.com/license (Commercial License) --><defs><style>.fa-secondary{opacity:.4}</style></defs><path d="M624 0h-32a16 16 0 0 0-16 16v144H64V16A16 16 0 0 0 48 0H16A16 16 0 0 0 0 16v496h64v-32h512v32h64V16a16 16 0 0 0-16-16zm-48 416H64V224h512z" class="fa-secondary"/><path d="M208 256h-96a16 16 0 0 0-16 16v96a16 16 0 0 0 16 16h96a16 16 0 0 0 16-16v-96a16 16 0 0 0-16-16zM464 0h-96a16 16 0 0 0-16 16v96a16 16 0 0 0 16 16h96a16 16 0 0 0 16-16V16a16 16 0 0 0-16-16zm-96 256h-96a16 16 0 0 0-16 16v96a16 16 0 0 0 16 16h96a16 16 0 0 0 16-16v-96a16 16 0 0 0-16-16z" class="fa-primary"/></svg>