<svg xmlns="http://www.w3.org/2000/svg" viewBox="0 0 448 512"><!-- Font Awesome Pro 5.15.4 by @fontawesome - https://fontawesome.com License - https://fontawesome.com/license (Commercial License) --><defs><style>.fa-secondary{opacity:.4}</style></defs><path d="M284.91 358.8a144 144 0 0 0-43.71-6.8h-45.07c10-42.85 25-122.77 21-202.33L238.89 128h27.39c11.16 48 28.58 142.41 18.63 230.8z" class="fa-secondary"/><path d="M241.2 352h-98.4A144 144 0 0 0 .36 474.78C-2.53 494.3 12.39 512 32.12 512h319.76c19.73 0 34.65-17.7 31.76-37.22A144 144 0 0 0 241.2 352zm206.62-238.36C439.69 67.43 393 32 336.53 32c-34.88 0-65.66 13.82-86.3 35.08C235.78 28.29 193.72 0 143.47 0 87 0 40.31 35.43 32.18 81.64a12.37 12.37 0 0 0 10.24 14.2 12.24 12.24 0 0 0 2.18.16H80l16-32 16 32h30.17c-34.21 35-39.62 86.88-14.54 122.58 4.36 6.2 13.14 7.31 18.5 1.95L238.89 128H368l16-32 16 32h35.4a12.38 12.38 0 0 0 12.6-12.18 12.24 12.24 0 0 0-.18-2.18z" class="fa-primary"/></svg>