<svg xmlns="http://www.w3.org/2000/svg" viewBox="0 0 576 512"><!-- Font Awesome Pro 5.15.4 by @fontawesome - https://fontawesome.com License - https://fontawesome.com/license (Commercial License) --><defs><style>.fa-secondary{opacity:.4}</style></defs><path d="M495.3 153.12c-27-23.08-65.36-29.75-99.49-20.92 6.09 5.5 12.16 11 17.19 17.8 3.1 4.26 5.46 9.42 8.15 14.17C389.39 140.54 345.54 128 288 128s-101.39 12.54-133.15 36.17c2.69-4.75 5-9.91 8.15-14.17 5-6.79 11.1-12.29 17.19-17.8-34.13-8.83-72.49-2.16-99.49 20.92-107.6 92-107.6 241.73 0 333.75 38.63 33 100.82 33.34 140.12 1.25C238.65 503.51 260.72 512 288 512s49.35-8.49 67.19-23.88c39.3 32.09 101.49 31.78 140.12-1.25 107.59-92.01 107.59-241.73-.01-333.75zM320.85 278L362 211.33c2.33-4.57 8.6-4.42 12 0L415.15 278c1.66 3.25.9 10-6 10h-82.29c-6.86 0-7.7-6.69-6.01-10zm-160 0L202 211.33c2.33-4.57 8.6-4.42 12 0L255.15 278c1.66 3.25.9 10-6 10h-82.29c-6.86 0-7.7-6.69-6.01-10zm309 67.6c-6 17-12.75 28.61-18.7 37-9.38 12.94-21.34 23.8-35.19 33A15.94 15.94 0 0 0 400 400h-16a16 16 0 0 0-16 16v21.48c-23.46 6.88-50.16 10.52-80 10.52s-56.56-3.65-80-10.51V416a16 16 0 0 0-16-16h-16a16 16 0 0 0-15.92 15.62c-13.71-9.08-25.53-19.78-34.75-32.5a146.4 146.4 0 0 1-19-37.46c-4.87-13.89 10.56-26.15 23.24-18.67A308.41 308.41 0 0 0 240 365.83V384a16 16 0 0 0 16 16h16a16 16 0 0 0 16-16v-14.26c58.38 0 112.72-15.74 158.54-42.79 12.68-7.49 28.11 4.76 23.26 18.65z" class="fa-secondary"/><path d="M326.86 288h82.29c6.9 0 7.66-6.75 6-10L374 211.33c-3.4-4.42-9.67-4.57-12 0L320.85 278c-1.69 3.31-.85 10 6.01 10zm-160 0h82.29c6.9 0 7.66-6.75 6-10L214 211.33c-3.4-4.42-9.67-4.57-12 0L160.85 278c-1.69 3.31-.85 10 6.01 10zm279.7 39C400.74 354 346.4 369.74 288 369.74V384a16 16 0 0 1-16 16h-16a16 16 0 0 1-16-16v-18.17A308.41 308.41 0 0 1 129.53 327c-12.68-7.48-28.11 4.78-23.24 18.67a146.4 146.4 0 0 0 19 37.46c9.22 12.72 21 23.42 34.75 32.5A16 16 0 0 1 176 400h16a16 16 0 0 1 16 16v21.49c23.46 6.86 50.17 10.51 80 10.51s56.52-3.64 80-10.52V416a16 16 0 0 1 16-16h16a15.94 15.94 0 0 1 15.91 15.54c13.85-9.18 25.81-20 35.19-33 5.95-8.35 12.74-19.92 18.7-37 4.85-13.83-10.58-26.08-23.24-18.54zM352 106.6V35.81a16 16 0 0 0-8.84-14.31l-39.6-19.8a16 16 0 0 0-22 8.37l-36.06 90.15A214 214 0 0 1 288 96a189.94 189.94 0 0 1 64 10.6z" class="fa-primary"/></svg>