<svg xmlns="http://www.w3.org/2000/svg" viewBox="0 0 448 512"><!-- Font Awesome Pro 5.15.4 by @fontawesome - https://fontawesome.com License - https://fontawesome.com/license (Commercial License) --><defs><style>.fa-secondary{opacity:.4}</style></defs><path d="M144 64h160a16 16 0 0 0 16-16V16a16 16 0 0 0-16-16H144a16 16 0 0 0-16 16v32a16 16 0 0 0 16 16zM32 288v128h384V288z" class="fa-secondary"/><path d="M448 168a71.72 71.72 0 0 0-126.68-46.35L311 108.77a32 32 0 0 1-7-20V64H144v24.78a32 32 0 0 1-7 20l-76.95 96.16a128 128 0 0 0-28 80V288H416v-3.1a127.59 127.59 0 0 0-11.1-51A72 72 0 0 0 448 168zm-70.62 23.72l-24.09-30.1C356.14 151.54 365 144 376 144a23.88 23.88 0 0 1 1.38 47.72zM32 448a64 64 0 0 0 64 64h256a64 64 0 0 0 64-64v-32H32z" class="fa-primary"/></svg>