<svg xmlns="http://www.w3.org/2000/svg" viewBox="0 0 576 512"><!-- Font Awesome Pro 5.15.4 by @fontawesome - https://fontawesome.com License - https://fontawesome.com/license (Commercial License) --><defs><style>.fa-secondary{opacity:.4}</style></defs><path d="M117.89 205.81l-80 21.82a8 8 0 0 0-5.89 7.72v16.58a8 8 0 0 0 10.11 7.72l80-21.82a8 8 0 0 0 5.89-7.72v-16.58a8 8 0 0 0-10.11-7.72zm144-39.28l-96 26.18a8 8 0 0 0-5.89 7.72V217a8 8 0 0 0 10.11 7.72l96-26.18a8 8 0 0 0 5.89-7.72v-16.57a8 8 0 0 0-10.11-7.72zm276.22 61.1l-80-21.82a8 8 0 0 0-10.11 7.72v16.58a8 8 0 0 0 5.89 7.72l80 21.82a8 8 0 0 0 10.11-7.72v-16.58a8 8 0 0 0-5.89-7.72zm-128-34.91l-96-26.18a8 8 0 0 0-10.11 7.72v16.58a8 8 0 0 0 5.89 7.72l96 26.18A8 8 0 0 0 416 217v-16.56a8 8 0 0 0-5.89-7.72z" class="fa-secondary"/><path d="M301.81 114a47.66 47.66 0 0 0-27.59 0L0 196.3v228.38a32 32 0 0 0 25.06 31.24l242.12 53.8a95.94 95.94 0 0 0 41.65 0L551 455.92a32 32 0 0 0 25-31.24V196.29zM128 230.11a8 8 0 0 1-5.89 7.72l-80 21.82A8 8 0 0 1 32 251.93v-16.58a8 8 0 0 1 5.89-7.72l80-21.82a8 8 0 0 1 10.11 7.72zm144-39.28a8 8 0 0 1-5.89 7.72l-96 26.18A8 8 0 0 1 160 217v-16.57a8 8 0 0 1 5.89-7.72l96-26.18a8 8 0 0 1 10.11 7.72zM416 217a8 8 0 0 1-10.11 7.72l-96-26.18a8 8 0 0 1-5.89-7.72v-16.56a8 8 0 0 1 10.11-7.72l96 26.18a8 8 0 0 1 5.89 7.72zm128 34.91a8 8 0 0 1-10.11 7.72l-80-21.82a8 8 0 0 1-5.89-7.72v-16.56a8 8 0 0 1 10.11-7.72l80 21.82a8 8 0 0 1 5.89 7.72zM265 83.37L0 162.88v-49a32 32 0 0 1 21.88-30.37L257.65 4.93a96 96 0 0 1 60.71 0l235.76 78.58A32 32 0 0 1 576 113.87v49l-265-79.5a80 80 0 0 0-46 0z" class="fa-primary"/></svg>