<svg xmlns="http://www.w3.org/2000/svg" viewBox="0 0 640 512"><!-- Font Awesome Pro 5.15.4 by @fontawesome - https://fontawesome.com License - https://fontawesome.com/license (Commercial License) --><defs><style>.fa-secondary{opacity:.4}</style></defs><path d="M416.54 0h-17A8 8 0 0 0 392 5.32l-176.28 496a8 8 0 0 0 7.55 10.68h17a8 8 0 0 0 7.54-5.32l176.28-496A8 8 0 0 0 416.54 0z" class="fa-secondary"/><path d="M304 96h-50.62a16 16 0 0 0-15.16 10.89L160 306.68 81.78 106.89A16 16 0 0 0 66.62 96H16A16 16 0 0 0 .85 117.11l105.27 277.2a32 32 0 0 0 30.3 21.69h47.16a32 32 0 0 0 30.3-21.69l105.27-277.2A16 16 0 0 0 304 96zm335.15 298.89l-105.27-277.2A32 32 0 0 0 503.58 96h-47.16a32 32 0 0 0-30.3 21.69l-105.27 277.2A16 16 0 0 0 336 416h50.61a16 16 0 0 0 15.16-10.89L416.31 368h127.38l14.53 37.11A16 16 0 0 0 573.38 416H624a16 16 0 0 0 15.15-21.11zM447.63 288L480 205.32 512.37 288z" class="fa-primary"/></svg>