<svg xmlns="http://www.w3.org/2000/svg" viewBox="0 0 512 512"><!-- Font Awesome Pro 5.15.4 by @fontawesome - https://fontawesome.com License - https://fontawesome.com/license (Commercial License) --><defs><style>.fa-secondary{opacity:.4}</style></defs><path d="M303.06 348.91l.1.09-24 27a24 24 0 0 1-17.94 8H224v40a24 24 0 0 1-24 24h-40v40a24 24 0 0 1-24 24H24a24 24 0 0 1-24-24v-78a24 24 0 0 1 7-17l161.83-161.83-.11-.35a176.24 176.24 0 0 0 134.34 118.09z" class="fa-secondary"/><path d="M336 0a176 176 0 1 0 176 176A176 176 0 0 0 336 0zm48 176a48 48 0 1 1 48-48 48 48 0 0 1-48 48z" class="fa-primary"/></svg>