<svg xmlns="http://www.w3.org/2000/svg" viewBox="0 0 576 512"><!-- Font Awesome Pro 5.15.4 by @fontawesome - https://fontawesome.com License - https://fontawesome.com/license (Commercial License) --><defs><style>.fa-secondary{opacity:.4}</style></defs><path d="M528 64H48a48 48 0 0 0-48 48v288a48 48 0 0 0 48 48h480a48 48 0 0 0 48-48V112a48 48 0 0 0-48-48zm-176 76a12 12 0 0 1 12-12h40a12 12 0 0 1 12 12v40a12 12 0 0 1-12 12h-40a12 12 0 0 1-12-12zm100 84a12 12 0 0 1 12 12v40a12 12 0 0 1-12 12h-40a12 12 0 0 1-12-12v-40a12 12 0 0 1 12-12zm-84 12v40a12 12 0 0 1-12 12h-40a12 12 0 0 1-12-12v-40a12 12 0 0 1 12-12h40a12 12 0 0 1 12 12zm-112-96a12 12 0 0 1 12-12h40a12 12 0 0 1 12 12v40a12 12 0 0 1-12 12h-40a12 12 0 0 1-12-12zm16 96v40a12 12 0 0 1-12 12h-40a12 12 0 0 1-12-12v-40a12 12 0 0 1 12-12h40a12 12 0 0 1 12 12zm-112-96a12 12 0 0 1 12-12h40a12 12 0 0 1 12 12v40a12 12 0 0 1-12 12h-40a12 12 0 0 1-12-12zm16 96v40a12 12 0 0 1-12 12h-40a12 12 0 0 1-12-12v-40a12 12 0 0 1 12-12h40a12 12 0 0 1 12 12zM64 140a12 12 0 0 1 12-12h40a12 12 0 0 1 12 12v40a12 12 0 0 1-12 12H76a12 12 0 0 1-12-12zm64 232a12 12 0 0 1-12 12H76a12 12 0 0 1-12-12v-40a12 12 0 0 1 12-12h40a12 12 0 0 1 12 12zm288 0a12 12 0 0 1-12 12H172a12 12 0 0 1-12-12v-40a12 12 0 0 1 12-12h232a12 12 0 0 1 12 12zm96 0a12 12 0 0 1-12 12h-40a12 12 0 0 1-12-12v-40a12 12 0 0 1 12-12h40a12 12 0 0 1 12 12zm0-192a12 12 0 0 1-12 12h-40a12 12 0 0 1-12-12v-40a12 12 0 0 1 12-12h40a12 12 0 0 1 12 12z" class="fa-secondary"/><path d="M164 224h-40a12 12 0 0 0-12 12v40a12 12 0 0 0 12 12h40a12 12 0 0 0 12-12v-40a12 12 0 0 0-12-12zm96 0h-40a12 12 0 0 0-12 12v40a12 12 0 0 0 12 12h40a12 12 0 0 0 12-12v-40a12 12 0 0 0-12-12zm96 0h-40a12 12 0 0 0-12 12v40a12 12 0 0 0 12 12h40a12 12 0 0 0 12-12v-40a12 12 0 0 0-12-12zm108 52v-40a12 12 0 0 0-12-12h-40a12 12 0 0 0-12 12v40a12 12 0 0 0 12 12h40a12 12 0 0 0 12-12zm36 44h-40a12 12 0 0 0-12 12v40a12 12 0 0 0 12 12h40a12 12 0 0 0 12-12v-40a12 12 0 0 0-12-12zm0-192h-40a12 12 0 0 0-12 12v40a12 12 0 0 0 12 12h40a12 12 0 0 0 12-12v-40a12 12 0 0 0-12-12zm-136 64h40a12 12 0 0 0 12-12v-40a12 12 0 0 0-12-12h-40a12 12 0 0 0-12 12v40a12 12 0 0 0 12 12zm-96 0h40a12 12 0 0 0 12-12v-40a12 12 0 0 0-12-12h-40a12 12 0 0 0-12 12v40a12 12 0 0 0 12 12zm-96 0h40a12 12 0 0 0 12-12v-40a12 12 0 0 0-12-12h-40a12 12 0 0 0-12 12v40a12 12 0 0 0 12 12zm-96 0h40a12 12 0 0 0 12-12v-40a12 12 0 0 0-12-12H76a12 12 0 0 0-12 12v40a12 12 0 0 0 12 12zm40 128H76a12 12 0 0 0-12 12v40a12 12 0 0 0 12 12h40a12 12 0 0 0 12-12v-40a12 12 0 0 0-12-12z" class="fa-primary"/></svg>