<svg xmlns="http://www.w3.org/2000/svg" viewBox="0 0 512 512"><!-- Font Awesome Pro 5.15.4 by @fontawesome - https://fontawesome.com License - https://fontawesome.com/license (Commercial License) --><defs><style>.fa-secondary{opacity:.4}</style></defs><path d="M193.3 68.85a14.25 14.25 0 0 1 3.57-16L255.86 0l59 52.82a14.23 14.23 0 0 1 3.57 16l-5 11L293.27 124l-7.93 17.39a112 112 0 0 0 0 75.56l33.36 73.27a14.16 14.16 0 0 1-2.81 15.28l-44.05 36.09v20.1L256 372.77l-16.08-11.2v-20l-44-36.09a14.19 14.19 0 0 1-2.92-15.24l16.1-35.37 11.62-25.5 5.66-12.37a112 112 0 0 0 0-75.56l-7.86-17.25L198.36 80zm78.55 384.06v-30.1L256 411.75 239.87 423v30c-9.39 5.57-16 15.38-16 27.1a32 32 0 1 0 64 0c-.03-11.8-6.64-21.61-16.02-27.19z" class="fa-secondary"/><path d="M291.05 229.51l20 44a112 112 0 0 0 2.33-193.7L293.27 124a63.92 63.92 0 0 1-2.22 105.49zm-90.36 43.89l20.05-44a63.92 63.92 0 0 1-2.22-105.2L198.36 80a112 112 0 0 0 2.33 193.44zM415.81 66a16 16 0 0 0-21.27 22.54 163.69 163.69 0 0 1 25.2 87.46 159.64 159.64 0 0 1-71.27 132.41L256 372.77l-92.52-64.41A159.64 159.64 0 0 1 92.17 176a163.69 163.69 0 0 1 25.2-87.41A16 16 0 0 0 96.1 66C22.39 106.24-15.68 189.85 5.94 273.51c7.25 28.09 22.38 53.57 41.25 75.59l52.51 61.31a16 16 0 0 0 19.65 3.71l79.35-42.23 29.3 20.37-47 32.75a22.72 22.72 0 0 0-5-1 24 24 0 0 0 0 48c12.1 0 21.69-9.11 23.33-20.76l56.67-39.5 56.71 39.49C314.31 462.89 323.9 472 336 472a24 24 0 0 0 0-48 22.72 22.72 0 0 0-5 1l-47-32.75 29.26-20.37 79.35 42.23a16 16 0 0 0 19.65-3.71l52.51-61.31c18.87-22 34-47.5 41.25-75.59 21.57-83.65-16.5-167.26-90.21-207.5z" class="fa-primary"/></svg>