<svg xmlns="http://www.w3.org/2000/svg" viewBox="0 0 496 512"><!-- Font Awesome Pro 5.15.4 by @fontawesome - https://fontawesome.com License - https://fontawesome.com/license (Commercial License) --><defs><style>.fa-secondary{opacity:.4}</style></defs><path d="M248,8C111,8,0,119,0,256S111,504,248,504,496,393,496,256,385,8,248,8ZM209,227.9l-9.5-17c-7.7-13.7-19.2-21.6-31.5-21.6s-23.8,7.9-31.5,21.6l-9.5,17c-4.2,7.4-15.6,4-14.9-4.5,3.3-42.1,32.2-71.4,56-71.4s52.7,29.3,56,71.4C224.6,231.9,213.2,235.4,209,227.9ZM304,396c0,19.2-28.7,41.5-71.5,44-8.5.8-12.1-11.8-3.6-15.4l17-7.2c13-5.5,20.8-13.5,20.8-21.5s-7.8-16-20.8-21.5l-17-7.2c-6-2.5-6.1-12.2,0-14.8l17-7.2c13-5.5,20.8-13.5,20.8-21.5s-7.8-16-20.8-21.5l-17-7.2c-8.6-3.6-4.8-16.5,3.6-15.4,42.8,2.5,71.5,24.8,71.5,44,0,13-13.4,27.3-35.2,36C290.6,368.7,304,383,304,396Zm65-168.1-9.5-17c-7.7-13.7-19.2-21.6-31.5-21.6s-23.8,7.9-31.5,21.6l-9.5,17c-4.1,7.3-15.6,4-14.9-4.5,3.3-42.1,32.2-71.4,56-71.4s52.7,29.3,56,71.4C384.6,231.9,373.2,235.4,369,227.9Z" class="fa-secondary"/><path d="M384.1,223.4c-3.3-42.1-32.2-71.4-56-71.4s-52.7,29.3-56,71.4c-.7,8.5,10.8,11.8,14.9,4.5l9.5-17c7.7-13.7,19.2-21.6,31.5-21.6s23.8,7.9,31.5,21.6l9.5,17C373.2,235.4,384.6,231.9,384.1,223.4ZM168.1,152c-23.8,0-52.7,29.3-56,71.4-.7,8.5,10.7,11.9,14.9,4.5l9.5-17c7.7-13.7,19.2-21.6,31.5-21.6s23.8,7.9,31.5,21.6l9.5,17c4.2,7.5,15.6,4,15.1-4.5C220.8,181.3,191.9,152,168.1,152Z" class="fa-primary"/></svg>