<svg xmlns="http://www.w3.org/2000/svg" viewBox="0 0 576 512"><!-- Font Awesome Pro 5.15.4 by @fontawesome - https://fontawesome.com License - https://fontawesome.com/license (Commercial License) --><defs><style>.fa-secondary{opacity:.4}</style></defs><path d="M4.87 469.83L267.52 216.6l129.09 124.45a15.6 15.6 0 0 1 0 22.63l-61 58.85c-84.89 81.81-210.41 110.38-324.25 73.79-11.71-3.75-15.21-18.08-6.49-26.49z" class="fa-secondary"/><path d="M566.28 43.31L531.07 9.38a34.07 34.07 0 0 0-46.94 0L291.82 194.77l112.1 108.08 34.35-27.7a31.47 31.47 0 0 0 9.73-22.64V208L566.28 88.57a31.2 31.2 0 0 0 0-45.26zm-122 106.36a17 17 0 0 1-23.47 0 15.6 15.6 0 0 1 0-22.63 17 17 0 0 1 23.47 0 15.6 15.6 0 0 1-.04 22.63zm60.52-58.36a17 17 0 0 1-23.47 0 15.59 15.59 0 0 1 0-22.62 17 17 0 0 1 23.47 0 15.59 15.59 0 0 1-.04 22.62z" class="fa-primary"/></svg>