<svg xmlns="http://www.w3.org/2000/svg" viewBox="0 0 512 512"><!-- Font Awesome Pro 5.15.4 by @fontawesome - https://fontawesome.com License - https://fontawesome.com/license (Commercial License) --><defs><style>.fa-secondary{opacity:.4}</style></defs><path d="M0 496v-32a16 16 0 0 1 16-16h16v-16a16 16 0 0 1 16-16h16V288h64v128h96V288h64v128h96V288h64v128h16a16 16 0 0 1 16 16v16h16a16 16 0 0 1 16 16v32a16 16 0 0 1-16 16H16a16 16 0 0 1-16-16z" class="fa-secondary"/><path d="M288 16v18.9A191.88 191.88 0 0 1 445.1 192H464a16 16 0 0 1 16 16v32a16 16 0 0 1-16 16H48a16 16 0 0 1-16-16v-32a16 16 0 0 1 16-16h18.9A191.88 191.88 0 0 1 224 34.9V16a16 16 0 0 1 16-16h32a16 16 0 0 1 16 16z" class="fa-primary"/></svg>