<svg xmlns="http://www.w3.org/2000/svg" viewBox="0 0 640 512"><!-- Font Awesome Pro 5.15.4 by @fontawesome - https://fontawesome.com License - https://fontawesome.com/license (Commercial License) --><defs><style>.fa-secondary{opacity:.4}</style></defs><path d="M272,416H96a32,32,0,0,1-32-32V219.88L42.34,239A16.51,16.51,0,0,1,33,242.48a16.22,16.22,0,0,1-10.63-4.78L3.55,216.42A16.4,16.4,0,0,1,0,207a16.15,16.15,0,0,1,4.78-10.61L216.58,8.92C222.12,4,232.64,0,240.05,0S258,4,263.5,8.92L352,87.3V48a16,16,0,0,1,16-16h32a16,16,0,0,1,16,16v96l59.24,52.42A16.31,16.31,0,0,1,480,207a16.51,16.51,0,0,1-3.58,9.44L469.74,224H332.8c-17.8,0-33.69,8.24-44.82,21.12V208a16,16,0,0,0-16-16H208a16,16,0,0,0-16,16v64a16,16,0,0,0,16,16h64Z" class="fa-secondary"/><path d="M629.33,448H592V288c0-17.67-12.89-32-28.8-32H332.8c-15.91,0-28.8,14.33-28.8,32V448H266.67A10.67,10.67,0,0,0,256,458.67v10.66A42.82,42.82,0,0,0,298.6,512H597.4A42.82,42.82,0,0,0,640,469.33V458.67A10.67,10.67,0,0,0,629.33,448ZM544,448H352V304H544Z" class="fa-primary"/></svg>