<svg xmlns="http://www.w3.org/2000/svg" viewBox="0 0 496 512"><!-- Font Awesome Pro 5.15.4 by @fontawesome - https://fontawesome.com License - https://fontawesome.com/license (Commercial License) --><defs><style>.fa-secondary{opacity:.4}</style></defs><path d="M248,8C111,8,0,119,0,256S111,504,248,504,496,393,496,256,385,8,248,8Zm33.8,161.7,80-48c11.6-6.9,24,7.7,15.4,18L343.6,180l33.6,40.3c8.7,10.4-3.9,24.8-15.4,18l-80-48a12.07,12.07,0,0,1,0-20.6Zm-147.6-48,80,48a12,12,0,0,1,0,20.6l-80,48c-11.5,6.8-24-7.6-15.4-18L152.4,180l-33.6-40.3C110.2,129.4,122.6,114.8,134.2,121.7ZM398.9,306A144.12,144.12,0,0,1,256,432H240A144.12,144.12,0,0,1,97.1,306a16.06,16.06,0,0,1,14-17.88A15,15,0,0,1,113,288H383a16,16,0,0,1,16,16A16.64,16.64,0,0,1,398.9,306Z" class="fa-secondary"/><path d="M377.2,220.3,343.6,180l33.6-40.3c8.6-10.3-3.8-24.9-15.4-18l-80,48a12.07,12.07,0,0,0,0,20.6l80,48C373.3,245.1,385.9,230.7,377.2,220.3Zm-163-50.6-80-48c-11.6-6.9-24,7.7-15.4,18L152.4,180l-33.6,40.3c-8.6,10.4,3.9,24.8,15.4,18l80-48a12,12,0,0,0,0-20.6Z" class="fa-primary"/></svg>