<svg xmlns="http://www.w3.org/2000/svg" viewBox="0 0 576 512"><!-- Font Awesome Pro 5.15.4 by @fontawesome - https://fontawesome.com License - https://fontawesome.com/license (Commercial License) --><defs><style>.fa-secondary{opacity:.4}</style></defs><path d="M546.2 9.72c-5.6-12.5-21.61-13-28.31-1.2C486.89 62.42 431.38 96 368 96h-80.25C181.86 96 96 181.83 96 287.72a192.06 192.06 0 0 0 5.78 46.87q-8.16 8.1-16 16.73C29.17 413.42 3 475.15 1.93 477.75A24.73 24.73 0 0 0 15 510.05a24.41 24.41 0 0 0 32.11-13.11c.24-.57 24.33-57 75.05-112.55a191.66 191.66 0 0 0 165.63 95.07h.21v.54a199 199 0 0 0 20.45-1.12C465.49 467.48 576 326.69 576 154.31c0-50.2-10.8-102.19-29.8-144.59zm-115.65 284.7L345.85 380a13.94 13.94 0 0 1-19.8 0l-84.7-85.6a60.65 60.65 0 0 1 4.3-89.1c24-20 59.6-16.4 81.6 5.8l8.6 8.7 8.6-8.7c22-22.2 57.7-25.8 81.6-5.8a60.58 60.58 0 0 1 4.5 89.12z" class="fa-secondary"/><path d="M245.65 205.32c24-20 59.6-16.4 81.6 5.8l8.6 8.7 8.6-8.7c22-22.2 57.7-25.8 81.6-5.8a60.58 60.58 0 0 1 4.5 89.1L345.85 380a13.94 13.94 0 0 1-19.8 0l-84.7-85.6a60.65 60.65 0 0 1 4.3-89.08z" class="fa-primary"/></svg>