<svg xmlns="http://www.w3.org/2000/svg" viewBox="0 0 512 512"><!-- Font Awesome Pro 5.15.4 by @fontawesome - https://fontawesome.com License - https://fontawesome.com/license (Commercial License) --><defs><style>.fa-secondary{opacity:.4}</style></defs><path d="M504 195.56l-140.83 89.59L428 268.57a17.33 17.33 0 0 1 20.57 21.12l-13.8 25.72 51.31 45.3a17.34 17.34 0 0 1 0 27.07l-51.31 45.3 13.8 25.72A17.33 17.33 0 0 1 428 479.92l-160.19-33L251.94 484c-6 14-25.86 14-31.88 0l-49.14-108 141.86-141.91a24.65 24.65 0 1 0-34.86-34.87L136.06 341.1 28 291.94c-14-6-14-25.87 0-31.87l37.08-15.89L32.08 84a17.34 17.34 0 0 1 21.13-20.59l25.73 13.81 45.3-51.33a17.33 17.33 0 0 1 27.06 0l45.3 51.33 25.73-13.82A17.33 17.33 0 0 1 243.45 84l-16.58 64.84L316.46 8a17.35 17.35 0 0 1 29.5.39l22.33 37.23 88.77-9.86a17.34 17.34 0 0 1 19.15 19.14l-9.87 88.78 37.24 22.34a17.35 17.35 0 0 1 .42 29.54z" class="fa-secondary"/><path d="M24.67 512a24.61 24.61 0 0 1-17.43-42l270.68-270.78a24.65 24.65 0 1 1 34.86 34.87L42.1 504.82A24.51 24.51 0 0 1 24.67 512z" class="fa-primary"/></svg>