<svg xmlns="http://www.w3.org/2000/svg" viewBox="0 0 512 512"><!-- Font Awesome Pro 5.15.4 by @fontawesome - https://fontawesome.com License - https://fontawesome.com/license (Commercial License) --><defs><style>.fa-secondary{opacity:.4}</style></defs><path d="M498.05 232.79c-6.27 6.76-14.7 11.71-22.66 16.65-12.63 7.82-25.7 14.94-39.93 23.13 5.51 6.72 9.75 11.65 13.73 16.77 22.23 28.61 16 59.63-15.4 77.62-22.74 13.04-47.07 11.64-71.79 8.47-12.84-1.65-25.76-2.69-42.31-4.38 4.27 6.14 6.24 8.58 7.78 11.27 14.94 26.1 4.3 55.32-24.64 63.17a80.79 80.79 0 0 1-37.58.86c-17.31-3.93-33.46-12.87-50.66-17.61-9.41-2.6-21-3.91-29.81-.72-16.38 6-42.38 15.09-68.62 2.7l196.62-196.63a24.65 24.65 0 1 0-34.86-34.87L81.31 395.87C68.88 369.61 78 343.58 84 327.19c3.19-8.77 1.88-20.4-.72-29.81-4.74-17.2-13.68-33.35-17.61-50.66a80.79 80.79 0 0 1 .86-37.58c7.85-28.94 37.07-39.58 63.17-24.64 2.69 1.54 5.13 3.51 11.27 7.78-1.69-16.55-2.73-29.47-4.38-42.31C133.4 125.28 132 101 145 78.21c18-31.36 49-37.63 77.62-15.4 5.12 4 10.05 8.22 16.77 13.73 8.19-14.23 15.31-27.3 23.13-39.93 4.94-8 9.89-16.39 16.65-22.66C303-8.1 338.37-3.38 357 23.6a75.46 75.46 0 0 1 7.36 12.47c3.19 7.33 11.8 10.35 19.56 8.06 33.07-9.76 57-2.91 71.5 12.43 15.34 14.49 22.18 38.43 12.43 71.5-2.29 7.76.73 16.37 8.06 19.56A75.46 75.46 0 0 1 488.4 155c26.98 18.63 31.7 54 9.65 77.79z" class="fa-secondary"/><path d="M24.67 512a24.61 24.61 0 0 1-17.43-42l270.68-270.78a24.65 24.65 0 1 1 34.86 34.87L42.1 504.82A24.51 24.51 0 0 1 24.67 512z" class="fa-primary"/></svg>