<svg xmlns="http://www.w3.org/2000/svg" viewBox="0 0 448 512"><!-- Font Awesome Pro 5.15.4 by @fontawesome - https://fontawesome.com License - https://fontawesome.com/license (Commercial License) --><defs><style>.fa-secondary{opacity:.4}</style></defs><path d="M24 400h400a24 24 0 0 1 24 24v48a24 24 0 0 1-24 24H24a24 24 0 0 1-24-24v-48a24 24 0 0 1 24-24z" class="fa-secondary"/><path d="M392.77 107.69l-175.56 68.09 175.44 68.05c18.39 6 27.89 24.39 21.21 41l-12.09 30.08c-6.67 16.61-27 25.18-45.38 19.15L55 214.19c-13.79-4.52-23-16.61-23-30.19v-16c0-13.57 9.21-25.66 23-30.18l301.71-120c18.29-6 38.51 2.53 45.15 19.06l12 29.92c6.65 16.62-2.8 34.89-21.09 40.89z" class="fa-primary"/></svg>