<svg xmlns="http://www.w3.org/2000/svg" viewBox="0 0 320 512"><!-- Font Awesome Pro 5.15.4 by @fontawesome - https://fontawesome.com License - https://fontawesome.com/license (Commercial License) --><defs><style>.fa-secondary{opacity:.4}</style></defs><path d="M232 160v328a24 24 0 0 1-24 24H12a12 12 0 0 1-8.48-20.48l56-56A12 12 0 0 1 68 432h84V160z" class="fa-secondary"/><path d="M88 160c-20.94 0-31.76-25-17.6-40.33l104-112c.4-.43.82-.86 1.26-1.26a24 24 0 0 1 33.91 1.26l104 112C327.82 135 316.84 160 296 160z" class="fa-primary"/></svg>