<svg xmlns="http://www.w3.org/2000/svg" viewBox="0 0 512 512"><!-- Font Awesome Pro 5.15.4 by @fontawesome - https://fontawesome.com License - https://fontawesome.com/license (Commercial License) --><defs><style>.fa-secondary{opacity:.4}</style></defs><path d="M292.08 167l-.41-.17zm-66.62-2a96.5 96.5 0 0 1 61.08 0l112-112a248 248 0 0 0-285 0zm68.67 2.92l.52.22zm2.49 1.12l.46.21zM186.25 322l-.19-.21zm-5.51-6.36l.21.26zm1.65 2c.12.14.23.28.35.41-.12-.15-.23-.29-.35-.43zm1.74 2l.36.4zm135.51-135.51l.4.36zM177.51 311.29l-.1-.15zM304.18 173l.34.19zm11.42 7.78l.26.21zm6.36 5.51l-.21-.19zm-3.96-3.55l-.42-.35zm-11.6-8.43l.47.29zm4.68 3.09l.17.12zm-2-1.35l-.43-.29zm-9.71-5.68l-.1-.05zm-123.61 32.91c.1-.14.19-.28.28-.42-.04.14-.18.28-.28.42zm-1.45 2.28l.29-.46zm-1.31 2.25l.19-.32zm-2.6 4.77zm10.38-16.18l.21-.26zm2-2.43c-.12.13-.23.27-.35.41.08-.14.19-.28.31-.38zm-5.33 6.89l.1-.15zm-8.2 14.07c-.07.14-.13.29-.2.43.03-.14.09-.29.16-.43zm5.39 92l-.29-.46zm-4.27-7.53v.05zm2.82 5.14l-.19-.32zm2.61 4.21c.1.14.19.28.28.42-.08-.17-.22-.31-.32-.45zm-6.8-12.11c.07.14.13.29.2.43-.06-.14-.12-.29-.2-.43zm-2-76.7c0 .13-.1.25-.16.38.07-.13.16-.25.16-.38zm1.09-2.58c-.07.17-.15.34-.22.5.13-.16.13-.33.23-.5zm-.22 76.78c.07.16.15.33.22.5-.09-.17-.09-.34-.21-.5zm-1-2.46c.06.13.11.25.16.38-.03-.13-.12-.25-.18-.38zm172-84.19l.19.32zM327.51 320l.36-.4zm-1.57 1.71l-.19.21zM325.75 190l.19.21zm3.51 128c.12-.13.23-.27.35-.41-.12.17-.23.31-.35.41zm2-121.63l-.21-.26zm0 119.2l-.21.26zm-1.65-121.22c-.12-.14-.23-.28-.35-.41.12.16.23.3.35.44zm-1.74-2l-.36-.4zm6.62 8.35l.1.15zm.1 110.43l-.1.15zM398.49 53q2 1.41 4 2.85-2-1.43-4-2.85zM343.9 294.64c.07-.17.15-.34.22-.5-.07.16-.12.33-.22.5zm1.09-2.58c.05-.13.1-.25.16-.38-.06.13-.15.25-.15.38zm-3.35 7.36v-.05zm-5.4 9.3l-.28.42zm1.45-2.28l-.29.46zm1.35-2.25l-.19.32zm3.75-7.12c.07-.14.13-.29.2-.43-.07.14-.13.29-.2.43zM449 100.21q-1.41-1.75-2.85-3.46 1.39 1.71 2.85 3.46zM445.49 96c-1-1.18-2-2.35-3-3.51 1 1.19 2.01 2.36 3 3.51zm6.87 8.5q-1.36-1.74-2.76-3.5 1.4 1.76 2.76 3.53zm3.36 4.44c-.91-1.23-1.83-2.44-2.75-3.65.92 1.24 1.84 2.45 2.75 3.71zm-119.48 94.34l-.28-.42zm66.76-147q1.85 1.36 3.66 2.76-1.78-1.39-3.66-2.76zm12.23 9.62q-1.72-1.44-3.47-2.85 1.77 1.41 3.5 2.85zM411 62.4q-1.74-1.4-3.51-2.77Q409.24 61 411 62.4zm8.5 7.13q-1.74-1.53-3.51-3 1.75 1.47 3.49 3zm-75.38 148.33c-.07-.16-.15-.33-.22-.5.1.17.15.34.22.5zM184.49 192l-.36.4zM343 215.36c-.07-.14-.13-.29-.2-.43.06.14.12.29.2.43zm113.16-105.8c1 1.31 1.9 2.62 2.84 3.94-.95-1.32-1.89-2.63-2.85-3.94zM337.4 205.1l.29.46zm82.53-135.18a248.82 248.82 0 0 1 22.14 22.15 250.17 250.17 0 0 0-22.14-22.15zm-74.78 150.4a6.15 6.15 0 0 1-.16-.38c.01.13.1.25.16.38zM459 398.49a248 248 0 0 0 0-285L347 225.46a96.5 96.5 0 0 1 0 61.08zM341.67 212.63zM220.33 345.15l-.41-.17zm-2.46-1l-.52-.22zm-5.3-2.49l.1.05zM322 325.75l-.21.19zM309.14 336l-.43.29zm2-1.35l.17-.12zm4.48-3.34l.26-.21zm4-3.39l.4-.36zm-1.6 1.39l-.42.35zM215.38 343l-.46-.21zm-19-11.74l-.26-.21zm-4-3.39l-.4-.36zm-6.3-137.62l.19-.21zm4 135.5l.21.19zm15.52 11.94l-.47-.29zm2.26 1.35l-.34-.19zm78.72 8a96.5 96.5 0 0 1-61.08 0L113.51 459a248 248 0 0 0 285 0zM202.86 336l.43.29zm-2-1.35l-.17-.12zM416 445.49q1.77-1.49 3.51-3-1.77 1.51-3.51 3zm43-47c-.93 1.33-1.88 2.64-2.84 3.95.95-1.31 1.9-2.62 2.84-3.95zM411.79 449q1.74-1.41 3.47-2.85-1.72 1.39-3.47 2.85zm-4.32 3.42q1.77-1.38 3.51-2.77-1.74 1.35-3.51 2.72zM455.72 403q-1.37 1.85-2.76 3.66 1.4-1.78 2.76-3.66zm-10.23 13c-1 1.18-2 2.35-3 3.51 1-1.19 2.01-2.36 3-3.51zm3.46-4.18q-1.41 1.74-2.85 3.47 1.44-1.75 2.9-3.5zm.65-.81q1.39-1.74 2.77-3.51-1.37 1.74-2.77 3.5zm-150.17-69.38a.31.31 0 0 1-.1.05.31.31 0 0 0 .1-.05zm-5.3 2.49l.52-.22zm12.31-6.43l.47-.29zm-9.82 5.31l.46-.21zm7.56-4l.34-.19zm137.9 80.89a248.94 248.94 0 0 1-22.15 22.15 248.94 248.94 0 0 0 22.15-22.11zm-39.63 36.21q-2 1.44-4 2.85 2.04-1.37 4-2.81zM292.08 345l-.41.17zM403 455.72q1.85-1.37 3.66-2.76-1.78 1.4-3.66 2.76zM194 329.26l.42.35zM69.93 92.07a248.82 248.82 0 0 1 22.14-22.15 250.17 250.17 0 0 0-22.14 22.15zm30.28-29q-1.74 1.41-3.47 2.85 1.73-1.46 3.47-2.87zm90 123l-.21.19zm4.13-3.67l-.42.35zM109.55 55.86q2-1.44 4-2.85-2.03 1.41-4 2.85zM196.14 181l.26-.21zM104.53 59.63Q102.76 61 101 62.4q1.76-1.4 3.53-2.77zm.78-.59q1.81-1.4 3.66-2.76-1.84 1.37-3.66 2.72zm87.05 125.09l-.4.36zm22.56-14.92l.46-.21zm-2.25 1.11l-.1.05zm4.68-2.22l.52-.22zm2.57-1.08l.41-.17zm-17.06 9l.43-.29zm5-3.09l-.34.19zm-7.11 4.56l.17-.12zm4.38-2.92l.47-.29zM96.74 446.1q1.73 1.44 3.47 2.85-1.74-1.41-3.47-2.85zm-33.69-34.31q1.41 1.74 2.85 3.47-1.44-1.72-2.85-3.47zm3.46 4.21c1 1.18 2 2.35 3 3.51-1-1.19-2.01-2.36-3-3.51zm-10.23-13q1.36 1.85 2.76 3.66-1.39-1.78-2.76-3.66zm3.35 4.44q1.37 1.8 2.77 3.56-1.4-1.76-2.77-3.53zm32.89 35q1.74 1.53 3.51 3-1.77-1.44-3.51-2.97zM105.31 453q1.81 1.4 3.66 2.76-1.84-1.4-3.66-2.76zm8.2 6q-2-1.41-4-2.85 2.01 1.43 4 2.85zM101 449.6q1.74 1.39 3.51 2.77-1.75-1.37-3.51-2.77zm-45.15-47.16c-1-1.31-1.9-2.62-2.84-3.95.99 1.33 1.88 2.64 2.84 3.95zM65.9 96.75q-1.44 1.71-2.85 3.46 1.41-1.75 2.85-3.46zM56.29 109c.9-1.23 1.82-2.45 2.74-3.65-.92 1.17-1.84 2.39-2.74 3.65zm6.11-8q-1.4 1.74-2.76 3.51Q61 102.76 62.4 101zm7.12-8.5c-1 1.16-2 2.33-3 3.51.98-1.16 1.99-2.33 3-3.49zm23-23q1.74-1.53 3.51-3-1.77 1.5-3.51 3.03zm-.45 372.55a248.94 248.94 0 0 1-22.15-22.15 248.94 248.94 0 0 0 22.15 22.18zM165 286.54a96.5 96.5 0 0 1 0-61.08L53 113.51a248 248 0 0 0 0 285zm-109.11-177q-1.44 2-2.84 3.93 1.36-1.95 2.8-3.9z" class="fa-secondary"/><path d="M347 225.46l112-111.95A249.4 249.4 0 0 0 398.49 53L286.54 165A96.26 96.26 0 0 1 347 225.46zm-182 61.08l-112 112a249.4 249.4 0 0 0 60.5 60.5L225.46 347A96.26 96.26 0 0 1 165 286.54zm-112-173l112 112a96.26 96.26 0 0 1 60.5-60.5L113.51 53A249.4 249.4 0 0 0 53 113.51zM286.54 347l112 112a249.4 249.4 0 0 0 60.5-60.5L347 286.54A96.26 96.26 0 0 1 286.54 347z" class="fa-primary"/></svg>