<svg xmlns="http://www.w3.org/2000/svg" viewBox="0 0 640 512"><!-- Font Awesome Pro 5.15.4 by @fontawesome - https://fontawesome.com License - https://fontawesome.com/license (Commercial License) --><defs><style>.fa-secondary{opacity:.4}</style></defs><path d="M163.75 94.79C192.16 39.71 249 .2 319.45 0a175.9 175.9 0 0 1 133 291.78c-3.86 4.41-8.24 9.94-12.79 16.25l-197-152.29A80.16 80.16 0 0 1 320 96a16 16 0 1 0 0-32 112.16 112.16 0 0 0-104.22 71zm0 161.77a176 176 0 0 0 23.83 35.22c16.52 18.85 42.36 58.23 52.21 91.45 0 .26.07.52.11.78h88.74zM240 416v38.35a32 32 0 0 0 5.41 17.65l17.09 25.69A32 32 0 0 0 289.14 512h61.71a32 32 0 0 0 26.64-14.28L394.58 472a32 32 0 0 0 5.36-17.69V439.1L370 416z" class="fa-secondary"/><path d="M3.37 31.45L23 6.18a16 16 0 0 1 22.47-2.81L633.82 458.1a16 16 0 0 1 2.82 22.45L617 505.82a16 16 0 0 1-22.46 2.81L6.18 53.9a16 16 0 0 1-2.81-22.45z" class="fa-primary"/></svg>