<svg xmlns="http://www.w3.org/2000/svg" viewBox="0 0 640 512"><!-- Font Awesome Pro 5.15.4 by @fontawesome - https://fontawesome.com License - https://fontawesome.com/license (Commercial License) --><defs><style>.fa-secondary{opacity:.4}</style></defs><path d="M147 236.07c-14.66-5.5-69.17-20-93.77 45.56-18.61 49.62 13 129.22 26.53 134.28s89.65-34 108.3-83.71c26.17-69.79-34.06-93.46-41.06-96.13zm173 20c-15.67 0-71.8 5.54-71.8 75.59 0 53 57.6 116.41 72 116.41s72-63.3 72-116.41c.01-74.59-64.67-75.59-72.2-75.59zm266.8 25.59c-24.6-65.59-79.11-51.06-93.8-45.59-7 2.64-67.24 26.31-41.06 96.13 18.65 49.73 94.81 88.77 108.3 83.71s45.18-84.63 26.57-134.25z" class="fa-secondary"/><path d="M632.59 121.75c-38.09 22.4-81.09 40-127 53l20.35 56.14a82.79 82.79 0 0 0-60.2 22.28l-23.15-63.82a701.58 701.58 0 0 1-90.4 9.8v63.37a82.78 82.78 0 0 0-64 0v-63.37a699.63 699.63 0 0 1-90.4-9.8l-23.14 63.82a85.87 85.87 0 0 0-27.47-17.1 84.92 84.92 0 0 0-32.73-5.21l20.35-56.14c-45.89-13-88.89-30.6-127-53-7.9-4.6-10.1-15.1-5.2-22.9l17.5-27.4a16 16 0 0 1 21.8-5.1C118 110.75 216 135.07 320 135.07s202-24.3 278.1-68.7a16 16 0 0 1 21.79 5.1l17.5 27.4c4.9 7.78 2.7 18.28-4.8 22.88z" class="fa-primary"/></svg>