<svg xmlns="http://www.w3.org/2000/svg" viewBox="0 0 352 512"><!-- Font Awesome Pro 5.15.4 by @fontawesome - https://fontawesome.com License - https://fontawesome.com/license (Commercial License) --><defs><style>.fa-secondary{opacity:.4}</style></defs><path d="M175.45 0C73.44.31 0 83 0 176a175 175 0 0 0 43.56 115.78c16.52 18.85 42.36 58.22 52.21 91.45 0 .26.07.52.11.78h160.24c0-.26.07-.51.11-.78 9.85-33.22 35.69-72.6 52.21-91.45A175.9 175.9 0 0 0 175.45 0zm.55 96a80.09 80.09 0 0 0-80 80 16 16 0 0 1-32 0A112.12 112.12 0 0 1 176 64a16 16 0 0 1 0 32z" class="fa-secondary"/><path d="M96.06 454.35L96 416h160v38.35a32 32 0 0 1-5.41 17.65l-17.09 25.73A32 32 0 0 1 206.86 512h-61.71a32 32 0 0 1-26.64-14.28L101.42 472a32 32 0 0 1-5.36-17.65z" class="fa-primary"/></svg>