<svg xmlns="http://www.w3.org/2000/svg" viewBox="0 0 352 512"><!-- Font Awesome Pro 5.15.4 by @fontawesome - https://fontawesome.com License - https://fontawesome.com/license (Commercial License) --><defs><style>.fa-secondary{opacity:.4}</style></defs><path d="M175.45 0C73.44.31 0 83 0 176a175 175 0 0 0 43.56 115.78c16.52 18.85 42.36 58.22 52.21 91.45 0 .26.07.52.11.78h160.24c0-.26.07-.51.11-.78 9.85-33.22 35.69-72.6 52.21-91.45A175.9 175.9 0 0 0 175.45 0zm.55 320a32 32 0 1 1 32-32 32 32 0 0 1-32 32zm38.24-238.41l-12.8 128A16 16 0 0 1 185.52 224h-19a16 16 0 0 1-15.92-14.41l-12.8-128A16 16 0 0 1 153.68 64h44.64a16 16 0 0 1 15.92 17.59z" class="fa-secondary"/><path d="M176 256a32 32 0 1 0 32 32 32 32 0 0 0-32-32zm-25.44-46.41A16 16 0 0 0 166.48 224h19a16 16 0 0 0 15.92-14.41l12.8-128A16 16 0 0 0 198.32 64h-44.64a16 16 0 0 0-15.92 17.59zM96 416v38.35a32 32 0 0 0 5.42 17.65l17.09 25.69A32 32 0 0 0 145.15 512h61.71a32 32 0 0 0 26.64-14.28L250.59 472a32 32 0 0 0 5.41-17.65V416z" class="fa-primary"/></svg>