<svg xmlns="http://www.w3.org/2000/svg" viewBox="0 0 352 512"><!-- Font Awesome Pro 5.15.4 by @fontawesome - https://fontawesome.com License - https://fontawesome.com/license (Commercial License) --><defs><style>.fa-secondary{opacity:.4}</style></defs><path d="M175.45 0C73.44.31 0 83 0 176a175 175 0 0 0 43.56 115.78c16.52 18.85 42.36 58.22 52.21 91.45 0 .26.07.52.11.78h160.24c0-.26.07-.51.11-.78 9.85-33.22 35.69-72.6 52.21-91.45A175.9 175.9 0 0 0 175.45 0zM192 255.88V272a8 8 0 0 1-8 8h-16a8 8 0 0 1-8-8v-16.29a57.26 57.26 0 0 1-31.37-11.35 8 8 0 0 1-.57-12.14L139.81 221a8.21 8.21 0 0 1 10.13-.73 24.08 24.08 0 0 0 12.82 3.73h28.11c6.5 0 11.8-5.92 11.8-13.19 0-5.95-3.61-11.19-8.77-12.73l-45-13.5c-18.59-5.58-31.58-23.42-31.58-43.39 0-24.52 19.05-44.44 42.67-45.07V80a8 8 0 0 1 8-8h16a8 8 0 0 1 8 8v16.29a57.18 57.18 0 0 1 31.37 11.35 8 8 0 0 1 .57 12.14L212.18 131a8.21 8.21 0 0 1-10.13.73 24 24 0 0 0-12.82-3.73h-28.11c-6.5 0-11.8 5.92-11.8 13.19 0 5.95 3.61 11.19 8.77 12.73l45 13.5c18.59 5.58 31.58 23.42 31.58 43.39 0 24.53-19.05 44.44-42.67 45.07z" class="fa-secondary"/><path d="M96 416v38.35a32 32 0 0 0 5.42 17.65l17.09 25.69A32 32 0 0 0 145.15 512h61.71a32 32 0 0 0 26.64-14.28L250.59 472a32 32 0 0 0 5.41-17.65V416zm52.9-231.42l45 13.5c5.16 1.54 8.77 6.78 8.77 12.73 0 7.27-5.3 13.19-11.8 13.19h-28.11a24.08 24.08 0 0 1-12.82-3.72 8.21 8.21 0 0 0-10.13.73l-11.75 11.21a8 8 0 0 0 .57 12.14A57.26 57.26 0 0 0 160 255.71V272a8 8 0 0 0 8 8h16a8 8 0 0 0 8-8v-16.12c23.62-.63 42.67-20.54 42.67-45.07 0-20-13-37.81-31.58-43.39l-45-13.5c-5.16-1.54-8.77-6.78-8.77-12.73 0-7.27 5.3-13.19 11.8-13.19h28.11a24 24 0 0 1 12.82 3.72 8.21 8.21 0 0 0 10.13-.73l11.75-11.21a8 8 0 0 0-.57-12.14A57.18 57.18 0 0 0 192 96.29V80a8 8 0 0 0-8-8h-16a8 8 0 0 0-8 8v16.12c-23.62.63-42.67 20.55-42.67 45.07-.01 19.97 12.98 37.81 31.57 43.39z" class="fa-primary"/></svg>