<svg xmlns="http://www.w3.org/2000/svg" viewBox="0 0 640 512"><!-- Font Awesome Pro 5.15.4 by @fontawesome - https://fontawesome.com License - https://fontawesome.com/license (Commercial License) --><defs><style>.fa-secondary{opacity:.4}</style></defs><path d="M189.36 115.58A191.34 191.34 0 0 1 288 66.88V16a16 16 0 0 1 16-16h32a16 16 0 0 1 16 16v50.88A191.86 191.86 0 0 1 509.12 224H560a16 16 0 0 1 16 16v32a16 16 0 0 1-16 16h-50.88a190.53 190.53 0 0 1-20.3 59l-51.51-39.81A128 128 0 0 0 240.87 155.4zM320 384a127.93 127.93 0 0 1-125.55-103.7L121.61 224H80a16 16 0 0 0-16 16v32a16 16 0 0 0 16 16h50.88A191.86 191.86 0 0 0 288 445.12V496a16 16 0 0 0 16 16h32a16 16 0 0 0 16-16v-50.88c14.07-2.37 27.35-6.75 40.19-12l-64.57-49.9c-2.57.16-5.01.78-7.62.78zm0-216a87.6 87.6 0 0 0-46 13l130.2 100.63A88 88 0 0 0 320 168z" class="fa-secondary"/><path d="M3.37 32.45L23 7.18a16 16 0 0 1 22.47-2.81L633.82 459.1a16 16 0 0 1 2.82 22.45L617 506.82a16 16 0 0 1-22.46 2.81L6.18 54.9a16 16 0 0 1-2.81-22.45z" class="fa-primary"/></svg>