<svg xmlns="http://www.w3.org/2000/svg" viewBox="0 0 448 512"><!-- Font Awesome Pro 5.15.4 by @fontawesome - https://fontawesome.com License - https://fontawesome.com/license (Commercial License) --><defs><style>.fa-secondary{opacity:.4}</style></defs><path d="M152 225H72v-72C72 69.2 140.2 1 224 1s152 68.2 152 152v72h-80v-72a72 72 0 0 0-144 0z" class="fa-secondary"/><path d="M400 225H48a48 48 0 0 0-48 48v192a48 48 0 0 0 48 48h352a48 48 0 0 0 48-48V273a48 48 0 0 0-48-48zM264 392a40 40 0 0 1-80 0v-48a40 40 0 0 1 80 0z" class="fa-primary"/></svg>