<svg xmlns="http://www.w3.org/2000/svg" viewBox="0 0 576 512"><!-- Font Awesome Pro 5.15.4 by @fontawesome - https://fontawesome.com License - https://fontawesome.com/license (Commercial License) --><defs><style>.fa-secondary{opacity:.4}</style></defs><path d="M320 192a32 32 0 0 0 60.57 14.41A105 105 0 0 1 372 319L256.19 155.91a105.27 105.27 0 0 1 81.4 7.52A32 32 0 0 0 320 192zm249.34 39.63C513 136 407.81 72 288 72a329.94 329.94 0 0 0-83.75 10.74l33.31 46.92A135.86 135.86 0 0 1 288 120a135.93 135.93 0 0 1 136 136 135.47 135.47 0 0 1-33.38 89.27l43.16 60.79a324.33 324.33 0 0 0 135.56-125.69A47.88 47.88 0 0 0 576 256a47.88 47.88 0 0 0-6.66-24.37zm-398.9-85.94L142.25 106A324.78 324.78 0 0 0 6.68 231.61a48 48 0 0 0 0 48.74 324.92 324.92 0 0 0 172.83 141.4L55.32 244.33a272.12 272.12 0 0 1 28.29-35.91L203 379l40.63 58a329.89 329.89 0 0 0 78.94 1.17l-190-271.4a277.74 277.74 0 0 1 37.87-21.08z" class="fa-secondary"/><path d="M469.76 498.48l-13.11 9.18a24 24 0 0 1-33.43-5.9L100.34 46.94a24 24 0 0 1 5.9-33.42l13.11-9.18a24 24 0 0 1 33.43 5.9l322.88 454.82a24 24 0 0 1-5.9 33.42z" class="fa-primary"/></svg>