<svg xmlns="http://www.w3.org/2000/svg" viewBox="0 0 640 512"><!-- Font Awesome Pro 5.15.4 by @fontawesome - https://fontawesome.com License - https://fontawesome.com/license (Commercial License) --><defs><style>.fa-secondary{opacity:.4}</style></defs><path d="M170.16 373.57L256 316.34v87.49c0 41.15-29.08 77.32-71.26 88.62l-59.5 15.95C62.48 525.22 0 481 0 419.78a114.68 114.68 0 0 1 3.89-29.63 821.31 821.31 0 0 1 102-231C128 124.56 142 96 186 96c38.64 0 70 29.42 70 65.71v60.11l-128 85.33a16 16 0 0 0-4.44 22.19l8.88 13.31a16 16 0 0 0 17.77 6.5 8 8 0 0 0 0 8.89l8.88 13.31a8 8 0 0 0 11.07 2.22zm466 16.58a821.31 821.31 0 0 0-102-231C512 124.56 498 96 454.05 96 415.36 96 384 125.42 384 161.71v60.11l128 85.33a16 16 0 0 1 4.44 22.19l-8.88 13.31a16 16 0 0 1-17.78 6.49 8 8 0 0 1 0 8.89l-8.88 13.31a8 8 0 0 1-11.08 2.22L384 316.34v87.49c0 41.15 29.08 77.31 71.26 88.62l59.5 15.95C577.52 525.22 640 481 640 419.78a114.68 114.68 0 0 0-3.89-29.63z" class="fa-secondary"/><path d="M516.45 329.34l-8.88 13.31a16 16 0 0 1-22.19 4.44L320 236.84 154.63 347.09a16 16 0 0 1-22.19-4.44l-8.88-13.31a16 16 0 0 1 4.44-22.19L288.88 199.9a16 16 0 0 0 7.12-13.31V16a16 16 0 0 1 16-16h16a16 16 0 0 1 16 16v170.59a16 16 0 0 0 7.12 13.31L512 307.15a16 16 0 0 1 4.45 22.19z" class="fa-primary"/></svg>