<svg xmlns="http://www.w3.org/2000/svg" viewBox="0 0 512 512"><!-- Font Awesome Pro 5.15.4 by @fontawesome - https://fontawesome.com License - https://fontawesome.com/license (Commercial License) --><defs><style>.fa-secondary{opacity:.4}</style></defs><path d="M476.1 20h-104a36 36 0 0 0-36 36v80a12 12 0 0 0 12 12h152a11.89 11.89 0 0 0 12-11.9V56a36 36 0 0 0-36-36zm-336.1.1H36a36 36 0 0 0-36 36v80a12 12 0 0 0 12 12h152.1a11.89 11.89 0 0 0 11.9-12v-80a36 36 0 0 0-36-36z" class="fa-secondary"/><path d="M512 192.2c-.2 20.2-.6 40.4 0 53.2 0 150.7-134.5 246.7-255.1 246.7S.1 396.1.1 245.5c.6-13 .1-31.9 0-53.3a12 12 0 0 1 12-12.1h152a12 12 0 0 1 12 12v52c0 127.9 160 128.1 160 0v-52a12 12 0 0 1 12-12H500a12 12 0 0 1 12 12.1z" class="fa-primary"/></svg>