<svg xmlns="http://www.w3.org/2000/svg" viewBox="0 0 576 512"><!-- Font Awesome Pro 5.15.4 by @fontawesome - https://fontawesome.com License - https://fontawesome.com/license (Commercial License) --><defs><style>.fa-secondary{opacity:.4}</style></defs><path d="M432 64H144a144 144 0 0 1 144 144v208a32 32 0 0 1-32 32h288a32 32 0 0 0 32-32V208A144 144 0 0 0 432 64zm80 208a16 16 0 0 1-16 16h-32a16 16 0 0 1-16-16v-48h-56a8 8 0 0 1-8-8v-16a8 8 0 0 1 8-8h104a16 16 0 0 1 16 16z" class="fa-secondary"/><path d="M143.93 64C64.2 64 0 129.65 0 209.38V416a32 32 0 0 0 32 32h224a32 32 0 0 0 32-32V208A144 144 0 0 0 143.93 64zM224 240a16 16 0 0 1-16 16H80a16 16 0 0 1-16-16v-32a16 16 0 0 1 16-16h128a16 16 0 0 1 16 16zm272-48H392a8 8 0 0 0-8 8v16a8 8 0 0 0 8 8h56v48a16 16 0 0 0 16 16h32a16 16 0 0 0 16-16v-64a16 16 0 0 0-16-16z" class="fa-primary"/></svg>