<svg xmlns="http://www.w3.org/2000/svg" viewBox="0 0 192 512"><!-- Font Awesome Pro 5.15.4 by @fontawesome - https://fontawesome.com License - https://fontawesome.com/license (Commercial License) --><defs><style>.fa-secondary{opacity:.4}</style></defs><path d="M32 64a64 64 0 1 1 64 64 64 64 0 0 1-64-64z" class="fa-secondary"/><path d="M48 144h11.36a87.91 87.91 0 0 0 73.28 0H144a48 48 0 0 1 48 48v136a24 24 0 0 1-24 24h-16v136a24 24 0 0 1-24 24H64a24 24 0 0 1-24-24V352H24a24 24 0 0 1-24-24V192a48 48 0 0 1 48-48z" class="fa-primary"/></svg>