<svg xmlns="http://www.w3.org/2000/svg" viewBox="0 0 512 512"><!-- Font Awesome Pro 5.15.4 by @fontawesome - https://fontawesome.com License - https://fontawesome.com/license (Commercial License) --><defs><style>.fa-secondary{opacity:.4}</style></defs><path d="M278.63 278.63l-45.25-45.25 41.19-41.19C90.39 190.67 46 241 30.73 256.28c-46.8 46.79-39.51 150.36 17.54 207.45s160.66 64.34 207.45 17.53c15.28-15.26 65.6-59.64 64.08-243.8zM176 384a48 48 0 1 1 48-48 48 48 0 0 1-48 48z" class="fa-secondary"/><path d="M509.56 70.48l-40.07 64a32 32 0 0 1-19.11 14L394.28 163 278.63 278.63l-45.25-45.25L349 117.74l14.51-56.12a32 32 0 0 1 14-19.11l64-40.07a16 16 0 0 1 19.81 2.25l46 46a16 16 0 0 1 2.24 19.79z" class="fa-primary"/></svg>