<svg xmlns="http://www.w3.org/2000/svg" viewBox="0 0 384 512"><!-- Font Awesome Pro 5.15.4 by @fontawesome - https://fontawesome.com License - https://fontawesome.com/license (Commercial License) --><defs><style>.fa-secondary{opacity:.4}</style></defs><path d="M192 0C86.4 0 0 86.4 0 192c0 76.8 25.6 99.2 172.8 310.4a24 24 0 0 0 38.4 0C358.4 291.2 384 268.8 384 192 384 86.4 297.6 0 192 0zm112 200a16 16 0 0 1-16 16h-72v72a16 16 0 0 1-16 16h-16a16 16 0 0 1-16-16v-72H96a16 16 0 0 1-16-16v-16a16 16 0 0 1 16-16h72V96a16 16 0 0 1 16-16h16a16 16 0 0 1 16 16v72h72a16 16 0 0 1 16 16z" class="fa-secondary"/><path d="M304 200a16 16 0 0 1-16 16h-72v72a16 16 0 0 1-16 16h-16a16 16 0 0 1-16-16v-72H96a16 16 0 0 1-16-16v-16a16 16 0 0 1 16-16h72V96a16 16 0 0 1 16-16h16a16 16 0 0 1 16 16v72h72a16 16 0 0 1 16 16z" class="fa-primary"/></svg>