<svg xmlns="http://www.w3.org/2000/svg" viewBox="0 0 576 512"><!-- Font Awesome Pro 5.15.4 by @fontawesome - https://fontawesome.com License - https://fontawesome.com/license (Commercial License) --><defs><style>.fa-secondary{opacity:.4}</style></defs><path d="M554.06 161.16L416 224v288l139.88-55.95A32 32 0 0 0 576 426.34V176a16 16 0 0 0-21.94-14.84zM20.12 216A32 32 0 0 0 0 245.66V496a16 16 0 0 0 21.94 14.86L160 448V214.92a302.84 302.84 0 0 1-21.25-46.42zM288 359.67a47.78 47.78 0 0 1-36.51-17C231.83 319.51 210.92 293.09 192 266v182l192 64V266c-18.92 27.09-39.82 53.52-59.49 76.72A47.8 47.8 0 0 1 288 359.67z" class="fa-secondary"/><path d="M288 0a126 126 0 0 0-126 126c0 56.26 82.35 158.8 113.9 196a15.77 15.77 0 0 0 24.2 0C331.65 284.8 414 182.26 414 126A126 126 0 0 0 288 0zm0 168a42 42 0 1 1 42-42 42 42 0 0 1-42 42z" class="fa-primary"/></svg>