<svg xmlns="http://www.w3.org/2000/svg" viewBox="0 0 640 512"><!-- Font Awesome Pro 5.15.4 by @fontawesome - https://fontawesome.com License - https://fontawesome.com/license (Commercial License) --><defs><style>.fa-secondary{opacity:.4}</style></defs><path d="M157.4 89.88A191.85 191.85 0 0 1 320 0c106 0 192 86 192 192 0 46.83-9.88 73.25-49.83 133.43l-79.06-61.1a96 96 0 1 0-149-115.17zM300.8 502.4a24 24 0 0 0 38.4 0c18.6-26.69 35.23-50.32 50.14-71.47L131.47 231.62c10.71 52.55 50.15 99.78 169.33 270.78zM320 128a64 64 0 0 0-59.84 41.3L357 244.18A64 64 0 0 0 320 128z" class="fa-secondary"/><path d="M3.37 31.45L23 6.18a16 16 0 0 1 22.47-2.81L633.82 458.1a16 16 0 0 1 2.82 22.45L617 505.82a16 16 0 0 1-22.46 2.81L6.18 53.9a16 16 0 0 1-2.81-22.45z" class="fa-primary"/></svg>