<svg xmlns="http://www.w3.org/2000/svg" viewBox="0 0 384 512"><!-- Font Awesome Pro 5.15.4 by @fontawesome - https://fontawesome.com License - https://fontawesome.com/license (Commercial License) --><defs><style>.fa-secondary{opacity:.4}</style></defs><path d="M192 0C86.4 0 0 86.4 0 192c0 76.8 25.6 99.2 172.8 310.4a24 24 0 0 0 38.4 0C358.4 291.2 384 268.8 384 192 384 86.4 297.6 0 192 0zm64 117.16A26.84 26.84 0 1 1 229.16 144 26.84 26.84 0 0 1 256 117.16zm-128 0A26.84 26.84 0 1 1 101.16 144 26.84 26.84 0 0 1 128 117.16zm164.17 141a132.31 132.31 0 0 1-200.33 0 16 16 0 0 1 24.32-20.78 100.31 100.31 0 0 0 151.67 0 16 16 0 1 1 24.34 20.79z" class="fa-secondary"/><path d="M256 170.84A26.84 26.84 0 1 0 229.16 144 26.84 26.84 0 0 0 256 170.84zm-128 0A26.84 26.84 0 1 0 101.16 144 26.84 26.84 0 0 0 128 170.84zm162.39 64.72a16 16 0 0 0-22.56 1.78 100.31 100.31 0 0 1-151.67 0 16 16 0 0 0-24.32 20.78 132.31 132.31 0 0 0 200.33 0 16 16 0 0 0-1.78-22.56z" class="fa-primary"/></svg>