<svg xmlns="http://www.w3.org/2000/svg" viewBox="0 0 384 512"><!-- Font Awesome Pro 5.15.4 by @fontawesome - https://fontawesome.com License - https://fontawesome.com/license (Commercial License) --><defs><style>.fa-secondary{opacity:.4}</style></defs><path d="M192 0C86.4 0 0 86.4 0 192c0 76.8 25.6 99.2 172.8 310.4a24 24 0 0 0 38.4 0C358.4 291.2 384 268.8 384 192 384 86.4 297.6 0 192 0zm0 352a32 32 0 1 1 32-32 32 32 0 0 1-32 32zm26.67-113.27v1.43A15.84 15.84 0 0 1 202.83 256h-16.32a15.84 15.84 0 0 1-15.84-15.84V224A24.09 24.09 0 0 1 184 202.5c30.61-15.31 50.67-26.54 50.67-42.5 0-19.39-14-40-40-40a40.06 40.06 0 0 0-38.2 28.12C154.32 155 148.36 160 141.14 160H124.3a15.92 15.92 0 0 1-15.44-19.55A88.14 88.14 0 0 1 194.67 72c55.08 0 88 44.75 88 88 0 41-32.75 62.47-64 78.73z" class="fa-secondary"/><path d="M192 288a32 32 0 1 0 32 32 32 32 0 0 0-32-32zm2.67-216a88.14 88.14 0 0 0-85.81 68.45A15.92 15.92 0 0 0 124.3 160h16.84c7.22 0 13.18-5 15.33-11.88a40.06 40.06 0 0 1 38.2-28.12c26 0 40 20.61 40 40 0 16-20.06 27.19-50.67 42.5a24.09 24.09 0 0 0-13.33 21.5v16.16A15.84 15.84 0 0 0 186.51 256h16.32a15.84 15.84 0 0 0 15.84-15.84v-1.43c31.25-16.26 64-37.78 64-78.73 0-43.25-32.92-88-88-88z" class="fa-primary"/></svg>