<svg xmlns="http://www.w3.org/2000/svg" viewBox="0 0 384 512"><!-- Font Awesome Pro 5.15.4 by @fontawesome - https://fontawesome.com License - https://fontawesome.com/license (Commercial License) --><defs><style>.fa-secondary{opacity:.4}</style></defs><path d="M192 0C86.4 0 0 86.4 0 192c0 76.8 25.6 99.2 172.8 310.4a24 24 0 0 0 38.4 0C358.4 291.2 384 268.8 384 192 384 86.4 297.6 0 192 0zm114.08 163.83l-131 130a11 11 0 0 1-15.55-.06l-75.76-76.34a11 11 0 0 1 .06-15.56l26-25.82a11 11 0 0 1 15.56.06l42.15 42.49 97.2-96.42a11 11 0 0 1 15.55.06l25.82 26a11 11 0 0 1-.03 15.59z" class="fa-secondary"/><path d="M306.08 163.83l-131 130a11 11 0 0 1-15.55-.06l-75.76-76.34a11 11 0 0 1 .06-15.56l26-25.82a11 11 0 0 1 15.56.06l42.15 42.49 97.2-96.42a11 11 0 0 1 15.55.06l25.82 26a11 11 0 0 1-.03 15.59z" class="fa-primary"/></svg>