<svg xmlns="http://www.w3.org/2000/svg" viewBox="0 0 384 512"><!-- Font Awesome Pro 5.15.4 by @fontawesome - https://fontawesome.com License - https://fontawesome.com/license (Commercial License) --><defs><style>.fa-secondary{opacity:.4}</style></defs><path d="M192 0C86.4 0 0 86.4 0 192c0 76.8 25.6 99.2 172.8 310.4a24 24 0 0 0 38.4 0C358.4 291.2 384 268.8 384 192 384 86.4 297.6 0 192 0zm0 336a32 32 0 1 1 32-32 32 32 0 0 1-32 32zm38.24-238.41l-12.8 128A16 16 0 0 1 201.52 240h-19a16 16 0 0 1-15.92-14.41l-12.8-128A16 16 0 0 1 169.68 80h44.64a16 16 0 0 1 15.92 17.59z" class="fa-secondary"/><path d="M192 272a32 32 0 1 0 32 32 32 32 0 0 0-32-32zm22.32-192h-44.64a16 16 0 0 0-15.92 17.59l12.8 128A16 16 0 0 0 182.48 240h19a16 16 0 0 0 15.92-14.41l12.8-128A16 16 0 0 0 214.32 80z" class="fa-primary"/></svg>