<svg xmlns="http://www.w3.org/2000/svg" viewBox="0 0 288 512"><!-- Font Awesome Pro 5.15.4 by @fontawesome - https://fontawesome.com License - https://fontawesome.com/license (Commercial License) --><defs><style>.fa-secondary{opacity:.4}</style></defs><path d="M144 320a175.77 175.77 0 0 0 32-3.06v156.69l-22 33a12 12 0 0 1-20 0l-22-33V316.94a175.77 175.77 0 0 0 32 3.06z" class="fa-secondary"/><path d="M144 0a144 144 0 1 0 144 144A144 144 0 0 0 144 0zm0 76a68.07 68.07 0 0 0-68 68 12 12 0 0 1-24 0 92.11 92.11 0 0 1 92-92 12 12 0 0 1 0 24z" class="fa-primary"/></svg>