<svg xmlns="http://www.w3.org/2000/svg" viewBox="0 0 512 512"><!-- Font Awesome Pro 5.15.4 by @fontawesome - https://fontawesome.com License - https://fontawesome.com/license (Commercial License) --><defs><style>.fa-secondary{opacity:.4}</style></defs><path d="M169.36 214.63l128 128L222 418.05a327 327 0 0 1-195.34 93.8A24 24 0 0 1 .15 485.34v-.23A327 327 0 0 1 94 290z" class="fa-secondary"/><path d="M485.5 154.53L320 320 192 192l98.48-98.47-19.6-19.59-87.15 87.15a16 16 0 0 1-22.63 0l-22.62-22.62a16 16 0 0 1 0-22.63L242.6 11.72a40 40 0 0 1 56.56 0l36.56 36.55 21.76-21.76a90.52 90.52 0 0 1 128 128z" class="fa-primary"/></svg>