<svg xmlns="http://www.w3.org/2000/svg" viewBox="0 0 288 512"><!-- Font Awesome Pro 5.15.4 by @fontawesome - https://fontawesome.com License - https://fontawesome.com/license (Commercial License) --><defs><style>.fa-secondary{opacity:.4}</style></defs><path d="M200.58 408.27a80.12 80.12 0 1 1-.05-113.5l.05.05a80.45 80.45 0 0 1 0 113.45z" class="fa-secondary"/><path d="M284.38 319.45a144.66 144.66 0 0 0-38.56-70.08A143 143 0 0 0 176 210.63v-25.45h20a12 12 0 0 0 12-12V133a12 12 0 0 0-12-12h-20V96.09h24a12 12 0 0 0 8.5-20.57l-55.89-56a12 12 0 0 0-17 0l-56 56.09A12 12 0 0 0 88.1 96.2h24V121h-20a12 12 0 0 0-12 12v40.13a12 12 0 0 0 12 12h20v25.45C34.52 228.34-14 305.76 3.62 383.56S98.42 510.07 176 492.37s126-95.13 108.38-172.92zm-83.8 88.82a80.12 80.12 0 1 1-.05-113.5l.05.05a80.45 80.45 0 0 1 0 113.45z" class="fa-primary"/></svg>