<svg xmlns="http://www.w3.org/2000/svg" viewBox="0 0 384 512"><!-- Font Awesome Pro 5.15.4 by @fontawesome - https://fontawesome.com License - https://fontawesome.com/license (Commercial License) --><defs><style>.fa-secondary{opacity:.4}</style></defs><path d="M143.9 384a80 80 0 1 1 80-80 80 80 0 0 1-80 80z" class="fa-secondary"/><path d="M371.9 64h-79a12 12 0 0 0-8.5 20.5l16.9 16.9-80.7 80.7a143.94 143.94 0 1 0 45.2 45.2l80.7-80.7 16.9 16.9a12 12 0 0 0 20.5-8.5V76a12 12 0 0 0-12-12zm-228 320a80 80 0 1 1 80-80 80 80 0 0 1-80 80z" class="fa-primary"/></svg>