<svg xmlns="http://www.w3.org/2000/svg" viewBox="0 0 640 512"><!-- Font Awesome Pro 5.15.4 by @fontawesome - https://fontawesome.com License - https://fontawesome.com/license (Commercial License) --><defs><style>.fa-secondary{opacity:.4}</style></defs><path d="M320.67 64c-442.6 0-357.57 384-158.46 384 39.9 0 77.47-20.69 101.42-55.86l25.73-37.79c15.66-23 47-23 62.63 0l25.73 37.79C401.66 427.31 439.23 448 479.13 448 669 448 769.76 64 320.67 64zm-56.59 203.31c-12.32 15.4-39 41.05-80.08 41.05s-67.76-25.66-80.08-41.05a18.28 18.28 0 0 1 0-22.63c12.32-15.4 39-41.05 80.08-41.05s67.76 25.66 80.08 41.05a18.28 18.28 0 0 1 0 22.63zm272 0c-12.32 15.4-39 41.05-80.08 41.05s-67.76-25.66-80.08-41.05a18.28 18.28 0 0 1 0-22.63c12.32-15.4 39-41.05 80.08-41.05s67.76 25.66 80.08 41.05a18.28 18.28 0 0 1 0 22.63z" class="fa-secondary"/><path d="M184 203.63c-41.08 0-67.76 25.65-80.08 41.05a18.28 18.28 0 0 0 0 22.63c12.32 15.39 39 41.05 80.08 41.05s67.76-25.65 80.08-41.05a18.28 18.28 0 0 0 0-22.63c-12.32-15.39-39-41.05-80.08-41.05zm352.08 41.05c-12.32-15.39-39-41.05-80.08-41.05s-67.76 25.65-80.08 41.05a18.28 18.28 0 0 0 0 22.63c12.32 15.39 39 41.05 80.08 41.05s67.76-25.65 80.08-41.05a18.28 18.28 0 0 0 0-22.63z" class="fa-primary"/></svg>