<svg xmlns="http://www.w3.org/2000/svg" viewBox="0 0 512 512"><!-- Font Awesome Pro 5.15.4 by @fontawesome - https://fontawesome.com License - https://fontawesome.com/license (Commercial License) --><defs><style>.fa-secondary{opacity:.4}</style></defs><path d="M376.27 136.1c-14.72-14.71-34.57-18.64-44.42-8.87s-5.85 29.67 8.88 44.37 34.61 18.68 44.42 8.87 5.85-29.66-8.88-44.37zM128 312v-2.11l-8.51 8.5c-9.71 9.69-24 11.07-36.79 6a60.33 60.33 0 0 0-65 98.72c15.3 15.28 36.51 19.59 56.13 15.1-4.49 19.6-.18 40.83 15.11 56.1a60.36 60.36 0 0 0 98.83-65c-5.1-12.73-3.72-27 6-36.75l8.57-8.56H200a72 72 0 0 1-72-72z" class="fa-secondary"/><path d="M444 68.52C399.41 24.05 345.07 0 299.13 0c-23.64 0-44.77 6.79-61.47 20a41.75 41.75 0 0 0-7.3 5.82C191.64 64.5 128.1 139.6 128.1 209.42v100.37l-.1.1V312a72 72 0 0 0 72 72h102.84c69.89 0 145.07-63.46 183.8-102.15a40.45 40.45 0 0 0 6.66-9c37.42-49.43 17.37-137.66-49.3-204.33zm8.73 179.39c-9.76 9.75-24.3 11.8-34.79 11.8-34.72 0-77.19-20.87-110.82-54.47-27.19-27.16-46.31-60.32-52.45-91-4.74-23.7-1.19-43.56 9.74-54.48C274.09 50.05 288.65 48 299.14 48c34.72 0 77.18 20.87 110.82 54.46 53.88 53.84 67 121.19 42.7 145.45z" class="fa-primary"/></svg>