<svg xmlns="http://www.w3.org/2000/svg" viewBox="0 0 640 512"><!-- Font Awesome Pro 5.15.4 by @fontawesome - https://fontawesome.com License - https://fontawesome.com/license (Commercial License) --><defs><style>.fa-secondary{opacity:.4}</style></defs><path d="M480 64a32 32 0 0 0 64 0c0-17.67-32-64-32-64s-32 46.33-32 64zm-96 0a32 32 0 0 0 64 0c0-17.67-32-64-32-64s-32 46.33-32 64zM0 64a32 32 0 0 0 64 0C64 46.33 32 0 32 0S0 46.33 0 64zm288 0a32 32 0 0 0 64 0c0-17.67-32-64-32-64s-32 46.33-32 64zm-96 0a32 32 0 0 0 64 0c0-17.67-32-64-32-64s-32 46.33-32 64zm-96 0a32 32 0 0 0 64 0c0-17.67-32-64-32-64S96 46.33 96 64zM608 0s-32 46.33-32 64a32 32 0 0 0 64 0c0-17.67-32-64-32-64z" class="fa-secondary"/><path d="M160 144a16 16 0 0 0-16-16h-32a16 16 0 0 0-16 16v144h64zm288 0a16 16 0 0 0-16-16h-32a16 16 0 0 0-16 16v144h64zm-192 0a16 16 0 0 0-16-16h-32a16 16 0 0 0-16 16v144h64zm288 0a16 16 0 0 0-16-16h-32a16 16 0 0 0-16 16v144h64zm80-16h-32a16 16 0 0 0-16 16v144a32 32 0 0 1-32 32H352V144a16 16 0 0 0-16-16h-32a16 16 0 0 0-16 16v176H96a32 32 0 0 1-32-32V144a16 16 0 0 0-16-16H16a16 16 0 0 0-16 16v144a96 96 0 0 0 96 96h192v64H112a16 16 0 0 0-16 16v32a16 16 0 0 0 16 16h416a16 16 0 0 0 16-16v-32a16 16 0 0 0-16-16H352v-64h192a96 96 0 0 0 96-96V144a16 16 0 0 0-16-16z" class="fa-primary"/></svg>