<svg xmlns="http://www.w3.org/2000/svg" viewBox="0 0 640 512"><!-- Font Awesome Pro 5.15.4 by @fontawesome - https://fontawesome.com License - https://fontawesome.com/license (Commercial License) --><defs><style>.fa-secondary{opacity:.4}</style></defs><path d="M437.52 306.66A127.18 127.18 0 0 0 448 256v-48a16 16 0 0 1 16-16h16a16 16 0 0 1 16 16v48a174.64 174.64 0 0 1-19.69 80.76zm-26.38-20.46A95.78 95.78 0 0 0 416 256h-43.79zM400 464h-56v-33.78a175.69 175.69 0 0 0 34-8.08l-50.4-39c-6.71.4-13.41.87-20.35.2-55.85-5.45-98.74-48.63-111.18-101.85l-52-40.22v6.85c0 89.64 64 169.55 152 181.69V464H240a16 16 0 0 0-16 16v16a16 16 0 0 0 16 16h160a16 16 0 0 0 16-16v-16a16 16 0 0 0-16-16zm-69-240h85v-32h-85.33c-5.89 0-10.67-3.58-10.67-8v-16c0-4.42 4.78-8 10.67-8H416v-32h-85.33c-5.89 0-10.67-3.58-10.67-8v-16c0-4.42 4.78-8 10.67-8H416a96 96 0 0 0-192 0v45z" class="fa-secondary"/><path d="M3.37 31.45L23 6.18a16 16 0 0 1 22.47-2.81L633.82 458.1a16 16 0 0 1 2.82 22.45L617 505.82a16 16 0 0 1-22.46 2.81L6.18 53.9a16 16 0 0 1-2.81-22.45z" class="fa-primary"/></svg>