<svg xmlns="http://www.w3.org/2000/svg" viewBox="0 0 512 512"><!-- Font Awesome Pro 5.15.4 by @fontawesome - https://fontawesome.com License - https://fontawesome.com/license (Commercial License) --><defs><style>.fa-secondary{opacity:.4}</style></defs><path d="M104 384h208a8 8 0 0 1 8 8v16a8 8 0 0 1-8 8H104a8 8 0 0 1-8-8v-16a8 8 0 0 1 8-8z" class="fa-secondary"/><path d="M464 448h-1.29A191 191 0 0 0 512 320c0-105.88-86.12-192-192-192v64a128 128 0 0 1 0 256H48a48 48 0 0 0-48 48 16 16 0 0 0 16 16h480a16 16 0 0 0 16-16 48 48 0 0 0-48-48zM160 320h12v16a16 16 0 0 0 16 16h40a16 16 0 0 0 16-16v-16h12a32 32 0 0 0 32-32V64a32 32 0 0 0-32-32V16a16 16 0 0 0-16-16h-64a16 16 0 0 0-16 16v16a32 32 0 0 0-32 32v224a32 32 0 0 0 32 32z" class="fa-primary"/></svg>