<svg xmlns="http://www.w3.org/2000/svg" viewBox="0 0 640 512"><!-- Font Awesome Pro 5.15.4 by @fontawesome - https://fontawesome.com License - https://fontawesome.com/license (Commercial License) --><defs><style>.fa-secondary{opacity:.4}</style></defs><path d="M467.14 118.15A59.61 59.61 0 0 0 408.47 45c-.71 0-1.36.18-2.07.21A60.14 60.14 0 0 0 288 60v324c12.64-57.14 64-102.33 122.42-110.89a124.7 124.7 0 0 1 18.64-1.11H480v-15.2a48.87 48.87 0 0 1 29-44.8c2.81-7.74 4.84-15.83 4.84-24.54a75 75 0 0 0-46.7-69.31zM256 60a60.14 60.14 0 0 0-118.4-14.79c-.7 0-1.36-.21-2.07-.21a60.12 60.12 0 0 0-60.23 60 59.46 59.46 0 0 0 1.56 13.16 75 75 0 0 0-46.74 69.34A74 74 0 0 0 38 220.23c-22.59 13-38 37-38 64.77a75 75 0 0 0 46.52 69.27A67.36 67.36 0 0 0 113 435a67 67 0 0 0 11.32-1.14A67.62 67.62 0 0 0 256 412.5z" class="fa-secondary"/><path d="M635 364.21l-96 95.19c-10.12 10-27 2.6-27-12.21V400h-64c-65.85 0-69.27 68.95-60.28 95.52 3.77 11.13-8 20.9-17.82 14.38-35-23.3-56.08-67-48.29-113.67 7.84-46.92 46.39-84.56 93.45-91.46a113.79 113.79 0 0 1 17-.77H512v-47.19c0-14.82 16.88-22.23 27-12.21l96 95.19a17.38 17.38 0 0 1 0 24.42z" class="fa-primary"/></svg>