<svg xmlns="http://www.w3.org/2000/svg" viewBox="0 0 448 512"><!-- Font Awesome Pro 5.15.4 by @fontawesome - https://fontawesome.com License - https://fontawesome.com/license (Commercial License) --><defs><style>.fa-secondary{opacity:.4}</style></defs><path d="M400 32H48A48 48 0 0 0 0 80v352a48 48 0 0 0 48 48h352a48 48 0 0 0 48-48V80a48 48 0 0 0-48-48zm-32 252a12 12 0 0 1-12 12H92a12 12 0 0 1-12-12v-56a12 12 0 0 1 12-12h264a12 12 0 0 1 12 12z" class="fa-secondary"/><path d="M368 228v56a12 12 0 0 1-12 12H92a12 12 0 0 1-12-12v-56a12 12 0 0 1 12-12h264a12 12 0 0 1 12 12z" class="fa-primary"/></svg>