<svg xmlns="http://www.w3.org/2000/svg" viewBox="0 0 576 512"><!-- Font Awesome Pro 5.15.4 by @fontawesome - https://fontawesome.com License - https://fontawesome.com/license (Commercial License) --><defs><style>.fa-secondary{opacity:.4}</style></defs><path d="M553.48 231.8l-112-192A48.11 48.11 0 0 0 400 16H176a48.11 48.11 0 0 0-41.5 23.8l-112 192a48.19 48.19 0 0 0 0 48.4l112 192A48.11 48.11 0 0 0 176 496h224a48.11 48.11 0 0 0 41.5-23.8l112-192a48.12 48.12 0 0 0 0-48.4zM432 284a12 12 0 0 1-12 12H156a12 12 0 0 1-12-12v-56a12 12 0 0 1 12-12h264a12 12 0 0 1 12 12z" class="fa-secondary"/><path d="M432 228v56a12 12 0 0 1-12 12H156a12 12 0 0 1-12-12v-56a12 12 0 0 1 12-12h264a12 12 0 0 1 12 12z" class="fa-primary"/></svg>