<svg xmlns="http://www.w3.org/2000/svg" viewBox="0 0 576 512"><!-- Font Awesome Pro 5.15.4 by @fontawesome - https://fontawesome.com License - https://fontawesome.com/license (Commercial License) --><defs><style>.fa-secondary{opacity:.4}</style></defs><path d="M554 394.1c-33.3 33.3-92.7 27.9-132.7-12.1-26-26-38.6-89.6-44.2-130.9l-65.2-65.2v96.3c28.4 32.7 72 89.2 72 127.3 0 56.6-43 102.4-96 102.4s-96-45.8-96-102.4c0-8.6 2.5-18.2 6.2-28.1a69.54 69.54 0 0 0 17.8 2.5 71.75 71.75 0 0 0 48-125.3v-72.8l-65.1 65.3c-.83 6.11-1.81 12.71-3 19.6a42.62 42.62 0 0 0-16 65.58c-6.46 18.72-14.75 35.26-25.2 45.72-40 40-99.4 45.4-132.7 12.1s-28-92.7 12-132.7c26-26 89.6-38.6 130.9-44.2l99.13-99.1V16a16 16 0 0 1 16-16h16a16 16 0 0 1 16 16v16.3a74.59 74.59 0 0 0-13.3 42.4 73.84 73.84 0 0 0 13.3 42.4l99.2 100.1c41.3 5.6 104.9 18.2 130.9 44.2 39.97 40 45.4 99.4 11.97 132.7z" class="fa-secondary"/><path d="M373.23 32a42.65 42.65 0 1 0 42.7 42.6 42.68 42.68 0 0 0-42.7-42.6zm-160 235a42.65 42.65 0 1 0 42.7 42.6 42.68 42.68 0 0 0-42.7-42.6z" class="fa-primary"/></svg>