<svg xmlns="http://www.w3.org/2000/svg" viewBox="0 0 320 512"><!-- Font Awesome Pro 5.15.4 by @fontawesome - https://fontawesome.com License - https://fontawesome.com/license (Commercial License) --><defs><style>.fa-secondary{opacity:.4}</style></defs><path d="M0 384v80a48 48 0 0 0 48 48h224a48 48 0 0 0 48-48v-80zm208 68a12 12 0 0 1-12 12h-72a12 12 0 0 1-12-12v-8a12 12 0 0 1 12-12h72a12 12 0 0 1 12 12z" class="fa-secondary"/><path d="M0 384V48A48 48 0 0 1 48 0h224a48 48 0 0 1 48 48v336z" class="fa-primary"/></svg>