<svg xmlns="http://www.w3.org/2000/svg" viewBox="0 0 640 512"><!-- Font Awesome Pro 5.15.4 by @fontawesome - https://fontawesome.com License - https://fontawesome.com/license (Commercial License) --><defs><style>.fa-secondary{opacity:.4}</style></defs><path d="M640 192v288a32 32 0 0 1-32 32H32a32 32 0 0 1-32-32V192a32 32 0 0 1 32-32h171.06L331 288H104a8 8 0 0 0-8 8v16a8 8 0 0 0 8 8h259l64 64H104a8 8 0 0 0-8 8v16a8 8 0 0 0 8 8h456a16 16 0 0 0 16-16v-74.46a64 64 0 0 0-18.74-45.26L437 160h171a32 32 0 0 1 32 32z" class="fa-secondary"/><path d="M534.64 302.91L303.18 71.47l-71.7 71.7 231.39 231.45a32 32 0 0 0 22.64 9.38H528a16 16 0 0 0 16-16v-42.46a32 32 0 0 0-9.36-22.63zM238.78 7a24.1 24.1 0 0 0-33.9 0L167 44.87a24 24 0 0 0 0 33.8l41.9 41.9 71.7-71.8z" class="fa-primary"/></svg>