<svg xmlns="http://www.w3.org/2000/svg" viewBox="0 0 640 512"><!-- Font Awesome Pro 5.15.4 by @fontawesome - https://fontawesome.com License - https://fontawesome.com/license (Commercial License) --><defs><style>.fa-secondary{opacity:.4}</style></defs><path d="M608 32H32A32 32 0 0 0 0 64v384a32 32 0 0 0 32 32h576a32 32 0 0 0 32-32V64a32 32 0 0 0-32-32zM176 327.88V344a8 8 0 0 1-8 8h-16a8 8 0 0 1-8-8v-16.29a57.26 57.26 0 0 1-31.37-11.35 8 8 0 0 1-.57-12.14L123.81 293a8.21 8.21 0 0 1 10.13-.73 24.08 24.08 0 0 0 12.82 3.73h28.11c6.5 0 11.8-5.92 11.8-13.19 0-5.95-3.61-11.19-8.77-12.73l-45-13.5c-18.59-5.58-31.58-23.42-31.58-43.39 0-24.52 19.05-44.44 42.67-45.07V152a8 8 0 0 1 8-8h16a8 8 0 0 1 8 8v16.29a57.18 57.18 0 0 1 31.37 11.35 8 8 0 0 1 .57 12.14L196.18 203a8.21 8.21 0 0 1-10.13.73 24 24 0 0 0-12.82-3.73h-28.11c-6.5 0-11.8 5.92-11.8 13.19 0 5.95 3.61 11.19 8.77 12.73l45 13.5c18.59 5.58 31.58 23.42 31.58 43.39 0 24.53-19.05 44.44-42.67 45.07zM416 312a8 8 0 0 1-8 8H296a8 8 0 0 1-8-8v-16a8 8 0 0 1 8-8h112a8 8 0 0 1 8 8zm160 0a8 8 0 0 1-8 8h-80a8 8 0 0 1-8-8v-16a8 8 0 0 1 8-8h80a8 8 0 0 1 8 8zm0-96a8 8 0 0 1-8 8H296a8 8 0 0 1-8-8v-16a8 8 0 0 1 8-8h272a8 8 0 0 1 8 8z" class="fa-secondary"/><path d="M144 168.12V152a8 8 0 0 1 8-8h16a8 8 0 0 1 8 8v16.29a57.18 57.18 0 0 1 31.37 11.35 8 8 0 0 1 .57 12.14L196.18 203a8.21 8.21 0 0 1-10.13.73 24 24 0 0 0-12.82-3.73h-28.11c-6.5 0-11.8 5.92-11.8 13.19 0 5.95 3.61 11.19 8.77 12.73l45 13.5c18.59 5.58 31.58 23.42 31.58 43.39 0 24.53-19 44.44-42.67 45.07V344a8 8 0 0 1-8 8h-16a8 8 0 0 1-8-8v-16.29a57.26 57.26 0 0 1-31.37-11.35 8 8 0 0 1-.57-12.14L123.81 293a8.21 8.21 0 0 1 10.13-.73 24.08 24.08 0 0 0 12.82 3.73h28.11c6.5 0 11.8-5.92 11.8-13.19 0-5.95-3.61-11.19-8.77-12.73l-45-13.5c-18.59-5.58-31.58-23.42-31.58-43.39 0-24.52 19.05-44.44 42.68-45.07z" class="fa-primary"/></svg>