<svg xmlns="http://www.w3.org/2000/svg" viewBox="0 0 640 512"><!-- Font Awesome Pro 5.15.4 by @fontawesome - https://fontawesome.com License - https://fontawesome.com/license (Commercial License) --><defs><style>.fa-secondary{opacity:.4}</style></defs><path d="M545.58 371.77a112.42 112.42 0 0 1 46.43-41V133.21a112.4 112.4 0 0 1-52.16-51.09 283.47 283.47 0 0 0-35.1-2.12c-55.6 0-112.61 14.43-173 29.7-63.39 16-128.95 32.64-196.51 32.64a385.14 385.14 0 0 1-40.83-2.12 112.42 112.42 0 0 1-46.42 41v197.57a112.42 112.42 0 0 1 52.15 51.09 283.47 283.47 0 0 0 35.1 2.12c55.6 0 112.62-14.43 173-29.71 63.4-16.05 129-32.64 196.53-32.64a385 385 0 0 1 40.81 2.12zM320 352c-44.19 0-80-43-80-96s35.82-96 80-96 80 43 80 96-35.83 96-80 96z" class="fa-secondary"/><path d="M621.16 54.46C582.37 38.19 543.55 32 504.75 32c-123.19 0-246.34 62.34-369.5 62.34-30.89 0-61.76-3.92-92.65-13.72A34.19 34.19 0 0 0 32.25 79C15 79 0 92.32 0 110.81v317.26c0 12.63 7.23 24.6 18.84 29.46C57.63 473.81 96.45 480 135.25 480c123.17 0 246.34-62.35 369.51-62.35 30.89 0 61.76 3.92 92.65 13.72a34.19 34.19 0 0 0 10.35 1.63C625 433 640 419.67 640 401.18V83.93c0-12.64-7.23-24.6-18.84-29.47zM308.23 402.29C247.87 417.57 190.85 432 135.25 432a283.47 283.47 0 0 1-35.1-2.12A112.42 112.42 0 0 0 48 378.79V181.21a112.42 112.42 0 0 0 46.42-41 385.14 385.14 0 0 0 40.83 2.12c67.56 0 133.12-16.59 196.51-32.64C392.11 94.43 449.12 80 504.72 80a283.47 283.47 0 0 1 35.1 2.12A112.4 112.4 0 0 0 592 133.21v197.58a112.42 112.42 0 0 0-46.43 41 385 385 0 0 0-40.82-2.12c-67.56-.02-133.12 16.57-196.52 32.62z" class="fa-primary"/></svg>