<svg xmlns="http://www.w3.org/2000/svg" viewBox="0 0 640 512"><!-- Font Awesome Pro 5.15.4 by @fontawesome - https://fontawesome.com License - https://fontawesome.com/license (Commercial License) --><defs><style>.fa-secondary{opacity:.4}</style></defs><path d="M608 160H437l120.27 120.25A64 64 0 0 1 576 325.51V400a16 16 0 0 1-16 16H264a8 8 0 0 1-8-8v-16a8 8 0 0 1 8-8h163l-64-64h-99a8 8 0 0 1-8-8v-16a8 8 0 0 1 8-8h67L203 160H32a32 32 0 0 0-32 32v288a32 32 0 0 0 32 32h576a32 32 0 0 0 32-32V192a32 32 0 0 0-32-32zM144 415.85V432a8 8 0 0 1-8 8h-16a8 8 0 0 1-8-8v-16.32a57.32 57.32 0 0 1-31.37-11.35 8 8 0 0 1-.57-12.14L91.81 381a8.19 8.19 0 0 1 10.13-.73 24.06 24.06 0 0 0 12.82 3.73h28.11c6.5 0 11.8-5.92 11.8-13.19 0-5.95-3.61-11.19-8.77-12.73l-45-13.5c-18.59-5.58-31.58-23.45-31.58-43.42 0-24.52 19.05-44.44 42.67-45.07V240a8 8 0 0 1 8-8h16a8 8 0 0 1 8 8v16.29a57.17 57.17 0 0 1 31.37 11.35 8 8 0 0 1 1.4 11.22 7.26 7.26 0 0 1-.83.92L164.18 291a8.22 8.22 0 0 1-10.13.73 24 24 0 0 0-12.82-3.73h-28.11c-6.5 0-11.8 5.92-11.8 13.19 0 5.95 3.61 11.19 8.77 12.73l45 13.5c18.59 5.58 31.58 23.42 31.58 43.39 0 24.5-19.05 44.41-42.67 45.04z" class="fa-secondary"/><path d="M238.78 7a24.1 24.1 0 0 0-33.9 0L167 44.84a24 24 0 0 0 0 33.8l41.9 41.9 71.7-71.8zm295.86 295.88L303.18 71.44l-71.7 71.7 231.4 231.46a32 32 0 0 0 22.62 9.4H528a16 16 0 0 0 16-16v-42.49a32 32 0 0 0-9.36-22.63zm-379.55 24.51l-45-13.5c-5.16-1.54-8.77-6.78-8.77-12.73 0-7.27 5.3-13.19 11.8-13.19h28.11a24 24 0 0 1 12.82 3.73 8.22 8.22 0 0 0 10.13-.73l11.75-11.22a7.26 7.26 0 0 0 .83-.92 8 8 0 0 0-1.4-11.22A57.17 57.17 0 0 0 144 256.26V240a8 8 0 0 0-8-8h-16a8 8 0 0 0-8 8v16.12c-23.62.63-42.67 20.55-42.67 45.07 0 20 13 37.81 31.58 43.39l45 13.5c5.16 1.54 8.77 6.78 8.77 12.73 0 7.27-5.3 13.19-11.8 13.19h-28.12a24.06 24.06 0 0 1-12.82-3.73 8.19 8.19 0 0 0-10.13.73l-11.75 11.19a8 8 0 0 0 .57 12.14A57.32 57.32 0 0 0 112 415.68V432a8 8 0 0 0 8 8h16a8 8 0 0 0 8-8v-16.15c23.62-.63 42.67-20.54 42.67-45.07 0-19.97-12.99-37.78-31.58-43.39z" class="fa-primary"/></svg>