<svg xmlns="http://www.w3.org/2000/svg" viewBox="0 0 576 512"><!-- Font Awesome Pro 5.15.4 by @fontawesome - https://fontawesome.com License - https://fontawesome.com/license (Commercial License) --><defs><style>.fa-secondary{opacity:.4}</style></defs><path d="M512 64v384H64V288h118.11l27.58 55.16a16 16 0 0 0 28.62 0L288 243.78 310.11 288H400a16 16 0 0 0 0-32h-70.11l-27.58-55.16a16 16 0 0 0-28.62 0L224 300.22l-19.9-39.8A8 8 0 0 0 197 256H64V64z" class="fa-secondary"/><path d="M528 0H48A48 48 0 0 0 0 48v416a48 48 0 0 0 48 48h480a48 48 0 0 0 48-48V48a48 48 0 0 0-48-48zm-16 448H64V64h448z" class="fa-primary"/></svg>