<svg xmlns="http://www.w3.org/2000/svg" viewBox="0 0 640 512"><!-- Font Awesome Pro 5.15.4 by @fontawesome - https://fontawesome.com License - https://fontawesome.com/license (Commercial License) --><defs><style>.fa-secondary{opacity:.4}</style></defs><path d="M549.47 267.22A127 127 0 0 1 480 288c-56.67 0-104.29-37.26-121.08-88.38C262.91 224.9 192 312.05 192 416v32a32 32 0 0 1-32-32V176a80 80 0 0 0-160 0v48a32 32 0 0 0 64 0v-48a16 16 0 0 1 32 0v240a96.1 96.1 0 0 0 96 96h240a16 16 0 0 0 16-16v-16a32 32 0 0 0-32-32h-64l155.68-103.79 34.68 104 1.64 10.13V496a16 16 0 0 0 16 16h32a16 16 0 0 0 16-16v-37.61a96 96 0 0 0-4.94-30.39zM592 64h-21.88C556.9 26.8 521.74 0 480 0s-76.9 26.8-90.12 64H368a48 48 0 0 0 0 96h16a96 96 0 0 0 192 0h16a48 48 0 0 0 0-96zm-32 48a48 48 0 0 1-32 45.26V176a48 48 0 0 1-48 48 48 48 0 0 1-48-48v-18.74A48 48 0 0 1 400 112a48 48 0 0 1 48-48h64a48 48 0 0 1 48 48z" class="fa-secondary"/><path d="M512 64h-64a48 48 0 0 0-48 48 48 48 0 0 0 32 45.26V176a48 48 0 0 0 48 48 48 48 0 0 0 48-48v-18.74A48 48 0 0 0 560 112a48 48 0 0 0-48-48zm-72 56a16 16 0 1 1 16-16 16 16 0 0 1-16 16zm80 0a16 16 0 1 1 16-16 16 16 0 0 1-16 16z" class="fa-primary"/></svg>