<svg xmlns="http://www.w3.org/2000/svg" viewBox="0 0 576 512"><!-- Font Awesome Pro 5.15.4 by @fontawesome - https://fontawesome.com License - https://fontawesome.com/license (Commercial License) --><defs><style>.fa-secondary{opacity:.4}</style></defs><path d="M574.1 377a191.7 191.7 0 0 1-271.7 26.7c29.5-16.4 49.7-47.5 49.7-83.6a96 96 0 0 0-106.7-95.4 109.19 109.19 0 0 0-6.9-12.6C258.4 127.2 334.3 64 425.1 64a196.43 196.43 0 0 1 35 3.2c8.2 1.6 10.1 12.6 2.8 16.7a150.3 150.3 0 0 0-76.1 130.8c0 94 85.4 165.4 178.5 147.7 8.2-1.6 14 8 8.8 14.6z" class="fa-secondary"/><path d="M320 320a64.06 64.06 0 0 1-64 64H64a64 64 0 0 1 0-128c.6 0 1.1.2 1.6.2a79.75 79.75 0 0 1 157.7 9A63.72 63.72 0 0 1 320 320z" class="fa-primary"/></svg>