<svg xmlns="http://www.w3.org/2000/svg" viewBox="0 0 640 512"><!-- Font Awesome Pro 5.15.4 by @fontawesome - https://fontawesome.com License - https://fontawesome.com/license (Commercial License) --><defs><style>.fa-secondary{opacity:.4}</style></defs><path d="M595.6 416H12.35c-25 0-11.59 64 36 64h511.36c47.69 0 60.89-64 35.89-64zM192 256h64a32 32 0 0 0 32-32v-66.75a32 32 0 0 0-9.38-22.62L240 96V32h-32v64l-38.63 38.63a32 32 0 0 0-9.37 22.62V224a32 32 0 0 0 32 32z" class="fa-secondary"/><path d="M512 32H240v64l38.62 38.63a32 32 0 0 1 9.38 22.62V224a32 32 0 0 1-32 32h-64a32 32 0 0 1-32-32v-66.75a32 32 0 0 1 9.37-22.62L208 96V32h-87.95a23.94 23.94 0 0 0-24 24v232a96 96 0 0 0 96 96H384a96 96 0 0 0 96-96h32a128 128 0 0 0 0-256zm0 192h-32V96h32a64 64 0 0 1 0 128z" class="fa-primary"/></svg>