<svg xmlns="http://www.w3.org/2000/svg" viewBox="0 0 512 512"><!-- Font Awesome Pro 5.15.4 by @fontawesome - https://fontawesome.com License - https://fontawesome.com/license (Commercial License) --><defs><style>.fa-secondary{opacity:.4}</style></defs><path d="M139.3 67.3a94.83 94.83 0 0 1-26.4-53.5A16.11 16.11 0 0 0 96.8 0H80.4a16.31 16.31 0 0 0-16.3 18 145.36 145.36 0 0 0 40.6 84.4 81.22 81.22 0 0 1 22.4 44.1 16.23 16.23 0 0 0 16 13.5h16.5c9.8 0 17.6-8.5 16.3-18a130.72 130.72 0 0 0-36.6-74.7zM287.9 142a130.72 130.72 0 0 0-36.6-74.7 94.83 94.83 0 0 1-26.4-53.5A16.11 16.11 0 0 0 208.8 0h-16.4c-9.8 0-17.5 8.5-16.3 18a145.36 145.36 0 0 0 40.6 84.4 81.22 81.22 0 0 1 22.4 44.1 16.23 16.23 0 0 0 16 13.5h16.5c9.8 0 17.6-8.5 16.3-18z" class="fa-secondary"/><path d="M400 192H32a32 32 0 0 0-32 32v192a96 96 0 0 0 96 96h192a96 96 0 0 0 96-96h16a112 112 0 0 0 0-224zm0 160h-16v-96h16a48 48 0 0 1 0 96z" class="fa-primary"/></svg>