<svg xmlns="http://www.w3.org/2000/svg" viewBox="0 0 640 512"><!-- Font Awesome Pro 5.15.4 by @fontawesome - https://fontawesome.com License - https://fontawesome.com/license (Commercial License) --><defs><style>.fa-secondary{opacity:.4}</style></defs><path d="M544 192c-243 0-315.29 224-380.12 224A35.92 35.92 0 0 1 128 380.11v-98l49.75-30.51A32 32 0 0 0 192 225v-81a16 16 0 0 0-24.88-13.31L96 178.11l-71.12-47.42A16 16 0 0 0 0 144v81a32 32 0 0 0 14.25 26.6L64 282.12v98A100 100 0 0 0 163.88 480H576a64 64 0 0 0 64-64V288a96.11 96.11 0 0 0-96-96zM432 360a24 24 0 1 1 24-24 24 24 0 0 1-24 24z" class="fa-secondary"/><path d="M634.6 33.32a10.48 10.48 0 0 0-14.25 4.07L535 192l.37.1c2.85-.1 5.73-.1 8.63-.1a95.55 95.55 0 0 1 56.9 18.73l38.83-165.87a10.49 10.49 0 0 0-5.13-11.54zM432 312a24 24 0 1 0 24 24 24 24 0 0 0-24-24z" class="fa-primary"/></svg>