<svg xmlns="http://www.w3.org/2000/svg" viewBox="0 0 288 512"><!-- Font Awesome Pro 5.15.4 by @fontawesome - https://fontawesome.com License - https://fontawesome.com/license (Commercial License) --><defs><style>.fa-secondary{opacity:.4}</style></defs><path d="M144 256a80 80 0 1 1 80-80 80 80 0 0 1-80 80z" class="fa-secondary"/><path d="M284.37 144A144 144 0 1 0 112 316.41V468a12 12 0 0 0 12 12h40a12 12 0 0 0 12-12V316.41A144 144 0 0 0 284.37 144zM144 256a80 80 0 1 1 80-80 80 80 0 0 1-80 80z" class="fa-primary"/></svg>