<svg xmlns="http://www.w3.org/2000/svg" viewBox="0 0 384 512"><!-- Font Awesome Pro 5.15.4 by @fontawesome - https://fontawesome.com License - https://fontawesome.com/license (Commercial License) --><defs><style>.fa-secondary{opacity:.4}</style></defs><path d="M335 63h-80a64 64 0 0 1 64 64H63a64 64 0 0 1 64-64H47a48 48 0 0 0-48 48v352a48 48 0 0 0 48 48h288a48 48 0 0 0 48-48V111a48 48 0 0 0-48-48zm-47 281a8 8 0 0 1-8 8h-56v56a8 8 0 0 1-8 8h-48a8 8 0 0 1-8-8v-56h-56a8 8 0 0 1-8-8v-48a8 8 0 0 1 8-8h56v-56a8 8 0 0 1 8-8h48a8 8 0 0 1 8 8v56h56a8 8 0 0 1 8 8z" class="fa-secondary"/><path d="M255 63a64 64 0 0 0-128 0 64 64 0 0 0-64 64h256a64 64 0 0 0-64-64zm-64 24a24 24 0 1 1 24-24 23.94 23.94 0 0 1-24 24zm89 201h-56v-56a8 8 0 0 0-8-8h-48a8 8 0 0 0-8 8v56h-56a8 8 0 0 0-8 8v48a8 8 0 0 0 8 8h56v56a8 8 0 0 0 8 8h48a8 8 0 0 0 8-8v-56h56a8 8 0 0 0 8-8v-48a8 8 0 0 0-8-8z" class="fa-primary"/></svg>