<svg xmlns="http://www.w3.org/2000/svg" viewBox="0 0 512 512"><!-- Font Awesome Pro 5.15.4 by @fontawesome - https://fontawesome.com License - https://fontawesome.com/license (Commercial License) --><defs><style>.fa-secondary{opacity:.4}</style></defs><path d="M500 96a12 12 0 0 0 12-12V44a12 12 0 0 0-12-12h-40a12 12 0 0 0-12 12v20H64V44a12 12 0 0 0-12-12H12A12 12 0 0 0 0 44v40a12 12 0 0 0 12 12h20v320H12a12 12 0 0 0-12 12v40a12 12 0 0 0 12 12h40a12 12 0 0 0 12-12v-20h384v20a12 12 0 0 0 12 12h40a12 12 0 0 0 12-12v-40a12 12 0 0 0-12-12h-20V96zm-84 276a12 12 0 0 1-12 12H236a12 12 0 0 1-12-12v-84H108a12 12 0 0 1-12-12V140a12 12 0 0 1 12-12h168a12 12 0 0 1 12 12v84h116a12 12 0 0 1 12 12z" class="fa-secondary"/><path d="M288 140v136a12 12 0 0 1-12 12H108a12 12 0 0 1-12-12V140a12 12 0 0 1 12-12h168a12 12 0 0 1 12 12z" class="fa-primary"/></svg>