<svg xmlns="http://www.w3.org/2000/svg" viewBox="0 0 512 512"><!-- Font Awesome Pro 5.15.4 by @fontawesome - https://fontawesome.com License - https://fontawesome.com/license (Commercial License) --><defs><style>.fa-secondary{opacity:.4}</style></defs><path d="M497.9 150.6L361.43 14.1A48 48 0 0 0 327.54 0H184.46a48 48 0 0 0-33.89 14.1L14.1 150.5A48 48 0 0 0 0 184.4v143.1a48 48 0 0 0 14.1 33.9l136.47 136.5a48 48 0 0 0 33.89 14.1h143.08a48 48 0 0 0 33.89-14.1L497.9 361.4a48 48 0 0 0 14.1-33.9v-143a48 48 0 0 0-14.1-33.9zM424.39 323L323 424.38a26 26 0 0 1-18.35 7.62h-97.3a26 26 0 0 1-18.35-7.62L87.61 323A26 26 0 0 1 80 304.62v-97.33a26 26 0 0 1 7.62-18.39L189 87.61A26 26 0 0 1 207.35 80h97.3A26 26 0 0 1 323 87.62L424.39 189a26 26 0 0 1 7.61 18.38v97.24a26 26 0 0 1-7.61 18.38z" class="fa-secondary"/><path d="M432 207.38v97.24a26 26 0 0 1-7.61 18.38L323 424.38a26 26 0 0 1-18.35 7.62h-97.3a26 26 0 0 1-18.35-7.62L87.61 323A26 26 0 0 1 80 304.62v-97.33a26 26 0 0 1 7.62-18.39L189 87.61A26 26 0 0 1 207.35 80h97.3A26 26 0 0 1 323 87.62L424.39 189a26 26 0 0 1 7.61 18.38z" class="fa-primary"/></svg>