<svg xmlns="http://www.w3.org/2000/svg" viewBox="0 0 512 512"><!-- Font Awesome Pro 5.15.4 by @fontawesome - https://fontawesome.com License - https://fontawesome.com/license (Commercial License) --><defs><style>.fa-secondary{opacity:.4}</style></defs><path d="M512 440v48a24 24 0 0 1-24 24H352a32 32 0 0 1-32-32v-42.92a57.66 57.66 0 0 1 4-21.08h164a24 24 0 0 1 24 24zM24 416a24 24 0 0 0-24 24v48a24 24 0 0 0 24 24h136a32 32 0 0 0 32-32v-42.7a56.91 56.91 0 0 0-4.15-21.3z" class="fa-secondary"/><path d="M56.61 416A254 254 0 0 1 0 256C0 104.82 131.74-16.18 286.45 1.77 399.19 14.85 492.12 104.36 509 216.6c11.41 75.72-10.75 146.23-53.64 199.4H324a63 63 0 0 1 22.92-28.62A159.66 159.66 0 0 0 416 256c0-99.51-91.32-178.1-194.56-156.36-62.49 13.16-112.1 65.08-123 128-11.3 65.36 17.46 125.15 65.68 159.07A66.53 66.53 0 0 1 187.85 416H56.61z" class="fa-primary"/></svg>