<svg xmlns="http://www.w3.org/2000/svg" viewBox="0 0 640 512"><!-- Font Awesome Pro 5.15.4 by @fontawesome - https://fontawesome.com License - https://fontawesome.com/license (Commercial License) --><defs><style>.fa-secondary{opacity:.4}</style></defs><path d="M544 192h-22.86l-92.47 49.79.19.39-.86-.18-34.57-70.71L512 112h126.67A96 96 0 0 1 544 192z" class="fa-secondary"/><path d="M512 352h-28.22l-54.92-109.82-.86-.18-34.57-70.71L512 112h126.67A97 97 0 0 0 640 96V64a32 32 0 0 0-32-32h-32l-13.25-13.25A64 64 0 0 0 517.49 0H497a64 64 0 0 0-31.75 8.43L312 96h-56C150 96 64 182 64 288v1.61c0 32.75-16 62.14-39.56 84.89a79.91 79.91 0 0 0-23.19 71.8C8 485.1 44.15 512 83.53 512H192a32 32 0 0 0 0-64H80a16 16 0 0 1 0-32h224a16 16 0 0 0 16-16v-16a32 32 0 0 0-32-32h-64l149.49-80.5L448 416h80a16 16 0 0 0 16-16v-16a32 32 0 0 0-32-32zm0-304a16 16 0 1 1-16 16 16 16 0 0 1 16-16z" class="fa-primary"/></svg>