<svg xmlns="http://www.w3.org/2000/svg" viewBox="0 0 640 512"><!-- Font Awesome Pro 5.15.4 by @fontawesome - https://fontawesome.com License - https://fontawesome.com/license (Commercial License) --><defs><style>.fa-secondary{opacity:.4}</style></defs><path d="M560 64H400a16 16 0 0 0-16 16v160a16 16 0 0 0 16 16h160a16 16 0 0 0 16-16V80a16 16 0 0 0-16-16zM304 0H80a16 16 0 0 0-16 16v224a16 16 0 0 0 16 16h224a16 16 0 0 0 16-16V16a16 16 0 0 0-16-16z" class="fa-secondary"/><path d="M624 384a16 16 0 0 0 16-16v-32a16 16 0 0 0-16-16H16a16 16 0 0 0-16 16v32a16 16 0 0 0 16 16h48v64H16a16 16 0 0 0-16 16v32a16 16 0 0 0 16 16h608a16 16 0 0 0 16-16v-32a16 16 0 0 0-16-16h-48v-64zm-336 64H128v-64h160zm224 0H352v-64h160z" class="fa-primary"/></svg>