<svg xmlns="http://www.w3.org/2000/svg" viewBox="0 0 448 512"><!-- Font Awesome Pro 5.15.4 by @fontawesome - https://fontawesome.com License - https://fontawesome.com/license (Commercial License) --><defs><style>.fa-secondary{opacity:.4}</style></defs><path d="M171.43 319.93c-4.94 5-5.24 13.43-.65 18.29a10.66 10.66 0 0 0 15.69.16l182.85-186.85a52.37 52.37 0 0 0 0-72.79 48 48 0 0 0-69.15 0L90.39 293.3c-34.76 35.56-35.3 93.12-1.19 128.31a85.28 85.28 0 0 0 123.06.28l172.06-176a16 16 0 0 1 22.62-.26L429.82 268a16 16 0 0 1 .26 22.63L258 466.63a149.21 149.21 0 0 1-214.77-.49c-58.43-60.29-57.35-157.51 1.38-217.58L254.39 34a111.9 111.9 0 0 1 160.67 0c43.89 44.89 43.95 117.33 0 162.28L232.21 383.13a74.61 74.61 0 0 1-108-1c-28.27-30-27.37-77.47 1.45-106.95l143.77-146.84a16 16 0 0 1 22.62-.24l22.86 22.38a16 16 0 0 1 .24 22.63z" class="fa-secondary"/></svg>