<svg xmlns="http://www.w3.org/2000/svg" viewBox="0 0 496 512"><!-- Font Awesome Pro 5.15.4 by @fontawesome - https://fontawesome.com License - https://fontawesome.com/license (Commercial License) --><defs><style>.fa-secondary{opacity:.4}</style></defs><path d="M280,208H232v32h48a16,16,0,0,0,0-32ZM248,8C111,8,0,119,0,256S111,504,248,504,496,393,496,256,385,8,248,8Zm32,296H232v48a16,16,0,0,1-16,16H184a16,16,0,0,1-16-16V160a16,16,0,0,1,16-16h96a80,80,0,0,1,0,160Z" class="fa-secondary"/><path d="M280,144H184a16,16,0,0,0-16,16V352a16,16,0,0,0,16,16h32a16,16,0,0,0,16-16V304h48a80,80,0,0,0,0-160Zm0,96H232V208h48a16,16,0,0,1,0,32Z" class="fa-primary"/></svg>