<svg xmlns="http://www.w3.org/2000/svg" viewBox="0 0 448 512"><!-- Font Awesome Pro 5.15.4 by @fontawesome - https://fontawesome.com License - https://fontawesome.com/license (Commercial License) --><defs><style>.fa-secondary{opacity:.4}</style></defs><path d="M320 264V160H184a24 24 0 0 0-24 24v304a24 24 0 0 0 24 24h240a24 24 0 0 0 24-24V288H344a24.07 24.07 0 0 1-24-24zm121-31l-66-66a24 24 0 0 0-17-7h-6v96h96v-6.06a24 24 0 0 0-7-16.94z" class="fa-secondary"/><path d="M296 32h-80.61a63.94 63.94 0 0 0-110.78 0H24A24 24 0 0 0 0 56v336a24 24 0 0 0 24 24h104V184a56.06 56.06 0 0 1 56-56h136V56a24 24 0 0 0-24-24zM160 88a24 24 0 1 1 24-24 24 24 0 0 1-24 24z" class="fa-primary"/></svg>