<svg xmlns="http://www.w3.org/2000/svg" viewBox="0 0 640 512"><!-- Font Awesome Pro 5.15.4 by @fontawesome - https://fontawesome.com License - https://fontawesome.com/license (Commercial License) --><defs><style>.fa-secondary{opacity:.4}</style></defs><path d="M638.43 378.65a23.94 23.94 0 0 1-31 13.88c-8.11-3.09-14.34-.19-31.39 11.36-13.55 9.15-30.83 20.84-52.42 20.84a63.85 63.85 0 0 1-23-4.39C468 407.9 460.69 379 455.35 357.9c-2.21-8.72-4-14.49-6-18.87a194.54 194.54 0 0 1-61.62 34.16c10 37 32.28 90.81 60.22 90.81a24 24 0 0 1 0 48c-66.74 0-97.05-88.63-107.42-129.14-6.69.6-13.42 1.14-20.58 1.14s-13.89-.54-20.58-1.14C289.05 423.37 258.74 512 192 512a24 24 0 0 1 0-48c28.08 0 50.3-53.8 60.26-90.8a194.47 194.47 0 0 1-61.64-34.2c-2 4.38-3.74 10.15-6 18.87-5.35 21.11-12.67 50-45.33 62.44a63.85 63.85 0 0 1-23 4.39c-21.59 0-38.87-11.68-52.42-20.84-17.05-11.55-23.23-14.45-31.39-11.36a24 24 0 0 1-17.1-44.85c32.65-12.47 57.34 4.25 75.37 16.45 17.08 11.53 23.3 14.42 31.41 11.36s10.83-9.38 15.89-29.38c3.33-13.15 7.44-29.32 18-42.65-2.24-2.91-4.43-5.78-6.38-8.57C139.53 304.45 126.29 312 108 312c-33.95 0-50.87-25.78-62.06-42.83C35.34 253 30.94 248 24 248a24 24 0 0 1 0-48c34 0 50.88 25.78 62.06 42.83C96.66 259 101.06 264 108 264c17.15 0 37.68-61.56 97.27-101.9l-17.11-34.22c1.27.07 2.55.12 3.84.12a63.93 63.93 0 0 0 53.42-28.76l18.13 36.27a216 216 0 0 1 112.92 0l18.12-36.25A64 64 0 0 0 448 128c1.29 0 2.57 0 3.85-.13l-17.11 34.22C494.52 202.57 514.69 264 532 264c6.94 0 11.34-5 21.94-21.17C565.13 225.78 582.05 200 616 200a24 24 0 0 1 0 48c-6.94 0-11.35 5-21.94 21.17C582.87 286.22 566 312 532 312c-18.29 0-31.53-7.55-41.7-17.12-1.95 2.78-4.14 5.66-6.38 8.57 10.51 13.33 14.62 29.5 17.95 42.65 5.06 20 7.77 26.29 15.89 29.38s14.35.17 31.41-11.36c18-12.2 42.67-29 75.37-16.45a24 24 0 0 1 13.89 30.98z" class="fa-secondary"/><path d="M192 0a64 64 0 1 0 64 64 64 64 0 0 0-64-64zm0 80a16 16 0 1 1 16-16 16 16 0 0 1-16 16zM448 0a64 64 0 1 0 64 64 64 64 0 0 0-64-64zm0 80a16 16 0 1 1 16-16 16 16 0 0 1-16 16z" class="fa-primary"/></svg>