<svg xmlns="http://www.w3.org/2000/svg" viewBox="0 0 512 512"><!-- Font Awesome Pro 5.15.4 by @fontawesome - https://fontawesome.com License - https://fontawesome.com/license (Commercial License) --><defs><style>.fa-secondary{opacity:.4}</style></defs><path d="M448 456.25c0 34.9-26.81 55.75-71.74 55.75-48.41 0-80.75-25.08-120.26-25.08-39.17 0-71.42 25.08-120.26 25.08C90.81 512 64 491.15 64 456.25 64 378.76 176.59 256 256 256s192 122.76 192 200.25z" class="fa-secondary"/><path d="M320 0v75c-15.95 11.26-29.49 30.37-36 54.29-11.84 43.42 3.64 85.22 34.58 93.36s65.62-20.45 77.46-63.87c8.44-30.94 3-61.05-12-78.75zm173.51 190.37L448 128v66.94c-19.83 6.55-37.51 24.43-44.72 48.46-10.4 34.65 4.77 68.38 33.89 75.34s61.15-15.48 71.56-50.13a76 76 0 0 0 3.27-21.52 96.28 96.28 0 0 0-18.49-56.72zM192 75V0l-64 80c-15 17.7-20.45 47.82-12 78.75 11.84 43.42 46.53 72 77.46 63.87s46.42-49.94 34.58-93.36C221.49 105.33 208 86.21 192 75zM64 195v-67l-45.51 62.37A96.2 96.2 0 0 0 0 247.09a76.09 76.09 0 0 0 3.28 21.52c10.4 34.65 42.44 57.09 71.56 50.13s44.28-40.7 33.88-75.35c-7.21-24.03-24.89-41.91-44.72-48.46z" class="fa-primary"/></svg>