<svg xmlns="http://www.w3.org/2000/svg" viewBox="0 0 512 512"><!-- Font Awesome Pro 5.15.4 by @fontawesome - https://fontawesome.com License - https://fontawesome.com/license (Commercial License) --><defs><style>.fa-secondary{opacity:.4}</style></defs><path d="M448 424.26c0 34.9-26.81 55.75-71.74 55.75-48.41 0-80.75-25.08-120.26-25.08-39.17 0-71.42 25.08-120.26 25.08C90.82 480 64 459.16 64 424.26 64 346.77 176.6 224 256 224s192 122.77 192 200.26z" class="fa-secondary"/><path d="M474.84 161.28c-29.12-7-61.15 15.48-71.56 50.13s4.77 68.38 33.89 75.34 61.15-15.48 71.56-50.13-4.73-68.38-33.89-75.34zm-437.67 0C8.05 168.23-7.12 202 3.28 236.61s42.44 57.09 71.56 50.13 44.29-40.69 33.89-75.34-42.44-57.09-71.56-50.13zm113.4-127.89c-30.94 8.14-46.42 49.94-34.58 93.36s46.53 72 77.46 63.87 46.42-49.94 34.55-93.36-46.49-72.01-77.43-63.87zm210.88 0c-30.94-8.15-65.62 20.45-77.45 63.87s3.64 85.22 34.58 93.36 65.62-20.45 77.46-63.87-3.65-85.21-34.59-93.36z" class="fa-primary"/></svg>