<svg xmlns="http://www.w3.org/2000/svg" viewBox="0 0 576 512"><!-- Font Awesome Pro 5.15.4 by @fontawesome - https://fontawesome.com License - https://fontawesome.com/license (Commercial License) --><defs><style>.fa-secondary{opacity:.4}</style></defs><path d="M64.36 215.74A39.92 39.92 0 0 0 48 248v56a16 16 0 0 1-16 16H16a16 16 0 0 1-16-16v-56a88 88 0 0 1 88-88h.46a95.62 95.62 0 0 0-24.1 55.74z" class="fa-secondary"/><path d="M567.34 54.8c-3.78-4-8.58-9.12-13.69-14.5 11.06-6.84 19.5-17.49 22.18-30.66A8.09 8.09 0 0 0 567.9 0h-120a128 128 0 0 0-128 128c-63.9 0-104.18-36.78-127.64-90.27-3.22-7.35-13.61-7.76-17-.5A158.37 158.37 0 0 0 160 105.1c0 67 51 133.09 128 147.74V256c-82.89 0-143.33-57.52-157-122.86q-1.5.49-3 1v-.7a95.72 95.72 0 0 0-33.46 160.44l-25.72 68.6a63.94 63.94 0 0 0-2.16 38l24.85 99.41A16 16 0 0 0 107 512h66a16 16 0 0 0 15.52-19.88l-26.33-105.26L186 323.27l134 22.33V496a16 16 0 0 0 16 16h64a16 16 0 0 0 16-16V318.22A111.55 111.55 0 0 0 448 240c0-.22-.07-.42-.08-.64V136.89l16 7.11 18.9 37.7a32 32 0 0 0 40.49 15.37l32.55-13A32 32 0 0 0 576 154.31l-.06-77.71a31.76 31.76 0 0 0-8.6-21.8zM511.92 96a16 16 0 1 1 16-16 16 16 0 0 1-16 16z" class="fa-primary"/></svg>