<svg xmlns="http://www.w3.org/2000/svg" viewBox="0 0 512 512"><!-- Font Awesome Pro 5.15.4 by @fontawesome - https://fontawesome.com License - https://fontawesome.com/license (Commercial License) --><defs><style>.fa-secondary{opacity:.4}</style></defs><path d="M163.25 249.87l98.88 98.88-33.07 84.07a32 32 0 0 1-20.24 20.24L32 512l-4.68-4.68 92.89-92.89c2.56.66 5 1.57 7.8 1.57a32 32 0 1 0-32-32c0 2.77.91 5.24 1.57 7.8L4.69 484.69 0 480l58.94-176.82a32 32 0 0 1 20.24-20.24z" class="fa-secondary"/><path d="M483.48 142.55L284 325.66l-97.85-97.85 183.1-199.49c74.48-84.26 199.15 39.16 114.23 114.23z" class="fa-primary"/></svg>