<svg xmlns="http://www.w3.org/2000/svg" viewBox="0 0 448 512"><!-- Font Awesome Pro 5.15.4 by @fontawesome - https://fontawesome.com License - https://fontawesome.com/license (Commercial License) --><defs><style>.fa-secondary{opacity:.4}</style></defs><path d="M400 32H48A48 48 0 0 0 0 80v352a48 48 0 0 0 48 48h352a48 48 0 0 0 48-48V80a48 48 0 0 0-48-48zm-97.8 210L166.5 377.7l-57.1 6.3a12.11 12.11 0 0 1-13.3-13.3l6.3-57.1 135.7-135.7a6.13 6.13 0 0 1 8.6.1l55.5 55.5a6.1 6.1 0 0 1 0 8.5zm42.8-43l-23.1 23.1a6.1 6.1 0 0 1-8.5 0l-55.5-55.5a6.1 6.1 0 0 1 0-8.5L281 135a23.9 23.9 0 0 1 33.9 0l30.1 30.1a24.08 24.08 0 0 1 0 33.9z" class="fa-secondary"/><path d="M345 165.1L314.9 135a23.9 23.9 0 0 0-33.9 0l-23.1 23.1a6.1 6.1 0 0 0 0 8.5l55.5 55.5a6.1 6.1 0 0 0 8.5 0L345 199a24.08 24.08 0 0 0 0-33.9zM246.7 178a6.13 6.13 0 0 0-8.6-.1L102.4 313.6l-6.3 57.1a12.11 12.11 0 0 0 13.3 13.3l57.1-6.3L302.2 242a6.1 6.1 0 0 0 0-8.5z" class="fa-primary"/></svg>