<svg xmlns="http://www.w3.org/2000/svg" viewBox="0 0 512 512"><!-- Font Awesome Pro 5.15.4 by @fontawesome - https://fontawesome.com License - https://fontawesome.com/license (Commercial License) --><defs><style>.fa-secondary{opacity:.4}</style></defs><path d="M96 352H32l-16 64 80 80 64-16v-64H96zM498 74.26l-.11-.11L437.77 14a48.09 48.09 0 0 0-67.9 0l-46.1 46.1a12 12 0 0 0 0 17l111 111a12 12 0 0 0 17 0l46.1-46.1a47.93 47.93 0 0 0 .13-67.74z" class="fa-secondary"/><path d="M.37 483.85a24 24 0 0 0 19.47 27.8 24.27 24.27 0 0 0 8.33 0l67.32-16.16-79-79zM412.3 210.78l-111-111a12.13 12.13 0 0 0-17.1 0L32 352h64v64h64v64l252.27-252.25a12 12 0 0 0 .03-16.97zm-114.41-24.93l-154 154a14 14 0 1 1-19.8-19.8l154-154a14 14 0 1 1 19.8 19.8z" class="fa-primary"/></svg>