<svg xmlns="http://www.w3.org/2000/svg" viewBox="0 0 640 512"><!-- Font Awesome Pro 5.15.4 by @fontawesome - https://fontawesome.com License - https://fontawesome.com/license (Commercial License) --><defs><style>.fa-secondary{opacity:.4}</style></defs><path d="M512 0a48 48 0 1 0 48 48 48 48 0 0 0-48-48zM128 0a48 48 0 1 0 48 48 48 48 0 0 0-48-48zm272 128H240a16 16 0 0 0-16 16v171.59c4.63 2.49 11.33 3.95 16 4.32h160c4.67-.37 11.35-1.83 16-4.3V143.7a16 16 0 0 0-16-15.7z" class="fa-secondary"/><path d="M637.71 468.1l-44-110-41.09 46.4-2 18.2 27.69 69.2A32 32 0 0 0 608 512a31.09 31.09 0 0 0 11.9-2.3 32 32 0 0 0 17.81-41.6zm-591.4-110l-44 110a32 32 0 0 0 59.4 23.8l27.71-69.2-2-18.2zm150.31-162.2a108.86 108.86 0 0 0-48.1-59.4 61.72 61.72 0 0 0-56.1-3.3 64.81 64.81 0 0 0-37.5 44.9l-18.4 80.2a64 64 0 0 0 14.4 56.7l67.2 75.9 10.09 92.6A32 32 0 0 0 160 512c1.19 0 2.29-.1 3.5-.2a31.94 31.94 0 0 0 28.29-35.3l-10.1-92.8a64 64 0 0 0-15.59-35l-43.31-49 17.61-70.3 6.79 20.4c4.1 12.5 11.91 23.4 24.5 32.6l51.1 32.5c.38.24.78.46 1.19.68V240l-16.06-10.2zm406.9 62.4L585 178.1a64.81 64.81 0 0 0-37.5-44.9 61.7 61.7 0 0 0-56.1 3.3 109.53 109.53 0 0 0-48.11 59.4L432 229.8 416 240v75.6c.42-.23.83-.46 1.21-.7l51.1-32.5c12.61-9.2 20.4-20 24.5-32.6l6.81-20.4 17.59 70.3-43.29 49a63.86 63.86 0 0 0-15.61 35l-10.1 92.8a32 32 0 0 0 28.31 35.3c1.19.1 2.29.2 3.5.2a32 32 0 0 0 31.79-28.5l10.11-92.6 67.19-75.9a64.4 64.4 0 0 0 14.41-56.7z" class="fa-primary"/></svg>