<svg xmlns="http://www.w3.org/2000/svg" viewBox="0 0 512 512"><!-- Font Awesome Pro 5.15.4 by @fontawesome - https://fontawesome.com License - https://fontawesome.com/license (Commercial License) --><defs><style>.fa-secondary{opacity:.4}</style></defs><path d="M0 456a56 56 0 0 1 56-56c141.58 0 163.44-181.24 221.92-250.82l52.75 24.22v89.7h107.46l37.05 38.54C426.65 389.11 268.64 512 56 512a56 56 0 0 1-56-56z" class="fa-secondary"/><path d="M362.67 152.86L288 118.57c22.34-14 48.34-22.59 76.34-22.59a142.91 142.91 0 0 1 57.16 12c18.45-37.22 8.26-62 1.4-72.32a8.07 8.07 0 0 1 .89-10.23l22.9-23a6.67 6.67 0 0 1 .68-.62A8 8 0 0 1 458.62 3c18.56 23.48 35.3 71.91 3.14 131.75A154 154 0 0 1 512 248.67c0 13.68-2.3 26.69-5.56 39.31l-54.68-56.88h-89.09z" class="fa-primary"/></svg>