<svg xmlns="http://www.w3.org/2000/svg" viewBox="0 0 448 512"><!-- Font Awesome Pro 5.15.4 by @fontawesome - https://fontawesome.com License - https://fontawesome.com/license (Commercial License) --><defs><style>.fa-secondary{opacity:.4}</style></defs><path d="M336 288a112 112 0 1 0 112 112 111.94 111.94 0 0 0-112-112zm0 160a48 48 0 1 1 48-48 48 48 0 0 1-48 48zM112 0a112 112 0 1 0 112 112A111.94 111.94 0 0 0 112 0zm0 160a48 48 0 1 1 48-48 48 48 0 0 1-48 48z" class="fa-secondary"/><path d="M4.7 474.1l368-463.7A24 24 0 0 1 392.3.2l31.6-.1c19.4-.1 30.9 21.8 19.7 37.8L77.4 501.6a24 24 0 0 1-19.6 10.2l-33.4.1c-19.5 0-30.9-21.9-19.7-37.8z" class="fa-primary"/></svg>