<svg xmlns="http://www.w3.org/2000/svg" viewBox="0 0 384 512"><!-- Font Awesome Pro 5.15.4 by @fontawesome - https://fontawesome.com License - https://fontawesome.com/license (Commercial License) --><defs><style>.fa-secondary{opacity:.4}</style></defs><path d="M365.25 338.74a64 64 0 1 0 0 90.51 64 64 0 0 0 0-90.51zm-346.51-256a64 64 0 1 0 90.51 0 64 64 0 0 0-90.51 0z" class="fa-secondary"/><path d="M363.31 152.56L88.56 427.31a32 32 0 0 1-45.25 0l-22.62-22.62a32 32 0 0 1 0-45.25L295.44 84.69a32 32 0 0 1 45.25 0l22.62 22.62a32 32 0 0 1 0 45.25z" class="fa-primary"/></svg>