<svg xmlns="http://www.w3.org/2000/svg" viewBox="0 0 512 512"><!-- Font Awesome Pro 5.15.4 by @fontawesome - https://fontawesome.com License - https://fontawesome.com/license (Commercial License) --><defs><style>.fa-secondary{opacity:.4}</style></defs><path d="M144 0a48 48 0 1 0 48 48 48.08 48.08 0 0 0-48-48zm357.5 66.6L321.08 1a16 16 0 0 0-20.5 9.6l-43.8 120.3a16 16 0 0 0 9.6 20.5l180.5 65.6a16 16 0 0 0 20.5-9.6L511 87.1a15.93 15.93 0 0 0-9.52-20.5z" class="fa-secondary"/><path d="M321 212l-47.8-16-49.3-49.3a63.47 63.47 0 0 0-45.2-18.8h-62.9a63.63 63.63 0 0 0-57.2 35.4L3.38 273.7a32 32 0 1 0 57.2 28.6L80 263.6v54.8L64.08 476.8a32 32 0 0 0 28.6 35c1.1.1 2.2.2 3.2.2a32.05 32.05 0 0 0 31.8-28.8l13.2-131.2h15.3L192 423.5V480a32 32 0 0 0 64 0v-56.5a64.27 64.27 0 0 0-6.7-28.6l-41.2-82.5v-91.2l20 20a65 65 0 0 0 25 15.5l46.1 15.4-11.2 30.8a16 16 0 0 0 9.6 20.5l15 5.5a16 16 0 0 0 20.5-9.6l46.19-126.87L334 176zM429.68 6.5l-15-5.5a16 16 0 0 0-20.5 9.6l-5.49 15 45.1 16.4 5.49-15a16 16 0 0 0-9.6-20.5z" class="fa-primary"/></svg>