<svg xmlns="http://www.w3.org/2000/svg" viewBox="0 0 512 512"><!-- Font Awesome Pro 5.15.4 by @fontawesome - https://fontawesome.com License - https://fontawesome.com/license (Commercial License) --><defs><style>.fa-secondary{opacity:.4}</style></defs><path d="M80 0h-.1a48.05 48.05 0 1 0 .1 0zm431.74 404.82l-8.2-30.9a8 8 0 0 0-9.77-5.7l-154.1 41.3a63.57 63.57 0 0 0-40.9-24.5l-59.4-221.6a8 8 0 0 0-9.77-5.7l-30.9 8.3a8 8 0 0 0-5.71 9.77l58.9 220a63.87 63.87 0 1 0 100 60.1L506 414.58a8 8 0 0 0 5.74-9.76zM288.73 464a16 16 0 1 1 16-16 16 16 0 0 1-16 16z" class="fa-secondary"/><path d="M0 479.9a32 32 0 0 0 64 0v-74.5C48 391.7.5 350.8 0 350.3zm205.7-256h-39l-33.3-61.8a63.83 63.83 0 0 0-56.7-34.2H48a48 48 0 0 0-48 48v103a64.07 64.07 0 0 0 22.4 48.6l76 65.1 14.1 92.5c1 5.7 10.1 30.7 36.8 26.3a32 32 0 0 0 26.3-36.8l-14.1-92.5A64.4 64.4 0 0 0 140 344l-44-37.7V228l32 59.9h94.8z" class="fa-primary"/></svg>