<svg xmlns="http://www.w3.org/2000/svg" viewBox="0 0 576 512"><!-- Font Awesome Pro 5.15.4 by @fontawesome - https://fontawesome.com License - https://fontawesome.com/license (Commercial License) --><defs><style>.fa-secondary{opacity:.4}</style></defs><path d="M192 32v160h64V0h-32a32 32 0 0 0-32 32zm0 464a16 16 0 0 0 16 16h32a16 16 0 0 0 16-16V320h-64zM64 32a48 48 0 1 0 48 48 48 48 0 0 0-48-48zM544 0h-32v496a16 16 0 0 0 16 16h32a16 16 0 0 0 16-16V32a32 32 0 0 0-32-32z" class="fa-secondary"/><path d="M288 0v32l31.5 223.1-30.9 154.6c-4.3 21.6 13 38.3 31.4 38.3 15.2 0 28-9.1 32.3-30.4A31.87 31.87 0 0 0 416 416a32 32 0 0 0 64 0V0zm-64 224h-50.9l-45.2-45.3A63.55 63.55 0 0 0 82.7 160H64a64 64 0 0 0-64 64.1L.2 320 0 480a32 32 0 1 0 63.9 0l.1-100.7c.9.5 1.6 1.3 2.5 1.7l29.1 43v56a32 32 0 0 0 64 0v-56.5a64.27 64.27 0 0 0-6.7-28.6l-41.2-61.3V253l20.9 20.9a47.58 47.58 0 0 0 33.9 14.1H224a32 32 0 0 0 0-64z" class="fa-primary"/></svg>