<svg xmlns="http://www.w3.org/2000/svg" viewBox="0 0 448 512"><!-- Font Awesome Pro 5.15.4 by @fontawesome - https://fontawesome.com License - https://fontawesome.com/license (Commercial License) --><defs><style>.fa-secondary{opacity:.4}</style></defs><path d="M400 32H48A48 48 0 0 0 0 80v352a48 48 0 0 0 48 48h352a48 48 0 0 0 48-48V80a48 48 0 0 0-48-48zm-16.38 307.37l-15 65A15 15 0 0 1 354 416C194 416 64 286.29 64 126a15 15 0 0 1 11.63-14.61l65-15a15 15 0 0 1 17.16 8.7l30 70a15 15 0 0 1-4.29 17.52l-37.89 31A231.94 231.94 0 0 0 256.4 334.39l31-37.89a15 15 0 0 1 17.52-4.29l70 30a15 15 0 0 1 8.7 17.16z" class="fa-secondary"/><path d="M383.62 339.37l-15 65A15 15 0 0 1 354 416C193.94 416 64 286.29 64 126a15 15 0 0 1 11.63-14.61l65-15a15 15 0 0 1 17.16 8.7l30 70a15 15 0 0 1-4.29 17.52l-37.89 31a231.92 231.92 0 0 0 110.78 110.78l31-37.89a15 15 0 0 1 17.52-4.29l70 30a15 15 0 0 1 8.71 17.16z" class="fa-primary"/></svg>