<svg xmlns="http://www.w3.org/2000/svg" viewBox="0 0 512 512"><!-- Font Awesome Pro 5.15.4 by @fontawesome - https://fontawesome.com License - https://fontawesome.com/license (Commercial License) --><defs><style>.fa-secondary{opacity:.4}</style></defs><path d="M191.18 154.51a23.9 23.9 0 0 0 6.91-28l-48-112a24.16 24.16 0 0 0-27.5-13.9L106 4.43l69.73 162.69zm153.6 181.62l162.81 69.77 3.8-16.49a24.3 24.3 0 0 0-14-27.61l-112-48a24 24 0 0 0-28 6.91zM0 48c0 256.5 207.9 464 464 464a24 24 0 0 0 23.4-18.59l12.89-55.82-176.61-75.69-15.88 19.4a370.59 370.59 0 0 1-177.21-177.2L150 188.23 74.34 11.74 18.59 24.61A24 24 0 0 0 0 48z" class="fa-secondary"/><path d="M74.34 11.74L150 188.23l25.79-21.11L106 4.43zm270.44 324.39l-21.1 25.77 176.6 75.69 7.31-31.69z" class="fa-primary"/></svg>