<svg xmlns="http://www.w3.org/2000/svg" viewBox="0 0 384 512"><!-- Font Awesome Pro 5.15.4 by @fontawesome - https://fontawesome.com License - https://fontawesome.com/license (Commercial License) --><defs><style>.fa-secondary{opacity:.4}</style></defs><path d="M292.94 49.23a12.06 12.06 0 0 0-17.85-1.31l-5.82 5.58A12 12 0 0 0 268 69.43a96.12 96.12 0 0 1 0 117.14 12 12 0 0 0 1.29 15.93l5.82 5.58a12.06 12.06 0 0 0 17.85-1.31 128.18 128.18 0 0 0-.02-157.54zm46-44.94a12 12 0 0 0-17.55-.94l-5.8 5.56a12 12 0 0 0-.93 16.38 160.22 160.22 0 0 1 0 205.42 12 12 0 0 0 .93 16.38l5.8 5.56a12 12 0 0 0 17.55-.94 192.25 192.25 0 0 0-.03-247.42zm-110.5 88.6l-6 5.73a12.09 12.09 0 0 0-2.27 14.38 32 32 0 0 1 0 29.94 12.09 12.09 0 0 0 2.26 14.41l6 5.73a12.05 12.05 0 0 0 18.72-2.58 64.07 64.07 0 0 0 0-65.06 12.05 12.05 0 0 0-18.74-2.55z" class="fa-secondary"/><path d="M84.38 182.24a265.55 265.55 0 0 0 0 179.52l55.81-5.58a17.18 17.18 0 0 1 17.67 10.71l32.4 81a17.17 17.17 0 0 1-6.85 20.95l-64.81 40.55A17.2 17.2 0 0 1 97.33 507c-129.87-129.91-129.68-340.29 0-470a17.2 17.2 0 0 1 21.27-2.42l64.81 40.51a17.18 17.18 0 0 1 6.85 21l-32.41 81a17.18 17.18 0 0 1-17.66 10.72z" class="fa-primary"/></svg>