<svg xmlns="http://www.w3.org/2000/svg" viewBox="0 0 448 512"><!-- Font Awesome Pro 5.15.4 by @fontawesome - https://fontawesome.com License - https://fontawesome.com/license (Commercial License) --><defs><style>.fa-secondary{opacity:.4}</style></defs><path d="M400 32H48A48 48 0 0 0 0 80v352a48 48 0 0 0 48 48h352a48 48 0 0 0 48-48V80a48 48 0 0 0-48-48zM94 416a15 15 0 0 1-14.62-11.63l-15-65a15 15 0 0 1 8.7-17.16l70-30a15 15 0 0 1 17.52 4.29l31 37.89a231.87 231.87 0 0 0 110.79-110.78l-37.89-31a15 15 0 0 1-4.29-17.52l30-70a15 15 0 0 1 17.16-8.7l65 15A15 15 0 0 1 384 126c0 160.29-129.95 290-290 290z" class="fa-secondary"/><path d="M73.09 322.21l70-30a15 15 0 0 1 17.52 4.29l31 37.89a231.91 231.91 0 0 0 110.78-110.78l-37.89-31a15 15 0 0 1-4.29-17.52l30-70a15 15 0 0 1 17.16-8.7l65 15A15 15 0 0 1 384 126c0 160.29-129.94 290-290 290a15 15 0 0 1-14.62-11.63l-15-65a15 15 0 0 1 8.71-17.16z" class="fa-primary"/></svg>