<svg xmlns="http://www.w3.org/2000/svg" viewBox="0 0 576 512"><!-- Font Awesome Pro 5.15.4 by @fontawesome - https://fontawesome.com License - https://fontawesome.com/license (Commercial License) --><defs><style>.fa-secondary{opacity:.4}</style></defs><path d="M576 224v192a32 32 0 0 1-32 32H32a32 32 0 0 1-32-32V224h48v176h480V224z" class="fa-secondary"/><path d="M576 96v128H464v80a16 16 0 0 1-16 16h-32a16 16 0 0 1-16-16v-80h-80v80a16 16 0 0 1-16 16h-32a16 16 0 0 1-16-16v-80h-80v80a16 16 0 0 1-16 16h-32a16 16 0 0 1-16-16v-80H0V96a32 32 0 0 1 32-32h512a32 32 0 0 1 32 32z" class="fa-primary"/></svg>