<svg xmlns="http://www.w3.org/2000/svg" viewBox="0 0 576 512"><!-- Font Awesome Pro 5.15.4 by @fontawesome - https://fontawesome.com License - https://fontawesome.com/license (Commercial License) --><defs><style>.fa-secondary{opacity:.4}</style></defs><path d="M88.75 426.08l-31-92.88c32.91-6.57 51.26-23.5 59.6-29.2h.22c10.17 7 36.21 32 85.34 32 50.09 0 78-27 85.28-32h.08c10.11 7 36.2 32 85.26 32s75.13-25.06 85.25-32h.06c7 4.8 26.35 22.58 59.46 29.2l-31 92.88A32 32 0 0 1 456.94 448H119.07a32 32 0 0 1-30.32-21.92z" class="fa-secondary"/><path d="M544 240c-6.44 0-10.37-1.2-14.47-3.52C494.93 136.17 400.07 64 288 64S81 136.21 46.45 236.55c-4.07 2.28-8 3.45-14.45 3.45a32 32 0 0 0 0 64c32 0 50-13.47 61.92-22.39 9.08-6.8 12.83-9.61 23.53-9.61s14.47 2.81 23.55 9.61c11.91 8.92 29.89 22.39 61.91 22.39s50-13.48 61.88-22.41c9-6.78 12.8-9.59 23.45-9.59s14.39 2.81 23.44 9.59c11.89 8.92 29.86 22.41 61.86 22.41s49.95-13.48 61.84-22.41c9.05-6.78 12.8-9.59 23.44-9.59s14.34 2.81 23.38 9.58C494.06 290.52 512 304 544 304a32 32 0 0 0 0-64zm-337.69-88.84l-16 32c-9.44 18.83-38.17 4.79-28.62-14.31l16-32c9.53-18.85 38.09-4.63 28.62 14.31zM304 176c0 21.17-32 21.18-32 0v-32c0-21.17 32-21.18 32 0zm81.69 7.16l-16-32c-9.48-18.95 19.13-33.19 28.62-14.31l16 32c9.53 19.05-19.17 33.15-28.62 14.31z" class="fa-primary"/></svg>