<svg xmlns="http://www.w3.org/2000/svg" viewBox="0 0 512 512"><!-- Font Awesome Pro 5.15.4 by @fontawesome - https://fontawesome.com License - https://fontawesome.com/license (Commercial License) --><defs><style>.fa-secondary{opacity:.4}</style></defs><path d="M100.39 112.19L.54 491.64a16.2 16.2 0 0 0 20 19.75l379-105.1c-4.27-174.89-123.08-292.14-299.15-294.1zM128 416a32 32 0 1 1 32-32 32 32 0 0 1-32 32zm48-152a32 32 0 1 1 32-32 32 32 0 0 1-32 32zm104 104a32 32 0 1 1 32-32 32 32 0 0 1-32 32z" class="fa-secondary"/><path d="M128 352a32 32 0 1 0 32 32 32 32 0 0 0-32-32zm48-152a32 32 0 1 0 32 32 32 32 0 0 0-32-32zm335.76 145.86C490.88 165.08 340.77 17.32 158.86.15c-16.16-1.52-31.2 8.42-35.33 24.12l-14.81 56.27c187.62 5.46 314.54 130.61 322.48 317l56.94-15.78c15.72-4.36 25.49-19.68 23.62-35.9zM280 304a32 32 0 1 0 32 32 32 32 0 0 0-32-32z" class="fa-primary"/></svg>