<svg xmlns="http://www.w3.org/2000/svg" viewBox="0 0 640 512"><!-- Font Awesome Pro 5.15.4 by @fontawesome - https://fontawesome.com License - https://fontawesome.com/license (Commercial License) --><defs><style>.fa-secondary{opacity:.4}</style></defs><path d="M620.61 366.55L512 320v192h112a16 16 0 0 0 16-16V396a32 32 0 0 0-19.39-29.45zM0 396v100a16 16 0 0 0 16 16h112V320L19.39 366.55A32 32 0 0 0 0 396z" class="fa-secondary"/><path d="M416 102.63v115l48.46 29.08A32 32 0 0 1 480 274.12V512h-96v-96a64 64 0 0 0-128 0v96h-96V274.12a32 32 0 0 1 15.54-27.44L224 217.6v-115a32 32 0 0 1 9.38-22.6l75.31-75.31a16 16 0 0 1 22.62 0L406.62 80a32 32 0 0 1 9.38 22.63z" class="fa-primary"/></svg>