<svg xmlns="http://www.w3.org/2000/svg" viewBox="0 0 576 512"><!-- Font Awesome Pro 5.15.4 by @fontawesome - https://fontawesome.com License - https://fontawesome.com/license (Commercial License) --><defs><style>.fa-secondary{opacity:.4}</style></defs><path d="M214.86 192h150.85L260.61 8.06A16 16 0 0 0 246.71 0h-65.5a16 16 0 0 0-15.38 20.39zm-49 299.6a16 16 0 0 0 15.35 20.4h65.5a16 16 0 0 0 13.89-8.06L365.71 320H214.86z" class="fa-secondary"/><path d="M480 320H112l-43.2 57.6A16 16 0 0 1 56 384H16A16 16 0 0 1 .49 364.12L32 256 .49 147.88A16 16 0 0 1 16 128h40a16 16 0 0 1 12.8 6.4L112 192h368c35.35 0 96 28.65 96 64s-60.65 64-96 64z" class="fa-primary"/></svg>