<svg xmlns="http://www.w3.org/2000/svg" viewBox="0 0 640 512"><!-- Font Awesome Pro 5.15.4 by @fontawesome - https://fontawesome.com License - https://fontawesome.com/license (Commercial License) --><defs><style>.fa-secondary{opacity:.4}</style></defs><path d="M32.48,147.87,64,256,32.48,364.12A16,16,0,0,0,48,384H88a16,16,0,0,0,12.8-6.41L144,320H246.85l-49,171.59A16,16,0,0,0,213.2,512h65.5a16,16,0,0,0,13.89-8.06l66.6-116.54L34.35,136.34A15.46,15.46,0,0,0,32.48,147.87ZM512,192H397.7L292.6,8.06C290.06,3.61,283.84,0,278.71,0H213.2a16,16,0,0,0-15.38,20.39l36.94,129.29L455.14,320H512c35.34,0,96-28.66,96-64S547.34,192,512,192Z" class="fa-secondary"/><path d="M6.18,53.91A16,16,0,0,1,3.37,31.46L23,6.19A16,16,0,0,1,45.46,3.38L633.82,458.1a16,16,0,0,1,2.81,22.45L617,505.82a16,16,0,0,1-22.45,2.81Z" class="fa-primary"/></svg>