<svg xmlns="http://www.w3.org/2000/svg" viewBox="0 0 448 512"><!-- Font Awesome Pro 5.15.4 by @fontawesome - https://fontawesome.com License - https://fontawesome.com/license (Commercial License) --><defs><style>.fa-secondary{opacity:.4}</style></defs><path d="M176 448a32 32 0 0 0 32 32h32a32 32 0 0 0 32-32V304h-96zm64-416h-32a32 32 0 0 0-32 32v144h96V64a32 32 0 0 0-32-32z" class="fa-secondary"/><path d="M448 240v32a32 32 0 0 1-32 32H32a32 32 0 0 1-32-32v-32a32 32 0 0 1 32-32h384a32 32 0 0 1 32 32z" class="fa-primary"/></svg>