<svg xmlns="http://www.w3.org/2000/svg" viewBox="0 0 576 512"><!-- Font Awesome Pro 5.15.4 by @fontawesome - https://fontawesome.com License - https://fontawesome.com/license (Commercial License) --><defs><style>.fa-secondary{opacity:.4}</style></defs><path d="M553.5 231.8l-112-192A48.14 48.14 0 0 0 400 16H176a48.09 48.09 0 0 0-41.5 23.8l-112 192a48.19 48.19 0 0 0 0 48.4l112 192A48.09 48.09 0 0 0 176 496h224a48.13 48.13 0 0 0 41.5-23.8l112-192a48.19 48.19 0 0 0 0-48.4zM432 284a12 12 0 0 1-12 12h-92v92a12 12 0 0 1-12 12h-56a12 12 0 0 1-12-12v-92h-92a12 12 0 0 1-12-12v-56a12 12 0 0 1 12-12h92v-92a12 12 0 0 1 12-12h56a12 12 0 0 1 12 12v92h92a12 12 0 0 1 12 12z" class="fa-secondary"/><path d="M432 284a12 12 0 0 1-12 12h-92v92a12 12 0 0 1-12 12h-56a12 12 0 0 1-12-12v-92h-92a12 12 0 0 1-12-12v-56a12 12 0 0 1 12-12h92v-92a12 12 0 0 1 12-12h56a12 12 0 0 1 12 12v92h92a12 12 0 0 1 12 12z" class="fa-primary"/></svg>