<svg xmlns="http://www.w3.org/2000/svg" viewBox="0 0 448 512"><!-- Font Awesome Pro 5.15.4 by @fontawesome - https://fontawesome.com License - https://fontawesome.com/license (Commercial License) --><defs><style>.fa-secondary{opacity:.4}</style></defs><path d="M384 224l-22.22 240H86.22L64 224z" class="fa-secondary"/><path d="M400 464H48a16 16 0 0 0-16 16v16a16 16 0 0 0 16 16h352a16 16 0 0 0 16-16v-16a16 16 0 0 0-16-16zm-92.63-143a10.05 10.05 0 0 0-8.47-11.43l-45.6-6.7-20.4-41.4a10 10 0 0 0-17.9 0l-20.4 41.4-45.6 6.73a10 10 0 0 0-5.5 17.1l33 32.2-7.8 45.5a10 10 0 0 0 14.5 10.5l40.8-21.5 40.8 21.5a10 10 0 0 0 14.5-10.5l-7.8-45.5 33-32.2a10 10 0 0 0 2.87-5.7zM432 144H113.68c6.2-30.29 29.85-54.3 61-61.55A47.72 47.72 0 0 0 208 96h64a48 48 0 0 0 0-96h-64a47.89 47.89 0 0 0-46.31 36C110.81 48.48 71.66 91.15 65 144H16a16 16 0 0 0-16 16v16a16 16 0 0 0 16 16h416a16 16 0 0 0 16-16v-16a16 16 0 0 0-16-16z" class="fa-primary"/></svg>