<svg xmlns="http://www.w3.org/2000/svg" viewBox="0 0 640 512"><!-- Font Awesome Pro 5.15.4 by @fontawesome - https://fontawesome.com License - https://fontawesome.com/license (Commercial License) --><defs><style>.fa-secondary{opacity:.4}</style></defs><path d="M616.12 32H248a23.94 23.94 0 0 0-24 23.88V168a23.94 23.94 0 0 0 23.88 24H616a23.94 23.94 0 0 0 24-23.88V56a23.94 23.94 0 0 0-23.88-24zM576 128H288V96h288zm40.12 192H248a23.94 23.94 0 0 0-24 23.88V456a23.94 23.94 0 0 0 23.88 24H616a23.94 23.94 0 0 0 24-23.88V344a23.94 23.94 0 0 0-23.88-24zM576 416H288v-32h288z" class="fa-secondary"/><path d="M96 416H64a64.06 64.06 0 0 0-64 64v16a16 16 0 0 0 16 16h128a16 16 0 0 0 16-16v-16a64.06 64.06 0 0 0-64-64zM80 96a48 48 0 1 0-48-48 48 48 0 0 0 48 48zm48 240a48 48 0 1 0-48 48 48 48 0 0 0 48-48zM288 96v32h224V96zm0 320h128v-32H288zM96 128H64a64.06 64.06 0 0 0-64 64v16a16 16 0 0 0 16 16h128a16 16 0 0 0 16-16v-16a64.06 64.06 0 0 0-64-64z" class="fa-primary"/></svg>