<svg xmlns="http://www.w3.org/2000/svg" viewBox="0 0 448 512"><!-- Font Awesome Pro 5.15.4 by @fontawesome - https://fontawesome.com License - https://fontawesome.com/license (Commercial License) --><defs><style>.fa-secondary{opacity:.4}</style></defs><path d="M0 80v352a48 48 0 0 0 48 48h352a48 48 0 0 0 48-48V80a48 48 0 0 0-48-48H48A48 48 0 0 0 0 80zm112 304a16 16 0 0 1-16-16V240a16 16 0 0 1 16-16h32a16 16 0 0 1 16 16v128a16 16 0 0 1-16 16zm224-96a16 16 0 0 1 16 16v64a16 16 0 0 1-16 16h-32a16 16 0 0 1-16-16v-64a16 16 0 0 1 16-16zm-96-160a16 16 0 0 1 16 16v224a16 16 0 0 1-16 16h-32a16 16 0 0 1-16-16V144a16 16 0 0 1 16-16z" class="fa-secondary"/><path d="M160 368V240a16 16 0 0 0-16-16h-32a16 16 0 0 0-16 16v128a16 16 0 0 0 16 16h32a16 16 0 0 0 16-16zm128-64v64a16 16 0 0 0 16 16h32a16 16 0 0 0 16-16v-64a16 16 0 0 0-16-16h-32a16 16 0 0 0-16 16zm-96-160v224a16 16 0 0 0 16 16h32a16 16 0 0 0 16-16V144a16 16 0 0 0-16-16h-32a16 16 0 0 0-16 16z" class="fa-primary"/></svg>