<svg xmlns="http://www.w3.org/2000/svg" viewBox="0 0 448 512"><!-- Font Awesome Pro 5.15.4 by @fontawesome - https://fontawesome.com License - https://fontawesome.com/license (Commercial License) --><defs><style>.fa-secondary{opacity:.4}</style></defs><path d="M400 32H48A48 48 0 0 0 0 80v352a48 48 0 0 0 48 48h352a48 48 0 0 0 48-48V80a48 48 0 0 0-48-48zM96 144a16 16 0 0 1 16-16h128a16 16 0 0 1 16 16v32a16 16 0 0 1-16 16H112a16 16 0 0 1-16-16zm96 224a16 16 0 0 1-16 16h-64a16 16 0 0 1-16-16v-32a16 16 0 0 1 16-16h64a16 16 0 0 1 16 16zm160-96a16 16 0 0 1-16 16H112a16 16 0 0 1-16-16v-32a16 16 0 0 1 16-16h224a16 16 0 0 1 16 16z" class="fa-secondary"/><path d="M112 192h128a16 16 0 0 0 16-16v-32a16 16 0 0 0-16-16H112a16 16 0 0 0-16 16v32a16 16 0 0 0 16 16zm64 128h-64a16 16 0 0 0-16 16v32a16 16 0 0 0 16 16h64a16 16 0 0 0 16-16v-32a16 16 0 0 0-16-16zm160-96H112a16 16 0 0 0-16 16v32a16 16 0 0 0 16 16h224a16 16 0 0 0 16-16v-32a16 16 0 0 0-16-16z" class="fa-primary"/></svg>