<svg xmlns="http://www.w3.org/2000/svg" viewBox="0 0 448 512"><!-- Font Awesome Pro 5.15.4 by @fontawesome - https://fontawesome.com License - https://fontawesome.com/license (Commercial License) --><defs><style>.fa-secondary{opacity:.4}</style></defs><path d="M318.4 354l-88 152a12 12 0 0 1-22.1-8.8l23-97.2H172a12 12 0 0 1-11.9-13.6l16-120A12.06 12.06 0 0 1 188 256h68a12 12 0 0 1 11.6 15.1L250.3 336H308a12 12 0 0 1 10.4 18z" class="fa-secondary"/><path d="M374.4 224.7c41 3.3 73.6 37.5 73.5 79.3a80.24 80.24 0 0 1-80 80h-30l8.1-14a44 44 0 0 0-38.1-66h-16l6.6-24.7A44 44 0 0 0 256 224h-68a44.26 44.26 0 0 0-43.7 38.2l-16 120a10.82 10.82 0 0 1 0 1.8H80a80.24 80.24 0 0 1-80-80c0-41.8 32.6-76 73.6-79.3A62 62 0 0 1 64 192a64.06 64.06 0 0 1 64-64h16A79.79 79.79 0 0 0 208.9 1.5 93.1 93.1 0 0 1 224 0a96 96 0 0 1 96 96 94.61 94.61 0 0 1-5.9 32h5.9a64.06 64.06 0 0 1 64 64 62 62 0 0 1-9.6 32.7z" class="fa-primary"/></svg>