<svg xmlns="http://www.w3.org/2000/svg" viewBox="0 0 512 512"><!-- Font Awesome Pro 5.15.4 by @fontawesome - https://fontawesome.com License - https://fontawesome.com/license (Commercial License) --><defs><style>.fa-secondary{opacity:.4}</style></defs><path d="M272 0a23.94 23.94 0 0 1 24 24v240a23.94 23.94 0 0 1-24 24h-32a23.94 23.94 0 0 1-24-24V24a23.94 23.94 0 0 1 24-24z" class="fa-secondary"/><path d="M504 256c0 136.8-110.8 247.7-247.5 248C120 504.3 8.2 393 8 256.4A248 248 0 0 1 111.8 54.2a24.07 24.07 0 0 1 35 7.7L162.6 90a24 24 0 0 1-6.6 31 168 168 0 0 0 100 303c91.6 0 168.6-74.2 168-169.1a168.07 168.07 0 0 0-68.1-134 23.86 23.86 0 0 1-6.5-30.9l15.8-28.1a24 24 0 0 1 34.8-7.8A247.51 247.51 0 0 1 504 256z" class="fa-primary"/></svg>