<svg xmlns="http://www.w3.org/2000/svg" viewBox="0 0 384 512"><!-- Font Awesome Pro 5.15.4 by @fontawesome - https://fontawesome.com License - https://fontawesome.com/license (Commercial License) --><defs><style>.fa-secondary{opacity:.4}</style></defs><path d="M32 128h320v352a32.09 32.09 0 0 1-32 32H64a32.09 32.09 0 0 1-32-32v-64h120a8 8 0 0 0 8-8v-16a8 8 0 0 0-8-8H32v-64h120a8 8 0 0 0 8-8v-16a8 8 0 0 0-8-8H32v-64h120a8 8 0 0 0 8-8v-16a8 8 0 0 0-8-8H32z" class="fa-secondary"/><path d="M360 0H24A24.07 24.07 0 0 0 0 24v48a24.07 24.07 0 0 0 24 24h336a24.07 24.07 0 0 0 24-24V24a24.07 24.07 0 0 0-24-24zM152 384H32v32h120a8 8 0 0 0 8-8v-16a8 8 0 0 0-8-8zm0-192H32v32h120a8 8 0 0 0 8-8v-16a8 8 0 0 0-8-8zm0 96H32v32h120a8 8 0 0 0 8-8v-16a8 8 0 0 0-8-8z" class="fa-primary"/></svg>