<svg xmlns="http://www.w3.org/2000/svg" viewBox="0 0 640 512"><!-- Font Awesome Pro 5.15.4 by @fontawesome - https://fontawesome.com License - https://fontawesome.com/license (Commercial License) --><defs><style>.fa-secondary{opacity:.4}</style></defs><path d="M592 192h-95.41C543.47 215.77 576 263.93 576 320c0 61.88-39.44 114.31-94.34 134.64L493 499.88A16 16 0 0 0 508.49 512h39A16 16 0 0 0 563 499.88L576 448h16a48 48 0 0 0 48-48V240a48 48 0 0 0-48-48zm-224.59 0H48a48 48 0 0 0-48 48v160a48 48 0 0 0 48 48h16l13 51.88A16 16 0 0 0 92.49 512h39A16 16 0 0 0 147 499.88L160 448h207.41C320.53 424.23 288 376.07 288 320s32.53-104.23 79.41-128zM96 352a32 32 0 1 1 32-32 32 32 0 0 1-32 32zm96 0a32 32 0 1 1 32-32 32 32 0 0 1-32 32zm325.66-218.35a16 16 0 0 0 22.62 0l67.88-67.88a16 16 0 0 0 0-22.63l-11.32-11.31a16 16 0 0 0-22.62 0l-67.88 67.89a16 16 0 0 0 0 22.62zM440 0h-16a16 16 0 0 0-16 16v96a16 16 0 0 0 16 16h16a16 16 0 0 0 16-16V16a16 16 0 0 0-16-16zM323.72 133.65a16 16 0 0 0 22.62 0l11.32-11.31a16 16 0 0 0 0-22.62l-67.88-67.89a16 16 0 0 0-22.62 0l-11.32 11.31a16 16 0 0 0 0 22.63z" class="fa-secondary"/><path d="M96 288a32 32 0 1 0 32 32 32 32 0 0 0-32-32zm336-112a144 144 0 1 0 144 144 144 144 0 0 0-144-144zm0 240a96 96 0 1 1 96-96 96.14 96.14 0 0 1-96 96z" class="fa-primary"/></svg>