<svg xmlns="http://www.w3.org/2000/svg" viewBox="0 0 640 512"><!-- Font Awesome Pro 5.15.4 by @fontawesome - https://fontawesome.com License - https://fontawesome.com/license (Commercial License) --><defs><style>.fa-secondary{opacity:.4}</style></defs><path d="M416 128H164.65l91.63 160H256a63.79 63.79 0 0 0-55.12 32L54.78 64H416z" class="fa-secondary"/><path d="M384 320H256a32 32 0 0 0-32 32v128a32 32 0 0 0 32 32h128a32 32 0 0 0 32-32V352a32 32 0 0 0-32-32zM160 0H32A32 32 0 0 0 0 32v128a32 32 0 0 0 32 32h128a32 32 0 0 0 32-32V32a32 32 0 0 0-32-32zm448 0H480a32 32 0 0 0-32 32v128a32 32 0 0 0 32 32h128a32 32 0 0 0 32-32V32a32 32 0 0 0-32-32z" class="fa-primary"/></svg>