<svg xmlns="http://www.w3.org/2000/svg" viewBox="0 0 576 512"><!-- Font Awesome Pro 5.15.4 by @fontawesome - https://fontawesome.com License - https://fontawesome.com/license (Commercial License) --><defs><style>.fa-secondary{opacity:.4}</style></defs><path d="M576 354.44C576 388 556.71 416 521.08 416c-39.89 0-50.35-36.15-86.31-36.15-60.55 0-25.83 120.1-25.83 120.1-51.55 0-181.23 35.07-181.23-25.73 0-35.83 36.29-46.25 36.29-86 0-35.5-28.12-54.71-61.79-54.71-34.33 0-63.58 18.89-63.58 56.34 0 41.37 40 59 40 81.47C178.63 541 0 500 0 500V166.76s175.88 41 175.88-28.66c0-22.48-31.71-40.39-31.71-81.75C144.17 18.89 175.88 0 210.54 0 243.88 0 272 19.22 272 54.72c0 39.73-36.29 50.16-36.29 86C235.71 224 432 144 432 144s-54.59 176.24 5.38 176.24c22.56 0 40.54-31.59 82.06-31.59 37.56 0 56.56 31.59 56.56 65.79z" class="fa-secondary"/></svg>