<svg xmlns="http://www.w3.org/2000/svg" viewBox="0 0 448 512"><!-- Font Awesome Pro 5.15.4 by @fontawesome - https://fontawesome.com License - https://fontawesome.com/license (Commercial License) --><defs><style>.fa-secondary{opacity:.4}</style></defs><path d="M400 32H48A48 48 0 0 0 0 80v352a48 48 0 0 0 48 48h352a48 48 0 0 0 48-48V80a48 48 0 0 0-48-48zM224 430a46 46 0 1 1 46-46 46.06 46.06 0 0 1-46 46zm40-131.33V300a12 12 0 0 1-12 12h-56a12 12 0 0 1-12-12v-4c0-41.06 31.13-57.47 54.65-70.66 20.17-11.31 32.54-19 32.54-34 0-19.81-25.27-33-45.7-33-27.19 0-39.44 13.13-57.3 35.79a12 12 0 0 1-16.67 2.13L116.82 170a12 12 0 0 1-2.71-16.26C141.4 113 176.16 90 230.66 90c56.34 0 116.53 44 116.53 102 0 77-83.19 78.21-83.19 106.67z" class="fa-secondary"/><path d="M224 338a46 46 0 1 0 46 46 46.05 46.05 0 0 0-46-46zm6.66-248c-54.5 0-89.26 23-116.55 63.76a12 12 0 0 0 2.71 16.24l34.7 26.31a12 12 0 0 0 16.67-2.13c17.86-22.66 30.11-35.79 57.3-35.79 20.43 0 45.7 13.14 45.7 33 0 15-12.37 22.67-32.54 34C215.13 238.53 184 254.94 184 296v4a12 12 0 0 0 12 12h56a12 12 0 0 0 12-12v-1.33c0-28.46 83.19-29.67 83.19-106.67 0-58-60.19-102-116.53-102z" class="fa-primary"/></svg>