<svg xmlns="http://www.w3.org/2000/svg" viewBox="0 0 448 512"><!-- Font Awesome Pro 5.15.4 by @fontawesome - https://fontawesome.com License - https://fontawesome.com/license (Commercial License) --><defs><style>.fa-secondary{opacity:.4}</style></defs><path d="M96 448c-19.2 0-32-12.8-32-32s16-32 32-32h319.33c-1.93 16.24-1.76 48.38.53 64z" class="fa-secondary"/><path d="M96 384h328a24 24 0 0 0 24-24V32a32 32 0 0 0-32-32H96A96 96 0 0 0 0 96v320a96 96 0 0 0 96 96h328a24 24 0 0 0 24-24v-16a24 24 0 0 0-24-24H96c-19.2 0-32-12.8-32-32s16-32 32-32zm208-240a3.23 3.23 0 0 1 2.92 1.82l11.18 22.65 25 3.63a3.26 3.26 0 0 1 1.81 5.56l-18.09 17.63 4.27 24.89a3.25 3.25 0 0 1-4.73 3.44L304 211.87l-22.36 11.75a3.25 3.25 0 0 1-4.73-3.44l4.27-24.89-18.09-17.63a3.26 3.26 0 0 1 1.81-5.56l25-3.63 11.19-22.65A3.23 3.23 0 0 1 304 144zm-60.81-67.19a114.69 114.69 0 0 1 40.38 7.41 6.78 6.78 0 1 1 0 13.55 6.85 6.85 0 0 1-2.37-.43c-.67 0-3.09-.21-4.13-.21a94.86 94.86 0 0 0 0 189.72c1 0 3.48-.21 4.13-.21a6.78 6.78 0 0 1 2.18 13.2 115.14 115.14 0 1 1-40.18-223z" class="fa-primary"/></svg>