<svg xmlns="http://www.w3.org/2000/svg" viewBox="0 0 448 512"><!-- Font Awesome Pro 5.15.4 by @fontawesome - https://fontawesome.com License - https://fontawesome.com/license (Commercial License) --><defs><style>.fa-secondary{opacity:.4}</style></defs><path d="M445.56 487.52L352 337.85V272h7.35a56.65 56.65 0 0 0 32.95-102.75l-48.65-34.75c-1.1-.54-2.27-.74-3.38-1.21 7.8-12.49 15.21-29.76 20.54-49.66 11.32-42.24 9.08-79.55-5-83.32s-34.67 27.41-46 69.69A221.91 221.91 0 0 0 304 99.12 223.51 223.51 0 0 0 298.24 70c-11.33-42.28-31.92-73.46-46-69.69s-16.32 41.08-5 83.32c6.94 25.9 17.37 47.54 27.64 59.62-9.11 7.93-15.9 18.5-18 31.55A63.35 63.35 0 0 0 256 185v71h-14A178 178 0 0 0 64 434v12a66 66 0 0 0 66 66h142a16 16 0 0 0 16-16v-16a32 32 0 0 0-32-32h-22.57l74.35-60.18 72.91 116.66a16 16 0 0 0 13.57 7.52H432a16 16 0 0 0 13.54-24.48zM336 208a16 16 0 1 1 16-16 16 16 0 0 1-16 16z" class="fa-secondary"/><path d="M64 434a178.22 178.22 0 0 1 5.69-44.81 48 48 0 1 0 .74 85.25A65.57 65.57 0 0 1 64 446zm272-258a16 16 0 1 0 16 16 16 16 0 0 0-16-16z" class="fa-primary"/></svg>