<svg xmlns="http://www.w3.org/2000/svg" viewBox="0 0 640 512"><!-- Font Awesome Pro 5.15.4 by @fontawesome - https://fontawesome.com License - https://fontawesome.com/license (Commercial License) --><defs><style>.fa-secondary{opacity:.4}</style></defs><path d="M6.65 431.11A16.1 16.1 0 0 0 3 453.41l36.8 51.8a16 16 0 0 0 22.2 3.9l120.7-82.6-56.7-80S6.75 431.21 6.65 431.11zM486 64c-106.4 0-178.6 90-195 141.1-21.3 66.2 13.3 112.8 83.9 112.8 84.1 0 171.1-66.8 195-141.1C591.15 110.71 556.55 64 486 64z" class="fa-secondary"/><path d="M615.55 59.81c-55.2-77.9-182.9-78.9-283.4-7.7-57.3 40.6-94.6 96.4-106.8 151.1-11 49.5-35 94.5-67.7 132.7l45.7 64.5c87.4-33.7 144.3-18.6 171.9-18.6 49.6 0 104.4-17.2 153.5-52 102.25-72.4 141.1-193.3 86.8-270zM210.15 347a355.28 355.28 0 0 0 26.2-41c9.2 18 9.5 17.4 21.2 29.7a379.24 379.24 0 0 0-47.4 11.3zm359.7-170.2c-23.9 74.3-110.9 141.1-195 141.1-70.6 0-105.2-46.6-83.9-112.8C307.35 154 379.55 64 486 64c70.55 0 105.15 46.71 83.85 112.81z" class="fa-primary"/></svg>