<svg xmlns="http://www.w3.org/2000/svg" viewBox="0 0 496 512"><!-- Font Awesome Pro 5.15.4 by @fontawesome - https://fontawesome.com License - https://fontawesome.com/license (Commercial License) --><defs><style>.fa-secondary{opacity:.4}</style></defs><path d="M296,255.82a48,48,0,1,1-48-48A48,48,0,0,1,296,255.82Z" class="fa-secondary"/><path d="M125.23,452c-4.8,7.7-2.4,18.1,5.6,22.4a246.73,246.73,0,0,0,234.36,0c8-4.3,10.4-14.8,5.6-22.4L290.41,323.52a78.67,78.67,0,0,1-84.78,0Zm-109-196.18H167.82c0-28.59,15.2-53.49,37.8-67.69L125.23,59.74c-4.8-7.7-15.3-10.2-22.7-4.8C44.44,96.94,5.14,163.33,0,239.12c-.6,9,7.1,16.7,16.2,16.7Zm312,0H479.79c9.1,0,16.79-7.7,16.2-16.8-5.1-75.79-44.4-142.18-102.49-184.18-7.4-5.3-17.9-2.9-22.7,4.8L290.41,188c22.6,14.3,37.79,39.2,37.79,67.79Z" class="fa-primary"/></svg>