<svg xmlns="http://www.w3.org/2000/svg" viewBox="0 0 496 512"><!-- Font Awesome Pro 5.15.4 by @fontawesome - https://fontawesome.com License - https://fontawesome.com/license (Commercial License) --><defs><style>.fa-secondary{opacity:.4}</style></defs><path d="M248,288a32,32,0,1,0-32-32A32,32,0,0,0,248,288Zm0,216c137,0,248-111,248-248S385,8,248,8,0,119,0,256,111,504,248,504Zm0-432c101.5,0,184,82.5,184,184S349.5,440,248,440,64,357.5,64,256,146.5,72,248,72Z" class="fa-secondary"/><path d="M104.9,256H184a63.76,63.76,0,0,1,30.2-54.1l-41.7-66.8a16.2,16.2,0,0,0-22.37-5h0a17,17,0,0,0-1.61,1.17A159.25,159.25,0,0,0,89,239.1C87.9,248.3,95.7,256,104.9,256ZM312,256h79.1c9.2,0,16.9-7.7,16-16.8-4.6-43.6-27-81.8-59.5-107.8a16.22,16.22,0,0,0-22.83,2.19,18.34,18.34,0,0,0-1.17,1.61L281.9,202A63.64,63.64,0,0,1,312,256ZM172.4,377c-4.9,7.8-2.4,18.4,5.8,22.5a156.1,156.1,0,0,0,139.7,0c8.2-4.1,10.6-14.7,5.8-22.5l-41.8-66.9a62.82,62.82,0,0,1-67.7,0Z" class="fa-primary"/></svg>