<svg xmlns="http://www.w3.org/2000/svg" viewBox="0 0 640 512"><!-- Font Awesome Pro 5.15.4 by @fontawesome - https://fontawesome.com License - https://fontawesome.com/license (Commercial License) --><defs><style>.fa-secondary{opacity:.4}</style></defs><path d="M488.14 303.26a58.45 58.45 0 0 1-7.44 51.21 53.12 53.12 0 0 1-43.45 23.3c-1.11 0-2.22 0-3.33-.11-7.84 21.52-27.89 36.18-50.23 36.18a51.08 51.08 0 0 1-30.4-10.18 51.46 51.46 0 0 1-65.62 1 51.74 51.74 0 0 1-32.21 11.2 50.43 50.43 0 0 1-31.86-11.17 50.77 50.77 0 0 1-31.34 10.57 55.21 55.21 0 0 1-34.18-11.78 52.9 52.9 0 0 1-30.58 9.86c-22.73 0-42.32-14.45-50-36.42-1.11.07-2.23.11-3.34.11-16.93 0-33.07-8.7-43.17-23.27a58.55 58.55 0 0 1-7.42-51.28C8.92 292.3 0 274.74 0 255.8c0-19.24 8.86-36.49 23.86-46.86a58.59 58.59 0 0 1 7.48-51.28c10.09-14.57 26.27-23.28 43.27-23.28q1.74 0 3.48.12c7.85-21.5 27.91-36.12 50.2-36.12a51.2 51.2 0 0 1 30.49 10.21A56 56 0 0 1 193 96.91a49.43 49.43 0 0 1 31 10.56 52 52 0 0 1 64.26 0A52 52 0 0 1 304 98.71a96 96 0 0 0 173 54.56 56.5 56.5 0 0 1 4 5.07 58.58 58.58 0 0 1 7.45 51.32c14.63 10.22 23.55 27.78 23.55 46.72 0 19.24-8.86 36.5-23.86 46.88z" class="fa-secondary"/><path d="M622.25 106L576 83.22V64a32 32 0 0 0-32-32h-72.45a96 96 0 1 0 5.5 121.27A57.42 57.42 0 0 1 491.31 192h108.35A25.71 25.71 0 0 0 622 179.06c7.59-13.26 18-33.45 18-44.59A31.8 31.8 0 0 0 622.25 106zM400 144a48 48 0 1 1 48-48 48.05 48.05 0 0 1-48 48zm112-32a16 16 0 1 1 16-16 16 16 0 0 1-16 16zM193.46 418.86l1.37-3.64c-.86 0-1.71.07-2.57.07a55.21 55.21 0 0 1-34.18-11.78 52.9 52.9 0 0 1-30.58 9.86 51.69 51.69 0 0 1-30.12-9.6 64 64 0 0 0 .54 28.7l16.85 67.41A16 16 0 0 0 130.29 512h66a16 16 0 0 0 15.52-19.88zm240.46-41.2c-7.84 21.52-27.89 36.18-50.23 36.18a51.08 51.08 0 0 1-30.4-10.18c-.42.36-.86.7-1.29 1V496a16 16 0 0 0 16 16h64a16 16 0 0 0 16-16V376.59a50.8 50.8 0 0 1-10.75 1.18c-1.11 0-2.25-.04-3.33-.11z" class="fa-primary"/></svg>