<svg xmlns="http://www.w3.org/2000/svg" viewBox="0 0 384 512"><!-- Font Awesome Pro 5.15.4 by @fontawesome - https://fontawesome.com License - https://fontawesome.com/license (Commercial License) --><defs><style>.fa-secondary{opacity:.4}</style></defs><path d="M355.4 383.3L321 314.5a13 13 0 0 0-1-1.5V64H64v249c-.3.5-.7.9-1 1.5l-34.4 68.8C12.6 381.5 0 368.5 0 352V32A32 32 0 0 1 32 0h320a32 32 0 0 1 32 32v320c0 16.4-12.6 29.5-28.6 31.3z" class="fa-secondary"/><path d="M292.4 328.8l80 160a16 16 0 0 1-14.3 23.2H25.9a16 16 0 0 1-14.3-23.2l80-160a15.92 15.92 0 0 1 14.3-8.8h172.2a15.92 15.92 0 0 1 14.3 8.8z" class="fa-primary"/></svg>