<svg xmlns="http://www.w3.org/2000/svg" viewBox="0 0 512 512"><!-- Font Awesome Pro 5.15.4 by @fontawesome - https://fontawesome.com License - https://fontawesome.com/license (Commercial License) --><defs><style>.fa-secondary{opacity:.4}</style></defs><path d="M256 128a128 128 0 1 0 128 128 128 128 0 0 0-128-128zm0 152a24 24 0 1 1 24-24 24 24 0 0 1-24 24z" class="fa-secondary"/><path d="M256 8C119 8 8 119 8 256s111 248 248 248 248-111 248-248S393 8 256 8zm0 376a128 128 0 1 1 128-128 128 128 0 0 1-128 128z" class="fa-primary"/></svg>