<svg xmlns="http://www.w3.org/2000/svg" viewBox="0 0 512 512"><!-- Font Awesome Pro 5.15.4 by @fontawesome - https://fontawesome.com License - https://fontawesome.com/license (Commercial License) --><defs><style>.fa-secondary{opacity:.4}</style></defs><path d="M497.29 301.1L469.77 257a12 12 0 0 0-16.53-3.83l-33.86 21.16a12 12 0 0 0-3.81 16.54L443.12 335c13.26 21.21-2.06 49-27.14 49H320v64h95.88c75.27 0 121.33-83 81.41-146.9zM148 384H96c-25 0-40.4-27.73-27.12-49l50.87-81.4-54.22-33.89-50.82 81.39C-25.19 365 20.78 448 96.11 448H148a12 12 0 0 0 12-12v-40a12 12 0 0 0-12-12zm230.67-272.86l-41.26-66.08c-37.52-60-125.21-60.17-162.82 0l-18 28.76a12 12 0 0 0 3.81 16.54l33.92 21.19a12 12 0 0 0 16.54-3.78L228.9 79c12.72-20.34 42-19.68 54.26 0l41.29 66.07z" class="fa-secondary"/><path d="M184.56 261.88l-25.45-110.23a16 16 0 0 0-19.18-12L29.68 165.11c-13.84 3.19-17 21.61-4.88 29.16L160.48 279c12 7.47 27.3-3.17 24.07-17.17zm108.13 62.79l-80 80a16 16 0 0 0 0 22.63l80 80c10 10 27.31 3 27.31-11.31V336c0-14.23-17.24-21.4-27.31-11.33zm126.67-239l-135.65 84.85c-12 7.53-9 25.95 4.88 29.16l110.24 25.45a16 16 0 0 0 19.19-12l25.41-110.25c3.19-13.88-12-24.72-24.07-17.17z" class="fa-primary"/></svg>