<svg xmlns="http://www.w3.org/2000/svg" viewBox="0 0 512 512"><!-- Font Awesome Pro 5.15.4 by @fontawesome - https://fontawesome.com License - https://fontawesome.com/license (Commercial License) --><defs><style>.fa-secondary{opacity:.4}</style></defs><path d="M422.66 422.66a12 12 0 0 1 0 17l-.49.46A247.11 247.11 0 0 1 256 504C119 504 8 393 8 256 8 119.19 119.65 7.76 256.46 8a247.12 247.12 0 0 1 170.85 68.69l-56.62 56.56A166.73 166.73 0 0 0 257.49 88C165.09 87.21 87.21 162 88 257.45 88.76 348 162.18 424 256 424a166.77 166.77 0 0 0 110.63-41.56A12 12 0 0 1 383 383z" class="fa-secondary"/><path d="M504 57.94V192a24 24 0 0 1-24 24H345.94c-21.38 0-32.09-25.85-17-41L463 41c15.15-15.15 41-4.44 41 16.94z" class="fa-primary"/></svg>