<svg xmlns="http://www.w3.org/2000/svg" viewBox="0 0 512 512"><!-- Font Awesome Pro 5.15.4 by @fontawesome - https://fontawesome.com License - https://fontawesome.com/license (Commercial License) --><defs><style>.fa-secondary{opacity:.4}</style></defs><path d="M422.36 422.69a12 12 0 0 1 0 17l-.49.46A247.1 247.1 0 0 1 255.67 504c-136.9 0-247.9-110.93-248-247.81C7.57 119.53 119 8 255.67 8a247.45 247.45 0 0 1 188.9 87.33l3.52 64.43-46.5-2.22A176 176 0 1 0 372 388.15a12 12 0 0 1 16.38.54z" class="fa-secondary"/><path d="M512 12v200a12 12 0 0 1-12 12H300a12 12 0 0 1-12-12v-47.32a12 12 0 0 1 12-12h.58l147.54 7.06-7.44-147.19A12 12 0 0 1 452.07 0H500a12 12 0 0 1 12 12z" class="fa-primary"/></svg>