<svg xmlns="http://www.w3.org/2000/svg" viewBox="0 0 384 512"><!-- Font Awesome Pro 5.15.4 by @fontawesome - https://fontawesome.com License - https://fontawesome.com/license (Commercial License) --><defs><style>.fa-secondary{opacity:.4}</style></defs><path d="M336,.5H48a48,48,0,0,0-48,48v112H288v-88a8,8,0,0,1,8-8h16a8,8,0,0,1,8,8v88h64V48.5A48,48,0,0,0,336,.5Zm-16,376a8,8,0,0,1-8,8H296a8,8,0,0,1-8-8v-184H0v272a48,48,0,0,0,48,48H336a48,48,0,0,0,48-48v-272H320Z" class="fa-secondary"/><path d="M0,192.5H288v-32H0Zm320-32v32h64v-32Z" class="fa-primary"/></svg>