<svg xmlns="http://www.w3.org/2000/svg" viewBox="0 0 512 512"><!-- Font Awesome Pro 5.15.4 by @fontawesome - https://fontawesome.com License - https://fontawesome.com/license (Commercial License) --><defs><style>.fa-secondary{opacity:.4}</style></defs><path d="M494.84 183.65a159 159 0 0 1 17.16 72c0 88.22-71.77 160-160 160H170.07l34.51 32.41a24 24 0 0 1 .54 34.47l-10.78 10.77a24 24 0 0 1-33.94 0l-92.68-92.64a24 24 0 0 1 0-33.94L148 286.45a24 24 0 0 1 33.94 0l10.77 10.77a24 24 0 0 1-.54 34.47l-22.09 20H352a96 96 0 0 0 87.62-135.21 23.78 23.78 0 0 1 4.73-26.63l12.18-12.18a24 24 0 0 1 38.31 5.98z" class="fa-secondary"/><path d="M306.13 287.64h-15.49v-84.38c0-7.66-4.09-11.58-11.75-11.58h-12.1c-6.06 0-10 1.61-14.42 5.7l-21.72 19.94c-5.52 5.16-5.88 11-.54 16.38l5.52 6.23c5.16 5.52 11.22 5.34 15.67 1.07a34.35 34.35 0 0 0 2.85-3.74h.35s-.53 5.34-.53 10.5v39.88h-15.13c-7.66 0-11.58 4.1-11.58 11.57v8.9c0 7.48 3.92 11.57 11.58 11.57h67.29c7.65 0 11.57-4.09 11.57-11.57v-8.9c0-7.48-3.92-11.57-11.57-11.57zm138.15-176.92L351.6 18a24 24 0 0 0-33.94 0l-10.78 10.8a24 24 0 0 0 .54 34.47l34.51 32.42H160c-88.23 0-160 71.77-160 160a159 159 0 0 0 17.16 72 24 24 0 0 0 38.31 6l12.18-12.19a23.77 23.77 0 0 0 4.73-26.63A96 96 0 0 1 160 159.69h181.93l-22.09 20a24 24 0 0 0-.54 34.46l10.77 10.78a24 24 0 0 0 33.95 0l80.26-80.27a24 24 0 0 0 0-33.94z" class="fa-primary"/></svg>