<svg xmlns="http://www.w3.org/2000/svg" viewBox="0 0 640 512"><!-- Font Awesome Pro 5.15.4 by @fontawesome - https://fontawesome.com License - https://fontawesome.com/license (Commercial License) --><defs><style>.fa-secondary{opacity:.4}</style></defs><path d="M112 0a64 64 0 1 0 64 64 64.06 64.06 0 0 0-64-64zm208 0h-32a16 16 0 0 0-16 16v480a16 16 0 0 0 16 16h32a16 16 0 0 0 16-16V16a16 16 0 0 0-16-16zm176 0a64 64 0 1 0 64 64 64.06 64.06 0 0 0-64-64z" class="fa-secondary"/><path d="M623.3 354.5l-45.6-185.8c-3.3-13.5-15.5-23-29.8-24.2a95 95 0 0 1-104 0c-14.3 1.2-26.5 10.7-29.8 24.2l-45.6 185.8C365 369.6 377 384 393.2 384H448v104a23.94 23.94 0 0 0 24 24h48a23.94 23.94 0 0 0 24-24V384h54.8c16.2 0 28.2-14.4 24.5-29.5zM164.1 144.4a94.8 94.8 0 0 1-104.2 0A47.82 47.82 0 0 0 16 192v136a23.94 23.94 0 0 0 24 24h8v136a23.94 23.94 0 0 0 24 24h80a23.94 23.94 0 0 0 24-24V352h8a23.94 23.94 0 0 0 24-24V192a47.82 47.82 0 0 0-43.9-47.6z" class="fa-primary"/></svg>