<svg xmlns="http://www.w3.org/2000/svg" viewBox="0 0 640 512"><!-- Font Awesome Pro 5.15.4 by @fontawesome - https://fontawesome.com License - https://fontawesome.com/license (Commercial License) --><defs><style>.fa-secondary{opacity:.4}</style></defs><path d="M10 202.66a24 24 0 0 1 0-33.94L110.72 68a24 24 0 0 1 33.94 0l100.68 100.71a24 24 0 0 1 0 33.95l-10.82 10.82a24 24 0 0 1-34.42-.48l-40.41-42.8v182.11h187.54a24 24 0 0 1 17 7l16 16c15.12 15.12 4.41 41-17 41H119.69a24 24 0 0 1-24-24V170.19L55.27 213a24 24 0 0 1-34.42.49z" class="fa-secondary"/><path d="M259.17 137.28c-15.12-15.12-4.41-41 17-41h243.52a24 24 0 0 1 24 24v222.15l40.41-42.79a24 24 0 0 1 34.42-.49L629.34 310a24 24 0 0 1 0 33.94L528.66 444.6a24 24 0 0 1-33.94 0L394 343.91a24 24 0 0 1 0-33.91l10.82-10.82a24 24 0 0 1 34.42.49l40.42 42.79V160.31H292.14a24 24 0 0 1-17-7z" class="fa-primary"/></svg>