<svg xmlns="http://www.w3.org/2000/svg" viewBox="0 0 576 512"><!-- Font Awesome Pro 5.15.4 by @fontawesome - https://fontawesome.com License - https://fontawesome.com/license (Commercial License) --><defs><style>.fa-secondary{opacity:.4}</style></defs><path d="M267.74 192h40.54a12 12 0 0 0 11.93-13.26l-4.6-43.58a8 8 0 0 0-8-7.16h-39.25a8 8 0 0 0-8 7.16l-4.59 43.58A12 12 0 0 0 267.74 192zm5.68-96h29.16a8 8 0 0 0 8-8.84L308.09 64h-40.18l-2.45 23.16a8 8 0 0 0 7.96 8.84zm64.89 254.32A16 16 0 0 0 322.4 336h-68.8a16 16 0 0 0-15.91 14.32L227.38 448h121.24zm-78-46.32h55.29a16 16 0 0 0 15.91-17.68l-5.07-48A16 16 0 0 0 310.57 224h-45.15a16 16 0 0 0-15.91 14.32l-5.07 48A16 16 0 0 0 260.35 304z" class="fa-secondary"/><path d="M573.19 402.67l-139.79-320C428.43 71.29 417.6 64 405.68 64h-97.59l2.45 23.16a8 8 0 0 1-8 8.84h-29.12a8 8 0 0 1-8-8.84L267.91 64h-97.59a30.45 30.45 0 0 0-27.73 18.67L2.8 402.67C-6.45 423.86 8.31 448 30.54 448h196.84l10.31-97.68A16 16 0 0 1 253.6 336h68.8a16 16 0 0 1 15.91 14.32L348.62 448h196.84c22.23 0 36.99-24.14 27.73-45.33zM255.81 178.74l4.59-43.58a8 8 0 0 1 8-7.16h39.29a8 8 0 0 1 8 7.16l4.6 43.58A12 12 0 0 1 308.28 192h-40.54a12 12 0 0 1-11.93-13.26zM315.64 304h-55.29a16 16 0 0 1-15.91-17.68l5.07-48A16 16 0 0 1 265.42 224h45.15a16 16 0 0 1 15.91 14.32l5.07 48A16 16 0 0 1 315.64 304z" class="fa-primary"/></svg>