<svg xmlns="http://www.w3.org/2000/svg" viewBox="0 0 640 512"><!-- Font Awesome Pro 5.15.4 by @fontawesome - https://fontawesome.com License - https://fontawesome.com/license (Commercial License) --><defs><style>.fa-secondary{opacity:.4}</style></defs><path d="M288,416h64V384H288Zm-96,0h64V384H192ZM0,256V384a31.96166,31.96166,0,0,0,32,32H64V224H32A31.96166,31.96166,0,0,0,0,256ZM384,416h64V384H384ZM608,224H576V416h32a31.96166,31.96166,0,0,0,32-32V256A31.96166,31.96166,0,0,0,608,224ZM320,0a32.00033,32.00033,0,0,0-32,32V96h64V32A32.00033,32.00033,0,0,0,320,0Z" class="fa-secondary"/><path d="M464,96H176a79.974,79.974,0,0,0-80,80V448a64.06328,64.06328,0,0,0,64,64H480a64.06328,64.06328,0,0,0,64-64V176A79.974,79.974,0,0,0,464,96ZM256,416H192V384h64ZM224,296a40,40,0,1,1,40-40A39.997,39.997,0,0,1,224,296ZM352,416H288V384h64Zm96,0H384V384h64ZM416,296a40,40,0,1,1,40-40A39.997,39.997,0,0,1,416,296Z" class="fa-primary"/></svg>