<svg xmlns="http://www.w3.org/2000/svg" viewBox="0 0 512 512"><!-- Font Awesome Pro 5.15.4 by @fontawesome - https://fontawesome.com License - https://fontawesome.com/license (Commercial License) --><defs><style>.fa-secondary{opacity:.4}</style></defs><path d="M51.94117,154.48438,2.531,253.29688A28.125,28.125,0,0,0-.00023,264a24.00619,24.00619,0,0,0,24,24H117.4607c23.44141-47.41211,61.01172-123.373,77.89063-157.32812.51953-.91407,1-1.76758,1.52344-2.67188H94.82008C78.47633,128.01562,59.28883,139.875,51.94117,154.48438Zm172.0586,240.1621V488.209A24.12394,24.12394,0,0,0,247.9607,512a28.02965,28.02965,0,0,0,10.625-2.53125l98.72657-49.39063c14.625-7.3125,26.5-26.5,26.5-42.85937V315.70312c.0664-.041.125-.08789.1875-.1289v-.52734c-.90625.51953-1.7461,1.002-2.66407,1.52539C347.37477,333.58008,271.2732,371.252,223.99977,394.64648Z" class="fa-secondary"/><path d="M505.15992,19.51562A16.73971,16.73971,0,0,0,492.62477,6.94531C460.22633,0,434.37477,0,409.48414,0,320.3357,0,252.80836,40.61523,196.97633,127.81836c-.5586.97852-1.07031,1.877-1.625,2.85352-19.59766,39.42578-67.20313,135.70312-88.04688,177.877a31.91421,31.91421,0,0,0,6.09766,36.76172L167.05445,398.709a31.88923,31.88923,0,0,0,36.64844,5.98047l14.17578-7.01367c46.57422-23.04883,128.06641-63.3789,163.457-81.10351.96094-.54883,1.832-1.04883,2.78907-1.59766,87.23437-56.06055,127.85937-123.51172,127.85937-212.27734C512.06227,77.60742,512.12867,52.08789,505.15992,19.51562ZM367.99977,192a48,48,0,1,1,48-48.00195A48.02156,48.02156,0,0,1,367.99977,192Z" class="fa-primary"/></svg>