<svg xmlns="http://www.w3.org/2000/svg" viewBox="0 0 448 512"><!-- Font Awesome Pro 5.15.4 by @fontawesome - https://fontawesome.com License - https://fontawesome.com/license (Commercial License) --><defs><style>.fa-secondary{opacity:.4}</style></defs><path d="M400 32H48A48 48 0 0 0 0 80v352a48 48 0 0 0 48 48h352a48 48 0 0 0 48-48V80a48 48 0 0 0-48-48zM112 416a48 48 0 1 1 48-48 48 48 0 0 1-48 48zm157.53 0H235.2a11.44 11.44 0 0 1-11.44-10.63A160.07 160.07 0 0 0 74.63 256.24 11.44 11.44 0 0 1 64 244.8v-34.33A11.42 11.42 0 0 1 76 199c110.55 6 199 94.54 205 205a11.42 11.42 0 0 1-11.47 12zm103 0h-34.3a11.45 11.45 0 0 1-11.43-11C321.2 268.43 211.59 158.8 75 153.2a11.45 11.45 0 0 1-11-11.43v-34.33A11.42 11.42 0 0 1 75.79 96C243.62 102 378 237.2 384 404.21A11.42 11.42 0 0 1 372.56 416z" class="fa-secondary"/><path d="M112 320a48 48 0 1 0 48 48 48 48 0 0 0-48-48zM75.79 96A11.42 11.42 0 0 0 64 107.44v34.33a11.45 11.45 0 0 0 11 11.43c136.59 5.6 246.2 115.23 251.8 251.8a11.45 11.45 0 0 0 11.43 11h34.33A11.42 11.42 0 0 0 384 404.21C378 237.2 243.62 102 75.79 96zM76 199a11.42 11.42 0 0 0-12 11.43v34.37a11.44 11.44 0 0 0 10.63 11.44 160.07 160.07 0 0 1 149.13 149.13A11.44 11.44 0 0 0 235.2 416h34.33A11.42 11.42 0 0 0 281 404c-6-110.42-94.46-199-205-205z" class="fa-primary"/></svg>