<svg xmlns="http://www.w3.org/2000/svg" viewBox="0 0 448 512"><!-- Font Awesome Pro 5.15.4 by @fontawesome - https://fontawesome.com License - https://fontawesome.com/license (Commercial License) --><defs><style>.fa-secondary{opacity:.4}</style></defs><path d="M303.74 463.21c-8.35-154.6-132.18-278.59-286.95-286.95A16 16 0 0 0 0 192.25v48.07a16 16 0 0 0 14.89 16c111.83 7.28 201.47 96.7 208.77 208.77a16 16 0 0 0 16 14.89h48.07a16 16 0 0 0 16-16.79zM16.5 32A16 16 0 0 0 0 48v48.08a16 16 0 0 0 15.45 16c191.18 7.84 344.63 161.32 352.47 352.47a16 16 0 0 0 16 15.45H432a16 16 0 0 0 16-16.5C439.6 229.68 251.46 40.45 16.5 32z" class="fa-secondary"/><path d="M0 416a64 64 0 1 1 64 64 64 64 0 0 1-64-64z" class="fa-primary"/></svg>