<svg xmlns="http://www.w3.org/2000/svg" viewBox="0 0 512 512"><!-- Font Awesome Pro 5.15.4 by @fontawesome - https://fontawesome.com License - https://fontawesome.com/license (Commercial License) --><defs><style>.fa-secondary{opacity:.4}</style></defs><path d="M501.65 452.08l-51.16-51.16-38.57 38.57a8 8 0 0 1-11.31 0l-11.31-11.31a8 8 0 0 1 0-11.31l38.57-38.57-56.57-56.57-38.57 38.57a8 8 0 0 1-11.31 0L310.11 349a8 8 0 0 1 0-11.31l38.57-38.57-56.57-56.57-38.57 38.57a8 8 0 0 1-11.31 0l-11.31-11.32a8 8 0 0 1 0-11.31l38.57-38.57-56.57-56.57-38.57 38.57a8 8 0 0 1-11.31 0l-11.31-11.31a8 8 0 0 1 0-11.31l38.57-38.57-56.6-56.59-38.57 38.57a8 8 0 0 1-11.31 0L72.51 111.4a8 8 0 0 1 0-11.31l38.57-38.57-51.17-51.17A34.36 34.36 0 0 0 35.35 0C17.31 0 0 14 0 35.17V476.9A35.09 35.09 0 0 0 35.1 512h441.73c31.27 0 46.93-37.8 24.82-59.92zM128 384V259.46L252.54 384z" class="fa-secondary"/><path d="M310.11 337.68l38.57-38.57 22.62 22.62-38.57 38.57a8 8 0 0 1-11.31 0L310.11 349a8 8 0 0 1 0-11.32zM174.35 201.92l38.57-38.57-22.62-22.62-38.57 38.57a8 8 0 0 0 0 11.31L163 201.92a8 8 0 0 0 11.35 0zm-90.53-79.21a8 8 0 0 0 11.31 0l38.57-38.57-22.62-22.62-38.57 38.57a8 8 0 0 0 0 11.31zm208.29 119.83l-11.3-11.29-11.32-11.33-38.57 38.57a8 8 0 0 0 0 11.31l11.31 11.31a8 8 0 0 0 11.31 0zM427.87 378.3l-38.57 38.57a8 8 0 0 0 0 11.31l11.31 11.31a8 8 0 0 0 11.31 0l38.57-38.57z" class="fa-primary"/></svg>