<svg xmlns="http://www.w3.org/2000/svg" viewBox="0 0 512 512"><!-- Font Awesome Pro 5.15.4 by @fontawesome - https://fontawesome.com License - https://fontawesome.com/license (Commercial License) --><defs><style>.fa-secondary{opacity:.4}</style></defs><path d="M512 384v96a32 32 0 0 1-32 32H32c-2.76 0-5.24-.91-7.8-1.57L182.63 352H224v56a8 8 0 0 0 8 8h16a8 8 0 0 0 8-8v-56h64v56a8 8 0 0 0 8 8h16a8 8 0 0 0 8-8v-56h64v56a8 8 0 0 0 8 8h16a8 8 0 0 0 8-8v-56h32a32 32 0 0 1 32 32zm-352-96h-56a8 8 0 0 1-8-8v-16a8 8 0 0 1 8-8h56v-64h-56a8 8 0 0 1-8-8v-16a8 8 0 0 1 8-8h56V96h-56a8 8 0 0 1-8-8V72a8 8 0 0 1 8-8h56V32a32 32 0 0 0-32-32H32A32 32 0 0 0 0 32v448c0 2.77.91 5.24 1.57 7.8L160 329.38z" class="fa-secondary"/><path d="M96 264v16a8 8 0 0 0 8 8h56v-32h-56a8 8 0 0 0-8 8zm0-192v16a8 8 0 0 0 8 8h56V64h-56a8 8 0 0 0-8 8zm0 96v16a8 8 0 0 0 8 8h56v-32h-56a8 8 0 0 0-8 8zm320 184v56a8 8 0 0 0 8 8h16a8 8 0 0 0 8-8v-56zm-192 56a8 8 0 0 0 8 8h16a8 8 0 0 0 8-8v-56h-32zm96 0a8 8 0 0 0 8 8h16a8 8 0 0 0 8-8v-56h-32z" class="fa-primary"/></svg>