<svg xmlns="http://www.w3.org/2000/svg" viewBox="0 0 576 512"><!-- Font Awesome Pro 5.15.4 by @fontawesome - https://fontawesome.com License - https://fontawesome.com/license (Commercial License) --><defs><style>.fa-secondary{opacity:.4}</style></defs><path d="M576 160v192a32 32 0 0 1-32 32H32a32 32 0 0 1-32-32V160a32 32 0 0 1 32-32h48v88a8 8 0 0 0 8 8h16a8 8 0 0 0 8-8v-88h64v88a8 8 0 0 0 8 8h16a8 8 0 0 0 8-8v-88h64v88a8 8 0 0 0 8 8h16a8 8 0 0 0 8-8v-88h64v88a8 8 0 0 0 8 8h16a8 8 0 0 0 8-8v-88h64v88a8 8 0 0 0 8 8h16a8 8 0 0 0 8-8v-88h48a32 32 0 0 1 32 32z" class="fa-secondary"/><path d="M176 216a8 8 0 0 0 8 8h16a8 8 0 0 0 8-8v-88h-32zm-96 0a8 8 0 0 0 8 8h16a8 8 0 0 0 8-8v-88H80zm192 0a8 8 0 0 0 8 8h16a8 8 0 0 0 8-8v-88h-32zm192-88v88a8 8 0 0 0 8 8h16a8 8 0 0 0 8-8v-88zm-96 88a8 8 0 0 0 8 8h16a8 8 0 0 0 8-8v-88h-32z" class="fa-primary"/></svg>