<svg xmlns="http://www.w3.org/2000/svg" viewBox="0 0 640 512"><!-- Font Awesome Pro 5.15.4 by @fontawesome - https://fontawesome.com License - https://fontawesome.com/license (Commercial License) --><defs><style>.fa-secondary{opacity:.4}</style></defs><path d="M624.16 210l-496.8 281.9a32.18 32.18 0 0 1-43.5-11.5L4.26 344.77A31.1 31.1 0 0 1 16 302l69-39.1 59.7 101.4a8 8 0 0 0 10.9 2.9l13.8-7.8a7.78 7.78 0 0 0 2.9-10.7l-59.6-101.52 55.19-31.32 27.81 47.34a8 8 0 0 0 10.9 2.9l13.8-7.8a7.76 7.76 0 0 0 2.9-10.7l-27.93-47.4 55.19-31.31 59.7 101.68a8 8 0 0 0 10.9 2.9l13.8-7.8a7.78 7.78 0 0 0 2.9-10.7l-59.8-101.68 55.2-31.29 27.9 47.3a8 8 0 0 0 10.9 2.9l13.8-7.8a7.76 7.76 0 0 0 2.9-10.7l-27.89-47.38L416.06 75l59.7 101.59a8 8 0 0 0 10.9 2.9l13.8-7.8a7.76 7.76 0 0 0 2.9-10.7L443.68 59.31l69-39.14a32.18 32.18 0 0 1 43.5 11.5l79.6 135.5A31 31 0 0 1 624.16 210z" class="fa-secondary"/><path d="M112.66 247.15L85 262.87l59.7 101.4a8 8 0 0 0 10.9 2.9l13.8-7.8a7.78 7.78 0 0 0 2.9-10.7zm165.4-93.88l-27.5 15.61 59.7 101.69a8 8 0 0 0 10.9 2.9l13.8-7.8a7.78 7.78 0 0 0 2.9-10.7zm-82.69 46.93l-27.52 15.63 27.81 47.34a8 8 0 0 0 10.9 2.9l13.8-7.8a7.76 7.76 0 0 0 2.9-10.7zm308-39.23l-59.7-101.7L416.06 75l59.7 101.6a8 8 0 0 0 10.9 2.9l13.8-7.8a7.76 7.76 0 0 0 2.9-10.7zm-142.5-54.7L333.26 122l27.9 47.3a8 8 0 0 0 10.9 2.9l13.8-7.8a7.76 7.76 0 0 0 2.9-10.7z" class="fa-primary"/></svg>