<svg xmlns="http://www.w3.org/2000/svg" viewBox="0 0 416 512"><!-- Font Awesome Pro 5.15.4 by @fontawesome - https://fontawesome.com License - https://fontawesome.com/license (Commercial License) --><defs><style>.fa-secondary{opacity:.4}</style></defs><path d="M272 96a48 48 0 1 1 48-48 48 48 0 0 1-48 48z" class="fa-secondary"/><path d="M384 223.81h-44l-26.06-53.2c-12.5-25.53-35.45-44.2-61.78-50.9l-71.11-21.13a95.65 95.65 0 0 0-80.84 17.12l-39.67 30.39A32 32 0 1 0 99.3 197l.18-.13 39.69-30.39c7.67-5.88 17.44-8 25.27-6.13l14.7 4.36L141.68 252A64.09 64.09 0 0 0 168 332.23l85 50.13L225.53 470a32 32 0 0 0 60.79 20c.1-.3.19-.6.28-.9l31.6-101a48.15 48.15 0 0 0-21.64-54.35l-61.24-36.11 31.31-78.21 20.27 41.39a48.31 48.31 0 0 0 43.1 26.94h54a32 32 0 1 0 0-63.95zm-270.31 93.4l-14.8 34.5H32a32 32 0 1 0 0 63.94h77.45a47.88 47.88 0 0 0 44.11-29.06l8.79-20.5-10.67-6.3a95.23 95.23 0 0 1-38-42.58z" class="fa-primary"/></svg>