<svg xmlns="http://www.w3.org/2000/svg" viewBox="0 0 640 512"><!-- Font Awesome Pro 5.15.4 by @fontawesome - https://fontawesome.com License - https://fontawesome.com/license (Commercial License) --><defs><style>.fa-secondary{opacity:.4}</style></defs><path d="M240 448a64 64 0 1 1-64-64 64 64 0 0 1 64 64zm400-133.5V384a32.09 32.09 0 0 1-32 32h-21.56a96 96 0 0 0-170.5-21.07V192l101.58.2a64.3 64.3 0 0 1 45.39 18.8l58.29 58.3a64.29 64.29 0 0 1 18.8 45.2zM572 288l-43.29-43.3a15.89 15.89 0 0 0-11.3-4.7h-37.48v48zm-76.08 96a64 64 0 1 0 64 64 64 64 0 0 0-64-64z" class="fa-secondary"/><path d="M512 32H384V16a16 16 0 0 0-16-16H240a16 16 0 0 0-16 16v16H64A64.07 64.07 0 0 0 0 96v197.54a64 64 0 0 0 18.7 45.31l69.78 69.7a96 96 0 0 1 178 7.45H384V160h192c17.9 0 32.1-14.8 32-32.8A96 96 0 0 0 512 32zM256 208a16 16 0 0 1-16 16H112a16 16 0 0 1-16-16v-64a16 16 0 0 1 16-16h128a16 16 0 0 1 16 16z" class="fa-primary"/></svg>