<svg xmlns="http://www.w3.org/2000/svg" viewBox="0 0 512 512"><!-- Font Awesome Pro 5.15.4 by @fontawesome - https://fontawesome.com License - https://fontawesome.com/license (Commercial License) --><defs><style>.fa-secondary{opacity:.4}</style></defs><path d="M192 96h128l47.4-71.12A16 16 0 0 0 354.09 0H157.94a16 16 0 0 0-13.31 24.88zm128 32H192C-10.38 243.4.09 396.64.09 416c0 53 49.11 96 109.68 96h292.48c60.58 0 109.68-43 109.68-96 0-19 9.35-173.24-191.93-288zm-46.58 278v17.34a8.68 8.68 0 0 1-8.7 8.62h-17.41a8.69 8.69 0 0 1-8.71-8.62v-17.51a63.14 63.14 0 0 1-34.16-12.17 8.52 8.52 0 0 1-.67-13l12.84-12.06a8.93 8.93 0 0 1 11-.76 26.71 26.71 0 0 0 13.93 4h30.58c7.07 0 12.84-6.35 12.84-14.22 0-6.46-3.92-12.06-9.58-13.67l-49-14.54c-20.24-6-34.39-25.2-34.39-46.74 0-26.38 20.68-47.82 46.46-48.57v-17.48a8.69 8.69 0 0 1 8.75-8.62h17.41a8.68 8.68 0 0 1 8.7 8.62v17.55a63.15 63.15 0 0 1 34.17 12.17 8.54 8.54 0 0 1 1.58 12 8.72 8.72 0 0 1-.92 1l-12.73 12.2a8.91 8.91 0 0 1-11 .75 26.8 26.8 0 0 0-13.93-4h-30.57c-7.07 0-12.84 6.35-12.84 14.21 0 6.46 3.92 12.06 9.57 13.68l49 14.54c20.24 6 34.38 25.2 34.38 46.74-.14 26.4-20.92 47.94-46.6 48.54z" class="fa-secondary"/><path d="M285.64 310.72l-49-14.54c-5.65-1.62-9.57-7.22-9.57-13.68 0-7.86 5.77-14.21 12.84-14.21h30.56a26.8 26.8 0 0 1 13.93 4 8.91 8.91 0 0 0 11-.75l12.73-12.2a8.72 8.72 0 0 0 .92-1 8.54 8.54 0 0 0-1.56-12 63.15 63.15 0 0 0-34.17-12.17v-17.55a8.68 8.68 0 0 0-8.7-8.62H247.2a8.69 8.69 0 0 0-8.74 8.62v17.48c-25.78.75-46.46 22.19-46.46 48.57 0 21.54 14.15 40.74 34.39 46.74l49 14.54c5.66 1.61 9.58 7.21 9.58 13.67 0 7.87-5.77 14.22-12.84 14.22h-30.58a26.71 26.71 0 0 1-13.93-4 8.93 8.93 0 0 0-11 .76l-12.84 12.06a8.52 8.52 0 0 0 .67 13 63.14 63.14 0 0 0 34.16 12.17v17.51a8.69 8.69 0 0 0 8.71 8.62h17.41a8.68 8.68 0 0 0 8.7-8.62V406c25.68-.6 46.46-22.14 46.6-48.54-.03-21.54-14.15-40.74-34.39-46.74zM329 96H183a8 8 0 0 0-8 8v16a8 8 0 0 0 8 8h146a8 8 0 0 0 8-8v-16a8 8 0 0 0-8-8z" class="fa-primary"/></svg>