<svg xmlns="http://www.w3.org/2000/svg" viewBox="0 0 496 512"><!-- Font Awesome Pro 5.15.4 by @fontawesome - https://fontawesome.com License - https://fontawesome.com/license (Commercial License) --><defs><style>.fa-secondary{opacity:.4}</style></defs><path d="M365,474.72l2.52-1.37Zm-2.2,1.16-2.46,1.28Zm-13.92,6.74,2.51-1.13Zm7.32-3.4-2.46,1.17ZM496,256A247.82,247.82,0,0,1,375.82,468.57l.18-.1V288a16,16,0,0,0-32,0V484.74a248.88,248.88,0,0,1-192,0V288a16,16,0,0,0-32,0V468.47h.06A247.81,247.81,0,0,1,0,256C0,119,111,8,248,8S496,119,496,256ZM192.2,233A12,12,0,0,0,212,222.2c-4-25.2-34.2-42.1-59.9-42.1S96.2,197,92.2,222.2A12,12,0,0,0,112,233l9.5-8.5c14.8-13.2,46.2-13.2,61,0ZM296,352c0-35.3-21.5-64-48-64s-48,28.7-48,64,21.5,64,48,64S296,387.3,296,352ZM404,222.2c-4-25.2-34.2-42.1-59.9-42.1s-55.9,16.9-59.9,42.1A12,12,0,0,0,304,233l9.6-8.6c14.8-13.2,46.2-13.2,61,0l9.5,8.5a11.92,11.92,0,0,0,13.7,1.6,12.36,12.36,0,0,0,6.2-12.3ZM344,484.74l2.42-1ZM128.48,473.35l2.52,1.37Zm4.72,2.53,2.46,1.28Zm-6.81-3.7c-.83-.47-1.67-.93-2.5-1.41C124.72,471.25,125.56,471.71,126.39,472.18Zm13.42,7c.81.4,1.63.78,2.45,1.17-.82-.35-1.64-.73-2.45-1.13Zm232.3-8.45c-.83.48-1.67.94-2.5,1.41.83-.43,1.67-.89,2.5-1.37Zm-227.5,10.72,2.51,1.13ZM152,484.7l-2.42-1Z" class="fa-secondary"/><path d="M152.1,180.1c-25.7,0-55.9,16.9-59.9,42.1A12,12,0,0,0,112,233l9.5-8.5c14.8-13.2,46.2-13.2,61,0l9.7,8.5A12,12,0,0,0,212,222.2C208,197,177.8,180.1,152.1,180.1ZM404,222.2c-4-25.2-34.2-42.1-59.9-42.1s-55.9,16.9-59.9,42.1A12,12,0,0,0,304,233l9.6-8.6c14.8-13.2,46.2-13.2,61,0l9.5,8.5a11.92,11.92,0,0,0,13.7,1.6,12.36,12.36,0,0,0,6.2-12.3ZM360,272a16,16,0,0,0-16,16V484.74a247.25,247.25,0,0,0,32-16.27V288A16,16,0,0,0,360,272Zm-224,0a16,16,0,0,0-16,16V468.47a247.25,247.25,0,0,0,32,16.27V288A16,16,0,0,0,136,272Z" class="fa-primary"/></svg>