<svg xmlns="http://www.w3.org/2000/svg" viewBox="0 0 512 512"><!-- Font Awesome Pro 5.15.4 by @fontawesome - https://fontawesome.com License - https://fontawesome.com/license (Commercial License) --><defs><style>.fa-secondary{opacity:.4}</style></defs><path d="M512 271.07v32.14c0 .47 0 .93-.08 1.4a16.27 16.27 0 0 1-17.78 14.6c-28.52-2.6-45.94-11.36-60.41-18.6S408.54 288 384.12 288s-35 5.3-49.64 12.62c-17.26 8.63-38.7 19.38-78.26 19.38s-61.08-10.73-78.34-19.38C163.2 293.3 152.58 288 128.11 288S93 293.3 78.36 300.63s-31.93 16-60.51 18.59c-.47 0-.94.07-1.41.08A16.26 16.26 0 0 1 0 303.22v-32.14a15.93 15.93 0 0 1 14.1-15.79c15.16-1.67 24.16-6.17 35.67-11.91C67 234.73 88.53 224 128.11 224s61.08 10.75 78.36 19.38C221.14 250.7 231.8 256 256.22 256s35-5.3 49.64-12.62c17.26-8.63 38.72-19.38 78.26-19.38s61 10.75 78.27 19.39c11.51 5.73 20.43 10.22 35.51 11.9a15.94 15.94 0 0 1 14.1 15.78z" class="fa-secondary"/><path d="M480 352h-64l-96 48-96-48H32a32 32 0 0 0-32 32v64a32 32 0 0 0 32 32h448a32 32 0 0 0 32-32v-64a32 32 0 0 0-32-32zm0-320H32A32 32 0 0 0 0 64v96a32 32 0 0 0 32 32h448a32 32 0 0 0 32-32V64a32 32 0 0 0-32-32z" class="fa-primary"/></svg>