<svg xmlns="http://www.w3.org/2000/svg" viewBox="0 0 512 512"><!-- Font Awesome Pro 5.15.4 by @fontawesome - https://fontawesome.com License - https://fontawesome.com/license (Commercial License) --><defs><style>.fa-secondary{opacity:.4}</style></defs><path d="M111.94322,377.45123l-17.802,17.80239c-2.60029-.70011-5.00057-1.60022-7.80089-1.60022a32.00433,32.00433,0,1,0,32.00362,32.00433c0-2.80037-.9001-5.20072-1.60018-7.801l17.802-17.8024ZM502.77737,265.126l-.09-.09-80.38909-80.43088-33.95384,34.0046L280.53226,326.42434l80.35908,80.36087a31.87308,31.87308,0,0,0,45.00509,0l96.7109-96.71306a31.78484,31.78484,0,0,0,.17-44.94608ZM247.02847,9.30144A32.0032,32.0032,0,0,0,224.45592.00018a31.6132,31.6132,0,0,0-22.50254,9.30126l-96.71093,96.71308a32.00484,32.00484,0,0,0,0,45.10611l80.33908,80.34086,141.716-141.85918Z" class="fa-secondary"/><path d="M470.18369,136.81869l-199.52254,199.477a190.48961,190.48961,0,0,1-5.4006,168.47279c-4.50051,8.50115-16.40185,9.60128-23.20262,2.80037L4.43107,270.0367c-6.80077-6.8009-5.70064-18.59251,2.80032-23.19314a190.61773,190.61773,0,0,1,168.519-5.40072L375.173,41.82584a33.64327,33.64327,0,0,1,47.50536,0l47.50537,47.49643a33.615,33.615,0,0,1,0,47.49643Z" class="fa-primary"/></svg>