<svg xmlns="http://www.w3.org/2000/svg" viewBox="0 0 640 512"><!-- Font Awesome Pro 5.15.4 by @fontawesome - https://fontawesome.com License - https://fontawesome.com/license (Commercial License) --><defs><style>.fa-secondary{opacity:.4}</style></defs><path d="M635.28 100.69L608 73.37A32 32 0 0 0 585.34 64h-46.83a64 64 0 0 0-45.26 18.74L210 366a25.41 25.41 0 0 1-39.76-31l47.39-79H240a16 16 0 0 0 16-16v-16a16 16 0 0 0-16-16H16a16 16 0 0 0-16 16v16a15.91 15.91 0 0 0 15.21 15.84C7.48 288.56 0 326.72 0 352c0 61.4 35 114.09 85.73 140.92A150 150 0 0 0 160 512c77.1 0 116.46-51.33 128-64l246.39-308a32 32 0 0 1 25-12H624c14.22 0 21.36-17.23 11.28-27.31zM88 392a24 24 0 1 1 24-24 24 24 0 0 1-24 24zm32-88a24 24 0 1 1 24-24 24 24 0 0 1-24 24z" class="fa-secondary"/><path d="M320 212.69L308.69 224a16 16 0 0 0 0 22.63L319 257l34-34-10.35-10.34a16 16 0 0 0-22.65.03zM177.77 25.6a301.94 301.94 0 0 0-28.1 30A387.31 387.31 0 0 0 100 0C50.88 45.58 16 105 16 140.8a117 117 0 0 0 5.89 35.2h61.34A60.88 60.88 0 0 1 72 140.8c0-7.62 8.66-30.3 28.46-57.54q2 2.61 3.89 5.22L147 147.26l27.06-33.08c6.07 12.1 9.54 22.24 9.92 26.62a60.88 60.88 0 0 1-11.21 35.2h61.34a117 117 0 0 0 5.89-35.2c0-26.63-26-81.57-62.23-115.2zM368 164.69L356.69 176a16 16 0 0 0 0 22.63L367 209l34-34-10.35-10.34a16 16 0 0 0-22.65.03zm70.62-48a16 16 0 0 0-22.62 0L404.69 128a16 16 0 0 0 0 22.63L415 161l34-34z" class="fa-primary"/></svg>