<svg xmlns="http://www.w3.org/2000/svg" viewBox="0 0 640 512"><!-- Font Awesome Pro 5.15.4 by @fontawesome - https://fontawesome.com License - https://fontawesome.com/license (Commercial License) --><defs><style>.fa-secondary{opacity:.4}</style></defs><path d="M256 448a32 32 0 0 0 32-32V304.27L205 448zM368 64H96a95.91 95.91 0 0 0-1.7 191.79L6.44 408A48 48 0 0 0 24 473.53l55.4 32A48 48 0 0 0 145 488l134-232h89.09a16 16 0 0 0 16-16V80a16 16 0 0 0-16.03-16z" class="fa-secondary"/><path d="M632 448H456a8 8 0 0 0-8 8v48a8 8 0 0 0 8 8h176a8 8 0 0 0 8-8v-48a8 8 0 0 0-8-8zm0-96H456a8 8 0 0 0-8 8v16a8 8 0 0 0 8 8h176a8 8 0 0 0 8-8v-16a8 8 0 0 0-8-8zm0-64H456a8 8 0 0 0-8 8v16a8 8 0 0 0 8 8h176a8 8 0 0 0 8-8v-16a8 8 0 0 0-8-8zm0-224H456a8 8 0 0 0-8 8v48a8 8 0 0 0 8 8h176a8 8 0 0 0 8-8V72a8 8 0 0 0-8-8zm0 96H456a8 8 0 0 0-8 8v48a8 8 0 0 0 8 8h176a8 8 0 0 0 8-8v-48a8 8 0 0 0-8-8zm0-160H456a8 8 0 0 0-8 8v16a8 8 0 0 0 8 8h176a8 8 0 0 0 8-8V8a8 8 0 0 0-8-8z" class="fa-primary"/></svg>