<svg xmlns="http://www.w3.org/2000/svg" viewBox="0 0 576 512"><!-- Font Awesome Pro 5.15.4 by @fontawesome - https://fontawesome.com License - https://fontawesome.com/license (Commercial License) --><defs><style>.fa-secondary{opacity:.4}</style></defs><path d="M400 96H16a16 16 0 0 0-16 16v137.4a16 16 0 0 0 4.7 11.3L32 288v176a48 48 0 0 0 48 48h256a48 48 0 0 0 48-48V288l27.3-27.3a16 16 0 0 0 4.7-11.3V112a16 16 0 0 0-16-16zM192 440a8 8 0 0 1-8 8h-80a8 8 0 0 1-8-8v-48a8 8 0 0 1 8-8h80a8 8 0 0 1 8 8zm0-96a8 8 0 0 1-8 8h-80a8 8 0 0 1-8-8v-48a8 8 0 0 1 8-8h80a8 8 0 0 1 8 8zm128 96a8 8 0 0 1-8 8h-80a8 8 0 0 1-8-8v-48a8 8 0 0 1 8-8h80a8 8 0 0 1 8 8zm0-96a8 8 0 0 1-8 8h-80a8 8 0 0 1-8-8v-48a8 8 0 0 1 8-8h80a8 8 0 0 1 8 8zm32-128a8 8 0 0 1-8 8H72a8 8 0 0 1-8-8v-48a8 8 0 0 1 8-8h272a8 8 0 0 1 8 8z" class="fa-secondary"/><path d="M568 0h-48a8 8 0 0 0-8 8v272a8 8 0 0 0 8 8h48a8 8 0 0 0 8-8V8a8 8 0 0 0-8-8zM320 8a8 8 0 0 0-8-8h-16a8 8 0 0 0-8 8v56h32zm-64 0a8 8 0 0 0-8-8h-48a8 8 0 0 0-8 8v56h64zm152-8h-48a8 8 0 0 0-8 8v56h64V8a8 8 0 0 0-8-8zm64 0h-16a8 8 0 0 0-8 8v272a8 8 0 0 0 8 8h16a8 8 0 0 0 8-8V8a8 8 0 0 0-8-8zM344 160H72a8 8 0 0 0-8 8v48a8 8 0 0 0 8 8h272a8 8 0 0 0 8-8v-48a8 8 0 0 0-8-8z" class="fa-primary"/></svg>