<svg xmlns="http://www.w3.org/2000/svg" viewBox="0 0 640 512"><!-- Font Awesome Pro 5.15.4 by @fontawesome - https://fontawesome.com License - https://fontawesome.com/license (Commercial License) --><defs><style>.fa-secondary{opacity:.4}</style></defs><path d="M544 96v288H304a16 16 0 0 0-16 16v32a80 80 0 0 1-160 0V65A65 65 0 0 0 63 0h385a96.1 96.1 0 0 1 96 96z" class="fa-secondary"/><path d="M64 0A64 64 0 0 0 0 64v48a16 16 0 0 0 16 16h112V65A65 65 0 0 0 64 0zm128 512h16c-2.59 0-5.14-.13-7.66-.37-2.75.24-5.53.37-8.34.37zm432-128H304a16 16 0 0 0-16 16v32a80 80 0 0 1-80 80h320a112 112 0 0 0 112-112.06A16 16 0 0 0 624 384z" class="fa-primary"/></svg>