<svg xmlns="http://www.w3.org/2000/svg" viewBox="0 0 640 512"><!-- Font Awesome Pro 5.15.4 by @fontawesome - https://fontawesome.com License - https://fontawesome.com/license (Commercial License) --><defs><style>.fa-secondary{opacity:.4}</style></defs><path d="M549.87 0L510 192H0C64 64 192 0 338.87 0z" class="fa-secondary"/><path d="M639.44 38l-96.27 461a16 16 0 0 1-15.72 13H496a16 16 0 0 1-16-16 16.16 16.16 0 0 1 .27-2.94l29.26-141H400a16 16 0 0 1-16-16V304a16 16 0 0 1 16-16h122.81L582.55 0H608a32 32 0 0 1 31.44 38z" class="fa-primary"/></svg>