<svg xmlns="http://www.w3.org/2000/svg" viewBox="0 0 512 512"><!-- Font Awesome Pro 5.15.4 by @fontawesome - https://fontawesome.com License - https://fontawesome.com/license (Commercial License) --><defs><style>.fa-secondary{opacity:.4}</style></defs><path d="M208 80a128 128 0 1 1-90.51 37.49A127.15 127.15 0 0 1 208 80m0-80C93.12 0 0 93.12 0 208s93.12 208 208 208 208-93.12 208-208S322.88 0 208 0z" class="fa-secondary"/><path d="M208 112a73.83 73.83 0 0 0-73.84 73.83c0 33 48.26 93 66.75 114.86a9.22 9.22 0 0 0 13 1.16 8.55 8.55 0 0 0 1.17-1.16c18.49-21.81 66.75-81.89 66.75-114.86A73.83 73.83 0 0 0 208 112zm0 96a24 24 0 1 1 24-24 24 24 0 0 1-24 24zm297 234.7L405.3 343a24 24 0 0 0-17-7H372l-36 36v16.3a24 24 0 0 0 7 17l99.7 99.7a23.9 23.9 0 0 0 33.9 0l28.3-28.3a24.11 24.11 0 0 0 .1-34z" class="fa-primary"/></svg>