<svg xmlns="http://www.w3.org/2000/svg" viewBox="0 0 512 512"><!-- Font Awesome Pro 5.15.4 by @fontawesome - https://fontawesome.com License - https://fontawesome.com/license (Commercial License) --><defs><style>.fa-secondary{opacity:.4}</style></defs><path d="M208 80a128 128 0 1 1-90.51 37.49A127.15 127.15 0 0 1 208 80m0-80C93.12 0 0 93.12 0 208s93.12 208 208 208 208-93.12 208-208S322.88 0 208 0z" class="fa-secondary"/><path d="M292 180h-56v-56a12 12 0 0 0-12-12h-32a12 12 0 0 0-12 12v56h-56a12 12 0 0 0-12 12v32a12 12 0 0 0 12 12h56v56a12 12 0 0 0 12 12h32a12 12 0 0 0 12-12v-56h56a12 12 0 0 0 12-12v-32a12 12 0 0 0-12-12zm213 262.7L405.3 343a24 24 0 0 0-17-7H372l-36 36v16.3a24 24 0 0 0 7 17l99.7 99.7a23.9 23.9 0 0 0 33.9 0l28.3-28.3a24.11 24.11 0 0 0 .1-34z" class="fa-primary"/></svg>