<svg xmlns="http://www.w3.org/2000/svg" viewBox="0 0 512 512"><!-- Font Awesome Pro 5.15.4 by @fontawesome - https://fontawesome.com License - https://fontawesome.com/license (Commercial License) --><defs><style>.fa-secondary{opacity:.4}</style></defs><path d="M208 80a128 128 0 1 1-90.51 37.49A127.15 127.15 0 0 1 208 80m0-80C93.12 0 0 93.12 0 208s93.12 208 208 208 208-93.12 208-208S322.88 0 208 0z" class="fa-secondary"/><path d="M235.13 199.42l-45-13.5c-5.16-1.55-8.77-6.78-8.77-12.73 0-7.27 5.3-13.19 11.8-13.19h28.11a24 24 0 0 1 12.82 3.72 8.21 8.21 0 0 0 10.13-.73L256 151.78a8 8 0 0 0-.57-12.14A57.26 57.26 0 0 0 224 128.29V112a8 8 0 0 0-8-8h-16a8 8 0 0 0-8 8v16.12c-23.63.63-42.68 20.55-42.68 45.07 0 20 13 37.81 31.58 43.39l45 13.5c5.16 1.55 8.77 6.78 8.77 12.73 0 7.27-5.3 13.19-11.8 13.19H194.8a24 24 0 0 1-12.8-3.72 8.21 8.21 0 0 0-10.13.73l-11.77 11.21a8 8 0 0 0 .57 12.14A57.26 57.26 0 0 0 192 287.71V304a8 8 0 0 0 8 8h16a8 8 0 0 0 8-8v-16.12c23.63-.63 42.68-20.54 42.68-45.07.04-19.97-12.95-37.81-31.55-43.39zM505 442.7L405.3 343a24 24 0 0 0-17-7H372l-36 36v16.3a24 24 0 0 0 7 17l99.7 99.7a23.9 23.9 0 0 0 33.9 0l28.3-28.3a24.11 24.11 0 0 0 .1-34z" class="fa-primary"/></svg>