<svg xmlns="http://www.w3.org/2000/svg" viewBox="0 0 640 512"><!-- Font Awesome Pro 5.15.4 by @fontawesome - https://fontawesome.com License - https://fontawesome.com/license (Commercial License) --><defs><style>.fa-secondary{opacity:.4}</style></defs><path d="M608 256H416a32 32 0 0 0-32 32v192a32 32 0 0 0 32 32h192a32 32 0 0 0 32-32V288a32 32 0 0 0-32-32zm-32 192H448V320h128zM224 0H32A32 32 0 0 0 0 32v192a32 32 0 0 0 32 32h192a32 32 0 0 0 32-32V32a32 32 0 0 0-32-32zm-32 192H64V64h128z" class="fa-secondary"/><path d="M384 416H208a48 48 0 0 1-48-48V256h64a32 32 0 0 0 32-32V96h176a48 48 0 0 1 48 48v112h-64a32 32 0 0 0-32 32z" class="fa-primary"/></svg>