<svg xmlns="http://www.w3.org/2000/svg" viewBox="0 0 640 512"><!-- Font Awesome Pro 5.15.4 by @fontawesome - https://fontawesome.com License - https://fontawesome.com/license (Commercial License) --><defs><style>.fa-secondary{opacity:.4}</style></defs><path d="M384,32H64A64,64,0,0,0,0,96V416a64,64,0,0,0,64,64H257.86a111.81,111.81,0,0,1,46.73-187.52A112.15,112.15,0,0,1,416,192c11.14,0,21.74,2.15,32,5.22V96A64,64,0,0,0,384,32ZM96,272a16,16,0,0,1-32,0V112a16,16,0,0,1,32,0Zm64,0a16,16,0,0,1-32,0V112a16,16,0,0,1,32,0Zm64,0a16,16,0,0,1-32,0V112a16,16,0,0,1,32,0Z" class="fa-secondary"/><path d="M572.66,321.28a47.81,47.81,0,0,0-82.39-46.63,79.94,79.94,0,0,0-152.63,45.52c-.56,0-1.08-.17-1.64-.17a80,80,0,0,0,0,160H560a79.85,79.85,0,0,0,12.66-158.72ZM80,96a16,16,0,0,0-16,16V272a16,16,0,0,0,32,0V112A16,16,0,0,0,80,96Zm64,0a16,16,0,0,0-16,16V272a16,16,0,0,0,32,0V112A16,16,0,0,0,144,96Zm64,0a16,16,0,0,0-16,16V272a16,16,0,0,0,32,0V112A16,16,0,0,0,208,96Z" class="fa-primary"/></svg>