<svg xmlns="http://www.w3.org/2000/svg" viewBox="0 0 640 512"><!-- Font Awesome Pro 5.15.4 by @fontawesome - https://fontawesome.com License - https://fontawesome.com/license (Commercial License) --><defs><style>.fa-secondary{opacity:.4}</style></defs><path d="M448,96a64,64,0,0,0-64-64H64A64,64,0,0,0,0,96V416a64,64,0,0,0,64,64H242.51c-2.47-3.15-5.24-6-7.29-9.54a82.22,82.22,0,0,1,0-83.08L376,143.23a82.24,82.24,0,0,1,72-41.58ZM96,272a16,16,0,0,1-32,0V112a16,16,0,0,1,32,0Zm64,0a16,16,0,0,1-32,0V112a16,16,0,0,1,32,0Zm64,0a16,16,0,0,1-32,0V112a16,16,0,0,1,32,0Z" class="fa-secondary"/><path d="M633.09,403.37,492.27,159.22c-19.67-34.1-68.87-34.1-88.53,0L262.91,403.36C243.26,437.43,267.84,480,307.18,480H588.82C628.15,480,652.74,437.43,633.09,403.37ZM448,432a24,24,0,1,1,24-24A24,24,0,0,1,448,432Zm19.08-82.8A12,12,0,0,1,455.14,360H440.87a12,12,0,0,1-11.95-10.8l-9.59-96A12,12,0,0,1,431.27,240h33.47a12,12,0,0,1,11.94,13.2ZM80,96a16,16,0,0,0-16,16V272a16,16,0,0,0,32,0V112A16,16,0,0,0,80,96Zm64,0a16,16,0,0,0-16,16V272a16,16,0,0,0,32,0V112A16,16,0,0,0,144,96Zm64,0a16,16,0,0,0-16,16V272a16,16,0,0,0,32,0V112A16,16,0,0,0,208,96Z" class="fa-primary"/></svg>