<svg xmlns="http://www.w3.org/2000/svg" viewBox="0 0 512 512"><!-- Font Awesome Pro 5.15.4 by @fontawesome - https://fontawesome.com License - https://fontawesome.com/license (Commercial License) --><defs><style>.fa-secondary{opacity:.4}</style></defs><path d="M432 120a24 24 0 1 0-24-24 24 24 0 0 0 24 24zm0 272a24 24 0 1 0 24 24 24 24 0 0 0-24-24zm48-200H32a32 32 0 0 0-32 32v64a32 32 0 0 0 32 32h448a32 32 0 0 0 32-32v-64a32 32 0 0 0-32-32zm-112 88a24 24 0 1 1 24-24 24 24 0 0 1-24 24zm64 0a24 24 0 1 1 24-24 24 24 0 0 1-24 24z" class="fa-secondary"/><path d="M456 256a24 24 0 1 0-24 24 24 24 0 0 0 24-24zm24-224H32A32 32 0 0 0 0 64v64a32 32 0 0 0 32 32h448a32 32 0 0 0 32-32V64a32 32 0 0 0-32-32zm-112 88a24 24 0 1 1 24-24 24 24 0 0 1-24 24zm64 0a24 24 0 1 1 24-24 24 24 0 0 1-24 24zm48 232H32a32 32 0 0 0-32 32v64a32 32 0 0 0 32 32h448a32 32 0 0 0 32-32v-64a32 32 0 0 0-32-32zm-112 88a24 24 0 1 1 24-24 24 24 0 0 1-24 24zm64 0a24 24 0 1 1 24-24 24 24 0 0 1-24 24z" class="fa-primary"/></svg>