<svg xmlns="http://www.w3.org/2000/svg" viewBox="0 0 448 512"><!-- Font Awesome Pro 5.15.4 by @fontawesome - https://fontawesome.com License - https://fontawesome.com/license (Commercial License) --><defs><style>.fa-secondary{opacity:.4}</style></defs><path d="M200 176v224h112a56 56 0 0 0 56-56V48a16 16 0 0 1 16-16h48a16 16 0 0 1 16 16v296a136 136 0 0 1-136 136H144a24 24 0 0 1-24-24V176a16 16 0 0 1 16-16h48a16 16 0 0 1 16 16z" class="fa-secondary"/><path d="M328 168v168a16 16 0 0 1-16 16h-48a16 16 0 0 1-16-16V168a56 56 0 0 0-56-56H80v352a16 16 0 0 1-16 16H16a16 16 0 0 1-16-16V56a24 24 0 0 1 24-24h168a136 136 0 0 1 136 136z" class="fa-primary"/></svg>