<svg xmlns="http://www.w3.org/2000/svg" viewBox="0 0 512 512"><!-- Font Awesome Pro 5.15.4 by @fontawesome - https://fontawesome.com License - https://fontawesome.com/license (Commercial License) --><defs><style>.fa-secondary{opacity:.4}</style></defs><path d="M256 224v288a48.12 48.12 0 0 0 18.41-3.68c72.34-30.14 180.16-123 212.09-284.29zM237.59 3.67l-192 80A47.92 47.92 0 0 0 16 128a485.36 485.36 0 0 0 9.63 96H256V0a57.58 57.58 0 0 0-18.41 3.67z" class="fa-secondary"/><path d="M237.5 508.32A48 48 0 0 0 256 512V224H25.63C55.11 370.52 148.77 471.34 237.5 508.32zm229-424.64l-192-80A57.34 57.34 0 0 0 256.06 0H256v224h230.5a491.56 491.56 0 0 0 9.5-96 48 48 0 0 0-29.5-44.32z" class="fa-primary"/></svg>