<svg xmlns="http://www.w3.org/2000/svg" viewBox="0 0 512 512"><!-- Font Awesome Pro 5.15.4 by @fontawesome - https://fontawesome.com License - https://fontawesome.com/license (Commercial License) --><defs><style>.fa-secondary{opacity:.4}</style></defs><path d="M496 128c0 221.29-135.9 344.6-221.6 380.32A48.29 48.29 0 0 1 256 512V0a48.18 48.18 0 0 1 18.5 3.67l192 80A48 48 0 0 1 496 128z" class="fa-secondary"/><path d="M256 0v512a48.18 48.18 0 0 1-18.5-3.67C130.5 463.72 16 326.52 16 128a48 48 0 0 1 29.6-44.32l192-80A48.29 48.29 0 0 1 256 0z" class="fa-primary"/></svg>