<svg xmlns="http://www.w3.org/2000/svg" viewBox="0 0 640 512"><!-- Font Awesome Pro 5.15.4 by @fontawesome - https://fontawesome.com License - https://fontawesome.com/license (Commercial License) --><defs><style>.fa-secondary{opacity:.4}</style></defs><path d="M248 160H40a8 8 0 0 0-8 8v16a8 8 0 0 0 8 8h208a8 8 0 0 0 8-8v-16a8 8 0 0 0-8-8zm-24 88v-16a8 8 0 0 0-8-8H8a8 8 0 0 0-8 8v16a8 8 0 0 0 8 8h208a8 8 0 0 0 8-8zm-48 104a80 80 0 1 0 80 80 80 80 0 0 0-80-80zm288 0a80 80 0 1 0 80 80 80 80 0 0 0-80-80zM280 96H8a8 8 0 0 0-8 8v16a8 8 0 0 0 8 8h272a8 8 0 0 0 8-8v-16a8 8 0 0 0-8-8z" class="fa-secondary"/><path d="M624 352h-16V243.9a48 48 0 0 0-14.1-33.9L494 110.1A48 48 0 0 0 460.1 96H416V48a48 48 0 0 0-48-48H112a48 48 0 0 0-48 48v48h216a8 8 0 0 1 8 8v16a8 8 0 0 1-8 8H64v32h184a8 8 0 0 1 8 8v16a8 8 0 0 1-8 8H64v32h152a8 8 0 0 1 8 8v16a8 8 0 0 1-8 8H64v112a47.74 47.74 0 0 0 7 25 112 112 0 0 1 215.86 23h66.28a112 112 0 0 1 221.72 0H624a16 16 0 0 0 16-16v-32a16 16 0 0 0-16-16zm-64-96H416V144h44.1l99.9 99.9z" class="fa-primary"/></svg>