<svg xmlns="http://www.w3.org/2000/svg" viewBox="0 0 512 512"><!-- Font Awesome Pro 5.15.4 by @fontawesome - https://fontawesome.com License - https://fontawesome.com/license (Commercial License) --><defs><style>.fa-secondary{opacity:.4}</style></defs><path d="M511.21 84.07c-3.78-29.71-21.06-55.68-47.42-71.21a95.15 95.15 0 0 0-97.93 1.43C323.2 41 307.71 94 330 138.88c1.44 2.93 2.28 7.16 0 9.49l-24.47 24.45 33.93 33.93 24.48-24.46c16.72-16.73 20.28-42.14 9.09-64.72-9.62-19.43-6-48.25 19.61-63.36a45.55 45.55 0 0 1 45.92-.53c14.22 8 23.15 21 25.13 36.45a47.82 47.82 0 0 1-6 30.09c-3.71 6.39-3.31 14.32 1.91 19.55l12.29 12.29c6.72 6.72 18.17 6.09 23.54-1.75a95.27 95.27 0 0 0 15.78-66.24zM4.55 473.52a15.5 15.5 0 0 0 0 21.91l12 12a15.49 15.49 0 0 0 21.91 0l61.78-61.73-33.92-33.91z" class="fa-secondary"/><path d="M126.55 255.59a30.61 30.61 0 0 0-43.28 0L41 297.89a30.59 30.59 0 0 0 0 43.27L170.82 471a30.61 30.61 0 0 0 43.28 0l42.3-42.3a30.61 30.61 0 0 0 0-43.28zm238.05 21.65L234.77 147.38a30.62 30.62 0 0 0-43.29 0l-42.3 42.3a30.62 30.62 0 0 0 0 43.28L279 362.82a30.61 30.61 0 0 0 43.28 0l42.3-42.3a30.61 30.61 0 0 0 .02-43.28z" class="fa-primary"/></svg>