<svg xmlns="http://www.w3.org/2000/svg" viewBox="0 0 448 512"><!-- Font Awesome Pro 5.15.4 by @fontawesome - https://fontawesome.com License - https://fontawesome.com/license (Commercial License) --><defs><style>.fa-secondary{opacity:.4}</style></defs><path d="M.06 160v-.13l96 .06v-32C96.12 57.35 153.57 0 224.15 0s128 57.49 127.92 128.07V160h-64v-32a64 64 0 0 0-128-.08v32h64z" class="fa-secondary"/><path d="M.06 159.87l-.16 272a80 80 0 0 0 79.95 80.05l288 .16a80 80 0 0 0 80-80l.16-272zM128 247.94a24 24 0 1 1 24-24 24 24 0 0 1-24 24zm192 .12a24 24 0 1 1 24-24 24 24 0 0 1-24 24z" class="fa-primary"/></svg>