<svg xmlns="http://www.w3.org/2000/svg" viewBox="0 0 512 512"><!-- Font Awesome Pro 5.15.4 by @fontawesome - https://fontawesome.com License - https://fontawesome.com/license (Commercial License) --><defs><style>.fa-secondary{opacity:.4}</style></defs><path d="M203.72 244.36a15.88 15.88 0 0 0-22.45-.13l-.12.13-79.9 79.9a16 16 0 0 0 21.46 23.68 14.53 14.53 0 0 0 1.11-1.11l79.9-79.9a16 16 0 0 0 0-22.57zm41.34 63.92l-79.89 79.9a16 16 0 0 0 21.46 23.68c.38-.35.76-.72 1.11-1.11l79.89-79.9a16 16 0 1 0-22.57-22.57zm258.17-236.1L439.81 8.76a30 30 0 0 0-42.34 0L373 33.23a74.58 74.58 0 0 0-20.38 67.65 77.16 77.16 0 0 0 6.4 18.37l-99.18 99.16 33.86 33.87 99.17-99.18a76.19 76.19 0 0 0 18.38 6.39A74.41 74.41 0 0 0 478.76 139l24.47-24.47a30 30 0 0 0 0-42.35zm-58.29 33a26.9 26.9 0 0 1-45.34-13.79 27.18 27.18 0 0 1 7.29-24.28l11.79-11.78 38.05 38.06z" class="fa-secondary"/><path d="M342.66 301.9l-132.5-132.5a31.77 31.77 0 0 0-41.9-2.71L12.36 287a31.69 31.69 0 0 0-5.78 44.45 33.3 33.3 0 0 0 2.78 3.15l168 168a31.77 31.77 0 0 0 44.93 0 29.52 29.52 0 0 0 2.67-3l120.4-155.81a31.73 31.73 0 0 0-2.7-41.89zm-220 46a16 16 0 0 1-21.46-23.68l79.9-79.9.12-.13a16 16 0 0 1 22.45 22.7l-79.9 79.9a14.53 14.53 0 0 1-1.06 1.15zm144.92-17.09l-79.89 79.9c-.35.39-.73.76-1.11 1.11a16 16 0 0 1-21.46-23.68l79.89-79.9a16 16 0 1 1 22.57 22.57z" class="fa-primary"/></svg>