<svg xmlns="http://www.w3.org/2000/svg" viewBox="0 0 512 512"><!-- Font Awesome Pro 5.15.4 by @fontawesome - https://fontawesome.com License - https://fontawesome.com/license (Commercial License) --><defs><style>.fa-secondary{opacity:.4}</style></defs><path d="M336,224a16,16,0,1,0,16,16A16,16,0,0,0,336,224Zm0,96a16,16,0,1,0-16-16A16,16,0,0,0,336,320Zm-32,0a16,16,0,1,0,16,16A16,16,0,0,0,304,320Zm128-96a16,16,0,1,0-16-16A16,16,0,0,0,432,224Zm-64,64a16,16,0,1,0-16-16A16,16,0,0,0,368,288Zm16-48a16,16,0,1,0,16-16A16,16,0,0,0,384,240Zm-80,16a16,16,0,1,0,16,16A16,16,0,0,0,304,256Zm32,96a16,16,0,1,0,16,16A16,16,0,0,0,336,352ZM464,224a16,16,0,1,0,16,16A16,16,0,0,0,464,224Zm32-32a16,16,0,1,0,16,16A16,16,0,0,0,496,192Zm-64,64a16,16,0,1,0,16,16A16,16,0,0,0,432,256Zm-32,32a16,16,0,1,0,16,16A16,16,0,0,0,400,288Zm-96,96a16,16,0,1,0,16,16A16,16,0,0,0,304,384Zm64-192a16,16,0,1,0,16,16A16,16,0,0,0,368,192Zm0,128a16,16,0,1,0,16,16A16,16,0,0,0,368,320Z" class="fa-secondary"/><path d="M389.66,101.65,378.34,90.34a16,16,0,0,0-22.62,0L350.05,96A111.17,111.17,0,0,0,272,64c-19.24,0-37.08,5.3-52.9,13.85l-10-10A121.72,121.72,0,0,0,123.44,32C55.49,31.5,0,92.91,0,160.85V464a16,16,0,0,0,16,16H48a16,16,0,0,0,16-16V158.4c0-30.15,21-58.2,51-61.93a58.38,58.38,0,0,1,48.93,16.67l10,10C165.3,138.92,160,156.76,160,176a111.2,111.2,0,0,0,32,78.05l-5.68,5.67a16,16,0,0,0,0,22.62l11.32,11.31a16,16,0,0,0,22.62,0L389.66,124.28A16,16,0,0,0,389.66,101.65Z" class="fa-primary"/></svg>