<svg xmlns="http://www.w3.org/2000/svg" viewBox="0 0 512 512"><!-- Font Awesome Pro 5.15.4 by @fontawesome - https://fontawesome.com License - https://fontawesome.com/license (Commercial License) --><defs><style>.fa-secondary{opacity:.4}</style></defs><path d="M448 96v128H64V32A32 32 0 0 1 96 0h256v80a16 16 0 0 0 16 16zM232 416h48v80a16 16 0 0 1-16 16h-16a16 16 0 0 1-16-16zm-96 0h48v80a16 16 0 0 1-16 16h-16a16 16 0 0 1-16-16zm-96 0h48v80a16 16 0 0 1-16 16H56a16 16 0 0 1-16-16zm288 0h48v80a16 16 0 0 1-16 16h-16a16 16 0 0 1-16-16zm96 0h48v80a16 16 0 0 1-16 16h-16a16 16 0 0 1-16-16z" class="fa-secondary"/><path d="M368 96h80v-4.58a17.92 17.92 0 0 0-5.25-12.67l-73.43-73.5A18 18 0 0 0 356.57 0H352v80a16 16 0 0 0 16 16zm80 96v32H64v-32a64 64 0 0 0-64 64v112a16 16 0 0 0 16 16h480a16 16 0 0 0 16-16V256a64 64 0 0 0-64-64zm-16 136a24 24 0 1 1 24-24 24 24 0 0 1-24 24z" class="fa-primary"/></svg>