<svg xmlns="http://www.w3.org/2000/svg" viewBox="0 0 640 512"><!-- Font Awesome Pro 5.15.4 by @fontawesome - https://fontawesome.com License - https://fontawesome.com/license (Commercial License) --><defs><style>.fa-secondary{opacity:.4}</style></defs><path d="M160 320a80 80 0 1 0 80 80 80 80 0 0 0-80-80zm320 0a80 80 0 1 0 80 80 80 80 0 0 0-80-80z" class="fa-secondary"/><path d="M628.88 210.65L494.39 49.27A48 48 0 0 0 457.52 32H32A32 32 0 0 0 0 64v288a32 32 0 0 0 32 32h17.14a112 112 0 0 1 221.72 0h98.28a112 112 0 0 1 221.72 0H608a32 32 0 0 0 32-32V241.38a48.05 48.05 0 0 0-11.12-30.73zM160 192H64V96h96zm160 0h-96V96h96zm64 0V96h66l80 96z" class="fa-primary"/></svg>