<svg xmlns="http://www.w3.org/2000/svg" viewBox="0 0 384 512"><!-- Font Awesome Pro 5.15.4 by @fontawesome - https://fontawesome.com License - https://fontawesome.com/license (Commercial License) --><defs><style>.fa-secondary{opacity:.4}</style></defs><path d="M360 352h-48a24 24 0 0 0-24 23.44V480h64a32 32 0 0 0 32-32v-72a24 24 0 0 0-24-24zm-8-320h-64v104.56A24 24 0 0 0 312 160h48a24 24 0 0 0 24-24V64a32 32 0 0 0-32-32z" class="fa-secondary"/><path d="M288 136v-8H142.24l109.09 128-109.09 128H288v-8.56V480H52a52 52 0 0 1-42-82.64L132.65 256 10 114.6A52 52 0 0 1 52 32h236v104z" class="fa-primary"/></svg>