<svg xmlns="http://www.w3.org/2000/svg" viewBox="0 0 640 512"><!-- Font Awesome Pro 5.15.4 by @fontawesome - https://fontawesome.com License - https://fontawesome.com/license (Commercial License) --><defs><style>.fa-secondary{opacity:.4}</style></defs><path d="M616 16v480a16 16 0 0 1-16 16h-48a16 16 0 0 1-16-16V16a16 16 0 0 1 16-16h48a16 16 0 0 1 16 16z" class="fa-secondary"/><path d="M216 288h-48a16 16 0 0 0-16 16v192a16 16 0 0 0 16 16h48a16 16 0 0 0 16-16V304a16 16 0 0 0-16-16zM88 384H40a16 16 0 0 0-16 16v96a16 16 0 0 0 16 16h48a16 16 0 0 0 16-16v-96a16 16 0 0 0-16-16zm256-192h-48a16 16 0 0 0-16 16v288a16 16 0 0 0 16 16h48a16 16 0 0 0 16-16V208a16 16 0 0 0-16-16zm128-96h-48a16 16 0 0 0-16 16v384a16 16 0 0 0 16 16h48a16 16 0 0 0 16-16V112a16 16 0 0 0-16-16z" class="fa-primary"/></svg>