<svg xmlns="http://www.w3.org/2000/svg" viewBox="0 0 640 512"><!-- Font Awesome Pro 5.15.4 by @fontawesome - https://fontawesome.com License - https://fontawesome.com/license (Commercial License) --><defs><style>.fa-secondary{opacity:.4}</style></defs><path d="M576 0h-32a32 32 0 0 0-32 32v448a32 32 0 0 0 32 32h32a32 32 0 0 0 32-32V32a32 32 0 0 0-32-32zM416 128h-32a32 32 0 0 0-32 32v320a32 32 0 0 0 32 32h32a32 32 0 0 0 32-32V160a32 32 0 0 0-32-32z" class="fa-secondary"/><path d="M96 384H64a32 32 0 0 0-32 32v64a32 32 0 0 0 32 32h32a32 32 0 0 0 32-32v-64a32 32 0 0 0-32-32zm160-128h-32a32 32 0 0 0-32 32v192a32 32 0 0 0 32 32h32a32 32 0 0 0 32-32V288a32 32 0 0 0-32-32z" class="fa-primary"/></svg>