<svg xmlns="http://www.w3.org/2000/svg" viewBox="0 0 512 512"><!-- Font Awesome Pro 5.15.4 by @fontawesome - https://fontawesome.com License - https://fontawesome.com/license (Commercial License) --><defs><style>.fa-secondary{opacity:.4}</style></defs><path d="M512 160v192a96 96 0 0 1-96 96h-84a12 12 0 0 1-12-12v-40a12 12 0 0 1 12-12h84a32 32 0 0 0 32-32V160a32 32 0 0 0-32-32h-84a12 12 0 0 1-12-12V76a12 12 0 0 1 12-12h84a96 96 0 0 1 96 96z" class="fa-secondary"/><path d="M215.6 295.9H24a23.94 23.94 0 0 1-24-24v-32a23.94 23.94 0 0 1 24-24h191.5l-77.6-71.1a23.84 23.84 0 0 1-.7-34.5l21.9-21.9a24.08 24.08 0 0 1 33.9-.1L344.9 239a24 24 0 0 1 0 34.1L193 423.7a24 24 0 0 1-33.9-.1l-21.9-21.9a24 24 0 0 1 .8-34.7z" class="fa-primary"/></svg>