<svg xmlns="http://www.w3.org/2000/svg" viewBox="0 0 384 512"><!-- Font Awesome Pro 5.15.4 by @fontawesome - https://fontawesome.com License - https://fontawesome.com/license (Commercial License) --><defs><style>.fa-secondary{opacity:.4}</style></defs><path d="M128 192H96a32 32 0 0 0-32 32v32h64zM64 416a32 32 0 0 0 32 32h32v-64H64zm160-224h-64v64h64zm32 256h32a32 32 0 0 0 32-32v-32h-64zm-96 0h64v-64h-64zm128-256h-32v64h64v-32a32 32 0 0 0-32-32zM64 352h256v-64H64z" class="fa-secondary"/><path d="M256 0H64A64.06 64.06 0 0 0 0 64v384a64.06 64.06 0 0 0 64 64h256a64.06 64.06 0 0 0 64-64V128zm64 416a32 32 0 0 1-32 32H96a32 32 0 0 1-32-32V224a32 32 0 0 1 32-32h192a32 32 0 0 1 32 32z" class="fa-primary"/></svg>