<svg xmlns="http://www.w3.org/2000/svg" viewBox="0 0 640 512"><!-- Font Awesome Pro 5.15.4 by @fontawesome - https://fontawesome.com License - https://fontawesome.com/license (Commercial License) --><defs><style>.fa-secondary{opacity:.4}</style></defs><path d="M224.21,134.94a8,8,0,0,1,9-6.87l15.86,2.13a8,8,0,0,1,6.87,9L231.82,320H496L471,120.06A64,64,0,0,0,407.5,64h-175A64,64,0,0,0,169,120.06L144,320h55.54Z" class="fa-secondary"/><path d="M528,352H112a16,16,0,0,0-16,16v64a16,16,0,0,0,16,16H528a16,16,0,0,0,16-16V368A16,16,0,0,0,528,352ZM112,192a24,24,0,0,0-24-24H24a24,24,0,0,0,0,48H88A24,24,0,0,0,112,192Zm504-24H552a24,24,0,0,0,0,48h64a24,24,0,0,0,0-48ZM90.69,76a24,24,0,1,0,26.62-39.92l-48-32A24,24,0,1,0,42.69,44ZM536,80a23.87,23.87,0,0,0,13.29-4l48-32A24,24,0,1,0,570.69,4.06l-48,32A24,24,0,0,0,536,80Z" class="fa-primary"/></svg>