<svg xmlns="http://www.w3.org/2000/svg" viewBox="0 0 448 512"><!-- Font Awesome Pro 5.15.4 by @fontawesome - https://fontawesome.com License - https://fontawesome.com/license (Commercial License) --><defs><style>.fa-secondary{opacity:.4}</style></defs><path d="M400 448a16 16 0 0 0-16 16 16 16 0 0 1-16 16h-96a16 16 0 0 0 0 32h96a48 48 0 0 0 48-48 16 16 0 0 0-16-16zm-282.2 8.6a16 16 0 0 1-22.6 0l-67.9-67.9a16 16 0 1 0-22.6 22.6l67.9 67.9a48.16 48.16 0 0 0 67.9 0 16 16 0 1 0-22.7-22.6zM400 0a48 48 0 1 0 48 48 48 48 0 0 0-48-48z" class="fa-secondary"/><path d="M360.85 164.3a40 40 0 0 0-28.3-68.3H128a32 32 0 1 0 0 64h105.5l-20.1 17.2a63.94 63.94 0 0 0-3.6 93.8l78.2 78.2V432a32 32 0 0 0 64 0v-89.4a48 48 0 0 0-14.1-33.9l-61-61a16.29 16.29 0 0 0 1.7-1.1zm-187 112.5l-93.7 93.7a32 32 0 0 0 22.6 54.6 31.55 31.55 0 0 0 22.6-9.4l91.9-91.9-30.2-30.2a94 94 0 0 1-13.2-16.8z" class="fa-primary"/></svg>