<svg xmlns="http://www.w3.org/2000/svg" viewBox="0 0 512 512"><!-- Font Awesome Pro 5.15.4 by @fontawesome - https://fontawesome.com License - https://fontawesome.com/license (Commercial License) --><defs><style>.fa-secondary{opacity:.4}</style></defs><path d="M224 224H16a16 16 0 0 1-16-16v-32a16 16 0 0 1 16-16h208zM80 128h144V64H80a16 16 0 0 0-16 16v32a16 16 0 0 0 16 16zm208 0h144a16 16 0 0 0 16-16V80a16 16 0 0 0-16-16H288zm160 176v-32a16 16 0 0 0-16-16H288v64h144a16 16 0 0 0 16-16zm32 128a80 80 0 1 1-158.39-16H190.39A80 80 0 1 1 112 352h288a80 80 0 0 1 80 80zm-336 0a32 32 0 1 0-32 32 32 32 0 0 0 32-32zm288 0a32 32 0 1 0-32 32 32 32 0 0 0 32-32zM64 272v32a16 16 0 0 0 16 16h144v-64H80a16 16 0 0 0-16 16zm432-112H288v64h208a16 16 0 0 0 16-16v-32a16 16 0 0 0-16-16z" class="fa-secondary"/><path d="M224 16a16 16 0 0 1 16-16h32a16 16 0 0 1 16 16v336h-64z" class="fa-primary"/></svg>