<svg xmlns="http://www.w3.org/2000/svg" viewBox="0 0 640 512"><!-- Font Awesome Pro 5.15.4 by @fontawesome - https://fontawesome.com License - https://fontawesome.com/license (Commercial License) --><defs><style>.fa-secondary{opacity:.4}</style></defs><path d="M60.07,113.24C43.35,89.15,56.88,37.69,63,21.58a16,16,0,0,0-26.21-17C13.05,27.82,0,60.17,0,95.67,0,166.12,57.43,224,128,224h32V160a63.33,63.33,0,0,1,8.88-32H96C78.61,128,66.87,123,60.07,113.24ZM603.26,4.57a16,16,0,0,0-26.21,17c6.07,16.11,19.6,67.57,2.88,91.66C573.13,123,561.39,128,544,128H471.12A63.32,63.32,0,0,1,480,160v64h32c70.59,0,128-57.88,128-128.33C640,60.17,627,27.82,603.26,4.57Z" class="fa-secondary"/><path d="M416,96H224a64,64,0,0,0-64,64V288a64,64,0,0,0,64,64L250.8,486.27A32,32,0,0,0,282.19,512h75.53a32,32,0,0,0,31.38-25.72L416,352a64,64,0,0,0,64-64V160A64,64,0,0,0,416,96ZM240,288a32,32,0,1,1,32-32A32,32,0,0,1,240,288Zm160,0a32,32,0,1,1,32-32A32,32,0,0,1,400,288Z" class="fa-primary"/></svg>