<svg xmlns="http://www.w3.org/2000/svg" viewBox="0 0 448 512"><!-- Font Awesome Pro 5.15.4 by @fontawesome - https://fontawesome.com License - https://fontawesome.com/license (Commercial License) --><defs><style>.fa-secondary{opacity:.4}</style></defs><path d="M368 128C368 57.31 303.51 0 224 0S80 57.31 80 128c0 46.53 28.21 86.87 70 109.28l-5.48 25.87C141.84 275.77 149.93 288 161 288h126c11 0 19.12-12.22 16.45-24.84L298 237.28c41.76-22.41 70-62.75 70-109.28zm-200 48a32 32 0 1 1 32-32 32 32 0 0 1-32 32zm112 0a32 32 0 1 1 32-32 32 32 0 0 1-32 32z" class="fa-secondary"/><path d="M280 176a32 32 0 1 0-32-32 32 32 0 0 0 32 32zm159.15 277.05l-142-69.05 142-69.06a16 16 0 0 0 7.15-21.46L432 264.85a16 16 0 0 0-21.46-7.15L224 348.4 37.47 257.69A16 16 0 0 0 16 264.85L1.69 293.47a16 16 0 0 0 7.16 21.46l142 69.06-142 69.06a16 16 0 0 0-7.15 21.47L16 503.15a16 16 0 0 0 21.47 7.13L224 419.58l186.51 90.72a16 16 0 0 0 21.49-7.15l14.33-28.63a16 16 0 0 0-7.18-21.47zM168 176a32 32 0 1 0-32-32 32 32 0 0 0 32 32z" class="fa-primary"/></svg>