<svg xmlns="http://www.w3.org/2000/svg" viewBox="0 0 448 512"><!-- Font Awesome Pro 5.15.4 by @fontawesome - https://fontawesome.com License - https://fontawesome.com/license (Commercial License) --><defs><style>.fa-secondary{opacity:.4}</style></defs><path d="M400 32H48A48 48 0 0 0 0 80v352a48 48 0 0 0 48 48h352a48 48 0 0 0 48-48V80a48 48 0 0 0-48-48zm-16 324a12 12 0 0 1-12 12h-52v24a23.94 23.94 0 0 1-24 24h-16a23.94 23.94 0 0 1-24-24v-24H76a12 12 0 0 1-12-12v-40a12 12 0 0 1 12-12h180v-24a23.94 23.94 0 0 1 24-24h16a23.94 23.94 0 0 1 24 24v24h52a12 12 0 0 1 12 12zm0-160a12 12 0 0 1-12 12H192v24a23.94 23.94 0 0 1-24 24h-16a23.94 23.94 0 0 1-24-24v-24H76a12 12 0 0 1-12-12v-40a12 12 0 0 1 12-12h52v-24a23.94 23.94 0 0 1 24-24h16a23.94 23.94 0 0 1 24 24v24h180a12 12 0 0 1 12 12z" class="fa-secondary"/><path d="M168 256a23.94 23.94 0 0 0 24-24V120a23.94 23.94 0 0 0-24-24h-16a23.94 23.94 0 0 0-24 24v112a23.94 23.94 0 0 0 24 24zm112 160h16a23.94 23.94 0 0 0 24-24V280a23.94 23.94 0 0 0-24-24h-16a23.94 23.94 0 0 0-24 24v112a23.94 23.94 0 0 0 24 24z" class="fa-primary"/></svg>