<svg xmlns="http://www.w3.org/2000/svg" viewBox="0 0 640 512"><!-- Font Awesome Pro 5.15.4 by @fontawesome - https://fontawesome.com License - https://fontawesome.com/license (Commercial License) --><defs><style>.fa-secondary{opacity:.4}</style></defs><path d="M208 96C93.1 96 0 189.1 0 304s93.1 208 208 208 208-93.1 208-208S322.9 96 208 96zm64 133.2a26.8 26.8 0 1 1-26.8 26.8 26.8 26.8 0 0 1 26.8-26.8zm-128 0a26.8 26.8 0 1 1-26.8 26.8 26.8 26.8 0 0 1 26.8-26.8zm164.2 140.9a132.32 132.32 0 0 1-200.4 0 16 16 0 1 1 24.3-20.7 100.23 100.23 0 0 0 151.6-.1 16.07 16.07 0 0 1 24.5 20.8z" class="fa-secondary"/><path d="M624 80h-64V16a16 16 0 0 0-16-16h-32a16 16 0 0 0-16 16v64h-64a16 16 0 0 0-16 16v32a16 16 0 0 0 16 16h64v64a16 16 0 0 0 16 16h32a16 16 0 0 0 16-16v-64h64a16 16 0 0 0 16-16V96a16 16 0 0 0-16-16zM272 229.2a26.8 26.8 0 1 0 26.8 26.8 26.8 26.8 0 0 0-26.8-26.8zm-128 0a26.8 26.8 0 1 0 26.8 26.8 26.8 26.8 0 0 0-26.8-26.8z" class="fa-primary"/></svg>