<svg xmlns="http://www.w3.org/2000/svg" viewBox="0 0 496 512"><!-- Font Awesome Pro 5.15.4 by @fontawesome - https://fontawesome.com License - https://fontawesome.com/license (Commercial License) --><defs><style>.fa-secondary{opacity:.4}</style></defs><path d="M248,8C111,8,0,119,0,256S111,504,248,504,496,393,496,256,385,8,248,8ZM168,176a32,32,0,1,1-32,32A32,32,0,0,1,168,176ZM362.8,346.3a149.48,149.48,0,0,1-229.6-.1c-13.5-16.3,11.2-36.7,24.6-20.4a117.5,117.5,0,0,0,180.4,0C351.8,309.6,376.3,330,362.8,346.3ZM368.2,233l-9.7-8.5c-14.8-13.2-46.2-13.2-61,0L288,233c-8.3,7.4-21.6.4-19.8-10.8,4-25.2,34.2-42.1,59.9-42.1S384,197,388,222.2c1.7,11.1-11.4,18.3-19.8,10.8Z" class="fa-secondary"/><path d="M388,222.2c-4-25.2-34.2-42.1-59.9-42.1s-55.9,16.9-59.9,42.1c-1.8,11.2,11.5,18.2,19.8,10.8l9.5-8.5c14.8-13.2,46.2-13.2,61,0l9.7,8.5c8.4,7.5,21.5.3,19.8-10.8ZM168,176a32,32,0,1,0,32,32A32,32,0,0,0,168,176Z" class="fa-primary"/></svg>