<svg xmlns="http://www.w3.org/2000/svg" viewBox="0 0 496 512"><!-- Font Awesome Pro 5.15.4 by @fontawesome - https://fontawesome.com License - https://fontawesome.com/license (Commercial License) --><defs><style>.fa-secondary{opacity:.4}</style></defs><path d="M245.47,8C108.5,9.43-1.36,121.56,0,258.53S113.56,505.36,250.53,504,497.36,390.44,496,253.47,382.44,6.64,245.47,8ZM112,223.4c3.3-42.1,32.2-71.38,56-71.38s52.7,29.28,56,71.38c.7,8.6-10.8,11.9-14.9,4.5l-9.5-17c-7.7-13.7-19.2-21.6-31.5-21.6s-23.78,7.9-31.48,21.6l-9.5,17C122.82,235.3,111.32,231.9,112,223.4ZM363.69,345a149.34,149.34,0,0,1-229.54,2.35c-13.67-16.17,10.62-36.81,24.37-20.75a117.57,117.57,0,0,0,180.39-1.84c13.41-16.32,38.08,3.93,24.78,20.24ZM369,227.9l-9.5-17c-7.7-13.7-19.18-21.6-31.48-21.6s-23.8,7.9-31.5,21.6l-9.5,17c-4.1,7.3-15.6,4-14.9-4.5,3.3-42.1,32.2-71.38,56-71.38s52.68,29.28,56,71.38c.58,8.6-11,11.9-15.11,4.5Z" class="fa-secondary"/><path d="M168,152c-23.78,0-52.68,29.28-56,71.38-.7,8.5,10.8,11.9,15.1,4.5l9.5-17c7.7-13.7,19.18-21.6,31.48-21.6s23.8,7.9,31.5,21.6l9.5,17c4.1,7.4,15.6,4.1,14.9-4.5C220.7,181.3,191.8,152,168,152ZM384.08,223.4c-3.3-42.1-32.2-71.38-56-71.38s-52.7,29.28-56,71.38c-.7,8.5,10.8,11.8,14.9,4.5l9.5-17c7.7-13.7,19.2-21.6,31.5-21.6s23.78,7.9,31.48,21.6l9.5,17c4.11,7.4,15.71,4.1,15.11-4.5Z" class="fa-primary"/></svg>