<svg xmlns="http://www.w3.org/2000/svg" viewBox="0 0 496 512"><!-- Font Awesome Pro 5.15.4 by @fontawesome - https://fontawesome.com License - https://fontawesome.com/license (Commercial License) --><defs><style>.fa-secondary{opacity:.4}</style></defs><path d="M248,8C111,8,0,119,0,256S111,504,248,504,496,393,496,256,385,8,248,8Zm80,168a32,32,0,1,1-32,32A32,32,0,0,1,328,176Zm-160,0a32,32,0,1,1-32,32A32,32,0,0,1,168,176ZM362.8,346.2a149.38,149.38,0,0,1-229.6,0c-13.6-16.3,11-36.7,24.6-20.5a117.5,117.5,0,0,0,180.4,0C351.6,309.5,376.3,329.9,362.8,346.2Z" class="fa-secondary"/><path d="M328,176a32,32,0,1,0,32,32A32,32,0,0,0,328,176Zm-160,0a32,32,0,1,0,32,32A32,32,0,0,0,168,176Z" class="fa-primary"/></svg>