<svg xmlns="http://www.w3.org/2000/svg" viewBox="0 0 640 512"><!-- Font Awesome Pro 5.15.4 by @fontawesome - https://fontawesome.com License - https://fontawesome.com/license (Commercial License) --><defs><style>.fa-secondary{opacity:.4}</style></defs><path d="M553.3 87.1a20.29 20.29 0 0 1-9.3-16.8V8a8 8 0 0 0-8-8h-48a8 8 0 0 0-8 8v62.3c0 22 10.2 43.4 28.6 55.4a147.29 147.29 0 0 1 67.4 124V280a8 8 0 0 0 8 8h48a8 8 0 0 0 8-8v-30.3a195.28 195.28 0 0 0-86.7-162.6zm-65.6 54.5C463.8 125 448 99.3 448 70.3V8a8 8 0 0 0-8-8h-48a8 8 0 0 0-8 8v66.4c0 43.7 24.6 81.6 60.3 106.7a83.62 83.62 0 0 1 35.7 68.6V280a8 8 0 0 0 8 8h48a8 8 0 0 0 8-8v-30.3a131.59 131.59 0 0 0-56.3-108.1z" class="fa-secondary"/><path d="M536 352h-48a8 8 0 0 0-8 8v144a8 8 0 0 0 8 8h48a8 8 0 0 0 8-8V360a8 8 0 0 0-8-8zm96 0h-48a8 8 0 0 0-8 8v144a8 8 0 0 0 8 8h48a8 8 0 0 0 8-8V360a8 8 0 0 0-8-8zm-200 0H48a48 48 0 0 0-48 48v64a48 48 0 0 0 48 48h384a16 16 0 0 0 16-16V368a16 16 0 0 0-16-16z" class="fa-primary"/></svg>