<svg xmlns="http://www.w3.org/2000/svg" viewBox="0 0 640 512"><!-- Font Awesome Pro 5.15.4 by @fontawesome - https://fontawesome.com License - https://fontawesome.com/license (Commercial License) --><defs><style>.fa-secondary{opacity:.4}</style></defs><path d="M512 96c-46.8 0-87.3 25.3-109.6 62.8-22.3-18.9-50.8-30.8-82.4-30.8-51.7 0-95.9 30.8-116.1 74.8a174.6 174.6 0 0 1 44.1 23.4 174.7 174.7 0 0 1 243 34.9 136.5 136.5 0 0 1 37-5.1c35.5 0 67.6 13.4 92.7 34.8A127.39 127.39 0 0 0 512 96zm-192 0a157.94 157.94 0 0 1 75.1 19.2c9.3-10.2 20.2-18.4 31.6-25.8A127.93 127.93 0 0 0 320 32c-31.6 0-60.1 11.9-82.4 30.8C215.3 25.3 174.8 0 128 0A128 128 0 0 0 0 128c0 38.2 17.1 72.1 43.7 95.6a174 174 0 0 1 129.4-29.1C197.2 136.8 253.7 96 320 96z" class="fa-secondary"/><path d="M640 400a111.94 111.94 0 0 1-112 112H144a144 144 0 1 1 104-243.2A143.18 143.18 0 0 1 352 224c54.8 0 102 31 126.3 76.1A110.53 110.53 0 0 1 528 288a111.94 111.94 0 0 1 112 112z" class="fa-primary"/></svg>