<svg xmlns="http://www.w3.org/2000/svg" viewBox="0 0 512 512"><!-- Font Awesome Pro 5.15.4 by @fontawesome - https://fontawesome.com License - https://fontawesome.com/license (Commercial License) --><defs><style>.fa-secondary{opacity:.4}</style></defs><path d="M256 32C114.6 32 0 125.1 0 240c0 49.6 21.4 95 57 130.7C44.5 421.1 2.7 466 2.2 466.5a8 8 0 0 0-1.5 8.7A7.83 7.83 0 0 0 8 480c66.3 0 116-31.8 140.6-51.4A305 305 0 0 0 256 448c141.4 0 256-93.1 256-208S397.4 32 256 32zM128.2 304H116a8 8 0 0 1-8-8v-16a8 8 0 0 1 8-8h12.3c6 0 10.4-3.5 10.4-6.6a5.29 5.29 0 0 0-2.1-3.8l-21.9-18.8a37 37 0 0 1-13.3-28.1c0-21.3 19-38.6 42.4-38.6H156a8 8 0 0 1 8 8v16a8 8 0 0 1-8 8h-12.3c-6 0-10.4 3.5-10.4 6.6a5.29 5.29 0 0 0 2.1 3.8l21.9 18.8a37 37 0 0 1 13.3 28.1c.1 21.3-19 38.6-42.4 38.6zm191.8-8a8 8 0 0 1-8 8h-16a8 8 0 0 1-8-8v-68.2l-24.8 55.8a8 8 0 0 1-14.3 0L224 227.8V296a8 8 0 0 1-8 8h-16a8 8 0 0 1-8-8V192a16 16 0 0 1 16-16h16a15.92 15.92 0 0 1 14.3 8.8l17.7 35.4 17.7-35.4A16 16 0 0 1 288 176h16a16 16 0 0 1 16 16zm48.3 8H356a8 8 0 0 1-8-8v-16a8 8 0 0 1 8-8h12.3c6 0 10.4-3.5 10.4-6.6a5.29 5.29 0 0 0-2.1-3.8l-21.9-18.8a37 37 0 0 1-13.3-28.1c0-21.3 19-38.6 42.4-38.6H396a8 8 0 0 1 8 8v16a8 8 0 0 1-8 8h-12.3c-6 0-10.4 3.5-10.4 6.6a5.29 5.29 0 0 0 2.1 3.8l21.9 18.8a37 37 0 0 1 13.3 28.1c.1 21.3-18.9 38.6-42.3 38.6z" class="fa-secondary"/><path d="M397.3 237.3l-21.9-18.8a5.29 5.29 0 0 1-2.1-3.8c0-3.1 4.4-6.6 10.4-6.6H396a8 8 0 0 0 8-8v-16a8 8 0 0 0-8-8h-12.2c-23.4 0-42.4 17.3-42.4 38.6a37 37 0 0 0 13.3 28.1l21.9 18.8a5.29 5.29 0 0 1 2.1 3.8c0 3.1-4.4 6.6-10.4 6.6H356a8 8 0 0 0-8 8v16a8 8 0 0 0 8 8h12.3c23.4 0 42.4-17.3 42.3-38.6a37 37 0 0 0-13.3-28.1zM304 176h-16a16 16 0 0 0-14.3 8.8L256 220.2l-17.7-35.4A15.92 15.92 0 0 0 224 176h-16a16 16 0 0 0-16 16v104a8 8 0 0 0 8 8h16a8 8 0 0 0 8-8v-68.2l24.9 55.8a8 8 0 0 0 14.3 0l24.8-55.8V296a8 8 0 0 0 8 8h16a8 8 0 0 0 8-8V192a16 16 0 0 0-16-16zm-146.7 61.3l-21.9-18.8a5.29 5.29 0 0 1-2.1-3.8c0-3.1 4.4-6.6 10.4-6.6H156a8 8 0 0 0 8-8v-16a8 8 0 0 0-8-8h-12.2c-23.4 0-42.4 17.3-42.4 38.6a37 37 0 0 0 13.3 28.1l21.9 18.8a5.29 5.29 0 0 1 2.1 3.8c0 3.1-4.4 6.6-10.4 6.6H116a8 8 0 0 0-8 8v16a8 8 0 0 0 8 8h12.2c23.4 0 42.5-17.3 42.4-38.6a37 37 0 0 0-13.3-28.1z" class="fa-primary"/></svg>