<svg xmlns="http://www.w3.org/2000/svg" viewBox="0 0 512 512"><!-- Font Awesome Pro 5.15.4 by @fontawesome - https://fontawesome.com License - https://fontawesome.com/license (Commercial License) --><defs><style>.fa-secondary{opacity:.4}</style></defs><path d="M431.85 96a48 48 0 1 0-48-48 48 48 0 0 0 48 48zm61.9 375.9a24 24 0 0 0-31.9-11.6 38.23 38.23 0 0 1-29.5 1.3L67.55 328.9a38.27 38.27 0 0 1-21.8-20 24 24 0 0 0-43.5 20.3 85.86 85.86 0 0 0 48.9 44.8L416 506.7a87.38 87.38 0 0 0 29.7 5.3 84.89 84.89 0 0 0 36.5-8.2 24 24 0 0 0 11.55-31.9z" class="fa-secondary"/><path d="M505.45 243.2a32 32 0 0 1-44.8 6.4l-83.5-62.9-66 30.5 52 39a48.13 48.13 0 0 1 18.1 48.4l-21.9 102a31.72 31.72 0 0 1-17.8 21.9l-42.27-15.36a31 31 0 0 1-2.73-19.84l19.7-92-60.5-45.3v20.5A47.87 47.87 0 0 1 223 322l-85 28.4a29.94 29.94 0 0 1-7.8 1.28L106.25 343a30.48 30.48 0 0 1-8.7-12.9 32 32 0 0 1 20.2-40.5l74.1-24.7v-53.1a63.63 63.63 0 0 1 35.4-57.2l41.2-20.6-16.4-5.5a47.94 47.94 0 0 1-27.7-24l-29.1-58.1a32 32 0 0 1 57.2-28.6l26.1 52.1 63.7 21.2a160.26 160.26 0 0 1 45.4 23.8l111.4 83.5a32 32 0 0 1 6.4 44.8z" class="fa-primary"/></svg>