<svg xmlns="http://www.w3.org/2000/svg" viewBox="0 0 640 512"><!-- Font Awesome Pro 5.15.4 by @fontawesome - https://fontawesome.com License - https://fontawesome.com/license (Commercial License) --><defs><style>.fa-secondary{opacity:.4}</style></defs><path d="M528 120a8 8 0 0 0 8 8h16a8 8 0 0 0 8-8V91.6l28 16.1a8 8 0 0 0 11-2.9l8-13.9a8 8 0 0 0-3-10.9l-27.85-16L604 48a8 8 0 0 0 2.9-10.9l-8-13.9a8 8 0 0 0-10.9-2.9l-28 16.1V8a8 8 0 0 0-8-8h-16a8 8 0 0 0-8 8v28.4l-28-16.1a8 8 0 0 0-10.91 2.9l-8 13.9A8 8 0 0 0 484 48l28 16-28 16a8 8 0 0 0-2.9 10.9l8 13.9a8 8 0 0 0 10.9 2.9l28-16.1zm108 152l-27.92-16L636 240a8 8 0 0 0 2.9-10.9l-8-13.9a8 8 0 0 0-10.9-2.9l-28 16.1V200a8 8 0 0 0-8-8h-16a8 8 0 0 0-8 8v28.4l-28-16.1a8 8 0 0 0-10.91 2.9l-8 13.9A8 8 0 0 0 516 240l28 16-28 16a8 8 0 0 0-2.9 10.9l8 13.9a8 8 0 0 0 10.9 2.9l28-16.1V312a8 8 0 0 0 8 8h16a8 8 0 0 0 8-8v-28.4l28 16.1a8 8 0 0 0 11-2.9l8-13.9a8 8 0 0 0-3-10.9zM65.45 404.3a15.46 15.46 0 0 0 10.9 18.9l14.9 4a15.47 15.47 0 0 0 18.89-10.9l19-70.73-56.69 32.73zM91.37 82.9l-14.9 4a15.46 15.46 0 0 0-10.9 18.9l7 26 56.67 32.74-19-70.74a15.47 15.47 0 0 0-18.87-10.9zm46.71 357.76a15.87 15.87 0 0 0 .16 22.44l11.3 11.3a16.06 16.06 0 0 0 22.6 0l19.7-19.7.06-67.86-53.66 53.66zM27.54 272.9a15.47 15.47 0 0 0-18.9 10.9l-4 14.9a15.46 15.46 0 0 0 10.9 18.9l26 7 56.76-32.71zM8.67 226.2a15.47 15.47 0 0 0 18.9 10.9l70.77-19-56.72-32.8-25.95 7a15.51 15.51 0 0 0-11 19zm411.77 10.9a15.48 15.48 0 0 0 18.9-10.9l4-14.9a15.47 15.47 0 0 0-10.9-18.9l-26-7-56.7 32.73zm-44.9 141.1l-56.67-32.73 19 70.73a15.46 15.46 0 0 0 18.89 10.9l14.9-4a15.47 15.47 0 0 0 10.9-18.9zm63.9-94.3a15.48 15.48 0 0 0-18.9-10.9l-70.67 19 56.69 32.73 26-7a15.47 15.47 0 0 0 10.9-18.9zm-56.9-178.1a15.47 15.47 0 0 0-10.9-18.9l-14.9-4a15.45 15.45 0 0 0-18.9 10.9l-19 70.74 56.69-32.74zm-84.1-70.1a16.06 16.06 0 0 0-22.6 0L256 55.4v67.9l53.71-53.7a16.07 16.07 0 0 0 0-22.6zM256 386.7l-.16 67.94 19.66 19.66a16.06 16.06 0 0 0 22.6 0l11.3-11.3a16.07 16.07 0 0 0 0-22.6zm-106.3-351L138.34 47a1.21 1.21 0 0 0-.16.16 15.87 15.87 0 0 0 .16 22.44L192 123.3V55.4l-19.7-19.7a16.06 16.06 0 0 0-22.56 0z" class="fa-secondary"/><path d="M446 365.05l-.09.15-15.47 26.8a15.42 15.42 0 0 1-21.06 5.72L256 309.2l-.2 185.8a16 16 0 0 1-16 16h-32a16 16 0 0 1-16-16l.1-185.7-153.25 88.5a15.51 15.51 0 0 1-21.1-5.7L2 365.3a15.51 15.51 0 0 1 5.7-21.1L162.16 255 7.87 165.8a15.43 15.43 0 0 1-5.73-21.06L17.67 118a15.41 15.41 0 0 1 21-5.72h.05L192 200.8V15a16 16 0 0 1 16-16h32a16 16 0 0 1 16 16v185.8l153.3-88.5a15.51 15.51 0 0 1 21.1 5.7l15.5 26.8a15.51 15.51 0 0 1-5.7 21.1L285.85 255l154.49 89.2a15.29 15.29 0 0 1 5.66 20.85z" class="fa-primary"/></svg>