<svg xmlns="http://www.w3.org/2000/svg" viewBox="0 0 512 512"><!-- Font Awesome Pro 5.15.4 by @fontawesome - https://fontawesome.com License - https://fontawesome.com/license (Commercial License) --><defs><style>.fa-secondary{opacity:.4}</style></defs><path d="M363.76 268.8a108.77 108.77 0 0 0 4.2-28.7v-.1a112.68 112.68 0 0 0-.73-12.8c-.11-1-.24-2-.38-3-.29-2-.62-4-1-6-.2-1-.4-1.95-.62-2.92-.22-1-.45-1.93-.7-2.9-.24-1-.5-1.91-.77-2.85-.27-.95-.55-1.89-.84-2.83-.3-.94-.6-1.87-.92-2.8-.32-.93-.65-1.86-1-2.77-.34-.92-.69-1.83-1.06-2.74-.36-.9-.74-1.8-1.13-2.7-.39-.89-.79-1.78-1.19-2.66-.41-.88-.83-1.76-1.26-2.63q-1.31-2.62-2.73-5.16c-.48-.85-1-1.68-1.46-2.51a112.44 112.44 0 0 0-21.62-26.19 96 96 0 1 0-149.16 0 112.49 112.49 0 0 0-21.68 26.28q-.74 1.23-1.44 2.49c-.48.84-.94 1.69-1.39 2.54-.45.85-.89 1.7-1.32 2.57-.43.87-.85 1.74-1.25 2.62-.41.88-.8 1.76-1.19 2.66-.39.89-.76 1.79-1.12 2.69-.36.91-.71 1.82-1.05 2.74-.34.92-.67 1.84-1 2.76a111.63 111.63 0 0 0-5.22 23.28A113 113 0 0 0 144 240h.06v.1a110.27 110.27 0 0 0 4.2 28.9A151.18 151.18 0 0 0 104 376.1c0 54 28.4 100.9 70.8 127.8 9.3 5.9 20.3 8.2 31.3 8.2h99.2a65.1 65.1 0 0 0 37.2-11.7c46.5-32.3 74.4-89.4 62.9-152.6-5.54-30.2-20.54-57.6-41.64-79zM224 96.1a16 16 0 1 1 16-16 16 16 0 0 1-16 16zm32 272a16 16 0 1 1 16-16 16 16 0 0 1-16 16zm0-64a16 16 0 1 1 16-16 16 16 0 0 1-16 16zm1.7-64.1a15.19 15.19 0 0 1-3.48 0 16 16 0 1 1 3.48 0zm-1.7-87.9s-16-23.2-16-32a16 16 0 1 1 32 0c0 8.8-16 32-16 32zm32-56a16 16 0 1 1 16-16 16 16 0 0 1-16 16z" class="fa-secondary"/><path d="M510.86 152.4L505 137.9a16.15 16.15 0 0 0-20.8-8.7L456 140.7v-29a15.84 15.84 0 0 0-16-15.6h-16a15.84 15.84 0 0 0-16 15.6v46.9c0 .5.3 1 .3 1.5l-56.1 22.54a111.21 111.21 0 0 1 15.07 44.56L502 172.7a15.57 15.57 0 0 0 8.86-20.3zm-407.1 6.2v-46.9c.2-8.6-7-15.6-15.8-15.6H72a15.84 15.84 0 0 0-16 15.6v29l-28.1-11.5a16.15 16.15 0 0 0-20.8 8.7l-5.9 14.5a15.48 15.48 0 0 0 8.9 20.3l134.67 54.49a111.3 111.3 0 0 1 15-44.46l-56.31-22.63a8 8 0 0 0 .3-1.5zM256 336.1a16 16 0 1 0 16 16 16 16 0 0 0-16-16zm0-64a16 16 0 1 0 16 16 16 16 0 0 0-16-16zm0-64a16 16 0 1 0 16 16 16 16 0 0 0-16-16z" class="fa-primary"/></svg>