<svg xmlns="http://www.w3.org/2000/svg" viewBox="0 0 512 512"><!-- Font Awesome Pro 5.15.4 by @fontawesome - https://fontawesome.com License - https://fontawesome.com/license (Commercial License) --><defs><style>.fa-secondary{opacity:.4}</style></defs><path d="M350.88,26.94C224.38-25.46,79.34,34.61,26.94,161.12s7.67,271.54,134.18,323.94,271.54-7.67,323.94-134.18S477.39,79.34,350.88,26.94ZM151.73,192.59,243,101.41a18.31,18.31,0,0,1,26,0l91.18,91.18c11.56,11.56,3.38,31.41-13,31.41H164.75C148.35,224,140.17,204.15,151.73,192.59ZM360.14,319.41,269,410.59a18.31,18.31,0,0,1-26,0l-91.25-91.18c-11.56-11.56-3.38-31.41,13-31.41H347.11C363.52,288,371.7,307.85,360.14,319.41Z" class="fa-secondary"/><path d="M151.73,192.59,243,101.41a18.31,18.31,0,0,1,26,0l91.18,91.18c11.56,11.56,3.38,31.41-13,31.41H164.76C148.35,224,140.17,204.15,151.73,192.59Z" class="fa-primary"/></svg>