<svg xmlns="http://www.w3.org/2000/svg" viewBox="0 0 320 512"><!-- Font Awesome Pro 5.15.4 by @fontawesome - https://fontawesome.com License - https://fontawesome.com/license (Commercial License) --><defs><style>.fa-secondary{opacity:.4}</style></defs><path d="M41.05 288.05h238c21.4 0 32.1 25.9 17 41l-119 119a23.9 23.9 0 0 1-33.8.1l-.1-.1-119.1-119c-15.05-15.05-4.4-41 17-41z" class="fa-secondary"/><path d="M24.05 183.05l119.1-119A23.9 23.9 0 0 1 177 64a.94.94 0 0 1 .1.1l119 119c15.1 15.1 4.4 41-17 41h-238c-21.45-.05-32.1-25.95-17.05-41.05z" class="fa-primary"/></svg>