<svg xmlns="http://www.w3.org/2000/svg" viewBox="0 0 512 512"><!-- Font Awesome Pro 5.15.4 by @fontawesome - https://fontawesome.com License - https://fontawesome.com/license (Commercial License) --><defs><style>.fa-secondary{opacity:.4}</style></defs><path d="M350.88,26.94C224.38-25.46,79.34,34.61,26.94,161.12s7.67,271.54,134.18,323.94,271.54-7.67,323.94-134.18S477.39,79.34,350.88,26.94Zm9.26,292L269,410.09a18.31,18.31,0,0,1-26,0l-91.25-91.18c-11.56-11.56-3.38-31.41,13-31.41H347.11C363.52,287.5,371.7,307.35,360.14,318.91Zm-13-95.41H164.75c-16.4,0-24.58-19.85-13-31.42L243,100.91a18.31,18.31,0,0,1,26,0l91.18,91.17C371.7,203.65,363.52,223.5,347.11,223.5Z" class="fa-secondary"/><path d="M164.75,224H347.11c16.41,0,24.59-19.85,13-31.42L269,101.41a18.31,18.31,0,0,0-26,0l-91.25,91.17C140.16,204.15,148.35,224,164.75,224Zm182.36,64H164.75c-16.4,0-24.59,19.85-13,31.41L243,410.59a18.31,18.31,0,0,0,26,0l91.18-91.18C371.7,307.85,363.52,288,347.11,288Z" class="fa-primary"/></svg>