<svg xmlns="http://www.w3.org/2000/svg" viewBox="0 0 448 512"><!-- Font Awesome Pro 5.15.4 by @fontawesome - https://fontawesome.com License - https://fontawesome.com/license (Commercial License) --><defs><style>.fa-secondary{opacity:.4}</style></defs><path d="M444.1 438.86L361 301.71c-11.09-18.28-38.81-18.28-49.9 0l-83.2 137.15c-11.08 18.28 2.77 41.14 24.95 41.14h166.3c22.18 0 36.03-22.86 24.95-41.14zM264 224h144a24 24 0 0 0 24-24V56a24 24 0 0 0-24-24H264a24 24 0 0 0-24 24v144a24 24 0 0 0 24 24z" class="fa-secondary"/><path d="M176 352h-48V48a16 16 0 0 0-16-16H80a16 16 0 0 0-16 16v304H16c-14.19 0-21.36 17.24-11.29 27.31l80 96a16 16 0 0 0 22.62 0l80-96C197.35 369.26 190.22 352 176 352z" class="fa-primary"/></svg>