<svg xmlns="http://www.w3.org/2000/svg" viewBox="0 0 512 512"><!-- Font Awesome Pro 5.15.4 by @fontawesome - https://fontawesome.com License - https://fontawesome.com/license (Commercial License) --><defs><style>.fa-secondary{opacity:.4}</style></defs><path d="M203.31 67.3a94.84 94.84 0 0 1-26.4-53.5A16.12 16.12 0 0 0 160.81 0h-16.4A16.32 16.32 0 0 0 128 16.23a17.48 17.48 0 0 0 .09 1.77 145.37 145.37 0 0 0 40.6 84.4 81.21 81.21 0 0 1 22.4 44.1 16.23 16.23 0 0 0 16 13.5h16.5c9.8 0 17.6-8.5 16.3-18a130.71 130.71 0 0 0-36.58-74.7zm148.6 74.7a130.71 130.71 0 0 0-36.6-74.7 94.84 94.84 0 0 1-26.4-53.5A16.12 16.12 0 0 0 272.76 0h-16.4c-9.8 0-17.5 8.5-16.3 18a145.37 145.37 0 0 0 40.6 84.4 81.21 81.21 0 0 1 22.4 44.1h.05a16.23 16.23 0 0 0 16 13.5h16.5c9.8 0 17.6-8.5 16.3-18z" class="fa-secondary"/><path d="M32 192h448a32 32 0 0 1 32 32c0 94.7-51.56 177.16-128 221.45V480a32 32 0 0 1-32 32H160a32 32 0 0 1-32-32v-34.55C51.56 401.16 0 318.7 0 224a32 32 0 0 1 32-32z" class="fa-primary"/></svg>