<svg xmlns="http://www.w3.org/2000/svg" viewBox="0 0 512 512"><!-- Font Awesome Pro 5.15.4 by @fontawesome - https://fontawesome.com License - https://fontawesome.com/license (Commercial License) --><defs><style>.fa-secondary{opacity:.4}</style></defs><path d="M16.71094,320.26367C45.05859,426.01953,141.29688,504,256,504s210.94141-77.98047,239.28906-183.73633C424.71094,340.53906,343.34375,352,256,352S87.28906,340.53906,16.71094,320.26367ZM256,8C119.03125,8,8,119.0332,8,256a250.017,250.017,0,0,0,1.72656,28.26562C81.19531,306.76953,165.47656,320,256,320s174.80469-13.23047,246.27344-35.73438A250.017,250.017,0,0,0,504,256C504,119.0332,392.96875,8,256,8ZM192,240a80,80,0,1,1,80-80A80.00021,80.00021,0,0,1,192,240Z" class="fa-secondary"/><path d="M256,320c-90.52344,0-174.80469-13.23047-246.27344-35.73438a246.11376,246.11376,0,0,0,6.98438,35.998C87.28906,340.53906,168.65625,352,256,352s168.71094-11.46094,239.28906-31.73633a246.11376,246.11376,0,0,0,6.98438-35.998C430.80469,306.76953,346.52344,320,256,320Zm-64-80a80,80,0,1,0-80-80A80.00021,80.00021,0,0,0,192,240Zm0-104a24,24,0,1,1-24,24A23.99993,23.99993,0,0,1,192,136Z" class="fa-primary"/></svg>