<svg xmlns="http://www.w3.org/2000/svg" viewBox="0 0 512 512"><!-- Font Awesome Pro 5.15.4 by @fontawesome - https://fontawesome.com License - https://fontawesome.com/license (Commercial License) --><defs><style>.fa-secondary{opacity:.4}</style></defs><path d="M501.70312,224H448V160H368V96h48V66.67383A246.86934,246.86934,0,0,0,256,8C119.03125,8,8,119.0332,8,256a250.017,250.017,0,0,0,1.72656,28.26562C81.19531,306.76953,165.47656,320,256,320s174.80469-13.23047,246.27344-35.73438A250.017,250.017,0,0,0,504,256,248.44936,248.44936,0,0,0,501.70312,224ZM192,240a80,80,0,1,1,80-80A80.00021,80.00021,0,0,1,192,240ZM384,343.13867A940.33806,940.33806,0,0,1,256,352c-87.34375,0-168.71094-11.46094-239.28906-31.73633C45.05859,426.01953,141.29688,504,256,504a247.45808,247.45808,0,0,0,192-91.0918V384H384Z" class="fa-secondary"/><path d="M256,320c-90.52344,0-174.80469-13.23047-246.27344-35.73438a246.11376,246.11376,0,0,0,6.98438,35.998C87.28906,340.53906,168.65625,352,256,352s168.71094-11.46094,239.28906-31.73633a246.11376,246.11376,0,0,0,6.98438-35.998C430.80469,306.76953,346.52344,320,256,320Zm-64-80a80,80,0,1,0-80-80A80.00021,80.00021,0,0,0,192,240Zm0-104a24,24,0,1,1-24,24A23.99993,23.99993,0,0,1,192,136Z" class="fa-primary"/></svg>