<svg xmlns="http://www.w3.org/2000/svg" viewBox="0 0 640 512"><!-- Font Awesome Pro 5.15.4 by @fontawesome - https://fontawesome.com License - https://fontawesome.com/license (Commercial License) --><defs><style>.fa-secondary{opacity:.4}</style></defs><path d="M176 224a111.51 111.51 0 0 1 80 33.78V48a79.24 79.24 0 0 1 16.41-48H48A48 48 0 0 0 0 48v416a48 48 0 0 0 48 48h224.41A79.24 79.24 0 0 1 256 464v-49.78A112 112 0 1 1 176 224zm0-160a48 48 0 1 1-48 48 48 48 0 0 1 48-48zM592 0H336a48 48 0 0 0-48 48v416a48 48 0 0 0 48 48h256a48 48 0 0 0 48-48V48a48 48 0 0 0-48-48zM464 64a48 48 0 1 1-48 48 48 48 0 0 1 48-48zm0 384a112 112 0 1 1 112-112 112 112 0 0 1-112 112z" class="fa-secondary"/><path d="M64 336a111.89 111.89 0 0 0 192 78.22V257.78A111.89 111.89 0 0 0 64 336zm176 0a64 64 0 1 1-64-64 64 64 0 0 1 64 64zm224-112a112 112 0 1 0 112 112 112 112 0 0 0-112-112zm0 176a64 64 0 1 1 64-64 64 64 0 0 1-64 64zm0-240a48 48 0 1 0-48-48 48 48 0 0 0 48 48zm-288 0a48 48 0 1 0-48-48 48 48 0 0 0 48 48z" class="fa-primary"/></svg>