<svg xmlns="http://www.w3.org/2000/svg" viewBox="0 0 576 512"><!-- Font Awesome Pro 5.15.4 by @fontawesome - https://fontawesome.com License - https://fontawesome.com/license (Commercial License) --><defs><style>.fa-secondary{opacity:.4}</style></defs><path d="M320 272h-64a8 8 0 0 0-6.4 12.8L276 320l-26.4 35.2A8 8 0 0 0 256 368h64a8 8 0 0 0 6.4-12.8L300 320l26.4-35.2A8 8 0 0 0 320 272zM183.59 5.89L168.42.83A16 16 0 0 0 148.18 11l-25.89 77.63a32 32 0 0 0 1.71 24.43l27.15 54.3L177.1 176h4.67l5.23-26.11a99.35 99.35 0 0 1 3.21-11.79l-20.3-40.58 23.8-71.39a16 16 0 0 0-10.12-20.24zm270.12 82.75L427.82 11A16 16 0 0 0 407.58.84L392.41 5.9a16 16 0 0 0-10.12 20.24l23.8 71.38-20.29 40.58a97.47 97.47 0 0 1 3.2 11.79l5.23 26.11h4.67l25.93-8.64L452 113.07a32 32 0 0 0 1.71-24.43z" class="fa-secondary"/><path d="M573.31 349.38l-52.75-79.12A32 32 0 0 0 493.94 256H416l69-24.35a32 32 0 0 0 16.51-12.61l53.6-80.41a16 16 0 0 0-4.44-22.19l-13.31-8.88a16 16 0 0 0-22.2 4.44l-50.57 75.83L404.1 208H368l-10.37-51.85C355.44 145.19 340.26 96 288 96s-67.44 49.18-69.63 60.15L208 208h-36.1l-60.5-20.18L60.84 112a16 16 0 0 0-22.19-4.44l-13.31 8.88a16 16 0 0 0-4.44 22.19L74.5 219A32 32 0 0 0 91 231.65L160 256H82.07a32 32 0 0 0-26.63 14.25L2.69 349.38a16 16 0 0 0 4.44 22.19l13.31 8.88A16 16 0 0 0 42.63 376l48-72h47.06l-60.83 97.34a32.05 32.05 0 0 0-4.86 17V496a16 16 0 0 0 16 16h16a16 16 0 0 0 16-16v-73.1l74.08-118.53c-1 14.05-2.08 28.11-2.08 42.21C192 399.65 232.76 448 288 448s96-48.36 96-101.43c0-14.1-1.07-28.16-2.08-42.21L456 422.9V496a16 16 0 0 0 16 16h16a16 16 0 0 0 16-16v-77.7a32.05 32.05 0 0 0-4.86-17L438.31 304h47.06l48 72a16 16 0 0 0 22.19 4.44l13.31-8.88a16 16 0 0 0 4.44-22.18zm-246.91 5.83A8 8 0 0 1 320 368h-64a8 8 0 0 1-6.4-12.8L276 320l-26.4-35.2A8 8 0 0 1 256 272h64a8 8 0 0 1 6.4 12.8L300 320z" class="fa-primary"/></svg>