<svg xmlns="http://www.w3.org/2000/svg" viewBox="0 0 576 512"><!-- Font Awesome Pro 5.15.4 by @fontawesome - https://fontawesome.com License - https://fontawesome.com/license (Commercial License) --><defs><style>.fa-secondary{opacity:.4}</style></defs><path d="M544 280.13H329.36l107.48 188.18-41.68 23.82L288 304.51 180.84 492.13l-41.68-23.82 107.48-188.18H32v-48h214.64L139.16 43.93l41.68-23.83L288 207.72 395.16 20.1l41.68 23.83-107.48 188.18H544z" class="fa-secondary"/><path d="M566.63 233.48l-2.79-2.79A444.29 444.29 0 0 1 447.07 24.37v-.12A32 32 0 0 0 408.24 1a497.38 497.38 0 0 1-240.48 0A32 32 0 0 0 129 24.25v.12A444.29 444.29 0 0 1 12.16 230.69l-2.79 2.79a32 32 0 0 0 0 45.28l2.87 2.87A444.25 444.25 0 0 1 129 487.76 32 32 0 0 0 167.76 511a497.14 497.14 0 0 1 240.48 0A32 32 0 0 0 447 487.76a444.25 444.25 0 0 1 116.76-206.13l2.87-2.87a32 32 0 0 0 0-45.28zM393.45 442.23a562.64 562.64 0 0 0-210.9 0A508.29 508.29 0 0 0 76.22 256.11 508.49 508.49 0 0 0 182.58 69.76a562 562 0 0 0 210.84 0 508.49 508.49 0 0 0 106.36 186.35 508.29 508.29 0 0 0-106.33 186.12zm-23.31-328.86a24 24 0 0 0-18.21-2.72 264.41 264.41 0 0 1-127.86 0A24.05 24.05 0 0 0 195 128.18a235.55 235.55 0 0 1-62 109.39l-1.52 1.52a24 24 0 0 0 0 34l1.56 1.57A235.49 235.49 0 0 1 195 383.89a24 24 0 0 0 29.1 17.46 264.41 264.41 0 0 1 127.86 0A24 24 0 0 0 381 383.89a235.49 235.49 0 0 1 61.88-109.28l1.56-1.57a24 24 0 0 0 0-34l-1.44-1.48a235.47 235.47 0 0 1-61.94-109.36 24.06 24.06 0 0 0-10.92-14.83zM341 350a313.11 313.11 0 0 0-106 0 283.59 283.59 0 0 0-53.66-93.94A283.53 283.53 0 0 0 235 162a313.27 313.27 0 0 0 106 0 283.51 283.51 0 0 0 53.68 94.07A283.59 283.59 0 0 0 341 350z" class="fa-primary"/></svg>