<svg xmlns="http://www.w3.org/2000/svg" viewBox="0 0 576 512"><!-- Font Awesome Pro 5.15.4 by @fontawesome - https://fontawesome.com License - https://fontawesome.com/license (Commercial License) --><defs><style>.fa-secondary{opacity:.4}</style></defs><path d="M453.71 88.63L427.82 11A16 16 0 0 0 407.58.83l-15.17 5.06a16 16 0 0 0-10.12 20.24l23.8 71.39-20.29 40.58a99.35 99.35 0 0 1 3.2 11.79l5.23 26.11h4.67l25.93-8.65L452 113.06a32 32 0 0 0 1.71-24.43zM183.59 5.89L168.42.83A16 16 0 0 0 148.18 11l-25.89 77.63a32 32 0 0 0 1.71 24.43l27.15 54.3L177.1 176h4.67l5.23-26.11a99.35 99.35 0 0 1 3.21-11.79l-20.3-40.58 23.8-71.39a16 16 0 0 0-10.12-20.24z" class="fa-secondary"/><path d="M573.31 349.39a16 16 0 0 1-4.44 22.18l-13.31 8.88a16 16 0 0 1-22.19-4.45l-48-72h-47.06l60.83 97.33a32.05 32.05 0 0 1 4.86 17V496a16 16 0 0 1-16 16h-16a16 16 0 0 1-16-16v-73.1l-74.08-118.53c1 14.05 2.08 28.11 2.08 42.21C384 399.65 343.24 448 288 448s-96-48.36-96-101.43c0-14.1 1.07-28.16 2.08-42.21L120 422.9V496a16 16 0 0 1-16 16H88a16 16 0 0 1-16-16v-77.7a32 32 0 0 1 4.86-17l60.83-97.3H90.63l-48 72a16 16 0 0 1-22.19 4.44l-13.31-8.86a16 16 0 0 1-4.44-22.19l52.74-79.13A32 32 0 0 1 82.06 256H160l-69-24.34a32 32 0 0 1-16.5-12.61l-53.6-80.41a16 16 0 0 1 4.44-22.19l13.31-8.88A16 16 0 0 1 60.84 112l50.57 75.83L171.9 208H208l10.37-51.85C220.56 145.19 235.74 96 288 96s67.44 49.18 69.63 60.15L368 208h36.1l60.5-20.17L515.16 112a16 16 0 0 1 22.19-4.44l13.31 8.88a16 16 0 0 1 4.44 22.19l-53.6 80.41a32 32 0 0 1-16.5 12.62L416 256h77.94a32 32 0 0 1 26.62 14.25z" class="fa-primary"/></svg>