<svg xmlns="http://www.w3.org/2000/svg" viewBox="0 0 512 512"><!-- Font Awesome Pro 5.15.4 by @fontawesome - https://fontawesome.com License - https://fontawesome.com/license (Commercial License) --><defs><style>.fa-secondary{opacity:.4}</style></defs><path d="M108.92 355.08a48 48 0 1 0 48 48 48 48 0 0 0-48-48zM256 416a48 48 0 1 0 48 48 48 48 0 0 0-48-48zm208-208a48 48 0 1 0 48 48 48 48 0 0 0-48-48zm-60.92 147.08a48 48 0 1 0 48 48 48 48 0 0 0-48-48zm0-198.16a48 48 0 1 0-48-48 48 48 0 0 0 48 48z" class="fa-secondary"/><path d="M108.92 60.92a48 48 0 1 0 48 48 48 48 0 0 0-48-48zM48 208a48 48 0 1 0 48 48 48 48 0 0 0-48-48zM256 0a48 48 0 1 0 48 48 48 48 0 0 0-48-48z" class="fa-primary"/></svg>