<svg xmlns="http://www.w3.org/2000/svg" viewBox="0 0 512 512"><!-- Font Awesome Pro 5.15.4 by @fontawesome - https://fontawesome.com License - https://fontawesome.com/license (Commercial License) --><defs><style>.fa-secondary{opacity:.4}</style></defs><path d="M281.69 124.65c10.48 39.59 18.87 97 105.07 126.52-79.24 40.58-77.61 106.16-79.87 135.83-63.13-47.46-83-67.17-186.41-44.6 16.8-33.68 34-85.06-10.86-146.08 103.53 8.09 124.36-22.42 172.07-71.71" class="fa-secondary"/><path d="M472.29 195.89l-67.06-22.95c-19.28-6.6-33.54-20.92-38.14-38.3l-16-60.45C344 47.4 316.89 32 289.26 32c-17.5 0-35.21 6.18-48.17 19.57L195 99.24c-12 12.44-29.84 19.53-48.46 19.53-1.91 0-3.82-.07-5.74-.22l-71.88-5.62c-2.05-.16-4.06-.24-6.05-.24-48.59 0-79.75 46.61-52.95 83.07l38.54 52.4c11.03 15.07 12.77 33.84 4.59 50.24l-28.43 57C6.21 392.24 38.89 431 82.13 431a74.78 74.78 0 0 0 15.94-1.74l70-15.28a72.7 72.7 0 0 1 15.51-1.67 69.56 69.56 0 0 1 41.56 13.4l54.32 40.83a68.21 68.21 0 0 0 41.2 13.46c31.15 0 60.91-20 63.25-50.71l4.7-61.86c1.35-17.8 12.8-33.87 30.63-43l62-31.74c44.88-22.97 39.59-80.18-8.95-96.8zM306.89 387c-63.13-47.46-83-67.17-186.41-44.6 16.8-33.68 34-85.06-10.86-146.08 103.53 8.09 124.36-22.42 172.07-71.71 10.48 39.59 18.87 97 105.07 126.52-79.24 40.62-77.61 106.2-79.87 135.87z" class="fa-primary"/></svg>