<svg xmlns="http://www.w3.org/2000/svg" viewBox="0 0 512 512"><!-- Font Awesome Pro 5.15.4 by @fontawesome - https://fontawesome.com License - https://fontawesome.com/license (Commercial License) --><defs><style>.fa-secondary{opacity:.4}</style></defs><path d="M288 32a32 32 0 1 0 32 32 32 32 0 0 0-32-32zm96 96a32 32 0 1 0 32 32 32 32 0 0 0-32-32zm96 96a32 32 0 1 0 32 32 32 32 0 0 0-32-32zM384 32a32 32 0 1 0 32 32 32 32 0 0 0-32-32zm96 96a32 32 0 1 0 32 32 32 32 0 0 0-32-32zm0-32a32 32 0 1 0-32-32 32 32 0 0 0 32 32zM160 256a80 80 0 1 0 80 80 80 80 0 0 0-80-80z" class="fa-secondary"/><path d="M224 160H96a96 96 0 0 0-96 96v224a32 32 0 0 0 32 32h256a32 32 0 0 0 32-32V256a96 96 0 0 0-96-96zm-64 256a80 80 0 1 1 80-80 80 80 0 0 1-80 80zm64-384a32 32 0 0 0-32-32h-64a32 32 0 0 0-32 32v96h128z" class="fa-primary"/></svg>