<svg xmlns="http://www.w3.org/2000/svg" viewBox="0 0 512 512"><!-- Font Awesome Pro 5.15.4 by @fontawesome - https://fontawesome.com License - https://fontawesome.com/license (Commercial License) --><defs><style>.fa-secondary{opacity:.4}</style></defs><path d="M152,104a24,24,0,1,0,24,24A24,24,0,0,0,152,104ZM88,48a24,24,0,1,0,24,24A24,24,0,0,0,88,48Zm0,96a24,24,0,1,0,24,24A24,24,0,0,0,88,144ZM24,104a24,24,0,1,0,24,24A24,24,0,0,0,24,104ZM24,0A24,24,0,1,0,48,24,24,24,0,0,0,24,0Zm0,208a24,24,0,1,0,24,24A24,24,0,0,0,24,208ZM360,104a24,24,0,1,0,24,24A24,24,0,0,0,360,104Zm64,56a24,24,0,1,0,24,24A24,24,0,0,0,424,160Zm0-96a24,24,0,1,0,24,24A24,24,0,0,0,424,64Zm64,40a24,24,0,1,0,24,24A24,24,0,0,0,488,104Zm0,104a24,24,0,1,0,24,24A24,24,0,0,0,488,208Zm0-160a24,24,0,1,0-24-24A24,24,0,0,0,488,48Z" class="fa-secondary"/><path d="M412.41,284.44l-67.52,78.23L320,387.56V512H192V387.56l-24.89-24.89L99.59,284.44A17.77,17.77,0,0,1,113.81,256H224V80a16,16,0,0,1,16-16h32a16,16,0,0,1,16,16V256H398.19A17.77,17.77,0,0,1,412.41,284.44Z" class="fa-primary"/></svg>