<svg xmlns="http://www.w3.org/2000/svg" viewBox="0 0 512 512"><!-- Font Awesome Pro 5.15.4 by @fontawesome - https://fontawesome.com License - https://fontawesome.com/license (Commercial License) --><defs><style>.fa-secondary{opacity:.4}</style></defs><path d="M-1 0v512h512V0zm432 417.33A14.67 14.67 0 0 1 416.33 432H93.67A14.67 14.67 0 0 1 79 417.33V94.67A14.67 14.67 0 0 1 93.67 80h322.66A14.67 14.67 0 0 1 431 94.67z" class="fa-secondary"/><path d="M431 417.33A14.67 14.67 0 0 1 416.33 432H93.67A14.67 14.67 0 0 1 79 417.33V94.67A14.67 14.67 0 0 1 93.67 80h322.66A14.67 14.67 0 0 1 431 94.67z" class="fa-primary"/></svg>