<svg xmlns="http://www.w3.org/2000/svg" viewBox="0 0 576 512"><!-- Font Awesome Pro 5.15.4 by @fontawesome - https://fontawesome.com License - https://fontawesome.com/license (Commercial License) --><defs><style>.fa-secondary{opacity:.4}</style></defs><path d="M576 24v48a24 24 0 0 1-24 24H357l-97.78 374.52C249.38 503 222.21 512 204.94 512c-18.64 0-35.95-8.5-48.44-28.27L67.62 320H24a24 24 0 0 1-24-24v-48a24 24 0 0 1 24-24h81.47a32 32 0 0 1 28 16.57l58.41 106.1 84.82-322.8A32 32 0 0 1 307.65 0H552a24 24 0 0 1 24 24z" class="fa-secondary"/></svg>