<svg xmlns="http://www.w3.org/2000/svg" viewBox="0 0 512 512"><!-- Font Awesome Pro 5.15.4 by @fontawesome - https://fontawesome.com License - https://fontawesome.com/license (Commercial License) --><defs><style>.fa-secondary{opacity:.4}</style></defs><path d="M480 416H32a32 32 0 0 1-32-32v-32a96 96 0 0 1 96-96h66.56A29.44 29.44 0 0 0 192 226.56v-.07c0-31.79-10-62.06-23.31-90.91A93.86 93.86 0 0 1 160 96 96.06 96.06 0 0 1 273.25 1.5C312 8.25 343.74 40.17 350.51 79a94.83 94.83 0 0 1-9.05 60.42c-12.58 24.26-21.46 50.3-21.46 77.67v9.46A29.44 29.44 0 0 0 349.43 256H416a96 96 0 0 1 96 96v32a32 32 0 0 1-32 32z" class="fa-secondary"/><path d="M480 416v96H32v-96z" class="fa-primary"/></svg>