<svg xmlns="http://www.w3.org/2000/svg" viewBox="0 0 512 512"><!-- Font Awesome Pro 5.15.4 by @fontawesome - https://fontawesome.com License - https://fontawesome.com/license (Commercial License) --><defs><style>.fa-secondary{opacity:.4}</style></defs><path d="M509 230.85l-55.27 53.87 13.05 76.07a9.93 9.93 0 0 1-14.45 10.49L384 335.37l-68.33 35.91a9.86 9.86 0 0 1-4.64 1.17 10 10 0 0 1-9.81-11.66l13-76.07L259 230.85a10 10 0 0 1 5.52-17l76.38-11.1 34.16-69.21a10 10 0 0 1 17.86 0l34.16 69.21 76.38 11.1a10 10 0 0 1 5.54 17z" class="fa-secondary"/><path d="M0 256C0 114.84 114.84 0 256 0a254.82 254.82 0 0 1 89.75 16.48 15.06 15.06 0 0 1-5.28 29.16c-1.48 0-6.86-.46-9.18-.46C215 45.18 120.47 139.75 120.47 256S215 466.82 331.29 466.82c2.29 0 7.73-.46 9.18-.46a15 15 0 0 1 4.85 29.32A254.9 254.9 0 0 1 256 512C114.84 512 0 397.16 0 256z" class="fa-primary"/></svg>