<svg xmlns="http://www.w3.org/2000/svg" viewBox="0 0 576 512"><!-- Font Awesome Pro 5.15.4 by @fontawesome - https://fontawesome.com License - https://fontawesome.com/license (Commercial License) --><defs><style>.fa-secondary{opacity:.4}</style></defs><path d="M560.0004,223.65443a16.00059,16.00059,0,0,0,15.9996-16v-52.455a15.99809,15.99809,0,0,0-10.52318-15.0332l-254.15-92.60347C255.57824,27.50609,193.611,25.59008,139.22175,49.15061-4.095,111.22285.01425,256.00012.01425,256.00012s-4.35536,144.66594,139.2075,206.8495c54.38927,23.55858,116.35649,21.64452,172.10511,1.58593l16.32772-5.94921L227.18051,335.67976c-1.0781.043-2.08589.32031-3.1718.32031a81.12292,81.12292,0,1,1,77.49418-61.0859l89.25169,109.08588h41.249a47.888,47.888,0,0,1,40.16307,21.832l93.31019-33.998A15.99809,15.99809,0,0,0,576,356.80084v-52.455a16.00059,16.00059,0,0,0-15.9996-16H416.004V223.65443ZM80.01227,272.00011a16,16,0,1,1,15.99961-16A16.00059,16.00059,0,0,1,80.01227,272.00011Zm31.99921,96a16,16,0,1,1,15.99961-16A16.00059,16.00059,0,0,1,112.01148,368.00006Zm0-191.9999a16,16,0,1,1,15.99961-16A16.00059,16.00059,0,0,1,112.01148,176.00016Z" class="fa-secondary"/><path d="M128.01109,352.00007a15.99961,15.99961,0,1,1-15.99961-16A16.00059,16.00059,0,0,1,128.01109,352.00007Zm-15.99961-207.9999a16,16,0,1,0,15.99961,16A15.99934,15.99934,0,0,0,112.01148,144.00017Zm-31.99921,96a16,16,0,1,0,15.99961,16A15.99934,15.99934,0,0,0,80.01227,240.00012ZM480.00238,432a48.00177,48.00177,0,0,1-47.99882,48H368.00515a48.01994,48.01994,0,0,1-37.15533-17.60937L227.18051,335.67976c-1.0781.043-2.08589.32031-3.1718.32031a81.12292,81.12292,0,1,1,77.49418-61.0859l89.25169,109.08588h41.249A48.00177,48.00177,0,0,1,480.00238,432ZM256.00792,256.00012a31.99921,31.99921,0,1,0-31.99921,32A31.99993,31.99993,0,0,0,256.00792,256.00012Z" class="fa-primary"/></svg>