<svg xmlns="http://www.w3.org/2000/svg" viewBox="0 0 512 512"><!-- Font Awesome Pro 5.15.4 by @fontawesome - https://fontawesome.com License - https://fontawesome.com/license (Commercial License) --><defs><style>.fa-secondary{opacity:.4}</style></defs><path d="M507.31241,15.99591,496.0036,4.68584a16.00342,16.00342,0,0,0-22.62935,0L308.68356,169.36841a15.99752,15.99752,0,0,0,0,22.628l11.30881,11.30812a15.99989,15.99989,0,0,0,22.62935,0L507.31241,38.62192A15.99517,15.99517,0,0,0,507.31241,15.99591Zm-192.00372,0L303.99987,4.68584a16.00341,16.00341,0,0,0-22.62934,0L228.682,57.37309a15.99752,15.99752,0,0,0,0,22.628l11.30881,11.30812a15.99987,15.99987,0,0,0,22.62934,0l52.68853-52.68725A15.99517,15.99517,0,0,0,315.30869,15.99591ZM496.0036,196.67782a16.00342,16.00342,0,0,0-22.62935,0l-52.68852,52.68725a15.99752,15.99752,0,0,0,0,22.628l11.30881,11.30812a15.99989,15.99989,0,0,0,22.62935,0l52.68852-52.68725a15.99517,15.99517,0,0,0,0-22.626Z" class="fa-secondary"/><path d="M82.89793,380.48459,64.89758,485.074c-3.20319,18.90546,16.68782,33.108,33.29752,24.20211l93.7987-49.38856,93.79869,49.38856A22.95375,22.95375,0,0,0,319.09,485.074L301.199,380.48459l75.89209-73.99691c13.60964-13.29632,6.00012-36.49847-12.79712-39.20149L259.4951,251.99l-46.90716-95.19915c-8.39078-16.99929-32.68813-17.20241-41.18829,0L124.49249,251.99,19.69358,267.28619c-18.79724,2.703-26.40676,25.90517-12.70337,39.20149Z" class="fa-primary"/></svg>