<svg xmlns="http://www.w3.org/2000/svg" viewBox="0 0 640 512"><!-- Font Awesome Pro 5.15.4 by @fontawesome - https://fontawesome.com License - https://fontawesome.com/license (Commercial License) --><defs><style>.fa-secondary{opacity:.4}</style></defs><path d="M208,448H144a16,16,0,0,1-16-16V304a16,16,0,0,1,16-16h64a16,16,0,0,1,16,16V432A16,16,0,0,1,208,448Zm96-128h32a16.00079,16.00079,0,0,0,16-16V256a32,32,0,0,0-64,0v48A16.00079,16.00079,0,0,0,304,320ZM632,128h-8V112.85547c0-7.96875-5.44531-15.35547-13.3125-16.63672A16.00991,16.00991,0,0,0,592,112v16h-8a8.00039,8.00039,0,0,0-8,8v16a8.00039,8.00039,0,0,0,8,8h8V431.14258c0,7.96875,5.44531,15.35742,13.3125,16.63867A16.01193,16.01193,0,0,0,624,432V160h8a8.00039,8.00039,0,0,0,8-8V136A8.00039,8.00039,0,0,0,632,128ZM496,288H432a16,16,0,0,0-16,16V432a16,16,0,0,0,16,16h64a16,16,0,0,0,16-16V304A16,16,0,0,0,496,288ZM56,128H48V112.85547C48,104.88672,42.55469,97.5,34.6875,96.21875A16.00991,16.00991,0,0,0,16,112v16H8a8.00039,8.00039,0,0,0-8,8v16a8.00039,8.00039,0,0,0,8,8h8V431.14258c0,7.96875,5.44531,15.35742,13.3125,16.63867A16.01193,16.01193,0,0,0,48,432V160h8a8.00039,8.00039,0,0,0,8-8V136A8.00039,8.00039,0,0,0,56,128Z" class="fa-secondary"/><path d="M512,352v80a16,16,0,0,1-16,16H432a16,16,0,0,1-16-16V352H384V256L353.75,14.01562A16.00035,16.00035,0,0,0,337.87322,0H302.125a15.99834,15.99834,0,0,0-15.87478,14.01386L256,256v96H224v80a16,16,0,0,1-16,16H144a16,16,0,0,1-16-16V352H48v76.79883L176,480v16a16.00079,16.00079,0,0,0,16,16h16a16.00079,16.00079,0,0,0,16-16V480H416v16a16.00079,16.00079,0,0,0,16,16h16a16.00079,16.00079,0,0,0,16-16V480l128-51.20117V352ZM352,304a16.00079,16.00079,0,0,1-16,16H304a16.00079,16.00079,0,0,1-16-16V256a32,32,0,0,1,64,0Z" class="fa-primary"/></svg>