<svg xmlns="http://www.w3.org/2000/svg" viewBox="0 0 576 512"><!-- Font Awesome Pro 5.15.4 by @fontawesome - https://fontawesome.com License - https://fontawesome.com/license (Commercial License) --><defs><style>.fa-secondary{opacity:.4}</style></defs><path d="M235.07422,291.957l-22.62891,22.627A94.938,94.938,0,0,1,193.21094,268h32A63.61375,63.61375,0,0,0,235.07422,291.957ZM64,216v80l75.51953,18.87891a156.23144,156.23144,0,0,1,0-117.75782Zm282.58594-35.55273A94.926,94.926,0,0,0,300,161.21094v32a63.56908,63.56908,0,0,1,23.957,9.86328ZM229.41406,331.55273A94.926,94.926,0,0,0,276,350.78906v-32a63.56908,63.56908,0,0,1-23.957-9.86328ZM235.07422,220.043,212.44531,197.416A94.938,94.938,0,0,0,193.21094,244h32A63.61375,63.61375,0,0,1,235.07422,220.043ZM512,296V216l-75.51953-18.87891a156.23144,156.23144,0,0,1,0,117.75782Zm-171.07422-4.043,22.62891,22.627A94.938,94.938,0,0,0,382.78906,268h-32A63.61375,63.61375,0,0,1,340.92578,291.957Zm0-71.91406A63.61375,63.61375,0,0,1,350.78906,244h32a94.938,94.938,0,0,0-19.23437-46.584ZM300,318.78906v32a94.926,94.926,0,0,0,46.58594-19.23633l-22.62891-22.627A63.56908,63.56908,0,0,1,300,318.78906ZM252.043,203.07422A63.56908,63.56908,0,0,1,276,193.21094v-32a94.926,94.926,0,0,0-46.58594,19.23633Z" class="fa-secondary"/><path d="M288,96A160,160,0,1,0,448,256,159.99917,159.99917,0,0,0,288,96Zm12,65.21094a94.926,94.926,0,0,1,46.58594,19.23633L323.957,203.07422A63.56908,63.56908,0,0,0,300,193.21094Zm-24,0v32a63.56908,63.56908,0,0,0-23.957,9.86328l-22.62891-22.62695A94.926,94.926,0,0,1,276,161.21094ZM212.44531,197.416,235.07422,220.043A63.61375,63.61375,0,0,0,225.21094,244h-32A94.938,94.938,0,0,1,212.44531,197.416ZM193.21094,268h32a63.61375,63.61375,0,0,0,9.86328,23.957l-22.62891,22.627A94.938,94.938,0,0,1,193.21094,268ZM276,350.78906a94.926,94.926,0,0,1-46.58594-19.23633l22.62891-22.627A63.56908,63.56908,0,0,0,276,318.78906ZM256,256a32,32,0,1,1,32,32A32.00033,32.00033,0,0,1,256,256Zm44,94.78906v-32a63.56908,63.56908,0,0,0,23.957-9.86328l22.62891,22.627A94.926,94.926,0,0,1,300,350.78906ZM363.55469,314.584l-22.62891-22.627A63.61375,63.61375,0,0,0,350.78906,268h32A94.938,94.938,0,0,1,363.55469,314.584ZM350.78906,244a63.61375,63.61375,0,0,0-9.86328-23.957L363.55469,197.416A94.938,94.938,0,0,1,382.78906,244ZM48,32H16A15.99954,15.99954,0,0,0,0,48V464a16.00079,16.00079,0,0,0,16,16H48a16.00079,16.00079,0,0,0,16-16V48A15.99954,15.99954,0,0,0,48,32Zm512,0H528a15.99954,15.99954,0,0,0-16,16V464a16.00079,16.00079,0,0,0,16,16h32a16.00079,16.00079,0,0,0,16-16V48A15.99954,15.99954,0,0,0,560,32Z" class="fa-primary"/></svg>