<svg xmlns="http://www.w3.org/2000/svg" viewBox="0 0 512 512"><!-- Font Awesome Pro 5.15.4 by @fontawesome - https://fontawesome.com License - https://fontawesome.com/license (Commercial License) --><defs><style>.fa-secondary{opacity:.4}</style></defs><path d="M415.99814,80.0021a7.297,7.297,0,0,0-3.68757-5.96246L362.669,53.338,341.96545,3.697a6.65746,6.65746,0,0,0-11.926,0L309.33591,53.338,259.69042,74.03964a6.66417,6.66417,0,0,0,0,11.92493l49.64549,20.69969,20.70353,49.643a6.65746,6.65746,0,0,0,11.926,0L362.669,106.66426l49.64159-20.69969A7.31629,7.31629,0,0,0,415.99814,80.0021Zm93.05649,139.2264L469.339,202.67109,452.7801,162.961a5.32533,5.32533,0,0,0-9.53925,0L426.678,202.67109l-39.7117,16.55741a5.33544,5.33544,0,0,0,0,9.54033L426.678,245.3282l16.56282,39.7081a5.32376,5.32376,0,0,0,9.53925,0L469.339,245.3282l39.71561-16.55937a5.33544,5.33544,0,0,0,0-9.54033Z" class="fa-secondary"/><path d="M364.294,267.29343,259.4951,251.99764l-46.90716-95.19633c-8.39078-16.99879-32.68813-17.2019-41.18829,0l-46.90716,95.19633L19.69358,267.29343C.89634,269.99636-6.71318,293.19783,6.99021,306.49376l75.90772,73.99472L64.89758,485.07476c-3.20319,18.9049,16.68782,33.107,33.29752,24.2014l93.7987-49.3871,93.79869,49.3871A22.95361,22.95361,0,0,0,319.09,485.07476L301.199,380.48848l75.89209-73.99472C390.70077,293.19783,383.09125,269.99636,364.294,267.29343Z" class="fa-primary"/></svg>