<svg xmlns="http://www.w3.org/2000/svg" viewBox="0 0 576 512"><!-- Font Awesome Pro 5.15.4 by @fontawesome - https://fontawesome.com License - https://fontawesome.com/license (Commercial License) --><defs><style>.fa-secondary{opacity:.4}</style></defs><path d="M514.93 76.66C467.93 23.11 416.29 0 368.86 0 298.28 0 237 51.17 214.11 129.39 165 269.33 1.39 212.34 0 351.66c-1.19 121.62 139.26 164.62 256 160 87.78-3.4 187.32-37.09 270.49-131.85C596.78 299.77 591.6 164 514.93 76.66zm-36.53 261c-76.15 86.75-164.32 107.76-224.82 110.1-37.65 1.38-131.52-6.52-171.23-46.62-2.49-2.51-59.44-61.76 38-104.18 71.64-31.19 132.3-71.24 155.23-149.61C290.35 96.71 327 64 368.86 64c32.58 0 66.45 19 98 54.89 55.14 62.84 60.45 163 11.54 218.78z" class="fa-secondary"/><path d="M466.86 118.89C435.31 83 401.44 64 368.86 64c-41.86 0-78.51 32.71-93.29 83.37C252.64 225.74 192 265.79 120.34 297c-97.43 42.42-40.48 101.67-38 104.18 39.71 40.1 133.58 48 171.23 46.62 60.5-2.34 148.67-23.35 224.82-110.1 48.91-55.77 43.61-155.97-11.53-218.81zM384 255.92a32 32 0 1 1 32-32 32 32 0 0 1-32 32z" class="fa-primary"/></svg>