<svg xmlns="http://www.w3.org/2000/svg" viewBox="0 0 448 512"><!-- Font Awesome Pro 5.15.4 by @fontawesome - https://fontawesome.com License - https://fontawesome.com/license (Commercial License) --><defs><style>.fa-secondary{opacity:.4}</style></defs><path d="M448 352H336a16 16 0 0 0-16 16v112H24a23.94 23.94 0 0 1-24-23.88V56a23.94 23.94 0 0 1 23.88-24H424a23.94 23.94 0 0 1 24 23.88V352z" class="fa-secondary"/><path d="M320 480V368a16 16 0 0 1 16-16h112v6.1a23.9 23.9 0 0 1-7 16.9l-98 98a24 24 0 0 1-17 7z" class="fa-primary"/></svg>