<svg xmlns="http://www.w3.org/2000/svg" viewBox="0 0 448 512"><!-- Font Awesome Pro 5.15.4 by @fontawesome - https://fontawesome.com License - https://fontawesome.com/license (Commercial License) --><defs><style>.fa-secondary{opacity:.4}</style></defs><path d="M287.87,221.73c-9.41,0-13.23,7.5-13.23,20V357.68c0,13.11,3.59,20.59,13.23,20.59s13-8,13-21.27V241.06C300.89,229.79,297.87,221.73,287.87,221.73ZM398.5,190.91l.59-.61,26.59-26.58a16,16,0,0,0,0-22.63L403,118.41a16,16,0,0,0-22.63,0l-24.68,24.68A206.68,206.68,0,0,0,256,98.5V64h32a16,16,0,0,0,16-16V16A16,16,0,0,0,288,0H160a16,16,0,0,0-16,16V48a16,16,0,0,0,16,16h32V98.5A207.92,207.92,0,0,0,16.09,297.57C12.64,411.5,106.76,510.22,220.72,512,337.13,513.77,432,420,432,304A206,206,0,0,0,398.5,190.91ZM204.37,377.55a8.2,8.2,0,0,1,8.32,8.07v22.31a8.2,8.2,0,0,1-8.32,8.07H121.52a16.46,16.46,0,0,1-16.61-17.62c2.78-35.22,14.67-57.41,38.45-91.37,20.42-29.19,27.1-37.32,27.1-62.34,0-16.92-1.79-24.27-12.21-24.27-9.39,0-12.69,7.4-12.69,22.68v5.23a8.2,8.2,0,0,1-8.33,8.07h-24.9a8.2,8.2,0,0,1-8.33-8.07v-4.07c0-27.3,8.48-60.24,56.43-60.24,43,0,55.57,25.85,55.57,61,0,35.58-12.44,51.21-34.35,81.31-11.56,15-24.61,35.57-26.41,51.2ZM344,352.32c0,35.16-12.3,63.68-57.23,63.68C243.19,416,232,386.48,232,352.55V247.22c0-40.73,19.58-63.22,56.19-63.22C325,184,344,206.64,344,245.3Z" class="fa-secondary"/><path d="M216,245c0-35.19-12.59-61-55.57-61C112.48,184,104,216.94,104,244.24v4.07a8.2,8.2,0,0,0,8.33,8.07h24.9a8.2,8.2,0,0,0,8.33-8.07v-5.23c0-15.28,3.3-22.68,12.69-22.68,10.42,0,12.21,7.35,12.21,24.27,0,25-6.68,33.15-27.1,62.34-23.78,34-35.67,56.15-38.45,91.37A16.46,16.46,0,0,0,121.52,416h82.85a8.2,8.2,0,0,0,8.32-8.07V385.62a8.2,8.2,0,0,0-8.32-8.07H155.24c1.8-15.63,14.85-36.15,26.41-51.2C203.56,296.25,216,280.62,216,245Zm72.19-61C251.58,184,232,206.49,232,247.22V352.55c0,33.93,11.19,63.45,54.77,63.45C331.7,416,344,387.48,344,352.32v-107C344,206.64,325,184,288.19,184Zm12.7,173c0,13.24-3.38,21.27-13,21.27s-13.23-7.48-13.23-20.59V241.74c0-12.51,3.82-20,13.23-20,10,0,13,8.06,13,19.33Z" class="fa-primary"/></svg>