<svg xmlns="http://www.w3.org/2000/svg" viewBox="0 0 448 512"><!-- Font Awesome Pro 5.15.4 by @fontawesome - https://fontawesome.com License - https://fontawesome.com/license (Commercial License) --><defs><style>.fa-secondary{opacity:.4}</style></defs><path d="M224 96C109.12 96 16 189.12 16 304s93.12 208 208 208 208-93.12 208-208S338.88 96 224 96zm32 240a16 16 0 0 1-16 16h-32a16 16 0 0 1-16-16V208.5a16 16 0 0 1 16-16h32a16 16 0 0 1 16 16z" class="fa-secondary"/><path d="M240 192.5h-32a16 16 0 0 0-16 16V336a16 16 0 0 0 16 16h32a16 16 0 0 0 16-16V208.5a16 16 0 0 0-16-16zm188.53-48.57l-28.3-28.3a12 12 0 0 0-17 0l-27.45 27.45a209.14 209.14 0 0 1 42.8 47.8l.55-.55 29.4-29.4a12 12 0 0 0 0-17zM280 0H168a16 16 0 0 0-16 16v32a16 16 0 0 0 16 16h24v34.45a210 210 0 0 1 64 0V64h24a16 16 0 0 0 16-16V16a16 16 0 0 0-16-16z" class="fa-primary"/></svg>