<svg xmlns="http://www.w3.org/2000/svg" viewBox="0 0 640 512"><!-- Font Awesome Pro 5.15.4 by @fontawesome - https://fontawesome.com License - https://fontawesome.com/license (Commercial License) --><defs><style>.fa-secondary{opacity:.4}</style></defs><path d="M320,384H128V224H64V480a32,32,0,0,0,32,32H352a32,32,0,0,0,32-32V406.59l-64-49.47ZM17.89,123.62,5.51,142.2c-14.2,21.3,1,49.8,26.59,49.8h74.26ZM384,265V224H330.92ZM512,364l64,49.46V224H512ZM634.6,142.2l-85.29-128A32.18,32.18,0,0,0,522.6,0H117.42A31.87,31.87,0,0,0,90.81,14.2l-10.66,16L289.52,192H608C633.51,192,648.71,163.5,634.6,142.2Z" class="fa-secondary"/><path d="M6.18,53.91A16,16,0,0,1,3.37,31.46L23,6.19A16,16,0,0,1,45.46,3.38L633.81,458.1a16,16,0,0,1,2.81,22.45L617,505.81a16,16,0,0,1-22.45,2.82Z" class="fa-primary"/></svg>