<svg xmlns="http://www.w3.org/2000/svg" viewBox="0 0 512 512"><!-- Font Awesome Pro 5.15.4 by @fontawesome - https://fontawesome.com License - https://fontawesome.com/license (Commercial License) --><defs><style>.fa-secondary{opacity:.4}</style></defs><path d="M512 416c0 53-114.62 96-256 96S0 469 0 416c0-37.95 58.87-70.66 144.1-86.24a63.94 63.94 0 0 0 15.9 13.65v22.94C93.48 375.7 48 394.4 48 416c0 30.93 93.12 56 208 56s208-25.07 208-56c0-21.6-45.48-40.31-112-49.65v-22.94a63.94 63.94 0 0 0 15.9-13.65C453.13 345.34 512 378.05 512 416z" class="fa-secondary"/><path d="M256 128a64 64 0 1 0-64-64 64 64 0 0 0 64 64zm48 16h-11.8a85.9 85.9 0 0 1-72.4 0H208a48 48 0 0 0-48 48v96a32 32 0 0 0 32 32v96a32 32 0 0 0 32 32h64a32 32 0 0 0 32-32v-96a32 32 0 0 0 32-32v-96a48 48 0 0 0-48-48z" class="fa-primary"/></svg>