<svg xmlns="http://www.w3.org/2000/svg" viewBox="0 0 512 512"><!-- Font Awesome Pro 5.15.4 by @fontawesome - https://fontawesome.com License - https://fontawesome.com/license (Commercial License) --><defs><style>.fa-secondary{opacity:.4}</style></defs><path d="M188.12 210.74L142.86 256l45.25 45.25L233.37 256zm22.63 113.14L256 369.14l45.26-45.26L256 278.63zm90.5-135.76L256 142.86l-45.25 45.25L256 233.37zM256 0C114.62 0 0 114.62 0 256s114.62 256 256 256 256-114.62 256-256S397.38 0 256 0zm186.68 295.6l-11.31 11.31a8 8 0 0 1-11.31 0l-28.29-28.29-45.25 45.25 33.94 33.94 17-17a8 8 0 0 1 11.31 0l11.31 11.31a8 8 0 0 1 0 11.31l-17 17 17 17a8 8 0 0 1 0 11.31L408.74 420a8 8 0 0 1-11.31 0l-17-17-17 17a8 8 0 0 1-11.31 0l-11.31-11.31a8 8 0 0 1 0-11.31l17-17-33.91-33.89-45.26 45.26L306.93 420a8 8 0 0 1 0 11.31l-11.31 11.31a8 8 0 0 1-11.31 0L256 414.39l-28.29 28.29a8 8 0 0 1-11.31 0l-11.31-11.31a8 8 0 0 1 0-11.31l28.29-28.29-45.25-45.26-33.94 33.94 17 17a8 8 0 0 1 0 11.31L159.85 420a8 8 0 0 1-11.31 0l-17-17-17 17a8 8 0 0 1-11.31 0L92 408.73a8 8 0 0 1 0-11.31l17-17-17-17a8 8 0 0 1 0-11.31l11.31-11.31a8 8 0 0 1 11.31 0l17 17 33.94-33.94-45.25-45.25L92 306.93a8 8 0 0 1-11.31 0L69.32 295.6a8 8 0 0 1 0-11.31L97.61 256l-28.29-28.29a8 8 0 0 1 0-11.31l11.31-11.31a8 8 0 0 1 11.31 0l28.29 28.29 45.25-45.26-33.94-33.94-17 17a8 8 0 0 1-11.31 0L92 159.84a8 8 0 0 1 0-11.31l17-17-17-17a8 8 0 0 1 0-11.31L103.26 92a8 8 0 0 1 11.31 0l17 17 17-17a8 8 0 0 1 11.31 0l11.31 11.31a8 8 0 0 1 0 11.31l-17 17 33.91 33.88 45.26-45.25L205.07 92a8 8 0 0 1 0-11.31l11.31-11.31a8 8 0 0 1 11.31 0L256 97.61l28.29-28.29a8 8 0 0 1 11.31 0l11.31 11.31a8 8 0 0 1 0 11.31l-28.29 28.29 45.26 45.25 33.94-33.94-17-17a8 8 0 0 1 0-11.31L352.16 92a8 8 0 0 1 11.31 0l17 17 17-17a8 8 0 0 1 11.31 0L420 103.26a8 8 0 0 1 0 11.31l-17 17 17 17a8 8 0 0 1 0 11.31l-11.31 11.31a8 8 0 0 1-11.31 0l-17-17-33.88 33.91 45.25 45.26L420 205.07a8 8 0 0 1 11.31 0l11.31 11.31a8 8 0 0 1 0 11.31L414.39 256l28.29 28.28a8 8 0 0 1 0 11.32zm-164-39.6l45.26 45.25 45.2-45.25-45.25-45.26z" class="fa-secondary"/><path d="M442.68 284.28L414.39 256l28.27-28.31a8 8 0 0 0 0-11.31l-11.31-11.31a8 8 0 0 0-11.31 0l-28.29 28.29-45.25-45.26 33.94-33.94 17 17a8 8 0 0 0 11.31 0L420 159.82a8 8 0 0 0 0-11.31l-17-17 17-17a8 8 0 0 0 0-11.31L408.72 92a8 8 0 0 0-11.31 0l-17 17-17-17a8 8 0 0 0-11.31 0l-11.31 11.31a8 8 0 0 0 0 11.31l17 17-33.94 33.94-45.26-45.25 28.29-28.29a8 8 0 0 0 0-11.31L295.6 69.32a8 8 0 0 0-11.31 0L256 97.61l-28.31-28.27a8 8 0 0 0-11.31 0l-11.31 11.31a8 8 0 0 0 0 11.31l28.29 28.29-45.26 45.25-33.94-33.94 17-17a8 8 0 0 0 0-11.31L159.82 92a8 8 0 0 0-11.31 0l-17 17-17-17a8 8 0 0 0-11.31 0L92 103.28a8 8 0 0 0 0 11.31l17 17-17 17a8 8 0 0 0 0 11.31l11.31 11.31a8 8 0 0 0 11.31 0l17-17 33.94 33.94-45.25 45.26-28.37-28.32a8 8 0 0 0-11.31 0L69.32 216.4a8 8 0 0 0 0 11.31L97.61 256l-28.29 28.29a8 8 0 0 0 0 11.31l11.34 11.33a8 8 0 0 0 11.31 0l28.29-28.29 45.25 45.25-33.94 33.94-17-17a8 8 0 0 0-11.31 0L92 352.17a8 8 0 0 0 0 11.31l17 17-17 17a8 8 0 0 0 0 11.31L103.29 420a8 8 0 0 0 11.31 0l17-17 17 17a8 8 0 0 0 11.31 0l11.31-11.31a8 8 0 0 0 0-11.31l-17-17 33.94-33.94 45.25 45.26-28.29 28.29a8 8 0 0 0 0 11.31l11.31 11.31a8 8 0 0 0 11.31 0L256 414.39l28.31 28.27a8 8 0 0 0 11.31 0l11.31-11.31a8 8 0 0 0 0-11.31l-28.29-28.29 45.26-45.26 33.94 33.94-17 17a8 8 0 0 0 0 11.31L352.18 420a8 8 0 0 0 11.31 0l17-17 17 17a8 8 0 0 0 11.31 0l11.31-11.31a8 8 0 0 0 0-11.31l-17-17 17-17a8 8 0 0 0 0-11.31l-11.31-11.31a8 8 0 0 0-11.31 0l-17 17-33.94-33.94 45.25-45.25 28.29 28.29a8 8 0 0 0 11.31 0l11.31-11.31a8 8 0 0 0-.03-11.27zM256 142.86l45.25 45.26L256 233.37l-45.25-45.26zm-67.89 158.39L142.86 256l45.26-45.26L233.37 256zM256 369.14l-45.25-45.26L256 278.63l45.26 45.25zm67.89-67.89L278.63 256l45.26-45.26L369.14 256z" class="fa-primary"/></svg>