<svg xmlns="http://www.w3.org/2000/svg" viewBox="0 0 448 512"><!-- Font Awesome Pro 5.15.4 by @fontawesome - https://fontawesome.com License - https://fontawesome.com/license (Commercial License) --><defs><style>.fa-secondary{opacity:.4}</style></defs><path d="M176 256a24 24 0 0 0 24-24V120a24 24 0 0 0-24-24H72a24 24 0 0 0-24 24v112a24 24 0 0 0 24 24zM376 96H272a24 24 0 0 0-24 24v112a24 24 0 0 0 24 24h104a24 24 0 0 0 24-24V120a24 24 0 0 0-24-24zm5 401.72L318 448H130l-63 49.72A8 8 0 0 0 72 512h304a8 8 0 0 0 5-14.28z" class="fa-secondary"/><path d="M130 448h188c68.4 0 130-44.19 130-96V96c0-53-63-96-128-96H128C64 0 0 43 0 96v256c0 52 61.82 96 130 96zm222-64a48 48 0 1 1 48-48 48 48 0 0 1-48 48zM248 120a24 24 0 0 1 24-24h104a24 24 0 0 1 24 24v112a24 24 0 0 1-24 24H272a24 24 0 0 1-24-24zm-200 0a24 24 0 0 1 24-24h104a24 24 0 0 1 24 24v112a24 24 0 0 1-24 24H72a24 24 0 0 1-24-24zm48 168a48 48 0 1 1-48 48 48 48 0 0 1 48-48z" class="fa-primary"/></svg>