<svg xmlns="http://www.w3.org/2000/svg" viewBox="0 0 512 512"><!-- Font Awesome Pro 5.15.4 by @fontawesome - https://fontawesome.com License - https://fontawesome.com/license (Commercial License) --><defs><style>.fa-secondary{opacity:.4}</style></defs><path d="M80 480h48V128H80zm304-352v352h48V128z" class="fa-secondary"/><path d="M336 32H176a48 48 0 0 0-48 48v400h256V80a48 48 0 0 0-48-48zm-16 96H192V96h128zm144 0h-32v352h32a48 48 0 0 0 48-48V176a48 48 0 0 0-48-48zM0 176v256a48 48 0 0 0 48 48h32V128H48a48 48 0 0 0-48 48z" class="fa-primary"/></svg>