<svg xmlns="http://www.w3.org/2000/svg" viewBox="0 0 384 512"><!-- Font Awesome Pro 5.15.4 by @fontawesome - https://fontawesome.com License - https://fontawesome.com/license (Commercial License) --><defs><style>.fa-secondary{opacity:.4}</style></defs><path d="M144 48h96v112h48V48a48 48 0 0 0-48-48h-96a48 48 0 0 0-48 48v112h48zM64 496a16 16 0 0 0 16 16h32a16 16 0 0 0 16-16v-16H64zm192 0a16 16 0 0 0 16 16h32a16 16 0 0 0 16-16v-16h-64zm56-240H72a8 8 0 0 0-8 8v16a8 8 0 0 0 8 8h240a8 8 0 0 0 8-8v-16a8 8 0 0 0-8-8zm0 96H72a8 8 0 0 0-8 8v16a8 8 0 0 0 8 8h240a8 8 0 0 0 8-8v-16a8 8 0 0 0-8-8z" class="fa-secondary"/><path d="M336 160H48a48 48 0 0 0-48 48v224a48 48 0 0 0 48 48h288a48 48 0 0 0 48-48V208a48 48 0 0 0-48-48zm-16 216a8 8 0 0 1-8 8H72a8 8 0 0 1-8-8v-16a8 8 0 0 1 8-8h240a8 8 0 0 1 8 8zm0-96a8 8 0 0 1-8 8H72a8 8 0 0 1-8-8v-16a8 8 0 0 1 8-8h240a8 8 0 0 1 8 8z" class="fa-primary"/></svg>