<svg xmlns="http://www.w3.org/2000/svg" viewBox="0 0 640 512"><!-- Font Awesome Pro 5.15.4 by @fontawesome - https://fontawesome.com License - https://fontawesome.com/license (Commercial License) --><defs><style>.fa-secondary{opacity:.4}</style></defs><path d="M429.4 384H384a95.17 95.17 0 0 1-58.6-20.5c-49.6 32-116.5 26.4-159.9-16.9a128 128 0 0 1 181-181 125.41 125.41 0 0 1 18.1 23.4 112.64 112.64 0 0 1 62.6-54.5l13.9-41.7c4.5-13.6-8.4-26.5-21.9-21.9l-100.4 33.5-47.3-94.8a17.31 17.31 0 0 0-31 0l-47.3 94.7L92.7 70.8c-13.6-4.5-26.5 8.4-21.9 21.9l33.5 100.4-94.7 47.4a17.31 17.31 0 0 0 0 31l94.7 47.3-33.5 100.5c-4.5 13.6 8.4 26.5 21.9 21.9l100.4-33.5 47.3 94.7a17.31 17.31 0 0 0 31 0l47.3-94.7 100.4 33.5c13.6 4.5 26.5-8.4 21.9-21.9zm-92.5-179.3a96.36 96.36 0 1 0-33.8 134.5A95.22 95.22 0 0 1 288 288c0-35.8 19.8-66.8 48.9-83.3z" class="fa-secondary"/><path d="M640 288a64.06 64.06 0 0 1-64 64H384a64 64 0 0 1 0-128c.6 0 1.1.2 1.6.2a79.75 79.75 0 0 1 157.7 9A63.72 63.72 0 0 1 640 288z" class="fa-primary"/></svg>