<svg xmlns="http://www.w3.org/2000/svg" viewBox="0 0 512 512"><!-- Font Awesome Pro 5.15.4 by @fontawesome - https://fontawesome.com License - https://fontawesome.com/license (Commercial License) --><defs><style>.fa-secondary{opacity:.4}</style></defs><path d="M160 256a95.68 95.68 0 0 0 28.1 67.8l135.7-135.7A96 96 0 0 0 160 256zM419.3 70.8l-100.4 33.5-47.4-94.7a17.31 17.31 0 0 0-31 0l-47.3 94.7L92.7 70.8c-13.6-4.5-26.5 8.4-21.9 21.9l33.5 100.4-94.7 47.4a17.31 17.31 0 0 0 0 31l94.7 47.3-33.5 100.5A16.86 16.86 0 0 0 75 437l90.5-90.5a128 128 0 0 1 181-181L437 75a16.86 16.86 0 0 0-17.7-4.2z" class="fa-secondary"/><path d="M160 448a32 32 0 1 0 32 32 32 32 0 0 0-32-32zm320-256a32 32 0 1 0-32-32 32 32 0 0 0 32 32zm-96 96a32 32 0 1 0-32 32 32 32 0 0 0 32-32zm-144 64a32 32 0 1 0 32 32 32 32 0 0 0-32-32zm160 0a32 32 0 1 0 32 32 32 32 0 0 0-32-32zm80 96a32 32 0 1 0 32 32 32 32 0 0 0-32-32zm0-192a32 32 0 1 0 32 32 32 32 0 0 0-32-32zM320 448a32 32 0 1 0 32 32 32 32 0 0 0-32-32z" class="fa-primary"/></svg>