<svg xmlns="http://www.w3.org/2000/svg" viewBox="0 0 640 512"><!-- Font Awesome Pro 5.15.4 by @fontawesome - https://fontawesome.com License - https://fontawesome.com/license (Commercial License) --><defs><style>.fa-secondary{opacity:.4}</style></defs><path d="M189.61 374.57A86.6 86.6 0 0 0 160 356.5V128a96 96 0 0 1 192 0v16a16 16 0 0 1-16 16h-32a16 16 0 0 1-16-16v-16a32 32 0 0 0-64 0v96h192v-96a96 96 0 0 1 192 0v16a16 16 0 0 1-16 16h-32a16 16 0 0 1-16-16v-16a32 32 0 0 0-64 0v228.51a86.44 86.44 0 0 0-29.61 18.07c-3.53 3.26-15.27 9.42-34.39 9.42v-96H224v96c-19.12 0-30.86-6.16-34.39-9.43z" class="fa-secondary"/><path d="M0 464v-32a16 16 0 0 1 16-16h16c26 0 45.8-8.42 56.07-17.9 8.9-8.21 19.66-14.1 31.77-14.1h16.3c12.11 0 22.87 5.89 31.77 14.1C178.2 407.58 198 416 224 416s45.8-8.42 56.07-17.9c8.9-8.21 19.66-14.1 31.77-14.1h16.3c12.11 0 22.87 5.89 31.77 14.1C370.2 407.58 390 416 416 416s45.8-8.42 56.07-17.9c8.9-8.21 19.66-14.1 31.77-14.1h16.3c12.11 0 22.87 5.89 31.77 14.1C562.2 407.58 582 416 608 416h16a16 16 0 0 1 16 16v32a16 16 0 0 1-16 16h-16c-38.62 0-72.72-12.18-96-31.84-23.28 19.65-57.38 31.84-96 31.84s-72.72-12.18-96-31.84C296.72 467.81 262.62 480 224 480s-72.72-12.18-96-31.84C104.72 467.81 70.62 480 32 480H16a16 16 0 0 1-16-16z" class="fa-primary"/></svg>