<svg xmlns="http://www.w3.org/2000/svg" viewBox="0 0 512 512"><!-- Font Awesome Pro 5.15.4 by @fontawesome - https://fontawesome.com License - https://fontawesome.com/license (Commercial License) --><defs><style>.fa-secondary{opacity:.4}</style></defs><path d="M153.37 278.63L100 332l-24.69-24.69a16 16 0 0 0-22.62 0l-17.54 17.53a16 16 0 0 0-2.79 18.87l31.64 59-59.31 59.35a16 16 0 0 0 0 22.63l22.62 22.62a16 16 0 0 0 22.63 0L109.25 448l59 31.64a16 16 0 0 0 18.87-2.79l17.53-17.54a16 16 0 0 0 0-22.62L180 412l53.37-53.37zM496.79.14l-78.11 13.2-140 140 80 80 140-140 13.2-78.11A13.33 13.33 0 0 0 496.79.14z" class="fa-secondary"/><path d="M389.37 309.38l-296-296L15.22.14A13.32 13.32 0 0 0 .14 15.22l13.2 78.11 296 296.05zm117.94 152.68L448 402.75l31.64-59a16 16 0 0 0-2.79-18.87l-17.54-17.53a16 16 0 0 0-22.63 0L307.31 436.69a16 16 0 0 0 0 22.62l17.53 17.54a16 16 0 0 0 18.87 2.79l59-31.64 59.31 59.31a16 16 0 0 0 22.63 0l22.62-22.62a16 16 0 0 0 .04-22.63z" class="fa-primary"/></svg>