<svg xmlns="http://www.w3.org/2000/svg" viewBox="0 0 512 512"><!-- Font Awesome Pro 5.15.4 by @fontawesome - https://fontawesome.com License - https://fontawesome.com/license (Commercial License) --><defs><style>.fa-secondary{opacity:.4}</style></defs><path d="M266.43 109.83l135.69 135.69-181.89 181.91a79.68 79.68 0 0 1-65.41 23l-63.59-7.11-66.3 66.3a8 8 0 0 1-11.31 0l-11.3-11.3a8 8 0 0 1 0-11.3l66.41-66.4L61.62 357a79.91 79.91 0 0 1 23-65.4L111 265.24l55.81 55.88a8 8 0 0 0 11.3 0l11.31-11.29a8.06 8.06 0 0 0 0-11.31l-55.86-55.85 45.29-45.28 55.76 55.84a8 8 0 0 0 11.31 0l11.3-11.31a8 8 0 0 0 0-11.3l-55.77-55.83z" class="fa-secondary"/><path d="M166.82 321.12L111 265.23l22.6-22.5 55.81 55.79a8.06 8.06 0 0 1 0 11.31l-11.31 11.29a8 8 0 0 1-11.28 0zm79.11-67.89l11.3-11.31a8 8 0 0 0 0-11.3l-55.71-55.79-22.59 22.59 55.69 55.81a8 8 0 0 0 11.31 0zM509.72 92.92l-11.3 11.31a8 8 0 0 1-11.3 0l-28.3-28.31-45.3 45.31 73.5 73.5A8 8 0 0 1 487 206l-33.9 34a8 8 0 0 1-11.3 0l-17-17L289.12 87.12l-17-17a8 8 0 0 1 0-11.29L306 24.92a8 8 0 0 1 11.3 0l17 17 56.61 56.6 45.3-45.29-28.3-28.31a8 8 0 0 1 0-11.3l11.3-11.29a8 8 0 0 1 11.29 0l79.21 79.19a8.15 8.15 0 0 1 .01 11.4z" class="fa-primary"/></svg>