<svg xmlns="http://www.w3.org/2000/svg" viewBox="0 0 512 512"><!-- Font Awesome Pro 5.15.4 by @fontawesome - https://fontawesome.com License - https://fontawesome.com/license (Commercial License) --><defs><style>.fa-secondary{opacity:.4}</style></defs><path d="M288 160v96h160v-96zm0 256h160v-96H288zM64 256h160v-96H64zm0 160h160v-96H64z" class="fa-secondary"/><path d="M464 32H48A48 48 0 0 0 0 80v352a48 48 0 0 0 48 48h416a48 48 0 0 0 48-48V80a48 48 0 0 0-48-48zM224 416H64v-96h160zm0-160H64v-96h160zm224 160H288v-96h160zm0-160H288v-96h160z" class="fa-primary"/></svg>