<svg xmlns="http://www.w3.org/2000/svg" viewBox="0 0 576 512"><!-- Font Awesome Pro 5.15.4 by @fontawesome - https://fontawesome.com License - https://fontawesome.com/license (Commercial License) --><defs><style>.fa-secondary{opacity:.4}</style></defs><path d="M288 32C128.94 32 0 160.94 0 320a286.44 286.44 0 0 0 39.06 144.8c5.61 9.62 16.3 15.2 27.44 15.2h443c11.14 0 21.83-5.58 27.44-15.2A286.44 286.44 0 0 0 576 320c0-159.06-128.94-288-288-288zM96 384a32 32 0 1 1 32-32 32 32 0 0 1-32 32zm48-160a32 32 0 1 1 32-32 32 32 0 0 1-32 32zm203.54 183a63 63 0 0 1-4.42 9H232.88A63.36 63.36 0 0 1 255 329.17a62.44 62.44 0 0 1 9-4.42V128a24 24 0 0 1 48 0v196.75A63.36 63.36 0 0 1 347.54 407zM400 192a32 32 0 1 1 32 32 32 32 0 0 1-32-32zm80 192a32 32 0 1 1 32-32 32 32 0 0 1-32 32z" class="fa-secondary"/><path d="M343.12 416H232.88A63.36 63.36 0 0 1 255 329.17a62.44 62.44 0 0 1 9-4.42V128a24 24 0 0 1 48 0v196.75A63.35 63.35 0 0 1 343.12 416z" class="fa-primary"/></svg>