<svg xmlns="http://www.w3.org/2000/svg" viewBox="0 0 576 512"><!-- Font Awesome Pro 5.15.4 by @fontawesome - https://fontawesome.com License - https://fontawesome.com/license (Commercial License) --><defs><style>.fa-secondary{opacity:.4}</style></defs><path d="M288 32C128.94 32 0 160.94 0 320a286.5 286.5 0 0 0 39.06 144.8c5.61 9.62 16.3 15.2 27.44 15.2h443c11.14 0 21.83-5.58 27.44-15.2A286.5 286.5 0 0 0 576 320c0-159.06-128.94-288-288-288zm55.12 384H232.88a62.26 62.26 0 0 1 .47-64.86L124.8 206.41a24 24 0 0 1 38.41-28.81l108.56 144.74A63.5 63.5 0 0 1 343.12 416z" class="fa-secondary"/><path d="M343.12 416H232.88a62.26 62.26 0 0 1 .47-64.86L124.8 206.41a24 24 0 0 1 38.41-28.81l108.56 144.74A63.5 63.5 0 0 1 343.12 416z" class="fa-primary"/></svg>