<svg xmlns="http://www.w3.org/2000/svg" viewBox="0 0 576 512"><!-- Font Awesome Pro 5.15.4 by @fontawesome - https://fontawesome.com License - https://fontawesome.com/license (Commercial License) --><defs><style>.fa-secondary{opacity:.4}</style></defs><path d="M288 32C128.94 32 0 160.94 0 320a286.5 286.5 0 0 0 39.06 144.8c5.61 9.62 16.3 15.2 27.44 15.2h443c11.14 0 21.83-5.58 27.44-15.2A286.5 286.5 0 0 0 576 320c0-159.06-128.94-288-288-288zm0 64a32 32 0 1 1-32 32 32 32 0 0 1 32-32zm-144 64a32 32 0 1 1-32 32 32 32 0 0 1 32-32zm199.12 256H232.88a65.78 65.78 0 0 1-6.9-18L92.05 375.67a24 24 0 0 1 7.9-47.34l133.68 22.28A63.77 63.77 0 0 1 343.12 416zM400 192a32 32 0 1 1 32 32 32 32 0 0 1-32-32zm80 192a32 32 0 1 1 32-32 32 32 0 0 1-32 32z" class="fa-secondary"/><path d="M72.33 348.05A24 24 0 0 1 100 328.33l133.68 22.28A63.77 63.77 0 0 1 343.12 416H232.88a65.78 65.78 0 0 1-6.9-18L92.05 375.67a24 24 0 0 1-19.72-27.62z" class="fa-primary"/></svg>