<svg xmlns="http://www.w3.org/2000/svg" viewBox="0 0 576 512"><!-- Font Awesome Pro 5.15.4 by @fontawesome - https://fontawesome.com License - https://fontawesome.com/license (Commercial License) --><defs><style>.fa-secondary{opacity:.4}</style></defs><path d="M288 32C128.94 32 0 160.94 0 320a286.5 286.5 0 0 0 39.06 144.8c5.61 9.62 16.3 15.2 27.44 15.2h443c11.14 0 21.83-5.58 27.44-15.2A286.5 286.5 0 0 0 576 320c0-159.06-128.94-288-288-288zm144 128a32 32 0 1 1-32 32 32 32 0 0 1 32-32zM288 96a32 32 0 1 1-32 32 32 32 0 0 1 32-32zM96 384a32 32 0 1 1 32-32 32 32 0 0 1-32 32zm48-160a32 32 0 1 1 32-32 32 32 0 0 1-32 32zm340 151.67L350 398a66 66 0 0 1-6.9 18H232.88a63.33 63.33 0 0 1-8.88-32 63.85 63.85 0 0 1 118.37-33.39l133.68-22.28a24 24 0 0 1 7.9 47.34z" class="fa-secondary"/><path d="M288 320a63.78 63.78 0 0 1 54.37 30.61l133.68-22.28a24 24 0 0 1 7.9 47.34L350 398a66 66 0 0 1-6.9 18H232.88a63.33 63.33 0 0 1-8.88-32 64 64 0 0 1 64-64z" class="fa-primary"/></svg>