<svg xmlns="http://www.w3.org/2000/svg" viewBox="0 0 512 512"><!-- Font Awesome Pro 5.15.4 by @fontawesome - https://fontawesome.com License - https://fontawesome.com/license (Commercial License) --><defs><style>.fa-secondary{opacity:.4}</style></defs><path d="M497.94 225.94L286.06 14.06A48 48 0 0 0 252.12 0H48A48 48 0 0 0 0 48v204.12a48 48 0 0 0 14.06 33.94l211.88 211.88a48 48 0 0 0 67.88 0l204.12-204.12a48 48 0 0 0 0-67.88zM112 160a48 48 0 1 1 48-48 48 48 0 0 1-48 48z" class="fa-secondary"/></svg>