<svg xmlns="http://www.w3.org/2000/svg" viewBox="0 0 640 512"><!-- Font Awesome Pro 5.15.4 by @fontawesome - https://fontawesome.com License - https://fontawesome.com/license (Commercial License) --><defs><style>.fa-secondary{opacity:.4}</style></defs><path d="M224 253.44V48a16 16 0 0 1 16-16h32a16 16 0 0 1 16 16v184.73zm-64 20.71V48a16 16 0 0 0-16-16h-32a16 16 0 0 0-16 16v246.86zm256-82.85V48a16 16 0 0 0-16-16h-32a16 16 0 0 0-16 16v164zm128-41.42V48a16 16 0 0 0-16-16h-32a16 16 0 0 0-16 16v122.59zM224 320.7V464a16 16 0 0 0 16 16h32a16 16 0 0 0 16-16V300zm256-82.85V464a16 16 0 0 0 16 16h32a16 16 0 0 0 16-16V217.14zM96 362.12V464a16 16 0 0 0 16 16h32a16 16 0 0 0 16-16V341.41zm256-82.85V464a16 16 0 0 0 16 16h32a16 16 0 0 0 16-16V258.56z" class="fa-secondary"/><path d="M639.21 169.49a16 16 0 0 1-10.27 20.16L30.84 383.21a16 16 0 0 1-20.16-10.27L.79 342.51a16 16 0 0 1 10.27-20.16l598.1-193.56a16 16 0 0 1 20.16 10.27z" class="fa-primary"/></svg>