<svg xmlns="http://www.w3.org/2000/svg" viewBox="0 0 448 512"><!-- Font Awesome Pro 5.15.4 by @fontawesome - https://fontawesome.com License - https://fontawesome.com/license (Commercial License) --><defs><style>.fa-secondary{opacity:.4}</style></defs><path d="M32.14 448c2.29-15.62 2.46-47.76.53-64H352c16 0 32 12.8 32 32s-12.8 32-32 32z" class="fa-secondary"/><path d="M224 87.38l-16.78 28.06h33.58zm-59.11 52.06H130l17.47 29.17zm153.11 0h-34.9l17.48 29.19zM130 244.56h34.9l-17.48-29.19zM352 0H32A32 32 0 0 0 0 32v328a24 24 0 0 0 24 24h328c16 0 32 12.8 32 32s-12.8 32-32 32H24a24 24 0 0 0-24 24v16a24 24 0 0 0 24 24h328a96 96 0 0 0 96-96V96a96 96 0 0 0-96-96zm-9.41 258.43a20.12 20.12 0 0 1-17.5 10.15h-56.3L241.2 314.7a20 20 0 0 1-17.2 9.82 19.66 19.66 0 0 1-17-9.68l-27.7-46.28h-56.39a20 20 0 0 1-17.14-30.29L133.43 192l-27.79-46.43a19.6 19.6 0 0 1-.23-20 20.12 20.12 0 0 1 17.5-10.15h56.3L206.8 69.3a20 20 0 0 1 17.25-9.82 19.67 19.67 0 0 1 17 9.68l27.7 46.28h56.36a20 20 0 0 1 17.14 30.29L314.57 192l27.79 46.43a19.59 19.59 0 0 1 .23 20zm-118.54 38.2l16.78-28.07h-33.58zm59.09-52.07h34.91l-17.47-29.17zm-28-105.14h-62.3L161.41 192l31.47 52.56h62.3L286.59 192z" class="fa-primary"/></svg>