<svg xmlns="http://www.w3.org/2000/svg" viewBox="0 0 640 512"><!-- Font Awesome Pro 5.15.4 by @fontawesome - https://fontawesome.com License - https://fontawesome.com/license (Commercial License) --><defs><style>.fa-secondary{opacity:.4}</style></defs><path d="M624 416H380.6A223.47 223.47 0 0 0 448 256c0-123.7-100.3-224-224-224S0 132.3 0 256s100.3 224 224 224h400a16 16 0 0 0 16-16v-32a16 16 0 0 0-16-16zm-400-64a96 96 0 1 1 96-96 96 96 0 0 1-96 96z" class="fa-secondary"/><path d="M288 256a64 64 0 1 1-64-64 64.06 64.06 0 0 1 64 64z" class="fa-primary"/></svg>