<svg xmlns="http://www.w3.org/2000/svg" viewBox="0 0 640 512"><!-- Font Awesome Pro 5.15.4 by @fontawesome - https://fontawesome.com License - https://fontawesome.com/license (Commercial License) --><defs><style>.fa-secondary{opacity:.4}</style></defs><path d="M144 288H80a16 16 0 0 0-16 16v64a48 48 0 0 0 96 0v-64a16 16 0 0 0-16-16zm-32-160a48 48 0 0 0-48 48v64a16 16 0 0 0 16 16h64a16 16 0 0 0 16-16v-64a48 48 0 0 0-48-48zm176 160h-80a16 16 0 0 0-16 16v56a56 56 0 0 0 112 0v-56a16 16 0 0 0-16-16zM248 96a56 56 0 0 0-56 56v88a16 16 0 0 0 16 16h80a16 16 0 0 0 16-16v-88a56 56 0 0 0-56-56zm184 192h-80a16 16 0 0 0-16 16v56a56 56 0 0 0 112 0v-56a16 16 0 0 0-16-16zM392 96a56 56 0 0 0-56 56v88a16 16 0 0 0 16 16h80a16 16 0 0 0 16-16v-88a56 56 0 0 0-56-56zm168 192h-64a16 16 0 0 0-16 16v64a48 48 0 0 0 96 0v-64a16 16 0 0 0-16-16zm-32-160a48 48 0 0 0-48 48v64a16 16 0 0 0 16 16h64a16 16 0 0 0 16-16v-64a48 48 0 0 0-48-48z" class="fa-secondary"/><path d="M544 0H96A96 96 0 0 0 0 96v320a96 96 0 0 0 96 96h448a96 96 0 0 0 96-96V96a96 96 0 0 0-96-96zM160 368a48 48 0 0 1-96 0v-64a16 16 0 0 1 16-16h64a16 16 0 0 1 16 16zm0-128a16 16 0 0 1-16 16H80a16 16 0 0 1-16-16v-64a48 48 0 0 1 96 0zm144 120a56 56 0 0 1-112 0v-56a16 16 0 0 1 16-16h80a16 16 0 0 1 16 16zm0-120a16 16 0 0 1-16 16h-80a16 16 0 0 1-16-16v-88a56 56 0 0 1 112 0zm144 120a56 56 0 0 1-112 0v-56a16 16 0 0 1 16-16h80a16 16 0 0 1 16 16zm0-120a16 16 0 0 1-16 16h-80a16 16 0 0 1-16-16v-88a56 56 0 0 1 112 0zm128 128a48 48 0 0 1-96 0v-64a16 16 0 0 1 16-16h64a16 16 0 0 1 16 16zm0-128a16 16 0 0 1-16 16h-64a16 16 0 0 1-16-16v-64a48 48 0 0 1 96 0z" class="fa-primary"/></svg>