<svg xmlns="http://www.w3.org/2000/svg" viewBox="0 0 640 512"><!-- Font Awesome Pro 5.15.4 by @fontawesome - https://fontawesome.com License - https://fontawesome.com/license (Commercial License) --><defs><style>.fa-secondary{opacity:.4}</style></defs><path d="M608 278.5V112C608 50.1 557.9 0 496 0S384 50.1 384 112v166.5c-19.7 24.6-32 55.5-32 89.5 0 79.5 64.5 144 144 144s144-64.5 144-144c0-34-12.3-64.9-32-89.5zM496 448c-44.1.1-79.9-35.6-80-79.7 0-25.2 11.8-48.9 32-64.1V112c0-26.5 21.5-48 48-48s48 21.5 48 48v192.2c35.3 26.4 42.5 76.5 16.1 111.8-15.2 20.2-38.9 32-64.1 32z" class="fa-secondary"/><path d="M160 224c0 35.3 28.7 64 64 64s64-28.7 64-64-28.7-64-64-64-64 28.7-64 64zM237.6 8.4c-3.8-7.5-12.9-10.6-20.4-6.8-2.9 1.5-5.3 3.9-6.8 6.8L169 91.2 81.1 61.9c-8-2.6-16.6 1.8-19.2 9.8-1 3.1-1 6.4 0 9.4L91.2 169 8.4 210.4c-7.5 3.7-10.5 12.8-6.8 20.3 1.5 3 3.9 5.4 6.8 6.8L91.2 279l-29.3 87.9c-2.7 7.9 1.6 16.5 9.6 19.2 3.1 1 6.5 1 9.6 0l87.9-29.3 41.4 82.8c3.7 7.5 12.8 10.5 20.3 6.8 3-1.5 5.4-3.9 6.8-6.8l41.4-82.9 41.1 13.7c0-.8-.1-1.6-.1-2.5.1-35.9 11.3-70.8 32.1-100V112c0-16.9 3.5-33 8.9-48.1L279 91.2 237.6 8.4zm54.3 283.5c-37.5 37.4-98.3 37.4-135.8 0-37.5-37.4-37.4-98.4 0-135.8 37.5-37.5 98.3-37.5 135.8 0s37.5 98.3 0 135.8zm220.1 31V112c0-8.8-7.2-16-16-16s-16 7.2-16 16v210.9c-25 8.8-38.1 36.3-29.3 61.3s36.3 38.1 61.3 29.3 38.1-36.3 29.3-61.3c-4.9-13.7-15.6-24.5-29.3-29.3z" class="fa-primary"/></svg>