<svg xmlns="http://www.w3.org/2000/svg" viewBox="0 0 496 512"><!-- Font Awesome Pro 5.15.4 by @fontawesome - https://fontawesome.com License - https://fontawesome.com/license (Commercial License) --><defs><style>.fa-secondary{opacity:.4}</style></defs><path d="M267,77.5c-.59-19.26,3-63.59,52.93-58.89A247.88,247.88,0,0,0,248,8c-3.61,0-7.19.09-10.76.25C224.55,26.92,218.1,51.32,219,79.1c2.2,71.2-69,149.7-147.9,147.8-27.88-1.19-52.18,5.45-70.85,18.24C.1,248.74,0,252.36,0,256a248.12,248.12,0,0,0,10.72,72.31C5.7,278,50.22,274.51,69.6,275c47.4,1.8,101.6-21.5,138.7-58.8C245.4,179.1,268.5,124.6,267,77.5ZM485.26,183.63c5,50.23-39.65,53.67-58.86,53.27-46.8-1.9-101.5,21.6-138.7,58.8S227.5,387.3,229,434.4c.59,19.39-3.13,63.72-53.34,58.87A248,248,0,0,0,248,504c3.57,0,7.12-.09,10.66-.24,12.79-18.67,19.24-43.08,18.34-70.86-2.4-77.5,76.4-150.5,147.9-147.9,27.83.9,52.27-5.57,70.86-18.31.15-3.54.24-7.11.24-10.69a247.87,247.87,0,0,0-10.74-72.37Z" class="fa-secondary"/><path d="M424.9,285c-71.5-2.6-150.3,70.4-147.9,147.9.9,27.9-5.6,52.4-18.5,71.1,121-5.1,231.6-100.1,237.4-237.4C477.3,279.4,452.8,285.9,424.9,285ZM71.1,226.9C150,228.8,221.2,150.3,219,79.1c-.9-27.9,5.6-52.4,18.4-71.1C113.8,13.2,5.8,110.6,0,245.3c18.7-12.9,43.1-19.6,71.1-18.4Zm216.6,68.8c37.2-37.2,91.9-60.7,138.7-58.8,19.4.4,64.8-3.1,58.7-54.8A248.21,248.21,0,0,0,321.8,18.8c-51.7-6-55.4,39.2-54.8,58.7,1.5,47.1-21.6,101.6-58.7,138.7C171.2,253.5,117,276.8,69.6,275c-19.6-.5-64.9,3.1-58.7,55A247.64,247.64,0,0,0,174,493.1c51.8,6,55.6-39.1,55-58.7C227.5,387.3,250.6,332.8,287.7,295.7Z" class="fa-primary"/></svg>