<svg xmlns="http://www.w3.org/2000/svg" viewBox="0 0 640 512"><!-- Font Awesome Pro 5.15.4 by @fontawesome - https://fontawesome.com License - https://fontawesome.com/license (Commercial License) --><defs><style>.fa-secondary{opacity:.4}</style></defs><path d="M640 421.34v32a24 24 0 0 1-24 24H312a24 24 0 0 1-24-24v-32a24 24 0 0 1 24-24h304a24 24 0 0 1 24 24z" class="fa-secondary"/><path d="M29.7 464.66L7 442a24 24 0 0 1 0-33.9l154-154.76L7 98.6a24 24 0 0 1 0-33.9L29.7 42a24 24 0 0 1 33.94 0L258 236.37a24 24 0 0 1 0 33.94L63.64 464.66a24 24 0 0 1-33.94 0z" class="fa-primary"/></svg>