<svg xmlns="http://www.w3.org/2000/svg" viewBox="0 0 640 512"><!-- Font Awesome Pro 5.15.4 by @fontawesome - https://fontawesome.com License - https://fontawesome.com/license (Commercial License) --><defs><style>.fa-secondary{opacity:.4}</style></defs><path d="M320 240v64a16 16 0 0 1-16 16h-32a16 16 0 0 1-16-16v-16h-56v128h24a16 16 0 0 1 16 16v32a16 16 0 0 1-16 16H96a16 16 0 0 1-16-16v-32a16 16 0 0 1 16-16h24V288H64v16a16 16 0 0 1-16 16H16a16 16 0 0 1-16-16v-64a16 16 0 0 1 16-16h288a16 16 0 0 1 16 16z" class="fa-secondary"/><path d="M640 48v96a16 16 0 0 1-16 16h-32a16 16 0 0 1-16-16v-32h-88v304h40a16 16 0 0 1 16 16v32a16 16 0 0 1-16 16H368a16 16 0 0 1-16-16v-32a16 16 0 0 1 16-16h40V112h-88v32a16 16 0 0 1-16 16h-32a16 16 0 0 1-16-16V48a16 16 0 0 1 16-16h352a16 16 0 0 1 16 16z" class="fa-primary"/></svg>