<svg xmlns="http://www.w3.org/2000/svg" viewBox="0 0 512 512"><!-- Font Awesome Pro 5.15.4 by @fontawesome - https://fontawesome.com License - https://fontawesome.com/license (Commercial License) --><defs><style>.fa-secondary{opacity:.4}</style></defs><path d="M488 272H296a24 24 0 0 0-24 24v160a24 24 0 0 0 24 24h192a24 24 0 0 0 24-24V296a24 24 0 0 0-24-24zm-272 0H24a24 24 0 0 0-24 24v160a24 24 0 0 0 24 24h192a24 24 0 0 0 24-24V296a24 24 0 0 0-24-24z" class="fa-secondary"/><path d="M488 32H296a24 24 0 0 0-24 24v160a24 24 0 0 0 24 24h192a24 24 0 0 0 24-24V56a24 24 0 0 0-24-24zm-272 0H24A24 24 0 0 0 0 56v160a24 24 0 0 0 24 24h192a24 24 0 0 0 24-24V56a24 24 0 0 0-24-24z" class="fa-primary"/></svg>