<svg xmlns="http://www.w3.org/2000/svg" viewBox="0 0 640 512"><!-- Font Awesome Pro 5.15.4 by @fontawesome - https://fontawesome.com License - https://fontawesome.com/license (Commercial License) --><defs><style>.fa-secondary{opacity:.4}</style></defs><path d="M229.45 303.5l.46-2.61q-4.28.54-8.59 1.29c-40.27 7.08-73.4 26.26-92.56 50-4.21-49.87 31-95.87 82.8-105a102.8 102.8 0 0 1 28-1.07l10.23-57.89a43 43 0 0 1-25.11-31.69 42.49 42.49 0 0 1-.1-13 65.27 65.27 0 0 0 31.94 6.67l4.62-26.14c4.77-27.26 25.39-48.68 51.53-53.9l1.13-.21 1.28-.23h.13c3-.48 5.94-.92 8.92-1.34l1.75-.23c2.38-.32 4.76-.63 7.14-.91l2.57-.3q3.19-.36 6.39-.68l2.82-.26q3.18-.3 6.37-.55l2.59-.2c2.38-.17 4.76-.33 7.14-.46l1.71-.11q8.7-.47 17.39-.61l-.7-4c-4.93-28.09-26.7-50-54-54.34a453.62 453.62 0 0 0-292 51.33C9 70.46-3.89 98.44 1 126.54L32.82 306c15.39 87 156.86 151.86 219.9 140.79 8.52-1.5 17.93-4.81 27.77-9.6-34.29-39.84-58.83-89.61-51.04-133.69zM90.54 182.72a41.87 41.87 0 0 1-.09-13c11.64 6 26.73 8.33 42.5 5.56s29.15-10.12 38-19.71a42.58 42.58 0 0 1 4.38 12.26 43.06 43.06 0 0 1-84.82 14.92z" class="fa-secondary"/><path d="M606.8 121.05a452.59 452.59 0 0 0-291.69-51.33c-27.28 4.36-49 26.25-53.94 54.34L229.45 303.5c-15.37 87 95.18 196.19 158.14 207.27S591.85 457 607.22 370L639 190.54c4.88-28.1-8-56.08-32.2-69.49zm-272.95 96.76a40 40 0 1 1 74.64 25.25c-8.24-8.9-20.65-15.74-35.28-18.31s-28.64-.4-39.44 5.17a39 39 0 0 1 .08-12.11zm70.36 198.68c-55.62-9.78-93.42-59.24-88.9-112.85 20.58 25.53 56.15 46.15 99.38 53.76s83.73.37 111.81-16.6c-14.17 51.92-66.64 85.48-122.29 75.69zm134.26-162.67a39.44 39.44 0 0 1-4.06 11.39c-8.24-8.9-20.66-15.74-35.3-18.31s-28.64-.4-39.43 5.17a39 39 0 0 1 .09-12.1 40 40 0 0 1 78.7 13.85z" class="fa-primary"/></svg>