<svg xmlns="http://www.w3.org/2000/svg" viewBox="0 0 384 512"><!-- Font Awesome Pro 5.15.4 by @fontawesome - https://fontawesome.com License - https://fontawesome.com/license (Commercial License) --><defs><style>.fa-secondary{opacity:.4}</style></defs><path d="M384 328a24 24 0 0 1-24 24H224V208a16 16 0 0 0-16-16h-32a16 16 0 0 0-16 16v144H24a24 24 0 0 1-24-24c0-50.74 37.47-91.18 86-113.73L98.21 96H56a24 24 0 0 1-24-24V24A24 24 0 0 1 56 0h272a24 24 0 0 1 24 24v48a24 24 0 0 1-24 24h-42.21L298 214.27c48 22.31 86 62.55 86 113.73z" class="fa-secondary"/><path d="M224 208v248a8 8 0 0 1-.84 3.57l-24 48a8 8 0 0 1-14.32 0l-24-48A8 8 0 0 1 160 456V208a16 16 0 0 1 16-16h32a16 16 0 0 1 16 16z" class="fa-primary"/></svg>