<svg xmlns="http://www.w3.org/2000/svg" viewBox="0 0 576 512"><!-- Font Awesome Pro 5.15.4 by @fontawesome - https://fontawesome.com License - https://fontawesome.com/license (Commercial License) --><defs><style>.fa-secondary{opacity:.4}</style></defs><path d="M322 96.2l8.9-26.7a13 13 0 0 0-16.5-16.4l-75.3 25.1-35.5-71a13 13 0 0 0-23.3 0l-35.5 71-75.3-25.1a13 13 0 0 0-16.4 16.5l25.1 75.3-71 35.5a13 13 0 0 0 0 23.3l71 35.5-25.1 75.3A13.06 13.06 0 0 0 69.6 331l59.2-19.7c-.2-2.4-.7-4.7-.7-7.2a110.52 110.52 0 0 1 6.2-35.9 92.22 92.22 0 0 1-10.2-8.3 96.21 96.21 0 0 1 0-135.8c34.6-34.6 89.1-36.8 126.7-7.4A127.12 127.12 0 0 1 320 96c.7 0 1.3.2 2 .2zM128 192a63.4 63.4 0 0 0 21.1 47.1 112.14 112.14 0 0 1 44.8-37.2 127.52 127.52 0 0 1 31.9-64A63.13 63.13 0 0 0 192 128a64.06 64.06 0 0 0-64 64zm308 144h-57.7l17.3-64.9A12 12 0 0 0 384 256h-68a12.06 12.06 0 0 0-11.9 10.4l-16 120A12 12 0 0 0 300 400h59.3l-23 97.2a12 12 0 0 0 22.1 8.8l88-152a12 12 0 0 0-10.4-18z" class="fa-secondary"/><path d="M510.58 225.5A79.91 79.91 0 0 1 496 384h-30l8.11-14A44 44 0 0 0 436 304h-16l6.6-24.7a44 44 0 0 0-42.55-55.3H316a44.26 44.26 0 0 0-43.71 38.2l-16 120a10.82 10.82 0 0 1 0 1.8H240a80 80 0 0 1-15.8-158.4c0-.5-.2-1.1-.2-1.6a95.85 95.85 0 0 1 173.74-56 79 79 0 0 1 34.31-8 80 80 0 0 1 78.51 65.5z" class="fa-primary"/></svg>