<svg xmlns="http://www.w3.org/2000/svg" viewBox="0 0 352 512"><!-- Font Awesome Pro 5.15.4 by @fontawesome - https://fontawesome.com License - https://fontawesome.com/license (Commercial License) --><defs><style>.fa-secondary{opacity:.4}</style></defs><path d="M9.21,356.07a31.46,31.46,0,0,0,0,44.48l22.24,22.24a31.46,31.46,0,0,0,44.48,0L176,322.72,109.28,256ZM342.79,111.45,320.55,89.21a31.46,31.46,0,0,0-44.48,0L176,189.28,242.72,256,342.79,155.93a31.46,31.46,0,0,0,0-44.48Z" class="fa-secondary"/><path d="M342.79,356.07a31.46,31.46,0,0,1,0,44.48l-22.24,22.24a31.46,31.46,0,0,1-44.48,0L9.21,155.93a31.46,31.46,0,0,1,0-44.48L31.45,89.21a31.46,31.46,0,0,1,44.48,0Z" class="fa-primary"/></svg>