<svg xmlns="http://www.w3.org/2000/svg" viewBox="0 0 448 512"><!-- Font Awesome Pro 5.15.4 by @fontawesome - https://fontawesome.com License - https://fontawesome.com/license (Commercial License) --><defs><style>.fa-secondary{opacity:.4}</style></defs><path d="M400 32H48A48 48 0 0 0 0 80v352a48 48 0 0 0 48 48h352a48 48 0 0 0 48-48V80a48 48 0 0 0-48-48zm-54.4 289.1a12 12 0 0 1 0 17L306 377.6a12 12 0 0 1-17 0L224 312l-65.1 65.6a12 12 0 0 1-17 0L102.4 338a12 12 0 0 1 0-17l65.6-65-65.6-65.1a12 12 0 0 1 0-17l39.6-39.6a12 12 0 0 1 17 0l65 65.7 65.1-65.6a12 12 0 0 1 17 0l39.6 39.6a12 12 0 0 1 0 17L280 256z" class="fa-secondary"/><path d="M102.4 190.9a12 12 0 0 1 0-17l39.6-39.6a12 12 0 0 1 17 0l65 65.7 65.1-65.6a12 12 0 0 1 17 0l39.6 39.6a12 12 0 0 1 0 17L280 256l65.6 65.1a12 12 0 0 1 0 17L306 377.6a12 12 0 0 1-17 0L224 312l-65.1 65.6a12 12 0 0 1-17 0L102.4 338a12 12 0 0 1 0-17l65.6-65z" class="fa-primary"/></svg>