<svg xmlns="http://www.w3.org/2000/svg" viewBox="0 0 576 512"><!-- Font Awesome Pro 5.15.4 by @fontawesome - https://fontawesome.com License - https://fontawesome.com/license (Commercial License) --><defs><style>.fa-secondary{opacity:.4}</style></defs><path d="M553.49 231.8l-112-192A48.14 48.14 0 0 0 400 16H176a48.07 48.07 0 0 0-41.49 23.8l-112 192a48.09 48.09 0 0 0 0 48.4l112 192A48.07 48.07 0 0 0 176 496h224a48.13 48.13 0 0 0 41.5-23.8l112-192a48.14 48.14 0 0 0 0-48.4zM409.6 321a12 12 0 0 1 0 17l-39.38 39.8a12 12 0 0 1-17 0l-65.1-65.1L223 377.8a12 12 0 0 1-17 0l-39.6-39.6a12 12 0 0 1 0-17l65.09-65.1-65.05-65.1a12 12 0 0 1 0-17l39.5-39.7a12 12 0 0 1 17 0L288 199.4l65-65a12 12 0 0 1 17 0l39.69 39.5a12 12 0 0 1 0 17L344.61 256z" class="fa-secondary"/><path d="M409.6 321a12 12 0 0 1 0 17l-39.38 39.8a12 12 0 0 1-17 0l-65.1-65.1L223 377.8a12 12 0 0 1-17 0l-39.6-39.6a12 12 0 0 1 0-17l65.09-65.1-65.05-65.1a12 12 0 0 1 0-17l39.5-39.7a12 12 0 0 1 17 0L288 199.4l65-65a12 12 0 0 1 17 0l39.69 39.5a12 12 0 0 1 0 17L344.61 256z" class="fa-primary"/></svg>