<svg xmlns="http://www.w3.org/2000/svg" viewBox="0 0 512 512"><!-- Font Awesome Pro 5.15.4 by @fontawesome - https://fontawesome.com License - https://fontawesome.com/license (Commercial License) --><defs><style>.fa-secondary{opacity:.4}</style></defs><path d="M497.9 150.5L361.4 14.1A48 48 0 0 0 327.5 0H184.4a48 48 0 0 0-33.9 14.1L14.1 150.6A48 48 0 0 0 0 184.5v143.1a48 48 0 0 0 14.1 33.9l136.5 136.4a48 48 0 0 0 33.9 14.1h143.1a48 48 0 0 0 33.9-14.1l136.4-136.5a48 48 0 0 0 14.1-33.9V184.4a48 48 0 0 0-14.1-33.9zM377.6 321a12 12 0 0 1 0 17l-39.4 39.8a12 12 0 0 1-17 0l-65.1-65.1-65.1 65.1a12 12 0 0 1-17 0l-39.6-39.6a12 12 0 0 1 0-17l65.1-65.1-65.1-65.1a12 12 0 0 1 0-17l39.5-39.7a12 12 0 0 1 17 0l65.1 65.1 65-65a12 12 0 0 1 17 0l39.7 39.5a12 12 0 0 1 0 17L312.6 256z" class="fa-secondary"/><path d="M134.4 191a12 12 0 0 1 0-17l39.5-39.7a12 12 0 0 1 17 0l65.1 65.1 65-65a12 12 0 0 1 17 0l39.7 39.5a12 12 0 0 1 0 17L312.6 256l65 65a12 12 0 0 1 0 17l-39.4 39.8a12 12 0 0 1-17 0l-65.1-65.1-65.1 65.1a12 12 0 0 1-17 0l-39.6-39.6a12 12 0 0 1 0-17l65.1-65.1z" class="fa-primary"/></svg>