<svg xmlns="http://www.w3.org/2000/svg" viewBox="0 0 352 512"><!-- Font Awesome Pro 5.15.4 by @fontawesome - https://fontawesome.com License - https://fontawesome.com/license (Commercial License) --><defs><style>.fa-secondary{opacity:.4}</style></defs><path d="M205.22 22.09c-7.94-28.78-49.44-30.12-58.44 0C100 179.85 0 222.72 0 333.91 0 432.35 78.72 512 176 512s176-79.65 176-178.09c0-111.75-99.79-153.34-146.78-311.82zM176 448A112.14 112.14 0 0 1 64 336a16 16 0 0 1 32 0 80.09 80.09 0 0 0 80 80 16 16 0 0 1 0 32z" class="fa-secondary"/><path d="M176 448A112.14 112.14 0 0 1 64 336a16 16 0 0 1 32 0 80.09 80.09 0 0 0 80 80 16 16 0 0 1 0 32z" class="fa-primary"/></svg>