<svg xmlns="http://www.w3.org/2000/svg" viewBox="0 0 640 512"><!-- Font Awesome Pro 5.15.4 by @fontawesome - https://fontawesome.com License - https://fontawesome.com/license (Commercial License) --><defs><style>.fa-secondary{opacity:.4}</style></defs><path d="M162.72 255.78L436.4 467.3A174 174 0 0 1 320 512c-97.28 0-176-79.65-176-178.09 0-29.78 7.31-54.63 18.72-78.13zM495.2 351c.52-5.61.8-11.3.8-17 0-111.75-99.79-153.34-146.78-311.82-7.94-28.78-49.44-30.12-58.44 0-15.5 52.3-36.86 92-58.48 125.68z" class="fa-secondary"/><path d="M636.64 480.55L617 505.82a16 16 0 0 1-22.46 2.81L6.18 53.9a16 16 0 0 1-2.81-22.45L23 6.18a16 16 0 0 1 22.47-2.81L633.82 458.1a16 16 0 0 1 2.82 22.45z" class="fa-primary"/></svg>