<svg xmlns="http://www.w3.org/2000/svg" viewBox="0 0 512 512"><!-- Font Awesome Pro 5.15.4 by @fontawesome - https://fontawesome.com License - https://fontawesome.com/license (Commercial License) --><defs><style>.fa-secondary{opacity:.4}</style></defs><path d="M512 284.08c0 76.81-32.54 146.14-80 195.92v16a16 16 0 0 1-16 16h-32a16 16 0 0 1-16-16v-16h-32v16a16 16 0 0 1-16 16h-32a16 16 0 0 1-16-16v-16h-32v16a16 16 0 0 1-16 16h-32a16 16 0 0 1-16-16v-16h-32v16a16 16 0 0 1-16 16H96a16 16 0 0 1-16-16v-16C32.54 430.22 0 360.89 0 284.08a286.45 286.45 0 0 1 37.5-142.53C53.67 113.26 64 80.62 64 46.09V17.14C64 7.67 71.16 0 80 0h32a16 16 0 0 1 16 16v48c0 32-15.23 74.85-34.93 109.31A223.34 223.34 0 0 0 64 284.08c0 41.12 12.75 82.49 35.8 118.12 5.72 8.84 16 13.79 26.48 13.79h259.44c10.53 0 20.76-4.94 26.48-13.79 23.05-35.63 35.8-77 35.8-118.12a223.37 223.37 0 0 0-29.06-110.77C399.23 138.85 384 96 384 64V16a16 16 0 0 1 16-16h32c8.84 0 16 7.67 16 17.14v29c0 34.52 10.33 67.17 26.5 95.45A286.51 286.51 0 0 1 512 284.08z" class="fa-secondary"/><path d="M278.32 96h-44.64a16 16 0 0 0-15.92 17.59l12.8 128A16 16 0 0 0 246.48 256h19a16 16 0 0 0 15.92-14.41l12.8-128A16 16 0 0 0 278.32 96zM256 288a32 32 0 1 0 32 32 32 32 0 0 0-32-32z" class="fa-primary"/></svg>