<svg xmlns="http://www.w3.org/2000/svg" viewBox="0 0 512 512"><!-- Font Awesome Pro 5.15.4 by @fontawesome - https://fontawesome.com License - https://fontawesome.com/license (Commercial License) --><defs><style>.fa-secondary{opacity:.4}</style></defs><path d="M256 128a128 128 0 1 0 128 128 128 128 0 0 0-128-128zm-72 152a24 24 0 1 1 24-24 24 24 0 0 1-24 24zm72 72a24 24 0 1 1 24-24 24 24 0 0 1-24 24zm0-144a24 24 0 1 1 24-24 24 24 0 0 1-24 24zm72 72a24 24 0 1 1 24-24 24 24 0 0 1-24 24z" class="fa-secondary"/><path d="M480 192h-9.4a222.73 222.73 0 0 0-17.53-42.56l6.58-6.58a32 32 0 0 0 0-45.25L414.4 52.35a32 32 0 0 0-45.25 0l-6.58 6.58A221.82 221.82 0 0 0 320 41.4V32a32 32 0 0 0-32-32h-64a32 32 0 0 0-32 32v9.4a222.73 222.73 0 0 0-42.56 17.53l-6.58-6.58a32 32 0 0 0-45.25 0L52.35 97.61a32 32 0 0 0 0 45.25l6.58 6.58A222.64 222.64 0 0 0 41.4 192H32a32 32 0 0 0-32 32v64a32 32 0 0 0 32 32h9.4a222.73 222.73 0 0 0 17.53 42.56l-6.58 6.58a32 32 0 0 0 0 45.25l45.25 45.27a32 32 0 0 0 45.25 0l6.58-6.58A221.82 221.82 0 0 0 192 470.61V480a32 32 0 0 0 32 32h64a32 32 0 0 0 32-32v-9.4a222.73 222.73 0 0 0 42.56-17.53l6.58 6.58a32 32 0 0 0 45.25 0l45.25-45.26a32 32 0 0 0 0-45.25l-6.58-6.58A221.82 221.82 0 0 0 470.6 320h9.4a32 32 0 0 0 32-32v-64a32 32 0 0 0-32-32zM256 384a128 128 0 1 1 128-128 128 128 0 0 1-128 128z" class="fa-primary"/></svg>