<svg xmlns="http://www.w3.org/2000/svg" viewBox="0 0 512 512"><!-- Font Awesome Pro 5.15.4 by @fontawesome - https://fontawesome.com License - https://fontawesome.com/license (Commercial License) --><defs><style>.fa-secondary{opacity:.4}</style></defs><path d="M189.89 416a145.47 145.47 0 0 1-61.57-61.28L191 334.36a79.77 79.77 0 0 0 41 29.57V416h48v-52.07a79.77 79.77 0 0 0 41-29.57l62.68 20.36A145.47 145.47 0 0 1 322.11 416h77A191.26 191.26 0 0 0 448 288c0-106-86-192-192-192S64 182 64 288a191.26 191.26 0 0 0 48.91 128zM256 320a32 32 0 1 1 32-32 32 32 0 0 1-32 32zm102.87-132.75A143 143 0 0 1 400 288a146.93 146.93 0 0 1-1.52 21.05l-62.55-20.32c0-.25.07-.48.07-.73a79.28 79.28 0 0 0-15.88-47.41zM256 144a143.36 143.36 0 0 1 64.08 15l-38.86 53.51a73.73 73.73 0 0 0-50.44 0L191.92 159A143.36 143.36 0 0 1 256 144zm-102.87 43.25l38.75 53.34A79.28 79.28 0 0 0 176 288c0 .25.07.48.07.72L113.52 309a145.25 145.25 0 0 1-1.52-21 143 143 0 0 1 41.13-100.75z" class="fa-secondary"/><path d="M480 416h-2.61A253.53 253.53 0 0 0 512 288c0-141.38-114.62-256-256-256S0 146.62 0 288a253.53 253.53 0 0 0 34.61 128H32a32 32 0 0 0 0 64h448a32 32 0 0 0 0-64zm-81.3 0H113.3A191 191 0 0 1 64 288c0-105.87 86.13-192 192-192s192 86.13 192 192a191 191 0 0 1-49.3 128zM256 256a32 32 0 1 0 32 32 32 32 0 0 0-32-32z" class="fa-primary"/></svg>