<svg xmlns="http://www.w3.org/2000/svg" viewBox="0 0 496 512"><!-- Font Awesome Pro 5.15.4 by @fontawesome - https://fontawesome.com License - https://fontawesome.com/license (Commercial License) --><defs><style>.fa-secondary{opacity:.4}</style></defs><path d="M248,8C111,8,0,119,0,256S111,504,248,504,496,393,496,256,385,8,248,8ZM118.8,248.3,152.4,208l-33.6-40.3c-8.6-10.3,3.8-24.9,15.4-18l80,48a12,12,0,0,1,0,20.6l-80,48c-11.5,6.8-24-7.6-15.4-18ZM353.5,415.1C327.6,404,289.1,397.7,248,397.7s-79.6,6.3-105.5,17.4c-9.8,4.2-19.4-7-17.7-20.4C132.7,331.8,196.1,288,248,288s115.3,43.8,123.2,106.7C372.9,408.3,363.2,419.3,353.5,415.1Zm8.3-148.8-80-48a12.07,12.07,0,0,1,0-20.6l80-48c11.6-6.9,24,7.7,15.4,18L343.6,208l33.6,40.3c8.7,10.4-3.9,24.8-15.4,18Z" class="fa-secondary"/><path d="M214.2,197.7l-80-48c-11.6-6.9-24,7.7-15.4,18L152.4,208l-33.6,40.3c-8.6,10.4,3.9,24.8,15.4,18l80-48a12,12,0,0,0,0-20.6Zm163,50.6L343.6,208l33.6-40.3c8.6-10.3-3.8-24.9-15.4-18l-80,48a12.07,12.07,0,0,0,0,20.6l80,48C373.3,273.1,385.9,258.7,377.2,248.3Z" class="fa-primary"/></svg>