<svg xmlns="http://www.w3.org/2000/svg" viewBox="0 0 640 512"><!-- Font Awesome Pro 5.15.4 by @fontawesome - https://fontawesome.com License - https://fontawesome.com/license (Commercial License) --><defs><style>.fa-secondary{opacity:.4}</style></defs><path d="M320 145.53l-17.77 29.62h35.45zm-90.07 150.56l-9.19 15.41h36.85l-18.46-30.82zm189.32-95.56h-36.84l18.45 30.82zm-161.7 0h-36.81l18.44 30.8zM96 48v416h448V48zm349.22 278.15a21.24 21.24 0 0 1-18.48 10.72h-59.45l-29.13 48.7a21.09 21.09 0 0 1-16.77 10.32 12.92 12.92 0 0 1-1.39.05 20.81 20.81 0 0 1-18-10.22l-29.22-48.88h-59.54a19.53 19.53 0 0 1-2.16-.11 21.13 21.13 0 0 1-15.94-31.87L224.35 256 195 207a20.71 20.71 0 0 1-.89-19.9c.2-.42.42-.84.66-1.25s.49-.82.75-1.21a21.19 21.19 0 0 1 17.73-9.5h59.45l29.13-48.71a21.13 21.13 0 0 1 18.22-10.37A20.75 20.75 0 0 1 338 126.29l29.25 48.85h59.54a21.12 21.12 0 0 1 18.1 32l-14.62 24.43L415.65 256 445 305a20.69 20.69 0 0 1 .22 21.15zm-62.78-14.62h36.86l-18.45-30.8zm-62.39 55l17.72-29.64h-35.46zm32.81-166h-65.79l-16.58 27.76L253.91 256l16.61 27.75 16.61 27.75h65.79l33.17-55.5z" class="fa-secondary"/><path d="M48 0C21.49 0 0 14.33 0 32v448c0 17.67 21.49 32 48 32s48-14.33 48-32V32C96 14.33 74.51 0 48 0zm544 0c-26.51 0-48 14.33-48 32v448c0 17.67 21.49 32 48 32s48-14.33 48-32V32c0-17.67-21.49-32-48-32zM415.63 256l29.24-48.86a21.12 21.12 0 0 0-18.1-32h-59.52L338 126.29a20.75 20.75 0 0 0-17.95-10.23 21.1 21.1 0 0 0-18.21 10.37l-29.14 48.71h-59.45a21.2 21.2 0 0 0-18.48 10.71A20.72 20.72 0 0 0 195 207l29.34 49-29.21 48.86a21.11 21.11 0 0 0 18.1 32h59.57l29.25 48.88a20.77 20.77 0 0 0 17.95 10.2 21.13 21.13 0 0 0 18.16-10.37l29.13-48.7h59.45a21.24 21.24 0 0 0 18.48-10.72A20.69 20.69 0 0 0 445 305zm3.63-55.5l-18.4 30.82-18.45-30.82zm-99.26-55l17.68 29.62h-35.45zm-99.27 55h36.82l-18.37 30.8zm0 111l18.4-30.82 18.46 30.82zm99.32 55l-17.74-29.64h35.46zm32.87-55h-65.79L253.91 256l33.16-55.52h65.79L386.09 256zm29.53 0l18.41-30.8 18.45 30.8z" class="fa-primary"/></svg>