<svg xmlns="http://www.w3.org/2000/svg" viewBox="0 0 512 512"><!-- Font Awesome Pro 5.15.4 by @fontawesome - https://fontawesome.com License - https://fontawesome.com/license (Commercial License) --><defs><style>.fa-secondary{opacity:.4}</style></defs><path d="M64 192h64v-64H64zm160 0h64v-64h-64zM64 496a16 16 0 0 0 16 16h32a16 16 0 0 0 16-16V256H64zm320 0a16 16 0 0 0 16 16h32a16 16 0 0 0 16-16V256h-64zm0-368v64h64v-64z" class="fa-secondary"/><path d="M376.45 32h-240.9A303.17 303.17 0 0 1 0 0v96a32 32 0 0 0 32 32h448a32 32 0 0 0 32-32V0a303.17 303.17 0 0 1-135.55 32zM496 192H16a16 16 0 0 0-16 16v32a16 16 0 0 0 16 16h480a16 16 0 0 0 16-16v-32a16 16 0 0 0-16-16z" class="fa-primary"/></svg>