<svg xmlns="http://www.w3.org/2000/svg" viewBox="0 0 512 512"><!-- Font Awesome Pro 5.15.4 by @fontawesome - https://fontawesome.com License - https://fontawesome.com/license (Commercial License) --><defs><style>.fa-secondary{opacity:.4}</style></defs><path d="M393.42 96H11.9c9.64 34.16 24.49 62.05 42.71 85.3h349.78c-14.07-23.14-20.68-50.22-10.97-85.3zm36.31 117.3H84.64c45.05 40.43 101.1 63.6 150.27 85.3h269.61c-14.52-32.19-47.7-56.86-74.79-85.3zm-.62-188.1c7.4-10.6 0-25.2-12.9-25.2h-400A16.2 16.2 0 0 0 0 16.5 369.9 369.9 0 0 0 4.76 64h401.12a302.21 302.21 0 0 1 23.23-38.8zm-97.4 463.9A16 16 0 0 0 346 512h27.4a32.82 32.82 0 0 0 21.7-8.3c22.58-20.2 41.3-38.69 56.63-55.7H347.4a248.42 248.42 0 0 1-15.69 41.1zM512 330.6H299c33 20.58 54.66 45.71 53.54 85.4H478c25.13-34.44 34.53-62 34-85.4z" class="fa-secondary"/><path d="M405.88 64H4.76a302.42 302.42 0 0 0 7.14 32h381.52a181.86 181.86 0 0 1 12.46-32zm-1.49 117.3H54.61a250.81 250.81 0 0 0 30 32h345.12c-9.56-10.03-18.36-20.53-25.34-32zM347.4 448h104.34A406.12 406.12 0 0 0 478 416H352.51a135.56 135.56 0 0 1-5.11 32zm157.12-149.4H234.91c23.6 10.42 45.61 20.5 64.06 32H512a81.4 81.4 0 0 0-7.48-32z" class="fa-primary"/></svg>