<svg xmlns="http://www.w3.org/2000/svg" viewBox="0 0 640 512"><!-- Font Awesome Pro 5.15.4 by @fontawesome - https://fontawesome.com License - https://fontawesome.com/license (Commercial License) --><defs><style>.fa-secondary{opacity:.4}</style></defs><path d="M528 336a88 88 0 1 0 88 88 88 88 0 0 0-88-88zm0 112a24 24 0 1 1 24-24 24 24 0 0 1-24 24zM330 292h-7.14A152.15 152.15 0 0 0 311 263.28l5.06-5.06a22 22 0 0 0 0-31.11L284.9 196a22 22 0 0 0-31.11 0l-5.06 5.06A152.15 152.15 0 0 0 220 189.15V182a22 22 0 0 0-22-22h-44a22 22 0 0 0-22 22v7.14a152.43 152.43 0 0 0-28.73 11.91l-5-5.05a22 22 0 0 0-31.11 0L36 227.1a22 22 0 0 0 0 31.11l5.06 5.06A152.15 152.15 0 0 0 29.15 292H22a22 22 0 0 0-22 22v44a22 22 0 0 0 22 22h7.14a152.43 152.43 0 0 0 11.91 28.73l-5 5a22 22 0 0 0 0 31.11L67.1 476a22 22 0 0 0 31.11 0l5.06-5.06A152.15 152.15 0 0 0 132 482.85V490a22 22 0 0 0 22 22h44a22 22 0 0 0 22-22v-7.14A152.15 152.15 0 0 0 248.72 471l5.06 5.06a22 22 0 0 0 31.11 0L316 444.9a22 22 0 0 0 0-31.11l-5.06-5.06A152.15 152.15 0 0 0 322.85 380H330a22 22 0 0 0 22-22v-44a22 22 0 0 0-22-22zM176 416a80 80 0 1 1 80-80 80 80 0 0 1-80 80z" class="fa-secondary"/><path d="M640 192v50.76a32 32 0 0 1-9.37 22.63l-50.82 50.81A118.61 118.61 0 0 0 528 304c-39.14 0-73.55 19-95.46 48H352v-38a22 22 0 0 0-22-22h-7.14A152.24 152.24 0 0 0 311 263.27l5.06-5.06a22 22 0 0 0 0-31.11L284.9 196a22 22 0 0 0-31.11 0l-5.06 5.06A151.54 151.54 0 0 0 220 189.14V182a22 22 0 0 0-22-22h110l-41.11-96H160v96h-6a22 22 0 0 0-22 22v7.14A152.15 152.15 0 0 0 103.28 201l-5.06-5a22.57 22.57 0 0 0-2.22-1.93V48a48.05 48.05 0 0 1 48-48h133.45a47.91 47.91 0 0 1 44.13 29.14L377.67 160H480v-40.2a128.16 128.16 0 0 1 29.5-81.72 16.28 16.28 0 0 1 24.7-.78l21.63 24.17c4.87 5.43 5.74 13.69 1.32 19.49A64.07 64.07 0 0 0 544 119.8V160h64a32 32 0 0 1 32 32z" class="fa-primary"/></svg>