<svg xmlns="http://www.w3.org/2000/svg" viewBox="0 0 512 512"><!-- Font Awesome Pro 5.15.4 by @fontawesome - https://fontawesome.com License - https://fontawesome.com/license (Commercial License) --><defs><style>.fa-secondary{opacity:.4}</style></defs><path d="M337 128H175l-25.4 64h212.77zm63.42 160H111.5l-25.29 64h339.58z" class="fa-secondary"/><path d="M289.73 10.08A16 16 0 0 0 274.86 0h-37.72a16 16 0 0 0-14.87 10.08L175.35 128h161.3zM362.12 192H149.88l-38.21 96h288.65zM496 448h-32l-38.21-96H86.21L48 448H16a16 16 0 0 0-16 16v32a16 16 0 0 0 16 16h480a16 16 0 0 0 16-16v-32a16 16 0 0 0-16-16z" class="fa-primary"/></svg>