<svg xmlns="http://www.w3.org/2000/svg" viewBox="0 0 384 512"><!-- Font Awesome Pro 5.15.4 by @fontawesome - https://fontawesome.com License - https://fontawesome.com/license (Commercial License) --><defs><style>.fa-secondary{opacity:.4}</style></defs><path d="M192 320a48 48 0 1 0 48 48 48 48 0 0 0-48-48zm0-160a48 48 0 1 0-48-48 48 48 0 0 0 48 48zm0 32a48 48 0 1 0 48 48 48 48 0 0 0-48-48z" class="fa-secondary"/><path d="M384 192h-64v-37.88c37.2-13.22 64-48.38 64-90.12h-64V32a32 32 0 0 0-32-32H96a32 32 0 0 0-32 32v32H0c0 41.74 26.8 76.9 64 90.12V192H0c0 41.74 26.8 76.9 64 90.12V320H0c0 42.79 28.19 78.61 66.86 91v-.15a128 128 0 0 0 250.34 0v.15c38.61-12.4 66.8-48.22 66.8-91h-64v-37.88c37.2-13.22 64-48.38 64-90.12zM192 416a48 48 0 1 1 48-48 48 48 0 0 1-48 48zm0-128a48 48 0 1 1 48-48 48 48 0 0 1-48 48zm0-128a48 48 0 1 1 48-48 48 48 0 0 1-48 48z" class="fa-primary"/></svg>