<svg xmlns="http://www.w3.org/2000/svg" viewBox="0 0 512 512"><!-- Font Awesome Pro 5.15.4 by @fontawesome - https://fontawesome.com License - https://fontawesome.com/license (Commercial License) --><defs><style>.fa-secondary{opacity:.4}</style></defs><path d="M359.425,276.48438a31.98517,31.98517,0,0,0,45.06388,4.09375A31.46789,31.46789,0,0,0,415.57518,256h-73.221ZM183.9978,288H328.0022V256H183.9978Zm80.00244,128h64.002V384h-64.002ZM107.51109,280.57813a32.00633,32.00633,0,0,0,45.06388-4.09375L169.6458,256h-73.221A31.46789,31.46789,0,0,0,107.51109,280.57813ZM264.00024,352h64.002V320h-64.002Zm-80.00244,0h64.002V320h-64.002ZM509.7929,140.416l-29.78606-12.41993-12.42226-29.7832a3.99158,3.99158,0,0,0-7.15256,0l-12.41835,29.7832-29.79,12.41993a4.00079,4.00079,0,0,0,0,7.15625l29.79,12.41992,12.41835,29.7832a3.99158,3.99158,0,0,0,7.15256,0l12.42226-29.7832,29.78606-12.41992a4.004,4.004,0,0,0,0-7.15625ZM183.9978,416h64.002V384h-64.002ZM63.99414,32.002,51.57189,2.21875a3.99473,3.99473,0,0,0-7.15647,0L31.99707,32.002,2.211,44.42188a3.99921,3.99921,0,0,0,0,7.15429L31.99707,63.99609,44.41542,93.78125a3.99473,3.99473,0,0,0,7.15647,0L63.99414,63.99609,93.7763,51.57617a3.99921,3.99921,0,0,0,0-7.15429Z" class="fa-secondary"/><path d="M384.00391,448H127.99609a32.00082,32.00082,0,0,0-32.001,32v32H416.00488V480A32.00082,32.00082,0,0,0,384.00391,448ZM255.96094,96l.01953-.00195L256,96a48,48,0,1,0,0-96l-.01953.002L255.96094,0a48,48,0,1,0,0,96ZM338.19,151.03125A63.84344,63.84344,0,0,0,289.01663,128H222.98337a63.78806,63.78806,0,0,0-49.15775,23.03125L113.01517,224H398.98874Z" class="fa-primary"/></svg>