<svg xmlns="http://www.w3.org/2000/svg" viewBox="0 0 512 512"><!-- Font Awesome Pro 5.15.4 by @fontawesome - https://fontawesome.com License - https://fontawesome.com/license (Commercial License) --><defs><style>.fa-secondary{opacity:.4}</style></defs><path d="M509.789,44.43164,480.00684,32.01172,467.58458,2.22656a3.99473,3.99473,0,0,0-7.15647,0L448.00586,32.01172,418.2237,44.43164a3.99921,3.99921,0,0,0,0,7.1543l29.78216,12.41992L460.42811,93.791a3.9963,3.9963,0,0,0,7.15647,0l12.42226-29.78516L509.789,51.58594a3.99921,3.99921,0,0,0,0-7.1543ZM63.99023,96,51.57189,66.21484a3.99473,3.99473,0,0,0-7.15647,0L31.99316,96,2.211,108.41992a3.99921,3.99921,0,0,0,0,7.1543l29.78216,12.41992L44.41542,157.7793a3.9963,3.9963,0,0,0,7.15647,0l12.41834-29.78516L93.7763,115.57422a3.99921,3.99921,0,0,0,0-7.1543Z" class="fa-secondary"/><path d="M255.957,96l.01953-.00195L255.99609,96a48,48,0,1,0,0-96l-.01953.002L255.957,0a48,48,0,1,0,0,96ZM384,448H327.99829V238.7793l31.42283,37.70508a31.9958,31.9958,0,0,0,49.15776-40.96875L338.1861,151.03125A63.84343,63.84343,0,0,0,289.01273,128H222.97946a63.78806,63.78806,0,0,0-49.15775,23.03125l-70.4084,84.48438a31.99579,31.99579,0,0,0,49.15775,40.96875L183.9939,238.7793V448H127.99219a31.99832,31.99832,0,0,0-32.001,32v32H416.001V480A31.99832,31.99832,0,0,0,384,448Zm-120.00366,0H247.99585V320h16.00049Z" class="fa-primary"/></svg>