<svg xmlns="http://www.w3.org/2000/svg" viewBox="0 0 384 512"><!-- Font Awesome Pro 5.15.4 by @fontawesome - https://fontawesome.com License - https://fontawesome.com/license (Commercial License) --><defs><style>.fa-secondary{opacity:.4}</style></defs><path d="M224 240a80 80 0 1 1-80-80 80.11 80.11 0 0 1 80 80z" class="fa-secondary"/><path d="M372 0h-79a12 12 0 0 0-8.5 20.5l16.9 16.9-80.7 80.7A144 144 0 1 0 112 380.4V408H76a12 12 0 0 0-12 12v40a12 12 0 0 0 12 12h36v28a12 12 0 0 0 12 12h40a12 12 0 0 0 12-12v-28h36a12 12 0 0 0 12-12v-40a12 12 0 0 0-12-12h-36v-27.6a144 144 0 0 0 89.9-217.1l80.7-80.7 16.9 16.9A12 12 0 0 0 384 91V12a12 12 0 0 0-12-12zM144 320a80 80 0 1 1 80-80 80 80 0 0 1-80 80z" class="fa-primary"/></svg>