<svg xmlns="http://www.w3.org/2000/svg" viewBox="0 0 576 512"><!-- Font Awesome Pro 5.15.4 by @fontawesome - https://fontawesome.com License - https://fontawesome.com/license (Commercial License) --><defs><style>.fa-secondary{opacity:.4}</style></defs><path d="M0 128v128h96V32a96 96 0 0 0-96 96zm0 320a32 32 0 0 0 32 32h64V288H0zm352-112a16 16 0 0 1-16 16h-96a16 16 0 0 1-16-16v-48h-64v192h256V288h-64zM480 32v224h96V128a96 96 0 0 0-96-96zm0 448h64a32 32 0 0 0 32-32V288h-96zM160 256h64v-48a16 16 0 0 1 16-16h96a16 16 0 0 1 16 16v48h64V32H160z" class="fa-secondary"/><path d="M96 256h64V32H96zm0 224h64V288H96zm320 0h64V288h-64zm0-448v224h64V32zm-80 160h-96a16 16 0 0 0-16 16v128a16 16 0 0 0 16 16h96a16 16 0 0 0 16-16V208a16 16 0 0 0-16-16zm-32 112a16 16 0 0 1-32 0v-64a16 16 0 0 1 32 0z" class="fa-primary"/></svg>