<svg xmlns="http://www.w3.org/2000/svg" viewBox="0 0 640 512"><!-- Font Awesome Pro 5.15.4 by @fontawesome - https://fontawesome.com License - https://fontawesome.com/license (Commercial License) --><defs><style>.fa-secondary{opacity:.4}</style></defs><path d="M224 440.46V416h-64v24.45l-30.29 48.4A16 16 0 0 0 144 512h96a16 16 0 0 0 14.31-23.16zm410.31-62L554.42 288h30.63a22.73 22.73 0 0 0 20.78-13 22 22 0 0 0-3.28-24l-78.13-91h28.89a22.69 22.69 0 0 0 20.86-13.61 22.27 22.27 0 0 0-4.24-24.08L459.66 4.84c-6-6.45-17.28-6.45-23.32 0L341.28 106.1c11.09 15.37 14 35.3 6.34 53a54.48 54.48 0 0 1-18.26 22.68l41.54 48.32a54.56 54.56 0 0 1-6.07 76.9q-2 1.68-4.1 3.18l41.62 47.15C411 367.11 415.69 371.46 416 384v56.45l-30.29 48.4A16 16 0 0 0 400 512h96a16 16 0 0 0 14.31-23.16L480 440.46V416h136.87a23.19 23.19 0 0 0 21-13.25 22.15 22.15 0 0 0-3.56-24.25z" class="fa-secondary"/><path d="M381.86 402.76a23.19 23.19 0 0 1-21 13.25H23.13a23.17 23.17 0 0 1-21-13.25 22.09 22.09 0 0 1 3.56-24.26L85.58 288H55a22.72 22.72 0 0 1-20.83-13.08 22.06 22.06 0 0 1 3.27-24L115.58 160H86.69a22.67 22.67 0 0 1-20.87-13.6 22.25 22.25 0 0 1 4.24-24.08L180.34 4.84c6-6.45 17.32-6.45 23.32 0l110.27 117.47a22.27 22.27 0 0 1 4.24 24.08A22.69 22.69 0 0 1 297.31 160h-28.89l78.13 91a22 22 0 0 1 3.28 24 22.73 22.73 0 0 1-20.78 13h-30.63l79.88 90.5a22.12 22.12 0 0 1 3.56 24.26z" class="fa-primary"/></svg>