<svg xmlns="http://www.w3.org/2000/svg" viewBox="0 0 448 512"><!-- Font Awesome Pro 5.15.4 by @fontawesome - https://fontawesome.com License - https://fontawesome.com/license (Commercial License) --><defs><style>.fa-secondary{opacity:.4}</style></defs><path d="M160 312a24 24 0 1 1 24-24 23.94 23.94 0 0 1-24 24z" class="fa-secondary"/><path d="M439.63 455.57L349.83 352h36c25.6 0 39.5-29.2 23.2-48.5L314.13 192h44.8c21.3 0 32.9-22.5 19.3-37.29L243.33 8.18c-10-10.9-28.6-10.9-38.6 0l-134.8 146.5c-13.6 14.79-2 37.29 19.3 37.29H134l-95 111.5c-16.3 19.3-2.4 48.5 23.2 48.5h36L8.43 455.57c-19 21.9-3.8 56.4 24.7 56.4h381.7c28.6.03 43.7-34.59 24.8-56.4zM160 312a24 24 0 1 1 24-24 23.94 23.94 0 0 1-24 24zm72-152a24 24 0 1 1 24 24 23.95 23.95 0 0 1-24-24zm56 280a24 24 0 1 1 24-24 23.94 23.94 0 0 1-24 24z" class="fa-primary"/></svg>