<svg xmlns="http://www.w3.org/2000/svg" viewBox="0 0 448 512"><!-- Font Awesome Pro 5.15.4 by @fontawesome - https://fontawesome.com License - https://fontawesome.com/license (Commercial License) --><defs><style>.fa-secondary{opacity:.4}</style></defs><path d="M197.33 106.7L144 80l53.3-26.7L224 0l26.7 53.3L304 80l-53.3 26.7L224 160z" class="fa-secondary"/><path d="M439.63 455.6L349.83 352h36c25.6 0 39.5-26.3 23.2-43.5L262.83 154 224 208l-38.8-54L39 308.5C22.7 325.7 36.6 352 62.2 352h36L8.43 455.6c-19 21.9-3.8 56.4 24.7 56.4h381.7c28.6 0 43.7-34.6 24.8-56.4zM160 312a24 24 0 1 1 24-24 23.94 23.94 0 0 1-24 24zm128 128a24 24 0 1 1 24-24 23.94 23.94 0 0 1-24 24z" class="fa-primary"/></svg>