<svg xmlns="http://www.w3.org/2000/svg" viewBox="0 0 640 512"><!-- Font Awesome Pro 5.15.4 by @fontawesome - https://fontawesome.com License - https://fontawesome.com/license (Commercial License) --><defs><style>.fa-secondary{opacity:.4}</style></defs><path d="M120 304a88 88 0 1 0 88 88 88 88 0 0 0-88-88zm256 0a88 88 0 1 0 88 88 88 88 0 0 0-88-88z" class="fa-secondary"/><path d="M598.6 393.4a77.12 77.12 0 0 1-22.6-54.6V237.2a77.12 77.12 0 0 1 22.6-54.6l36.7-36.7a16.06 16.06 0 0 0 0-22.6l-22.6-22.6a16.06 16.06 0 0 0-22.6 0l-36.7 36.7a141.23 141.23 0 0 0-41.4 99.9V288h-32v-64a32 32 0 0 0-32-32h-45.9l-82-136.7A48.17 48.17 0 0 0 278.9 32H168a40 40 0 0 0-40 40v120H32a32 32 0 0 0-32 32v96a31.87 31.87 0 0 0 10.2 23.43 120.13 120.13 0 0 1 223 8.57h29.6a120.12 120.12 0 0 1 226.4 0h24.1c3.1 32.6 16.7 63.3 40.1 86.6l36.7 36.7a16.06 16.06 0 0 0 22.6 0l22.6-22.6a16.06 16.06 0 0 0 0-22.6zM192 192V96h77.9l57.6 96z" class="fa-primary"/></svg>