<svg xmlns="http://www.w3.org/2000/svg" viewBox="0 0 640 512"><!-- Font Awesome Pro 5.15.4 by @fontawesome - https://fontawesome.com License - https://fontawesome.com/license (Commercial License) --><defs><style>.fa-secondary{opacity:.4}</style></defs><path d="M592 352h-5.2a110.19 110.19 0 0 0-8.65-20.89l3.67-3.67a16 16 0 0 0 0-22.63l-22.63-22.63a16 16 0 0 0-22.63 0l-3.67 3.67A110.45 110.45 0 0 0 512 277.2V272a16 16 0 0 0-16-16h-32a16 16 0 0 0-16 16v5.2a110.19 110.19 0 0 0-20.89 8.65l-3.67-3.67a16 16 0 0 0-22.63 0l-22.63 22.63a16 16 0 0 0 0 22.63l3.67 3.67A110.45 110.45 0 0 0 373.2 352H368a16 16 0 0 0-16 16v32a16 16 0 0 0 16 16h5.2a110.19 110.19 0 0 0 8.65 20.89l-3.67 3.67a16 16 0 0 0 0 22.63l22.63 22.63a16 16 0 0 0 22.63 0l3.67-3.67A110.94 110.94 0 0 0 448 490.8v5.2a16 16 0 0 0 16 16h32a16 16 0 0 0 16-16v-5.2a110.56 110.56 0 0 0 20.9-8.65l3.67 3.67a16 16 0 0 0 22.63 0l22.63-22.63a16 16 0 0 0 0-22.63l-3.67-3.67a110.45 110.45 0 0 0 8.66-20.89H592a16 16 0 0 0 16-16v-32a16 16 0 0 0-16-16zm-112 80a48 48 0 1 1 48-48 48 48 0 0 1-48 48zm-208-80h-5.2a110.19 110.19 0 0 0-8.65-20.89l3.67-3.67a16 16 0 0 0 0-22.63l-22.63-22.63a16 16 0 0 0-22.63 0l-3.67 3.67A110.45 110.45 0 0 0 192 277.2V272a16 16 0 0 0-16-16h-32a16 16 0 0 0-16 16v5.2a110.19 110.19 0 0 0-20.89 8.65l-3.67-3.67a16 16 0 0 0-22.63 0L58.18 304.8a16 16 0 0 0 0 22.63l3.67 3.67A110.45 110.45 0 0 0 53.2 352H48a16 16 0 0 0-16 16v32a16 16 0 0 0 16 16h5.2a110.19 110.19 0 0 0 8.65 20.89l-3.67 3.67a16 16 0 0 0 0 22.63l22.63 22.63a16 16 0 0 0 22.63 0l3.67-3.67a110.94 110.94 0 0 0 20.9 8.65v5.2a16 16 0 0 0 16 16h32a16 16 0 0 0 16-16v-5.2a110.56 110.56 0 0 0 20.9-8.65l3.67 3.67a16 16 0 0 0 22.63 0l22.63-22.63a16 16 0 0 0 0-22.63l-3.67-3.67a110.45 110.45 0 0 0 8.65-20.89H272a16 16 0 0 0 16-16v-32a16 16 0 0 0-16-16zm-112 80a48 48 0 1 1 48-48 48 48 0 0 1-48 48z" class="fa-secondary"/><path d="M624 224h-16v-64a32 32 0 0 0-32-32h-73.6L419.22 24a64 64 0 0 0-50-24H256a32 32 0 0 0-32 32v96H48a16 16 0 0 0-16 16v80H16a16 16 0 0 0-16 16v32a16 16 0 0 0 16 16h16.72c29.21-38.65 75.1-64 127.28-64s98.07 25.35 127.28 64h65.45c29.21-38.65 75.1-64 127.28-64s98.07 25.35 127.28 64H624a16 16 0 0 0 16-16v-32a16 16 0 0 0-16-16zm-336-96V64h81.24l51.2 64z" class="fa-primary"/></svg>