<svg xmlns="http://www.w3.org/2000/svg" viewBox="0 0 640 512"><!-- Font Awesome Pro 5.15.4 by @fontawesome - https://fontawesome.com License - https://fontawesome.com/license (Commercial License) --><defs><style>.fa-secondary{opacity:.4}</style></defs><path d="M400 160a16 16 0 0 0-16-16h-16a16 16 0 0 0-16 16v32h48zm-176 0a16 16 0 0 0-16-16h-16a16 16 0 0 0-16 16v32h48zm88 0a16 16 0 0 0-16-16h-16a16 16 0 0 0-16 16v32h48zm180.27 109.64c-4.61-2.43-19.86-9.86-44.27-12.45V352a32 32 0 0 1-32 32h-16V256h-48v128h-40V256h-48v128h-40V256H81.75C70.75 274.9 64 296.57 64 320a128 128 0 0 0 128 128h224a96 96 0 0 0 96-96v-70.3c-6.42-4.16-12.78-8.4-19.73-12.06zM176 381.73a63.69 63.69 0 0 1 0-123.46z" class="fa-secondary"/><path d="M640 80v288c0 12-10.81 16-16 16a16.22 16.22 0 0 1-13-6.67 555.44 555.44 0 0 0-66.19-71.68c-15.38-13-32.93-25.66-52.54-36-5.55-2.93-25.75-13.6-60-13.63H48a16 16 0 0 1-16 16H16A16 16 0 0 1 0 256v-64a16 16 0 0 1 16-16h16a16 16 0 0 1 16 16h384.27c34.25 0 54.45-10.69 60-13.63 19.61-10.35 37.16-23.05 52.54-36A555.44 555.44 0 0 0 611 70.67 16.27 16.27 0 0 1 624 64c5.19 0 16 4 16 16z" class="fa-primary"/></svg>