<svg xmlns="http://www.w3.org/2000/svg" viewBox="0 0 512 512"><!-- Font Awesome Pro 5.15.4 by @fontawesome - https://fontawesome.com License - https://fontawesome.com/license (Commercial License) --><defs><style>.fa-secondary{opacity:.4}</style></defs><path d="M468 256h-40a12 12 0 0 0-12 12v40a12 12 0 0 0 12 12h40a12 12 0 0 0 12-12v-40a12 12 0 0 0-12-12zM84 448H44a12 12 0 0 0-12 12v40a12 12 0 0 0 12 12h40a12 12 0 0 0 12-12v-40a12 12 0 0 0-12-12zm288 0H140a12 12 0 0 0-12 12v40a12 12 0 0 0 12 12h232a12 12 0 0 0 12-12v-40a12 12 0 0 0-12-12zm96 0h-40a12 12 0 0 0-12 12v40a12 12 0 0 0 12 12h40a12 12 0 0 0 12-12v-40a12 12 0 0 0-12-12zM140 320h40a12 12 0 0 0 12-12v-40a12 12 0 0 0-12-12h-40a12 12 0 0 0-12 12v40a12 12 0 0 0 12 12zm-96 0h40a12 12 0 0 0 12-12v-40a12 12 0 0 0-12-12H44a12 12 0 0 0-12 12v40a12 12 0 0 0 12 12zm324 44v40a12 12 0 0 0 12 12h40a12 12 0 0 0 12-12v-40a12 12 0 0 0-12-12h-40a12 12 0 0 0-12 12zM92 352a12 12 0 0 0-12 12v40a12 12 0 0 0 12 12h40a12 12 0 0 0 12-12v-40a12 12 0 0 0-12-12zm192 0a12 12 0 0 0-12 12v40a12 12 0 0 0 12 12h40a12 12 0 0 0 12-12v-40a12 12 0 0 0-12-12zm48-32h40a12 12 0 0 0 12-12v-40a12 12 0 0 0-12-12h-40a12 12 0 0 0-12 12v40a12 12 0 0 0 12 12zm-144 32a12 12 0 0 0-12 12v40a12 12 0 0 0 12 12h40a12 12 0 0 0 12-12v-40a12 12 0 0 0-12-12zm48-32h40a12 12 0 0 0 12-12v-40a12 12 0 0 0-12-12h-40a12 12 0 0 0-12 12v40a12 12 0 0 0 12 12z" class="fa-secondary"/><path d="M509.22 126.5L466 195.64a18.33 18.33 0 0 1-22.35 7.36l-86.43-34.57a18.35 18.35 0 0 1-11.43-18.85L351.74 90a283.34 283.34 0 0 0-191.48 0l6 59.53a18.35 18.35 0 0 1-11.43 18.85L68.35 203A18.34 18.34 0 0 1 46 195.64L2.79 126.5a18.32 18.32 0 0 1 2.58-22.68c138.53-138.53 362.94-138.32 501.26 0a18.34 18.34 0 0 1 2.59 22.68z" class="fa-primary"/></svg>