<svg xmlns="http://www.w3.org/2000/svg" viewBox="0 0 640 512"><!-- Font Awesome Pro 5.15.4 by @fontawesome - https://fontawesome.com License - https://fontawesome.com/license (Commercial License) --><defs><style>.fa-secondary{opacity:.4}</style></defs><path d="M491.31 196.55C543.62 254.25 576 326.43 576 384c0 114.87-128.94 128-288 128S0 498.87 0 384 128.94 96 288 96c47.56 0 92.42 15.48 132 40.25-6.31 2.75-13 5.31-20.11 7.66-29.88 9.89-57.06 13.19-71.26 13-20.31-.28-38.95 2.78-55.38 9.1a112.79 112.79 0 0 0-67.12 69.81c-12.85 39.24-5.07 81.34 20.8 112.6a113.32 113.32 0 0 0 82.92 41.45 123.35 123.35 0 0 0 21.59-.91c43.67-5.56 80.8-39.2 94.56-85.7 3.52-11.91 18.24-46.79 41.23-78.59a200.78 200.78 0 0 1 24.08-28.12z" class="fa-secondary"/><path d="M639.38 142.58c-4.42 29-23.91 45.46-52.11 44.14-.95 0-1.91-.11-2.87-.19a72.74 72.74 0 0 1-27.22-8 42.94 42.94 0 0 0-18.08-5.1c-11.3-.53-23.45 3.93-36.1 13.27-11.88 8.76-23.93 21.55-35.82 38-23 31.8-37.71 66.68-41.23 78.59-13.76 46.5-50.9 80.14-94.56 85.7a123.35 123.35 0 0 1-21.59.91 113.3 113.3 0 0 1-82.92-41.45c-25.87-31.26-33.65-73.36-20.8-112.6A112.79 112.79 0 0 1 273.2 166c16.43-6.32 35.07-9.38 55.38-9.1 14.2.19 41.38-3.11 71.26-13 30.58-10.13 54.47-24.29 67.27-39.89 10-12.22 13.4-25.21 10.28-39.73a53.55 53.55 0 0 1 20.66-54.17A51.24 51.24 0 0 1 531.1.06a53.14 53.14 0 0 1 38.51 19.33c9.56 11.64 13.54 26.57 11.21 42v.17a53.41 53.41 0 0 1-9 22.12 51.63 51.63 0 0 1 18.47-2.5c1.66.08 3.33.24 5 .48h.14c28.57 4.44 48.36 31.73 43.95 60.92z" class="fa-primary"/></svg>