<svg xmlns="http://www.w3.org/2000/svg" viewBox="0 0 640 512"><!-- Font Awesome Pro 5.15.4 by @fontawesome - https://fontawesome.com License - https://fontawesome.com/license (Commercial License) --><defs><style>.fa-secondary{opacity:.4}</style></defs><path d="M520 448H120a24 24 0 0 0-24 24v16a24 24 0 0 0 24 24h400a24 24 0 0 0 24-24v-16a24 24 0 0 0-24-24zM592 0H48A48 48 0 0 0 0 48v320a48 48 0 0 0 48 48h544a48 48 0 0 0 48-48V48a48 48 0 0 0-48-48zm-16 352H64V64h512z" class="fa-secondary"/><path d="M576 352H64V64h512z" class="fa-primary"/></svg>