<svg xmlns="http://www.w3.org/2000/svg" viewBox="0 0 512 512"><!-- Font Awesome Pro 5.15.4 by @fontawesome - https://fontawesome.com License - https://fontawesome.com/license (Commercial License) --><defs><style>.fa-secondary{opacity:.4}</style></defs><path d="M368 96a16 16 0 0 1-16-16V0H88a23.94 23.94 0 0 0-24 23.88V192h82.75a32 32 0 0 1 22.62 9.37l13.26 13.26a32 32 0 0 0 22.62 9.37h101.5a32 32 0 0 0 22.62-9.37l13.26-13.26a32 32 0 0 1 22.62-9.37H448V96z" class="fa-secondary"/><path d="M368 96h80v-4.58a17.92 17.92 0 0 0-5.25-12.67l-73.43-73.5A18 18 0 0 0 356.57 0H352v80a16 16 0 0 0 16 16zm112 96H365.25a32 32 0 0 0-22.62 9.37l-13.26 13.26a32 32 0 0 1-22.62 9.37h-101.5a32 32 0 0 1-22.62-9.37l-13.26-13.26a32 32 0 0 0-22.62-9.37H32a32 32 0 0 0-32 32v32a32 32 0 0 0 32 32v160a64 64 0 0 0 64 64h320a64 64 0 0 0 64-64V288a32 32 0 0 0 32-32v-32a32 32 0 0 0-32-32zM336 296a8 8 0 0 1 8-8h16a8 8 0 0 1 8 8v16a8 8 0 0 1-8 8h-16a8 8 0 0 1-8-8zm-24 56h16a8 8 0 0 1 8 8v16a8 8 0 0 1-8 8h-16a8 8 0 0 1-8-8v-16a8 8 0 0 1 8-8zm-40-56a8 8 0 0 1 8-8h16a8 8 0 0 1 8 8v16a8 8 0 0 1-8 8h-16a8 8 0 0 1-8-8zm-24 56h16a8 8 0 0 1 8 8v16a8 8 0 0 1-8 8h-16a8 8 0 0 1-8-8v-16a8 8 0 0 1 8-8zm-40-56a8 8 0 0 1 8-8h16a8 8 0 0 1 8 8v16a8 8 0 0 1-8 8h-16a8 8 0 0 1-8-8zm-24 56h16a8 8 0 0 1 8 8v16a8 8 0 0 1-8 8h-16a8 8 0 0 1-8-8v-16a8 8 0 0 1 8-8zm-40-56a8 8 0 0 1 8-8h16a8 8 0 0 1 8 8v16a8 8 0 0 1-8 8h-16a8 8 0 0 1-8-8zm-40 24H88a8 8 0 0 1-8-8v-16a8 8 0 0 1 8-8h16a8 8 0 0 1 8 8v16a8 8 0 0 1-8 8zm32 64h-16a8 8 0 0 1-8-8v-16a8 8 0 0 1 8-8h16a8 8 0 0 1 8 8v16a8 8 0 0 1-8 8zm232 56a8 8 0 0 1-8 8H152a8 8 0 0 1-8-8v-16a8 8 0 0 1 8-8h208a8 8 0 0 1 8 8zm32-64a8 8 0 0 1-8 8h-16a8 8 0 0 1-8-8v-16a8 8 0 0 1 8-8h16a8 8 0 0 1 8 8zm32-64a8 8 0 0 1-8 8h-16a8 8 0 0 1-8-8v-16a8 8 0 0 1 8-8h16a8 8 0 0 1 8 8z" class="fa-primary"/></svg>