<svg xmlns="http://www.w3.org/2000/svg" viewBox="0 0 640 512"><!-- Font Awesome Pro 5.15.4 by @fontawesome - https://fontawesome.com License - https://fontawesome.com/license (Commercial License) --><defs><style>.fa-secondary{opacity:.4}</style></defs><path d="M33.69349,481.68406a15.99575,15.99575,0,0,0,7.15608,21.46486l14.31606,7.15821A15.99982,15.99982,0,0,0,76.63,503.15283L158.3155,339.77376a15.72566,15.72566,0,0,0,1.57027-5.79492,454.09335,454.09335,0,0,1-45.60046-13.47658Zm572.61124,0-80.584-161.17789a454.76672,454.76672,0,0,1-45.60828,13.47462,16.02422,16.02422,0,0,0,1.57027,5.793l81.68554,163.37907a16.00317,16.00317,0,0,0,21.46823,7.1543l14.31607-7.15821A15.99761,15.99761,0,0,0,606.30473,481.68406ZM320.00692,0A150.8559,150.8559,0,0,0,169.15118,150.85757c0,2.69531.26561,5.32617.40624,7.99024,45.92858,20.86135,96.62267,33.15237,150.4495,33.15237s104.52093-12.291,150.44951-33.15237c.14062-2.66407.40624-5.29493.40624-7.99024A150.8559,150.8559,0,0,0,320.00692,0Z" class="fa-secondary"/><path d="M464.96438,111.33409c3.453,12.67384,5.89829,25.75393,5.89829,39.52348,0,2.69531-.26562,5.32617-.40624,7.99024-45.92858,20.86135-96.62268,33.15237-150.44951,33.15237s-104.52092-12.291-150.4495-33.15237c-.14063-2.66407-.40624-5.29493-.40624-7.99024,0-13.76955,2.44525-26.84964,5.89829-39.52348C89.59059,130.75989,32.01385,166.72477,32.01385,208.0002c0,61.85553,128.9383,112.00011,287.99307,112.00011S608,269.85573,608,208.0002C608,166.72477,550.42326,130.75989,464.96438,111.33409ZM128.01154,232.00022a24,24,0,1,1,23.99942-24A24.0009,24.0009,0,0,1,128.01154,232.00022Zm191.99538,48a24,24,0,1,1,23.99943-24A24.00091,24.00091,0,0,1,320.00692,280.00027Zm191.99539-48a24,24,0,1,1,23.99942-24A24.00091,24.00091,0,0,1,512.00231,232.00022Z" class="fa-primary"/></svg>