<svg xmlns="http://www.w3.org/2000/svg" viewBox="0 0 448 512"><!-- Font Awesome Pro 5.15.4 by @fontawesome - https://fontawesome.com License - https://fontawesome.com/license (Commercial License) --><defs><style>.fa-secondary{opacity:.4}</style></defs><path d="M432 448H16a16 16 0 0 0-16 16v32a16 16 0 0 0 16 16h416a16 16 0 0 0 16-16v-32a16 16 0 0 0-16-16z" class="fa-secondary"/><path d="M32 64h32v160c0 88.22 71.78 160 160 160s160-71.78 160-160V64h32a16 16 0 0 0 16-16V16a16 16 0 0 0-16-16H272a16 16 0 0 0-16 16v32a16 16 0 0 0 16 16h32v160a80 80 0 0 1-160 0V64h32a16 16 0 0 0 16-16V16a16 16 0 0 0-16-16H32a16 16 0 0 0-16 16v32a16 16 0 0 0 16 16z" class="fa-primary"/></svg>