<svg xmlns="http://www.w3.org/2000/svg" viewBox="0 0 512 512"><!-- Font Awesome Pro 5.15.4 by @fontawesome - https://fontawesome.com License - https://fontawesome.com/license (Commercial License) --><defs><style>.fa-secondary{opacity:.4}</style></defs><path d="M123.31 388.69a12 12 0 0 1 16.38-.54 176 176 0 1 0-29.61-230.61l-46.5 2.22 3.52-64.43A247.45 247.45 0 0 1 256 8c136.66 0 248.1 111.53 248 248.19C503.9 393.07 392.9 504 256 504a247.1 247.1 0 0 1-166.21-63.88l-.49-.46a12 12 0 0 1 0-17z" class="fa-secondary"/><path d="M11.65 0h48A12 12 0 0 1 71 12.55l-7.42 147.21 147.54-7.06h.58a12 12 0 0 1 12 12V212a12 12 0 0 1-12 12h-200a12 12 0 0 1-12-12V12A12 12 0 0 1 11.65 0z" class="fa-primary"/></svg>