<svg xmlns="http://www.w3.org/2000/svg" viewBox="0 0 640 512"><!-- Font Awesome Pro 5.15.4 by @fontawesome - https://fontawesome.com License - https://fontawesome.com/license (Commercial License) --><defs><style>.fa-secondary{opacity:.4}</style></defs><path d="M65.43 215a39.94 39.94 0 0 0-17.36 33v56a16 16 0 0 1-16 16h-16a16 16 0 0 1-16-16v-56a88 88 0 0 1 88-88h1.39a95.59 95.59 0 0 0-24.03 55zM638.69 35.55a8 8 0 0 0-6.62-3.55H531.94a52.6 52.6 0 0 1-10.28 8.3c5.11 5.38 9.91 10.5 13.69 14.5a31.75 31.75 0 0 1 8.59 21.8v6.76l92.54-36.71a8 8 0 0 0 2.21-11.1z" class="fa-secondary"/><path d="M535.35 54.8c-3.78-4-8.58-9.12-13.69-14.5 11.06-6.84 19.5-17.49 22.18-30.66a8.08 8.08 0 0 0-6.39-9.49 8 8 0 0 0-1.54-.15h-120a128 128 0 0 0-128 128H161a96 96 0 0 0-65.56 166.12l-25.62 68.36a64 64 0 0 0-2.16 38l24.85 99.41A16 16 0 0 0 108 512h66a16 16 0 0 0 15.52-19.88l-26.33-105.26L187 323.27l101 22.31V496a16 16 0 0 0 16 16h64a16 16 0 0 0 16-16V318.22A111.49 111.49 0 0 0 416 240c0-.22-.07-.42-.08-.64V224l.08-32a1.15 1.15 0 0 1-.08.41v-55.52h.08l15.93 7.11 18.9 37.7a32 32 0 0 0 40.49 15.37l32.55-13A32 32 0 0 0 544 154.31l-.06-77.71a31.75 31.75 0 0 0-8.59-21.8zM479.93 96a16 16 0 1 1 16-16 16 16 0 0 1-16 16z" class="fa-primary"/></svg>