<svg xmlns="http://www.w3.org/2000/svg" viewBox="0 0 512 512"><!-- Font Awesome Pro 5.15.4 by @fontawesome - https://fontawesome.com License - https://fontawesome.com/license (Commercial License) --><defs><style>.fa-secondary{opacity:.4}</style></defs><path d="M256 64C150 64 64 150 64 256s86 192 192 192 192-86 192-192S362 64 256 64zm0 44a36 36 0 1 1-36 36 36 36 0 0 1 36-36zm117.74 98c-28.71 6.78-55.51 12.75-82.14 15.81.85 101 12.31 123 25 155.62a18 18 0 1 1-33.54 13.1C274.4 368.24 266 349.91 260.84 312h-9.68c-5.17 37.85-13.54 56.21-22.26 78.55a18 18 0 1 1-33.54-13.1c12.72-32.54 24.19-54.54 25-155.62-26.63-3.06-53.43-9-82.14-15.81a16 16 0 0 1 7.35-31.14c96.69 22.83 124.29 22.78 220.78 0a16 16 0 0 1 8.33 30.9c-.31.08-.62.16-.94.22z" class="fa-secondary"/><path d="M256 180a36 36 0 1 0-36-36 36 36 0 0 0 36 36zm110.39-5.12c-96.49 22.78-124.09 22.83-220.78 0a16 16 0 0 0-7.35 31.12c28.71 6.78 55.51 12.75 82.14 15.81-.85 101.08-12.32 123.08-25 155.62a18 18 0 1 0 33.54 13.1c8.72-22.34 17.09-40.7 22.26-78.55h9.68c5.18 37.91 13.56 56.24 22.26 78.55a18 18 0 1 0 33.54-13.1c-12.73-32.57-24.19-54.6-25-155.62 26.63-3.06 53.43-9 82.14-15.81a16 16 0 0 0-6.82-31.26l-.51.12zM256 8C119 8 8 119 8 256s111 248 248 248 248-111 248-248S393 8 256 8zm0 440c-106 0-192-86-192-192S150 64 256 64s192 86 192 192-85.81 191.94-191.8 192z" class="fa-primary"/></svg>