<svg xmlns="http://www.w3.org/2000/svg" viewBox="0 0 512 512"><!-- Font Awesome Pro 5.15.4 by @fontawesome - https://fontawesome.com License - https://fontawesome.com/license (Commercial License) --><defs><style>.fa-secondary{opacity:.4}</style></defs><path d="M264.49 366.31a12 12 0 0 0-17 0L202.84 411A72 72 0 0 1 101 309.16l44.67-44.67a12 12 0 0 0 0-17l-39.6-39.6a12 12 0 0 0-17 0l-44.62 44.7c-59.27 59.27-59.27 155.7 0 215s155.7 59.26 215 0l44.67-44.67a12 12 0 0 0 0-17zM467.55 44.45c-59.26-59.27-155.69-59.27-215 0l-44.63 44.67a12 12 0 0 0 0 17l39.6 39.6a12 12 0 0 0 17 0L309.16 101A72 72 0 1 1 411 202.84l-44.67 44.67a12 12 0 0 0 0 17l39.6 39.59a12 12 0 0 0 17 0l44.67-44.67c59.22-59.29 59.22-155.72-.05-214.98z" class="fa-secondary"/><path d="M63.6 7L505 448.4a24 24 0 0 1 0 33.94L482.34 505a24 24 0 0 1-33.94 0L7 63.6a24 24 0 0 1 0-33.94L29.66 7A24 24 0 0 1 63.6 7z" class="fa-primary"/></svg>