<svg xmlns="http://www.w3.org/2000/svg" viewBox="0 0 448 512"><!-- Font Awesome Pro 5.15.4 by @fontawesome - https://fontawesome.com License - https://fontawesome.com/license (Commercial License) --><defs><style>.fa-secondary{opacity:.4}</style></defs><path d="M72 256V153.5C72 69.5 139.5.3 223.5 0S376 68 376 152v16a23.94 23.94 0 0 1-24 24h-32a23.94 23.94 0 0 1-24-24v-16a72.11 72.11 0 0 0-72.7-72c-39.6.4-71.3 33.3-71.3 72.9V256z" class="fa-secondary"/><path d="M400 512H48a48 48 0 0 1-48-48V304a48 48 0 0 1 48-48h352a48 48 0 0 1 48 48v160a48 48 0 0 1-48 48z" class="fa-primary"/></svg>