<svg xmlns="http://www.w3.org/2000/svg" viewBox="0 0 496 512"><!-- Font Awesome Pro 5.15.4 by @fontawesome - https://fontawesome.com License - https://fontawesome.com/license (Commercial License) --><defs><style>.fa-secondary{opacity:.4}</style></defs><path d="M248,8C111,8,0,119,0,256S111,504,248,504,496,393,496,256,385,8,248,8Zm24,376v16a16,16,0,0,1-16,16H240a16,16,0,0,1-16-16V383.8a88.76,88.76,0,0,1-46.4-15.1c-8.7-5.9-10-18.1-2.3-25.2l12-11.3c5.4-5.1,13.3-5.4,19.7-1.6a38.91,38.91,0,0,0,19.9,5.4h45c11.3,0,20.5-10.5,20.5-23.4,0-10.6-6.3-19.9-15.2-22.7L205,268c-29-8.8-49.2-37-49.2-68.6,0-39.3,30.6-71.3,68.2-71.4V112a16,16,0,0,1,16-16h16a16,16,0,0,1,16,16v16.2a88.76,88.76,0,0,1,46.4,15.1c8.7,5.9,10,18.1,2.3,25.2l-12,11.3c-5.4,5.1-13.3,5.4-19.7,1.6a38.91,38.91,0,0,0-19.9-5.4h-45c-11.3,0-20.5,10.5-20.5,23.4,0,10.6,6.3,19.9,15.2,22.7l72,21.9c29,8.8,49.2,37,49.2,68.6C340.2,351.9,309.6,383.8,272,384Z" class="fa-secondary"/><path d="M224,128V112a16,16,0,0,1,16-16h16a16,16,0,0,1,16,16v16.2a88.76,88.76,0,0,1,46.4,15.1c8.7,5.9,10,18.1,2.3,25.2l-12,11.3c-5.4,5.1-13.3,5.4-19.7,1.6a38.91,38.91,0,0,0-19.9-5.4h-45c-11.3,0-20.5,10.5-20.5,23.4,0,10.6,6.3,19.9,15.2,22.7l72,21.9c29,8.8,49.2,37,49.2,68.6.2,39.3-30.4,71.2-68,71.4v16a16,16,0,0,1-16,16H240a16,16,0,0,1-16-16V383.8a88.76,88.76,0,0,1-46.4-15.1c-8.7-5.9-10-18.1-2.3-25.2l12-11.3c5.4-5.1,13.3-5.4,19.7-1.6a38.91,38.91,0,0,0,19.9,5.4h45c11.3,0,20.5-10.5,20.5-23.4,0-10.6-6.3-19.9-15.2-22.7L205,268c-29-8.8-49.2-37-49.2-68.6C155.8,160.1,186.4,128.1,224,128Z" class="fa-primary"/></svg>