<svg xmlns="http://www.w3.org/2000/svg" viewBox="0 0 640 512"><!-- Font Awesome Pro 5.15.4 by @fontawesome - https://fontawesome.com License - https://fontawesome.com/license (Commercial License) --><defs><style>.fa-secondary{opacity:.4}</style></defs><path d="M630.6 364.9l-90.3-90.2A64 64 0 0 0 495 256h-79.3a32 32 0 0 0-32 32v79.2a63.79 63.79 0 0 0 18.7 45.2l90.3 90.2a32 32 0 0 0 45.3 0l92.5-92.5a31.84 31.84 0 0 0 .1-45.2zm-182.8-21a24 24 0 1 1 24-24 23.94 23.94 0 0 1-24 24z" class="fa-secondary"/><path d="M379.9 435a95.37 95.37 0 0 1-28.1-67.9V294c-12.2-3.6-24.9-6.2-38.2-6.2h-16.7a174.08 174.08 0 0 1-145.8 0h-16.7A134.58 134.58 0 0 0 0 422.3v41.6a48 48 0 0 0 48 48h352a47.78 47.78 0 0 0 37.9-18.9zM224 255.9A128 128 0 1 0 96 128a128 128 0 0 0 128 127.9z" class="fa-primary"/></svg>