<svg xmlns="http://www.w3.org/2000/svg" viewBox="0 0 448 512"><!-- Font Awesome Pro 5.15.4 by @fontawesome - https://fontawesome.com License - https://fontawesome.com/license (Commercial License) --><defs><style>.fa-secondary{opacity:.4}</style></defs><path d="M306 30.48L240 80h102.51A127.7 127.7 0 0 0 306 30.48zM80 299.7V512h128.26l-98.45-221.52A132.86 132.86 0 0 0 80 299.7zM277.37 12a127.05 127.05 0 0 0-171.88 68h81.19z" class="fa-secondary"/><path d="M256 416h-55.38l42.67 96H256a48 48 0 0 0 0-96zm96-288c0-5.48-.95-10.7-1.61-16H97.61c-.67 5.3-1.61 10.52-1.61 16a128 128 0 0 0 256 0zm-38.4 160h-16.71a174 174 0 0 1-145.78 0h-7.37l42.67 96H256a80.09 80.09 0 0 1 80 80 79.24 79.24 0 0 1-16.41 48H400a48 48 0 0 0 48-48v-41.6A134.4 134.4 0 0 0 313.6 288zM0 422.4V464a48 48 0 0 0 48 48V320.24C18.88 344.89 0 381.26 0 422.4z" class="fa-primary"/></svg>