<svg xmlns="http://www.w3.org/2000/svg" viewBox="0 0 640 512"><!-- Font Awesome Pro 5.15.4 by @fontawesome - https://fontawesome.com License - https://fontawesome.com/license (Commercial License) --><defs><style>.fa-secondary{opacity:.4}</style></defs><path d="M480 256a96 96 0 1 0-96-96 96 96 0 0 0 96 96zm48 32h-3.8c-13.9 4.8-28.6 8-44.2 8s-30.3-3.2-44.2-8H432c-20.4 0-39.2 5.9-55.7 15.4 24.4 26.3 39.7 61.2 39.7 99.8v38.4c0 2.2-.5 4.3-.6 6.4H592a48 48 0 0 0 48-48 111.94 111.94 0 0 0-112-112z" class="fa-secondary"/><path d="M192 256A112 112 0 1 0 80 144a111.94 111.94 0 0 0 112 112zm76.8 32h-8.3a157.53 157.53 0 0 1-68.5 16c-24.6 0-47.6-6-68.5-16h-8.3A115.23 115.23 0 0 0 0 403.2V432a48 48 0 0 0 48 48h288a48 48 0 0 0 48-48v-28.8A115.23 115.23 0 0 0 268.8 288z" class="fa-primary"/></svg>