<svg xmlns="http://www.w3.org/2000/svg" viewBox="0 0 640 512"><!-- Font Awesome Pro 5.15.4 by @fontawesome - https://fontawesome.com License - https://fontawesome.com/license (Commercial License) --><defs><style>.fa-secondary{opacity:.4}</style></defs><path d="M180.6 107.84a144 144 0 1 1 209.51 161.94zM198.37 320A134.43 134.43 0 0 0 64 454.4v9.6a48 48 0 0 0 48 48h382.2L245.77 320z" class="fa-secondary"/><path d="M636.67 480.4l-19.6 25.3a16.06 16.06 0 0 1-22.5 2.8L6.17 53.8a15.93 15.93 0 0 1-2.8-22.4L23 6.2a16.06 16.06 0 0 1 22.5-2.8l588.3 454.7a15.85 15.85 0 0 1 2.87 22.3z" class="fa-primary"/></svg>