<svg xmlns="http://www.w3.org/2000/svg" viewBox="0 0 448 512"><!-- Font Awesome Pro 5.15.4 by @fontawesome - https://fontawesome.com License - https://fontawesome.com/license (Commercial License) --><defs><style>.fa-secondary{opacity:.4}</style></defs><path d="M352 96H96V0l64 32 64-32 64 32 64-32z" class="fa-secondary"/><path d="M313.6 304h-16.71a174 174 0 0 1-145.78 0H134.4A134.4 134.4 0 0 0 0 438.4V464a48 48 0 0 0 48 48h352a48 48 0 0 0 48-48v-25.6A134.4 134.4 0 0 0 313.6 304zM224 272a128 128 0 0 0 128-128v-16H96v16a128 128 0 0 0 128 128z" class="fa-primary"/></svg>