<svg xmlns="http://www.w3.org/2000/svg" viewBox="0 0 448 512"><!-- Font Awesome Pro 5.15.4 by @fontawesome - https://fontawesome.com License - https://fontawesome.com/license (Commercial License) --><defs><style>.fa-secondary{opacity:.4}</style></defs><path d="M176,240H144v32h32Zm0,208a15.99954,15.99954,0,0,0-16,16v48h32V464A15.99954,15.99954,0,0,0,176,448ZM0,146v92a17.97968,17.97968,0,0,0,18,18H48V128H18A17.97843,17.97843,0,0,0,0,146Zm430-18H400V256h30a17.97718,17.97718,0,0,0,18-18V146A17.97594,17.97594,0,0,0,430,128ZM208,272h32V240H208Zm64,0h32V240H272Zm0,176a16,16,0,1,0,16,16A15.99954,15.99954,0,0,0,272,448ZM224,0a15.99954,15.99954,0,0,0-16,16V64h32V16A15.99954,15.99954,0,0,0,224,0Z" class="fa-secondary"/><path d="M116,320H332a36.0356,36.0356,0,0,0,36-36V109a44.98286,44.98286,0,0,0-45-45H125a44.98536,44.98536,0,0,0-45,45V284A36.03811,36.03811,0,0,0,116,320Zm188-48H272V240h32ZM288,128a32,32,0,1,1-32,32A31.99658,31.99658,0,0,1,288,128ZM208,240h32v32H208Zm-32,32H144V240h32ZM160,128a32,32,0,1,1-32,32A31.99658,31.99658,0,0,1,160,128ZM352,352H96A95.99975,95.99975,0,0,0,0,448v32a32.00158,32.00158,0,0,0,32,32h96V448a32.00033,32.00033,0,0,1,32-32H288a32.00033,32.00033,0,0,1,32,32v64h96a32.00158,32.00158,0,0,0,32-32V448A95.99975,95.99975,0,0,0,352,352Z" class="fa-primary"/></svg>