<svg xmlns="http://www.w3.org/2000/svg" viewBox="0 0 512 512"><!-- Font Awesome Pro 5.15.4 by @fontawesome - https://fontawesome.com License - https://fontawesome.com/license (Commercial License) --><defs><style>.fa-secondary{opacity:.4}</style></defs><path d="M131.55,312.57a16,16,0,0,0-22.63,22.63l67.88,67.88a16,16,0,0,0,22.63-22.63Zm22.63-67.88a16,16,0,0,0-22.63,22.62L244.69,380.45a16,16,0,0,0,22.62-22.63Zm135.76,45.25-67.88-67.88a16,16,0,0,0-22.63,22.63l67.88,67.88a16,16,0,0,0,22.63-22.63Z" class="fa-secondary"/><path d="M431.36,80.64c-96.85-96.85-253.87-96.85-350.72,0s-96.85,253.87,0,350.72,253.87,96.85,350.72,0S528.21,177.49,431.36,80.64ZM199.43,403.08a16,16,0,0,1-22.63,0L108.92,335.2a16,16,0,0,1,22.63-22.63l67.88,67.88A16,16,0,0,1,199.43,403.08Zm67.88-22.63a16,16,0,0,1-22.62,0L131.55,267.31a16,16,0,0,1,22.63-22.62L267.31,357.82A16,16,0,0,1,267.31,380.45Zm22.63-67.88a16,16,0,0,1-22.63,0l-67.88-67.88a16,16,0,0,1,22.63-22.63l67.88,67.88A16,16,0,0,1,289.94,312.57Zm90.51,67.88a16,16,0,0,1-22.62-22.62c56.14-56.16,56.14-147.5,0-203.66s-147.5-56.15-203.66,0a16,16,0,0,1-22.62-22.62c68.62-68.63,180.28-68.63,248.9,0S449.08,311.83,380.45,380.45Z" class="fa-primary"/></svg>