<svg xmlns="http://www.w3.org/2000/svg" viewBox="0 0 512 512"><!-- Font Awesome Pro 5.15.4 by @fontawesome - https://fontawesome.com License - https://fontawesome.com/license (Commercial License) --><defs><style>.fa-secondary{opacity:.4}</style></defs><path d="M48 32H16A16 16 0 0 0 0 48v416a16 16 0 0 0 16 16h32a16 16 0 0 0 16-16V48a16 16 0 0 0-16-16zm448 0h-32a16 16 0 0 0-16 16v416a16 16 0 0 0 16 16h32a16 16 0 0 0 16-16V48a16 16 0 0 0-16-16z" class="fa-secondary"/><path d="M377.3 183.22L304.52 256l72.78 72.78a22.88 22.88 0 0 1 0 32.35l-16.17 16.17a22.88 22.88 0 0 1-32.35 0L256 304.52l-72.78 72.78a22.88 22.88 0 0 1-32.35 0l-16.17-16.17a22.88 22.88 0 0 1 0-32.35L207.48 256l-72.78-72.78a22.88 22.88 0 0 1 0-32.35l16.17-16.17a22.88 22.88 0 0 1 32.35 0L256 207.48l72.78-72.78a22.88 22.88 0 0 1 32.35 0l16.17 16.17a22.88 22.88 0 0 1 0 32.35z" class="fa-primary"/></svg>