<svg xmlns="http://www.w3.org/2000/svg" viewBox="0 0 512 512"><!-- Font Awesome Pro 5.15.4 by @fontawesome - https://fontawesome.com License - https://fontawesome.com/license (Commercial License) --><defs><style>.fa-secondary{opacity:.4}</style></defs><path d="M160 480h192v-64H160zM32 352h64V160H32zM160 96h192V32H160zm256 64v192h64V160z" class="fa-secondary"/><path d="M128 352H32a32 32 0 0 0-32 32v96a32 32 0 0 0 32 32h96a32 32 0 0 0 32-32v-96a32 32 0 0 0-32-32zm-32 96H64v-32h32zm384-96h-96a32 32 0 0 0-32 32v96a32 32 0 0 0 32 32h96a32 32 0 0 0 32-32v-96a32 32 0 0 0-32-32zm-32 96h-32v-32h32zM480 0h-96a32 32 0 0 0-32 32v96a32 32 0 0 0 32 32h96a32 32 0 0 0 32-32V32a32 32 0 0 0-32-32zm-32 96h-32V64h32zM128 0H32A32 32 0 0 0 0 32v96a32 32 0 0 0 32 32h96a32 32 0 0 0 32-32V32a32 32 0 0 0-32-32zM96 96H64V64h32z" class="fa-primary"/></svg>