<svg xmlns="http://www.w3.org/2000/svg" viewBox="0 0 512 512"><!-- Font Awesome Pro 5.15.4 by @fontawesome - https://fontawesome.com License - https://fontawesome.com/license (Commercial License) --><defs><style>.fa-secondary{opacity:.4}</style></defs><path d="M512 176a144 144 0 0 1-112 140.4V368h36a12 12 0 0 1 12 12v40a12 12 0 0 1-12 12h-36v36a12 12 0 0 1-12 12h-40a12 12 0 0 1-12-12v-36h-36a12 12 0 0 1-12-12v-40a12 12 0 0 1 12-12h36v-51.6a144.48 144.48 0 0 1-57.2-27.3 176.57 176.57 0 0 0 32.1-57.1 80 80 0 1 0 0-112 174.74 174.74 0 0 0-32.1-57.1A144.05 144.05 0 0 1 512 176z" class="fa-secondary"/><path d="M288 176a144 144 0 1 0-176 140.4V368H76a12 12 0 0 0-12 12v40a12 12 0 0 0 12 12h36v36a12 12 0 0 0 12 12h40a12 12 0 0 0 12-12v-36h36a12 12 0 0 0 12-12v-40a12 12 0 0 0-12-12h-36v-51.6A144 144 0 0 0 288 176zm-144 80a80 80 0 1 1 80-80 80.11 80.11 0 0 1-80 80z" class="fa-primary"/></svg>