<svg xmlns="http://www.w3.org/2000/svg" viewBox="0 0 288 512"><!-- Font Awesome Pro 5.15.4 by @fontawesome - https://fontawesome.com License - https://fontawesome.com/license (Commercial License) --><defs><style>.fa-secondary{opacity:.4}</style></defs><path d="M144,256a80,80,0,1,1,80-80A80,80,0,0,1,144,256Z" class="fa-secondary"/><path d="M288,176A144,144,0,1,0,112,316.4V368H76a12,12,0,0,0-12,12v40a12,12,0,0,0,12,12h36v36a12,12,0,0,0,12,12h40a12,12,0,0,0,12-12V432h36a12,12,0,0,0,12-12V380a12,12,0,0,0-12-12H176V316.4A144,144,0,0,0,288,176ZM144,256a80,80,0,1,1,80-80A80,80,0,0,1,144,256Z" class="fa-primary"/></svg>