<svg xmlns="http://www.w3.org/2000/svg" viewBox="0 0 448 512"><!-- Font Awesome Pro 5.15.4 by @fontawesome - https://fontawesome.com License - https://fontawesome.com/license (Commercial License) --><defs><style>.fa-secondary{opacity:.4}</style></defs><path d="M306.688,4.031l-25,16.672c-34.916,23.344-80.46,23.344-115.376,0 l-25-16.672C137.369,1.404,132.738,0.001,128,0l22.188,66.564c22.52,12.753,47.932,19.525,73.812,19.67 c25.88-0.147,51.291-6.92,73.812-19.672L320,0C315.262,0.001,310.631,1.404,306.688,4.031z M358.5,286.541l-5.051,0.037l0.037-5.057	c0.073-12.8-9.267-24.257-22.056-25.419c-13.745-1.231-25.885,8.913-27.117,22.658c-0.058,0.653-0.091,1.308-0.098,1.963L304,329.3 c-0.016,3.684,2.958,6.684,6.642,6.7c0.019,0,0.039,0,0.058,0l48.53-0.215c13.778-0.099,24.867-11.348,24.768-25.126	c-0.005-0.682-0.038-1.363-0.098-2.042C382.736,295.816,371.326,286.506,358.5,286.541z M96,376c-22.091,0-40,17.909-40,40	s17.909,40,40,40s40-17.909,40-40S118.091,376,96,376z" class="fa-secondary"/><path d="M437.252,239.877L384,160V32c0-17.673-14.327-32-32-32h-32l-96,288v224h192c17.673,0,32-14.327,32-32V275.377	C448,262.742,444.26,250.39,437.252,239.877z M361.274,335.686c-0.681,0.061-1.363,0.094-2.047,0.099h0L310.7,336	c-3.684,0.016-6.684-2.958-6.7-6.642c0-0.019,0-0.039,0-0.058l0.215-48.574c0.144-13.799,11.448-24.869,25.247-24.724	c0.657,0.007,1.314,0.04,1.968,0.098c12.789,1.162,22.129,12.619,22.056,25.419l-0.037,5.057l5.051-0.037	c12.826-0.035,24.236,9.275,25.4,22.076C385.128,322.339,374.997,334.459,361.274,335.686z M96,0C78.327,0,64,14.327,64,32v128	l-53.252,79.877C3.74,250.39,0,262.742,0,275.377V480c0,17.673,14.327,32,32,32h160V288c0-3.439,0.555-6.856,1.643-10.119	l13.492-40.481L128,0H96z M96,456c-22.091,0-40-17.909-40-40c0-22.091,17.909-40,40-40s40,17.909,40,40	C136,438.091,118.091,456,96,456z M128.5,272.484L128.5,272.484L112.984,288l15.516,15.516c4.643,4.737,4.566,12.341-0.171,16.984	c-4.676,4.583-12.162,4.576-16.829-0.016l-15.5-15.5l-15.5,15.5c-4.728,4.652-12.332,4.59-16.984-0.139	c-4.592-4.668-4.599-12.153-0.016-16.829L79.016,288L63.5,272.484c-4.643-4.737-4.567-12.341,0.17-16.984	c4.676-4.584,12.162-4.577,16.83,0.016l15.5,15.5l15.5-15.5c4.728-4.652,12.332-4.59,16.984,0.139	C133.076,260.322,133.083,267.808,128.5,272.484z" class="fa-primary"/></svg>