<svg xmlns="http://www.w3.org/2000/svg" viewBox="0 0 512 512"><!-- Font Awesome Pro 5.15.4 by @fontawesome - https://fontawesome.com License - https://fontawesome.com/license (Commercial License) --><defs><style>.fa-secondary{opacity:.4}</style></defs><path d="M0 160v240a48 48 0 0 0 48 48h416a48 48 0 0 0 48-48V160zm128 224H79.14C60 362.74 48 334.88 48 304s12-58.73 31.14-80H128zm192 0H192V224h128zm112.86 0H384V224h48.86C452 245.26 464 273.12 464 304s-12 58.73-31.14 80z" class="fa-secondary"/><path d="M496 64H16A16 16 0 0 0 0 80v80h512V80a16 16 0 0 0-16-16zM384 224v34.94a47.73 47.73 0 0 1 0 90.12V384h48.86C452 362.73 464 334.87 464 304s-12-58.74-31.14-80zM48 304c0 30.88 12 58.74 31.14 80H128v-34.94a47.73 47.73 0 0 1 0-90.12V224H79.14C60 245.27 48 273.13 48 304z" class="fa-primary"/></svg>