<svg xmlns="http://www.w3.org/2000/svg" viewBox="0 0 640 512"><!-- Font Awesome Pro 5.15.4 by @fontawesome - https://fontawesome.com License - https://fontawesome.com/license (Commercial License) --><defs><style>.fa-secondary{opacity:.4}</style></defs><path d="M457.77 227.48l-39.83 39.83a16 16 0 0 1-22.63 0l-22.62-22.62a16 16 0 0 1 0-22.63l39.83-39.83c-12.17-8.77-25.53-15.76-40.15-19.16-32.87-7.65-65.69-.93-88.56 21.05A79.09 79.09 0 0 1 288 208.4a79.78 79.78 0 0 1-123.28 67.08 89.85 89.85 0 0 0-7.16 6c-38.07 38-38.17 101.14-5.1 153.3L204 400.39a16 16 0 0 1 20.19 2l13.45 13.45a16 16 0 0 1 2 20.19l-34.35 51.53c52.16 33 115.31 32.85 153.26-5.12a89.77 89.77 0 0 0 6.23-7.48A79.27 79.27 0 0 1 455.87 356c21.92-22.84 28.6-55.6 21-88.4-3.36-14.6-10.34-27.95-19.1-40.12zM472 48a24 24 0 1 0 24 24 24 24 0 0 0-24-24zm96 96a24 24 0 1 0 24 24 24 24 0 0 0-24-24zM520 0a24 24 0 1 0 24 24 24 24 0 0 0-24-24zm96 96a24 24 0 1 0 24 24 24 24 0 0 0-24-24z" class="fa-secondary"/><path d="M224.16 402.39a16 16 0 0 0-20.19-2l-68.84 45.9a16 16 0 0 0-2.44 24.62l36.4 36.4a16 16 0 0 0 24.62-2.44l45.9-68.87a16 16 0 0 0-2-20.19zM336 4.69a16 16 0 0 0-22.62 0L4.69 313.38a16 16 0 0 0 0 22.62L16 347.31a16 16 0 0 0 22.62 0L347.31 38.62a16 16 0 0 0 0-22.62zm299.31 22.62L612.69 4.69a16 16 0 0 0-22.63 0L372.69 222.06a16 16 0 0 0 0 22.63l22.62 22.62a16 16 0 0 0 22.63 0L635.31 49.94a16 16 0 0 0 0-22.63z" class="fa-primary"/></svg>