<svg xmlns="http://www.w3.org/2000/svg" viewBox="0 0 640 512"><!-- Font Awesome Pro 5.15.4 by @fontawesome - https://fontawesome.com License - https://fontawesome.com/license (Commercial License) --><defs><style>.fa-secondary{opacity:.4}</style></defs><path d="M496 224a48 48 0 1 0 48 48 48.05 48.05 0 0 0-48-48zm-352 0a48 48 0 1 0 48 48 48.05 48.05 0 0 0-48-48z" class="fa-secondary"/><path d="M496 128a144 144 0 0 0-119.74 224H263.74A144 144 0 1 0 144 416h352a144 144 0 0 0 0-288zM64 272a80 80 0 1 1 80 80 80 80 0 0 1-80-80zm432 80a80 80 0 1 1 80-80 80 80 0 0 1-80 80z" class="fa-primary"/></svg>