<svg xmlns="http://www.w3.org/2000/svg" viewBox="0 0 512 512"><!-- Font Awesome Pro 5.15.4 by @fontawesome - https://fontawesome.com License - https://fontawesome.com/license (Commercial License) --><defs><style>.fa-secondary{opacity:.4}</style></defs><path d="M454.23 404.17a248.06 248.06 0 0 1-39.17 41.39c-112.46 15.75-202.52-25-256-62.22-15.15 25.91-25.63 54.21-32 83.91a248.89 248.89 0 0 1-41.65-32 333.88 333.88 0 0 1 146-191.83 285.58 285.58 0 0 0-22.7-105.7c-90.55 42.28-157.12 122-180.11 216a246.06 246.06 0 0 1-16.2-53.91C45.86 217.05 110.73 148.43 194.49 109a284.15 284.15 0 0 0-57.05-70.38A246.11 246.11 0 0 1 186 18.53 333.88 333.88 0 0 1 279.19 241a285 285 0 0 0 102.9 33.18c8.58-99.59-27.15-197.09-97.06-264a246.08 246.08 0 0 1 54.5 12.77C394.73 93.3 421.88 184 414 276.34a286.48 286.48 0 0 0 89.43-14.12 247.86 247.86 0 0 1-6.83 52 336.11 336.11 0 0 1-80.6 10.32c-54.6-.1-108.9-14.1-158.6-40.9a286.16 286.16 0 0 0-80.2 72.6c81.86 57.21 184.15 75.04 277.03 47.93z" class="fa-secondary"/><path d="M194.49 109a284.15 284.15 0 0 0-57.05-70.38A247.9 247.9 0 0 0 12.38 299.84C45.86 217.05 110.73 148.43 194.49 109zm36.9 134.4a285.58 285.58 0 0 0-22.7-105.7c-90.55 42.28-157.12 122-180.11 216a248.18 248.18 0 0 0 56.82 81.57 333.88 333.88 0 0 1 145.99-191.83zm150.7 30.7c8.58-99.59-27.15-197.08-97-264a250.78 250.78 0 0 0-29-1.71 247.15 247.15 0 0 0-70 10.08A333.87 333.87 0 0 1 279.19 241a285 285 0 0 0 102.9 33.14zM339.53 22.93C394.73 93.3 421.88 184 414 276.34a286.48 286.48 0 0 0 89.43-14.12q.07-3.12.08-6.26c-.01-107.38-68.39-198.77-163.98-233.03zM159.09 383.34c-15.15 25.91-25.63 54.21-32 83.9a247.51 247.51 0 0 0 288-21.68c-112.49 15.75-202.55-25.02-256-62.22zm98.3-99.7a286.16 286.16 0 0 0-80.2 72.6c81.87 57.21 184.16 75 277 47.93a246.5 246.5 0 0 0 42.36-90A336.11 336.11 0 0 1 416 324.54c-54.61-.1-108.91-14.1-158.61-40.9z" class="fa-primary"/></svg>