<svg xmlns="http://www.w3.org/2000/svg" viewBox="0 0 640 512"><!-- Font Awesome Pro 5.15.4 by @fontawesome - https://fontawesome.com License - https://fontawesome.com/license (Commercial License) --><defs><style>.fa-secondary{opacity:.4}</style></defs><path d="M393.11 107.22a23.9 23.9 0 0 1 33.12-7.46A185.33 185.33 0 0 1 488.74 346l-38.65-29.9a136.7 136.7 0 0 0-49.57-175.52 24.29 24.29 0 0 1-7.41-33.36zm60.68-46.79a233.7 233.7 0 0 1 73 315l38.52 29.78A282.1 282.1 0 0 0 480.35 20a24.2 24.2 0 1 0-26.56 40.46zM347.07 221.19a40 40 0 0 1 20.75 31.32l42.92 33.18A86.79 86.79 0 0 0 416 256a87.89 87.89 0 0 0-45.78-76.86 24 24 0 1 0-23.16 42.06zM288 190.82V88c0-21.46-26-32-41-17l-49.7 49.69zM32 184v144a24 24 0 0 0 24 24h102.06L247 441c15 15 41 4.47 41-17v-71.4L43.76 163.84C36.86 168.05 32 175.32 32 184z" class="fa-secondary"/><path d="M594.54 508.63L6.18 53.9a16 16 0 0 1-2.81-22.45L23 6.18a16 16 0 0 1 22.47-2.81L633.82 458.1a16 16 0 0 1 2.82 22.45L617 505.82a16 16 0 0 1-22.46 2.81z" class="fa-primary"/></svg>