<svg xmlns="http://www.w3.org/2000/svg" viewBox="0 0 576 512"><!-- Font Awesome Pro 5.15.4 by @fontawesome - https://fontawesome.com License - https://fontawesome.com/license (Commercial License) --><defs><style>.fa-secondary{opacity:.4}</style></defs><path d="M0 328V184a24 24 0 0 1 24-24h102.06l89-88.95c15-15 41-4.49 41 17V424c0 21.44-25.94 32-41 17l-89-88.95H24A24 24 0 0 1 0 328z" class="fa-secondary"/><path d="M338.23 179.13a24 24 0 1 0-23.16 42.06 39.42 39.42 0 0 1 0 69.62 24 24 0 1 0 23.16 42.06 87.43 87.43 0 0 0 0-153.74zM480 256a184.64 184.64 0 0 0-85.77-156.24 23.9 23.9 0 0 0-33.12 7.46 24.29 24.29 0 0 0 7.41 33.36 136.67 136.67 0 0 1 0 230.84 24.28 24.28 0 0 0-7.41 33.36 23.94 23.94 0 0 0 33.12 7.46A184.62 184.62 0 0 0 480 256zM448.35 20a24.2 24.2 0 1 0-26.56 40.46 233.65 233.65 0 0 1 0 391.16A24.2 24.2 0 1 0 448.35 492a282 282 0 0 0 0-472.07z" class="fa-primary"/></svg>