<svg xmlns="http://www.w3.org/2000/svg" viewBox="0 0 512 512"><!-- Font Awesome Pro 5.15.4 by @fontawesome - https://fontawesome.com License - https://fontawesome.com/license (Commercial License) --><defs><style>.fa-secondary{opacity:.4}</style></defs><path d="M0 328V184a24 24 0 0 1 24-24h102.06l89-88.95c15-15 41-4.49 41 17V424c0 21.44-25.94 32-41 17l-89-88.95H24A24 24 0 0 1 0 328z" class="fa-secondary"/><path d="M324.72 210.36a16.14 16.14 0 0 1 0-22.82l22.82-22.82a16.14 16.14 0 0 1 22.82 0L416 210.36l45.64-45.64a16.14 16.14 0 0 1 22.82 0l22.82 22.82a16.14 16.14 0 0 1 0 22.82L461.64 256l45.64 45.64a16.14 16.14 0 0 1 0 22.82l-22.82 22.82a16.14 16.14 0 0 1-22.82 0L416 301.64l-45.63 45.63a16.14 16.14 0 0 1-22.82 0l-22.82-22.82a16.14 16.14 0 0 1 0-22.82L370.36 256z" class="fa-primary"/></svg>