<svg xmlns="http://www.w3.org/2000/svg" viewBox="0 0 640 512"><!-- Font Awesome Pro 5.15.4 by @fontawesome - https://fontawesome.com License - https://fontawesome.com/license (Commercial License) --><defs><style>.fa-secondary{opacity:.4}</style></defs><path d="M224,224V64c0-36.88-25.33-39.27-59.43-44.49L39.55.39c-26-4-46.53,23.34-37.3,49.69L70.78,224ZM384,56a40,40,0,0,0-40-40H296a40,40,0,0,0-40,40V224H384ZM600.45.39l-125,19.12C441.33,24.73,416,27.12,416,64V224H569.22L637.75,50.08C647,23.73,626.48-3.59,600.45.39ZM176,288a112,112,0,1,0,79.2,32.8A111.7,111.7,0,0,0,176,288ZM160,461.74A62.48,62.48,0,0,1,114.26,416H160ZM160,384H114.26A62.44,62.44,0,0,1,160,338.26Zm61.25,61.25A63.43,63.43,0,0,1,192,461.74V416h45.74A63.43,63.43,0,0,1,221.25,445.25ZM192,384V338.26A62.44,62.44,0,0,1,237.74,384Zm272-96a112,112,0,1,0,79.2,32.8A111.7,111.7,0,0,0,464,288ZM448,461.74A62.48,62.48,0,0,1,402.26,416H448ZM448,384H402.26A62.44,62.44,0,0,1,448,338.26Zm61.25,61.25A63.43,63.43,0,0,1,480,461.74V416h45.74A63.34,63.34,0,0,1,509.25,445.25ZM480,384V338.26A62.44,62.44,0,0,1,525.74,384Z" class="fa-secondary"/><path d="M560,256H80a16,16,0,0,0-16,16v32a16,16,0,0,0,16,16H97.79a111.8,111.8,0,0,1,157.41.8c25.95,26,36.12,61.46,31.27,95.2h67.06c-4.85-33.74,5.32-69.24,31.27-95.2a111.8,111.8,0,0,1,157.41-.8H560a16,16,0,0,0,16-16V272A16,16,0,0,0,560,256ZM416,40a8,8,0,0,0-8-8H392a8,8,0,0,0-8,8V224h32ZM256,40a8,8,0,0,0-8-8H232a8,8,0,0,0-8,8V224h32Z" class="fa-primary"/></svg>