<svg xmlns="http://www.w3.org/2000/svg" viewBox="0 0 384 512"><!-- Font Awesome Pro 5.15.4 by @fontawesome - https://fontawesome.com License - https://fontawesome.com/license (Commercial License) --><defs><style>.fa-secondary{opacity:.4}</style></defs><path d="M352 96h-32V80a16 16 0 0 0-16-16h-32a16 16 0 0 0-16 16v16h-32V80a16 16 0 0 0-16-16h-32a16 16 0 0 0-16 16v16H32a32.09 32.09 0 0 0-32 32v178.74a32 32 0 0 0 9.38 22.63L32 352v112a48 48 0 0 0 48 48h224a48 48 0 0 0 48-48V352l22.63-22.63a32 32 0 0 0 9.37-22.63V128a32.09 32.09 0 0 0-32-32zm-64 216a8 8 0 0 1-8 8H104a8 8 0 0 1-8-8v-16a8 8 0 0 1 8-8h176a8 8 0 0 1 8 8zm0-64a8 8 0 0 1-8 8H104a8 8 0 0 1-8-8v-16a8 8 0 0 1 8-8h176a8 8 0 0 1 8 8zm0-64a8 8 0 0 1-8 8H104a8 8 0 0 1-8-8v-16a8 8 0 0 1 8-8h176a8 8 0 0 1 8 8z" class="fa-secondary"/><path d="M112 16A16 16 0 0 0 96 0H80a16 16 0 0 0-16 16v80h48zm168 272H104a8 8 0 0 0-8 8v16a8 8 0 0 0 8 8h176a8 8 0 0 0 8-8v-16a8 8 0 0 0-8-8zm0-64H104a8 8 0 0 0-8 8v16a8 8 0 0 0 8 8h176a8 8 0 0 0 8-8v-16a8 8 0 0 0-8-8zm0-64H104a8 8 0 0 0-8 8v16a8 8 0 0 0 8 8h176a8 8 0 0 0 8-8v-16a8 8 0 0 0-8-8z" class="fa-primary"/></svg>