<svg xmlns="http://www.w3.org/2000/svg" viewBox="0 0 512 512"><!-- Font Awesome Pro 5.15.4 by @fontawesome - https://fontawesome.com License - https://fontawesome.com/license (Commercial License) --><defs><style>.fa-secondary{opacity:.4}</style></defs><path d="M416 176v-28l-39.65 44H400a16 16 0 0 0 16-16zm-288 96v36.87L186.6 256H144a16 16 0 0 0-16 16zM106.66 53.33L80 0 53.34 53.34 0 80l53.34 26.67L80 160l26.66-53.33L160 80zm352 288L432 288l-26.66 53.33L352 368l53.34 26.67L432 448l26.66-53.33L512 368zM224 0l-16 32-32 16 32 16 16 32 16-32 32-16-32-16z" class="fa-secondary"/><path d="M507.87 46.18L97.16 501.44A32 32 0 0 1 52 503.71q-.6-.54-1.17-1.11L9.37 461.17a32 32 0 0 1 0-45.25c.38-.38.77-.75 1.16-1.11L465.79 4.11a16 16 0 0 1 22 .55l19.48 19.47a16 16 0 0 1 .6 22.05z" class="fa-primary"/></svg>