<svg xmlns="http://www.w3.org/2000/svg" viewBox="0 0 640 512"><!-- Font Awesome Pro 5.15.4 by @fontawesome - https://fontawesome.com License - https://fontawesome.com/license (Commercial License) --><defs><style>.fa-secondary{opacity:.4}</style></defs><path d="M304 416H144a16 16 0 0 0-16 16v64a16 16 0 0 0 16 16h160a16 16 0 0 0 16-16v-64a16 16 0 0 0-16-16zm0-128H144a16 16 0 0 0-16 16v64a16 16 0 0 0 16 16h160a16 16 0 0 0 16-16v-64a16 16 0 0 0-16-16zm192 128H368a16 16 0 0 0-16 16v64a16 16 0 0 0 16 16h128a16 16 0 0 0 16-16v-64a16 16 0 0 0-16-16z" class="fa-secondary"/><path d="M640 161.28V504a8 8 0 0 1-8 8h-48a8 8 0 0 1-8-8V208a16 16 0 0 0-16-16H80a16 16 0 0 0-16 16v296a8 8 0 0 1-8 8H8a8 8 0 0 1-8-8V161.28A48.11 48.11 0 0 1 29.5 117l272-113.3a48.06 48.06 0 0 1 36.9 0L610.5 117a48.11 48.11 0 0 1 29.5 44.28z" class="fa-primary"/></svg>