<svg xmlns="http://www.w3.org/2000/svg" viewBox="0 0 640 512"><!-- Font Awesome Pro 5.15.4 by @fontawesome - https://fontawesome.com License - https://fontawesome.com/license (Commercial License) --><defs><style>.fa-secondary{opacity:.4}</style></defs><path d="M504 448H136.1a8 8 0 0 0-8 8l-.1 48a8 8 0 0 0 8 8h368a8 8 0 0 0 8-8v-48a8 8 0 0 0-8-8zm0-192H136.6a8 8 0 0 0-8 8l-.1 48a8 8 0 0 0 8 8H504a8 8 0 0 0 8-8v-48a8 8 0 0 0-8-8zm0 96H136.4a8 8 0 0 0-8 8l-.1 48a8 8 0 0 0 8 8H504a8 8 0 0 0 8-8v-48a8 8 0 0 0-8-8z" class="fa-secondary"/><path d="M640 161.28V504a8 8 0 0 1-8 8h-80a8 8 0 0 1-8-8V256c0-17.6-14.6-32-32.6-32H128.6c-18 0-32.6 14.4-32.6 32v248a8 8 0 0 1-8 8H8a8 8 0 0 1-8-8V161.28A48.11 48.11 0 0 1 29.5 117l272-113.3a48.06 48.06 0 0 1 36.9 0L610.5 117a48.11 48.11 0 0 1 29.5 44.28z" class="fa-primary"/></svg>