<svg xmlns="http://www.w3.org/2000/svg" viewBox="0 0 384 512"><!-- Font Awesome Pro 5.15.4 by @fontawesome - https://fontawesome.com License - https://fontawesome.com/license (Commercial License) --><defs><style>.fa-secondary{opacity:.4}</style></defs><path d="M192 80a176 176 0 1 0 176 176A176 176 0 0 0 192 80zm71.8 219.8L245 325.7a11.91 11.91 0 0 1-16.62 2.73l-.18-.13-59.3-43.2a12 12 0 0 1-4.9-9.7V160a12 12 0 0 1 12-12h32a12 12 0 0 1 12 12v93l41.2 30a12.07 12.07 0 0 1 2.6 16.8z" class="fa-secondary"/><path d="M208 148h-32a12 12 0 0 0-12 12v115.4a12 12 0 0 0 4.9 9.7l59.3 43.2.18.13A11.91 11.91 0 0 0 245 325.7l18.8-25.9a12.07 12.07 0 0 0-2.6-16.8L220 253v-93a12 12 0 0 0-12-12zm-16 284a175.5 175.5 0 0 1-128-55.21V488a23.94 23.94 0 0 0 23.88 24H296a23.94 23.94 0 0 0 24-23.88V376.79A175.5 175.5 0 0 1 192 432zM296.12 0H88a23.94 23.94 0 0 0-24 23.88v111.33a176 176 0 0 1 256 0V24a23.94 23.94 0 0 0-23.88-24z" class="fa-primary"/></svg>