<svg xmlns="http://www.w3.org/2000/svg" viewBox="0 0 576 512"><!-- Font Awesome Pro 5.15.4 by @fontawesome - https://fontawesome.com License - https://fontawesome.com/license (Commercial License) --><defs><style>.fa-secondary{opacity:.4}</style></defs><path d="M562.2 95.86c8.1.9 13.9 8.3 13.8 16.3v31.61c0 9.1-7.6 16.8-16.7 16A185 185 0 0 1 480.18 134c-55 34.11-135.52 34.61-192 0-55 34.11-135.52 34.61-192 0-23.31 14.5-50.61 23.4-79.42 25.9-9.1.8-16.7-6.9-16.7-16v-32.24c0-7.9 5.7-14.9 13.6-15.7 21.71-2.3 42.21-10.2 57.71-22.41 13.8-10.9 33.61-13.2 47.11-2 38.31 31.71 107.22 31.81 145.23 1.7 13.7-10.9 33.2-13 46.7-1.8 38.51 31.91 107.82 31.91 145.73 1.5a38.79 38.79 0 0 1 48.21 0c15.8 12.41 36.4 20.41 57.91 22.91z" class="fa-secondary"/><path d="M562.2 383.93c-21.51-2.4-42.11-10.5-57.91-22.91a38.79 38.79 0 0 0-48.21 0c-37.91 30.41-107.22 30.41-145.73-1.5-13.5-11.2-33-9.1-46.7 1.8-38 30.11-106.92 30-145.23-1.7-13.5-11.2-33.31-8.9-47.11 2-15.5 12.21-36 20.11-57.71 22.41-7.9.8-13.6 7.8-13.6 15.7v32.21c0 9.1 7.6 16.8 16.7 16 28.81-2.5 56.11-11.4 79.42-25.9 56.51 34.61 137 34.1 192 0 56.51 34.61 137 34.1 192 0a185 185 0 0 0 79.12 25.8c9.1.8 16.7-6.9 16.7-16v-31.61c.16-8-5.64-15.4-13.74-16.3zm0-144c-21.51-2.4-42.11-10.5-57.91-22.9a38.79 38.79 0 0 0-48.21 0c-37.91 30.41-107.22 30.41-145.73-1.5-13.5-11.21-33-9.1-46.7 1.8-38 30.11-106.92 30-145.23-1.7-13.5-11.21-33.31-8.9-47.11 2-15.5 12.2-36 20.1-57.71 22.4C5.7 240.79 0 247.8 0 255.7v32.2c0 9.11 7.6 16.81 16.7 16 28.81-2.5 56.11-11.4 79.42-25.91 56.51 34.61 137 34.11 192 0 56.51 34.61 137 34.11 192 0a184.83 184.83 0 0 0 79.12 25.81c9.1.8 16.7-6.9 16.7-16v-31.6c.16-8-5.64-15.41-13.74-16.31z" class="fa-primary"/></svg>