<svg xmlns="http://www.w3.org/2000/svg" viewBox="0 0 640 512"><!-- Font Awesome Pro 5.15.4 by @fontawesome - https://fontawesome.com License - https://fontawesome.com/license (Commercial License) --><defs><style>.fa-secondary{opacity:.4}</style></defs><path d="M195.41 64.23a24 24 0 0 0-27.16 20.38l-28.19 197.33 27.47 137.36a23.82 23.82 0 0 1 0 8.79c0-.25.19-.45.23-.7l48-336a24 24 0 0 0-20.35-27.16zm-95.75 96.05a24 24 0 0 0-27.38 20.06L59.41 264H16a16 16 0 0 0-16 16v16a16 16 0 0 0 16 16h64a24 24 0 0 0 23.71-20.35l16-104a24 24 0 0 0-20.05-27.37zm352.12-96a23.94 23.94 0 0 0-27.47 19.9l-38.54 240.93 22 159.61a23.61 23.61 0 0 1-.51 8.28c.09-.43.35-.77.42-1.2l64-400a24 24 0 0 0-19.9-27.5zm96.94 96.17a23.91 23.91 0 0 0-28.25 18.83l-20.53 102.66 19.81 138.67a23.84 23.84 0 0 1-.5 8.82c.06-.26.23-.46.28-.73l48-240a24 24 0 0 0-18.81-28.23zM323.28.22a24 24 0 0 0-27.06 20.5l-42 304.39 25.47 159.09a23.78 23.78 0 0 1-.34 8.39c.09-.47.37-.84.43-1.31l64-464A24 24 0 0 0 323.28.22z" class="fa-secondary"/><path d="M119.31 178.78a23.7 23.7 0 0 1 .41 8.87l-16 104a23.94 23.94 0 0 1-7.81 14.23l24.56 122.82A24 24 0 0 0 144 448a23.39 23.39 0 0 0 4.75-.47 24 24 0 0 0 18.81-28.23l-48-240c-.07-.2-.2-.3-.25-.52zm96-95.68a23.65 23.65 0 0 1 .47 8.29l-22.44 156.85 39 243.56A24 24 0 0 0 256 512a23.56 23.56 0 0 0 3.81-.3 24 24 0 0 0 19.91-27.5l-64-400c-.09-.4-.36-.7-.44-1.1zM624 264h-43.41l-12.87-83.66c0-.2-.17-.35-.2-.55a23.83 23.83 0 0 1 0 8.91L544.1 305.88A23.87 23.87 0 0 0 560 312h64a16 16 0 0 0 16-16v-16a16 16 0 0 0-16-16zM343.28 19.29a23.66 23.66 0 0 1 .5 8L320 199.7l40.22 291.58A24 24 0 0 0 384 512a26.66 26.66 0 0 0 3.31-.22 24 24 0 0 0 20.5-27.06l-64-464c-.1-.52-.42-.92-.53-1.43zm128.07 64.19a23.86 23.86 0 0 1 .34 8.32l-25 156.44 25.59 179.15A24 24 0 0 0 496 448a27 27 0 0 0 3.44-.23 24 24 0 0 0 20.34-27.16l-48-336c-.09-.41-.35-.73-.43-1.13z" class="fa-primary"/></svg>