<svg xmlns="http://www.w3.org/2000/svg" viewBox="0 0 512 512"><!-- Font Awesome Pro 5.15.4 by @fontawesome - https://fontawesome.com License - https://fontawesome.com/license (Commercial License) --><defs><style>.fa-secondary{opacity:.4}</style></defs><path d="M256 320A160 160 0 1 0 96 160a160 160 0 0 0 160 160zm-.28-152l33.56-78.3a16 16 0 0 1 29.44 12.59l-33.58 78.33A40 40 0 1 1 255.72 168z" class="fa-secondary"/><path d="M512 128v320a64.07 64.07 0 0 1-64 64H64a64.07 64.07 0 0 1-64-64V128a64.07 64.07 0 0 1 64-64h26a190.6 190.6 0 0 0-26 96c0 105.87 86.13 192 192 192s192-86.13 192-192a190.6 190.6 0 0 0-26-96h26a64.07 64.07 0 0 1 64 64zM256 248a40 40 0 0 0 29.14-67.38l33.58-78.33a16 16 0 0 0-29.44-12.59L255.72 168a40 40 0 0 0 .28 80z" class="fa-primary"/></svg>