<svg xmlns="http://www.w3.org/2000/svg" viewBox="0 0 640 512"><!-- Font Awesome Pro 5.15.4 by @fontawesome - https://fontawesome.com License - https://fontawesome.com/license (Commercial License) --><defs><style>.fa-secondary{opacity:.4}</style></defs><path d="M634 326.36l-150-120a16.16 16.16 0 0 0-18.2-1.2l-27.4 16.21a8 8 0 0 1-9.1-.6l-25.2-20.21a8 8 0 0 1-2.6-8.9l10.2-29.51a16 16 0 0 0-5.1-17.7L320 80.8c-62.6-40.1-141.7-42.9-207-9.3C100.9 56.9 83.2 48 64 48a64.06 64.06 0 0 0-64 64 63.27 63.27 0 0 0 23 49c-40.1 78.24-27.5 176.56 38 242 89.8 89.82 251.11 81.42 326.51-32l150.41 86a15.93 15.93 0 0 0 20.7-4.3l78.2-104.33a16 16 0 0 0-2.82-22.01zM40.4 133.22A31.86 31.86 0 0 1 85.5 88.3c-17.8 13.01-29.9 24.32-45.1 44.92zM208 352a96 96 0 1 1 96-96 96 96 0 0 1-96 96z" class="fa-secondary"/><path d="M208 160a96 96 0 1 0 96 96 96 96 0 0 0-96-96zm0 144a48 48 0 1 1 48-48 48 48 0 0 1-48 48z" class="fa-primary"/></svg>