<svg xmlns="http://www.w3.org/2000/svg" viewBox="0 0 512 512"><!-- Font Awesome Pro 5.15.4 by @fontawesome - https://fontawesome.com License - https://fontawesome.com/license (Commercial License) --><defs><style>.fa-secondary{opacity:.4}</style></defs><path d="M464 32H48A48 48 0 0 0 0 80v352a48 48 0 0 0 48 48h416a48 48 0 0 0 48-48V80a48 48 0 0 0-48-48zm-83.6 290.5a12.31 12.31 0 0 1 0 17.4l-40.5 40.5a12.31 12.31 0 0 1-17.4 0L256 313.3l-66.5 67.1a12.31 12.31 0 0 1-17.4 0l-40.5-40.5a12.31 12.31 0 0 1 0-17.4l67.1-66.5-67.1-66.5a12.31 12.31 0 0 1 0-17.4l40.5-40.5a12.31 12.31 0 0 1 17.4 0l66.5 67.1 66.5-67.1a12.31 12.31 0 0 1 17.4 0l40.5 40.5a12.31 12.31 0 0 1 0 17.4L313.3 256z" class="fa-secondary"/><path d="M380.4 322.5a12.31 12.31 0 0 1 0 17.4l-40.5 40.5a12.31 12.31 0 0 1-17.4 0L256 313.3l-66.5 67.1a12.31 12.31 0 0 1-17.4 0l-40.5-40.5a12.31 12.31 0 0 1 0-17.4l67.1-66.5-67.1-66.5a12.31 12.31 0 0 1 0-17.4l40.5-40.5a12.31 12.31 0 0 1 17.4 0l66.5 67.1 66.5-67.1a12.31 12.31 0 0 1 17.4 0l40.5 40.5a12.31 12.31 0 0 1 0 17.4L313.3 256z" class="fa-primary"/></svg>