<svg xmlns="http://www.w3.org/2000/svg" viewBox="0 0 512 512"><!-- Font Awesome Pro 5.15.4 by @fontawesome - https://fontawesome.com License - https://fontawesome.com/license (Commercial License) --><defs><style>.fa-secondary{opacity:.4}</style></defs><path d="M464 32H48A48 48 0 0 0 0 80v80h512V80a48 48 0 0 0-48-48zm-240 96a32 32 0 1 1 32-32 32 32 0 0 1-32 32zm96 0a32 32 0 1 1 32-32 32 32 0 0 1-32 32zm96 0a32 32 0 1 1 32-32 32 32 0 0 1-32 32z" class="fa-secondary"/><path d="M320 128a32 32 0 1 0-32-32 32 32 0 0 0 32 32zm96 0a32 32 0 1 0-32-32 32 32 0 0 0 32 32zM0 160v272a48 48 0 0 0 48 48h416a48 48 0 0 0 48-48V160z" class="fa-primary"/></svg>