<svg xmlns="http://www.w3.org/2000/svg" viewBox="0 0 640 512"><!-- Font Awesome Pro 5.15.4 by @fontawesome - https://fontawesome.com License - https://fontawesome.com/license (Commercial License) --><defs><style>.fa-secondary{opacity:.4}</style></defs><path d="M384 192C384 86 298 0 192 0S0 86 0 192s86 192 192 192 192-86 192-192zM192 320a32 32 0 1 1 32-32 32 32 0 0 1-32 32zm38.2-238.4l-12.8 128a16 16 0 0 1-15.9 14.4h-19a16 16 0 0 1-15.9-14.4l-12.8-128A16 16 0 0 1 169.7 64h44.6a16 16 0 0 1 15.9 17.6z" class="fa-secondary"/><path d="M540.17 320H375.59a225.79 225.79 0 0 1-68.3 63.7 9 9 0 0 0 1.6.3h233.28c15.9 0 30.8 10.9 33.4 26.6a32 32 0 0 1-62 15.5c-2.1-6.3-8.6-10.1-15.2-10.1h-32.8a16.06 16.06 0 0 0-15.7 19.1 96 96 0 0 0 188.19-38.2c-8.89-45.6-51.49-76.9-97.89-76.9zm95.1-158.5a93.75 93.75 0 0 0-60.7-60.8c-59.09-18.4-114 19.1-124.69 72.4-2 9.8 5.8 18.9 15.7 18.9h32.8c6.7 0 13.1-3.8 15.2-10.1a32 32 0 0 1 62 15.5c-2.6 15.7-17.4 26.6-33.4 26.6h-128.8A223.2 223.2 0 0 1 394 288h150c62.77 0 111.77-60.7 91.27-126.5zM192 256a32 32 0 1 0 32 32 32 32 0 0 0-32-32zm22.3-192h-44.6a16 16 0 0 0-15.9 17.6l12.8 128a16 16 0 0 0 15.9 14.4h19a16 16 0 0 0 15.9-14.4l12.8-128A16 16 0 0 0 214.3 64z" class="fa-primary"/></svg>