<svg xmlns="http://www.w3.org/2000/svg" viewBox="0 0 512 512"><!-- Font Awesome Pro 5.15.4 by @fontawesome - https://fontawesome.com License - https://fontawesome.com/license (Commercial License) --><defs><style>.fa-secondary{opacity:.4}</style></defs><path d="M512 48v288a48 48 0 0 1-48 48h-48V176a80.11 80.11 0 0 0-80-80H128V48a48 48 0 0 1 48-48h288a48 48 0 0 1 48 48z" class="fa-secondary"/><path d="M336 128H48a48 48 0 0 0-48 48v288a48 48 0 0 0 48 48h288a48 48 0 0 0 48-48V176a48 48 0 0 0-48-48zm-20 128H64v-52a12 12 0 0 1 12-12h228a12 12 0 0 1 12 12z" class="fa-primary"/></svg>