<svg xmlns="http://www.w3.org/2000/svg" viewBox="0 0 576 512"><!-- Font Awesome Pro 5.15.4 by @fontawesome - https://fontawesome.com License - https://fontawesome.com/license (Commercial License) --><defs><style>.fa-secondary{opacity:.4}</style></defs><path d="M158.2 288h38.72l14.91-64h-66.67zm-19.57-96h80.65l14.91-64h-108.6zM16 192h58.83l-.1-.45L60.53 128H16a16 16 0 0 0-16 16v32a16 16 0 0 0 16 16zm285.18 32h-26.36L260 287.7l-.07.3h56.14l-.07-.3zM82 224H16a16 16 0 0 0-16 16v32a16 16 0 0 0 16 16h80.43l-.07-.3zm478-96h-44.53l-14.2 63.55-.1.45H560a16 16 0 0 0 16-16v-32a16 16 0 0 0-16-16zm0 96h-66l-14.33 63.7-.07.3H560a16 16 0 0 0 16-16v-32a16 16 0 0 0-16-16zm-203.28-32h80.65l13-64H341.81zm22.36 96h38.72l13-64h-66.63z" class="fa-secondary"/><path d="M534 44a11.89 11.89 0 0 1-.29 2.59l-18.12 80.83-14.32 64.1-7.21 32-14.42 64.1-41 182.88A12 12 0 0 1 427 480h-56.92a12.11 12.11 0 0 1-11.72-9.31L316 287.7 299.08 215c-1.9-8-3.5-16-4.81-23.44h-12.54c-1.31 7.44-2.91 15.44-4.81 23.44L260 287.7l-42.36 183a12.11 12.11 0 0 1-11.72 9.3H149a12 12 0 0 1-11.72-9.42l-41-182.88-14.34-64.1-7.21-32-14.32-64.1-18.12-80.88A11.89 11.89 0 0 1 42 44a12 12 0 0 1 12-12h42.16A12 12 0 0 1 108 41.62l61.19 300.16a438.29 438.29 0 0 1 6.81 47.28h1.1c.5 0 1.1-21.44 7.31-47.28l70-300.47A12 12 0 0 1 266.1 32h43.8a12 12 0 0 1 11.71 9.31l70 300.47c6.21 25.84 6.81 47.28 7.31 47.28H400a438.29 438.29 0 0 1 6.81-47.28L468 41.62A12 12 0 0 1 479.84 32H522a12 12 0 0 1 12 12z" class="fa-primary"/></svg>