<svg xmlns="http://www.w3.org/2000/svg" viewBox="0 0 512 512"><!-- Font Awesome Pro 5.15.4 by @fontawesome - https://fontawesome.com License - https://fontawesome.com/license (Commercial License) --><defs><style>.fa-secondary{opacity:.4}</style></defs><path d="M322 280.47l-.26.26a144.62 144.62 0 0 1-90.3-90.64L18.09 403.41a64 64 0 0 0 90.5 90.5L322 280.49zM63.35 472.65a24 24 0 1 1 24-24 24 24 0 0 1-24 24z" class="fa-secondary"/><path d="M469.69 246.2c-40 40-97.48 51-147.72 34.27l-.26.26a144.64 144.64 0 0 1-90.41-90.94l.13-.13c-16.54-50.17-5.6-107.71 34.13-147.4a144.38 144.38 0 0 1 136.91-38 12 12 0 0 1 5.67 20.19l-74.53 74.48 11.33 68L413 178.28l74.53-74.52a12 12 0 0 1 20.17 5.52 144 144 0 0 1-38.01 136.92z" class="fa-primary"/></svg>