<svg xmlns="http://www.w3.org/2000/svg" viewBox="0 0 448 512"><!-- Font Awesome Pro 5.15.4 by @fontawesome - https://fontawesome.com License - https://fontawesome.com/license (Commercial License) --><path d="M224,0C100.28125,0,0,88.0293,0,232.45117,0,344.22852,134.21484,457.04883,194.86328,502.32422a48.70766,48.70766,0,0,0,58.27344,0C313.78516,457.04883,448,344.22852,448,232.45117,448,88.0293,347.71875,0,224,0ZM176,320H144a80.00021,80.00021,0,0,1-80-80,15.99954,15.99954,0,0,1,16-16h32a79.999,79.999,0,0,1,80,80A16.00079,16.00079,0,0,1,176,320Zm128,0H272a16.00079,16.00079,0,0,1-16-16,79.999,79.999,0,0,1,80-80h32a15.99954,15.99954,0,0,1,16,16A80.00021,80.00021,0,0,1,304,320Z"/></svg>