<svg xmlns="http://www.w3.org/2000/svg" viewBox="0 0 576 512"><!-- Font Awesome Pro 5.15.4 by @fontawesome - https://fontawesome.com License - https://fontawesome.com/license (Commercial License) --><path d="M560,128H528a15.99954,15.99954,0,0,0-16,16v80H480V176a15.99954,15.99954,0,0,0-16-16H416V96h48a16.00079,16.00079,0,0,0,16-16V48a15.99954,15.99954,0,0,0-16-16H432a15.99954,15.99954,0,0,0-16,16V64H368a15.99954,15.99954,0,0,0-16,16v48H224V80a15.99954,15.99954,0,0,0-16-16H160V48a15.99954,15.99954,0,0,0-16-16H112A15.99954,15.99954,0,0,0,96,48V80a16.00079,16.00079,0,0,0,16,16h48v64H112a15.99954,15.99954,0,0,0-16,16v48H64V144a15.99954,15.99954,0,0,0-16-16H16A15.99954,15.99954,0,0,0,0,144V272a16.00079,16.00079,0,0,0,16,16H64v80a16.00079,16.00079,0,0,0,16,16h48v80a16.00079,16.00079,0,0,0,16,16h96a16.00079,16.00079,0,0,0,16-16V432a15.99954,15.99954,0,0,0-16-16H192V384H384v32H336a15.99954,15.99954,0,0,0-16,16v32a16.00079,16.00079,0,0,0,16,16h96a16.00079,16.00079,0,0,0,16-16V384h48a16.00079,16.00079,0,0,0,16-16V288h48a16.00079,16.00079,0,0,0,16-16V144A15.99954,15.99954,0,0,0,560,128ZM224,320H160V224h64Zm192,0H352V224h64Z"/></svg>