<svg xmlns="http://www.w3.org/2000/svg" viewBox="0 0 512 512"><!-- Font Awesome Pro 5.15.4 by @fontawesome - https://fontawesome.com License - https://fontawesome.com/license (Commercial License) --><path d="M120 224a24 24 0 1 0-24-24 24 24 0 0 0 24 24zm272 0a24 24 0 1 0-24-24 24 24 0 0 0 24 24zm72-144h-61.5C377.75 52.71 321.51 0 256 0S134.25 52.71 109.5 80H48a48 48 0 0 0-48 48v336a48 48 0 0 0 48 48h416a48 48 0 0 0 48-48V128a48 48 0 0 0-48-48zM256 48c26.9 0 54 14.79 76.25 32h-152.5C202 62.77 229.1 48 256 48zM96 400a16 16 0 1 1 16-16 16 16 0 0 1-16 16zm32 48a16 16 0 1 1 16-16 16 16 0 0 1-16 16zm-16-112a16 16 0 1 1 16 16 16 16 0 0 1-16-16zm48 64a16 16 0 1 1 16-16 16 16 0 0 1-16 16zm32 48a16 16 0 1 1 16-16 16 16 0 0 1-16 16zm-16-112a16 16 0 1 1 16 16 16 16 0 0 1-16-16zm48 64a16 16 0 1 1 16-16 16 16 0 0 1-16 16zm32 48a16 16 0 1 1 16-16 16 16 0 0 1-16 16zm-16-112a16 16 0 1 1 16 16 16 16 0 0 1-16-16zm48 64a16 16 0 1 1 16-16 16 16 0 0 1-16 16zm32 48a16 16 0 1 1 16-16 16 16 0 0 1-16 16zm-16-112a16 16 0 1 1 16 16 16 16 0 0 1-16-16zm48 64a16 16 0 1 1 16-16 16 16 0 0 1-16 16zm32 48a16 16 0 1 1 16-16 16 16 0 0 1-16 16zm-16-112a16 16 0 1 1 16 16 16 16 0 0 1-16-16zm48 64a16 16 0 1 1 16-16 16 16 0 0 1-16 16zm32-144H64V144h384zm-248-32a24 24 0 1 0-24-24 24 24 0 0 0 24 24zm112 0a24 24 0 1 0-24-24 24 24 0 0 0 24 24z"/></svg>