<svg xmlns="http://www.w3.org/2000/svg" viewBox="0 0 512 512"><!-- Font Awesome Pro 5.15.4 by @fontawesome - https://fontawesome.com License - https://fontawesome.com/license (Commercial License) --><path d="M352.634 428.621l-74.007 74.007c-12.497 12.497-32.758 12.497-45.255 0l-74.007-74.007c-9.373-9.373-9.373-24.569 0-33.941l10.84-10.84c9.556-9.556 25.113-9.341 34.402.474L228 410.365V284H101.635l26.051 23.392c9.815 9.289 10.03 24.846.474 34.402l-10.84 10.84c-9.373 9.373-24.569 9.373-33.941 0L9.373 278.627c-12.497-12.497-12.497-32.758 0-45.255l74.007-74.007c9.373-9.373 24.569-9.373 33.941 0l10.84 10.84c9.556 9.556 9.341 25.114-.474 34.402L101.635 228H228V101.635l-23.392 26.051c-9.289 9.815-24.846 10.03-34.402.474l-10.84-10.84c-9.373-9.373-9.373-24.569 0-33.941l74.007-74.007c12.497-12.497 32.758-12.497 45.255 0l74.007 74.007c9.373 9.373 9.373 24.569 0 33.941l-10.84 10.84c-9.556 9.556-25.113 9.341-34.402-.474L284 101.635V228h126.365l-26.051-23.392c-9.815-9.289-10.03-24.846-.474-34.402l10.84-10.84c9.373-9.373 24.569-9.373 33.941 0l74.007 74.007c12.497 12.497 12.497 32.758 0 45.255l-74.007 74.007c-9.373 9.373-24.569 9.373-33.941 0l-10.84-10.84c-9.556-9.556-9.341-25.113.474-34.402L410.365 284H284v126.365l23.392-26.051c9.289-9.815 24.846-10.03 34.402-.474l10.84 10.84c9.373 9.372 9.373 24.568 0 33.941z"/></svg>