<svg xmlns="http://www.w3.org/2000/svg" viewBox="0 0 448 512"><!-- Font Awesome Pro 5.15.4 by @fontawesome - https://fontawesome.com License - https://fontawesome.com/license (Commercial License) --><path d="M448 88v336c0 13.3-10.7 24-24 24h-24c-13.3 0-24-10.7-24-24V88c0-13.3 10.7-24 24-24h24c13.3 0 24 10.7 24 24zM193.5 357.6L127.9 292H328c13.3 0 24-10.7 24-24v-24c0-13.3-10.7-24-24-24H127.9l65.6-65.6c9.4-9.4 9.4-24.6 0-33.9l-17-17c-9.4-9.4-24.6-9.4-33.9 0L7 239c-9.4 9.4-9.4 24.6 0 33.9l135.5 135.5c9.4 9.4 24.6 9.4 33.9 0l17-17c9.4-9.3 9.4-24.5.1-33.8z"/></svg>