<svg xmlns="http://www.w3.org/2000/svg" viewBox="0 0 384 512"><!-- Font Awesome Pro 5.15.4 by @fontawesome - https://fontawesome.com License - https://fontawesome.com/license (Commercial License) --><path d="M360 480H24c-13.3 0-24-10.7-24-24v-24c0-13.3 10.7-24 24-24h336c13.3 0 24 10.7 24 24v24c0 13.3-10.7 24-24 24zm-66.4-280.5L228 265.1V56c0-13.3-10.7-24-24-24h-24c-13.3 0-24 10.7-24 24v209.1l-65.6-65.6c-9.4-9.4-24.6-9.4-33.9 0l-17 17c-9.4 9.4-9.4 24.6 0 33.9L175 385.9c9.4 9.4 24.6 9.4 33.9 0l135.5-135.5c9.4-9.4 9.4-24.6 0-33.9l-17-17c-9.3-9.4-24.5-9.4-33.8 0z"/></svg>