<svg xmlns="http://www.w3.org/2000/svg" viewBox="0 0 512 512"><!-- Font Awesome Pro 5.15.4 by @fontawesome - https://fontawesome.com License - https://fontawesome.com/license (Commercial License) --><path d="M105.815 288h300.371l-46.208 43.728c-9.815 9.289-10.03 24.846-.474 34.402l10.84 10.84c9.373 9.373 24.569 9.373 33.941 0l98.343-98.343c12.497-12.497 12.497-32.758 0-45.255l-98.343-98.343c-9.373-9.373-24.569-9.373-33.941 0l-10.84 10.84c-9.556 9.556-9.341 25.113.474 34.402L406.186 224H105.815l46.208-43.728c9.815-9.289 10.03-24.846.474-34.402l-10.84-10.84c-9.373-9.373-24.569-9.373-33.941 0L9.373 233.372c-12.497 12.497-12.497 32.758 0 45.255l98.343 98.343c9.373 9.373 24.569 9.373 33.941 0l10.84-10.84c9.556-9.556 9.341-25.113-.474-34.402L105.815 288z"/></svg>