<svg xmlns="http://www.w3.org/2000/svg" viewBox="0 0 448 512"><!-- Font Awesome Pro 5.15.4 by @fontawesome - https://fontawesome.com License - https://fontawesome.com/license (Commercial License) --><path d="M400.87913,256.00022c47.5017,76.32937,66.25237,155.12752,22.2508,199.12823-41.439,41.42255-115.89477,29.188-199.13212-22.60974-83.58112,52.0321-157.8494,63.89166-199.13212,22.60974C-19.13589,411.12774-.38522,332.32959,47.11648,256.00022-.38522,179.67086-19.13589,100.87271,24.86569,56.872,68.86726,12.93378,147.65133,31.65283,223.98218,79.12235,300.29741,31.62158,379.0971,12.85565,423.12993,56.872,467.1315,100.87271,448.39646,179.67086,400.87913,256.00022ZM167.38641,391.68992c-26.07906-21.48472-50.36118-43.89133-79.19033-78.86065-24.86027,47.23514-30.423,84.68887-18.07877,97.04845C82.50837,422.26855,120.041,416.65908,167.38641,391.68992ZM88.19608,199.17118a561.57489,561.57489,0,0,1,79.1747-79.12629c-31.00111-16.35964-57.78331-24.40664-76.00271-24.40664-9.67223,0-16.93811,2.20316-21.25076,6.48448C57.77311,114.49793,63.35144,151.936,88.19608,199.17118Zm234.74277,56.84467a511.44441,511.44441,0,0,0-98.92542-99.42349,511.2289,511.2289,0,0,0-98.941,99.42349c25.90717,34.01618,54.11131,64.7823,98.92541,98.92348C258.06153,328.98578,288.797,300.81345,322.93885,256.01585Zm-66.92427-.01563a32.01677,32.01677,0,1,1-32.01677-32.01614A32.00909,32.00909,0,0,1,256.01458,256.00022ZM377.87831,102.13835c-4.31265-4.29694-11.57854-6.48448-21.25076-6.48448-18.20378,0-45.00161,8.03138-76.00272,24.391a563.57476,563.57476,0,0,1,79.17471,79.12629C384.64418,151.936,390.2225,114.49793,377.87831,102.13835ZM359.79954,312.82927c-28.92291,35.09432-53.205,57.46968-79.17471,78.86065,47.32982,24.93791,84.84679,30.51612,97.25348,18.1878C390.2225,397.51814,384.64418,360.06441,359.79954,312.82927Z"/></svg>