<svg xmlns="http://www.w3.org/2000/svg" viewBox="0 0 640 512"><!-- Font Awesome Pro 5.15.4 by @fontawesome - https://fontawesome.com License - https://fontawesome.com/license (Commercial License) --><path d="M4.69 439.43c-6.25 6.25-6.25 16.38 0 22.63l45.26 45.25c6.25 6.25 16.38 6.25 22.63 0l235.87-235.87-67.88-67.88L4.69 439.43zM525.74 160l-52.93-52.93 34.5-34.5c6.25-6.25 6.25-16.38 0-22.63L462.06 4.69c-6.25-6.25-16.38-6.25-22.63 0l-34.5 34.5-29.81-29.82C368.87 3.12 360.68 0 352.49 0s-16.38 3.12-22.63 9.37l-96.49 96.49c-12.5 12.5-12.5 32.76 0 45.25L384 301.74V416h32c123.71 0 224-100.29 224-224v-32H525.74zM448 348.79v-37.94c39.28-16.25 70.6-47.56 86.84-86.84h37.94C560.03 286.6 510.6 336.03 448 348.79z"/></svg>