<svg xmlns="http://www.w3.org/2000/svg" viewBox="0 0 384 512"><!-- Font Awesome Pro 5.15.4 by @fontawesome - https://fontawesome.com License - https://fontawesome.com/license (Commercial License) --><path d="M360 0H24C10.7 0 0 10.7 0 24v464c0 13.3 10.7 24 24 24h336c13.3 0 24-10.7 24-24V24c0-13.3-10.7-24-24-24zM64 112c0-8.8 7.2-16 16-16h32c8.8 0 16 7.2 16 16v32c0 8.8-7.2 16-16 16H80c-8.8 0-16-7.2-16-16v-32zm1.6 129.4l12.7-12.6c2.1-2.1 5.5-2.1 7.6 0l20.6 20.8 47.6-47.2c2.1-2.1 5.5-2.1 7.6 0l12.6 12.7c2.1 2.1 2.1 5.5 0 7.6l-64.2 63.6c-2.1 2.1-5.5 2.1-7.6 0L65.6 249c-2.1-2.1-2.1-5.5 0-7.6zM128 400c0 8.8-7.2 16-16 16H80c-8.8 0-16-7.2-16-16v-32c0-8.8 7.2-16 16-16h32c8.8 0 16 7.2 16 16v32zm192-8c0 4.4-3.6 8-8 8H168c-4.4 0-8-3.6-8-8v-16c0-4.4 3.6-8 8-8h144c4.4 0 8 3.6 8 8v16zm0-128c0 4.4-4.3 8-9.6 8H170.2s29.2-30.2 30.4-32h109.7c5.3 0 9.6 3.6 9.6 8v16zm0-128c0 4.4-3.6 8-8 8H168c-4.4 0-8-3.6-8-8v-16c0-4.4 3.6-8 8-8h144c4.4 0 8 3.6 8 8v16z"/></svg>