<svg xmlns="http://www.w3.org/2000/svg" viewBox="0 0 512 512"><!-- Font Awesome Pro 5.15.4 by @fontawesome - https://fontawesome.com License - https://fontawesome.com/license (Commercial License) --><path d="M502.63 39L473.05 9.37a32 32 0 0 0-45.26 0l-46.31 46.32A35.26 35.26 0 0 0 373 69.48l-12.19 36.59L286 180.79c-19.93-13.49-43.08-22.24-67.86-26.15v-.46a26.18 26.18 0 0 0-52.36 0v.46a166.32 166.32 0 0 0-72.28 29.82l-.23-.23a26.18 26.18 0 0 0-37 37l.23.22a166.31 166.31 0 0 0-29.84 72.34h-.46a26.18 26.18 0 0 0 0 52.36h.46a166.31 166.31 0 0 0 29.84 72.34l-.23.22a26.18 26.18 0 1 0 37 37l.23-.23a166.32 166.32 0 0 0 72.32 29.82v.46a26.18 26.18 0 0 0 52.36 0v-.46a166.32 166.32 0 0 0 72.32-29.82l.23.23a26.18 26.18 0 1 0 37-37l-.23-.22a166.31 166.31 0 0 0 29.84-72.34h.46a26.18 26.18 0 0 0 0-52.36h-.46c-3.9-24.74-12.62-47.87-26.07-67.78l74.88-74.88 36.35-12.11a35.26 35.26 0 0 0 13.79-8.53l46.32-46.31a32 32 0 0 0 .02-45.18zM192 432a112 112 0 1 1 112-112 112.12 112.12 0 0 1-112 112zm-39-125.65a8 8 0 0 0-11.32 0l-11.31 11.31a8 8 0 0 0 0 11.31L183 381.66a8 8 0 0 0 11.31 0l11.31-11.31a8 8 0 0 0 0-11.32z"/></svg>