<svg xmlns="http://www.w3.org/2000/svg" viewBox="0 0 640 512"><!-- Font Awesome Pro 5.15.4 by @fontawesome - https://fontawesome.com License - https://fontawesome.com/license (Commercial License) --><path d="M184 128h-48c-4.4 0-8 3.6-8 8v240c0 4.4 3.6 8 8 8h48c4.4 0 8-3.6 8-8V136c0-4.4-3.6-8-8-8zm-40 320H64v-80c0-8.8-7.2-16-16-16H16c-8.8 0-16 7.2-16 16v128c0 8.8 7.2 16 16 16h128c8.8 0 16-7.2 16-16v-32c0-8.8-7.2-16-16-16zm104-320h-16c-4.4 0-8 3.6-8 8v240c0 4.4 3.6 8 8 8h16c4.4 0 8-3.6 8-8V136c0-4.4-3.6-8-8-8zM16 160h32c8.8 0 16-7.2 16-16V64h80c8.8 0 16-7.2 16-16V16c0-8.8-7.2-16-16-16H16C7.2 0 0 7.2 0 16v128c0 8.8 7.2 16 16 16zm392-32h-48c-4.4 0-8 3.6-8 8v240c0 4.4 3.6 8 8 8h48c4.4 0 8-3.6 8-8V136c0-4.4-3.6-8-8-8zm-96 0h-16c-4.4 0-8 3.6-8 8v240c0 4.4 3.6 8 8 8h16c4.4 0 8-3.6 8-8V136c0-4.4-3.6-8-8-8zM624 0H496c-8.8 0-16 7.2-16 16v32c0 8.8 7.2 16 16 16h80v80c0 8.8 7.2 16 16 16h32c8.8 0 16-7.2 16-16V16c0-8.8-7.2-16-16-16zm0 352h-32c-8.8 0-16 7.2-16 16v80h-80c-8.8 0-16 7.2-16 16v32c0 8.8 7.2 16 16 16h128c8.8 0 16-7.2 16-16V368c0-8.8-7.2-16-16-16zm-112 24V136c0-4.4-3.6-8-8-8h-48c-4.4 0-8 3.6-8 8v240c0 4.4 3.6 8 8 8h48c4.4 0 8-3.6 8-8z"/></svg>