<svg xmlns="http://www.w3.org/2000/svg" viewBox="0 0 640 512"><!-- Font Awesome Pro 5.15.4 by @fontawesome - https://fontawesome.com License - https://fontawesome.com/license (Commercial License) --><path d="M558.44 129.7c-7.64-17.82-29.25-24.81-45.88-14.83L411.83 175.3 384 64l-42.67 32h-42.67L256 64l-27.83 111.3-100.74-60.44c-16.63-9.98-38.24-2.99-45.88 14.83L0 320l49.62-16.54c27.38-9.13 57.48 1.2 73.49 25.21L160 384l11.82-11.82c27.54-27.54 73.09-24.3 96.46 6.85L320 448l51.72-68.97c23.37-31.16 68.91-34.39 96.46-6.85L480 384l36.88-55.33c16.01-24.01 46.11-34.34 73.49-25.21L640 320l-81.56-190.3z"/></svg>