<svg xmlns="http://www.w3.org/2000/svg" viewBox="0 0 640 512"><!-- Font Awesome Pro 5.15.4 by @fontawesome - https://fontawesome.com License - https://fontawesome.com/license (Commercial License) --><path d="M64 352h178.778l-14.173 64H48c-26.51 0-48-21.49-48-48V144c0-26.51 21.49-48 48-48h115.944l-7.663 64H64v192zm364.778-160h-92.321l27.694-133.589C367.4 45.087 358.205 32 345.6 32H236.8c-9.623 0-17.76 7.792-19.031 18.225L192.171 264c-1.535 12.59 7.432 23.775 19.031 23.775h94.961l-36.847 166.382C266.44 467.443 275.728 480 287.993 480c6.68 0 13.101-3.827 16.623-10.481l140.778-245.997C452.79 209.55 443.564 192 428.778 192zM616 160h-8v-16c0-26.51-21.49-48-48-48H405.38l-9.951 48h33.349c16.112 0 31.233 5.762 43.115 16H544v64h32v64h-32v64H427.174l-36.626 64H560c26.51 0 48-21.49 48-48v-16h8c13.255 0 24-10.745 24-24V184c0-13.255-10.745-24-24-24z"/></svg>