<svg xmlns="http://www.w3.org/2000/svg" viewBox="0 0 576 512"><!-- Font Awesome Pro 5.15.4 by @fontawesome - https://fontawesome.com License - https://fontawesome.com/license (Commercial License) --><path d="M464,0H240a16,16,0,0,0-16,16V128H64V16A16,16,0,0,0,48,0H16A16,16,0,0,0,0,16V496a16,16,0,0,0,16,16H48a16,16,0,0,0,16-16V448H512v48a16,16,0,0,0,16,16h32a16,16,0,0,0,16-16V112A112,112,0,0,0,464,0Zm48,267.19A110.9,110.9,0,0,0,464,256H240a16,16,0,0,0-16,16V384H64V192H512ZM144,352a48,48,0,1,0-48-48A48.05,48.05,0,0,0,144,352Zm0-256A48,48,0,1,0,96,48,48.05,48.05,0,0,0,144,96Z"/></svg>