<svg xmlns="http://www.w3.org/2000/svg" viewBox="0 0 640 512"><!-- Font Awesome Pro 5.15.4 by @fontawesome - https://fontawesome.com License - https://fontawesome.com/license (Commercial License) --><path d="M112,256h96a16,16,0,0,0,16-16V144a16,16,0,0,0-16-16H112a16,16,0,0,0-16,16v96A16,16,0,0,0,112,256ZM528,128H272a16,16,0,0,0-16,16V288H64V80A16,16,0,0,0,48,64H16A16,16,0,0,0,0,80V432a16,16,0,0,0,16,16H48a16,16,0,0,0,16-16V384H576v48a16,16,0,0,0,16,16h32a16,16,0,0,0,16-16V240A112,112,0,0,0,528,128Z"/></svg>