<svg xmlns="http://www.w3.org/2000/svg" viewBox="0 0 448 512"><!-- Font Awesome Pro 5.15.4 by @fontawesome - https://fontawesome.com License - https://fontawesome.com/license (Commercial License) --><path d="M224 512a64 64 0 0 0 64-64H160a64 64 0 0 0 64 64zm215.39-149.71c-19.32-20.76-55.47-52-55.47-154.29 0-77.7-54.48-139.9-127.94-155.16V32a32 32 0 1 0-64 0v20.84C118.56 68.1 64.08 130.3 64.08 208c0 102.3-36.15 133.53-55.47 154.29A31.24 31.24 0 0 0 0 384c.11 16.4 13 32 32.1 32h383.8c19.12 0 32-15.6 32.1-32a31.23 31.23 0 0 0-8.61-21.71zM224 352a32 32 0 1 1 32-32 32 32 0 0 1-32 32zm25.4-110.4a16 16 0 0 1-15.9 14.4h-19a16 16 0 0 1-15.9-14.4l-12.8-96a16.06 16.06 0 0 1 15.9-17.6h44.6a16 16 0 0 1 15.9 17.6z"/></svg>