<svg xmlns="http://www.w3.org/2000/svg" viewBox="0 0 640 512"><!-- Font Awesome Pro 5.15.4 by @fontawesome - https://fontawesome.com License - https://fontawesome.com/license (Commercial License) --><path d="M272 448c-54.06 0-103.83-18.18-144-48.46V480c0 17.67 14.33 32 32 32h224c17.67 0 32-14.33 32-32v-28.47l-37.66-29.11C346.23 438.51 310.29 448 272 448zm78.19-47.33L65.95 180.99C64.8 189.85 64 198.82 64 208c0 114.88 93.12 208 208 208 27.68 0 54.04-5.52 78.19-15.33zm283.63 57.43l-72.26-55.85C570.45 393.54 576 381.43 576 368c0-26.51-21.49-48-48-48-17.82 0-33.2 9.83-41.48 24.25l-36.81-28.45C468.88 284.38 480 247.52 480 208 480 93.12 386.87 0 272 0c-58.54 0-111.06 24.5-148.8 63.45L45.47 3.37C38.49-2.05 28.43-.8 23.01 6.18L3.37 31.45C-2.05 38.42-.8 48.47 6.18 53.9l588.35 454.73c6.98 5.43 17.03 4.17 22.46-2.81l19.64-25.27c5.42-6.97 4.17-17.02-2.81-22.45zM346.64 236.15l-27.35-21.14c.34-2.31.71-4.61.71-7.01 0-26.51-21.49-48-48-48-6.7 0-13.07 1.39-18.87 3.87l-27-20.87c12.98-9.29 28.68-15 45.87-15 44.11 0 80 35.89 80 80 0 9.95-2.02 19.37-5.36 28.15z"/></svg>