<svg xmlns="http://www.w3.org/2000/svg" viewBox="0 0 512 512"><!-- Font Awesome Pro 5.15.4 by @fontawesome - https://fontawesome.com License - https://fontawesome.com/license (Commercial License) --><path d="M512 96c0-52.9-43.1-96-96-96H96C43.1 0 0 43.1 0 96v288c0 70.7 57.3 128 128 128h368c8.8 0 16-7.2 16-16v-32c0-8.8-7.2-16-16-16H128c-35.3 0-64-28.7-64-64s28.7-64 64-64h304c8.8 0 16 7.2 16 16s-7.2 16-16 16H128c-17.7 0-32 14.3-32 32s14.3 32 32 32h299.3c41.8 0 80.1-30 84.3-71.6.3-2.9.4-248.4.4-248.4z"/></svg>