<svg xmlns="http://www.w3.org/2000/svg" viewBox="0 0 512 512"><!-- Font Awesome Pro 5.15.4 by @fontawesome - https://fontawesome.com License - https://fontawesome.com/license (Commercial License) --><path d="M96,226.94V160H16L0,256H66.94A47.82,47.82,0,0,1,96,226.94ZM157.06,288a47.73,47.73,0,0,1-90.12,0H16L0,384H512l-16-96ZM16,416,0,512H512l-16-96ZM512,48V16A16,16,0,0,0,496,0H16A16,16,0,0,0,0,16V48A15.85,15.85,0,0,0,10.84,63L0,128H96V64h32v64H512L501.16,63A15.85,15.85,0,0,0,512,48ZM128,160v66.94A47.82,47.82,0,0,1,157.06,256H512l-16-96Z"/></svg>