<svg xmlns="http://www.w3.org/2000/svg" viewBox="0 0 640 512"><!-- Font Awesome Pro 5.15.4 by @fontawesome - https://fontawesome.com License - https://fontawesome.com/license (Commercial License) --><path d="M598.88 148.56c25.2-12.6 41.12-38.36 41.12-66.53v-7.64C640 33.3 606.7 0 565.62 0c-32.02 0-60.44 20.49-70.57 50.86l-7.75 23.26A32.006 32.006 0 0 1 456.94 96H352l32 64-32 64h104.94c13.77 0 26 8.81 30.36 21.88l7.75 23.26C505.17 299.51 533.6 320 565.61 320c41.08 0 74.38-33.3 74.38-74.39v-7.64c0-28.18-15.92-53.93-41.12-66.53-9.42-4.71-9.42-18.17.01-22.88zM320 282.51L256 256l-26.51-64-62.97 62.97c-9.74 9.74-24.62 12.15-36.94 5.99L107.65 250c-28.64-14.32-63.22-8.71-85.87 13.93-29.05 29.05-29.05 76.15 0 105.2l5.4 5.4c19.92 19.92 49.39 26.88 76.12 17.97 10-3.33 19.51 6.18 16.18 16.18-8.91 26.73-1.95 56.2 17.97 76.12l5.4 5.4c29.05 29.05 76.15 29.05 105.2 0 22.64-22.64 28.25-57.23 13.93-85.87l-10.96-21.93c-6.16-12.32-3.75-27.2 5.99-36.94L320 282.51z"/></svg>