<svg xmlns="http://www.w3.org/2000/svg" viewBox="0 0 448 512"><!-- Font Awesome Pro 5.15.4 by @fontawesome - https://fontawesome.com License - https://fontawesome.com/license (Commercial License) --><path d="M448 358.4V25.6c0-16-9.6-25.6-25.6-25.6H96C41.6 0 0 41.6 0 96v320c0 54.4 41.6 96 96 96h326.4c12.8 0 25.6-9.6 25.6-25.6v-16q0-9.6-9.6-19.2c-3.2-16-3.2-60.8 0-73.6q9.6-4.8 9.6-19.2zM240 64a64 64 0 1 1-64 64 64 64 0 0 1 64-64zM128 281.6c0-31.81 30.09-57.6 67.2-57.6h5a103.25 103.25 0 0 0 79.7 0h4.95c37.11 0 67.2 25.79 67.2 57.6v19.2c0 10.61-10 19.2-22.4 19.2H150.4c-12.4 0-22.4-8.6-22.4-19.2zM380.8 448H96c-19.2 0-32-12.8-32-32s16-32 32-32h284.8z"/></svg>