<svg xmlns="http://www.w3.org/2000/svg" viewBox="0 0 640 512"><!-- Font Awesome Pro 5.15.4 by @fontawesome - https://fontawesome.com License - https://fontawesome.com/license (Commercial License) --><path d="M128 128a128 128 0 1 0 128 128 128 128 0 0 0-128-128zm64 144a5.33 5.33 0 0 1-5.33 5.33h-37.34v37.34A5.33 5.33 0 0 1 144 320h-32a5.33 5.33 0 0 1-5.33-5.33v-37.34H69.33A5.33 5.33 0 0 1 64 272v-32a5.33 5.33 0 0 1 5.33-5.33h37.34v-37.34A5.33 5.33 0 0 1 112 192h32a5.33 5.33 0 0 1 5.33 5.33v37.34h37.34A5.33 5.33 0 0 1 192 240zM64 480a32 32 0 0 0 32 32h64a32 32 0 0 0 32-32v-64H64zM192 32a32 32 0 0 0-32-32H96a32 32 0 0 0-32 32v64h128zm447.11 411.25L525.51 19.06C522.2 6.7 509.61-3.18 494.15 1L478.7 5.1q-9.27 2.49-16.06 14.24c-14 6.94-52.3 17.21-68 18.22q-11.76-6.8-21-4.3l-15.49 4.14c-2.42.65-4.2 2-6.15 3.08V32a32 32 0 0 0-32-32h-64a32 32 0 0 0-32 32v64h128l101.66 396.94C457 505.3 469.56 515.18 485 511l15.45-4.14q9.27-2.49 16.06-14.24c13.91-6.88 52.18-17.2 68-18.22q11.76 6.8 21 4.3l15.49-4.1c15.47-4.14 21.43-18.99 18.11-31.35zm-134.4-7.06L412.64 92.37l61.82-16.56 92.07 343.82zM224 128.81c38.62 29.24 64 75.12 64 127.19s-25.38 98-64 127.19v.81h128V128H224zM224 480a32 32 0 0 0 32 32h64a32 32 0 0 0 32-32v-64H224z"/></svg>