<svg xmlns="http://www.w3.org/2000/svg" viewBox="0 0 576 512"><!-- Font Awesome Pro 5.15.4 by @fontawesome - https://fontawesome.com License - https://fontawesome.com/license (Commercial License) --><path d="M575.11 443.25L461.51 19.06C458.2 6.7 445.61-3.18 430.15.96L414.7 5.1c-6.18 1.66-11.53 6.4-16.06 14.24-14.03 6.94-52.3 17.21-68 18.22-7.84-4.53-14.85-5.96-21.03-4.3l-15.46 4.14c-2.42.65-4.2 1.95-6.15 3.08V32c0-17.67-14.33-32-32-32h-64c-17.67 0-32 14.33-32 32v64h128l101.66 396.94c3.31 12.36 15.9 22.24 31.36 18.1l15.45-4.14c6.18-1.66 11.53-6.4 16.06-14.24 13.91-6.88 52.18-17.2 68-18.22 7.84 4.53 14.85 5.96 21.03 4.3l15.46-4.14c15.45-4.14 21.41-18.99 18.09-31.35zm-134.4-7.06L348.64 92.37l61.82-16.56 92.07 343.82-61.82 16.56zM0 384h128V128H0v256zM96 0H32C14.33 0 0 14.33 0 32v64h128V32c0-17.67-14.33-32-32-32zM0 480c0 17.67 14.33 32 32 32h64c17.67 0 32-14.33 32-32v-64H0v64zm160-96h128V128H160v256zm0 96c0 17.67 14.33 32 32 32h64c17.67 0 32-14.33 32-32v-64H160v64z"/></svg>