<svg xmlns="http://www.w3.org/2000/svg" viewBox="0 0 640 512"><!-- Font Awesome Pro 5.15.4 by @fontawesome - https://fontawesome.com License - https://fontawesome.com/license (Commercial License) --><path d="M463 256a80 80 0 1 0 80 80 80.09 80.09 0 0 0-80-80zm-288 0a80 80 0 1 0 80 80 80.09 80.09 0 0 0-80-80zm432-93.06V56a56.06 56.06 0 0 0-56-56H87a56.06 56.06 0 0 0-56 56v106.94A47.86 47.86 0 0 0-1 208v256a48 48 0 0 0 48 48h544a48 48 0 0 0 48-48V208a47.86 47.86 0 0 0-32-45.06zM175 448a112 112 0 1 1 112-112 112 112 0 0 1-112 112zm160-320h-32a16 16 0 0 0-16 16v16h-32v-16a16 16 0 0 0-16-16h-32a16 16 0 0 0-16 16v16H79V56a8 8 0 0 1 8-8h464a8 8 0 0 1 8 8v104H447v-16a16 16 0 0 0-16-16h-32a16 16 0 0 0-16 16v16h-32v-16a16 16 0 0 0-16-16zm128 320a112 112 0 1 1 112-112 112 112 0 0 1-112 112z"/></svg>