<svg xmlns="http://www.w3.org/2000/svg" viewBox="0 0 512 512"><!-- Font Awesome Pro 5.15.4 by @fontawesome - https://fontawesome.com License - https://fontawesome.com/license (Commercial License) --><path d="M145.78 287.03l45.26-45.25-90.58-90.58C128.24 136.08 159.49 128 192 128c32.03 0 62.86 7.79 90.33 22.47l46.61-46.61C288.35 78.03 241.3 64 192 64c-49.78 0-97.29 14.27-138.16 40.59l-3.9-3.9c-6.25-6.25-16.38-6.25-22.63 0L4.69 123.31c-6.25 6.25-6.25 16.38 0 22.63l141.09 141.09zm262.36-104.64L361.53 229c14.68 27.47 22.47 58.3 22.47 90.33 0 32.51-8.08 63.77-23.2 91.55l-90.58-90.58-45.26 45.26 141.76 141.76c6.25 6.25 16.38 6.25 22.63 0l22.63-22.63c6.25-6.25 6.25-16.38 0-22.63l-4.57-4.57C433.74 416.63 448 369.11 448 319.33c0-49.29-14.03-96.35-39.86-136.94zM493.22.31L364.63 26.03c-12.29 2.46-16.88 17.62-8.02 26.49l34.47 34.47-250.64 250.63-49.7-16.57a20.578 20.578 0 0 0-21.04 4.96L6.03 389.69c-10.8 10.8-6.46 29.2 8.04 34.04l55.66 18.55 18.55 55.65c4.83 14.5 23.23 18.84 34.04 8.04l63.67-63.67a20.56 20.56 0 0 0 4.97-21.04l-16.57-49.7 250.64-250.64 34.47 34.47c8.86 8.86 24.03 4.27 26.49-8.02l25.72-128.59C513.88 7.8 504.2-1.88 493.22.31z"/></svg>