<svg xmlns="http://www.w3.org/2000/svg" viewBox="0 0 448 512"><!-- Font Awesome Pro 5.15.4 by @fontawesome - https://fontawesome.com License - https://fontawesome.com/license (Commercial License) --><path d="M314.8 160c-.8-35.8-20.9-59.1-18.8-96 1.9-34.2 22.7-63.9 56-64 33.4.1 54.1 29.7 56 64 2.1 36.9-18 60.3-18.8 96h-74.4zm128.9 160c-10.8-48.1-39.9-82.8-50.7-128h-81.9c-10.8 45.2-39.9 79.9-50.7 128-11.5 51.1.6 140.5 26.7 192h130c26-51.5 38-141 26.6-192zM133.2 160c.8-35.8 20.9-59.1 18.8-96C150.1 29.8 129.3.1 96 0 62.6.1 41.9 29.8 40 64c-2.1 36.9 18 60.2 18.8 96h74.4zm3.7 32H55.1c-10.8 45.2-40 79.9-50.7 128-11.5 51.1.5 140.5 26.6 192h130c26.1-51.5 38.1-140.9 26.7-192-10.8-48.1-40-82.8-50.8-128z"/></svg>