<svg xmlns="http://www.w3.org/2000/svg" viewBox="0 0 448 512"><!-- Font Awesome Pro 5.15.4 by @fontawesome - https://fontawesome.com License - https://fontawesome.com/license (Commercial License) --><path d="M447.6 158.8L391.3 53.9C386.9 40.8 374.7 32 360.9 32H240v128h206.7c.4-.5.5-.7.9-1.2zM208 160V32H87.1c-13.8 0-26 8.8-30.4 21.9L.4 158.8c.4.5.5.7.9 1.2H208zM0 192v256c0 17.7 14.3 32 32 32h384c17.7 0 32-14.3 32-32V192H0zm240 223.9V432c0 4.4-3.6 8-8 8h-16c-4.4 0-8-3.6-8-8v-16.3c-11.3-.6-22.3-4.5-31.4-11.3-3.9-2.9-4.1-8.8-.6-12.1l11.8-11.2c2.8-2.6 6.9-2.8 10.1-.7 3.9 2.4 8.3 3.7 12.8 3.7h28.1c6.5 0 11.8-5.9 11.8-13.2 0-6-3.6-11.2-8.8-12.7l-45-13.5c-18.6-5.6-31.6-23.4-31.6-43.4 0-24.5 19-44.4 42.7-45.1V240c0-4.4 3.6-8 8-8h16c4.4 0 8 3.6 8 8v16.3c11.3.6 22.3 4.5 31.4 11.3 3.9 2.9 4.1 8.8.6 12.1L260.2 291c-2.8 2.6-6.9 2.8-10.1.7-3.9-2.4-8.3-3.7-12.8-3.7h-28.1c-6.5 0-11.8 5.9-11.8 13.2 0 6 3.6 11.2 8.8 12.7l45 13.5c18.6 5.6 31.6 23.4 31.6 43.4-.1 24.5-19.2 44.5-42.8 45.1z"/></svg>