<svg xmlns="http://www.w3.org/2000/svg" viewBox="0 0 448 512"><!-- Font Awesome Pro 5.15.4 by @fontawesome - https://fontawesome.com License - https://fontawesome.com/license (Commercial License) --><path d="M416 32H32C14.3 32 0 46.3 0 64v384c0 17.7 14.3 32 32 32h384c17.7 0 32-14.3 32-32V64c0-17.7-14.3-32-32-32zm-96 160c0 47.5-34.6 86.7-80 94.4V384h40c4.4 0 8 3.6 8 8v16c0 4.4-3.6 8-8 8H168c-4.4 0-8-3.6-8-8v-16c0-4.4 3.6-8 8-8h40v-97.6c-45.4-7.7-80-46.8-80-94.4v-80c0-8.8 7.2-16 16-16h60.4l24.5 27.6-64 32 91 68.4-37-59.6 64-32L260.1 96H304c8.8 0 16 7.2 16 16v80z"/></svg>