<svg xmlns="http://www.w3.org/2000/svg" viewBox="0 0 640 512"><!-- Font Awesome Pro 5.15.4 by @fontawesome - https://fontawesome.com License - https://fontawesome.com/license (Commercial License) --><path d="M384.3 360.6L320 254l-64.2 106.6c-6.4 10.7-26.1 29.8-54.7 21.6L64 343v82c0 14.7 10 27.5 24.2 31l216.2 54.1c10.2 2.5 20.9 2.5 31 0L551.8 456c14.2-3.6 24.2-16.4 24.2-31v-82l-137 39.1c-28.5 8.2-48.2-10.7-54.7-21.5zM194.2 143.7c-1.3-5.1-2.2-10.3-2.2-15.7 0-35.3 28.7-64 64-64s64 28.7 64 64c0 11.2-3.1 21.5-8.2 30.7l8.2 1L475.3 140 511 41.7c3-8.3-1.3-17.5-9.6-20.5L445.9 1c-8.3-3-17.5 1.3-20.5 9.6L383.7 125C382 55.7 325.7 0 256 0c-70.7 0-128 57.3-128 128 0 2.5.6 4.9.7 7.4zM53.2 169L1.7 271.8c-4.6 9.2.3 20.2 10.1 23l197.9 56.5c7.1 2 14.7-1 18.5-7.3L320 192 69.8 160.1c-6.9-.8-13.5 2.7-16.6 8.9zm585.1 102.8L586.8 169c-3.1-6.2-9.8-9.8-16.7-8.9L320 192l91.7 152.1c3.8 6.3 11.4 9.3 18.5 7.3l197.9-56.5c9.9-2.9 14.7-13.9 10.2-23.1z"/></svg>