<svg xmlns="http://www.w3.org/2000/svg" viewBox="0 0 448 512"><!-- Font Awesome Pro 5.15.4 by @fontawesome - https://fontawesome.com License - https://fontawesome.com/license (Commercial License) --><path d="M384 160h-31.1c-26.3 0-48.3 20.8-48.8 47.1-.5 24.6 17.6 45.1 41.1 48.4 4 .6 6.9 4.1 6.9 8.1v16c0 4.7-4.1 8.5-8.8 8-40-4.4-71.2-38.4-71.2-79.5 0-5.5.6-10.8 1.6-16H141.2c-30.6 0-59.5-10.9-82.3-30.8-3.5-3.1-3.7-8.4-.4-11.7l11.3-11.3c3-3 7.7-3.1 10.9-.4 16.9 14.4 38.1 22.3 60.5 22.3H288v.5c28.4-38.1 66.9-32.5 96-32.5V96c0-53-43-96-96-96H96C43.3 0 0 43.1 0 95.9c0 63.9 5.3 127.8 15.8 190.8L32 384h40c4.4 0 8 3.6 8 8v16c0 4.4-3.6 8-8 8H32v64c0 17.7 14.3 32 32 32h256c17.7 0 32-14.3 32-32v-64h-40c-4.4 0-8-3.6-8-8v-16c0-4.4 3.6-8 8-8h40l58.5-58.5C450.8 285.1 448 237.8 448 224c0-35.3-28.7-64-64-64zM260.8 441.6l-9.6 12.8c-2.6 3.5-7.7 4.3-11.2 1.6l-48-36-48 36c-3.5 2.7-8.6 1.9-11.2-1.6l-9.6-12.8c-2.6-3.5-1.9-8.5 1.6-11.2l40.5-30.4-40.5-30.4c-3.5-2.6-4.3-7.7-1.6-11.2l9.6-12.8c2.6-3.5 7.7-4.3 11.2-1.6l48 36 48-36c3.5-2.7 8.6-1.9 11.2 1.6l9.6 12.8c2.6 3.5 1.9 8.5-1.6 11.2L218.7 400l40.5 30.4c3.5 2.6 4.2 7.7 1.6 11.2z"/></svg>