<svg xmlns="http://www.w3.org/2000/svg" viewBox="0 0 576 512"><!-- Font Awesome Pro 5.15.4 by @fontawesome - https://fontawesome.com License - https://fontawesome.com/license (Commercial License) --><path d="M208 32h-48a96 96 0 0 0-96 96v37.48a32.06 32.06 0 0 1-9.38 22.65L9.37 233.37a32 32 0 0 0 0 45.26l45.25 45.25A32 32 0 0 1 64 346.51V384a96 96 0 0 0 96 96h48a16 16 0 0 0 16-16v-32a16 16 0 0 0-16-16h-48a32 32 0 0 1-32-32v-37.48a96 96 0 0 0-28.13-67.89L77.25 256l22.63-22.63A96 96 0 0 0 128 165.48V128a32 32 0 0 1 32-32h48a16 16 0 0 0 16-16V48a16 16 0 0 0-16-16zm358.63 201.37l-45.25-45.24a32.06 32.06 0 0 1-9.38-22.65V128a96 96 0 0 0-96-96h-48a16 16 0 0 0-16 16v32a16 16 0 0 0 16 16h48a32 32 0 0 1 32 32v37.47a96 96 0 0 0 28.13 67.91L498.75 256l-22.62 22.63A96 96 0 0 0 448 346.52V384a32 32 0 0 1-32 32h-48a16 16 0 0 0-16 16v32a16 16 0 0 0 16 16h48a96 96 0 0 0 96-96v-37.49a32 32 0 0 1 9.38-22.63l45.25-45.25a32 32 0 0 0 0-45.26z"/></svg>