<svg xmlns="http://www.w3.org/2000/svg" viewBox="0 0 512 512"><!-- Font Awesome Pro 5.15.4 by @fontawesome - https://fontawesome.com License - https://fontawesome.com/license (Commercial License) --><path d="M464 32H48C21.5 32 0 53.5 0 80v352c0 26.5 21.5 48 48 48h416c26.5 0 48-21.5 48-48V80c0-26.5-21.5-48-48-48zM128 148c0 6.6-5.4 12-12 12H76c-6.6 0-12-5.4-12-12v-40c0-6.6 5.4-12 12-12h40c6.6 0 12 5.4 12 12v40zm320 0c0 6.6-5.4 12-12 12H188c-6.6 0-12-5.4-12-12v-40c0-6.6 5.4-12 12-12h248c6.6 0 12 5.4 12 12v40z"/></svg>