<svg xmlns="http://www.w3.org/2000/svg" viewBox="0 0 496 512"><!-- Font Awesome Pro 5.15.4 by @fontawesome - https://fontawesome.com License - https://fontawesome.com/license (Commercial License) --><path d="M242.16 240.67L27.98 301.55c-15.17 4.31-16.95 25.1-2.73 31.92l68.47 32.89-89.17 89.17c-6.07 6.06-6.07 15.9 0 21.96l21.96 21.96c6.07 6.06 15.9 6.06 21.96 0l89.17-89.17 32.89 68.47c6.83 14.22 27.61 12.44 31.92-2.73l60.87-214.18c3.68-12.91-8.25-24.83-21.16-21.17zm40.91 68.76l-20.79 73.13C326.16 375.37 376 321.8 376 256c0-70.69-57.31-128-128-128-65.8 0-119.38 49.84-126.56 113.72l73.13-20.78C206.02 203.54 225.66 192 248 192c35.29 0 64 28.71 64 64 0 22.34-11.54 41.98-28.93 53.43zM248 8C111.03 8 0 119.03 0 256c0 8.39.44 16.67 1.26 24.85 5.22-4.39 11.05-8.11 17.98-10.08l44.87-12.75c-.01-.68-.1-1.33-.1-2.01 0-101.69 82.29-184 184-184 101.69 0 184 82.29 184 184 0 101.69-82.29 184-184 184-.68 0-1.34-.09-2.01-.1l-12.75 44.87c-1.97 6.94-5.69 12.77-10.06 17.98 8.17.81 16.45 1.25 24.83 1.25 136.97 0 248-111.03 248-248S384.97 8 248 8z"/></svg>