<svg xmlns="http://www.w3.org/2000/svg" viewBox="0 0 512 512"><!-- Font Awesome Pro 5.15.4 by @fontawesome - https://fontawesome.com License - https://fontawesome.com/license (Commercial License) --><path d="M307.29 230.32C278.33 310.45 201.65 368 111.57 368A206.93 206.93 0 0 1 .72 335.76c-3.72 33.8 6.86 68.88 32.74 94.74L81 478a116.2 116.2 0 0 0 164.22 0l216-215.73A175.28 175.28 0 0 0 351.83 224c-15.22 0-30.04 2.53-44.54 6.32zM287.76 160a174.91 174.91 0 0 0-38.33-109.28l-216 215.73A115.28 115.28 0 0 0 9 302.83 175.18 175.18 0 0 0 111.57 336c97.14 0 176.19-78.95 176.19-176zM512 123a74.14 74.14 0 0 0-52.31-70.74A74.18 74.18 0 0 0 358 6.73 80.14 80.14 0 0 0 325.8 0c-22.06 0-42 9.37-56.81 24.26A204.24 204.24 0 0 1 316.61 195a209.73 209.73 0 0 1 35.22-3 207.25 207.25 0 0 1 135.88 50.75C502.63 228 512 208 512 186a80.08 80.08 0 0 0-6.74-32.12A73.35 73.35 0 0 0 512 123z"/></svg>