<svg xmlns="http://www.w3.org/2000/svg" viewBox="0 0 448 512"><!-- Font Awesome Pro 5.15.4 by @fontawesome - https://fontawesome.com License - https://fontawesome.com/license (Commercial License) --><path d="M0 148v-36c0-26.5 21.5-48 48-48h48V12c0-6.6 5.4-12 12-12h40c6.6 0 12 5.4 12 12v52h128V12c0-6.6 5.4-12 12-12h40c6.6 0 12 5.4 12 12v52h48c26.5 0 48 21.5 48 48v36c0 6.6-5.4 12-12 12H12c-6.6 0-12-5.4-12-12zm448 56v260c0 26.5-21.5 48-48 48H48c-26.5 0-48-21.5-48-48V204c0-6.6 5.4-12 12-12h424c6.6 0 12 5.4 12 12zM224 392c-22.1 0-40 17.9-40 40s17.9 40 40 40 40-17.9 40-40-17.9-40-40-40zm-39.2-139.2l7.2 112c.4 6.3 5.6 11.2 12 11.2h40c6.3 0 11.6-4.9 12-11.2l7.2-112c.4-6.9-5-12.8-12-12.8h-54.4c-6.9 0-12.4 5.9-12 12.8z"/></svg>