<svg xmlns="http://www.w3.org/2000/svg" viewBox="0 0 448 512"><!-- Font Awesome Pro 5.15.4 by @fontawesome - https://fontawesome.com License - https://fontawesome.com/license (Commercial License) --><path d="M384,0H64A64,64,0,0,0,0,64V352a64,64,0,0,0,64,64h72.71L76.53,450.83c-6.9,4.33-12.5,14.45-12.5,22.6v11.9A26.68,26.68,0,0,0,90.7,512H357.37A26.68,26.68,0,0,0,384,485.33V473.45c0-8.17-5.65-18.3-12.58-22.62L311.28,416H384a64,64,0,0,0,64-64V64A64,64,0,0,0,384,0ZM224,352h-.05a144,144,0,1,1,.05,0Zm0-256h-.05a112,112,0,1,0,.05,0Zm0,80a32,32,0,0,0-32,32,16,16,0,0,1-32,0,64.06,64.06,0,0,1,64-64,16,16,0,0,1,0,32Z"/></svg>