<svg xmlns="http://www.w3.org/2000/svg" viewBox="0 0 640 512"><!-- Font Awesome Pro 5.15.4 by @fontawesome - https://fontawesome.com License - https://fontawesome.com/license (Commercial License) --><path d="M187.09 307.14c-43.74 43.74-71.71 81.05-88.97 107.56 115.85 67.98 243.97 122.28 280.91 85.33l.06-.06c36.88-37.09-17.38-165.27-85.4-281.18-26.45 17.31-63.38 45.14-106.6 88.35zM326 446.95c-19.61-3.51-50.11-14.01-87.69-30.88 8.55-9.53 17.64-19.32 28.02-29.7 10.04-10.04 19.56-18.92 28.81-27.24 16.87 37.64 27.36 68.18 30.86 87.82zm-48.89-255.73c-9.69-15.74-19.51-31.14-29.28-45.81-18.62-27.95-44.49-55.7-162.89 60.4-116.1 118.4-88.35 144.27-60.4 162.89 14.73 9.81 30.2 19.68 46.01 29.41 18.29-28.22 47.93-67.63 93.91-113.61 45.46-45.46 84.5-74.94 112.65-93.28zM480 0C314.19 1.62 315.52 39.54 322.11 72.47c3.47 17.35 7.44 35.27 11.74 53.33 32.89-7.02 81.71-13.93 146.74-13.93 64.29 0 112.75 6.76 145.62 13.7 4.28-17.98 8.22-35.81 11.68-53.1C644.48 39.54 645.81 1.62 480 0zM341.62 157.03C375.47 287.01 427.67 416 479.91 416h.09c52.3-.15 104.57-129.16 138.44-259.21-30.94-6.47-76.74-12.91-137.85-12.91-61.87 0-108.03 6.6-138.97 13.15zm138.33 183.93c-11.38-16.35-25.53-45.33-40.17-83.84 12.78-.69 26.14-1.19 40.81-1.19 14.2 0 27.21.45 39.63 1.11-14.68 38.55-28.86 67.56-40.27 83.92z"/></svg>