<svg xmlns="http://www.w3.org/2000/svg" viewBox="0 0 512 512"><!-- Font Awesome Pro 5.15.4 by @fontawesome - https://fontawesome.com License - https://fontawesome.com/license (Commercial License) --><path d="M503.91 104h-55.98l-24-24 24-24h55.97c5.95 0 9.9-6.31 7.25-11.64-15.19-30.52-49.01-50.04-86.84-42.87-25.65 4.86-46.72 22.98-57.05 46.51H145.01c-12.38-28.17-40.2-48-72.94-48C40.75 0 13.9 18.12.84 44.37-1.81 49.69 2.15 56 8.09 56h55.98l24 24-24 24H8.09c-5.95 0-9.9 6.31-7.25 11.64 15.19 30.52 49.01 50.04 86.84 42.87 25.65-4.86 46.73-22.99 57.05-46.51h222.25c12.38 28.17 40.2 48 72.94 48 31.32 0 58.17-18.12 71.23-44.37 2.66-5.33-1.3-11.63-7.24-11.63zm-55.42 188.91l-5.07-12.67-19.93-49.83c-17.11-42.77-57.92-70.4-103.99-70.4h-127c-46.06 0-86.88 27.63-103.99 70.4l-19.93 49.82-5.07 12.67C40.33 302.52 24 325.34 24 352v32c0 20.12 9.48 37.86 24 49.59V480c0 17.67 14.33 32 32 32h32c17.67 0 32-14.33 32-32v-32h224v32c0 17.67 14.33 32 32 32h32c17.67 0 32-14.33 32-32v-46.41c14.52-11.73 24-29.47 24-49.59v-32c0-26.66-16.33-49.48-39.51-59.09zM96 399.8c-19.2 0-32-12.76-32-31.9S76.8 336 96 336s48 28.71 48 47.85-28.8 15.95-48 15.95zm38.4-111.79l13.53-33.83c7.29-18.22 24.94-30.17 44.57-30.17h127c19.63 0 37.28 11.95 44.57 30.17l13.53 33.83H134.4zM416 399.8c-19.2 0-48 3.19-48-15.95S396.8 336 416 336s32 12.76 32 31.9-12.8 31.9-32 31.9z"/></svg>