<svg xmlns="http://www.w3.org/2000/svg" viewBox="0 0 640 512"><!-- Font Awesome Pro 5.15.4 by @fontawesome - https://fontawesome.com License - https://fontawesome.com/license (Commercial License) --><path d="M512.49 292.9l-5.07-12.67-19.93-49.83C470.38 187.63 429.57 160 383.5 160h-127c-46.06 0-86.88 27.63-103.99 70.4l-19.93 49.82-5.07 12.67C104.33 302.52 88 325.34 88 352v32c0 20.12 9.48 37.86 24 49.59V480c0 17.67 14.33 32 32 32h32c17.67 0 32-14.33 32-32v-32h224v32c0 17.67 14.33 32 32 32h32c17.67 0 32-14.33 32-32v-46.41c14.52-11.73 24-29.47 24-49.59v-32c0-26.66-16.33-49.48-39.51-59.1zM160 399.8c-19.2 0-32-12.76-32-31.9s12.8-31.9 32-31.9 48 28.71 48 47.85-28.8 15.95-48 15.95zm38.4-111.79l13.53-33.83c7.29-18.22 24.94-30.17 44.57-30.17h127c19.63 0 37.28 11.95 44.57 30.17l13.53 33.83H198.4zM480 399.8c-19.2 0-48 3.19-48-15.95S460.8 336 480 336s32 12.76 32 31.9-12.8 31.9-32 31.9zm151.76-231.57L331.67 3.02a24.04 24.04 0 0 0-23.34 0L8.24 168.23c-7.73 4.3-10.52 14.05-6.22 21.79l7.78 14.01c4.3 7.74 14.05 10.52 21.79 6.22L320 51.53l288.41 158.73c7.74 4.3 17.49 1.51 21.79-6.22l7.78-14.01c4.3-7.75 1.51-17.5-6.22-21.8z"/></svg>