<svg xmlns="http://www.w3.org/2000/svg" viewBox="0 0 640 512"><!-- Font Awesome Pro 5.15.4 by @fontawesome - https://fontawesome.com License - https://fontawesome.com/license (Commercial License) --><path d="M624 448H317.12l-42.1-42.1 192.33-192.33 22.63 22.63c12.5 12.5 32.76 12.5 45.25 0l22.63-22.63c12.5-12.5 12.5-32.76 0-45.26l-38.24-38.23c-1-14.91-6.93-29.56-18.33-40.96l-33.94-33.94c-19.33-19.33-47.88-23.53-71.42-12.96L368.11 30.3 318.78 9.15C276.45-9 228.04.32 195.47 32.9l-89.8 89.81c-32.57 32.57-41.89 80.97-23.75 123.31l21.14 49.33 11.92 27.82c-10.57 23.54-6.37 52.09 12.96 71.42L181.36 448H16c-8.84 0-16 7.16-16 16v32c0 8.84 7.16 16 16 16h608c8.84 0 16-7.16 16-16v-32c0-8.84-7.16-16-16-16zM399.47 100.43c13.58-13.58 31.65-13.61 45.18-.07 13.54 13.54 13.51 31.61-.07 45.19s-31.69 36.2-45.22 22.66c-13.53-13.54-13.47-54.21.11-67.78zM140.74 220.81a48.003 48.003 0 0 1 10.18-52.85l89.8-89.8a48.003 48.003 0 0 1 52.85-10.18l49.33 21.14-181.02 181.01-21.14-49.32zm77.57 151c-13.58 13.58-31.65 13.61-45.19.07-13.53-13.53-13.51-31.61.07-45.18 13.58-13.58 54.24-13.64 67.78-.11 13.54 13.54-9.09 31.65-22.66 45.22z"/></svg>