<svg xmlns="http://www.w3.org/2000/svg" viewBox="0 0 512 512"><!-- Font Awesome Pro 5.15.4 by @fontawesome - https://fontawesome.com License - https://fontawesome.com/license (Commercial License) --><path d="M464 63H48a48 48 0 0 0-48 48v288a48 48 0 0 0 48 48h32l48-96h256l48 96h32a48 48 0 0 0 48-48V111a48 48 0 0 0-48-48zM128 255a32 32 0 1 1 32-32 32 32 0 0 1-32 32zm182.78 0H201.22a78.91 78.91 0 0 0 0-64h109.56a78.91 78.91 0 0 0 0 64zm73.22 0a32 32 0 1 1 32-32 32 32 0 0 1-32 32zM147.78 383l-32 64h280.44l-32-64z"/></svg>