<svg xmlns="http://www.w3.org/2000/svg" viewBox="0 0 640 512"><!-- Font Awesome Pro 5.15.4 by @fontawesome - https://fontawesome.com License - https://fontawesome.com/license (Commercial License) --><path d="M544,32.72461V32l-.39648.39648C516.86914,12.32617,484.00391,0,448,0s-68.86914,12.32617-95.60352,32.39648L352,32v.72461C313.35156,61.93164,288,107.82422,288,160a159.95251,159.95251,0,0,0,3.89258,34.31445c-35.83985,5.3418-91.793,23.25782-131.89258,83.63867V192A96.105,96.105,0,0,0,64,96a32,32,0,0,0,0,64,32.04169,32.04169,0,0,1,32,32V448a64.06328,64.06328,0,0,0,64,64H336a15.9908,15.9908,0,0,0,16-16V480a32.00158,32.00158,0,0,0-32-32H288l128-96V496a15.9908,15.9908,0,0,0,16,16h32a15.9908,15.9908,0,0,0,16-16V316.77539A160.036,160.036,0,0,0,608,160C608,107.82422,582.64844,61.93164,544,32.72461ZM448,32a127.06647,127.06647,0,0,1,72.9375,23.0625L480,96H416L375.0625,55.0625A127.06647,127.06647,0,0,1,448,32Zm56,128a16,16,0,1,1-16-16A15.9908,15.9908,0,0,1,504,160Zm-80,0a16,16,0,1,1-16-16A15.9908,15.9908,0,0,1,424,160Zm24,128A128.14414,128.14414,0,0,1,320,160c0-32.16992,12.334-61.25391,32-83.76367V160a96,96,0,0,0,192,0V76.23633C563.666,98.74609,576,127.83008,576,160A128.14414,128.14414,0,0,1,448,288ZM162.94531,68.76953l39.71094,16.56055,16.5625,39.71094a5.32345,5.32345,0,0,0,9.53906,0l16.5586-39.71094,39.71484-16.56055a5.336,5.336,0,0,0,0-9.541l-39.71484-16.5586L228.75781,2.957a5.325,5.325,0,0,0-9.53906,0l-16.5625,39.71289-39.71094,16.5586a5.336,5.336,0,0,0,0,9.541Z"/></svg>