<svg xmlns="http://www.w3.org/2000/svg" viewBox="0 0 448 512"><!-- Font Awesome Pro 5.15.4 by @fontawesome - https://fontawesome.com License - https://fontawesome.com/license (Commercial License) --><path d="M448 212v-40c0-6.63-6.27-12-14-12H14c-7.73 0-14 5.37-14 12v40c0 6.63 6.27 12 14 12h19.79C12.39 262.52 0 305.28 0 345.6c0 39.08 11.82 70.65 32 95.53V488c0 13.25 10.75 24 24 24s24-10.75 24-24v-7.49c38.95 21.3 89.14 31.49 144 31.49s105.05-10.19 144-31.49V488c0 13.25 10.75 24 24 24s24-10.75 24-24v-46.87c20.18-24.88 32-56.45 32-95.53 0-40.32-12.39-83.08-33.79-121.6H434c7.73 0 14-5.37 14-12zM160 64c17.67 0 32-14.33 32-32S177.67 0 160 0s-32 14.33-32 32 14.33 32 32 32zm112 64c26.51 0 48-21.49 48-48s-21.49-48-48-48-48 21.49-48 48 21.49 48 48 48z"/></svg>