<svg xmlns="http://www.w3.org/2000/svg" viewBox="0 0 448 512"><!-- Font Awesome Pro 5.15.4 by @fontawesome - https://fontawesome.com License - https://fontawesome.com/license (Commercial License) --><path d="M64 224v-64c0-17.67-14.33-32-32-32S0 142.33 0 160v64c0 17.67 14.33 32 32 32s32-14.33 32-32zm352-96c-17.67 0-32 14.33-32 32v64c0 17.67 14.33 32 32 32s32-14.33 32-32v-64c0-17.67-14.33-32-32-32zm-64-64c0-35.35-28.65-64-64-64H160c-35.35 0-64 28.65-64 64v192h256V64zm51.67 245.88A31.996 31.996 0 0 0 373.31 288H74.69c-13.77 0-26 8.81-30.36 21.88l-10.67 32C26.76 362.6 42.18 384 64.03 384H192v67.36c-28.27 6.01-50.99 19.69-61.85 37.21-6.41 10.34 2.41 23.43 15.02 23.43h157.66c12.61 0 21.44-13.09 15.02-23.43-10.86-17.52-33.59-31.2-61.85-37.21V384h127.97c21.84 0 37.27-21.4 30.36-42.12l-10.66-32z"/></svg>