<svg xmlns="http://www.w3.org/2000/svg" viewBox="0 0 640 512"><!-- Font Awesome Pro 5.15.4 by @fontawesome - https://fontawesome.com License - https://fontawesome.com/license (Commercial License) --><path d="M576 192c35.3 0 64-28.7 64-64s-28.7-64-64-64-64 28.7-64 64 28.7 64 64 64zM64 240c-35.3 0-64 28.7-64 64s28.7 64 64 64 64-28.7 64-64-28.7-64-64-64zm449.6-37.2l-19.2-25.6-48 36 19.2 25.6 48-36zM576 384c-14.4 0-27.6 5-38.3 13l-96-57.6c3.8-11.2 6.3-23 6.3-35.5 0-61.9-50.1-112-112-112-8.4 0-16.6 1.1-24.4 2.9l-40.8-87.4C281.4 96 288 80.8 288 64c0-35.3-28.7-64-64-64s-64 28.7-64 64 28.7 64 64 64c1.1 0 2.1-.3 3.2-.3l41 87.8C241.5 235.9 224 267.8 224 304c0 61.9 50.1 112 112 112 32.1 0 60.8-13.7 81.2-35.3l95.8 57.5c-.5 3.2-1 6.5-1 9.8 0 35.3 28.7 64 64 64s64-28.7 64-64-28.7-64-64-64zm-240-32c-26.5 0-48-21.5-48-48s21.5-48 48-48 48 21.5 48 48-21.5 48-48 48zm-184-32h48v-32h-48v32z"/></svg>