<svg xmlns="http://www.w3.org/2000/svg" viewBox="0 0 512 512"><!-- Font Awesome Pro 5.15.4 by @fontawesome - https://fontawesome.com License - https://fontawesome.com/license (Commercial License) --><path d="M496 384H64V80c0-8.84-7.16-16-16-16H16C7.16 64 0 71.16 0 80v336c0 17.67 14.33 32 32 32h464c8.84 0 16-7.16 16-16v-32c0-8.84-7.16-16-16-16zm-16-80V185.94c0-21.38-25.85-32.09-40.97-16.97l-32.4 32.4-96-96c-12.5-12.5-32.76-12.5-45.25 0L192 178.75l-46.06-46.06c-6.25-6.25-16.38-6.25-22.63 0l-22.62 22.62c-6.25 6.25-6.25 16.38 0 22.63l68.69 68.69c12.5 12.5 32.76 12.5 45.25 0L288 173.25l73.38 73.38-32.4 32.4c-15.12 15.12-4.41 40.97 16.97 40.97H464c8.84 0 16-7.17 16-16z"/></svg>