<svg xmlns="http://www.w3.org/2000/svg" viewBox="0 0 512 512"><!-- Font Awesome Pro 5.15.4 by @fontawesome - https://fontawesome.com License - https://fontawesome.com/license (Commercial License) --><path d="M496 384H64V80a16 16 0 0 0-16-16H16A16 16 0 0 0 0 80v336a32 32 0 0 0 32 32h464a16 16 0 0 0 16-16v-32a16 16 0 0 0-16-16zm-336-64a32 32 0 1 0-32-32 32 32 0 0 0 32 32zm256-160a32 32 0 1 0-32-32 32 32 0 0 0 32 32zm-224 0a32 32 0 1 0-32-32 32 32 0 0 0 32 32zm192 160a32 32 0 1 0-32-32 32 32 0 0 0 32 32zm-96-64a32 32 0 1 0-32-32 32 32 0 0 0 32 32z"/></svg>