<svg xmlns="http://www.w3.org/2000/svg" viewBox="0 0 256 512"><!-- Font Awesome Pro 5.15.4 by @fontawesome - https://fontawesome.com License - https://fontawesome.com/license (Commercial License) --><path d="M67.37 192H64a16 16 0 0 0-16 16v16a16 16 0 0 0 16 16h16v14a535.76 535.76 0 0 1-16 130h128a535.76 535.76 0 0 1-16-130v-14h16a16 16 0 0 0 16-16v-16a16 16 0 0 0-16-16h-3.37l44.5-95.73a6.73 6.73 0 0 0-2.29-8.62l-10.06-6.71c-3.13-2.08-7.12-1-9.38 2a20.05 20.05 0 0 1-19.89 7.67c-9.74-1.81-16.35-11-16.35-21a5.65 5.65 0 0 0-5.64-5.61h-16.33a5.45 5.45 0 0 0-5.41 4.17 20.22 20.22 0 0 1-39.56 0 5.45 5.45 0 0 0-5.41-4.17H86.48a5.65 5.65 0 0 0-5.64 5.64c0 10.82-8 20.53-18.81 21.26a20 20 0 0 1-17.49-8.06 6.81 6.81 0 0 0-9.3-1.91l-10.08 6.72a6.73 6.73 0 0 0-2.29 8.62zM128 48a24 24 0 1 0-24-24 24 24 0 0 0 24 24zm119.16 411.6L224 448v-16a16 16 0 0 0-16-16H48a16 16 0 0 0-16 16v16L8.85 459.58A16 16 0 0 0 0 473.89V496a16 16 0 0 0 16 16h224a16 16 0 0 0 16-16v-22.11a16 16 0 0 0-8.84-14.31z"/></svg>