<svg xmlns="http://www.w3.org/2000/svg" viewBox="0 0 640 512"><!-- Font Awesome Pro 5.15.4 by @fontawesome - https://fontawesome.com License - https://fontawesome.com/license (Commercial License) --><path d="M600 128H487.75V80H528a16 16 0 0 0 16-16V48a16 16 0 0 0-16-16H400a16 16 0 0 0-16 16v16a16 16 0 0 0 16 16h39.75v48H255.91v-16a16 16 0 0 0-16-16h-128a16 16 0 0 0-16 16v16H40a40.17 40.17 0 0 0-40 40.11V440a40 40 0 0 0 40 40h560a40 40 0 0 0 40-40V168.11A40.17 40.17 0 0 0 600 128zM175.93 416.06a112 112 0 1 1 112-111.95 112 112 0 0 1-112 111.95zm287.89 0a112 112 0 1 1 112-111.95 112 112 0 0 1-112 111.95zM231.12 243a12 12 0 0 0-17 0l-50.89 50.89a12 12 0 0 0 0 17l5.66 5.66a12 12 0 0 0 17 0l50.89-50.9a12 12 0 0 0 0-17zm236.7-18.84h-8a12 12 0 0 0-12 12v72a12 12 0 0 0 12 12h8a12 12 0 0 0 12-12v-72a12 12 0 0 0-12-12.02z"/></svg>