<svg xmlns="http://www.w3.org/2000/svg" viewBox="0 0 448 512"><!-- Font Awesome Pro 5.15.4 by @fontawesome - https://fontawesome.com License - https://fontawesome.com/license (Commercial License) --><path d="M0 432V80c0-26.51 21.49-48 48-48h352c26.51 0 48 21.49 48 48v352c0 26.51-21.49 48-48 48H48c-26.51 0-48-21.49-48-48zm207.029-281.941L71.515 285.573c-9.373 9.373-9.373 24.569 0 33.941l16.971 16.971c9.373 9.373 24.569 9.373 33.941 0L224 234.912l101.573 101.574c9.373 9.373 24.569 9.373 33.941 0l16.971-16.971c9.373-9.373 9.373-24.569 0-33.941L240.971 150.059c-9.373-9.373-24.569-9.373-33.942 0z"/></svg>