<svg xmlns="http://www.w3.org/2000/svg" viewBox="0 0 512 512"><!-- Font Awesome Pro 5.15.4 by @fontawesome - https://fontawesome.com License - https://fontawesome.com/license (Commercial License) --><path d="M477.5 273L283.1 467.3c-9.4 9.4-24.6 9.4-33.9 0l-22.7-22.7c-9.4-9.4-9.4-24.5 0-33.9l154-154.7-154-154.7c-9.3-9.4-9.3-24.5 0-33.9l22.7-22.7c9.4-9.4 24.6-9.4 33.9 0L477.5 239c9.3 9.4 9.3 24.6 0 34zm-192-34L91.1 44.7c-9.4-9.4-24.6-9.4-33.9 0L34.5 67.4c-9.4 9.4-9.4 24.5 0 33.9l154 154.7-154 154.7c-9.3 9.4-9.3 24.5 0 33.9l22.7 22.7c9.4 9.4 24.6 9.4 33.9 0L285.5 273c9.3-9.4 9.3-24.6 0-34z"/></svg>