<svg xmlns="http://www.w3.org/2000/svg" viewBox="0 0 448 512"><!-- Font Awesome Pro 5.15.4 by @fontawesome - https://fontawesome.com License - https://fontawesome.com/license (Commercial License) --><path d="M207 477.5L12.7 283.1c-9.4-9.4-9.4-24.6 0-33.9l22.7-22.7c9.4-9.4 24.5-9.4 33.9 0l154.7 154 154.7-154c9.4-9.3 24.5-9.3 33.9 0l22.7 22.7c9.4 9.4 9.4 24.6 0 33.9L241 477.5c-9.4 9.3-24.6 9.3-34 0zm34-192L435.3 91.1c9.4-9.4 9.4-24.6 0-33.9l-22.7-22.7c-9.4-9.4-24.5-9.4-33.9 0L224 188.5 69.3 34.5c-9.4-9.3-24.5-9.3-33.9 0L12.7 57.2c-9.4 9.4-9.4 24.6 0 33.9L207 285.5c9.4 9.3 24.6 9.3 34 0z"/></svg>