<svg xmlns="http://www.w3.org/2000/svg" viewBox="0 0 640 512"><!-- Font Awesome Pro 5.15.4 by @fontawesome - https://fontawesome.com License - https://fontawesome.com/license (Commercial License) --><path d="M630.12 129.22a15.94 15.94 0 0 0-17.43 3.47L569.38 176H480v-32h24a8 8 0 0 0 8-8v-16a8 8 0 0 0-8-8H232a8 8 0 0 0-8 8v16a8 8 0 0 0 8 8h24v32H101.19a32 32 0 0 0-10.12 1.64l-80.13 26.71A16 16 0 0 0 0 219.53v72.94a16 16 0 0 0 10.94 15.18l80.13 26.71a32 32 0 0 0 10.12 1.64h468.19l43.31 43.31A16 16 0 0 0 624 384a15.73 15.73 0 0 0 6.12-1.22A16 16 0 0 0 640 368V144a16 16 0 0 0-9.88-14.78zM384 144h64v32h-64zm-96 0h64v32h-64zm-16 136a24 24 0 1 1 24-24 24 24 0 0 1-24 24zm96 0a24 24 0 1 1 24-24 24 24 0 0 1-24 24zm96 0a24 24 0 1 1 24-24 24 24 0 0 1-24 24z"/></svg>