<svg xmlns="http://www.w3.org/2000/svg" viewBox="0 0 512 512"><!-- Font Awesome Pro 5.15.4 by @fontawesome - https://fontawesome.com License - https://fontawesome.com/license (Commercial License) --><path d="M6.99 224.51c-5-2.37-9.4 4.09-5.49 8l85.12 85.13c6 6 9.37 14.14 9.37 22.63V384h43.74c8.49 0 16.63 3.37 22.63 9.37l117.15 117.16c3.86 3.86 10.32-.56 7.99-5.49C206.4 333.11 63.36 251.26 6.99 224.51zM246.63 29.63c6 6 9.37 14.14 9.37 22.63V96h43.74c8.49 0 16.63 3.37 22.63 9.37l52.26 52.26c6 6 9.37 14.14 9.37 22.63V224h43.73c8.49 0 16.63 3.37 22.63 9.37l53.16 53.16c3.86 3.86 10.32-.56 7.99-5.49C430.4 109.11 287.36 27.26 230.99.51c-5-2.37-9.4 4.09-5.49 8l21.13 21.12zm-42.36 90.69c-7.8-6.05-12.27-15.15-12.27-25.03V64h-57.99c-6.01 0-12.04-1.84-17.12-5.05C74.85 32.39 38.37 13.23 12.42.91 3.54-3.3-4.28 8.18 2.67 15.13l179.96 179.96c6 6 9.37 14.14 9.37 22.63V256h38.29c8.49 0 16.62 3.37 22.63 9.37l89.71 89.71c6 6 9.37 14.14 9.37 22.63V416h38.29c8.49 0 16.62 3.37 22.63 9.37l84.01 84.01c6.86 6.86 18.34-.99 14.2-9.76-82.73-175.34-201.55-297.65-306.86-379.3z"/></svg>