<svg xmlns="http://www.w3.org/2000/svg" viewBox="0 0 384 512"><!-- Font Awesome Pro 5.15.4 by @fontawesome - https://fontawesome.com License - https://fontawesome.com/license (Commercial License) --><path d="M336 64h-80a64 64 0 0 0-128 0H48a48 48 0 0 0-48 48v352a48 48 0 0 0 48 48h288a48 48 0 0 0 48-48V112a48 48 0 0 0-48-48zM192 40a24 24 0 1 1-24 24 24 24 0 0 1 24-24zm0 152a64 64 0 1 1-64 64 64 64 0 0 1 64-64zm112 236.8c0 10.61-10 19.2-22.4 19.2H102.4C90 448 80 439.4 80 428.8v-19.2c0-31.81 30.09-57.6 67.2-57.6h5a103.25 103.25 0 0 0 79.7 0h5c37.11 0 67.2 25.79 67.2 57.6z"/></svg>