<svg xmlns="http://www.w3.org/2000/svg" viewBox="0 0 640 512"><!-- Font Awesome Pro 5.15.4 by @fontawesome - https://fontawesome.com License - https://fontawesome.com/license (Commercial License) --><path d="M537.6 226.6c4.1-10.7 6.4-22.4 6.4-34.6 0-53-43-96-96-96-19.7 0-38.1 6-53.3 16.2C367 64.2 315.3 32 256 32c-88.4 0-160 71.6-160 160 0 2.7.1 5.4.2 8.1C40.2 219.8 0 273.2 0 336c0 79.5 64.5 144 144 144h368c70.7 0 128-57.3 128-128 0-61.9-44-113.6-102.4-125.4zm-139.9 63.7l-10.8 10.8c-9.6 9.6-25.2 9.3-34.5-.5L320 266.1V392c0 13.3-10.7 24-24 24h-16c-13.3 0-24-10.7-24-24V266.1l-32.4 34.5c-9.3 9.9-24.9 10.1-34.5.5l-10.8-10.8c-9.4-9.4-9.4-24.6 0-33.9l92.7-92.7c9.4-9.4 24.6-9.4 33.9 0l92.7 92.7c9.4 9.4 9.4 24.6.1 33.9z"/></svg>