<svg xmlns="http://www.w3.org/2000/svg" viewBox="0 0 640 512"><!-- Font Awesome Pro 5.15.4 by @fontawesome - https://fontawesome.com License - https://fontawesome.com/license (Commercial License) --><path d="M512 320h-1.6c-7.4-36.5-39.7-64-78.4-64-24.6 0-46.3 11.3-61 28.8-18.6-35.9-55.8-60.8-99-60.8-58.3 0-105.6 44.7-110.9 101.6C123.3 338.5 96 373.9 96 416c0 53 43 96 96 96h320c53 0 96-43 96-96s-43-96-96-96zm48-160h-17.6c-7.4-36.5-39.7-64-78.4-64s-71 27.5-78.4 64H368c-27.6 0-51.8 13.9-66.2 35.1 29.1 6.2 55.5 21.3 75.6 43.3 16.5-9.4 35.3-14.5 54.6-14.5 44.6 0 84.3 26.6 102.1 65.9 20.5 3.6 39.1 12.3 55 24.4 29.8-11.7 50.9-40.5 50.9-74.3 0-44.1-35.8-79.9-80-79.9zM132.3 303.2c2.4-10.3 6.1-19.9 10.5-29.1-6.6-4-13-8.5-18.7-14.2-37.4-37.4-37.4-98.3 0-135.8 37.4-37.4 98.3-37.4 135.8 0 12.2 12.2 19.9 26.9 24.1 42.4 6.1-7 12.9-13.3 20.6-18.6l26.3-78.4c3.4-10.2-6.3-19.8-16.5-16.4l-75.3 25.1-35.5-71c-4.8-9.6-18.5-9.6-23.3 0l-35.5 71-75.3-25.1C59.3 49.7 49.7 59.4 53 69.6l25.1 75.3-71 35.5c-9.6 4.8-9.6 18.5 0 23.3l71 35.5L53 314.5c-3.4 10.2 6.3 19.8 16.5 16.5l42.7-14.2c6.3-5.1 12.9-9.8 20.1-13.6zM128 192c0 23.4 12.8 43.8 31.7 54.9 23.1-29.5 57.2-49.2 96.2-53.5 0-.5.1-.9.1-1.4 0-35.3-28.7-64-64-64s-64 28.7-64 64z"/></svg>