<svg xmlns="http://www.w3.org/2000/svg" viewBox="0 0 512 512"><!-- Font Awesome Pro 5.15.4 by @fontawesome - https://fontawesome.com License - https://fontawesome.com/license (Commercial License) --><path d="M96 320h320c53 0 96-43 96-96s-43-96-96-96c-.6 0-1.1.2-1.6.2 1.1-5.2 1.6-10.6 1.6-16.2 0-44.2-35.8-80-80-80-24.6 0-46.3 11.3-61 28.8C256.4 24.8 219.3 0 176 0 114.1 0 64 50.1 64 112c0 7.3.8 14.3 2.1 21.2C27.8 145.8 0 181.5 0 224c0 53 43 96 96 96zm30.9 69.1l-8-13.9c-2.2-3.8-7.1-5.1-10.9-2.9l-28 16.1V360c0-4.4-3.6-8-8-8H56c-4.4 0-8 3.6-8 8v28.4l-28-16.1c-3.8-2.2-8.7-.9-10.9 2.9l-8 13.9c-2.2 3.8-.9 8.7 2.9 10.9l27.9 16L4 432c-3.8 2.2-5.1 7.1-2.9 10.9l8 13.9c2.2 3.8 7.1 5.1 10.9 2.9l28-16.1V472c0 4.4 3.6 8 8 8h16c4.4 0 8-3.6 8-8v-28.4l28 16.1c3.8 2.2 8.7.9 10.9-2.9l8-13.9c2.2-3.8.9-8.7-2.9-10.9l-27.9-16 27.9-16c3.8-2.2 5.1-7.1 2.9-10.9zm192 32l-8-13.9c-2.2-3.8-7.1-5.1-10.9-2.9l-28 16.1V392c0-4.4-3.6-8-8-8h-16c-4.4 0-8 3.6-8 8v28.4l-28-16.1c-3.8-2.2-8.7-.9-10.9 2.9l-8 13.9c-2.2 3.8-.9 8.7 2.9 10.9l27.9 16-27.9 16c-3.8 2.2-5.1 7.1-2.9 10.9l8 13.9c2.2 3.8 7.1 5.1 10.9 2.9l28-16.1V504c0 4.4 3.6 8 8 8h16c4.4 0 8-3.6 8-8v-28.4l28 16.1c3.8 2.2 8.7.9 10.9-2.9l8-13.9c2.2-3.8.9-8.7-2.9-10.9l-27.9-16 27.9-16c3.8-2.2 5.1-7.1 2.9-10.9zm192-32l-8-13.9c-2.2-3.8-7.1-5.1-10.9-2.9l-28 16.1V360c0-4.4-3.6-8-8-8h-16c-4.4 0-8 3.6-8 8v28.4l-28-16.1c-3.8-2.2-8.7-.9-10.9 2.9l-8 13.9c-2.2 3.8-.9 8.7 2.9 10.9l27.9 16-27.9 16c-3.8 2.2-5.1 7.1-2.9 10.9l8 13.9c2.2 3.8 7.1 5.1 10.9 2.9l28-16.1V472c0 4.4 3.6 8 8 8h16c4.4 0 8-3.6 8-8v-28.4l28 16.1c3.8 2.2 8.7.9 10.9-2.9l8-13.9c2.2-3.8.9-8.7-2.9-10.9l-27.9-16 27.9-16c3.8-2.2 5.1-7.1 2.9-10.9z"/></svg>