<svg xmlns="http://www.w3.org/2000/svg" viewBox="0 0 512 512"><!-- Font Awesome Pro 5.15.4 by @fontawesome - https://fontawesome.com License - https://fontawesome.com/license (Commercial License) --><path d="M183.9 370.1c-7.6-4.4-17.4-1.8-21.8 6l-64 112c-4.4 7.7-1.7 17.5 6 21.8 2.5 1.4 5.2 2.1 7.9 2.1 5.5 0 10.9-2.9 13.9-8.1l64-112c4.4-7.6 1.7-17.4-6-21.8zm95.3-.4c-7.9-3.9-17.5-.8-21.5 7.2l-16 32c-3.9 7.9-.8 17.5 7.2 21.5 2.3 1.1 4.8 1.7 7.2 1.7 5.8 0 11.5-3.2 14.3-8.8l16-32c3.8-8.1.7-17.7-7.2-21.6zm-192 0c-7.9-3.9-17.5-.8-21.5 7.2l-16 32c-3.9 7.9-.8 17.5 7.2 21.5 2.3 1.1 4.8 1.7 7.2 1.7 5.8 0 11.5-3.2 14.3-8.8l16-32c3.8-8.1.7-17.7-7.2-21.6zm384 0c-7.9-3.9-17.5-.8-21.5 7.2l-16 32c-3.9 7.9-.8 17.5 7.2 21.5 2.3 1.1 4.8 1.7 7.2 1.7 5.8 0 11.5-3.2 14.3-8.8l16-32c3.8-8.1.7-17.7-7.2-21.6zm-95.3.4c-7.6-4.4-17.4-1.8-21.8 6l-64 112c-4.4 7.7-1.7 17.5 6 21.8 2.5 1.4 5.2 2.1 7.9 2.1 5.5 0 10.9-2.9 13.9-8.1l64-112c4.4-7.6 1.7-17.4-6-21.8zM416 128c-.6 0-1.1.2-1.6.2 1.1-5.2 1.6-10.6 1.6-16.2 0-44.2-35.8-80-80-80-24.6 0-46.3 11.3-61 28.8C256.4 24.8 219.3 0 176 0 114.1 0 64 50.1 64 112c0 7.3.8 14.3 2.1 21.2C27.8 145.8 0 181.5 0 224c0 53 43 96 96 96h320c53 0 96-43 96-96s-43-96-96-96zM32 448c-17.7 0-32 14.3-32 32s14.3 32 32 32 32-14.3 32-32-14.3-32-32-32zm192 0c-17.7 0-32 14.3-32 32s14.3 32 32 32 32-14.3 32-32-14.3-32-32-32zm192 0c-17.7 0-32 14.3-32 32s14.3 32 32 32 32-14.3 32-32-14.3-32-32-32z"/></svg>