<svg xmlns="http://www.w3.org/2000/svg" viewBox="0 0 640 512"><!-- Font Awesome Pro 5.15.4 by @fontawesome - https://fontawesome.com License - https://fontawesome.com/license (Commercial License) --><path d="M448 320h-1.6c-7.4-36.5-39.7-64-78.4-64-24.6 0-46.3 11.3-61 28.8-18.6-35.9-55.8-60.8-99-60.8-58.3 0-105.6 44.7-110.9 101.6C59.3 338.5 32 373.9 32 416c0 53 43 96 96 96h320c53 0 96-43 96-96s-43-96-96-96zm183-71.3c-78.2 14.8-150-44.7-150-123.1 0-45.1 24.3-86.6 63.9-109 6.1-3.4 4.6-12.6-2.4-13.9C532.9.9 523 0 513.1 0 424.2 0 352 71.6 352 160c0 .7.2 1.3.2 2 16.3 16.8 27 38.8 30.3 63.1 38.5 5.1 71.7 29.9 87.6 64.8 23.1 4 44 14.4 61.1 29.1 42.5-4.7 80.7-26 107.1-58.2 4.4-5.5-.4-13.4-7.3-12.1zM68.3 303.2C83.2 238.6 140.2 192 208 192c40.7 0 78.6 17.2 105.4 46.5 11.5-6.5 24.1-10.8 37.1-12.9-6.8-37.3-39.3-65.6-78.5-65.6h-17.6c-7.4-36.5-39.7-64-78.4-64s-71 27.5-78.4 64H80c-44.2 0-80 35.8-80 80 0 33.9 21.2 62.8 51 74.4 5.5-4.1 11.2-8 17.3-11.2z"/></svg>