<svg xmlns="http://www.w3.org/2000/svg" viewBox="0 0 640 512"><!-- Font Awesome Pro 5.15.4 by @fontawesome - https://fontawesome.com License - https://fontawesome.com/license (Commercial License) --><path d="M544 320c-.6 0-1.1.2-1.6.2 1.1-5.2 1.6-10.6 1.6-16.2 0-44.2-35.8-80-80-80-24.6 0-46.3 11.3-61 28.8-18.6-35.9-55.8-60.8-99-60.8-61.9 0-112 50.1-112 112 0 7.3.8 14.3 2.1 21.2-38.3 12.6-66.1 48.3-66.1 90.8 0 53 43 96 96 96h320c53 0 96-43 96-96s-43-96-96-96zM304 160c40.7 0 78.6 17.2 105.4 46.5 9.8-5.6 20.5-9.4 31.6-11.8 4.3-10.8 7-22.3 7-34.7 0-53-43-96-96-96-14.1 0-27.4 3.2-39.5 8.7C296.6 30.3 256 0 208 0 151.6 0 105.3 41.9 97.6 96.2c-.5 0-1-.2-1.6-.2-53 0-96 43-96 96s43 96 96 96h65.6c8.1-71.8 68.5-128 142.4-128z"/></svg>