<svg xmlns="http://www.w3.org/2000/svg" viewBox="0 0 512 512"><!-- Font Awesome Pro 5.15.4 by @fontawesome - https://fontawesome.com License - https://fontawesome.com/license (Commercial License) --><path d="M371.5 169.1C403.1 88.4 343.7 0 256 0c-87.8 0-147 88.5-115.5 169.1C65.7 159.2 0 217.3 0 292c0 68.5 55.5 124 124 124 36.5 0 69.3-15.8 92-40.9-.1 36.7-.8 52.4-53 75.6-13.8 6.1-21.4 21.1-18.3 35.9 3.1 14.8 16.2 25.4 31.3 25.4h160c15.1 0 28.2-10.6 31.3-25.4 3.1-14.8-4.5-29.7-18.3-35.9-51.6-23-52.8-38.1-53-75.6 22.7 25.1 55.5 40.9 92 40.9 68.5 0 124-55.5 124-124 0-74.8-65.8-132.8-140.5-122.9z"/></svg>