<svg xmlns="http://www.w3.org/2000/svg" viewBox="0 0 512 512"><!-- Font Awesome Pro 5.15.4 by @fontawesome - https://fontawesome.com License - https://fontawesome.com/license (Commercial License) --><path d="M431.45,177.65,480,32H88A88,88,0,0,0,0,120v88a16,16,0,0,0,16,16H48a16,16,0,0,0,16-16V136a40,40,0,0,1,40-40h13.33l27.39,82.16C95.41,217.9,64,277.69,64,344.62c0,51.47,18.62,84.77,49.64,117.71A57.18,57.18,0,0,0,155.17,480H420.84a57.08,57.08,0,0,0,41.45-17.6c31-32.95,49.69-66.24,49.71-117.72C512,278.37,481.37,217.83,431.45,177.65ZM445.91,320H130.61c6.71-39.06,28.92-72.85,60.5-96h195.8C417.89,247.2,439.49,281.22,445.91,320Z"/></svg>