<svg xmlns="http://www.w3.org/2000/svg" viewBox="0 0 512 512"><!-- Font Awesome Pro 5.15.4 by @fontawesome - https://fontawesome.com License - https://fontawesome.com/license (Commercial License) --><path d="M448 0H64C28.7 0 0 28.7 0 64v288c0 35.3 28.7 64 64 64h96v84c0 9.8 11.2 15.5 19.1 9.7L304 416h144c35.3 0 64-28.7 64-64V64c0-35.3-28.7-64-64-64zM215.4 310.6l-48.2 5.4c-6.5.7-11.9-4.8-11.2-11.2l5.4-48.2 96.3-96.3 54 54-96.3 96.3zm150.7-150.7l-31.8 31.8-54-54 31.8-31.8c7.9-7.9 20.7-7.9 28.6 0l25.4 25.4c7.9 7.9 7.9 20.7 0 28.6z"/></svg>