<svg xmlns="http://www.w3.org/2000/svg" viewBox="0 0 512 512"><!-- Font Awesome Pro 5.15.4 by @fontawesome - https://fontawesome.com License - https://fontawesome.com/license (Commercial License) --><path d="M448 0H64C28.7 0 0 28.7 0 64v288c0 35.3 28.7 64 64 64h96v84c0 9.8 11.2 15.5 19.1 9.7L304 416h144c35.3 0 64-28.7 64-64V64c0-35.3-28.7-64-64-64zM320 133.2c14.8 0 26.8 12 26.8 26.8s-12 26.8-26.8 26.8-26.8-12-26.8-26.8 12-26.8 26.8-26.8zm-128 0c14.8 0 26.8 12 26.8 26.8s-12 26.8-26.8 26.8-26.8-12-26.8-26.8 12-26.8 26.8-26.8zm164.2 140.9C331.3 303.3 294.8 320 256 320c-38.8 0-75.3-16.7-100.2-45.9-5.8-6.7-5-16.8 1.8-22.5 6.7-5.7 16.8-5 22.5 1.8 18.8 22 46.5 34.6 75.8 34.6 29.4 0 57-12.6 75.8-34.7 5.8-6.7 15.9-7.5 22.6-1.8 6.8 5.8 7.6 15.9 1.9 22.6z"/></svg>