<svg xmlns="http://www.w3.org/2000/svg" viewBox="0 0 512 512"><!-- Font Awesome Pro 5.15.4 by @fontawesome - https://fontawesome.com License - https://fontawesome.com/license (Commercial License) --><path d="M448-1H64A64.05 64.05 0 0 0 0 63v288a64.05 64.05 0 0 0 64 64h96v84a12 12 0 0 0 19.09 9.7L304 415h144a64.05 64.05 0 0 0 64-64V63a64.05 64.05 0 0 0-64-64zm-96 256c0 17.67-21.5 32-48 32s-48-14.33-48-32 21.5-32 48-32a69.89 69.89 0 0 1 16 2v-76.36l-96 37.52V287c0 17.67-21.5 32-48 32s-48-14.33-48-32 21.5-32 48-32a69.89 69.89 0 0 1 16 2V142.25A16 16 0 0 1 203.19 127l128-47.25A16 16 0 0 1 352 95z"/></svg>