<svg xmlns="http://www.w3.org/2000/svg" viewBox="0 0 512 512"><!-- Font Awesome Pro 5.15.4 by @fontawesome - https://fontawesome.com License - https://fontawesome.com/license (Commercial License) --><path d="M256 32C114.59 32 0 125.09 0 240c0 49.59 21.41 95 57 130.7C44.5 421.09 2.69 466 2.19 466.5a8 8 0 0 0-1.5 8.7A7.87 7.87 0 0 0 8 480c66.31 0 116-31.8 140.59-51.41A304.63 304.63 0 0 0 256 448c141.41 0 256-93.09 256-208S397.41 32 256 32zm96 256c0 17.67-21.5 32-48 32s-48-14.33-48-32 21.5-32 48-32a69.89 69.89 0 0 1 16 2v-76.36l-96 37.52V320c0 17.67-21.5 32-48 32s-48-14.33-48-32 21.5-32 48-32a69.89 69.89 0 0 1 16 2V175.25A16 16 0 0 1 203.19 160l128-47.25A16 16 0 0 1 352 128z"/></svg>