<svg xmlns="http://www.w3.org/2000/svg" viewBox="0 0 512 512"><!-- Font Awesome Pro 5.15.4 by @fontawesome - https://fontawesome.com License - https://fontawesome.com/license (Commercial License) --><path d="M448 0H64C28.7 0 0 28.7 0 64v288c0 35.3 28.7 64 64 64h96v84c0 9.8 11.2 15.5 19.1 9.7L304 416h144c35.3 0 64-28.7 64-64V64c0-35.3-28.7-64-64-64zM256 336c-17.7 0-32-14.3-32-32s14.3-32 32-32 32 14.3 32 32-14.3 32-32 32zm25.4-110.4c-.8 8.2-7.7 14.4-15.9 14.4h-19c-8.2 0-15.1-6.2-15.9-14.4l-12.8-128c-.9-9.4 6.5-17.6 15.9-17.6h44.6c9.5 0 16.9 8.2 15.9 17.6l-12.8 128z"/></svg>