<svg xmlns="http://www.w3.org/2000/svg" viewBox="0 0 512 512"><!-- Font Awesome Pro 5.15.4 by @fontawesome - https://fontawesome.com License - https://fontawesome.com/license (Commercial License) --><path d="M448 0H64C28.7 0 0 28.7 0 64v288c0 35.3 28.7 64 64 64h96v84c0 9.8 11.2 15.5 19.1 9.7L304 416h144c35.3 0 64-28.7 64-64V64c0-35.3-28.7-64-64-64zM340.9 258.9c6.2 6.2 6.2 16.4 0 22.6l-11.3 11.3c-6.2 6.2-16.4 6.2-22.6 0l-51-50.9-50.9 50.9c-6.2 6.2-16.4 6.2-22.6 0l-11.3-11.3c-6.2-6.2-6.2-16.4 0-22.6l50.9-50.9-50.9-50.9c-6.2-6.2-6.2-16.4 0-22.6l11.3-11.3c6.2-6.2 16.4-6.2 22.6 0l50.9 50.9 50.9-50.9c6.2-6.2 16.4-6.2 22.6 0l11.3 11.3c6.2 6.2 6.2 16.4 0 22.6L289.9 208l51 50.9z"/></svg>