<svg xmlns="http://www.w3.org/2000/svg" viewBox="0 0 512 512"><!-- Font Awesome Pro 5.15.4 by @fontawesome - https://fontawesome.com License - https://fontawesome.com/license (Commercial License) --><path d="M256 32C114.6 32 0 125.1 0 240c0 49.6 21.4 95 57 130.7C44.5 421.1 2.7 466 2.2 466.5c-2.2 2.3-2.8 5.7-1.5 8.7S4.8 480 8 480c66.3 0 116-31.8 140.6-51.4 32.7 12.3 69 19.4 107.4 19.4 141.4 0 256-93.1 256-208S397.4 32 256 32zm64 133.2c14.8 0 26.8 12 26.8 26.8s-12 26.8-26.8 26.8-26.8-12-26.8-26.8 12-26.8 26.8-26.8zm-128 0c14.8 0 26.8 12 26.8 26.8s-12 26.8-26.8 26.8-26.8-12-26.8-26.8 12-26.8 26.8-26.8zm164.2 140.9C331.3 335.3 294.8 352 256 352c-38.8 0-75.3-16.7-100.2-45.9-5.8-6.7-5-16.8 1.8-22.5 6.7-5.7 16.8-5 22.5 1.8 18.8 22 46.5 34.6 75.8 34.6 29.4 0 57-12.6 75.8-34.7 5.8-6.7 15.9-7.5 22.6-1.8 6.8 5.8 7.6 15.9 1.9 22.6z"/></svg>