<svg xmlns="http://www.w3.org/2000/svg" viewBox="0 0 640 512"><!-- Font Awesome Pro 5.15.4 by @fontawesome - https://fontawesome.com License - https://fontawesome.com/license (Commercial License) --><path d="M288 416H128a32 32 0 0 0 0 64h176.41A79.24 79.24 0 0 1 288 432zM0 80v256a48 48 0 0 0 48 48h240v-64H64V96h224V80a79.24 79.24 0 0 1 16.41-48H48A48 48 0 0 0 0 80zm592-48H368a48 48 0 0 0-48 48v352a48 48 0 0 0 48 48h224a48 48 0 0 0 48-48V80a48 48 0 0 0-48-48zM480 96a32 32 0 1 1-32 32 32 32 0 0 1 32-32zm0 320a96 96 0 1 1 96-96 96 96 0 0 1-96 96zm0-160a64 64 0 1 0 64 64 64 64 0 0 0-64-64z"/></svg>