<svg xmlns="http://www.w3.org/2000/svg" viewBox="0 0 512 512"><!-- Font Awesome Pro 5.15.4 by @fontawesome - https://fontawesome.com License - https://fontawesome.com/license (Commercial License) --><path d="M118.63 370.74l-67.88 67.88L96 483.88c37.49 37.49 98.27 37.49 135.76 0l90.51-90.51 97.66-19.53c6.43-1.29 8.85-9.59 3.91-13.89-88-76.52-221.49-72.92-305.21 10.79zm82.4-85.89c15.42-67.76-.79-141.26-49-196.71-4.29-4.94-12.58-2.51-13.87 3.91l-19.54 97.68-90.51 90.51c-37.49 37.49-37.49 98.28 0 135.77L96 348.12c30.38-30.38 66.59-51.38 105.03-63.27zM511.93 45.3v-3.2c1.28-21.44-14.72-40-36.48-41.91-16.63-1.61-31.67 7.03-39.03 21.11-9.92-9.59-24.33-13.75-38.41-9.6-13.44 3.85-23.67 14.08-27.51 26.88-10.88-7.03-24.96-8.64-37.77-3.2-12.79 5.77-21.11 17.28-23.36 29.77-11.52-5.44-25.59-5.44-37.44 1.59-11.85 6.72-18.88 18.89-19.84 31.36-11.83-4.47-25.91-3.19-37.11 4.81-3.26 2.3-5.94 5.13-8.31 8.17 28.33 51.23 37.75 110.06 28.31 166.44 56.39-9.36 115.25-.37 166.48 28.13 1.7-1.66 3.43-3.29 4.87-5.31 8-11.2 9.28-24.97 4.79-36.8 12.8-.97 24.96-8 31.69-19.85 7.03-11.84 7.36-25.92 1.59-37.44 12.8-2.25 24.31-10.25 30.08-23.05 5.76-12.8 4.15-26.87-2.88-37.77 12.47-3.83 23.03-13.75 27.2-27.19 4.16-14.08 0-28.48-8.97-38.41 12.51-6.37 21.46-19.17 22.1-34.53z"/></svg>