<svg xmlns="http://www.w3.org/2000/svg" viewBox="0 0 640 512"><!-- Font Awesome Pro 5.15.4 by @fontawesome - https://fontawesome.com License - https://fontawesome.com/license (Commercial License) --><path d="M634.01 276.72l-10-13.81v-77.02c0-11.89-12.52-19.63-23.16-14.31-10.82 5.41-19.47 13.59-26.31 23.01l-65.82-90.9A96.025 96.025 0 0 0 430.96 64H112c-48.6 0-88 39.4-88 88v86.41C9.48 250.14 0 267.88 0 288v32h8c35.35 0 64-28.65 64-64V152c0-16.87 10.55-31.16 25.34-37.04-.87 4.22-1.34 8.57-1.34 13.04v304c0 8.84 7.16 16 16 16h64c8.84 0 16-7.16 16-16V320c9.32 9.32 20.28 16.5 32.04 21.87V368c0 8.84 7.16 16 16 16s16-7.16 16-16v-17.31c9.1 1.12 12.81 2.36 32-.01V368c0 8.84 7.16 16 16 16s16-7.16 16-16v-26.18c11.71-5.36 22.64-12.51 31.92-21.79V432c0 8.84 7.16 16 16 16h64c8.84 0 16-7.16 16-16V256l32 32v41.48a63.97 63.97 0 0 0 10.75 35.5l41.33 61.99a47.233 47.233 0 0 0 39.3 21.03c22.52 0 41.9-15.89 46.32-37.97l21.73-108.63c1.72-8.62-.23-17.57-5.38-24.68zM377.24 167.36l-22.89 22.75c-21.82 21.7-51.41 33.88-82.26 33.88h-.17c-30.86 0-60.45-12.19-82.26-33.88l-22.89-22.75c-15.72-15.63-2.3-39.36 22.25-39.36h165.96c24.56 0 37.98 23.73 22.26 39.36zM576.01 352c-8.84 0-16-7.16-16-16s7.16-16 16-16 16 7.16 16 16-7.17 16-16 16z"/></svg>