<svg xmlns="http://www.w3.org/2000/svg" viewBox="0 0 640 512"><!-- Font Awesome Pro 5.15.4 by @fontawesome - https://fontawesome.com License - https://fontawesome.com/license (Commercial License) --><path d="M421.5 321.5L158 506c-8.9 6.2-20.5 7.9-30.4 3.5C54.8 477 5.7 406.9.1 327.4c-.8-10.8 4.8-21.2 13.7-27.4l263.5-184.5-30.9 175.1 175.1 30.9zM635.7 30.4l-15.2-20.2C612.9-.6 597.9-3.3 587 4.3L443 104.8c-14.5 10.1-34.4 6.6-44.6-7.9l-21.9-31.3c-5.1-7.2-15-9-22.3-3.9l-21.3 14.9L302 251.7l175.1 30.9 21.3-14.9c7.2-5.1 9-15 3.9-22.3l-24.5-35c-10.1-14.5-6.6-34.4 7.9-44.6L629.8 63.9c10.8-7.6 13.5-22.6 5.9-33.5zM496 352c-44.2 0-80 35.8-80 80s35.8 80 80 80 80-35.8 80-80-35.8-80-80-80z"/></svg>