<svg xmlns="http://www.w3.org/2000/svg" viewBox="0 0 512 512"><!-- Font Awesome Pro 5.15.4 by @fontawesome - https://fontawesome.com License - https://fontawesome.com/license (Commercial License) --><path d="M512 256c0-26.93-16.67-49.88-40.23-59.32-20.88-75.84-80.61-135.56-156.45-156.45C305.88 16.68 282.93 0 256 0s-49.88 16.68-59.32 40.23C120.84 61.11 61.11 120.84 40.23 196.68 16.67 206.12 0 229.07 0 256s16.67 49.88 40.23 59.32c20.88 75.84 80.61 135.56 156.45 156.45C206.12 495.33 229.07 512 256 512s49.88-16.67 59.32-40.23c75.84-20.88 135.56-80.61 156.45-156.45C495.33 305.88 512 282.93 512 256zm-64-16c8.82 0 16 7.18 16 16s-7.18 16-16 16-16-7.18-16-16 7.18-16 16-16zM272 64c0 8.82-7.18 16-16 16s-16-7.18-16-16 7.18-16 16-16 16 7.18 16 16zM64 272c-8.82 0-16-7.18-16-16s7.18-16 16-16 16 7.18 16 16-7.18 16-16 16zm176 176c0-8.82 7.18-16 16-16s16 7.18 16 16-7.18 16-16 16-16-7.18-16-16zm65.15-40.53C293.41 393.25 275.88 384 256 384s-37.41 9.25-49.15 23.47a159.62 159.62 0 0 1-102.32-102.32C118.75 293.41 128 275.88 128 256s-9.25-37.42-23.47-49.15a159.62 159.62 0 0 1 102.32-102.32C218.59 118.75 236.12 128 256 128s37.41-9.25 49.15-23.47a159.62 159.62 0 0 1 102.32 102.32C393.25 218.58 384 236.12 384 256s9.25 37.41 23.47 49.15a159.598 159.598 0 0 1-102.32 102.32z"/></svg>