<svg xmlns="http://www.w3.org/2000/svg" viewBox="0 0 640 512"><!-- Font Awesome Pro 5.15.4 by @fontawesome - https://fontawesome.com License - https://fontawesome.com/license (Commercial License) --><path d="M288 136a24 24 0 0 0-24-24h-97.62a23.66 23.66 0 0 0-44.77 0H24a24 24 0 0 0 0 48h240a24 24 0 0 0 24-24zm328.4-23.93l-97.82.31a23.58 23.58 0 0 0-45 .14l-98 .31a23.55 23.55 0 0 0 .15 47.09l240.81-.77a23.54 23.54 0 0 0-.15-47.08zM472 237.65l-96.85-29.05a191.9 191.9 0 0 0-110.33 0L168 237.65V192h-48v64.05a32 32 0 0 0 32 32h45.4a179 179 0 0 0-53.33 110.24 16.14 16.14 0 0 0 16 17.71h16.25c8.34 0 14.76-6.58 15.68-14.87a130 130 0 0 1 53.67-91.38l32.92 32.93a32 32 0 0 0 22.63 9.37h37.49a32 32 0 0 0 22.63-9.37l32.92-32.93A130.06 130.06 0 0 1 448 401.13c.92 8.29 7.34 14.85 15.68 14.87h16.25a16.14 16.14 0 0 0 16-17.71 179 179 0 0 0-53.33-110.24H488a32 32 0 0 0 32-32V192h-48z"/></svg>