<svg xmlns="http://www.w3.org/2000/svg" viewBox="0 0 512 512"><!-- Font Awesome Pro 5.15.4 by @fontawesome - https://fontawesome.com License - https://fontawesome.com/license (Commercial License) --><path d="M502.4 240.5l-94.7-47.3 33.5-100.4c4.5-13.6-8.4-26.5-21.9-21.9l-100.4 33.5-47.4-94.8c-6.4-12.8-24.6-12.8-31 0l-47.3 94.7L92.7 70.8c-13.6-4.5-26.5 8.4-21.9 21.9l33.5 100.4-94.7 47.4c-12.8 6.4-12.8 24.6 0 31l94.7 47.3-33.5 100.5c-4.5 13.6 8.4 26.5 21.9 21.9l100.4-33.5 47.3 94.7c6.4 12.8 24.6 12.8 31 0l47.3-94.7 100.4 33.5c13.6 4.5 26.5-8.4 21.9-21.9l-33.5-100.4 94.7-47.3c13-6.5 13-24.7.2-31.1zm-155.9 106c-49.9 49.9-131.1 49.9-181 0-49.9-49.9-49.9-131.1 0-181s131.1-49.9 181 0c49.9 49.9 49.9 131.1 0 181zm-20.4-37.3c-46.5 8.9-89.3-26.8-89.3-73.9 0-27.1 14.5-52 38-65.4 3.6-2.1 2.7-7.6-1.4-8.3-5.8-1.1-11.6-1.6-17.5-1.6-52.9 0-95.9 42.9-95.9 96 0 53 42.9 96 95.9 96 29.6 0 56.6-13.5 74.5-35.5 2.7-3.3-.2-8.1-4.3-7.3z"/></svg>