<svg xmlns="http://www.w3.org/2000/svg" viewBox="0 0 640 512"><!-- Font Awesome Pro 5.15.4 by @fontawesome - https://fontawesome.com License - https://fontawesome.com/license (Commercial License) --><path d="M464 80c-97.2 0-176 78.8-176 176s78.8 176 176 176 176-78.8 176-176S561.2 80 464 80zM165.5 346.5c-49.9-49.9-49.9-131.1 0-181 35.1-35.1 85.5-45 129.8-30.7 7.5-10.4 15.8-20.1 25.1-28.9L271.5 9.6c-6.4-12.8-24.6-12.8-31 0l-47.3 94.7L92.7 70.8c-13.6-4.5-26.5 8.4-21.9 21.9l33.5 100.4-94.7 47.4c-12.8 6.4-12.8 24.6 0 31l94.7 47.3-33.5 100.5c-4.5 13.6 8.4 26.5 21.9 21.9l100.4-33.5 47.3 94.7c6.4 12.8 24.6 12.8 31 0l47.3-94.7 5.3 1.8c-10.7-9.7-20.3-20.5-28.8-32.3-44.2 14.3-94.6 4.4-129.7-30.7zM256 160c-52.9 0-96 43.1-96 96s43.1 96 96 96c7.7 0 15.1-1.2 22.3-2.9-14.2-28-22.3-59.6-22.3-93.1 0-33.5 8.1-65.1 22.3-93.1-7.2-1.7-14.6-2.9-22.3-2.9z"/></svg>