<svg xmlns="http://www.w3.org/2000/svg" viewBox="0 0 640 512"><!-- Font Awesome Pro 5.15.4 by @fontawesome - https://fontawesome.com License - https://fontawesome.com/license (Commercial License) --><path d="M512 32c-13.16 0-25.52 2.66-37.4 6.4C464.71 15.82 442.23 0 416 0c-35.35 0-64 28.65-64 64 0 23.63 12.95 44.04 32 55.12V160c0 17.67 14.33 32 32 32h8c4.42 0 8 3.58 8 8v16c0 4.42-3.58 8-8 8h-8c-35.29 0-64-28.71-64-64v-24.8c-20.08-18.03-32-43.92-32-71.2 0-11.28 2.31-21.94 5.9-32H192C85.96 32 0 117.96 0 224v112c0 8.84 7.16 16 16 16h16v144c0 8.84 7.16 16 16 16h64c8.84 0 16-7.16 16-16V388.15C160.35 405.7 198.72 416 240 416s79.65-10.3 112-27.85V496c0 8.84 7.16 16 16 16h64c8.84 0 16-7.16 16-16V288h64c23.44 0 45.11-6.76 64-17.75V368c0 8.83-7.17 16-16 16s-16-7.17-16-16c0-8.84-7.16-16-16-16h-32c-8.84 0-16 7.16-16 16 0 46.87 40.52 84.46 88.36 79.57 41.62-4.25 71.64-42.46 71.64-84.3V160c0-70.69-57.31-128-128-128zm16 128c-8.84 0-16-7.16-16-16s7.16-16 16-16 16 7.16 16 16-7.16 16-16 16z"/></svg>