<svg xmlns="http://www.w3.org/2000/svg" viewBox="0 0 640 512"><!-- Font Awesome Pro 5.15.4 by @fontawesome - https://fontawesome.com License - https://fontawesome.com/license (Commercial License) --><path d="M560.7 0H628c6.6 0 12 5.4 12 12v124.9c0 3.2-1.3 6.2-3.5 8.5L592 190 479 76.9l73.3-73.3c2.2-2.3 5.2-3.6 8.4-3.6zm-53.4 274.7l50.8-50.8-113-113.1-230.7 231c-30 29.9-75-15.4-45.2-45.3 31.2-31.2 31.2-81.9 0-113.1-31.2-31.2-81.8-31.2-113 0C19.9 219.7 0 267.9 0 319.2c0 106 85.6 192 191.8 192 86.1 0 132.5-53.2 147.4-68-19.3-100.5 68.5-187.6 168.1-168.5zM480.2 320c-53 0-95.9 43-95.9 96s42.9 96 95.9 96 95.9-43 95.9-96-42.9-96-95.9-96z"/></svg>