<svg xmlns="http://www.w3.org/2000/svg" viewBox="0 0 384 512"><!-- Font Awesome Pro 5.15.4 by @fontawesome - https://fontawesome.com License - https://fontawesome.com/license (Commercial License) --><path d="M224 136V0H24A23.94 23.94 0 0 0 0 24v464a23.94 23.94 0 0 0 24 24h336a23.94 23.94 0 0 0 24-24V160H248a24.08 24.08 0 0 1-24-24zm64 88v160c0 17.67-21.5 32-48 32s-48-14.33-48-32 21.5-32 48-32a69.89 69.89 0 0 1 16 2v-76.36l-96 37.52V416c0 17.67-21.5 32-48 32s-48-14.33-48-32 21.5-32 48-32a69.89 69.89 0 0 1 16 2V271.25A16 16 0 0 1 139.19 256l128-47.25A16 16 0 0 1 288 224zm89-119L279.09 7a24 24 0 0 0-17-7H256v128h128v-6.09a23.91 23.91 0 0 0-7-16.91z"/></svg>