<svg xmlns="http://www.w3.org/2000/svg" viewBox="0 0 384 512"><!-- Font Awesome Pro 5.15.4 by @fontawesome - https://fontawesome.com License - https://fontawesome.com/license (Commercial License) --><path d="M224,136V0H24A23.94,23.94,0,0,0,0,24V488a23.94,23.94,0,0,0,24,24H360a23.94,23.94,0,0,0,24-24V160H248A24.07,24.07,0,0,1,224,136Zm35.88,104.8,11.32,11.32a16,16,0,0,1,0,22.63L225.94,320l45.26,45.25a16,16,0,0,1,0,22.63L259.88,399.2a16,16,0,0,1-22.63,0L192,353.94,146.75,399.2a16,16,0,0,1-22.63,0L112.8,387.88a16,16,0,0,1,0-22.63L158.06,320,112.8,274.75a16,16,0,0,1,0-22.63l11.32-11.32a16,16,0,0,1,22.63,0L192,286.06l45.25-45.26A16,16,0,0,1,259.88,240.8ZM377,105,279.1,7a24,24,0,0,0-17-7H256V128H384v-6.1A23.92,23.92,0,0,0,377,105Z"/></svg>