<svg xmlns="http://www.w3.org/2000/svg" viewBox="0 0 512 512"><!-- Font Awesome Pro 5.15.4 by @fontawesome - https://fontawesome.com License - https://fontawesome.com/license (Commercial License) --><path d="M504.99 105.01l-97.9-98c-7.71-7.71-16-7-23.1-7v128h128c0-7.53.64-15.35-7-23zm-153 31V.01H152c-13.3 0-24 10.7-24 24V133c18.3-5 19.58-5 26.45-5 16.23 0 32.1 6.67 43.53 18.3 8.72 9.59 4.41 6.98 18.28 10.76 21.07 5.75 37.64 22.53 43.23 43.8 3.11 13.2.6 8.66 10.75 18.99 15.25 15.51 21.26 38.26 15.7 59.36-3.75 13.23-3.71 8.01 0 22.12 5.57 21.11-.45 43.85-15.69 59.37-9.64 9.36-7.04 4.88-10.75 18.99-4.89 18.59-18.16 33.75-35.5 41.12V512h263.99c13.3 0 24-10.7 24-24V160.01h-136c-13.2 0-24-10.8-24-24zM247.42 338.28c7.4-7.53 10.29-18.5 7.58-28.79-5.43-20.65-5.44-17.74 0-38.42 2.71-10.28-.18-21.26-7.58-28.79-14.86-15.12-13.43-12.61-18.87-33.27-2.71-10.28-10.6-18.32-20.71-21.07-20.28-5.53-17.84-4.1-32.69-19.21-7.4-7.53-18.18-10.47-28.28-7.71-20.32 5.54-17.46 5.53-37.75 0-10.1-2.76-20.88.19-28.28 7.71-14.91 15.18-12.5 13.7-32.69 19.21-10.11 2.76-18 10.79-20.71 21.07-5.46 20.74-4 18.13-18.87 33.27-7.4 7.53-10.29 18.5-7.58 28.79 5.45 20.71 5.42 17.79 0 38.41-2.71 10.28.18 21.26 7.58 28.79 14.85 15.11 13.43 12.61 18.87 33.27 2.71 10.28 10.6 18.32 20.71 21.07 14.31 3.9 11.52 2.97 15.84 5V512l64-32 64 32V397.62c4.31-2.02 1.52-1.1 15.84-5 10.11-2.76 18-10.79 20.71-21.07 5.47-20.74 4.01-18.13 18.88-33.27zM128 352.01c-35.34 0-64-28.65-64-64s28.66-64 64-64 64 28.65 64 64-28.66 64-64 64z"/></svg>