<svg xmlns="http://www.w3.org/2000/svg" viewBox="0 0 384 512"><!-- Font Awesome Pro 5.15.4 by @fontawesome - https://fontawesome.com License - https://fontawesome.com/license (Commercial License) --><path d="M377,105,279.1,7a24,24,0,0,0-17-7H256V128H384v-6.1A23.92,23.92,0,0,0,377,105ZM224,136V0H24A23.94,23.94,0,0,0,0,24V488a23.94,23.94,0,0,0,24,24H360a23.94,23.94,0,0,0,24-24V160H248A24.07,24.07,0,0,1,224,136Zm72,176v16a16,16,0,0,1-16,16H104a16,16,0,0,1-16-16V312a16,16,0,0,1,16-16H280A16,16,0,0,1,296,312Z"/></svg>