<svg xmlns="http://www.w3.org/2000/svg" viewBox="0 0 384 512"><!-- Font Awesome Pro 5.15.4 by @fontawesome - https://fontawesome.com License - https://fontawesome.com/license (Commercial License) --><path d="M224 136V0H24C10.7 0 0 10.7 0 24v464c0 13.3 10.7 24 24 24h336c13.3 0 24-10.7 24-24V160H248c-13.2 0-24-10.8-24-24zm80 273.6v19.2c0 10.61-10.03 19.2-22.4 19.2H102.4c-12.37 0-22.4-8.6-22.4-19.2v-19.2c0-31.81 30.09-57.6 67.2-57.6h4.95c12.29 5.12 25.73 8 39.85 8s27.56-2.88 39.85-8h4.95c37.11 0 67.2 25.79 67.2 57.6zM192 320c-35.35 0-64-28.65-64-64s28.65-64 64-64 64 28.65 64 64-28.65 64-64 64zm185-215L279.1 7c-4.5-4.5-10.6-7-17-7H256v128h128v-6.1c0-6.3-2.5-12.4-7-16.9z"/></svg>