<svg xmlns="http://www.w3.org/2000/svg" viewBox="0 0 576 512"><!-- Font Awesome Pro 5.15.4 by @fontawesome - https://fontawesome.com License - https://fontawesome.com/license (Commercial License) --><path d="M544 128H352v288h128a32 32 0 0 0 32-32v-32a32 32 0 0 1 32-32 32 32 0 0 0 32-32V160a32 32 0 0 0-32-32zM440 360a16 16 0 0 1-16 16h-16a16 16 0 0 1-16-16v-16a16 16 0 0 1 16-16h16a16 16 0 0 1 16 16zm0-160a16 16 0 0 1-16 16h-16a16 16 0 0 1-16-16v-16a16 16 0 0 1 16-16h16a16 16 0 0 1 16 16zm96 0a16 16 0 0 1-16 16h-16a16 16 0 0 1-16-16v-16a16 16 0 0 1 16-16h16a16 16 0 0 1 16 16zM336 448h-16V96h16a16 16 0 0 0 16-16V48a16 16 0 0 0-16-16h-80V16a16 16 0 0 0-16-16H112a16 16 0 0 0-16 16v16H16A16 16 0 0 0 0 48v32a16 16 0 0 0 16 16h16v352H16a16 16 0 0 0-16 16v32a16 16 0 0 0 16 16h320a16 16 0 0 0 16-16v-32a16 16 0 0 0-16-16z"/></svg>