<svg xmlns="http://www.w3.org/2000/svg" viewBox="0 0 640 512"><!-- Font Awesome Pro 5.15.4 by @fontawesome - https://fontawesome.com License - https://fontawesome.com/license (Commercial License) --><path d="M528 288c-37.1 0-69.7 18.3-90.1 46.1C418.4 288.2 373 256 320 256s-98.4 32.2-117.9 78.1c-20.4-27.8-53-46.1-90.1-46.1C50.1 288 0 338.1 0 400s50.1 112 112 112h416c61.9 0 112-50.1 112-112s-50.1-112-112-112zm-332.3-4.8c9.7-12 21.3-22.3 33.9-31-4.7-11.6-7.4-24.7-7.4-39.3 0-29.8 18.2-56.1 54.4-101.1 5.2 6.2 73.8 96.9 73.8 96.9l43.8-51.7c3.1 5.3 5.9 10.5 8.4 15.4 12.4 24.5 13.9 53.1 5.1 77.8 13.7 9 26.1 20 36.5 32.8 13.5-9.7 28.6-16.7 44.5-21.3 4.6-15.5 7.2-31.9 7.2-48.9 0-40.3-40.8-123.4-97.8-174.2C381.8 53.2 367 68.5 353.9 84 332.6 55.7 306.1 26.9 276 0c-77.2 68.9-132 158.8-132 213 0 17 2.6 33.4 7.2 48.9 15.9 4.6 31 11.6 44.5 21.3z"/></svg>