<svg xmlns="http://www.w3.org/2000/svg" viewBox="0 0 416 512"><!-- Font Awesome Pro 5.15.4 by @fontawesome - https://fontawesome.com License - https://fontawesome.com/license (Commercial License) --><path d="M80 48V16c0-8.84 7.16-16 16-16h224c8.84 0 16 7.16 16 16v32c0 8.84-7.16 16-16 16H96c-8.84 0-16-7.16-16-16zm88 240c-13.25 0-24 10.74-24 24 0 13.25 10.75 24 24 24s24-10.75 24-24c0-13.26-10.75-24-24-24zm247.95 68.67c-1.14 51.68-21.15 98.7-53.39 134.48-12.09 13.41-29.52 20.85-47.58 20.85H100.94c-17.78 0-35.05-7.13-47-20.3C20.43 454.79 0 405.79 0 352c0-80.12 45.61-149.15 112-183.88V96h192v73.05c67.19 36.13 113.71 107.67 111.95 187.62zM320 312c0-48.6-50.14-88-112-88S96 263.4 96 312c0 29.87 19.04 56.17 48 72.08V416c0 8.84 7.16 16 16 16h96c8.84 0 16-7.16 16-16v-31.92c28.96-15.91 48-42.21 48-72.08zm-72-24c-13.25 0-24 10.74-24 24 0 13.25 10.75 24 24 24s24-10.75 24-24c0-13.26-10.75-24-24-24z"/></svg>