<svg xmlns="http://www.w3.org/2000/svg" viewBox="0 0 448 512"><!-- Font Awesome Pro 5.15.4 by @fontawesome - https://fontawesome.com License - https://fontawesome.com/license (Commercial License) --><path d="M448,112V400a80.15451,80.15451,0,0,1-80,80H80A80.15451,80.15451,0,0,1,0,400V112A80.15451,80.15451,0,0,1,80,32H368A80.15451,80.15451,0,0,1,448,112ZM139.0625,238.82812l-45-44.95312c-7.60938-7.73438-13.78125-22.8125-13.78125-33.65625a48.01238,48.01238,0,0,1,48-48c10.84375,0,25.92187,6.17187,33.65625,13.78125l44.95312,45A96.07,96.07,0,0,0,208,160a80,80,0,1,0-80,80A93.8335,93.8335,0,0,0,139.0625,238.82812ZM208,262.625V352a16,16,0,0,0,32,0V262.625l91.31249-91.3125a18.49794,18.49794,0,0,0,4.39063-11.01562,15.99079,15.99079,0,0,0-16-16,18.498,18.498,0,0,0-11.01563,4.39062L224,233.375l-84.6875-84.6875a18.498,18.498,0,0,0-11.01562-4.39062,15.99079,15.99079,0,0,0-16,16,18.498,18.498,0,0,0,4.39062,11.01562ZM224.23438,432A79.79393,79.79393,0,0,0,304,352.23438c0-22.04688-14.34375-50.67188-32-63.875V352a48,48,0,0,1-96,0V288.35938c-17.65625,13.20312-32,41.82812-32,63.875A79.79393,79.79393,0,0,0,223.76562,432h.46876ZM400,160a80,80,0,0,0-160,0,93.8335,93.8335,0,0,0,1.17188,11.0625l44.95312-45c7.73438-7.60938,22.81249-13.78125,33.65625-13.78125a48.01238,48.01238,0,0,1,48,48c0,10.84375-6.17187,25.92187-13.78125,33.65625l-45,44.95312A96.06972,96.06972,0,0,0,320,240,80.034,80.034,0,0,0,400,160Z"/></svg>