<svg xmlns="http://www.w3.org/2000/svg" viewBox="0 0 512 512"><!-- Font Awesome Pro 5.15.4 by @fontawesome - https://fontawesome.com License - https://fontawesome.com/license (Commercial License) --><path d="M464 128H272l-64-64H48C21.49 64 0 85.49 0 112v288c0 26.51 21.49 48 48 48h416c26.51 0 48-21.49 48-48V176c0-26.51-21.49-48-48-48zM340.85 338.91c6.25 6.25 6.25 16.38 0 22.63l-11.31 11.31c-6.25 6.25-16.38 6.25-22.63 0L256 321.94l-50.91 50.91c-6.25 6.25-16.38 6.25-22.63 0l-11.31-11.31c-6.25-6.25-6.25-16.38 0-22.63L222.06 288l-50.91-50.91c-6.25-6.25-6.25-16.38 0-22.63l11.31-11.31c6.25-6.25 16.38-6.25 22.63 0L256 254.06l50.91-50.91c6.25-6.25 16.38-6.25 22.63 0l11.31 11.31c6.25 6.25 6.25 16.38 0 22.63L289.94 288l50.91 50.91z"/></svg>