<svg xmlns="http://www.w3.org/2000/svg" viewBox="0 0 640 512"><!-- Font Awesome Pro 5.15.4 by @fontawesome - https://fontawesome.com License - https://fontawesome.com/license (Commercial License) --><path d="M229.88 85.69A32 32 0 0 0 199.58 64h-47.16a32 32 0 0 0-30.3 21.69L.85 426.89A16 16 0 0 0 16 448h50.62a16 16 0 0 0 15.16-10.89L100.85 384h150.3l19.07 53.11A16 16 0 0 0 285.38 448H336a16 16 0 0 0 15.16-21.11zM129.58 304L176 174.74 222.42 304zM624 160h-32a16 16 0 0 0-16 16v1.81c-18.9-11-40.58-17.81-64-17.81a128.14 128.14 0 0 0-128 128v32a128.14 128.14 0 0 0 128 128c23.42 0 45.1-6.78 64-17.81V432a16 16 0 0 0 16 16h32a16 16 0 0 0 16-16V176a16 16 0 0 0-16-16zm-64 160a48 48 0 0 1-96 0v-32a48 48 0 0 1 96 0z"/></svg>