<svg xmlns="http://www.w3.org/2000/svg" viewBox="0 0 384 512"><!-- Font Awesome Pro 5.15.4 by @fontawesome - https://fontawesome.com License - https://fontawesome.com/license (Commercial License) --><path d="M320 16c0-8.8-7.2-16-16-16H80c-8.8 0-16 7.2-16 16v192h256V16zm48 224H16c-8.8 0-16 7.2-16 16v16c0 8.8 7.2 16 16 16h24.4C29.9 310.1 24 334.8 24 360.9c0 59.9 31.3 112.1 78.2 142 10.2 6.5 22.5 9.1 34.6 9.1h109.6c14.7 0 29.1-4.6 41.1-13 51.4-35.8 82.2-99.4 69.5-169.6-2.6-14.5-7.5-28.3-13.7-41.4H368c8.8 0 16-7.2 16-16v-16c0-8.8-7.2-16-16-16zM130.7 362.7c-11.8 0-21.3-9.6-21.3-21.3 0-11.8 9.6-21.3 21.3-21.3 11.8 0 21.3 9.6 21.3 21.3 0 11.7-9.6 21.3-21.3 21.3zM192 464s-32-46.3-32-64c0-17.7 14.3-32 32-32s32 14.3 32 32-32 64-32 64zm61.3-101.3c-11.8 0-21.3-9.6-21.3-21.3 0-11.8 9.6-21.3 21.3-21.3 11.8 0 21.3 9.6 21.3 21.3.1 11.7-9.5 21.3-21.3 21.3z"/></svg>