<svg xmlns="http://www.w3.org/2000/svg" viewBox="0 0 512 512"><!-- Font Awesome Pro 5.15.4 by @fontawesome - https://fontawesome.com License - https://fontawesome.com/license (Commercial License) --><path d="M506.578,274.10351C489.78116,202.99807,431.23821,146.26567,359.5898,131.959a194.38794,194.38794,0,0,0-101.80269,6.61719,143.73889,143.73889,0,0,1,85.51364-110.7441C356.6152,22.13681,353.61715,2.41416,339.207.963a196.56477,196.56477,0,0,0-65.10349,4.459C202.99807,22.21884,146.26567,80.76179,131.959,152.4102a194.38794,194.38794,0,0,0,6.61719,101.80269,143.73889,143.73889,0,0,1-110.7441-85.51364C22.13681,155.3848,2.41416,158.38285.963,172.793a196.56477,196.56477,0,0,0,4.459,65.10349C22.21884,309.00193,80.76179,365.73433,152.4102,380.041a194.38794,194.38794,0,0,0,101.80269-6.61719,143.73889,143.73889,0,0,1-85.51364,110.7441c-13.31445,5.69531-10.3164,25.418,4.09375,26.86913a196.56477,196.56477,0,0,0,65.10349-4.459C309.00193,489.78116,365.73433,431.23821,380.041,359.5898a194.38794,194.38794,0,0,0-6.61719-101.80269,143.73889,143.73889,0,0,1,110.7441,85.51364c5.69531,13.31445,25.418,10.3164,26.86913-4.09375A196.56477,196.56477,0,0,0,506.578,274.10351ZM256,304a48,48,0,1,1,48-48A47.99985,47.99985,0,0,1,256,304Z"/></svg>