<svg xmlns="http://www.w3.org/2000/svg" viewBox="0 0 640 512"><!-- Font Awesome Pro 5.15.4 by @fontawesome - https://fontawesome.com License - https://fontawesome.com/license (Commercial License) --><path d="M128,512H512V352H128.11Zm144-96h96a16,16,0,0,1,0,32H272a16,16,0,0,1,0-32ZM128,320H511.47l.53-96H128S128,320,128,320ZM610.5,117,338.41,3.67A57.4,57.4,0,0,0,320,0,57.4,57.4,0,0,0,301.5,3.67L29.5,117A48.11,48.11,0,0,0,0,161.28V496a16,16,0,0,0,16,16H80a16,16,0,0,0,16-16V224c0-17.59,14.59-32,32.59-32H511.41c18,0,32.59,14.41,32.59,32V496a16,16,0,0,0,16,16h64a16,16,0,0,0,16-16V161.28A48.11,48.11,0,0,0,610.5,117Z"/></svg>