<svg xmlns="http://www.w3.org/2000/svg" viewBox="0 0 640 512"><!-- Font Awesome Pro 5.15.4 by @fontawesome - https://fontawesome.com License - https://fontawesome.com/license (Commercial License) --><path d="M128,224v64H511.47l.53-64S128,224,128,224ZM465.47,355.4,456.62,320H407.14l8,32H224.86l8-32H183.38l-8.85,35.4A47.9,47.9,0,0,0,144,400v32c0,11.72,6.61,21.52,16,27.1V488a24,24,0,0,0,24,24h32a24,24,0,0,0,24-24V464H400v24a24,24,0,0,0,24,24h32a24,24,0,0,0,24-24V459.1c9.39-5.58,16-15.38,16-27.1V400A47.9,47.9,0,0,0,465.47,355.4ZM208,431.85c-14.4,0-24-9.56-24-23.92S193.6,384,208,384s36,21.53,36,35.89S222.4,431.85,208,431.85Zm224,0c-14.4,0-36,2.39-36-12S417.6,384,432,384s24,9.58,24,23.93S446.4,431.85,432,431.85ZM610.5,117,338.41,3.67A57.4,57.4,0,0,0,320,0,57.4,57.4,0,0,0,301.5,3.67L29.5,117A48.11,48.11,0,0,0,0,161.28V496a16,16,0,0,0,16,16H80a16,16,0,0,0,16-16V224c0-17.59,14.59-32,32.59-32H511.41c18,0,32.59,14.41,32.59,32V496a16,16,0,0,0,16,16h64a16,16,0,0,0,16-16V161.28A48.11,48.11,0,0,0,610.5,117Z"/></svg>