<svg xmlns="http://www.w3.org/2000/svg" viewBox="0 0 640 512"><!-- Font Awesome Pro 5.15.4 by @fontawesome - https://fontawesome.com License - https://fontawesome.com/license (Commercial License) --><path d="M633.82 458.1l-65.45-50.58c4.72-9.54 7.63-20.15 7.63-31.52V152.57c0-16.97-6.74-33.25-18.75-45.26l-80.97-80.97c-6.25-6.25-16.38-6.25-22.63 0l-11.31 11.31c-6.25 6.25-6.25 16.38 0 22.63L480 97.94V160c0 28.14 20.93 51.27 48 55.19V376c0 .1-.05.18-.05.27L384 265.02V64c0-35.35-28.65-64-64-64H160c-28.65 0-52.62 18.96-60.78 44.92L45.47 3.37C38.49-2.05 28.43-.8 23.01 6.18L3.37 31.45C-2.05 38.42-.8 48.47 6.18 53.9l588.36 454.73c6.98 5.43 17.03 4.17 22.46-2.81l19.64-25.27c5.41-6.97 4.16-17.02-2.82-22.45zM96 416h274.03L96 204.21V416zm304 32H80c-8.84 0-16 7.16-16 16v32c0 8.84 7.16 16 16 16h320c8.84 0 16-7.16 16-16v-32c0-8.84-7.16-16-16-16z"/></svg>