<svg xmlns="http://www.w3.org/2000/svg" viewBox="0 0 416 512"><!-- Font Awesome Pro 5.15.4 by @fontawesome - https://fontawesome.com License - https://fontawesome.com/license (Commercial License) --><path d="M322.2 304H352c38.9 0 69.6-34.7 63.1-74.8-5.1-31.5-34.7-53.2-66.5-53.2h-65.9c-7.1 0-10.5-8.4-5.5-13.5 20.8-21.6 31.6-52.8 24.9-86.3-7.5-37.5-38.5-67.8-76-74.6C165-9.4 112 37.1 112 96c0 25.7 10.2 49.1 26.7 66.3 5 5.2 1.7 13.7-5.5 13.7H67.4C35.5 176 6 197.8.9 229.2-5.6 269.3 25.1 304 64 304h29.8c10.1 0 18.2 8.2 18.2 18.2 0 4.3-1.5 8.4-4.2 11.7l-58.2 69.8c-23.3 27.9-21.6 72.4 7.1 94.7C68.3 507.6 82.2 512 96 512c18.3 0 36.5-7.8 49.2-23l38.3-45.9c12.8-15.4 36.4-15.4 49.2 0L271 489c12.7 15.2 30.8 23 49.2 23 13.8 0 27.7-4.4 39.3-13.5 28.7-22.4 30.4-66.8 7.1-94.7L308.4 334c-2.7-3.3-4.2-7.4-4.2-11.7-.2-10.1 8-18.3 18-18.3zM176 96c-8.8 0-16-7.2-16-16s7.2-16 16-16 16 7.2 16 16-7.2 16-16 16zm32 272c-8.8 0-16-7.2-16-16s7.2-16 16-16 16 7.2 16 16-7.2 16-16 16zm0-64c-8.8 0-16-7.2-16-16s7.2-16 16-16 16 7.2 16 16-7.2 16-16 16zm0-64c-8.8 0-16-7.2-16-16s7.2-16 16-16 16 7.2 16 16-7.2 16-16 16zm32-144c-8.8 0-16-7.2-16-16s7.2-16 16-16 16 7.2 16 16-7.2 16-16 16z"/></svg>