<svg xmlns="http://www.w3.org/2000/svg" viewBox="0 0 512 512"><!-- Font Awesome Pro 5.15.4 by @fontawesome - https://fontawesome.com License - https://fontawesome.com/license (Commercial License) --><path d="M252.1 345.4l45.3 45.3c12.5 12.5 32.8 12.5 45.3 0l45.3-45.3c12.5-12.5 12.5-32.8 0-45.3l-45.3-45.3c-12.5-12.5-32.8-12.5-45.3 0l-45.3 45.3c-12.5 12.5-12.5 32.8 0 45.3zM480 32H32C12.5 32-2.4 49.2.3 68.5l56 356.5c4.5 31.5 31.5 54.9 63.4 54.9h273c31.8 0 58.9-23.4 63.4-54.9l55.6-356.5C514.4 49.2 499.5 32 480 32zm-66.3 249.4c9.9 11.6 15.6 26 15.6 41.4 0 17.1-6.7 33.2-18.7 45.3l-45.3 45.3C353.2 425.3 337.1 432 320 432c-17.1 0-33.2-6.7-45.3-18.7L229.5 368H160c-35.3 0-64-28.7-64-64v-38.9L69.4 96h373.2l-28.9 185.4zM160 336h52.2c-.9-4.3-1.4-8.7-1.4-13.3 0-17.1 6.7-33.2 18.7-45.3L256 251v-11c0-17.7-14.3-32-32-32h-64c-17.7 0-32 14.3-32 32v64c0 17.7 14.3 32 32 32z"/></svg>