<svg xmlns="http://www.w3.org/2000/svg" viewBox="0 0 448 512"><!-- Font Awesome Pro 5.15.4 by @fontawesome - https://fontawesome.com License - https://fontawesome.com/license (Commercial License) --><path d="M321.14 305.14c62.48-62.48 62.48-163.79 0-226.27-62.48-62.48-163.79-62.48-226.27 0-62.48 62.48-62.48 163.79 0 226.27s163.78 62.48 226.27 0zM348.12 464h-92.03v-36.98c44.6-9.01 87.14-30.71 121.75-65.31 85.25-85.22 92.73-218.44 22.91-312.38l10.7-10.7c6.25-6.25 6.25-16.38 0-22.63L400.14 4.69c-6.25-6.25-16.38-6.25-22.64 0L334.47 47.7c3.18 2.79 6.39 5.52 9.41 8.53 74.89 74.86 74.89 196.67 0 271.53C307.61 364.03 259.37 384 208.07 384s-99.53-19.97-135.81-56.24c-3.07-3.07-5.25-6.65-8.07-9.88l-59.5 59.5c-6.25 6.25-6.25 16.38 0 22.63L16 411.31c6.25 6.25 16.38 6.25 22.64 0l26.71-26.7c37.78 28.06 81.91 43.6 126.72 46.64V464h-92.03c-19.89 0-36.01 16.12-36.01 36 0 6.63 5.37 12 12 12h296.1c6.63 0 12-5.37 12-12 0-19.88-16.12-36-36.01-36z"/></svg>