<svg xmlns="http://www.w3.org/2000/svg" viewBox="0 0 448 512"><!-- Font Awesome Pro 5.15.4 by @fontawesome - https://fontawesome.com License - https://fontawesome.com/license (Commercial License) --><path d="M384 416H64l-47.4 71.1c-7.1 10.7.5 24.9 13.3 24.9h388.2c12.8 0 20.4-14.2 13.3-24.9L384 416zm-192-32v-32h-57.9c-14.2 0-22-15-12.9-24.9l65.5-71.1h-30.1c-10.7 0-16.5-11.2-9.7-18.7l67.4-73.2c5-5.5 14.3-5.5 19.3 0l67.4 73.2c6.8 7.4 1 18.7-9.7 18.7h-30.1l65.5 71.1c9.1 9.9 1.3 24.9-12.9 24.9H256v32h124.1c41.7-40.6 67.9-97.1 67.9-160C448 100.3 347.7 0 224 0S0 100.3 0 224c0 62.9 26.1 119.4 67.9 160H192zm144-224c8.8 0 16 7.2 16 16s-7.2 16-16 16-16-7.2-16-16 7.2-16 16-16zm-96-96c8.8 0 16 7.2 16 16s-7.2 16-16 16-16-7.2-16-16 7.2-16 16-16zM80 224c8.8 0 16 7.2 16 16s-7.2 16-16 16-16-7.2-16-16 7.2-16 16-16z"/></svg>