<svg xmlns="http://www.w3.org/2000/svg" viewBox="0 0 640 512"><!-- Font Awesome Pro 5.15.4 by @fontawesome - https://fontawesome.com License - https://fontawesome.com/license (Commercial License) --><path d="M638.4 29.9L424.3 475.7c-10.7 22.2-33.1 36.3-57.7 36.3H64c-35.3 0-64-28.7-64-64v-8h120c4.4 0 8-3.6 8-8v-32c0-4.4-3.6-8-8-8H0v-48h120c4.4 0 8-3.6 8-8v-32c0-4.4-3.6-8-8-8H0v-26.9c0-40.1 36.4-70.3 75.8-62.9l389.7 73.1L595.2 9c3.8-8 13.4-11.3 21.4-7.4L631 8.5c7.9 3.9 11.2 13.5 7.4 21.4z"/></svg>