<svg xmlns="http://www.w3.org/2000/svg" viewBox="0 0 576 512"><!-- Font Awesome Pro 5.15.4 by @fontawesome - https://fontawesome.com License - https://fontawesome.com/license (Commercial License) --><path d="M499 217.69l64.4-72.31a15.48 15.48 0 0 0 4-10.31v-23.32A16 16 0 0 0 551.12 96H384a16 16 0 0 0-16 16v32a16 16 0 0 0 16 16h85.18c-2.29 2.45-4.65 5-7.19 7.9l-53.1 61.1a18 18 0 0 0-3.83 10.17 18.36 18.36 0 0 0 1.38 6.34l8.41 18.59c2.35 5.21 9 9.42 14.84 9.42h15.95c28.94 0 57.79 10.32 57.79 38.48 0 21.32-19.93 36.79-47.39 36.79-22.08 0-41.18-9.17-57.7-22.83a16.46 16.46 0 0 0-23.87 3.34l-19.75 28.8a15.46 15.46 0 0 0 2.53 20.35C384.9 403.21 422 416 459.51 416c71 0 116.49-48.86 116.49-106.06 0-47.3-32.73-80.89-77-92.25zM304 96h-98.94A13.06 13.06 0 0 0 192 109.06v37.88A13.06 13.06 0 0 0 205.06 160H224v64H96v-64h18.94A13.06 13.06 0 0 0 128 146.94V112a16 16 0 0 0-16-16H16a16 16 0 0 0-16 16v34.94A13.06 13.06 0 0 0 13.06 160H32v192H13.06A13.06 13.06 0 0 0 0 365.06V400a16 16 0 0 0 16 16h98.94A13.06 13.06 0 0 0 128 402.94v-37.88A13.06 13.06 0 0 0 114.94 352H96v-64h128v64h-18.94A13.06 13.06 0 0 0 192 365.06V400a16 16 0 0 0 16 16h96a16 16 0 0 0 16-16v-34.94A13.06 13.06 0 0 0 306.94 352H288V160h18.94A13.06 13.06 0 0 0 320 146.94V112a16 16 0 0 0-16-16z"/></svg>