<svg xmlns="http://www.w3.org/2000/svg" viewBox="0 0 384 512"><!-- Font Awesome Pro 5.15.4 by @fontawesome - https://fontawesome.com License - https://fontawesome.com/license (Commercial License) --><path d="M346.74 32.44L224 52.9V16c0-8.84-7.16-16-16-16h-32c-8.84 0-16 7.16-16 16v36.9L37.26 32.44C17.76 29.19 0 44.23 0 64.01v191.98c0 19.77 17.76 34.81 37.26 31.56L192 261.77l154.74 25.79C366.25 290.81 384 275.77 384 256V64.01c0-19.78-17.76-34.82-37.26-31.57zM160 299.54V496c0 8.84 7.16 16 16 16h32c8.84 0 16-7.16 16-16V299.54l-32-5.33-32 5.33z"/></svg>