<svg xmlns="http://www.w3.org/2000/svg" viewBox="0 0 640 512"><!-- Font Awesome Pro 5.15.4 by @fontawesome - https://fontawesome.com License - https://fontawesome.com/license (Commercial License) --><path d="M483.9 338.7L334.6 217.5l-30 27.5c-40.6 37.1-86.8 11.9-101.7-4.4-26.9-29.4-24.8-74.9 4.4-101.7L289.1 64h-83.8c-8.5 0-16.6 3.4-22.6 9.4L128 128H16c-8.8 0-16 7.2-16 16v191.9c0 8.8 7.2 16 16 16h130.3l90.5 81.9c27.4 22.3 67.7 18.1 90-9.3l.2-.2 17.9 15.5c15.9 13 39.4 10.5 52.3-5.4l31.4-38.6 5.4 4.4c13.7 11.1 33.9 9.1 45-4.7l9.5-11.7c11.2-13.8 9.1-33.9-4.6-45.1zM624 128H512l-54.6-54.6c-6-6-14.1-9.4-22.6-9.4h-85.9c-8 0-15.7 3-21.6 8.4l-98.3 90c-.1.1-.2.3-.3.4-16.7 15.7-16.3 40.6-2.1 56 9.6 10.5 35 21.6 56.1 2.7.1-.1.3-.1.4-.2l53-48.5 27-24.7c6.5-5.9 16.6-5.5 22.6 1s5.5 16.6-1 22.6l-26.1 23.9 145.6 118.2c12.2 9.9 19.5 23.5 22.2 37.9H624c8.8 0 16-7.2 16-16V143.9c0-8.8-7.2-15.9-16-15.9z"/></svg>