<svg xmlns="http://www.w3.org/2000/svg" viewBox="0 0 640 512"><!-- Font Awesome Pro 5.15.4 by @fontawesome - https://fontawesome.com License - https://fontawesome.com/license (Commercial License) --><path d="M393.3 159.4c-2.9-23-20.7-41.3-42.9-47.7l-50.1-14.3c-3.6-1-6.1-4.4-6.1-8.1 0-4.6 3.8-8.4 8.4-8.4h32.8c3.6 0 7.1.8 10.3 2.2 4.8 2.2 10.4 1.7 14.1-2l17.5-17.5c5.3-5.3 4.7-14.3-1.5-18.4-9.5-6.3-20.4-10.1-31.8-11.5V16c0-8.8-7.2-16-16-16h-16c-8.8 0-16 7.2-16 16v17.6c-30.3 3.6-53.4 31-49.3 63 2.9 23 20.7 41.3 42.9 47.7l50.1 14.3c3.6 1 6.1 4.4 6.1 8.1 0 4.6-3.8 8.4-8.4 8.4h-32.8c-3.6 0-7.1-.8-10.3-2.2-4.8-2.2-10.4-1.7-14.1 2l-17.5 17.5c-5.3 5.3-4.7 14.3 1.5 18.4 9.5 6.3 20.4 10.1 31.8 11.5V240c0 8.8 7.2 16 16 16h16c8.8 0 16-7.2 16-16v-17.6c30.3-3.6 53.4-30.9 49.3-63zm-188.5 71c-10.6-14.1-30.7-17-44.8-6.4-14.1 10.6-17 30.7-6.4 44.8l38.1 50.8c4.8 6.4 4.1 15.3-1.5 20.9l-12.8 12.8c-6.7 6.7-17.6 6.2-23.6-1.1L64 244.4V96c0-17.7-14.3-32-32-32S0 78.3 0 96v218.4c0 10.9 3.7 21.5 10.5 30l104.1 134.3c5 6.5 8.4 13.9 10.4 21.7 1.8 6.9 8.1 11.6 15.3 11.6H272c8.8 0 16-7.2 16-16V384c0-27.7-9-54.6-25.6-76.8l-57.6-76.8zM608 64c-17.7 0-32 14.3-32 32v148.4l-89.8 107.8c-6 7.2-17 7.7-23.6 1.1l-12.8-12.8c-5.6-5.6-6.3-14.5-1.5-20.9l38.1-50.8c10.6-14.1 7.7-34.2-6.4-44.8-14.1-10.6-34.2-7.7-44.8 6.4l-57.6 76.8C361 329.4 352 356.3 352 384v112c0 8.8 7.2 16 16 16h131.7c7.1 0 13.5-4.7 15.3-11.6 2-7.8 5.4-15.2 10.4-21.7l104.1-134.3c6.8-8.5 10.5-19.1 10.5-30V96c0-17.7-14.3-32-32-32z"/></svg>