<svg xmlns="http://www.w3.org/2000/svg" viewBox="0 0 448 512"><!-- Font Awesome Pro 5.15.4 by @fontawesome - https://fontawesome.com License - https://fontawesome.com/license (Commercial License) --><path d="M416 112c-17.6 0-32 14.4-32 32v72c0 4.4-3.6 8-8 8h-16c-4.4 0-8-3.6-8-8V64c0-17.6-14.4-32-32-32s-32 14.4-32 32v152c0 4.4-3.6 8-8 8h-16c-4.4 0-8-3.6-8-8V32c0-17.6-14.4-32-32-32s-32 14.4-32 32v184c0 4.4-3.6 8-8 8h-16c-4.4 0-8-3.6-8-8V64c0-17.6-14.4-32-32-32S96 46.4 96 64v241l-23.6-32.5c-13-17.9-38-21.8-55.9-8.8s-21.8 38-8.8 55.9l125.6 172.7c9 12.4 23.5 19.8 38.8 19.8h197.6c22.3 0 41.6-15.3 46.7-37l26.5-112.7c3.2-13.7 4.9-28.3 5.1-42.3V144c0-17.6-14.4-32-32-32zm-62.9 261.2l-72.6 71.4c-4.7 4.6-12.3 4.6-17 0l-72.6-71.4c-21.1-20.7-19.8-55.1 3.7-74.2 20.5-16.7 51.1-13.7 70 4.8l7.4 7.3 7.4-7.3c18.8-18.5 49.4-21.5 70-4.8 23.5 19.1 24.7 53.4 3.7 74.2z"/></svg>