<svg xmlns="http://www.w3.org/2000/svg" viewBox="0 0 576 512"><!-- Font Awesome Pro 5.15.4 by @fontawesome - https://fontawesome.com License - https://fontawesome.com/license (Commercial License) --><path d="M571.21 426.81l-22.66-22.66c-6.03-6.03-15.49-5.96-21.99-.43C492.89 432.38 450.6 448 405.89 448H170.11c-44.71 0-87.01-15.62-120.68-44.28-6.5-5.53-15.95-5.61-21.99.43L4.79 426.81c-6.44 6.44-6.45 17.25.4 23.25C50.85 490.12 108.8 512 170.11 512h235.78c61.31 0 119.26-21.88 164.93-61.94 6.84-6 6.84-16.81.39-23.25zM224 416v-64c0-17.67 14.33-32 32-32h64c17.67 0 32 14.33 32 32v64h53.89c23.94 0 46.54-5.79 67.29-15.91l-79.6-185.73a64.009 64.009 0 0 1-1.89-45.45l6.35-19.04A32.01 32.01 0 0 1 428.4 128h39.2c13.77 0 26 8.81 30.36 21.88L512 192l30.36-77.24c3.83-11.5.84-24.18-7.73-32.75L465.28 9.37c-10.21-10.2-25.97-12.32-38.5-5.16L260.43 107.18a128.004 128.004 0 0 0-53.47 59.15L103.03 400.19c20.69 10.06 43.23 15.81 67.08 15.81H224zm32 0h64v-64h-64v64z"/></svg>