<svg xmlns="http://www.w3.org/2000/svg" viewBox="0 0 512 512"><!-- Font Awesome Pro 5.15.4 by @fontawesome - https://fontawesome.com License - https://fontawesome.com/license (Commercial License) --><path d="M195.2 105.2c-5.5 10.1-4.4 22.8 4.2 31.4 5.2 5.2 12 7.8 18.9 7.8 4.4 0 8.6-1.5 12.5-3.6 3.3 11 13.1 19.2 25.2 19.2s21.9-8.2 25.2-19.2c4 2.1 8.2 3.6 12.5 3.6 6.8 0 13.6-2.6 18.9-7.8 8.6-8.6 9.7-21.3 4.2-31.4 11-3.3 19.2-13.1 19.2-25.2s-8.2-21.9-19.2-25.2c5.5-10.1 4.4-22.8-4.2-31.4s-21.3-9.7-31.4-4.2C277.9 8.2 268.1 0 256 0s-21.9 8.2-25.2 19.2c-10.1-5.5-22.8-4.4-31.4 4.2s-9.7 21.3-4.2 31.4C184.2 58.1 176 67.9 176 80s8.2 21.9 19.2 25.2zM128 270.1l64 32 64-32 64 32 64-32 64 32 7.2-3.6c-19.7-50.2-55.2-104.9-119-140.5-.4.4-.6.8-1 1.2-10.6 10.6-24.6 16.7-39.6 17.2-10.5 9.9-24.5 15.7-39.6 15.7-15.2 0-29.2-5.8-39.6-15.7-14.9-.5-28.9-6.5-39.6-17.2-.4-.4-.6-.8-1-1.2-63.9 35.6-99.4 90.4-119 140.5l7.2 3.6 64-32zM496 448H16c-8.8 0-16 7.2-16 16v32c0 8.8 7.2 16 16 16h480c8.8 0 16-7.2 16-16v-32c0-8.8-7.2-16-16-16zm-30.3-118.9l-17.7 8.8-64-32-64 32-64-32-64 32-64-32-64 32-17.7-8.8C32.2 377.8 32 416 32 416h448s-.2-38.2-14.3-86.9z"/></svg>