<svg xmlns="http://www.w3.org/2000/svg" viewBox="0 0 512 512"><!-- Font Awesome Pro 5.15.4 by @fontawesome - https://fontawesome.com License - https://fontawesome.com/license (Commercial License) --><path d="M509.21 275c-20.94-47.12-48.44-151.73-73.08-186.75A207.94 207.94 0 0 0 266.09 0H192C86 0 0 86 0 192a191.28 191.28 0 0 0 64 142.82V512h256v-64h64a64 64 0 0 0 64-64v-64h32a32 32 0 0 0 29.21-45zM320 216a8 8 0 0 1-8 8h-56v56a8 8 0 0 1-8 8h-48a8 8 0 0 1-8-8v-56h-56a8 8 0 0 1-8-8v-48a8 8 0 0 1 8-8h56v-56a8 8 0 0 1 8-8h48a8 8 0 0 1 8 8v56h56a8 8 0 0 1 8 8z"/></svg>