<svg xmlns="http://www.w3.org/2000/svg" viewBox="0 0 512 512"><!-- Font Awesome Pro 5.15.4 by @fontawesome - https://fontawesome.com License - https://fontawesome.com/license (Commercial License) --><path d="M304 64h112v160H308.56c-41.85 0-79.98-30.11-84.15-71.75C219.62 104.36 257.1 64 304 64zm208 144V80c0-8.84-7.16-16-16-16h-48v160h48c8.84 0 16-7.16 16-16zm-319.43-52.56c-3.16-31.6 7.18-63.15 28.37-86.57C242.14 45.44 272.41 32 304 32h72.3C343.87 11.68 305.97 0 266.09 0H224C140.44 0 69.54 53.48 43.16 128H16c-8.84 0-16 7.16-16 16v32c0 8.84 7.16 16 16 16h187.49c-5.67-11.31-9.61-23.56-10.92-36.56zM501.51 256H308.56c-31.13 0-59.73-12.33-80.92-32H34.95c7.4 43.72 29.4 82.44 61.05 110.82V512h224v-64h64c35.35 0 64-28.65 64-64v-64h31.96c23.16 0 38.65-23.84 29.24-45-2.47-5.56-5.05-12.04-7.69-19z"/></svg>