<svg xmlns="http://www.w3.org/2000/svg" viewBox="0 0 640 512"><!-- Font Awesome Pro 5.15.4 by @fontawesome - https://fontawesome.com License - https://fontawesome.com/license (Commercial License) --><path d="M624 224H480c-12.12 0-23.21 6.85-28.63 17.69l-26.54 53.09-73.95-271.2C346.99 9.35 333.82-.51 319.13.02 304.36.43 291.8 10.86 288.7 25.3l-69.14 322.68-28.79-100.78C186.84 233.47 174.29 224 160 224H16c-8.84 0-16 7.16-16 16v32c0 8.84 7.16 16 16 16h119.86l57.38 200.79c3.94 13.77 16.52 23.2 30.75 23.2.36 0 .73 0 1.09-.02 14.67-.5 27.14-10.92 30.22-25.28l68.44-319.4 61.39 225.12a32.012 32.012 0 0 0 27.72 23.42c13.16 1.2 25.84-5.69 31.78-17.53L499.78 288H624c8.84 0 16-7.16 16-16v-32c0-8.84-7.16-16-16-16z"/></svg>