<svg xmlns="http://www.w3.org/2000/svg" viewBox="0 0 448 512"><!-- Font Awesome Pro 5.15.4 by @fontawesome - https://fontawesome.com License - https://fontawesome.com/license (Commercial License) --><path d="M400 32H48C21.5 32 0 53.5 0 80v352c0 26.5 21.5 48 48 48h352c26.5 0 48-21.5 48-48V80c0-26.5-21.5-48-48-48zm-52.5 248.3L236.9 394.5c-7.1 7.4-18.7 7.4-25.9 0L100.5 280.3c-32.1-33.2-30.2-88.2 5.7-118.8 31.3-26.7 77.9-21.9 106.6 7.7l11.3 11.6 11.3-11.6c28.7-29.6 75.3-34.4 106.6-7.7 35.8 30.6 37.7 85.6 5.5 118.8z"/></svg>