<svg xmlns="http://www.w3.org/2000/svg" viewBox="0 0 448 512"><!-- Font Awesome Pro 5.15.4 by @fontawesome - https://fontawesome.com License - https://fontawesome.com/license (Commercial License) --><path d="M64,152.25V112A16,16,0,0,0,48,96H16A16,16,0,0,0,0,112v40.25A218.65,218.65,0,0,0,56.48,299,154.12,154.12,0,0,1,96,402.41V464a16,16,0,0,0,16,16h32a16,16,0,0,0,16-16V402.41a218.44,218.44,0,0,0-56.42-146.69A154.3,154.3,0,0,1,64,152.25ZM391.58,255.72A154.3,154.3,0,0,1,352,152.25V112a16,16,0,0,0-16-16H304a16,16,0,0,0-16,16v40.25A218.65,218.65,0,0,0,344.48,299,154.12,154.12,0,0,1,384,402.41V464a16,16,0,0,0,16,16h32a16,16,0,0,0,16-16V402.41A218.44,218.44,0,0,0,391.58,255.72ZM208,152.25V48a16,16,0,0,0-16-16H160a16,16,0,0,0-16,16V152.25A218.65,218.65,0,0,0,200.48,299,154.12,154.12,0,0,1,240,402.41V464a16,16,0,0,0,16,16h32a16,16,0,0,0,16-16V402.41a218.44,218.44,0,0,0-56.42-146.69A154.3,154.3,0,0,1,208,152.25Z"/></svg>