<svg xmlns="http://www.w3.org/2000/svg" viewBox="0 0 576 512"><!-- Font Awesome Pro 5.15.4 by @fontawesome - https://fontawesome.com License - https://fontawesome.com/license (Commercial License) --><path d="M32.01 256C49.68 256 64 243.44 64 227.94V0L.97 221.13C-4.08 238.84 11.2 256 32.01 256zm543.02-34.87L512 0v227.94c0 15.5 14.32 28.06 31.99 28.06 20.81 0 36.09-17.16 31.04-34.87zM480 210.82C480 90.35 288 0 288 0S96 90.35 96 210.82c0 82.76-22.86 145.9-31.13 180.71-3.43 14.43 3.59 29.37 16.32 35.24L256 512V256l-96-32v-32h256v32l-96 32v256l174.82-85.23c12.73-5.87 19.75-20.81 16.32-35.24-8.28-34.81-31.14-97.95-31.14-180.71z"/></svg>