<svg xmlns="http://www.w3.org/2000/svg" viewBox="0 0 448 512"><!-- Font Awesome Pro 5.15.4 by @fontawesome - https://fontawesome.com License - https://fontawesome.com/license (Commercial License) --><path d="M376.61 54.46c-82.95-72.61-222.26-72.61-305.22 0C7.36 110.5-31.01 224.44 32.63 416 64.53 512 224 512 224 512s159.47 0 191.37-96c63.64-191.56 25.27-305.5-38.76-361.54zM288 64c8.84 0 16 7.16 16 16s-7.16 16-16 16-16-7.16-16-16 7.16-16 16-16zm-128 0c8.84 0 16 7.16 16 16s-7.16 16-16 16-16-7.16-16-16 7.16-16 16-16zm16 400c-8.84 0-16-7.16-16-16s7.16-16 16-16 16 7.16 16 16-7.16 16-16 16zm0-64c-8.84 0-16-7.16-16-16s7.16-16 16-16 16 7.16 16 16-7.16 16-16 16zm0-64c-8.84 0-16-7.16-16-16s7.16-16 16-16 16 7.16 16 16-7.16 16-16 16zm-48-64c-35.35 0-64-28.65-64-64 0-17.67 14.33-32 32-32h64c17.67 0 32 14.33 32 32 0 35.35-28.65 64-64 64zm96-128c-8.84 0-16-7.16-16-16s7.16-16 16-16 16 7.16 16 16-7.16 16-16 16zm48 320c-8.84 0-16-7.16-16-16s7.16-16 16-16 16 7.16 16 16-7.16 16-16 16zm0-64c-8.84 0-16-7.16-16-16s7.16-16 16-16 16 7.16 16 16-7.16 16-16 16zm0-64c-8.84 0-16-7.16-16-16s7.16-16 16-16 16 7.16 16 16-7.16 16-16 16zm48-64c-35.35 0-64-28.65-64-64 0-17.67 14.33-32 32-32h64c17.67 0 32 14.33 32 32 0 35.35-28.65 64-64 64z"/></svg>