<svg xmlns="http://www.w3.org/2000/svg" viewBox="0 0 576 512"><!-- Font Awesome Pro 5.15.4 by @fontawesome - https://fontawesome.com License - https://fontawesome.com/license (Commercial License) --><path d="M64 311.4V496c0 8.8 7.2 16 16 16h416c8.8 0 16-7.2 16-16V311.4c-6.7-5.5-44.7-38.3-224-196.4C107.9 273.9 70.4 306.1 64 311.4zm314.1-26.3c27.6 23 29.1 64.2 4.5 89.1l-84.7 85.6c-5.5 5.5-14.3 5.5-19.8 0l-84.7-85.6c-24.6-24.9-23.2-66.1 4.3-89.1 24-20 59.7-16.4 81.6 5.8l8.6 8.7 8.6-8.7c22-22.2 57.7-25.8 81.6-5.8zM64 311.4v-.3s-2.7 2.5 0 .3zm506.7-75.1L512 184.5V48c0-8.8-7.2-16-16-16h-64c-8.8 0-16 7.2-16 16v51.7L314.7 10.3c-15.3-13.7-38.2-13.7-53.5 0l-256 226c-6.6 5.9-7.1 16-1.2 22.6l21.4 23.8c5.9 6.6 16 7.1 22.6 1.2L277.4 81.7c6-5.3 15.1-5.3 21.2 0L527.9 284c6.6 5.9 16.7 5.4 22.6-1.2l21.4-23.8c5.9-6.7 5.4-16.8-1.2-22.7zM512 311.1v.3c2.9 2.3 0-.3 0-.3z"/></svg>