<svg xmlns="http://www.w3.org/2000/svg" viewBox="0 0 576 512"><!-- Font Awesome Pro 5.15.4 by @fontawesome - https://fontawesome.com License - https://fontawesome.com/license (Commercial License) --><path d="M288.27 192c-70.69 0-128 57.31-128 128v192h256V320c0-70.69-57.3-128-128-128zm281.37 268.84C511.97 383.87 511.97 320 511.97 320h.06v-64c0-84.03-46.37-123.05-101.18-182.7l39.75-39.75C462.99 21.17 454.22 0 436.71 0H287.6C192 0 64.03 109.45 64.03 256v64s0 63.87-57.67 140.84C1.89 466.8-.07 473.48 0 480c.19 16.52 13.46 32 32.33 32h95.94V320c0-88.22 71.78-160 160-160s160 71.78 160 160v192h95.4c18.87 0 32.14-15.48 32.33-32 .07-6.52-1.89-13.2-6.36-19.16z"/></svg>