<svg xmlns="http://www.w3.org/2000/svg" viewBox="0 0 576 512"><!-- Font Awesome Pro 5.15.4 by @fontawesome - https://fontawesome.com License - https://fontawesome.com/license (Commercial License) --><path d="M128 160v-25.83a96.74 96.74 0 0 0-40 26.94V160a88.09 88.09 0 0 0-88 88v56a16 16 0 0 0 16 16h16a16 16 0 0 0 16-16v-56c0-13.22 6.87-24.39 16.78-31.69-.22 2.6-.78 5.07-.78 7.69a95.47 95.47 0 0 0 30.53 69.88l-25.72 68.6a64.13 64.13 0 0 0-2.15 38l24.84 99.4c1.69 6.68 8.62 12.12 15.5 12.12h66a16 16 0 0 0 15.53-19.88l-26.34-105.26L186 323.27l22 3.66v-72.54A95.83 95.83 0 0 1 128 160zm160 0v-32H160v32a64 64 0 0 0 128 0zm287.9-83.41a31.69 31.69 0 0 0-8.56-21.79c-3.78-4-8.59-9.11-13.69-14.5 11.07-6.85 19.5-17.49 22.19-30.66A8.11 8.11 0 0 0 567.9 0h-120A127.94 127.94 0 0 0 320 127.05v33a95.83 95.83 0 0 1-80 94.39v77.87l80 13.33V496a16 16 0 0 0 16 16h64a16 16 0 0 0 16-16V318.22A111.5 111.5 0 0 0 448 240a3.55 3.55 0 0 0-.1-.64V136.89l16 7.11 18.91 37.7a32 32 0 0 0 40.5 15.36l32.56-13C567 179.61 576 166.3 576 154.34zM511.9 96a16 16 0 1 1 16-16 16 16 0 0 1-16 16z"/></svg>