<svg xmlns="http://www.w3.org/2000/svg" viewBox="0 0 384 512"><!-- Font Awesome Pro 5.15.4 by @fontawesome - https://fontawesome.com License - https://fontawesome.com/license (Commercial License) --><path d="M223.9 22.1c-8.7-28.8-53.9-30.1-63.8 0C109.1 179.8 0 222.7 0 333.9 0 432.3 85.9 512 192 512s192-79.7 192-178.1c0-111.7-108.9-153.3-160.1-311.8zM96 288c0-17.7 14.3-32 32-32s32 14.3 32 32-14.3 32-32 32-32-14.3-32-32zm49.5 131.8c-2.8 3.5-7.8 4-11.2 1.2l-12.5-10c-3.4-2.8-4-7.8-1.2-11.2l118-147.5c2.8-3.4 7.8-4 11.2-1.2l12.5 10c3.5 2.8 4 7.8 1.2 11.2l-118 147.5zM256 416c-17.7 0-32-14.3-32-32s14.3-32 32-32 32 14.3 32 32-14.3 32-32 32z"/></svg>