<svg xmlns="http://www.w3.org/2000/svg" viewBox="0 0 576 512"><!-- Font Awesome Pro 5.15.4 by @fontawesome - https://fontawesome.com License - https://fontawesome.com/license (Commercial License) --><path d="M250.5 0h68.6c9.5 0 17.1 7.7 17.1 17.1V160h68.3c17.8 0 26.7 21.5 14.1 34.1l-119.4 120c-7.9 7.9-20.9 7.8-28.6-.3L157 193.8c-12.1-12.7-3.1-33.8 14.5-33.8h61.9V17.1c0-9.4 7.7-17.1 17.1-17.1zm315 338.9l-94.6-118.2c-4.5-5.6-13-6-18-.9l-28.1 28.9c-4.2 4.3-4.5 11.1-.8 15.9l44.3 55.4H376l-32 64H232l-32-64h-92.4l43.8-54.7c3.7-4.7 3.5-11.4-.6-15.7l-27.6-29.5c-5-5.3-13.6-5-18.1.7l-94.4 118c-7 8.6-10.7 19.1-10.7 30V464c0 26.5 21.5 48 48 48h480c26.5 0 48-21.5 48-48v-95.2c0-10.9-3.7-21.4-10.5-29.9z"/></svg>