<svg xmlns="http://www.w3.org/2000/svg" viewBox="0 0 576 512"><!-- Font Awesome Pro 5.15.4 by @fontawesome - https://fontawesome.com License - https://fontawesome.com/license (Commercial License) --><path d="M576 368.8V464c0 26.5-21.5 48-48 48H48c-26.5 0-48-21.5-48-48v-95.2c0-10.9 3.7-21.5 10.5-30l94.4-118c4.6-5.7 13.1-6 18.1-.7l27.6 29.5c4.1 4.4 4.3 11 .6 15.7L107.6 320H200l32 64h112l32-64h92.4l-44.3-55.4c-3.8-4.7-3.5-11.5.8-15.9l28.1-28.9c5-5.2 13.5-4.8 18 .9l94.6 118.2c6.7 8.5 10.4 19 10.4 29.9zm-233.4-65.9V160h61.9c17.6 0 26.6-21.1 14.5-33.8L305.3 6.2c-7.7-8.1-20.7-8.3-28.6-.3l-119.4 120c-12.6 12.6-3.7 34.1 14.1 34.1h68.3v142.9c0 9.5 7.7 17.1 17.1 17.1h68.6c9.5 0 17.2-7.7 17.2-17.1z"/></svg>