<svg xmlns="http://www.w3.org/2000/svg" viewBox="0 0 640 512"><!-- Font Awesome Pro 5.15.4 by @fontawesome - https://fontawesome.com License - https://fontawesome.com/license (Commercial License) --><path d="M32 448c-17.67 0-32 14.33-32 32s14.33 32 32 32 32-14.33 32-32-14.33-32-32-32zm0-192c-17.67 0-32 14.33-32 32s14.33 32 32 32 32-14.33 32-32-14.33-32-32-32zm0 96c-17.67 0-32 14.33-32 32s14.33 32 32 32 32-14.33 32-32-14.33-32-32-32zm96-48c-17.67 0-32 14.33-32 32s14.33 32 32 32 32-14.33 32-32-14.33-32-32-32zM616.27 38.02L478.47 1.1c-17.07-4.57-34.62 5.56-39.19 22.63l-15.41 57.52 168.74 168.74L638.9 77.21c4.58-17.07-5.55-34.61-22.63-39.19zm-207.08 73.8c-8.74-8.74-23.66-4.7-26.79 7.26L346.49 256H224c-17.67 0-32 14.33-32 32v192c0 17.67 14.33 32 32 32h295.31c14.55 0 27.26-9.81 30.95-23.88l44.22-168.59c2.88-11-.29-22.71-8.33-30.75L409.19 111.82zM128 400c-17.67 0-32 14.33-32 32s14.33 32 32 32 32-14.33 32-32-14.33-32-32-32z"/></svg>