<svg xmlns="http://www.w3.org/2000/svg" viewBox="0 0 448 512"><!-- Font Awesome Pro 5.15.4 by @fontawesome - https://fontawesome.com License - https://fontawesome.com/license (Commercial License) --><path d="M416 352H128v-16a16 16 0 0 0-16-16H80a16 16 0 0 0-16 16v16H32a32 32 0 0 0-32 32v96a32 32 0 0 0 32 32h384a32 32 0 0 0 32-32v-96a32 32 0 0 0-32-32zM192 218.8V320h64V218.8c46.15-13.8 80-56.14 80-106.8a112 112 0 0 0-224 0c0 50.66 33.85 93 80 106.8zM200 48a24 24 0 1 1-24 24 24 24 0 0 1 24-24z"/></svg>