<svg xmlns="http://www.w3.org/2000/svg" viewBox="0 0 640 512"><!-- Font Awesome Pro 5.15.4 by @fontawesome - https://fontawesome.com License - https://fontawesome.com/license (Commercial License) --><path d="M608 128h-95.42c-19.51-9.89-41.25-16-64.58-16s-45.07 6.11-64.58 16H241.93a128.3 128.3 0 0 0-35.17 4.92L23.21 185.37A32 32 0 0 0 0 216.14v79.72a32 32 0 0 0 23.21 30.77l183.55 52.44a127.93 127.93 0 0 0 35.17 4.93h141.49c19.51 9.89 41.25 16 64.58 16s45.07-6.11 64.58-16H608a32 32 0 0 0 32-32V160a32 32 0 0 0-32-32zM448 352a96 96 0 1 1 96-96 96 96 0 0 1-96 96zm50.91-135.6l-11.31-11.31a8 8 0 0 0-11.32 0L448 233.37l-28.29-28.28a8 8 0 0 0-11.31 0l-11.31 11.31a8 8 0 0 0 0 11.31L425.37 256l-28.28 28.28a8 8 0 0 0 0 11.32l11.31 11.31a8 8 0 0 0 11.31 0L448 278.63l28.28 28.28a8 8 0 0 0 11.32 0l11.31-11.31a8 8 0 0 0 0-11.32L470.63 256l28.28-28.29a8 8 0 0 0 0-11.31z"/></svg>