<svg xmlns="http://www.w3.org/2000/svg" viewBox="0 0 512 512"><!-- Font Awesome Pro 5.15.4 by @fontawesome - https://fontawesome.com License - https://fontawesome.com/license (Commercial License) --><path d="M368 448h-80v-64h-64v64h-80c-8.84 0-16 7.16-16 16v32c0 8.84 7.16 16 16 16h224c8.84 0 16-7.16 16-16v-32c0-8.84-7.16-16-16-16zm140.62-166.76l-51.78-103.55A32 32 0 0 0 428.22 160H144c0-37.62 26.21-69.06 62.68-77.55C215.31 90.81 227.03 96 240 96h64c26.51 0 48-21.49 48-48S330.51 0 304 0h-64c-22.35 0-40.96 15.34-46.31 36.02C137.77 49.72 96 99.91 96 160H83.78a32 32 0 0 0-28.62 17.69L3.38 281.24A32.066 32.066 0 0 0 0 295.55V320c0 17.67 14.33 32 32 32h448c17.67 0 32-14.33 32-32v-24.45c0-4.96-1.16-9.86-3.38-14.31z"/></svg>