<svg xmlns="http://www.w3.org/2000/svg" viewBox="0 0 576 512"><!-- Font Awesome Pro 5.15.4 by @fontawesome - https://fontawesome.com License - https://fontawesome.com/license (Commercial License) --><path d="M267.52 216.6L4.87 469.83c-8.72 8.41-5.22 22.73 6.49 26.49 113.84 36.59 239.36 8.02 324.21-73.79l61.04-58.85c6.48-6.25 6.48-16.38 0-22.63L267.52 216.6zM566.28 43.31L531.07 9.37c-12.96-12.5-33.98-12.5-46.94 0l-192.31 185.4 112.1 108.08 34.35-27.71c6.22-6 9.72-14.14 9.72-22.63V208L566.28 88.57c12.96-12.5 12.96-32.76 0-45.26zM444.24 149.66c-6.48 6.25-16.99 6.25-23.47 0s-6.48-16.38 0-22.63 16.99-6.25 23.47 0 6.48 16.38 0 22.63zm60.52-58.35c-6.48 6.25-16.99 6.25-23.47 0s-6.48-16.38 0-22.63 16.99-6.25 23.47 0 6.48 16.39 0 22.63z"/></svg>