<svg xmlns="http://www.w3.org/2000/svg" viewBox="0 0 384 512"><!-- Font Awesome Pro 5.15.4 by @fontawesome - https://fontawesome.com License - https://fontawesome.com/license (Commercial License) --><path d="M256,448H224V255.69H160V448H128c-28.42,0-54.95,18.53-63.3,44.16C61.48,502,69.88,512,80.26,512H303.74c10.38,0,18.78-10,15.56-19.84C311,466.53,284.42,448,256,448ZM381.38,179.4l-68.57-160A32,32,0,0,0,283.39,0H100.61A32,32,0,0,0,71.19,19.4L2.62,179.4A32,32,0,0,0,32,224H352A32,32,0,0,0,381.38,179.4Z"/></svg>