<svg xmlns="http://www.w3.org/2000/svg" viewBox="0 0 448 512"><!-- Font Awesome Pro 5.15.4 by @fontawesome - https://fontawesome.com License - https://fontawesome.com/license (Commercial License) --><path d="M445.5 211.4L368 19.4C363.3 7.6 352.4 0 340.4 0H120.6c-11.4 0-21.8 6.8-27 17.7l-90.4 192c-10 21.3 4.6 46.3 27 46.3h387.7c21.6 0 36.2-23.5 27.6-44.6zM158.3 288C121 325.2 96 386.8 96 428.8c0 28.4 11.5 54.3 30.5 74.3 5.7 6 13.9 8.9 22.2 8.9h150.6c8.3 0 16.5-2.9 22.2-8.9 19-20.1 30.5-45.9 30.5-74.3 0-42-25-103.6-62.3-140.8H158.3z"/></svg>