<svg xmlns="http://www.w3.org/2000/svg" viewBox="0 0 512 512"><!-- Font Awesome Pro 5.15.4 by @fontawesome - https://fontawesome.com License - https://fontawesome.com/license (Commercial License) --><path d="M304 144h64v64c0 8.84 7.16 16 16 16h32c8.84 0 16-7.16 16-16v-64h64c8.84 0 16-7.16 16-16V96c0-8.84-7.16-16-16-16h-64V16c0-8.84-7.16-16-16-16h-32c-8.84 0-16 7.16-16 16v64h-64c-8.84 0-16 7.16-16 16v32c0 8.84 7.16 16 16 16zm195.59 220.1l-58.54-26.53-161.19 73.06c-7.56 3.43-15.59 5.17-23.86 5.17s-16.29-1.74-23.86-5.17L70.95 337.57 12.41 364.1c-16.55 7.5-16.55 32.5 0 40l232.94 105.59c6.8 3.08 14.49 3.08 21.29 0L499.59 404.1c16.55-7.5 16.55-32.5 0-40zM12.41 275.9l232.94 105.59c6.8 3.08 14.49 3.08 21.29 0L448 299.28V280.7c-15.32 4.38-31.27 7.29-48 7.29-88.01 0-160.72-64.67-173.72-149.04L12.41 235.9c-16.55 7.5-16.55 32.5 0 40z"/></svg>