<svg xmlns="http://www.w3.org/2000/svg" viewBox="0 0 512 512"><!-- Font Awesome Pro 5.15.4 by @fontawesome - https://fontawesome.com License - https://fontawesome.com/license (Commercial License) --><path d="M12.41 276.3l232.94 105.59c6.8 3.08 14.49 3.08 21.29 0L499.59 276.3c16.55-7.5 16.55-32.5 0-40L266.65 130.72a25.682 25.682 0 0 0-21.29 0L12.41 236.3c-16.55 7.5-16.55 32.5 0 40zM304 64h192c8.84 0 16-7.16 16-16V16c0-8.84-7.16-16-16-16H304c-8.84 0-16 7.16-16 16v32c0 8.84 7.16 16 16 16zm195.59 300.1l-58.09-26.33-161.63 73.27c-7.56 3.43-15.59 5.17-23.86 5.17s-16.29-1.74-23.86-5.17L70.51 337.77l-58.1 26.33c-16.55 7.5-16.55 32.5 0 40l232.94 105.59c6.8 3.08 14.49 3.08 21.29 0L499.59 404.1c16.55-7.5 16.55-32.5 0-40z"/></svg>