<svg xmlns="http://www.w3.org/2000/svg" viewBox="0 0 512 512"><!-- Font Awesome Pro 5.15.4 by @fontawesome - https://fontawesome.com License - https://fontawesome.com/license (Commercial License) --><path d="M488.4 155.16c-3.97-2.74-8.07-5.45-12.47-7.36-7.33-3.19-10.35-11.81-8.06-19.56 9.76-33.08 2.92-57.01-12.43-71.51l.17-.17c-14.49-15.34-38.43-22.19-71.5-12.43-7.76 2.29-16.37-.73-19.56-8.06-1.91-4.39-4.62-8.5-7.36-12.47-18.65-26.98-54.04-31.7-77.81-9.65-6.76 6.27-11.71 14.7-16.65 22.66-7.82 12.63-14.94 25.7-23.13 39.93-6.72-5.51-11.65-9.75-16.77-13.73-28.61-22.23-59.63-15.96-77.62 15.4-13.05 22.74-11.64 47.07-8.47 71.76 1.65 12.84 2.69 25.76 4.38 42.31-6.14-4.27-8.58-6.24-11.27-7.78-26.1-14.94-55.32-4.3-63.17 24.64-3.2 11.82-3.57 25.64-.86 37.58 3.93 17.31 12.87 33.46 17.61 50.66 2.6 9.41 3.91 21.04.72 29.81-7.54 20.71-11.4 40.95-5.91 61.32L9.37 457.38c-12.5 12.5-12.5 32.75 0 45.25C15.62 508.88 23.81 512 32 512s16.37-3.12 22.62-9.38l183.71-183.71-64.41 112.71c3.62-1.09 7.23-2.11 10.87-3.43 8.77-3.19 20.4-1.88 29.81.72 17.2 4.75 33.35 13.68 50.66 17.62 11.94 2.71 25.76 2.35 37.58-.86 28.94-7.85 39.58-37.07 24.64-63.17-1.54-2.69-3.52-5.12-7.78-11.27 16.55 1.69 29.46 2.72 42.31 4.38 24.69 3.17 49.01 4.57 71.76-8.47 31.37-17.99 37.63-49.02 15.4-77.62-3.98-5.12-8.21-10.05-13.73-16.77 14.24-8.19 27.31-15.31 39.93-23.13 7.96-4.94 16.4-9.89 22.66-16.65 22.06-23.77 17.35-59.16-9.63-77.81z"/></svg>