<svg xmlns="http://www.w3.org/2000/svg" viewBox="0 0 640 512"><!-- Font Awesome Pro 5.15.4 by @fontawesome - https://fontawesome.com License - https://fontawesome.com/license (Commercial License) --><path d="M637.4 98.8l-17.5-27.4c-4.7-7.4-14.2-9.5-21.8-5.1C522 110.7 424 135 320 135S118 110.7 41.9 66.3c-7.6-4.4-17.1-2.3-21.8 5.1L2.6 98.8c-4.9 7.8-2.7 18.3 5.2 22.9 38.1 22.4 81.1 40 127 53L114.7 230c-25.5 1.1-48.5 16.2-61.3 51.6-18.1 49.8 14.3 129 27.9 134 13.5 4.9 89.3-34.9 107.5-84.7 12.9-35.3 5-61.7-13.8-79l22.8-62.6c29.3 5.2 59.6 8.4 90.4 9.8v63c-23.6 9.8-40 31.8-40 69.5 0 53 57.6 116.4 72 116.4s72-63.3 72-116.4c0-37.6-16.4-59.7-40-69.5v-63c30.8-1.4 61-4.6 90.4-9.8l22.8 62.6c-18.8 17.3-26.7 43.6-13.8 79 18.1 49.8 93.9 89.6 107.5 84.7 13.5-4.9 46-84.2 27.9-134-12.9-35.3-35.8-50.5-61.3-51.6l-20.1-55.3c45.9-13 88.9-30.6 127-53 7.5-4.6 9.7-15.1 4.8-22.9zM145.6 309c-4.8 13.1-26.4 37.1-42.5 46.5-6.3-17.5-7.4-49.7-2.7-62.9 4.1-11.3 17.6-16.8 30-12.3s19.3 17.4 15.2 28.7zM320 384c-11.9-14.3-24-44.2-24-58.2 0-12.1 10.7-21.8 24-21.8s24 9.8 24 21.8c0 14-12.1 43.9-24 58.2zm189.5-103.7c12.5-4.5 25.9 1 30 12.3 4.8 13.1 3.7 45.4-2.7 62.9-16.1-9.3-37.7-33.3-42.5-46.5-4-11.3 2.8-24.2 15.2-28.7z"/></svg>