<svg xmlns="http://www.w3.org/2000/svg" viewBox="0 0 384 512"><!-- Font Awesome Pro 5.15.4 by @fontawesome - https://fontawesome.com License - https://fontawesome.com/license (Commercial License) --><path d="M320,0H64A64,64,0,0,0,0,64V448a64,64,0,0,0,64,64H320a64,64,0,0,0,64-64V64A64,64,0,0,0,320,0ZM192,32a16,16,0,1,1-16,16A16,16,0,0,1,192,32Zm0,448a16,16,0,1,1,16-16A16,16,0,0,1,192,480Zm96-192h0v80a48,48,0,0,1-48,48H144a48,48,0,0,1-48-48V272h0V240h0V144a48,48,0,0,1,48-48h96a48,48,0,0,1,48,48v80h0ZM128,352a32,32,0,0,0,32,32h64a32,32,0,0,0,32-32V256H128Z"/></svg>