<svg xmlns="http://www.w3.org/2000/svg" viewBox="0 0 640 512"><!-- Font Awesome Pro 5.15.4 by @fontawesome - https://fontawesome.com License - https://fontawesome.com/license (Commercial License) --><path d="M631.14 195.68C579.47 109.99 466.31 32 417.72 32c0 0-32.57 0-97.72 50-65.15-50-97.72-50-97.72-50-48.59 0-161.75 77.99-213.42 163.68-10.32 17.11-11.63 37.99-3.89 56.38C32.95 318.51 117.59 480 279.28 480h81.43c161.69 0 246.33-161.49 274.32-227.95 7.74-18.38 6.43-39.26-3.89-56.37zM320 320c-170.66 0-256-96-256-96s64-32 160-32l35.38 8.84C278.2 205.55 298.95 208 320 208s41.8-2.45 60.62-7.16L416 192c96 0 160 32 160 32s-85.34 96-256 96z"/></svg>