<svg xmlns="http://www.w3.org/2000/svg" viewBox="0 0 448 512"><!-- Font Awesome Pro 5.15.4 by @fontawesome - https://fontawesome.com License - https://fontawesome.com/license (Commercial License) --><path d="M190.2 256H144c-26.5 0-48-23.9-48-53.3V192h48c26.5 0 48 23.9 48 53.3v8.7c-.6.7-1.2 1.3-1.8 2zm33.8 64h38.7c-6.8-14.8-18.5-33.4-38.7-53.3-20.2 19.9-31.9 38.5-38.7 53.3H224zm-64 32c-17.6 0-32 14.4-32 32s14.4 32 32 32h128c17.6 0 32-14.4 32-32s-14.4-32-32-32H160zm96-106.7v8.7c.6.7 1.2 1.3 1.8 2H304c26.5 0 48-23.9 48-53.3V192h-48c-26.5 0-48 23.9-48 53.3zM448 224v128c0 88.4-71.6 160-160 160H160C71.6 512 0 440.4 0 352V224C0 100.3 100.3 0 224 0s224 100.3 224 224zm-64-52c0-6.6-5.4-12-12-12h-68c-37.9 0-69.3 28.3-77.5 66.2-.9-.7-4.2-.7-5.1 0C213.3 188.3 182 160 144 160H76c-6.6 0-12 5.4-12 12v30.7c0 47.1 35.8 85.3 80 85.3h22.4c-7.4 12.2-12.5 23.5-15.8 32.9-30.9 4.6-54.6 31-54.6 63.1 0 35.5 29.4 64 64.9 64H287c35.5 0 64.9-28.5 64.9-64 0-32.1-23.7-58.5-54.6-63.1-3.3-9.5-8.4-20.7-15.8-32.9H304c44.2 0 80-38.2 80-85.3V172z"/></svg>