<svg xmlns="http://www.w3.org/2000/svg" viewBox="0 0 512 512"><!-- Font Awesome Pro 5.15.4 by @fontawesome - https://fontawesome.com License - https://fontawesome.com/license (Commercial License) --><path d="M170.65 296.09L4.69 462.06c-6.25 6.25-6.25 16.38 0 22.63l22.63 22.63c6.25 6.25 16.38 6.25 22.63 0l165.97-165.97a161.122 161.122 0 0 1-45.27-45.26zm330.33-101.12l-74.99-23.77c-12.6-41.73-45.59-74.19-87.67-85.95L313.05 10.8c-4.92-14.5-17.46-14.37-22.08.22l-23.77 75c-41.73 12.6-74.19 45.59-85.96 87.67l-74.44 25.26c-14.5 4.92-14.37 17.46.22 22.08l74.99 23.77c12.6 41.73 45.59 74.19 87.67 85.96l25.26 74.44c4.92 14.5 17.46 14.37 22.08-.22l23.77-74.99c41.73-12.6 74.19-45.59 85.95-87.67l74.44-25.26c14.52-4.93 14.39-17.47-.2-22.09zM304 240c-17.67 0-32-14.33-32-32s14.33-32 32-32 32 14.33 32 32-14.33 32-32 32z"/></svg>