<svg xmlns="http://www.w3.org/2000/svg" viewBox="0 0 384 512"><!-- Font Awesome Pro 5.15.4 by @fontawesome - https://fontawesome.com License - https://fontawesome.com/license (Commercial License) --><path d="M192 0C86.4 0 0 86.4 0 192c0 76.8 25.6 99.2 172.8 310.4 9.6 12.8 28.8 12.8 38.4 0C358.4 291.2 384 268.8 384 192 384 86.4 297.6 0 192 0zm64 117.16c14.82 0 26.84 12.02 26.84 26.84s-12.02 26.84-26.84 26.84-26.84-12.02-26.84-26.84 12.02-26.84 26.84-26.84zm-128 0c14.82 0 26.84 12.02 26.84 26.84s-12.02 26.84-26.84 26.84-26.84-12.02-26.84-26.84 12.02-26.84 26.84-26.84zm164.17 140.97C267.3 287.28 230.78 304 192 304c-38.75 0-75.27-16.72-100.16-45.86-5.75-6.72-4.95-16.81 1.77-22.55 6.69-5.73 16.81-4.97 22.55 1.77C134.98 259.38 162.62 272 192 272c29.41 0 57.03-12.63 75.83-34.66 5.78-6.73 15.86-7.53 22.56-1.78 6.72 5.74 7.52 15.85 1.78 22.57z"/></svg>