<svg xmlns="http://www.w3.org/2000/svg" viewBox="0 0 384 512"><!-- Font Awesome Pro 5.15.4 by @fontawesome - https://fontawesome.com License - https://fontawesome.com/license (Commercial License) --><path d="M192 0C86.4 0 0 86.4 0 192c0 76.8 25.6 99.2 172.8 310.4 9.6 12.8 28.8 12.8 38.4 0C358.4 291.2 384 268.8 384 192 384 86.4 297.6 0 192 0zm114.08 163.83L175.04 293.82c-4.31 4.28-11.28 4.25-15.55-.06l-75.72-76.33c-4.28-4.31-4.25-11.28.06-15.56l26.03-25.82c4.31-4.28 11.28-4.25 15.56.06l42.15 42.49 97.2-96.42c4.31-4.28 11.28-4.25 15.55.06l25.82 26.03c4.28 4.32 4.25 11.28-.06 15.56z"/></svg>