<svg xmlns="http://www.w3.org/2000/svg" viewBox="0 0 512 512"><!-- Font Awesome Pro 5.15.4 by @fontawesome - https://fontawesome.com License - https://fontawesome.com/license (Commercial License) --><path d="M497.9 150.5c9 9 14.1 21.2 14.1 33.9v143.1c0 12.7-5.1 24.9-14.1 33.9L361.5 497.9c-9 9-21.2 14.1-33.9 14.1H184.5c-12.7 0-24.9-5.1-33.9-14.1L14.1 361.5c-9-9-14.1-21.2-14.1-33.9V184.5c0-12.7 5.1-24.9 14.1-33.9L150.5 14.1c9-9 21.2-14.1 33.9-14.1h143.1c12.7 0 24.9 5.1 33.9 14.1l136.5 136.4zM388 296c6.6 0 12-5.4 12-12v-56c0-6.6-5.4-12-12-12H124c-6.6 0-12 5.4-12 12v56c0 6.6 5.4 12 12 12h264z"/></svg>