<svg xmlns="http://www.w3.org/2000/svg" viewBox="0 0 576 512"><!-- Font Awesome Pro 5.15.4 by @fontawesome - https://fontawesome.com License - https://fontawesome.com/license (Commercial License) --><path d="M373.3 117.3c23.6 0 42.7-19.1 42.7-42.7S396.9 32 373.3 32s-42.7 19.1-42.7 42.7 19.2 42.6 42.7 42.6zm168.8 144.1c-26-26-89.6-38.6-130.9-44.2L312 117.1c-8.4-12.1-13.3-26.6-13.3-42.4s5-30.3 13.3-42.4V16c0-8.8-7.2-16-16-16h-16c-8.8 0-16 7.2-16 16v102.1l-99.1 99.1C123.6 222.8 60 235.4 34 261.4c-40 40-45.4 99.4-12.1 132.7 33.3 33.3 92.8 27.9 132.7-12.1 11.4-11.4 20.1-30.2 26.9-51 6.8 12.3 19.5 20.9 34.5 20.9 22.1 0 40-17.9 40-40s-17.9-40-40-40c-8.2 0-15.4 3.1-21.7 7.3 1.8-10 3.4-19.6 4.5-28.2l65.2-65.2v72.8c14.6 13.2 24 32.1 24 53.3 0 39.7-32.3 72-72 72-6.2 0-12.1-1-17.8-2.5-3.7 9.9-6.2 19.5-6.2 28.1 0 56.6 43 102.4 96 102.4s96-45.8 96-102.4c0-38.1-43.6-94.6-72-127.3v-96.3l65.2 65.2c5.6 41.3 18.2 104.9 44.2 130.9 40 40 99.4 45.4 132.7 12.1 33.4-33.3 28-92.7-12-132.7z"/></svg>