<svg xmlns="http://www.w3.org/2000/svg" viewBox="0 0 640 512"><!-- Font Awesome Pro 5.15.4 by @fontawesome - https://fontawesome.com License - https://fontawesome.com/license (Commercial License) --><path d="M204.78 116.47l4.1 4.1 71.69-71.8L238.78 7a24.1 24.1 0 0 0-33.9 0L167 44.87a24 24 0 0 0 0 33.8zM608 160H437l120.25 120.28A64 64 0 0 1 576 325.54V400a16 16 0 0 1-16 16H264a8 8 0 0 1-8-8v-16a8 8 0 0 1 8-8h163l-64-64h-99a8 8 0 0 1-8-8v-16a8 8 0 0 1 8-8h67L203 160H32a32 32 0 0 0-32 32v288a32 32 0 0 0 32 32h576a32 32 0 0 0 32-32V192a32 32 0 0 0-32-32zM144 415.88V432a8 8 0 0 1-8 8h-16a8 8 0 0 1-8-8v-16.29a57.26 57.26 0 0 1-31.37-11.35 8 8 0 0 1-.57-12.14L91.81 381a8.21 8.21 0 0 1 10.13-.73 24.08 24.08 0 0 0 12.82 3.73h28.11c6.5 0 11.8-5.92 11.8-13.19 0-5.95-3.61-11.19-8.77-12.73l-45-13.5c-18.59-5.58-31.58-23.42-31.58-43.39 0-24.52 19.05-44.44 42.67-45.07V240a8 8 0 0 1 8-8h16a8 8 0 0 1 8 8v16.29a57.18 57.18 0 0 1 31.37 11.35 8 8 0 0 1 .57 12.14L164.18 291a8.22 8.22 0 0 1-10.14.73 23.93 23.93 0 0 0-12.81-3.73h-28.11c-6.5 0-11.8 5.92-11.8 13.19 0 5.95 3.61 11.19 8.77 12.73l45 13.5c18.59 5.58 31.57 23.42 31.57 43.39 0 24.53-19.04 44.44-42.66 45.07zm318.87-41.25a32 32 0 0 0 22.62 9.37H528a16 16 0 0 0 16-16v-42.46a32 32 0 0 0-9.37-22.63L303.17 71.47l-71.7 71.7z"/></svg>