<svg xmlns="http://www.w3.org/2000/svg" viewBox="0 0 640 512"><!-- Font Awesome Pro 5.15.4 by @fontawesome - https://fontawesome.com License - https://fontawesome.com/license (Commercial License) --><path d="M549.47 267.22C529.43 280.25 505.64 288 480 288c-56.67 0-104.29-37.26-121.08-88.38C262.91 224.9 192 312.05 192 416v32c-17.64 0-32-14.36-32-32V176c0-44.11-35.89-80-80-80S0 131.89 0 176v48c0 17.67 14.33 32 32 32s32-14.33 32-32v-48c0-8.83 7.17-16 16-16s16 7.17 16 16v240c0 52.94 43.06 96 96 96h240c8.84 0 16-7.16 16-16v-16c0-17.67-14.33-32-32-32h-64l155.68-103.79 34.68 104.02 1.64 10.11V496c0 8.84 7.16 16 16 16h32c8.84 0 16-7.16 16-16v-37.61c0-10.34-1.67-20.61-4.94-30.42l-53.59-160.75zM592 64h-21.88C556.9 26.8 521.74 0 480 0s-76.9 26.8-90.12 64H368c-26.51 0-48 21.49-48 48s21.49 48 48 48h16c0 53.02 42.98 96 96 96s96-42.98 96-96h16c26.51 0 48-21.49 48-48s-21.49-48-48-48zm-152 56c-8.84 0-16-7.16-16-16s7.16-16 16-16 16 7.16 16 16-7.16 16-16 16zm80 0c-8.84 0-16-7.16-16-16s7.16-16 16-16 16 7.16 16 16-7.16 16-16 16z"/></svg>