<svg xmlns="http://www.w3.org/2000/svg" viewBox="0 0 576 512"><!-- Font Awesome Pro 5.15.4 by @fontawesome - https://fontawesome.com License - https://fontawesome.com/license (Commercial License) --><path d="M256 256c-12 0-23.1 3.5-32.7 9.2-3.5-41-37.4-73.2-79.3-73.2-38.8 0-71.1 27.6-78.4 64.2-.5 0-1-.2-1.6-.2-35.3 0-64 28.7-64 64s28.7 64 64 64h192c35.3 0 64-28.7 64-64s-28.7-64-64-64zm309.3 106.4c-93.1 17.7-178.5-53.7-178.5-147.7 0-54.2 29-104 76.1-130.8 7.3-4.1 5.4-15.1-2.8-16.7-11.6-2.1-23.3-3.2-35-3.2-90.8 0-166.7 63.2-186.6 148.1 2.5 4 4.9 8.2 6.9 12.6 3.6-.4 7.1-.6 10.7-.6 52.9 0 96 43.1 96 96 0 36.1-20.2 67.2-49.7 83.6 33.2 27.7 76 44.4 122.7 44.4 59.2 0 113.2-26.9 149-71.1 5.2-6.6-.6-16.2-8.8-14.6z"/></svg>