<svg xmlns="http://www.w3.org/2000/svg" viewBox="0 0 640 512"><!-- Font Awesome Pro 5.15.4 by @fontawesome - https://fontawesome.com License - https://fontawesome.com/license (Commercial License) --><path d="M320 384c44.18 0 80-35.82 80-80 0-32.79-19.77-60.89-48-73.25V208h48c8.84 0 16-7.16 16-16v-16c0-8.84-7.16-16-16-16h-48v-32h48c8.84 0 16-7.16 16-16V96c0-8.84-7.16-16-16-16h-48V48h48c8.84 0 16-7.16 16-16V16c0-8.84-7.16-16-16-16h-96c-8.84 0-16 7.16-16 16v214.75c-28.23 12.35-48 40.46-48 73.25 0 44.18 35.82 80 80 80zm-304 0h16c38.62 0 72.72-12.19 96-31.84 23.28 19.66 57.38 31.84 96 31.84 5.67 0 11.01-.79 16.46-1.3-16.71-16.89-27.65-39.17-30.96-63.86-18.79-2.44-33.34-9.14-41.59-16.74-8.9-8.21-19.66-14.1-31.77-14.1h-16.3c-12.11 0-22.87 5.89-31.77 14.1C77.8 311.58 58.04 320 32 320H16c-8.84 0-16 7.16-16 16v32c0 8.84 7.16 16 16 16zm608 64h-16c-26.04 0-45.8-8.42-56.09-17.9-8.9-8.21-19.66-14.1-31.77-14.1h-16.3c-12.11 0-22.87 5.89-31.77 14.1C461.8 439.58 442.04 448 416 448s-45.8-8.42-56.09-17.9c-8.9-8.21-19.66-14.1-31.77-14.1h-16.3c-12.11 0-22.87 5.89-31.77 14.1C269.8 439.58 250.04 448 224 448s-45.8-8.42-56.09-17.9c-8.9-8.21-19.66-14.1-31.77-14.1h-16.3c-12.11 0-22.87 5.89-31.77 14.1C77.8 439.58 58.04 448 32 448H16c-8.84 0-16 7.16-16 16v32c0 8.84 7.16 16 16 16h16c38.62 0 72.72-12.19 96-31.84 23.28 19.66 57.38 31.84 96 31.84s72.72-12.19 96-31.84c23.28 19.66 57.38 31.84 96 31.84s72.72-12.19 96-31.84c23.28 19.66 57.38 31.84 96 31.84h16c8.84 0 16-7.16 16-16v-32c0-8.84-7.16-16-16-16zm0-128h-16c-26.04 0-45.8-8.42-56.09-17.9-8.9-8.21-19.66-14.1-31.77-14.1h-16.3c-12.11 0-22.87 5.89-31.77 14.1-8.24 7.6-22.8 14.3-41.59 16.74-3.32 24.69-14.25 46.97-30.96 63.86 5.46.51 10.79 1.3 16.46 1.3 38.62 0 72.72-12.19 96-31.84 23.28 19.66 57.38 31.84 96 31.84h16c8.84 0 16-7.16 16-16v-32c.02-8.84-7.14-16-15.98-16z"/></svg>