<svg xmlns="http://www.w3.org/2000/svg" viewBox="0 0 512 512"><!-- Font Awesome Pro 5.15.4 by @fontawesome - https://fontawesome.com License - https://fontawesome.com/license (Commercial License) --><path d="M448,0H64A64,64,0,0,0,0,64V448a64,64,0,0,0,64,64H448a64,64,0,0,0,64-64V64A64,64,0,0,0,448,0ZM386.26,409.29A22.87,22.87,0,0,1,369.85,416H142.15a22.87,22.87,0,0,1-16.41-6.71C87.71,370.28,64,316.1,64,256s23.71-114.28,61.74-153.3A22.86,22.86,0,0,1,142.15,96h227.7a22.86,22.86,0,0,1,16.41,6.7c38,39,61.74,93.2,61.74,153.3S424.29,370.28,386.26,409.29ZM256,304a32,32,0,0,0-32,32v16h64V336A32,32,0,0,0,256,304ZM192,176H176a16,16,0,0,0-16,16v80a16,16,0,0,0,16,16h16a16,16,0,0,0,16-16V192A16,16,0,0,0,192,176Zm144,0H320a16,16,0,0,0-16,16v80a16,16,0,0,0,16,16h16a16,16,0,0,0,16-16V192A16,16,0,0,0,336,176Z"/></svg>