<svg xmlns="http://www.w3.org/2000/svg" viewBox="0 0 640 512"><!-- Font Awesome Pro 5.15.4 by @fontawesome - https://fontawesome.com License - https://fontawesome.com/license (Commercial License) --><path d="M288 368c0 8.84-7.16 16-16 16h-32c-8.84 0-16-7.16-16-16v-64.86L96 204.21V432c0 26.5 21.5 48 48 48h308.83L288 352.6V368zm345.82 90.1L544 388.68V80c0-26.5-21.5-48-48-48H144c-15.31 0-28.79 7.31-37.58 18.48L45.47 3.37C38.49-2.05 28.43-.8 23.01 6.18L3.37 31.45C-2.05 38.42-.8 48.47 6.18 53.9l588.35 454.73c6.98 5.43 17.03 4.17 22.46-2.81l19.64-25.27c5.42-6.97 4.17-17.02-2.81-22.45zM409.69 284.87l-50.53-39.05c5.4-5.73 8.84-13.34 8.84-21.82 0-17.64-14.36-32-32-32h-46.48l-65.06-50.29C225.61 134 231.98 128 240 128h96c52.94 0 96 43.06 96 96 0 23.24-8.49 44.35-22.31 60.87z"/></svg>