<svg xmlns="http://www.w3.org/2000/svg" viewBox="0 0 496 512"><!-- Font Awesome Pro 5.15.4 by @fontawesome - https://fontawesome.com License - https://fontawesome.com/license (Commercial License) --><path d="M248 8C111.03 8 0 119.03 0 256s111.03 248 248 248 248-111.03 248-248S384.97 8 248 8zm0 432c-101.46 0-184-82.54-184-184S146.54 72 248 72s184 82.54 184 184-82.54 184-184 184zm32-296h-96c-8.84 0-16 7.16-16 16v192c0 8.84 7.16 16 16 16h32c8.84 0 16-7.16 16-16v-48h48c44.18 0 80-35.82 80-80s-35.82-80-80-80zm0 96h-48v-32h48c8.82 0 16 7.18 16 16s-7.18 16-16 16z"/></svg>