<svg xmlns="http://www.w3.org/2000/svg" viewBox="0 0 496 512"><!-- Font Awesome Pro 5.15.4 by @fontawesome - https://fontawesome.com License - https://fontawesome.com/license (Commercial License) --><path d="M248 8C111.03 8 0 119.03 0 256s111.03 248 248 248 248-111.03 248-248S384.97 8 248 8zm0 432c-101.46 0-184-82.54-184-184 0-30.83 7.71-59.86 21.17-85.41l286.39 221.35C338.86 421.69 295.58 440 248 440zm-9.77-232H280c8.82 0 16 7.18 16 16s-7.18 16-16 16h-.37l-41.4-32zm172.6 133.41l-76.42-59.06C350.07 267.74 360 247.1 360 224c0-44.18-35.82-80-80-80h-96c-6.91 0-12.67 4.43-14.9 10.57l-44.66-34.51C157.14 90.31 200.42 72 248 72c101.46 0 184 82.54 184 184 0 30.83-7.71 59.86-21.17 85.41zM168 352c0 8.84 7.16 16 16 16h32c8.84 0 16-7.16 16-16v-19.48l-64-49.46V352z"/></svg>