<svg xmlns="http://www.w3.org/2000/svg" viewBox="0 0 512 512"><!-- Font Awesome Pro 5.15.4 by @fontawesome - https://fontawesome.com License - https://fontawesome.com/license (Commercial License) --><path d="M193.44 222.61c30.94-8.14 46.42-49.94 34.58-93.36-6.53-23.92-20.07-43.04-36.02-54.29V0l-64.01 79.99c-15.02 17.7-20.45 47.82-12.01 78.75 11.84 43.42 46.53 72.02 77.46 63.87zm125.12 0c30.94 8.14 65.62-20.45 77.46-63.87 8.44-30.94 3.01-61.05-12.01-78.75L320 0v74.96c-15.95 11.26-29.49 30.37-36.02 54.29-11.84 43.42 3.64 85.22 34.58 93.36zM256 256c-79.41 0-192 122.76-192 200.25 0 34.9 26.81 55.75 71.74 55.75 48.84 0 81.09-25.08 120.26-25.08 39.51 0 71.85 25.08 120.26 25.08 44.93 0 71.74-20.85 71.74-55.75C448 378.76 335.41 256 256 256zm-147.28-12.61c-7.21-24.03-24.89-41.91-44.72-48.46V128l-45.51 62.37A96.204 96.204 0 0 0 0 247.09c.03 6.97 1.09 14.22 3.28 21.52 10.4 34.65 42.44 57.09 71.56 50.13 29.11-6.97 44.28-40.7 33.88-75.35zm384.79-53.02L448 128v66.94c-19.83 6.55-37.51 24.43-44.72 48.46-10.4 34.65 4.77 68.38 33.89 75.34 29.12 6.96 61.15-15.48 71.56-50.13 2.19-7.29 3.25-14.54 3.28-21.52a96.283 96.283 0 0 0-18.5-56.72z"/></svg>