<svg xmlns="http://www.w3.org/2000/svg" viewBox="0 0 448 512"><!-- Font Awesome Pro 5.15.4 by @fontawesome - https://fontawesome.com License - https://fontawesome.com/license (Commercial License) --><path d="M144 128c26.51 0 48-21.49 48-48s-21.49-48-48-48-48 21.49-48 48 21.49 48 48 48zm-48 64c0-26.51-21.49-48-48-48S0 165.49 0 192s21.49 48 48 48 48-21.49 48-48zm208-64c26.51 0 48-21.49 48-48s-21.49-48-48-48-48 21.49-48 48 21.49 48 48 48zm96 16c-26.51 0-48 21.49-48 48s21.49 48 48 48 48-21.49 48-48-21.49-48-48-48zm-32.69 156.78c-26.29-14.84-47.14-61.41-67.17-97.83C284.41 174.31 254.21 160 224 160s-60.41 14.31-76.15 42.95c-20.29 36.96-40.12 82.56-67.17 97.83C51.63 317.18 32 348.18 32 383.95c0 53.01 42.98 95.98 96 95.98 51.71 1.76 72.19-31.99 96-31.99s44.29 33.75 96 31.99c53.02 0 96-42.97 96-95.98 0-35.77-19.63-66.77-48.69-83.17z"/></svg>