<svg xmlns="http://www.w3.org/2000/svg" viewBox="0 0 512 512"><!-- Font Awesome Pro 5.15.4 by @fontawesome - https://fontawesome.com License - https://fontawesome.com/license (Commercial License) --><path d="M316.08 82.71l-297 296.96L.32 487.11c-2.53 14.49 10.09 27.11 24.59 24.56l107.45-18.84L429.28 195.9 316.08 82.71zm181.85 44.53c18.75-18.76 18.75-49.17 0-67.93l-45.26-45.25c-18.76-18.76-49.18-18.76-67.94 0L338.7 60.08l113.2 113.2 46.03-46.04zm-41.18 264.38c-6.59 0-12.24-3.77-14.59-9.98-18.13-47.78-48.4-65.38-82.65-70.71L257.83 412.61C266.64 475.95 315.42 512 384 512c90.07 0 128-72.38 128-154.73-9.79 6.68-44.14 34.35-55.25 34.35zm-336.57-158.3L216 137.51 146.01 33.1C84.05-55.3-52.15 52.52 21.08 132.99l99.1 100.33z"/></svg>