<svg xmlns="http://www.w3.org/2000/svg" viewBox="0 0 384 512"><!-- Font Awesome Pro 5.15.4 by @fontawesome - https://fontawesome.com License - https://fontawesome.com/license (Commercial License) --><path d="M0 479.9c0 17.7 14.3 32 32 32s32-14.3 32-32v-74.5C48 391.7.6 350.8 0 350.3v129.6zM368 96H208c-8.8 0-16 7.2-16 16v112h-25.4l-33.3-61.8c-11.1-21.1-32.8-34.2-56.6-34.2H48c-26.5 0-48 21.5-48 48v103c0 18.7 8.2 36.4 22.4 48.6l76 65.1 14.1 92.5c1 5.7 10.1 30.7 36.8 26.3 17.4-2.9 29.2-19.4 26.3-36.8l-14.1-92.5c-2.5-14.8-10.1-28.3-21.5-38.1l-44-37.7v-78.3l32 59.9h240c8.8 0 16-7.2 16-16V112c0-8.9-7.2-16-16-16zM80 96c26.5 0 48-21.5 48-48S106.5 0 80 0 32 21.5 32 48s21.5 48 48 48z"/></svg>