<svg xmlns="http://www.w3.org/2000/svg" viewBox="0 0 576 512"><!-- Font Awesome Pro 5.15.4 by @fontawesome - https://fontawesome.com License - https://fontawesome.com/license (Commercial License) --><path d="M128 416h64c17.67 0 32-14.33 32-32V32c0-17.67-14.33-32-32-32h-64c-17.67 0-32 14.33-32 32v352c0 17.67 14.33 32 32 32zM528 32H256v352c0 35.29-28.71 64-64 64h-64c-35.29 0-64-28.71-64-64V32H48C21.49 32 0 53.49 0 80v384c0 26.51 21.49 48 48 48h480c26.51 0 48-21.49 48-48V80c0-26.51-21.49-48-48-48zM384 432c0 8.84-7.16 16-16 16h-32c-8.84 0-16-7.16-16-16v-32c0-8.84 7.16-16 16-16h32c8.84 0 16 7.16 16 16v32zm0-128c0 8.84-7.16 16-16 16h-32c-8.84 0-16-7.16-16-16v-32c0-8.84 7.16-16 16-16h32c8.84 0 16 7.16 16 16v32zm128 128c0 8.84-7.16 16-16 16h-32c-8.84 0-16-7.16-16-16v-32c0-8.84 7.16-16 16-16h32c8.84 0 16 7.16 16 16v32zm0-128c0 8.84-7.16 16-16 16h-32c-8.84 0-16-7.16-16-16v-32c0-8.84 7.16-16 16-16h32c8.84 0 16 7.16 16 16v32zm0-112H320V96h192v96z"/></svg>