<svg xmlns="http://www.w3.org/2000/svg" viewBox="0 0 576 512"><!-- Font Awesome Pro 5.15.4 by @fontawesome - https://fontawesome.com License - https://fontawesome.com/license (Commercial License) --><path d="M544 63H32A32 32 0 0 0 0 95v320a32 32 0 0 0 32 32h512a32 32 0 0 0 32-32V95a32 32 0 0 0-32-32zM144 383H64V223h64v80a16 16 0 0 0 16 16zm128 0h-96v-64a16 16 0 0 0 16-16v-80h64v80a16 16 0 0 0 16 16zm128 0h-96v-64a16 16 0 0 0 16-16v-80h64v80a16 16 0 0 0 16 16zm112 0h-80v-64a16 16 0 0 0 16-16v-80h64z"/></svg>