<svg xmlns="http://www.w3.org/2000/svg" viewBox="0 0 512 512"><!-- Font Awesome Pro 5.15.4 by @fontawesome - https://fontawesome.com License - https://fontawesome.com/license (Commercial License) --><path d="M476.62,269.81l-57.24-28.62A64,64,0,0,1,384,184,184.45,184.45,0,0,0,199.55-.5h-15.1A184.45,184.45,0,0,0,0,184H0V479.5a32,32,0,0,0,32,32H480a32,32,0,0,0,32-32V327.05A64,64,0,0,0,476.62,269.81ZM448,447.5H64v-96H96v56a8,8,0,0,0,8,8h16a8,8,0,0,0,8-8v-56h32v56a8,8,0,0,0,8,8h16a8,8,0,0,0,8-8v-56h32v56a8,8,0,0,0,8,8h16a8,8,0,0,0,8-8v-56h64v56a8,8,0,0,0,8,8h16a8,8,0,0,0,8-8v-56h32v56a8,8,0,0,0,8,8h16a8,8,0,0,0,8-8v-56h32Z"/></svg>