<svg xmlns="http://www.w3.org/2000/svg" viewBox="0 0 576 512"><!-- Font Awesome Pro 5.15.4 by @fontawesome - https://fontawesome.com License - https://fontawesome.com/license (Commercial License) --><path d="M403.22 403.08c-81.87 81.92-215 81.22-296-2.11-77-79.19-77-210.74 0-289.94 81-83.33 214.14-84 296-2.11l22-22.07c6.46-6.46 6.44-17.36-.42-23.39-112.86-99.22-292.21-82.09-382.18 51.37-56.83 84.3-56.83 198.05 0 282.34 90 133.46 269.32 150.59 382.23 51.37 6.86-6 6.88-16.93.42-23.39zM131.9 380.45a175.77 175.77 0 0 0 248.71 0L256.25 256l124.36-124.45a175.77 175.77 0 0 0-248.71 0c-68.68 68.73-68.68 180.17 0 248.9zM256.25 352a16 16 0 1 1-16 16 16 16 0 0 1 16-16zm-48-208a16 16 0 1 1-16 16 16 16 0 0 1 16.04-16zm-48 96a16 16 0 1 1-16 16 16 16 0 0 1 16.08-16zm362.99-139.87c-5.79-7.55-17.22-7.92-23.95-1.19l-21.42 21.44c66.7 77.84 66.7 193.4 0 271.24l21.42 21.44c6.73 6.73 18.16 6.37 23.95-1.19a256.62 256.62 0 0 0 0-311.74zm-68.05 43l-49.92 50a15.83 15.83 0 0 1 10.86 15 16 16 0 0 1-16 16 15.83 15.83 0 0 1-14.95-10.87L342.35 256l112.84 112.93a176.6 176.6 0 0 0 0-225.85zM448.1 288a16 16 0 1 1 16-16 16 16 0 0 1-16 16z"/></svg>