<svg xmlns="http://www.w3.org/2000/svg" viewBox="0 0 576 512"><!-- Font Awesome Pro 5.15.4 by @fontawesome - https://fontawesome.com License - https://fontawesome.com/license (Commercial License) --><path d="M512,0a64,64,0,1,0,64,64A63.99942,63.99942,0,0,0,512,0ZM224,64C100.28711,64,0,164.28516,0,288,0,411.71289,100.28711,512,224,512S448,411.71289,448,288C448,164.28516,347.71289,64,224,64Zm96,272.89062a64.02377,64.02377,0,0,1-6.75781,28.627L272.918,446.166a28.68332,28.68332,0,0,1-20.89258,15.45312q-5.16211.86719-10.41992,1.43359a16.03421,16.03421,0,0,1-17.60742-15.98437C223.99609,423.58984,223.99414,384,224,384a32.00033,32.00033,0,0,1-32-32V320l-54.62695-54.62891A32.00483,32.00483,0,0,0,114.74609,256l-25.02539-.00195c-20.74414,0-34.53125-21.54493-25.96875-40.43946C91.39258,154.55469,152.7793,112,224,112q2.25586,0,4.49805.0625A28.487,28.487,0,0,1,256,140.62109,64.00066,64.00066,0,0,1,245.25,176.125l-49.72852,57.35742a32.00106,32.00106,0,0,0,1.55079,43.58985A37.31367,37.31367,0,0,0,223.45312,288H288a31.99908,31.99908,0,0,1,32,32Z"/></svg>