<svg xmlns="http://www.w3.org/2000/svg" viewBox="0 0 384 512"><!-- Font Awesome Pro 5.15.4 by @fontawesome - https://fontawesome.com License - https://fontawesome.com/license (Commercial License) --><path d="M368,464H352V88a24,24,0,0,0-24-24h-8.02148V48a16,16,0,0,0-16-16H208V16a16,16,0,0,0-32,0V32H80A16,16,0,0,0,64,48V64H56A24,24,0,0,0,32,88V464H16A16,16,0,0,0,0,480v16a16,16,0,0,0,16,16H368a16,16,0,0,0,16-16V480A16,16,0,0,0,368,464ZM168,128a8.00039,8.00039,0,0,1,8,8v24H144V128Zm-64,0h24v32H96V136A8.00039,8.00039,0,0,1,104,128Zm0,80a8.00039,8.00039,0,0,1-8-8V176h32v32Zm72,104a8.00039,8.00039,0,0,1-8,8H104a8.00039,8.00039,0,0,1-8-8V248a8.00039,8.00039,0,0,1,8-8h64a8.00039,8.00039,0,0,1,8,8Zm-8-104H144V176h32v24A8.00039,8.00039,0,0,1,168,208Zm112-80a8.00039,8.00039,0,0,1,8,8v24H256V128Zm-64,0h24v32H208V136A8.00039,8.00039,0,0,1,216,128Zm-8,72V176h32v32H216A8.00039,8.00039,0,0,1,208,200Zm72,8H256V176h32v24A8.00039,8.00039,0,0,1,280,208Z"/></svg>