<svg xmlns="http://www.w3.org/2000/svg" viewBox="0 0 640 512"><!-- Font Awesome Pro 5.15.4 by @fontawesome - https://fontawesome.com License - https://fontawesome.com/license (Commercial License) --><path d="M80 96c26.5 0 48-21.5 48-48S106.5 0 80 0 32 21.5 32 48s21.5 48 48 48zm48 240c0-26.5-21.5-48-48-48s-48 21.5-48 48 21.5 48 48 48 48-21.5 48-48zm-32 80H64c-35.3 0-64 28.7-64 64v16c0 8.8 7.2 16 16 16h128c8.8 0 16-7.2 16-16v-16c0-35.3-28.7-64-64-64zM616 32H248c-13.3 0-24 10.7-24 24v112c0 13.3 10.7 24 24 24h368c13.3 0 24-10.7 24-24V56c0-13.3-10.7-24-24-24zm-40 96h-64V96h64v32zm-480 0H64c-35.3 0-64 28.7-64 64v16c0 8.8 7.2 16 16 16h128c8.8 0 16-7.2 16-16v-16c0-35.3-28.7-64-64-64zm520 192H248c-13.3 0-24 10.7-24 24v112c0 13.3 10.7 24 24 24h368c13.3 0 24-10.7 24-24V344c0-13.3-10.7-24-24-24zm-40 96H352v-32h224v32z"/></svg>