<svg xmlns="http://www.w3.org/2000/svg" viewBox="0 0 512 512"><!-- Font Awesome Pro 5.15.4 by @fontawesome - https://fontawesome.com License - https://fontawesome.com/license (Commercial License) --><path d="M432,0c-40.78711,0-74.373,97.74414-79.30859,223.98438H339.96875l-26.0625-53.25c-12.5-25.54688-35.45313-44.21876-61.78125-50.9375L181.04688,98.65625a95.62917,95.62917,0,0,0-80.84376,17.14063L60.54688,146.20312a31.99557,31.99557,0,1,0,38.9375,50.78126l39.6875-30.40626c7.67187-5.89062,17.4375-8,25.26562-6.14062l14.70312,4.375L141.6875,252.20312a64.16816,64.16816,0,0,0,26.29688,80.3125l84.96874,50.17188-27.46874,87.71875a32.00118,32.00118,0,1,0,61.07811,19.125l31.64063-101.0625a48.20913,48.20913,0,0,0-21.64063-54.39063l-61.25-36.14062L266.625,219.65625l20.28125,41.4375a48.27457,48.27457,0,0,0,43.10937,26.89063h22.67383C357.61719,414.23828,391.209,512,432,512c44.18359,0,80-114.61523,80-256S476.18359,0,432,0ZM272,96a48,48,0,1,0-48-48A47.99238,47.99238,0,0,0,272,96ZM113.6875,317.46875,98.89062,351.98438H32a32,32,0,0,0,0,64h77.45312a47.90248,47.90248,0,0,0,44.10938-29.07813l8.78125-20.53125-10.65625-6.29688A95.295,95.295,0,0,1,113.6875,317.46875Z"/></svg>