<svg xmlns="http://www.w3.org/2000/svg" viewBox="0 0 576 512"><!-- Font Awesome Pro 5.15.4 by @fontawesome - https://fontawesome.com License - https://fontawesome.com/license (Commercial License) --><path d="M560 0H16C7.16 0 0 7.16 0 16v32c0 8.84 7.16 16 16 16h16v256c0 17.67 14.33 32 32 32h192v34.75l-75.31 75.31c-6.25 6.25-6.25 16.38 0 22.63l22.62 22.62c6.25 6.25 16.38 6.25 22.63 0L288 445.25l62.06 62.06c6.25 6.25 16.38 6.25 22.63 0l22.62-22.62c6.25-6.25 6.25-16.38 0-22.63L320 386.75V352h192c17.67 0 32-14.33 32-32V64h16c8.84 0 16-7.16 16-16V16c0-8.84-7.16-16-16-16zm-80 288H96V64h384v224z"/></svg>