<svg xmlns="http://www.w3.org/2000/svg" viewBox="0 0 640 512"><!-- Font Awesome Pro 5.15.4 by @fontawesome - https://fontawesome.com License - https://fontawesome.com/license (Commercial License) --><path d="M192 448v-96h95.22L93.47 202.25C75.78 213.64 64 233.4 64 256v112c0 8.84 7.16 16 16 16h48v96c0 17.67 14.33 32 32 32h320c4 0 7.76-.93 11.29-2.28L411.43 448H192zm441.82 10.1L537.95 384H560c8.84 0 16-7.16 16-16V256c0-35.35-28.65-64-64-64V77.25c0-8.49-3.37-16.62-9.37-22.63L457.37 9.37c-6-6-14.14-9.37-22.63-9.37H160c-17.67 0-32 14.33-32 32v35.16L45.47 3.37C38.49-2.05 28.43-.8 23.01 6.18L3.37 31.45C-2.05 38.42-.8 48.47 6.18 53.9l588.36 454.73c6.98 5.43 17.03 4.17 22.46-2.81l19.64-25.27c5.41-6.97 4.16-17.02-2.82-22.45zM448 224H330.93L192 116.62V64h192v48c0 8.84 7.16 16 16 16h48v96zm48 72c-13.25 0-24-10.75-24-24 0-13.26 10.75-24 24-24s24 10.74 24 24c0 13.25-10.75 24-24 24z"/></svg>