<svg xmlns="http://www.w3.org/2000/svg" viewBox="0 0 576 512"><!-- Font Awesome Pro 5.15.4 by @fontawesome - https://fontawesome.com License - https://fontawesome.com/license (Commercial License) --><path d="M352 113.21v-77.4c0-6.06-3.42-11.6-8.84-14.31l-39.6-19.8c-8.37-4.19-18.54-.32-22.01 8.37L244 103.93C257.27 99.2 271.57 96 288 96c25.16 0 46.23 6.12 64 17.21zm143.3 39.92c-31.61-27.03-78.8-31.69-116.51-15.05 3.07 3.97 6.52 7.38 9.21 11.92 8.32 14.27 14.5 31.78 19.11 51.62-3.69-8.81-7.96-16.87-12.86-24.12-22.67-33-58.08-49.5-106.25-49.5s-83.58 16.5-106.25 49.5c-4.9 7.25-9.17 15.3-12.86 24.11 4.61-19.84 10.78-37.34 19.11-51.61 2.69-4.54 6.13-7.95 9.21-11.92-37.71-16.64-84.9-11.98-116.51 15.05-107.6 92.01-107.6 241.72 0 333.74 38.63 33.03 100.82 33.34 140.12 1.25C238.65 503.51 260.72 512 288 512s49.35-8.49 67.19-23.88c39.3 32.09 101.49 31.78 140.12-1.25 107.59-92.01 107.59-241.73-.01-333.74z"/></svg>