<svg xmlns="http://www.w3.org/2000/svg" viewBox="0 0 448 512"><!-- Font Awesome Pro 5.15.4 by @fontawesome - https://fontawesome.com License - https://fontawesome.com/license (Commercial License) --><path d="M445.54 487.52L352 337.85V272h7.35c31.29 0 56.65-25.36 56.65-56.65a56.66 56.66 0 0 0-23.72-46.1l-48.65-34.75c-1.1-.54-2.27-.74-3.38-1.21 7.8-12.49 15.21-29.76 20.54-49.66 11.32-42.24 9.08-79.55-5-83.32-14.08-3.77-34.67 27.41-45.99 69.66-2.72 10.15-4.61 19.97-5.79 29.15-1.18-9.18-3.07-19-5.79-29.15-11.33-42.25-31.92-73.43-46-69.66s-16.32 41.08-5 83.32c6.94 25.9 17.37 47.54 27.64 59.62-9.11 7.93-15.9 18.5-18.03 31.55-.54 3.32-.82 6.72-.82 10.19V256h-12.8c-83.19 0-152.93 56.77-173.12 133.61C63.44 386.15 56.01 384 48 384c-26.51 0-48 21.49-48 48s21.49 48 48 48c7.93 0 15.3-2.11 21.89-5.51C79.98 496.58 102.13 512 128 512h144c8.84 0 16-7.16 16-16v-16c0-17.67-14.33-32-32-32h-22.59l74.35-60.18 72.91 116.66a15.99 15.99 0 0 0 13.57 7.52h37.74c12.56 0 20.22-13.82 13.56-24.48zM336 208c-8.84 0-16-7.16-16-16s7.16-16 16-16 16 7.16 16 16-7.16 16-16 16z"/></svg>