<svg xmlns="http://www.w3.org/2000/svg" viewBox="0 0 640 512"><!-- Font Awesome Pro 5.15.4 by @fontawesome - https://fontawesome.com License - https://fontawesome.com/license (Commercial License) --><path d="M622.25 105.96L576 83.22V64c0-17.67-14.33-32-32-32h-72.97C453.45 12.5 428.26 0 400 0c-52.94 0-96 43.06-96 96 0 47.46 34.7 86.72 80.02 94.38-5.23.88-10.53 1.62-16.02 1.62-51.54 0-93.26-40.71-95.56-91.68-5.9-2.63-12.29-4.32-19.33-4.32-12.47 0-24 4.8-32.31 12.8-8.64-8-20.16-12.8-32.64-12.8-13.12 0-24.97 5.44-33.61 13.75-11.19-9.28-26.23-13.75-41.59-10.23-17.59 3.84-31.03 16.95-35.84 33.28-16.64-2.88-34.23 3.2-45.44 17.28-11.52 14.08-13.44 32.64-7.03 48.31-14.72 8-24.64 24-24.64 41.92 0 18.23 10.23 33.92 24.95 41.92-6.41 15.69-4.16 34.23 7.05 48.31 11.52 14.09 29.11 20.17 45.75 16.97 4.08 13.88 14.64 25.07 28.47 30.58l-6.14 16.38a63.973 63.973 0 0 0-2.16 38l16.85 67.41A16.002 16.002 0 0 0 130.3 512h65.96c10.41 0 18.05-9.78 15.52-19.88l-18.31-73.26 14.76-39.36c4.73-2.15 9.22-4.78 12.9-8.31 8.64 8 20.17 12.81 32.64 12.81 12.48 0 24-4.81 32.64-12.81 8.64 8 19.84 12.81 32.64 12.81 12.49 0 23.87-4.96 32.46-12.91.16.15.34.27.51.42V496c0 8.84 7.16 16 16 16h64c8.84 0 16-7.16 16-16V330.67L483.5 307a64.009 64.009 0 0 0 28.5-53.25V192h87.66c9.26 0 17.76-4.9 22.37-12.94 7.59-13.26 17.98-33.45 17.98-44.59a31.798 31.798 0 0 0-17.76-28.51zM352 96c0-26.47 21.53-48 48-48s48 21.53 48 48-21.53 48-48 48-48-21.53-48-48zm160 16c-8.84 0-16-7.16-16-16s7.16-16 16-16 16 7.16 16 16-7.16 16-16 16z"/></svg>