<svg xmlns="http://www.w3.org/2000/svg" viewBox="0 0 576 512"><!-- Font Awesome Pro 5.15.4 by @fontawesome - https://fontawesome.com License - https://fontawesome.com/license (Commercial License) --><path d="M554.9375,119.01044,480.002,143.98307H416.043V79.991a15.99661,15.99661,0,0,0-16-15.998H384.041a15.99828,15.99828,0,0,0-16.002,15.998V271.96731a15.99953,15.99953,0,0,0,16.002,15.998h16.002a15.99787,15.99787,0,0,0,16-15.998V207.97519h64.07617l74.8125,24.97068A16.00321,16.00321,0,0,0,576,217.76815v-83.58A16.00191,16.00191,0,0,0,554.9375,119.01044ZM320.0332,31.99687h-16.002a15.99787,15.99787,0,0,0-16,15.998V75.21557a110.96789,110.96789,0,0,0-48.06641-11.22264H192L87.166,1.70979A16.00223,16.00223,0,0,0,64.00586,16.01837v59.164C26.26758,93.196,0,131.38348,0,175.97913,0,231.25837,40.14844,276.9009,92.82812,286.03175L22.4082,407.95153A47.93786,47.93786,0,0,0,40.00391,473.5374L95.416,505.53346a47.96127,47.96127,0,0,0,65.60156-17.59178L281.10547,279.93019c2.38281-.94531,4.623-2.08789,6.92578-3.1875v27.22068a15.99912,15.99912,0,0,0,16,15.998h16.002a15.96,15.96,0,0,0,15.94141-15.69725v-256.57A15.95874,15.95874,0,0,0,320.0332,31.99687Zm-208.082,167.98028a23.998,23.998,0,1,1,24.002-23.998A24.00117,24.00117,0,0,1,111.95117,199.97715Zm96.00977,0a23.998,23.998,0,1,1,24.00195-23.998A24.00118,24.00118,0,0,1,207.96094,199.97715Z"/></svg>