<svg xmlns="http://www.w3.org/2000/svg" viewBox="0 0 448 512"><!-- Font Awesome Pro 5.15.4 by @fontawesome - https://fontawesome.com License - https://fontawesome.com/license (Commercial License) --><path d="M428.4 269.21c-30.48-45.42-11.8-104.47 13-155.4 3.96-8.13 3.34-17.75-1.87-25.13l-41.18-58.36c-5.06-7.18-15.76-13.1-27.49-8.61-15.37 5.88-32.67 8.89-50.26 8.89-29.51 0-59.81-8.47-83.16-26.11C233.48 1.5 228.74 0 224 0s-9.48 1.5-13.44 4.49C187.21 22.13 156.9 30.6 127.39 30.6c-17.59 0-34.89-3.01-50.25-8.89-11.82-4.52-22.49 1.52-27.49 8.61L8.47 88.69c-5.21 7.38-5.83 16.99-1.87 25.13 24.8 50.92 43.47 109.97 13 155.4-37.94 56.52-18.55 139.43 38.81 166.03L223.97 512l165.62-76.76c57.36-26.6 76.75-109.51 38.81-166.03zm-65.72 107.96l-138.7 64.29-138.65-64.29c-19.78-9.17-29.7-46.8-12.59-72.3 24.73-36.86 29.2-76.74 25.22-112.87h252.07c-3.98 36.13.49 76.02 25.22 112.88 17.23 25.66 7.05 63.2-12.57 72.29z"/></svg>