<svg xmlns="http://www.w3.org/2000/svg" viewBox="0 0 480 512"><!-- Font Awesome Pro 5.15.4 by @fontawesome - https://fontawesome.com License - https://fontawesome.com/license (Commercial License) --><path d="M464.83 55.14c-3.6-11.66-14.92-19.1-26.18-15.95-18.23 5.12-37.74 7.96-58.1 7.96-49.12 0-93.61-16.07-126.17-42.11C250.18 1.68 245.09 0 240 0s-10.18 1.68-14.37 5.03c-32.56 26.04-77.05 42.11-126.17 42.11-20.36 0-39.87-2.84-58.1-7.96-11.23-3.15-22.57 4.26-26.18 15.95C-21.83 175.11-6.68 410.34 240 512 486.68 410.34 501.84 175.11 464.83 55.14zM240 441.87C115.27 380.93 72.01 279.56 64.76 192h350.49c-7.26 87.56-50.52 188.93-175.25 249.87z"/></svg>