<svg xmlns="http://www.w3.org/2000/svg" viewBox="0 0 512 512"><!-- Font Awesome Pro 5.15.4 by @fontawesome - https://fontawesome.com License - https://fontawesome.com/license (Commercial License) --><path d="M501.65 452.08l-51.16-51.16-38.57 38.57c-3.12 3.12-8.19 3.12-11.31 0l-11.31-11.31c-3.12-3.12-3.12-8.19 0-11.31l38.57-38.57-56.57-56.57-38.57 38.57c-3.12 3.12-8.19 3.12-11.31 0l-11.31-11.31c-3.12-3.12-3.12-8.19 0-11.31l38.57-38.57-56.57-56.57-38.57 38.57c-3.12 3.12-8.19 3.12-11.31 0l-11.31-11.31c-3.12-3.12-3.12-8.19 0-11.31l38.57-38.57-56.57-56.57-38.57 38.57c-3.12 3.12-8.19 3.12-11.31 0l-11.31-11.31c-3.12-3.12-3.12-8.19 0-11.31l38.57-38.57-56.6-56.59-38.57 38.57c-3.12 3.12-8.19 3.12-11.31 0L72.51 111.4c-3.12-3.12-3.12-8.19 0-11.31l38.57-38.57-51.17-51.17C52.76 3.2 43.97 0 35.35 0 17.31 0 0 14.01 0 35.17V476.9C0 496.29 15.71 512 35.1 512h441.73c31.27 0 46.93-37.8 24.82-59.92zM128 384V259.46L252.54 384H128z"/></svg>