<svg xmlns="http://www.w3.org/2000/svg" viewBox="0 0 512 512"><!-- Font Awesome Pro 5.15.4 by @fontawesome - https://fontawesome.com License - https://fontawesome.com/license (Commercial License) --><path d="M192 96h128l47.4-71.12A16 16 0 0 0 354.09 0H157.94a16 16 0 0 0-13.31 24.88zm128 32H192C-10.38 243.4.09 396.64.09 416c0 53 49.11 96 109.68 96h292.48c60.58 0 109.68-43 109.68-96 0-19 9.35-173.24-191.93-288zm-46.58 278v17.34a8.69 8.69 0 0 1-8.7 8.62h-17.41a8.69 8.69 0 0 1-8.71-8.62v-17.51a63.19 63.19 0 0 1-34.16-12.17 8.55 8.55 0 0 1-.66-13l12.84-12.06a8.92 8.92 0 0 1 11-.76 26.72 26.72 0 0 0 13.93 4h30.58c7.07 0 12.84-6.35 12.84-14.22 0-6.46-3.92-12.06-9.58-13.67l-49-14.54c-20.24-6-34.39-25.2-34.39-46.74 0-26.38 20.68-47.82 46.46-48.57v-17.48a8.69 8.69 0 0 1 8.74-8.62h17.41a8.68 8.68 0 0 1 8.7 8.62v17.55a63.12 63.12 0 0 1 34.17 12.17 8.55 8.55 0 0 1 .65 13l-12.73 12.2a8.92 8.92 0 0 1-11 .75 26.78 26.78 0 0 0-13.93-4h-30.56c-7.07 0-12.84 6.35-12.84 14.21 0 6.46 3.92 12.06 9.57 13.68l49 14.54c20.24 6 34.38 25.2 34.38 46.74-.14 26.4-20.92 47.94-46.6 48.54z"/></svg>