<svg xmlns="http://www.w3.org/2000/svg" viewBox="0 0 512 512"><!-- Font Awesome Pro 5.15.4 by @fontawesome - https://fontawesome.com License - https://fontawesome.com/license (Commercial License) --><path d="M480 32H32A32 32 0 0 0 0 64v96a32 32 0 0 0 32 32h448a32 32 0 0 0 32-32V64a32 32 0 0 0-32-32zm17.9 223.29c-15.08-1.68-24-6.17-35.51-11.9-17.27-8.64-38.73-19.39-78.27-19.39s-61 10.75-78.26 19.38C291.22 250.7 280.64 256 256.22 256s-35.08-5.3-49.75-12.62c-17.28-8.63-38.78-19.38-78.36-19.38S67 234.73 49.77 243.38c-11.51 5.74-20.51 10.24-35.67 11.91A15.93 15.93 0 0 0 0 271.08v32.14a16.26 16.26 0 0 0 17.85 16c28.58-2.63 46-11.36 60.51-18.59C93 293.3 103.64 288 128.11 288s35.09 5.3 49.77 12.62c17.26 8.65 38.78 19.38 78.34 19.38s61-10.75 78.26-19.38C349.12 293.3 359.7 288 384.12 288s35 5.3 49.61 12.61c14.47 7.24 31.89 16 60.41 18.6a16.27 16.27 0 0 0 17.86-16v-32.14a15.94 15.94 0 0 0-14.1-15.78zM480 352h-64l-96 48-96-48H32a32 32 0 0 0-32 32v64a32 32 0 0 0 32 32h448a32 32 0 0 0 32-32v-64a32 32 0 0 0-32-32z"/></svg>