<svg xmlns="http://www.w3.org/2000/svg" viewBox="0 0 640 512"><!-- Font Awesome Pro 5.15.4 by @fontawesome - https://fontawesome.com License - https://fontawesome.com/license (Commercial License) --><path d="M635.28 68.69L608 41.37A32 32 0 0 0 585.34 32h-46.83a64 64 0 0 0-45.26 18.74L449 95l-10.37-10.31a16 16 0 0 0-22.63 0L404.69 96a16 16 0 0 0 0 22.63L415 129l-14 14-10.34-10.34a16 16 0 0 0-22.63 0L356.69 144a16 16 0 0 0 0 22.63L367 177l-14 14-10.34-10.34a16 16 0 0 0-22.63 0L308.69 192a16 16 0 0 0 0 22.63L319 225 210 334a25.41 25.41 0 0 1-39.76-31l76.16-127H272a16 16 0 0 0 16-16v-16a16 16 0 0 0-16-16H16a16 16 0 0 0-16 16v16a16 16 0 0 0 16 16h11.46C18.65 207.92 0 280.13 0 320c0 61.4 35 114.09 85.73 140.92A150 150 0 0 0 160 480c77.1 0 116.46-51.33 128-64l246.39-308a32 32 0 0 1 25-12H624c14.22 0 21.36-17.23 11.28-27.31zM96 344a24 24 0 1 1 24-24 24 24 0 0 1-24 24zm32-96a24 24 0 1 1 24-24 24 24 0 0 1-24 24z"/></svg>