<svg xmlns="http://www.w3.org/2000/svg" viewBox="0 0 640 512"><!-- Font Awesome Pro 5.15.4 by @fontawesome - https://fontawesome.com License - https://fontawesome.com/license (Commercial License) --><path d="M312 480h-80c-4.42 0-8 3.58-8 8v16c0 4.42 3.58 8 8 8h80c4.42 0 8-3.58 8-8v-16c0-4.42-3.58-8-8-8zm160 0h-80c-4.42 0-8 3.58-8 8v16c0 4.42 3.58 8 8 8h80c4.42 0 8-3.58 8-8v-16c0-4.42-3.58-8-8-8zm160 0h-80c-4.42 0-8 3.58-8 8v16c0 4.42 3.58 8 8 8h80c4.42 0 8-3.58 8-8v-16c0-4.42-3.58-8-8-8zm-397.12-49.64c31.37-25.71 46.72-63.93 46.72-102.32V320H176L0 512c87 .07 170.28-29.18 234.29-81.16.2-.16.39-.32.59-.48zM482.71 11.85c-29.2-20.83-70.18-13.03-93.49 14.22l-201.5 235.46c-8.9 10.41-1.51 26.46 12.19 26.46h131.94c9.37 0 18.28-4.1 24.37-11.22l139.02-162.44c26.36-30.79 21.22-78.4-12.53-102.48z"/></svg>