<svg xmlns="http://www.w3.org/2000/svg" viewBox="0 0 640 512"><!-- Font Awesome Pro 5.15.4 by @fontawesome - https://fontawesome.com License - https://fontawesome.com/license (Commercial License) --><path d="M10.93 108.71L467.65 256h167.59l3.93-11.75a16 16 0 0 0-10.1-20.25L36.3 32.83a16 16 0 0 0-20.24 10.1L.83 88.46a16 16 0 0 0 10.1 20.25zM32 288a32 32 0 0 0-32 32v128a32 32 0 0 0 32 32h576a32 32 0 0 0 32-32V288zm88 112a8 8 0 0 1-8 8H80a8 8 0 0 1-8-8v-32a8 8 0 0 1 8-8h32a8 8 0 0 1 8 8zm96 0a8 8 0 0 1-8 8h-32a8 8 0 0 1-8-8v-32a8 8 0 0 1 8-8h32a8 8 0 0 1 8 8z"/></svg>