<svg xmlns="http://www.w3.org/2000/svg" viewBox="0 0 448 512"><!-- Font Awesome Pro 5.15.4 by @fontawesome - https://fontawesome.com License - https://fontawesome.com/license (Commercial License) --><path d="M224 448.1c-7.7 0-15.4-1.9-22.2-5.5l-9.8-5.2V496c0 8.8 7.2 16 16 16h32c8.8 0 16-7.2 16-16v-58.7l-9.8 5.2c-6.8 3.7-14.5 5.6-22.2 5.6zm221.7-261.8L419.3 160l18.3-18.3c5-5 1.5-13.7-5.7-13.7H314.1c3.6-10 5.9-20.7 5.9-32 0-53-43-96-96-96s-96 43-96 96c0 11.3 2.3 22 5.9 32H16c-7.1 0-10.7 8.6-5.7 13.7L28.7 160 2.3 186.3c-3.1 3.1-3.1 8.2 0 11.3L28.7 224l-18.3 18.3c-5 5-1.5 13.7 5.7 13.7h106.1l-26 141.3c-2.1 12.9 11.2 22.8 22.9 16.9l32.7-24.2c5-3.7 11.6-4.2 17.1-1.3l47.9 25.5c4.5 2.4 9.8 2.4 14.3 0l47.9-25.5c5.5-2.9 12.1-2.4 17.1 1.3l32.7 24.2c11.7 5.9 25.1-4 22.9-16.9L325.9 256H432c7.1 0 10.7-8.6 5.7-13.7L419.3 224l26.3-26.3c3.2-3.2 3.2-8.2.1-11.4zM192 96c-8.8 0-16-7.2-16-16s7.2-16 16-16 16 7.2 16 16-7.2 16-16 16zm64 16c-8.8 0-16-7.2-16-16s7.2-16 16-16 16 7.2 16 16-7.2 16-16 16z"/></svg>