<svg xmlns="http://www.w3.org/2000/svg" viewBox="0 0 512 512"><!-- Font Awesome Pro 5.15.4 by @fontawesome - https://fontawesome.com License - https://fontawesome.com/license (Commercial License) --><path d="M214.2 100.9c36.9-8.6 68.1-3.7 84.4.2l-19.5 19.4 109.8 109.6c46.6-51.7 20.4-105.3 13.2-117.3l-43.7-73.4c-4.3-7.2-9.9-13.3-16.8-18-40.6-27.5-127.3-29.6-171.3.1-6.9 4.7-12.5 10.8-16.8 18l-43.6 73.1c-1.5 2.5-37.1 62.1 11.5 115.8l135.1 140.7L369.6 256 214.2 100.9zM166 323.7L47.6 441.9c-3.1 3.1-3.1 8.2 0 11.3l11.3 11.3c3.1 3.1 8.2 3.1 11.3 0l118.4-118.2-22.6-22.6zm-45.3-45.1L2.3 396.7c-3.1 3.1-3.1 8.2 0 11.3l11.3 11.3c3.1 3.1 8.2 3.1 11.3 0l118.4-118.2-22.6-22.5zM92.9 487.1c-3.1 3.1-3.1 8.2 0 11.3l11.3 11.3c3.1 3.1 8.2 3.1 11.3 0l118.4-118.2-22.6-22.6L92.9 487.1zm208.9-118.2l-22.6 22.6 117.4 117.2c3.1 3.1 8.2 3.1 11.3 0l11.3-11.3c3.1-3.1 3.1-8.2 0-11.3L301.8 368.9zm207.9 26.8L392.3 278.6l-22.6 22.6L487 418.3c3.1 3.1 8.2 3.1 11.3 0l11.3-11.3c3.2-3.1 3.2-8.1.1-11.3zm-162.7-72l-22.6 22.6 117.4 117.2c3.1 3.1 8.2 3.1 11.3 0l11.3-11.3c3.1-3.1 3.1-8.2 0-11.3L347 323.7z"/></svg>