<svg xmlns="http://www.w3.org/2000/svg" viewBox="0 0 640 512"><!-- Font Awesome Pro 5.15.4 by @fontawesome - https://fontawesome.com License - https://fontawesome.com/license (Commercial License) --><path d="M384,32H64A64,64,0,0,0,0,96V416a64,64,0,0,0,64,64H384a64,64,0,0,0,64-64V96A64,64,0,0,0,384,32ZM96,272a16,16,0,0,1-32,0V112a16,16,0,0,1,32,0Zm64,0a16,16,0,0,1-32,0V112a16,16,0,0,1,32,0Zm64,0a16,16,0,0,1-32,0V112a16,16,0,0,1,32,0Zm392-40H552a24,24,0,0,0,0,48h64a24,24,0,0,0,0-48Zm-80-88a23.87,23.87,0,0,0,13.29-4l48-32a24,24,0,1,0-26.62-39.92l-48,32A24,24,0,0,0,536,144Zm13.29,228A24,24,0,1,0,522.69,412l48,32A24,24,0,1,0,597.31,404Z"/></svg>