<svg xmlns="http://www.w3.org/2000/svg" viewBox="0 0 640 512"><!-- Font Awesome Pro 5.15.4 by @fontawesome - https://fontawesome.com License - https://fontawesome.com/license (Commercial License) --><path d="M288.89,315.43c0-61.11,53.71-153.47,130.6-224.61a32.08,32.08,0,0,1,21.83-8.53c2.27,0,4.45.75,6.68,1.23A64.11,64.11,0,0,0,385.08,32H64.18A64.08,64.08,0,0,0,0,96V416a64.08,64.08,0,0,0,64.18,64H376.46A197.48,197.48,0,0,1,288.89,315.43ZM96.27,272a16,16,0,0,1-32.09,0V112a16,16,0,0,1,32.09,0Zm64.18,0a16,16,0,0,1-32.09,0V112a16,16,0,0,1,32.09,0Zm64.18,0a16,16,0,0,1-32.09,0V112a16,16,0,0,1,32.09,0ZM551.12,150.86A426.14,426.14,0,0,0,511,193.7,553.25,553.25,0,0,0,440,114.29c-70.19,65.11-120,150-120,201.14C320,406.33,391.63,480,480,480s160-73.67,160-164.57C640,277.38,602.87,198.89,551.12,150.86Zm-11.06,247A100.9,100.9,0,0,1,482.14,416C428,416,384,380.19,384,322.07c0-29,18.23-54.48,54.6-98.07,5.19,6,74.11,94,74.11,94l44-50.14c3.11,5.12,5.93,10.15,8.44,15C585.65,322,577,372.05,540.06,397.9Z"/></svg>