<svg xmlns="http://www.w3.org/2000/svg" viewBox="0 0 640 512"><!-- Font Awesome Pro 5.15.4 by @fontawesome - https://fontawesome.com License - https://fontawesome.com/license (Commercial License) --><path d="M572.67,321.28a47.81,47.81,0,0,0-82.4-46.63,79.94,79.94,0,0,0-152.63,45.52c-.56,0-1.08-.17-1.64-.17a80,80,0,0,0,0,160H560a79.85,79.85,0,0,0,12.67-158.72Zm-268.08-28.8A112.15,112.15,0,0,1,416,192c11.14,0,21.74,2.15,32,5.22V96a64,64,0,0,0-64-64H64A64,64,0,0,0,0,96V416a64,64,0,0,0,64,64H257.86a111.81,111.81,0,0,1,46.73-187.52ZM96,272a16,16,0,0,1-32,0V112a16,16,0,0,1,32,0Zm64,0a16,16,0,0,1-32,0V112a16,16,0,0,1,32,0Zm48,16a16,16,0,0,1-16-16V112a16,16,0,0,1,32,0V272A16,16,0,0,1,208,288Z"/></svg>