<svg xmlns="http://www.w3.org/2000/svg" viewBox="0 0 576 512"><!-- Font Awesome Pro 5.15.4 by @fontawesome - https://fontawesome.com License - https://fontawesome.com/license (Commercial License) --><path d="M439.691 226.164L263.687 378.15C248.3 391.439 224 380.687 224 359.986v-84.175c-108.668 12.533-151.102 58.854-112.59 182.015 5.034 16.098-14.424 28.562-28.077 18.631C39.582 444.635 0 383.766 0 322.326 0 190.99 94.818 149.009 224 138.777V56.015c0-20.667 24.28-31.469 39.687-18.164l176.004 151.985c11.086 9.575 11.071 26.767 0 36.328zm128-36.328L391.687 37.851C376.28 24.546 352 35.348 352 56.015v15.818l108.607 93.786A55.949 55.949 0 0 1 480 207.998a55.96 55.96 0 0 1-19.394 42.385L352 344.168v15.818c0 20.701 24.3 31.453 39.687 18.164l176.004-151.986c11.071-9.561 11.086-26.753 0-36.328z"/></svg>