<svg xmlns="http://www.w3.org/2000/svg" viewBox="0 0 448 512"><!-- Font Awesome Pro 5.15.4 by @fontawesome - https://fontawesome.com License - https://fontawesome.com/license (Commercial License) --><path d="M420.43 83.69l-179.2-80c-11.03-4.92-23.43-4.92-34.46 0l-179.2 80C10.88 91.14 0 108.62 0 128c0 198.49 106.86 335.71 206.77 380.31 11.03 4.92 23.43 4.92 34.46 0C321.13 472.64 448 349.28 448 128c0-19.38-10.88-36.86-27.57-44.31zM374.09 224H256v200.27c-11.34 8.92-22.26 16.12-32.07 21.3-10.68-5.51-21.36-12.66-31.93-20.81V224H74.8c-4.39-20.25-7.37-41.58-8.9-64H192V80.37l32-14.29 32 14.29V160h126.74c-1.47 22.72-4.4 44.07-8.65 64z"/></svg>