<svg xmlns="http://www.w3.org/2000/svg" viewBox="0 0 512 512"><!-- Font Awesome Pro 5.15.4 by @fontawesome - https://fontawesome.com License - https://fontawesome.com/license (Commercial License) --><path d="M503.2 72.3L439.7 8.8C428-2.9 409-2.9 397.3 8.8l-24.5 24.5c-14.2 14.2-21.9 33.2-21.9 52.9 0 4.9.5 9.8 1.5 14.8 1.3 6.5 3.6 12.6 6.4 18.4l-99.3 99.3-49.3-49.3c-11.3-11.3-29.3-12.5-41.9-2.7L12.4 287c-15.2 11.7-16.6 34.1-3 47.6l168 168c13.6 13.6 35.9 12.1 47.6-3l120.4-155.8c9.8-12.7 8.6-30.6-2.7-41.9l-49.3-49.3 99.3-99.3c5.8 2.8 11.9 5.1 18.4 6.4 24.6 4.9 49.9-2.7 67.6-20.5l24.5-24.5c11.7-11.7 11.7-30.7 0-42.4zM112 352c-4.1 0-8.2-1.6-11.3-4.7-6.2-6.2-6.2-16.4 0-22.6l80-80c6.2-6.3 16.4-6.3 22.6 0 6.2 6.2 6.2 16.4 0 22.6l-80 80c-3.1 3.1-7.2 4.7-11.3 4.7zm155.3-20.7l-80 80c-3.1 3.1-7.2 4.7-11.3 4.7s-8.2-1.6-11.3-4.7c-6.2-6.2-6.2-16.4 0-22.6l80-80c6.2-6.2 16.4-6.2 22.6 0s6.3 16.4 0 22.6zm177.5-226c-6.4 6.4-15.5 9.1-24.3 7.3-10.7-2.1-19-10.4-21.1-21.1-1.7-8.9 1-17.9 7.3-24.3l11.8-11.8 38.1 38.1-11.8 11.8z"/></svg>