<svg xmlns="http://www.w3.org/2000/svg" viewBox="0 0 512 512"><!-- Font Awesome Pro 5.15.4 by @fontawesome - https://fontawesome.com License - https://fontawesome.com/license (Commercial License) --><path d="M232 496c0 8.84 7.16 16 16 16h16c8.84 0 16-7.16 16-16v-80h-48v80zm-96 0c0 8.84 7.16 16 16 16h16c8.84 0 16-7.16 16-16v-80h-48v80zm-96 0c0 8.84 7.16 16 16 16h16c8.84 0 16-7.16 16-16v-80H40v80zm288 0c0 8.84 7.16 16 16 16h16c8.84 0 16-7.16 16-16v-80h-48v80zm120-304V77.25c0-8.49-3.37-16.62-9.37-22.63L393.37 9.37c-6-6-14.14-9.37-22.63-9.37H96C78.33 0 64 14.33 64 32v160c-35.35 0-64 28.65-64 64v112c0 8.84 7.16 16 16 16h480c8.84 0 16-7.16 16-16V256c0-35.35-28.65-64-64-64zm-64 32H128V64h192v48c0 8.84 7.16 16 16 16h48v96zm48 72c-13.25 0-24-10.75-24-24 0-13.26 10.75-24 24-24s24 10.74 24 24c0 13.25-10.75 24-24 24zm-8 200c0 8.84 7.16 16 16 16h16c8.84 0 16-7.16 16-16v-80h-48v80z"/></svg>