<svg xmlns="http://www.w3.org/2000/svg" viewBox="0 0 512 512"><!-- Font Awesome Pro 5.15.4 by @fontawesome - https://fontawesome.com License - https://fontawesome.com/license (Commercial License) --><path d="M484 192h-20c0 6 4.3 55.7-44.7 71.2L328.1 292l-26.4 45.4-78 36.3-25.7-25.8 70.8-70.8 140.8-44.5c13.3-4.2 22.4-16.6 22.4-30.5V108c0-15.5-12.5-28-28-28h-94.1c-14 0-26.3 9.1-30.5 22.4l-44.5 140.8-70.8 70.8-25.7-25.7 36.3-78 45.4-26.4 28.8-91.2C263.4 46.7 307.7 48 320 48V28c0-15.4-12.6-28-28-28h-54.6c-10.8 0-20.8 6.3-25.4 16.2L95.5 266.5l-39.2 39.2 150 150 39.2-39.2L495.8 300c9.8-4.6 16.2-14.5 16.2-25.4V220c0-15.4-12.6-28-28-28zM31.1 331c-41.4 41.4-41.4 108.6 0 150 41.4 41.4 108.6 41.4 150 0l2.6-2.6-150-150-2.6 2.6z"/></svg>