<svg xmlns="http://www.w3.org/2000/svg" viewBox="0 0 512 512"><!-- Font Awesome Pro 5.15.4 by @fontawesome - https://fontawesome.com License - https://fontawesome.com/license (Commercial License) --><path d="M496 160H288v-32h144c8.84 0 16-7.16 16-16V80c0-8.84-7.16-16-16-16H288V16c0-8.84-7.16-16-16-16h-32c-8.84 0-16 7.16-16 16v48H80c-8.84 0-16 7.16-16 16v32c0 8.84 7.16 16 16 16h144v32H16c-8.84 0-16 7.16-16 16v32c0 8.84 7.16 16 16 16h208v32H80c-8.84 0-16 7.16-16 16v32c0 8.84 7.16 16 16 16h144v32H112c-44.18 0-80 35.82-80 80s35.82 80 80 80 80-35.82 80-80c0-5.48-.56-10.83-1.61-16h131.23a80.321 80.321 0 0 0-1.61 16c0 44.18 35.82 80 80 80s80-35.82 80-80-35.82-80-80-80H288v-32h144c8.84 0 16-7.16 16-16v-32c0-8.84-7.16-16-16-16H288v-32h208c8.84 0 16-7.16 16-16v-32c0-8.84-7.16-16-16-16zM112 464c-17.64 0-32-14.36-32-32s14.36-32 32-32 32 14.36 32 32-14.36 32-32 32zm288-64c17.64 0 32 14.36 32 32s-14.36 32-32 32-32-14.36-32-32 14.36-32 32-32z"/></svg>