<svg xmlns="http://www.w3.org/2000/svg" viewBox="0 0 512 512"><!-- Font Awesome Pro 5.15.4 by @fontawesome - https://fontawesome.com License - https://fontawesome.com/license (Commercial License) --><path d="M510.7 190.2c-2.2-13.1-14.8-21.9-27.7-19.7-13.1 2.2-21.9 14.6-19.7 27.7 3.3 19.3-6 38.9-22.1 48.1L174 383.8l44.9-109 121.4-110.5c11.5-11.5 14.9-28.6 8.7-43.6-6.2-15-20.7-24.7-37-24.7H128c-17.7 0-32 14.3-32 32s14.3 32 32 32h97.5l-58.9 76.5c-3.4 4.4.2-3.6-60.2 143.3-5.1 12.4-1.8 26.2 7.3 35L13 466.7c-11.8 6-16.4 20.5-10.3 32.3 4.3 8.3 12.7 13 21.4 13 3.7 0 7.5-.9 11-2.7l429.2-220.9c34.3-19.7 53-59.2 46.4-98.2zM400 96c26.5 0 48-21.5 48-48S426.5 0 400 0s-48 21.5-48 48 21.5 48 48 48z"/></svg>