<svg xmlns="http://www.w3.org/2000/svg" viewBox="0 0 640 512"><!-- Font Awesome Pro 5.15.4 by @fontawesome - https://fontawesome.com License - https://fontawesome.com/license (Commercial License) --><path d="M416,96H224a64,64,0,0,0-64,64V288a64,64,0,0,0,64,64l26.82,134.27A32,32,0,0,0,282.2,512h75.53a32,32,0,0,0,31.38-25.72L416,352a64,64,0,0,0,64-64V160A64,64,0,0,0,416,96ZM256,288a32,32,0,1,1,32-32A32,32,0,0,1,256,288Zm128,0a32,32,0,1,1,32-32A32,32,0,0,1,384,288ZM60.11,113.55C43.35,89.42,56.5,39,63,21.62a16,16,0,0,0-26.19-17C13.05,27.87,0,60.31,0,95.91,0,166.53,57.42,224,128,224V128.09H96C78.64,128.09,66.91,123.34,60.11,113.55Zm543.12-109A16,16,0,0,0,577,21.64c6.06,16.15,19.6,67.73,2.88,91.89-6.8,9.79-18.54,14.56-35.9,14.56H512V224c70.57,0,128-57.47,128-128.09C640,60.31,627,27.87,603.23,4.57Z"/></svg>