<svg xmlns="http://www.w3.org/2000/svg" viewBox="0 0 512 512"><!-- Font Awesome Pro 5.15.4 by @fontawesome - https://fontawesome.com License - https://fontawesome.com/license (Commercial License) --><path d="M505 420.1c-9.4-9.4-24.6-9.4-33.9 0-12.1 12.1-30.5 15.4-45.1 8.7l-49.1-25.4c4.2-5.4 7.2-11.9 7.2-19.4v-96c0-17.7-14.3-32-32-32h-50.8l46.1-46.1c13.8-13.8 17.9-34.3 10.4-52.3-7.5-18-24.9-29.6-44.3-29.6H160c-17.7 0-32 14.3-32 32s14.3 32 32 32h82.8l-73.4 73.4c-3 2.9-5.3 6.5-6.9 10.4-2.1 5.1-2.4 10.5-1.8 15.9L35 226.6c-11.7-6-26.3-1.5-32.3 10.3-6.1 11.8-1.5 26.3 10.3 32.4l391.9 202.6c11.9 5.5 24.5 8.1 37.1 8.1 23.2 0 46-9 63-26 9.3-9.4 9.3-24.6 0-33.9zM320 374l-104.4-54H320v54zm80-246c26.5 0 48-21.5 48-48s-21.5-48-48-48-48 21.5-48 48 21.5 48 48 48z"/></svg>