<svg xmlns="http://www.w3.org/2000/svg" viewBox="0 0 640 512"><!-- Font Awesome Pro 5.15.4 by @fontawesome - https://fontawesome.com License - https://fontawesome.com/license (Commercial License) --><path d="M208 96C93.1 96 0 189.1 0 304s93.1 208 208 208 208-93.1 208-208S322.9 96 208 96zm64 133.2c14.8 0 26.8 12 26.8 26.8s-12 26.8-26.8 26.8-26.8-12-26.8-26.8 12-26.8 26.8-26.8zm-128 0c14.8 0 26.8 12 26.8 26.8s-12 26.8-26.8 26.8-26.8-12-26.8-26.8 12-26.8 26.8-26.8zm164.2 140.9C283.3 399.3 246.8 416 208 416c-38.8 0-75.3-16.7-100.2-45.9-5.8-6.7-5-16.8 1.8-22.5s16.8-5 22.5 1.8c18.8 22 46.5 34.6 75.8 34.6 29.4 0 57-12.6 75.8-34.7 5.8-6.8 15.9-7.5 22.6-1.8 6.8 5.8 7.6 15.9 1.9 22.6zM624 80h-64V16c0-8.8-7.2-16-16-16h-32c-8.8 0-16 7.2-16 16v64h-64c-8.8 0-16 7.2-16 16v32c0 8.8 7.2 16 16 16h64v64c0 8.8 7.2 16 16 16h32c8.8 0 16-7.2 16-16v-64h64c8.8 0 16-7.2 16-16V96c0-8.8-7.2-16-16-16z"/></svg>