<svg xmlns="http://www.w3.org/2000/svg" viewBox="0 0 640 512"><!-- Font Awesome Pro 5.15.4 by @fontawesome - https://fontawesome.com License - https://fontawesome.com/license (Commercial License) --><path d="M528 288c-18 0-34.7 4.6-49.7 12.1C454 255 406.8 224 352 224c-41 0-77.8 17.3-104 44.8-26.2-27.5-63-44.8-104-44.8C64.5 224 0 288.5 0 368s64.5 144 144 144h384c61.9 0 112-50.1 112-112s-50.1-112-112-112zM402.4 158.8C380.1 139.9 351.6 128 320 128c-51.7 0-95.9 30.8-116.1 74.8 15.6 5.7 30.6 13.4 44.1 23.4C278 204 314 192 352 192c54.9 0 106 25.9 139 69.1 12.1-3.4 24.5-5.1 37-5.1 35.5 0 67.6 13.4 92.7 34.8 12-19.5 19.3-42.2 19.3-66.8 0-70.7-57.3-128-128-128-46.8 0-87.3 25.3-109.6 62.8zM144 192c9.9 0 19.5.9 29.1 2.5C197.2 136.8 253.7 96 320 96c26.2 0 52 6.7 75.1 19.2 9.3-10.2 20.2-18.4 31.6-25.8C403.8 54.9 364.6 32 320 32c-31.6 0-60.1 11.9-82.4 30.8C215.3 25.3 174.8 0 128 0 57.3 0 0 57.3 0 128c0 38.2 17.1 72.1 43.7 95.6 28.5-19.9 63-31.6 100.3-31.6z"/></svg>