<svg xmlns="http://www.w3.org/2000/svg" viewBox="0 0 448 512"><!-- Font Awesome Pro 5.15.4 by @fontawesome - https://fontawesome.com License - https://fontawesome.com/license (Commercial License) --><path d="M192 224H40a24 24 0 0 0-24 24v48a24 24 0 0 0 24 24h50.44L8.08 412.66A32 32 0 0 0 0 433.92V480a32 32 0 0 0 32 32h152a24 24 0 0 0 24-24v-48a24 24 0 0 0-24-24h-50.44l82.36-92.66a32 32 0 0 0 8.08-21.26V256a32 32 0 0 0-32-32zm0-32h96a16 16 0 0 0 16-16v-32a16 16 0 0 0-16-16h-34.75l57.38-57.38A32 32 0 0 0 320 48V32a32 32 0 0 0-32-32H184a16 16 0 0 0-16 16v32a16 16 0 0 0 16 16h42.75l-57.38 57.38A32 32 0 0 0 160 144v16a32 32 0 0 0 32 32zm256 80v-16a32 32 0 0 0-32-32h-96a16 16 0 0 0-16 16v32a16 16 0 0 0 16 16h34.75l-57.38 57.38A32 32 0 0 0 288 368v16a32 32 0 0 0 32 32h104a16 16 0 0 0 16-16v-32a16 16 0 0 0-16-16h-42.75l57.38-57.38A32 32 0 0 0 448 272z"/></svg>