<svg xmlns="http://www.w3.org/2000/svg" viewBox="0 0 640 512"><!-- Font Awesome Pro 5.15.4 by @fontawesome - https://fontawesome.com License - https://fontawesome.com/license (Commercial License) --><path d="M608.1 256l27.9-16c3.8-2.2 5.1-7.1 2.9-10.9l-8-13.9c-2.2-3.8-7.1-5.1-10.9-2.9l-28 16.1V200c0-4.4-3.6-8-8-8h-16c-4.4 0-8 3.6-8 8v28.4l-28-16.1c-3.8-2.2-8.7-.9-10.9 2.9l-8 13.9c-2.2 3.8-.9 8.7 2.9 10.9l27.9 16-27.9 16c-3.8 2.2-5.1 7.1-2.9 10.9l8 13.9c2.2 3.8 7.1 5.1 10.9 2.9l28-16.1V312c0 4.4 3.6 8 8 8h16c4.4 0 8-3.6 8-8v-28.4l28 16.1c3.8 2.2 8.7.9 10.9-2.9l8-13.9c2.2-3.8.9-8.7-2.9-10.9l-27.9-16zM445.9 145.7l-15.5-26.8c-4.3-7.4-13.7-9.9-21.1-5.7l-33.8 19.5 7-26c2.2-8.2-2.7-16.7-10.9-18.9l-14.9-4c-8.2-2.2-16.7 2.7-18.9 10.9l-19 70.8-62.8 36.3v-77.5l53.7-53.7c6.2-6.2 6.2-16.4 0-22.6l-11.3-11.3c-6.2-6.2-16.4-6.2-22.6 0L256 56.4V16c0-8.8-7.2-16-16-16h-32c-8.8 0-16 7.2-16 16v40.4l-19.7-19.7c-6.2-6.2-16.4-6.2-22.6 0L138.3 48c-6.2 6.2-6.2 16.4 0 22.6l53.7 53.7v77.5l-62.8-36.2-19-70.8c-2.2-8.2-10.7-13.1-18.9-10.9l-14.9 4c-8.2 2.2-13.1 10.7-10.9 18.9l7 26-33.8-19.5c-7.4-4.3-16.8-1.7-21.1 5.7L2.1 145.7c-4.3 7.4-1.7 16.8 5.7 21.1l33.8 19.5-26 7c-8.3 2.2-13.2 10.7-11 19l4 14.9c2.2 8.2 10.7 13.1 18.9 10.9l70.8-19 63.8 36.9-63.8 36.9-70.8-19c-8.2-2.2-16.7 2.7-18.9 10.9l-4 14.9c-2.2 8.2 2.7 16.7 10.9 18.9l26 7-33.8 19.6c-7.4 4.3-9.9 13.7-5.7 21.1l15.5 26.8c4.3 7.4 13.7 9.9 21.1 5.7l33.8-19.5-7 26c-2.2 8.2 2.7 16.7 10.9 18.9l14.9 4c8.2 2.2 16.7-2.7 18.9-10.9l19-70.8 62.8-36.2v77.5l-53.7 53.7c-6.2 6.2-6.2 16.4 0 22.6l11.3 11.3c6.2 6.2 16.4 6.2 22.6 0l19.7-19.7V496c0 8.8 7.2 16 16 16h32c8.8 0 16-7.2 16-16v-40.4l19.7 19.7c6.2 6.2 16.4 6.2 22.6 0l11.3-11.3c6.2-6.2 6.2-16.4 0-22.6L256 387.7v-77.5l62.8 36.2 19 70.8c2.2 8.2 10.7 13.1 18.9 10.9l14.9-4c8.2-2.2 13.1-10.7 10.9-18.9l-7-26 33.8 19.5c7.4 4.3 16.8 1.7 21.1-5.7l15.5-26.8c4.3-7.4 1.7-16.8-5.7-21.1l-33.8-19.5 26-7c8.2-2.2 13.1-10.7 10.9-18.9l-4-14.9c-2.2-8.2-10.7-13.1-18.9-10.9l-70.8 19-63.8-36.9 63.8-36.9 70.8 19c8.2 2.2 16.7-2.7 18.9-10.9l4-14.9c2.2-8.2-2.7-16.7-10.9-18.9l-26-7 33.8-19.5c7.5-4.3 10-13.8 5.7-21.2zm82-25.7c0 4.4 3.6 8 8 8h16c4.4 0 8-3.6 8-8V91.6l28 16.1c3.8 2.2 8.7.9 10.9-2.9l8-13.9c2.2-3.8.9-8.7-2.9-10.9L576 64l27.9-16c3.8-2.2 5.1-7.1 2.9-10.9l-8-13.9c-2.2-3.8-7.1-5.1-10.9-2.9l-28 16.1V8c0-4.4-3.6-8-8-8h-16c-4.4 0-8 3.6-8 8v28.4l-28-16.1c-3.8-2.2-8.7-.9-10.9 2.9l-8 13.9c-2.2 3.8-.9 8.7 2.9 10.9l27.9 16-27.9 16c-3.8 2.2-5.1 7.1-2.9 10.9l8 13.9c2.2 3.8 7.1 5.1 10.9 2.9l28-16.1V120z"/></svg>