<svg xmlns="http://www.w3.org/2000/svg" viewBox="0 0 640 512"><!-- Font Awesome Pro 5.15.4 by @fontawesome - https://fontawesome.com License - https://fontawesome.com/license (Commercial License) --><path d="M636.8 446.4l-9.6-12.8c-5.3-7.1-15.3-8.5-22.4-3.2L570.7 456c-6.9 5.2-15.3 8-24 8h-.7l-46-61.3 68.9-45.9c4.5-3 7.1-8 7.1-13.3V266c0-6.1-3.4-11.6-8.8-14.3L407.9 172l-41.5-83.1c-4-7.9-13.5-11.1-21.5-7.2-7.9 4-11.1 13.6-7.2 21.5l35.6 71.2L360 192h-58.7L246 136.8c-14.5-14.5-35.2-21.2-55.5-17.9-20.2 3.3-37.8 16.2-47 34.5l-29.8 59.7c-7.6 15.3-8.9 32.6-3.5 48.9 3.4 10.2 9.4 18.9 16.9 26.1H96c-12.1 0-23.2 6.8-28.6 17.7l-32 64C24.7 391 40.2 416 64 416h386l36 48h-54c-8.8 0-16 7.2-16 16v16c0 8.8 7.2 16 16 16h114.7c19 0 37.6-6.2 52.8-17.6l34.1-25.6c7.1-5.3 8.5-15.3 3.2-22.4zM288 288h-24.4l-67-33.5 25.6-51.1 33.9 33.9c12.1 12.1 28.2 18.8 45.2 18.8H312L288 288zM240 96c26.5 0 48-21.5 48-48S266.5 0 240 0s-48 21.5-48 48 21.5 48 48 48zm48 352H32c-17.7 0-32 14.3-32 32s14.3 32 32 32h256c17.7 0 32-14.3 32-32s-14.3-32-32-32z"/></svg>