<svg xmlns="http://www.w3.org/2000/svg" viewBox="0 0 512 512"><!-- Font Awesome Pro 5.15.4 by @fontawesome - https://fontawesome.com License - https://fontawesome.com/license (Commercial License) --><path d="M256,378.33,314.3,320H197.59ZM256,8C119,8,8,119,8,256S119,504,256,504,504,393,504,256,393,8,256,8ZM151.43,192.58,243,101.41a18.41,18.41,0,0,1,26.07,0l91.5,91.17C372.17,204.15,364,224,347.5,224h-183C148,224,139.83,204.15,151.43,192.58ZM360.57,319.42l-91.5,91.17a18.41,18.41,0,0,1-26.07,0l-91.57-91.17C139.83,307.85,148,288,164.5,288h183C364,288,372.17,307.85,360.57,319.42Z"/></svg>