<svg xmlns="http://www.w3.org/2000/svg" viewBox="0 0 512 512"><!-- Font Awesome Pro 5.15.4 by @fontawesome - https://fontawesome.com License - https://fontawesome.com/license (Commercial License) --><path d="M276 192h152a20 20 0 0 0 20-20V52a20 20 0 0 0-20-20H276a20 20 0 0 0-20 20v120a20 20 0 0 0 20 20zm208 64H284a28 28 0 0 0-28 28v168a28 28 0 0 0 28 28h200a28 28 0 0 0 28-28V284a28 28 0 0 0-28-28zM107.31 36.69a16 16 0 0 0-22.62 0l-80 96C-5.35 142.74 1.77 160 16 160h48v304a16 16 0 0 0 16 16h32a16 16 0 0 0 16-16V160h48c14.21 0 21.38-17.24 11.31-27.31z"/></svg>