<svg xmlns="http://www.w3.org/2000/svg" viewBox="0 0 512 512"><!-- Font Awesome Pro 5.15.4 by @fontawesome - https://fontawesome.com License - https://fontawesome.com/license (Commercial License) --><path d="M256,8C119.0332,8,8,119.0332,8,256a250.01609,250.01609,0,0,0,1.72461,28.26562C81.19727,306.76953,165.47852,320,256,320s174.80273-13.23047,246.27539-35.73438A250.01609,250.01609,0,0,0,504,256C504,119.0332,392.9668,8,256,8ZM192,240a80,80,0,1,1,80-80A80.00021,80.00021,0,0,1,192,240ZM16.71094,320.26367C45.05859,426.01953,141.29883,504,256,504s210.94141-77.98047,239.28906-183.73633C424.71289,340.53906,343.3418,352,256,352S87.28711,340.53906,16.71094,320.26367ZM192,136a24,24,0,1,0,24,24A23.99993,23.99993,0,0,0,192,136Z"/></svg>