<svg xmlns="http://www.w3.org/2000/svg" viewBox="0 0 512 512"><!-- Font Awesome Pro 5.15.4 by @fontawesome - https://fontawesome.com License - https://fontawesome.com/license (Commercial License) --><path d="M192,136a24,24,0,1,0,24,24A23.99993,23.99993,0,0,0,192,136ZM384,343.13867A940.38216,940.38216,0,0,1,256,352c-87.3418,0-168.71289-11.46094-239.28906-31.73633C45.05859,426.01953,141.29883,504,256,504a247.46107,247.46107,0,0,0,192-91.0918V384H384ZM501.70508,224H448V160H368V96h48V66.67383A246.86934,246.86934,0,0,0,256,8C119.0332,8,8,119.0332,8,256a250.01609,250.01609,0,0,0,1.72461,28.26562C81.19727,306.76953,165.47852,320,256,320s174.80273-13.23047,246.27539-35.73438A250.01609,250.01609,0,0,0,504,256,249.15161,249.15161,0,0,0,501.70508,224ZM192,240a80,80,0,1,1,80-80A80.00021,80.00021,0,0,1,192,240Z"/></svg>