<svg xmlns="http://www.w3.org/2000/svg" viewBox="0 0 512 512"><!-- Font Awesome Pro 5.15.4 by @fontawesome - https://fontawesome.com License - https://fontawesome.com/license (Commercial License) --><path d="M398.19,256H288V80a16,16,0,0,0-16-16H240a16,16,0,0,0-16,16V256H113.81a17.77,17.77,0,0,0-14.22,28.44l67.52,78.23L192,387.56V512H320V387.56l24.89-24.89,67.52-78.23A17.77,17.77,0,0,0,398.19,256ZM152,152a24,24,0,1,0-24-24A24,24,0,0,0,152,152ZM88,96A24,24,0,1,0,64,72,24,24,0,0,0,88,96Zm24,72a24,24,0,1,0-24,24A24,24,0,0,0,112,168ZM24,104a24,24,0,1,0,24,24A24,24,0,0,0,24,104ZM24,0A24,24,0,1,0,48,24,24,24,0,0,0,24,0Zm0,208a24,24,0,1,0,24,24A24,24,0,0,0,24,208Zm336-56a24,24,0,1,0-24-24A24,24,0,0,0,360,152Zm64,8a24,24,0,1,0,24,24A24,24,0,0,0,424,160Zm0-96a24,24,0,1,0,24,24A24,24,0,0,0,424,64Zm64,40a24,24,0,1,0,24,24A24,24,0,0,0,488,104Zm0,104a24,24,0,1,0,24,24A24,24,0,0,0,488,208Zm0-160a24,24,0,1,0-24-24A24,24,0,0,0,488,48Z"/></svg>