<svg xmlns="http://www.w3.org/2000/svg" viewBox="0 0 512 512"><!-- Font Awesome Pro 5.15.4 by @fontawesome - https://fontawesome.com License - https://fontawesome.com/license (Commercial License) --><path d="M479.85 448h-30.93c18.19-18.4 30.93-42.12 30.93-64 0-26.55-22.08-52.81-47.85-61.09V224h47.85c20.4 0 35.7-18.91 31.43-38.87C500.84 136.42 466.72 96 415.87 96V64c-48.01 0-74.22 62.73-89.4 108.29l-65.34 196.52c-1.39 4.19-5.92 6.46-10.11 5.07l-15.19-5.05c-4.19-1.39-6.46-5.92-5.07-10.12l34.53-103.85C312.5 112.89 214.16 0 127.96 0 57.29 0 0 57.31 0 128s57.29 128 127.96 128c.27 0 .52-.08.79-.08-20.93 27.67-33.56 61.96-32.74 99.54C97.94 443.88 175.85 512 264.27 512h231.58c8.83 0 15.99-7.16 15.99-16v-16c0-17.67-14.32-32-31.99-32zm-47.98-304c8.83 0 15.99 7.16 15.99 16s-7.16 16-15.99 16-16-7.16-16-16 7.17-16 16-16z"/></svg>