<svg xmlns="http://www.w3.org/2000/svg" viewBox="0 0 512 512"><!-- Font Awesome Pro 5.15.4 by @fontawesome - https://fontawesome.com License - https://fontawesome.com/license (Commercial License) --><path d="M432 0h-76.23c-30.3 0-58 17.12-71.55 44.22l-16 32c-3.95 7.9-.75 17.51 7.15 21.46l57.25 28.63c7.9 3.95 17.51.75 21.47-7.16L365.67 96H416v75.8l-157.29 44.94a176.122 176.122 0 0 0-76.11 44.78L156.12 288H112c-8.84 0-16 7.16-16 16v44.12L7.03 437.1c-9.37 9.37-9.37 24.57 0 33.94l33.93 33.93c9.37 9.37 24.57 9.37 33.94 0l175.55-175.55a80.111 80.111 0 0 1 34.62-20.37l84.82-24.24 32.25 18.62c7.65 4.42 17.44 1.79 21.86-5.86l19.51-33.8 10.46-2.99c34.34-9.81 58.02-41.21 58.02-76.92V80C512 35.82 476.18 0 432 0z"/></svg>