<svg xmlns="http://www.w3.org/2000/svg" viewBox="0 0 576 512"><!-- Font Awesome Pro 5.15.4 by @fontawesome - https://fontawesome.com License - https://fontawesome.com/license (Commercial License) --><path d="M560,32H528a15.99954,15.99954,0,0,0-16,16V216l-75.51953-18.87891C412.99414,137.96289,355.52344,96,288,96S163.00586,137.96289,139.51953,197.12109L64,216V48A15.99954,15.99954,0,0,0,48,32H16A15.99954,15.99954,0,0,0,0,48V464a16.00079,16.00079,0,0,0,16,16H48a16.00079,16.00079,0,0,0,16-16V296l75.51953,18.87891C163.00586,374.03711,220.47656,416,288,416s124.99414-41.96289,148.48047-101.12109L512,296V464a16.00079,16.00079,0,0,0,16,16h32a16.00079,16.00079,0,0,0,16-16V48A15.99954,15.99954,0,0,0,560,32ZM300,161.21094a94.90406,94.90406,0,0,1,46.584,19.23633l-22.627,22.62695A63.5822,63.5822,0,0,0,300,193.21094Zm-24,0v32a63.5822,63.5822,0,0,0-23.957,9.86328L229.416,180.44727A94.90406,94.90406,0,0,1,276,161.21094ZM212.44727,197.416,235.07422,220.043A63.5822,63.5822,0,0,0,225.21094,244h-32A94.90406,94.90406,0,0,1,212.44727,197.416ZM193.21094,268h32a63.5822,63.5822,0,0,0,9.86328,23.957l-22.62695,22.627A94.90406,94.90406,0,0,1,193.21094,268ZM276,350.78906a94.90406,94.90406,0,0,1-46.584-19.23633l22.62695-22.627A63.5822,63.5822,0,0,0,276,318.78906ZM256,256a32,32,0,1,1,32,32A31.99908,31.99908,0,0,1,256,256Zm44,94.78906v-32a63.5822,63.5822,0,0,0,23.957-9.86328l22.627,22.627A94.90406,94.90406,0,0,1,300,350.78906ZM363.55273,314.584l-22.627-22.627A63.5822,63.5822,0,0,0,350.78906,268h32A94.90406,94.90406,0,0,1,363.55273,314.584ZM350.78906,244a63.5822,63.5822,0,0,0-9.86328-23.957l22.627-22.62695A94.90406,94.90406,0,0,1,382.78906,244Z"/></svg>