<svg xmlns="http://www.w3.org/2000/svg" viewBox="0 0 640 512"><!-- Font Awesome Pro 5.15.4 by @fontawesome - https://fontawesome.com License - https://fontawesome.com/license (Commercial License) --><path d="M208,288H144a15.99985,15.99985,0,0,0-16,16v48H48V160h8a8.00008,8.00008,0,0,0,8-8V136a7.99977,7.99977,0,0,0-8-8H48V112.85547c0-7.96924-5.44531-15.356-13.311-16.63623A16.01034,16.01034,0,0,0,16,112v16H8a7.99977,7.99977,0,0,0-8,8v16a8.00008,8.00008,0,0,0,8,8h8V431.14209c0,7.97021,5.44531,15.3584,13.312,16.63867A16.01152,16.01152,0,0,0,48,432v-3.20117L176,480v16a16.00016,16.00016,0,0,0,16,16h16a16.00016,16.00016,0,0,0,16-16V304A15.99985,15.99985,0,0,0,208,288ZM632,128h-8V112.85547c0-7.96924-5.44531-15.356-13.311-16.63623A16.01034,16.01034,0,0,0,592,112v16h-8a7.99977,7.99977,0,0,0-8,8v16a8.00008,8.00008,0,0,0,8,8h8V352H512V304a15.99985,15.99985,0,0,0-16-16H432a15.99985,15.99985,0,0,0-16,16V496a16.00016,16.00016,0,0,0,16,16h16a16.00016,16.00016,0,0,0,16-16V480l128-51.20117v2.34326c0,7.97021,5.44531,15.3584,13.312,16.63867A16.01152,16.01152,0,0,0,624,432V160h8a8.00008,8.00008,0,0,0,8-8V136A7.99977,7.99977,0,0,0,632,128ZM337.875,0h-35.75a15.99837,15.99837,0,0,0-15.877,14.01562L256,256V464a16.00079,16.00079,0,0,0,16,16h96a16.00079,16.00079,0,0,0,16-16V256L353.752,14.01562A15.99837,15.99837,0,0,0,337.875,0ZM352,304a16.00079,16.00079,0,0,1-16,16H304a16.00079,16.00079,0,0,1-16-16V256a32,32,0,0,1,64,0Z"/></svg>