<svg xmlns="http://www.w3.org/2000/svg" viewBox="0 0 512 512"><!-- Font Awesome Pro 5.15.4 by @fontawesome - https://fontawesome.com License - https://fontawesome.com/license (Commercial License) --><path d="M505.3 247.4l-192.5-48.1L264.6 6.7c-2.2-9-15-9-17.2 0l-48.1 192.6L6.7 247.4c-9 2.2-9 15 0 17.2l192.5 48.1 48.1 192.5c2.2 9 15 9 17.2 0l48.1-192.5 192.6-48.1c9-2.2 9-15 .1-17.2zm-352.4-69.5l19.9-5 5-19.9L109 97.9c-7.5-6-17.2 3.7-11.2 11.2l55.1 68.8zm206.2 156.2l-19.9 5-5 19.9 68.8 55.1c7.5 6 17.2-3.7 11.2-11.2l-55.1-68.8zm0-156.2l55.1-68.8c6-7.5-3.7-17.2-11.2-11.2l-68.8 55 5 19.9 19.9 5.1zM152.9 334.1l-55 68.8c-6 7.5 3.7 17.2 11.2 11.2l68.8-55.1-5-19.9-20-5z"/></svg>