<svg xmlns="http://www.w3.org/2000/svg" viewBox="0 0 576 512"><!-- Font Awesome Pro 5.15.4 by @fontawesome - https://fontawesome.com License - https://fontawesome.com/license (Commercial License) --><path d="M224.00871,208.00014a48,48,0,1,0,47.99881,48A47.99927,47.99927,0,0,0,224.00871,208.00014ZM560.0004,223.65443a16.00059,16.00059,0,0,0,15.9996-16v-52.455a16.0008,16.0008,0,0,0-10.52318-15.0332l-254.15-92.60347C255.57629,27.50609,193.613,25.59008,139.21979,49.15061-4.095,111.22285.01425,256.00012.01425,256.00012s-4.35536,144.66594,139.20554,206.8495c54.39319,23.55858,116.3565,21.64452,172.10707,1.58593l16.32772-5.94921,3.19524,3.90429A48.04351,48.04351,0,0,0,368.00515,480h63.99841a47.91689,47.91689,0,0,0,40.167-74.16988L565.47682,371.834A16.0008,16.0008,0,0,0,576,356.80084v-52.455a16.00059,16.00059,0,0,0-15.9996-16H416.004V223.65443ZM80.01227,272.00011a16,16,0,1,1,15.99961-16A16.00059,16.00059,0,0,1,80.01227,272.00011Zm31.99921,96a16,16,0,1,1,15.99961-16A16.00059,16.00059,0,0,1,112.01148,368.00006Zm0-191.9999a16,16,0,1,1,15.99961-16A16.00059,16.00059,0,0,1,112.01148,176.00016ZM224.00871,336.00007a80,80,0,1,1,79.998-80A80.09064,80.09064,0,0,1,224.00871,336.00007Z"/></svg>