<svg xmlns="http://www.w3.org/2000/svg" viewBox="0 0 576 512"><!-- Font Awesome Pro 5.15.4 by @fontawesome - https://fontawesome.com License - https://fontawesome.com/license (Commercial License) --><path d="M368.85 96c-27.31 0-51.89 23.7-62.62 60.36-6.24 21.36-26.75 106.21-173.16 170-138.8 60.35 163.93 169.45 321.26-9.82 38.21-43.53 32.8-126-11.57-176.59C417.86 111.58 391.61 96 368.85 96zM384 255.9a32 32 0 1 1 32-32 32 32 0 0 1-32 32zM514.92 76.65C467.92 23.11 416.28 0 368.85 0 298.27 0 237 51.17 214.1 129.38 165 269.31 1.37 212.32 0 351.63c-1.19 121.61 139.27 164.61 256 160 87.78-3.4 187.32-37.09 270.49-131.84C596.78 299.75 591.6 164 514.92 76.65zm-36.53 261c-76.15 86.75-164.32 107.76-224.82 110.1-37.65 1.38-131.52-6.52-171.24-46.62-2.49-2.51-59.44-61.76 38-104.17 71.64-31.19 132.3-71.24 155.23-149.6C290.34 96.7 327 64 368.85 64c32.58 0 66.45 19 98 54.88 55.15 62.84 60.45 163.03 11.54 218.76z"/></svg>