<svg xmlns="http://www.w3.org/2000/svg" viewBox="0 0 512 512"><!-- Font Awesome Pro 5.15.4 by @fontawesome - https://fontawesome.com License - https://fontawesome.com/license (Commercial License) --><path d="M384 96c-54.29 0-90.86 32.57-109.17 64H256c-35.34 0-64-28.65-64-64V16c0-8.84-7.16-16-16-16h-32c-8.84 0-16 7.16-16 16v80c0 70.69 57.3 128 128 128h.49c-.07 1.85-.49 3.63-.49 5.5V288c0 35.35-28.66 64-64 64h-64C57.3 352 0 409.31 0 480v16c0 8.84 7.16 16 16 16h32c8.84 0 16-7.16 16-16v-16c0-37.63 33.96-51.21 53.92-51.21 17.11 0 29.59 6.71 41.07 18.2C226.21 514.21 297.63 512 308.36 512c112.48 0 203.65-91.17 203.65-203.65V224C512 153.31 454.7 96 384 96zm64 212.35c0 9.23-1.01 18.21-2.73 26.95-21.56 6.08-45.01.97-61.27-15.3-17.37-17.37-42.91-22.14-65.6-13.93.84-5.93 1.6-11.9 1.6-18.07v-58.5c0-36.15 26.38-69.5 64-69.5 35.29 0 64 28.71 64 64v84.35z"/></svg>