<svg xmlns="http://www.w3.org/2000/svg" viewBox="0 0 640 512"><!-- Font Awesome Pro 5.15.4 by @fontawesome - https://fontawesome.com License - https://fontawesome.com/license (Commercial License) --><path d="M576 224c-12 0-23.1 3.5-32.7 9.2-3.5-41-37.4-73.2-79.3-73.2-38.8 0-71.1 27.6-78.4 64.2-.5 0-1-.2-1.6-.2-35.3 0-64 28.7-64 64s28.7 64 64 64h192c35.3 0 64-28.7 64-64s-28.7-64-64-64zM429.4 384H384c-22.2 0-42.4-7.9-58.6-20.5-49.6 32-116.5 26.4-159.9-16.9-49.9-49.9-49.9-131.1 0-181s131.1-49.9 181 0c7.2 7.2 13 15.1 18.1 23.4 13.2-25.5 35.6-45 62.6-54.5l13.9-41.7c4.5-13.6-8.4-26.5-21.9-21.9l-100.4 33.5-47.3-94.8c-6.4-12.8-24.6-12.8-31 0l-47.3 94.7L92.7 70.8c-13.6-4.5-26.5 8.4-21.9 21.9l33.5 100.4-94.7 47.4c-12.8 6.4-12.8 24.6 0 31l94.7 47.3-33.5 100.5c-4.5 13.6 8.4 26.5 21.9 21.9l100.4-33.5 47.3 94.7c6.4 12.8 24.6 12.8 31 0l47.3-94.7 100.4 33.5c13.6 4.5 26.5-8.4 21.9-21.9L429.4 384zm-92.5-179.3C319.8 177.9 290 160 256 160c-52.9 0-96 43.1-96 96s43.1 96 96 96c17.2 0 33.1-4.9 47.1-12.8-9.4-14.8-15.1-32.3-15.1-51.2 0-35.8 19.8-66.8 48.9-83.3z"/></svg>