<svg xmlns="http://www.w3.org/2000/svg" viewBox="0 0 640 512"><!-- Font Awesome Pro 5.15.4 by @fontawesome - https://fontawesome.com License - https://fontawesome.com/license (Commercial License) --><path d="M193.6 240c3.4-27.2 15-53.6 35.9-74.5 49.9-49.9 131.1-49.9 181 0 20.9 20.9 32.5 47.3 35.9 74.5h119l-93.7-46.9 33.5-100.4c4.5-13.6-8.4-26.5-21.9-21.9l-100.4 33.5-47.4-94.7c-6.4-12.8-24.6-12.8-31 0l-47.3 94.7-100.5-33.5c-13.6-4.5-26.5 8.4-21.9 21.9l33.5 100.4L74.6 240h119zM320 160c-47.5 0-86.7 34.7-94.4 80h188.8c-7.7-45.3-46.9-80-94.4-80zM80 336h336c8.8 0 16-7.2 16-16v-16c0-8.8-7.2-16-16-16H80c-8.8 0-16 7.2-16 16v16c0 8.8 7.2 16 16 16zm544-48H496c-8.8 0-16 7.2-16 16v16c0 8.8 7.2 16 16 16h128c8.8 0 16-7.2 16-16v-16c0-8.8-7.2-16-16-16zM208 464H80c-8.8 0-16 7.2-16 16v16c0 8.8 7.2 16 16 16h128c8.8 0 16-7.2 16-16v-16c0-8.8-7.2-16-16-16zm416 0H288c-8.8 0-16 7.2-16 16v16c0 8.8 7.2 16 16 16h336c8.8 0 16-7.2 16-16v-16c0-8.8-7.2-16-16-16zm-48-56v-16c0-8.8-7.2-16-16-16H16c-8.8 0-16 7.2-16 16v16c0 8.8 7.2 16 16 16h544c8.8 0 16-7.2 16-16z"/></svg>