<svg xmlns="http://www.w3.org/2000/svg" viewBox="0 0 576 512"><!-- Font Awesome Pro 5.15.4 by @fontawesome - https://fontawesome.com License - https://fontawesome.com/license (Commercial License) --><path d="M250.9 374.5c-20.6 8.5-36.3 23.5-46.6 41.5h167.2c-23.8-41.6-75.1-60.3-120.6-41.5zM80.7 416h87.6c.2-.5.2-1 .4-1.4 27.3-65.8 102.9-97.2 168.7-69.9 33.4 13.8 57.8 40.2 70.3 71.3h87.6l28.4-32.7c9.4-10.9 2.4-27.9-12-28.9l-106.5-7.6-7.6-106.5c-1-14.4-18-21.4-28.9-12l-80.7 70-80.7-70c-10.9-9.4-27.9-2.4-28.9 12l-7.6 106.5-106.5 7.6c-14.4 1-21.4 18-12 28.9L80.7 416zM560 464H16c-8.8 0-16 7.2-16 16v16c0 8.8 7.2 16 16 16h544c8.8 0 16-7.2 16-16v-16c0-8.8-7.2-16-16-16zM276 219c6.6 6.6 17.4 6.6 24 0l96.4-95.7c10.1-10.1 3-27.4-11.3-27.4H320V16c0-8.8-7.2-16-16-16h-32c-8.8 0-16 7.2-16 16v80h-65.2c-14.3 0-21.4 17.3-11.2 27.4L276 219z"/></svg>