<svg xmlns="http://www.w3.org/2000/svg" viewBox="0 0 512 512"><!-- Font Awesome Pro 5.15.4 by @fontawesome - https://fontawesome.com License - https://fontawesome.com/license (Commercial License) --><path d="M54.60974,502.65158l.002.00195a32.08551,32.08551,0,0,0,45.26143.01173l84.88276-84.88155-22.63853-22.6382ZM94.22325,327.25434,9.3698,412.12416A31.99505,31.99505,0,0,0,9.36,457.35955l.00586.0039L116.85006,349.87887ZM128.16737,361.196,20.67539,468.68451l22.6229,22.64406L150.8,383.82836Zm180.866-105.13441H172.03587a15.99913,15.99913,0,0,0-11.31731,4.68861l-55.178,55.187,90.53068,90.52938L320.294,283.43531C330.45087,273.37628,323.328,256.06161,309.03335,256.06161ZM504.96954,7.02964a24.01262,24.01262,0,0,0-33.28575-.64077l-245.70461,225.667H329.50336l176.107-191.739A24.01232,24.01232,0,0,0,504.96954,7.02964Z"/></svg>