<svg xmlns="http://www.w3.org/2000/svg" viewBox="0 0 640 512"><!-- Font Awesome Pro 5.15.4 by @fontawesome - https://fontawesome.com License - https://fontawesome.com/license (Commercial License) --><path d="M135.03144,7.03013a24.01269,24.01269,0,0,0-.64257,33.287l225.66788,245.7026V182.49655L168.31854,6.38951A24.01275,24.01275,0,0,0,135.03144,7.03013ZM411.43563,191.70552c-10.05859-10.15623-27.373-3.0332-27.373,11.26169V339.963a16.00393,16.00393,0,0,0,4.6875,11.31834L443.93757,406.459l90.52927-90.53106Zm77.75974,192.12654L596.68361,491.324l22.64452-22.623-107.5-107.50172ZM630.666,412.12692l-84.88278-84.88263-22.63671,22.63862L630.65235,457.3905l.002-.002A32.08761,32.08761,0,0,0,630.666,412.12692Zm-175.412,5.64843L540.125,502.62868a31.99249,31.99249,0,0,0,45.23436.00977l.0039-.00586L477.879,395.1504ZM256.00015,313.1994l42.69725-46.67959-42.69725-46.48818ZM400.71689,154.98489,505.61138,40.3074a24.00207,24.00207,0,0,0-33.918-33.91984L343.65636,123.985,381.4669,158.7134a47.95342,47.95342,0,0,1,18.71483-3.78124C400.36337,154.93216,400.53525,154.98294,400.71689,154.98489ZM196.59978,224.62928l-28.76366,29.11321a32.0069,32.0069,0,0,0-45.27733,45.25186L9.33618,412.15427a32.06806,32.06806,0,0,0,.01172,45.2499l45.30857,45.23818a32.01845,32.01845,0,0,0,45.25-.00976L219.26774,384.25784a15.99284,15.99284,0,0,0,4.73242-11.3574v-137.029C224.00016,221.56678,206.65642,214.45156,196.59978,224.62928ZM168.5412,360.44734a16,16,0,1,1,16.0078-16A16.00535,16.00535,0,0,1,168.5412,360.44734Z"/></svg>