<svg xmlns="http://www.w3.org/2000/svg" viewBox="0 0 512 512"><!-- Font Awesome Pro 5.15.4 by @fontawesome - https://fontawesome.com License - https://fontawesome.com/license (Commercial License) --><path d="M105.4989,327.28721l79.19794,79.19384,22.628-22.62688L128.1269,304.66032ZM9.37147,412.13472a32.00179,32.00179,0,0,0-.01935,45.23473L54.586,502.64519a32.07776,32.07776,0,0,0,45.26149.022L179.05363,423.465,88.54035,332.956Zm186.63937-175.355a8.00079,8.00079,0,0,0-11.314,0l-11.314,11.31319a8.00026,8.00026,0,0,0,0,11.31369l79.19793,79.19385a8.00081,8.00081,0,0,0,11.314,0l11.31394-11.3132a8.00015,8.00015,0,0,0,0-11.31369Zm-56.56994,56.567L218.63878,372.541l22.628-22.62688-79.19793-79.19433ZM504.97121,7.02851a24.00693,24.00693,0,0,0-33.279-.64061L225.58713,232.41406l53.98729,53.98451L505.612,40.306A24.0046,24.0046,0,0,0,504.97121,7.02851Z"/></svg>