<svg xmlns="http://www.w3.org/2000/svg" viewBox="0 0 576 512"><!-- Font Awesome Pro 5.15.4 by @fontawesome - https://fontawesome.com License - https://fontawesome.com/license (Commercial License) --><path d="M288 32C128.94 32 0 160.94 0 320c0 52.8 14.25 102.26 39.06 144.8 5.61 9.62 16.3 15.2 27.44 15.2h443c11.14 0 21.83-5.58 27.44-15.2C561.75 422.26 576 372.8 576 320c0-159.06-128.94-288-288-288zm0 64c17.67 0 32 14.33 32 32s-14.33 32-32 32-32-14.33-32-32 14.33-32 32-32zm-144 64c17.67 0 32 14.33 32 32s-14.33 32-32 32-32-14.33-32-32 14.33-32 32-32zm199.12 256H232.88c-3.21-5.52-5.39-11.63-6.9-18.01L92.05 375.67c-13.06-2.17-21.91-14.55-19.72-27.62 2.17-13.08 14.53-21.89 27.62-19.72l133.68 22.28C244.9 332.31 264.94 320 288 320c35.35 0 64 28.65 64 64 0 11.72-3.38 22.55-8.88 32zM400 192c0-17.67 14.33-32 32-32s32 14.33 32 32-14.33 32-32 32-32-14.33-32-32zm80 192c-17.67 0-32-14.33-32-32s14.33-32 32-32 32 14.33 32 32-14.33 32-32 32z"/></svg>