<svg xmlns="http://www.w3.org/2000/svg" viewBox="0 0 576 512"><!-- Font Awesome Pro 5.15.4 by @fontawesome - https://fontawesome.com License - https://fontawesome.com/license (Commercial License) --><path d="M288 32C128.94 32 0 160.94 0 320c0 52.8 14.25 102.26 39.06 144.8 5.61 9.62 16.3 15.2 27.44 15.2h443c11.14 0 21.83-5.58 27.44-15.2C561.75 422.26 576 372.8 576 320c0-159.06-128.94-288-288-288zm55.12 384H232.88c-5.5-9.45-8.88-20.28-8.88-32 0-26.85 16.56-49.75 40-59.25V128c0-13.25 10.75-24 24-24s24 10.75 24 24v196.75c23.44 9.5 40 32.41 40 59.25 0 11.72-3.38 22.55-8.88 32z"/></svg>