<svg xmlns="http://www.w3.org/2000/svg" viewBox="0 0 576 512"><!-- Font Awesome Pro 5.15.4 by @fontawesome - https://fontawesome.com License - https://fontawesome.com/license (Commercial License) --><path d="M288 32C128.94 32 0 160.94 0 320c0 52.8 14.25 102.26 39.06 144.8 5.61 9.62 16.3 15.2 27.44 15.2h443c11.14 0 21.83-5.58 27.44-15.2C561.75 422.26 576 372.8 576 320c0-159.06-128.94-288-288-288zm195.95 343.67l-133.93 22.32c-1.51 6.37-3.69 12.48-6.9 18.01H232.88c-5.5-9.45-8.88-20.28-8.88-32 0-35.35 28.65-64 64-64 23.06 0 43.1 12.31 54.37 30.61l133.68-22.28c13.09-2.17 25.45 6.64 27.62 19.72 2.19 13.07-6.65 25.45-19.72 27.62z"/></svg>