<svg xmlns="http://www.w3.org/2000/svg" viewBox="0 0 512 512"><!-- Font Awesome Pro 5.15.4 by @fontawesome - https://fontawesome.com License - https://fontawesome.com/license (Commercial License) --><path d="M256 192C125.82 192 18.14 299.4.32 439.08-2.43 460.66 13 480 32.56 480h446.88c19.56 0 35-19.34 32.24-40.92C493.86 299.4 386.18 192 256 192zM112 416a16 16 0 1 1 16-16 16 16 0 0 1-16 16zm64-64a16 16 0 1 1 16-16 16 16 0 0 1-16 16zM7.33 279.48a129 129 0 0 1 4.53 28.14C64 218.51 154.91 160 256 160s192 58.52 244.14 147.64a128.36 128.36 0 0 1 4.53-28.09c0-.09.05-.18.08-.26 5.14-17.32 11-36.94 4.16-55-7.15-19.06-24.76-29.36-40.31-38.46-9.49-5.54-19.32-11.29-23.71-17.53-4.74-6.69-7.33-18.51-9.83-30-3.95-18.08-8.44-38.58-23.64-50.64-15.69-12.45-36-11-54-9.81-10.79.76-22 1.5-29.18-1.1-6.93-2.51-15.12-10.14-23-17.51-29.05-27.07-50.66-44.51-98.38-.05-7.92 7.37-16.11 15-23 17.51-7.22 2.6-18.39 1.86-29.18 1.1-18-1.24-38.32-2.64-54 9.81-15.2 12.06-19.69 32.56-23.64 50.64-2.5 11.46-5.09 23.28-9.83 30-4.39 6.24-14.22 12-23.71 17.53-15.55 9.1-33.16 19.39-40.31 38.46-6.81 18.08-1 37.7 4.16 55-.07.07-.05.16-.02.24z"/></svg>