<svg xmlns="http://www.w3.org/2000/svg" viewBox="0 0 448 512"><!-- Font Awesome Pro 5.15.4 by @fontawesome - https://fontawesome.com License - https://fontawesome.com/license (Commercial License) --><path d="M318 139.44h-34.9l17.48 29.19zm-34.86 105.12h34.91l-17.47-29.17zm-59.09 52.07l16.78-28.07h-33.58zM130 244.56h34.9l-17.48-29.19zm34.89-105.12H130l17.47 29.17zM352 0H25.6C9.6 0 0 9.6 0 25.6v332.8q0 14.4 9.6 19.2c3.2 12.8 3.2 57.6 0 73.6Q0 460.8 0 470.4v16c0 16 12.8 25.6 25.6 25.6H352c54.4 0 96-41.6 96-96V96c0-54.4-41.6-96-96-96zM105.41 125.59a20.11 20.11 0 0 1 17.5-10.15h56.3L206.8 69.3a20 20 0 0 1 17.25-9.82 19.66 19.66 0 0 1 17 9.68l27.7 46.28h56.36a20 20 0 0 1 17.14 30.29L314.57 192l27.79 46.43a19.6 19.6 0 0 1 .23 20 20.11 20.11 0 0 1-17.5 10.15h-56.3L241.2 314.7a20 20 0 0 1-17.2 9.82 19.66 19.66 0 0 1-17-9.68l-27.7-46.28h-56.39a20 20 0 0 1-17.14-30.29L133.43 192l-27.79-46.43a19.6 19.6 0 0 1-.23-19.98zM352 448H67.2v-64H352c16 0 32 12.8 32 32s-12.8 32-32 32zM224 87.38l-16.78 28.06h33.58zm-31.12 157.18h62.3L286.59 192l-31.47-52.58h-62.3L161.41 192z"/></svg>