<svg xmlns="http://www.w3.org/2000/svg" viewBox="0 0 640 512"><!-- Font Awesome Pro 5.15.4 by @fontawesome - https://fontawesome.com License - https://fontawesome.com/license (Commercial License) --><path d="M380.41991,92.1336,74.29894,241.7427c-8.31835,4.06444-12.27733,13.25583-9.05663,21.02925l8.74413,21.10934L9.881,310.43593a16.00146,16.00146,0,0,0-8.66015,20.90425L21.27748,379.762a16.00055,16.00055,0,0,0,20.90429,8.66014l64.10544-26.55464,8.74219,21.10738c3.21874,7.77343,12.51757,11.47459,21.27147,8.46678l127.0019-43.623c.1875.24219.39258.46875.584.709L216.42,490.93949A16.00034,16.00034,0,0,0,231.5977,512H248.459a15.99985,15.99985,0,0,0,15.17772-10.94139l42.16209-126.49585a71.088,71.088,0,0,0,28.44726,0l42.164,126.49585A15.99986,15.99986,0,0,0,391.58787,512h16.85937a16.00062,16.00062,0,0,0,15.17968-21.06051L376.16014,348.52765a71.2877,71.2877,0,0,0,15.85742-44.52726c0-.13086-.03906-.25-.03906-.38086l66.56637-22.86519ZM320,328.00035a24,24,0,1,1,24-24A24.02622,24.02622,0,0,1,320,328.00035ZM638.77722,216.83064,553.06241,9.88181a15.99768,15.99768,0,0,0-20.90233-8.66014L414.84372,49.81923a15.99966,15.99966,0,0,0-8.65625,20.90426l85.71286,206.94883a16.00055,16.00055,0,0,0,20.90429,8.66014L630.119,237.73489A15.99729,15.99729,0,0,0,638.77722,216.83064Z"/></svg>