<svg xmlns="http://www.w3.org/2000/svg" viewBox="0 0 576 512"><!-- Font Awesome Pro 5.15.4 by @fontawesome - https://fontawesome.com License - https://fontawesome.com/license (Commercial License) --><path d="M544 278.5V112C544 50.1 493.9 0 432 0S320 50.1 320 112v166.5c-19.7 24.6-32 55.5-32 89.5 0 79.5 64.5 144 144 144s144-64.5 144-144c0-34-12.3-64.9-32-89.5zM432 448c-44.1 0-80-35.9-80-80 0-25.5 12.2-48.9 32-63.8V112c0-26.5 21.5-48 48-48s48 21.5 48 48v192.2c19.8 14.8 32 38.3 32 63.8 0 44.1-35.9 80-80 80zM268.3 305.4c5.1-13 11.4-25.7 19.7-37.5v-7.2L224.6 224l63.4-36.6v-56.1l-88 50.8v-56.9L240.2 85c4.7-4.7 4.7-12.3 0-17l-8.5-8.5c-4.7-4.7-12.3-4.7-17 0L200 74.3V44c0-6.6-5.4-12-12-12h-24c-6.6 0-12 5.4-12 12v30.3l-14.8-14.8c-4.7-4.7-12.3-4.7-17 0l-8.5 8.5c-4.7 4.7-4.7 12.3 0 17l40.2 40.2v56.9L101.6 153l-15-55.7c-1.7-6.5-8.4-10.3-14.9-8.6L60 91.9c-6.5 1.7-10.3 8.4-8.6 14.9l5.5 20.4-26.6-15.3c-5.8-3.4-13.2-1.4-16.6 4.4l-12.1 21c-3.4 5.8-1.4 13.2 4.4 16.6l26.6 15.3-20.4 5.5c-6.5 1.7-10.3 8.4-8.6 14.9l3.1 11.7c1.7 6.5 8.4 10.3 14.9 8.6L77.3 195l50.2 29-50.2 29-55.7-15c-6.5-1.7-13.1 2.1-14.9 8.6l-3.1 11.7c-1.7 6.5 2.1 13.1 8.6 14.9l20.4 5.5-26.5 15.4c-5.8 3.4-7.8 10.8-4.4 16.6l12.1 21c3.4 5.8 10.8 7.8 16.6 4.4L57 320.8l-5.5 20.4c-1.7 6.5 2.1 13.1 8.6 14.9l11.7 3.1c6.5 1.7 13.1-2.1 14.9-8.6l14.9-55.6 50.4-29.1v56.9L111.8 363c-4.7 4.7-4.7 12.3 0 17l8.5 8.5c4.7 4.7 12.3 4.7 17 0l14.8-14.8V404c0 6.6 5.4 12 12 12h24c6.6 0 12-5.4 12-12v-30.3l14.8 14.8c4.7 4.7 12.3 4.7 17 0l8.5-8.5c4.7-4.7 4.7-12.3 0-17L200 322.8v-56.9l68.3 39.5zM448 322.9V304c0-8.8-7.2-16-16-16s-16 7.2-16 16v18.9c-18.6 6.6-32 24.2-32 45.1 0 26.5 21.5 48 48 48s48-21.5 48-48c0-20.9-13.4-38.5-32-45.1z"/></svg>