<svg xmlns="http://www.w3.org/2000/svg" viewBox="0 0 576 512"><!-- Font Awesome Pro 5.15.4 by @fontawesome - https://fontawesome.com License - https://fontawesome.com/license (Commercial License) --><path d="M567.9 223.8c-70.4 13.3-135-40.3-135-110.8 0-40.6 21.9-78 57.5-98.1 5.5-3.1 4.1-11.4-2.1-12.5C479.6.8 470.7 0 461.8 0c-77.9 0-141.1 61.2-144.4 137.9 26.7 11.9 48.2 33.8 58.9 61.7 37.1 14.3 64 47.4 70.2 86.8 5.1.5 10 1.5 15.2 1.5 44.7 0 85.6-20.2 112.6-53.3 4.2-4.8-.2-12-6.4-10.8zM276 336h-57.7l17.3-64.9c2-7.6-3.7-15.1-11.6-15.1h-68c-6 0-11.1 4.5-11.9 10.4l-16 120c-1 7.2 4.6 13.6 11.9 13.6h59.3l-23 97.2c-1.8 7.6 4 14.8 11.7 14.8 4.2 0 8.2-2.2 10.4-6l88-152c4.6-8-1.2-18-10.4-18zm74.5-110.5c-6.9-37.2-39.3-65.5-78.5-65.5-12.3 0-23.9 3-34.3 8-17.4-24.1-45.6-40-77.7-40-53 0-96 43-96 96 0 .5.2 1.1.2 1.6C27.6 232.9 0 265.2 0 304c0 44.2 35.8 80 80 80h16.3c.1-.6 0-1.2 0-1.8l16-120c3-21.8 21.7-38.2 43.7-38.2h68c13.8 0 26.5 6.3 34.9 17.2 8.4 10.9 11.2 24.8 7.6 38.1l-6.6 24.7h16c15.7 0 30.3 8.4 38.1 22 7.8 13.6 7.8 30.5 0 44l-8.1 14h30c44.2 0 80-35.8 80-80 .1-39.2-28.1-71.7-65.4-78.5z"/></svg>