<svg xmlns="http://www.w3.org/2000/svg" viewBox="0 0 512 512"><!-- Font Awesome Pro 5.15.4 by @fontawesome - https://fontawesome.com License - https://fontawesome.com/license (Commercial License) --><path d="M337 288h-72.1l22.6-77.1c2.5-9.5-4.6-18.9-14.5-18.9h-82c-7.5 0-13.9 5.6-14.9 13l-16 130c-1.2 9 5.8 17 14.9 17h81l-31.6 141.5c-2.2 9.5 5 18.5 14.6 18.5 5.2 0 10.2-2.7 13-7.5l98-194c5.7-10-1.5-22.5-13-22.5zm79-160c-.6 0-1.1.2-1.6.2 1.1-5.2 1.6-10.6 1.6-16.2 0-44.2-35.8-80-80-80-24.6 0-46.3 11.3-61 28.8C256.4 24.8 219.3 0 176 0 114.1 0 64 50.1 64 112c0 7.3.8 14.3 2.1 21.2C27.8 145.8 0 181.5 0 224c0 53 43 96 96 96h32.5l15.9-119.2c3.1-23.3 23.1-40.8 46.6-40.8h85c14.7 0 28.3 6.7 37.3 18.4s11.9 26.5 8.1 40.7L310.5 260H341c16.7 0 32.3 9 40.7 23.5 6.4 11.2 7.8 24.4 4.3 36.5h30c53 0 96-43 96-96s-43-96-96-96z"/></svg>