<svg xmlns="http://www.w3.org/2000/svg" viewBox="0 0 512 512"><!-- Font Awesome Pro 5.15.4 by @fontawesome - https://fontawesome.com License - https://fontawesome.com/license (Commercial License) --><path d="M256 160c-26.51 0-51.14 7.06-73.15 18.48l47.93 65.97c7.97-2.66 16.35-4.45 25.22-4.45s17.25 1.79 25.22 4.45l47.93-65.97C307.14 167.06 282.51 160 256 160zM96 320c0 8.87 1.22 17.42 2.61 25.89l77.46-25.17c0-.25-.07-.48-.07-.73 0-17.82 6.03-34.12 15.88-47.41l-48.23-66.38C114.27 235.22 96 275.45 96 320zm224.12-47.41C329.97 285.88 336 302.18 336 320c0 .25-.07.48-.07.73l77.46 25.17c1.39-8.48 2.61-17.02 2.61-25.89 0-44.55-18.27-84.78-47.65-113.79l-48.23 66.37zM256 288c-17.67 0-32 14.33-32 32s14.33 32 32 32 32-14.33 32-32-14.33-32-32-32zm224 160h-2.61C499.3 410.36 512 366.71 512 320c0-141.38-114.62-256-256-256S0 178.62 0 320c0 46.71 12.7 90.36 34.61 128H32c-17.67 0-32 14.33-32 32s14.33 32 32 32h448c17.67 0 32-14.33 32-32s-14.33-32-32-32zm-81.3 0h-47.79a160.175 160.175 0 0 0 47.51-56.49L321 366.36c-9.96 13.94-24.31 24.29-41 29.57V448h-48v-52.07c-16.69-5.28-31.04-15.64-41-29.57l-77.42 25.15A160.175 160.175 0 0 0 161.09 448H113.3C82.76 413.99 64 369.2 64 320c0-105.87 86.13-192 192-192s192 86.13 192 192c0 49.2-18.76 93.99-49.3 128z"/></svg>