<svg xmlns="http://www.w3.org/2000/svg" viewBox="0 0 512 512"><!-- Font Awesome Pro 5.15.4 by @fontawesome - https://fontawesome.com License - https://fontawesome.com/license (Commercial License) --><path d="M384.00049,448H327.999V238.7793l31.42272,37.70508a31.99572,31.99572,0,0,0,49.15756-40.96876l-70.39251-84.48437A63.843,63.843,0,0,0,289.01358,128h-66.033A63.7877,63.7877,0,0,0,173.823,151.03125l-70.40813,84.48437a31.99572,31.99572,0,0,0,49.15756,40.96876l31.42272-37.70508V448h-56.0015A31.99951,31.99951,0,0,0,95.9928,480v32H416.00134V480A31.99951,31.99951,0,0,0,384.00049,448Zm-120.00321,0H247.99686V320h16.00042ZM255.958,96l.01953-.00195L255.99707,96a48,48,0,1,0,0-96l-.01953.002L255.958,0a48,48,0,1,0,0,96ZM509.789,44.43164,480.005,32.01172,467.58475,2.22656a3.99471,3.99471,0,0,0-7.15644,0L448.00806,32.01172l-29.784,12.41992a3.99921,3.99921,0,0,0,0,7.1543l29.784,12.41992L460.42831,93.791a3.99628,3.99628,0,0,0,7.15644,0L480.005,64.00586l29.784-12.41992a3.99921,3.99921,0,0,0,0-7.1543ZM63.99194,96,51.57169,66.21484a3.99313,3.99313,0,0,0-7.15449,0L31.997,96,2.211,108.41992a3.99921,3.99921,0,0,0,0,7.1543l29.786,12.41992L44.4172,157.7793a3.9947,3.9947,0,0,0,7.15449,0l12.42025-29.78516,29.786-12.41992a4.00079,4.00079,0,0,0,0-7.1543Z"/></svg>