<svg xmlns="http://www.w3.org/2000/svg" viewBox="0 0 512 512"><!-- Font Awesome Pro 5.15.4 by @fontawesome - https://fontawesome.com License - https://fontawesome.com/license (Commercial License) --><path d="M328.00024,320h-64.002v32h64.002Zm-64.002,96h64.002V384h-64.002ZM255.959,96l.01953-.00195L255.99805,96a48,48,0,1,0,0-96l-.01954.002L255.959,0a48,48,0,1,0,0,96Zm72.04126,160H183.99585v32H328.00024Zm31.42284,20.48438a31.98515,31.98515,0,0,0,45.06387,4.09374A31.45531,31.45531,0,0,0,415.57323,256h-73.221Zm-21.235-125.45313A63.84341,63.84341,0,0,0,289.01468,128H222.98141a63.78806,63.78806,0,0,0-49.15775,23.03125L113.01321,224H398.98679ZM384.002,448H127.99414a31.99957,31.99957,0,0,0-32.001,32v32H416.00293V480A31.99957,31.99957,0,0,0,384.002,448ZM247.9978,320h-64.002v32h64.002ZM152.573,276.48438,169.64385,256h-73.221a31.45534,31.45534,0,0,0,11.08628,24.57812A32.00632,32.00632,0,0,0,152.573,276.48438ZM183.99585,416h64.002V384h-64.002ZM509.791,140.416l-29.78607-12.41993-12.4203-29.7832a3.99315,3.99315,0,0,0-7.15451,0l-12.4203,29.7832L418.2237,140.416a4.00079,4.00079,0,0,0,0,7.15625l29.78607,12.41992,12.4203,29.7832a3.99315,3.99315,0,0,0,7.15451,0l12.4203-29.7832L509.791,147.57227a4.00237,4.00237,0,0,0,0-7.15625ZM63.99023,32.002,51.56993,2.21875a3.99315,3.99315,0,0,0-7.15451,0L31.99512,32.002,2.20905,44.42188a4.00078,4.00078,0,0,0,0,7.15429L31.99512,63.99609l12.4203,29.78516a3.99315,3.99315,0,0,0,7.15451,0l12.4203-29.78516L93.7763,51.57617a3.99921,3.99921,0,0,0,0-7.15429Z"/></svg>