<svg xmlns="http://www.w3.org/2000/svg" viewBox="0 0 512 512"><!-- Font Awesome Pro 5.15.4 by @fontawesome - https://fontawesome.com License - https://fontawesome.com/license (Commercial License) --><path d="M263.99728,416H327.999V384H263.99728ZM152.57243,276.48438l31.42272-37.70508V352h64.00171V320h16.00042v32H327.999V238.7793l31.42272,37.70508a31.99572,31.99572,0,0,0,49.15756-40.96876l-70.39251-84.48437A63.843,63.843,0,0,0,289.01358,128h-66.033A63.7877,63.7877,0,0,0,173.823,151.03125l-70.40813,84.48437a31.99572,31.99572,0,0,0,49.15756,40.96876ZM255.958,96l.01953-.00195L255.99707,96a48,48,0,1,0,0-96l-.01953.002L255.958,0a48,48,0,1,0,0,96ZM183.99515,416h64.00171V384H183.99515ZM509.789,364.41992,480.005,352l-12.42026-29.78516a3.99471,3.99471,0,0,0-7.15644,0L448.00806,352l-29.784,12.41992a3.99921,3.99921,0,0,0,0,7.1543l29.784,12.41992,12.42025,29.78516a3.99628,3.99628,0,0,0,7.15644,0L480.005,383.99414l29.784-12.41992a3.99921,3.99921,0,0,0,0-7.1543ZM63.99194,128.002,51.57169,98.21875a3.99313,3.99313,0,0,0-7.15449,0L31.997,128.002,2.211,140.42188a4.00078,4.00078,0,0,0,0,7.15624l29.786,12.41993,12.42025,29.7832a3.99313,3.99313,0,0,0,7.15449,0l12.42025-29.7832,29.786-12.41993a4.00236,4.00236,0,0,0,0-7.15624ZM384.00049,448H127.99365A31.99951,31.99951,0,0,0,95.9928,480v32H416.00134V480A31.99951,31.99951,0,0,0,384.00049,448Z"/></svg>