<svg xmlns="http://www.w3.org/2000/svg" viewBox="0 0 512 512"><!-- Font Awesome Pro 5.15.4 by @fontawesome - https://fontawesome.com License - https://fontawesome.com/license (Commercial License) --><path d="M372.32386,192H139.68l-26.66683,32H398.98679ZM263.99829,416h64.002V384h-64.002Zm64.002-96h-64.002v32h64.002Zm31.42284-43.51562a31.98515,31.98515,0,0,0,45.06387,4.09374A31.45531,31.45531,0,0,0,415.57323,256h-73.221ZM255.99805,0l-.01954.002L255.959,0a47.95186,47.95186,0,0,0-45.0502,32h90.13947A47.95186,47.95186,0,0,0,255.99805,0ZM255.959,96l.01953-.00195L255.99805,96a47.87741,47.87741,0,0,0,45.06-32H210.899A47.87741,47.87741,0,0,0,255.959,96Zm82.22908,55.03125A63.84341,63.84341,0,0,0,289.01468,128H222.98141a63.78806,63.78806,0,0,0-49.15775,23.03125L166.34883,160H345.66094ZM247.9978,320h-64.002v32h64.002ZM152.573,276.48438,169.64385,256h-73.221a31.45534,31.45534,0,0,0,11.08628,24.57812A32.00632,32.00632,0,0,0,152.573,276.48438ZM384.002,448H127.99414a31.99957,31.99957,0,0,0-32.001,32v32H416.00293V480A31.99957,31.99957,0,0,0,384.002,448ZM328.00024,256H183.99585v32H328.00024ZM183.99585,416h64.002V384h-64.002ZM509.791,44.43164,480.00488,32.01172,467.58458,2.22656a3.99315,3.99315,0,0,0-7.15451,0l-12.4203,29.78516L418.2237,44.43164a3.99921,3.99921,0,0,0,0,7.1543l29.78607,12.41992L460.43007,93.791a3.99472,3.99472,0,0,0,7.15451,0l12.4203-29.78516L509.791,51.58594a4.00079,4.00079,0,0,0,0-7.1543ZM63.99023,352.00391,51.56993,322.2207a3.99315,3.99315,0,0,0-7.15451,0l-12.4203,29.78321L2.20905,364.42383a4.00237,4.00237,0,0,0,0,7.15625L31.99512,384l12.4203,29.7832a3.99315,3.99315,0,0,0,7.15451,0L63.99023,384,93.7763,371.58008a4.00079,4.00079,0,0,0,0-7.15625Z"/></svg>