<svg xmlns="http://www.w3.org/2000/svg" viewBox="0 0 448 512"><!-- Font Awesome Pro 5.15.4 by @fontawesome - https://fontawesome.com License - https://fontawesome.com/license (Commercial License) --><path d="M432 32H312l-9.4-18.7A24 24 0 0 0 281.1 0H166.8a23.72 23.72 0 0 0-21.4 13.3L136 32H16A16 16 0 0 0 0 48v32a16 16 0 0 0 16 16h416a16 16 0 0 0 16-16V48a16 16 0 0 0-16-16zM32 464a48 48 0 0 0 48 48h288a48 48 0 0 0 48-48V128H32zm68.38-186.47l84-81.59c8.84-8.59 23.61-2.24 23.61 10.47v41.67c82.47.8 144 18.36 144 103.92 0 34.29-20.14 68.26-42.41 86-6.95 5.54-16.85-1.41-14.29-10.4 23.08-80.93-6.55-101.74-87.3-102.72v44.69c0 12.69-14.76 19.07-23.61 10.47l-84-81.59a14.7 14.7 0 0 1 0-20.92z"/></svg>