<svg xmlns="http://www.w3.org/2000/svg" viewBox="0 0 576 512"><!-- Font Awesome Pro 5.15.4 by @fontawesome - https://fontawesome.com License - https://fontawesome.com/license (Commercial License) --><path d="M0 448c0 17.67 14.33 32 32 32h64V288H0v160zm0-320v128h96V32C42.98 32 0 74.98 0 128zm352 208c0 8.84-7.16 16-16 16h-96c-8.84 0-16-7.16-16-16v-48h-96v192h320V288h-96v48zm128 144h64c17.67 0 32-14.33 32-32V288h-96v192zM128 256h96v-48c0-8.84 7.16-16 16-16h96c8.84 0 16 7.16 16 16v48h96V32H128v224zM480 32v224h96V128c0-53.02-42.98-96-96-96zM304 304v-64c0-8.84-7.16-16-16-16s-16 7.16-16 16v64c0 8.84 7.16 16 16 16s16-7.16 16-16z"/></svg>