<svg xmlns="http://www.w3.org/2000/svg" viewBox="0 0 512 512"><!-- Font Awesome Pro 5.15.4 by @fontawesome - https://fontawesome.com License - https://fontawesome.com/license (Commercial License) --><path d="M496 235c-10.67-16-25-27.67-43-35h1c8.67-16 11.83-32.5 9.5-49.5s-9.17-31.67-20.5-44S417.83 86 401.5 82s-32.83-2.33-49.5 5c-2.67-24.67-13.17-45.33-31.5-62S280.67 0 256 0s-46.17 8.33-64.5 25-28.83 37.33-31.5 62c-16.67-7.33-33.17-9-49.5-5S80.33 94.17 69 106.5s-18.17 27-20.5 44S49.67 184 59 200c-18 7.33-32.33 19-43 35S0 268.67 0 288c0 26.67 9.33 49.33 28 68s41.33 28 68 28h128v56.45l-30.29 48.4c-5.32 10.64 2.42 23.16 14.31 23.16h95.96c11.89 0 19.63-12.52 14.31-23.16L288 440.45V384h128c26.67 0 49.33-9.33 68-28s28-41.33 28-68c0-19.33-5.33-37-16-53z"/></svg>