<svg xmlns="http://www.w3.org/2000/svg" viewBox="0 0 640 512"><!-- Font Awesome Pro 5.15.4 by @fontawesome - https://fontawesome.com License - https://fontawesome.com/license (Commercial License) --><path d="M24.1 400L320 320.7v-122c-8.3-4-18-5.6-27.6-3.1-21.3 5.7-34 27.7-28.3 49l6.2 23.2-185.4 49.7-6.2-23.2C73 273 51 260.3 29.7 266c-21.3 5.7-34 27.7-28.3 49l22.7 85zm-2.7-164.9c39.6-10.6 73.7 13.4 85.5 43.4L232 245c-5.4-35.7 16.5-70.7 52.2-80.2 2.6-.7 5.3-.7 8-1.1-9.9-36.9-45.9-55.1-78.7-46.3L58.9 158.8c-32.8 8.8-54.8 42.6-45.1 79.1 2.5-1 5-2.1 7.6-2.8zM384 0c-17.7 0-32 14.3-32 32v323.6L5.9 450c-4.3 1.2-6.8 5.6-5.6 9.8l12.6 46.3c1.2 4.3 5.6 6.8 9.8 5.6l393.7-107.4C418.8 464.1 467.6 512 528 512c61.9 0 112-50.1 112-112V0H384zm144 448c-26.5 0-48-21.5-48-48s21.5-48 48-48 48 21.5 48 48-21.5 48-48 48z"/></svg>