<svg xmlns="http://www.w3.org/2000/svg" viewBox="0 0 640 512"><!-- Font Awesome Pro 5.15.4 by @fontawesome - https://fontawesome.com License - https://fontawesome.com/license (Commercial License) --><path d="M598.6 393.4c-14.5-14.5-22.6-34.1-22.6-54.6V237.2c0-20.5 8.1-40.1 22.6-54.6l36.7-36.7c6.2-6.2 6.2-16.4 0-22.6l-22.6-22.6c-6.2-6.2-16.4-6.2-22.6 0l-36.7 36.7c-26.5 26.5-41.4 62.4-41.4 99.9V288h-32v-64c0-17.7-14.3-32-32-32h-45.9l-82-136.7C311.5 40.9 295.7 32 278.9 32H168c-22.1 0-40 17.9-40 40v120H32c-17.7 0-32 14.3-32 32v96c0 17.7 14.3 32 32 32h5.9c-3.6 10.1-5.9 20.7-5.9 32 0 53 43 96 96 96s96-43 96-96c0-11.3-2.3-21.9-5.9-32h75.8c-3.6 10.1-5.9 20.7-5.9 32 0 53 43 96 96 96s96-43 96-96c0-11.3-2.3-21.9-5.9-32h39.2c3.1 32.6 16.7 63.3 40.1 86.6l36.7 36.7c6.2 6.2 16.4 6.2 22.6 0l22.6-22.6c6.2-6.2 6.2-16.4 0-22.6l-36.7-36.7zM192 96h77.9l57.6 96H192V96zm-32 288c0 17.6-14.4 32-32 32s-32-14.4-32-32 14.4-32 32-32 32 14.4 32 32zm224 32c-17.6 0-32-14.4-32-32s14.4-32 32-32 32 14.4 32 32-14.4 32-32 32z"/></svg>