<svg xmlns="http://www.w3.org/2000/svg" viewBox="0 0 640 512"><!-- Font Awesome Pro 5.15.4 by @fontawesome - https://fontawesome.com License - https://fontawesome.com/license (Commercial License) --><path d="M624 64a16.27 16.27 0 0 0-13 6.67 555.44 555.44 0 0 1-66.19 71.68c-15.38 13-32.93 25.66-52.54 36-5.55 2.94-25.75 13.6-60 13.63H400V160a16 16 0 0 0-16-16h-16a16 16 0 0 0-16 16v32h-40v-32a16 16 0 0 0-16-16h-16a16 16 0 0 0-16 16v32h-40v-32a16 16 0 0 0-16-16h-16a16 16 0 0 0-16 16v32H48a16 16 0 0 0-16-16H16a16 16 0 0 0-16 16v64a16 16 0 0 0 16 16h16a16 16 0 0 0 16-16h33.81C70.78 274.9 64 296.58 64 320a128.14 128.14 0 0 0 128 128h224a96.1 96.1 0 0 0 96-96v-31.43a251.78 251.78 0 0 0-34.67-22.65c-8.63-4.55-18.76-7-29.33-8.41V352a32 32 0 0 1-32 32h-16V256h32c34.48 0 54.66 10.66 60.27 13.62a294.39 294.39 0 0 1 49.17 33.28c39.49 34.65 69.09 73.78 69.25 74A16 16 0 0 0 624 384c12.09 0 16-10.94 16-16V80c0-12-10.81-16-16-16zM176 381.73a63.69 63.69 0 0 1 0-123.46zm88 2.27h-40V256h40zm88 0h-40V256h40z"/></svg>