<svg xmlns="http://www.w3.org/2000/svg" viewBox="0 0 576 512"><!-- Font Awesome Pro 5.15.4 by @fontawesome - https://fontawesome.com License - https://fontawesome.com/license (Commercial License) --><path d="M224 224a32 32 0 1 0 32 32 32 32 0 0 0-32-32zM512 32H64A64 64 0 0 0 0 96v320a64 64 0 0 0 64 64h448a64 64 0 0 0 64-64V96a64 64 0 0 0-64-64zM224 416a160 160 0 1 1 160-160 160 160 0 0 1-160 160zm288-148.18a64 64 0 0 1-6.76 28.63l-18.93 37.86a16 16 0 0 1 7.16 21.46l-25.69 51.38a16 16 0 0 1-21.47 7.16L417.69 400a16 16 0 0 1-7.16-21.46l25.69-51.38a16 16 0 0 1 21.47-7.16l18.93-37.87a32 32 0 0 0 3.38-14.32V104a8 8 0 0 1 8-8h16a8 8 0 0 1 8 8z"/></svg>