<svg xmlns="http://www.w3.org/2000/svg" viewBox="0 0 512 512"><!-- Font Awesome Pro 5.15.4 by @fontawesome - https://fontawesome.com License - https://fontawesome.com/license (Commercial License) --><path d="M464 96H338.8l35.7-41.4c12.5-12.5 12.5-32.8 0-45.3s-32.8-12.5-45.3 0L256 94.2 182.8 9.4c-12.5-12.5-32.8-12.5-45.3 0s-12.5 32.8 0 45.3L173.2 96H48c-26.5 0-48 21.5-48 48v288c0 26.5 21.5 48 48 48h16v32h48l21.3-32h245.3l21.3 32h48v-32h16c26.5 0 48-21.5 48-48V144c.1-26.5-21.4-48-47.9-48zm-72 312s0 8-168 8c-152 0-152-8-152-8s-8 0-8-120 8-120 8-120 0-8 152-8c168 0 168 8 168 8s8 0 8 120-8 120-8 120zm72-100c0 6.6-5.4 12-12 12h-8c-6.6 0-12-5.4-12-12v-8c0-6.6 5.4-12 12-12h8c6.6 0 12 5.4 12 12v8zm0-64c0 6.6-5.4 12-12 12h-8c-6.6 0-12-5.4-12-12v-8c0-6.6 5.4-12 12-12h8c6.6 0 12 5.4 12 12v8z"/></svg>