<svg xmlns="http://www.w3.org/2000/svg" viewBox="0 0 640 512"><!-- Font Awesome Pro 5.15.4 by @fontawesome - https://fontawesome.com License - https://fontawesome.com/license (Commercial License) --><path d="M33.69355,481.68452A15.99666,15.99666,0,0,0,40.8477,503.1494l14.31611,7.15822a16.00213,16.00213,0,0,0,21.46635-7.15431L158.316,339.77409a15.87807,15.87807,0,0,0,1.57028-5.79493,454.17592,454.17592,0,0,1-45.60452-13.47659Zm492.02691-161.178A454.88192,454.88192,0,0,1,480.114,333.98111a15.86859,15.86859,0,0,0,1.57028,5.793l81.68581,163.37922a16.00157,16.00157,0,0,0,21.46635,7.15431l14.31611-7.15822a15.99835,15.99835,0,0,0,7.15415-21.46488ZM608,208.0004c0-40.89266-56.534-76.56069-140.68263-96.11151C449.22009,47.57626,390.38147,0,320.006,0S190.79185,47.57626,172.69457,111.88889C88.54593,131.43971,32.01194,167.10774,32.01194,208.0004c0,61.85559,128.93874,112.00022,287.994,112.00022S608,269.856,608,208.0004Zm-479.99,24a24.00005,24.00005,0,1,1,23.9995-24A24.001,24.001,0,0,1,128.01,232.00045Zm191.996,48.00009a24,24,0,1,1,23.9995-24A24.001,24.001,0,0,1,320.006,280.00054ZM424.20889,166.45735a224.72853,224.72853,0,0,1-104.20292,25.543,224.72856,224.72856,0,0,1-104.20292-25.543,102.694,102.694,0,0,1-1.3945-13.73049c0-57.84,47.27636-104.72677,105.59742-104.72677S425.60339,94.8869,425.60339,152.72686A102.694,102.694,0,0,1,424.20889,166.45735Zm87.7931,65.5431a24.00005,24.00005,0,1,1,23.9995-24A24.001,24.001,0,0,1,512.002,232.00045Z"/></svg>