<svg xmlns="http://www.w3.org/2000/svg" viewBox="0 0 640 512"><!-- Font Awesome Pro 5.15.4 by @fontawesome - https://fontawesome.com License - https://fontawesome.com/license (Commercial License) --><path d="M624 128H480v256h144a16 16 0 0 0 16-16V144a16 16 0 0 0-16-16zm-40 184a16 16 0 0 1-16 16h-16a16 16 0 0 1-16-16v-16a16 16 0 0 1 16-16h16a16 16 0 0 1 16 16zm0-96a16 16 0 0 1-16 16h-16a16 16 0 0 1-16-16v-16a16 16 0 0 1 16-16h16a16 16 0 0 1 16 16zM432 96H64a64 64 0 0 0-64 64v192a64 64 0 0 0 64 64h368a16 16 0 0 0 16-16V112a16 16 0 0 0-16-16z"/></svg>