<svg xmlns="http://www.w3.org/2000/svg" viewBox="0 0 448 512"><!-- Font Awesome Pro 5.15.4 by @fontawesome - https://fontawesome.com License - https://fontawesome.com/license (Commercial License) --><path d="M352 0l-64 32-64-32-64 32L96 0v96h256V0zm-38.4 304h-16.71c-22.24 10.18-46.88 16-72.89 16s-50.65-5.82-72.89-16H134.4C60.17 304 0 364.17 0 438.4V464c0 26.51 21.49 48 48 48h352c26.51 0 48-21.49 48-48v-25.6c0-74.23-60.17-134.4-134.4-134.4zM224 272c70.69 0 128-57.31 128-128v-16H96v16c0 70.69 57.31 128 128 128z"/></svg>