<svg xmlns="http://www.w3.org/2000/svg" viewBox="0 0 640 512"><!-- Font Awesome Pro 5.15.4 by @fontawesome - https://fontawesome.com License - https://fontawesome.com/license (Commercial License) --><path d="M104 424a24 24 0 1 0 24-24 24 24 0 0 0-24 24zm120-168A128 128 0 1 0 96 128a128 128 0 0 0 128 128zm96 32.65v49A80.13 80.13 0 0 1 384 416v40a16 16 0 0 1-12.86 15.69L339 478.14a8 8 0 0 1-9.41-6.27l-3.14-15.69a8 8 0 0 1 6.28-9.41l19.27-3.86V416a48.08 48.08 0 0 0-57.57-47c-22.79 4.42-38.43 25.75-38.43 49v25l19.29 3.86a8 8 0 0 1 6.28 9.41l-3.14 15.69a8 8 0 0 1-9.41 6.27l-31.17-4.24A16 16 0 0 1 224 458.05V416a80.13 80.13 0 0 1 64-78.38v-46.1a172 172 0 0 1-121.42 2.69A111.51 111.51 0 0 0 144 289v81.6a56 56 0 1 1-32 0v-80.34C48.49 301 0 355.84 0 422.4V464a48 48 0 0 0 48 48h352a48 48 0 0 0 48-48v-41.6c0-72.03-56.82-130.33-128-133.75zM512 0c-70.69 0-128 50.15-128 112 0 28.76 12.75 54.72 33.11 74.55a312.08 312.08 0 0 1-31.29 55.37 9.86 9.86 0 0 0-1.25 9.07c1.09 3.13 3.43 5 6.11 5 39.84 0 72.35-17.13 95.22-34.36A146 146 0 0 0 512 224c70.69 0 128-50.15 128-112S582.69 0 512 0z"/></svg>