<svg xmlns="http://www.w3.org/2000/svg" viewBox="0 0 448 512"><!-- Font Awesome Pro 5.15.4 by @fontawesome - https://fontawesome.com License - https://fontawesome.com/license (Commercial License) --><path d="M88 176h272a8 8 0 0 0 8-8v-32a8 8 0 0 0-8-8h-8a112 112 0 0 0-68.4-103.2L256 80V16a16 16 0 0 0-16-16h-32a16 16 0 0 0-16 16v64l-27.6-55.2A112 112 0 0 0 96 128h-8a8 8 0 0 0-8 8v32a8 8 0 0 0 8 8zm225.6 176h-16.7a174.08 174.08 0 0 1-145.8 0h-16.7A134.4 134.4 0 0 0 0 486.4 25.6 25.6 0 0 0 25.6 512h396.8a25.6 25.6 0 0 0 25.6-25.6A134.4 134.4 0 0 0 313.6 352zM224 320c65.22 0 118.44-48.94 126.39-112H97.61c7.95 63.06 61.17 112 126.39 112z"/></svg>