<svg xmlns="http://www.w3.org/2000/svg" viewBox="0 0 640 512"><!-- Font Awesome Pro 5.15.4 by @fontawesome - https://fontawesome.com License - https://fontawesome.com/license (Commercial License) --><path d="M224 257A128 128 0 1 0 96 129a128 128 0 0 0 128 128zm64 176c0-54.9 48.34-99.39 114.45-109.72C378.72 302.2 347.82 289 313.59 289h-16.68a174.12 174.12 0 0 1-145.82 0h-16.68A134.43 134.43 0 0 0 0 423.41V465a48 48 0 0 0 48 48h282.42C304.13 492.81 288 464.66 288 433zM598.94 98.33l-96.53 28.51a32 32 0 0 0-22.41 30.5V361a148.76 148.76 0 0 0-48-8c-61.86 0-112 35.82-112 80s50.14 80 112 80 112-35.82 112-80V245.15l73-21.39a32 32 0 0 0 23-30.71V129a32 32 0 0 0-41.06-30.67z"/></svg>