<svg xmlns="http://www.w3.org/2000/svg" viewBox="0 0 448 512"><!-- Font Awesome Pro 5.15.4 by @fontawesome - https://fontawesome.com License - https://fontawesome.com/license (Commercial License) --><path d="M438.47 97.8a18.2 18.2 0 0 0-21.92 5.2c-.43.57-44.81 61.59-192.55 61.59C77.12 164.57 32.4 104.21 31.46 103a18 18 0 0 0-21.79-5.37c-7.76 3.53-11.51 11.84-8.79 19.44.35 1 24.66 66 95.14 106.7v.23a128 128 0 0 0 256 0v-.22C422.47 183 446.77 118 447.13 117.07c2.69-7.54-1.03-15.69-8.66-19.27zM313.59 384H296.9a174.1 174.1 0 0 1-145.81 0H134.4A133.82 133.82 0 0 0 9.54 469.8c-7.88 20.39 8.53 42.2 30.4 42.2h368.11c21.87 0 38.28-21.81 30.4-42.2A133.82 133.82 0 0 0 313.59 384zm28.9-270.43C331.44 64.05 310.86 0 278.1 0c-10.33 0-19.55 4.45-27.3 10.47a42.42 42.42 0 0 1-52.08 0C191 4.45 181.75 0 171.42 0c-32.87 0-53.48 64.49-64.51 114.08C133 124 170.75 132.57 224 132.57c54.17 0 92.36-8.84 118.49-19z"/></svg>