<svg xmlns="http://www.w3.org/2000/svg" viewBox="0 0 640 512"><!-- Font Awesome Pro 5.15.4 by @fontawesome - https://fontawesome.com License - https://fontawesome.com/license (Commercial License) --><path d="M96 224c35.35 0 64-28.65 64-64s-28.65-64-64-64-64 28.65-64 64 28.65 64 64 64zm224 32c53.02 0 96-42.98 96-96v-16H224v16c0 53.02 42.98 96 96 96zm256 0h-64c-17.59 0-33.5 7.11-45.07 18.59 40.27 22.06 68.86 62.03 75.13 109.41H608c17.67 0 32-14.33 32-32v-32c0-35.35-28.65-64-64-64zm-402.93 18.59C161.5 263.11 145.59 256 128 256H64c-35.35 0-64 28.65-64 64v32c0 17.67 14.33 32 32 32h65.94c6.27-47.38 34.85-87.34 75.13-109.41zM544 224c35.35 0 64-28.65 64-64s-28.65-64-64-64-64 28.65-64 64 28.65 64 64 64zm-147.2 64h-8.31c-20.84 9.96-43.89 16-68.49 16s-47.64-6.04-68.49-16h-8.31C179.58 288 128 339.58 128 403.2V432c0 26.51 21.49 48 48 48h288c26.51 0 48-21.49 48-48v-28.8c0-63.62-51.58-115.2-115.2-115.2zM416 32l-48 24-48-24-48 24-48-24v80h192V32z"/></svg>