<svg xmlns="http://www.w3.org/2000/svg" viewBox="0 0 448 512"><!-- Font Awesome Pro 5.15.4 by @fontawesome - https://fontawesome.com License - https://fontawesome.com/license (Commercial License) --><path d="M352,384H317.61523c-19.65039,17.98828-39.01953,33.541-55.49023,45.84766a63.66049,63.66049,0,0,1-76.25.00195C169.4043,417.543,150.03516,401.98828,130.38477,384H96A95.99975,95.99975,0,0,0,0,480a32.00033,32.00033,0,0,0,32,32H416a32.00033,32.00033,0,0,0,32-32A95.99975,95.99975,0,0,0,352,384ZM205.0293,404.21484a31.66414,31.66414,0,0,0,37.9414,0C288.459,370.22266,400,277.51172,400,185.68359,400,70.31836,321.18164,0,224,0,126.791,0,48,70.31836,48,185.68359,48,277.51172,159.541,370.22266,205.0293,404.21484ZM240,252a60.00047,60.00047,0,0,1,60-60h24a12.0006,12.0006,0,0,1,12,12v8a60.00047,60.00047,0,0,1-60,60H252a12.0006,12.0006,0,0,1-12-12ZM112,212v-8a12.0006,12.0006,0,0,1,12-12h24a60.00047,60.00047,0,0,1,60,60v8a12.0006,12.0006,0,0,1-12,12H172A60.00047,60.00047,0,0,1,112,212Z"/></svg>