<svg xmlns="http://www.w3.org/2000/svg" viewBox="0 0 448 512"><!-- Font Awesome Pro 5.15.4 by @fontawesome - https://fontawesome.com License - https://fontawesome.com/license (Commercial License) --><path d="M105.05859,174.653C123.72266,222.237,169.79492,256.05336,224,256.05336S324.27734,222.237,342.94141,174.653C357.168,171.401,368,159.2643,368,144.05336v-64a31.99909,31.99909,0,0,0-32-32H323.18164C299.7168,19.00649,264.25.05336,224,.05336s-75.7168,18.95313-99.18164,48H112a31.99909,31.99909,0,0,0-32,32v64C80,159.2643,90.832,171.401,105.05859,174.653ZM128,96.05336H320v32H128Zm185.59375,192h-16.6875a174.10379,174.10379,0,0,1-145.8125,0h-16.6875A134.44134,134.44134,0,0,0,0,422.45961v41.59375a48.01238,48.01238,0,0,0,48,48H400a48.01238,48.01238,0,0,0,48-48V422.45961A134.44134,134.44134,0,0,0,313.59375,288.05336Zm39.6875,159.79688A4.06431,4.06431,0,0,1,352,448.05336a4.01558,4.01558,0,0,1-3.26562-1.6875c-12.1875-17.1875-17.625-23.04687-19.85938-25.03125a5.72835,5.72835,0,0,0-1.375.375c-3.29688,1-12.1875,5.48438-37.04688,24.8125a4.1133,4.1133,0,0,1-4.39062.34375,4.03445,4.03445,0,0,1-2.04688-3.92187c3.875-36.39063,15.875-66.5,35.70313-89.5a4.30685,4.30685,0,0,1,3.14063-1.39063,3.97907,3.97907,0,0,1,3.0625,1.5625c18.8125,24.59375,28.92187,54.96875,30.07812,90.3125A3.992,3.992,0,0,1,353.28125,447.85024Z"/></svg>