<svg xmlns="http://www.w3.org/2000/svg" viewBox="0 0 576 512"><!-- Font Awesome Pro 5.15.4 by @fontawesome - https://fontawesome.com License - https://fontawesome.com/license (Commercial License) --><path d="M336.2 64H47.8C21.4 64 0 85.4 0 111.8v288.4C0 426.6 21.4 448 47.8 448h288.4c26.4 0 47.8-21.4 47.8-47.8V111.8c0-26.4-21.4-47.8-47.8-47.8zM304 264c0 8.8-7.2 16-16 16h-72v72c0 8.8-7.2 16-16 16h-16c-8.8 0-16-7.2-16-16v-72H96c-8.8 0-16-7.2-16-16v-16c0-8.8 7.2-16 16-16h72v-72c0-8.8 7.2-16 16-16h16c8.8 0 16 7.2 16 16v72h72c8.8 0 16 7.2 16 16v16zm272-136.5v256.9c0 25.5-29.1 40.4-50.4 25.8L416 334.7V177.3l109.6-75.5c21.3-14.7 50.4.3 50.4 25.7z"/></svg>