<svg xmlns="http://www.w3.org/2000/svg" viewBox="0 0 640 512"><!-- Font Awesome Pro 5.15.4 by @fontawesome - https://fontawesome.com License - https://fontawesome.com/license (Commercial License) --><path d="M347.31 16L336 4.69a16 16 0 0 0-22.62 0L4.69 313.38a16 16 0 0 0 0 22.62L16 347.31a16 16 0 0 0 22.62 0L347.31 38.62a16 16 0 0 0 0-22.62zM520 48a24 24 0 1 0-24-24 24 24 0 0 0 24 24zM237.61 415.84l-13.45-13.45a16 16 0 0 0-20.19-2l-68.84 45.9a16 16 0 0 0-2.44 24.62l36.4 36.4a16 16 0 0 0 24.62-2.44l45.9-68.87a16 16 0 0 0-2-20.16zM472 96a24 24 0 1 0-24-24 24 24 0 0 0 24 24zm-14.23 131.48L635.31 49.94a16 16 0 0 0 0-22.63L612.69 4.69a16 16 0 0 0-22.63 0L412.52 182.23c-12.17-8.77-25.53-15.76-40.15-19.16-32.87-7.65-65.69-.93-88.56 21.05A79.09 79.09 0 0 1 288 208.4a79.78 79.78 0 0 1-123.28 67.08 89.85 89.85 0 0 0-7.16 6c-31.25 31.16-36.67 79.33-19.54 124.47l48.23-32.16a48 48 0 0 1 60.57 6l13.45 13.45a48.15 48.15 0 0 1 6 60.57L234.11 502c45.12 17.09 93.26 11.63 124.41-19.53a89.77 89.77 0 0 0 6.23-7.48A79.27 79.27 0 0 1 455.87 356c21.92-22.84 28.6-55.6 21-88.4-3.36-14.6-10.34-27.95-19.1-40.12zM616 96a24 24 0 1 0 24 24 24 24 0 0 0-24-24zm-48 48a24 24 0 1 0 24 24 24 24 0 0 0-24-24z"/></svg>