<svg xmlns="http://www.w3.org/2000/svg" viewBox="0 0 640 512"><!-- Font Awesome Pro 5.15.4 by @fontawesome - https://fontawesome.com License - https://fontawesome.com/license (Commercial License) --><path d="M608 320h-64v64h22.4c5.3 0 9.6 3.6 9.6 8v16c0 4.4-4.3 8-9.6 8H73.6c-5.3 0-9.6-3.6-9.6-8v-16c0-4.4 4.3-8 9.6-8H96v-64H32c-17.7 0-32 14.3-32 32v96c0 17.7 14.3 32 32 32h576c17.7 0 32-14.3 32-32v-96c0-17.7-14.3-32-32-32zm-96 64V64.3c0-17.9-14.5-32.3-32.3-32.3H160.4C142.5 32 128 46.5 128 64.3V384h384zM235.1 157.1c-6.2-6.2-6.2-16.4 0-22.6l11.3-11.3c6.2-6.2 16.4-6.2 22.6 0l50.9 50.9 50.9-50.9c6.2-6.2 16.4-6.2 22.6 0l11.3 11.3c6.2 6.2 6.2 16.4 0 22.6L353.9 208l50.9 50.9c6.2 6.2 6.2 16.4 0 22.6l-11.3 11.3c-6.2 6.2-16.4 6.2-22.6 0L320 241.9l-50.9 50.9c-6.2 6.2-16.4 6.2-22.6 0l-11.3-11.3c-6.2-6.2-6.2-16.4 0-22.6l50.9-50.9-51-50.9z"/></svg>