<svg xmlns="http://www.w3.org/2000/svg" viewBox="0 0 640 512"><!-- Font Awesome Pro 5.15.4 by @fontawesome - https://fontawesome.com License - https://fontawesome.com/license (Commercial License) --><path d="M224,224V92.88c0-36.88-25.33-68.15-59.43-73.37L39.55.39c-26-4-46.53,23.34-37.3,49.69L70.78,224ZM600.45.39l-125,19.12C441.33,24.73,416,56,416,92.88V224H569.22L637.75,50.08C647,23.73,626.48-3.59,600.45.39ZM384,56a40,40,0,0,0-40-40H296a40,40,0,0,0-40,40V224H384ZM560,256H80a16,16,0,0,0-16,16v32a16,16,0,0,0,16,16H97.79c-.31.3-.68.5-1,.8A112,112,0,1,0,286.47,416h67.06A111.85,111.85,0,1,0,543.2,320.8c-.31-.3-.68-.5-1-.8H560a16,16,0,0,0,16-16V272A16,16,0,0,0,560,256ZM160,461.74A62.48,62.48,0,0,1,114.26,416H160ZM160,384H114.26A62.44,62.44,0,0,1,160,338.26Zm61.25,61.25A63.43,63.43,0,0,1,192,461.74V416h45.74A63.43,63.43,0,0,1,221.25,445.25ZM192,384V338.26A62.44,62.44,0,0,1,237.74,384Zm256,77.74A62.48,62.48,0,0,1,402.26,416H448ZM448,384H402.26A62.44,62.44,0,0,1,448,338.26Zm61.25,61.25A63.43,63.43,0,0,1,480,461.74V416h45.74A63.34,63.34,0,0,1,509.25,445.25ZM480,384V338.26A62.44,62.44,0,0,1,525.74,384Z"/></svg>