<svg xmlns="http://www.w3.org/2000/svg" viewBox="0 0 640 512"><!-- Font Awesome Pro 5.15.4 by @fontawesome - https://fontawesome.com License - https://fontawesome.com/license (Commercial License) --><path d="M610.5 117L338.4 3.7a48.15 48.15 0 0 0-36.9 0L29.5 117C11.7 124.5 0 141.9 0 161.3V504c0 4.4 3.6 8 8 8h48c4.4 0 8-3.6 8-8V208c0-8.8 7.2-16 16-16h480c8.8 0 16 7.2 16 16v296c0 4.4 3.6 8 8 8h48c4.4 0 8-3.6 8-8V161.3c0-19.4-11.7-36.8-29.5-44.3zM304 416H144c-8.8 0-16 7.2-16 16v64c0 8.8 7.2 16 16 16h160c8.8 0 16-7.2 16-16v-64c0-8.8-7.2-16-16-16zm192 0H368c-8.8 0-16 7.2-16 16v64c0 8.8 7.2 16 16 16h128c8.8 0 16-7.2 16-16v-64c0-8.8-7.2-16-16-16zM304 288H144c-8.8 0-16 7.2-16 16v64c0 8.8 7.2 16 16 16h160c8.8 0 16-7.2 16-16v-64c0-8.8-7.2-16-16-16z"/></svg>