<svg xmlns="http://www.w3.org/2000/svg" viewBox="0 0 384 512"><!-- Font Awesome Pro 5.15.4 by @fontawesome - https://fontawesome.com License - https://fontawesome.com/license (Commercial License) --><path d="M192 80c97.2 0 176 78.8 176 176s-78.8 176-176 176S16 353.2 16 256 94.8 80 192 80m0-24c47.4 0 92.4 16.6 128 46.3V24c0-13.3-10.7-24-24-24H88C74.7 0 64 10.7 64 24v78.3C99.6 72.6 144.5 56 192 56zm0 400c-47.5 0-92.4-16.7-128-46.3V488c0 13.3 10.7 24 24 24h208c13.3 0 24-10.7 24-24v-78.3c-35.6 29.7-80.6 46.3-128 46.3zm53-130.3l18.8-25.9c3.9-5.4 2.7-12.9-2.6-16.8L220 253v-93c0-6.6-5.4-12-12-12h-32c-6.6 0-12 5.4-12 12v115.4c0 3.8 1.8 7.4 4.9 9.7l59.3 43.2c5.4 4 12.9 2.8 16.8-2.6z"/></svg>