<svg xmlns="http://www.w3.org/2000/svg" viewBox="0 0 384 512"><!-- Font Awesome Pro 5.15.4 by @fontawesome - https://fontawesome.com License - https://fontawesome.com/license (Commercial License) --><path d="M320 80H64a64 64 0 0 0-64 64v224a64 64 0 0 0 64 64h256a64 64 0 0 0 64-64V144a64 64 0 0 0-64-64zM120 368a8 8 0 0 1-8 8H80a8 8 0 0 1-8-8v-32a8 8 0 0 1 8-8h32a8 8 0 0 1 8 8zm0-96a8 8 0 0 1-8 8H80a8 8 0 0 1-8-8v-32a8 8 0 0 1 8-8h32a8 8 0 0 1 8 8zm96 96a8 8 0 0 1-8 8h-32a8 8 0 0 1-8-8v-32a8 8 0 0 1 8-8h32a8 8 0 0 1 8 8zm0-96a8 8 0 0 1-8 8h-32a8 8 0 0 1-8-8v-32a8 8 0 0 1 8-8h32a8 8 0 0 1 8 8zm96 96a8 8 0 0 1-8 8h-32a8 8 0 0 1-8-8v-32a8 8 0 0 1 8-8h32a8 8 0 0 1 8 8zm0-96a8 8 0 0 1-8 8h-32a8 8 0 0 1-8-8v-32a8 8 0 0 1 8-8h32a8 8 0 0 1 8 8zm0-96a8 8 0 0 1-8 8H80a8 8 0 0 1-8-8v-32a8 8 0 0 1 8-8h224a8 8 0 0 1 8 8zm8-144a32 32 0 0 0-32-32H96a32 32 0 0 0-32 32v16h256zM64 480a32 32 0 0 0 32 32h192a32 32 0 0 0 32-32v-16H64z"/></svg>