<svg xmlns="http://www.w3.org/2000/svg" viewBox="0 0 640 512"><!-- Font Awesome Pro 5.15.4 by @fontawesome - https://fontawesome.com License - https://fontawesome.com/license (Commercial License) --><path d="M464 480c-90.52 0-132.84-107.94-173.8-212.31C258.64 187.2 222.88 96 176 96c-39.7 0-91.38 81.89-114.12 149a16 16 0 0 1-19.74 10.33l-30.72-9.21A16 16 0 0 1 .84 225.68C19.55 169.79 82.16 32 176 32c90.52 0 132.84 107.94 173.8 212.31C381.36 324.8 417.12 416 464 416c39.7 0 91.38-81.89 114.12-149a16 16 0 0 1 19.74-10.33l30.72 9.21a16 16 0 0 1 10.58 20.43C620.45 342.21 557.84 480 464 480z"/></svg>