<svg xmlns="http://www.w3.org/2000/svg" viewBox="0 0 640 512"><!-- Font Awesome Pro 5.15.4 by @fontawesome - https://fontawesome.com License - https://fontawesome.com/license (Commercial License) --><path d="M624 263h-43.69l-12.65-84a24 24 0 0 0-23.1-20h-.12c-9.5 0-21.38 7.22-23.91 18.95L500.16 281 471.75 83.44a24 24 0 0 0-47.41-.39l-38.5 239-42.06-302.46a24 24 0 0 0-47.56 0l-42.06 302.47-38.5-239a24 24 0 0 0-47.41.39L139.84 281l-20.37-103a23.54 23.54 0 0 0-23.59-19h-.5a24 24 0 0 0-23 20l-12.69 84H16a16 16 0 0 0-16 16v16a16 16 0 0 0 16 16h81.19l23.34 117c2.56 11.89 11.94 19.42 24.13 19a24.08 24.08 0 0 0 23.09-20.45l25.5-178.08L232.34 491c1.82 11.13 12.63 19.8 23.85 20.05a24 24 0 0 0 23.59-20.61L320 200.7l40.22 289.71a24 24 0 0 0 47.44.54l39.09-242.5 25.5 178.13a24 24 0 0 0 23 20.42c12 0 21.84-8 24.19-18.95l23.34-117H624a16 16 0 0 0 16-16V279a16 16 0 0 0-16-16z"/></svg>