<svg xmlns="http://www.w3.org/2000/svg" viewBox="0 0 640 512"><!-- Font Awesome Pro 5.15.4 by @fontawesome - https://fontawesome.com License - https://fontawesome.com/license (Commercial License) --><path d="M163.46 256.92l-66.53-51.41c-.5 6.11-.93 12.25-.93 18.49 0 76.19 38.12 143.39 96.23 183.85L143 438.6a32 32 0 0 0-15 27.14V480a32 32 0 0 0 32 32h320a31.58 31.58 0 0 0 10.7-2.16L327 383.3c-83.42 3.7-148.41-54.1-163.54-126.38zM633.82 458.1L500.7 355.21c27-36.85 43.3-82 43.3-131.21C544 100.29 443.71 0 320 0a223.48 223.48 0 0 0-173 81.8L45.46 3.37A16 16 0 0 0 23 6.18L3.37 31.45A16 16 0 0 0 6.18 53.9l588.36 454.73a16 16 0 0 0 22.46-2.81l19.64-25.27a16 16 0 0 0-2.82-22.45zM320 176a47.78 47.78 0 0 0-33.46 13.69l-25.3-19.55A79.57 79.57 0 0 1 320 144a16 16 0 0 1 0 32zm130.12 140.12l-25.23-19.5A126 126 0 0 0 448 224a127.86 127.86 0 0 0-224.93-83.36l-24.65-19C227.56 86.62 270.85 64 320 64a160 160 0 0 1 160 160 157.21 157.21 0 0 1-29.88 92.12z"/></svg>