<svg xmlns="http://www.w3.org/2000/svg" viewBox="0 0 448 512"><!-- Font Awesome Pro 5.15.4 by @fontawesome - https://fontawesome.com License - https://fontawesome.com/license (Commercial License) --><path d="M298.9 384.8L224 416l-74.9-31.2c-10.4-3.5-21.1 4.3-21.1 15.2v96c0 10.9 10.7 18.6 21.1 15.2L224 480l74.9 31.2c10.4 3.5 21.1-4.3 21.1-15.2v-96c0-10.9-10.7-18.6-21.1-15.2zM448 224c0-16.9-8.7-31.6-21.9-40.2 8.9-12.9 11.3-29.9 4.8-45.5-6.6-15.9-20.7-26.2-36.4-28.9 3.3-15.4-.2-31.9-12.1-43.8-11.9-11.9-28.5-15.4-43.8-12.1-2.7-15.8-13-29.9-28.8-36.4-15.6-6.5-32.6-4-45.5 4.8C255.6 8.7 240.9 0 224 0s-31.6 8.7-40.2 21.9c-13-8.9-30-11.3-45.5-4.8-15.8 6.6-26.2 20.7-28.8 36.4-15.4-3.3-31.9.2-43.8 12.1C53.8 77.5 50.3 94 53.6 109.4c-15.8 2.7-29.8 13-36.4 28.8-6.5 15.6-4 32.6 4.8 45.5C8.7 192.4 0 207.1 0 224s8.7 31.6 21.9 40.2c-8.9 12.9-11.3 29.9-4.8 45.5 6.6 15.8 20.7 25.8 36.5 28.5-3.4 15.5 0 32.2 12.1 44.2 8.6 8.6 19.6 12.7 30.8 13.5 1-11.4 5.7-22 14-30.2 9-8.8 21-13.7 33.5-13.7 5.2 0 10.3.8 15.2 2.5l1.1.4 1.1.4 62.7 26.1 62.7-26.1 1.1-.4 1.1-.4c4.9-1.6 10-2.5 15.2-2.5 25 0 45.4 19.3 47.6 43.8 11.2-.7 22.2-4.9 30.8-13.5 12-12 15.5-28.7 12.1-44.2 15.8-2.7 29.9-12.6 36.5-28.5 6.5-15.6 4-32.6-4.8-45.5 12.9-8.5 21.6-23.2 21.6-40.1zm-146.5 26.2c-2.8 8.9-1.1 20.2-6.3 27.6-5.2 7.5-16.1 9.3-23.3 14.8-7.1 5.4-12.1 15.6-20.7 18.5-8.2 2.8-18.1-2.3-27.2-2.3s-19 5.1-27.2 2.3c-8.5-2.9-13.6-13.1-20.7-18.5-7.2-5.4-18.1-7.3-23.3-14.8-5.2-7.4-3.5-18.7-6.3-27.6-2.7-8.6-10.5-16.7-10.5-26.2s7.8-17.6 10.5-26.2c2.8-8.9 1.1-20.2 6.3-27.6 5.2-7.5 16.1-9.3 23.3-14.8 7.1-5.4 12.1-15.6 20.7-18.5 8.2-2.8 18.1 2.3 27.2 2.3s19-5.1 27.2-2.3c8.5 2.9 13.6 13.1 20.7 18.5 7.2 5.4 18.1 7.3 23.3 14.8 5.2 7.4 3.5 18.7 6.3 27.6 2.7 8.6 10.5 16.7 10.5 26.2s-7.8 17.6-10.5 26.2z"/></svg>